<?xml version="1.0" encoding="UTF-8" standalone="no"?>
<!DOCTYPE svg PUBLIC "-//W3C//DTD SVG 1.1//EN"
 "http://www.w3.org/Graphics/SVG/1.1/DTD/svg11.dtd">
<!-- Generated by graphviz version 2.43.0 (0)
 -->
<!-- Title: OneDim.cpp Pages: 1 -->
<!--zoomable 420 -->
<svg id="main" version="1.1" xmlns="http://www.w3.org/2000/svg" xmlns:xlink="http://www.w3.org/1999/xlink" xml:space="preserve" onload="init(evt)">
<style type="text/css"><![CDATA[
.edge:hover path { stroke: red; }
.edge:hover polygon { stroke: red; fill: red; }
]]></style>
<script type="text/javascript"><![CDATA[
var edges = document.getElementsByTagName('g');
if (edges && edges.length) {
  for (var i=0;i<edges.length;i++) {
    if (edges[i].id.substr(0,4)=='edge') {
      edges[i].setAttribute('class','edge');
    }
  }
}
]]></script>
        <defs>
                <circle id="rim" cx="0" cy="0" r="7"/>
                <circle id="rim2" cx="0" cy="0" r="3.5"/>
                <g id="zoomPlus">
                        <use xlink:href="#rim" fill="#404040">
                                <set attributeName="fill" to="#808080" begin="zoomplus.mouseover" end="zoomplus.mouseout"/>
                        </use>
                        <path d="M-4,0h8M0,-4v8" fill="none" stroke="white" stroke-width="1.5" pointer-events="none"/>
                </g>
                <g id="zoomMin">
                        <use xlink:href="#rim" fill="#404040">
                                <set attributeName="fill" to="#808080" begin="zoomminus.mouseover" end="zoomminus.mouseout"/>
                        </use>
                        <path d="M-4,0h8" fill="none" stroke="white" stroke-width="1.5" pointer-events="none"/>
                </g>
                <g id="dirArrow">
                        <path fill="none" stroke="white" stroke-width="1.5" d="M0,-3.0v7 M-2.5,-0.5L0,-3.0L2.5,-0.5"/>
                </g>
               <g id="resetDef">
                       <use xlink:href="#rim2" fill="#404040">
                               <set attributeName="fill" to="#808080" begin="reset.mouseover" end="reset.mouseout"/>
                       </use>
               </g>
        </defs>

<script type="text/javascript">
var viewWidth = 886;
var viewHeight = 420;
var sectionId = 'dynsection-0';
</script>
<script xlink:href="../../svgpan.js"/>
<svg id="graph" class="graph">
<g id="viewport">
<title>OneDim.cpp</title>
<polygon fill="white" stroke="transparent" points="-4,4 -4,-416 882,-416 882,4 -4,4"/>
<!-- Node1 -->
<g id="node1" class="node">
<title>Node1</title>
<g id="a_node1"><a xlink:title=" ">
<polygon fill="#bfbfbf" stroke="black" points="457.5,-392.5 457.5,-411.5 534.5,-411.5 534.5,-392.5 457.5,-392.5"/>
<text text-anchor="middle" x="496" y="-399.5" font-family="Helvetica,sans-Serif" font-size="10.00">OneDim.cpp</text>
</a>
</g>
</g>
<!-- Node2 -->
<g id="node2" class="node">
<title>Node2</title>
<g id="a_node2"><a xlink:href="../../de/da1/OneDim_8h.html" target="_top" xlink:title=" ">
<polygon fill="white" stroke="black" points="213,-336.5 213,-355.5 347,-355.5 347,-336.5 213,-336.5"/>
<text text-anchor="middle" x="280" y="-343.5" font-family="Helvetica,sans-Serif" font-size="10.00">cantera/oneD/OneDim.h</text>
</a>
</g>
</g>
<!-- Node1&#45;&gt;Node2 -->
<g id="edge1" class="edge">
<title>Node1&#45;&gt;Node2</title>
<path fill="none" stroke="midnightblue" d="M461.77,-392.44C424.49,-383.12 364.73,-368.18 323.99,-358"/>
<polygon fill="midnightblue" stroke="midnightblue" points="324.62,-354.55 314.07,-355.52 322.92,-361.34 324.62,-354.55"/>
</g>
<!-- Node25 -->
<g id="node11" class="node">
<title>Node25</title>
<g id="a_node11"><a xlink:href="../../d2/d9e/Func1_8h.html" target="_top" xlink:title=" ">
<polygon fill="white" stroke="black" points="42,-168.5 42,-187.5 184,-187.5 184,-168.5 42,-168.5"/>
<text text-anchor="middle" x="113" y="-175.5" font-family="Helvetica,sans-Serif" font-size="10.00">cantera/numerics/Func1.h</text>
</a>
</g>
</g>
<!-- Node1&#45;&gt;Node25 -->
<g id="edge14" class="edge">
<title>Node1&#45;&gt;Node25</title>
<path fill="none" stroke="midnightblue" d="M457.32,-399.34C387.47,-395.65 243.85,-384.71 204,-356 149.38,-316.64 125.19,-234.66 116.75,-197.74"/>
<polygon fill="midnightblue" stroke="midnightblue" points="120.14,-196.87 114.62,-187.82 113.3,-198.34 120.14,-196.87"/>
</g>
<!-- Node27 -->
<g id="node13" class="node">
<title>Node27</title>
<g id="a_node13"><a xlink:href="../../d6/d1e/MultiNewton_8h.html" target="_top" xlink:title=" ">
<polygon fill="white" stroke="black" points="365,-336.5 365,-355.5 521,-355.5 521,-336.5 365,-336.5"/>
<text text-anchor="middle" x="443" y="-343.5" font-family="Helvetica,sans-Serif" font-size="10.00">cantera/oneD/MultiNewton.h</text>
</a>
</g>
</g>
<!-- Node1&#45;&gt;Node27 -->
<g id="edge18" class="edge">
<title>Node1&#45;&gt;Node27</title>
<path fill="none" stroke="midnightblue" d="M487.25,-392.08C479.53,-384.22 468.1,-372.57 458.78,-363.08"/>
<polygon fill="midnightblue" stroke="midnightblue" points="461.09,-360.44 451.59,-355.75 456.1,-365.34 461.09,-360.44"/>
</g>
<!-- Node28 -->
<g id="node14" class="node">
<title>Node28</title>
<g id="a_node14"><a xlink:href="../../dd/d2a/AnyMap_8h.html" target="_top" xlink:title=" ">
<polygon fill="white" stroke="black" points="503.5,-168.5 503.5,-187.5 634.5,-187.5 634.5,-168.5 503.5,-168.5"/>
<text text-anchor="middle" x="569" y="-175.5" font-family="Helvetica,sans-Serif" font-size="10.00">cantera/base/AnyMap.h</text>
</a>
</g>
</g>
<!-- Node1&#45;&gt;Node28 -->
<g id="edge20" class="edge">
<title>Node1&#45;&gt;Node28</title>
<path fill="none" stroke="midnightblue" d="M504.29,-392.44C512.09,-383.9 523.52,-370.05 530,-356 554.98,-301.81 564.35,-230.77 567.53,-197.59"/>
<polygon fill="midnightblue" stroke="midnightblue" points="571.03,-197.79 568.41,-187.52 564.06,-197.18 571.03,-197.79"/>
</g>
<!-- Node34 -->
<g id="node20" class="node">
<title>Node34</title>
<g id="a_node20"><a xlink:title=" ">
<polygon fill="white" stroke="#bfbfbf" points="577.5,-336.5 577.5,-355.5 632.5,-355.5 632.5,-336.5 577.5,-336.5"/>
<text text-anchor="middle" x="605" y="-343.5" font-family="Helvetica,sans-Serif" font-size="10.00">fstream</text>
</a>
</g>
</g>
<!-- Node1&#45;&gt;Node34 -->
<g id="edge30" class="edge">
<title>Node1&#45;&gt;Node34</title>
<path fill="none" stroke="midnightblue" d="M513.51,-392.32C531.07,-383.62 558.33,-370.12 578.53,-360.11"/>
<polygon fill="midnightblue" stroke="midnightblue" points="580.12,-363.23 587.53,-355.65 577.02,-356.96 580.12,-363.23"/>
</g>
<!-- Node35 -->
<g id="node21" class="node">
<title>Node35</title>
<g id="a_node21"><a xlink:title=" ">
<polygon fill="white" stroke="#bfbfbf" points="651,-336.5 651,-355.5 695,-355.5 695,-336.5 651,-336.5"/>
<text text-anchor="middle" x="673" y="-343.5" font-family="Helvetica,sans-Serif" font-size="10.00">ctime</text>
</a>
</g>
</g>
<!-- Node1&#45;&gt;Node35 -->
<g id="edge31" class="edge">
<title>Node1&#45;&gt;Node35</title>
<path fill="none" stroke="midnightblue" d="M524.05,-392.44C555.94,-382.71 607.89,-366.86 641.24,-356.69"/>
<polygon fill="midnightblue" stroke="midnightblue" points="642.41,-359.99 650.96,-353.73 640.37,-353.3 642.41,-359.99"/>
</g>
<!-- Node3 -->
<g id="node3" class="node">
<title>Node3</title>
<g id="a_node3"><a xlink:href="../../db/dce/Domain1D_8h.html" target="_top" xlink:title=" ">
<polygon fill="white" stroke="black" points="200.5,-224.5 200.5,-243.5 277.5,-243.5 277.5,-224.5 200.5,-224.5"/>
<text text-anchor="middle" x="239" y="-231.5" font-family="Helvetica,sans-Serif" font-size="10.00">Domain1D.h</text>
</a>
</g>
</g>
<!-- Node2&#45;&gt;Node3 -->
<g id="edge2" class="edge">
<title>Node2&#45;&gt;Node3</title>
<path fill="none" stroke="midnightblue" d="M276.78,-336.37C270.14,-318.54 254.76,-277.3 245.81,-253.27"/>
<polygon fill="midnightblue" stroke="midnightblue" points="248.97,-251.74 242.2,-243.59 242.42,-254.18 248.97,-251.74"/>
</g>
<!-- Node21 -->
<g id="node8" class="node">
<title>Node21</title>
<g id="a_node8"><a xlink:href="../../d5/d60/MultiJac_8h.html" target="_top" xlink:title=" ">
<polygon fill="white" stroke="black" points="308.5,-280.5 308.5,-299.5 373.5,-299.5 373.5,-280.5 308.5,-280.5"/>
<text text-anchor="middle" x="341" y="-287.5" font-family="Helvetica,sans-Serif" font-size="10.00">MultiJac.h</text>
</a>
</g>
</g>
<!-- Node2&#45;&gt;Node21 -->
<g id="edge8" class="edge">
<title>Node2&#45;&gt;Node21</title>
<path fill="none" stroke="midnightblue" d="M284.91,-336.08C292.42,-327.9 305.97,-315.63 317.99,-305.95"/>
<polygon fill="midnightblue" stroke="midnightblue" points="320.23,-308.65 325.98,-299.75 315.94,-303.12 320.23,-308.65"/>
</g>
<!-- Node4 -->
<g id="node4" class="node">
<title>Node4</title>
<g id="a_node4"><a xlink:href="../../db/d98/ctexceptions_8h.html" target="_top" xlink:title="Definitions for the classes that are thrown when Cantera experiences an error condition (also contain...">
<polygon fill="white" stroke="black" points="177,-112.5 177,-131.5 331,-131.5 331,-112.5 177,-112.5"/>
<text text-anchor="middle" x="254" y="-119.5" font-family="Helvetica,sans-Serif" font-size="10.00">cantera/base/ctexceptions.h</text>
</a>
</g>
</g>
<!-- Node3&#45;&gt;Node4 -->
<g id="edge3" class="edge">
<title>Node3&#45;&gt;Node4</title>
<path fill="none" stroke="midnightblue" d="M240.18,-224.37C242.6,-206.62 248.18,-165.67 251.46,-141.6"/>
<polygon fill="midnightblue" stroke="midnightblue" points="254.95,-141.97 252.83,-131.59 248.01,-141.03 254.95,-141.97"/>
</g>
<!-- Node5 -->
<g id="node5" class="node">
<title>Node5</title>
<g id="a_node5"><a xlink:href="../../d9/ddc/ct__defs_8h.html" target="_top" xlink:title="This file contains definitions of constants, types and terms that are used in internal routines and a...">
<polygon fill="white" stroke="red" points="284.5,-0.5 284.5,-19.5 345.5,-19.5 345.5,-0.5 284.5,-0.5"/>
<text text-anchor="middle" x="315" y="-7.5" font-family="Helvetica,sans-Serif" font-size="10.00">ct_defs.h</text>
</a>
</g>
</g>
<!-- Node4&#45;&gt;Node5 -->
<g id="edge4" class="edge">
<title>Node4&#45;&gt;Node5</title>
<path fill="none" stroke="midnightblue" d="M255.26,-112.08C257.39,-99.05 262.53,-74.39 273,-56 279.25,-45.02 288.69,-34.59 297.03,-26.53"/>
<polygon fill="midnightblue" stroke="midnightblue" points="299.57,-28.95 304.56,-19.6 294.83,-23.8 299.57,-28.95"/>
</g>
<!-- Node16 -->
<g id="node6" class="node">
<title>Node16</title>
<g id="a_node6"><a xlink:href="../../db/def/fmt_8h.html" target="_top" xlink:title="Wrapper for either system&#45;installed or local headers for fmt.">
<polygon fill="white" stroke="red" points="116.5,-56.5 116.5,-75.5 225.5,-75.5 225.5,-56.5 116.5,-56.5"/>
<text text-anchor="middle" x="171" y="-63.5" font-family="Helvetica,sans-Serif" font-size="10.00">cantera/base/fmt.h</text>
</a>
</g>
</g>
<!-- Node4&#45;&gt;Node16 -->
<g id="edge5" class="edge">
<title>Node4&#45;&gt;Node16</title>
<path fill="none" stroke="midnightblue" d="M240.66,-112.32C227.84,-103.98 208.22,-91.21 193.06,-81.35"/>
<polygon fill="midnightblue" stroke="midnightblue" points="194.59,-78.17 184.3,-75.65 190.78,-84.04 194.59,-78.17"/>
</g>
<!-- Node20 -->
<g id="node7" class="node">
<title>Node20</title>
<g id="a_node7"><a xlink:title=" ">
<polygon fill="white" stroke="#bfbfbf" points="282.5,-56.5 282.5,-75.5 347.5,-75.5 347.5,-56.5 282.5,-56.5"/>
<text text-anchor="middle" x="315" y="-63.5" font-family="Helvetica,sans-Serif" font-size="10.00">exception</text>
</a>
</g>
</g>
<!-- Node4&#45;&gt;Node20 -->
<g id="edge7" class="edge">
<title>Node4&#45;&gt;Node20</title>
<path fill="none" stroke="midnightblue" d="M263.8,-112.32C272.82,-104.34 286.41,-92.31 297.32,-82.65"/>
<polygon fill="midnightblue" stroke="midnightblue" points="299.85,-85.08 305.02,-75.83 295.21,-79.84 299.85,-85.08"/>
</g>
<!-- Node16&#45;&gt;Node5 -->
<g id="edge6" class="edge">
<title>Node16&#45;&gt;Node5</title>
<path fill="none" stroke="midnightblue" d="M193.82,-56.44C217.83,-47.44 255.83,-33.19 282.87,-23.05"/>
<polygon fill="midnightblue" stroke="midnightblue" points="284.16,-26.3 292.29,-19.52 281.7,-19.75 284.16,-26.3"/>
</g>
<!-- Node21&#45;&gt;Node2 -->
<g id="edge13" class="edge">
<title>Node21&#45;&gt;Node2</title>
<path fill="none" stroke="midnightblue" d="M336.17,-299.83C328.66,-308.03 315.02,-320.38 302.94,-330.1"/>
<polygon fill="midnightblue" stroke="midnightblue" points="300.67,-327.43 294.92,-336.32 304.96,-332.96 300.67,-327.43"/>
</g>
<!-- Node22 -->
<g id="node9" class="node">
<title>Node22</title>
<g id="a_node9"><a xlink:href="../../de/d7e/BandMatrix_8h.html" target="_top" xlink:title="Declarations for the class BandMatrix which is a child class of GeneralMatrix for banded matrices han...">
<polygon fill="white" stroke="black" points="296,-224.5 296,-243.5 466,-243.5 466,-224.5 296,-224.5"/>
<text text-anchor="middle" x="381" y="-231.5" font-family="Helvetica,sans-Serif" font-size="10.00">cantera/numerics/BandMatrix.h</text>
</a>
</g>
</g>
<!-- Node21&#45;&gt;Node22 -->
<g id="edge9" class="edge">
<title>Node21&#45;&gt;Node22</title>
<path fill="none" stroke="midnightblue" d="M347.61,-280.08C353.26,-272.46 361.54,-261.26 368.45,-251.94"/>
<polygon fill="midnightblue" stroke="midnightblue" points="371.38,-253.87 374.52,-243.75 365.75,-249.7 371.38,-253.87"/>
</g>
<!-- Node23 -->
<g id="node10" class="node">
<title>Node23</title>
<g id="a_node10"><a xlink:href="../../da/d15/GeneralMatrix_8h.html" target="_top" xlink:title="Declarations for the class GeneralMatrix which is a virtual base class for matrices handled by solver...">
<polygon fill="white" stroke="red" points="328.5,-168.5 328.5,-187.5 423.5,-187.5 423.5,-168.5 328.5,-168.5"/>
<text text-anchor="middle" x="376" y="-175.5" font-family="Helvetica,sans-Serif" font-size="10.00">GeneralMatrix.h</text>
</a>
</g>
</g>
<!-- Node22&#45;&gt;Node23 -->
<g id="edge10" class="edge">
<title>Node22&#45;&gt;Node23</title>
<path fill="none" stroke="midnightblue" d="M380.17,-224.08C379.52,-217.01 378.58,-206.86 377.76,-197.99"/>
<polygon fill="midnightblue" stroke="midnightblue" points="381.22,-197.39 376.81,-187.75 374.25,-198.03 381.22,-197.39"/>
</g>
<!-- Node23&#45;&gt;Node4 -->
<g id="edge12" class="edge">
<title>Node23&#45;&gt;Node4</title>
<path fill="none" stroke="midnightblue" d="M356.67,-168.44C336.68,-159.6 305.26,-145.69 282.44,-135.59"/>
<polygon fill="midnightblue" stroke="midnightblue" points="283.8,-132.36 273.24,-131.52 280.97,-138.76 283.8,-132.36"/>
</g>
<!-- Node23&#45;&gt;Node5 -->
<g id="edge11" class="edge">
<title>Node23&#45;&gt;Node5</title>
<path fill="none" stroke="midnightblue" d="M376.21,-168.29C376.37,-147.66 374.76,-94.7 356,-56 350.62,-44.9 341.62,-34.57 333.43,-26.61"/>
<polygon fill="midnightblue" stroke="midnightblue" points="335.69,-23.94 325.96,-19.76 330.96,-29.1 335.69,-23.94"/>
</g>
<!-- Node25&#45;&gt;Node4 -->
<g id="edge16" class="edge">
<title>Node25&#45;&gt;Node4</title>
<path fill="none" stroke="midnightblue" d="M135.34,-168.44C158.75,-159.48 195.74,-145.31 222.19,-135.18"/>
<polygon fill="midnightblue" stroke="midnightblue" points="223.68,-138.36 231.76,-131.52 221.17,-131.82 223.68,-138.36"/>
</g>
<!-- Node25&#45;&gt;Node5 -->
<g id="edge15" class="edge">
<title>Node25&#45;&gt;Node5</title>
<path fill="none" stroke="midnightblue" d="M109.02,-168.18C99.86,-146.4 80.06,-89.39 107,-56 127.6,-30.47 219.68,-18.71 274.18,-13.9"/>
<polygon fill="midnightblue" stroke="midnightblue" points="274.55,-17.38 284.22,-13.05 273.96,-10.4 274.55,-17.38"/>
</g>
<!-- Node26 -->
<g id="node12" class="node">
<title>Node26</title>
<g id="a_node12"><a xlink:title=" ">
<polygon fill="white" stroke="#bfbfbf" points="0,-112.5 0,-131.5 60,-131.5 60,-112.5 0,-112.5"/>
<text text-anchor="middle" x="30" y="-119.5" font-family="Helvetica,sans-Serif" font-size="10.00">iostream</text>
</a>
</g>
</g>
<!-- Node25&#45;&gt;Node26 -->
<g id="edge17" class="edge">
<title>Node25&#45;&gt;Node26</title>
<path fill="none" stroke="midnightblue" d="M99.66,-168.32C86.84,-159.98 67.22,-147.21 52.06,-137.35"/>
<polygon fill="midnightblue" stroke="midnightblue" points="53.59,-134.17 43.3,-131.65 49.78,-140.04 53.59,-134.17"/>
</g>
<!-- Node27&#45;&gt;Node21 -->
<g id="edge19" class="edge">
<title>Node27&#45;&gt;Node21</title>
<path fill="none" stroke="midnightblue" d="M426.61,-336.32C410.33,-327.7 385.13,-314.36 366.28,-304.39"/>
<polygon fill="midnightblue" stroke="midnightblue" points="367.82,-301.24 357.35,-299.65 364.55,-307.43 367.82,-301.24"/>
</g>
<!-- Node28&#45;&gt;Node4 -->
<g id="edge22" class="edge">
<title>Node28&#45;&gt;Node4</title>
<path fill="none" stroke="midnightblue" d="M519.09,-168.44C463.33,-158.89 373.11,-143.42 313.67,-133.23"/>
<polygon fill="midnightblue" stroke="midnightblue" points="314.13,-129.76 303.68,-131.52 312.94,-136.66 314.13,-129.76"/>
</g>
<!-- Node28&#45;&gt;Node5 -->
<g id="edge21" class="edge">
<title>Node28&#45;&gt;Node5</title>
<path fill="none" stroke="midnightblue" d="M521.14,-168.43C493.53,-161.79 459.2,-150.51 433,-132 398.08,-107.32 404.37,-86.11 374,-56 362.63,-44.72 348.39,-33.79 336.75,-25.52"/>
<polygon fill="midnightblue" stroke="midnightblue" points="338.65,-22.58 328.44,-19.76 334.66,-28.33 338.65,-22.58"/>
</g>
<!-- Node29 -->
<g id="node15" class="node">
<title>Node29</title>
<g id="a_node15"><a xlink:href="../../da/d58/Units_8h.html" target="_top" xlink:title="Header for unit conversion utilities, which are used to translate user input from input files (See In...">
<polygon fill="white" stroke="black" points="526.5,-56.5 526.5,-75.5 643.5,-75.5 643.5,-56.5 526.5,-56.5"/>
<text text-anchor="middle" x="585" y="-63.5" font-family="Helvetica,sans-Serif" font-size="10.00">cantera/base/Units.h</text>
</a>
</g>
</g>
<!-- Node28&#45;&gt;Node29 -->
<g id="edge23" class="edge">
<title>Node28&#45;&gt;Node29</title>
<path fill="none" stroke="midnightblue" d="M600.81,-168.38C618.95,-161.66 640.16,-150.31 651,-132 663.46,-110.96 637.83,-91.98 614.97,-80.04"/>
<polygon fill="midnightblue" stroke="midnightblue" points="616.3,-76.79 605.78,-75.52 613.21,-83.07 616.3,-76.79"/>
</g>
<!-- Node30 -->
<g id="node16" class="node">
<title>Node30</title>
<g id="a_node16"><a xlink:title=" ">
<polygon fill="white" stroke="#bfbfbf" points="698.5,-112.5 698.5,-131.5 791.5,-131.5 791.5,-112.5 698.5,-112.5"/>
<text text-anchor="middle" x="745" y="-119.5" font-family="Helvetica,sans-Serif" font-size="10.00">unordered_map</text>
</a>
</g>
</g>
<!-- Node28&#45;&gt;Node30 -->
<g id="edge25" class="edge">
<title>Node28&#45;&gt;Node30</title>
<path fill="none" stroke="midnightblue" d="M596.89,-168.44C626.75,-159.28 674.31,-144.69 707.46,-134.52"/>
<polygon fill="midnightblue" stroke="midnightblue" points="708.71,-137.8 717.24,-131.52 706.66,-131.1 708.71,-137.8"/>
</g>
<!-- Node31 -->
<g id="node17" class="node">
<title>Node31</title>
<g id="a_node17"><a xlink:title=" ">
<polygon fill="white" stroke="#bfbfbf" points="810,-112.5 810,-131.5 878,-131.5 878,-112.5 810,-112.5"/>
<text text-anchor="middle" x="844" y="-119.5" font-family="Helvetica,sans-Serif" font-size="10.00">filesystem</text>
</a>
</g>
</g>
<!-- Node28&#45;&gt;Node31 -->
<g id="edge26" class="edge">
<title>Node28&#45;&gt;Node31</title>
<path fill="none" stroke="midnightblue" d="M613.95,-168.48C658.61,-159.98 729.34,-146.39 799.8,-132.22"/>
<polygon fill="midnightblue" stroke="midnightblue" points="800.63,-135.62 809.74,-130.22 799.25,-128.76 800.63,-135.62"/>
</g>
<!-- Node32 -->
<g id="node18" class="node">
<title>Node32</title>
<g id="a_node18"><a xlink:title=" ">
<polygon fill="white" stroke="#bfbfbf" points="442.5,-112.5 442.5,-131.5 477.5,-131.5 477.5,-112.5 442.5,-112.5"/>
<text text-anchor="middle" x="460" y="-119.5" font-family="Helvetica,sans-Serif" font-size="10.00">any</text>
</a>
</g>
</g>
<!-- Node28&#45;&gt;Node32 -->
<g id="edge27" class="edge">
<title>Node28&#45;&gt;Node32</title>
<path fill="none" stroke="midnightblue" d="M551.49,-168.32C533.93,-159.62 506.67,-146.12 486.47,-136.11"/>
<polygon fill="midnightblue" stroke="midnightblue" points="487.98,-132.96 477.47,-131.65 484.88,-139.23 487.98,-132.96"/>
</g>
<!-- Node33 -->
<g id="node19" class="node">
<title>Node33</title>
<g id="a_node19"><a xlink:href="../../da/d4c/AnyMap_8inl_8h.html" target="_top" xlink:title=" ">
<polygon fill="white" stroke="black" points="496,-112.5 496,-131.5 642,-131.5 642,-112.5 496,-112.5"/>
<text text-anchor="middle" x="569" y="-119.5" font-family="Helvetica,sans-Serif" font-size="10.00">cantera/base/AnyMap.inl.h</text>
</a>
</g>
</g>
<!-- Node28&#45;&gt;Node33 -->
<g id="edge28" class="edge">
<title>Node28&#45;&gt;Node33</title>
<path fill="none" stroke="midnightblue" d="M563.83,-168.08C562.32,-160.93 561.89,-150.64 562.54,-141.69"/>
<polygon fill="midnightblue" stroke="midnightblue" points="566.02,-142.13 563.87,-131.75 559.08,-141.2 566.02,-142.13"/>
</g>
<!-- Node29&#45;&gt;Node5 -->
<g id="edge24" class="edge">
<title>Node29&#45;&gt;Node5</title>
<path fill="none" stroke="midnightblue" d="M542.22,-56.44C491.02,-46.2 405.94,-29.19 355.69,-19.14"/>
<polygon fill="midnightblue" stroke="midnightblue" points="356.32,-15.69 345.82,-17.16 354.94,-22.56 356.32,-15.69"/>
</g>
<!-- Node33&#45;&gt;Node28 -->
<g id="edge29" class="edge">
<title>Node33&#45;&gt;Node28</title>
<path fill="none" stroke="midnightblue" d="M574.13,-131.75C575.66,-138.86 576.1,-149.14 575.47,-158.1"/>
<polygon fill="midnightblue" stroke="midnightblue" points="571.99,-157.71 574.17,-168.08 578.93,-158.62 571.99,-157.71"/>
</g>
</g>
</svg>
        <g id="navigator" transform="translate(0 0)" fill="#404254">
                <rect fill="#f2f5e9" fill-opacity="0.5" stroke="#606060" stroke-width=".5" x="0" y="0" width="60" height="60"/>
                <use id="zoomplus" xlink:href="#zoomPlus" x="17" y="9" onmousedown="handleZoom(evt,'in')"/>
                <use id="zoomminus" xlink:href="#zoomMin" x="42" y="9" onmousedown="handleZoom(evt,'out')"/>
                <use id="reset" xlink:href="#resetDef" x="30" y="36" onmousedown="handleReset()"/>
                <g id="arrowUp" xlink:href="#dirArrow" transform="translate(30 24)" onmousedown="handlePan(0,-1)">
                  <use xlink:href="#rim" fill="#404040">
                        <set attributeName="fill" to="#808080" begin="arrowUp.mouseover" end="arrowUp.mouseout"/>
                  </use>
                  <path fill="none" stroke="white" stroke-width="1.5" d="M0,-3.0v7 M-2.5,-0.5L0,-3.0L2.5,-0.5"/>
                </g>
                <g id="arrowRight" xlink:href="#dirArrow" transform="rotate(90) translate(36 -43)" onmousedown="handlePan(1,0)">
                  <use xlink:href="#rim" fill="#404040">
                        <set attributeName="fill" to="#808080" begin="arrowRight.mouseover" end="arrowRight.mouseout"/>
                  </use>
                  <path fill="none" stroke="white" stroke-width="1.5" d="M0,-3.0v7 M-2.5,-0.5L0,-3.0L2.5,-0.5"/>
                </g>
                <g id="arrowDown" xlink:href="#dirArrow" transform="rotate(180) translate(-30 -48)" onmousedown="handlePan(0,1)">
                  <use xlink:href="#rim" fill="#404040">
                        <set attributeName="fill" to="#808080" begin="arrowDown.mouseover" end="arrowDown.mouseout"/>
                  </use>
                  <path fill="none" stroke="white" stroke-width="1.5" d="M0,-3.0v7 M-2.5,-0.5L0,-3.0L2.5,-0.5"/>
                </g>
                <g id="arrowLeft" xlink:href="#dirArrow" transform="rotate(270) translate(-36 17)" onmousedown="handlePan(-1,0)">
                  <use xlink:href="#rim" fill="#404040">
                        <set attributeName="fill" to="#808080" begin="arrowLeft.mouseover" end="arrowLeft.mouseout"/>
                  </use>
                  <path fill="none" stroke="white" stroke-width="1.5" d="M0,-3.0v7 M-2.5,-0.5L0,-3.0L2.5,-0.5"/>
                </g>
        </g>
        <svg viewBox="0 0 15 15" width="100%" height="30px" preserveAspectRatio="xMaxYMin meet">
         <g id="arrow_out" transform="scale(0.3 0.3)">
          <a xlink:href="OneDim_8cpp__incl_org.svg" target="_base">
           <rect id="button" ry="5" rx="5" y="6" x="6" height="38" width="38"
                fill="#f2f5e9" fill-opacity="0.5" stroke="#606060" stroke-width="1.0"/>
           <path id="arrow"
             d="M 11.500037,31.436501 C 11.940474,20.09759 22.043105,11.32322 32.158766,21.979434 L 37.068811,17.246167 C 37.068811,17.246167 37.088388,32 37.088388,32 L 22.160133,31.978069 C 22.160133,31.978069 26.997745,27.140456 26.997745,27.140456 C 18.528582,18.264221 13.291696,25.230495 11.500037,31.436501 z"
             style="fill:#404040;"/>
          </a>
         </g>
        </svg>
</svg>
