<?xml version="1.0" encoding="UTF-8" standalone="no"?>
<!DOCTYPE svg PUBLIC "-//W3C//DTD SVG 1.1//EN"
 "http://www.w3.org/Graphics/SVG/1.1/DTD/svg11.dtd">
<!-- Generated by graphviz version 2.50.0 (0)
 -->
<!-- Title: OneDim.h Pages: 1 -->
<svg width="456pt" height="196pt"
 viewBox="0.00 0.00 455.58 196.00" xmlns="http://www.w3.org/2000/svg" xmlns:xlink="http://www.w3.org/1999/xlink">
<g id="graph0" class="graph" transform="scale(1 1) rotate(0) translate(4 192)">
<title>OneDim.h</title>
<polygon fill="white" stroke="transparent" points="-4,4 -4,-192 451.58,-192 451.58,4 -4,4"/>
<!-- Node1 -->
<g id="node1" class="node">
<title>Node1</title>
<g id="a_node1"><a xlink:title=" ">
<polygon fill="#bfbfbf" stroke="black" points="118.58,-168.5 118.58,-187.5 179.58,-187.5 179.58,-168.5 118.58,-168.5"/>
<text text-anchor="middle" x="149.08" y="-175.5" font-family="Helvetica,sans-Serif" font-size="10.00">OneDim.h</text>
</a>
</g>
</g>
<!-- Node2 -->
<g id="node2" class="node">
<title>Node2</title>
<g id="a_node2"><a xlink:href="../../de/d16/Boundary1D_8cpp.html" target="_top" xlink:title=" ">
<polygon fill="white" stroke="black" points="10.58,-112.5 10.58,-131.5 99.58,-131.5 99.58,-112.5 10.58,-112.5"/>
<text text-anchor="middle" x="55.08" y="-119.5" font-family="Helvetica,sans-Serif" font-size="10.00">Boundary1D.cpp</text>
</a>
</g>
</g>
<!-- Node1&#45;&gt;Node2 -->
<g id="edge1" class="edge">
<title>Node1&#45;&gt;Node2</title>
<path fill="none" stroke="midnightblue" d="M125.02,-163.18C107.72,-153.24 84.93,-140.15 70.14,-131.65"/>
<polygon fill="midnightblue" stroke="midnightblue" points="123.56,-166.38 133.98,-168.32 127.05,-160.31 123.56,-166.38"/>
</g>
<!-- Node3 -->
<g id="node3" class="node">
<title>Node3</title>
<g id="a_node3"><a xlink:href="../../d5/d60/MultiJac_8h.html" target="_top" xlink:title=" ">
<polygon fill="white" stroke="black" points="118.08,-112.5 118.08,-131.5 180.08,-131.5 180.08,-112.5 118.08,-112.5"/>
<text text-anchor="middle" x="149.08" y="-119.5" font-family="Helvetica,sans-Serif" font-size="10.00">MultiJac.h</text>
</a>
</g>
</g>
<!-- Node1&#45;&gt;Node3 -->
<g id="edge2" class="edge">
<title>Node1&#45;&gt;Node3</title>
<path fill="none" stroke="midnightblue" d="M142.61,-158.1C141.97,-149.14 142.42,-138.86 143.95,-131.75"/>
<polygon fill="midnightblue" stroke="midnightblue" points="139.14,-158.62 143.91,-168.08 146.09,-157.71 139.14,-158.62"/>
</g>
<!-- Node8 -->
<g id="node8" class="node">
<title>Node8</title>
<g id="a_node8"><a xlink:href="../../dc/dcd/OneDim_8cpp.html" target="_top" xlink:title=" ">
<polygon fill="white" stroke="black" points="376.58,-0.5 376.58,-19.5 447.58,-19.5 447.58,-0.5 376.58,-0.5"/>
<text text-anchor="middle" x="412.08" y="-7.5" font-family="Helvetica,sans-Serif" font-size="10.00">OneDim.cpp</text>
</a>
</g>
</g>
<!-- Node1&#45;&gt;Node8 -->
<g id="edge11" class="edge">
<title>Node1&#45;&gt;Node8</title>
<path fill="none" stroke="midnightblue" d="M189.94,-173.44C247.68,-166.05 351.88,-143.59 404.08,-76 416.87,-59.44 415.4,-33.11 413.57,-19.6"/>
<polygon fill="midnightblue" stroke="midnightblue" points="189.25,-169.99 179.73,-174.65 190.07,-176.94 189.25,-169.99"/>
</g>
<!-- Node10 -->
<g id="node10" class="node">
<title>Node10</title>
<g id="a_node10"><a xlink:href="../../d3/d5d/Sim1D_8h.html" target="_top" xlink:title=" ">
<polygon fill="white" stroke="black" points="198.58,-112.5 198.58,-131.5 253.58,-131.5 253.58,-112.5 198.58,-112.5"/>
<text text-anchor="middle" x="226.08" y="-119.5" font-family="Helvetica,sans-Serif" font-size="10.00">Sim1D.h</text>
</a>
</g>
</g>
<!-- Node1&#45;&gt;Node10 -->
<g id="edge12" class="edge">
<title>Node1&#45;&gt;Node10</title>
<path fill="none" stroke="midnightblue" d="M169.98,-162.34C183.99,-152.52 201.96,-139.91 213.74,-131.65"/>
<polygon fill="midnightblue" stroke="midnightblue" points="167.63,-159.72 161.45,-168.32 171.65,-165.45 167.63,-159.72"/>
</g>
<!-- Node3&#45;&gt;Node1 -->
<g id="edge9" class="edge">
<title>Node3&#45;&gt;Node1</title>
<path fill="none" stroke="midnightblue" d="M155.54,-141.69C156.19,-150.64 155.75,-160.93 154.25,-168.08"/>
<polygon fill="midnightblue" stroke="midnightblue" points="159,-141.2 154.21,-131.75 152.06,-142.13 159,-141.2"/>
</g>
<!-- Node4 -->
<g id="node4" class="node">
<title>Node4</title>
<g id="a_node4"><a xlink:href="../../dc/d9c/Domain1D_8cpp.html" target="_top" xlink:title=" ">
<polygon fill="white" stroke="black" points="13.08,-56.5 13.08,-75.5 95.08,-75.5 95.08,-56.5 13.08,-56.5"/>
<text text-anchor="middle" x="54.08" y="-63.5" font-family="Helvetica,sans-Serif" font-size="10.00">Domain1D.cpp</text>
</a>
</g>
</g>
<!-- Node3&#45;&gt;Node4 -->
<g id="edge3" class="edge">
<title>Node3&#45;&gt;Node4</title>
<path fill="none" stroke="midnightblue" d="M124.76,-107.18C107.28,-97.24 84.25,-84.15 69.3,-75.65"/>
<polygon fill="midnightblue" stroke="midnightblue" points="123.39,-110.43 133.82,-112.32 126.85,-104.34 123.39,-110.43"/>
</g>
<!-- Node5 -->
<g id="node5" class="node">
<title>Node5</title>
<g id="a_node5"><a xlink:href="../../db/d3a/MultiJac_8cpp.html" target="_top" xlink:title="Implementation file for class MultiJac.">
<polygon fill="white" stroke="black" points="113.08,-56.5 113.08,-75.5 185.08,-75.5 185.08,-56.5 113.08,-56.5"/>
<text text-anchor="middle" x="149.08" y="-63.5" font-family="Helvetica,sans-Serif" font-size="10.00">MultiJac.cpp</text>
</a>
</g>
</g>
<!-- Node3&#45;&gt;Node5 -->
<g id="edge4" class="edge">
<title>Node3&#45;&gt;Node5</title>
<path fill="none" stroke="midnightblue" d="M149.08,-101.8C149.08,-92.91 149.08,-82.78 149.08,-75.75"/>
<polygon fill="midnightblue" stroke="midnightblue" points="145.58,-102.08 149.08,-112.08 152.58,-102.08 145.58,-102.08"/>
</g>
<!-- Node6 -->
<g id="node6" class="node">
<title>Node6</title>
<g id="a_node6"><a xlink:href="../../d6/d1e/MultiNewton_8h.html" target="_top" xlink:title=" ">
<polygon fill="white" stroke="black" points="241.08,-56.5 241.08,-75.5 321.08,-75.5 321.08,-56.5 241.08,-56.5"/>
<text text-anchor="middle" x="281.08" y="-63.5" font-family="Helvetica,sans-Serif" font-size="10.00">MultiNewton.h</text>
</a>
</g>
</g>
<!-- Node3&#45;&gt;Node6 -->
<g id="edge5" class="edge">
<title>Node3&#45;&gt;Node6</title>
<path fill="none" stroke="midnightblue" d="M179.3,-108.64C204.07,-98.5 238.48,-84.43 260.26,-75.52"/>
<polygon fill="midnightblue" stroke="midnightblue" points="177.93,-105.42 169.99,-112.44 180.58,-111.9 177.93,-105.42"/>
</g>
<!-- Node9 -->
<g id="node9" class="node">
<title>Node9</title>
<g id="a_node9"><a xlink:href="../../d0/de8/Sim1D_8cpp.html" target="_top" xlink:title=" ">
<polygon fill="white" stroke="black" points="163.58,-0.5 163.58,-19.5 228.58,-19.5 228.58,-0.5 163.58,-0.5"/>
<text text-anchor="middle" x="196.08" y="-7.5" font-family="Helvetica,sans-Serif" font-size="10.00">Sim1D.cpp</text>
</a>
</g>
</g>
<!-- Node3&#45;&gt;Node9 -->
<g id="edge10" class="edge">
<title>Node3&#45;&gt;Node9</title>
<path fill="none" stroke="midnightblue" d="M107.88,-110.87C67.29,-100.47 10.44,-84.63 4.08,-76 -1.19,-68.84 -1.44,-62.97 4.08,-56 23.59,-31.38 113.78,-18.94 163.3,-13.86"/>
<polygon fill="midnightblue" stroke="midnightblue" points="107.26,-114.32 117.81,-113.39 108.98,-107.53 107.26,-114.32"/>
</g>
<!-- Node7 -->
<g id="node7" class="node">
<title>Node7</title>
<g id="a_node7"><a xlink:href="../../d6/dc4/MultiNewton_8cpp.html" target="_top" xlink:title="Damped Newton solver for 1D multi&#45;domain problems.">
<polygon fill="white" stroke="black" points="247.08,-0.5 247.08,-19.5 337.08,-19.5 337.08,-0.5 247.08,-0.5"/>
<text text-anchor="middle" x="292.08" y="-7.5" font-family="Helvetica,sans-Serif" font-size="10.00">MultiNewton.cpp</text>
</a>
</g>
</g>
<!-- Node6&#45;&gt;Node7 -->
<g id="edge6" class="edge">
<title>Node6&#45;&gt;Node7</title>
<path fill="none" stroke="midnightblue" d="M284.93,-46.1C286.76,-37.14 288.85,-26.86 290.3,-19.75"/>
<polygon fill="midnightblue" stroke="midnightblue" points="281.46,-45.59 282.9,-56.08 288.32,-46.98 281.46,-45.59"/>
</g>
<!-- Node6&#45;&gt;Node8 -->
<g id="edge7" class="edge">
<title>Node6&#45;&gt;Node8</title>
<path fill="none" stroke="midnightblue" d="M311.4,-52.5C335.95,-42.38 369.9,-28.39 391.42,-19.52"/>
<polygon fill="midnightblue" stroke="midnightblue" points="309.75,-49.4 301.84,-56.44 312.42,-55.87 309.75,-49.4"/>
</g>
<!-- Node6&#45;&gt;Node9 -->
<g id="edge8" class="edge">
<title>Node6&#45;&gt;Node9</title>
<path fill="none" stroke="midnightblue" d="M258.89,-50.9C243.3,-41 222.95,-28.07 209.7,-19.65"/>
<polygon fill="midnightblue" stroke="midnightblue" points="257.1,-53.92 267.42,-56.32 260.86,-48.01 257.1,-53.92"/>
</g>
<!-- Node10&#45;&gt;Node9 -->
<g id="edge13" class="edge">
<title>Node10&#45;&gt;Node9</title>
<path fill="none" stroke="midnightblue" d="M221.08,-102.67C214.52,-78.62 203.28,-37.39 198.42,-19.59"/>
<polygon fill="midnightblue" stroke="midnightblue" points="217.72,-103.64 223.72,-112.37 224.47,-101.8 217.72,-103.64"/>
</g>
<!-- Node11 -->
<g id="node11" class="node">
<title>Node11</title>
<g id="a_node11"><a xlink:href="../../d4/d07/onedim_8h.html" target="_top" xlink:title=" ">
<polygon fill="white" stroke="black" points="339.08,-56.5 339.08,-75.5 395.08,-75.5 395.08,-56.5 339.08,-56.5"/>
<text text-anchor="middle" x="367.08" y="-63.5" font-family="Helvetica,sans-Serif" font-size="10.00">onedim.h</text>
</a>
</g>
</g>
<!-- Node10&#45;&gt;Node11 -->
<g id="edge14" class="edge">
<title>Node10&#45;&gt;Node11</title>
<path fill="none" stroke="midnightblue" d="M258.01,-108.77C284.49,-98.63 321.47,-84.47 344.84,-75.52"/>
<polygon fill="midnightblue" stroke="midnightblue" points="256.51,-105.6 248.42,-112.44 259.01,-112.14 256.51,-105.6"/>
</g>
</g>
</svg>
