<?xml version="1.0" encoding="UTF-8" standalone="no"?>
<!DOCTYPE svg PUBLIC "-//W3C//DTD SVG 1.1//EN"
 "http://www.w3.org/Graphics/SVG/1.1/DTD/svg11.dtd">
<!-- Generated by graphviz version 6.0.1 (0)
 -->
<!-- Title: Solution.h Pages: 1 -->
<svg width="1097pt" height="192pt"
 viewBox="0.00 0.00 1096.50 192.00" xmlns="http://www.w3.org/2000/svg" xmlns:xlink="http://www.w3.org/1999/xlink">
<g id="graph0" class="graph" transform="scale(1 1) rotate(0) translate(4 188)">
<title>Solution.h</title>
<!-- Node1 -->
<g id="node1" class="node">
<title>Node1</title>
<g id="a_node1"><a xlink:title=" ">
<polygon fill="#999999" stroke="#666666" points="473,-184 413,-184 413,-165 473,-165 473,-184"/>
<text text-anchor="middle" x="443" y="-172" font-family="Helvetica,sans-Serif" font-size="10.00">Solution.h</text>
</a>
</g>
</g>
<!-- Node2 -->
<g id="node2" class="node">
<title>Node2</title>
<g id="a_node2"><a xlink:href="../../d7/d91/Interface_8h.html" target="_top" xlink:title=" ">
<polygon fill="white" stroke="#666666" points="99.5,-129 36.5,-129 36.5,-110 99.5,-110 99.5,-129"/>
<text text-anchor="middle" x="68" y="-117" font-family="Helvetica,sans-Serif" font-size="10.00">Interface.h</text>
</a>
</g>
</g>
<!-- Node1&#45;&gt;Node2 -->
<g id="edge1" class="edge">
<title>Node1&#45;&gt;Node2</title>
<path fill="none" stroke="#63b8ff" d="M402.84,-168.7C340.77,-161.14 217.84,-145.61 114,-129 109.35,-128.26 104.44,-127.41 99.64,-126.55"/>
<polygon fill="#63b8ff" stroke="#63b8ff" points="402.64,-172.2 412.99,-169.93 403.48,-165.25 402.64,-172.2"/>
</g>
<!-- Node4 -->
<g id="node4" class="node">
<title>Node4</title>
<g id="a_node4"><a xlink:href="../../df/d48/Solution_8cpp.html" target="_top" xlink:title="Definition file for class Solution.">
<polygon fill="white" stroke="#666666" points="163.5,-74 92.5,-74 92.5,-55 163.5,-55 163.5,-74"/>
<text text-anchor="middle" x="128" y="-62" font-family="Helvetica,sans-Serif" font-size="10.00">Solution.cpp</text>
</a>
</g>
</g>
<!-- Node1&#45;&gt;Node4 -->
<g id="edge13" class="edge">
<title>Node1&#45;&gt;Node4</title>
<path fill="none" stroke="#63b8ff" d="M402.73,-170.37C338.03,-164.75 214.38,-151.39 177,-129 154.78,-115.69 138.98,-88.2 132,-74.16"/>
<polygon fill="#63b8ff" stroke="#63b8ff" points="402.71,-173.88 412.97,-171.24 403.3,-166.9 402.71,-173.88"/>
</g>
<!-- Node5 -->
<g id="node5" class="node">
<title>Node5</title>
<g id="a_node5"><a xlink:href="../../d5/dc4/core_8h.html" target="_top" xlink:title="Support for Cantera core calculations from C++ application programs.">
<polygon fill="white" stroke="#666666" points="260,-74 216,-74 216,-55 260,-55 260,-74"/>
<text text-anchor="middle" x="238" y="-62" font-family="Helvetica,sans-Serif" font-size="10.00">core.h</text>
</a>
</g>
</g>
<!-- Node1&#45;&gt;Node5 -->
<g id="edge31" class="edge">
<title>Node1&#45;&gt;Node5</title>
<path fill="none" stroke="#63b8ff" d="M402.43,-172.61C336.9,-170.23 212.32,-161.44 185,-129 168.53,-109.45 200.59,-86.39 221.65,-74.15"/>
<polygon fill="#63b8ff" stroke="#63b8ff" points="402.69,-176.12 412.8,-172.96 402.92,-169.13 402.69,-176.12"/>
</g>
<!-- Node8 -->
<g id="node8" class="node">
<title>Node8</title>
<g id="a_node8"><a xlink:href="../../d3/df8/KineticsFactory_8cpp.html" target="_top" xlink:title=" ">
<polygon fill="white" stroke="#666666" points="296,-129 194,-129 194,-110 296,-110 296,-129"/>
<text text-anchor="middle" x="245" y="-117" font-family="Helvetica,sans-Serif" font-size="10.00">KineticsFactory.cpp</text>
</a>
</g>
</g>
<!-- Node1&#45;&gt;Node8 -->
<g id="edge7" class="edge">
<title>Node1&#45;&gt;Node8</title>
<path fill="none" stroke="#63b8ff" d="M402.95,-162.78C365.82,-152.84 311.3,-138.25 277,-129.07"/>
<polygon fill="#63b8ff" stroke="#63b8ff" points="402.36,-166.25 412.93,-165.45 404.17,-159.48 402.36,-166.25"/>
</g>
<!-- Node9 -->
<g id="node9" class="node">
<title>Node9</title>
<g id="a_node9"><a xlink:href="../../dd/d06/ReactionRateDelegator_8cpp.html" target="_top" xlink:title=" ">
<polygon fill="white" stroke="#666666" points="451.5,-129 314.5,-129 314.5,-110 451.5,-110 451.5,-129"/>
<text text-anchor="middle" x="383" y="-117" font-family="Helvetica,sans-Serif" font-size="10.00">ReactionRateDelegator.cpp</text>
</a>
</g>
</g>
<!-- Node1&#45;&gt;Node9 -->
<g id="edge8" class="edge">
<title>Node1&#45;&gt;Node9</title>
<path fill="none" stroke="#63b8ff" d="M425.82,-158.32C415.12,-148.87 401.74,-137.06 392.82,-129.17"/>
<polygon fill="#63b8ff" stroke="#63b8ff" points="423.55,-160.99 433.36,-164.98 428.18,-155.74 423.55,-160.99"/>
</g>
<!-- Node10 -->
<g id="node10" class="node">
<title>Node10</title>
<g id="a_node10"><a xlink:href="../../d3/d68/Reactor_8cpp.html" target="_top" xlink:title="A zero&#45;dimensional reactor.">
<polygon fill="white" stroke="#666666" points="538.5,-129 469.5,-129 469.5,-110 538.5,-110 538.5,-129"/>
<text text-anchor="middle" x="504" y="-117" font-family="Helvetica,sans-Serif" font-size="10.00">Reactor.cpp</text>
</a>
</g>
</g>
<!-- Node1&#45;&gt;Node10 -->
<g id="edge9" class="edge">
<title>Node1&#45;&gt;Node10</title>
<path fill="none" stroke="#63b8ff" d="M460.47,-158.32C471.34,-148.87 484.94,-137.06 494.02,-129.17"/>
<polygon fill="#63b8ff" stroke="#63b8ff" points="458.05,-155.78 452.8,-164.98 462.65,-161.07 458.05,-155.78"/>
</g>
<!-- Node11 -->
<g id="node11" class="node">
<title>Node11</title>
<g id="a_node11"><a xlink:href="../../d6/d45/Reservoir_8h.html" target="_top" xlink:title=" ">
<polygon fill="white" stroke="#666666" points="623,-129 557,-129 557,-110 623,-110 623,-129"/>
<text text-anchor="middle" x="590" y="-117" font-family="Helvetica,sans-Serif" font-size="10.00">Reservoir.h</text>
</a>
</g>
</g>
<!-- Node1&#45;&gt;Node11 -->
<g id="edge10" class="edge">
<title>Node1&#45;&gt;Node11</title>
<path fill="none" stroke="#63b8ff" d="M476.14,-161.55C503.44,-151.71 541.5,-137.98 565.95,-129.17"/>
<polygon fill="#63b8ff" stroke="#63b8ff" points="474.84,-158.3 466.62,-164.98 477.21,-164.89 474.84,-158.3"/>
</g>
<!-- Node13 -->
<g id="node13" class="node">
<title>Node13</title>
<g id="a_node13"><a xlink:href="../../dc/d91/SolutionArray_8cpp.html" target="_top" xlink:title="Definition file for class SolutionArray.">
<polygon fill="white" stroke="#666666" points="733,-129 641,-129 641,-110 733,-110 733,-129"/>
<text text-anchor="middle" x="687" y="-117" font-family="Helvetica,sans-Serif" font-size="10.00">SolutionArray.cpp</text>
</a>
</g>
</g>
<!-- Node1&#45;&gt;Node13 -->
<g id="edge14" class="edge">
<title>Node1&#45;&gt;Node13</title>
<path fill="none" stroke="#63b8ff" d="M483.24,-164.76C528.8,-154.86 602.56,-138.84 647.72,-129.03"/>
<polygon fill="#63b8ff" stroke="#63b8ff" points="482.44,-161.35 473.41,-166.89 483.92,-168.19 482.44,-161.35"/>
</g>
<!-- Node14 -->
<g id="node14" class="node">
<title>Node14</title>
<g id="a_node14"><a xlink:href="../../d7/d7c/StFlow_8h.html" target="_top" xlink:title=" ">
<polygon fill="white" stroke="#666666" points="805,-129 751,-129 751,-110 805,-110 805,-129"/>
<text text-anchor="middle" x="778" y="-117" font-family="Helvetica,sans-Serif" font-size="10.00">StFlow.h</text>
</a>
</g>
</g>
<!-- Node1&#45;&gt;Node14 -->
<g id="edge15" class="edge">
<title>Node1&#45;&gt;Node14</title>
<path fill="none" stroke="#63b8ff" d="M483.42,-168.58C541.06,-161.32 650.06,-146.66 742,-129 744.9,-128.44 747.92,-127.81 750.93,-127.15"/>
<polygon fill="#63b8ff" stroke="#63b8ff" points="482.76,-165.14 473.27,-169.85 483.63,-172.08 482.76,-165.14"/>
</g>
<!-- Node23 -->
<g id="node23" class="node">
<title>Node23</title>
<g id="a_node23"><a xlink:href="../../da/d67/YamlWriter_8cpp_source.html" target="_top" xlink:title=" ">
<polygon fill="white" stroke="#666666" points="905,-129 823,-129 823,-110 905,-110 905,-129"/>
<text text-anchor="middle" x="864" y="-117" font-family="Helvetica,sans-Serif" font-size="10.00">YamlWriter.cpp</text>
</a>
</g>
</g>
<!-- Node1&#45;&gt;Node23 -->
<g id="edge30" class="edge">
<title>Node1&#45;&gt;Node23</title>
<path fill="none" stroke="#63b8ff" d="M483.69,-169.28C552.05,-162.04 694.25,-146.35 814,-129 816.88,-128.58 819.84,-128.13 822.82,-127.66"/>
<polygon fill="#63b8ff" stroke="#63b8ff" points="482.94,-165.84 473.36,-170.37 483.68,-172.8 482.94,-165.84"/>
</g>
<!-- Node3 -->
<g id="node3" class="node">
<title>Node3</title>
<g id="a_node3"><a xlink:href="../../de/dbe/Interface_8cpp.html" target="_top" xlink:title=" ">
<polygon fill="white" stroke="#666666" points="74,-74 0,-74 0,-55 74,-55 74,-74"/>
<text text-anchor="middle" x="37" y="-62" font-family="Helvetica,sans-Serif" font-size="10.00">Interface.cpp</text>
</a>
</g>
</g>
<!-- Node2&#45;&gt;Node3 -->
<g id="edge2" class="edge">
<title>Node2&#45;&gt;Node3</title>
<path fill="none" stroke="#63b8ff" d="M57.82,-101.1C52.53,-92.04 46.28,-81.37 42.02,-74.09"/>
<polygon fill="#63b8ff" stroke="#63b8ff" points="54.81,-102.88 62.88,-109.75 60.85,-99.35 54.81,-102.88"/>
</g>
<!-- Node2&#45;&gt;Node4 -->
<g id="edge3" class="edge">
<title>Node2&#45;&gt;Node4</title>
<path fill="none" stroke="#63b8ff" d="M85.18,-103.32C95.88,-93.87 109.26,-82.06 118.18,-74.17"/>
<polygon fill="#63b8ff" stroke="#63b8ff" points="82.82,-100.74 77.64,-109.98 87.45,-105.99 82.82,-100.74"/>
</g>
<!-- Node2&#45;&gt;Node5 -->
<g id="edge4" class="edge">
<title>Node2&#45;&gt;Node5</title>
<path fill="none" stroke="#63b8ff" d="M105.29,-106.87C139.13,-96.33 187.87,-81.13 215.9,-72.39"/>
<polygon fill="#63b8ff" stroke="#63b8ff" points="103.82,-103.67 95.31,-109.98 105.9,-110.35 103.82,-103.67"/>
</g>
<!-- Node6 -->
<g id="node6" class="node">
<title>Node6</title>
<g id="a_node6"><a xlink:href="../../d4/d07/onedim_8h.html" target="_top" xlink:title=" ">
<polygon fill="white" stroke="#666666" points="548,-19 492,-19 492,0 548,0 548,-19"/>
<text text-anchor="middle" x="520" y="-7" font-family="Helvetica,sans-Serif" font-size="10.00">onedim.h</text>
</a>
</g>
</g>
<!-- Node5&#45;&gt;Node6 -->
<g id="edge5" class="edge">
<title>Node5&#45;&gt;Node6</title>
<path fill="none" stroke="#63b8ff" d="M270.13,-57.46C325.76,-47.01 439.08,-25.71 491.82,-15.8"/>
<polygon fill="#63b8ff" stroke="#63b8ff" points="269.31,-54.05 260.13,-59.34 270.6,-60.93 269.31,-54.05"/>
</g>
<!-- Node7 -->
<g id="node7" class="node">
<title>Node7</title>
<g id="a_node7"><a xlink:href="../../dd/d2e/zerodim_8h.html" target="_top" xlink:title=" ">
<polygon fill="white" stroke="#666666" points="326.5,-19 267.5,-19 267.5,0 326.5,0 326.5,-19"/>
<text text-anchor="middle" x="297" y="-7" font-family="Helvetica,sans-Serif" font-size="10.00">zerodim.h</text>
</a>
</g>
</g>
<!-- Node5&#45;&gt;Node7 -->
<g id="edge6" class="edge">
<title>Node5&#45;&gt;Node7</title>
<path fill="none" stroke="#63b8ff" d="M255.2,-48.04C265.67,-38.64 278.65,-26.98 287.35,-19.17"/>
<polygon fill="#63b8ff" stroke="#63b8ff" points="252.58,-45.7 247.48,-54.98 257.26,-50.91 252.58,-45.7"/>
</g>
<!-- Node11&#45;&gt;Node7 -->
<g id="edge12" class="edge">
<title>Node11&#45;&gt;Node7</title>
<path fill="none" stroke="#63b8ff" d="M547.07,-109.37C501.84,-99.5 433.81,-83.86 409,-74 370.78,-58.8 329.64,-32.65 309.53,-19.14"/>
<polygon fill="#63b8ff" stroke="#63b8ff" points="546.39,-112.81 556.91,-111.51 547.88,-105.97 546.39,-112.81"/>
</g>
<!-- Node12 -->
<g id="node12" class="node">
<title>Node12</title>
<g id="a_node12"><a xlink:href="../../db/d78/ReactorFactory_8cpp.html" target="_top" xlink:title=" ">
<polygon fill="white" stroke="#666666" points="518.5,-74 417.5,-74 417.5,-55 518.5,-55 518.5,-74"/>
<text text-anchor="middle" x="468" y="-62" font-family="Helvetica,sans-Serif" font-size="10.00">ReactorFactory.cpp</text>
</a>
</g>
</g>
<!-- Node11&#45;&gt;Node12 -->
<g id="edge11" class="edge">
<title>Node11&#45;&gt;Node12</title>
<path fill="none" stroke="#63b8ff" d="M560.99,-105.9C538.46,-96.11 507.8,-82.79 487.96,-74.17"/>
<polygon fill="#63b8ff" stroke="#63b8ff" points="559.83,-109.21 570.4,-109.98 562.62,-102.79 559.83,-109.21"/>
</g>
<!-- Node14&#45;&gt;Node6 -->
<g id="edge28" class="edge">
<title>Node14&#45;&gt;Node6</title>
<path fill="none" stroke="#63b8ff" d="M740.99,-109.66C687.74,-96.93 595.66,-74.85 594,-74 566.27,-59.8 540.18,-33.21 527.69,-19.37"/>
<polygon fill="#63b8ff" stroke="#63b8ff" points="740.23,-113.08 750.77,-112 741.86,-106.27 740.23,-113.08"/>
</g>
<!-- Node15 -->
<g id="node15" class="node">
<title>Node15</title>
<g id="a_node15"><a xlink:href="../../de/d16/Boundary1D_8cpp.html" target="_top" xlink:title=" ">
<polygon fill="white" stroke="#666666" points="655.5,-19 566.5,-19 566.5,0 655.5,0 655.5,-19"/>
<text text-anchor="middle" x="611" y="-7" font-family="Helvetica,sans-Serif" font-size="10.00">Boundary1D.cpp</text>
</a>
</g>
</g>
<!-- Node14&#45;&gt;Node15 -->
<g id="edge16" class="edge">
<title>Node14&#45;&gt;Node15</title>
<path fill="none" stroke="#63b8ff" d="M740.78,-109.52C690.57,-97.33 607.12,-76.74 605,-74 592.65,-58.07 600.89,-32.7 606.69,-19.36"/>
<polygon fill="#63b8ff" stroke="#63b8ff" points="740.1,-112.96 750.64,-111.92 741.75,-106.16 740.1,-112.96"/>
</g>
<!-- Node16 -->
<g id="node16" class="node">
<title>Node16</title>
<g id="a_node16"><a xlink:href="../../dc/d7c/Boundary1D_8h.html" target="_top" xlink:title="Boundary objects for one&#45;dimensional simulations.">
<polygon fill="white" stroke="#666666" points="692.5,-74 613.5,-74 613.5,-55 692.5,-55 692.5,-74"/>
<text text-anchor="middle" x="653" y="-62" font-family="Helvetica,sans-Serif" font-size="10.00">Boundary1D.h</text>
</a>
</g>
</g>
<!-- Node14&#45;&gt;Node16 -->
<g id="edge17" class="edge">
<title>Node14&#45;&gt;Node16</title>
<path fill="none" stroke="#63b8ff" d="M748.59,-106.03C725.47,-96.23 693.87,-82.83 673.45,-74.17"/>
<polygon fill="#63b8ff" stroke="#63b8ff" points="747.34,-109.3 757.92,-109.98 750.08,-102.86 747.34,-109.3"/>
</g>
<!-- Node17 -->
<g id="node17" class="node">
<title>Node17</title>
<g id="a_node17"><a xlink:href="../../d9/db4/DomainFactory_8cpp.html" target="_top" xlink:title=" ">
<polygon fill="white" stroke="#666666" points="774.5,-19 673.5,-19 673.5,0 774.5,0 774.5,-19"/>
<text text-anchor="middle" x="724" y="-7" font-family="Helvetica,sans-Serif" font-size="10.00">DomainFactory.cpp</text>
</a>
</g>
</g>
<!-- Node14&#45;&gt;Node17 -->
<g id="edge21" class="edge">
<title>Node14&#45;&gt;Node17</title>
<path fill="none" stroke="#63b8ff" d="M761.38,-102.73C753.86,-94.76 745.46,-84.56 740,-74 730.61,-55.82 726.51,-31.81 724.91,-19.16"/>
<polygon fill="#63b8ff" stroke="#63b8ff" points="758.94,-105.24 768.46,-109.88 763.91,-100.31 758.94,-105.24"/>
</g>
<!-- Node18 -->
<g id="node18" class="node">
<title>Node18</title>
<g id="a_node18"><a xlink:href="../../d4/d57/IonFlow_8cpp.html" target="_top" xlink:title=" ">
<polygon fill="white" stroke="#666666" points="866,-19 798,-19 798,0 866,0 866,-19"/>
<text text-anchor="middle" x="832" y="-7" font-family="Helvetica,sans-Serif" font-size="10.00">IonFlow.cpp</text>
</a>
</g>
</g>
<!-- Node14&#45;&gt;Node18 -->
<g id="edge22" class="edge">
<title>Node14&#45;&gt;Node18</title>
<path fill="none" stroke="#63b8ff" d="M794.62,-102.73C802.14,-94.76 810.54,-84.56 816,-74 825.39,-55.82 829.49,-31.81 831.09,-19.16"/>
<polygon fill="#63b8ff" stroke="#63b8ff" points="792.09,-100.31 787.54,-109.88 797.06,-105.24 792.09,-100.31"/>
</g>
<!-- Node19 -->
<g id="node19" class="node">
<title>Node19</title>
<g id="a_node19"><a xlink:href="../../d7/d4b/IonFlow_8h.html" target="_top" xlink:title=" ">
<polygon fill="white" stroke="#666666" points="807,-74 749,-74 749,-55 807,-55 807,-74"/>
<text text-anchor="middle" x="778" y="-62" font-family="Helvetica,sans-Serif" font-size="10.00">IonFlow.h</text>
</a>
</g>
</g>
<!-- Node14&#45;&gt;Node19 -->
<g id="edge23" class="edge">
<title>Node14&#45;&gt;Node19</title>
<path fill="none" stroke="#63b8ff" d="M778,-99.66C778,-90.93 778,-80.99 778,-74.09"/>
<polygon fill="#63b8ff" stroke="#63b8ff" points="774.5,-99.75 778,-109.75 781.5,-99.75 774.5,-99.75"/>
</g>
<!-- Node20 -->
<g id="node20" class="node">
<title>Node20</title>
<g id="a_node20"><a xlink:href="../../d0/de8/Sim1D_8cpp.html" target="_top" xlink:title=" ">
<polygon fill="white" stroke="#666666" points="928.5,-74 863.5,-74 863.5,-55 928.5,-55 928.5,-74"/>
<text text-anchor="middle" x="896" y="-62" font-family="Helvetica,sans-Serif" font-size="10.00">Sim1D.cpp</text>
</a>
</g>
</g>
<!-- Node14&#45;&gt;Node20 -->
<g id="edge26" class="edge">
<title>Node14&#45;&gt;Node20</title>
<path fill="none" stroke="#63b8ff" d="M806.35,-105.77C828.12,-95.99 857.59,-82.75 876.7,-74.17"/>
<polygon fill="#63b8ff" stroke="#63b8ff" points="804.65,-102.69 796.96,-109.98 807.51,-109.08 804.65,-102.69"/>
</g>
<!-- Node21 -->
<g id="node21" class="node">
<title>Node21</title>
<g id="a_node21"><a xlink:href="../../d4/d8d/StFlow_8cpp.html" target="_top" xlink:title=" ">
<polygon fill="white" stroke="#666666" points="1011.5,-74 946.5,-74 946.5,-55 1011.5,-55 1011.5,-74"/>
<text text-anchor="middle" x="979" y="-62" font-family="Helvetica,sans-Serif" font-size="10.00">StFlow.cpp</text>
</a>
</g>
</g>
<!-- Node14&#45;&gt;Node21 -->
<g id="edge27" class="edge">
<title>Node14&#45;&gt;Node21</title>
<path fill="none" stroke="#63b8ff" d="M815.19,-108.69C852.94,-98.74 910.79,-83.49 946.68,-74.02"/>
<polygon fill="#63b8ff" stroke="#63b8ff" points="813.88,-105.42 805.11,-111.35 815.67,-112.19 813.88,-105.42"/>
</g>
<!-- Node22 -->
<g id="node22" class="node">
<title>Node22</title>
<g id="a_node22"><a xlink:href="../../dd/d3c/refine_8cpp.html" target="_top" xlink:title=" ">
<polygon fill="white" stroke="#666666" points="1088.5,-74 1029.5,-74 1029.5,-55 1088.5,-55 1088.5,-74"/>
<text text-anchor="middle" x="1059" y="-62" font-family="Helvetica,sans-Serif" font-size="10.00">refine.cpp</text>
</a>
</g>
</g>
<!-- Node14&#45;&gt;Node22 -->
<g id="edge29" class="edge">
<title>Node14&#45;&gt;Node22</title>
<path fill="none" stroke="#63b8ff" d="M815.12,-109.88C907.2,-91.3 932.54,-91.58 1021,-74 1023.65,-73.47 1026.4,-72.9 1029.16,-72.32"/>
<polygon fill="#63b8ff" stroke="#63b8ff" points="814.19,-106.49 805.09,-111.92 815.59,-113.35 814.19,-106.49"/>
</g>
<!-- Node16&#45;&gt;Node6 -->
<g id="edge20" class="edge">
<title>Node16&#45;&gt;Node6</title>
<path fill="none" stroke="#63b8ff" d="M622.03,-51.16C597.41,-41.35 563.59,-27.87 541.76,-19.17"/>
<polygon fill="#63b8ff" stroke="#63b8ff" points="621.05,-54.53 631.63,-54.98 623.64,-48.03 621.05,-54.53"/>
</g>
<!-- Node16&#45;&gt;Node15 -->
<g id="edge18" class="edge">
<title>Node16&#45;&gt;Node15</title>
<path fill="none" stroke="#63b8ff" d="M639.67,-46.67C632.39,-37.5 623.7,-26.52 617.81,-19.09"/>
<polygon fill="#63b8ff" stroke="#63b8ff" points="637.11,-49.08 646.06,-54.75 642.6,-44.74 637.11,-49.08"/>
</g>
<!-- Node16&#45;&gt;Node17 -->
<g id="edge19" class="edge">
<title>Node16&#45;&gt;Node17</title>
<path fill="none" stroke="#63b8ff" d="M672.59,-48.88C685.37,-39.34 701.61,-27.21 712.39,-19.17"/>
<polygon fill="#63b8ff" stroke="#63b8ff" points="670.33,-46.2 664.41,-54.98 674.51,-51.81 670.33,-46.2"/>
</g>
<!-- Node19&#45;&gt;Node17 -->
<g id="edge24" class="edge">
<title>Node19&#45;&gt;Node17</title>
<path fill="none" stroke="#63b8ff" d="M761.72,-47.52C752.2,-38.18 740.56,-26.75 732.75,-19.09"/>
<polygon fill="#63b8ff" stroke="#63b8ff" points="759.49,-50.24 769.08,-54.75 764.4,-45.25 759.49,-50.24"/>
</g>
<!-- Node19&#45;&gt;Node18 -->
<g id="edge25" class="edge">
<title>Node19&#45;&gt;Node18</title>
<path fill="none" stroke="#63b8ff" d="M794.28,-47.52C803.8,-38.18 815.44,-26.75 823.25,-19.09"/>
<polygon fill="#63b8ff" stroke="#63b8ff" points="791.6,-45.25 786.92,-54.75 796.51,-50.24 791.6,-45.25"/>
</g>
</g>
</svg>
