<?xml version="1.0" encoding="UTF-8" standalone="no"?>
<!DOCTYPE svg PUBLIC "-//W3C//DTD SVG 1.1//EN"
 "http://www.w3.org/Graphics/SVG/1.1/DTD/svg11.dtd">
<!-- Generated by graphviz version 6.0.1 (0)
 -->
<!-- Title: PDSS Pages: 1 -->
<svg width="74pt" height="149pt"
 viewBox="0.00 0.00 74.00 149.00" xmlns="http://www.w3.org/2000/svg" xmlns:xlink="http://www.w3.org/1999/xlink">
<g id="graph0" class="graph" transform="scale(1 1) rotate(0) translate(4 145)">
<title>PDSS</title>
<!-- Node1 -->
<g id="node1" class="node">
<title>Node1</title>
<g id="a_node1"><a xlink:title="Virtual base class for a species with a pressure dependent standard state.">
<polygon fill="#999999" stroke="#666666" points="50,-19 6,-19 6,0 50,0 50,-19"/>
<text text-anchor="middle" x="28" y="-7" font-family="Helvetica,sans-Serif" font-size="10.00">PDSS</text>
</a>
</g>
</g>
<!-- Node2 -->
<g id="node2" class="node">
<title>Node2</title>
<g id="a_node2"><a xlink:href="../../db/d74/classCantera_1_1AnyMap.html" target="_top" xlink:title="A map of string keys to values whose type can vary at runtime.">
<polygon fill="white" stroke="#666666" points="54.5,-85 1.5,-85 1.5,-66 54.5,-66 54.5,-85"/>
<text text-anchor="middle" x="28" y="-73" font-family="Helvetica,sans-Serif" font-size="10.00">AnyMap</text>
</a>
</g>
</g>
<!-- Node2&#45;&gt;Node1 -->
<g id="edge1" class="edge">
<title>Node2&#45;&gt;Node1</title>
<path fill="none" stroke="#9a32cd" stroke-dasharray="5,2" d="M28,-55.58C28,-43.63 28,-28.72 28,-19.41"/>
<polygon fill="#9a32cd" stroke="#9a32cd" points="24.5,-55.87 28,-65.87 31.5,-55.87 24.5,-55.87"/>
<text text-anchor="middle" x="47" y="-40" font-family="Helvetica,sans-Serif" font-size="10.00"> m_input</text>
</g>
<!-- Node3 -->
<g id="node3" class="node">
<title>Node3</title>
<g id="a_node3"><a xlink:href="../../d9/d23/classCantera_1_1AnyBase.html" target="_top" xlink:title="Base class defining common data possessed by both AnyMap and AnyValue objects.">
<polygon fill="white" stroke="#666666" points="56,-141 0,-141 0,-122 56,-122 56,-141"/>
<text text-anchor="middle" x="28" y="-129" font-family="Helvetica,sans-Serif" font-size="10.00">AnyBase</text>
</a>
</g>
</g>
<!-- Node3&#45;&gt;Node2 -->
<g id="edge2" class="edge">
<title>Node3&#45;&gt;Node2</title>
<path fill="none" stroke="#63b8ff" d="M28,-111.3C28,-102.41 28,-92.28 28,-85.25"/>
<polygon fill="#63b8ff" stroke="#63b8ff" points="24.5,-111.58 28,-121.58 31.5,-111.58 24.5,-111.58"/>
</g>
</g>
</svg>
