<?xml version="1.0" encoding="UTF-8" standalone="no"?>
<!DOCTYPE svg PUBLIC "-//W3C//DTD SVG 1.1//EN"
 "http://www.w3.org/Graphics/SVG/1.1/DTD/svg11.dtd">
<!-- Generated by graphviz version 2.43.0 (0)
 -->
<!-- Title: SingleSpeciesTP.h Pages: 1 -->
<svg width="486pt" height="140pt"
 viewBox="0.00 0.00 485.50 140.00" xmlns="http://www.w3.org/2000/svg" xmlns:xlink="http://www.w3.org/1999/xlink">
<g id="graph0" class="graph" transform="scale(1 1) rotate(0) translate(4 136)">
<title>SingleSpeciesTP.h</title>
<polygon fill="white" stroke="transparent" points="-4,4 -4,-136 481.5,-136 481.5,4 -4,4"/>
<!-- Node1 -->
<g id="node1" class="node">
<title>Node1</title>
<g id="a_node1"><a xlink:title="Header for the SingleSpeciesTP class, which is a filter class for ThermoPhase, that eases the constru...">
<polygon fill="#bfbfbf" stroke="black" points="137.5,-112.5 137.5,-131.5 241.5,-131.5 241.5,-112.5 137.5,-112.5"/>
<text text-anchor="middle" x="189.5" y="-119.5" font-family="Helvetica,sans-Serif" font-size="10.00">SingleSpeciesTP.h</text>
</a>
</g>
</g>
<!-- Node2 -->
<g id="node2" class="node">
<title>Node2</title>
<g id="a_node2"><a xlink:href="../../d4/df7/SingleSpeciesTP_8cpp.html" target="_top" xlink:title="Definitions for the SingleSpeciesTP class, which is a filter class for ThermoPhase,...">
<polygon fill="white" stroke="black" points="3,-56.5 3,-75.5 118,-75.5 118,-56.5 3,-56.5"/>
<text text-anchor="middle" x="60.5" y="-63.5" font-family="Helvetica,sans-Serif" font-size="10.00">SingleSpeciesTP.cpp</text>
</a>
</g>
</g>
<!-- Node1&#45;&gt;Node2 -->
<g id="edge1" class="edge">
<title>Node1&#45;&gt;Node2</title>
<path fill="none" stroke="midnightblue" d="M159.65,-108.5C135.46,-98.38 102.04,-84.39 80.84,-75.52"/>
<polygon fill="midnightblue" stroke="midnightblue" points="158.48,-111.81 169.06,-112.44 161.19,-105.35 158.48,-111.81"/>
</g>
<!-- Node3 -->
<g id="node3" class="node">
<title>Node3</title>
<g id="a_node3"><a xlink:href="../../d8/dfb/StoichSubstance_8h.html" target="_top" xlink:title="Header file for the StoichSubstance class, which represents a fixed&#45;composition incompressible substa...">
<polygon fill="white" stroke="black" points="136.5,-56.5 136.5,-75.5 242.5,-75.5 242.5,-56.5 136.5,-56.5"/>
<text text-anchor="middle" x="189.5" y="-63.5" font-family="Helvetica,sans-Serif" font-size="10.00">StoichSubstance.h</text>
</a>
</g>
</g>
<!-- Node1&#45;&gt;Node3 -->
<g id="edge2" class="edge">
<title>Node1&#45;&gt;Node3</title>
<path fill="none" stroke="midnightblue" d="M189.5,-101.8C189.5,-92.91 189.5,-82.78 189.5,-75.75"/>
<polygon fill="midnightblue" stroke="midnightblue" points="186,-102.08 189.5,-112.08 193,-102.08 186,-102.08"/>
</g>
<!-- Node6 -->
<g id="node6" class="node">
<title>Node6</title>
<g id="a_node6"><a xlink:href="../../dd/da3/WaterSSTP_8h.html" target="_top" xlink:title="Declares a ThermoPhase class consisting of pure water (see Thermodynamic Properties and class WaterSS...">
<polygon fill="white" stroke="black" points="264,-56.5 264,-75.5 341,-75.5 341,-56.5 264,-56.5"/>
<text text-anchor="middle" x="302.5" y="-63.5" font-family="Helvetica,sans-Serif" font-size="10.00">WaterSSTP.h</text>
</a>
</g>
</g>
<!-- Node1&#45;&gt;Node6 -->
<g id="edge5" class="edge">
<title>Node1&#45;&gt;Node6</title>
<path fill="none" stroke="midnightblue" d="M216.5,-108.1C237.61,-98.01 266.36,-84.27 284.68,-75.52"/>
<polygon fill="midnightblue" stroke="midnightblue" points="214.92,-104.97 207.41,-112.44 217.94,-111.29 214.92,-104.97"/>
</g>
<!-- Node4 -->
<g id="node4" class="node">
<title>Node4</title>
<g id="a_node4"><a xlink:href="../../d1/ddb/StoichSubstance_8cpp.html" target="_top" xlink:title="Definition file for the StoichSubstance class, which represents a fixed&#45;composition incompressible su...">
<polygon fill="white" stroke="black" points="0,-0.5 0,-19.5 117,-19.5 117,-0.5 0,-0.5"/>
<text text-anchor="middle" x="58.5" y="-7.5" font-family="Helvetica,sans-Serif" font-size="10.00">StoichSubstance.cpp</text>
</a>
</g>
</g>
<!-- Node3&#45;&gt;Node4 -->
<g id="edge3" class="edge">
<title>Node3&#45;&gt;Node4</title>
<path fill="none" stroke="midnightblue" d="M159.18,-52.5C134.62,-42.38 100.68,-28.39 79.16,-19.52"/>
<polygon fill="midnightblue" stroke="midnightblue" points="158.16,-55.87 168.74,-56.44 160.83,-49.4 158.16,-55.87"/>
</g>
<!-- Node5 -->
<g id="node5" class="node">
<title>Node5</title>
<g id="a_node5"><a xlink:href="../../d2/d3a/ThermoFactory_8cpp.html" target="_top" xlink:title="Definitions for the factory class that can create known ThermoPhase objects (see Thermodynamic Proper...">
<polygon fill="white" stroke="black" points="135.5,-0.5 135.5,-19.5 243.5,-19.5 243.5,-0.5 135.5,-0.5"/>
<text text-anchor="middle" x="189.5" y="-7.5" font-family="Helvetica,sans-Serif" font-size="10.00">ThermoFactory.cpp</text>
</a>
</g>
</g>
<!-- Node3&#45;&gt;Node5 -->
<g id="edge4" class="edge">
<title>Node3&#45;&gt;Node5</title>
<path fill="none" stroke="midnightblue" d="M189.5,-45.8C189.5,-36.91 189.5,-26.78 189.5,-19.75"/>
<polygon fill="midnightblue" stroke="midnightblue" points="186,-46.08 189.5,-56.08 193,-46.08 186,-46.08"/>
</g>
<!-- Node6&#45;&gt;Node5 -->
<g id="edge6" class="edge">
<title>Node6&#45;&gt;Node5</title>
<path fill="none" stroke="midnightblue" d="M275.5,-52.1C254.39,-42.01 225.64,-28.27 207.32,-19.52"/>
<polygon fill="midnightblue" stroke="midnightblue" points="274.06,-55.29 284.59,-56.44 277.08,-48.97 274.06,-55.29"/>
</g>
<!-- Node7 -->
<g id="node7" class="node">
<title>Node7</title>
<g id="a_node7"><a xlink:href="../../db/de5/WaterSSTP_8cpp.html" target="_top" xlink:title="Definitions for a ThermoPhase class consisting of pure water (see Thermodynamic Properties and class ...">
<polygon fill="white" stroke="black" points="261.5,-0.5 261.5,-19.5 349.5,-19.5 349.5,-0.5 261.5,-0.5"/>
<text text-anchor="middle" x="305.5" y="-7.5" font-family="Helvetica,sans-Serif" font-size="10.00">WaterSSTP.cpp</text>
</a>
</g>
</g>
<!-- Node6&#45;&gt;Node7 -->
<g id="edge7" class="edge">
<title>Node6&#45;&gt;Node7</title>
<path fill="none" stroke="midnightblue" d="M303.57,-45.8C304.06,-36.91 304.62,-26.78 305.01,-19.75"/>
<polygon fill="midnightblue" stroke="midnightblue" points="300.06,-45.9 303,-56.08 307.04,-46.29 300.06,-45.9"/>
</g>
<!-- Node8 -->
<g id="node8" class="node">
<title>Node8</title>
<g id="a_node8"><a xlink:href="../../d7/d8a/WaterTransport_8cpp.html" target="_top" xlink:title=" ">
<polygon fill="white" stroke="black" points="367.5,-0.5 367.5,-19.5 477.5,-19.5 477.5,-0.5 367.5,-0.5"/>
<text text-anchor="middle" x="422.5" y="-7.5" font-family="Helvetica,sans-Serif" font-size="10.00">WaterTransport.cpp</text>
</a>
</g>
</g>
<!-- Node6&#45;&gt;Node8 -->
<g id="edge8" class="edge">
<title>Node6&#45;&gt;Node8</title>
<path fill="none" stroke="midnightblue" d="M330.87,-52.23C353.32,-42.13 384.04,-28.31 403.57,-19.52"/>
<polygon fill="midnightblue" stroke="midnightblue" points="329.2,-49.15 321.51,-56.44 332.07,-55.53 329.2,-49.15"/>
</g>
</g>
</svg>
