<?xml version="1.0" encoding="UTF-8" standalone="no"?>
<!DOCTYPE svg PUBLIC "-//W3C//DTD SVG 1.1//EN"
 "http://www.w3.org/Graphics/SVG/1.1/DTD/svg11.dtd">
<!-- Generated by graphviz version 6.0.1 (0)
 -->
<!-- Title: SingleSpeciesTP.h Pages: 1 -->
<svg width="460pt" height="137pt"
 viewBox="0.00 0.00 460.00 137.00" xmlns="http://www.w3.org/2000/svg" xmlns:xlink="http://www.w3.org/1999/xlink">
<g id="graph0" class="graph" transform="scale(1 1) rotate(0) translate(4 133)">
<title>SingleSpeciesTP.h</title>
<!-- Node1 -->
<g id="Node000001" class="node">
<title>Node1</title>
<g id="a_Node000001"><a xlink:title="Header for the SingleSpeciesTP class, which is a filter class for ThermoPhase, that eases the constru...">
<polygon fill="#999999" stroke="#666666" points="227,-129 129,-129 129,-110 227,-110 227,-129"/>
<text text-anchor="middle" x="178" y="-117" font-family="Helvetica,sans-Serif" font-size="10.00">SingleSpeciesTP.h</text>
</a>
</g>
</g>
<!-- Node2 -->
<g id="Node000002" class="node">
<title>Node2</title>
<g id="a_Node000002"><a xlink:href="../../d4/df7/SingleSpeciesTP_8cpp.html" target="_top" xlink:title="Definitions for the SingleSpeciesTP class, which is a filter class for ThermoPhase,...">
<polygon fill="white" stroke="#666666" points="110.5,-74 1.5,-74 1.5,-55 110.5,-55 110.5,-74"/>
<text text-anchor="middle" x="56" y="-62" font-family="Helvetica,sans-Serif" font-size="10.00">SingleSpeciesTP.cpp</text>
</a>
</g>
</g>
<!-- Node1&#45;&gt;Node2 -->
<g id="edge1_Node000001_Node000002" class="edge">
<title>Node1&#45;&gt;Node2</title>
<g id="a_edge1_Node000001_Node000002"><a xlink:title=" ">
<path fill="none" stroke="#63b8ff" d="M148.99,-105.9C126.46,-96.11 95.8,-82.79 75.96,-74.17"/>
<polygon fill="#63b8ff" stroke="#63b8ff" points="147.83,-109.21 158.4,-109.98 150.62,-102.79 147.83,-109.21"/>
</a>
</g>
</g>
<!-- Node3 -->
<g id="Node000003" class="node">
<title>Node3</title>
<g id="a_Node000003"><a xlink:href="../../d8/dfb/StoichSubstance_8h.html" target="_top" xlink:title="Header file for the StoichSubstance class, which represents a fixed&#45;composition incompressible substa...">
<polygon fill="white" stroke="#666666" points="227.5,-74 128.5,-74 128.5,-55 227.5,-55 227.5,-74"/>
<text text-anchor="middle" x="178" y="-62" font-family="Helvetica,sans-Serif" font-size="10.00">StoichSubstance.h</text>
</a>
</g>
</g>
<!-- Node1&#45;&gt;Node3 -->
<g id="edge2_Node000001_Node000003" class="edge">
<title>Node1&#45;&gt;Node3</title>
<g id="a_edge2_Node000001_Node000003"><a xlink:title=" ">
<path fill="none" stroke="#63b8ff" d="M178,-99.66C178,-90.93 178,-80.99 178,-74.09"/>
<polygon fill="#63b8ff" stroke="#63b8ff" points="174.5,-99.75 178,-109.75 181.5,-99.75 174.5,-99.75"/>
</a>
</g>
</g>
<!-- Node6 -->
<g id="Node000006" class="node">
<title>Node6</title>
<g id="a_Node000006"><a xlink:href="../../dd/da3/WaterSSTP_8h.html" target="_top" xlink:title="Declares a ThermoPhase class consisting of pure water (see Thermodynamic Properties and class WaterSS...">
<polygon fill="white" stroke="#666666" points="323.5,-74 248.5,-74 248.5,-55 323.5,-55 323.5,-74"/>
<text text-anchor="middle" x="286" y="-62" font-family="Helvetica,sans-Serif" font-size="10.00">WaterSSTP.h</text>
</a>
</g>
</g>
<!-- Node1&#45;&gt;Node6 -->
<g id="edge5_Node000001_Node000006" class="edge">
<title>Node1&#45;&gt;Node6</title>
<g id="a_edge5_Node000001_Node000006"><a xlink:title=" ">
<path fill="none" stroke="#63b8ff" d="M204.49,-105.5C224.36,-95.75 251,-82.68 268.33,-74.17"/>
<polygon fill="#63b8ff" stroke="#63b8ff" points="202.79,-102.44 195.35,-109.98 205.87,-108.72 202.79,-102.44"/>
</a>
</g>
</g>
<!-- Node4 -->
<g id="Node000004" class="node">
<title>Node4</title>
<g id="a_Node000004"><a xlink:href="../../d1/ddb/StoichSubstance_8cpp.html" target="_top" xlink:title="Definition file for the StoichSubstance class, which represents a fixed&#45;composition incompressible su...">
<polygon fill="white" stroke="#666666" points="110,-19 0,-19 0,0 110,0 110,-19"/>
<text text-anchor="middle" x="55" y="-7" font-family="Helvetica,sans-Serif" font-size="10.00">StoichSubstance.cpp</text>
</a>
</g>
</g>
<!-- Node3&#45;&gt;Node4 -->
<g id="edge3_Node000003_Node000004" class="edge">
<title>Node3&#45;&gt;Node4</title>
<g id="a_edge3_Node000003_Node000004"><a xlink:title=" ">
<path fill="none" stroke="#63b8ff" d="M148.75,-50.9C126.03,-41.11 95.13,-27.79 75.12,-19.17"/>
<polygon fill="#63b8ff" stroke="#63b8ff" points="147.67,-54.24 158.24,-54.98 150.44,-47.81 147.67,-54.24"/>
</a>
</g>
</g>
<!-- Node5 -->
<g id="Node000005" class="node">
<title>Node5</title>
<g id="a_Node000005"><a xlink:href="../../d2/d3a/ThermoFactory_8cpp.html" target="_top" xlink:title="Definitions for the factory class that can create known ThermoPhase objects (see Thermodynamic Proper...">
<polygon fill="white" stroke="#666666" points="228,-19 128,-19 128,0 228,0 228,-19"/>
<text text-anchor="middle" x="178" y="-7" font-family="Helvetica,sans-Serif" font-size="10.00">ThermoFactory.cpp</text>
</a>
</g>
</g>
<!-- Node3&#45;&gt;Node5 -->
<g id="edge4_Node000003_Node000005" class="edge">
<title>Node3&#45;&gt;Node5</title>
<g id="a_edge4_Node000003_Node000005"><a xlink:title=" ">
<path fill="none" stroke="#63b8ff" d="M178,-44.66C178,-35.93 178,-25.99 178,-19.09"/>
<polygon fill="#63b8ff" stroke="#63b8ff" points="174.5,-44.75 178,-54.75 181.5,-44.75 174.5,-44.75"/>
</a>
</g>
</g>
<!-- Node6&#45;&gt;Node5 -->
<g id="edge6_Node000006_Node000005" class="edge">
<title>Node6&#45;&gt;Node5</title>
<g id="a_edge6_Node000006_Node000005"><a xlink:title=" ">
<path fill="none" stroke="#63b8ff" d="M259.51,-50.5C239.64,-40.75 213,-27.68 195.67,-19.17"/>
<polygon fill="#63b8ff" stroke="#63b8ff" points="258.13,-53.72 268.65,-54.98 261.21,-47.44 258.13,-53.72"/>
</a>
</g>
</g>
<!-- Node7 -->
<g id="Node000007" class="node">
<title>Node7</title>
<g id="a_Node000007"><a xlink:href="../../db/de5/WaterSSTP_8cpp.html" target="_top" xlink:title="Definitions for a ThermoPhase class consisting of pure water (see Thermodynamic Properties and class ...">
<polygon fill="white" stroke="#666666" points="332,-19 246,-19 246,0 332,0 332,-19"/>
<text text-anchor="middle" x="289" y="-7" font-family="Helvetica,sans-Serif" font-size="10.00">WaterSSTP.cpp</text>
</a>
</g>
</g>
<!-- Node6&#45;&gt;Node7 -->
<g id="edge7_Node000006_Node000007" class="edge">
<title>Node6&#45;&gt;Node7</title>
<g id="a_edge7_Node000006_Node000007"><a xlink:title=" ">
<path fill="none" stroke="#63b8ff" d="M287.07,-44.66C287.56,-35.93 288.12,-25.99 288.51,-19.09"/>
<polygon fill="#63b8ff" stroke="#63b8ff" points="283.57,-44.57 286.5,-54.75 290.56,-44.96 283.57,-44.57"/>
</a>
</g>
</g>
<!-- Node8 -->
<g id="Node000008" class="node">
<title>Node8</title>
<g id="a_Node000008"><a xlink:href="../../d7/d8a/WaterTransport_8cpp.html" target="_top" xlink:title=" ">
<polygon fill="white" stroke="#666666" points="452,-19 350,-19 350,0 452,0 452,-19"/>
<text text-anchor="middle" x="401" y="-7" font-family="Helvetica,sans-Serif" font-size="10.00">WaterTransport.cpp</text>
</a>
</g>
</g>
<!-- Node6&#45;&gt;Node8 -->
<g id="edge8_Node000006_Node000008" class="edge">
<title>Node6&#45;&gt;Node8</title>
<g id="a_edge8_Node000006_Node000008"><a xlink:title=" ">
<path fill="none" stroke="#63b8ff" d="M313.63,-50.77C334.84,-40.99 363.56,-27.75 382.19,-19.17"/>
<polygon fill="#63b8ff" stroke="#63b8ff" points="312.09,-47.62 304.48,-54.98 315.02,-53.98 312.09,-47.62"/>
</a>
</g>
</g>
</g>
</svg>
