<?xml version="1.0" encoding="UTF-8" standalone="no"?>
<!DOCTYPE svg PUBLIC "-//W3C//DTD SVG 1.1//EN"
 "http://www.w3.org/Graphics/SVG/1.1/DTD/svg11.dtd">
<!-- Generated by graphviz version 2.50.0 (0)
 -->
<!-- Title: PDSS_Water.cpp Pages: 1 -->
<!--zoomable 375 -->
<svg id="main" version="1.1" xmlns="http://www.w3.org/2000/svg" xmlns:xlink="http://www.w3.org/1999/xlink" xml:space="preserve" onload="init(evt)">
<style type="text/css"><![CDATA[
.edge:hover path { stroke: red; }
.edge:hover polygon { stroke: red; fill: red; }
]]></style>
<script type="text/javascript"><![CDATA[
var edges = document.getElementsByTagName('g');
if (edges && edges.length) {
  for (var i=0;i<edges.length;i++) {
    if (edges[i].id.substr(0,4)=='edge') {
      edges[i].setAttribute('class','edge');
    }
  }
}
]]></script>
        <defs>
                <circle id="rim" cx="0" cy="0" r="7"/>
                <circle id="rim2" cx="0" cy="0" r="3.5"/>
                <g id="zoomPlus">
                        <use xlink:href="#rim" fill="#404040">
                                <set attributeName="fill" to="#808080" begin="zoomplus.mouseover" end="zoomplus.mouseout"/>
                        </use>
                        <path d="M-4,0h8M0,-4v8" fill="none" stroke="white" stroke-width="1.5" pointer-events="none"/>
                </g>
                <g id="zoomMin">
                        <use xlink:href="#rim" fill="#404040">
                                <set attributeName="fill" to="#808080" begin="zoomminus.mouseover" end="zoomminus.mouseout"/>
                        </use>
                        <path d="M-4,0h8" fill="none" stroke="white" stroke-width="1.5" pointer-events="none"/>
                </g>
                <g id="dirArrow">
                        <path fill="none" stroke="white" stroke-width="1.5" d="M0,-3.0v7 M-2.5,-0.5L0,-3.0L2.5,-0.5"/>
                </g>
               <g id="resetDef">
                       <use xlink:href="#rim2" fill="#404040">
                               <set attributeName="fill" to="#808080" begin="reset.mouseover" end="reset.mouseout"/>
                       </use>
               </g>
        </defs>

<script type="text/javascript">
var viewWidth = 989;
var viewHeight = 375;
var sectionId = 'dynsection-0';
</script>
<script xlink:href="../../svgpan.js"/>
<svg id="graph" class="graph">
<g id="viewport">
<title>PDSS_Water.cpp</title>
<polygon fill="white" stroke="transparent" points="-4,4 -4,-371 985.19,-371 985.19,4 -4,4"/>
<!-- Node1 -->
<g id="node1" class="node">
<title>Node1</title>
<g id="a_node1"><a xlink:title=" ">
<polygon fill="#bfbfbf" stroke="black" points="204.5,-347.5 204.5,-366.5 297.5,-366.5 297.5,-347.5 204.5,-347.5"/>
<text text-anchor="middle" x="251" y="-354.5" font-family="Helvetica,sans-Serif" font-size="10.00">PDSS_Water.cpp</text>
</a>
</g>
</g>
<!-- Node2 -->
<g id="node2" class="node">
<title>Node2</title>
<g id="a_node2"><a xlink:href="../../dc/deb/ctml_8h.html" target="_top" xlink:title="CTML (&quot;Cantera Markup Language&quot;) is the variant of XML that Cantera uses to store data.">
<polygon fill="white" stroke="black" points="92.5,-168.5 92.5,-187.5 195.5,-187.5 195.5,-168.5 92.5,-168.5"/>
<text text-anchor="middle" x="144" y="-175.5" font-family="Helvetica,sans-Serif" font-size="10.00">cantera/base/ctml.h</text>
</a>
</g>
</g>
<!-- Node1&#45;&gt;Node2 -->
<g id="edge1" class="edge">
<title>Node1&#45;&gt;Node2</title>
<path fill="none" stroke="midnightblue" d="M226.52,-347.47C209.55,-340.31 187.8,-328.43 175,-311 149.88,-276.8 144.77,-225.32 143.94,-197.85"/>
<polygon fill="midnightblue" stroke="midnightblue" points="147.44,-197.62 143.8,-187.67 140.44,-197.71 147.44,-197.62"/>
</g>
<!-- Node13 -->
<g id="node13" class="node">
<title>Node13</title>
<g id="a_node13"><a xlink:href="../../d8/d6d/PDSS__Water_8h.html" target="_top" xlink:title="Implementation of a pressure dependent standard state virtual function for a Pure Water Phase (see Sp...">
<polygon fill="white" stroke="black" points="470.5,-280.5 470.5,-310.5 583.5,-310.5 583.5,-280.5 470.5,-280.5"/>
<text text-anchor="start" x="478.5" y="-298.5" font-family="Helvetica,sans-Serif" font-size="10.00">cantera/thermo/PDSS</text>
<text text-anchor="middle" x="527" y="-287.5" font-family="Helvetica,sans-Serif" font-size="10.00">_Water.h</text>
</a>
</g>
</g>
<!-- Node1&#45;&gt;Node13 -->
<g id="edge13" class="edge">
<title>Node1&#45;&gt;Node13</title>
<path fill="none" stroke="midnightblue" d="M290.54,-347.48C334.79,-337.94 407.22,-322.32 460.28,-310.88"/>
<polygon fill="midnightblue" stroke="midnightblue" points="461.25,-314.26 470.28,-308.73 459.77,-307.41 461.25,-314.26"/>
</g>
<!-- Node27 -->
<g id="node21" class="node">
<title>Node27</title>
<g id="a_node21"><a xlink:href="../../d2/d86/WaterPropsIAPWS_8h.html" target="_top" xlink:title="Headers for a class for calculating the equation of state of water from the IAPWS 1995 Formulation ba...">
<polygon fill="white" stroke="black" points="624.5,-224.5 624.5,-243.5 733.5,-243.5 733.5,-224.5 624.5,-224.5"/>
<text text-anchor="middle" x="679" y="-231.5" font-family="Helvetica,sans-Serif" font-size="10.00">WaterPropsIAPWS.h</text>
</a>
</g>
</g>
<!-- Node1&#45;&gt;Node27 -->
<g id="edge30" class="edge">
<title>Node1&#45;&gt;Node27</title>
<path fill="none" stroke="midnightblue" d="M297.79,-353.23C378.77,-347.87 541.36,-334.51 593,-311 622.92,-297.38 650,-269.74 665.47,-251.82"/>
<polygon fill="midnightblue" stroke="midnightblue" points="668.36,-253.82 672.09,-243.9 662.99,-249.33 668.36,-253.82"/>
</g>
<!-- Node30 -->
<g id="node24" class="node">
<title>Node30</title>
<g id="a_node24"><a xlink:href="../../dd/dc3/stringUtils_8h.html" target="_top" xlink:title="Contains declarations for string manipulation functions within Cantera.">
<polygon fill="white" stroke="black" points="0,-286 0,-305 128,-305 128,-286 0,-286"/>
<text text-anchor="middle" x="64" y="-293" font-family="Helvetica,sans-Serif" font-size="10.00">cantera/base/stringUtils.h</text>
</a>
</g>
</g>
<!-- Node1&#45;&gt;Node30 -->
<g id="edge31" class="edge">
<title>Node1&#45;&gt;Node30</title>
<path fill="none" stroke="midnightblue" d="M224.21,-347.48C191.71,-337.14 136.79,-319.66 100.46,-308.1"/>
<polygon fill="midnightblue" stroke="midnightblue" points="101.33,-304.71 90.74,-305.01 99.21,-311.38 101.33,-304.71"/>
</g>
<!-- Node31 -->
<g id="node25" class="node">
<title>Node31</title>
<g id="a_node25"><a xlink:href="../../d9/dda/Elements_8h.html" target="_top" xlink:title="Contains the getElementWeight function and the definitions of element constraint types.">
<polygon fill="white" stroke="black" points="184,-286 184,-305 318,-305 318,-286 184,-286"/>
<text text-anchor="middle" x="251" y="-293" font-family="Helvetica,sans-Serif" font-size="10.00">cantera/thermo/Elements.h</text>
</a>
</g>
</g>
<!-- Node1&#45;&gt;Node31 -->
<g id="edge33" class="edge">
<title>Node1&#45;&gt;Node31</title>
<path fill="none" stroke="midnightblue" d="M251,-347.48C251,-339.08 251,-325.98 251,-315.16"/>
<polygon fill="midnightblue" stroke="midnightblue" points="254.5,-315.01 251,-305.01 247.5,-315.01 254.5,-315.01"/>
</g>
<!-- Node3 -->
<g id="node3" class="node">
<title>Node3</title>
<g id="a_node3"><a xlink:href="../../d9/ddc/ct__defs_8h.html" target="_top" xlink:title="This file contains definitions of constants, types and terms that are used in internal routines and a...">
<polygon fill="white" stroke="black" points="233.5,-56.5 233.5,-75.5 290.5,-75.5 290.5,-56.5 233.5,-56.5"/>
<text text-anchor="middle" x="262" y="-63.5" font-family="Helvetica,sans-Serif" font-size="10.00">ct_defs.h</text>
</a>
</g>
</g>
<!-- Node2&#45;&gt;Node3 -->
<g id="edge2" class="edge">
<title>Node2&#45;&gt;Node3</title>
<path fill="none" stroke="midnightblue" d="M152.37,-168.41C164.74,-155.8 188.73,-131.64 210,-112 220.96,-101.88 233.62,-90.91 243.7,-82.34"/>
<polygon fill="midnightblue" stroke="midnightblue" points="246.09,-84.9 251.47,-75.77 241.57,-79.55 246.09,-84.9"/>
</g>
<!-- Node12 -->
<g id="node12" class="node">
<title>Node12</title>
<g id="a_node12"><a xlink:href="../../d0/d62/xml_8h.html" target="_top" xlink:title="Classes providing support for XML data files.">
<polygon fill="white" stroke="black" points="116.5,-112.5 116.5,-131.5 157.5,-131.5 157.5,-112.5 116.5,-112.5"/>
<text text-anchor="middle" x="137" y="-119.5" font-family="Helvetica,sans-Serif" font-size="10.00">xml.h</text>
</a>
</g>
</g>
<!-- Node2&#45;&gt;Node12 -->
<g id="edge11" class="edge">
<title>Node2&#45;&gt;Node12</title>
<path fill="none" stroke="midnightblue" d="M142.84,-168.08C141.92,-160.93 140.58,-150.64 139.42,-141.69"/>
<polygon fill="midnightblue" stroke="midnightblue" points="142.89,-141.22 138.13,-131.75 135.95,-142.12 142.89,-141.22"/>
</g>
<!-- Node4 -->
<g id="node4" class="node">
<title>Node4</title>
<g id="a_node4"><a xlink:href="../../db/d16/config_8h_source.html" target="_top" xlink:title=" ">
<polygon fill="white" stroke="black" points="732.5,-0.5 732.5,-19.5 783.5,-19.5 783.5,-0.5 732.5,-0.5"/>
<text text-anchor="middle" x="758" y="-7.5" font-family="Helvetica,sans-Serif" font-size="10.00">config.h</text>
</a>
</g>
</g>
<!-- Node3&#45;&gt;Node4 -->
<g id="edge3" class="edge">
<title>Node3&#45;&gt;Node4</title>
<path fill="none" stroke="midnightblue" d="M290.81,-61.86C376.32,-52.55 628.5,-25.1 722.31,-14.89"/>
<polygon fill="midnightblue" stroke="midnightblue" points="722.87,-18.35 732.44,-13.78 722.12,-11.39 722.87,-18.35"/>
</g>
<!-- Node5 -->
<g id="node5" class="node">
<title>Node5</title>
<g id="a_node5"><a xlink:title=" ">
<polygon fill="white" stroke="#bfbfbf" points="56,-0.5 56,-19.5 100,-19.5 100,-0.5 56,-0.5"/>
<text text-anchor="middle" x="78" y="-7.5" font-family="Helvetica,sans-Serif" font-size="10.00">cmath</text>
</a>
</g>
</g>
<!-- Node3&#45;&gt;Node5 -->
<g id="edge4" class="edge">
<title>Node3&#45;&gt;Node5</title>
<path fill="none" stroke="midnightblue" d="M233.25,-56.56C199.76,-46.74 144.61,-30.55 109.85,-20.35"/>
<polygon fill="midnightblue" stroke="midnightblue" points="110.78,-16.97 100.19,-17.51 108.8,-23.69 110.78,-16.97"/>
</g>
<!-- Node6 -->
<g id="node6" class="node">
<title>Node6</title>
<g id="a_node6"><a xlink:title=" ">
<polygon fill="white" stroke="#bfbfbf" points="118.5,-0.5 118.5,-19.5 163.5,-19.5 163.5,-0.5 118.5,-0.5"/>
<text text-anchor="middle" x="141" y="-7.5" font-family="Helvetica,sans-Serif" font-size="10.00">cstdlib</text>
</a>
</g>
</g>
<!-- Node3&#45;&gt;Node6 -->
<g id="edge5" class="edge">
<title>Node3&#45;&gt;Node6</title>
<path fill="none" stroke="midnightblue" d="M242.83,-56.44C223.09,-47.64 192.11,-33.81 169.51,-23.72"/>
<polygon fill="midnightblue" stroke="midnightblue" points="170.64,-20.4 160.08,-19.52 167.79,-26.79 170.64,-20.4"/>
</g>
<!-- Node7 -->
<g id="node7" class="node">
<title>Node7</title>
<g id="a_node7"><a xlink:title=" ">
<polygon fill="white" stroke="#bfbfbf" points="182,-0.5 182,-19.5 226,-19.5 226,-0.5 182,-0.5"/>
<text text-anchor="middle" x="204" y="-7.5" font-family="Helvetica,sans-Serif" font-size="10.00">vector</text>
</a>
</g>
</g>
<!-- Node3&#45;&gt;Node7 -->
<g id="edge6" class="edge">
<title>Node3&#45;&gt;Node7</title>
<path fill="none" stroke="midnightblue" d="M252.68,-56.32C244.11,-48.34 231.19,-36.31 220.81,-26.65"/>
<polygon fill="midnightblue" stroke="midnightblue" points="223.19,-24.09 213.49,-19.83 218.42,-29.21 223.19,-24.09"/>
</g>
<!-- Node8 -->
<g id="node8" class="node">
<title>Node8</title>
<g id="a_node8"><a xlink:title=" ">
<polygon fill="white" stroke="#bfbfbf" points="244.5,-0.5 244.5,-19.5 279.5,-19.5 279.5,-0.5 244.5,-0.5"/>
<text text-anchor="middle" x="262" y="-7.5" font-family="Helvetica,sans-Serif" font-size="10.00">map</text>
</a>
</g>
</g>
<!-- Node3&#45;&gt;Node8 -->
<g id="edge7" class="edge">
<title>Node3&#45;&gt;Node8</title>
<path fill="none" stroke="midnightblue" d="M262,-56.08C262,-49.01 262,-38.86 262,-29.99"/>
<polygon fill="midnightblue" stroke="midnightblue" points="265.5,-29.75 262,-19.75 258.5,-29.75 265.5,-29.75"/>
</g>
<!-- Node9 -->
<g id="node9" class="node">
<title>Node9</title>
<g id="a_node9"><a xlink:title=" ">
<polygon fill="white" stroke="#bfbfbf" points="297.5,-0.5 297.5,-19.5 338.5,-19.5 338.5,-0.5 297.5,-0.5"/>
<text text-anchor="middle" x="318" y="-7.5" font-family="Helvetica,sans-Serif" font-size="10.00">string</text>
</a>
</g>
</g>
<!-- Node3&#45;&gt;Node9 -->
<g id="edge8" class="edge">
<title>Node3&#45;&gt;Node9</title>
<path fill="none" stroke="midnightblue" d="M271,-56.32C279.19,-48.42 291.51,-36.55 301.47,-26.94"/>
<polygon fill="midnightblue" stroke="midnightblue" points="304.07,-29.29 308.84,-19.83 299.21,-24.26 304.07,-29.29"/>
</g>
<!-- Node10 -->
<g id="node10" class="node">
<title>Node10</title>
<g id="a_node10"><a xlink:title=" ">
<polygon fill="white" stroke="#bfbfbf" points="357,-0.5 357,-19.5 413,-19.5 413,-0.5 357,-0.5"/>
<text text-anchor="middle" x="385" y="-7.5" font-family="Helvetica,sans-Serif" font-size="10.00">algorithm</text>
</a>
</g>
</g>
<!-- Node3&#45;&gt;Node10 -->
<g id="edge9" class="edge">
<title>Node3&#45;&gt;Node10</title>
<path fill="none" stroke="midnightblue" d="M281.49,-56.44C301.64,-47.6 333.32,-33.69 356.33,-23.59"/>
<polygon fill="midnightblue" stroke="midnightblue" points="357.85,-26.74 365.6,-19.52 355.04,-20.33 357.85,-26.74"/>
</g>
<!-- Node11 -->
<g id="node11" class="node">
<title>Node11</title>
<g id="a_node11"><a xlink:title=" ">
<polygon fill="white" stroke="#bfbfbf" points="431,-0.5 431,-19.5 483,-19.5 483,-0.5 431,-0.5"/>
<text text-anchor="middle" x="457" y="-7.5" font-family="Helvetica,sans-Serif" font-size="10.00">memory</text>
</a>
</g>
</g>
<!-- Node3&#45;&gt;Node11 -->
<g id="edge10" class="edge">
<title>Node3&#45;&gt;Node11</title>
<path fill="none" stroke="midnightblue" d="M290.77,-57.03C325.34,-47.46 383.37,-31.39 420.91,-20.99"/>
<polygon fill="midnightblue" stroke="midnightblue" points="422.22,-24.26 430.92,-18.22 420.35,-17.52 422.22,-24.26"/>
</g>
<!-- Node12&#45;&gt;Node3 -->
<g id="edge12" class="edge">
<title>Node12&#45;&gt;Node3</title>
<path fill="none" stroke="midnightblue" d="M156.81,-112.44C177.29,-103.6 209.48,-89.69 232.86,-79.59"/>
<polygon fill="midnightblue" stroke="midnightblue" points="234.49,-82.7 242.29,-75.52 231.72,-76.27 234.49,-82.7"/>
</g>
<!-- Node14 -->
<g id="node14" class="node">
<title>Node14</title>
<g id="a_node14"><a xlink:href="../../d7/dfa/PDSS_8h.html" target="_top" xlink:title="Declarations for the virtual base class PDSS (pressure dependent standard state) which handles calcul...">
<polygon fill="white" stroke="black" points="458.5,-224.5 458.5,-243.5 511.5,-243.5 511.5,-224.5 458.5,-224.5"/>
<text text-anchor="middle" x="485" y="-231.5" font-family="Helvetica,sans-Serif" font-size="10.00">PDSS.h</text>
</a>
</g>
</g>
<!-- Node13&#45;&gt;Node14 -->
<g id="edge14" class="edge">
<title>Node13&#45;&gt;Node14</title>
<path fill="none" stroke="midnightblue" d="M517.05,-280.4C511.01,-271.84 503.26,-260.87 496.9,-251.86"/>
<polygon fill="midnightblue" stroke="midnightblue" points="499.74,-249.81 491.11,-243.66 494.02,-253.85 499.74,-249.81"/>
</g>
<!-- Node13&#45;&gt;Node27 -->
<g id="edge25" class="edge">
<title>Node13&#45;&gt;Node27</title>
<path fill="none" stroke="midnightblue" d="M563.02,-280.4C588.64,-270.37 622.73,-257.03 647.31,-247.4"/>
<polygon fill="midnightblue" stroke="midnightblue" points="648.85,-250.56 656.88,-243.66 646.29,-244.04 648.85,-250.56"/>
</g>
<!-- Node29 -->
<g id="node23" class="node">
<title>Node29</title>
<g id="a_node23"><a xlink:href="../../db/d4b/WaterProps_8h.html" target="_top" xlink:title="Header for a class used to house several approximation routines for properties of water.">
<polygon fill="white" stroke="black" points="530,-224.5 530,-243.5 606,-243.5 606,-224.5 530,-224.5"/>
<text text-anchor="middle" x="568" y="-231.5" font-family="Helvetica,sans-Serif" font-size="10.00">WaterProps.h</text>
</a>
</g>
</g>
<!-- Node13&#45;&gt;Node29 -->
<g id="edge28" class="edge">
<title>Node13&#45;&gt;Node29</title>
<path fill="none" stroke="midnightblue" d="M536.72,-280.4C542.55,-271.93 550.02,-261.1 556.19,-252.14"/>
<polygon fill="midnightblue" stroke="midnightblue" points="559.24,-253.88 562.03,-243.66 553.48,-249.91 559.24,-253.88"/>
</g>
<!-- Node14&#45;&gt;Node3 -->
<g id="edge15" class="edge">
<title>Node14&#45;&gt;Node3</title>
<path fill="none" stroke="midnightblue" d="M458.18,-227.11C414.52,-216.12 328.23,-188.33 281,-132 270.03,-118.92 265.39,-99.77 263.43,-85.64"/>
<polygon fill="midnightblue" stroke="midnightblue" points="266.9,-85.17 262.37,-75.6 259.94,-85.91 266.9,-85.17"/>
</g>
<!-- Node15 -->
<g id="node15" class="node">
<title>Node15</title>
<g id="a_node15"><a xlink:href="../../dd/d2a/AnyMap_8h.html" target="_top" xlink:title=" ">
<polygon fill="white" stroke="black" points="576,-168.5 576,-187.5 696,-187.5 696,-168.5 576,-168.5"/>
<text text-anchor="middle" x="636" y="-175.5" font-family="Helvetica,sans-Serif" font-size="10.00">cantera/base/AnyMap.h</text>
</a>
</g>
</g>
<!-- Node14&#45;&gt;Node15 -->
<g id="edge16" class="edge">
<title>Node14&#45;&gt;Node15</title>
<path fill="none" stroke="midnightblue" d="M508.93,-224.44C534.22,-215.4 574.3,-201.06 602.68,-190.92"/>
<polygon fill="midnightblue" stroke="midnightblue" points="603.95,-194.18 612.19,-187.52 601.59,-187.59 603.95,-194.18"/>
</g>
<!-- Node15&#45;&gt;Node3 -->
<g id="edge17" class="edge">
<title>Node15&#45;&gt;Node3</title>
<path fill="none" stroke="midnightblue" d="M693.87,-168.44C741.11,-159.13 795.98,-141.48 769,-112 737.57,-77.66 414.42,-69.36 301.05,-67.5"/>
<polygon fill="midnightblue" stroke="midnightblue" points="300.8,-64 290.75,-67.34 300.69,-71 300.8,-64"/>
</g>
<!-- Node16 -->
<g id="node16" class="node">
<title>Node16</title>
<g id="a_node16"><a xlink:href="../../db/d98/ctexceptions_8h.html" target="_top" xlink:title="Definitions for the classes that are thrown when Cantera experiences an error condition (also contain...">
<polygon fill="white" stroke="red" points="290,-112.5 290,-131.5 430,-131.5 430,-112.5 290,-112.5"/>
<text text-anchor="middle" x="360" y="-119.5" font-family="Helvetica,sans-Serif" font-size="10.00">cantera/base/ctexceptions.h</text>
</a>
</g>
</g>
<!-- Node15&#45;&gt;Node16 -->
<g id="edge18" class="edge">
<title>Node15&#45;&gt;Node16</title>
<path fill="none" stroke="midnightblue" d="M592.27,-168.44C543.82,-158.96 465.67,-143.67 413.58,-133.48"/>
<polygon fill="midnightblue" stroke="midnightblue" points="414.01,-130 403.53,-131.52 412.67,-136.87 414.01,-130"/>
</g>
<!-- Node21 -->
<g id="node17" class="node">
<title>Node21</title>
<g id="a_node17"><a xlink:href="../../da/d58/Units_8h.html" target="_top" xlink:title="Header for unit conversion utilities, which are used to translate user input from input files (See In...">
<polygon fill="white" stroke="black" points="816.5,-112.5 816.5,-131.5 923.5,-131.5 923.5,-112.5 816.5,-112.5"/>
<text text-anchor="middle" x="870" y="-119.5" font-family="Helvetica,sans-Serif" font-size="10.00">cantera/base/Units.h</text>
</a>
</g>
</g>
<!-- Node15&#45;&gt;Node21 -->
<g id="edge19" class="edge">
<title>Node15&#45;&gt;Node21</title>
<path fill="none" stroke="midnightblue" d="M673.08,-168.44C713.73,-159.06 779.03,-143.99 823.18,-133.8"/>
<polygon fill="midnightblue" stroke="midnightblue" points="824.14,-137.18 833.1,-131.52 822.56,-130.35 824.14,-137.18"/>
</g>
<!-- Node22 -->
<g id="node18" class="node">
<title>Node22</title>
<g id="a_node18"><a xlink:title=" ">
<polygon fill="white" stroke="#bfbfbf" points="448.5,-112.5 448.5,-131.5 531.5,-131.5 531.5,-112.5 448.5,-112.5"/>
<text text-anchor="middle" x="490" y="-119.5" font-family="Helvetica,sans-Serif" font-size="10.00">unordered_map</text>
</a>
</g>
</g>
<!-- Node15&#45;&gt;Node22 -->
<g id="edge21" class="edge">
<title>Node15&#45;&gt;Node22</title>
<path fill="none" stroke="midnightblue" d="M612.87,-168.44C588.52,-159.44 549.99,-145.19 522.58,-135.05"/>
<polygon fill="midnightblue" stroke="midnightblue" points="523.62,-131.7 513.03,-131.52 521.19,-138.27 523.62,-131.7"/>
</g>
<!-- Node23 -->
<g id="node19" class="node">
<title>Node23</title>
<g id="a_node19"><a xlink:title=" ">
<polygon fill="white" stroke="#bfbfbf" points="549.5,-112.5 549.5,-131.5 608.5,-131.5 608.5,-112.5 549.5,-112.5"/>
<text text-anchor="middle" x="579" y="-119.5" font-family="Helvetica,sans-Serif" font-size="10.00">functional</text>
</a>
</g>
</g>
<!-- Node15&#45;&gt;Node23 -->
<g id="edge22" class="edge">
<title>Node15&#45;&gt;Node23</title>
<path fill="none" stroke="midnightblue" d="M626.84,-168.32C618.5,-160.42 605.97,-148.55 595.82,-138.94"/>
<polygon fill="midnightblue" stroke="midnightblue" points="597.99,-136.17 588.32,-131.83 593.18,-141.25 597.99,-136.17"/>
</g>
<!-- Node24 -->
<g id="node20" class="node">
<title>Node24</title>
<g id="a_node20"><a xlink:href="../../da/d4c/AnyMap_8inl_8h.html" target="_top" xlink:title=" ">
<polygon fill="white" stroke="red" points="626.5,-112.5 626.5,-131.5 759.5,-131.5 759.5,-112.5 626.5,-112.5"/>
<text text-anchor="middle" x="693" y="-119.5" font-family="Helvetica,sans-Serif" font-size="10.00">cantera/base/AnyMap.inl.h</text>
</a>
</g>
</g>
<!-- Node15&#45;&gt;Node24 -->
<g id="edge23" class="edge">
<title>Node15&#45;&gt;Node24</title>
<path fill="none" stroke="midnightblue" d="M640.25,-168.08C647.09,-159.98 659.55,-147.87 670.78,-138.23"/>
<polygon fill="midnightblue" stroke="midnightblue" points="673.15,-140.82 678.63,-131.75 668.69,-135.42 673.15,-140.82"/>
</g>
<!-- Node21&#45;&gt;Node3 -->
<g id="edge20" class="edge">
<title>Node21&#45;&gt;Node3</title>
<path fill="none" stroke="midnightblue" d="M816.21,-113.64C811.41,-113.05 806.62,-112.5 802,-112 614.6,-91.8 389.77,-75.66 300.89,-69.59"/>
<polygon fill="midnightblue" stroke="midnightblue" points="300.95,-66.09 290.73,-68.9 300.47,-73.07 300.95,-66.09"/>
</g>
<!-- Node24&#45;&gt;Node15 -->
<g id="edge24" class="edge">
<title>Node24&#45;&gt;Node15</title>
<path fill="none" stroke="midnightblue" d="M688.82,-131.83C681.99,-139.95 669.44,-152.15 658.16,-161.82"/>
<polygon fill="midnightblue" stroke="midnightblue" points="655.76,-159.26 650.27,-168.32 660.22,-164.66 655.76,-159.26"/>
</g>
<!-- Node28 -->
<g id="node22" class="node">
<title>Node28</title>
<g id="a_node22"><a xlink:href="../../da/d59/WaterPropsIAPWSphi_8h.html" target="_top" xlink:title="Header for Lowest level of the classes which support a real water model (see class WaterPropsIAPWS an...">
<polygon fill="white" stroke="black" points="813,-56.5 813,-75.5 935,-75.5 935,-56.5 813,-56.5"/>
<text text-anchor="middle" x="874" y="-63.5" font-family="Helvetica,sans-Serif" font-size="10.00">WaterPropsIAPWSphi.h</text>
</a>
</g>
</g>
<!-- Node27&#45;&gt;Node28 -->
<g id="edge26" class="edge">
<title>Node27&#45;&gt;Node28</title>
<path fill="none" stroke="midnightblue" d="M733.62,-232.54C808.39,-230.61 936.7,-222.25 966,-188 987.96,-162.33 983.88,-140.66 966,-112 956.24,-96.36 939.3,-86.01 922.6,-79.23"/>
<polygon fill="midnightblue" stroke="midnightblue" points="923.44,-75.81 912.85,-75.64 921.02,-82.38 923.44,-75.81"/>
</g>
<!-- Node28&#45;&gt;Node4 -->
<g id="edge27" class="edge">
<title>Node28&#45;&gt;Node4</title>
<path fill="none" stroke="midnightblue" d="M855.62,-56.44C836.78,-47.68 807.27,-33.94 785.62,-23.86"/>
<polygon fill="midnightblue" stroke="midnightblue" points="786.84,-20.56 776.29,-19.52 783.88,-26.91 786.84,-20.56"/>
</g>
<!-- Node29&#45;&gt;Node3 -->
<g id="edge29" class="edge">
<title>Node29&#45;&gt;Node3</title>
<path fill="none" stroke="midnightblue" d="M606.19,-225.15C695.66,-206.39 912.82,-158.52 933,-132 938.38,-124.93 939.07,-118.49 933,-112 889.72,-65.72 437.3,-65.57 300.78,-66.6"/>
<polygon fill="midnightblue" stroke="midnightblue" points="300.74,-63.1 290.77,-66.68 300.8,-70.1 300.74,-63.1"/>
</g>
<!-- Node30&#45;&gt;Node3 -->
<g id="edge32" class="edge">
<title>Node30&#45;&gt;Node3</title>
<path fill="none" stroke="midnightblue" d="M62.96,-285.94C59.93,-256.48 54.34,-158.59 107,-112 139.33,-83.4 188.89,-72.92 223.22,-69.12"/>
<polygon fill="midnightblue" stroke="midnightblue" points="223.74,-72.58 233.36,-68.14 223.06,-65.62 223.74,-72.58"/>
</g>
<!-- Node31&#45;&gt;Node3 -->
<g id="edge34" class="edge">
<title>Node31&#45;&gt;Node3</title>
<path fill="none" stroke="midnightblue" d="M251.42,-285.86C253.02,-252.64 258.83,-132.66 261.09,-85.87"/>
<polygon fill="midnightblue" stroke="midnightblue" points="264.59,-85.81 261.58,-75.65 257.6,-85.47 264.59,-85.81"/>
</g>
</g>
</svg>
        <g id="navigator" transform="translate(0 0)" fill="#404254">
                <rect fill="#f2f5e9" fill-opacity="0.5" stroke="#606060" stroke-width=".5" x="0" y="0" width="60" height="60"/>
                <use id="zoomplus" xlink:href="#zoomPlus" x="17" y="9" onmousedown="handleZoom(evt,'in')"/>
                <use id="zoomminus" xlink:href="#zoomMin" x="42" y="9" onmousedown="handleZoom(evt,'out')"/>
                <use id="reset" xlink:href="#resetDef" x="30" y="36" onmousedown="handleReset()"/>
                <g id="arrowUp" xlink:href="#dirArrow" transform="translate(30 24)" onmousedown="handlePan(0,-1)">
                  <use xlink:href="#rim" fill="#404040">
                        <set attributeName="fill" to="#808080" begin="arrowUp.mouseover" end="arrowUp.mouseout"/>
                  </use>
                  <path fill="none" stroke="white" stroke-width="1.5" d="M0,-3.0v7 M-2.5,-0.5L0,-3.0L2.5,-0.5"/>
                </g>
                <g id="arrowRight" xlink:href="#dirArrow" transform="rotate(90) translate(36 -43)" onmousedown="handlePan(1,0)">
                  <use xlink:href="#rim" fill="#404040">
                        <set attributeName="fill" to="#808080" begin="arrowRight.mouseover" end="arrowRight.mouseout"/>
                  </use>
                  <path fill="none" stroke="white" stroke-width="1.5" d="M0,-3.0v7 M-2.5,-0.5L0,-3.0L2.5,-0.5"/>
                </g>
                <g id="arrowDown" xlink:href="#dirArrow" transform="rotate(180) translate(-30 -48)" onmousedown="handlePan(0,1)">
                  <use xlink:href="#rim" fill="#404040">
                        <set attributeName="fill" to="#808080" begin="arrowDown.mouseover" end="arrowDown.mouseout"/>
                  </use>
                  <path fill="none" stroke="white" stroke-width="1.5" d="M0,-3.0v7 M-2.5,-0.5L0,-3.0L2.5,-0.5"/>
                </g>
                <g id="arrowLeft" xlink:href="#dirArrow" transform="rotate(270) translate(-36 17)" onmousedown="handlePan(-1,0)">
                  <use xlink:href="#rim" fill="#404040">
                        <set attributeName="fill" to="#808080" begin="arrowLeft.mouseover" end="arrowLeft.mouseout"/>
                  </use>
                  <path fill="none" stroke="white" stroke-width="1.5" d="M0,-3.0v7 M-2.5,-0.5L0,-3.0L2.5,-0.5"/>
                </g>
        </g>
        <svg viewBox="0 0 15 15" width="100%" height="30px" preserveAspectRatio="xMaxYMin meet">
         <g id="arrow_out" transform="scale(0.3 0.3)">
          <a xlink:href="PDSS__Water_8cpp__incl_org.svg" target="_base">
           <rect id="button" ry="5" rx="5" y="6" x="6" height="38" width="38"
                fill="#f2f5e9" fill-opacity="0.5" stroke="#606060" stroke-width="1.0"/>
           <path id="arrow"
             d="M 11.500037,31.436501 C 11.940474,20.09759 22.043105,11.32322 32.158766,21.979434 L 37.068811,17.246167 C 37.068811,17.246167 37.088388,32 37.088388,32 L 22.160133,31.978069 C 22.160133,31.978069 26.997745,27.140456 26.997745,27.140456 C 18.528582,18.264221 13.291696,25.230495 11.500037,31.436501 z"
             style="fill:#404040;"/>
          </a>
         </g>
        </svg>
</svg>
