<?xml version="1.0" encoding="UTF-8" standalone="no"?>
<!DOCTYPE svg PUBLIC "-//W3C//DTD SVG 1.1//EN"
 "http://www.w3.org/Graphics/SVG/1.1/DTD/svg11.dtd">
<!-- Generated by graphviz version 6.0.1 (0)
 -->
<!-- Title: ReactionRate.h Pages: 1 -->
<svg width="1067pt" height="302pt"
 viewBox="0.00 0.00 1066.50 302.00" xmlns="http://www.w3.org/2000/svg" xmlns:xlink="http://www.w3.org/1999/xlink">
<g id="graph0" class="graph" transform="scale(1 1) rotate(0) translate(4 298)">
<title>ReactionRate.h</title>
<!-- Node1 -->
<g id="Node000001" class="node">
<title>Node1</title>
<g id="a_Node000001"><a xlink:title=" ">
<polygon fill="#999999" stroke="#666666" points="484.5,-294 399.5,-294 399.5,-275 484.5,-275 484.5,-294"/>
<text text-anchor="middle" x="442" y="-282" font-family="Helvetica,sans-Serif" font-size="10.00">ReactionRate.h</text>
</a>
</g>
</g>
<!-- Node2 -->
<g id="Node000002" class="node">
<title>Node2</title>
<g id="a_Node000002"><a xlink:href="../../dd/d16/MultiRateBase_8h.html" target="_top" xlink:title=" ">
<polygon fill="white" stroke="#666666" points="404.5,-239 315.5,-239 315.5,-220 404.5,-220 404.5,-239"/>
<text text-anchor="middle" x="360" y="-227" font-family="Helvetica,sans-Serif" font-size="10.00">MultiRateBase.h</text>
</a>
</g>
</g>
<!-- Node1&#45;&gt;Node2 -->
<g id="edge1_Node000001_Node000002" class="edge">
<title>Node1&#45;&gt;Node2</title>
<g id="a_edge1_Node000001_Node000002"><a xlink:title=" ">
<path fill="none" stroke="#63b8ff" d="M428.83,-274.98C416.23,-266.84 397,-254.41 382.06,-244.76"/>
<polygon fill="#63b8ff" stroke="#63b8ff" points="383.71,-241.66 373.41,-239.17 379.91,-247.54 383.71,-241.66"/>
</a>
</g>
</g>
<!-- Node14 -->
<g id="Node000014" class="node">
<title>Node14</title>
<g id="a_Node000014"><a xlink:href="../../dd/d2a/AnyMap_8h.html" target="_top" xlink:title=" ">
<polygon fill="white" stroke="#666666" points="761,-239 641,-239 641,-220 761,-220 761,-239"/>
<text text-anchor="middle" x="701" y="-227" font-family="Helvetica,sans-Serif" font-size="10.00">cantera/base/AnyMap.h</text>
</a>
</g>
</g>
<!-- Node1&#45;&gt;Node14 -->
<g id="edge13_Node000001_Node000014" class="edge">
<title>Node1&#45;&gt;Node14</title>
<g id="a_edge13_Node000001_Node000014"><a xlink:title=" ">
<path fill="none" stroke="#63b8ff" d="M483.61,-274.98C528.6,-265.78 600.39,-251.09 649.05,-241.13"/>
<polygon fill="#63b8ff" stroke="#63b8ff" points="649.97,-244.52 659.06,-239.08 648.56,-237.66 649.97,-244.52"/>
</a>
</g>
</g>
<!-- Node15 -->
<g id="Node000015" class="node">
<title>Node15</title>
<g id="a_Node000015"><a xlink:href="../../db/d98/ctexceptions_8h.html" target="_top" xlink:title="Definitions for the classes that are thrown when Cantera experiences an error condition (also contain...">
<polygon fill="white" stroke="#666666" points="512,-184 372,-184 372,-165 512,-165 512,-184"/>
<text text-anchor="middle" x="442" y="-172" font-family="Helvetica,sans-Serif" font-size="10.00">cantera/base/ctexceptions.h</text>
</a>
</g>
</g>
<!-- Node1&#45;&gt;Node15 -->
<g id="edge34_Node000001_Node000015" class="edge">
<title>Node1&#45;&gt;Node15</title>
<g id="a_edge34_Node000001_Node000015"><a xlink:title=" ">
<path fill="none" stroke="#63b8ff" d="M442,-274.66C442,-257.17 442,-217.8 442,-194.27"/>
<polygon fill="#63b8ff" stroke="#63b8ff" points="445.5,-194.16 442,-184.16 438.5,-194.16 445.5,-194.16"/>
</a>
</g>
</g>
<!-- Node21 -->
<g id="Node000021" class="node">
<title>Node21</title>
<g id="a_Node000021"><a xlink:href="../../da/d58/Units_8h.html" target="_top" xlink:title="Header for unit conversion utilities, which are used to translate user input from input files (See In...">
<polygon fill="white" stroke="#666666" points="1058.5,-184 951.5,-184 951.5,-165 1058.5,-165 1058.5,-184"/>
<text text-anchor="middle" x="1005" y="-172" font-family="Helvetica,sans-Serif" font-size="10.00">cantera/base/Units.h</text>
</a>
</g>
</g>
<!-- Node1&#45;&gt;Node21 -->
<g id="edge30_Node000001_Node000021" class="edge">
<title>Node1&#45;&gt;Node21</title>
<g id="a_edge30_Node000001_Node000021"><a xlink:title=" ">
<path fill="none" stroke="#63b8ff" d="M484.75,-279.48C547.64,-273.16 668.61,-259.49 770,-239 840.86,-224.68 921.95,-201.15 967.96,-187.1"/>
<polygon fill="#63b8ff" stroke="#63b8ff" points="969.25,-190.37 977.78,-184.09 967.19,-183.68 969.25,-190.37"/>
</a>
</g>
</g>
<!-- Node26 -->
<g id="Node000026" class="node">
<title>Node26</title>
<g id="a_Node000026"><a xlink:href="../../d2/d49/global_8h.html" target="_top" xlink:title="This file contains definitions for utility functions and text for modules, inputfiles and logging,...">
<polygon fill="white" stroke="#666666" points="316,-184 206,-184 206,-165 316,-165 316,-184"/>
<text text-anchor="middle" x="261" y="-172" font-family="Helvetica,sans-Serif" font-size="10.00">cantera/base/global.h</text>
</a>
</g>
</g>
<!-- Node1&#45;&gt;Node26 -->
<g id="edge31_Node000001_Node000026" class="edge">
<title>Node1&#45;&gt;Node26</title>
<g id="a_edge31_Node000001_Node000026"><a xlink:title=" ">
<path fill="none" stroke="#63b8ff" d="M399.23,-276.75C370.69,-270.6 333.5,-259.27 306,-239 289.9,-227.13 277.37,-207.75 269.67,-193.52"/>
<polygon fill="#63b8ff" stroke="#63b8ff" points="272.59,-191.56 264.93,-184.24 266.36,-194.74 272.59,-191.56"/>
</a>
</g>
</g>
<!-- Node3 -->
<g id="Node000003" class="node">
<title>Node3</title>
<g id="a_Node000003"><a xlink:href="../../d9/ddc/ct__defs_8h.html" target="_top" xlink:title="This file contains definitions of constants, types and terms that are used in internal routines and a...">
<polygon fill="white" stroke="#666666" points="538,-74 422,-74 422,-55 538,-55 538,-74"/>
<text text-anchor="middle" x="480" y="-62" font-family="Helvetica,sans-Serif" font-size="10.00">cantera/base/ct_defs.h</text>
</a>
</g>
</g>
<!-- Node2&#45;&gt;Node3 -->
<g id="edge2_Node000002_Node000003" class="edge">
<title>Node2&#45;&gt;Node3</title>
<g id="a_edge2_Node000002_Node000003"><a xlink:title=" ">
<path fill="none" stroke="#63b8ff" d="M358.87,-219.71C356.62,-198.02 354.02,-141.43 383,-110 397.05,-94.76 417.35,-84.34 435.75,-77.44"/>
<polygon fill="#63b8ff" stroke="#63b8ff" points="437.15,-80.65 445.44,-74.05 434.85,-74.05 437.15,-80.65"/>
</a>
</g>
</g>
<!-- Node4 -->
<g id="Node000004" class="node">
<title>Node4</title>
<g id="a_Node000004"><a xlink:href="../../db/d16/config_8h_source.html" target="_top" xlink:title=" ">
<polygon fill="white" stroke="#666666" points="229.5,-19 178.5,-19 178.5,0 229.5,0 229.5,-19"/>
<text text-anchor="middle" x="204" y="-7" font-family="Helvetica,sans-Serif" font-size="10.00">config.h</text>
</a>
</g>
</g>
<!-- Node3&#45;&gt;Node4 -->
<g id="edge3_Node000003_Node000004" class="edge">
<title>Node3&#45;&gt;Node4</title>
<g id="a_edge3_Node000003_Node000004"><a xlink:title=" ">
<path fill="none" stroke="#63b8ff" d="M429.06,-54.94C382.37,-46.91 311.09,-34.16 239.65,-19.04"/>
<polygon fill="#63b8ff" stroke="#63b8ff" points="240.09,-15.55 229.58,-16.89 238.63,-22.39 240.09,-15.55"/>
</a>
</g>
</g>
<!-- Node5 -->
<g id="Node000005" class="node">
<title>Node5</title>
<g id="a_Node000005"><a xlink:title=" ">
<polygon fill="#e0e0e0" stroke="#999999" points="292,-19 248,-19 248,0 292,0 292,-19"/>
<text text-anchor="middle" x="270" y="-7" font-family="Helvetica,sans-Serif" font-size="10.00">cmath</text>
</a>
</g>
</g>
<!-- Node3&#45;&gt;Node5 -->
<g id="edge4_Node000003_Node000005" class="edge">
<title>Node3&#45;&gt;Node5</title>
<g id="a_edge4_Node000003_Node000005"><a xlink:title=" ">
<path fill="none" stroke="#63b8ff" d="M444.61,-54.97C410.51,-46.69 357.2,-33.59 302.25,-19.28"/>
<polygon fill="#63b8ff" stroke="#63b8ff" points="302.89,-15.83 292.33,-16.69 301.12,-22.61 302.89,-15.83"/>
</a>
</g>
</g>
<!-- Node6 -->
<g id="Node000006" class="node">
<title>Node6</title>
<g id="a_Node000006"><a xlink:title=" ">
<polygon fill="#e0e0e0" stroke="#999999" points="355.5,-19 310.5,-19 310.5,0 355.5,0 355.5,-19"/>
<text text-anchor="middle" x="333" y="-7" font-family="Helvetica,sans-Serif" font-size="10.00">cstdlib</text>
</a>
</g>
</g>
<!-- Node3&#45;&gt;Node6 -->
<g id="edge5_Node000003_Node000006" class="edge">
<title>Node3&#45;&gt;Node6</title>
<g id="a_edge5_Node000003_Node000006"><a xlink:title=" ">
<path fill="none" stroke="#63b8ff" d="M456.38,-54.98C431.66,-46.07 392.69,-32.02 365.17,-22.1"/>
<polygon fill="#63b8ff" stroke="#63b8ff" points="366.19,-18.75 355.59,-18.65 363.81,-25.33 366.19,-18.75"/>
</a>
</g>
</g>
<!-- Node7 -->
<g id="Node000007" class="node">
<title>Node7</title>
<g id="a_Node000007"><a xlink:title=" ">
<polygon fill="#e0e0e0" stroke="#999999" points="418,-19 374,-19 374,0 418,0 418,-19"/>
<text text-anchor="middle" x="396" y="-7" font-family="Helvetica,sans-Serif" font-size="10.00">vector</text>
</a>
</g>
</g>
<!-- Node3&#45;&gt;Node7 -->
<g id="edge6_Node000003_Node000007" class="edge">
<title>Node3&#45;&gt;Node7</title>
<g id="a_edge6_Node000003_Node000007"><a xlink:title=" ">
<path fill="none" stroke="#63b8ff" d="M466.5,-54.98C453.6,-46.84 433.9,-34.41 418.6,-24.76"/>
<polygon fill="#63b8ff" stroke="#63b8ff" points="420.07,-21.55 409.74,-19.17 416.33,-27.47 420.07,-21.55"/>
</a>
</g>
</g>
<!-- Node8 -->
<g id="Node000008" class="node">
<title>Node8</title>
<g id="a_Node000008"><a xlink:title=" ">
<polygon fill="#e0e0e0" stroke="#999999" points="471.5,-19 436.5,-19 436.5,0 471.5,0 471.5,-19"/>
<text text-anchor="middle" x="454" y="-7" font-family="Helvetica,sans-Serif" font-size="10.00">map</text>
</a>
</g>
</g>
<!-- Node3&#45;&gt;Node8 -->
<g id="edge7_Node000003_Node000008" class="edge">
<title>Node3&#45;&gt;Node8</title>
<g id="a_edge7_Node000003_Node000008"><a xlink:title=" ">
<path fill="none" stroke="#63b8ff" d="M475.71,-54.75C472.19,-47.57 467.09,-37.18 462.72,-28.27"/>
<polygon fill="#63b8ff" stroke="#63b8ff" points="465.76,-26.53 458.21,-19.09 459.48,-29.61 465.76,-26.53"/>
</a>
</g>
</g>
<!-- Node9 -->
<g id="Node000009" class="node">
<title>Node9</title>
<g id="a_Node000009"><a xlink:title=" ">
<polygon fill="#e0e0e0" stroke="#999999" points="520,-19 490,-19 490,0 520,0 520,-19"/>
<text text-anchor="middle" x="505" y="-7" font-family="Helvetica,sans-Serif" font-size="10.00">set</text>
</a>
</g>
</g>
<!-- Node3&#45;&gt;Node9 -->
<g id="edge8_Node000003_Node000009" class="edge">
<title>Node3&#45;&gt;Node9</title>
<g id="a_edge8_Node000003_Node000009"><a xlink:title=" ">
<path fill="none" stroke="#63b8ff" d="M484.13,-54.75C487.51,-47.57 492.42,-37.18 496.62,-28.27"/>
<polygon fill="#63b8ff" stroke="#63b8ff" points="499.85,-29.63 500.95,-19.09 493.52,-26.64 499.85,-29.63"/>
</a>
</g>
</g>
<!-- Node10 -->
<g id="Node000010" class="node">
<title>Node10</title>
<g id="a_Node000010"><a xlink:title=" ">
<polygon fill="#e0e0e0" stroke="#999999" points="579.5,-19 538.5,-19 538.5,0 579.5,0 579.5,-19"/>
<text text-anchor="middle" x="559" y="-7" font-family="Helvetica,sans-Serif" font-size="10.00">string</text>
</a>
</g>
</g>
<!-- Node3&#45;&gt;Node10 -->
<g id="edge9_Node000003_Node000010" class="edge">
<title>Node3&#45;&gt;Node10</title>
<g id="a_edge9_Node000003_Node000010"><a xlink:title=" ">
<path fill="none" stroke="#63b8ff" d="M492.69,-54.98C504.83,-46.84 523.36,-34.41 537.75,-24.76"/>
<polygon fill="#63b8ff" stroke="#63b8ff" points="539.72,-27.65 546.08,-19.17 535.82,-21.84 539.72,-27.65"/>
</a>
</g>
</g>
<!-- Node11 -->
<g id="Node000011" class="node">
<title>Node11</title>
<g id="a_Node000011"><a xlink:title=" ">
<polygon fill="#e0e0e0" stroke="#999999" points="654,-19 598,-19 598,0 654,0 654,-19"/>
<text text-anchor="middle" x="626" y="-7" font-family="Helvetica,sans-Serif" font-size="10.00">algorithm</text>
</a>
</g>
</g>
<!-- Node3&#45;&gt;Node11 -->
<g id="edge10_Node000003_Node000011" class="edge">
<title>Node3&#45;&gt;Node11</title>
<g id="a_edge10_Node000003_Node000011"><a xlink:title=" ">
<path fill="none" stroke="#63b8ff" d="M503.46,-54.98C527.58,-46.23 565.37,-32.51 592.6,-22.62"/>
<polygon fill="#63b8ff" stroke="#63b8ff" points="593.91,-25.87 602.12,-19.17 591.52,-19.29 593.91,-25.87"/>
</a>
</g>
</g>
<!-- Node12 -->
<g id="Node000012" class="node">
<title>Node12</title>
<g id="a_Node000012"><a xlink:title=" ">
<polygon fill="#e0e0e0" stroke="#999999" points="724,-19 672,-19 672,0 724,0 724,-19"/>
<text text-anchor="middle" x="698" y="-7" font-family="Helvetica,sans-Serif" font-size="10.00">memory</text>
</a>
</g>
</g>
<!-- Node3&#45;&gt;Node12 -->
<g id="edge11_Node000003_Node000012" class="edge">
<title>Node3&#45;&gt;Node12</title>
<g id="a_edge11_Node000003_Node000012"><a xlink:title=" ">
<path fill="none" stroke="#63b8ff" d="M515.03,-54.98C555.41,-45.17 621.46,-29.11 662.18,-19.21"/>
<polygon fill="#63b8ff" stroke="#63b8ff" points="663.06,-22.6 671.95,-16.83 661.41,-15.79 663.06,-22.6"/>
</a>
</g>
</g>
<!-- Node13 -->
<g id="Node000013" class="node">
<title>Node13</title>
<g id="a_Node000013"><a xlink:title=" ">
<polygon fill="#e0e0e0" stroke="#999999" points="801.5,-19 742.5,-19 742.5,0 801.5,0 801.5,-19"/>
<text text-anchor="middle" x="772" y="-7" font-family="Helvetica,sans-Serif" font-size="10.00">functional</text>
</a>
</g>
</g>
<!-- Node3&#45;&gt;Node13 -->
<g id="edge12_Node000003_Node000013" class="edge">
<title>Node3&#45;&gt;Node13</title>
<g id="a_edge12_Node000003_Node000013"><a xlink:title=" ">
<path fill="none" stroke="#63b8ff" d="M531.96,-54.99C580.98,-46.82 656.78,-33.83 732.08,-19.11"/>
<polygon fill="#63b8ff" stroke="#63b8ff" points="733.08,-22.48 742.22,-17.12 731.73,-15.62 733.08,-22.48"/>
</a>
</g>
</g>
<!-- Node14&#45;&gt;Node3 -->
<g id="edge14_Node000014_Node000003" class="edge">
<title>Node14&#45;&gt;Node3</title>
<g id="a_edge14_Node000014_Node000003"><a xlink:title=" ">
<path fill="none" stroke="#63b8ff" d="M690.69,-219.86C675.78,-207.42 647.19,-183.91 622,-165 580.05,-133.49 529.4,-98.77 501.34,-79.81"/>
<polygon fill="#63b8ff" stroke="#63b8ff" points="502.98,-76.7 492.74,-74.01 499.07,-82.5 502.98,-76.7"/>
</a>
</g>
</g>
<!-- Node14&#45;&gt;Node15 -->
<g id="edge15_Node000014_Node000015" class="edge">
<title>Node14&#45;&gt;Node15</title>
<g id="a_edge15_Node000014_Node000015"><a xlink:title=" ">
<path fill="none" stroke="#63b8ff" d="M659.39,-219.98C614.4,-210.78 542.61,-196.09 493.95,-186.13"/>
<polygon fill="#63b8ff" stroke="#63b8ff" points="494.44,-182.66 483.94,-184.08 493.03,-189.52 494.44,-182.66"/>
</a>
</g>
</g>
<!-- Node14&#45;&gt;Node21 -->
<g id="edge23_Node000014_Node000021" class="edge">
<title>Node14&#45;&gt;Node21</title>
<g id="a_edge23_Node000014_Node000021"><a xlink:title=" ">
<path fill="none" stroke="#63b8ff" d="M749.84,-219.98C803.28,-210.67 888.92,-195.74 946.06,-185.78"/>
<polygon fill="#63b8ff" stroke="#63b8ff" points="946.78,-189.2 956.03,-184.04 945.57,-182.31 946.78,-189.2"/>
</a>
</g>
</g>
<!-- Node22 -->
<g id="Node000022" class="node">
<title>Node22</title>
<g id="a_Node000022"><a xlink:title=" ">
<polygon fill="#e0e0e0" stroke="#999999" points="613.5,-184 530.5,-184 530.5,-165 613.5,-165 613.5,-184"/>
<text text-anchor="middle" x="572" y="-172" font-family="Helvetica,sans-Serif" font-size="10.00">unordered_map</text>
</a>
</g>
</g>
<!-- Node14&#45;&gt;Node22 -->
<g id="edge25_Node000014_Node000022" class="edge">
<title>Node14&#45;&gt;Node22</title>
<g id="a_edge25_Node000014_Node000022"><a xlink:title=" ">
<path fill="none" stroke="#63b8ff" d="M680.27,-219.98C659.24,-211.34 626.45,-197.87 602.46,-188.02"/>
<polygon fill="#63b8ff" stroke="#63b8ff" points="603.68,-184.73 593.1,-184.17 601.02,-191.21 603.68,-184.73"/>
</a>
</g>
</g>
<!-- Node23 -->
<g id="Node000023" class="node">
<title>Node23</title>
<g id="a_Node000023"><a xlink:title=" ">
<polygon fill="#e0e0e0" stroke="#999999" points="732,-184 670,-184 670,-165 732,-165 732,-184"/>
<text text-anchor="middle" x="701" y="-172" font-family="Helvetica,sans-Serif" font-size="10.00">filesystem</text>
</a>
</g>
</g>
<!-- Node14&#45;&gt;Node23 -->
<g id="edge26_Node000014_Node000023" class="edge">
<title>Node14&#45;&gt;Node23</title>
<g id="a_edge26_Node000014_Node000023"><a xlink:title=" ">
<path fill="none" stroke="#63b8ff" d="M701,-219.75C701,-212.8 701,-202.85 701,-194.13"/>
<polygon fill="#63b8ff" stroke="#63b8ff" points="704.5,-194.09 701,-184.09 697.5,-194.09 704.5,-194.09"/>
</a>
</g>
</g>
<!-- Node24 -->
<g id="Node000024" class="node">
<title>Node24</title>
<g id="a_Node000024"><a xlink:title=" ">
<polygon fill="#e0e0e0" stroke="#999999" points="782,-184 750,-184 750,-165 782,-165 782,-184"/>
<text text-anchor="middle" x="766" y="-172" font-family="Helvetica,sans-Serif" font-size="10.00">any</text>
</a>
</g>
</g>
<!-- Node14&#45;&gt;Node24 -->
<g id="edge27_Node000014_Node000024" class="edge">
<title>Node14&#45;&gt;Node24</title>
<g id="a_edge27_Node000014_Node000024"><a xlink:title=" ">
<path fill="none" stroke="#63b8ff" d="M711.44,-219.98C721.15,-212.07 735.82,-200.11 747.5,-190.58"/>
<polygon fill="#63b8ff" stroke="#63b8ff" points="749.83,-193.2 755.37,-184.17 745.4,-187.78 749.83,-193.2"/>
</a>
</g>
</g>
<!-- Node25 -->
<g id="Node000025" class="node">
<title>Node25</title>
<g id="a_Node000025"><a xlink:href="../../da/d4c/AnyMap_8inl_8h.html" target="_top" xlink:title=" ">
<polygon fill="white" stroke="#666666" points="933.5,-184 800.5,-184 800.5,-165 933.5,-165 933.5,-184"/>
<text text-anchor="middle" x="867" y="-172" font-family="Helvetica,sans-Serif" font-size="10.00">cantera/base/AnyMap.inl.h</text>
</a>
</g>
</g>
<!-- Node14&#45;&gt;Node25 -->
<g id="edge28_Node000014_Node000025" class="edge">
<title>Node14&#45;&gt;Node25</title>
<g id="a_edge28_Node000014_Node000025"><a xlink:title=" ">
<path fill="none" stroke="#63b8ff" d="M722.56,-219.98C748.57,-211.05 792.56,-196.94 825.24,-187.02"/>
<polygon fill="#63b8ff" stroke="#63b8ff" points="826.43,-190.32 834.99,-184.08 824.41,-183.61 826.43,-190.32"/>
</a>
</g>
</g>
<!-- Node15&#45;&gt;Node3 -->
<g id="edge16_Node000015_Node000003" class="edge">
<title>Node15&#45;&gt;Node3</title>
<g id="a_edge16_Node000015_Node000003"><a xlink:title=" ">
<path fill="none" stroke="#63b8ff" d="M445.79,-164.71C449.59,-155.79 455.49,-141.55 460,-129 465.38,-114.02 470.76,-96.79 474.58,-84.06"/>
<polygon fill="#63b8ff" stroke="#63b8ff" points="478.01,-84.78 477.5,-74.2 471.3,-82.79 478.01,-84.78"/>
</a>
</g>
</g>
<!-- Node16 -->
<g id="Node000016" class="node">
<title>Node16</title>
<g id="a_Node000016"><a xlink:href="../../db/def/fmt_8h.html" target="_top" xlink:title="Wrapper for either system&#45;installed or local headers for fmt.">
<polygon fill="white" stroke="#666666" points="278,-129 180,-129 180,-110 278,-110 278,-129"/>
<text text-anchor="middle" x="229" y="-117" font-family="Helvetica,sans-Serif" font-size="10.00">cantera/base/fmt.h</text>
</a>
</g>
</g>
<!-- Node15&#45;&gt;Node16 -->
<g id="edge17_Node000015_Node000016" class="edge">
<title>Node15&#45;&gt;Node16</title>
<g id="a_edge17_Node000015_Node000016"><a xlink:title=" ">
<path fill="none" stroke="#63b8ff" d="M407.78,-164.98C371.24,-155.89 313.22,-141.46 273.24,-131.51"/>
<polygon fill="#63b8ff" stroke="#63b8ff" points="274.04,-128.1 263.49,-129.08 272.35,-134.89 274.04,-128.1"/>
</a>
</g>
</g>
<!-- Node20 -->
<g id="Node000020" class="node">
<title>Node20</title>
<g id="a_Node000020"><a xlink:title=" ">
<polygon fill="#e0e0e0" stroke="#999999" points="451.5,-129 392.5,-129 392.5,-110 451.5,-110 451.5,-129"/>
<text text-anchor="middle" x="422" y="-117" font-family="Helvetica,sans-Serif" font-size="10.00">exception</text>
</a>
</g>
</g>
<!-- Node15&#45;&gt;Node20 -->
<g id="edge22_Node000015_Node000020" class="edge">
<title>Node15&#45;&gt;Node20</title>
<g id="a_edge22_Node000015_Node000020"><a xlink:title=" ">
<path fill="none" stroke="#63b8ff" d="M438.7,-164.75C436.02,-157.65 432.15,-147.4 428.81,-138.56"/>
<polygon fill="#63b8ff" stroke="#63b8ff" points="432.05,-137.21 425.24,-129.09 425.5,-139.68 432.05,-137.21"/>
</a>
</g>
</g>
<!-- Node16&#45;&gt;Node3 -->
<g id="edge18_Node000016_Node000003" class="edge">
<title>Node16&#45;&gt;Node3</title>
<g id="a_edge18_Node000016_Node000003"><a xlink:title=" ">
<path fill="none" stroke="#63b8ff" d="M269.33,-109.98C312.84,-100.8 382.2,-86.15 429.35,-76.19"/>
<polygon fill="#63b8ff" stroke="#63b8ff" points="430.3,-79.57 439.36,-74.08 428.85,-72.72 430.3,-79.57"/>
</a>
</g>
</g>
<!-- Node17 -->
<g id="Node000017" class="node">
<title>Node17</title>
<g id="a_Node000017"><a xlink:title=" ">
<polygon fill="#e0e0e0" stroke="#999999" points="122,-74 0,-74 0,-55 122,-55 122,-74"/>
<text text-anchor="middle" x="61" y="-62" font-family="Helvetica,sans-Serif" font-size="10.00">cantera/ext/fmt/format.h</text>
</a>
</g>
</g>
<!-- Node16&#45;&gt;Node17 -->
<g id="edge19_Node000016_Node000017" class="edge">
<title>Node16&#45;&gt;Node17</title>
<g id="a_edge19_Node000016_Node000017"><a xlink:title=" ">
<path fill="none" stroke="#63b8ff" d="M202.01,-109.98C173.8,-101.09 129.36,-87.07 97.92,-77.15"/>
<polygon fill="#63b8ff" stroke="#63b8ff" points="98.79,-73.75 88.2,-74.08 96.69,-80.43 98.79,-73.75"/>
</a>
</g>
</g>
<!-- Node18 -->
<g id="Node000018" class="node">
<title>Node18</title>
<g id="a_Node000018"><a xlink:title=" ">
<polygon fill="#e0e0e0" stroke="#999999" points="256,-74 140,-74 140,-55 256,-55 256,-74"/>
<text text-anchor="middle" x="198" y="-62" font-family="Helvetica,sans-Serif" font-size="10.00">cantera/ext/fmt/printf.h</text>
</a>
</g>
</g>
<!-- Node16&#45;&gt;Node18 -->
<g id="edge20_Node000016_Node000018" class="edge">
<title>Node16&#45;&gt;Node18</title>
<g id="a_edge20_Node000016_Node000018"><a xlink:title=" ">
<path fill="none" stroke="#63b8ff" d="M223.88,-109.75C219.64,-102.49 213.47,-91.95 208.22,-82.98"/>
<polygon fill="#63b8ff" stroke="#63b8ff" points="211.09,-80.95 203.02,-74.09 205.05,-84.49 211.09,-80.95"/>
</a>
</g>
</g>
<!-- Node19 -->
<g id="Node000019" class="node">
<title>Node19</title>
<g id="a_Node000019"><a xlink:title=" ">
<polygon fill="#e0e0e0" stroke="#999999" points="403.5,-74 274.5,-74 274.5,-55 403.5,-55 403.5,-74"/>
<text text-anchor="middle" x="339" y="-62" font-family="Helvetica,sans-Serif" font-size="10.00">cantera/ext/fmt/ostream.h</text>
</a>
</g>
</g>
<!-- Node16&#45;&gt;Node19 -->
<g id="edge21_Node000016_Node000019" class="edge">
<title>Node16&#45;&gt;Node19</title>
<g id="a_edge21_Node000016_Node000019"><a xlink:title=" ">
<path fill="none" stroke="#63b8ff" d="M246.67,-109.98C264.29,-101.5 291.58,-88.35 311.93,-78.54"/>
<polygon fill="#63b8ff" stroke="#63b8ff" points="313.52,-81.66 321.01,-74.17 310.48,-75.36 313.52,-81.66"/>
</a>
</g>
</g>
<!-- Node21&#45;&gt;Node3 -->
<g id="edge24_Node000021_Node000003" class="edge">
<title>Node21&#45;&gt;Node3</title>
<g id="a_edge24_Node000021_Node000003"><a xlink:title=" ">
<path fill="none" stroke="#63b8ff" d="M963.37,-164.94C868.31,-145.38 635.52,-97.49 531.58,-76.11"/>
<polygon fill="#63b8ff" stroke="#63b8ff" points="532.14,-72.65 521.64,-74.07 530.73,-79.51 532.14,-72.65"/>
</a>
</g>
</g>
<!-- Node25&#45;&gt;Node14 -->
<g id="edge29_Node000025_Node000014" class="edge">
<title>Node25&#45;&gt;Node14</title>
<g id="a_edge29_Node000025_Node000014"><a xlink:title=" ">
<path fill="none" stroke="#63b8ff" d="M845.25,-184.08C819.14,-193.04 775.14,-207.15 742.51,-217.06"/>
<polygon fill="#63b8ff" stroke="#63b8ff" points="741.35,-213.75 732.79,-219.98 743.37,-220.45 741.35,-213.75"/>
</a>
</g>
</g>
<!-- Node26&#45;&gt;Node3 -->
<g id="edge32_Node000026_Node000003" class="edge">
<title>Node26&#45;&gt;Node3</title>
<g id="a_edge32_Node000026_Node000003"><a xlink:title=" ">
<path fill="none" stroke="#63b8ff" d="M268.12,-164.76C279.7,-151.12 303.95,-124.78 330,-110 358.21,-93.99 392.74,-83.23 421.56,-76.31"/>
<polygon fill="#63b8ff" stroke="#63b8ff" points="422.54,-79.68 431.5,-74.02 420.97,-72.86 422.54,-79.68"/>
</a>
</g>
</g>
<!-- Node26&#45;&gt;Node16 -->
<g id="edge33_Node000026_Node000016" class="edge">
<title>Node26&#45;&gt;Node16</title>
<g id="a_edge33_Node000026_Node000016"><a xlink:title=" ">
<path fill="none" stroke="#63b8ff" d="M255.72,-164.75C251.29,-157.42 244.84,-146.73 239.38,-137.7"/>
<polygon fill="#63b8ff" stroke="#63b8ff" points="242.35,-135.84 234.19,-129.09 236.36,-139.46 242.35,-135.84"/>
</a>
</g>
</g>
</g>
</svg>
