<?xml version="1.0" encoding="UTF-8" standalone="no"?>
<!DOCTYPE svg PUBLIC "-//W3C//DTD SVG 1.1//EN"
 "http://www.w3.org/Graphics/SVG/1.1/DTD/svg11.dtd">
<!-- Generated by graphviz version 6.0.1 (0)
 -->
<!-- Title: Errors and Diagnostics Pages: 1 -->
<svg width="317pt" height="138pt"
 viewBox="0.00 0.00 317.00 138.00" xmlns="http://www.w3.org/2000/svg" xmlns:xlink="http://www.w3.org/1999/xlink">
<g id="graph0" class="graph" transform="scale(1 1) rotate(0) translate(4 134)">
<title>Errors and Diagnostics</title>
<!-- Node1 -->
<g id="Node000001" class="node">
<title>Node1</title>
<g id="a_Node000001"><a xlink:title=" ">
<polygon fill="#999999" stroke="#666666" points="116,-74 0,-74 0,-55 116,-55 116,-74"/>
<text text-anchor="middle" x="58" y="-62" font-family="Helvetica,sans-Serif" font-size="10.00">Errors and Diagnostics</text>
</a>
</g>
</g>
<!-- Node2 -->
<g id="Node000002" class="node">
<title>Node2</title>
<g id="a_Node000002"><a xlink:href="../../d3/df8/group__errGroup.html" target="_top" xlink:title="Handling of errors and unknown events within Cantera.">
<polygon fill="white" stroke="#666666" points="296.5,-130 253.5,-130 253.5,-111 296.5,-111 296.5,-130"/>
<text text-anchor="middle" x="275" y="-118" font-family="Helvetica,sans-Serif" font-size="10.00">Errors</text>
</a>
</g>
</g>
<!-- Node1&#45;&gt;Node2 -->
<g id="edge1" class="edge">
<title>Node1&#45;&gt;Node2</title>
<path fill="none" stroke="black" d="M90.26,-78.02C103.56,-83.4 119.35,-89.29 134,-93.5 175.63,-105.46 225.77,-113.69 253.33,-117.69"/>
<polygon fill="black" stroke="black" points="91.21,-74.63 80.64,-74.05 88.54,-81.1 91.21,-74.63"/>
</g>
<!-- Node5 -->
<g id="Node000005" class="node">
<title>Node5</title>
<g id="a_Node000005"><a xlink:href="../../da/d7c/group__globalData.html" target="_top" xlink:title="Global data are available anywhere.">
<polygon fill="white" stroke="#666666" points="309,-93 241,-93 241,-74 309,-74 309,-93"/>
<text text-anchor="middle" x="275" y="-81" font-family="Helvetica,sans-Serif" font-size="10.00">Global Data</text>
</a>
</g>
</g>
<!-- Node1&#45;&gt;Node5 -->
<g id="edge4" class="edge">
<title>Node1&#45;&gt;Node5</title>
<path fill="none" stroke="orange" stroke-dasharray="5,2" d="M116.05,-69.54C155.86,-73.06 207.61,-77.63 240.82,-80.57"/>
<text text-anchor="middle" x="178.5" y="-81.5" font-family="Helvetica,sans-Serif" font-size="10.00">Cantera::Application</text>
</g>
<!-- Node3 -->
<g id="Node000003" class="node">
<title>Node3</title>
<g id="a_Node000003"><a xlink:href="../../da/d8c/group__logGroup.html" target="_top" xlink:title="Logging and generation of diagnostic output.">
<polygon fill="white" stroke="#666666" points="300,-56 250,-56 250,-37 300,-37 300,-56"/>
<text text-anchor="middle" x="275" y="-44" font-family="Helvetica,sans-Serif" font-size="10.00">Logging</text>
</a>
</g>
</g>
<!-- Node1&#45;&gt;Node3 -->
<g id="edge2" class="edge">
<title>Node1&#45;&gt;Node3</title>
<path fill="none" stroke="black" d="M126.26,-58.87C168.41,-55.34 220.2,-51 249.92,-48.52"/>
<polygon fill="black" stroke="black" points="125.72,-55.4 116.05,-59.72 126.31,-62.38 125.72,-55.4"/>
</g>
<!-- Node4 -->
<g id="Node000004" class="node">
<title>Node4</title>
<g id="a_Node000004"><a xlink:href="../../da/d13/group__warnGroup.html" target="_top" xlink:title="Warnings raised by Cantera.">
<polygon fill="white" stroke="#666666" points="303.5,-19 246.5,-19 246.5,0 303.5,0 303.5,-19"/>
<text text-anchor="middle" x="275" y="-7" font-family="Helvetica,sans-Serif" font-size="10.00">Warnings</text>
</a>
</g>
</g>
<!-- Node1&#45;&gt;Node4 -->
<g id="edge3" class="edge">
<title>Node1&#45;&gt;Node4</title>
<path fill="none" stroke="black" d="M106.37,-52.38C149.21,-41.42 210.84,-25.66 246.2,-16.61"/>
<polygon fill="black" stroke="black" points="105.27,-49.05 96.45,-54.92 107.01,-55.83 105.27,-49.05"/>
</g>
</g>
</svg>
