<?xml version="1.0" encoding="UTF-8" standalone="no"?>
<!DOCTYPE svg PUBLIC "-//W3C//DTD SVG 1.1//EN"
 "http://www.w3.org/Graphics/SVG/1.1/DTD/svg11.dtd">
<!-- Generated by graphviz version 2.43.0 (0)
 -->
<!-- Title: MultiPhase.h Pages: 1 -->
<svg width="791pt" height="137pt"
 viewBox="0.00 0.00 791.00 137.00" xmlns="http://www.w3.org/2000/svg" xmlns:xlink="http://www.w3.org/1999/xlink">
<g id="graph0" class="graph" transform="scale(1 1) rotate(0) translate(4 133)">
<title>MultiPhase.h</title>
<!-- Node1 -->
<g id="Node000001" class="node">
<title>Node1</title>
<g id="a_Node000001"><a xlink:title="Headers for the MultiPhase object that is used to set up multiphase equilibrium problems (see Chemica...">
<polygon fill="#999999" stroke="#666666" points="423.5,-129 343.5,-129 343.5,-110 423.5,-110 423.5,-129"/>
<text text-anchor="middle" x="383.5" y="-117" font-family="Helvetica,sans-Serif" font-size="10.00">MultiPhase.h</text>
</a>
</g>
</g>
<!-- Node2 -->
<g id="Node000002" class="node">
<title>Node2</title>
<g id="a_Node000002"><a xlink:href="../../dc/d89/BasisOptimize_8cpp.html" target="_top" xlink:title="Functions which calculation optimized basis of the stoichiometric coefficient matrix (see /ref equil ...">
<polygon fill="white" stroke="#666666" points="107,-74 0,-74 0,-55 107,-55 107,-74"/>
<text text-anchor="middle" x="53.5" y="-62" font-family="Helvetica,sans-Serif" font-size="10.00">BasisOptimize.cpp</text>
</a>
</g>
</g>
<!-- Node1&#45;&gt;Node2 -->
<g id="edge1_Node000001_Node000002" class="edge">
<title>Node1&#45;&gt;Node2</title>
<g id="a_edge1_Node000001_Node000002"><a xlink:title=" ">
<path fill="none" stroke="#63b8ff" d="M333.18,-110.42C271.99,-100.59 169.16,-84.08 106.7,-74.04"/>
<polygon fill="#63b8ff" stroke="#63b8ff" points="332.94,-113.92 343.37,-112.05 334.05,-107.01 332.94,-113.92"/>
</a>
</g>
</g>
<!-- Node3 -->
<g id="Node000003" class="node">
<title>Node3</title>
<g id="a_Node000003"><a xlink:href="../../df/d2b/MultiPhase_8cpp.html" target="_top" xlink:title="Definitions for the MultiPhase object that is used to set up multiphase equilibrium problems (see Che...">
<polygon fill="white" stroke="#666666" points="344,-19 253,-19 253,0 344,0 344,-19"/>
<text text-anchor="middle" x="298.5" y="-7" font-family="Helvetica,sans-Serif" font-size="10.00">MultiPhase.cpp</text>
</a>
</g>
</g>
<!-- Node1&#45;&gt;Node3 -->
<g id="edge2_Node000001_Node000003" class="edge">
<title>Node1&#45;&gt;Node3</title>
<g id="a_edge2_Node000001_Node000003"><a xlink:title=" ">
<path fill="none" stroke="#63b8ff" d="M333.46,-110.36C312.16,-104.15 289.32,-93.22 276.5,-74 264.84,-56.53 280.46,-32.23 290.75,-19.35"/>
<polygon fill="#63b8ff" stroke="#63b8ff" points="332.86,-113.82 343.42,-112.97 334.63,-107.05 332.86,-113.82"/>
</a>
</g>
</g>
<!-- Node4 -->
<g id="Node000004" class="node">
<title>Node4</title>
<g id="a_Node000004"><a xlink:href="../../d1/d66/MultiPhaseEquil_8h.html" target="_top" xlink:title=" ">
<polygon fill="white" stroke="#666666" points="229.5,-74 125.5,-74 125.5,-55 229.5,-55 229.5,-74"/>
<text text-anchor="middle" x="177.5" y="-62" font-family="Helvetica,sans-Serif" font-size="10.00">MultiPhaseEquil.h</text>
</a>
</g>
</g>
<!-- Node1&#45;&gt;Node4 -->
<g id="edge3_Node000001_Node000004" class="edge">
<title>Node1&#45;&gt;Node4</title>
<g id="a_edge3_Node000001_Node000004"><a xlink:title=" ">
<path fill="none" stroke="#63b8ff" d="M340.5,-107.44C301.94,-97.52 246.14,-83.16 210.86,-74.08"/>
<polygon fill="#63b8ff" stroke="#63b8ff" points="339.85,-110.88 350.4,-109.98 341.59,-104.1 339.85,-110.88"/>
</a>
</g>
</g>
<!-- Node7 -->
<g id="Node000007" class="node">
<title>Node7</title>
<g id="a_Node000007"><a xlink:href="../../df/d7e/ThermoPhase_8cpp.html" target="_top" xlink:title="Definition file for class ThermoPhase, the base class for phases with thermodynamic properties (see c...">
<polygon fill="white" stroke="#666666" points="389.5,-74 285.5,-74 285.5,-55 389.5,-55 389.5,-74"/>
<text text-anchor="middle" x="337.5" y="-62" font-family="Helvetica,sans-Serif" font-size="10.00">ThermoPhase.cpp</text>
</a>
</g>
</g>
<!-- Node1&#45;&gt;Node7 -->
<g id="edge7_Node000001_Node000007" class="edge">
<title>Node1&#45;&gt;Node7</title>
<g id="a_edge7_Node000001_Node000007"><a xlink:title=" ">
<path fill="none" stroke="#63b8ff" d="M369.14,-101.96C361.13,-92.72 351.47,-81.6 344.95,-74.09"/>
<polygon fill="#63b8ff" stroke="#63b8ff" points="366.71,-104.49 375.9,-109.75 371.99,-99.9 366.71,-104.49"/>
</a>
</g>
</g>
<!-- Node8 -->
<g id="Node000008" class="node">
<title>Node8</title>
<g id="a_Node000008"><a xlink:href="../../d4/d71/ct_8cpp.html" target="_top" xlink:title="CT &#45; Generated CLib Cantera interface library.">
<polygon fill="white" stroke="#666666" points="453.5,-74 407.5,-74 407.5,-55 453.5,-55 453.5,-74"/>
<text text-anchor="middle" x="430.5" y="-62" font-family="Helvetica,sans-Serif" font-size="10.00">ct.cpp</text>
</a>
</g>
</g>
<!-- Node1&#45;&gt;Node8 -->
<g id="edge8_Node000001_Node000008" class="edge">
<title>Node1&#45;&gt;Node8</title>
<g id="a_edge8_Node000001_Node000008"><a xlink:title=" ">
<path fill="none" stroke="#63b8ff" d="M397.92,-102.24C406.16,-92.95 416.15,-81.68 422.88,-74.09"/>
<polygon fill="#63b8ff" stroke="#63b8ff" points="395.28,-99.94 391.26,-109.75 400.51,-104.59 395.28,-99.94"/>
</a>
</g>
</g>
<!-- Node9 -->
<g id="Node000009" class="node">
<title>Node9</title>
<g id="a_Node000009"><a xlink:href="../../d4/d41/ctmix_8cpp.html" target="_top" xlink:title="CTMIX &#45; Generated CLib Cantera interface library.">
<polygon fill="white" stroke="#666666" points="537,-74 472,-74 472,-55 537,-55 537,-74"/>
<text text-anchor="middle" x="504.5" y="-62" font-family="Helvetica,sans-Serif" font-size="10.00">ctmix.cpp</text>
</a>
</g>
</g>
<!-- Node1&#45;&gt;Node9 -->
<g id="edge9_Node000001_Node000009" class="edge">
<title>Node1&#45;&gt;Node9</title>
<g id="a_edge9_Node000001_Node000009"><a xlink:title=" ">
<path fill="none" stroke="#63b8ff" d="M412.27,-105.9C434.62,-96.11 465.02,-82.79 484.71,-74.17"/>
<polygon fill="#63b8ff" stroke="#63b8ff" points="410.7,-102.77 402.94,-109.98 413.5,-109.18 410.7,-102.77"/>
</a>
</g>
</g>
<!-- Node10 -->
<g id="Node000010" class="node">
<title>Node10</title>
<g id="a_Node000010"><a xlink:href="../../d1/dc3/vcs__MultiPhaseEquil_8h.html" target="_top" xlink:title="Interface class for the vcsnonlinear solver.">
<polygon fill="white" stroke="#666666" points="680,-74 555,-74 555,-55 680,-55 680,-74"/>
<text text-anchor="middle" x="617.5" y="-62" font-family="Helvetica,sans-Serif" font-size="10.00">vcs_MultiPhaseEquil.h</text>
</a>
</g>
</g>
<!-- Node1&#45;&gt;Node10 -->
<g id="edge10_Node000001_Node000010" class="edge">
<title>Node1&#45;&gt;Node10</title>
<g id="a_edge10_Node000001_Node000010"><a xlink:title=" ">
<path fill="none" stroke="#63b8ff" d="M430.95,-107.75C474.8,-97.82 539.1,-83.26 579.61,-74.08"/>
<polygon fill="#63b8ff" stroke="#63b8ff" points="430.08,-104.36 421.1,-109.98 431.62,-111.19 430.08,-104.36"/>
</a>
</g>
</g>
<!-- Node12 -->
<g id="Node000012" class="node">
<title>Node12</title>
<g id="a_Node000012"><a xlink:href="../../dc/d88/vcs__solve_8cpp.html" target="_top" xlink:title="Implementation file for the internal class that holds the problem.">
<polygon fill="white" stroke="#666666" points="783,-74 698,-74 698,-55 783,-55 783,-74"/>
<text text-anchor="middle" x="740.5" y="-62" font-family="Helvetica,sans-Serif" font-size="10.00">vcs_solve.cpp</text>
</a>
</g>
</g>
<!-- Node1&#45;&gt;Node12 -->
<g id="edge13_Node000001_Node000012" class="edge">
<title>Node1&#45;&gt;Node12</title>
<g id="a_edge13_Node000001_Node000012"><a xlink:title=" ">
<path fill="none" stroke="#63b8ff" d="M433.71,-111.52C494.37,-103.02 599.5,-88.04 689.5,-74 692.25,-73.57 695.08,-73.12 697.93,-72.66"/>
<polygon fill="#63b8ff" stroke="#63b8ff" points="433.06,-108.08 423.64,-112.93 434.03,-115.01 433.06,-108.08"/>
</a>
</g>
</g>
<!-- Node4&#45;&gt;Node3 -->
<g id="edge5_Node000004_Node000003" class="edge">
<title>Node4&#45;&gt;Node3</title>
<g id="a_edge5_Node000004_Node000003"><a xlink:title=" ">
<path fill="none" stroke="#63b8ff" d="M206.27,-50.9C228.62,-41.11 259.02,-27.79 278.71,-19.17"/>
<polygon fill="#63b8ff" stroke="#63b8ff" points="204.7,-47.77 196.94,-54.98 207.5,-54.18 204.7,-47.77"/>
</a>
</g>
</g>
<!-- Node5 -->
<g id="Node000005" class="node">
<title>Node5</title>
<g id="a_Node000005"><a xlink:href="../../df/df0/ChemEquil_8cpp.html" target="_top" xlink:title="Chemical equilibrium.">
<polygon fill="white" stroke="#666666" points="102,-19 13,-19 13,0 102,0 102,-19"/>
<text text-anchor="middle" x="57.5" y="-7" font-family="Helvetica,sans-Serif" font-size="10.00">ChemEquil.cpp</text>
</a>
</g>
</g>
<!-- Node4&#45;&gt;Node5 -->
<g id="edge4_Node000004_Node000005" class="edge">
<title>Node4&#45;&gt;Node5</title>
<g id="a_edge4_Node000004_Node000005"><a xlink:title=" ">
<path fill="none" stroke="#63b8ff" d="M148.97,-50.9C126.8,-41.11 96.65,-27.79 77.13,-19.17"/>
<polygon fill="#63b8ff" stroke="#63b8ff" points="147.66,-54.15 158.22,-54.98 150.49,-47.74 147.66,-54.15"/>
</a>
</g>
</g>
<!-- Node6 -->
<g id="Node000006" class="node">
<title>Node6</title>
<g id="a_Node000006"><a xlink:href="../../d1/dd3/MultiPhaseEquil_8cpp.html" target="_top" xlink:title=" ">
<polygon fill="white" stroke="#666666" points="235,-19 120,-19 120,0 235,0 235,-19"/>
<text text-anchor="middle" x="177.5" y="-7" font-family="Helvetica,sans-Serif" font-size="10.00">MultiPhaseEquil.cpp</text>
</a>
</g>
</g>
<!-- Node4&#45;&gt;Node6 -->
<g id="edge6_Node000004_Node000006" class="edge">
<title>Node4&#45;&gt;Node6</title>
<g id="a_edge6_Node000004_Node000006"><a xlink:title=" ">
<path fill="none" stroke="#63b8ff" d="M177.5,-44.66C177.5,-35.93 177.5,-25.99 177.5,-19.09"/>
<polygon fill="#63b8ff" stroke="#63b8ff" points="174,-44.75 177.5,-54.75 181,-44.75 174,-44.75"/>
</a>
</g>
</g>
<!-- Node10&#45;&gt;Node3 -->
<g id="edge11_Node000010_Node000003" class="edge">
<title>Node10&#45;&gt;Node3</title>
<g id="a_edge11_Node000010_Node000003"><a xlink:title=" ">
<path fill="none" stroke="#63b8ff" d="M556.21,-53.32C494.24,-43.02 399.9,-27.35 344.2,-18.09"/>
<polygon fill="#63b8ff" stroke="#63b8ff" points="555.81,-56.8 566.25,-54.98 556.96,-49.89 555.81,-56.8"/>
</a>
</g>
</g>
<!-- Node11 -->
<g id="Node000011" class="node">
<title>Node11</title>
<g id="a_Node000011"><a xlink:href="../../dc/d00/vcs__MultiPhaseEquil_8cpp.html" target="_top" xlink:title="Driver routine for the VCSnonideal equilibrium solver package.">
<polygon fill="white" stroke="#666666" points="686,-19 549,-19 549,0 686,0 686,-19"/>
<text text-anchor="middle" x="617.5" y="-7" font-family="Helvetica,sans-Serif" font-size="10.00">vcs_MultiPhaseEquil.cpp</text>
</a>
</g>
</g>
<!-- Node10&#45;&gt;Node11 -->
<g id="edge12_Node000010_Node000011" class="edge">
<title>Node10&#45;&gt;Node11</title>
<g id="a_edge12_Node000010_Node000011"><a xlink:title=" ">
<path fill="none" stroke="#63b8ff" d="M617.5,-44.66C617.5,-35.93 617.5,-25.99 617.5,-19.09"/>
<polygon fill="#63b8ff" stroke="#63b8ff" points="614,-44.75 617.5,-54.75 621,-44.75 614,-44.75"/>
</a>
</g>
</g>
</g>
</svg>
