<?xml version="1.0" encoding="UTF-8" standalone="no"?>
<!DOCTYPE svg PUBLIC "-//W3C//DTD SVG 1.1//EN"
 "http://www.w3.org/Graphics/SVG/1.1/DTD/svg11.dtd">
<!-- Generated by graphviz version 2.43.0 (0)
 -->
<!-- Title: IonFlow.h Pages: 1 -->
<svg width="1324pt" height="487pt"
 viewBox="0.00 0.00 1323.50 487.00" xmlns="http://www.w3.org/2000/svg" xmlns:xlink="http://www.w3.org/1999/xlink">
<g id="graph0" class="graph" transform="scale(1 1) rotate(0) translate(4 483)">
<title>IonFlow.h</title>
<polygon fill="white" stroke="transparent" points="-4,4 -4,-483 1319.5,-483 1319.5,4 -4,4"/>
<!-- Node1 -->
<g id="node1" class="node">
<title>Node1</title>
<g id="a_node1"><a xlink:title=" ">
<polygon fill="#bfbfbf" stroke="black" points="829,-459.5 829,-478.5 892,-478.5 892,-459.5 829,-459.5"/>
<text text-anchor="middle" x="860.5" y="-466.5" font-family="Helvetica,sans-Serif" font-size="10.00">IonFlow.h</text>
</a>
</g>
</g>
<!-- Node2 -->
<g id="node2" class="node">
<title>Node2</title>
<g id="a_node2"><a xlink:href="../../d7/d7c/StFlow_8h.html" target="_top" xlink:title=" ">
<polygon fill="white" stroke="black" points="797.5,-403.5 797.5,-422.5 923.5,-422.5 923.5,-403.5 797.5,-403.5"/>
<text text-anchor="middle" x="860.5" y="-410.5" font-family="Helvetica,sans-Serif" font-size="10.00">cantera/oneD/StFlow.h</text>
</a>
</g>
</g>
<!-- Node1&#45;&gt;Node2 -->
<g id="edge1" class="edge">
<title>Node1&#45;&gt;Node2</title>
<path fill="none" stroke="midnightblue" d="M860.5,-459.08C860.5,-452.01 860.5,-441.86 860.5,-432.99"/>
<polygon fill="midnightblue" stroke="midnightblue" points="864,-432.75 860.5,-422.75 857,-432.75 864,-432.75"/>
</g>
<!-- Node3 -->
<g id="node3" class="node">
<title>Node3</title>
<g id="a_node3"><a xlink:href="../../db/dce/Domain1D_8h.html" target="_top" xlink:title=" ">
<polygon fill="white" stroke="black" points="822,-291.5 822,-310.5 899,-310.5 899,-291.5 822,-291.5"/>
<text text-anchor="middle" x="860.5" y="-298.5" font-family="Helvetica,sans-Serif" font-size="10.00">Domain1D.h</text>
</a>
</g>
</g>
<!-- Node2&#45;&gt;Node3 -->
<g id="edge2" class="edge">
<title>Node2&#45;&gt;Node3</title>
<path fill="none" stroke="midnightblue" d="M860.5,-403.37C860.5,-385.62 860.5,-344.67 860.5,-320.6"/>
<polygon fill="midnightblue" stroke="midnightblue" points="864,-320.59 860.5,-310.59 857,-320.59 864,-320.59"/>
</g>
<!-- Node21 -->
<g id="node8" class="node">
<title>Node21</title>
<g id="a_node8"><a xlink:href="../../df/dd0/Array_8h.html" target="_top" xlink:title="Header file for class Cantera::Array2D.">
<polygon fill="white" stroke="black" points="1169.5,-347.5 1169.5,-366.5 1285.5,-366.5 1285.5,-347.5 1169.5,-347.5"/>
<text text-anchor="middle" x="1227.5" y="-354.5" font-family="Helvetica,sans-Serif" font-size="10.00">cantera/base/Array.h</text>
</a>
</g>
</g>
<!-- Node2&#45;&gt;Node21 -->
<g id="edge8" class="edge">
<title>Node2&#45;&gt;Node21</title>
<path fill="none" stroke="midnightblue" d="M918.65,-403.44C984.15,-393.81 1090.46,-378.16 1159.69,-367.98"/>
<polygon fill="midnightblue" stroke="midnightblue" points="1160.24,-371.43 1169.62,-366.52 1159.22,-364.51 1160.24,-371.43"/>
</g>
<!-- Node23 -->
<g id="node10" class="node">
<title>Node23</title>
<g id="a_node10"><a xlink:href="../../d4/dfa/Solution_8h.html" target="_top" xlink:title=" ">
<polygon fill="white" stroke="black" points="701,-235.5 701,-254.5 832,-254.5 832,-235.5 701,-235.5"/>
<text text-anchor="middle" x="766.5" y="-242.5" font-family="Helvetica,sans-Serif" font-size="10.00">cantera/base/Solution.h</text>
</a>
</g>
</g>
<!-- Node2&#45;&gt;Node23 -->
<g id="edge11" class="edge">
<title>Node2&#45;&gt;Node23</title>
<path fill="none" stroke="midnightblue" d="M855.45,-403.08C840.52,-376.72 796.44,-298.88 776.5,-263.66"/>
<polygon fill="midnightblue" stroke="midnightblue" points="779.32,-261.55 771.35,-254.57 773.23,-264.99 779.32,-261.55"/>
</g>
<!-- Node30 -->
<g id="node17" class="node">
<title>Node30</title>
<g id="a_node17"><a xlink:href="../../d7/d01/ThermoPhase_8h.html" target="_top" xlink:title="Header file for class ThermoPhase, the base class for phases with thermodynamic properties,...">
<polygon fill="white" stroke="black" points="483.5,-347.5 483.5,-366.5 653.5,-366.5 653.5,-347.5 483.5,-347.5"/>
<text text-anchor="middle" x="568.5" y="-354.5" font-family="Helvetica,sans-Serif" font-size="10.00">cantera/thermo/ThermoPhase.h</text>
</a>
</g>
</g>
<!-- Node2&#45;&gt;Node30 -->
<g id="edge23" class="edge">
<title>Node2&#45;&gt;Node30</title>
<path fill="none" stroke="midnightblue" d="M814.23,-403.44C762.76,-393.92 679.61,-378.55 624.5,-368.36"/>
<polygon fill="midnightblue" stroke="midnightblue" points="625.02,-364.89 614.55,-366.52 623.75,-371.78 625.02,-364.89"/>
</g>
<!-- Node37 -->
<g id="node23" class="node">
<title>Node37</title>
<g id="a_node23"><a xlink:href="../../d5/db4/Kinetics_8h.html" target="_top" xlink:title="Base class for kinetics managers and also contains the kineticsmgr module documentation (see Kinetics...">
<polygon fill="white" stroke="black" points="888.5,-235.5 888.5,-254.5 1034.5,-254.5 1034.5,-235.5 888.5,-235.5"/>
<text text-anchor="middle" x="961.5" y="-242.5" font-family="Helvetica,sans-Serif" font-size="10.00">cantera/kinetics/Kinetics.h</text>
</a>
</g>
</g>
<!-- Node2&#45;&gt;Node37 -->
<g id="edge37" class="edge">
<title>Node2&#45;&gt;Node37</title>
<path fill="none" stroke="midnightblue" d="M865.93,-403.08C882.03,-376.61 929.73,-298.21 951.03,-263.21"/>
<polygon fill="midnightblue" stroke="midnightblue" points="954.08,-264.93 956.29,-254.57 948.1,-261.29 954.08,-264.93"/>
</g>
<!-- Node4 -->
<g id="node4" class="node">
<title>Node4</title>
<g id="a_node4"><a xlink:href="../../db/d98/ctexceptions_8h.html" target="_top" xlink:title="Definitions for the classes that are thrown when Cantera experiences an error condition (also contain...">
<polygon fill="white" stroke="black" points="728.5,-118 728.5,-137 882.5,-137 882.5,-118 728.5,-118"/>
<text text-anchor="middle" x="805.5" y="-125" font-family="Helvetica,sans-Serif" font-size="10.00">cantera/base/ctexceptions.h</text>
</a>
</g>
</g>
<!-- Node3&#45;&gt;Node4 -->
<g id="edge3" class="edge">
<title>Node3&#45;&gt;Node4</title>
<path fill="none" stroke="midnightblue" d="M857.84,-291.15C854.05,-278.63 846.87,-255.03 840.5,-235 830.6,-203.89 818.65,-167.82 811.58,-146.65"/>
<polygon fill="midnightblue" stroke="midnightblue" points="814.86,-145.41 808.37,-137.04 808.22,-147.63 814.86,-145.41"/>
</g>
<!-- Node5 -->
<g id="node5" class="node">
<title>Node5</title>
<g id="a_node5"><a xlink:href="../../d9/ddc/ct__defs_8h.html" target="_top" xlink:title="This file contains definitions of constants, types and terms that are used in internal routines and a...">
<polygon fill="white" stroke="red" points="743,-0.5 743,-19.5 804,-19.5 804,-0.5 743,-0.5"/>
<text text-anchor="middle" x="773.5" y="-7.5" font-family="Helvetica,sans-Serif" font-size="10.00">ct_defs.h</text>
</a>
</g>
</g>
<!-- Node4&#45;&gt;Node5 -->
<g id="edge4" class="edge">
<title>Node4&#45;&gt;Node5</title>
<path fill="none" stroke="midnightblue" d="M848.03,-117.98C900.94,-106.95 985.48,-87.75 994.5,-76 999.91,-68.95 1000.12,-62.88 994.5,-56 972.17,-28.67 871.69,-17.51 814.21,-13.31"/>
<polygon fill="midnightblue" stroke="midnightblue" points="814.22,-9.8 804,-12.6 813.74,-16.78 814.22,-9.8"/>
</g>
<!-- Node16 -->
<g id="node6" class="node">
<title>Node16</title>
<g id="a_node6"><a xlink:href="../../db/def/fmt_8h.html" target="_top" xlink:title="Wrapper for either system&#45;installed or local headers for fmt.">
<polygon fill="white" stroke="red" points="793,-56.5 793,-75.5 902,-75.5 902,-56.5 793,-56.5"/>
<text text-anchor="middle" x="847.5" y="-63.5" font-family="Helvetica,sans-Serif" font-size="10.00">cantera/base/fmt.h</text>
</a>
</g>
</g>
<!-- Node4&#45;&gt;Node16 -->
<g id="edge5" class="edge">
<title>Node4&#45;&gt;Node16</title>
<path fill="none" stroke="midnightblue" d="M811.52,-117.98C817.76,-109.14 827.67,-95.09 835.52,-83.98"/>
<polygon fill="midnightblue" stroke="midnightblue" points="838.59,-85.7 841.49,-75.51 832.87,-81.66 838.59,-85.7"/>
</g>
<!-- Node20 -->
<g id="node7" class="node">
<title>Node20</title>
<g id="a_node7"><a xlink:title=" ">
<polygon fill="white" stroke="#bfbfbf" points="920,-56.5 920,-75.5 985,-75.5 985,-56.5 920,-56.5"/>
<text text-anchor="middle" x="952.5" y="-63.5" font-family="Helvetica,sans-Serif" font-size="10.00">exception</text>
</a>
</g>
</g>
<!-- Node4&#45;&gt;Node20 -->
<g id="edge7" class="edge">
<title>Node4&#45;&gt;Node20</title>
<path fill="none" stroke="midnightblue" d="M826.56,-117.98C851.56,-107.86 893.44,-90.9 921.99,-79.35"/>
<polygon fill="midnightblue" stroke="midnightblue" points="923.52,-82.51 931.48,-75.51 920.89,-76.02 923.52,-82.51"/>
</g>
<!-- Node16&#45;&gt;Node5 -->
<g id="edge6" class="edge">
<title>Node16&#45;&gt;Node5</title>
<path fill="none" stroke="midnightblue" d="M835.61,-56.32C824.35,-48.11 807.21,-35.6 793.79,-25.81"/>
<polygon fill="midnightblue" stroke="midnightblue" points="795.75,-22.9 785.61,-19.83 791.62,-28.56 795.75,-22.9"/>
</g>
<!-- Node21&#45;&gt;Node5 -->
<g id="edge9" class="edge">
<title>Node21&#45;&gt;Node5</title>
<path fill="none" stroke="midnightblue" d="M1227.5,-347.44C1227.5,-328.94 1227.5,-283.81 1227.5,-246 1227.5,-246 1227.5,-246 1227.5,-126.5 1227.5,-41.7 926.28,-18.42 814.55,-12.69"/>
<polygon fill="midnightblue" stroke="midnightblue" points="814.51,-9.19 804.35,-12.19 814.16,-16.18 814.51,-9.19"/>
</g>
<!-- Node22 -->
<g id="node9" class="node">
<title>Node22</title>
<g id="a_node9"><a xlink:title=" ">
<polygon fill="white" stroke="#bfbfbf" points="1255.5,-291.5 1255.5,-310.5 1315.5,-310.5 1315.5,-291.5 1255.5,-291.5"/>
<text text-anchor="middle" x="1285.5" y="-298.5" font-family="Helvetica,sans-Serif" font-size="10.00">iostream</text>
</a>
</g>
</g>
<!-- Node21&#45;&gt;Node22 -->
<g id="edge10" class="edge">
<title>Node21&#45;&gt;Node22</title>
<path fill="none" stroke="midnightblue" d="M1236.82,-347.32C1245.39,-339.34 1258.31,-327.31 1268.69,-317.65"/>
<polygon fill="midnightblue" stroke="midnightblue" points="1271.08,-320.21 1276.01,-310.83 1266.31,-315.09 1271.08,-320.21"/>
</g>
<!-- Node23&#45;&gt;Node4 -->
<g id="edge12" class="edge">
<title>Node23&#45;&gt;Node4</title>
<path fill="none" stroke="midnightblue" d="M769.43,-235.32C775.76,-216.59 790.8,-172.05 799.32,-146.79"/>
<polygon fill="midnightblue" stroke="midnightblue" points="802.65,-147.88 802.53,-137.28 796.02,-145.64 802.65,-147.88"/>
</g>
<!-- Node24 -->
<g id="node11" class="node">
<title>Node24</title>
<g id="a_node11"><a xlink:href="../../dd/d2a/AnyMap_8h.html" target="_top" xlink:title=" ">
<polygon fill="white" stroke="black" points="399,-179.5 399,-198.5 530,-198.5 530,-179.5 399,-179.5"/>
<text text-anchor="middle" x="464.5" y="-186.5" font-family="Helvetica,sans-Serif" font-size="10.00">cantera/base/AnyMap.h</text>
</a>
</g>
</g>
<!-- Node23&#45;&gt;Node24 -->
<g id="edge13" class="edge">
<title>Node23&#45;&gt;Node24</title>
<path fill="none" stroke="midnightblue" d="M718.65,-235.44C665.3,-225.9 579.06,-210.48 522.06,-200.29"/>
<polygon fill="midnightblue" stroke="midnightblue" points="522.59,-196.83 512.13,-198.52 521.36,-203.72 522.59,-196.83"/>
</g>
<!-- Node24&#45;&gt;Node4 -->
<g id="edge15" class="edge">
<title>Node24&#45;&gt;Node4</title>
<path fill="none" stroke="midnightblue" d="M513.36,-179.48C574.89,-168.74 680.53,-150.31 746.5,-138.79"/>
<polygon fill="midnightblue" stroke="midnightblue" points="747.48,-142.18 756.73,-137.01 746.28,-135.28 747.48,-142.18"/>
</g>
<!-- Node24&#45;&gt;Node5 -->
<g id="edge14" class="edge">
<title>Node24&#45;&gt;Node5</title>
<path fill="none" stroke="midnightblue" d="M486.39,-179.37C503.21,-171.84 526.08,-159.53 541.5,-143 570.92,-111.46 550.77,-82.88 584.5,-56 627.18,-21.99 691.4,-13 732.89,-10.98"/>
<polygon fill="midnightblue" stroke="midnightblue" points="733.06,-14.48 742.92,-10.61 732.8,-7.48 733.06,-14.48"/>
</g>
<!-- Node25 -->
<g id="node12" class="node">
<title>Node25</title>
<g id="a_node12"><a xlink:href="../../da/d58/Units_8h.html" target="_top" xlink:title="Header for unit conversion utilities, which are used to translate user input from input files (See In...">
<polygon fill="white" stroke="black" points="0,-118 0,-137 117,-137 117,-118 0,-118"/>
<text text-anchor="middle" x="58.5" y="-125" font-family="Helvetica,sans-Serif" font-size="10.00">cantera/base/Units.h</text>
</a>
</g>
</g>
<!-- Node24&#45;&gt;Node25 -->
<g id="edge16" class="edge">
<title>Node24&#45;&gt;Node25</title>
<path fill="none" stroke="midnightblue" d="M398.95,-180.9C330.5,-173.11 220.11,-159.49 125.5,-143 118.88,-141.85 111.93,-140.5 105.1,-139.09"/>
<polygon fill="midnightblue" stroke="midnightblue" points="105.76,-135.66 95.26,-137.02 104.32,-142.51 105.76,-135.66"/>
</g>
<!-- Node26 -->
<g id="node13" class="node">
<title>Node26</title>
<g id="a_node13"><a xlink:title=" ">
<polygon fill="white" stroke="#bfbfbf" points="353,-118 353,-137 446,-137 446,-118 353,-118"/>
<text text-anchor="middle" x="399.5" y="-125" font-family="Helvetica,sans-Serif" font-size="10.00">unordered_map</text>
</a>
</g>
</g>
<!-- Node24&#45;&gt;Node26 -->
<g id="edge18" class="edge">
<title>Node24&#45;&gt;Node26</title>
<path fill="none" stroke="midnightblue" d="M455.19,-179.48C445.05,-170.2 428.64,-155.17 416.25,-143.83"/>
<polygon fill="midnightblue" stroke="midnightblue" points="418.54,-141.18 408.8,-137.01 413.81,-146.34 418.54,-141.18"/>
</g>
<!-- Node27 -->
<g id="node14" class="node">
<title>Node27</title>
<g id="a_node14"><a xlink:title=" ">
<polygon fill="white" stroke="#bfbfbf" points="464.5,-118 464.5,-137 532.5,-137 532.5,-118 464.5,-118"/>
<text text-anchor="middle" x="498.5" y="-125" font-family="Helvetica,sans-Serif" font-size="10.00">filesystem</text>
</a>
</g>
</g>
<!-- Node24&#45;&gt;Node27 -->
<g id="edge19" class="edge">
<title>Node24&#45;&gt;Node27</title>
<path fill="none" stroke="midnightblue" d="M469.37,-179.48C474.37,-170.73 482.29,-156.87 488.61,-145.81"/>
<polygon fill="midnightblue" stroke="midnightblue" points="491.72,-147.43 493.64,-137.01 485.64,-143.96 491.72,-147.43"/>
</g>
<!-- Node28 -->
<g id="node15" class="node">
<title>Node28</title>
<g id="a_node15"><a xlink:title=" ">
<polygon fill="white" stroke="#bfbfbf" points="135,-118 135,-137 170,-137 170,-118 135,-118"/>
<text text-anchor="middle" x="152.5" y="-125" font-family="Helvetica,sans-Serif" font-size="10.00">any</text>
</a>
</g>
</g>
<!-- Node24&#45;&gt;Node28 -->
<g id="edge20" class="edge">
<title>Node24&#45;&gt;Node28</title>
<path fill="none" stroke="midnightblue" d="M398.78,-183.91C340.04,-178.79 252.25,-167.49 179.5,-143 178.25,-142.58 176.99,-142.11 175.74,-141.59"/>
<polygon fill="midnightblue" stroke="midnightblue" points="176.92,-138.28 166.39,-137.11 173.89,-144.59 176.92,-138.28"/>
</g>
<!-- Node29 -->
<g id="node16" class="node">
<title>Node29</title>
<g id="a_node16"><a xlink:href="../../da/d4c/AnyMap_8inl_8h.html" target="_top" xlink:title=" ">
<polygon fill="white" stroke="black" points="188.5,-118 188.5,-137 334.5,-137 334.5,-118 188.5,-118"/>
<text text-anchor="middle" x="261.5" y="-125" font-family="Helvetica,sans-Serif" font-size="10.00">cantera/base/AnyMap.inl.h</text>
</a>
</g>
</g>
<!-- Node24&#45;&gt;Node29 -->
<g id="edge21" class="edge">
<title>Node24&#45;&gt;Node29</title>
<path fill="none" stroke="midnightblue" d="M430.51,-179.48C392.99,-169.14 333.17,-151.66 295.6,-140.1"/>
<polygon fill="midnightblue" stroke="midnightblue" points="296.22,-136.63 285.63,-137.01 294.15,-143.31 296.22,-136.63"/>
</g>
<!-- Node25&#45;&gt;Node5 -->
<g id="edge17" class="edge">
<title>Node25&#45;&gt;Node5</title>
<path fill="none" stroke="midnightblue" d="M95.98,-117.98C105.58,-115.91 115.91,-113.78 125.5,-112 354.12,-69.48 630.39,-30.52 732.77,-16.5"/>
<polygon fill="midnightblue" stroke="midnightblue" points="733.26,-19.97 742.7,-15.15 732.32,-13.03 733.26,-19.97"/>
</g>
<!-- Node29&#45;&gt;Node24 -->
<g id="edge22" class="edge">
<title>Node29&#45;&gt;Node24</title>
<path fill="none" stroke="midnightblue" d="M295.43,-137.01C332.93,-147.34 392.75,-164.82 430.34,-176.38"/>
<polygon fill="midnightblue" stroke="midnightblue" points="429.73,-179.86 440.32,-179.48 431.8,-173.17 429.73,-179.86"/>
</g>
<!-- Node30&#45;&gt;Node24 -->
<g id="edge36" class="edge">
<title>Node30&#45;&gt;Node24</title>
<path fill="none" stroke="midnightblue" d="M546.11,-347.35C530.01,-340.02 509.01,-327.97 496.5,-311 473.69,-280.06 467.12,-234.1 465.24,-208.65"/>
<polygon fill="midnightblue" stroke="midnightblue" points="468.73,-208.32 464.67,-198.53 461.74,-208.72 468.73,-208.32"/>
</g>
<!-- Node30&#45;&gt;Node25 -->
<g id="edge35" class="edge">
<title>Node30&#45;&gt;Node25</title>
<path fill="none" stroke="midnightblue" d="M549.44,-347.5C471.88,-312.9 179.79,-182.61 86.99,-141.21"/>
<polygon fill="midnightblue" stroke="midnightblue" points="88.22,-137.92 77.66,-137.05 85.36,-144.32 88.22,-137.92"/>
</g>
<!-- Node31 -->
<g id="node18" class="node">
<title>Node31</title>
<g id="a_node18"><a xlink:href="../../da/d84/Phase_8h.html" target="_top" xlink:title="Header file for class Phase.">
<polygon fill="white" stroke="black" points="688,-179.5 688,-198.5 743,-198.5 743,-179.5 688,-179.5"/>
<text text-anchor="middle" x="715.5" y="-186.5" font-family="Helvetica,sans-Serif" font-size="10.00">Phase.h</text>
</a>
</g>
</g>
<!-- Node30&#45;&gt;Node31 -->
<g id="edge24" class="edge">
<title>Node30&#45;&gt;Node31</title>
<path fill="none" stroke="midnightblue" d="M586.69,-347.38C602.04,-339.46 623.95,-326.61 639.5,-311 656.01,-294.42 689.47,-236.55 705.92,-207.27"/>
<polygon fill="midnightblue" stroke="midnightblue" points="708.98,-208.97 710.8,-198.53 702.87,-205.55 708.98,-208.97"/>
</g>
<!-- Node35 -->
<g id="node21" class="node">
<title>Node35</title>
<g id="a_node21"><a xlink:href="../../d6/d7a/MultiSpeciesThermo_8h.html" target="_top" xlink:title="Header for a general species thermodynamic property manager for a phase (see MultiSpeciesThermo).">
<polygon fill="white" stroke="black" points="506,-291.5 506,-310.5 631,-310.5 631,-291.5 506,-291.5"/>
<text text-anchor="middle" x="568.5" y="-298.5" font-family="Helvetica,sans-Serif" font-size="10.00">MultiSpeciesThermo.h</text>
</a>
</g>
</g>
<!-- Node30&#45;&gt;Node35 -->
<g id="edge30" class="edge">
<title>Node30&#45;&gt;Node35</title>
<path fill="none" stroke="midnightblue" d="M568.5,-347.08C568.5,-340.01 568.5,-329.86 568.5,-320.99"/>
<polygon fill="midnightblue" stroke="midnightblue" points="572,-320.75 568.5,-310.75 565,-320.75 572,-320.75"/>
</g>
<!-- Node31&#45;&gt;Node4 -->
<g id="edge25" class="edge">
<title>Node31&#45;&gt;Node4</title>
<path fill="none" stroke="midnightblue" d="M728.39,-179.48C742.96,-169.84 766.9,-154.02 784.25,-142.55"/>
<polygon fill="midnightblue" stroke="midnightblue" points="786.22,-145.44 792.63,-137.01 782.36,-139.6 786.22,-145.44"/>
</g>
<!-- Node32 -->
<g id="node19" class="node">
<title>Node32</title>
<g id="a_node19"><a xlink:href="../../d9/dda/Elements_8h.html" target="_top" xlink:title="Contains the getElementWeight function and the definitions of element constraint types.">
<polygon fill="white" stroke="black" points="626,-56.5 626,-75.5 775,-75.5 775,-56.5 626,-56.5"/>
<text text-anchor="middle" x="700.5" y="-63.5" font-family="Helvetica,sans-Serif" font-size="10.00">cantera/thermo/Elements.h</text>
</a>
</g>
</g>
<!-- Node31&#45;&gt;Node32 -->
<g id="edge26" class="edge">
<title>Node31&#45;&gt;Node32</title>
<path fill="none" stroke="midnightblue" d="M714.42,-179.3C712.01,-159.85 706.14,-112.49 702.84,-85.9"/>
<polygon fill="midnightblue" stroke="midnightblue" points="706.27,-85.12 701.57,-75.62 699.33,-85.98 706.27,-85.12"/>
</g>
<!-- Node33 -->
<g id="node20" class="node">
<title>Node33</title>
<g id="a_node20"><a xlink:href="../../d6/df6/ValueCache_8h.html" target="_top" xlink:title=" ">
<polygon fill="white" stroke="red" points="901,-118 901,-137 1050,-137 1050,-118 901,-118"/>
<text text-anchor="middle" x="975.5" y="-125" font-family="Helvetica,sans-Serif" font-size="10.00">cantera/base/ValueCache.h</text>
</a>
</g>
</g>
<!-- Node31&#45;&gt;Node33 -->
<g id="edge28" class="edge">
<title>Node31&#45;&gt;Node33</title>
<path fill="none" stroke="midnightblue" d="M743.32,-181.63C787.51,-171.52 874.22,-151.68 928.27,-139.31"/>
<polygon fill="midnightblue" stroke="midnightblue" points="929.32,-142.66 938.29,-137.02 927.76,-135.83 929.32,-142.66"/>
</g>
<!-- Node32&#45;&gt;Node5 -->
<g id="edge27" class="edge">
<title>Node32&#45;&gt;Node5</title>
<path fill="none" stroke="midnightblue" d="M712.23,-56.32C723.34,-48.11 740.24,-35.6 753.48,-25.81"/>
<polygon fill="midnightblue" stroke="midnightblue" points="755.6,-28.59 761.56,-19.83 751.44,-22.97 755.6,-28.59"/>
</g>
<!-- Node33&#45;&gt;Node5 -->
<g id="edge29" class="edge">
<title>Node33&#45;&gt;Node5</title>
<path fill="none" stroke="midnightblue" d="M985.56,-117.96C1000.89,-103.92 1026.71,-75.58 1010.5,-56 986.07,-26.5 875.55,-16.18 814.44,-12.69"/>
<polygon fill="midnightblue" stroke="midnightblue" points="814.53,-9.19 804.36,-12.16 814.16,-16.18 814.53,-9.19"/>
</g>
<!-- Node36 -->
<g id="node22" class="node">
<title>Node36</title>
<g id="a_node22"><a xlink:href="../../d4/d87/SpeciesThermoInterpType_8h.html" target="_top" xlink:title="Pure Virtual Base class for individual species reference state thermodynamic managers and text for th...">
<polygon fill="white" stroke="black" points="492.5,-235.5 492.5,-254.5 644.5,-254.5 644.5,-235.5 492.5,-235.5"/>
<text text-anchor="middle" x="568.5" y="-242.5" font-family="Helvetica,sans-Serif" font-size="10.00">SpeciesThermoInterpType.h</text>
</a>
</g>
</g>
<!-- Node35&#45;&gt;Node36 -->
<g id="edge31" class="edge">
<title>Node35&#45;&gt;Node36</title>
<path fill="none" stroke="midnightblue" d="M568.5,-291.08C568.5,-284.01 568.5,-273.86 568.5,-264.99"/>
<polygon fill="midnightblue" stroke="midnightblue" points="572,-264.75 568.5,-254.75 565,-264.75 572,-264.75"/>
</g>
<!-- Node36&#45;&gt;Node4 -->
<g id="edge33" class="edge">
<title>Node36&#45;&gt;Node4</title>
<path fill="none" stroke="midnightblue" d="M581.67,-235.3C601.95,-222.13 642.26,-196.78 678.5,-179 708.97,-164.05 745.03,-150.05 770.93,-140.59"/>
<polygon fill="midnightblue" stroke="midnightblue" points="772.45,-143.77 780.66,-137.08 770.07,-137.18 772.45,-143.77"/>
</g>
<!-- Node36&#45;&gt;Node5 -->
<g id="edge32" class="edge">
<title>Node36&#45;&gt;Node5</title>
<path fill="none" stroke="midnightblue" d="M567.94,-235.49C566.49,-206.15 565.81,-108.19 616.5,-56 646.89,-24.71 697.44,-14.78 732.95,-11.83"/>
<polygon fill="midnightblue" stroke="midnightblue" points="733.25,-15.32 742.99,-11.15 732.78,-8.33 733.25,-15.32"/>
</g>
<!-- Node36&#45;&gt;Node24 -->
<g id="edge34" class="edge">
<title>Node36&#45;&gt;Node24</title>
<path fill="none" stroke="midnightblue" d="M551.79,-235.32C535.19,-226.7 509.5,-213.36 490.28,-203.39"/>
<polygon fill="midnightblue" stroke="midnightblue" points="491.66,-200.16 481.17,-198.65 488.43,-206.37 491.66,-200.16"/>
</g>
<!-- Node37&#45;&gt;Node33 -->
<g id="edge41" class="edge">
<title>Node37&#45;&gt;Node33</title>
<path fill="none" stroke="midnightblue" d="M970.79,-235.39C979.08,-227.02 990.64,-213.48 995.5,-199 1001.48,-181.16 993.88,-160.41 986.39,-146.06"/>
<polygon fill="midnightblue" stroke="midnightblue" points="989.38,-144.23 981.39,-137.26 983.29,-147.69 989.38,-144.23"/>
</g>
<!-- Node38 -->
<g id="node24" class="node">
<title>Node38</title>
<g id="a_node24"><a xlink:href="../../dd/dfd/StoichManager_8h.html" target="_top" xlink:title=" ">
<polygon fill="white" stroke="black" points="888.5,-179.5 888.5,-198.5 986.5,-198.5 986.5,-179.5 888.5,-179.5"/>
<text text-anchor="middle" x="937.5" y="-186.5" font-family="Helvetica,sans-Serif" font-size="10.00">StoichManager.h</text>
</a>
</g>
</g>
<!-- Node37&#45;&gt;Node38 -->
<g id="edge38" class="edge">
<title>Node37&#45;&gt;Node38</title>
<path fill="none" stroke="midnightblue" d="M957.54,-235.08C954.29,-227.77 949.58,-217.18 945.55,-208.1"/>
<polygon fill="midnightblue" stroke="midnightblue" points="948.65,-206.47 941.39,-198.75 942.25,-209.31 948.65,-206.47"/>
</g>
<!-- Node38&#45;&gt;Node4 -->
<g id="edge40" class="edge">
<title>Node38&#45;&gt;Node4</title>
<path fill="none" stroke="midnightblue" d="M918.59,-179.48C896.34,-169.45 859.19,-152.7 833.57,-141.15"/>
<polygon fill="midnightblue" stroke="midnightblue" points="834.93,-137.93 824.38,-137.01 832.06,-144.31 834.93,-137.93"/>
</g>
<!-- Node39 -->
<g id="node25" class="node">
<title>Node39</title>
<g id="a_node25"><a xlink:href="../../d9/d42/eigen__sparse_8h_source.html" target="_top" xlink:title=" ">
<polygon fill="white" stroke="red" points="1068,-112.5 1068,-142.5 1199,-142.5 1199,-112.5 1068,-112.5"/>
<text text-anchor="start" x="1076" y="-130.5" font-family="Helvetica,sans-Serif" font-size="10.00">cantera/numerics/eigen</text>
<text text-anchor="middle" x="1133.5" y="-119.5" font-family="Helvetica,sans-Serif" font-size="10.00">_sparse.h</text>
</a>
</g>
</g>
<!-- Node38&#45;&gt;Node39 -->
<g id="edge39" class="edge">
<title>Node38&#45;&gt;Node39</title>
<path fill="none" stroke="midnightblue" d="M965.58,-179.48C994.61,-170.66 1040.71,-156.67 1077.27,-145.57"/>
<polygon fill="midnightblue" stroke="midnightblue" points="1078.75,-148.78 1087.31,-142.52 1076.72,-142.08 1078.75,-148.78"/>
</g>
</g>
</svg>
