<?xml version="1.0" encoding="UTF-8" standalone="no"?>
<!DOCTYPE svg PUBLIC "-//W3C//DTD SVG 1.1//EN"
 "http://www.w3.org/Graphics/SVG/1.1/DTD/svg11.dtd">
<!-- Generated by graphviz version 6.0.1 (0)
 -->
<!-- Title: GasTransportData Pages: 1 -->
<svg width="105pt" height="205pt"
 viewBox="0.00 0.00 105.00 205.00" xmlns="http://www.w3.org/2000/svg" xmlns:xlink="http://www.w3.org/1999/xlink">
<g id="graph0" class="graph" transform="scale(1 1) rotate(0) translate(4 201)">
<title>GasTransportData</title>
<!-- Node1 -->
<g id="node1" class="node">
<title>Node1</title>
<g id="a_node1"><a xlink:title="Transport data for a single gas&#45;phase species which can be used in mixture&#45;averaged or multicomponent...">
<polygon fill="#999999" stroke="#666666" points="97,-19 0,-19 0,0 97,0 97,-19"/>
<text text-anchor="middle" x="48.5" y="-7" font-family="Helvetica,sans-Serif" font-size="10.00">GasTransportData</text>
</a>
</g>
</g>
<!-- Node2 -->
<g id="node2" class="node">
<title>Node2</title>
<g id="a_node2"><a xlink:href="../../d5/d11/classCantera_1_1TransportData.html" target="_top" xlink:title="Base class for transport data for a single species.">
<polygon fill="white" stroke="#666666" points="88,-75 9,-75 9,-56 88,-56 88,-75"/>
<text text-anchor="middle" x="48.5" y="-63" font-family="Helvetica,sans-Serif" font-size="10.00">TransportData</text>
</a>
</g>
</g>
<!-- Node2&#45;&gt;Node1 -->
<g id="edge1" class="edge">
<title>Node2&#45;&gt;Node1</title>
<path fill="none" stroke="#63b8ff" d="M48.5,-45.3C48.5,-36.41 48.5,-26.28 48.5,-19.25"/>
<polygon fill="#63b8ff" stroke="#63b8ff" points="45,-45.58 48.5,-55.58 52,-45.58 45,-45.58"/>
</g>
<!-- Node3 -->
<g id="node3" class="node">
<title>Node3</title>
<g id="a_node3"><a xlink:href="../../db/d74/classCantera_1_1AnyMap.html" target="_top" xlink:title="A map of string keys to values whose type can vary at runtime.">
<polygon fill="white" stroke="#666666" points="75,-141 22,-141 22,-122 75,-122 75,-141"/>
<text text-anchor="middle" x="48.5" y="-129" font-family="Helvetica,sans-Serif" font-size="10.00">AnyMap</text>
</a>
</g>
</g>
<!-- Node3&#45;&gt;Node2 -->
<g id="edge2" class="edge">
<title>Node3&#45;&gt;Node2</title>
<path fill="none" stroke="#9a32cd" stroke-dasharray="5,2" d="M48.5,-111.58C48.5,-99.63 48.5,-84.72 48.5,-75.41"/>
<polygon fill="#9a32cd" stroke="#9a32cd" points="45,-111.87 48.5,-121.87 52,-111.87 45,-111.87"/>
<text text-anchor="middle" x="61" y="-96" font-family="Helvetica,sans-Serif" font-size="10.00"> input</text>
</g>
<!-- Node4 -->
<g id="node4" class="node">
<title>Node4</title>
<g id="a_node4"><a xlink:href="../../d9/d23/classCantera_1_1AnyBase.html" target="_top" xlink:title="Base class defining common data possessed by both AnyMap and AnyValue objects.">
<polygon fill="white" stroke="#666666" points="76.5,-197 20.5,-197 20.5,-178 76.5,-178 76.5,-197"/>
<text text-anchor="middle" x="48.5" y="-185" font-family="Helvetica,sans-Serif" font-size="10.00">AnyBase</text>
</a>
</g>
</g>
<!-- Node4&#45;&gt;Node3 -->
<g id="edge3" class="edge">
<title>Node4&#45;&gt;Node3</title>
<path fill="none" stroke="#63b8ff" d="M48.5,-167.3C48.5,-158.41 48.5,-148.28 48.5,-141.25"/>
<polygon fill="#63b8ff" stroke="#63b8ff" points="45,-167.58 48.5,-177.58 52,-167.58 45,-167.58"/>
</g>
</g>
</svg>
