<?xml version="1.0" encoding="UTF-8" standalone="no"?>
<!DOCTYPE svg PUBLIC "-//W3C//DTD SVG 1.1//EN"
 "http://www.w3.org/Graphics/SVG/1.1/DTD/svg11.dtd">
<!-- Generated by graphviz version 6.0.1 (0)
 -->
<!-- Title: WaterSSTP Pages: 1 -->
<svg width="307pt" height="291pt"
 viewBox="0.00 0.00 307.00 291.00" xmlns="http://www.w3.org/2000/svg" xmlns:xlink="http://www.w3.org/1999/xlink">
<g id="graph0" class="graph" transform="scale(1 1) rotate(0) translate(4 287)">
<title>WaterSSTP</title>
<!-- Node1 -->
<g id="node1" class="node">
<title>Node1</title>
<g id="a_node1"><a xlink:title="Class for single&#45;component water.">
<polygon fill="#999999" stroke="#666666" points="218.5,-19 150.5,-19 150.5,0 218.5,0 218.5,-19"/>
<text text-anchor="middle" x="184.5" y="-7" font-family="Helvetica,sans-Serif" font-size="10.00">WaterSSTP</text>
</a>
</g>
</g>
<!-- Node2 -->
<g id="node2" class="node">
<title>Node2</title>
<g id="a_node2"><a xlink:href="../../db/d95/classCantera_1_1SingleSpeciesTP.html" target="_top" xlink:title="The SingleSpeciesTP class is a filter class for ThermoPhase.">
<polygon fill="white" stroke="#666666" points="173.5,-85 81.5,-85 81.5,-66 173.5,-66 173.5,-85"/>
<text text-anchor="middle" x="127.5" y="-73" font-family="Helvetica,sans-Serif" font-size="10.00">SingleSpeciesTP</text>
</a>
</g>
</g>
<!-- Node2&#45;&gt;Node1 -->
<g id="edge1" class="edge">
<title>Node2&#45;&gt;Node1</title>
<path fill="none" stroke="#63b8ff" d="M142.09,-58.12C153.06,-45.81 167.67,-29.39 176.57,-19.41"/>
<polygon fill="#63b8ff" stroke="#63b8ff" points="139.22,-56.07 135.19,-65.87 144.45,-60.73 139.22,-56.07"/>
</g>
<!-- Node3 -->
<g id="node3" class="node">
<title>Node3</title>
<g id="a_node3"><a xlink:href="../../dc/d38/classCantera_1_1ThermoPhase.html" target="_top" xlink:title="Base class for a phase with thermodynamic properties.">
<polygon fill="white" stroke="#666666" points="166,-151 89,-151 89,-132 166,-132 166,-151"/>
<text text-anchor="middle" x="127.5" y="-139" font-family="Helvetica,sans-Serif" font-size="10.00">ThermoPhase</text>
</a>
</g>
</g>
<!-- Node3&#45;&gt;Node2 -->
<g id="edge2" class="edge">
<title>Node3&#45;&gt;Node2</title>
<path fill="none" stroke="#63b8ff" d="M127.5,-121.58C127.5,-109.63 127.5,-94.72 127.5,-85.41"/>
<polygon fill="#63b8ff" stroke="#63b8ff" points="124,-121.87 127.5,-131.87 131,-121.87 124,-121.87"/>
</g>
<!-- Node4 -->
<g id="node4" class="node">
<title>Node4</title>
<g id="a_node4"><a xlink:href="../../d6/d0e/classCantera_1_1Phase.html" target="_top" xlink:title="Class Phase is the base class for phases of matter, managing the species and elements in a phase,...">
<polygon fill="white" stroke="#666666" points="56.5,-217 12.5,-217 12.5,-198 56.5,-198 56.5,-217"/>
<text text-anchor="middle" x="34.5" y="-205" font-family="Helvetica,sans-Serif" font-size="10.00">Phase</text>
</a>
</g>
</g>
<!-- Node4&#45;&gt;Node3 -->
<g id="edge3" class="edge">
<title>Node4&#45;&gt;Node3</title>
<path fill="none" stroke="#63b8ff" d="M55.31,-192.18C73.58,-179.61 99.56,-161.73 114.86,-151.2"/>
<polygon fill="#63b8ff" stroke="#63b8ff" points="53.3,-189.32 47.04,-197.87 57.26,-195.08 53.3,-189.32"/>
</g>
<!-- Node5 -->
<g id="node5" class="node">
<title>Node5</title>
<g id="a_node5"><a xlink:href="../../d8/d89/classCantera_1_1ValueCache.html" target="_top" xlink:title=" ">
<polygon fill="white" stroke="#666666" points="69,-283 0,-283 0,-264 69,-264 69,-283"/>
<text text-anchor="middle" x="34.5" y="-271" font-family="Helvetica,sans-Serif" font-size="10.00">ValueCache</text>
</a>
</g>
</g>
<!-- Node5&#45;&gt;Node4 -->
<g id="edge4" class="edge">
<title>Node5&#45;&gt;Node4</title>
<path fill="none" stroke="#9a32cd" stroke-dasharray="5,2" d="M34.5,-253.58C34.5,-241.63 34.5,-226.72 34.5,-217.41"/>
<polygon fill="#9a32cd" stroke="#9a32cd" points="31,-253.87 34.5,-263.87 38,-253.87 31,-253.87"/>
<text text-anchor="middle" x="56" y="-238" font-family="Helvetica,sans-Serif" font-size="10.00"> m_cache</text>
</g>
<!-- Node6 -->
<g id="node6" class="node">
<title>Node6</title>
<g id="a_node6"><a xlink:href="../../d5/dda/classCantera_1_1MultiSpeciesThermo.html" target="_top" xlink:title="A species thermodynamic property manager for a phase.">
<polygon fill="white" stroke="#666666" points="180.5,-217 74.5,-217 74.5,-198 180.5,-198 180.5,-217"/>
<text text-anchor="middle" x="127.5" y="-205" font-family="Helvetica,sans-Serif" font-size="10.00">MultiSpeciesThermo</text>
</a>
</g>
</g>
<!-- Node6&#45;&gt;Node3 -->
<g id="edge5" class="edge">
<title>Node6&#45;&gt;Node3</title>
<path fill="none" stroke="#9a32cd" stroke-dasharray="5,2" d="M127.5,-187.58C127.5,-175.63 127.5,-160.72 127.5,-151.41"/>
<polygon fill="#9a32cd" stroke="#9a32cd" points="124,-187.87 127.5,-197.87 131,-187.87 124,-187.87"/>
<text text-anchor="middle" x="156.5" y="-172" font-family="Helvetica,sans-Serif" font-size="10.00"> m_spthermo</text>
</g>
<!-- Node7 -->
<g id="node7" class="node">
<title>Node7</title>
<g id="a_node7"><a xlink:href="../../db/d74/classCantera_1_1AnyMap.html" target="_top" xlink:title="A map of string keys to values whose type can vary at runtime.">
<polygon fill="white" stroke="#666666" points="252,-217 199,-217 199,-198 252,-198 252,-217"/>
<text text-anchor="middle" x="225.5" y="-205" font-family="Helvetica,sans-Serif" font-size="10.00">AnyMap</text>
</a>
</g>
</g>
<!-- Node7&#45;&gt;Node3 -->
<g id="edge6" class="edge">
<title>Node7&#45;&gt;Node3</title>
<path fill="none" stroke="#9a32cd" stroke-dasharray="5,2" d="M212.3,-190C205.97,-182.86 197.93,-174.83 189.5,-169 178.62,-161.48 165.26,-155.43 153.74,-151.03"/>
<polygon fill="#9a32cd" stroke="#9a32cd" points="209.74,-192.4 218.87,-197.79 215.09,-187.89 209.74,-192.4"/>
<text text-anchor="middle" x="222.5" y="-172" font-family="Helvetica,sans-Serif" font-size="10.00"> m_input</text>
</g>
<!-- Node8 -->
<g id="node8" class="node">
<title>Node8</title>
<g id="a_node8"><a xlink:href="../../d9/d23/classCantera_1_1AnyBase.html" target="_top" xlink:title="Base class defining common data possessed by both AnyMap and AnyValue objects.">
<polygon fill="white" stroke="#666666" points="253.5,-283 197.5,-283 197.5,-264 253.5,-264 253.5,-283"/>
<text text-anchor="middle" x="225.5" y="-271" font-family="Helvetica,sans-Serif" font-size="10.00">AnyBase</text>
</a>
</g>
</g>
<!-- Node8&#45;&gt;Node7 -->
<g id="edge7" class="edge">
<title>Node8&#45;&gt;Node7</title>
<path fill="none" stroke="#63b8ff" d="M225.5,-253.58C225.5,-241.63 225.5,-226.72 225.5,-217.41"/>
<polygon fill="#63b8ff" stroke="#63b8ff" points="222,-253.87 225.5,-263.87 229,-253.87 222,-253.87"/>
</g>
<!-- Node9 -->
<g id="node9" class="node">
<title>Node9</title>
<g id="a_node9"><a xlink:href="../../d9/d05/classCantera_1_1WaterPropsIAPWS.html" target="_top" xlink:title="Class for calculating the equation of state of water.">
<polygon fill="white" stroke="#666666" points="293,-85 192,-85 192,-66 293,-66 293,-85"/>
<text text-anchor="middle" x="242.5" y="-73" font-family="Helvetica,sans-Serif" font-size="10.00">WaterPropsIAPWS</text>
</a>
</g>
</g>
<!-- Node9&#45;&gt;Node1 -->
<g id="edge8" class="edge">
<title>Node9&#45;&gt;Node1</title>
<path fill="none" stroke="#9a32cd" stroke-dasharray="5,2" d="M227.66,-58.12C216.5,-45.81 201.62,-29.39 192.57,-19.41"/>
<polygon fill="#9a32cd" stroke="#9a32cd" points="225.37,-60.81 234.68,-65.87 230.56,-56.11 225.37,-60.81"/>
<text text-anchor="middle" x="234" y="-40" font-family="Helvetica,sans-Serif" font-size="10.00"> m_sub</text>
</g>
<!-- Node10 -->
<g id="node10" class="node">
<title>Node10</title>
<g id="a_node10"><a xlink:href="../../d2/d40/classCantera_1_1WaterPropsIAPWSphi.html" target="_top" xlink:title="Low level class for the real description of water.">
<polygon fill="white" stroke="#666666" points="299,-151 186,-151 186,-132 299,-132 299,-151"/>
<text text-anchor="middle" x="242.5" y="-139" font-family="Helvetica,sans-Serif" font-size="10.00">WaterPropsIAPWSphi</text>
</a>
</g>
</g>
<!-- Node10&#45;&gt;Node9 -->
<g id="edge9" class="edge">
<title>Node10&#45;&gt;Node9</title>
<path fill="none" stroke="#9a32cd" stroke-dasharray="5,2" d="M242.5,-121.58C242.5,-109.63 242.5,-94.72 242.5,-85.41"/>
<polygon fill="#9a32cd" stroke="#9a32cd" points="239,-121.87 242.5,-131.87 246,-121.87 239,-121.87"/>
<text text-anchor="middle" x="257.5" y="-106" font-family="Helvetica,sans-Serif" font-size="10.00"> m_phi</text>
</g>
</g>
</svg>
