<?xml version="1.0" encoding="UTF-8" standalone="no"?>
<!DOCTYPE svg PUBLIC "-//W3C//DTD SVG 1.1//EN"
 "http://www.w3.org/Graphics/SVG/1.1/DTD/svg11.dtd">
<!-- Generated by graphviz version 2.50.0 (0)
 -->
<!-- Title: vcs_internal.h Pages: 1 -->
<svg width="498pt" height="196pt"
 viewBox="0.00 0.00 498.00 196.00" xmlns="http://www.w3.org/2000/svg" xmlns:xlink="http://www.w3.org/1999/xlink">
<g id="graph0" class="graph" transform="scale(1 1) rotate(0) translate(4 192)">
<title>vcs_internal.h</title>
<polygon fill="white" stroke="transparent" points="-4,4 -4,-192 494,-192 494,4 -4,4"/>
<!-- Node1 -->
<g id="node1" class="node">
<title>Node1</title>
<g id="a_node1"><a xlink:title="Internal declarations for the VCSnonideal package.">
<polygon fill="#bfbfbf" stroke="black" points="286.5,-168.5 286.5,-187.5 363.5,-187.5 363.5,-168.5 286.5,-168.5"/>
<text text-anchor="middle" x="325" y="-175.5" font-family="Helvetica,sans-Serif" font-size="10.00">vcs_internal.h</text>
</a>
</g>
</g>
<!-- Node2 -->
<g id="node2" class="node">
<title>Node2</title>
<g id="a_node2"><a xlink:href="../../d4/d51/vcs__solve_8h.html" target="_top" xlink:title="Header file for the internal object that holds the vcs equilibrium problem (see Class VCS_SOLVE and C...">
<polygon fill="white" stroke="black" points="247.5,-112.5 247.5,-131.5 316.5,-131.5 316.5,-112.5 247.5,-112.5"/>
<text text-anchor="middle" x="282" y="-119.5" font-family="Helvetica,sans-Serif" font-size="10.00">vcs_solve.h</text>
</a>
</g>
</g>
<!-- Node1&#45;&gt;Node2 -->
<g id="edge1" class="edge">
<title>Node1&#45;&gt;Node2</title>
<path fill="none" stroke="midnightblue" d="M311.58,-160.14C304.09,-150.74 295.06,-139.4 288.97,-131.75"/>
<polygon fill="midnightblue" stroke="midnightblue" points="308.93,-162.44 317.9,-168.08 314.41,-158.08 308.93,-162.44"/>
</g>
<!-- Node9 -->
<g id="node9" class="node">
<title>Node9</title>
<g id="a_node9"><a xlink:href="../../da/ddf/vcs__util_8cpp.html" target="_top" xlink:title="Internal definitions for utility functions for the VCSnonideal package.">
<polygon fill="white" stroke="black" points="334.5,-112.5 334.5,-131.5 403.5,-131.5 403.5,-112.5 334.5,-112.5"/>
<text text-anchor="middle" x="369" y="-119.5" font-family="Helvetica,sans-Serif" font-size="10.00">vcs_util.cpp</text>
</a>
</g>
</g>
<!-- Node1&#45;&gt;Node9 -->
<g id="edge8" class="edge">
<title>Node1&#45;&gt;Node9</title>
<path fill="none" stroke="midnightblue" d="M338.73,-160.14C346.4,-150.74 355.63,-139.4 361.87,-131.75"/>
<polygon fill="midnightblue" stroke="midnightblue" points="335.87,-158.12 332.27,-168.08 341.3,-162.54 335.87,-158.12"/>
</g>
<!-- Node3 -->
<g id="node3" class="node">
<title>Node3</title>
<g id="a_node3"><a xlink:href="../../d1/dc3/vcs__MultiPhaseEquil_8h.html" target="_top" xlink:title="Interface class for the vcsnonlinear solver.">
<polygon fill="white" stroke="black" points="46,-56.5 46,-75.5 162,-75.5 162,-56.5 46,-56.5"/>
<text text-anchor="middle" x="104" y="-63.5" font-family="Helvetica,sans-Serif" font-size="10.00">vcs_MultiPhaseEquil.h</text>
</a>
</g>
</g>
<!-- Node2&#45;&gt;Node3 -->
<g id="edge2" class="edge">
<title>Node2&#45;&gt;Node3</title>
<path fill="none" stroke="midnightblue" d="M243.88,-109.44C210.32,-99.26 162.23,-84.66 132.07,-75.52"/>
<polygon fill="midnightblue" stroke="midnightblue" points="243.21,-112.89 253.8,-112.44 245.24,-106.19 243.21,-112.89"/>
</g>
<!-- Node6 -->
<g id="node6" class="node">
<title>Node6</title>
<g id="a_node6"><a xlink:href="../../dc/d27/vcs__VolPhase_8cpp.html" target="_top" xlink:title=" ">
<polygon fill="white" stroke="black" points="180,-56.5 180,-75.5 278,-75.5 278,-56.5 180,-56.5"/>
<text text-anchor="middle" x="229" y="-63.5" font-family="Helvetica,sans-Serif" font-size="10.00">vcs_VolPhase.cpp</text>
</a>
</g>
</g>
<!-- Node2&#45;&gt;Node6 -->
<g id="edge5" class="edge">
<title>Node2&#45;&gt;Node6</title>
<path fill="none" stroke="midnightblue" d="M266.02,-104.72C256.68,-95.2 245.25,-83.56 237.59,-75.75"/>
<polygon fill="midnightblue" stroke="midnightblue" points="263.75,-107.4 273.25,-112.08 268.74,-102.49 263.75,-107.4"/>
</g>
<!-- Node7 -->
<g id="node7" class="node">
<title>Node7</title>
<g id="a_node7"><a xlink:href="../../dc/d88/vcs__solve_8cpp.html" target="_top" xlink:title=" ">
<polygon fill="white" stroke="black" points="296,-56.5 296,-75.5 376,-75.5 376,-56.5 296,-56.5"/>
<text text-anchor="middle" x="336" y="-63.5" font-family="Helvetica,sans-Serif" font-size="10.00">vcs_solve.cpp</text>
</a>
</g>
</g>
<!-- Node2&#45;&gt;Node7 -->
<g id="edge6" class="edge">
<title>Node2&#45;&gt;Node7</title>
<path fill="none" stroke="midnightblue" d="M298,-105C307.57,-95.43 319.36,-83.64 327.25,-75.75"/>
<polygon fill="midnightblue" stroke="midnightblue" points="295.51,-102.54 290.92,-112.08 300.46,-107.49 295.51,-102.54"/>
</g>
<!-- Node8 -->
<g id="node8" class="node">
<title>Node8</title>
<g id="a_node8"><a xlink:href="../../d7/dec/vcs__solve__TP_8cpp.html" target="_top" xlink:title="Implementation file that contains the main algorithm for finding an equilibrium.">
<polygon fill="white" stroke="black" points="394,-56.5 394,-75.5 490,-75.5 490,-56.5 394,-56.5"/>
<text text-anchor="middle" x="442" y="-63.5" font-family="Helvetica,sans-Serif" font-size="10.00">vcs_solve_TP.cpp</text>
</a>
</g>
</g>
<!-- Node2&#45;&gt;Node8 -->
<g id="edge7" class="edge">
<title>Node2&#45;&gt;Node8</title>
<path fill="none" stroke="midnightblue" d="M317.05,-109.17C347.17,-99 389.9,-84.59 416.77,-75.52"/>
<polygon fill="midnightblue" stroke="midnightblue" points="315.71,-105.93 307.35,-112.44 317.95,-112.56 315.71,-105.93"/>
</g>
<!-- Node4 -->
<g id="node4" class="node">
<title>Node4</title>
<g id="a_node4"><a xlink:href="../../df/d2b/MultiPhase_8cpp.html" target="_top" xlink:title="Definitions for the MultiPhase object that is used to set up multiphase equilibrium problems (see Cla...">
<polygon fill="white" stroke="black" points="0,-0.5 0,-19.5 84,-19.5 84,-0.5 0,-0.5"/>
<text text-anchor="middle" x="42" y="-7.5" font-family="Helvetica,sans-Serif" font-size="10.00">MultiPhase.cpp</text>
</a>
</g>
</g>
<!-- Node3&#45;&gt;Node4 -->
<g id="edge3" class="edge">
<title>Node3&#45;&gt;Node4</title>
<path fill="none" stroke="midnightblue" d="M86.25,-49.54C75.19,-39.91 61.37,-27.87 52.14,-19.83"/>
<polygon fill="midnightblue" stroke="midnightblue" points="84.2,-52.4 94.04,-56.32 88.8,-47.12 84.2,-52.4"/>
</g>
<!-- Node5 -->
<g id="node5" class="node">
<title>Node5</title>
<g id="a_node5"><a xlink:href="../../dc/d00/vcs__MultiPhaseEquil_8cpp.html" target="_top" xlink:title="Driver routine for the VCSnonideal equilibrium solver package.">
<polygon fill="white" stroke="black" points="102.5,-0.5 102.5,-19.5 229.5,-19.5 229.5,-0.5 102.5,-0.5"/>
<text text-anchor="middle" x="166" y="-7.5" font-family="Helvetica,sans-Serif" font-size="10.00">vcs_MultiPhaseEquil.cpp</text>
</a>
</g>
</g>
<!-- Node3&#45;&gt;Node5 -->
<g id="edge4" class="edge">
<title>Node3&#45;&gt;Node5</title>
<path fill="none" stroke="midnightblue" d="M121.75,-49.54C132.81,-39.91 146.63,-27.87 155.86,-19.83"/>
<polygon fill="midnightblue" stroke="midnightblue" points="119.2,-47.12 113.96,-56.32 123.8,-52.4 119.2,-47.12"/>
</g>
</g>
</svg>
