<?xml version="1.0" encoding="UTF-8" standalone="no"?>
<!DOCTYPE svg PUBLIC "-//W3C//DTD SVG 1.1//EN"
 "http://www.w3.org/Graphics/SVG/1.1/DTD/svg11.dtd">
<!-- Generated by graphviz version 2.43.0 (0)
 -->
<!-- Title: ImplicitSurfChem.cpp Pages: 1 -->
<!--zoomable 489 -->

<svg id="main" version="1.1" xmlns="http://www.w3.org/2000/svg" xmlns:xlink="http://www.w3.org/1999/xlink" xml:space="preserve" onload="init(evt)">
<style type="text/css"><![CDATA[
.node, .edge {opacity: 0.7;}
.node.selected, .edge.selected {opacity: 1;}
.edge:hover path { stroke: red; }
.edge:hover polygon { stroke: red; fill: red; }
]]></style>

<defs>
  <circle id="rim" cx="0" cy="0" r="7"/>
  <circle id="rim2" cx="0" cy="0" r="3.5"/>
  <g id="zoomPlus">
    <use xlink:href="#rim" fill="#404040"><set attributeName="fill" to="#808080" begin="zoomplus.mouseover" end="zoomplus.mouseout"/></use>
    <path d="M-4,0h8M0,-4v8" fill="none" stroke="white" stroke-width="1.5" pointer-events="none"/>
  </g>
  <g id="zoomMin">
    <use xlink:href="#rim" fill="#404040"><set attributeName="fill" to="#808080" begin="zoomminus.mouseover" end="zoomminus.mouseout"/></use>
    <path d="M-4,0h8" fill="none" stroke="white" stroke-width="1.5" pointer-events="none"/>
  </g>
  <g id="arrowUp" transform="translate(30 24)">
    <use xlink:href="#rim"/>
    <path pointer-events="none" fill="none" stroke="white" stroke-width="1.5" d="M0,-3.0v7 M-2.5,-0.5L0,-3.0L2.5,-0.5"/>
  </g>
  <g id="arrowRight" transform="rotate(90) translate(36 -43)">
    <use xlink:href="#rim"/>
    <path pointer-events="none" fill="none" stroke="white" stroke-width="1.5" d="M0,-3.0v7 M-2.5,-0.5L0,-3.0L2.5,-0.5"/>
  </g>
  <g id="arrowDown" transform="rotate(180) translate(-30 -48)">
    <use xlink:href="#rim"/>
    <path pointer-events="none" fill="none" stroke="white" stroke-width="1.5" d="M0,-3.0v7 M-2.5,-0.5L0,-3.0L2.5,-0.5"/>
  </g>
  <g id="arrowLeft" transform="rotate(270) translate(-36 17)">
    <use xlink:href="#rim"/>
    <path pointer-events="none" fill="none" stroke="white" stroke-width="1.5" d="M0,-3.0v7 M-2.5,-0.5L0,-3.0L2.5,-0.5"/>
  </g>
  <g id="resetDef">
    <use xlink:href="#rim2" fill="#404040"><set attributeName="fill" to="#808080" begin="reset.mouseover" end="reset.mouseout"/></use>
  </g>
</defs>
<script type="application/ecmascript">
var viewWidth = 1589;
var viewHeight = 489;
var sectionId = 'dynsection-0';
</script>
<script type="application/ecmascript" xlink:href="../../svg.min.js"/>
<svg id="graph" class="graph">
<g id="viewport">
<title>ImplicitSurfChem.cpp</title>
<!-- Node1 -->
<g id="Node000001" class="node">
<title>Node1</title>
<g id="a_Node000001"><a xlink:title="Definitions for the implicit integration of surface site density equations (see Kinetics Managers and...">
<polygon fill="#999999" stroke="#666666" points="639,-481 517,-481 517,-462 639,-462 639,-481"/>
<text text-anchor="middle" x="578" y="-469" font-family="Helvetica,sans-Serif" font-size="10.00">ImplicitSurfChem.cpp</text>
</a>
</g>
</g>
<!-- Node2 -->
<g id="Node000002" class="node">
<title>Node2</title>
<g id="a_Node000002"><a xlink:href="../../da/d1f/ImplicitSurfChem_8h.html" target="_top" xlink:title="Declarations for the implicit integration of surface site density equations (see Kinetics Managers an...">
<polygon fill="white" stroke="#666666" points="645,-426 511,-426 511,-396 645,-396 645,-426"/>
<text text-anchor="start" x="519" y="-414" font-family="Helvetica,sans-Serif" font-size="10.00">cantera/kinetics/Implicit</text>
<text text-anchor="middle" x="578" y="-403" font-family="Helvetica,sans-Serif" font-size="10.00">SurfChem.h</text>
</a>
</g>
</g>
<!-- Node1&#45;&gt;Node2 -->
<g id="edge1_Node000001_Node000002" class="edge">
<title>Node1&#45;&gt;Node2</title>
<g id="a_edge1_Node000001_Node000002"><a xlink:title=" ">
<path fill="none" stroke="#63b8ff" d="M578,-461.87C578,-455.11 578,-445.35 578,-436.26"/>
<polygon fill="#63b8ff" stroke="#63b8ff" points="581.5,-436.11 578,-426.11 574.5,-436.11 581.5,-436.11"/>
</a>
</g>
</g>
<!-- Node42 -->
<g id="Node000042" class="node">
<title>Node42</title>
<g id="a_Node000042"><a xlink:href="../../d2/d25/solveSP_8h.html" target="_top" xlink:title="Header file for implicit surface problem solver (see Chemical Kinetics and class solveSP).">
<polygon fill="white" stroke="#666666" points="549.5,-360 406.5,-360 406.5,-341 549.5,-341 549.5,-360"/>
<text text-anchor="middle" x="478" y="-348" font-family="Helvetica,sans-Serif" font-size="10.00">cantera/kinetics/solveSP.h</text>
</a>
</g>
</g>
<!-- Node1&#45;&gt;Node42 -->
<g id="edge46_Node000001_Node000042" class="edge">
<title>Node1&#45;&gt;Node42</title>
<g id="a_edge46_Node000001_Node000042"><a xlink:title=" ">
<path fill="none" stroke="#63b8ff" d="M554.29,-461.96C537.49,-454.77 515.59,-442.93 502,-426 489.01,-409.81 482.97,-386.42 480.22,-370.18"/>
<polygon fill="#63b8ff" stroke="#63b8ff" points="483.68,-369.66 478.8,-360.26 476.75,-370.66 483.68,-369.66"/>
</a>
</g>
</g>
<!-- Node46 -->
<g id="Node000046" class="node">
<title>Node46</title>
<g id="a_Node000046"><a xlink:href="../../d2/de5/SurfPhase_8h.html" target="_top" xlink:title="Header for a simple thermodynamics model of a surface phase derived from ThermoPhase,...">
<polygon fill="white" stroke="#666666" points="914,-420.5 762,-420.5 762,-401.5 914,-401.5 914,-420.5"/>
<text text-anchor="middle" x="838" y="-408.5" font-family="Helvetica,sans-Serif" font-size="10.00">cantera/thermo/SurfPhase.h</text>
</a>
</g>
</g>
<!-- Node1&#45;&gt;Node46 -->
<g id="edge47_Node000001_Node000046" class="edge">
<title>Node1&#45;&gt;Node46</title>
<g id="a_edge47_Node000001_Node000046"><a xlink:title=" ">
<path fill="none" stroke="#63b8ff" d="M615.81,-461.99C661.92,-451.62 739.93,-434.07 790.18,-422.76"/>
<polygon fill="#63b8ff" stroke="#63b8ff" points="791.16,-426.13 800.15,-420.52 789.62,-419.3 791.16,-426.13"/>
</a>
</g>
</g>
<!-- Node3 -->
<g id="Node000003" class="node">
<title>Node3</title>
<g id="a_Node000003"><a xlink:href="../../d8/d97/Integrator_8h.html" target="_top" xlink:title=" ">
<polygon fill="white" stroke="#666666" points="928.5,-184 767.5,-184 767.5,-165 928.5,-165 928.5,-184"/>
<text text-anchor="middle" x="848" y="-172" font-family="Helvetica,sans-Serif" font-size="10.00">cantera/numerics/Integrator.h</text>
</a>
</g>
</g>
<!-- Node2&#45;&gt;Node3 -->
<g id="edge2_Node000002_Node000003" class="edge">
<title>Node2&#45;&gt;Node3</title>
<g id="a_edge2_Node000002_Node000003"><a xlink:title=" ">
<path fill="none" stroke="#63b8ff" d="M594.48,-395.68C642.43,-354.04 781.54,-233.22 830.61,-190.6"/>
<polygon fill="#63b8ff" stroke="#63b8ff" points="832.94,-193.22 838.19,-184.02 828.35,-187.93 832.94,-193.22"/>
</a>
</g>
</g>
<!-- Node30 -->
<g id="Node000030" class="node">
<title>Node30</title>
<g id="a_Node000030"><a xlink:href="../../d7/d0d/InterfaceKinetics_8h.html" target="_top" xlink:title=" ">
<polygon fill="white" stroke="#666666" points="548.5,-305 407.5,-305 407.5,-275 548.5,-275 548.5,-305"/>
<text text-anchor="start" x="415.5" y="-293" font-family="Helvetica,sans-Serif" font-size="10.00">cantera/kinetics/Interface</text>
<text text-anchor="middle" x="478" y="-282" font-family="Helvetica,sans-Serif" font-size="10.00">Kinetics.h</text>
</a>
</g>
</g>
<!-- Node2&#45;&gt;Node30 -->
<g id="edge22_Node000002_Node000030" class="edge">
<title>Node2&#45;&gt;Node30</title>
<g id="a_edge22_Node000002_Node000030"><a xlink:title=" ">
<path fill="none" stroke="#63b8ff" d="M576.89,-395.99C575.07,-381.05 570.33,-357.32 558,-341 548.28,-328.14 534.21,-317.77 520.56,-309.89"/>
<polygon fill="#63b8ff" stroke="#63b8ff" points="522.17,-306.78 511.71,-305.06 518.82,-312.92 522.17,-306.78"/>
</a>
</g>
</g>
<!-- Node2&#45;&gt;Node42 -->
<g id="edge39_Node000002_Node000042" class="edge">
<title>Node2&#45;&gt;Node42</title>
<g id="a_edge39_Node000002_Node000042"><a xlink:title=" ">
<path fill="none" stroke="#63b8ff" d="M554.05,-395.99C538.11,-386.66 517.27,-374.47 501.44,-365.21"/>
<polygon fill="#63b8ff" stroke="#63b8ff" points="503.17,-362.17 492.77,-360.14 499.63,-368.21 503.17,-362.17"/>
</a>
</g>
</g>
<!-- Node4 -->
<g id="Node000004" class="node">
<title>Node4</title>
<g id="a_Node000004"><a xlink:href="../../da/d37/FuncEval_8h.html" target="_top" xlink:title=" ">
<polygon fill="white" stroke="#666666" points="882.5,-129 813.5,-129 813.5,-110 882.5,-110 882.5,-129"/>
<text text-anchor="middle" x="848" y="-117" font-family="Helvetica,sans-Serif" font-size="10.00">FuncEval.h</text>
</a>
</g>
</g>
<!-- Node3&#45;&gt;Node4 -->
<g id="edge3_Node000003_Node000004" class="edge">
<title>Node3&#45;&gt;Node4</title>
<g id="a_edge3_Node000003_Node000004"><a xlink:title=" ">
<path fill="none" stroke="#63b8ff" d="M848,-164.75C848,-157.8 848,-147.85 848,-139.13"/>
<polygon fill="#63b8ff" stroke="#63b8ff" points="851.5,-139.09 848,-129.09 844.5,-139.09 851.5,-139.09"/>
</a>
</g>
</g>
<!-- Node22 -->
<g id="Node000022" class="node">
<title>Node22</title>
<g id="a_Node000022"><a xlink:href="../../d2/d49/global_8h.html" target="_top" xlink:title="This file contains definitions for utility functions and text for modules, inputfiles and logging,...">
<polygon fill="#fff0f0" stroke="red" points="962,-74 840,-74 840,-55 962,-55 962,-74"/>
<text text-anchor="middle" x="901" y="-62" font-family="Helvetica,sans-Serif" font-size="10.00">cantera/base/global.h</text>
</a>
</g>
</g>
<!-- Node3&#45;&gt;Node22 -->
<g id="edge11_Node000003_Node000022" class="edge">
<title>Node3&#45;&gt;Node22</title>
<g id="a_edge11_Node000003_Node000022"><a xlink:title=" ">
<path fill="none" stroke="#63b8ff" d="M877.14,-164.87C894.35,-158.1 914.74,-146.79 925,-129 933.61,-114.07 924.55,-95.48 915.2,-82.27"/>
<polygon fill="#63b8ff" stroke="#63b8ff" points="917.78,-79.88 908.89,-74.11 912.24,-84.16 917.78,-79.88"/>
</a>
</g>
</g>
<!-- Node23 -->
<g id="Node000023" class="node">
<title>Node23</title>
<g id="a_Node000023"><a xlink:href="../../d7/ddf/PreconditionerBase_8h.html" target="_top" xlink:title="Declarations for the class PreconditionerBase which is a virtual base class for preconditioning syste...">
<polygon fill="white" stroke="#666666" points="757,-129 637,-129 637,-110 757,-110 757,-129"/>
<text text-anchor="middle" x="697" y="-117" font-family="Helvetica,sans-Serif" font-size="10.00">PreconditionerBase.h</text>
</a>
</g>
</g>
<!-- Node3&#45;&gt;Node23 -->
<g id="edge9_Node000003_Node000023" class="edge">
<title>Node3&#45;&gt;Node23</title>
<g id="a_edge9_Node000003_Node000023"><a xlink:title=" ">
<path fill="none" stroke="#63b8ff" d="M823.74,-164.98C798.68,-156.19 759.37,-142.39 731.17,-132.49"/>
<polygon fill="#63b8ff" stroke="#63b8ff" points="732.3,-129.18 721.7,-129.17 729.98,-135.78 732.3,-129.18"/>
</a>
</g>
</g>
<!-- Node24 -->
<g id="Node000024" class="node">
<title>Node24</title>
<g id="a_Node000024"><a xlink:href="../../dd/d2a/AnyMap_8h.html" target="_top" xlink:title=" ">
<polygon fill="white" stroke="#666666" points="1212.5,-129 1081.5,-129 1081.5,-110 1212.5,-110 1212.5,-129"/>
<text text-anchor="middle" x="1147" y="-117" font-family="Helvetica,sans-Serif" font-size="10.00">cantera/base/AnyMap.h</text>
</a>
</g>
</g>
<!-- Node3&#45;&gt;Node24 -->
<g id="edge12_Node000003_Node000024" class="edge">
<title>Node3&#45;&gt;Node24</title>
<g id="a_edge12_Node000003_Node000024"><a xlink:title=" ">
<path fill="none" stroke="#63b8ff" d="M896.04,-164.98C948.41,-155.7 1032.24,-140.84 1088.43,-130.88"/>
<polygon fill="#63b8ff" stroke="#63b8ff" points="1089.35,-134.27 1098.58,-129.08 1088.13,-127.38 1089.35,-134.27"/>
</a>
</g>
</g>
<!-- Node5 -->
<g id="Node000005" class="node">
<title>Node5</title>
<g id="a_Node000005"><a xlink:href="../../d9/ddc/ct__defs_8h.html" target="_top" xlink:title="This file contains definitions of constants, types and terms that are used in internal routines and a...">
<polygon fill="#fff0f0" stroke="red" points="685.5,-19 558.5,-19 558.5,0 685.5,0 685.5,-19"/>
<text text-anchor="middle" x="622" y="-7" font-family="Helvetica,sans-Serif" font-size="10.00">cantera/base/ct_defs.h</text>
</a>
</g>
</g>
<!-- Node4&#45;&gt;Node5 -->
<g id="edge4_Node000004_Node000005" class="edge">
<title>Node4&#45;&gt;Node5</title>
<g id="a_edge4_Node000004_Node000005"><a xlink:title=" ">
<path fill="none" stroke="#63b8ff" d="M842.81,-109.62C834.24,-95.77 815.8,-69.16 793,-55 763.84,-36.89 727.51,-26.11 695.84,-19.71"/>
<polygon fill="#63b8ff" stroke="#63b8ff" points="696.21,-16.22 685.73,-17.78 694.9,-23.1 696.21,-16.22"/>
</a>
</g>
</g>
<!-- Node16 -->
<g id="Node000016" class="node">
<title>Node16</title>
<g id="a_Node000016"><a xlink:href="../../db/d98/ctexceptions_8h.html" target="_top" xlink:title="Definitions for the classes that are thrown when Cantera experiences an error condition (also contain...">
<polygon fill="#fff0f0" stroke="red" points="784,-74 630,-74 630,-55 784,-55 784,-74"/>
<text text-anchor="middle" x="707" y="-62" font-family="Helvetica,sans-Serif" font-size="10.00">cantera/base/ctexceptions.h</text>
</a>
</g>
</g>
<!-- Node4&#45;&gt;Node16 -->
<g id="edge5_Node000004_Node000016" class="edge">
<title>Node4&#45;&gt;Node16</title>
<g id="a_edge5_Node000004_Node000016"><a xlink:title=" ">
<path fill="none" stroke="#63b8ff" d="M825.35,-109.98C802.15,-101.27 765.88,-87.63 739.6,-77.75"/>
<polygon fill="#63b8ff" stroke="#63b8ff" points="740.66,-74.41 730.07,-74.17 738.2,-80.97 740.66,-74.41"/>
</a>
</g>
</g>
<!-- Node4&#45;&gt;Node22 -->
<g id="edge7_Node000004_Node000022" class="edge">
<title>Node4&#45;&gt;Node22</title>
<g id="a_edge7_Node000004_Node000022"><a xlink:title=" ">
<path fill="none" stroke="#63b8ff" d="M856.75,-109.75C864.47,-102.03 875.9,-90.6 885.22,-81.28"/>
<polygon fill="#63b8ff" stroke="#63b8ff" points="887.81,-83.64 892.41,-74.09 882.86,-78.69 887.81,-83.64"/>
</a>
</g>
</g>
<!-- Node16&#45;&gt;Node5 -->
<g id="edge6_Node000016_Node000005" class="edge">
<title>Node16&#45;&gt;Node5</title>
<g id="a_edge6_Node000016_Node000005"><a xlink:title=" ">
<path fill="none" stroke="#63b8ff" d="M693.34,-54.98C680.16,-46.77 659.97,-34.18 644.43,-24.49"/>
<polygon fill="#63b8ff" stroke="#63b8ff" points="646.24,-21.49 635.91,-19.17 642.54,-27.43 646.24,-21.49"/>
</a>
</g>
</g>
<!-- Node22&#45;&gt;Node5 -->
<g id="edge8_Node000022_Node000005" class="edge">
<title>Node22&#45;&gt;Node5</title>
<g id="a_edge8_Node000022_Node000005"><a xlink:title=" ">
<path fill="none" stroke="#63b8ff" d="M856.17,-54.98C807.51,-45.74 729.74,-30.97 677.31,-21.01"/>
<polygon fill="#63b8ff" stroke="#63b8ff" points="677.66,-17.51 667.18,-19.08 676.35,-24.39 677.66,-17.51"/>
</a>
</g>
</g>
<!-- Node23&#45;&gt;Node16 -->
<g id="edge10_Node000023_Node000016" class="edge">
<title>Node23&#45;&gt;Node16</title>
<g id="a_edge10_Node000023_Node000016"><a xlink:title=" ">
<path fill="none" stroke="#63b8ff" d="M698.65,-109.75C699.96,-102.8 701.84,-92.85 703.48,-84.13"/>
<polygon fill="#63b8ff" stroke="#63b8ff" points="706.96,-84.56 705.38,-74.09 700.09,-83.27 706.96,-84.56"/>
</a>
</g>
</g>
<!-- Node24&#45;&gt;Node5 -->
<g id="edge13_Node000024_Node000005" class="edge">
<title>Node24&#45;&gt;Node5</title>
<g id="a_edge13_Node000024_Node000005"><a xlink:title=" ">
<path fill="none" stroke="#63b8ff" d="M1144.3,-109.69C1139.41,-95.45 1127.66,-67.67 1107,-55 1072.79,-34.02 822.56,-19.68 695.54,-13.68"/>
<polygon fill="#63b8ff" stroke="#63b8ff" points="695.66,-10.18 685.5,-13.21 695.33,-17.17 695.66,-10.18"/>
</a>
</g>
</g>
<!-- Node24&#45;&gt;Node16 -->
<g id="edge14_Node000024_Node000016" class="edge">
<title>Node24&#45;&gt;Node16</title>
<g id="a_edge14_Node000024_Node000016"><a xlink:title=" ">
<path fill="none" stroke="#63b8ff" d="M1081.13,-110.57C1002.8,-101.13 872.09,-85.39 787.75,-75.23"/>
<polygon fill="#63b8ff" stroke="#63b8ff" points="788.05,-71.74 777.7,-74.02 787.21,-78.69 788.05,-71.74"/>
</a>
</g>
</g>
<!-- Node25 -->
<g id="Node000025" class="node">
<title>Node25</title>
<g id="a_Node000025"><a xlink:href="../../da/d58/Units_8h.html" target="_top" xlink:title="Header for unit conversion utilities, which are used to translate user input from input files (See In...">
<polygon fill="white" stroke="#666666" points="1097.5,-74 980.5,-74 980.5,-55 1097.5,-55 1097.5,-74"/>
<text text-anchor="middle" x="1039" y="-62" font-family="Helvetica,sans-Serif" font-size="10.00">cantera/base/Units.h</text>
</a>
</g>
</g>
<!-- Node24&#45;&gt;Node25 -->
<g id="edge15_Node000024_Node000025" class="edge">
<title>Node24&#45;&gt;Node25</title>
<g id="a_edge15_Node000024_Node000025"><a xlink:title=" ">
<path fill="none" stroke="#63b8ff" d="M1129.65,-109.98C1112.43,-101.54 1085.8,-88.47 1065.85,-78.68"/>
<polygon fill="#63b8ff" stroke="#63b8ff" points="1067.19,-75.43 1056.67,-74.17 1064.1,-81.72 1067.19,-75.43"/>
</a>
</g>
</g>
<!-- Node26 -->
<g id="Node000026" class="node">
<title>Node26</title>
<g id="a_Node000026"><a xlink:title=" ">
<polygon fill="#e0e0e0" stroke="#999999" points="1411.5,-74 1318.5,-74 1318.5,-55 1411.5,-55 1411.5,-74"/>
<text text-anchor="middle" x="1365" y="-62" font-family="Helvetica,sans-Serif" font-size="10.00">unordered_map</text>
</a>
</g>
</g>
<!-- Node24&#45;&gt;Node26 -->
<g id="edge17_Node000024_Node000026" class="edge">
<title>Node24&#45;&gt;Node26</title>
<g id="a_edge17_Node000024_Node000026"><a xlink:title=" ">
<path fill="none" stroke="#63b8ff" d="M1182.03,-109.98C1219.5,-100.87 1279.05,-86.4 1319.98,-76.45"/>
<polygon fill="#63b8ff" stroke="#63b8ff" points="1320.81,-79.85 1329.7,-74.08 1319.16,-73.04 1320.81,-79.85"/>
</a>
</g>
</g>
<!-- Node27 -->
<g id="Node000027" class="node">
<title>Node27</title>
<g id="a_Node000027"><a xlink:title=" ">
<polygon fill="#e0e0e0" stroke="#999999" points="1498,-74 1430,-74 1430,-55 1498,-55 1498,-74"/>
<text text-anchor="middle" x="1464" y="-62" font-family="Helvetica,sans-Serif" font-size="10.00">filesystem</text>
</a>
</g>
</g>
<!-- Node24&#45;&gt;Node27 -->
<g id="edge18_Node000024_Node000027" class="edge">
<title>Node24&#45;&gt;Node27</title>
<g id="a_edge18_Node000024_Node000027"><a xlink:title=" ">
<path fill="none" stroke="#63b8ff" d="M1202.98,-109.98C1256.26,-101.74 1338.93,-88.63 1419.89,-74.15"/>
<polygon fill="#63b8ff" stroke="#63b8ff" points="1420.53,-77.59 1429.75,-72.38 1419.29,-70.7 1420.53,-77.59"/>
</a>
</g>
</g>
<!-- Node28 -->
<g id="Node000028" class="node">
<title>Node28</title>
<g id="a_Node000028"><a xlink:title=" ">
<polygon fill="#e0e0e0" stroke="#999999" points="1551.5,-74 1516.5,-74 1516.5,-55 1551.5,-55 1551.5,-74"/>
<text text-anchor="middle" x="1534" y="-62" font-family="Helvetica,sans-Serif" font-size="10.00">any</text>
</a>
</g>
</g>
<!-- Node24&#45;&gt;Node28 -->
<g id="edge19_Node000024_Node000028" class="edge">
<title>Node24&#45;&gt;Node28</title>
<g id="a_edge19_Node000024_Node000028"><a xlink:title=" ">
<path fill="none" stroke="#63b8ff" d="M1212.64,-113.99C1283.13,-108.34 1398.46,-96.77 1506.63,-73.67"/>
<polygon fill="#63b8ff" stroke="#63b8ff" points="1507.38,-77.09 1516.41,-71.54 1505.89,-70.25 1507.38,-77.09"/>
</a>
</g>
</g>
<!-- Node29 -->
<g id="Node000029" class="node">
<title>Node29</title>
<g id="a_Node000029"><a xlink:href="../../da/d4c/AnyMap_8inl_8h.html" target="_top" xlink:title=" ">
<polygon fill="white" stroke="#666666" points="1300,-74 1154,-74 1154,-55 1300,-55 1300,-74"/>
<text text-anchor="middle" x="1227" y="-62" font-family="Helvetica,sans-Serif" font-size="10.00">cantera/base/AnyMap.inl.h</text>
</a>
</g>
</g>
<!-- Node24&#45;&gt;Node29 -->
<g id="edge20_Node000024_Node000029" class="edge">
<title>Node24&#45;&gt;Node29</title>
<g id="a_edge20_Node000024_Node000029"><a xlink:title=" ">
<path fill="none" stroke="#63b8ff" d="M1154.74,-109.98C1165.33,-101.77 1184.03,-89.18 1199.86,-79.49"/>
<polygon fill="#63b8ff" stroke="#63b8ff" points="1201.97,-82.3 1208.76,-74.17 1198.38,-76.29 1201.97,-82.3"/>
</a>
</g>
</g>
<!-- Node25&#45;&gt;Node5 -->
<g id="edge16_Node000025_Node000005" class="edge">
<title>Node25&#45;&gt;Node5</title>
<g id="a_edge16_Node000025_Node000005"><a xlink:title=" ">
<path fill="none" stroke="#63b8ff" d="M980.14,-56.02C905.54,-46.54 776.92,-30.19 695.82,-19.88"/>
<polygon fill="#63b8ff" stroke="#63b8ff" points="696.05,-16.38 685.69,-18.59 695.16,-23.33 696.05,-16.38"/>
</a>
</g>
</g>
<!-- Node29&#45;&gt;Node24 -->
<g id="edge21_Node000029_Node000024" class="edge">
<title>Node29&#45;&gt;Node24</title>
<g id="a_edge21_Node000029_Node000024"><a xlink:title=" ">
<path fill="none" stroke="#63b8ff" d="M1219.06,-74.17C1208.37,-82.44 1189.64,-95.04 1173.85,-104.7"/>
<polygon fill="#63b8ff" stroke="#63b8ff" points="1171.77,-101.86 1164.97,-109.98 1175.35,-107.87 1171.77,-101.86"/>
</a>
</g>
</g>
<!-- Node31 -->
<g id="Node000031" class="node">
<title>Node31</title>
<g id="a_Node000031"><a xlink:href="../../d5/db4/Kinetics_8h.html" target="_top" xlink:title="Base class for kinetics managers and also contains the kineticsmgr module documentation (see Kinetics...">
<polygon fill="white" stroke="#666666" points="510.5,-184 445.5,-184 445.5,-165 510.5,-165 510.5,-184"/>
<text text-anchor="middle" x="478" y="-172" font-family="Helvetica,sans-Serif" font-size="10.00">Kinetics.h</text>
</a>
</g>
</g>
<!-- Node30&#45;&gt;Node31 -->
<g id="edge23_Node000030_Node000031" class="edge">
<title>Node30&#45;&gt;Node31</title>
<g id="a_edge23_Node000030_Node000031"><a xlink:title=" ">
<path fill="none" stroke="#63b8ff" d="M478,-274.63C478,-254.21 478,-216.81 478,-194.24"/>
<polygon fill="#63b8ff" stroke="#63b8ff" points="481.5,-194.23 478,-184.23 474.5,-194.23 481.5,-194.23"/>
</a>
</g>
</g>
<!-- Node37 -->
<g id="Node000037" class="node">
<title>Node37</title>
<g id="a_Node000037"><a xlink:href="../../d6/d42/MultiRate_8h.html" target="_top" xlink:title=" ">
<polygon fill="white" stroke="#666666" points="419.5,-239 346.5,-239 346.5,-220 419.5,-220 419.5,-239"/>
<text text-anchor="middle" x="383" y="-227" font-family="Helvetica,sans-Serif" font-size="10.00">MultiRate.h</text>
</a>
</g>
</g>
<!-- Node30&#45;&gt;Node37 -->
<g id="edge28_Node000030_Node000037" class="edge">
<title>Node30&#45;&gt;Node37</title>
<g id="a_edge28_Node000030_Node000037"><a xlink:title=" ">
<path fill="none" stroke="#63b8ff" d="M455,-274.84C440,-265.6 420.5,-253.59 405.57,-244.4"/>
<polygon fill="#63b8ff" stroke="#63b8ff" points="407.31,-241.36 396.96,-239.09 403.64,-247.32 407.31,-241.36"/>
</a>
</g>
</g>
<!-- Node32 -->
<g id="Node000032" class="node">
<title>Node32</title>
<g id="a_Node000032"><a xlink:href="../../dd/dfd/StoichManager_8h.html" target="_top" xlink:title=" ">
<polygon fill="#fff0f0" stroke="red" points="581,-129 483,-129 483,-110 581,-110 581,-129"/>
<text text-anchor="middle" x="532" y="-117" font-family="Helvetica,sans-Serif" font-size="10.00">StoichManager.h</text>
</a>
</g>
</g>
<!-- Node31&#45;&gt;Node32 -->
<g id="edge24_Node000031_Node000032" class="edge">
<title>Node31&#45;&gt;Node32</title>
<g id="a_edge24_Node000031_Node000032"><a xlink:title=" ">
<path fill="none" stroke="#63b8ff" d="M486.92,-164.75C494.78,-157.03 506.43,-145.6 515.92,-136.28"/>
<polygon fill="#63b8ff" stroke="#63b8ff" points="518.56,-138.59 523.25,-129.09 513.66,-133.6 518.56,-138.59"/>
</a>
</g>
</g>
<!-- Node35 -->
<g id="Node000035" class="node">
<title>Node35</title>
<g id="a_Node000035"><a xlink:href="../../d6/df6/ValueCache_8h.html" target="_top" xlink:title=" ">
<polygon fill="#fff0f0" stroke="red" points="444.5,-74 295.5,-74 295.5,-55 444.5,-55 444.5,-74"/>
<text text-anchor="middle" x="370" y="-62" font-family="Helvetica,sans-Serif" font-size="10.00">cantera/base/ValueCache.h</text>
</a>
</g>
</g>
<!-- Node31&#45;&gt;Node35 -->
<g id="edge26_Node000031_Node000035" class="edge">
<title>Node31&#45;&gt;Node35</title>
<g id="a_edge26_Node000031_Node000035"><a xlink:title=" ">
<path fill="none" stroke="#63b8ff" d="M455.03,-164.86C438.02,-157.5 415.25,-145.47 400,-129 388.11,-116.15 380.11,-97.73 375.39,-84.04"/>
<polygon fill="#63b8ff" stroke="#63b8ff" points="378.65,-82.74 372.29,-74.27 371.98,-84.86 378.65,-82.74"/>
</a>
</g>
</g>
<!-- Node32&#45;&gt;Node16 -->
<g id="edge25_Node000032_Node000016" class="edge">
<title>Node32&#45;&gt;Node16</title>
<g id="a_edge25_Node000032_Node000016"><a xlink:title=" ">
<path fill="none" stroke="#63b8ff" d="M560.12,-109.98C589.62,-101.05 636.19,-86.94 668.97,-77.02"/>
<polygon fill="#63b8ff" stroke="#63b8ff" points="670.11,-80.33 678.66,-74.08 668.08,-73.63 670.11,-80.33"/>
</a>
</g>
</g>
<!-- Node35&#45;&gt;Node5 -->
<g id="edge27_Node000035_Node000005" class="edge">
<title>Node35&#45;&gt;Node5</title>
<g id="a_edge27_Node000035_Node000005"><a xlink:title=" ">
<path fill="none" stroke="#63b8ff" d="M410.49,-54.98C454.17,-45.8 523.81,-31.15 571.15,-21.19"/>
<polygon fill="#63b8ff" stroke="#63b8ff" points="572.13,-24.57 581.19,-19.08 570.69,-17.72 572.13,-24.57"/>
</a>
</g>
</g>
<!-- Node38 -->
<g id="Node000038" class="node">
<title>Node38</title>
<g id="a_Node000038"><a xlink:href="../../d8/db0/ReactionRate_8h.html" target="_top" xlink:title=" ">
<polygon fill="white" stroke="#666666" points="701.5,-184 610.5,-184 610.5,-165 701.5,-165 701.5,-184"/>
<text text-anchor="middle" x="656" y="-172" font-family="Helvetica,sans-Serif" font-size="10.00">ReactionRate.h</text>
</a>
</g>
</g>
<!-- Node37&#45;&gt;Node38 -->
<g id="edge29_Node000037_Node000038" class="edge">
<title>Node37&#45;&gt;Node38</title>
<g id="a_edge29_Node000037_Node000038"><a xlink:title=" ">
<path fill="none" stroke="#63b8ff" d="M419.53,-221.41C466.35,-212.32 547.9,-196.49 601.92,-186"/>
<polygon fill="#63b8ff" stroke="#63b8ff" points="602.86,-189.38 612.01,-184.04 601.52,-182.51 602.86,-189.38"/>
</a>
</g>
</g>
<!-- Node39 -->
<g id="Node000039" class="node">
<title>Node39</title>
<g id="a_Node000039"><a xlink:href="../../dd/d16/MultiRateBase_8h.html" target="_top" xlink:title=" ">
<polygon fill="white" stroke="#666666" points="290.5,-129 193.5,-129 193.5,-110 290.5,-110 290.5,-129"/>
<text text-anchor="middle" x="242" y="-117" font-family="Helvetica,sans-Serif" font-size="10.00">MultiRateBase.h</text>
</a>
</g>
</g>
<!-- Node37&#45;&gt;Node39 -->
<g id="edge36_Node000037_Node000039" class="edge">
<title>Node37&#45;&gt;Node39</title>
<g id="a_edge36_Node000037_Node000039"><a xlink:title=" ">
<path fill="none" stroke="#63b8ff" d="M350.32,-219.85C328.78,-212.89 300.97,-201.37 281,-184 266.68,-171.55 255.97,-152.53 249.43,-138.55"/>
<polygon fill="#63b8ff" stroke="#63b8ff" points="252.48,-136.79 245.26,-129.04 246.07,-139.6 252.48,-136.79"/>
</a>
</g>
</g>
<!-- Node40 -->
<g id="Node000040" class="node">
<title>Node40</title>
<g id="a_Node000040"><a xlink:href="../../de/df0/utilities_8h.html" target="_top" xlink:title="Various templated functions that carry out common vector and polynomial operations (see Templated Arr...">
<polygon fill="#fff0f0" stroke="red" points="418,-184 290,-184 290,-165 418,-165 418,-184"/>
<text text-anchor="middle" x="354" y="-172" font-family="Helvetica,sans-Serif" font-size="10.00">cantera/base/utilities.h</text>
</a>
</g>
</g>
<!-- Node37&#45;&gt;Node40 -->
<g id="edge37_Node000037_Node000040" class="edge">
<title>Node37&#45;&gt;Node40</title>
<g id="a_edge37_Node000037_Node000040"><a xlink:title=" ">
<path fill="none" stroke="#63b8ff" d="M378.21,-219.75C374.24,-212.49 368.47,-201.95 363.57,-192.98"/>
<polygon fill="#63b8ff" stroke="#63b8ff" points="366.57,-191.18 358.7,-184.09 360.43,-194.54 366.57,-191.18"/>
</a>
</g>
</g>
<!-- Node38&#45;&gt;Node16 -->
<g id="edge35_Node000038_Node000016" class="edge">
<title>Node38&#45;&gt;Node16</title>
<g id="a_edge35_Node000038_Node000016"><a xlink:title=" ">
<path fill="none" stroke="#63b8ff" d="M647.17,-164.98C635.35,-152.51 617.06,-128.72 628,-110 636.68,-95.14 652.35,-84.86 667.46,-77.95"/>
<polygon fill="#63b8ff" stroke="#63b8ff" points="668.85,-81.17 676.73,-74.08 666.15,-74.71 668.85,-81.17"/>
</a>
</g>
</g>
<!-- Node38&#45;&gt;Node22 -->
<g id="edge34_Node000038_Node000022" class="edge">
<title>Node38&#45;&gt;Node22</title>
<g id="a_edge34_Node000038_Node000022"><a xlink:title=" ">
<path fill="none" stroke="#63b8ff" d="M701.54,-167.79C766.39,-159.24 878.97,-142.64 892,-129 903.17,-117.31 904.56,-98.46 903.68,-84.32"/>
<polygon fill="#63b8ff" stroke="#63b8ff" points="907.14,-83.81 902.62,-74.23 900.18,-84.54 907.14,-83.81"/>
</a>
</g>
</g>
<!-- Node38&#45;&gt;Node24 -->
<g id="edge32_Node000038_Node000024" class="edge">
<title>Node38&#45;&gt;Node24</title>
<g id="a_edge32_Node000038_Node000024"><a xlink:title=" ">
<path fill="none" stroke="#63b8ff" d="M701.75,-168.56C786.31,-159.43 967.81,-139.84 1071.07,-128.7"/>
<polygon fill="#63b8ff" stroke="#63b8ff" points="1071.55,-132.16 1081.12,-127.61 1070.8,-125.21 1071.55,-132.16"/>
</a>
</g>
</g>
<!-- Node38&#45;&gt;Node25 -->
<g id="edge33_Node000038_Node000025" class="edge">
<title>Node38&#45;&gt;Node25</title>
<g id="a_edge33_Node000038_Node000025"><a xlink:title=" ">
<path fill="none" stroke="#63b8ff" d="M701.91,-169.42C753.52,-163.92 839.35,-152.05 910,-129 948.93,-116.3 990.94,-93.8 1016.09,-79.28"/>
<polygon fill="#63b8ff" stroke="#63b8ff" points="1018.01,-82.21 1024.87,-74.14 1014.47,-76.17 1018.01,-82.21"/>
</a>
</g>
</g>
<!-- Node38&#45;&gt;Node39 -->
<g id="edge30_Node000038_Node000039" class="edge">
<title>Node38&#45;&gt;Node39</title>
<g id="a_edge30_Node000038_Node000039"><a xlink:title=" ">
<path fill="none" stroke="#63b8ff" d="M610.11,-167.63C534.53,-157.95 383.94,-138.67 300.7,-128.02"/>
<polygon fill="#63b8ff" stroke="#63b8ff" points="301.01,-124.53 290.65,-126.73 300.13,-131.47 301.01,-124.53"/>
</a>
</g>
</g>
<!-- Node39&#45;&gt;Node5 -->
<g id="edge31_Node000039_Node000005" class="edge">
<title>Node39&#45;&gt;Node5</title>
<g id="a_edge31_Node000039_Node000005"><a xlink:title=" ">
<path fill="none" stroke="#63b8ff" d="M240.74,-109.6C239.32,-95.74 238.93,-69.1 254,-55 275.04,-35.31 446.76,-21.39 548.03,-14.8"/>
<polygon fill="#63b8ff" stroke="#63b8ff" points="548.44,-18.28 558.2,-14.15 548,-11.3 548.44,-18.28"/>
</a>
</g>
</g>
<!-- Node40&#45;&gt;Node5 -->
<g id="edge38_Node000040_Node000005" class="edge">
<title>Node40&#45;&gt;Node5</title>
<g id="a_edge38_Node000040_Node000005"><a xlink:title=" ">
<path fill="none" stroke="#63b8ff" d="M346.31,-164.87C325.32,-140.83 269.66,-73.64 286,-55 303.02,-35.57 454.79,-21.86 548.43,-15.16"/>
<polygon fill="#63b8ff" stroke="#63b8ff" points="548.7,-18.65 558.43,-14.46 548.21,-11.67 548.7,-18.65"/>
</a>
</g>
</g>
<!-- Node42&#45;&gt;Node30 -->
<g id="edge40_Node000042_Node000030" class="edge">
<title>Node42&#45;&gt;Node30</title>
<g id="a_edge40_Node000042_Node000030"><a xlink:title=" ">
<path fill="none" stroke="#63b8ff" d="M478,-340.87C478,-334.11 478,-324.35 478,-315.26"/>
<polygon fill="#63b8ff" stroke="#63b8ff" points="481.5,-315.11 478,-305.11 474.5,-315.11 481.5,-315.11"/>
</a>
</g>
</g>
<!-- Node43 -->
<g id="Node000043" class="node">
<title>Node43</title>
<g id="a_Node000043"><a xlink:href="../../d1/df7/DenseMatrix_8h.html" target="_top" xlink:title="Headers for the DenseMatrix object, which deals with dense rectangular matrices and description of th...">
<polygon fill="white" stroke="#666666" points="176,-129 0,-129 0,-110 176,-110 176,-129"/>
<text text-anchor="middle" x="88" y="-117" font-family="Helvetica,sans-Serif" font-size="10.00">cantera/numerics/DenseMatrix.h</text>
</a>
</g>
</g>
<!-- Node42&#45;&gt;Node43 -->
<g id="edge41_Node000042_Node000043" class="edge">
<title>Node42&#45;&gt;Node43</title>
<g id="a_edge41_Node000042_Node000043"><a xlink:title=" ">
<path fill="none" stroke="#63b8ff" d="M462.29,-340.94C446.1,-332.07 420.18,-317.76 398,-305 289.67,-242.65 161.84,-165.38 110.75,-134.35"/>
<polygon fill="#63b8ff" stroke="#63b8ff" points="112.49,-131.31 102.13,-129.11 108.85,-137.29 112.49,-131.31"/>
</a>
</g>
</g>
<!-- Node43&#45;&gt;Node5 -->
<g id="edge42_Node000043_Node000005" class="edge">
<title>Node43&#45;&gt;Node5</title>
<g id="a_edge42_Node000043_Node000005"><a xlink:title=" ">
<path fill="none" stroke="#63b8ff" d="M82.57,-109.85C74.83,-96.32 63.05,-70.14 77,-55 108.27,-21.08 406.28,-13.01 547.92,-11.1"/>
<polygon fill="#63b8ff" stroke="#63b8ff" points="548.3,-14.59 558.25,-10.96 548.21,-7.59 548.3,-14.59"/>
</a>
</g>
</g>
<!-- Node43&#45;&gt;Node16 -->
<g id="edge43_Node000043_Node000016" class="edge">
<title>Node43&#45;&gt;Node16</title>
<g id="a_edge43_Node000043_Node000016"><a xlink:title=" ">
<path fill="none" stroke="#63b8ff" d="M176.15,-110.68C178.79,-110.45 181.42,-110.22 184,-110 374.51,-93.7 424.69,-91.52 619.68,-74.01"/>
<polygon fill="#63b8ff" stroke="#63b8ff" points="620.04,-77.5 629.68,-73.11 619.41,-70.53 620.04,-77.5"/>
</a>
</g>
</g>
<!-- Node44 -->
<g id="Node000044" class="node">
<title>Node44</title>
<g id="a_Node000044"><a xlink:href="../../df/dd0/Array_8h.html" target="_top" xlink:title="Header file for class Cantera::Array2D.">
<polygon fill="#fff0f0" stroke="red" points="202,-74 86,-74 86,-55 202,-55 202,-74"/>
<text text-anchor="middle" x="144" y="-62" font-family="Helvetica,sans-Serif" font-size="10.00">cantera/base/Array.h</text>
</a>
</g>
</g>
<!-- Node43&#45;&gt;Node44 -->
<g id="edge44_Node000043_Node000044" class="edge">
<title>Node43&#45;&gt;Node44</title>
<g id="a_edge44_Node000043_Node000044"><a xlink:title=" ">
<path fill="none" stroke="#63b8ff" d="M97,-109.98C105.19,-102.23 117.51,-90.58 127.47,-81.14"/>
<polygon fill="#63b8ff" stroke="#63b8ff" points="129.98,-83.59 134.84,-74.17 125.17,-78.5 129.98,-83.59"/>
</a>
</g>
</g>
<!-- Node44&#45;&gt;Node5 -->
<g id="edge45_Node000044_Node000005" class="edge">
<title>Node44&#45;&gt;Node5</title>
<g id="a_edge45_Node000044_Node000005"><a xlink:title=" ">
<path fill="none" stroke="#63b8ff" d="M202.15,-56.59C206.84,-56.05 211.5,-55.51 216,-55 332.04,-41.79 466.82,-27.16 548.2,-18.4"/>
<polygon fill="#63b8ff" stroke="#63b8ff" points="548.77,-21.86 558.34,-17.31 548.02,-14.9 548.77,-21.86"/>
</a>
</g>
</g>
<!-- Node47 -->
<g id="Node000047" class="node">
<title>Node47</title>
<g id="a_Node000047"><a xlink:href="../../d7/d01/ThermoPhase_8h.html" target="_top" xlink:title="Header file for class ThermoPhase, the base class for phases with thermodynamic properties,...">
<polygon fill="white" stroke="#666666" points="1071,-299.5 979,-299.5 979,-280.5 1071,-280.5 1071,-299.5"/>
<text text-anchor="middle" x="1025" y="-287.5" font-family="Helvetica,sans-Serif" font-size="10.00">ThermoPhase.h</text>
</a>
</g>
</g>
<!-- Node46&#45;&gt;Node47 -->
<g id="edge48_Node000046_Node000047" class="edge">
<title>Node46&#45;&gt;Node47</title>
<g id="a_edge48_Node000046_Node000047"><a xlink:title=" ">
<path fill="none" stroke="#63b8ff" d="M851.45,-401.44C883.31,-381.16 963.67,-330.03 1002.84,-305.1"/>
<polygon fill="#63b8ff" stroke="#63b8ff" points="1004.86,-307.96 1011.42,-299.64 1001.11,-302.06 1004.86,-307.96"/>
</a>
</g>
</g>
<!-- Node47&#45;&gt;Node24 -->
<g id="edge60_Node000047_Node000024" class="edge">
<title>Node47&#45;&gt;Node24</title>
<g id="a_edge60_Node000047_Node000024"><a xlink:title=" ">
<path fill="none" stroke="#63b8ff" d="M1027.24,-280.3C1033.14,-258.75 1050.84,-201.95 1082,-165 1092.64,-152.38 1107.7,-141.77 1120.64,-134.08"/>
<polygon fill="#63b8ff" stroke="#63b8ff" points="1122.62,-136.98 1129.6,-129 1119.17,-130.89 1122.62,-136.98"/>
</a>
</g>
</g>
<!-- Node47&#45;&gt;Node25 -->
<g id="edge59_Node000047_Node000025" class="edge">
<title>Node47&#45;&gt;Node25</title>
<g id="a_edge59_Node000047_Node000025"><a xlink:title=" ">
<path fill="none" stroke="#63b8ff" d="M1025.55,-280.24C1027.61,-247.35 1034.91,-130.8 1037.8,-84.59"/>
<polygon fill="#63b8ff" stroke="#63b8ff" points="1041.31,-84.64 1038.44,-74.44 1034.32,-84.21 1041.31,-84.64"/>
</a>
</g>
</g>
<!-- Node48 -->
<g id="Node000048" class="node">
<title>Node48</title>
<g id="a_Node000048"><a xlink:href="../../da/d84/Phase_8h.html" target="_top" xlink:title="Header file for class Phase.">
<polygon fill="white" stroke="#666666" points="464.5,-129 409.5,-129 409.5,-110 464.5,-110 464.5,-129"/>
<text text-anchor="middle" x="437" y="-117" font-family="Helvetica,sans-Serif" font-size="10.00">Phase.h</text>
</a>
</g>
</g>
<!-- Node47&#45;&gt;Node48 -->
<g id="edge49_Node000047_Node000048" class="edge">
<title>Node47&#45;&gt;Node48</title>
<g id="a_edge49_Node000047_Node000048"><a xlink:title=" ">
<path fill="none" stroke="#63b8ff" d="M983.4,-280.47C907.02,-264.41 739.66,-227.39 602,-184 553.58,-168.74 498.86,-146.69 466.18,-133"/>
<polygon fill="#63b8ff" stroke="#63b8ff" points="467.36,-129.69 456.78,-129.03 464.64,-136.14 467.36,-129.69"/>
</a>
</g>
</g>
<!-- Node50 -->
<g id="Node000050" class="node">
<title>Node50</title>
<g id="a_Node000050"><a xlink:href="../../d6/d7a/MultiSpeciesThermo_8h.html" target="_top" xlink:title="Header for a general species thermodynamic property manager for a phase (see MultiSpeciesThermo).">
<polygon fill="white" stroke="#666666" points="1222.5,-239 1097.5,-239 1097.5,-220 1222.5,-220 1222.5,-239"/>
<text text-anchor="middle" x="1160" y="-227" font-family="Helvetica,sans-Serif" font-size="10.00">MultiSpeciesThermo.h</text>
</a>
</g>
</g>
<!-- Node47&#45;&gt;Node50 -->
<g id="edge54_Node000047_Node000050" class="edge">
<title>Node47&#45;&gt;Node50</title>
<g id="a_edge54_Node000047_Node000050"><a xlink:title=" ">
<path fill="none" stroke="#63b8ff" d="M1044.63,-280.49C1067.33,-270.66 1104.9,-254.38 1130.97,-243.08"/>
<polygon fill="#63b8ff" stroke="#63b8ff" points="1132.56,-246.2 1140.35,-239.02 1129.78,-239.78 1132.56,-246.2"/>
</a>
</g>
</g>
<!-- Node48&#45;&gt;Node16 -->
<g id="edge50_Node000048_Node000016" class="edge">
<title>Node48&#45;&gt;Node16</title>
<g id="a_edge50_Node000048_Node000016"><a xlink:title=" ">
<path fill="none" stroke="#63b8ff" d="M464.86,-111.98C467.94,-111.3 471.03,-110.62 474,-110 533.7,-97.45 602.32,-84.52 649.55,-75.86"/>
<polygon fill="#63b8ff" stroke="#63b8ff" points="650.39,-79.26 659.59,-74.02 649.13,-72.38 650.39,-79.26"/>
</a>
</g>
</g>
<!-- Node48&#45;&gt;Node35 -->
<g id="edge53_Node000048_Node000035" class="edge">
<title>Node48&#45;&gt;Node35</title>
<g id="a_edge53_Node000048_Node000035"><a xlink:title=" ">
<path fill="none" stroke="#63b8ff" d="M426.24,-109.98C416.23,-102.07 401.11,-90.11 389.07,-80.58"/>
<polygon fill="#63b8ff" stroke="#63b8ff" points="390.97,-77.63 380.96,-74.17 386.63,-83.12 390.97,-77.63"/>
</a>
</g>
</g>
<!-- Node49 -->
<g id="Node000049" class="node">
<title>Node49</title>
<g id="a_Node000049"><a xlink:href="../../d9/dda/Elements_8h.html" target="_top" xlink:title="Contains the getElementWeight function and the definitions of element constraint types.">
<polygon fill="white" stroke="#666666" points="611.5,-74 462.5,-74 462.5,-55 611.5,-55 611.5,-74"/>
<text text-anchor="middle" x="537" y="-62" font-family="Helvetica,sans-Serif" font-size="10.00">cantera/thermo/Elements.h</text>
</a>
</g>
</g>
<!-- Node48&#45;&gt;Node49 -->
<g id="edge51_Node000048_Node000049" class="edge">
<title>Node48&#45;&gt;Node49</title>
<g id="a_edge51_Node000048_Node000049"><a xlink:title=" ">
<path fill="none" stroke="#63b8ff" d="M453.07,-109.98C468.86,-101.61 493.22,-88.7 511.63,-78.95"/>
<polygon fill="#63b8ff" stroke="#63b8ff" points="513.44,-81.95 520.64,-74.17 510.17,-75.76 513.44,-81.95"/>
</a>
</g>
</g>
<!-- Node49&#45;&gt;Node5 -->
<g id="edge52_Node000049_Node000005" class="edge">
<title>Node49&#45;&gt;Node5</title>
<g id="a_edge52_Node000049_Node000005"><a xlink:title=" ">
<path fill="none" stroke="#63b8ff" d="M550.66,-54.98C563.84,-46.77 584.03,-34.18 599.57,-24.49"/>
<polygon fill="#63b8ff" stroke="#63b8ff" points="601.46,-27.43 608.09,-19.17 597.76,-21.49 601.46,-27.43"/>
</a>
</g>
</g>
<!-- Node51 -->
<g id="Node000051" class="node">
<title>Node51</title>
<g id="a_Node000051"><a xlink:href="../../d4/d87/SpeciesThermoInterpType_8h.html" target="_top" xlink:title="Pure Virtual Base class for individual species reference state thermodynamic managers and text for th...">
<polygon fill="white" stroke="#666666" points="1243,-184 1091,-184 1091,-165 1243,-165 1243,-184"/>
<text text-anchor="middle" x="1167" y="-172" font-family="Helvetica,sans-Serif" font-size="10.00">SpeciesThermoInterpType.h</text>
</a>
</g>
</g>
<!-- Node50&#45;&gt;Node51 -->
<g id="edge55_Node000050_Node000051" class="edge">
<title>Node50&#45;&gt;Node51</title>
<g id="a_edge55_Node000050_Node000051"><a xlink:title=" ">
<path fill="none" stroke="#63b8ff" d="M1161.16,-219.75C1162.07,-212.8 1163.39,-202.85 1164.54,-194.13"/>
<polygon fill="#63b8ff" stroke="#63b8ff" points="1168.03,-194.46 1165.87,-184.09 1161.09,-193.54 1168.03,-194.46"/>
</a>
</g>
</g>
<!-- Node51&#45;&gt;Node5 -->
<g id="edge56_Node000051_Node000005" class="edge">
<title>Node51&#45;&gt;Node5</title>
<g id="a_edge56_Node000051_Node000005"><a xlink:title=" ">
<path fill="none" stroke="#63b8ff" d="M1243.04,-173.64C1382.48,-171.54 1656.39,-155.02 1561,-55 1531.29,-23.84 912.4,-13.81 695.95,-11.25"/>
<polygon fill="#63b8ff" stroke="#63b8ff" points="695.69,-7.75 685.65,-11.13 695.61,-14.75 695.69,-7.75"/>
</a>
</g>
</g>
<!-- Node51&#45;&gt;Node16 -->
<g id="edge57_Node000051_Node000016" class="edge">
<title>Node51&#45;&gt;Node16</title>
<g id="a_edge57_Node000051_Node000016"><a xlink:title=" ">
<path fill="none" stroke="#63b8ff" d="M1090.87,-173.98C1015.98,-172.2 899.47,-163.34 805,-129 774.24,-117.82 743.3,-95.49 724.65,-80.52"/>
<polygon fill="#63b8ff" stroke="#63b8ff" points="726.7,-77.68 716.76,-74.03 722.26,-83.08 726.7,-77.68"/>
</a>
</g>
</g>
<!-- Node51&#45;&gt;Node24 -->
<g id="edge58_Node000051_Node000024" class="edge">
<title>Node51&#45;&gt;Node24</title>
<g id="a_edge58_Node000051_Node000024"><a xlink:title=" ">
<path fill="none" stroke="#63b8ff" d="M1163.7,-164.75C1161.02,-157.65 1157.15,-147.4 1153.81,-138.56"/>
<polygon fill="#63b8ff" stroke="#63b8ff" points="1157.05,-137.21 1150.24,-129.09 1150.5,-139.68 1157.05,-137.21"/>
</a>
</g>
</g>
</g>
</svg>

<g id="navigator" transform="translate(0 0)" fill="#404254">
  <rect fill="#f2f5e9" fill-opacity="0.5" stroke="#606060" stroke-width=".5" x="0" y="0" width="60" height="60"/>
  <use id="zoomplus" xlink:href="#zoomPlus" x="17" y="9" onmousedown="handleZoom(evt,'in')"/>
  <use id="zoomminus" xlink:href="#zoomMin" x="42" y="9" onmousedown="handleZoom(evt,'out')"/>
  <use id="reset" xlink:href="#resetDef" x="30" y="36" onmousedown="handleReset()"/>
   <use id="arrowup" xlink:href="#arrowUp" x="0" y="0" onmousedown="handlePan(0,-1)"/>
  <use id="arrowright" xlink:href="#arrowRight" x="0" y="0" onmousedown="handlePan(1,0)"/>
  <use id="arrowdown" xlink:href="#arrowDown" x="0" y="0" onmousedown="handlePan(0,1)"/>
  <use id="arrowleft" xlink:href="#arrowLeft" x="0" y="0" onmousedown="handlePan(-1,0)"/>
</g>
<svg viewBox="0 0 15 15" width="100%" height="30px" preserveAspectRatio="xMaxYMin meet">
 <g id="arrow_out" transform="scale(0.3 0.3)">
  <a xlink:href="ImplicitSurfChem_8cpp__incl_org.svg" target="_base">
   <rect id="button" ry="5" rx="5" y="6" x="6" height="38" width="38"
        fill="#f2f5e9" fill-opacity="0.5" stroke="#606060" stroke-width="1.0"/>
   <path id="arrow"
     d="M 11.500037,31.436501 C 11.940474,20.09759 22.043105,11.32322 32.158766,21.979434 L 37.068811,17.246167 C 37.068811,17.246167 37.088388,32 37.088388,32 L 22.160133,31.978069 C 22.160133,31.978069 26.997745,27.140456 26.997745,27.140456 C 18.528582,18.264221 13.291696,25.230495 11.500037,31.436501 z"
     style="fill:#404040;"/>
  </a>
 </g>
</svg>

<style type='text/css'>
<![CDATA[
[data-mouse-over-selected='false'] { opacity: 0.7; }
[data-mouse-over-selected='true']  { opacity: 1.0; }
]]>
</style>
<script type="application/ecmascript"><![CDATA[
document.addEventListener('DOMContentLoaded', (event) => {
  highlightEdges();
  highlightAdjacentNodes();
});
]]></script>
</svg>
