<?xml version="1.0" encoding="UTF-8" standalone="no"?>
<!DOCTYPE svg PUBLIC "-//W3C//DTD SVG 1.1//EN"
 "http://www.w3.org/Graphics/SVG/1.1/DTD/svg11.dtd">
<!-- Generated by graphviz version 2.43.0 (0)
 -->
<!-- Title: SpeciesThermoFactory.cpp Pages: 1 -->
<svg width="1424pt" height="544pt"
 viewBox="0.00 0.00 1424.00 544.00" xmlns="http://www.w3.org/2000/svg" xmlns:xlink="http://www.w3.org/1999/xlink">
<g id="graph0" class="graph" transform="scale(1 1) rotate(0) translate(4 540)">
<title>SpeciesThermoFactory.cpp</title>
<!-- Node1 -->
<g id="Node000001" class="node">
<title>Node1</title>
<g id="a_Node000001"><a xlink:title="Definitions for factory functions to build instances of classes that manage the standard&#45;state thermo...">
<polygon fill="#999999" stroke="#666666" points="770,-536 624,-536 624,-517 770,-517 770,-536"/>
<text text-anchor="middle" x="697" y="-524" font-family="Helvetica,sans-Serif" font-size="10.00">SpeciesThermoFactory.cpp</text>
</a>
</g>
</g>
<!-- Node2 -->
<g id="Node000002" class="node">
<title>Node2</title>
<g id="a_Node000002"><a xlink:href="../../d8/d9a/SpeciesThermoFactory_8h.html" target="_top" xlink:title="Header for factory functions to build instances of classes that manage the standard&#45;state thermodynam...">
<polygon fill="white" stroke="#666666" points="170,-360 0,-360 0,-330 170,-330 170,-360"/>
<text text-anchor="start" x="8" y="-348" font-family="Helvetica,sans-Serif" font-size="10.00">cantera/thermo/SpeciesThermo</text>
<text text-anchor="middle" x="85" y="-337" font-family="Helvetica,sans-Serif" font-size="10.00">Factory.h</text>
</a>
</g>
</g>
<!-- Node1&#45;&gt;Node2 -->
<g id="edge1_Node000001_Node000002" class="edge">
<title>Node1&#45;&gt;Node2</title>
<g id="a_edge1_Node000001_Node000002"><a xlink:title=" ">
<path fill="none" stroke="#63b8ff" d="M623.65,-522.33C539.08,-517.63 396.27,-506.43 276,-481 182.35,-461.2 127.36,-492.36 71,-415 61.41,-401.84 65.6,-383.68 71.81,-369.3"/>
<polygon fill="#63b8ff" stroke="#63b8ff" points="75.09,-370.58 76.3,-360.05 68.79,-367.52 75.09,-370.58"/>
</a>
</g>
</g>
<!-- Node22 -->
<g id="Node000022" class="node">
<title>Node22</title>
<g id="a_Node000022"><a xlink:href="../../da/d58/Units_8h.html" target="_top" xlink:title="Header for unit conversion utilities, which are used to translate user input from input files (See In...">
<polygon fill="white" stroke="#666666" points="1313.5,-184 1196.5,-184 1196.5,-165 1313.5,-165 1313.5,-184"/>
<text text-anchor="middle" x="1255" y="-172" font-family="Helvetica,sans-Serif" font-size="10.00">cantera/base/Units.h</text>
</a>
</g>
</g>
<!-- Node1&#45;&gt;Node22 -->
<g id="edge65_Node000001_Node000022" class="edge">
<title>Node1&#45;&gt;Node22</title>
<g id="a_edge65_Node000001_Node000022"><a xlink:title=" ">
<path fill="none" stroke="#63b8ff" d="M770.19,-524.78C919.66,-521.32 1246,-502.75 1246,-406.5 1246,-406.5 1246,-406.5 1246,-283.5 1246,-252.08 1249.83,-215.7 1252.49,-194.2"/>
<polygon fill="#63b8ff" stroke="#63b8ff" points="1255.98,-194.52 1253.79,-184.16 1249.04,-193.63 1255.98,-194.52"/>
</a>
</g>
</g>
<!-- Node27 -->
<g id="Node000027" class="node">
<title>Node27</title>
<g id="a_Node000027"><a xlink:href="../../d6/d7a/MultiSpeciesThermo_8h.html" target="_top" xlink:title="Header for a general species thermodynamic property manager for a phase (see MultiSpeciesThermo).">
<polygon fill="white" stroke="#666666" points="919.5,-360 762.5,-360 762.5,-330 919.5,-330 919.5,-360"/>
<text text-anchor="start" x="770.5" y="-348" font-family="Helvetica,sans-Serif" font-size="10.00">cantera/thermo/MultiSpecies</text>
<text text-anchor="middle" x="841" y="-337" font-family="Helvetica,sans-Serif" font-size="10.00">Thermo.h</text>
</a>
</g>
</g>
<!-- Node1&#45;&gt;Node27 -->
<g id="edge29_Node000001_Node000027" class="edge">
<title>Node1&#45;&gt;Node27</title>
<g id="a_edge29_Node000001_Node000027"><a xlink:title=" ">
<path fill="none" stroke="#63b8ff" d="M770.33,-518.85C795.04,-512.76 820.29,-501.52 836,-481 860.37,-449.15 854.42,-399.62 847.77,-370.23"/>
<polygon fill="#63b8ff" stroke="#63b8ff" points="851.14,-369.26 845.35,-360.39 844.34,-370.94 851.14,-369.26"/>
</a>
</g>
</g>
<!-- Node28 -->
<g id="Node000028" class="node">
<title>Node28</title>
<g id="a_Node000028"><a xlink:href="../../d0/dbd/Mu0Poly_8h.html" target="_top" xlink:title="Header for a single&#45;species standard state object derived from SpeciesThermoInterpType based on a pie...">
<polygon fill="white" stroke="#666666" points="406,-415 262,-415 262,-396 406,-396 406,-415"/>
<text text-anchor="middle" x="334" y="-403" font-family="Helvetica,sans-Serif" font-size="10.00">cantera/thermo/Mu0Poly.h</text>
</a>
</g>
</g>
<!-- Node1&#45;&gt;Node28 -->
<g id="edge31_Node000001_Node000028" class="edge">
<title>Node1&#45;&gt;Node28</title>
<g id="a_edge31_Node000001_Node000028"><a xlink:title=" ">
<path fill="none" stroke="#63b8ff" d="M623.81,-524.6C566.03,-521.38 484.66,-511.17 420,-481 390.46,-467.22 363.28,-440.25 347.68,-422.82"/>
<polygon fill="#63b8ff" stroke="#63b8ff" points="350.2,-420.38 340.99,-415.13 344.91,-424.98 350.2,-420.38"/>
</a>
</g>
</g>
<!-- Node29 -->
<g id="Node000029" class="node">
<title>Node29</title>
<g id="a_Node000029"><a xlink:href="../../d4/d0c/speciesThermoTypes_8h.html" target="_top" xlink:title="Contains const definitions for types of species reference&#45;state thermodynamics managers (see Species ...">
<polygon fill="white" stroke="#666666" points="530.5,-360 361.5,-360 361.5,-330 530.5,-330 530.5,-360"/>
<text text-anchor="start" x="369.5" y="-348" font-family="Helvetica,sans-Serif" font-size="10.00">cantera/thermo/speciesThermo</text>
<text text-anchor="middle" x="446" y="-337" font-family="Helvetica,sans-Serif" font-size="10.00">Types.h</text>
</a>
</g>
</g>
<!-- Node1&#45;&gt;Node29 -->
<g id="edge51_Node000001_Node000029" class="edge">
<title>Node1&#45;&gt;Node29</title>
<g id="a_edge51_Node000001_Node000029"><a xlink:title=" ">
<path fill="none" stroke="#63b8ff" d="M623.72,-520.99C562.84,-515.63 482.8,-504.28 461,-481 433.15,-451.26 436.06,-400.17 440.9,-370.09"/>
<polygon fill="#63b8ff" stroke="#63b8ff" points="444.38,-370.51 442.71,-360.04 437.49,-369.26 444.38,-370.51"/>
</a>
</g>
</g>
<!-- Node30 -->
<g id="Node000030" class="node">
<title>Node30</title>
<g id="a_Node000030"><a xlink:href="../../d4/d07/Nasa9PolyMultiTempRegion_8h.html" target="_top" xlink:title="Header for a single&#45;species standard state object derived from SpeciesThermoInterpType based on the N...">
<polygon fill="white" stroke="#666666" points="616,-481 470,-481 470,-451 616,-451 616,-481"/>
<text text-anchor="start" x="478" y="-469" font-family="Helvetica,sans-Serif" font-size="10.00">cantera/thermo/Nasa9Poly</text>
<text text-anchor="middle" x="543" y="-458" font-family="Helvetica,sans-Serif" font-size="10.00">MultiTempRegion.h</text>
</a>
</g>
</g>
<!-- Node1&#45;&gt;Node30 -->
<g id="edge34_Node000001_Node000030" class="edge">
<title>Node1&#45;&gt;Node30</title>
<g id="a_edge34_Node000001_Node000030"><a xlink:title=" ">
<path fill="none" stroke="#63b8ff" d="M674.61,-516.99C652.44,-508.57 617.85,-495.43 589.69,-484.73"/>
<polygon fill="#63b8ff" stroke="#63b8ff" points="590.61,-481.34 580.02,-481.06 588.13,-487.89 590.61,-481.34"/>
</a>
</g>
</g>
<!-- Node31 -->
<g id="Node000031" class="node">
<title>Node31</title>
<g id="a_Node000031"><a xlink:href="../../df/df1/Nasa9Poly1_8h.html" target="_top" xlink:title="Header for a single&#45;species standard state object derived from SpeciesThermoInterpType based on the N...">
<polygon fill="white" stroke="#666666" points="623.5,-415 462.5,-415 462.5,-396 623.5,-396 623.5,-415"/>
<text text-anchor="middle" x="543" y="-403" font-family="Helvetica,sans-Serif" font-size="10.00">cantera/thermo/Nasa9Poly1.h</text>
</a>
</g>
</g>
<!-- Node1&#45;&gt;Node31 -->
<g id="edge38_Node000001_Node000031" class="edge">
<title>Node1&#45;&gt;Node31</title>
<g id="a_edge38_Node000001_Node000031"><a xlink:title=" ">
<path fill="none" stroke="#63b8ff" d="M690.16,-516.85C678.13,-502.05 651.92,-471.46 625,-451 608.51,-438.47 588.03,-427.35 571.66,-419.36"/>
<polygon fill="#63b8ff" stroke="#63b8ff" points="573.09,-416.17 562.56,-415.03 570.09,-422.49 573.09,-416.17"/>
</a>
</g>
</g>
<!-- Node32 -->
<g id="Node000032" class="node">
<title>Node32</title>
<g id="a_Node000032"><a xlink:href="../../dc/d53/NasaPoly2_8h.html" target="_top" xlink:title="Header for a single&#45;species standard state object derived from SpeciesThermoInterpType based on the N...">
<polygon fill="white" stroke="#666666" points="827.5,-475.5 672.5,-475.5 672.5,-456.5 827.5,-456.5 827.5,-475.5"/>
<text text-anchor="middle" x="750" y="-463.5" font-family="Helvetica,sans-Serif" font-size="10.00">cantera/thermo/NasaPoly2.h</text>
</a>
</g>
</g>
<!-- Node1&#45;&gt;Node32 -->
<g id="edge39_Node000001_Node000032" class="edge">
<title>Node1&#45;&gt;Node32</title>
<g id="a_edge39_Node000001_Node000032"><a xlink:title=" ">
<path fill="none" stroke="#63b8ff" d="M704.82,-516.87C712.81,-508.05 725.39,-494.16 735.26,-483.27"/>
<polygon fill="#63b8ff" stroke="#63b8ff" points="738.03,-485.43 742.15,-475.67 732.84,-480.73 738.03,-485.43"/>
</a>
</g>
</g>
<!-- Node34 -->
<g id="Node000034" class="node">
<title>Node34</title>
<g id="a_Node000034"><a xlink:href="../../d9/d16/ShomatePoly_8h.html" target="_top" xlink:title="Header for a single&#45;species standard state object derived from SpeciesThermoInterpType based on the S...">
<polygon fill="white" stroke="#666666" points="1180.5,-354.5 1013.5,-354.5 1013.5,-335.5 1180.5,-335.5 1180.5,-354.5"/>
<text text-anchor="middle" x="1097" y="-342.5" font-family="Helvetica,sans-Serif" font-size="10.00">cantera/thermo/ShomatePoly.h</text>
</a>
</g>
</g>
<!-- Node1&#45;&gt;Node34 -->
<g id="edge45_Node000001_Node000034" class="edge">
<title>Node1&#45;&gt;Node34</title>
<g id="a_edge45_Node000001_Node000034"><a xlink:title=" ">
<path fill="none" stroke="#63b8ff" d="M770.23,-525.2C861.12,-523.34 1009.28,-514.99 1051,-481 1086.42,-452.14 1094.68,-394.75 1096.53,-364.95"/>
<polygon fill="#63b8ff" stroke="#63b8ff" points="1100.04,-364.82 1096.97,-354.67 1093.04,-364.51 1100.04,-364.82"/>
</a>
</g>
</g>
<!-- Node35 -->
<g id="Node000035" class="node">
<title>Node35</title>
<g id="a_Node000035"><a xlink:href="../../dc/d69/ConstCpPoly_8h.html" target="_top" xlink:title="Headers for the SpeciesThermoInterpType object that employs a constant heat capacity assumption (see ...">
<polygon fill="white" stroke="#666666" points="244,-415 80,-415 80,-396 244,-396 244,-415"/>
<text text-anchor="middle" x="162" y="-403" font-family="Helvetica,sans-Serif" font-size="10.00">cantera/thermo/ConstCpPoly.h</text>
</a>
</g>
</g>
<!-- Node1&#45;&gt;Node35 -->
<g id="edge48_Node000001_Node000035" class="edge">
<title>Node1&#45;&gt;Node35</title>
<g id="a_edge48_Node000001_Node000035"><a xlink:title=" ">
<path fill="none" stroke="#63b8ff" d="M623.83,-519.72C557.64,-513.49 457.84,-501.58 373,-481 306.52,-464.88 231.67,-435.69 191.42,-419.04"/>
<polygon fill="#63b8ff" stroke="#63b8ff" points="192.53,-415.71 181.95,-415.09 189.84,-422.17 192.53,-415.71"/>
</a>
</g>
</g>
<!-- Node36 -->
<g id="Node000036" class="node">
<title>Node36</title>
<g id="a_Node000036"><a xlink:href="../../df/dfd/VPStandardStateTP_8h.html" target="_top" xlink:title="Header file for a derived class of ThermoPhase that handles variable pressure standard state methods ...">
<polygon fill="white" stroke="#666666" points="1042.5,-481 891.5,-481 891.5,-451 1042.5,-451 1042.5,-481"/>
<text text-anchor="start" x="899.5" y="-469" font-family="Helvetica,sans-Serif" font-size="10.00">cantera/thermo/VPStandard</text>
<text text-anchor="middle" x="967" y="-458" font-family="Helvetica,sans-Serif" font-size="10.00">StateTP.h</text>
</a>
</g>
</g>
<!-- Node1&#45;&gt;Node36 -->
<g id="edge52_Node000001_Node000036" class="edge">
<title>Node1&#45;&gt;Node36</title>
<g id="a_edge52_Node000001_Node000036"><a xlink:title=" ">
<path fill="none" stroke="#63b8ff" d="M736.26,-516.99C777.05,-508.16 841.87,-494.11 892.44,-483.16"/>
<polygon fill="#63b8ff" stroke="#63b8ff" points="893.32,-486.55 902.35,-481.01 891.83,-479.7 893.32,-486.55"/>
</a>
</g>
</g>
<!-- Node42 -->
<g id="Node000042" class="node">
<title>Node42</title>
<g id="a_Node000042"><a xlink:href="../../dd/dc3/stringUtils_8h.html" target="_top" xlink:title="Contains declarations for string manipulation functions within Cantera.">
<polygon fill="white" stroke="#666666" points="1416,-294 1274,-294 1274,-275 1416,-275 1416,-294"/>
<text text-anchor="middle" x="1345" y="-282" font-family="Helvetica,sans-Serif" font-size="10.00">cantera/base/stringUtils.h</text>
</a>
</g>
</g>
<!-- Node1&#45;&gt;Node42 -->
<g id="edge63_Node000001_Node000042" class="edge">
<title>Node1&#45;&gt;Node42</title>
<g id="a_edge63_Node000001_Node000042"><a xlink:title=" ">
<path fill="none" stroke="#63b8ff" d="M770.21,-523.88C913.62,-520.09 1221.02,-508.82 1260,-481 1319.9,-438.25 1338.03,-343.97 1343.14,-303.99"/>
<polygon fill="#63b8ff" stroke="#63b8ff" points="1346.62,-304.38 1344.28,-294.05 1339.66,-303.58 1346.62,-304.38"/>
</a>
</g>
</g>
<!-- Node3 -->
<g id="Node000003" class="node">
<title>Node3</title>
<g id="a_Node000003"><a xlink:href="../../d4/d87/SpeciesThermoInterpType_8h.html" target="_top" xlink:title="Pure Virtual Base class for individual species reference state thermodynamic managers and text for th...">
<polygon fill="white" stroke="#666666" points="668,-294 516,-294 516,-275 668,-275 668,-294"/>
<text text-anchor="middle" x="592" y="-282" font-family="Helvetica,sans-Serif" font-size="10.00">SpeciesThermoInterpType.h</text>
</a>
</g>
</g>
<!-- Node2&#45;&gt;Node3 -->
<g id="edge2_Node000002_Node000003" class="edge">
<title>Node2&#45;&gt;Node3</title>
<g id="a_edge2_Node000002_Node000003"><a xlink:title=" ">
<path fill="none" stroke="#63b8ff" d="M170.15,-334.18C264.17,-323.33 414.59,-305.97 508.11,-295.18"/>
<polygon fill="#63b8ff" stroke="#63b8ff" points="508.56,-298.65 518.1,-294.03 507.76,-291.7 508.56,-298.65"/>
</a>
</g>
</g>
<!-- Node4 -->
<g id="Node000004" class="node">
<title>Node4</title>
<g id="a_Node000004"><a xlink:href="../../d9/ddc/ct__defs_8h.html" target="_top" xlink:title="This file contains definitions of constants, types and terms that are used in internal routines and a...">
<polygon fill="white" stroke="#666666" points="783.5,-74 656.5,-74 656.5,-55 783.5,-55 783.5,-74"/>
<text text-anchor="middle" x="720" y="-62" font-family="Helvetica,sans-Serif" font-size="10.00">cantera/base/ct_defs.h</text>
</a>
</g>
</g>
<!-- Node3&#45;&gt;Node4 -->
<g id="edge3_Node000003_Node000004" class="edge">
<title>Node3&#45;&gt;Node4</title>
<g id="a_edge3_Node000003_Node000004"><a xlink:title=" ">
<path fill="none" stroke="#63b8ff" d="M544.11,-274.96C441.3,-254.72 215.07,-198.74 295,-110 318.01,-84.45 530.61,-72.57 646.12,-67.96"/>
<polygon fill="#63b8ff" stroke="#63b8ff" points="646.45,-71.45 656.3,-67.56 646.17,-64.45 646.45,-71.45"/>
</a>
</g>
</g>
<!-- Node15 -->
<g id="Node000015" class="node">
<title>Node15</title>
<g id="a_Node000015"><a xlink:href="../../db/d98/ctexceptions_8h.html" target="_top" xlink:title="Definitions for the classes that are thrown when Cantera experiences an error condition (also contain...">
<polygon fill="white" stroke="#666666" points="671,-184 517,-184 517,-165 671,-165 671,-184"/>
<text text-anchor="middle" x="594" y="-172" font-family="Helvetica,sans-Serif" font-size="10.00">cantera/base/ctexceptions.h</text>
</a>
</g>
</g>
<!-- Node3&#45;&gt;Node15 -->
<g id="edge14_Node000003_Node000015" class="edge">
<title>Node3&#45;&gt;Node15</title>
<g id="a_edge14_Node000003_Node000015"><a xlink:title=" ">
<path fill="none" stroke="#63b8ff" d="M592.16,-274.66C592.49,-257.17 593.22,-217.8 593.65,-194.27"/>
<polygon fill="#63b8ff" stroke="#63b8ff" points="597.15,-194.22 593.84,-184.16 590.16,-194.09 597.15,-194.22"/>
</a>
</g>
</g>
<!-- Node21 -->
<g id="Node000021" class="node">
<title>Node21</title>
<g id="a_Node000021"><a xlink:href="../../dd/d2a/AnyMap_8h.html" target="_top" xlink:title=" ">
<polygon fill="white" stroke="#666666" points="972.5,-239 841.5,-239 841.5,-220 972.5,-220 972.5,-239"/>
<text text-anchor="middle" x="907" y="-227" font-family="Helvetica,sans-Serif" font-size="10.00">cantera/base/AnyMap.h</text>
</a>
</g>
</g>
<!-- Node3&#45;&gt;Node21 -->
<g id="edge19_Node000003_Node000021" class="edge">
<title>Node3&#45;&gt;Node21</title>
<g id="a_edge19_Node000003_Node000021"><a xlink:title=" ">
<path fill="none" stroke="#63b8ff" d="M642.61,-274.98C698.1,-265.65 787.09,-250.67 846.29,-240.71"/>
<polygon fill="#63b8ff" stroke="#63b8ff" points="846.97,-244.15 856.25,-239.04 845.81,-237.25 846.97,-244.15"/>
</a>
</g>
</g>
<!-- Node5 -->
<g id="Node000005" class="node">
<title>Node5</title>
<g id="a_Node000005"><a xlink:href="../../db/d16/config_8h_source.html" target="_top" xlink:title=" ">
<polygon fill="white" stroke="#666666" points="459.5,-19 404.5,-19 404.5,0 459.5,0 459.5,-19"/>
<text text-anchor="middle" x="432" y="-7" font-family="Helvetica,sans-Serif" font-size="10.00">config.h</text>
</a>
</g>
</g>
<!-- Node4&#45;&gt;Node5 -->
<g id="edge4_Node000004_Node000005" class="edge">
<title>Node4&#45;&gt;Node5</title>
<g id="a_edge4_Node000004_Node000005"><a xlink:title=" ">
<path fill="none" stroke="#63b8ff" d="M666.25,-54.92C617.31,-46.9 542.83,-34.19 469.71,-19.27"/>
<polygon fill="#63b8ff" stroke="#63b8ff" points="470.37,-15.83 459.87,-17.25 468.96,-22.69 470.37,-15.83"/>
</a>
</g>
</g>
<!-- Node6 -->
<g id="Node000006" class="node">
<title>Node6</title>
<g id="a_Node000006"><a xlink:title=" ">
<polygon fill="#e0e0e0" stroke="#999999" points="524.5,-19 477.5,-19 477.5,0 524.5,0 524.5,-19"/>
<text text-anchor="middle" x="501" y="-7" font-family="Helvetica,sans-Serif" font-size="10.00">cmath</text>
</a>
</g>
</g>
<!-- Node4&#45;&gt;Node6 -->
<g id="edge5_Node000004_Node000006" class="edge">
<title>Node4&#45;&gt;Node6</title>
<g id="a_edge5_Node000004_Node000006"><a xlink:title=" ">
<path fill="none" stroke="#63b8ff" d="M682.68,-54.92C646.95,-46.64 591.29,-33.56 534.59,-19.36"/>
<polygon fill="#63b8ff" stroke="#63b8ff" points="535.3,-15.93 524.75,-16.88 533.59,-22.71 535.3,-15.93"/>
</a>
</g>
</g>
<!-- Node7 -->
<g id="Node000007" class="node">
<title>Node7</title>
<g id="a_Node000007"><a xlink:title=" ">
<polygon fill="#e0e0e0" stroke="#999999" points="591.5,-19 542.5,-19 542.5,0 591.5,0 591.5,-19"/>
<text text-anchor="middle" x="567" y="-7" font-family="Helvetica,sans-Serif" font-size="10.00">cstdlib</text>
</a>
</g>
</g>
<!-- Node4&#45;&gt;Node7 -->
<g id="edge6_Node000004_Node000007" class="edge">
<title>Node4&#45;&gt;Node7</title>
<g id="a_edge6_Node000004_Node000007"><a xlink:title=" ">
<path fill="none" stroke="#63b8ff" d="M695.42,-54.98C669.88,-46.14 629.72,-32.23 601.11,-22.32"/>
<polygon fill="#63b8ff" stroke="#63b8ff" points="602.12,-18.96 591.52,-18.99 599.82,-25.57 602.12,-18.96"/>
</a>
</g>
</g>
<!-- Node8 -->
<g id="Node000008" class="node">
<title>Node8</title>
<g id="a_Node000008"><a xlink:title=" ">
<polygon fill="#e0e0e0" stroke="#999999" points="656.5,-19 609.5,-19 609.5,0 656.5,0 656.5,-19"/>
<text text-anchor="middle" x="633" y="-7" font-family="Helvetica,sans-Serif" font-size="10.00">vector</text>
</a>
</g>
</g>
<!-- Node4&#45;&gt;Node8 -->
<g id="edge7_Node000004_Node000008" class="edge">
<title>Node4&#45;&gt;Node8</title>
<g id="a_edge7_Node000004_Node000008"><a xlink:title=" ">
<path fill="none" stroke="#63b8ff" d="M706.02,-54.98C692.53,-46.77 671.87,-34.18 655.96,-24.49"/>
<polygon fill="#63b8ff" stroke="#63b8ff" points="657.59,-21.38 647.23,-19.17 653.95,-27.36 657.59,-21.38"/>
</a>
</g>
</g>
<!-- Node9 -->
<g id="Node000009" class="node">
<title>Node9</title>
<g id="a_Node000009"><a xlink:title=" ">
<polygon fill="#e0e0e0" stroke="#999999" points="713,-19 675,-19 675,0 713,0 713,-19"/>
<text text-anchor="middle" x="694" y="-7" font-family="Helvetica,sans-Serif" font-size="10.00">map</text>
</a>
</g>
</g>
<!-- Node4&#45;&gt;Node9 -->
<g id="edge8_Node000004_Node000009" class="edge">
<title>Node4&#45;&gt;Node9</title>
<g id="a_edge8_Node000004_Node000009"><a xlink:title=" ">
<path fill="none" stroke="#63b8ff" d="M715.71,-54.75C712.19,-47.57 707.09,-37.18 702.72,-28.27"/>
<polygon fill="#63b8ff" stroke="#63b8ff" points="705.76,-26.53 698.21,-19.09 699.48,-29.61 705.76,-26.53"/>
</a>
</g>
</g>
<!-- Node10 -->
<g id="Node000010" class="node">
<title>Node10</title>
<g id="a_Node000010"><a xlink:title=" ">
<polygon fill="#e0e0e0" stroke="#999999" points="763,-19 731,-19 731,0 763,0 763,-19"/>
<text text-anchor="middle" x="747" y="-7" font-family="Helvetica,sans-Serif" font-size="10.00">set</text>
</a>
</g>
</g>
<!-- Node4&#45;&gt;Node10 -->
<g id="edge9_Node000004_Node000010" class="edge">
<title>Node4&#45;&gt;Node10</title>
<g id="a_edge9_Node000004_Node000010"><a xlink:title=" ">
<path fill="none" stroke="#63b8ff" d="M724.46,-54.75C728.12,-47.57 733.41,-37.18 737.95,-28.27"/>
<polygon fill="#63b8ff" stroke="#63b8ff" points="741.2,-29.59 742.62,-19.09 734.97,-26.41 741.2,-29.59"/>
</a>
</g>
</g>
<!-- Node11 -->
<g id="Node000011" class="node">
<title>Node11</title>
<g id="a_Node000011"><a xlink:title=" ">
<polygon fill="#e0e0e0" stroke="#999999" points="825,-19 781,-19 781,0 825,0 825,-19"/>
<text text-anchor="middle" x="803" y="-7" font-family="Helvetica,sans-Serif" font-size="10.00">string</text>
</a>
</g>
</g>
<!-- Node4&#45;&gt;Node11 -->
<g id="edge10_Node000004_Node000011" class="edge">
<title>Node4&#45;&gt;Node11</title>
<g id="a_edge10_Node000004_Node000011"><a xlink:title=" ">
<path fill="none" stroke="#63b8ff" d="M733.34,-54.98C746.09,-46.84 765.55,-34.41 780.67,-24.76"/>
<polygon fill="#63b8ff" stroke="#63b8ff" points="782.88,-27.5 789.42,-19.17 779.11,-21.6 782.88,-27.5"/>
</a>
</g>
</g>
<!-- Node12 -->
<g id="Node000012" class="node">
<title>Node12</title>
<g id="a_Node000012"><a xlink:title=" ">
<polygon fill="#e0e0e0" stroke="#999999" points="907,-19 843,-19 843,0 907,0 907,-19"/>
<text text-anchor="middle" x="875" y="-7" font-family="Helvetica,sans-Serif" font-size="10.00">algorithm</text>
</a>
</g>
</g>
<!-- Node4&#45;&gt;Node12 -->
<g id="edge11_Node000004_Node000012" class="edge">
<title>Node4&#45;&gt;Node12</title>
<g id="a_edge11_Node000004_Node000012"><a xlink:title=" ">
<path fill="none" stroke="#63b8ff" d="M744.9,-54.98C770.7,-46.16 811.22,-32.31 840.18,-22.41"/>
<polygon fill="#63b8ff" stroke="#63b8ff" points="841.57,-25.63 849.9,-19.08 839.31,-19.01 841.57,-25.63"/>
</a>
</g>
</g>
<!-- Node13 -->
<g id="Node000013" class="node">
<title>Node13</title>
<g id="a_Node000013"><a xlink:title=" ">
<polygon fill="#e0e0e0" stroke="#999999" points="983,-19 925,-19 925,0 983,0 983,-19"/>
<text text-anchor="middle" x="954" y="-7" font-family="Helvetica,sans-Serif" font-size="10.00">memory</text>
</a>
</g>
</g>
<!-- Node4&#45;&gt;Node13 -->
<g id="edge12_Node000004_Node000013" class="edge">
<title>Node4&#45;&gt;Node13</title>
<g id="a_edge12_Node000004_Node000013"><a xlink:title=" ">
<path fill="none" stroke="#63b8ff" d="M757.6,-54.98C800.77,-45.21 871.27,-29.24 915.02,-19.33"/>
<polygon fill="#63b8ff" stroke="#63b8ff" points="916.02,-22.69 925,-17.07 914.47,-15.86 916.02,-22.69"/>
</a>
</g>
</g>
<!-- Node14 -->
<g id="Node000014" class="node">
<title>Node14</title>
<g id="a_Node000014"><a xlink:title=" ">
<polygon fill="#e0e0e0" stroke="#999999" points="1066.5,-19 1001.5,-19 1001.5,0 1066.5,0 1066.5,-19"/>
<text text-anchor="middle" x="1034" y="-7" font-family="Helvetica,sans-Serif" font-size="10.00">functional</text>
</a>
</g>
</g>
<!-- Node4&#45;&gt;Node14 -->
<g id="edge13_Node000004_Node000014" class="edge">
<title>Node4&#45;&gt;Node14</title>
<g id="a_edge13_Node000004_Node000014"><a xlink:title=" ">
<path fill="none" stroke="#63b8ff" d="M775.85,-54.99C828.75,-46.79 910.69,-33.72 991.6,-19.01"/>
<polygon fill="#63b8ff" stroke="#63b8ff" points="992.26,-22.45 1001.46,-17.21 991,-15.56 992.26,-22.45"/>
</a>
</g>
</g>
<!-- Node15&#45;&gt;Node4 -->
<g id="edge15_Node000015_Node000004" class="edge">
<title>Node15&#45;&gt;Node4</title>
<g id="a_edge15_Node000015_Node000004"><a xlink:title=" ">
<path fill="none" stroke="#63b8ff" d="M559.95,-164.95C525.25,-154.61 479.24,-135.38 500,-110 518.36,-87.56 589.71,-76.17 646.25,-70.57"/>
<polygon fill="#63b8ff" stroke="#63b8ff" points="646.63,-74.05 656.26,-69.62 645.97,-67.08 646.63,-74.05"/>
</a>
</g>
</g>
<!-- Node16 -->
<g id="Node000016" class="node">
<title>Node16</title>
<g id="a_Node000016"><a xlink:href="../../db/def/fmt_8h.html" target="_top" xlink:title="Wrapper for either system&#45;installed or local headers for fmt.">
<polygon fill="#fff0f0" stroke="red" points="701.5,-129 592.5,-129 592.5,-110 701.5,-110 701.5,-129"/>
<text text-anchor="middle" x="647" y="-117" font-family="Helvetica,sans-Serif" font-size="10.00">cantera/base/fmt.h</text>
</a>
</g>
</g>
<!-- Node15&#45;&gt;Node16 -->
<g id="edge16_Node000015_Node000016" class="edge">
<title>Node15&#45;&gt;Node16</title>
<g id="a_edge16_Node000015_Node000016"><a xlink:title=" ">
<path fill="none" stroke="#63b8ff" d="M602.75,-164.75C610.47,-157.03 621.9,-145.6 631.22,-136.28"/>
<polygon fill="#63b8ff" stroke="#63b8ff" points="633.81,-138.64 638.41,-129.09 628.86,-133.69 633.81,-138.64"/>
</a>
</g>
</g>
<!-- Node20 -->
<g id="Node000020" class="node">
<title>Node20</title>
<g id="a_Node000020"><a xlink:title=" ">
<polygon fill="#e0e0e0" stroke="#999999" points="574.5,-129 509.5,-129 509.5,-110 574.5,-110 574.5,-129"/>
<text text-anchor="middle" x="542" y="-117" font-family="Helvetica,sans-Serif" font-size="10.00">exception</text>
</a>
</g>
</g>
<!-- Node15&#45;&gt;Node20 -->
<g id="edge18_Node000015_Node000020" class="edge">
<title>Node15&#45;&gt;Node20</title>
<g id="a_edge18_Node000015_Node000020"><a xlink:title=" ">
<path fill="none" stroke="#63b8ff" d="M585.41,-164.75C577.84,-157.03 566.62,-145.6 557.49,-136.28"/>
<polygon fill="#63b8ff" stroke="#63b8ff" points="559.93,-133.78 550.43,-129.09 554.93,-138.68 559.93,-133.78"/>
</a>
</g>
</g>
<!-- Node16&#45;&gt;Node4 -->
<g id="edge17_Node000016_Node000004" class="edge">
<title>Node16&#45;&gt;Node4</title>
<g id="a_edge17_Node000016_Node000004"><a xlink:title=" ">
<path fill="none" stroke="#63b8ff" d="M658.73,-109.98C669.73,-102 686.42,-89.88 699.6,-80.31"/>
<polygon fill="#63b8ff" stroke="#63b8ff" points="702.02,-82.88 708.06,-74.17 697.91,-77.21 702.02,-82.88"/>
</a>
</g>
</g>
<!-- Node21&#45;&gt;Node4 -->
<g id="edge20_Node000021_Node000004" class="edge">
<title>Node21&#45;&gt;Node4</title>
<g id="a_edge20_Node000021_Node000004"><a xlink:title=" ">
<path fill="none" stroke="#63b8ff" d="M841.46,-223.41C815.15,-217.76 787.26,-206.43 771,-184 737.28,-137.48 911.65,-155.83 877,-110 865.59,-94.91 823.35,-83.45 785.56,-75.94"/>
<polygon fill="#63b8ff" stroke="#63b8ff" points="786.03,-72.47 775.55,-74.03 784.72,-79.35 786.03,-72.47"/>
</a>
</g>
</g>
<!-- Node21&#45;&gt;Node15 -->
<g id="edge21_Node000021_Node000015" class="edge">
<title>Node21&#45;&gt;Node15</title>
<g id="a_edge21_Node000021_Node000015"><a xlink:title=" ">
<path fill="none" stroke="#63b8ff" d="M856.71,-219.98C801.58,-210.65 713.15,-195.67 654.32,-185.71"/>
<polygon fill="#63b8ff" stroke="#63b8ff" points="654.87,-182.26 644.42,-184.04 653.7,-189.16 654.87,-182.26"/>
</a>
</g>
</g>
<!-- Node21&#45;&gt;Node22 -->
<g id="edge22_Node000021_Node000022" class="edge">
<title>Node21&#45;&gt;Node22</title>
<g id="a_edge22_Node000021_Node000022"><a xlink:title=" ">
<path fill="none" stroke="#63b8ff" d="M962.91,-219.98C1024.46,-210.61 1123.34,-195.55 1188.74,-185.59"/>
<polygon fill="#63b8ff" stroke="#63b8ff" points="1189.58,-189 1198.94,-184.04 1188.53,-182.08 1189.58,-189"/>
</a>
</g>
</g>
<!-- Node23 -->
<g id="Node000023" class="node">
<title>Node23</title>
<g id="a_Node000023"><a xlink:title=" ">
<polygon fill="#e0e0e0" stroke="#999999" points="1091.5,-184 998.5,-184 998.5,-165 1091.5,-165 1091.5,-184"/>
<text text-anchor="middle" x="1045" y="-172" font-family="Helvetica,sans-Serif" font-size="10.00">unordered_map</text>
</a>
</g>
</g>
<!-- Node21&#45;&gt;Node23 -->
<g id="edge24_Node000021_Node000023" class="edge">
<title>Node21&#45;&gt;Node23</title>
<g id="a_edge24_Node000021_Node000023"><a xlink:title=" ">
<path fill="none" stroke="#63b8ff" d="M929.17,-219.98C951.77,-211.3 987.06,-197.75 1012.75,-187.88"/>
<polygon fill="#63b8ff" stroke="#63b8ff" points="1014.34,-191.02 1022.42,-184.17 1011.83,-184.49 1014.34,-191.02"/>
</a>
</g>
</g>
<!-- Node24 -->
<g id="Node000024" class="node">
<title>Node24</title>
<g id="a_Node000024"><a xlink:title=" ">
<polygon fill="#e0e0e0" stroke="#999999" points="1178,-184 1110,-184 1110,-165 1178,-165 1178,-184"/>
<text text-anchor="middle" x="1144" y="-172" font-family="Helvetica,sans-Serif" font-size="10.00">filesystem</text>
</a>
</g>
</g>
<!-- Node21&#45;&gt;Node24 -->
<g id="edge25_Node000021_Node000024" class="edge">
<title>Node21&#45;&gt;Node24</title>
<g id="a_edge25_Node000021_Node000024"><a xlink:title=" ">
<path fill="none" stroke="#63b8ff" d="M945.08,-219.98C987.32,-210.54 1055.39,-195.32 1099.91,-185.36"/>
<polygon fill="#63b8ff" stroke="#63b8ff" points="1100.87,-188.73 1109.86,-183.13 1099.34,-181.9 1100.87,-188.73"/>
</a>
</g>
</g>
<!-- Node25 -->
<g id="Node000025" class="node">
<title>Node25</title>
<g id="a_Node000025"><a xlink:title=" ">
<polygon fill="#e0e0e0" stroke="#999999" points="815.5,-184 780.5,-184 780.5,-165 815.5,-165 815.5,-184"/>
<text text-anchor="middle" x="798" y="-172" font-family="Helvetica,sans-Serif" font-size="10.00">any</text>
</a>
</g>
</g>
<!-- Node21&#45;&gt;Node25 -->
<g id="edge26_Node000021_Node000025" class="edge">
<title>Node21&#45;&gt;Node25</title>
<g id="a_edge26_Node000021_Node000025"><a xlink:title=" ">
<path fill="none" stroke="#63b8ff" d="M889.49,-219.98C872.03,-211.5 844.99,-198.35 824.83,-188.54"/>
<polygon fill="#63b8ff" stroke="#63b8ff" points="826.36,-185.4 815.83,-184.17 823.29,-191.69 826.36,-185.4"/>
</a>
</g>
</g>
<!-- Node26 -->
<g id="Node000026" class="node">
<title>Node26</title>
<g id="a_Node000026"><a xlink:href="../../da/d4c/AnyMap_8inl_8h.html" target="_top" xlink:title=" ">
<polygon fill="white" stroke="#666666" points="980,-184 834,-184 834,-165 980,-165 980,-184"/>
<text text-anchor="middle" x="907" y="-172" font-family="Helvetica,sans-Serif" font-size="10.00">cantera/base/AnyMap.inl.h</text>
</a>
</g>
</g>
<!-- Node21&#45;&gt;Node26 -->
<g id="edge27_Node000021_Node000026" class="edge">
<title>Node21&#45;&gt;Node26</title>
<g id="a_edge27_Node000021_Node000026"><a xlink:title=" ">
<path fill="none" stroke="#63b8ff" d="M901.83,-219.75C900.34,-212.8 899.9,-202.85 900.52,-194.13"/>
<polygon fill="#63b8ff" stroke="#63b8ff" points="904.01,-194.47 901.87,-184.09 897.07,-193.53 904.01,-194.47"/>
</a>
</g>
</g>
<!-- Node22&#45;&gt;Node4 -->
<g id="edge23_Node000022_Node000004" class="edge">
<title>Node22&#45;&gt;Node4</title>
<g id="a_edge23_Node000022_Node000004"><a xlink:title=" ">
<path fill="none" stroke="#63b8ff" d="M1212.57,-164.94C1115.61,-145.36 878.01,-97.4 772.25,-76.05"/>
<polygon fill="#63b8ff" stroke="#63b8ff" points="772.93,-72.61 762.43,-74.07 771.54,-79.48 772.93,-72.61"/>
</a>
</g>
</g>
<!-- Node26&#45;&gt;Node21 -->
<g id="edge28_Node000026_Node000021" class="edge">
<title>Node26&#45;&gt;Node21</title>
<g id="a_edge28_Node000026_Node000021"><a xlink:title=" ">
<path fill="none" stroke="#63b8ff" d="M912.13,-184.09C913.64,-190.99 914.09,-200.93 913.49,-209.66"/>
<polygon fill="#63b8ff" stroke="#63b8ff" points="910,-209.38 912.17,-219.75 916.94,-210.29 910,-209.38"/>
</a>
</g>
</g>
<!-- Node27&#45;&gt;Node3 -->
<g id="edge30_Node000027_Node000003" class="edge">
<title>Node27&#45;&gt;Node3</title>
<g id="a_edge30_Node000027_Node000003"><a xlink:title=" ">
<path fill="none" stroke="#63b8ff" d="M781.36,-329.99C737.46,-319.67 678.63,-305.85 638.25,-296.37"/>
<polygon fill="#63b8ff" stroke="#63b8ff" points="638.94,-292.93 628.41,-294.05 637.34,-299.75 638.94,-292.93"/>
</a>
</g>
</g>
<!-- Node28&#45;&gt;Node3 -->
<g id="edge32_Node000028_Node000003" class="edge">
<title>Node28&#45;&gt;Node3</title>
<g id="a_edge32_Node000028_Node000003"><a xlink:title=" ">
<path fill="none" stroke="#63b8ff" d="M333.32,-395.91C332.61,-380.35 333.55,-347.48 352,-330 373.95,-309.2 446.04,-297.76 505.53,-291.71"/>
<polygon fill="#63b8ff" stroke="#63b8ff" points="506.1,-295.17 515.72,-290.71 505.42,-288.2 506.1,-295.17"/>
</a>
</g>
</g>
<!-- Node28&#45;&gt;Node29 -->
<g id="edge33_Node000028_Node000029" class="edge">
<title>Node28&#45;&gt;Node29</title>
<g id="a_edge33_Node000028_Node000029"><a xlink:title=" ">
<path fill="none" stroke="#63b8ff" d="M350.53,-395.87C366.15,-387.71 390.1,-375.2 410.11,-364.75"/>
<polygon fill="#63b8ff" stroke="#63b8ff" points="411.73,-367.85 418.98,-360.11 408.49,-361.64 411.73,-367.85"/>
</a>
</g>
</g>
<!-- Node30&#45;&gt;Node31 -->
<g id="edge35_Node000030_Node000031" class="edge">
<title>Node30&#45;&gt;Node31</title>
<g id="a_edge35_Node000030_Node000031"><a xlink:title=" ">
<path fill="none" stroke="#63b8ff" d="M543,-450.84C543,-443.21 543,-433.7 543,-425.45"/>
<polygon fill="#63b8ff" stroke="#63b8ff" points="546.5,-425.27 543,-415.27 539.5,-425.27 546.5,-425.27"/>
</a>
</g>
</g>
<!-- Node31&#45;&gt;Node3 -->
<g id="edge36_Node000031_Node000003" class="edge">
<title>Node31&#45;&gt;Node3</title>
<g id="a_edge36_Node000031_Node000003"><a xlink:title=" ">
<path fill="none" stroke="#63b8ff" d="M546.52,-395.94C554.43,-376.74 573.73,-329.86 584.48,-303.77"/>
<polygon fill="#63b8ff" stroke="#63b8ff" points="587.8,-304.88 588.38,-294.3 581.33,-302.22 587.8,-304.88"/>
</a>
</g>
</g>
<!-- Node31&#45;&gt;Node29 -->
<g id="edge37_Node000031_Node000029" class="edge">
<title>Node31&#45;&gt;Node29</title>
<g id="a_edge37_Node000031_Node000029"><a xlink:title=" ">
<path fill="none" stroke="#63b8ff" d="M528.69,-395.87C515.4,-387.86 495.16,-375.65 478.03,-365.31"/>
<polygon fill="#63b8ff" stroke="#63b8ff" points="479.77,-362.28 469.4,-360.11 476.16,-368.28 479.77,-362.28"/>
</a>
</g>
</g>
<!-- Node32&#45;&gt;Node3 -->
<g id="edge40_Node000032_Node000003" class="edge">
<title>Node32&#45;&gt;Node3</title>
<g id="a_edge40_Node000032_Node000003"><a xlink:title=" ">
<path fill="none" stroke="#63b8ff" d="M765.8,-456.39C786.68,-443.83 819.24,-419.43 805,-396 794.44,-378.62 676.05,-323.46 620.49,-298.27"/>
<polygon fill="#63b8ff" stroke="#63b8ff" points="621.75,-295 611.19,-294.07 618.86,-301.38 621.75,-295"/>
</a>
</g>
</g>
<!-- Node33 -->
<g id="Node000033" class="node">
<title>Node33</title>
<g id="a_Node000033"><a xlink:href="../../d2/d2a/NasaPoly1_8h.html" target="_top" xlink:title="Header for a single&#45;species standard state object derived from SpeciesThermoInterpType based on the N...">
<polygon fill="white" stroke="#666666" points="796.5,-415 641.5,-415 641.5,-396 796.5,-396 796.5,-415"/>
<text text-anchor="middle" x="719" y="-403" font-family="Helvetica,sans-Serif" font-size="10.00">cantera/thermo/NasaPoly1.h</text>
</a>
</g>
</g>
<!-- Node32&#45;&gt;Node33 -->
<g id="edge41_Node000032_Node000033" class="edge">
<title>Node32&#45;&gt;Node33</title>
<g id="a_edge41_Node000032_Node000033"><a xlink:title=" ">
<path fill="none" stroke="#63b8ff" d="M745.43,-456.37C740.94,-447.9 733.97,-434.74 728.31,-424.07"/>
<polygon fill="#63b8ff" stroke="#63b8ff" points="731.37,-422.36 723.59,-415.17 725.18,-425.64 731.37,-422.36"/>
</a>
</g>
</g>
<!-- Node33&#45;&gt;Node3 -->
<g id="edge42_Node000033_Node000003" class="edge">
<title>Node33&#45;&gt;Node3</title>
<g id="a_edge42_Node000033_Node000003"><a xlink:title=" ">
<path fill="none" stroke="#63b8ff" d="M709.87,-395.94C688.73,-376.14 636.2,-326.91 608.97,-301.4"/>
<polygon fill="#63b8ff" stroke="#63b8ff" points="611.08,-298.59 601.39,-294.3 606.3,-303.69 611.08,-298.59"/>
</a>
</g>
</g>
<!-- Node33&#45;&gt;Node21 -->
<g id="edge44_Node000033_Node000021" class="edge">
<title>Node33&#45;&gt;Node21</title>
<g id="a_edge44_Node000033_Node000021"><a xlink:title=" ">
<path fill="none" stroke="#63b8ff" d="M721.22,-395.8C725.38,-380.92 735.52,-350.22 753,-330 787.95,-289.56 843.31,-259.36 877.27,-243.37"/>
<polygon fill="#63b8ff" stroke="#63b8ff" points="879.03,-246.41 886.66,-239.05 876.11,-240.05 879.03,-246.41"/>
</a>
</g>
</g>
<!-- Node33&#45;&gt;Node29 -->
<g id="edge43_Node000033_Node000029" class="edge">
<title>Node33&#45;&gt;Node29</title>
<g id="a_edge43_Node000033_Node000029"><a xlink:title=" ">
<path fill="none" stroke="#63b8ff" d="M679.3,-395.99C638.06,-387.16 572.52,-373.11 521.39,-362.16"/>
<polygon fill="#63b8ff" stroke="#63b8ff" points="521.88,-358.68 511.37,-360.01 520.41,-365.53 521.88,-358.68"/>
</a>
</g>
</g>
<!-- Node34&#45;&gt;Node3 -->
<g id="edge46_Node000034_Node000003" class="edge">
<title>Node34&#45;&gt;Node3</title>
<g id="a_edge46_Node000034_Node000003"><a xlink:title=" ">
<path fill="none" stroke="#63b8ff" d="M1023.57,-335.49C931.1,-324.78 772.61,-306.42 675.58,-295.18"/>
<polygon fill="#63b8ff" stroke="#63b8ff" points="675.86,-291.69 665.52,-294.02 675.05,-298.64 675.86,-291.69"/>
</a>
</g>
</g>
<!-- Node34&#45;&gt;Node21 -->
<g id="edge47_Node000034_Node000021" class="edge">
<title>Node34&#45;&gt;Node21</title>
<g id="a_edge47_Node000034_Node000021"><a xlink:title=" ">
<path fill="none" stroke="#63b8ff" d="M1086.36,-335.5C1068.93,-321.8 1032.94,-294.4 1000,-275 979.51,-262.93 955.24,-251.41 936.64,-243.11"/>
<polygon fill="#63b8ff" stroke="#63b8ff" points="938.04,-239.9 927.47,-239.08 935.22,-246.31 938.04,-239.9"/>
</a>
</g>
</g>
<!-- Node35&#45;&gt;Node3 -->
<g id="edge49_Node000035_Node000003" class="edge">
<title>Node35&#45;&gt;Node3</title>
<g id="a_edge49_Node000035_Node000003"><a xlink:title=" ">
<path fill="none" stroke="#63b8ff" d="M178.01,-395.96C207.72,-380.47 273.74,-347.72 333,-330 389.45,-313.12 454.86,-301.95 505.82,-295.02"/>
<polygon fill="#63b8ff" stroke="#63b8ff" points="506.36,-298.48 515.81,-293.69 505.44,-291.54 506.36,-298.48"/>
</a>
</g>
</g>
<!-- Node35&#45;&gt;Node29 -->
<g id="edge50_Node000035_Node000029" class="edge">
<title>Node35&#45;&gt;Node29</title>
<g id="a_edge50_Node000035_Node000029"><a xlink:title=" ">
<path fill="none" stroke="#63b8ff" d="M203.3,-395.99C246.29,-387.14 314.67,-373.05 367.9,-362.09"/>
<polygon fill="#63b8ff" stroke="#63b8ff" points="368.91,-365.45 378,-360.01 367.5,-358.6 368.91,-365.45"/>
</a>
</g>
</g>
<!-- Node37 -->
<g id="Node000037" class="node">
<title>Node37</title>
<g id="a_Node000037"><a xlink:href="../../d7/d01/ThermoPhase_8h.html" target="_top" xlink:title="Header file for class ThermoPhase, the base class for phases with thermodynamic properties,...">
<polygon fill="white" stroke="#666666" points="1013,-415 921,-415 921,-396 1013,-396 1013,-415"/>
<text text-anchor="middle" x="967" y="-403" font-family="Helvetica,sans-Serif" font-size="10.00">ThermoPhase.h</text>
</a>
</g>
</g>
<!-- Node36&#45;&gt;Node37 -->
<g id="edge53_Node000036_Node000037" class="edge">
<title>Node36&#45;&gt;Node37</title>
<g id="a_edge53_Node000036_Node000037"><a xlink:title=" ">
<path fill="none" stroke="#63b8ff" d="M967,-450.84C967,-443.21 967,-433.7 967,-425.45"/>
<polygon fill="#63b8ff" stroke="#63b8ff" points="970.5,-425.27 967,-415.27 963.5,-425.27 970.5,-425.27"/>
</a>
</g>
</g>
<!-- Node37&#45;&gt;Node21 -->
<g id="edge62_Node000037_Node000021" class="edge">
<title>Node37&#45;&gt;Node21</title>
<g id="a_edge62_Node000037_Node000021"><a xlink:title=" ">
<path fill="none" stroke="#63b8ff" d="M969.01,-395.72C973.53,-373.9 982.56,-316.03 962,-275 955.62,-262.26 943.73,-251.93 932.63,-244.44"/>
<polygon fill="#63b8ff" stroke="#63b8ff" points="934.36,-241.39 924.02,-239.05 930.64,-247.33 934.36,-241.39"/>
</a>
</g>
</g>
<!-- Node37&#45;&gt;Node22 -->
<g id="edge61_Node000037_Node000022" class="edge">
<title>Node37&#45;&gt;Node22</title>
<g id="a_edge61_Node000037_Node000022"><a xlink:title=" ">
<path fill="none" stroke="#63b8ff" d="M1013.43,-400.74C1070.73,-395.18 1163.71,-382.87 1189,-360 1237.27,-316.34 1207.4,-280.26 1232,-220 1235.74,-210.84 1240.7,-201.04 1245.05,-192.97"/>
<polygon fill="#63b8ff" stroke="#63b8ff" points="1248.15,-194.59 1249.94,-184.15 1242.03,-191.19 1248.15,-194.59"/>
</a>
</g>
</g>
<!-- Node37&#45;&gt;Node27 -->
<g id="edge60_Node000037_Node000027" class="edge">
<title>Node37&#45;&gt;Node27</title>
<g id="a_edge60_Node000037_Node000027"><a xlink:title=" ">
<path fill="none" stroke="#63b8ff" d="M948.68,-395.99C930.92,-387.75 903.41,-374.98 880.64,-364.4"/>
<polygon fill="#63b8ff" stroke="#63b8ff" points="882.08,-361.21 871.54,-360.18 879.13,-367.56 882.08,-361.21"/>
</a>
</g>
</g>
<!-- Node38 -->
<g id="Node000038" class="node">
<title>Node38</title>
<g id="a_Node000038"><a xlink:href="../../da/d84/Phase_8h.html" target="_top" xlink:title="Header file for class Phase.">
<polygon fill="white" stroke="#666666" points="706.5,-239 651.5,-239 651.5,-220 706.5,-220 706.5,-239"/>
<text text-anchor="middle" x="679" y="-227" font-family="Helvetica,sans-Serif" font-size="10.00">Phase.h</text>
</a>
</g>
</g>
<!-- Node37&#45;&gt;Node38 -->
<g id="edge54_Node000037_Node000038" class="edge">
<title>Node37&#45;&gt;Node38</title>
<g id="a_edge54_Node000037_Node000038"><a xlink:title=" ">
<path fill="none" stroke="#63b8ff" d="M964.67,-395.9C960.1,-380.62 948.59,-348.59 928,-330 866.29,-274.29 769.49,-247.88 716.6,-237.01"/>
<polygon fill="#63b8ff" stroke="#63b8ff" points="717.12,-233.54 706.63,-235.04 715.76,-240.41 717.12,-233.54"/>
</a>
</g>
</g>
<!-- Node38&#45;&gt;Node15 -->
<g id="edge55_Node000038_Node000015" class="edge">
<title>Node38&#45;&gt;Node15</title>
<g id="a_edge55_Node000038_Node000015"><a xlink:title=" ">
<path fill="none" stroke="#63b8ff" d="M665.34,-219.98C652.16,-211.77 631.97,-199.18 616.43,-189.49"/>
<polygon fill="#63b8ff" stroke="#63b8ff" points="618.24,-186.49 607.91,-184.17 614.54,-192.43 618.24,-186.49"/>
</a>
</g>
</g>
<!-- Node39 -->
<g id="Node000039" class="node">
<title>Node39</title>
<g id="a_Node000039"><a xlink:href="../../d9/dda/Elements_8h.html" target="_top" xlink:title="Contains the getElementWeight function and the definitions of element constraint types.">
<polygon fill="white" stroke="#666666" points="868.5,-129 719.5,-129 719.5,-110 868.5,-110 868.5,-129"/>
<text text-anchor="middle" x="794" y="-117" font-family="Helvetica,sans-Serif" font-size="10.00">cantera/thermo/Elements.h</text>
</a>
</g>
</g>
<!-- Node38&#45;&gt;Node39 -->
<g id="edge56_Node000038_Node000039" class="edge">
<title>Node38&#45;&gt;Node39</title>
<g id="a_edge56_Node000038_Node000039"><a xlink:title=" ">
<path fill="none" stroke="#63b8ff" d="M686.26,-219.9C697.03,-207.32 718.12,-183.4 738,-165 749.36,-154.48 762.94,-143.66 773.88,-135.31"/>
<polygon fill="#63b8ff" stroke="#63b8ff" points="776.11,-138.02 781.99,-129.21 771.9,-132.42 776.11,-138.02"/>
</a>
</g>
</g>
<!-- Node40 -->
<g id="Node000040" class="node">
<title>Node40</title>
<g id="a_Node000040"><a xlink:href="../../d6/df6/ValueCache_8h.html" target="_top" xlink:title=" ">
<polygon fill="#fff0f0" stroke="red" points="453.5,-129 304.5,-129 304.5,-110 453.5,-110 453.5,-129"/>
<text text-anchor="middle" x="379" y="-117" font-family="Helvetica,sans-Serif" font-size="10.00">cantera/base/ValueCache.h</text>
</a>
</g>
</g>
<!-- Node38&#45;&gt;Node40 -->
<g id="edge58_Node000038_Node000040" class="edge">
<title>Node38&#45;&gt;Node40</title>
<g id="a_edge58_Node000038_Node000040"><a xlink:title=" ">
<path fill="none" stroke="#63b8ff" d="M651.22,-223.09C616.95,-216 557.17,-202.28 508,-184 470.03,-169.88 428.37,-148.15 402.95,-134.13"/>
<polygon fill="#63b8ff" stroke="#63b8ff" points="404.48,-130.97 394.04,-129.16 401.07,-137.09 404.48,-130.97"/>
</a>
</g>
</g>
<!-- Node39&#45;&gt;Node4 -->
<g id="edge57_Node000039_Node000004" class="edge">
<title>Node39&#45;&gt;Node4</title>
<g id="a_edge57_Node000039_Node000004"><a xlink:title=" ">
<path fill="none" stroke="#63b8ff" d="M782.11,-109.98C770.85,-101.92 753.71,-89.65 740.29,-80.03"/>
<polygon fill="#63b8ff" stroke="#63b8ff" points="742.27,-77.15 732.11,-74.17 738.2,-82.84 742.27,-77.15"/>
</a>
</g>
</g>
<!-- Node40&#45;&gt;Node4 -->
<g id="edge59_Node000040_Node000004" class="edge">
<title>Node40&#45;&gt;Node4</title>
<g id="a_edge59_Node000040_Node000004"><a xlink:title=" ">
<path fill="none" stroke="#63b8ff" d="M433.79,-109.98C494.1,-100.61 590.99,-85.55 655.07,-75.59"/>
<polygon fill="#63b8ff" stroke="#63b8ff" points="655.72,-79.03 665.07,-74.04 654.65,-72.12 655.72,-79.03"/>
</a>
</g>
</g>
<!-- Node42&#45;&gt;Node4 -->
<g id="edge64_Node000042_Node000004" class="edge">
<title>Node42&#45;&gt;Node4</title>
<g id="a_edge64_Node000042_Node000004"><a xlink:title=" ">
<path fill="none" stroke="#63b8ff" d="M1346.28,-274.84C1348.98,-252.96 1352.7,-195.05 1322,-165 1248.21,-92.78 937.7,-72.85 793.8,-67.45"/>
<polygon fill="#63b8ff" stroke="#63b8ff" points="793.85,-63.95 783.73,-67.09 793.6,-70.95 793.85,-63.95"/>
</a>
</g>
</g>
</g>
</svg>
