<?xml version="1.0" encoding="UTF-8" standalone="no"?>
<!DOCTYPE svg PUBLIC "-//W3C//DTD SVG 1.1//EN"
 "http://www.w3.org/Graphics/SVG/1.1/DTD/svg11.dtd">
<!-- Generated by graphviz version 2.43.0 (0)
 -->
<!-- Title: vcs_VolPhase.cpp Pages: 1 -->
<!--zoomable 487 -->
<svg id="main" version="1.1" xmlns="http://www.w3.org/2000/svg" xmlns:xlink="http://www.w3.org/1999/xlink" xml:space="preserve" onload="init(evt)">
<style type="text/css"><![CDATA[
.edge:hover path { stroke: red; }
.edge:hover polygon { stroke: red; fill: red; }
]]></style>
<script type="text/javascript"><![CDATA[
var edges = document.getElementsByTagName('g');
if (edges && edges.length) {
  for (var i=0;i<edges.length;i++) {
    if (edges[i].id.substr(0,4)=='edge') {
      edges[i].setAttribute('class','edge');
    }
  }
}
]]></script>
        <defs>
                <circle id="rim" cx="0" cy="0" r="7"/>
                <circle id="rim2" cx="0" cy="0" r="3.5"/>
                <g id="zoomPlus">
                        <use xlink:href="#rim" fill="#404040">
                                <set attributeName="fill" to="#808080" begin="zoomplus.mouseover" end="zoomplus.mouseout"/>
                        </use>
                        <path d="M-4,0h8M0,-4v8" fill="none" stroke="white" stroke-width="1.5" pointer-events="none"/>
                </g>
                <g id="zoomMin">
                        <use xlink:href="#rim" fill="#404040">
                                <set attributeName="fill" to="#808080" begin="zoomminus.mouseover" end="zoomminus.mouseout"/>
                        </use>
                        <path d="M-4,0h8" fill="none" stroke="white" stroke-width="1.5" pointer-events="none"/>
                </g>
                <g id="dirArrow">
                        <path fill="none" stroke="white" stroke-width="1.5" d="M0,-3.0v7 M-2.5,-0.5L0,-3.0L2.5,-0.5"/>
                </g>
               <g id="resetDef">
                       <use xlink:href="#rim2" fill="#404040">
                               <set attributeName="fill" to="#808080" begin="reset.mouseover" end="reset.mouseout"/>
                       </use>
               </g>
        </defs>

<script type="text/javascript">
var viewWidth = 1168;
var viewHeight = 487;
var sectionId = 'dynsection-0';
</script>
<script xlink:href="../../svgpan.js"/>
<svg id="graph" class="graph">
<g id="viewport">
<title>vcs_VolPhase.cpp</title>
<polygon fill="white" stroke="transparent" points="-4,4 -4,-483 1164,-483 1164,4 -4,4"/>
<!-- Node1 -->
<g id="node1" class="node">
<title>Node1</title>
<g id="a_node1"><a xlink:title=" ">
<polygon fill="#bfbfbf" stroke="black" points="636.5,-459.5 636.5,-478.5 739.5,-478.5 739.5,-459.5 636.5,-459.5"/>
<text text-anchor="middle" x="688" y="-466.5" font-family="Helvetica,sans-Serif" font-size="10.00">vcs_VolPhase.cpp</text>
</a>
</g>
</g>
<!-- Node2 -->
<g id="node2" class="node">
<title>Node2</title>
<g id="a_node2"><a xlink:href="../../d7/dfb/vcs__VolPhase_8h.html" target="_top" xlink:title="Header for the object representing each phase within vcs.">
<polygon fill="white" stroke="black" points="26,-280.5 26,-299.5 184,-299.5 184,-280.5 26,-280.5"/>
<text text-anchor="middle" x="105" y="-287.5" font-family="Helvetica,sans-Serif" font-size="10.00">cantera/equil/vcs_VolPhase.h</text>
</a>
</g>
</g>
<!-- Node1&#45;&gt;Node2 -->
<g id="edge1" class="edge">
<title>Node1&#45;&gt;Node2</title>
<path fill="none" stroke="midnightblue" d="M636.29,-466.59C511.05,-462.74 198.91,-450.49 161,-423 123.82,-396.04 111.14,-339.37 106.96,-309.83"/>
<polygon fill="midnightblue" stroke="midnightblue" points="110.4,-309.12 105.71,-299.63 103.46,-309.98 110.4,-309.12"/>
</g>
<!-- Node18 -->
<g id="node18" class="node">
<title>Node18</title>
<g id="a_node18"><a xlink:href="../../d0/d1f/vcs__species__thermo_8h.html" target="_top" xlink:title=" ">
<polygon fill="white" stroke="black" points="170,-392.5 170,-422.5 312,-422.5 312,-392.5 170,-392.5"/>
<text text-anchor="start" x="178" y="-410.5" font-family="Helvetica,sans-Serif" font-size="10.00">cantera/equil/vcs_species</text>
<text text-anchor="middle" x="241" y="-399.5" font-family="Helvetica,sans-Serif" font-size="10.00">_thermo.h</text>
</a>
</g>
</g>
<!-- Node1&#45;&gt;Node18 -->
<g id="edge18" class="edge">
<title>Node1&#45;&gt;Node18</title>
<path fill="none" stroke="midnightblue" d="M636.29,-461.12C559.2,-450.86 413.46,-431.46 322.11,-419.3"/>
<polygon fill="midnightblue" stroke="midnightblue" points="322.45,-415.81 312.07,-417.96 321.52,-422.75 322.45,-415.81"/>
</g>
<!-- Node19 -->
<g id="node19" class="node">
<title>Node19</title>
<g id="a_node19"><a xlink:href="../../d4/d51/vcs__solve_8h.html" target="_top" xlink:title="Header file for the internal object that holds the vcs equilibrium problem (see Class VCS_SOLVE and C...">
<polygon fill="white" stroke="black" points="240,-280.5 240,-299.5 380,-299.5 380,-280.5 240,-280.5"/>
<text text-anchor="middle" x="310" y="-287.5" font-family="Helvetica,sans-Serif" font-size="10.00">cantera/equil/vcs_solve.h</text>
</a>
</g>
</g>
<!-- Node1&#45;&gt;Node19 -->
<g id="edge20" class="edge">
<title>Node1&#45;&gt;Node19</title>
<path fill="none" stroke="midnightblue" d="M669.77,-459.46C608.66,-430.85 410.79,-338.2 337.58,-303.91"/>
<polygon fill="midnightblue" stroke="midnightblue" points="339.03,-300.73 328.49,-299.66 336.06,-307.07 339.03,-300.73"/>
</g>
<!-- Node26 -->
<g id="node23" class="node">
<title>Node26</title>
<g id="a_node23"><a xlink:href="../../d7/d01/ThermoPhase_8h.html" target="_top" xlink:title="Header file for class ThermoPhase, the base class for phases with thermodynamic properties,...">
<polygon fill="white" stroke="black" points="636,-398 636,-417 806,-417 806,-398 636,-398"/>
<text text-anchor="middle" x="721" y="-405" font-family="Helvetica,sans-Serif" font-size="10.00">cantera/thermo/ThermoPhase.h</text>
</a>
</g>
</g>
<!-- Node1&#45;&gt;Node26 -->
<g id="edge29" class="edge">
<title>Node1&#45;&gt;Node26</title>
<path fill="none" stroke="midnightblue" d="M692.73,-459.48C697.58,-450.73 705.27,-436.87 711.4,-425.81"/>
<polygon fill="midnightblue" stroke="midnightblue" points="714.49,-427.45 716.28,-417.01 708.37,-424.06 714.49,-427.45"/>
</g>
<!-- Node41 -->
<g id="node34" class="node">
<title>Node41</title>
<g id="a_node34"><a xlink:href="../../dd/dc3/stringUtils_8h.html" target="_top" xlink:title="Contains declarations for string manipulation functions within Cantera.">
<polygon fill="white" stroke="black" points="1018,-336.5 1018,-355.5 1160,-355.5 1160,-336.5 1018,-336.5"/>
<text text-anchor="middle" x="1089" y="-343.5" font-family="Helvetica,sans-Serif" font-size="10.00">cantera/base/stringUtils.h</text>
</a>
</g>
</g>
<!-- Node1&#45;&gt;Node41 -->
<g id="edge51" class="edge">
<title>Node1&#45;&gt;Node41</title>
<path fill="none" stroke="midnightblue" d="M721.71,-459.49C748.11,-452.03 785.23,-439.74 815,-423 834,-412.31 833.25,-401.21 853,-392 881.32,-378.79 957.33,-365.63 1015.51,-356.99"/>
<polygon fill="midnightblue" stroke="midnightblue" points="1016.03,-360.45 1025.41,-355.53 1015.01,-353.52 1016.03,-360.45"/>
</g>
<!-- Node42 -->
<g id="node35" class="node">
<title>Node42</title>
<g id="a_node35"><a xlink:title=" ">
<polygon fill="white" stroke="#bfbfbf" points="862,-398 862,-417 908,-417 908,-398 862,-398"/>
<text text-anchor="middle" x="885" y="-405" font-family="Helvetica,sans-Serif" font-size="10.00">cstdio</text>
</a>
</g>
</g>
<!-- Node1&#45;&gt;Node42 -->
<g id="edge53" class="edge">
<title>Node1&#45;&gt;Node42</title>
<path fill="none" stroke="midnightblue" d="M722.01,-459.48C754.6,-451.07 805.05,-437.42 848,-423 850.13,-422.29 852.31,-421.52 854.5,-420.73"/>
<polygon fill="midnightblue" stroke="midnightblue" points="855.88,-423.95 864,-417.15 853.41,-417.4 855.88,-423.95"/>
</g>
<!-- Node3 -->
<g id="node3" class="node">
<title>Node3</title>
<g id="a_node3"><a xlink:href="../../d0/d2e/vcs__SpeciesProperties_8h.html" target="_top" xlink:title=" ">
<polygon fill="white" stroke="black" points="0,-112.5 0,-131.5 134,-131.5 134,-112.5 0,-112.5"/>
<text text-anchor="middle" x="67" y="-119.5" font-family="Helvetica,sans-Serif" font-size="10.00">vcs_SpeciesProperties.h</text>
</a>
</g>
</g>
<!-- Node2&#45;&gt;Node3 -->
<g id="edge2" class="edge">
<title>Node2&#45;&gt;Node3</title>
<path fill="none" stroke="midnightblue" d="M92.5,-280.3C82.13,-272.25 68.11,-259.24 62,-244 48.29,-209.82 55.69,-165.76 61.72,-141.35"/>
<polygon fill="midnightblue" stroke="midnightblue" points="65.12,-142.18 64.32,-131.62 58.36,-140.38 65.12,-142.18"/>
</g>
<!-- Node15 -->
<g id="node15" class="node">
<title>Node15</title>
<g id="a_node15"><a xlink:href="../../da/d80/vcs__defs_8h.html" target="_top" xlink:title="Defines and definitions within the vcs package.">
<polygon fill="white" stroke="black" points="71,-224.5 71,-243.5 139,-243.5 139,-224.5 71,-224.5"/>
<text text-anchor="middle" x="105" y="-231.5" font-family="Helvetica,sans-Serif" font-size="10.00">vcs_defs.h</text>
</a>
</g>
</g>
<!-- Node2&#45;&gt;Node15 -->
<g id="edge14" class="edge">
<title>Node2&#45;&gt;Node15</title>
<path fill="none" stroke="midnightblue" d="M105,-280.08C105,-273.01 105,-262.86 105,-253.99"/>
<polygon fill="midnightblue" stroke="midnightblue" points="108.5,-253.75 105,-243.75 101.5,-253.75 108.5,-253.75"/>
</g>
<!-- Node16 -->
<g id="node16" class="node">
<title>Node16</title>
<g id="a_node16"><a xlink:href="../../df/dd0/Array_8h.html" target="_top" xlink:title="Header file for class Cantera::Array2D.">
<polygon fill="white" stroke="black" points="157,-224.5 157,-243.5 273,-243.5 273,-224.5 157,-224.5"/>
<text text-anchor="middle" x="215" y="-231.5" font-family="Helvetica,sans-Serif" font-size="10.00">cantera/base/Array.h</text>
</a>
</g>
</g>
<!-- Node2&#45;&gt;Node16 -->
<g id="edge15" class="edge">
<title>Node2&#45;&gt;Node16</title>
<path fill="none" stroke="midnightblue" d="M122.67,-280.32C140.39,-271.62 167.9,-258.12 188.29,-248.11"/>
<polygon fill="midnightblue" stroke="midnightblue" points="189.94,-251.2 197.37,-243.65 186.85,-244.92 189.94,-251.2"/>
</g>
<!-- Node4 -->
<g id="node4" class="node">
<title>Node4</title>
<g id="a_node4"><a xlink:href="../../d9/ddc/ct__defs_8h.html" target="_top" xlink:title="This file contains definitions of constants, types and terms that are used in internal routines and a...">
<polygon fill="white" stroke="black" points="509.5,-56.5 509.5,-75.5 636.5,-75.5 636.5,-56.5 509.5,-56.5"/>
<text text-anchor="middle" x="573" y="-63.5" font-family="Helvetica,sans-Serif" font-size="10.00">cantera/base/ct_defs.h</text>
</a>
</g>
</g>
<!-- Node3&#45;&gt;Node4 -->
<g id="edge3" class="edge">
<title>Node3&#45;&gt;Node4</title>
<path fill="none" stroke="midnightblue" d="M134.19,-113.83C228.83,-103.73 400.78,-85.38 498.98,-74.9"/>
<polygon fill="midnightblue" stroke="midnightblue" points="499.55,-78.36 509.13,-73.82 498.81,-71.4 499.55,-78.36"/>
</g>
<!-- Node5 -->
<g id="node5" class="node">
<title>Node5</title>
<g id="a_node5"><a xlink:href="../../db/d16/config_8h_source.html" target="_top" xlink:title=" ">
<polygon fill="white" stroke="black" points="257.5,-0.5 257.5,-19.5 312.5,-19.5 312.5,-0.5 257.5,-0.5"/>
<text text-anchor="middle" x="285" y="-7.5" font-family="Helvetica,sans-Serif" font-size="10.00">config.h</text>
</a>
</g>
</g>
<!-- Node4&#45;&gt;Node5 -->
<g id="edge4" class="edge">
<title>Node4&#45;&gt;Node5</title>
<path fill="none" stroke="midnightblue" d="M519.21,-56.49C470.24,-48.49 395.75,-35.71 322.69,-20.26"/>
<polygon fill="midnightblue" stroke="midnightblue" points="323.37,-16.83 312.86,-18.17 321.91,-23.68 323.37,-16.83"/>
</g>
<!-- Node6 -->
<g id="node6" class="node">
<title>Node6</title>
<g id="a_node6"><a xlink:title=" ">
<polygon fill="white" stroke="#bfbfbf" points="330.5,-0.5 330.5,-19.5 377.5,-19.5 377.5,-0.5 330.5,-0.5"/>
<text text-anchor="middle" x="354" y="-7.5" font-family="Helvetica,sans-Serif" font-size="10.00">cmath</text>
</a>
</g>
</g>
<!-- Node4&#45;&gt;Node6 -->
<g id="edge5" class="edge">
<title>Node4&#45;&gt;Node6</title>
<path fill="none" stroke="midnightblue" d="M535.64,-56.45C499.89,-48.17 444.21,-35.02 387.57,-20.35"/>
<polygon fill="midnightblue" stroke="midnightblue" points="388.3,-16.92 377.74,-17.78 386.53,-23.69 388.3,-16.92"/>
</g>
<!-- Node7 -->
<g id="node7" class="node">
<title>Node7</title>
<g id="a_node7"><a xlink:title=" ">
<polygon fill="white" stroke="#bfbfbf" points="395.5,-0.5 395.5,-19.5 444.5,-19.5 444.5,-0.5 395.5,-0.5"/>
<text text-anchor="middle" x="420" y="-7.5" font-family="Helvetica,sans-Serif" font-size="10.00">cstdlib</text>
</a>
</g>
</g>
<!-- Node4&#45;&gt;Node7 -->
<g id="edge6" class="edge">
<title>Node4&#45;&gt;Node7</title>
<path fill="none" stroke="midnightblue" d="M548.76,-56.44C523.13,-47.4 482.51,-33.06 453.76,-22.92"/>
<polygon fill="midnightblue" stroke="midnightblue" points="454.72,-19.54 444.13,-19.52 452.39,-26.15 454.72,-19.54"/>
</g>
<!-- Node8 -->
<g id="node8" class="node">
<title>Node8</title>
<g id="a_node8"><a xlink:title=" ">
<polygon fill="white" stroke="#bfbfbf" points="462.5,-0.5 462.5,-19.5 509.5,-19.5 509.5,-0.5 462.5,-0.5"/>
<text text-anchor="middle" x="486" y="-7.5" font-family="Helvetica,sans-Serif" font-size="10.00">vector</text>
</a>
</g>
</g>
<!-- Node4&#45;&gt;Node8 -->
<g id="edge7" class="edge">
<title>Node4&#45;&gt;Node8</title>
<path fill="none" stroke="midnightblue" d="M559.02,-56.32C545.45,-47.9 524.62,-34.97 508.68,-25.07"/>
<polygon fill="midnightblue" stroke="midnightblue" points="510.29,-21.95 499.94,-19.65 506.59,-27.9 510.29,-21.95"/>
</g>
<!-- Node9 -->
<g id="node9" class="node">
<title>Node9</title>
<g id="a_node9"><a xlink:title=" ">
<polygon fill="white" stroke="#bfbfbf" points="528,-0.5 528,-19.5 566,-19.5 566,-0.5 528,-0.5"/>
<text text-anchor="middle" x="547" y="-7.5" font-family="Helvetica,sans-Serif" font-size="10.00">map</text>
</a>
</g>
</g>
<!-- Node4&#45;&gt;Node9 -->
<g id="edge8" class="edge">
<title>Node4&#45;&gt;Node9</title>
<path fill="none" stroke="midnightblue" d="M568.71,-56.08C565.15,-48.69 559.98,-37.95 555.58,-28.81"/>
<polygon fill="midnightblue" stroke="midnightblue" points="558.71,-27.24 551.21,-19.75 552.4,-30.28 558.71,-27.24"/>
</g>
<!-- Node10 -->
<g id="node10" class="node">
<title>Node10</title>
<g id="a_node10"><a xlink:title=" ">
<polygon fill="white" stroke="#bfbfbf" points="584,-0.5 584,-19.5 616,-19.5 616,-0.5 584,-0.5"/>
<text text-anchor="middle" x="600" y="-7.5" font-family="Helvetica,sans-Serif" font-size="10.00">set</text>
</a>
</g>
</g>
<!-- Node4&#45;&gt;Node10 -->
<g id="edge9" class="edge">
<title>Node4&#45;&gt;Node10</title>
<path fill="none" stroke="midnightblue" d="M577.46,-56.08C581.15,-48.69 586.52,-37.95 591.09,-28.81"/>
<polygon fill="midnightblue" stroke="midnightblue" points="594.28,-30.26 595.62,-19.75 588.02,-27.13 594.28,-30.26"/>
</g>
<!-- Node11 -->
<g id="node11" class="node">
<title>Node11</title>
<g id="a_node11"><a xlink:title=" ">
<polygon fill="white" stroke="#bfbfbf" points="634,-0.5 634,-19.5 678,-19.5 678,-0.5 634,-0.5"/>
<text text-anchor="middle" x="656" y="-7.5" font-family="Helvetica,sans-Serif" font-size="10.00">string</text>
</a>
</g>
</g>
<!-- Node4&#45;&gt;Node11 -->
<g id="edge10" class="edge">
<title>Node4&#45;&gt;Node11</title>
<path fill="none" stroke="midnightblue" d="M586.34,-56.32C599.16,-47.98 618.78,-35.21 633.94,-25.35"/>
<polygon fill="midnightblue" stroke="midnightblue" points="636.22,-28.04 642.7,-19.65 632.41,-22.17 636.22,-28.04"/>
</g>
<!-- Node12 -->
<g id="node12" class="node">
<title>Node12</title>
<g id="a_node12"><a xlink:title=" ">
<polygon fill="white" stroke="#bfbfbf" points="696,-0.5 696,-19.5 760,-19.5 760,-0.5 696,-0.5"/>
<text text-anchor="middle" x="728" y="-7.5" font-family="Helvetica,sans-Serif" font-size="10.00">algorithm</text>
</a>
</g>
</g>
<!-- Node4&#45;&gt;Node12 -->
<g id="edge11" class="edge">
<title>Node4&#45;&gt;Node12</title>
<path fill="none" stroke="midnightblue" d="M597.56,-56.44C623.52,-47.4 664.67,-33.06 693.8,-22.92"/>
<polygon fill="midnightblue" stroke="midnightblue" points="695.26,-26.11 703.55,-19.52 692.96,-19.5 695.26,-26.11"/>
</g>
<!-- Node13 -->
<g id="node13" class="node">
<title>Node13</title>
<g id="a_node13"><a xlink:title=" ">
<polygon fill="white" stroke="#bfbfbf" points="778,-0.5 778,-19.5 836,-19.5 836,-0.5 778,-0.5"/>
<text text-anchor="middle" x="807" y="-7.5" font-family="Helvetica,sans-Serif" font-size="10.00">memory</text>
</a>
</g>
</g>
<!-- Node4&#45;&gt;Node13 -->
<g id="edge12" class="edge">
<title>Node4&#45;&gt;Node13</title>
<path fill="none" stroke="midnightblue" d="M610.59,-56.45C648.06,-47.91 707.5,-34.31 768.21,-20.17"/>
<polygon fill="midnightblue" stroke="midnightblue" points="769.01,-23.58 777.96,-17.9 767.43,-16.76 769.01,-23.58"/>
</g>
<!-- Node14 -->
<g id="node14" class="node">
<title>Node14</title>
<g id="a_node14"><a xlink:title=" ">
<polygon fill="white" stroke="#bfbfbf" points="854.5,-0.5 854.5,-19.5 919.5,-19.5 919.5,-0.5 854.5,-0.5"/>
<text text-anchor="middle" x="887" y="-7.5" font-family="Helvetica,sans-Serif" font-size="10.00">functional</text>
</a>
</g>
</g>
<!-- Node4&#45;&gt;Node14 -->
<g id="edge13" class="edge">
<title>Node4&#45;&gt;Node14</title>
<path fill="none" stroke="midnightblue" d="M629.4,-56.46C682.35,-48.27 764.01,-35.17 844.65,-19.99"/>
<polygon fill="midnightblue" stroke="midnightblue" points="845.3,-23.43 854.47,-18.13 843.99,-16.55 845.3,-23.43"/>
</g>
<!-- Node16&#45;&gt;Node4 -->
<g id="edge16" class="edge">
<title>Node16&#45;&gt;Node4</title>
<path fill="none" stroke="midnightblue" d="M210.54,-224.23C204.66,-211.39 195.95,-186.96 204,-168 218,-135.02 229.83,-127.77 262,-112 302.55,-92.12 420.74,-79.13 499.17,-72.44"/>
<polygon fill="midnightblue" stroke="midnightblue" points="499.81,-75.9 509.49,-71.57 499.23,-68.92 499.81,-75.9"/>
</g>
<!-- Node17 -->
<g id="node17" class="node">
<title>Node17</title>
<g id="a_node17"><a xlink:title=" ">
<polygon fill="white" stroke="#bfbfbf" points="213,-168.5 213,-187.5 273,-187.5 273,-168.5 213,-168.5"/>
<text text-anchor="middle" x="243" y="-175.5" font-family="Helvetica,sans-Serif" font-size="10.00">iostream</text>
</a>
</g>
</g>
<!-- Node16&#45;&gt;Node17 -->
<g id="edge17" class="edge">
<title>Node16&#45;&gt;Node17</title>
<path fill="none" stroke="midnightblue" d="M219.62,-224.08C223.46,-216.69 229.02,-205.95 233.76,-196.81"/>
<polygon fill="midnightblue" stroke="midnightblue" points="236.97,-198.24 238.46,-187.75 230.75,-195.02 236.97,-198.24"/>
</g>
<!-- Node18&#45;&gt;Node15 -->
<g id="edge19" class="edge">
<title>Node18&#45;&gt;Node15</title>
<path fill="none" stroke="midnightblue" d="M239.01,-392.24C234.79,-366.82 222.78,-313.25 193,-280 179.79,-265.25 160.62,-254.66 143.54,-247.47"/>
<polygon fill="midnightblue" stroke="midnightblue" points="144.37,-244.04 133.78,-243.63 141.8,-250.55 144.37,-244.04"/>
</g>
<!-- Node19&#45;&gt;Node4 -->
<g id="edge21" class="edge">
<title>Node19&#45;&gt;Node4</title>
<path fill="none" stroke="midnightblue" d="M307.49,-280.21C299.95,-251.71 280.6,-160.83 325,-112 347.91,-86.8 434.66,-75.61 499.14,-70.71"/>
<polygon fill="midnightblue" stroke="midnightblue" points="499.56,-74.18 509.29,-69.97 499.06,-67.2 499.56,-74.18"/>
</g>
<!-- Node19&#45;&gt;Node15 -->
<g id="edge22" class="edge">
<title>Node19&#45;&gt;Node15</title>
<path fill="none" stroke="midnightblue" d="M277.52,-280.44C242.28,-271.16 185.9,-256.31 147.24,-246.13"/>
<polygon fill="midnightblue" stroke="midnightblue" points="147.89,-242.68 137.33,-243.52 146.11,-249.45 147.89,-242.68"/>
</g>
<!-- Node19&#45;&gt;Node16 -->
<g id="edge28" class="edge">
<title>Node19&#45;&gt;Node16</title>
<path fill="none" stroke="midnightblue" d="M294.74,-280.32C279.78,-271.82 256.75,-258.73 239.27,-248.8"/>
<polygon fill="midnightblue" stroke="midnightblue" points="240.65,-245.55 230.23,-243.65 237.19,-251.64 240.65,-245.55"/>
</g>
<!-- Node20 -->
<g id="node20" class="node">
<title>Node20</title>
<g id="a_node20"><a xlink:href="../../df/da3/vcs__internal_8h.html" target="_top" xlink:title="Internal declarations for the VCSnonideal package.">
<polygon fill="white" stroke="black" points="329,-224.5 329,-243.5 481,-243.5 481,-224.5 329,-224.5"/>
<text text-anchor="middle" x="405" y="-231.5" font-family="Helvetica,sans-Serif" font-size="10.00">cantera/equil/vcs_internal.h</text>
</a>
</g>
</g>
<!-- Node19&#45;&gt;Node20 -->
<g id="edge23" class="edge">
<title>Node19&#45;&gt;Node20</title>
<path fill="none" stroke="midnightblue" d="M325.26,-280.32C340.22,-271.82 363.25,-258.73 380.73,-248.8"/>
<polygon fill="midnightblue" stroke="midnightblue" points="382.81,-251.64 389.77,-243.65 379.35,-245.55 382.81,-251.64"/>
</g>
<!-- Node21 -->
<g id="node21" class="node">
<title>Node21</title>
<g id="a_node21"><a xlink:href="../../d2/d49/global_8h.html" target="_top" xlink:title="This file contains definitions for utility functions and text for modules, inputfiles and logging,...">
<polygon fill="white" stroke="black" points="336,-168.5 336,-187.5 458,-187.5 458,-168.5 336,-168.5"/>
<text text-anchor="middle" x="397" y="-175.5" font-family="Helvetica,sans-Serif" font-size="10.00">cantera/base/global.h</text>
</a>
</g>
</g>
<!-- Node20&#45;&gt;Node21 -->
<g id="edge24" class="edge">
<title>Node20&#45;&gt;Node21</title>
<path fill="none" stroke="midnightblue" d="M403.68,-224.08C402.62,-216.93 401.09,-206.64 399.77,-197.69"/>
<polygon fill="midnightblue" stroke="midnightblue" points="403.22,-197.13 398.3,-187.75 396.3,-198.16 403.22,-197.13"/>
</g>
<!-- Node21&#45;&gt;Node4 -->
<g id="edge25" class="edge">
<title>Node21&#45;&gt;Node4</title>
<path fill="none" stroke="midnightblue" d="M377.36,-168.41C352.55,-156.39 315.1,-133.57 333,-112 353.87,-86.85 436.64,-75.67 499.19,-70.76"/>
<polygon fill="midnightblue" stroke="midnightblue" points="499.72,-74.23 509.44,-70 499.2,-67.25 499.72,-74.23"/>
</g>
<!-- Node22 -->
<g id="node22" class="node">
<title>Node22</title>
<g id="a_node22"><a xlink:href="../../db/def/fmt_8h.html" target="_top" xlink:title="Wrapper for either system&#45;installed or local headers for fmt.">
<polygon fill="white" stroke="red" points="342.5,-112.5 342.5,-131.5 451.5,-131.5 451.5,-112.5 342.5,-112.5"/>
<text text-anchor="middle" x="397" y="-119.5" font-family="Helvetica,sans-Serif" font-size="10.00">cantera/base/fmt.h</text>
</a>
</g>
</g>
<!-- Node21&#45;&gt;Node22 -->
<g id="edge26" class="edge">
<title>Node21&#45;&gt;Node22</title>
<path fill="none" stroke="midnightblue" d="M397,-168.08C397,-161.01 397,-150.86 397,-141.99"/>
<polygon fill="midnightblue" stroke="midnightblue" points="400.5,-141.75 397,-131.75 393.5,-141.75 400.5,-141.75"/>
</g>
<!-- Node22&#45;&gt;Node4 -->
<g id="edge27" class="edge">
<title>Node22&#45;&gt;Node4</title>
<path fill="none" stroke="midnightblue" d="M424.89,-112.44C454.75,-103.28 502.31,-88.69 535.46,-78.52"/>
<polygon fill="midnightblue" stroke="midnightblue" points="536.71,-81.8 545.24,-75.52 534.66,-75.1 536.71,-81.8"/>
</g>
<!-- Node27 -->
<g id="node24" class="node">
<title>Node27</title>
<g id="a_node24"><a xlink:href="../../da/d84/Phase_8h.html" target="_top" xlink:title="Header file for class Phase.">
<polygon fill="white" stroke="black" points="641.5,-224.5 641.5,-243.5 696.5,-243.5 696.5,-224.5 641.5,-224.5"/>
<text text-anchor="middle" x="669" y="-231.5" font-family="Helvetica,sans-Serif" font-size="10.00">Phase.h</text>
</a>
</g>
</g>
<!-- Node26&#45;&gt;Node27 -->
<g id="edge30" class="edge">
<title>Node26&#45;&gt;Node27</title>
<path fill="none" stroke="midnightblue" d="M715.91,-397.84C710.32,-388 701.41,-371.31 696,-356 683.56,-320.79 675.58,-277.72 671.73,-253.62"/>
<polygon fill="midnightblue" stroke="midnightblue" points="675.18,-253.06 670.21,-243.71 668.26,-254.12 675.18,-253.06"/>
</g>
<!-- Node33 -->
<g id="node30" class="node">
<title>Node33</title>
<g id="a_node30"><a xlink:href="../../d6/d7a/MultiSpeciesThermo_8h.html" target="_top" xlink:title="Header for a general species thermodynamic property manager for a phase (see MultiSpeciesThermo).">
<polygon fill="white" stroke="black" points="705.5,-336.5 705.5,-355.5 830.5,-355.5 830.5,-336.5 705.5,-336.5"/>
<text text-anchor="middle" x="768" y="-343.5" font-family="Helvetica,sans-Serif" font-size="10.00">MultiSpeciesThermo.h</text>
</a>
</g>
</g>
<!-- Node26&#45;&gt;Node33 -->
<g id="edge40" class="edge">
<title>Node26&#45;&gt;Node33</title>
<path fill="none" stroke="midnightblue" d="M727.73,-397.98C734.78,-389.05 746.03,-374.81 754.85,-363.64"/>
<polygon fill="midnightblue" stroke="midnightblue" points="757.83,-365.53 761.28,-355.51 752.33,-361.19 757.83,-365.53"/>
</g>
<!-- Node35 -->
<g id="node32" class="node">
<title>Node35</title>
<g id="a_node32"><a xlink:href="../../dd/d2a/AnyMap_8h.html" target="_top" xlink:title=" ">
<polygon fill="white" stroke="red" points="830.5,-224.5 830.5,-243.5 961.5,-243.5 961.5,-224.5 830.5,-224.5"/>
<text text-anchor="middle" x="896" y="-231.5" font-family="Helvetica,sans-Serif" font-size="10.00">cantera/base/AnyMap.h</text>
</a>
</g>
</g>
<!-- Node26&#45;&gt;Node35 -->
<g id="edge50" class="edge">
<title>Node26&#45;&gt;Node35</title>
<path fill="none" stroke="midnightblue" d="M757.74,-397.97C783.13,-390.49 816.3,-377.4 839,-356 869.31,-327.43 885.13,-279.49 891.88,-253.35"/>
<polygon fill="midnightblue" stroke="midnightblue" points="895.29,-254.15 894.24,-243.61 888.49,-252.5 895.29,-254.15"/>
</g>
<!-- Node36 -->
<g id="node33" class="node">
<title>Node36</title>
<g id="a_node33"><a xlink:href="../../da/d58/Units_8h.html" target="_top" xlink:title="Header for unit conversion utilities, which are used to translate user input from input files (See In...">
<polygon fill="white" stroke="black" points="934.5,-168.5 934.5,-187.5 1051.5,-187.5 1051.5,-168.5 934.5,-168.5"/>
<text text-anchor="middle" x="993" y="-175.5" font-family="Helvetica,sans-Serif" font-size="10.00">cantera/base/Units.h</text>
</a>
</g>
</g>
<!-- Node26&#45;&gt;Node36 -->
<g id="edge49" class="edge">
<title>Node26&#45;&gt;Node36</title>
<path fill="none" stroke="midnightblue" d="M758.14,-397.98C787.61,-390.11 829.03,-376.51 861,-356 919.73,-318.33 934.45,-303.43 971,-244 979.87,-229.57 985.68,-211.12 989.08,-197.56"/>
<polygon fill="midnightblue" stroke="midnightblue" points="992.56,-198.05 991.4,-187.52 985.74,-196.48 992.56,-198.05"/>
</g>
<!-- Node28 -->
<g id="node25" class="node">
<title>Node28</title>
<g id="a_node25"><a xlink:href="../../db/d98/ctexceptions_8h.html" target="_top" xlink:title="Definitions for the classes that are thrown when Cantera experiences an error condition (also contain...">
<polygon fill="white" stroke="black" points="479,-168.5 479,-187.5 633,-187.5 633,-168.5 479,-168.5"/>
<text text-anchor="middle" x="556" y="-175.5" font-family="Helvetica,sans-Serif" font-size="10.00">cantera/base/ctexceptions.h</text>
</a>
</g>
</g>
<!-- Node27&#45;&gt;Node28 -->
<g id="edge31" class="edge">
<title>Node27&#45;&gt;Node28</title>
<path fill="none" stroke="midnightblue" d="M651.09,-224.44C632.75,-215.68 603.99,-201.94 582.91,-191.86"/>
<polygon fill="midnightblue" stroke="midnightblue" points="584.35,-188.67 573.82,-187.52 581.33,-194.99 584.35,-188.67"/>
</g>
<!-- Node30 -->
<g id="node27" class="node">
<title>Node30</title>
<g id="a_node27"><a xlink:href="../../d9/dda/Elements_8h.html" target="_top" xlink:title="Contains the getElementWeight function and the definitions of element constraint types.">
<polygon fill="white" stroke="black" points="591.5,-112.5 591.5,-131.5 740.5,-131.5 740.5,-112.5 591.5,-112.5"/>
<text text-anchor="middle" x="666" y="-119.5" font-family="Helvetica,sans-Serif" font-size="10.00">cantera/thermo/Elements.h</text>
</a>
</g>
</g>
<!-- Node27&#45;&gt;Node30 -->
<g id="edge35" class="edge">
<title>Node27&#45;&gt;Node30</title>
<path fill="none" stroke="midnightblue" d="M668.76,-224.37C668.28,-206.62 667.16,-165.67 666.51,-141.6"/>
<polygon fill="midnightblue" stroke="midnightblue" points="670.01,-141.49 666.23,-131.59 663.01,-141.68 670.01,-141.49"/>
</g>
<!-- Node31 -->
<g id="node28" class="node">
<title>Node31</title>
<g id="a_node28"><a xlink:href="../../d6/df6/ValueCache_8h.html" target="_top" xlink:title=" ">
<polygon fill="white" stroke="black" points="691.5,-168.5 691.5,-187.5 840.5,-187.5 840.5,-168.5 691.5,-168.5"/>
<text text-anchor="middle" x="766" y="-175.5" font-family="Helvetica,sans-Serif" font-size="10.00">cantera/base/ValueCache.h</text>
</a>
</g>
</g>
<!-- Node27&#45;&gt;Node31 -->
<g id="edge37" class="edge">
<title>Node27&#45;&gt;Node31</title>
<path fill="none" stroke="midnightblue" d="M684.58,-224.32C700,-215.74 723.81,-202.49 741.71,-192.52"/>
<polygon fill="midnightblue" stroke="midnightblue" points="743.42,-195.58 750.45,-187.65 740.01,-189.46 743.42,-195.58"/>
</g>
<!-- Node28&#45;&gt;Node4 -->
<g id="edge32" class="edge">
<title>Node28&#45;&gt;Node4</title>
<path fill="none" stroke="midnightblue" d="M538.63,-168.47C517.49,-156.86 486.13,-134.89 499,-112 507.22,-97.38 522.33,-86.95 536.76,-79.85"/>
<polygon fill="midnightblue" stroke="midnightblue" points="538.4,-82.95 546.07,-75.64 535.52,-76.57 538.4,-82.95"/>
</g>
<!-- Node28&#45;&gt;Node22 -->
<g id="edge33" class="edge">
<title>Node28&#45;&gt;Node22</title>
<path fill="none" stroke="midnightblue" d="M530.81,-168.44C504.06,-159.36 461.6,-144.94 431.69,-134.78"/>
<polygon fill="midnightblue" stroke="midnightblue" points="432.67,-131.42 422.08,-131.52 430.42,-138.05 432.67,-131.42"/>
</g>
<!-- Node29 -->
<g id="node26" class="node">
<title>Node29</title>
<g id="a_node26"><a xlink:title=" ">
<polygon fill="white" stroke="#bfbfbf" points="508.5,-112.5 508.5,-131.5 573.5,-131.5 573.5,-112.5 508.5,-112.5"/>
<text text-anchor="middle" x="541" y="-119.5" font-family="Helvetica,sans-Serif" font-size="10.00">exception</text>
</a>
</g>
</g>
<!-- Node28&#45;&gt;Node29 -->
<g id="edge34" class="edge">
<title>Node28&#45;&gt;Node29</title>
<path fill="none" stroke="midnightblue" d="M553.52,-168.08C551.51,-160.85 548.61,-150.41 546.11,-141.4"/>
<polygon fill="midnightblue" stroke="midnightblue" points="549.48,-140.45 543.43,-131.75 542.74,-142.32 549.48,-140.45"/>
</g>
<!-- Node30&#45;&gt;Node4 -->
<g id="edge36" class="edge">
<title>Node30&#45;&gt;Node4</title>
<path fill="none" stroke="midnightblue" d="M651.06,-112.32C636.41,-103.82 613.87,-90.73 596.76,-80.8"/>
<polygon fill="midnightblue" stroke="midnightblue" points="598.31,-77.65 587.9,-75.65 594.8,-83.7 598.31,-77.65"/>
</g>
<!-- Node31&#45;&gt;Node4 -->
<g id="edge38" class="edge">
<title>Node31&#45;&gt;Node4</title>
<path fill="none" stroke="midnightblue" d="M766.33,-168.06C766.34,-154.09 764.22,-127.13 749,-112 733.73,-96.82 684.68,-85.03 642.22,-77.33"/>
<polygon fill="midnightblue" stroke="midnightblue" points="642.61,-73.85 632.16,-75.56 641.4,-80.74 642.61,-73.85"/>
</g>
<!-- Node32 -->
<g id="node29" class="node">
<title>Node32</title>
<g id="a_node29"><a xlink:title=" ">
<polygon fill="white" stroke="#bfbfbf" points="796,-112.5 796,-131.5 840,-131.5 840,-112.5 796,-112.5"/>
<text text-anchor="middle" x="818" y="-119.5" font-family="Helvetica,sans-Serif" font-size="10.00">limits</text>
</a>
</g>
</g>
<!-- Node31&#45;&gt;Node32 -->
<g id="edge39" class="edge">
<title>Node31&#45;&gt;Node32</title>
<path fill="none" stroke="midnightblue" d="M774.59,-168.08C782.16,-160.22 793.38,-148.57 802.51,-139.08"/>
<polygon fill="midnightblue" stroke="midnightblue" points="805.16,-141.38 809.57,-131.75 800.12,-136.53 805.16,-141.38"/>
</g>
<!-- Node34 -->
<g id="node31" class="node">
<title>Node34</title>
<g id="a_node31"><a xlink:href="../../d4/d87/SpeciesThermoInterpType_8h.html" target="_top" xlink:title="Pure Virtual Base class for individual species reference state thermodynamic managers and text for th...">
<polygon fill="white" stroke="black" points="706,-280.5 706,-299.5 858,-299.5 858,-280.5 706,-280.5"/>
<text text-anchor="middle" x="782" y="-287.5" font-family="Helvetica,sans-Serif" font-size="10.00">SpeciesThermoInterpType.h</text>
</a>
</g>
</g>
<!-- Node33&#45;&gt;Node34 -->
<g id="edge41" class="edge">
<title>Node33&#45;&gt;Node34</title>
<path fill="none" stroke="midnightblue" d="M770.31,-336.08C772.17,-328.93 774.84,-318.64 777.15,-309.69"/>
<polygon fill="midnightblue" stroke="midnightblue" points="780.61,-310.31 779.73,-299.75 773.83,-308.55 780.61,-310.31"/>
</g>
<!-- Node34&#45;&gt;Node4 -->
<g id="edge42" class="edge">
<title>Node34&#45;&gt;Node4</title>
<path fill="none" stroke="midnightblue" d="M786.73,-280.38C793.77,-267.74 807.61,-243.54 821,-224 832.46,-207.28 842.42,-207.17 849,-188 859.96,-156.05 870.88,-137.73 849,-112 823.51,-82.02 719.61,-71.96 646.84,-68.62"/>
<polygon fill="midnightblue" stroke="midnightblue" points="646.93,-65.12 636.79,-68.19 646.63,-72.11 646.93,-65.12"/>
</g>
<!-- Node34&#45;&gt;Node28 -->
<g id="edge43" class="edge">
<title>Node34&#45;&gt;Node28</title>
<path fill="none" stroke="midnightblue" d="M736.09,-280.43C705.36,-273.47 664.7,-261.84 632,-244 608.34,-231.09 585.43,-209.93 571.05,-195.28"/>
<polygon fill="midnightblue" stroke="midnightblue" points="573.44,-192.71 564,-187.9 568.38,-197.55 573.44,-192.71"/>
</g>
<!-- Node34&#45;&gt;Node35 -->
<g id="edge44" class="edge">
<title>Node34&#45;&gt;Node35</title>
<path fill="none" stroke="midnightblue" d="M800.06,-280.44C818.57,-271.68 847.58,-257.94 868.86,-247.86"/>
<polygon fill="midnightblue" stroke="midnightblue" points="870.48,-250.96 878.02,-243.52 867.49,-244.63 870.48,-250.96"/>
</g>
<!-- Node35&#45;&gt;Node4 -->
<g id="edge45" class="edge">
<title>Node35&#45;&gt;Node4</title>
<path fill="none" stroke="midnightblue" d="M898.15,-224.21C903.01,-201.98 912.2,-143.1 882,-112 850.36,-79.41 727.73,-70.2 646.79,-67.73"/>
<polygon fill="midnightblue" stroke="midnightblue" points="646.74,-64.23 636.65,-67.45 646.55,-71.23 646.74,-64.23"/>
</g>
<!-- Node35&#45;&gt;Node28 -->
<g id="edge46" class="edge">
<title>Node35&#45;&gt;Node28</title>
<path fill="none" stroke="midnightblue" d="M842.13,-224.44C781.69,-214.85 683.76,-199.29 619.62,-189.1"/>
<polygon fill="midnightblue" stroke="midnightblue" points="620.05,-185.63 609.62,-187.52 618.95,-192.54 620.05,-185.63"/>
</g>
<!-- Node35&#45;&gt;Node36 -->
<g id="edge47" class="edge">
<title>Node35&#45;&gt;Node36</title>
<path fill="none" stroke="midnightblue" d="M911.58,-224.32C927,-215.74 950.81,-202.49 968.71,-192.52"/>
<polygon fill="midnightblue" stroke="midnightblue" points="970.42,-195.58 977.45,-187.65 967.01,-189.46 970.42,-195.58"/>
</g>
<!-- Node36&#45;&gt;Node4 -->
<g id="edge48" class="edge">
<title>Node36&#45;&gt;Node4</title>
<path fill="none" stroke="midnightblue" d="M986.43,-168.48C974.79,-154.09 949.02,-125.25 920,-112 872.76,-90.43 733.83,-77.6 646.76,-71.46"/>
<polygon fill="midnightblue" stroke="midnightblue" points="646.89,-67.96 636.68,-70.76 646.41,-74.94 646.89,-67.96"/>
</g>
<!-- Node41&#45;&gt;Node4 -->
<g id="edge52" class="edge">
<title>Node41&#45;&gt;Node4</title>
<path fill="none" stroke="midnightblue" d="M1088.61,-336.44C1087.79,-317.94 1086,-272.83 1086,-235 1086,-235 1086,-235 1086,-177 1086,-88.3 789.11,-70.9 647.04,-67.65"/>
<polygon fill="midnightblue" stroke="midnightblue" points="646.75,-64.14 636.68,-67.43 646.6,-71.14 646.75,-64.14"/>
</g>
</g>
</svg>
        <g id="navigator" transform="translate(0 0)" fill="#404254">
                <rect fill="#f2f5e9" fill-opacity="0.5" stroke="#606060" stroke-width=".5" x="0" y="0" width="60" height="60"/>
                <use id="zoomplus" xlink:href="#zoomPlus" x="17" y="9" onmousedown="handleZoom(evt,'in')"/>
                <use id="zoomminus" xlink:href="#zoomMin" x="42" y="9" onmousedown="handleZoom(evt,'out')"/>
                <use id="reset" xlink:href="#resetDef" x="30" y="36" onmousedown="handleReset()"/>
                <g id="arrowUp" xlink:href="#dirArrow" transform="translate(30 24)" onmousedown="handlePan(0,-1)">
                  <use xlink:href="#rim" fill="#404040">
                        <set attributeName="fill" to="#808080" begin="arrowUp.mouseover" end="arrowUp.mouseout"/>
                  </use>
                  <path fill="none" stroke="white" stroke-width="1.5" d="M0,-3.0v7 M-2.5,-0.5L0,-3.0L2.5,-0.5"/>
                </g>
                <g id="arrowRight" xlink:href="#dirArrow" transform="rotate(90) translate(36 -43)" onmousedown="handlePan(1,0)">
                  <use xlink:href="#rim" fill="#404040">
                        <set attributeName="fill" to="#808080" begin="arrowRight.mouseover" end="arrowRight.mouseout"/>
                  </use>
                  <path fill="none" stroke="white" stroke-width="1.5" d="M0,-3.0v7 M-2.5,-0.5L0,-3.0L2.5,-0.5"/>
                </g>
                <g id="arrowDown" xlink:href="#dirArrow" transform="rotate(180) translate(-30 -48)" onmousedown="handlePan(0,1)">
                  <use xlink:href="#rim" fill="#404040">
                        <set attributeName="fill" to="#808080" begin="arrowDown.mouseover" end="arrowDown.mouseout"/>
                  </use>
                  <path fill="none" stroke="white" stroke-width="1.5" d="M0,-3.0v7 M-2.5,-0.5L0,-3.0L2.5,-0.5"/>
                </g>
                <g id="arrowLeft" xlink:href="#dirArrow" transform="rotate(270) translate(-36 17)" onmousedown="handlePan(-1,0)">
                  <use xlink:href="#rim" fill="#404040">
                        <set attributeName="fill" to="#808080" begin="arrowLeft.mouseover" end="arrowLeft.mouseout"/>
                  </use>
                  <path fill="none" stroke="white" stroke-width="1.5" d="M0,-3.0v7 M-2.5,-0.5L0,-3.0L2.5,-0.5"/>
                </g>
        </g>
        <svg viewBox="0 0 15 15" width="100%" height="30px" preserveAspectRatio="xMaxYMin meet">
         <g id="arrow_out" transform="scale(0.3 0.3)">
          <a xlink:href="vcs__VolPhase_8cpp__incl_org.svg" target="_base">
           <rect id="button" ry="5" rx="5" y="6" x="6" height="38" width="38"
                fill="#f2f5e9" fill-opacity="0.5" stroke="#606060" stroke-width="1.0"/>
           <path id="arrow"
             d="M 11.500037,31.436501 C 11.940474,20.09759 22.043105,11.32322 32.158766,21.979434 L 37.068811,17.246167 C 37.068811,17.246167 37.088388,32 37.088388,32 L 22.160133,31.978069 C 22.160133,31.978069 26.997745,27.140456 26.997745,27.140456 C 18.528582,18.264221 13.291696,25.230495 11.500037,31.436501 z"
             style="fill:#404040;"/>
          </a>
         </g>
        </svg>
</svg>
