<?xml version="1.0" encoding="UTF-8" standalone="no"?>
<!DOCTYPE svg PUBLIC "-//W3C//DTD SVG 1.1//EN"
 "http://www.w3.org/Graphics/SVG/1.1/DTD/svg11.dtd">
<!-- Generated by graphviz version 2.50.0 (0)
 -->
<!-- Title: SpeciesThermoInterpType Pages: 1 -->
<svg width="315pt" height="294pt"
 viewBox="0.00 0.00 315.00 294.00" xmlns="http://www.w3.org/2000/svg" xmlns:xlink="http://www.w3.org/1999/xlink">
<g id="graph0" class="graph" transform="scale(1 1) rotate(0) translate(4 290)">
<title>SpeciesThermoInterpType</title>
<polygon fill="white" stroke="transparent" points="-4,4 -4,-290 311,-290 311,4 -4,4"/>
<!-- Node1 -->
<g id="node1" class="node">
<title>Node1</title>
<g id="a_node1"><a xlink:title="Abstract Base class for the thermodynamic manager for an individual species&#39; reference state.">
<polygon fill="#bfbfbf" stroke="black" points="0,-133.5 0,-152.5 131,-152.5 131,-133.5 0,-133.5"/>
<text text-anchor="middle" x="65.5" y="-140.5" font-family="Helvetica,sans-Serif" font-size="10.00">SpeciesThermoInterpType</text>
</a>
</g>
</g>
<!-- Node2 -->
<g id="node2" class="node">
<title>Node2</title>
<g id="a_node2"><a xlink:href="../../df/d7e/classCantera_1_1ConstCpPoly.html" target="_top" xlink:title="A constant&#45;heat capacity species thermodynamic property manager class.">
<polygon fill="white" stroke="black" points="199.5,-266.5 199.5,-285.5 274.5,-285.5 274.5,-266.5 199.5,-266.5"/>
<text text-anchor="middle" x="237" y="-273.5" font-family="Helvetica,sans-Serif" font-size="10.00">ConstCpPoly</text>
</a>
</g>
</g>
<!-- Node1&#45;&gt;Node2 -->
<g id="edge1" class="edge">
<title>Node1&#45;&gt;Node2</title>
<path fill="none" stroke="midnightblue" d="M77.65,-161.27C94.06,-186.6 127.12,-232.08 167,-257 176.69,-263.06 188.33,-267.21 199.26,-270.06"/>
<polygon fill="midnightblue" stroke="midnightblue" points="80.49,-159.22 72.2,-152.63 74.57,-162.96 80.49,-159.22"/>
</g>
<!-- Node3 -->
<g id="node3" class="node">
<title>Node3</title>
<g id="a_node3"><a xlink:href="../../d4/d9e/classCantera_1_1Mu0Poly.html" target="_top" xlink:title="The Mu0Poly class implements an interpolation of the Gibbs free energy based on a piecewise constant ...">
<polygon fill="white" stroke="black" points="209.5,-228.5 209.5,-247.5 264.5,-247.5 264.5,-228.5 209.5,-228.5"/>
<text text-anchor="middle" x="237" y="-235.5" font-family="Helvetica,sans-Serif" font-size="10.00">Mu0Poly</text>
</a>
</g>
</g>
<!-- Node1&#45;&gt;Node3 -->
<g id="edge2" class="edge">
<title>Node1&#45;&gt;Node3</title>
<path fill="none" stroke="midnightblue" d="M84.03,-159.59C103.06,-176.77 135.04,-203.24 167,-219 180.26,-225.54 196.1,-230.1 209.26,-233.12"/>
<polygon fill="midnightblue" stroke="midnightblue" points="86.2,-156.84 76.47,-152.64 81.46,-161.99 86.2,-156.84"/>
</g>
<!-- Node4 -->
<g id="node4" class="node">
<title>Node4</title>
<g id="a_node4"><a xlink:href="../../d4/db6/classCantera_1_1Nasa9Poly1.html" target="_top" xlink:title="The NASA 9 polynomial parameterization for one temperature range.">
<polygon fill="white" stroke="black" points="202,-190.5 202,-209.5 272,-209.5 272,-190.5 202,-190.5"/>
<text text-anchor="middle" x="237" y="-197.5" font-family="Helvetica,sans-Serif" font-size="10.00">Nasa9Poly1</text>
</a>
</g>
</g>
<!-- Node1&#45;&gt;Node4 -->
<g id="edge3" class="edge">
<title>Node1&#45;&gt;Node4</title>
<path fill="none" stroke="midnightblue" d="M99.19,-156.24C118.71,-163.93 144.09,-173.53 167,-181 178.22,-184.66 190.62,-188.22 201.77,-191.25"/>
<polygon fill="midnightblue" stroke="midnightblue" points="100.42,-152.96 89.84,-152.53 97.84,-159.47 100.42,-152.96"/>
</g>
<!-- Node5 -->
<g id="node5" class="node">
<title>Node5</title>
<g id="a_node5"><a xlink:href="../../d9/de8/classCantera_1_1Nasa9PolyMultiTempRegion.html" target="_top" xlink:title="The NASA 9 polynomial parameterization for a single species encompassing multiple temperature regions...">
<polygon fill="white" stroke="black" points="167,-152.5 167,-171.5 307,-171.5 307,-152.5 167,-152.5"/>
<text text-anchor="middle" x="237" y="-159.5" font-family="Helvetica,sans-Serif" font-size="10.00">Nasa9PolyMultiTempRegion</text>
</a>
</g>
</g>
<!-- Node1&#45;&gt;Node5 -->
<g id="edge4" class="edge">
<title>Node1&#45;&gt;Node5</title>
<path fill="none" stroke="midnightblue" d="M141.04,-151.36C149.61,-152.32 158.32,-153.29 166.82,-154.25"/>
<polygon fill="midnightblue" stroke="midnightblue" points="141.39,-147.87 131.06,-150.24 140.61,-154.83 141.39,-147.87"/>
</g>
<!-- Node6 -->
<g id="node6" class="node">
<title>Node6</title>
<g id="a_node6"><a xlink:href="../../d6/de9/classCantera_1_1NasaPoly1.html" target="_top" xlink:title="The NASA polynomial parameterization for one temperature range.">
<polygon fill="white" stroke="black" points="204.5,-114.5 204.5,-133.5 269.5,-133.5 269.5,-114.5 204.5,-114.5"/>
<text text-anchor="middle" x="237" y="-121.5" font-family="Helvetica,sans-Serif" font-size="10.00">NasaPoly1</text>
</a>
</g>
</g>
<!-- Node1&#45;&gt;Node6 -->
<g id="edge5" class="edge">
<title>Node1&#45;&gt;Node6</title>
<path fill="none" stroke="midnightblue" d="M141.16,-134.63C163.34,-132.14 186.45,-129.55 204.3,-127.55"/>
<polygon fill="midnightblue" stroke="midnightblue" points="140.61,-131.17 131.06,-135.76 141.39,-138.13 140.61,-131.17"/>
</g>
<!-- Node7 -->
<g id="node7" class="node">
<title>Node7</title>
<g id="a_node7"><a xlink:href="../../db/ddd/classCantera_1_1NasaPoly2.html" target="_top" xlink:title="The NASA polynomial parameterization for two temperature ranges.">
<polygon fill="white" stroke="black" points="204.5,-76.5 204.5,-95.5 269.5,-95.5 269.5,-76.5 204.5,-76.5"/>
<text text-anchor="middle" x="237" y="-83.5" font-family="Helvetica,sans-Serif" font-size="10.00">NasaPoly2</text>
</a>
</g>
</g>
<!-- Node1&#45;&gt;Node7 -->
<g id="edge6" class="edge">
<title>Node1&#45;&gt;Node7</title>
<path fill="none" stroke="midnightblue" d="M99.19,-129.76C118.71,-122.07 144.09,-112.47 167,-105 179.05,-101.07 192.45,-97.26 204.21,-94.09"/>
<polygon fill="midnightblue" stroke="midnightblue" points="97.84,-126.53 89.84,-133.47 100.42,-133.04 97.84,-126.53"/>
</g>
<!-- Node8 -->
<g id="node8" class="node">
<title>Node8</title>
<g id="a_node8"><a xlink:href="../../da/d66/classCantera_1_1ShomatePoly.html" target="_top" xlink:title="The Shomate polynomial parameterization for one temperature range for one species.">
<polygon fill="white" stroke="black" points="199.5,-38.5 199.5,-57.5 274.5,-57.5 274.5,-38.5 199.5,-38.5"/>
<text text-anchor="middle" x="237" y="-45.5" font-family="Helvetica,sans-Serif" font-size="10.00">ShomatePoly</text>
</a>
</g>
</g>
<!-- Node1&#45;&gt;Node8 -->
<g id="edge7" class="edge">
<title>Node1&#45;&gt;Node8</title>
<path fill="none" stroke="midnightblue" d="M84.03,-126.41C103.06,-109.23 135.04,-82.76 167,-67 177.03,-62.05 188.54,-58.24 199.24,-55.37"/>
<polygon fill="midnightblue" stroke="midnightblue" points="81.46,-124.01 76.47,-133.36 86.2,-129.16 81.46,-124.01"/>
</g>
<!-- Node9 -->
<g id="node9" class="node">
<title>Node9</title>
<g id="a_node9"><a xlink:href="../../da/d9a/classCantera_1_1ShomatePoly2.html" target="_top" xlink:title="The Shomate polynomial parameterization for two temperature ranges for one species.">
<polygon fill="white" stroke="black" points="197,-0.5 197,-19.5 277,-19.5 277,-0.5 197,-0.5"/>
<text text-anchor="middle" x="237" y="-7.5" font-family="Helvetica,sans-Serif" font-size="10.00">ShomatePoly2</text>
</a>
</g>
</g>
<!-- Node1&#45;&gt;Node9 -->
<g id="edge8" class="edge">
<title>Node1&#45;&gt;Node9</title>
<path fill="none" stroke="midnightblue" d="M77.65,-124.73C94.06,-99.4 127.12,-53.92 167,-29 175.96,-23.4 186.57,-19.43 196.76,-16.62"/>
<polygon fill="midnightblue" stroke="midnightblue" points="74.57,-123.04 72.2,-133.37 80.49,-126.78 74.57,-123.04"/>
</g>
</g>
</svg>
