<?xml version="1.0" encoding="UTF-8" standalone="no"?>
<!DOCTYPE svg PUBLIC "-//W3C//DTD SVG 1.1//EN"
 "http://www.w3.org/Graphics/SVG/1.1/DTD/svg11.dtd">
<!-- Generated by graphviz version 6.0.1 (0)
 -->
<!-- Title: ThirdBodyCalc.h Pages: 1 -->
<svg width="239pt" height="192pt"
 viewBox="0.00 0.00 239.00 192.00" xmlns="http://www.w3.org/2000/svg" xmlns:xlink="http://www.w3.org/1999/xlink">
<g id="graph0" class="graph" transform="scale(1 1) rotate(0) translate(4 188)">
<title>ThirdBodyCalc.h</title>
<!-- Node1 -->
<g id="node1" class="node">
<title>Node1</title>
<g id="a_node1"><a xlink:title=" ">
<polygon fill="#999999" stroke="#666666" points="191.5,-184 102.5,-184 102.5,-165 191.5,-165 191.5,-184"/>
<text text-anchor="middle" x="147" y="-172" font-family="Helvetica,sans-Serif" font-size="10.00">ThirdBodyCalc.h</text>
</a>
</g>
</g>
<!-- Node2 -->
<g id="node2" class="node">
<title>Node2</title>
<g id="a_node2"><a xlink:href="../../d2/d78/BulkKinetics_8h.html" target="_top" xlink:title=" ">
<polygon fill="white" stroke="#666666" points="187,-129 107,-129 107,-110 187,-110 187,-129"/>
<text text-anchor="middle" x="147" y="-117" font-family="Helvetica,sans-Serif" font-size="10.00">BulkKinetics.h</text>
</a>
</g>
</g>
<!-- Node1&#45;&gt;Node2 -->
<g id="edge1" class="edge">
<title>Node1&#45;&gt;Node2</title>
<path fill="none" stroke="#63b8ff" d="M147,-154.66C147,-145.93 147,-135.99 147,-129.09"/>
<polygon fill="#63b8ff" stroke="#63b8ff" points="143.5,-154.75 147,-164.75 150.5,-154.75 143.5,-154.75"/>
</g>
<!-- Node3 -->
<g id="node3" class="node">
<title>Node3</title>
<g id="a_node3"><a xlink:href="../../df/d7d/BulkKinetics_8cpp_source.html" target="_top" xlink:title=" ">
<polygon fill="white" stroke="#666666" points="90,-74 0,-74 0,-55 90,-55 90,-74"/>
<text text-anchor="middle" x="45" y="-62" font-family="Helvetica,sans-Serif" font-size="10.00">BulkKinetics.cpp</text>
</a>
</g>
</g>
<!-- Node2&#45;&gt;Node3 -->
<g id="edge2" class="edge">
<title>Node2&#45;&gt;Node3</title>
<path fill="none" stroke="#63b8ff" d="M121.73,-105.37C102.99,-95.63 77.98,-82.64 61.69,-74.17"/>
<polygon fill="#63b8ff" stroke="#63b8ff" points="120.12,-108.48 130.61,-109.98 123.35,-102.27 120.12,-108.48"/>
</g>
<!-- Node4 -->
<g id="node4" class="node">
<title>Node4</title>
<g id="a_node4"><a xlink:href="../../db/dac/GasKinetics_8h.html" target="_top" xlink:title=" ">
<polygon fill="white" stroke="#666666" points="186,-74 108,-74 108,-55 186,-55 186,-74"/>
<text text-anchor="middle" x="147" y="-62" font-family="Helvetica,sans-Serif" font-size="10.00">GasKinetics.h</text>
</a>
</g>
</g>
<!-- Node2&#45;&gt;Node4 -->
<g id="edge3" class="edge">
<title>Node2&#45;&gt;Node4</title>
<path fill="none" stroke="#63b8ff" d="M147,-99.66C147,-90.93 147,-80.99 147,-74.09"/>
<polygon fill="#63b8ff" stroke="#63b8ff" points="143.5,-99.75 147,-109.75 150.5,-99.75 143.5,-99.75"/>
</g>
<!-- Node5 -->
<g id="node5" class="node">
<title>Node5</title>
<g id="a_node5"><a xlink:href="../../d3/df8/KineticsFactory_8cpp.html" target="_top" xlink:title=" ">
<polygon fill="white" stroke="#666666" points="231,-19 129,-19 129,0 231,0 231,-19"/>
<text text-anchor="middle" x="180" y="-7" font-family="Helvetica,sans-Serif" font-size="10.00">KineticsFactory.cpp</text>
</a>
</g>
</g>
<!-- Node2&#45;&gt;Node5 -->
<g id="edge5" class="edge">
<title>Node2&#45;&gt;Node5</title>
<path fill="none" stroke="#63b8ff" d="M169.63,-103.97C179.37,-96.35 189.73,-86.08 195,-74 203.16,-55.31 192.43,-31.51 185.34,-19.03"/>
<polygon fill="#63b8ff" stroke="#63b8ff" points="167.41,-101.26 161.37,-109.96 171.52,-106.93 167.41,-101.26"/>
</g>
<!-- Node4&#45;&gt;Node5 -->
<g id="edge4" class="edge">
<title>Node4&#45;&gt;Node5</title>
<path fill="none" stroke="#63b8ff" d="M157.83,-46.1C163.47,-37.04 170.12,-26.37 174.65,-19.09"/>
<polygon fill="#63b8ff" stroke="#63b8ff" points="154.76,-44.41 152.45,-54.75 160.71,-48.11 154.76,-44.41"/>
</g>
</g>
</svg>
