<?xml version="1.0" encoding="UTF-8" standalone="no"?>
<!DOCTYPE svg PUBLIC "-//W3C//DTD SVG 1.1//EN"
 "http://www.w3.org/Graphics/SVG/1.1/DTD/svg11.dtd">
<!-- Generated by graphviz version 6.0.1 (0)
 -->
<!-- Title: PDSS_Water.h Pages: 1 -->
<!--zoomable 357 -->
<svg id="main" version="1.1" xmlns="http://www.w3.org/2000/svg" xmlns:xlink="http://www.w3.org/1999/xlink" xml:space="preserve" onload="init(evt)">
<style type="text/css"><![CDATA[
.edge:hover path { stroke: red; }
.edge:hover polygon { stroke: red; fill: red; }
]]></style>
<script type="text/javascript"><![CDATA[
var edges = document.getElementsByTagName('g');
if (edges && edges.length) {
  for (var i=0;i<edges.length;i++) {
    if (edges[i].id.substr(0,4)=='edge') {
      edges[i].setAttribute('class','edge');
    }
  }
}
]]></script>
        <defs>
                <circle id="rim" cx="0" cy="0" r="7"/>
                <circle id="rim2" cx="0" cy="0" r="3.5"/>
                <g id="zoomPlus">
                        <use xlink:href="#rim" fill="#404040">
                                <set attributeName="fill" to="#808080" begin="zoomplus.mouseover" end="zoomplus.mouseout"/>
                        </use>
                        <path d="M-4,0h8M0,-4v8" fill="none" stroke="white" stroke-width="1.5" pointer-events="none"/>
                </g>
                <g id="zoomMin">
                        <use xlink:href="#rim" fill="#404040">
                                <set attributeName="fill" to="#808080" begin="zoomminus.mouseover" end="zoomminus.mouseout"/>
                        </use>
                        <path d="M-4,0h8" fill="none" stroke="white" stroke-width="1.5" pointer-events="none"/>
                </g>
                <g id="dirArrow">
                        <path fill="none" stroke="white" stroke-width="1.5" d="M0,-3.0v7 M-2.5,-0.5L0,-3.0L2.5,-0.5"/>
                </g>
               <g id="resetDef">
                       <use xlink:href="#rim2" fill="#404040">
                               <set attributeName="fill" to="#808080" begin="reset.mouseover" end="reset.mouseout"/>
                       </use>
               </g>
        </defs>

<script type="text/javascript">
var viewWidth = 860;
var viewHeight = 357;
var sectionId = 'dynsection-0';
</script>
<script xlink:href="../../svgpan.js"/>
<svg id="graph" class="graph">
<g id="viewport">
<title>PDSS_Water.h</title>
<!-- Node1 -->
<g id="node1" class="node">
<title>Node1</title>
<g id="a_node1"><a xlink:title="Implementation of a pressure dependent standard state virtual function for a Pure Water Phase (see Sp...">
<polygon fill="#999999" stroke="#666666" points="735.5,-349 652.5,-349 652.5,-330 735.5,-330 735.5,-349"/>
<text text-anchor="middle" x="694" y="-337" font-family="Helvetica,sans-Serif" font-size="10.00">PDSS_Water.h</text>
</a>
</g>
</g>
<!-- Node2 -->
<g id="node2" class="node">
<title>Node2</title>
<g id="a_node2"><a xlink:href="../../d7/dfa/PDSS_8h.html" target="_top" xlink:title="Declarations for the virtual base class PDSS (pressure dependent standard state) which handles calcul...">
<polygon fill="white" stroke="#666666" points="654.5,-294 601.5,-294 601.5,-275 654.5,-275 654.5,-294"/>
<text text-anchor="middle" x="628" y="-282" font-family="Helvetica,sans-Serif" font-size="10.00">PDSS.h</text>
</a>
</g>
</g>
<!-- Node1&#45;&gt;Node2 -->
<g id="edge1" class="edge">
<title>Node1&#45;&gt;Node2</title>
<path fill="none" stroke="#63b8ff" d="M683.4,-329.98C673.54,-322.07 658.65,-310.11 646.78,-300.58"/>
<polygon fill="#63b8ff" stroke="#63b8ff" points="648.79,-297.7 638.8,-294.17 644.4,-303.16 648.79,-297.7"/>
</g>
<!-- Node25 -->
<g id="node23" class="node">
<title>Node25</title>
<g id="a_node23"><a xlink:href="../../d2/d86/WaterPropsIAPWS_8h.html" target="_top" xlink:title="Headers for a class for calculating the equation of state of water from the IAPWS 1995 Formulation ba...">
<polygon fill="white" stroke="#666666" points="835.5,-294 726.5,-294 726.5,-275 835.5,-275 835.5,-294"/>
<text text-anchor="middle" x="781" y="-282" font-family="Helvetica,sans-Serif" font-size="10.00">WaterPropsIAPWS.h</text>
</a>
</g>
</g>
<!-- Node1&#45;&gt;Node25 -->
<g id="edge27" class="edge">
<title>Node1&#45;&gt;Node25</title>
<path fill="none" stroke="#63b8ff" d="M707.98,-329.98C721.47,-321.77 742.13,-309.18 758.04,-299.49"/>
<polygon fill="#63b8ff" stroke="#63b8ff" points="760.05,-302.36 766.77,-294.17 756.41,-296.38 760.05,-302.36"/>
</g>
<!-- Node27 -->
<g id="node25" class="node">
<title>Node27</title>
<g id="a_node25"><a xlink:href="../../db/d4b/WaterProps_8h.html" target="_top" xlink:title="Header for a class used to house several approximation routines for properties of water.">
<polygon fill="white" stroke="#666666" points="732,-239 656,-239 656,-220 732,-220 732,-239"/>
<text text-anchor="middle" x="694" y="-227" font-family="Helvetica,sans-Serif" font-size="10.00">WaterProps.h</text>
</a>
</g>
</g>
<!-- Node1&#45;&gt;Node27 -->
<g id="edge30" class="edge">
<title>Node1&#45;&gt;Node27</title>
<path fill="none" stroke="#63b8ff" d="M694,-329.66C694,-312.17 694,-272.8 694,-249.27"/>
<polygon fill="#63b8ff" stroke="#63b8ff" points="697.5,-249.16 694,-239.16 690.5,-249.16 697.5,-249.16"/>
</g>
<!-- Node3 -->
<g id="node3" class="node">
<title>Node3</title>
<g id="a_node3"><a xlink:href="../../d9/ddc/ct__defs_8h.html" target="_top" xlink:title="This file contains definitions of constants, types and terms that are used in internal routines and a...">
<polygon fill="white" stroke="#666666" points="566,-74 450,-74 450,-55 566,-55 566,-74"/>
<text text-anchor="middle" x="508" y="-62" font-family="Helvetica,sans-Serif" font-size="10.00">cantera/base/ct_defs.h</text>
</a>
</g>
</g>
<!-- Node2&#45;&gt;Node3 -->
<g id="edge2" class="edge">
<title>Node2&#45;&gt;Node3</title>
<path fill="none" stroke="#63b8ff" d="M628.2,-274.92C628.41,-247.83 625.68,-162.75 586,-110 575.21,-95.66 558.36,-85.22 543.07,-78.07"/>
<polygon fill="#63b8ff" stroke="#63b8ff" points="544.39,-74.82 533.82,-74.04 541.59,-81.24 544.39,-74.82"/>
</g>
<!-- Node14 -->
<g id="node14" class="node">
<title>Node14</title>
<g id="a_node14"><a xlink:href="../../dd/d2a/AnyMap_8h.html" target="_top" xlink:title=" ">
<polygon fill="white" stroke="#666666" points="517,-239 397,-239 397,-220 517,-220 517,-239"/>
<text text-anchor="middle" x="457" y="-227" font-family="Helvetica,sans-Serif" font-size="10.00">cantera/base/AnyMap.h</text>
</a>
</g>
</g>
<!-- Node2&#45;&gt;Node14 -->
<g id="edge13" class="edge">
<title>Node2&#45;&gt;Node14</title>
<path fill="none" stroke="#63b8ff" d="M601.28,-275.22C572.51,-266.3 526.52,-252.05 494.22,-242.03"/>
<polygon fill="#63b8ff" stroke="#63b8ff" points="495.25,-238.69 484.66,-239.07 493.18,-245.38 495.25,-238.69"/>
</g>
<!-- Node4 -->
<g id="node4" class="node">
<title>Node4</title>
<g id="a_node4"><a xlink:href="../../db/d16/config_8h_source.html" target="_top" xlink:title=" ">
<polygon fill="white" stroke="#666666" points="819.5,-19 768.5,-19 768.5,0 819.5,0 819.5,-19"/>
<text text-anchor="middle" x="794" y="-7" font-family="Helvetica,sans-Serif" font-size="10.00">config.h</text>
</a>
</g>
</g>
<!-- Node3&#45;&gt;Node4 -->
<g id="edge3" class="edge">
<title>Node3&#45;&gt;Node4</title>
<path fill="none" stroke="#63b8ff" d="M562.05,-54.93C610.82,-46.96 684.74,-34.32 758.5,-18.99"/>
<polygon fill="#63b8ff" stroke="#63b8ff" points="759.36,-22.38 768.43,-16.91 757.92,-15.53 759.36,-22.38"/>
</g>
<!-- Node5 -->
<g id="node5" class="node">
<title>Node5</title>
<g id="a_node5"><a xlink:title=" ">
<polygon fill="#e0e0e0" stroke="#999999" points="241,-19 197,-19 197,0 241,0 241,-19"/>
<text text-anchor="middle" x="219" y="-7" font-family="Helvetica,sans-Serif" font-size="10.00">cmath</text>
</a>
</g>
</g>
<!-- Node3&#45;&gt;Node5 -->
<g id="edge4" class="edge">
<title>Node3&#45;&gt;Node5</title>
<path fill="none" stroke="#63b8ff" d="M449.79,-55.11C399.55,-47.49 324.86,-35.28 251.2,-19.09"/>
<polygon fill="#63b8ff" stroke="#63b8ff" points="251.81,-15.64 241.29,-16.89 250.29,-22.48 251.81,-15.64"/>
</g>
<!-- Node6 -->
<g id="node6" class="node">
<title>Node6</title>
<g id="a_node6"><a xlink:title=" ">
<polygon fill="#e0e0e0" stroke="#999999" points="304.5,-19 259.5,-19 259.5,0 304.5,0 304.5,-19"/>
<text text-anchor="middle" x="282" y="-7" font-family="Helvetica,sans-Serif" font-size="10.00">cstdlib</text>
</a>
</g>
</g>
<!-- Node3&#45;&gt;Node6 -->
<g id="edge5" class="edge">
<title>Node3&#45;&gt;Node6</title>
<path fill="none" stroke="#63b8ff" d="M468.89,-54.94C431.71,-46.71 373.99,-33.7 314.63,-19.09"/>
<polygon fill="#63b8ff" stroke="#63b8ff" points="315.25,-15.64 304.7,-16.63 313.57,-22.43 315.25,-15.64"/>
</g>
<!-- Node7 -->
<g id="node7" class="node">
<title>Node7</title>
<g id="a_node7"><a xlink:title=" ">
<polygon fill="#e0e0e0" stroke="#999999" points="367,-19 323,-19 323,0 367,0 367,-19"/>
<text text-anchor="middle" x="345" y="-7" font-family="Helvetica,sans-Serif" font-size="10.00">vector</text>
</a>
</g>
</g>
<!-- Node3&#45;&gt;Node7 -->
<g id="edge6" class="edge">
<title>Node3&#45;&gt;Node7</title>
<path fill="none" stroke="#63b8ff" d="M481.81,-54.98C453.27,-45.7 407.59,-30.85 376.96,-20.89"/>
<polygon fill="#63b8ff" stroke="#63b8ff" points="377.79,-17.48 367.2,-17.72 375.62,-24.14 377.79,-17.48"/>
</g>
<!-- Node8 -->
<g id="node8" class="node">
<title>Node8</title>
<g id="a_node8"><a xlink:title=" ">
<polygon fill="#e0e0e0" stroke="#999999" points="420.5,-19 385.5,-19 385.5,0 420.5,0 420.5,-19"/>
<text text-anchor="middle" x="403" y="-7" font-family="Helvetica,sans-Serif" font-size="10.00">map</text>
</a>
</g>
</g>
<!-- Node3&#45;&gt;Node8 -->
<g id="edge7" class="edge">
<title>Node3&#45;&gt;Node8</title>
<path fill="none" stroke="#63b8ff" d="M491.13,-54.98C474.39,-46.54 448.5,-33.47 429.11,-23.68"/>
<polygon fill="#63b8ff" stroke="#63b8ff" points="430.68,-20.55 420.18,-19.17 427.53,-26.8 430.68,-20.55"/>
</g>
<!-- Node9 -->
<g id="node9" class="node">
<title>Node9</title>
<g id="a_node9"><a xlink:title=" ">
<polygon fill="#e0e0e0" stroke="#999999" points="469,-19 439,-19 439,0 469,0 469,-19"/>
<text text-anchor="middle" x="454" y="-7" font-family="Helvetica,sans-Serif" font-size="10.00">set</text>
</a>
</g>
</g>
<!-- Node3&#45;&gt;Node9 -->
<g id="edge8" class="edge">
<title>Node3&#45;&gt;Node9</title>
<path fill="none" stroke="#63b8ff" d="M499.08,-54.75C491.22,-47.03 479.57,-35.6 470.08,-26.28"/>
<polygon fill="#63b8ff" stroke="#63b8ff" points="472.34,-23.6 462.75,-19.09 467.44,-28.59 472.34,-23.6"/>
</g>
<!-- Node10 -->
<g id="node10" class="node">
<title>Node10</title>
<g id="a_node10"><a xlink:title=" ">
<polygon fill="#e0e0e0" stroke="#999999" points="528.5,-19 487.5,-19 487.5,0 528.5,0 528.5,-19"/>
<text text-anchor="middle" x="508" y="-7" font-family="Helvetica,sans-Serif" font-size="10.00">string</text>
</a>
</g>
</g>
<!-- Node3&#45;&gt;Node10 -->
<g id="edge9" class="edge">
<title>Node3&#45;&gt;Node10</title>
<path fill="none" stroke="#63b8ff" d="M508,-54.75C508,-47.8 508,-37.85 508,-29.13"/>
<polygon fill="#63b8ff" stroke="#63b8ff" points="511.5,-29.09 508,-19.09 504.5,-29.09 511.5,-29.09"/>
</g>
<!-- Node11 -->
<g id="node11" class="node">
<title>Node11</title>
<g id="a_node11"><a xlink:title=" ">
<polygon fill="#e0e0e0" stroke="#999999" points="603,-19 547,-19 547,0 603,0 603,-19"/>
<text text-anchor="middle" x="575" y="-7" font-family="Helvetica,sans-Serif" font-size="10.00">algorithm</text>
</a>
</g>
</g>
<!-- Node3&#45;&gt;Node11 -->
<g id="edge10" class="edge">
<title>Node3&#45;&gt;Node11</title>
<path fill="none" stroke="#63b8ff" d="M518.76,-54.98C528.77,-47.07 543.89,-35.11 555.93,-25.58"/>
<polygon fill="#63b8ff" stroke="#63b8ff" points="558.37,-28.12 564.04,-19.17 554.03,-22.63 558.37,-28.12"/>
</g>
<!-- Node12 -->
<g id="node12" class="node">
<title>Node12</title>
<g id="a_node12"><a xlink:title=" ">
<polygon fill="#e0e0e0" stroke="#999999" points="673,-19 621,-19 621,0 673,0 673,-19"/>
<text text-anchor="middle" x="647" y="-7" font-family="Helvetica,sans-Serif" font-size="10.00">memory</text>
</a>
</g>
</g>
<!-- Node3&#45;&gt;Node12 -->
<g id="edge11" class="edge">
<title>Node3&#45;&gt;Node12</title>
<path fill="none" stroke="#63b8ff" d="M530.33,-54.98C553.2,-46.27 588.96,-32.63 614.86,-22.75"/>
<polygon fill="#63b8ff" stroke="#63b8ff" points="616.16,-26 624.26,-19.17 613.67,-19.46 616.16,-26"/>
</g>
<!-- Node13 -->
<g id="node13" class="node">
<title>Node13</title>
<g id="a_node13"><a xlink:title=" ">
<polygon fill="#e0e0e0" stroke="#999999" points="750.5,-19 691.5,-19 691.5,0 750.5,0 750.5,-19"/>
<text text-anchor="middle" x="721" y="-7" font-family="Helvetica,sans-Serif" font-size="10.00">functional</text>
</a>
</g>
</g>
<!-- Node3&#45;&gt;Node13 -->
<g id="edge12" class="edge">
<title>Node3&#45;&gt;Node13</title>
<path fill="none" stroke="#63b8ff" d="M542.22,-54.98C580.19,-45.54 641.38,-30.31 681.39,-20.36"/>
<polygon fill="#63b8ff" stroke="#63b8ff" points="682.47,-23.69 691.33,-17.88 680.78,-16.9 682.47,-23.69"/>
</g>
<!-- Node14&#45;&gt;Node3 -->
<g id="edge14" class="edge">
<title>Node14&#45;&gt;Node3</title>
<path fill="none" stroke="#63b8ff" d="M487.51,-219.89C507.06,-212.99 531.73,-201.53 548,-184 565.91,-164.7 565.02,-154.85 570,-129 571.6,-120.71 573.86,-117.51 570,-110 563.04,-96.44 549.81,-86.07 537.35,-78.78"/>
<polygon fill="#63b8ff" stroke="#63b8ff" points="538.98,-75.68 528.52,-74 535.65,-81.84 538.98,-75.68"/>
</g>
<!-- Node15 -->
<g id="node15" class="node">
<title>Node15</title>
<g id="a_node15"><a xlink:href="../../db/d98/ctexceptions_8h.html" target="_top" xlink:title="Definitions for the classes that are thrown when Cantera experiences an error condition (also contain...">
<polygon fill="white" stroke="#666666" points="140,-184 0,-184 0,-165 140,-165 140,-184"/>
<text text-anchor="middle" x="70" y="-172" font-family="Helvetica,sans-Serif" font-size="10.00">cantera/base/ctexceptions.h</text>
</a>
</g>
</g>
<!-- Node14&#45;&gt;Node15 -->
<g id="edge15" class="edge">
<title>Node14&#45;&gt;Node15</title>
<path fill="none" stroke="#63b8ff" d="M396.96,-220.28C328.22,-210.86 215.67,-195.45 142.21,-185.39"/>
<polygon fill="#63b8ff" stroke="#63b8ff" points="142.49,-181.9 132.11,-184.01 141.54,-188.83 142.49,-181.9"/>
</g>
<!-- Node20 -->
<g id="node18" class="node">
<title>Node20</title>
<g id="a_node18"><a xlink:href="../../da/d58/Units_8h.html" target="_top" xlink:title="Header for unit conversion utilities, which are used to translate user input from input files (See In...">
<polygon fill="white" stroke="#666666" points="561.5,-129 454.5,-129 454.5,-110 561.5,-110 561.5,-129"/>
<text text-anchor="middle" x="508" y="-117" font-family="Helvetica,sans-Serif" font-size="10.00">cantera/base/Units.h</text>
</a>
</g>
</g>
<!-- Node14&#45;&gt;Node20 -->
<g id="edge20" class="edge">
<title>Node14&#45;&gt;Node20</title>
<path fill="none" stroke="#63b8ff" d="M484.65,-219.98C501.58,-213.17 521.89,-201.76 532,-184 540.53,-169.02 531.48,-150.43 522.15,-137.25"/>
<polygon fill="#63b8ff" stroke="#63b8ff" points="524.74,-134.87 515.87,-129.09 519.2,-139.15 524.74,-134.87"/>
</g>
<!-- Node21 -->
<g id="node19" class="node">
<title>Node21</title>
<g id="a_node19"><a xlink:title=" ">
<polygon fill="#e0e0e0" stroke="#999999" points="241.5,-184 158.5,-184 158.5,-165 241.5,-165 241.5,-184"/>
<text text-anchor="middle" x="200" y="-172" font-family="Helvetica,sans-Serif" font-size="10.00">unordered_map</text>
</a>
</g>
</g>
<!-- Node14&#45;&gt;Node21 -->
<g id="edge22" class="edge">
<title>Node14&#45;&gt;Node21</title>
<path fill="none" stroke="#63b8ff" d="M415.71,-219.98C371.07,-210.78 299.84,-196.09 251.55,-186.13"/>
<polygon fill="#63b8ff" stroke="#63b8ff" points="252.12,-182.67 241.62,-184.08 250.7,-189.53 252.12,-182.67"/>
</g>
<!-- Node22 -->
<g id="node20" class="node">
<title>Node22</title>
<g id="a_node20"><a xlink:title=" ">
<polygon fill="#e0e0e0" stroke="#999999" points="322,-184 260,-184 260,-165 322,-165 322,-184"/>
<text text-anchor="middle" x="291" y="-172" font-family="Helvetica,sans-Serif" font-size="10.00">filesystem</text>
</a>
</g>
</g>
<!-- Node14&#45;&gt;Node22 -->
<g id="edge23" class="edge">
<title>Node14&#45;&gt;Node22</title>
<path fill="none" stroke="#63b8ff" d="M430.33,-219.98C402.46,-211.09 358.55,-197.07 327.48,-187.15"/>
<polygon fill="#63b8ff" stroke="#63b8ff" points="328.47,-183.79 317.88,-184.08 326.34,-190.46 328.47,-183.79"/>
</g>
<!-- Node23 -->
<g id="node21" class="node">
<title>Node23</title>
<g id="a_node21"><a xlink:title=" ">
<polygon fill="#e0e0e0" stroke="#999999" points="372,-184 340,-184 340,-165 372,-165 372,-184"/>
<text text-anchor="middle" x="356" y="-172" font-family="Helvetica,sans-Serif" font-size="10.00">any</text>
</a>
</g>
</g>
<!-- Node14&#45;&gt;Node23 -->
<g id="edge24" class="edge">
<title>Node14&#45;&gt;Node23</title>
<path fill="none" stroke="#63b8ff" d="M440.77,-219.98C424.72,-211.56 399.93,-198.55 381.29,-188.77"/>
<polygon fill="#63b8ff" stroke="#63b8ff" points="382.67,-185.54 372.19,-183.99 379.42,-191.74 382.67,-185.54"/>
</g>
<!-- Node24 -->
<g id="node22" class="node">
<title>Node24</title>
<g id="a_node22"><a xlink:href="../../da/d4c/AnyMap_8inl_8h.html" target="_top" xlink:title=" ">
<polygon fill="white" stroke="#666666" points="523.5,-184 390.5,-184 390.5,-165 523.5,-165 523.5,-184"/>
<text text-anchor="middle" x="457" y="-172" font-family="Helvetica,sans-Serif" font-size="10.00">cantera/base/AnyMap.inl.h</text>
</a>
</g>
</g>
<!-- Node14&#45;&gt;Node24 -->
<g id="edge25" class="edge">
<title>Node14&#45;&gt;Node24</title>
<path fill="none" stroke="#63b8ff" d="M451.83,-219.75C450.34,-212.8 449.9,-202.85 450.52,-194.13"/>
<polygon fill="#63b8ff" stroke="#63b8ff" points="454.01,-194.47 451.87,-184.09 447.07,-193.53 454.01,-194.47"/>
</g>
<!-- Node15&#45;&gt;Node3 -->
<g id="edge16" class="edge">
<title>Node15&#45;&gt;Node3</title>
<path fill="none" stroke="#63b8ff" d="M69.79,-164.92C69.96,-151 72.53,-123.67 89,-110 115.37,-88.11 327.66,-74.42 439.54,-68.66"/>
<polygon fill="#63b8ff" stroke="#63b8ff" points="439.91,-72.14 449.72,-68.14 439.55,-65.15 439.91,-72.14"/>
</g>
<!-- Node16 -->
<g id="node16" class="node">
<title>Node16</title>
<g id="a_node16"><a xlink:href="../../db/def/fmt_8h.html" target="_top" xlink:title="Wrapper for either system&#45;installed or local headers for fmt.">
<polygon fill="#fff0f0" stroke="red" points="196,-129 98,-129 98,-110 196,-110 196,-129"/>
<text text-anchor="middle" x="147" y="-117" font-family="Helvetica,sans-Serif" font-size="10.00">cantera/base/fmt.h</text>
</a>
</g>
</g>
<!-- Node15&#45;&gt;Node16 -->
<g id="edge17" class="edge">
<title>Node15&#45;&gt;Node16</title>
<path fill="none" stroke="#63b8ff" d="M82.37,-164.98C94.09,-156.92 111.92,-144.65 125.89,-135.03"/>
<polygon fill="#63b8ff" stroke="#63b8ff" points="128.15,-137.72 134.4,-129.17 124.18,-131.96 128.15,-137.72"/>
</g>
<!-- Node19 -->
<g id="node17" class="node">
<title>Node19</title>
<g id="a_node17"><a xlink:title=" ">
<polygon fill="#e0e0e0" stroke="#999999" points="273.5,-129 214.5,-129 214.5,-110 273.5,-110 273.5,-129"/>
<text text-anchor="middle" x="244" y="-117" font-family="Helvetica,sans-Serif" font-size="10.00">exception</text>
</a>
</g>
</g>
<!-- Node15&#45;&gt;Node19 -->
<g id="edge19" class="edge">
<title>Node15&#45;&gt;Node19</title>
<path fill="none" stroke="#63b8ff" d="M97.96,-164.98C127.3,-156.05 173.6,-141.94 206.19,-132.02"/>
<polygon fill="#63b8ff" stroke="#63b8ff" points="207.28,-135.34 215.82,-129.08 205.24,-128.65 207.28,-135.34"/>
</g>
<!-- Node16&#45;&gt;Node3 -->
<g id="edge18" class="edge">
<title>Node16&#45;&gt;Node3</title>
<path fill="none" stroke="#63b8ff" d="M196.06,-111.3C259.09,-102.04 368.81,-85.94 439.89,-75.5"/>
<polygon fill="#63b8ff" stroke="#63b8ff" points="440.71,-78.92 450.09,-74 439.69,-71.99 440.71,-78.92"/>
</g>
<!-- Node20&#45;&gt;Node3 -->
<g id="edge21" class="edge">
<title>Node20&#45;&gt;Node3</title>
<path fill="none" stroke="#63b8ff" d="M508,-109.75C508,-102.8 508,-92.85 508,-84.13"/>
<polygon fill="#63b8ff" stroke="#63b8ff" points="511.5,-84.09 508,-74.09 504.5,-84.09 511.5,-84.09"/>
</g>
<!-- Node24&#45;&gt;Node14 -->
<g id="edge26" class="edge">
<title>Node24&#45;&gt;Node14</title>
<path fill="none" stroke="#63b8ff" d="M462.13,-184.09C463.64,-190.99 464.09,-200.93 463.49,-209.66"/>
<polygon fill="#63b8ff" stroke="#63b8ff" points="460,-209.38 462.17,-219.75 466.94,-210.29 460,-209.38"/>
</g>
<!-- Node26 -->
<g id="node24" class="node">
<title>Node26</title>
<g id="a_node24"><a xlink:href="../../da/d59/WaterPropsIAPWSphi_8h.html" target="_top" xlink:title="Header for Lowest level of the classes which support a real water model (see class WaterPropsIAPWS an...">
<polygon fill="white" stroke="#666666" points="852,-74 730,-74 730,-55 852,-55 852,-74"/>
<text text-anchor="middle" x="791" y="-62" font-family="Helvetica,sans-Serif" font-size="10.00">WaterPropsIAPWSphi.h</text>
</a>
</g>
</g>
<!-- Node25&#45;&gt;Node26 -->
<g id="edge28" class="edge">
<title>Node25&#45;&gt;Node26</title>
<path fill="none" stroke="#63b8ff" d="M781.39,-274.95C782.86,-242.95 788.06,-129.68 790.13,-84.4"/>
<polygon fill="#63b8ff" stroke="#63b8ff" points="793.64,-84.37 790.6,-74.22 786.65,-84.05 793.64,-84.37"/>
</g>
<!-- Node26&#45;&gt;Node4 -->
<g id="edge29" class="edge">
<title>Node26&#45;&gt;Node4</title>
<path fill="none" stroke="#63b8ff" d="M791.5,-54.75C791.89,-47.8 792.45,-37.85 792.95,-29.13"/>
<polygon fill="#63b8ff" stroke="#63b8ff" points="796.44,-29.27 793.51,-19.09 789.45,-28.88 796.44,-29.27"/>
</g>
<!-- Node27&#45;&gt;Node3 -->
<g id="edge31" class="edge">
<title>Node27&#45;&gt;Node3</title>
<path fill="none" stroke="#63b8ff" d="M692.68,-219.96C688.91,-198.35 676.04,-141.02 642,-110 623.77,-93.39 599.16,-82.96 576.02,-76.42"/>
<polygon fill="#63b8ff" stroke="#63b8ff" points="576.77,-73 566.21,-73.85 574.99,-79.77 576.77,-73"/>
</g>
</g>
</svg>
        <g id="navigator" transform="translate(0 0)" fill="#404254">
                <rect fill="#f2f5e9" fill-opacity="0.5" stroke="#606060" stroke-width=".5" x="0" y="0" width="60" height="60"/>
                <use id="zoomplus" xlink:href="#zoomPlus" x="17" y="9" onmousedown="handleZoom(evt,'in')"/>
                <use id="zoomminus" xlink:href="#zoomMin" x="42" y="9" onmousedown="handleZoom(evt,'out')"/>
                <use id="reset" xlink:href="#resetDef" x="30" y="36" onmousedown="handleReset()"/>
                <g id="arrowUp" xlink:href="#dirArrow" transform="translate(30 24)" onmousedown="handlePan(0,-1)">
                  <use xlink:href="#rim" fill="#404040">
                        <set attributeName="fill" to="#808080" begin="arrowUp.mouseover" end="arrowUp.mouseout"/>
                  </use>
                  <path fill="none" stroke="white" stroke-width="1.5" d="M0,-3.0v7 M-2.5,-0.5L0,-3.0L2.5,-0.5"/>
                </g>
                <g id="arrowRight" xlink:href="#dirArrow" transform="rotate(90) translate(36 -43)" onmousedown="handlePan(1,0)">
                  <use xlink:href="#rim" fill="#404040">
                        <set attributeName="fill" to="#808080" begin="arrowRight.mouseover" end="arrowRight.mouseout"/>
                  </use>
                  <path fill="none" stroke="white" stroke-width="1.5" d="M0,-3.0v7 M-2.5,-0.5L0,-3.0L2.5,-0.5"/>
                </g>
                <g id="arrowDown" xlink:href="#dirArrow" transform="rotate(180) translate(-30 -48)" onmousedown="handlePan(0,1)">
                  <use xlink:href="#rim" fill="#404040">
                        <set attributeName="fill" to="#808080" begin="arrowDown.mouseover" end="arrowDown.mouseout"/>
                  </use>
                  <path fill="none" stroke="white" stroke-width="1.5" d="M0,-3.0v7 M-2.5,-0.5L0,-3.0L2.5,-0.5"/>
                </g>
                <g id="arrowLeft" xlink:href="#dirArrow" transform="rotate(270) translate(-36 17)" onmousedown="handlePan(-1,0)">
                  <use xlink:href="#rim" fill="#404040">
                        <set attributeName="fill" to="#808080" begin="arrowLeft.mouseover" end="arrowLeft.mouseout"/>
                  </use>
                  <path fill="none" stroke="white" stroke-width="1.5" d="M0,-3.0v7 M-2.5,-0.5L0,-3.0L2.5,-0.5"/>
                </g>
        </g>
        <svg viewBox="0 0 15 15" width="100%" height="30px" preserveAspectRatio="xMaxYMin meet">
         <g id="arrow_out" transform="scale(0.3 0.3)">
          <a xlink:href="PDSS__Water_8h__incl_org.svg" target="_base">
           <rect id="button" ry="5" rx="5" y="6" x="6" height="38" width="38"
                fill="#f2f5e9" fill-opacity="0.5" stroke="#606060" stroke-width="1.0"/>
           <path id="arrow"
             d="M 11.500037,31.436501 C 11.940474,20.09759 22.043105,11.32322 32.158766,21.979434 L 37.068811,17.246167 C 37.068811,17.246167 37.088388,32 37.088388,32 L 22.160133,31.978069 C 22.160133,31.978069 26.997745,27.140456 26.997745,27.140456 C 18.528582,18.264221 13.291696,25.230495 11.500037,31.436501 z"
             style="fill:#404040;"/>
          </a>
         </g>
        </svg>
</svg>
