<?xml version="1.0" encoding="UTF-8" standalone="no"?>
<!DOCTYPE svg PUBLIC "-//W3C//DTD SVG 1.1//EN"
 "http://www.w3.org/Graphics/SVG/1.1/DTD/svg11.dtd">
<!-- Generated by graphviz version 2.43.0 (0)
 -->
<!-- Title: PDSS_IonsFromNeutral.cpp Pages: 1 -->
<svg width="1039pt" height="543pt"
 viewBox="0.00 0.00 1038.57 543.00" xmlns="http://www.w3.org/2000/svg" xmlns:xlink="http://www.w3.org/1999/xlink">
<g id="graph0" class="graph" transform="scale(1 1) rotate(0) translate(4 539)">
<title>PDSS_IonsFromNeutral.cpp</title>
<polygon fill="white" stroke="transparent" points="-4,4 -4,-539 1034.57,-539 1034.57,4 -4,4"/>
<!-- Node1 -->
<g id="node1" class="node">
<title>Node1</title>
<g id="a_node1"><a xlink:title="Implementation of a pressure dependent standard state virtual function.">
<polygon fill="#bfbfbf" stroke="black" points="731.07,-515.5 731.07,-534.5 880.07,-534.5 880.07,-515.5 731.07,-515.5"/>
<text text-anchor="middle" x="805.57" y="-522.5" font-family="Helvetica,sans-Serif" font-size="10.00">PDSS_IonsFromNeutral.cpp</text>
</a>
</g>
</g>
<!-- Node2 -->
<g id="node2" class="node">
<title>Node2</title>
<g id="a_node2"><a xlink:href="../../de/df8/PDSS__IonsFromNeutral_8h.html" target="_top" xlink:title="Declarations for the class PDSS_IonsFromNeutral ( which handles calculations for a single ion in a fl...">
<polygon fill="white" stroke="black" points="354.57,-448.5 354.57,-478.5 474.57,-478.5 474.57,-448.5 354.57,-448.5"/>
<text text-anchor="start" x="362.57" y="-466.5" font-family="Helvetica,sans-Serif" font-size="10.00">cantera/thermo/PDSS</text>
<text text-anchor="middle" x="414.57" y="-455.5" font-family="Helvetica,sans-Serif" font-size="10.00">_IonsFromNeutral.h</text>
</a>
</g>
</g>
<!-- Node1&#45;&gt;Node2 -->
<g id="edge1" class="edge">
<title>Node1&#45;&gt;Node2</title>
<path fill="none" stroke="midnightblue" d="M749.55,-515.48C679.73,-504.85 560.38,-486.69 484.59,-475.16"/>
<polygon fill="midnightblue" stroke="midnightblue" points="485.07,-471.69 474.66,-473.64 484.02,-478.61 485.07,-471.69"/>
</g>
<!-- Node27 -->
<g id="node23" class="node">
<title>Node27</title>
<g id="a_node23"><a xlink:href="../../de/dd7/IonsFromNeutralVPSSTP_8h.html" target="_top" xlink:title="Header for intermediate ThermoPhase object for phases which consist of ions whose thermodynamics is c...">
<polygon fill="white" stroke="black" points="649.57,-448.5 649.57,-478.5 825.57,-478.5 825.57,-448.5 649.57,-448.5"/>
<text text-anchor="start" x="657.57" y="-466.5" font-family="Helvetica,sans-Serif" font-size="10.00">cantera/thermo/IonsFromNeutral</text>
<text text-anchor="middle" x="737.57" y="-455.5" font-family="Helvetica,sans-Serif" font-size="10.00">VPSSTP.h</text>
</a>
</g>
</g>
<!-- Node1&#45;&gt;Node27 -->
<g id="edge27" class="edge">
<title>Node1&#45;&gt;Node27</title>
<path fill="none" stroke="midnightblue" d="M795.83,-515.48C786.88,-507.64 773.24,-495.71 761.42,-485.37"/>
<polygon fill="midnightblue" stroke="midnightblue" points="763.43,-482.47 753.6,-478.52 758.82,-487.74 763.43,-482.47"/>
</g>
<!-- Node39 -->
<g id="node29" class="node">
<title>Node39</title>
<g id="a_node29"><a xlink:href="../../dd/dc3/stringUtils_8h.html" target="_top" xlink:title="Contains declarations for string manipulation functions within Cantera.">
<polygon fill="white" stroke="black" points="888.57,-392.5 888.57,-411.5 1030.57,-411.5 1030.57,-392.5 888.57,-392.5"/>
<text text-anchor="middle" x="959.57" y="-399.5" font-family="Helvetica,sans-Serif" font-size="10.00">cantera/base/stringUtils.h</text>
</a>
</g>
</g>
<!-- Node1&#45;&gt;Node39 -->
<g id="edge36" class="edge">
<title>Node1&#45;&gt;Node39</title>
<path fill="none" stroke="midnightblue" d="M818.56,-515.36C831.66,-506.53 852.36,-492.27 869.57,-479 895.45,-459.03 924.1,-434.37 941.97,-418.66"/>
<polygon fill="midnightblue" stroke="midnightblue" points="944.64,-420.97 949.82,-411.73 940.01,-415.73 944.64,-420.97"/>
</g>
<!-- Node40 -->
<g id="node30" class="node">
<title>Node40</title>
<g id="a_node30"><a xlink:href="../../d2/d49/global_8h.html" target="_top" xlink:title="This file contains definitions for utility functions and text for modules, inputfiles and logging,...">
<polygon fill="white" stroke="black" points="819.57,-168.5 819.57,-187.5 941.57,-187.5 941.57,-168.5 819.57,-168.5"/>
<text text-anchor="middle" x="880.57" y="-175.5" font-family="Helvetica,sans-Serif" font-size="10.00">cantera/base/global.h</text>
</a>
</g>
</g>
<!-- Node1&#45;&gt;Node40 -->
<g id="edge38" class="edge">
<title>Node1&#45;&gt;Node40</title>
<path fill="none" stroke="midnightblue" d="M812.18,-515.49C818.68,-506.76 828.49,-492.57 834.57,-479 848.89,-447.02 855.57,-438.04 855.57,-403 855.57,-403 855.57,-403 855.57,-289 855.57,-256 866.4,-218.77 873.81,-197.19"/>
<polygon fill="midnightblue" stroke="midnightblue" points="877.14,-198.28 877.2,-187.69 870.54,-195.93 877.14,-198.28"/>
</g>
<!-- Node3 -->
<g id="node3" class="node">
<title>Node3</title>
<g id="a_node3"><a xlink:href="../../d7/dfa/PDSS_8h.html" target="_top" xlink:title="Declarations for the virtual base class PDSS (pressure dependent standard state) which handles calcul...">
<polygon fill="white" stroke="black" points="304.07,-280.5 304.07,-299.5 355.07,-299.5 355.07,-280.5 304.07,-280.5"/>
<text text-anchor="middle" x="329.57" y="-287.5" font-family="Helvetica,sans-Serif" font-size="10.00">PDSS.h</text>
</a>
</g>
</g>
<!-- Node2&#45;&gt;Node3 -->
<g id="edge2" class="edge">
<title>Node2&#45;&gt;Node3</title>
<path fill="none" stroke="midnightblue" d="M407.61,-448.47C392.24,-417.44 355.37,-343.05 338.4,-308.81"/>
<polygon fill="midnightblue" stroke="midnightblue" points="341.39,-306.97 333.81,-299.56 335.12,-310.07 341.39,-306.97"/>
</g>
<!-- Node4 -->
<g id="node4" class="node">
<title>Node4</title>
<g id="a_node4"><a xlink:href="../../d9/ddc/ct__defs_8h.html" target="_top" xlink:title="This file contains definitions of constants, types and terms that are used in internal routines and a...">
<polygon fill="white" stroke="black" points="603.07,-56.5 603.07,-75.5 730.07,-75.5 730.07,-56.5 603.07,-56.5"/>
<text text-anchor="middle" x="666.57" y="-63.5" font-family="Helvetica,sans-Serif" font-size="10.00">cantera/base/ct_defs.h</text>
</a>
</g>
</g>
<!-- Node3&#45;&gt;Node4 -->
<g id="edge3" class="edge">
<title>Node3&#45;&gt;Node4</title>
<path fill="none" stroke="midnightblue" d="M303.8,-289.09C217.03,-288.39 -55.47,-277.58 10.57,-168 38.07,-122.37 65.42,-126.92 116.57,-112 203.88,-86.53 464.2,-74.09 592.88,-69.36"/>
<polygon fill="midnightblue" stroke="midnightblue" points="593.18,-72.85 603.04,-68.99 592.92,-65.86 593.18,-72.85"/>
</g>
<!-- Node15 -->
<g id="node15" class="node">
<title>Node15</title>
<g id="a_node15"><a xlink:href="../../dd/d2a/AnyMap_8h.html" target="_top" xlink:title=" ">
<polygon fill="white" stroke="black" points="309.07,-224.5 309.07,-243.5 440.07,-243.5 440.07,-224.5 309.07,-224.5"/>
<text text-anchor="middle" x="374.57" y="-231.5" font-family="Helvetica,sans-Serif" font-size="10.00">cantera/base/AnyMap.h</text>
</a>
</g>
</g>
<!-- Node3&#45;&gt;Node15 -->
<g id="edge14" class="edge">
<title>Node3&#45;&gt;Node15</title>
<path fill="none" stroke="midnightblue" d="M337,-280.08C343.42,-272.38 352.88,-261.03 360.69,-251.65"/>
<polygon fill="midnightblue" stroke="midnightblue" points="363.56,-253.67 367.28,-243.75 358.19,-249.19 363.56,-253.67"/>
</g>
<!-- Node5 -->
<g id="node5" class="node">
<title>Node5</title>
<g id="a_node5"><a xlink:href="../../db/d16/config_8h_source.html" target="_top" xlink:title=" ">
<polygon fill="white" stroke="black" points="351.07,-0.5 351.07,-19.5 406.07,-19.5 406.07,-0.5 351.07,-0.5"/>
<text text-anchor="middle" x="378.57" y="-7.5" font-family="Helvetica,sans-Serif" font-size="10.00">config.h</text>
</a>
</g>
</g>
<!-- Node4&#45;&gt;Node5 -->
<g id="edge4" class="edge">
<title>Node4&#45;&gt;Node5</title>
<path fill="none" stroke="midnightblue" d="M612.78,-56.49C563.81,-48.49 489.32,-35.71 416.26,-20.26"/>
<polygon fill="midnightblue" stroke="midnightblue" points="416.94,-16.83 406.43,-18.17 415.48,-23.68 416.94,-16.83"/>
</g>
<!-- Node6 -->
<g id="node6" class="node">
<title>Node6</title>
<g id="a_node6"><a xlink:title=" ">
<polygon fill="white" stroke="#bfbfbf" points="424.07,-0.5 424.07,-19.5 471.07,-19.5 471.07,-0.5 424.07,-0.5"/>
<text text-anchor="middle" x="447.57" y="-7.5" font-family="Helvetica,sans-Serif" font-size="10.00">cmath</text>
</a>
</g>
</g>
<!-- Node4&#45;&gt;Node6 -->
<g id="edge5" class="edge">
<title>Node4&#45;&gt;Node6</title>
<path fill="none" stroke="midnightblue" d="M629.21,-56.45C593.46,-48.17 537.78,-35.02 481.14,-20.35"/>
<polygon fill="midnightblue" stroke="midnightblue" points="481.87,-16.92 471.31,-17.78 480.1,-23.69 481.87,-16.92"/>
</g>
<!-- Node7 -->
<g id="node7" class="node">
<title>Node7</title>
<g id="a_node7"><a xlink:title=" ">
<polygon fill="white" stroke="#bfbfbf" points="489.07,-0.5 489.07,-19.5 538.07,-19.5 538.07,-0.5 489.07,-0.5"/>
<text text-anchor="middle" x="513.57" y="-7.5" font-family="Helvetica,sans-Serif" font-size="10.00">cstdlib</text>
</a>
</g>
</g>
<!-- Node4&#45;&gt;Node7 -->
<g id="edge6" class="edge">
<title>Node4&#45;&gt;Node7</title>
<path fill="none" stroke="midnightblue" d="M642.33,-56.44C616.7,-47.4 576.08,-33.06 547.33,-22.92"/>
<polygon fill="midnightblue" stroke="midnightblue" points="548.29,-19.54 537.7,-19.52 545.97,-26.15 548.29,-19.54"/>
</g>
<!-- Node8 -->
<g id="node8" class="node">
<title>Node8</title>
<g id="a_node8"><a xlink:title=" ">
<polygon fill="white" stroke="#bfbfbf" points="556.07,-0.5 556.07,-19.5 603.07,-19.5 603.07,-0.5 556.07,-0.5"/>
<text text-anchor="middle" x="579.57" y="-7.5" font-family="Helvetica,sans-Serif" font-size="10.00">vector</text>
</a>
</g>
</g>
<!-- Node4&#45;&gt;Node8 -->
<g id="edge7" class="edge">
<title>Node4&#45;&gt;Node8</title>
<path fill="none" stroke="midnightblue" d="M652.59,-56.32C639.02,-47.9 618.19,-34.97 602.25,-25.07"/>
<polygon fill="midnightblue" stroke="midnightblue" points="603.86,-21.95 593.51,-19.65 600.16,-27.9 603.86,-21.95"/>
</g>
<!-- Node9 -->
<g id="node9" class="node">
<title>Node9</title>
<g id="a_node9"><a xlink:title=" ">
<polygon fill="white" stroke="#bfbfbf" points="621.57,-0.5 621.57,-19.5 659.57,-19.5 659.57,-0.5 621.57,-0.5"/>
<text text-anchor="middle" x="640.57" y="-7.5" font-family="Helvetica,sans-Serif" font-size="10.00">map</text>
</a>
</g>
</g>
<!-- Node4&#45;&gt;Node9 -->
<g id="edge8" class="edge">
<title>Node4&#45;&gt;Node9</title>
<path fill="none" stroke="midnightblue" d="M662.28,-56.08C658.72,-48.69 653.55,-37.95 649.15,-28.81"/>
<polygon fill="midnightblue" stroke="midnightblue" points="652.28,-27.24 644.78,-19.75 645.97,-30.28 652.28,-27.24"/>
</g>
<!-- Node10 -->
<g id="node10" class="node">
<title>Node10</title>
<g id="a_node10"><a xlink:title=" ">
<polygon fill="white" stroke="#bfbfbf" points="677.57,-0.5 677.57,-19.5 709.57,-19.5 709.57,-0.5 677.57,-0.5"/>
<text text-anchor="middle" x="693.57" y="-7.5" font-family="Helvetica,sans-Serif" font-size="10.00">set</text>
</a>
</g>
</g>
<!-- Node4&#45;&gt;Node10 -->
<g id="edge9" class="edge">
<title>Node4&#45;&gt;Node10</title>
<path fill="none" stroke="midnightblue" d="M671.03,-56.08C674.72,-48.69 680.09,-37.95 684.66,-28.81"/>
<polygon fill="midnightblue" stroke="midnightblue" points="687.85,-30.26 689.19,-19.75 681.59,-27.13 687.85,-30.26"/>
</g>
<!-- Node11 -->
<g id="node11" class="node">
<title>Node11</title>
<g id="a_node11"><a xlink:title=" ">
<polygon fill="white" stroke="#bfbfbf" points="727.57,-0.5 727.57,-19.5 771.57,-19.5 771.57,-0.5 727.57,-0.5"/>
<text text-anchor="middle" x="749.57" y="-7.5" font-family="Helvetica,sans-Serif" font-size="10.00">string</text>
</a>
</g>
</g>
<!-- Node4&#45;&gt;Node11 -->
<g id="edge10" class="edge">
<title>Node4&#45;&gt;Node11</title>
<path fill="none" stroke="midnightblue" d="M679.91,-56.32C692.73,-47.98 712.36,-35.21 727.51,-25.35"/>
<polygon fill="midnightblue" stroke="midnightblue" points="729.79,-28.04 736.27,-19.65 725.98,-22.17 729.79,-28.04"/>
</g>
<!-- Node12 -->
<g id="node12" class="node">
<title>Node12</title>
<g id="a_node12"><a xlink:title=" ">
<polygon fill="white" stroke="#bfbfbf" points="789.57,-0.5 789.57,-19.5 853.57,-19.5 853.57,-0.5 789.57,-0.5"/>
<text text-anchor="middle" x="821.57" y="-7.5" font-family="Helvetica,sans-Serif" font-size="10.00">algorithm</text>
</a>
</g>
</g>
<!-- Node4&#45;&gt;Node12 -->
<g id="edge11" class="edge">
<title>Node4&#45;&gt;Node12</title>
<path fill="none" stroke="midnightblue" d="M691.13,-56.44C717.09,-47.4 758.24,-33.06 787.37,-22.92"/>
<polygon fill="midnightblue" stroke="midnightblue" points="788.83,-26.11 797.12,-19.52 786.53,-19.5 788.83,-26.11"/>
</g>
<!-- Node13 -->
<g id="node13" class="node">
<title>Node13</title>
<g id="a_node13"><a xlink:title=" ">
<polygon fill="white" stroke="#bfbfbf" points="871.57,-0.5 871.57,-19.5 929.57,-19.5 929.57,-0.5 871.57,-0.5"/>
<text text-anchor="middle" x="900.57" y="-7.5" font-family="Helvetica,sans-Serif" font-size="10.00">memory</text>
</a>
</g>
</g>
<!-- Node4&#45;&gt;Node13 -->
<g id="edge12" class="edge">
<title>Node4&#45;&gt;Node13</title>
<path fill="none" stroke="midnightblue" d="M704.16,-56.45C741.63,-47.91 801.07,-34.31 861.78,-20.17"/>
<polygon fill="midnightblue" stroke="midnightblue" points="862.58,-23.58 871.53,-17.9 861,-16.76 862.58,-23.58"/>
</g>
<!-- Node14 -->
<g id="node14" class="node">
<title>Node14</title>
<g id="a_node14"><a xlink:title=" ">
<polygon fill="white" stroke="#bfbfbf" points="948.07,-0.5 948.07,-19.5 1013.07,-19.5 1013.07,-0.5 948.07,-0.5"/>
<text text-anchor="middle" x="980.57" y="-7.5" font-family="Helvetica,sans-Serif" font-size="10.00">functional</text>
</a>
</g>
</g>
<!-- Node4&#45;&gt;Node14 -->
<g id="edge13" class="edge">
<title>Node4&#45;&gt;Node14</title>
<path fill="none" stroke="midnightblue" d="M722.97,-56.46C775.92,-48.27 857.58,-35.17 938.22,-19.99"/>
<polygon fill="midnightblue" stroke="midnightblue" points="938.87,-23.43 948.04,-18.13 937.56,-16.55 938.87,-23.43"/>
</g>
<!-- Node15&#45;&gt;Node4 -->
<g id="edge15" class="edge">
<title>Node15&#45;&gt;Node4</title>
<path fill="none" stroke="midnightblue" d="M308.97,-226.1C260.38,-219.48 200.03,-207.54 184.57,-188 179.06,-181.03 178.97,-174.9 184.57,-168 235.16,-105.71 470.74,-80.46 592.8,-71.43"/>
<polygon fill="midnightblue" stroke="midnightblue" points="593.09,-74.92 602.82,-70.7 592.59,-67.93 593.09,-74.92"/>
</g>
<!-- Node16 -->
<g id="node16" class="node">
<title>Node16</title>
<g id="a_node16"><a xlink:href="../../db/d98/ctexceptions_8h.html" target="_top" xlink:title="Definitions for the classes that are thrown when Cantera experiences an error condition (also contain...">
<polygon fill="white" stroke="red" points="609.57,-168.5 609.57,-187.5 763.57,-187.5 763.57,-168.5 609.57,-168.5"/>
<text text-anchor="middle" x="686.57" y="-175.5" font-family="Helvetica,sans-Serif" font-size="10.00">cantera/base/ctexceptions.h</text>
</a>
</g>
</g>
<!-- Node15&#45;&gt;Node16 -->
<g id="edge16" class="edge">
<title>Node15&#45;&gt;Node16</title>
<path fill="none" stroke="midnightblue" d="M424.01,-224.44C479.23,-214.89 568.59,-199.42 627.46,-189.23"/>
<polygon fill="midnightblue" stroke="midnightblue" points="628.11,-192.67 637.36,-187.52 626.91,-185.77 628.11,-192.67"/>
</g>
<!-- Node22 -->
<g id="node18" class="node">
<title>Node22</title>
<g id="a_node18"><a xlink:href="../../da/d58/Units_8h.html" target="_top" xlink:title="Header for unit conversion utilities, which are used to translate user input from input files (See In...">
<polygon fill="white" stroke="black" points="20.07,-168.5 20.07,-187.5 137.07,-187.5 137.07,-168.5 20.07,-168.5"/>
<text text-anchor="middle" x="78.57" y="-175.5" font-family="Helvetica,sans-Serif" font-size="10.00">cantera/base/Units.h</text>
</a>
</g>
</g>
<!-- Node15&#45;&gt;Node22 -->
<g id="edge20" class="edge">
<title>Node15&#45;&gt;Node22</title>
<path fill="none" stroke="midnightblue" d="M327.67,-224.44C275.49,-214.92 191.2,-199.55 135.34,-189.36"/>
<polygon fill="midnightblue" stroke="midnightblue" points="135.72,-185.87 125.25,-187.52 134.46,-192.75 135.72,-185.87"/>
</g>
<!-- Node23 -->
<g id="node19" class="node">
<title>Node23</title>
<g id="a_node19"><a xlink:title=" ">
<polygon fill="white" stroke="#bfbfbf" points="194.07,-168.5 194.07,-187.5 287.07,-187.5 287.07,-168.5 194.07,-168.5"/>
<text text-anchor="middle" x="240.57" y="-175.5" font-family="Helvetica,sans-Serif" font-size="10.00">unordered_map</text>
</a>
</g>
</g>
<!-- Node15&#45;&gt;Node23 -->
<g id="edge22" class="edge">
<title>Node15&#45;&gt;Node23</title>
<path fill="none" stroke="midnightblue" d="M353.34,-224.44C331.19,-215.52 296.25,-201.44 271.13,-191.32"/>
<polygon fill="midnightblue" stroke="midnightblue" points="272.29,-188.01 261.7,-187.52 269.67,-194.5 272.29,-188.01"/>
</g>
<!-- Node24 -->
<g id="node20" class="node">
<title>Node24</title>
<g id="a_node20"><a xlink:title=" ">
<polygon fill="white" stroke="#bfbfbf" points="305.57,-168.5 305.57,-187.5 373.57,-187.5 373.57,-168.5 305.57,-168.5"/>
<text text-anchor="middle" x="339.57" y="-175.5" font-family="Helvetica,sans-Serif" font-size="10.00">filesystem</text>
</a>
</g>
</g>
<!-- Node15&#45;&gt;Node24 -->
<g id="edge23" class="edge">
<title>Node15&#45;&gt;Node24</title>
<path fill="none" stroke="midnightblue" d="M368.79,-224.08C363.9,-216.53 356.74,-205.49 350.74,-196.23"/>
<polygon fill="midnightblue" stroke="midnightblue" points="353.62,-194.24 345.24,-187.75 347.74,-198.05 353.62,-194.24"/>
</g>
<!-- Node25 -->
<g id="node21" class="node">
<title>Node25</title>
<g id="a_node21"><a xlink:title=" ">
<polygon fill="white" stroke="#bfbfbf" points="392.07,-168.5 392.07,-187.5 427.07,-187.5 427.07,-168.5 392.07,-168.5"/>
<text text-anchor="middle" x="409.57" y="-175.5" font-family="Helvetica,sans-Serif" font-size="10.00">any</text>
</a>
</g>
</g>
<!-- Node15&#45;&gt;Node25 -->
<g id="edge24" class="edge">
<title>Node15&#45;&gt;Node25</title>
<path fill="none" stroke="midnightblue" d="M380.35,-224.08C385.24,-216.53 392.4,-205.49 398.4,-196.23"/>
<polygon fill="midnightblue" stroke="midnightblue" points="401.4,-198.05 403.9,-187.75 395.52,-194.24 401.4,-198.05"/>
</g>
<!-- Node26 -->
<g id="node22" class="node">
<title>Node26</title>
<g id="a_node22"><a xlink:href="../../da/d4c/AnyMap_8inl_8h.html" target="_top" xlink:title=" ">
<polygon fill="white" stroke="black" points="445.57,-168.5 445.57,-187.5 591.57,-187.5 591.57,-168.5 445.57,-168.5"/>
<text text-anchor="middle" x="518.57" y="-175.5" font-family="Helvetica,sans-Serif" font-size="10.00">cantera/base/AnyMap.inl.h</text>
</a>
</g>
</g>
<!-- Node15&#45;&gt;Node26 -->
<g id="edge25" class="edge">
<title>Node15&#45;&gt;Node26</title>
<path fill="none" stroke="midnightblue" d="M392.3,-224.44C414.43,-215.4 452.45,-201.06 481.09,-190.92"/>
<polygon fill="midnightblue" stroke="midnightblue" points="482.5,-194.13 490.78,-187.52 480.18,-187.52 482.5,-194.13"/>
</g>
<!-- Node16&#45;&gt;Node4 -->
<g id="edge17" class="edge">
<title>Node16&#45;&gt;Node4</title>
<path fill="none" stroke="midnightblue" d="M674.36,-168.24C664.22,-160.14 650.53,-147.11 644.57,-132 638.24,-115.95 646.12,-97.25 654.15,-84.04"/>
<polygon fill="midnightblue" stroke="midnightblue" points="657.2,-85.77 659.83,-75.51 651.37,-81.9 657.2,-85.77"/>
</g>
<!-- Node17 -->
<g id="node17" class="node">
<title>Node17</title>
<g id="a_node17"><a xlink:href="../../db/def/fmt_8h.html" target="_top" xlink:title="Wrapper for either system&#45;installed or local headers for fmt.">
<polygon fill="white" stroke="red" points="654.07,-112.5 654.07,-131.5 763.07,-131.5 763.07,-112.5 654.07,-112.5"/>
<text text-anchor="middle" x="708.57" y="-119.5" font-family="Helvetica,sans-Serif" font-size="10.00">cantera/base/fmt.h</text>
</a>
</g>
</g>
<!-- Node16&#45;&gt;Node17 -->
<g id="edge18" class="edge">
<title>Node16&#45;&gt;Node17</title>
<path fill="none" stroke="midnightblue" d="M690.2,-168.08C693.18,-160.77 697.5,-150.18 701.19,-141.1"/>
<polygon fill="midnightblue" stroke="midnightblue" points="704.47,-142.33 705,-131.75 697.99,-139.69 704.47,-142.33"/>
</g>
<!-- Node17&#45;&gt;Node4 -->
<g id="edge19" class="edge">
<title>Node17&#45;&gt;Node4</title>
<path fill="none" stroke="midnightblue" d="M701.63,-112.08C695.64,-104.38 686.82,-93.03 679.52,-83.65"/>
<polygon fill="midnightblue" stroke="midnightblue" points="682.28,-81.5 673.38,-75.75 676.75,-85.79 682.28,-81.5"/>
</g>
<!-- Node22&#45;&gt;Node4 -->
<g id="edge21" class="edge">
<title>Node22&#45;&gt;Node4</title>
<path fill="none" stroke="midnightblue" d="M85.09,-168.35C96.64,-153.77 122.28,-124.64 151.57,-112 228.92,-78.63 469.75,-70 592.72,-67.77"/>
<polygon fill="midnightblue" stroke="midnightblue" points="592.86,-71.27 602.8,-67.6 592.74,-64.27 592.86,-71.27"/>
</g>
<!-- Node26&#45;&gt;Node15 -->
<g id="edge26" class="edge">
<title>Node26&#45;&gt;Node15</title>
<path fill="none" stroke="midnightblue" d="M500.94,-187.52C478.85,-196.55 440.84,-210.88 412.18,-221.04"/>
<polygon fill="midnightblue" stroke="midnightblue" points="410.75,-217.83 402.48,-224.44 413.07,-224.44 410.75,-217.83"/>
</g>
<!-- Node28 -->
<g id="node24" class="node">
<title>Node28</title>
<g id="a_node24"><a xlink:href="../../d6/d88/GibbsExcessVPSSTP_8h.html" target="_top" xlink:title="Header for intermediate ThermoPhase object for phases which employ Gibbs excess free energy based for...">
<polygon fill="white" stroke="black" points="675.57,-392.5 675.57,-411.5 797.57,-411.5 797.57,-392.5 675.57,-392.5"/>
<text text-anchor="middle" x="736.57" y="-399.5" font-family="Helvetica,sans-Serif" font-size="10.00">GibbsExcessVPSSTP.h</text>
</a>
</g>
</g>
<!-- Node27&#45;&gt;Node28 -->
<g id="edge28" class="edge">
<title>Node27&#45;&gt;Node28</title>
<path fill="none" stroke="midnightblue" d="M737.33,-448.4C737.2,-440.47 737.03,-430.46 736.89,-421.86"/>
<polygon fill="midnightblue" stroke="midnightblue" points="740.38,-421.6 736.72,-411.66 733.38,-421.72 740.38,-421.6"/>
</g>
<!-- Node29 -->
<g id="node25" class="node">
<title>Node29</title>
<g id="a_node25"><a xlink:href="../../df/dfd/VPStandardStateTP_8h.html" target="_top" xlink:title="Header file for a derived class of ThermoPhase that handles variable pressure standard state methods ...">
<polygon fill="white" stroke="black" points="401.57,-336.5 401.57,-355.5 519.57,-355.5 519.57,-336.5 401.57,-336.5"/>
<text text-anchor="middle" x="460.57" y="-343.5" font-family="Helvetica,sans-Serif" font-size="10.00">VPStandardStateTP.h</text>
</a>
</g>
</g>
<!-- Node28&#45;&gt;Node29 -->
<g id="edge29" class="edge">
<title>Node28&#45;&gt;Node29</title>
<path fill="none" stroke="midnightblue" d="M692.84,-392.44C644.39,-382.96 566.24,-367.67 514.15,-357.48"/>
<polygon fill="midnightblue" stroke="midnightblue" points="514.58,-354 504.1,-355.52 513.24,-360.87 514.58,-354"/>
</g>
<!-- Node37 -->
<g id="node27" class="node">
<title>Node37</title>
<g id="a_node27"><a xlink:href="../../df/dd0/Array_8h.html" target="_top" xlink:title="Header file for class Cantera::Array2D.">
<polygon fill="white" stroke="black" points="678.57,-336.5 678.57,-355.5 794.57,-355.5 794.57,-336.5 678.57,-336.5"/>
<text text-anchor="middle" x="736.57" y="-343.5" font-family="Helvetica,sans-Serif" font-size="10.00">cantera/base/Array.h</text>
</a>
</g>
</g>
<!-- Node28&#45;&gt;Node37 -->
<g id="edge33" class="edge">
<title>Node28&#45;&gt;Node37</title>
<path fill="none" stroke="midnightblue" d="M736.57,-392.08C736.57,-385.01 736.57,-374.86 736.57,-365.99"/>
<polygon fill="midnightblue" stroke="midnightblue" points="740.07,-365.75 736.57,-355.75 733.07,-365.75 740.07,-365.75"/>
</g>
<!-- Node30 -->
<g id="node26" class="node">
<title>Node30</title>
<g id="a_node26"><a xlink:href="../../d7/d01/ThermoPhase_8h.html" target="_top" xlink:title="Header file for class ThermoPhase, the base class for phases with thermodynamic properties,...">
<polygon fill="white" stroke="red" points="373.57,-280.5 373.57,-299.5 465.57,-299.5 465.57,-280.5 373.57,-280.5"/>
<text text-anchor="middle" x="419.57" y="-287.5" font-family="Helvetica,sans-Serif" font-size="10.00">ThermoPhase.h</text>
</a>
</g>
</g>
<!-- Node29&#45;&gt;Node30 -->
<g id="edge30" class="edge">
<title>Node29&#45;&gt;Node30</title>
<path fill="none" stroke="midnightblue" d="M453.8,-336.08C448.01,-328.46 439.51,-317.26 432.43,-307.94"/>
<polygon fill="midnightblue" stroke="midnightblue" points="435.05,-305.6 426.21,-299.75 429.47,-309.83 435.05,-305.6"/>
</g>
<!-- Node30&#45;&gt;Node15 -->
<g id="edge32" class="edge">
<title>Node30&#45;&gt;Node15</title>
<path fill="none" stroke="midnightblue" d="M412.14,-280.08C405.72,-272.38 396.26,-261.03 388.45,-251.65"/>
<polygon fill="midnightblue" stroke="midnightblue" points="390.95,-249.19 381.86,-243.75 385.58,-253.67 390.95,-249.19"/>
</g>
<!-- Node30&#45;&gt;Node22 -->
<g id="edge31" class="edge">
<title>Node30&#45;&gt;Node22</title>
<path fill="none" stroke="midnightblue" d="M393.1,-280.46C332.54,-260.93 183.85,-212.96 114.85,-190.7"/>
<polygon fill="midnightblue" stroke="midnightblue" points="115.85,-187.35 105.26,-187.61 113.7,-194.01 115.85,-187.35"/>
</g>
<!-- Node37&#45;&gt;Node4 -->
<g id="edge34" class="edge">
<title>Node37&#45;&gt;Node4</title>
<path fill="none" stroke="midnightblue" d="M745.15,-336.43C753.27,-327.88 765.28,-314.02 772.57,-300 786.46,-273.3 791.57,-265.1 791.57,-235 791.57,-235 791.57,-235 791.57,-177 791.57,-146.77 791.78,-134.48 771.57,-112 757.22,-96.04 736.24,-85.53 716.8,-78.72"/>
<polygon fill="midnightblue" stroke="midnightblue" points="717.71,-75.33 707.12,-75.57 715.55,-81.99 717.71,-75.33"/>
</g>
<!-- Node38 -->
<g id="node28" class="node">
<title>Node38</title>
<g id="a_node28"><a xlink:title=" ">
<polygon fill="white" stroke="#bfbfbf" points="703.57,-280.5 703.57,-299.5 763.57,-299.5 763.57,-280.5 703.57,-280.5"/>
<text text-anchor="middle" x="733.57" y="-287.5" font-family="Helvetica,sans-Serif" font-size="10.00">iostream</text>
</a>
</g>
</g>
<!-- Node37&#45;&gt;Node38 -->
<g id="edge35" class="edge">
<title>Node37&#45;&gt;Node38</title>
<path fill="none" stroke="midnightblue" d="M736.07,-336.08C735.68,-329.01 735.12,-318.86 734.62,-309.99"/>
<polygon fill="midnightblue" stroke="midnightblue" points="738.11,-309.54 734.06,-299.75 731.12,-309.93 738.11,-309.54"/>
</g>
<!-- Node39&#45;&gt;Node4 -->
<g id="edge37" class="edge">
<title>Node39&#45;&gt;Node4</title>
<path fill="none" stroke="midnightblue" d="M960.88,-392.47C963.59,-374.01 969.57,-328.97 969.57,-291 969.57,-291 969.57,-291 969.57,-177 969.57,-126.89 821.27,-93.05 732.17,-77.25"/>
<polygon fill="midnightblue" stroke="midnightblue" points="732.6,-73.77 722.15,-75.5 731.4,-80.67 732.6,-73.77"/>
</g>
<!-- Node40&#45;&gt;Node4 -->
<g id="edge39" class="edge">
<title>Node40&#45;&gt;Node4</title>
<path fill="none" stroke="midnightblue" d="M872.66,-168.16C859.85,-154.34 833.18,-127.58 805.57,-112 777.93,-96.41 744.1,-85.3 716.73,-78.03"/>
<polygon fill="midnightblue" stroke="midnightblue" points="717.52,-74.62 706.97,-75.52 715.78,-81.4 717.52,-74.62"/>
</g>
<!-- Node40&#45;&gt;Node17 -->
<g id="edge40" class="edge">
<title>Node40&#45;&gt;Node17</title>
<path fill="none" stroke="midnightblue" d="M853.32,-168.44C824.13,-159.28 777.65,-144.69 745.26,-134.52"/>
<polygon fill="midnightblue" stroke="midnightblue" points="746.29,-131.17 735.7,-131.52 744.19,-137.85 746.29,-131.17"/>
</g>
</g>
</svg>
