<?xml version="1.0" encoding="UTF-8" standalone="no"?>
<!DOCTYPE svg PUBLIC "-//W3C//DTD SVG 1.1//EN"
 "http://www.w3.org/Graphics/SVG/1.1/DTD/svg11.dtd">
<!-- Generated by graphviz version 2.43.0 (0)
 -->
<!-- Title: DebyeHuckel.cpp Pages: 1 -->
<svg width="1176pt" height="544pt"
 viewBox="0.00 0.00 1176.00 544.00" xmlns="http://www.w3.org/2000/svg" xmlns:xlink="http://www.w3.org/1999/xlink">
<g id="graph0" class="graph" transform="scale(1 1) rotate(0) translate(4 540)">
<title>DebyeHuckel.cpp</title>
<!-- Node1 -->
<g id="Node000001" class="node">
<title>Node1</title>
<g id="a_Node000001"><a xlink:title="Declarations for the DebyeHuckel ThermoPhase object, which models dilute electrolyte solutions (see T...">
<polygon fill="#999999" stroke="#666666" points="804.5,-536 703.5,-536 703.5,-517 804.5,-517 804.5,-536"/>
<text text-anchor="middle" x="754" y="-524" font-family="Helvetica,sans-Serif" font-size="10.00">DebyeHuckel.cpp</text>
</a>
</g>
</g>
<!-- Node2 -->
<g id="Node000002" class="node">
<title>Node2</title>
<g id="a_Node000002"><a xlink:href="../../de/dd9/DebyeHuckel_8h.html" target="_top" xlink:title="Headers for the DebyeHuckel ThermoPhase object, which models dilute electrolyte solutions (see Thermo...">
<polygon fill="white" stroke="#666666" points="549,-481 381,-481 381,-462 549,-462 549,-481"/>
<text text-anchor="middle" x="465" y="-469" font-family="Helvetica,sans-Serif" font-size="10.00">cantera/thermo/DebyeHuckel.h</text>
</a>
</g>
</g>
<!-- Node1&#45;&gt;Node2 -->
<g id="edge1_Node000001_Node000002" class="edge">
<title>Node1&#45;&gt;Node2</title>
<g id="a_edge1_Node000001_Node000002"><a xlink:title=" ">
<path fill="none" stroke="#63b8ff" d="M707.57,-516.98C657.05,-507.72 576.26,-492.9 521.95,-482.94"/>
<polygon fill="#63b8ff" stroke="#63b8ff" points="522.26,-479.44 511.8,-481.08 521,-486.33 522.26,-479.44"/>
</a>
</g>
</g>
<!-- Node37 -->
<g id="Node000037" class="node">
<title>Node37</title>
<g id="a_Node000037"><a xlink:href="../../dc/d8e/ThermoFactory_8h.html" target="_top" xlink:title="Headers for the factory class that can create known ThermoPhase objects (see Thermodynamic Properties...">
<polygon fill="white" stroke="#666666" points="248.5,-354.5 73.5,-354.5 73.5,-335.5 248.5,-335.5 248.5,-354.5"/>
<text text-anchor="middle" x="161" y="-342.5" font-family="Helvetica,sans-Serif" font-size="10.00">cantera/thermo/ThermoFactory.h</text>
</a>
</g>
</g>
<!-- Node1&#45;&gt;Node37 -->
<g id="edge16_Node000001_Node000037" class="edge">
<title>Node1&#45;&gt;Node37</title>
<g id="a_edge16_Node000001_Node000037"><a xlink:title=" ">
<path fill="none" stroke="#63b8ff" d="M703.31,-525.55C628.96,-524.31 486.7,-516.89 372,-481 291.27,-455.74 211.4,-390.93 177.7,-361.25"/>
<polygon fill="#63b8ff" stroke="#63b8ff" points="179.94,-358.56 170.15,-354.51 175.27,-363.78 179.94,-358.56"/>
</a>
</g>
</g>
<!-- Node41 -->
<g id="Node000041" class="node">
<title>Node41</title>
<g id="a_Node000041"><a xlink:href="../../d7/dd9/Species_8h.html" target="_top" xlink:title="Declaration for class Cantera::Species.">
<polygon fill="white" stroke="#666666" points="646.5,-294 505.5,-294 505.5,-275 646.5,-275 646.5,-294"/>
<text text-anchor="middle" x="576" y="-282" font-family="Helvetica,sans-Serif" font-size="10.00">cantera/thermo/Species.h</text>
</a>
</g>
</g>
<!-- Node1&#45;&gt;Node41 -->
<g id="edge25_Node000001_Node000041" class="edge">
<title>Node1&#45;&gt;Node41</title>
<g id="a_edge25_Node000001_Node000041"><a xlink:title=" ">
<path fill="none" stroke="#63b8ff" d="M735.79,-516.93C706.77,-502.34 650.14,-469.95 619,-426 592.17,-388.13 581.76,-333.12 577.98,-304.47"/>
<polygon fill="#63b8ff" stroke="#63b8ff" points="581.42,-303.76 576.77,-294.24 574.47,-304.58 581.42,-303.76"/>
</a>
</g>
</g>
<!-- Node42 -->
<g id="Node000042" class="node">
<title>Node42</title>
<g id="a_Node000042"><a xlink:href="../../d8/d6d/PDSS__Water_8h.html" target="_top" xlink:title="Implementation of a pressure dependent standard state virtual function for a Pure Water Phase (see Sp...">
<polygon fill="white" stroke="#666666" points="836,-360 716,-360 716,-330 836,-330 836,-360"/>
<text text-anchor="start" x="724" y="-348" font-family="Helvetica,sans-Serif" font-size="10.00">cantera/thermo/PDSS</text>
<text text-anchor="middle" x="776" y="-337" font-family="Helvetica,sans-Serif" font-size="10.00">_Water.h</text>
</a>
</g>
</g>
<!-- Node1&#45;&gt;Node42 -->
<g id="edge28_Node000001_Node000042" class="edge">
<title>Node1&#45;&gt;Node42</title>
<g id="a_edge28_Node000001_Node000042"><a xlink:title=" ">
<path fill="none" stroke="#63b8ff" d="M755.06,-516.84C758.28,-490.54 768.05,-410.9 773.02,-370.33"/>
<polygon fill="#63b8ff" stroke="#63b8ff" points="776.51,-370.57 774.26,-360.22 769.57,-369.72 776.51,-370.57"/>
</a>
</g>
</g>
<!-- Node47 -->
<g id="Node000047" class="node">
<title>Node47</title>
<g id="a_Node000047"><a xlink:href="../../d1/d0f/PDSS__ConstVol_8h.html" target="_top" xlink:title="Declarations for the class PDSS_ConstVol (pressure dependent standard state) which handles calculatio...">
<polygon fill="white" stroke="#666666" points="748,-426 628,-426 628,-396 748,-396 748,-426"/>
<text text-anchor="start" x="636" y="-414" font-family="Helvetica,sans-Serif" font-size="10.00">cantera/thermo/PDSS</text>
<text text-anchor="middle" x="688" y="-403" font-family="Helvetica,sans-Serif" font-size="10.00">_ConstVol.h</text>
</a>
</g>
</g>
<!-- Node1&#45;&gt;Node47 -->
<g id="edge37_Node000001_Node000047" class="edge">
<title>Node1&#45;&gt;Node47</title>
<g id="a_edge37_Node000001_Node000047"><a xlink:title=" ">
<path fill="none" stroke="#63b8ff" d="M749.04,-516.97C739.04,-499.78 716.18,-460.47 701.45,-435.13"/>
<polygon fill="#63b8ff" stroke="#63b8ff" points="704.3,-433.07 696.25,-426.18 698.25,-436.59 704.3,-433.07"/>
</a>
</g>
</g>
<!-- Node48 -->
<g id="Node000048" class="node">
<title>Node48</title>
<g id="a_Node000048"><a xlink:href="../../de/d07/electrolytes_8h.html" target="_top" xlink:title="Header file for a common definitions used in electrolytes thermodynamics.">
<polygon fill="white" stroke="#666666" points="1103.5,-481 942.5,-481 942.5,-462 1103.5,-462 1103.5,-481"/>
<text text-anchor="middle" x="1023" y="-469" font-family="Helvetica,sans-Serif" font-size="10.00">cantera/thermo/electrolytes.h</text>
</a>
</g>
</g>
<!-- Node1&#45;&gt;Node48 -->
<g id="edge39_Node000001_Node000048" class="edge">
<title>Node1&#45;&gt;Node48</title>
<g id="a_edge39_Node000001_Node000048"><a xlink:title=" ">
<path fill="none" stroke="#63b8ff" d="M797.22,-516.98C844.04,-507.76 918.81,-493.03 969.36,-483.07"/>
<polygon fill="#63b8ff" stroke="#63b8ff" points="970.31,-486.45 979.44,-481.08 968.95,-479.58 970.31,-486.45"/>
</a>
</g>
</g>
<!-- Node49 -->
<g id="Node000049" class="node">
<title>Node49</title>
<g id="a_Node000049"><a xlink:href="../../dd/dc3/stringUtils_8h.html" target="_top" xlink:title="Contains declarations for string manipulation functions within Cantera.">
<polygon fill="white" stroke="#666666" points="984,-129 842,-129 842,-110 984,-110 984,-129"/>
<text text-anchor="middle" x="913" y="-117" font-family="Helvetica,sans-Serif" font-size="10.00">cantera/base/stringUtils.h</text>
</a>
</g>
</g>
<!-- Node1&#45;&gt;Node49 -->
<g id="edge40_Node000001_Node000049" class="edge">
<title>Node1&#45;&gt;Node49</title>
<g id="a_edge40_Node000001_Node000049"><a xlink:title=" ">
<path fill="none" stroke="#63b8ff" d="M790.31,-516.97C837.51,-503.46 914,-472.28 914,-412 914,-412 914,-412 914,-228.5 914,-197.19 913.57,-160.77 913.28,-139.23"/>
<polygon fill="#63b8ff" stroke="#63b8ff" points="916.78,-139.13 913.13,-129.18 909.78,-139.23 916.78,-139.13"/>
</a>
</g>
</g>
<!-- Node50 -->
<g id="Node000050" class="node">
<title>Node50</title>
<g id="a_Node000050"><a xlink:title=" ">
<polygon fill="#e0e0e0" stroke="#999999" points="1168,-481 1122,-481 1122,-462 1168,-462 1168,-481"/>
<text text-anchor="middle" x="1145" y="-469" font-family="Helvetica,sans-Serif" font-size="10.00">cstdio</text>
</a>
</g>
</g>
<!-- Node1&#45;&gt;Node50 -->
<g id="edge42_Node000001_Node000050" class="edge">
<title>Node1&#45;&gt;Node50</title>
<g id="a_edge42_Node000001_Node000050"><a xlink:title=" ">
<path fill="none" stroke="#63b8ff" d="M804.58,-521.42C872.42,-515.47 996.73,-502.87 1111.64,-481.02"/>
<polygon fill="#63b8ff" stroke="#63b8ff" points="1112.51,-484.42 1121.67,-479.09 1111.18,-477.55 1112.51,-484.42"/>
</a>
</g>
</g>
<!-- Node3 -->
<g id="Node000003" class="node">
<title>Node3</title>
<g id="a_Node000003"><a xlink:href="../../d1/d24/MolalityVPSSTP_8h.html" target="_top" xlink:title="Header for intermediate ThermoPhase object for phases which employ molality based activity coefficien...">
<polygon fill="white" stroke="#666666" points="379.5,-420.5 278.5,-420.5 278.5,-401.5 379.5,-401.5 379.5,-420.5"/>
<text text-anchor="middle" x="329" y="-408.5" font-family="Helvetica,sans-Serif" font-size="10.00">MolalityVPSSTP.h</text>
</a>
</g>
</g>
<!-- Node2&#45;&gt;Node3 -->
<g id="edge2_Node000002_Node000003" class="edge">
<title>Node2&#45;&gt;Node3</title>
<g id="a_edge2_Node000002_Node000003"><a xlink:title=" ">
<path fill="none" stroke="#63b8ff" d="M445.22,-461.99C422.36,-452.16 384.51,-435.88 358.24,-424.58"/>
<polygon fill="#63b8ff" stroke="#63b8ff" points="359.37,-421.25 348.8,-420.52 356.6,-427.68 359.37,-421.25"/>
</a>
</g>
</g>
<!-- Node35 -->
<g id="Node000035" class="node">
<title>Node35</title>
<g id="a_Node000035"><a xlink:href="../../df/dd0/Array_8h.html" target="_top" xlink:title="Header file for class Cantera::Array2D.">
<polygon fill="white" stroke="#666666" points="523,-420.5 407,-420.5 407,-401.5 523,-401.5 523,-420.5"/>
<text text-anchor="middle" x="465" y="-408.5" font-family="Helvetica,sans-Serif" font-size="10.00">cantera/base/Array.h</text>
</a>
</g>
</g>
<!-- Node2&#45;&gt;Node35 -->
<g id="edge13_Node000002_Node000035" class="edge">
<title>Node2&#45;&gt;Node35</title>
<g id="a_edge13_Node000002_Node000035"><a xlink:title=" ">
<path fill="none" stroke="#63b8ff" d="M465,-461.87C465,-453.75 465,-441.31 465,-430.89"/>
<polygon fill="#63b8ff" stroke="#63b8ff" points="468.5,-430.67 465,-420.67 461.5,-430.67 468.5,-430.67"/>
</a>
</g>
</g>
<!-- Node4 -->
<g id="Node000004" class="node">
<title>Node4</title>
<g id="a_Node000004"><a xlink:href="../../df/dfd/VPStandardStateTP_8h.html" target="_top" xlink:title="Header file for a derived class of ThermoPhase that handles variable pressure standard state methods ...">
<polygon fill="white" stroke="#666666" points="385,-354.5 267,-354.5 267,-335.5 385,-335.5 385,-354.5"/>
<text text-anchor="middle" x="326" y="-342.5" font-family="Helvetica,sans-Serif" font-size="10.00">VPStandardStateTP.h</text>
</a>
</g>
</g>
<!-- Node3&#45;&gt;Node4 -->
<g id="edge3_Node000003_Node000004" class="edge">
<title>Node3&#45;&gt;Node4</title>
<g id="a_edge3_Node000003_Node000004"><a xlink:title=" ">
<path fill="none" stroke="#63b8ff" d="M328.6,-401.37C328.16,-392.07 327.45,-376.98 326.89,-364.9"/>
<polygon fill="#63b8ff" stroke="#63b8ff" points="330.38,-364.73 326.42,-354.91 323.39,-365.06 330.38,-364.73"/>
</a>
</g>
</g>
<!-- Node5 -->
<g id="Node000005" class="node">
<title>Node5</title>
<g id="a_Node000005"><a xlink:href="../../d7/d01/ThermoPhase_8h.html" target="_top" xlink:title="Header file for class ThermoPhase, the base class for phases with thermodynamic properties,...">
<polygon fill="#fff0f0" stroke="red" points="372,-294 280,-294 280,-275 372,-275 372,-294"/>
<text text-anchor="middle" x="326" y="-282" font-family="Helvetica,sans-Serif" font-size="10.00">ThermoPhase.h</text>
</a>
</g>
</g>
<!-- Node4&#45;&gt;Node5 -->
<g id="edge4_Node000004_Node000005" class="edge">
<title>Node4&#45;&gt;Node5</title>
<g id="a_edge4_Node000004_Node000005"><a xlink:title=" ">
<path fill="none" stroke="#63b8ff" d="M326,-335.37C326,-327.25 326,-314.81 326,-304.39"/>
<polygon fill="#63b8ff" stroke="#63b8ff" points="329.5,-304.17 326,-294.17 322.5,-304.17 329.5,-304.17"/>
</a>
</g>
</g>
<!-- Node29 -->
<g id="Node000029" class="node">
<title>Node29</title>
<g id="a_Node000029"><a xlink:href="../../dd/d2a/AnyMap_8h.html" target="_top" xlink:title=" ">
<polygon fill="#fff0f0" stroke="red" points="472.5,-239 341.5,-239 341.5,-220 472.5,-220 472.5,-239"/>
<text text-anchor="middle" x="407" y="-227" font-family="Helvetica,sans-Serif" font-size="10.00">cantera/base/AnyMap.h</text>
</a>
</g>
</g>
<!-- Node5&#45;&gt;Node29 -->
<g id="edge5_Node000005_Node000029" class="edge">
<title>Node5&#45;&gt;Node29</title>
<g id="a_edge5_Node000005_Node000029"><a xlink:title=" ">
<path fill="none" stroke="#63b8ff" d="M339.01,-274.98C351.46,-266.84 370.46,-254.41 385.21,-244.76"/>
<polygon fill="#63b8ff" stroke="#63b8ff" points="387.3,-247.57 393.75,-239.17 383.46,-241.72 387.3,-247.57"/>
</a>
</g>
</g>
<!-- Node8 -->
<g id="Node000008" class="node">
<title>Node8</title>
<g id="a_Node000008"><a xlink:href="../../d9/ddc/ct__defs_8h.html" target="_top" xlink:title="This file contains definitions of constants, types and terms that are used in internal routines and a...">
<polygon fill="#fff0f0" stroke="red" points="587.5,-74 526.5,-74 526.5,-55 587.5,-55 587.5,-74"/>
<text text-anchor="middle" x="557" y="-62" font-family="Helvetica,sans-Serif" font-size="10.00">ct_defs.h</text>
</a>
</g>
</g>
<!-- Node29&#45;&gt;Node8 -->
<g id="edge6_Node000029_Node000008" class="edge">
<title>Node29&#45;&gt;Node8</title>
<g id="a_edge6_Node000029_Node000008"><a xlink:title=" ">
<path fill="none" stroke="#63b8ff" d="M427.09,-219.86C443.13,-212.21 465.43,-199.81 481,-184 507.69,-156.9 503.08,-141.77 524,-110 530.21,-100.56 537.68,-90.41 543.93,-82.19"/>
<polygon fill="#63b8ff" stroke="#63b8ff" points="546.79,-84.21 550.13,-74.16 541.25,-79.94 546.79,-84.21"/>
</a>
</g>
</g>
<!-- Node7 -->
<g id="Node000007" class="node">
<title>Node7</title>
<g id="a_Node000007"><a xlink:href="../../db/d98/ctexceptions_8h.html" target="_top" xlink:title="Definitions for the classes that are thrown when Cantera experiences an error condition (also contain...">
<polygon fill="#fff0f0" stroke="red" points="472,-184 318,-184 318,-165 472,-165 472,-184"/>
<text text-anchor="middle" x="395" y="-172" font-family="Helvetica,sans-Serif" font-size="10.00">cantera/base/ctexceptions.h</text>
</a>
</g>
</g>
<!-- Node29&#45;&gt;Node7 -->
<g id="edge8_Node000029_Node000007" class="edge">
<title>Node29&#45;&gt;Node7</title>
<g id="a_edge8_Node000029_Node000007"><a xlink:title=" ">
<path fill="none" stroke="#63b8ff" d="M405.02,-219.75C403.43,-212.72 401.14,-202.62 399.15,-193.84"/>
<polygon fill="#63b8ff" stroke="#63b8ff" points="402.57,-193.07 396.94,-184.09 395.74,-194.62 402.57,-193.07"/>
</a>
</g>
</g>
<!-- Node31 -->
<g id="Node000031" class="node">
<title>Node31</title>
<g id="a_Node000031"><a xlink:title=" ">
<polygon fill="#e0e0e0" stroke="#999999" points="299.5,-184 206.5,-184 206.5,-165 299.5,-165 299.5,-184"/>
<text text-anchor="middle" x="253" y="-172" font-family="Helvetica,sans-Serif" font-size="10.00">unordered_map</text>
</a>
</g>
</g>
<!-- Node29&#45;&gt;Node31 -->
<g id="edge12_Node000029_Node000031" class="edge">
<title>Node29&#45;&gt;Node31</title>
<g id="a_edge12_Node000029_Node000031"><a xlink:title=" ">
<path fill="none" stroke="#63b8ff" d="M382.26,-219.98C356.63,-211.16 316.37,-197.31 287.59,-187.41"/>
<polygon fill="#63b8ff" stroke="#63b8ff" points="288.53,-184.03 277.94,-184.08 286.25,-190.65 288.53,-184.03"/>
</a>
</g>
</g>
<!-- Node9 -->
<g id="Node000009" class="node">
<title>Node9</title>
<g id="a_Node000009"><a xlink:href="../../db/d16/config_8h_source.html" target="_top" xlink:title=" ">
<polygon fill="white" stroke="#666666" points="640.5,-19 585.5,-19 585.5,0 640.5,0 640.5,-19"/>
<text text-anchor="middle" x="613" y="-7" font-family="Helvetica,sans-Serif" font-size="10.00">config.h</text>
</a>
</g>
</g>
<!-- Node8&#45;&gt;Node9 -->
<g id="edge7_Node000008_Node000009" class="edge">
<title>Node8&#45;&gt;Node9</title>
<g id="a_edge7_Node000008_Node000009"><a xlink:title=" ">
<path fill="none" stroke="#63b8ff" d="M566,-54.98C574.19,-47.23 586.51,-35.58 596.47,-26.14"/>
<polygon fill="#63b8ff" stroke="#63b8ff" points="598.98,-28.59 603.84,-19.17 594.17,-23.5 598.98,-28.59"/>
</a>
</g>
</g>
<!-- Node7&#45;&gt;Node8 -->
<g id="edge9_Node000007_Node000008" class="edge">
<title>Node7&#45;&gt;Node8</title>
<g id="a_edge9_Node000007_Node000008"><a xlink:title=" ">
<path fill="none" stroke="#63b8ff" d="M406.94,-164.89C424.21,-152.49 457.24,-129.03 486,-110 501.92,-99.46 520.18,-88.03 534.2,-79.4"/>
<polygon fill="#63b8ff" stroke="#63b8ff" points="536.03,-82.38 542.72,-74.16 532.37,-76.41 536.03,-82.38"/>
</a>
</g>
</g>
<!-- Node19 -->
<g id="Node000019" class="node">
<title>Node19</title>
<g id="a_Node000019"><a xlink:href="../../db/def/fmt_8h.html" target="_top" xlink:title="Wrapper for either system&#45;installed or local headers for fmt.">
<polygon fill="#fff0f0" stroke="red" points="433.5,-129 324.5,-129 324.5,-110 433.5,-110 433.5,-129"/>
<text text-anchor="middle" x="379" y="-117" font-family="Helvetica,sans-Serif" font-size="10.00">cantera/base/fmt.h</text>
</a>
</g>
</g>
<!-- Node7&#45;&gt;Node19 -->
<g id="edge10_Node000007_Node000019" class="edge">
<title>Node7&#45;&gt;Node19</title>
<g id="a_edge10_Node000007_Node000019"><a xlink:title=" ">
<path fill="none" stroke="#63b8ff" d="M392.36,-164.75C390.24,-157.72 387.19,-147.62 384.54,-138.84"/>
<polygon fill="#63b8ff" stroke="#63b8ff" points="387.83,-137.65 381.59,-129.09 381.13,-139.67 387.83,-137.65"/>
</a>
</g>
</g>
<!-- Node19&#45;&gt;Node8 -->
<g id="edge11_Node000019_Node000008" class="edge">
<title>Node19&#45;&gt;Node8</title>
<g id="a_edge11_Node000019_Node000008"><a xlink:title=" ">
<path fill="none" stroke="#63b8ff" d="M407.6,-109.98C437.61,-101.05 484.98,-86.94 518.32,-77.02"/>
<polygon fill="#63b8ff" stroke="#63b8ff" points="519.59,-80.29 528.18,-74.08 517.59,-73.58 519.59,-80.29"/>
</a>
</g>
</g>
<!-- Node35&#45;&gt;Node8 -->
<g id="edge14_Node000035_Node000008" class="edge">
<title>Node35&#45;&gt;Node8</title>
<g id="a_edge14_Node000035_Node000008"><a xlink:title=" ">
<path fill="none" stroke="#63b8ff" d="M466.79,-401.43C471.3,-380.01 483.65,-322.48 496,-275 514.5,-203.9 539.98,-120.29 551.24,-83.93"/>
<polygon fill="#63b8ff" stroke="#63b8ff" points="554.63,-84.82 554.26,-74.23 547.95,-82.74 554.63,-84.82"/>
</a>
</g>
</g>
<!-- Node36 -->
<g id="Node000036" class="node">
<title>Node36</title>
<g id="a_Node000036"><a xlink:title=" ">
<polygon fill="#e0e0e0" stroke="#999999" points="463,-354.5 403,-354.5 403,-335.5 463,-335.5 463,-354.5"/>
<text text-anchor="middle" x="433" y="-342.5" font-family="Helvetica,sans-Serif" font-size="10.00">iostream</text>
</a>
</g>
</g>
<!-- Node35&#45;&gt;Node36 -->
<g id="edge15_Node000035_Node000036" class="edge">
<title>Node35&#45;&gt;Node36</title>
<g id="a_edge15_Node000035_Node000036"><a xlink:title=" ">
<path fill="none" stroke="#63b8ff" d="M460.68,-401.37C455.94,-391.88 448.18,-376.36 442.08,-364.16"/>
<polygon fill="#63b8ff" stroke="#63b8ff" points="445.06,-362.28 437.45,-354.91 438.79,-365.41 445.06,-362.28"/>
</a>
</g>
</g>
<!-- Node37&#45;&gt;Node5 -->
<g id="edge17_Node000037_Node000005" class="edge">
<title>Node37&#45;&gt;Node5</title>
<g id="a_edge17_Node000037_Node000005"><a xlink:title=" ">
<path fill="none" stroke="#63b8ff" d="M184.99,-335.49C213.22,-325.49 260.28,-308.8 292.19,-297.49"/>
<polygon fill="#63b8ff" stroke="#63b8ff" points="293.72,-300.66 301.98,-294.02 291.38,-294.06 293.72,-300.66"/>
</a>
</g>
</g>
<!-- Node38 -->
<g id="Node000038" class="node">
<title>Node38</title>
<g id="a_Node000038"><a xlink:href="../../d6/dd5/FactoryBase_8h.html" target="_top" xlink:title="File contains the FactoryBase class declarations.">
<polygon fill="white" stroke="#666666" points="239.5,-239 88.5,-239 88.5,-220 239.5,-220 239.5,-239"/>
<text text-anchor="middle" x="164" y="-227" font-family="Helvetica,sans-Serif" font-size="10.00">cantera/base/FactoryBase.h</text>
</a>
</g>
</g>
<!-- Node37&#45;&gt;Node38 -->
<g id="edge18_Node000037_Node000038" class="edge">
<title>Node37&#45;&gt;Node38</title>
<g id="a_edge18_Node000037_Node000038"><a xlink:title=" ">
<path fill="none" stroke="#63b8ff" d="M161.23,-335.47C161.71,-317.23 162.85,-274.07 163.51,-249.14"/>
<polygon fill="#63b8ff" stroke="#63b8ff" points="167.01,-249.22 163.77,-239.13 160.01,-249.03 167.01,-249.22"/>
</a>
</g>
</g>
<!-- Node38&#45;&gt;Node7 -->
<g id="edge21_Node000038_Node000007" class="edge">
<title>Node38&#45;&gt;Node7</title>
<g id="a_edge21_Node000038_Node000007"><a xlink:title=" ">
<path fill="none" stroke="#63b8ff" d="M201.11,-219.98C240.99,-210.84 304.46,-196.27 347.84,-186.32"/>
<polygon fill="#63b8ff" stroke="#63b8ff" points="348.63,-189.73 357.59,-184.08 347.07,-182.91 348.63,-189.73"/>
</a>
</g>
</g>
<!-- Node38&#45;&gt;Node31 -->
<g id="edge20_Node000038_Node000031" class="edge">
<title>Node38&#45;&gt;Node31</title>
<g id="a_edge20_Node000038_Node000031"><a xlink:title=" ">
<path fill="none" stroke="#63b8ff" d="M178.3,-219.98C192.1,-211.77 213.24,-199.18 229.51,-189.49"/>
<polygon fill="#63b8ff" stroke="#63b8ff" points="231.64,-192.29 238.44,-184.17 228.06,-186.28 231.64,-192.29"/>
</a>
</g>
</g>
<!-- Node39 -->
<g id="Node000039" class="node">
<title>Node39</title>
<g id="a_Node000039"><a xlink:title=" ">
<polygon fill="#e0e0e0" stroke="#999999" points="188,-184 140,-184 140,-165 188,-165 188,-184"/>
<text text-anchor="middle" x="164" y="-172" font-family="Helvetica,sans-Serif" font-size="10.00">mutex</text>
</a>
</g>
</g>
<!-- Node38&#45;&gt;Node39 -->
<g id="edge19_Node000038_Node000039" class="edge">
<title>Node38&#45;&gt;Node39</title>
<g id="a_edge19_Node000038_Node000039"><a xlink:title=" ">
<path fill="none" stroke="#63b8ff" d="M164,-219.75C164,-212.8 164,-202.85 164,-194.13"/>
<polygon fill="#63b8ff" stroke="#63b8ff" points="167.5,-194.09 164,-184.09 160.5,-194.09 167.5,-194.09"/>
</a>
</g>
</g>
<!-- Node40 -->
<g id="Node000040" class="node">
<title>Node40</title>
<g id="a_Node000040"><a xlink:href="../../d2/d49/global_8h.html" target="_top" xlink:title="This file contains definitions for utility functions and text for modules, inputfiles and logging,...">
<polygon fill="white" stroke="#666666" points="122,-184 0,-184 0,-165 122,-165 122,-184"/>
<text text-anchor="middle" x="61" y="-172" font-family="Helvetica,sans-Serif" font-size="10.00">cantera/base/global.h</text>
</a>
</g>
</g>
<!-- Node38&#45;&gt;Node40 -->
<g id="edge22_Node000038_Node000040" class="edge">
<title>Node38&#45;&gt;Node40</title>
<g id="a_edge22_Node000038_Node000040"><a xlink:title=" ">
<path fill="none" stroke="#63b8ff" d="M147.45,-219.98C131.11,-211.57 105.87,-198.59 86.87,-188.81"/>
<polygon fill="#63b8ff" stroke="#63b8ff" points="88.34,-185.63 77.85,-184.17 85.14,-191.86 88.34,-185.63"/>
</a>
</g>
</g>
<!-- Node40&#45;&gt;Node8 -->
<g id="edge23_Node000040_Node000008" class="edge">
<title>Node40&#45;&gt;Node8</title>
<g id="a_edge23_Node000040_Node000008"><a xlink:title=" ">
<path fill="none" stroke="#63b8ff" d="M92.53,-164.94C140.4,-152.09 234.37,-127.47 315,-110 385.4,-94.74 468.06,-80.28 516.28,-72.18"/>
<polygon fill="#63b8ff" stroke="#63b8ff" points="517.03,-75.6 526.32,-70.5 515.88,-68.7 517.03,-75.6"/>
</a>
</g>
</g>
<!-- Node40&#45;&gt;Node19 -->
<g id="edge24_Node000040_Node000019" class="edge">
<title>Node40&#45;&gt;Node19</title>
<g id="a_edge24_Node000040_Node000019"><a xlink:title=" ">
<path fill="none" stroke="#63b8ff" d="M112.09,-164.98C168.11,-155.65 257.95,-140.67 317.71,-130.71"/>
<polygon fill="#63b8ff" stroke="#63b8ff" points="318.48,-134.13 327.77,-129.04 317.33,-127.23 318.48,-134.13"/>
</a>
</g>
</g>
<!-- Node41&#45;&gt;Node29 -->
<g id="edge27_Node000041_Node000029" class="edge">
<title>Node41&#45;&gt;Node29</title>
<g id="a_edge27_Node000041_Node000029"><a xlink:title=" ">
<path fill="none" stroke="#63b8ff" d="M548.85,-274.98C520.47,-266.09 475.77,-252.07 444.14,-242.15"/>
<polygon fill="#63b8ff" stroke="#63b8ff" points="444.95,-238.73 434.37,-239.08 442.86,-245.41 444.95,-238.73"/>
</a>
</g>
</g>
<!-- Node41&#45;&gt;Node8 -->
<g id="edge26_Node000041_Node000008" class="edge">
<title>Node41&#45;&gt;Node8</title>
<g id="a_edge26_Node000041_Node000008"><a xlink:title=" ">
<path fill="none" stroke="#63b8ff" d="M575.26,-274.95C572.47,-242.95 562.59,-129.68 558.65,-84.4"/>
<polygon fill="#63b8ff" stroke="#63b8ff" points="562.12,-83.88 557.76,-74.22 555.14,-84.49 562.12,-83.88"/>
</a>
</g>
</g>
<!-- Node43 -->
<g id="Node000043" class="node">
<title>Node43</title>
<g id="a_Node000043"><a xlink:href="../../d7/dfa/PDSS_8h.html" target="_top" xlink:title="Declarations for the virtual base class PDSS (pressure dependent standard state) which handles calcul...">
<polygon fill="white" stroke="#666666" points="715.5,-294 664.5,-294 664.5,-275 715.5,-275 715.5,-294"/>
<text text-anchor="middle" x="690" y="-282" font-family="Helvetica,sans-Serif" font-size="10.00">PDSS.h</text>
</a>
</g>
</g>
<!-- Node42&#45;&gt;Node43 -->
<g id="edge29_Node000042_Node000043" class="edge">
<title>Node42&#45;&gt;Node43</title>
<g id="a_edge29_Node000042_Node000043"><a xlink:title=" ">
<path fill="none" stroke="#63b8ff" d="M755.18,-329.84C741.85,-320.77 724.61,-309.04 711.21,-299.92"/>
<polygon fill="#63b8ff" stroke="#63b8ff" points="712.87,-296.83 702.63,-294.09 708.93,-302.61 712.87,-296.83"/>
</a>
</g>
</g>
<!-- Node44 -->
<g id="Node000044" class="node">
<title>Node44</title>
<g id="a_Node000044"><a xlink:href="../../d2/d86/WaterPropsIAPWS_8h.html" target="_top" xlink:title="Headers for a class for calculating the equation of state of water from the IAPWS 1995 Formulation ba...">
<polygon fill="white" stroke="#666666" points="885.5,-294 772.5,-294 772.5,-275 885.5,-275 885.5,-294"/>
<text text-anchor="middle" x="829" y="-282" font-family="Helvetica,sans-Serif" font-size="10.00">WaterPropsIAPWS.h</text>
</a>
</g>
</g>
<!-- Node42&#45;&gt;Node44 -->
<g id="edge32_Node000042_Node000044" class="edge">
<title>Node42&#45;&gt;Node44</title>
<g id="a_edge32_Node000042_Node000044"><a xlink:title=" ">
<path fill="none" stroke="#63b8ff" d="M788.83,-329.84C796.52,-321.35 806.33,-310.52 814.33,-301.69"/>
<polygon fill="#63b8ff" stroke="#63b8ff" points="816.94,-304.03 821.06,-294.27 811.75,-299.33 816.94,-304.03"/>
</a>
</g>
</g>
<!-- Node46 -->
<g id="Node000046" class="node">
<title>Node46</title>
<g id="a_Node000046"><a xlink:href="../../db/d4b/WaterProps_8h.html" target="_top" xlink:title="Header for a class used to house several approximation routines for properties of water.">
<polygon fill="white" stroke="#666666" points="754.5,-129 673.5,-129 673.5,-110 754.5,-110 754.5,-129"/>
<text text-anchor="middle" x="714" y="-117" font-family="Helvetica,sans-Serif" font-size="10.00">WaterProps.h</text>
</a>
</g>
</g>
<!-- Node42&#45;&gt;Node46 -->
<g id="edge35_Node000042_Node000046" class="edge">
<title>Node42&#45;&gt;Node46</title>
<g id="a_edge35_Node000042_Node000046"><a xlink:title=" ">
<path fill="none" stroke="#63b8ff" d="M772.03,-329.68C761.21,-290.68 731.23,-182.61 719.15,-139.05"/>
<polygon fill="#63b8ff" stroke="#63b8ff" points="722.47,-137.93 716.42,-129.23 715.72,-139.8 722.47,-137.93"/>
</a>
</g>
</g>
<!-- Node43&#45;&gt;Node29 -->
<g id="edge31_Node000043_Node000029" class="edge">
<title>Node43&#45;&gt;Node29</title>
<g id="a_edge31_Node000043_Node000029"><a xlink:title=" ">
<path fill="none" stroke="#63b8ff" d="M664.43,-277.1C661.26,-276.36 658.06,-275.65 655,-275 592.33,-261.78 520.23,-249.13 469.98,-240.71"/>
<polygon fill="#63b8ff" stroke="#63b8ff" points="470.35,-237.23 459.91,-239.04 469.2,-244.13 470.35,-237.23"/>
</a>
</g>
</g>
<!-- Node43&#45;&gt;Node8 -->
<g id="edge30_Node000043_Node000008" class="edge">
<title>Node43&#45;&gt;Node8</title>
<g id="a_edge30_Node000043_Node000008"><a xlink:title=" ">
<path fill="none" stroke="#63b8ff" d="M684.79,-274.95C665.05,-242.61 594.68,-127.26 567.67,-82.98"/>
<polygon fill="#63b8ff" stroke="#63b8ff" points="570.52,-80.94 562.32,-74.22 564.54,-84.58 570.52,-80.94"/>
</a>
</g>
</g>
<!-- Node45 -->
<g id="Node000045" class="node">
<title>Node45</title>
<g id="a_Node000045"><a xlink:href="../../da/d59/WaterPropsIAPWSphi_8h.html" target="_top" xlink:title="Header for Lowest level of the classes which support a real water model (see class WaterPropsIAPWS an...">
<polygon fill="white" stroke="#666666" points="798,-74 670,-74 670,-55 798,-55 798,-74"/>
<text text-anchor="middle" x="734" y="-62" font-family="Helvetica,sans-Serif" font-size="10.00">WaterPropsIAPWSphi.h</text>
</a>
</g>
</g>
<!-- Node44&#45;&gt;Node45 -->
<g id="edge33_Node000044_Node000045" class="edge">
<title>Node44&#45;&gt;Node45</title>
<g id="a_edge33_Node000044_Node000045"><a xlink:title=" ">
<path fill="none" stroke="#63b8ff" d="M826.46,-274.92C818.67,-249.17 793.83,-170.61 763,-110 758.14,-100.45 751.71,-90.39 746.15,-82.26"/>
<polygon fill="#63b8ff" stroke="#63b8ff" points="748.97,-80.2 740.35,-74.03 743.25,-84.22 748.97,-80.2"/>
</a>
</g>
</g>
<!-- Node45&#45;&gt;Node9 -->
<g id="edge34_Node000045_Node000009" class="edge">
<title>Node45&#45;&gt;Node9</title>
<g id="a_edge34_Node000045_Node000009"><a xlink:title=" ">
<path fill="none" stroke="#63b8ff" d="M714.56,-54.98C695.01,-46.42 664.62,-33.11 642.18,-23.28"/>
<polygon fill="#63b8ff" stroke="#63b8ff" points="643.36,-19.98 632.79,-19.17 640.55,-26.39 643.36,-19.98"/>
</a>
</g>
</g>
<!-- Node46&#45;&gt;Node8 -->
<g id="edge36_Node000046_Node000008" class="edge">
<title>Node46&#45;&gt;Node8</title>
<g id="a_edge36_Node000046_Node000008"><a xlink:title=" ">
<path fill="none" stroke="#63b8ff" d="M688.78,-109.98C662.64,-101.16 621.6,-87.31 592.27,-77.41"/>
<polygon fill="#63b8ff" stroke="#63b8ff" points="593.02,-73.96 582.42,-74.08 590.78,-80.6 593.02,-73.96"/>
</a>
</g>
</g>
<!-- Node47&#45;&gt;Node43 -->
<g id="edge38_Node000047_Node000043" class="edge">
<title>Node47&#45;&gt;Node43</title>
<g id="a_edge38_Node000047_Node000043"><a xlink:title=" ">
<path fill="none" stroke="#63b8ff" d="M688.23,-395.72C688.59,-373.12 689.3,-329.12 689.7,-304.09"/>
<polygon fill="#63b8ff" stroke="#63b8ff" points="693.2,-304.12 689.86,-294.07 686.2,-304.01 693.2,-304.12"/>
</a>
</g>
</g>
<!-- Node49&#45;&gt;Node8 -->
<g id="edge41_Node000049_Node000008" class="edge">
<title>Node49&#45;&gt;Node8</title>
<g id="a_edge41_Node000049_Node000008"><a xlink:title=" ">
<path fill="none" stroke="#63b8ff" d="M855.8,-109.98C783.56,-99.23 661.06,-80.99 597.69,-71.56"/>
<polygon fill="#63b8ff" stroke="#63b8ff" points="598.08,-68.08 587.67,-70.07 597.05,-75 598.08,-68.08"/>
</a>
</g>
</g>
</g>
</svg>
