<?xml version="1.0" encoding="UTF-8" standalone="no"?>
<!DOCTYPE svg PUBLIC "-//W3C//DTD SVG 1.1//EN"
 "http://www.w3.org/Graphics/SVG/1.1/DTD/svg11.dtd">
<!-- Generated by graphviz version 6.0.1 (0)
 -->
<!-- Title: Integrators.cpp Pages: 1 -->
<!--zoomable 423 -->

<svg id="main" version="1.1" xmlns="http://www.w3.org/2000/svg" xmlns:xlink="http://www.w3.org/1999/xlink" xml:space="preserve" onload="init(evt)">
<style type="text/css"><![CDATA[
.node, .edge {opacity: 0.7;}
.node.selected, .edge.selected {opacity: 1;}
.edge:hover path { stroke: red; }
.edge:hover polygon { stroke: red; fill: red; }
]]></style>

<defs>
  <circle id="rim" cx="0" cy="0" r="7"/>
  <circle id="rim2" cx="0" cy="0" r="3.5"/>
  <g id="zoomPlus">
    <use xlink:href="#rim" fill="#404040"><set attributeName="fill" to="#808080" begin="zoomplus.mouseover" end="zoomplus.mouseout"/></use>
    <path d="M-4,0h8M0,-4v8" fill="none" stroke="white" stroke-width="1.5" pointer-events="none"/>
  </g>
  <g id="zoomMin">
    <use xlink:href="#rim" fill="#404040"><set attributeName="fill" to="#808080" begin="zoomminus.mouseover" end="zoomminus.mouseout"/></use>
    <path d="M-4,0h8" fill="none" stroke="white" stroke-width="1.5" pointer-events="none"/>
  </g>
  <g id="arrowUp" transform="translate(30 24)">
    <use xlink:href="#rim"/>
    <path pointer-events="none" fill="none" stroke="white" stroke-width="1.5" d="M0,-3.0v7 M-2.5,-0.5L0,-3.0L2.5,-0.5"/>
  </g>
  <g id="arrowRight" transform="rotate(90) translate(36 -43)">
    <use xlink:href="#rim"/>
    <path pointer-events="none" fill="none" stroke="white" stroke-width="1.5" d="M0,-3.0v7 M-2.5,-0.5L0,-3.0L2.5,-0.5"/>
  </g>
  <g id="arrowDown" transform="rotate(180) translate(-30 -48)">
    <use xlink:href="#rim"/>
    <path pointer-events="none" fill="none" stroke="white" stroke-width="1.5" d="M0,-3.0v7 M-2.5,-0.5L0,-3.0L2.5,-0.5"/>
  </g>
  <g id="arrowLeft" transform="rotate(270) translate(-36 17)">
    <use xlink:href="#rim"/>
    <path pointer-events="none" fill="none" stroke="white" stroke-width="1.5" d="M0,-3.0v7 M-2.5,-0.5L0,-3.0L2.5,-0.5"/>
  </g>
  <g id="resetDef">
    <use xlink:href="#rim2" fill="#404040"><set attributeName="fill" to="#808080" begin="reset.mouseover" end="reset.mouseout"/></use>
  </g>
</defs>
<script type="application/ecmascript">
var viewWidth = 1178;
var viewHeight = 423;
var sectionId = 'dynsection-0';
</script>
<script type="application/ecmascript" xlink:href="../../svg.min.js"/>
<svg id="graph" class="graph">
<g id="viewport">
<title>Integrators.cpp</title>
<!-- Node1 -->
<g id="Node000001" class="node">
<title>Node1</title>
<g id="a_Node000001"><a xlink:title=" ">
<polygon fill="#999999" stroke="#666666" points="956.5,-415 874.5,-415 874.5,-396 956.5,-396 956.5,-415"/>
<text text-anchor="middle" x="915.5" y="-403" font-family="Helvetica,sans-Serif" font-size="10.00">Integrators.cpp</text>
</a>
</g>
</g>
<!-- Node2 -->
<g id="Node000002" class="node">
<title>Node2</title>
<g id="a_Node000002"><a xlink:href="../../d9/ddc/ct__defs_8h.html" target="_top" xlink:title="This file contains definitions of constants, types and terms that are used in internal routines and a...">
<polygon fill="white" stroke="#666666" points="704.5,-74 588.5,-74 588.5,-55 704.5,-55 704.5,-74"/>
<text text-anchor="middle" x="646.5" y="-62" font-family="Helvetica,sans-Serif" font-size="10.00">cantera/base/ct_defs.h</text>
</a>
</g>
</g>
<!-- Node1&#45;&gt;Node2 -->
<g id="edge1_Node000001_Node000002" class="edge">
<title>Node1&#45;&gt;Node2</title>
<g id="a_edge1_Node000001_Node000002"><a xlink:title=" ">
<path fill="none" stroke="#63b8ff" d="M956.59,-404.09C1028.48,-400.98 1169.5,-383.13 1169.5,-291 1169.5,-291 1169.5,-291 1169.5,-173.5 1169.5,-81.75 856.88,-67.31 715.04,-65.49"/>
<polygon fill="#63b8ff" stroke="#63b8ff" points="714.76,-61.98 704.72,-65.37 714.68,-68.98 714.76,-61.98"/>
</a>
</g>
</g>
<!-- Node13 -->
<g id="Node000013" class="node">
<title>Node13</title>
<g id="a_Node000013"><a xlink:href="../../d8/d97/Integrator_8h.html" target="_top" xlink:title=" ">
<polygon fill="white" stroke="#666666" points="759,-299.5 616,-299.5 616,-280.5 759,-280.5 759,-299.5"/>
<text text-anchor="middle" x="687.5" y="-287.5" font-family="Helvetica,sans-Serif" font-size="10.00">cantera/numerics/Integrator.h</text>
</a>
</g>
</g>
<!-- Node1&#45;&gt;Node13 -->
<g id="edge12_Node000001_Node000013" class="edge">
<title>Node1&#45;&gt;Node13</title>
<g id="a_edge12_Node000001_Node000013"><a xlink:title=" ">
<path fill="none" stroke="#63b8ff" d="M874.21,-403.23C834.32,-400.12 773.89,-390.28 731.5,-360 713.67,-347.27 701.35,-324.83 694.38,-309.01"/>
<polygon fill="#63b8ff" stroke="#63b8ff" points="697.6,-307.65 690.56,-299.73 691.13,-310.31 697.6,-307.65"/>
</a>
</g>
</g>
<!-- Node29 -->
<g id="Node000029" class="node">
<title>Node29</title>
<g id="a_Node000029"><a xlink:href="../../d7/dd9/CVodesIntegrator_8h.html" target="_top" xlink:title=" ">
<polygon fill="white" stroke="#666666" points="1100,-360 921,-360 921,-341 1100,-341 1100,-360"/>
<text text-anchor="middle" x="1010.5" y="-348" font-family="Helvetica,sans-Serif" font-size="10.00">cantera/numerics/CVodesIntegrator.h</text>
</a>
</g>
</g>
<!-- Node1&#45;&gt;Node29 -->
<g id="edge36_Node000001_Node000029" class="edge">
<title>Node1&#45;&gt;Node29</title>
<g id="a_edge36_Node000001_Node000029"><a xlink:title=" ">
<path fill="none" stroke="#63b8ff" d="M930.76,-395.98C945.63,-387.69 968.48,-374.94 985.92,-365.22"/>
<polygon fill="#63b8ff" stroke="#63b8ff" points="987.93,-368.1 994.96,-360.17 984.52,-361.99 987.93,-368.1"/>
</a>
</g>
</g>
<!-- Node32 -->
<g id="Node000032" class="node">
<title>Node32</title>
<g id="a_Node000032"><a xlink:href="../../d0/dbd/IdasIntegrator_8h.html" target="_top" xlink:title="Header file for class IdasIntegrator.">
<polygon fill="white" stroke="#666666" points="902.5,-360 740.5,-360 740.5,-341 902.5,-341 902.5,-360"/>
<text text-anchor="middle" x="821.5" y="-348" font-family="Helvetica,sans-Serif" font-size="10.00">cantera/numerics/IdasIntegrator.h</text>
</a>
</g>
</g>
<!-- Node1&#45;&gt;Node32 -->
<g id="edge42_Node000001_Node000032" class="edge">
<title>Node1&#45;&gt;Node32</title>
<g id="a_edge42_Node000001_Node000032"><a xlink:title=" ">
<path fill="none" stroke="#63b8ff" d="M900.4,-395.98C885.68,-387.69 863.08,-374.94 845.83,-365.22"/>
<polygon fill="#63b8ff" stroke="#63b8ff" points="847.31,-362.03 836.88,-360.17 843.87,-368.13 847.31,-362.03"/>
</a>
</g>
</g>
<!-- Node3 -->
<g id="Node000003" class="node">
<title>Node3</title>
<g id="a_Node000003"><a xlink:href="../../db/d16/config_8h_source.html" target="_top" xlink:title=" ">
<polygon fill="white" stroke="#666666" points="397,-19 346,-19 346,0 397,0 397,-19"/>
<text text-anchor="middle" x="371.5" y="-7" font-family="Helvetica,sans-Serif" font-size="10.00">config.h</text>
</a>
</g>
</g>
<!-- Node2&#45;&gt;Node3 -->
<g id="edge2_Node000002_Node000003" class="edge">
<title>Node2&#45;&gt;Node3</title>
<g id="a_edge2_Node000002_Node000003"><a xlink:title=" ">
<path fill="none" stroke="#63b8ff" d="M595.77,-54.93C549.27,-46.88 478.29,-34.13 407.12,-19.03"/>
<polygon fill="#63b8ff" stroke="#63b8ff" points="407.59,-15.55 397.08,-16.88 406.12,-22.4 407.59,-15.55"/>
</a>
</g>
</g>
<!-- Node4 -->
<g id="Node000004" class="node">
<title>Node4</title>
<g id="a_Node000004"><a xlink:title=" ">
<polygon fill="#e0e0e0" stroke="#999999" points="459.5,-19 415.5,-19 415.5,0 459.5,0 459.5,-19"/>
<text text-anchor="middle" x="437.5" y="-7" font-family="Helvetica,sans-Serif" font-size="10.00">cmath</text>
</a>
</g>
</g>
<!-- Node2&#45;&gt;Node4 -->
<g id="edge3_Node000002_Node000004" class="edge">
<title>Node2&#45;&gt;Node4</title>
<g id="a_edge3_Node000002_Node000004"><a xlink:title=" ">
<path fill="none" stroke="#63b8ff" d="M611.32,-54.95C577.4,-46.66 524.39,-33.55 469.7,-19.27"/>
<polygon fill="#63b8ff" stroke="#63b8ff" points="470.4,-15.84 459.83,-16.69 468.62,-22.61 470.4,-15.84"/>
</a>
</g>
</g>
<!-- Node5 -->
<g id="Node000005" class="node">
<title>Node5</title>
<g id="a_Node000005"><a xlink:title=" ">
<polygon fill="#e0e0e0" stroke="#999999" points="523,-19 478,-19 478,0 523,0 523,-19"/>
<text text-anchor="middle" x="500.5" y="-7" font-family="Helvetica,sans-Serif" font-size="10.00">cstdlib</text>
</a>
</g>
</g>
<!-- Node2&#45;&gt;Node5 -->
<g id="edge4_Node000002_Node000005" class="edge">
<title>Node2&#45;&gt;Node5</title>
<g id="a_edge4_Node000002_Node000005"><a xlink:title=" ">
<path fill="none" stroke="#63b8ff" d="M623.04,-54.98C598.63,-46.12 560.23,-32.18 532.93,-22.27"/>
<polygon fill="#63b8ff" stroke="#63b8ff" points="534.01,-18.94 523.42,-18.82 531.62,-25.52 534.01,-18.94"/>
</a>
</g>
</g>
<!-- Node6 -->
<g id="Node000006" class="node">
<title>Node6</title>
<g id="a_Node000006"><a xlink:title=" ">
<polygon fill="#e0e0e0" stroke="#999999" points="585.5,-19 541.5,-19 541.5,0 585.5,0 585.5,-19"/>
<text text-anchor="middle" x="563.5" y="-7" font-family="Helvetica,sans-Serif" font-size="10.00">vector</text>
</a>
</g>
</g>
<!-- Node2&#45;&gt;Node6 -->
<g id="edge5_Node000002_Node000006" class="edge">
<title>Node2&#45;&gt;Node6</title>
<g id="a_edge5_Node000002_Node000006"><a xlink:title=" ">
<path fill="none" stroke="#63b8ff" d="M633.16,-54.98C620.41,-46.84 600.95,-34.41 585.83,-24.76"/>
<polygon fill="#63b8ff" stroke="#63b8ff" points="587.39,-21.6 577.08,-19.17 583.62,-27.5 587.39,-21.6"/>
</a>
</g>
</g>
<!-- Node7 -->
<g id="Node000007" class="node">
<title>Node7</title>
<g id="a_Node000007"><a xlink:title=" ">
<polygon fill="#e0e0e0" stroke="#999999" points="639,-19 604,-19 604,0 639,0 639,-19"/>
<text text-anchor="middle" x="621.5" y="-7" font-family="Helvetica,sans-Serif" font-size="10.00">map</text>
</a>
</g>
</g>
<!-- Node2&#45;&gt;Node7 -->
<g id="edge6_Node000002_Node000007" class="edge">
<title>Node2&#45;&gt;Node7</title>
<g id="a_edge6_Node000002_Node000007"><a xlink:title=" ">
<path fill="none" stroke="#63b8ff" d="M642.37,-54.75C638.99,-47.57 634.08,-37.18 629.88,-28.27"/>
<polygon fill="#63b8ff" stroke="#63b8ff" points="632.98,-26.64 625.55,-19.09 626.65,-29.63 632.98,-26.64"/>
</a>
</g>
</g>
<!-- Node8 -->
<g id="Node000008" class="node">
<title>Node8</title>
<g id="a_Node000008"><a xlink:title=" ">
<polygon fill="#e0e0e0" stroke="#999999" points="687.5,-19 657.5,-19 657.5,0 687.5,0 687.5,-19"/>
<text text-anchor="middle" x="672.5" y="-7" font-family="Helvetica,sans-Serif" font-size="10.00">set</text>
</a>
</g>
</g>
<!-- Node2&#45;&gt;Node8 -->
<g id="edge7_Node000002_Node000008" class="edge">
<title>Node2&#45;&gt;Node8</title>
<g id="a_edge7_Node000002_Node000008"><a xlink:title=" ">
<path fill="none" stroke="#63b8ff" d="M650.79,-54.75C654.31,-47.57 659.41,-37.18 663.78,-28.27"/>
<polygon fill="#63b8ff" stroke="#63b8ff" points="667.02,-29.61 668.29,-19.09 660.74,-26.53 667.02,-29.61"/>
</a>
</g>
</g>
<!-- Node9 -->
<g id="Node000009" class="node">
<title>Node9</title>
<g id="a_Node000009"><a xlink:title=" ">
<polygon fill="#e0e0e0" stroke="#999999" points="747,-19 706,-19 706,0 747,0 747,-19"/>
<text text-anchor="middle" x="726.5" y="-7" font-family="Helvetica,sans-Serif" font-size="10.00">string</text>
</a>
</g>
</g>
<!-- Node2&#45;&gt;Node9 -->
<g id="edge8_Node000002_Node000009" class="edge">
<title>Node2&#45;&gt;Node9</title>
<g id="a_edge8_Node000002_Node000009"><a xlink:title=" ">
<path fill="none" stroke="#63b8ff" d="M659.35,-54.98C671.64,-46.84 690.41,-34.41 704.98,-24.76"/>
<polygon fill="#63b8ff" stroke="#63b8ff" points="707.01,-27.61 713.41,-19.17 703.14,-21.78 707.01,-27.61"/>
</a>
</g>
</g>
<!-- Node10 -->
<g id="Node000010" class="node">
<title>Node10</title>
<g id="a_Node000010"><a xlink:title=" ">
<polygon fill="#e0e0e0" stroke="#999999" points="821.5,-19 765.5,-19 765.5,0 821.5,0 821.5,-19"/>
<text text-anchor="middle" x="793.5" y="-7" font-family="Helvetica,sans-Serif" font-size="10.00">algorithm</text>
</a>
</g>
</g>
<!-- Node2&#45;&gt;Node10 -->
<g id="edge9_Node000002_Node000010" class="edge">
<title>Node2&#45;&gt;Node10</title>
<g id="a_edge9_Node000002_Node000010"><a xlink:title=" ">
<path fill="none" stroke="#63b8ff" d="M670.12,-54.98C694.4,-46.23 732.45,-32.51 759.87,-22.62"/>
<polygon fill="#63b8ff" stroke="#63b8ff" points="761.23,-25.85 769.45,-19.17 758.86,-19.27 761.23,-25.85"/>
</a>
</g>
</g>
<!-- Node11 -->
<g id="Node000011" class="node">
<title>Node11</title>
<g id="a_Node000011"><a xlink:title=" ">
<polygon fill="#e0e0e0" stroke="#999999" points="891.5,-19 839.5,-19 839.5,0 891.5,0 891.5,-19"/>
<text text-anchor="middle" x="865.5" y="-7" font-family="Helvetica,sans-Serif" font-size="10.00">memory</text>
</a>
</g>
</g>
<!-- Node2&#45;&gt;Node11 -->
<g id="edge10_Node000002_Node000011" class="edge">
<title>Node2&#45;&gt;Node11</title>
<g id="a_edge10_Node000002_Node000011"><a xlink:title=" ">
<path fill="none" stroke="#63b8ff" d="M681.78,-54.98C716.79,-46.52 772.27,-33.11 829.23,-19.31"/>
<polygon fill="#63b8ff" stroke="#63b8ff" points="830.23,-22.66 839.13,-16.91 828.58,-15.86 830.23,-22.66"/>
</a>
</g>
</g>
<!-- Node12 -->
<g id="Node000012" class="node">
<title>Node12</title>
<g id="a_Node000012"><a xlink:title=" ">
<polygon fill="#e0e0e0" stroke="#999999" points="969,-19 910,-19 910,0 969,0 969,-19"/>
<text text-anchor="middle" x="939.5" y="-7" font-family="Helvetica,sans-Serif" font-size="10.00">functional</text>
</a>
</g>
</g>
<!-- Node2&#45;&gt;Node12 -->
<g id="edge11_Node000002_Node000012" class="edge">
<title>Node2&#45;&gt;Node12</title>
<g id="a_edge11_Node000002_Node000012"><a xlink:title=" ">
<path fill="none" stroke="#63b8ff" d="M699.15,-54.92C748.4,-46.76 824.23,-33.81 899.57,-19.11"/>
<polygon fill="#63b8ff" stroke="#63b8ff" points="900.58,-22.48 909.72,-17.12 899.23,-15.61 900.58,-22.48"/>
</a>
</g>
</g>
<!-- Node14 -->
<g id="Node000014" class="node">
<title>Node14</title>
<g id="a_Node000014"><a xlink:href="../../da/d37/FuncEval_8h.html" target="_top" xlink:title=" ">
<polygon fill="white" stroke="#666666" points="635.5,-239 569.5,-239 569.5,-220 635.5,-220 635.5,-239"/>
<text text-anchor="middle" x="602.5" y="-227" font-family="Helvetica,sans-Serif" font-size="10.00">FuncEval.h</text>
</a>
</g>
</g>
<!-- Node13&#45;&gt;Node14 -->
<g id="edge13_Node000013_Node000014" class="edge">
<title>Node13&#45;&gt;Node14</title>
<g id="a_edge13_Node000013_Node000014"><a xlink:title=" ">
<path fill="none" stroke="#63b8ff" d="M674.96,-280.37C661.4,-271.04 639.56,-256.01 623.4,-244.88"/>
<polygon fill="#63b8ff" stroke="#63b8ff" points="625.32,-241.95 615.09,-239.17 621.35,-247.72 625.32,-241.95"/>
</a>
</g>
</g>
<!-- Node21 -->
<g id="Node000021" class="node">
<title>Node21</title>
<g id="a_Node000021"><a xlink:href="../../d2/d49/global_8h.html" target="_top" xlink:title="This file contains definitions for utility functions and text for modules, inputfiles and logging,...">
<polygon fill="white" stroke="#666666" points="657.5,-184 547.5,-184 547.5,-165 657.5,-165 657.5,-184"/>
<text text-anchor="middle" x="602.5" y="-172" font-family="Helvetica,sans-Serif" font-size="10.00">cantera/base/global.h</text>
</a>
</g>
</g>
<!-- Node13&#45;&gt;Node21 -->
<g id="edge25_Node000013_Node000021" class="edge">
<title>Node13&#45;&gt;Node21</title>
<g id="a_edge25_Node000013_Node000021"><a xlink:title=" ">
<path fill="none" stroke="#63b8ff" d="M627.33,-280.43C602.32,-273.58 575.64,-261.23 560.5,-239 549.33,-222.59 565.72,-203.58 581.18,-190.67"/>
<polygon fill="#63b8ff" stroke="#63b8ff" points="583.76,-193.09 589.49,-184.18 579.45,-187.57 583.76,-193.09"/>
</a>
</g>
</g>
<!-- Node22 -->
<g id="Node000022" class="node">
<title>Node22</title>
<g id="a_Node000022"><a xlink:href="../../d7/ddf/PreconditionerBase_8h.html" target="_top" xlink:title="Declarations for the class PreconditionerBase which is a virtual base class for preconditioning syste...">
<polygon fill="white" stroke="#666666" points="763.5,-239 653.5,-239 653.5,-220 763.5,-220 763.5,-239"/>
<text text-anchor="middle" x="708.5" y="-227" font-family="Helvetica,sans-Serif" font-size="10.00">PreconditionerBase.h</text>
</a>
</g>
</g>
<!-- Node13&#45;&gt;Node22 -->
<g id="edge23_Node000013_Node000022" class="edge">
<title>Node13&#45;&gt;Node22</title>
<g id="a_edge23_Node000013_Node000022"><a xlink:title=" ">
<path fill="none" stroke="#63b8ff" d="M690.6,-280.37C693.58,-272.07 698.17,-259.28 701.96,-248.72"/>
<polygon fill="#63b8ff" stroke="#63b8ff" points="705.3,-249.76 705.39,-239.17 698.72,-247.4 705.3,-249.76"/>
</a>
</g>
</g>
<!-- Node23 -->
<g id="Node000023" class="node">
<title>Node23</title>
<g id="a_Node000023"><a xlink:href="../../dd/d2a/AnyMap_8h.html" target="_top" xlink:title=" ">
<polygon fill="white" stroke="#666666" points="421.5,-239 301.5,-239 301.5,-220 421.5,-220 421.5,-239"/>
<text text-anchor="middle" x="361.5" y="-227" font-family="Helvetica,sans-Serif" font-size="10.00">cantera/base/AnyMap.h</text>
</a>
</g>
</g>
<!-- Node13&#45;&gt;Node23 -->
<g id="edge26_Node000013_Node000023" class="edge">
<title>Node13&#45;&gt;Node23</title>
<g id="a_edge26_Node000013_Node000023"><a xlink:title=" ">
<path fill="none" stroke="#63b8ff" d="M640.1,-280.49C581.55,-269.99 482.01,-252.12 419.11,-240.84"/>
<polygon fill="#63b8ff" stroke="#63b8ff" points="419.42,-237.34 408.96,-239.02 418.18,-244.23 419.42,-237.34"/>
</a>
</g>
</g>
<!-- Node14&#45;&gt;Node2 -->
<g id="edge14_Node000014_Node000002" class="edge">
<title>Node14&#45;&gt;Node2</title>
<g id="a_edge14_Node000014_Node000002"><a xlink:title=" ">
<path fill="none" stroke="#63b8ff" d="M624.29,-219.87C639.14,-212.69 657.66,-200.91 666.5,-184 683.58,-151.32 667.54,-107.28 655.97,-83.14"/>
<polygon fill="#63b8ff" stroke="#63b8ff" points="659.04,-81.45 651.4,-74.11 652.79,-84.61 659.04,-81.45"/>
</a>
</g>
</g>
<!-- Node15 -->
<g id="Node000015" class="node">
<title>Node15</title>
<g id="a_Node000015"><a xlink:href="../../db/d98/ctexceptions_8h.html" target="_top" xlink:title="Definitions for the classes that are thrown when Cantera experiences an error condition (also contain...">
<polygon fill="white" stroke="#666666" points="853.5,-184 713.5,-184 713.5,-165 853.5,-165 853.5,-184"/>
<text text-anchor="middle" x="783.5" y="-172" font-family="Helvetica,sans-Serif" font-size="10.00">cantera/base/ctexceptions.h</text>
</a>
</g>
</g>
<!-- Node14&#45;&gt;Node15 -->
<g id="edge15_Node000014_Node000015" class="edge">
<title>Node14&#45;&gt;Node15</title>
<g id="a_edge15_Node000014_Node000015"><a xlink:title=" ">
<path fill="none" stroke="#63b8ff" d="M631.58,-219.98C662.1,-211.05 710.26,-196.94 744.16,-187.02"/>
<polygon fill="#63b8ff" stroke="#63b8ff" points="745.58,-190.25 754.19,-184.08 743.61,-183.53 745.58,-190.25"/>
</a>
</g>
</g>
<!-- Node14&#45;&gt;Node21 -->
<g id="edge20_Node000014_Node000021" class="edge">
<title>Node14&#45;&gt;Node21</title>
<g id="a_edge20_Node000014_Node000021"><a xlink:title=" ">
<path fill="none" stroke="#63b8ff" d="M602.5,-219.75C602.5,-212.8 602.5,-202.85 602.5,-194.13"/>
<polygon fill="#63b8ff" stroke="#63b8ff" points="606,-194.09 602.5,-184.09 599,-194.09 606,-194.09"/>
</a>
</g>
</g>
<!-- Node15&#45;&gt;Node2 -->
<g id="edge16_Node000015_Node000002" class="edge">
<title>Node15&#45;&gt;Node2</title>
<g id="a_edge16_Node000015_Node000002"><a xlink:title=" ">
<path fill="none" stroke="#63b8ff" d="M786.28,-164.7C789.89,-151.43 794.41,-126.15 782.5,-110 766.69,-88.55 740.25,-77.26 714.87,-71.39"/>
<polygon fill="#63b8ff" stroke="#63b8ff" points="715.35,-67.91 704.85,-69.32 713.93,-74.77 715.35,-67.91"/>
</a>
</g>
</g>
<!-- Node16 -->
<g id="Node000016" class="node">
<title>Node16</title>
<g id="a_Node000016"><a xlink:href="../../db/def/fmt_8h.html" target="_top" xlink:title="Wrapper for either system&#45;installed or local headers for fmt.">
<polygon fill="#fff0f0" stroke="red" points="657.5,-129 559.5,-129 559.5,-110 657.5,-110 657.5,-129"/>
<text text-anchor="middle" x="608.5" y="-117" font-family="Helvetica,sans-Serif" font-size="10.00">cantera/base/fmt.h</text>
</a>
</g>
</g>
<!-- Node15&#45;&gt;Node16 -->
<g id="edge17_Node000015_Node000016" class="edge">
<title>Node15&#45;&gt;Node16</title>
<g id="a_edge17_Node000015_Node000016"><a xlink:title=" ">
<path fill="none" stroke="#63b8ff" d="M755.38,-164.98C725.88,-156.05 679.31,-141.94 646.53,-132.02"/>
<polygon fill="#63b8ff" stroke="#63b8ff" points="647.42,-128.63 636.84,-129.08 645.39,-135.33 647.42,-128.63"/>
</a>
</g>
</g>
<!-- Node20 -->
<g id="Node000020" class="node">
<title>Node20</title>
<g id="a_Node000020"><a xlink:title=" ">
<polygon fill="#e0e0e0" stroke="#999999" points="773,-129 714,-129 714,-110 773,-110 773,-129"/>
<text text-anchor="middle" x="743.5" y="-117" font-family="Helvetica,sans-Serif" font-size="10.00">exception</text>
</a>
</g>
</g>
<!-- Node15&#45;&gt;Node20 -->
<g id="edge19_Node000015_Node000020" class="edge">
<title>Node15&#45;&gt;Node20</title>
<g id="a_edge19_Node000015_Node000020"><a xlink:title=" ">
<path fill="none" stroke="#63b8ff" d="M776.89,-164.75C771.24,-157.26 762.96,-146.28 756.05,-137.13"/>
<polygon fill="#63b8ff" stroke="#63b8ff" points="758.8,-134.96 749.98,-129.09 753.21,-139.18 758.8,-134.96"/>
</a>
</g>
</g>
<!-- Node16&#45;&gt;Node2 -->
<g id="edge18_Node000016_Node000002" class="edge">
<title>Node16&#45;&gt;Node2</title>
<g id="a_edge18_Node000016_Node000002"><a xlink:title=" ">
<path fill="none" stroke="#63b8ff" d="M614.77,-109.75C620.09,-102.34 627.86,-91.5 634.38,-82.41"/>
<polygon fill="#63b8ff" stroke="#63b8ff" points="637.36,-84.26 640.34,-74.09 631.67,-80.18 637.36,-84.26"/>
</a>
</g>
</g>
<!-- Node21&#45;&gt;Node2 -->
<g id="edge21_Node000021_Node000002" class="edge">
<title>Node21&#45;&gt;Node2</title>
<g id="a_edge21_Node000021_Node000002"><a xlink:title=" ">
<path fill="none" stroke="#63b8ff" d="M586.48,-164.96C566.64,-153.22 537,-131.14 550.5,-110 560.42,-94.47 577.3,-84.28 594.17,-77.62"/>
<polygon fill="#63b8ff" stroke="#63b8ff" points="595.81,-80.76 604.05,-74.1 593.46,-74.16 595.81,-80.76"/>
</a>
</g>
</g>
<!-- Node21&#45;&gt;Node16 -->
<g id="edge22_Node000021_Node000016" class="edge">
<title>Node21&#45;&gt;Node16</title>
<g id="a_edge22_Node000021_Node000016"><a xlink:title=" ">
<path fill="none" stroke="#63b8ff" d="M603.49,-164.75C604.28,-157.8 605.4,-147.85 606.39,-139.13"/>
<polygon fill="#63b8ff" stroke="#63b8ff" points="609.88,-139.42 607.53,-129.09 602.92,-138.63 609.88,-139.42"/>
</a>
</g>
</g>
<!-- Node22&#45;&gt;Node15 -->
<g id="edge24_Node000022_Node000015" class="edge">
<title>Node22&#45;&gt;Node15</title>
<g id="a_edge24_Node000022_Node000015"><a xlink:title=" ">
<path fill="none" stroke="#63b8ff" d="M720.55,-219.98C731.96,-211.92 749.33,-199.65 762.93,-190.03"/>
<polygon fill="#63b8ff" stroke="#63b8ff" points="765.08,-192.8 771.23,-184.17 761.04,-187.08 765.08,-192.8"/>
</a>
</g>
</g>
<!-- Node23&#45;&gt;Node2 -->
<g id="edge27_Node000023_Node000002" class="edge">
<title>Node23&#45;&gt;Node2</title>
<g id="a_edge27_Node000023_Node000002"><a xlink:title=" ">
<path fill="none" stroke="#63b8ff" d="M301.22,-228.77C226.16,-227.02 112.61,-216.21 154.5,-165 207.3,-100.46 456.1,-76.81 578.35,-68.98"/>
<polygon fill="#63b8ff" stroke="#63b8ff" points="578.59,-72.47 588.36,-68.36 578.16,-65.49 578.59,-72.47"/>
</a>
</g>
</g>
<!-- Node23&#45;&gt;Node15 -->
<g id="edge28_Node000023_Node000015" class="edge">
<title>Node23&#45;&gt;Node15</title>
<g id="a_edge28_Node000023_Node000015"><a xlink:title=" ">
<path fill="none" stroke="#63b8ff" d="M421.51,-220.96C496.11,-211.59 623.58,-195.58 705.64,-185.28"/>
<polygon fill="#63b8ff" stroke="#63b8ff" points="706.18,-188.74 715.66,-184.02 705.3,-181.79 706.18,-188.74"/>
</a>
</g>
</g>
<!-- Node24 -->
<g id="Node000024" class="node">
<title>Node24</title>
<g id="a_Node000024"><a xlink:href="../../da/d58/Units_8h.html" target="_top" xlink:title="Header for unit conversion utilities, which are used to translate user input from input files (See In...">
<polygon fill="white" stroke="#666666" points="107,-129 0,-129 0,-110 107,-110 107,-129"/>
<text text-anchor="middle" x="53.5" y="-117" font-family="Helvetica,sans-Serif" font-size="10.00">cantera/base/Units.h</text>
</a>
</g>
</g>
<!-- Node23&#45;&gt;Node24 -->
<g id="edge29_Node000023_Node000024" class="edge">
<title>Node23&#45;&gt;Node24</title>
<g id="a_edge29_Node000023_Node000024"><a xlink:title=" ">
<path fill="none" stroke="#63b8ff" d="M301.32,-226.66C250.89,-222.99 178.25,-212.63 121.5,-184 99.08,-172.69 78.81,-151.69 66.35,-136.95"/>
<polygon fill="#63b8ff" stroke="#63b8ff" points="68.99,-134.65 59.96,-129.11 63.56,-139.07 68.99,-134.65"/>
</a>
</g>
</g>
<!-- Node25 -->
<g id="Node000025" class="node">
<title>Node25</title>
<g id="a_Node000025"><a xlink:title=" ">
<polygon fill="#e0e0e0" stroke="#999999" points="247,-184 164,-184 164,-165 247,-165 247,-184"/>
<text text-anchor="middle" x="205.5" y="-172" font-family="Helvetica,sans-Serif" font-size="10.00">unordered_map</text>
</a>
</g>
</g>
<!-- Node23&#45;&gt;Node25 -->
<g id="edge31_Node000023_Node000025" class="edge">
<title>Node23&#45;&gt;Node25</title>
<g id="a_edge31_Node000023_Node000025"><a xlink:title=" ">
<path fill="none" stroke="#63b8ff" d="M336.44,-219.98C310.47,-211.16 269.69,-197.31 240.54,-187.41"/>
<polygon fill="#63b8ff" stroke="#63b8ff" points="241.35,-183.99 230.76,-184.08 239.1,-190.61 241.35,-183.99"/>
</a>
</g>
</g>
<!-- Node26 -->
<g id="Node000026" class="node">
<title>Node26</title>
<g id="a_Node000026"><a xlink:title=" ">
<polygon fill="#e0e0e0" stroke="#999999" points="327.5,-184 265.5,-184 265.5,-165 327.5,-165 327.5,-184"/>
<text text-anchor="middle" x="296.5" y="-172" font-family="Helvetica,sans-Serif" font-size="10.00">filesystem</text>
</a>
</g>
</g>
<!-- Node23&#45;&gt;Node26 -->
<g id="edge32_Node000023_Node000026" class="edge">
<title>Node23&#45;&gt;Node26</title>
<g id="a_edge32_Node000023_Node000026"><a xlink:title=" ">
<path fill="none" stroke="#63b8ff" d="M351.06,-219.98C341.35,-212.07 326.68,-200.11 315,-190.58"/>
<polygon fill="#63b8ff" stroke="#63b8ff" points="317.1,-187.78 307.13,-184.17 312.67,-193.2 317.1,-187.78"/>
</a>
</g>
</g>
<!-- Node27 -->
<g id="Node000027" class="node">
<title>Node27</title>
<g id="a_Node000027"><a xlink:title=" ">
<polygon fill="#e0e0e0" stroke="#999999" points="377.5,-184 345.5,-184 345.5,-165 377.5,-165 377.5,-184"/>
<text text-anchor="middle" x="361.5" y="-172" font-family="Helvetica,sans-Serif" font-size="10.00">any</text>
</a>
</g>
</g>
<!-- Node23&#45;&gt;Node27 -->
<g id="edge33_Node000023_Node000027" class="edge">
<title>Node23&#45;&gt;Node27</title>
<g id="a_edge33_Node000023_Node000027"><a xlink:title=" ">
<path fill="none" stroke="#63b8ff" d="M361.5,-219.75C361.5,-212.8 361.5,-202.85 361.5,-194.13"/>
<polygon fill="#63b8ff" stroke="#63b8ff" points="365,-194.09 361.5,-184.09 358,-194.09 365,-194.09"/>
</a>
</g>
</g>
<!-- Node28 -->
<g id="Node000028" class="node">
<title>Node28</title>
<g id="a_Node000028"><a xlink:href="../../da/d4c/AnyMap_8inl_8h.html" target="_top" xlink:title=" ">
<polygon fill="white" stroke="#666666" points="529,-184 396,-184 396,-165 529,-165 529,-184"/>
<text text-anchor="middle" x="462.5" y="-172" font-family="Helvetica,sans-Serif" font-size="10.00">cantera/base/AnyMap.inl.h</text>
</a>
</g>
</g>
<!-- Node23&#45;&gt;Node28 -->
<g id="edge34_Node000023_Node000028" class="edge">
<title>Node23&#45;&gt;Node28</title>
<g id="a_edge34_Node000023_Node000028"><a xlink:title=" ">
<path fill="none" stroke="#63b8ff" d="M372.61,-219.98C386.91,-211.5 411.71,-198.35 431.73,-188.54"/>
<polygon fill="#63b8ff" stroke="#63b8ff" points="433.33,-191.66 440.83,-184.17 430.3,-185.35 433.33,-191.66"/>
</a>
</g>
</g>
<!-- Node24&#45;&gt;Node2 -->
<g id="edge30_Node000024_Node000002" class="edge">
<title>Node24&#45;&gt;Node2</title>
<g id="a_edge30_Node000024_Node000002"><a xlink:title=" ">
<path fill="none" stroke="#63b8ff" d="M107.3,-111.57C112.1,-111.02 116.89,-110.48 121.5,-110 285.09,-92.85 477.9,-77.84 578.16,-70.42"/>
<polygon fill="#63b8ff" stroke="#63b8ff" points="578.45,-73.91 588.16,-69.68 577.93,-66.93 578.45,-73.91"/>
</a>
</g>
</g>
<!-- Node28&#45;&gt;Node23 -->
<g id="edge35_Node000028_Node000023" class="edge">
<title>Node28&#45;&gt;Node23</title>
<g id="a_edge35_Node000028_Node000023"><a xlink:title=" ">
<path fill="none" stroke="#63b8ff" d="M451.13,-184.17C436.7,-192.71 411.87,-205.87 391.9,-215.63"/>
<polygon fill="#63b8ff" stroke="#63b8ff" points="390.34,-212.5 382.84,-219.98 393.37,-218.81 390.34,-212.5"/>
</a>
</g>
</g>
<!-- Node29&#45;&gt;Node13 -->
<g id="edge37_Node000029_Node000013" class="edge">
<title>Node29&#45;&gt;Node13</title>
<g id="a_edge37_Node000029_Node000013"><a xlink:title=" ">
<path fill="none" stroke="#63b8ff" d="M963.53,-340.99C905.52,-330.49 806.9,-312.62 744.58,-301.34"/>
<polygon fill="#63b8ff" stroke="#63b8ff" points="744.99,-297.85 734.52,-299.52 743.74,-304.74 744.99,-297.85"/>
</a>
</g>
</g>
<!-- Node29&#45;&gt;Node15 -->
<g id="edge40_Node000029_Node000015" class="edge">
<title>Node29&#45;&gt;Node15</title>
<g id="a_edge40_Node000029_Node000015"><a xlink:title=" ">
<path fill="none" stroke="#63b8ff" d="M1057.64,-340.95C1078.13,-334.64 1100.22,-323.75 1112.5,-305 1119.8,-293.85 1120.45,-285.71 1112.5,-275 1080.9,-232.42 934.62,-201.01 848.12,-185.78"/>
<polygon fill="#63b8ff" stroke="#63b8ff" points="848.59,-182.31 838.13,-184.05 847.39,-189.21 848.59,-182.31"/>
</a>
</g>
</g>
<!-- Node30 -->
<g id="Node000030" class="node">
<title>Node30</title>
<g id="a_Node000030"><a xlink:href="../../d4/ddd/SundialsContext_8h.html" target="_top" xlink:title=" ">
<polygon fill="white" stroke="#666666" points="947.5,-305 815.5,-305 815.5,-275 947.5,-275 947.5,-305"/>
<text text-anchor="start" x="823.5" y="-293" font-family="Helvetica,sans-Serif" font-size="10.00">cantera/numerics/Sundials</text>
<text text-anchor="middle" x="881.5" y="-282" font-family="Helvetica,sans-Serif" font-size="10.00">Context.h</text>
</a>
</g>
</g>
<!-- Node29&#45;&gt;Node30 -->
<g id="edge38_Node000029_Node000030" class="edge">
<title>Node29&#45;&gt;Node30</title>
<g id="a_edge38_Node000029_Node000030"><a xlink:title=" ">
<path fill="none" stroke="#63b8ff" d="M991.74,-340.99C973.56,-332.75 945.4,-319.98 922.08,-309.4"/>
<polygon fill="#63b8ff" stroke="#63b8ff" points="923.32,-306.12 912.76,-305.18 920.43,-312.5 923.32,-306.12"/>
</a>
</g>
</g>
<!-- Node31 -->
<g id="Node000031" class="node">
<title>Node31</title>
<g id="a_Node000031"><a xlink:title=" ">
<polygon fill="#e0e0e0" stroke="#999999" points="1103,-299.5 966,-299.5 966,-280.5 1103,-280.5 1103,-299.5"/>
<text text-anchor="middle" x="1034.5" y="-287.5" font-family="Helvetica,sans-Serif" font-size="10.00">sundials/sundials_nvector.h</text>
</a>
</g>
</g>
<!-- Node29&#45;&gt;Node31 -->
<g id="edge41_Node000029_Node000031" class="edge">
<title>Node29&#45;&gt;Node31</title>
<g id="a_edge41_Node000029_Node000031"><a xlink:title=" ">
<path fill="none" stroke="#63b8ff" d="M1014.04,-340.87C1017.44,-332.57 1022.69,-319.78 1027.02,-309.22"/>
<polygon fill="#63b8ff" stroke="#63b8ff" points="1030.39,-310.25 1030.94,-299.67 1023.91,-307.59 1030.39,-310.25"/>
</a>
</g>
</g>
<!-- Node30&#45;&gt;Node2 -->
<g id="edge39_Node000030_Node000002" class="edge">
<title>Node30&#45;&gt;Node2</title>
<g id="a_edge39_Node000030_Node000002"><a xlink:title=" ">
<path fill="none" stroke="#63b8ff" d="M882.37,-275C883.22,-250.94 882.22,-200.88 862.5,-165 833.21,-111.72 766.15,-86.81 714.46,-75.27"/>
<polygon fill="#63b8ff" stroke="#63b8ff" points="715.18,-71.84 704.67,-73.2 713.73,-78.69 715.18,-71.84"/>
</a>
</g>
</g>
<!-- Node32&#45;&gt;Node13 -->
<g id="edge43_Node000032_Node000013" class="edge">
<title>Node32&#45;&gt;Node13</title>
<g id="a_edge43_Node000032_Node000013"><a xlink:title=" ">
<path fill="none" stroke="#63b8ff" d="M802.02,-340.99C779.49,-331.16 742.19,-314.88 716.31,-303.58"/>
<polygon fill="#63b8ff" stroke="#63b8ff" points="717.57,-300.31 707.01,-299.52 714.77,-306.73 717.57,-300.31"/>
</a>
</g>
</g>
<!-- Node32&#45;&gt;Node15 -->
<g id="edge44_Node000032_Node000015" class="edge">
<title>Node32&#45;&gt;Node15</title>
<g id="a_edge44_Node000032_Node000015"><a xlink:title=" ">
<path fill="none" stroke="#63b8ff" d="M818.12,-340.75C814.78,-331.86 809.73,-317.64 806.5,-305 796.54,-266.06 789.4,-219.44 785.91,-194.11"/>
<polygon fill="#63b8ff" stroke="#63b8ff" points="789.37,-193.53 784.57,-184.08 782.43,-194.45 789.37,-193.53"/>
</a>
</g>
</g>
<!-- Node32&#45;&gt;Node30 -->
<g id="edge46_Node000032_Node000030" class="edge">
<title>Node32&#45;&gt;Node30</title>
<g id="a_edge46_Node000032_Node000030"><a xlink:title=" ">
<path fill="none" stroke="#63b8ff" d="M830.35,-340.87C838.04,-333.37 849.5,-322.2 859.63,-312.33"/>
<polygon fill="#63b8ff" stroke="#63b8ff" points="862.31,-314.6 867.02,-305.11 857.42,-309.59 862.31,-314.6"/>
</a>
</g>
</g>
<!-- Node32&#45;&gt;Node31 -->
<g id="edge45_Node000032_Node000031" class="edge">
<title>Node32&#45;&gt;Node31</title>
<g id="a_edge45_Node000032_Node000031"><a xlink:title=" ">
<path fill="none" stroke="#63b8ff" d="M852.47,-340.99C889.78,-330.75 952.56,-313.5 993.77,-302.19"/>
<polygon fill="#63b8ff" stroke="#63b8ff" points="994.77,-305.54 1003.49,-299.52 992.92,-298.79 994.77,-305.54"/>
</a>
</g>
</g>
</g>
</svg>

<g id="navigator" transform="translate(0 0)" fill="#404254">
  <rect fill="#f2f5e9" fill-opacity="0.5" stroke="#606060" stroke-width=".5" x="0" y="0" width="60" height="60"/>
  <use id="zoomplus" xlink:href="#zoomPlus" x="17" y="9" onmousedown="handleZoom(evt,'in')"/>
  <use id="zoomminus" xlink:href="#zoomMin" x="42" y="9" onmousedown="handleZoom(evt,'out')"/>
  <use id="reset" xlink:href="#resetDef" x="30" y="36" onmousedown="handleReset()"/>
   <use id="arrowup" xlink:href="#arrowUp" x="0" y="0" onmousedown="handlePan(0,-1)"/>
  <use id="arrowright" xlink:href="#arrowRight" x="0" y="0" onmousedown="handlePan(1,0)"/>
  <use id="arrowdown" xlink:href="#arrowDown" x="0" y="0" onmousedown="handlePan(0,1)"/>
  <use id="arrowleft" xlink:href="#arrowLeft" x="0" y="0" onmousedown="handlePan(-1,0)"/>
</g>
<svg viewBox="0 0 15 15" width="100%" height="30px" preserveAspectRatio="xMaxYMin meet">
 <g id="arrow_out" transform="scale(0.3 0.3)">
  <a xlink:href="Integrators_8cpp__incl_org.svg" target="_base">
   <rect id="button" ry="5" rx="5" y="6" x="6" height="38" width="38"
        fill="#f2f5e9" fill-opacity="0.5" stroke="#606060" stroke-width="1.0"/>
   <path id="arrow"
     d="M 11.500037,31.436501 C 11.940474,20.09759 22.043105,11.32322 32.158766,21.979434 L 37.068811,17.246167 C 37.068811,17.246167 37.088388,32 37.088388,32 L 22.160133,31.978069 C 22.160133,31.978069 26.997745,27.140456 26.997745,27.140456 C 18.528582,18.264221 13.291696,25.230495 11.500037,31.436501 z"
     style="fill:#404040;"/>
  </a>
 </g>
</svg>

<style type='text/css'>
<![CDATA[
[data-mouse-over-selected='false'] { opacity: 0.7; }
[data-mouse-over-selected='true']  { opacity: 1.0; }
]]>
</style>
<script type="application/ecmascript"><![CDATA[
document.addEventListener('DOMContentLoaded', (event) => {
  highlightEdges();
  highlightAdjacentNodes();
});
]]></script>
</svg>
