<?xml version="1.0" encoding="UTF-8" standalone="no"?>
<!DOCTYPE svg PUBLIC "-//W3C//DTD SVG 1.1//EN"
 "http://www.w3.org/Graphics/SVG/1.1/DTD/svg11.dtd">
<!-- Generated by graphviz version 2.43.0 (0)
 -->
<!-- Title: Domain1D.cpp Pages: 1 -->
<svg width="1392pt" height="467pt"
 viewBox="0.00 0.00 1392.00 467.00" xmlns="http://www.w3.org/2000/svg" xmlns:xlink="http://www.w3.org/1999/xlink">
<g id="graph0" class="graph" transform="scale(1 1) rotate(0) translate(4 463)">
<title>Domain1D.cpp</title>
<!-- Node1 -->
<g id="Node000001" class="node">
<title>Node1</title>
<g id="a_Node000001"><a xlink:title=" ">
<polygon fill="#999999" stroke="#666666" points="817.5,-459 728.5,-459 728.5,-440 817.5,-440 817.5,-459"/>
<text text-anchor="middle" x="773" y="-447" font-family="Helvetica,sans-Serif" font-size="10.00">Domain1D.cpp</text>
</a>
</g>
</g>
<!-- Node2 -->
<g id="Node000002" class="node">
<title>Node2</title>
<g id="a_Node000002"><a xlink:href="../../db/dce/Domain1D_8h.html" target="_top" xlink:title=" ">
<polygon fill="white" stroke="#666666" points="326,-239 180,-239 180,-220 326,-220 326,-239"/>
<text text-anchor="middle" x="253" y="-227" font-family="Helvetica,sans-Serif" font-size="10.00">cantera/oneD/Domain1D.h</text>
</a>
</g>
</g>
<!-- Node1&#45;&gt;Node2 -->
<g id="edge1_Node000001_Node000002" class="edge">
<title>Node1&#45;&gt;Node2</title>
<g id="a_edge1_Node000001_Node000002"><a xlink:title=" ">
<path fill="none" stroke="#63b8ff" d="M728.34,-448C640.87,-445.19 443.3,-429.61 303,-349 274.1,-332.39 264.17,-325.03 252,-294 246.39,-279.71 247.18,-262.18 249.07,-249.17"/>
<polygon fill="#63b8ff" stroke="#63b8ff" points="252.55,-249.54 250.87,-239.08 245.66,-248.31 252.55,-249.54"/>
</a>
</g>
</g>
<!-- Node21 -->
<g id="Node000021" class="node">
<title>Node21</title>
<g id="a_Node000021"><a xlink:href="../../d5/d60/MultiJac_8h.html" target="_top" xlink:title=" ">
<polygon fill="white" stroke="#666666" points="445.5,-349 312.5,-349 312.5,-330 445.5,-330 445.5,-349"/>
<text text-anchor="middle" x="379" y="-337" font-family="Helvetica,sans-Serif" font-size="10.00">cantera/oneD/MultiJac.h</text>
</a>
</g>
</g>
<!-- Node1&#45;&gt;Node21 -->
<g id="edge23_Node000001_Node000021" class="edge">
<title>Node1&#45;&gt;Node21</title>
<g id="a_edge23_Node000001_Node000021"><a xlink:title=" ">
<path fill="none" stroke="#63b8ff" d="M741.75,-439.94C671.21,-420.6 499.58,-373.55 420.35,-351.83"/>
<polygon fill="#63b8ff" stroke="#63b8ff" points="420.82,-348.33 410.25,-349.07 418.97,-355.08 420.82,-348.33"/>
</a>
</g>
</g>
<!-- Node25 -->
<g id="Node000025" class="node">
<title>Node25</title>
<g id="a_Node000025"><a xlink:href="../../da/dbc/refine_8h_source.html" target="_top" xlink:title=" ">
<polygon fill="white" stroke="#666666" points="1360,-404 1238,-404 1238,-385 1360,-385 1360,-404"/>
<text text-anchor="middle" x="1299" y="-392" font-family="Helvetica,sans-Serif" font-size="10.00">cantera/oneD/refine.h</text>
</a>
</g>
</g>
<!-- Node1&#45;&gt;Node25 -->
<g id="edge32_Node000001_Node000025" class="edge">
<title>Node1&#45;&gt;Node25</title>
<g id="a_edge32_Node000001_Node000025"><a xlink:title=" ">
<path fill="none" stroke="#63b8ff" d="M817.85,-443.98C909.28,-434.77 1117.85,-413.75 1227.93,-402.66"/>
<polygon fill="#63b8ff" stroke="#63b8ff" points="1228.35,-406.14 1237.95,-401.65 1227.65,-399.17 1228.35,-406.14"/>
</a>
</g>
</g>
<!-- Node26 -->
<g id="Node000026" class="node">
<title>Node26</title>
<g id="a_Node000026"><a xlink:href="../../dd/d2a/AnyMap_8h.html" target="_top" xlink:title=" ">
<polygon fill="white" stroke="#666666" points="976.5,-239 845.5,-239 845.5,-220 976.5,-220 976.5,-239"/>
<text text-anchor="middle" x="911" y="-227" font-family="Helvetica,sans-Serif" font-size="10.00">cantera/base/AnyMap.h</text>
</a>
</g>
</g>
<!-- Node1&#45;&gt;Node26 -->
<g id="edge34_Node000001_Node000026" class="edge">
<title>Node1&#45;&gt;Node26</title>
<g id="a_edge34_Node000001_Node000026"><a xlink:title=" ">
<path fill="none" stroke="#63b8ff" d="M817.86,-446.04C864.94,-442.03 940.13,-431.52 999,-404 1057.52,-376.65 1079.39,-356.92 1094,-294 1095.91,-285.77 1099.22,-281.64 1094,-275 1080.43,-257.73 1030.71,-246.33 986.51,-239.4"/>
<polygon fill="#63b8ff" stroke="#63b8ff" points="987.01,-235.93 976.6,-237.9 985.96,-242.86 987.01,-235.93"/>
</a>
</g>
</g>
<!-- Node32 -->
<g id="Node000032" class="node">
<title>Node32</title>
<g id="a_Node000032"><a xlink:href="../../d4/dfa/Solution_8h.html" target="_top" xlink:title=" ">
<polygon fill="white" stroke="#666666" points="838.5,-294 707.5,-294 707.5,-275 838.5,-275 838.5,-294"/>
<text text-anchor="middle" x="773" y="-282" font-family="Helvetica,sans-Serif" font-size="10.00">cantera/base/Solution.h</text>
</a>
</g>
</g>
<!-- Node1&#45;&gt;Node32 -->
<g id="edge44_Node000001_Node000032" class="edge">
<title>Node1&#45;&gt;Node32</title>
<g id="a_edge44_Node000001_Node000032"><a xlink:title=" ">
<path fill="none" stroke="#63b8ff" d="M773,-439.74C773,-414.31 773,-340.08 773,-304.69"/>
<polygon fill="#63b8ff" stroke="#63b8ff" points="776.5,-304.31 773,-294.31 769.5,-304.31 776.5,-304.31"/>
</a>
</g>
</g>
<!-- Node33 -->
<g id="Node000033" class="node">
<title>Node33</title>
<g id="a_Node000033"><a xlink:href="../../db/df6/SolutionArray_8h.html" target="_top" xlink:title=" ">
<polygon fill="white" stroke="#666666" points="689,-294 533,-294 533,-275 689,-275 689,-294"/>
<text text-anchor="middle" x="611" y="-282" font-family="Helvetica,sans-Serif" font-size="10.00">cantera/base/SolutionArray.h</text>
</a>
</g>
</g>
<!-- Node1&#45;&gt;Node33 -->
<g id="edge47_Node000001_Node000033" class="edge">
<title>Node1&#45;&gt;Node33</title>
<g id="a_edge47_Node000001_Node000033"><a xlink:title=" ">
<path fill="none" stroke="#63b8ff" d="M764.29,-439.74C738.25,-413.53 660.71,-335.51 626.97,-301.57"/>
<polygon fill="#63b8ff" stroke="#63b8ff" points="629.28,-298.93 619.75,-294.31 624.32,-303.87 629.28,-298.93"/>
</a>
</g>
</g>
<!-- Node34 -->
<g id="Node000034" class="node">
<title>Node34</title>
<g id="a_Node000034"><a xlink:href="../../d7/d01/ThermoPhase_8h.html" target="_top" xlink:title="Header file for class ThermoPhase, the base class for phases with thermodynamic properties,...">
<polygon fill="white" stroke="#666666" points="990,-404 820,-404 820,-385 990,-385 990,-404"/>
<text text-anchor="middle" x="905" y="-392" font-family="Helvetica,sans-Serif" font-size="10.00">cantera/thermo/ThermoPhase.h</text>
</a>
</g>
</g>
<!-- Node1&#45;&gt;Node34 -->
<g id="edge50_Node000001_Node000034" class="edge">
<title>Node1&#45;&gt;Node34</title>
<g id="a_edge50_Node000001_Node000034"><a xlink:title=" ">
<path fill="none" stroke="#63b8ff" d="M794.21,-439.98C815.73,-431.34 849.28,-417.87 873.83,-408.02"/>
<polygon fill="#63b8ff" stroke="#63b8ff" points="875.43,-411.14 883.41,-404.17 872.82,-404.65 875.43,-411.14"/>
</a>
</g>
</g>
<!-- Node3 -->
<g id="Node000003" class="node">
<title>Node3</title>
<g id="a_Node000003"><a xlink:href="../../db/d98/ctexceptions_8h.html" target="_top" xlink:title="Definitions for the classes that are thrown when Cantera experiences an error condition (also contain...">
<polygon fill="white" stroke="#666666" points="524,-184 370,-184 370,-165 524,-165 524,-184"/>
<text text-anchor="middle" x="447" y="-172" font-family="Helvetica,sans-Serif" font-size="10.00">cantera/base/ctexceptions.h</text>
</a>
</g>
</g>
<!-- Node2&#45;&gt;Node3 -->
<g id="edge2_Node000002_Node000003" class="edge">
<title>Node2&#45;&gt;Node3</title>
<g id="a_edge2_Node000002_Node000003"><a xlink:title=" ">
<path fill="none" stroke="#63b8ff" d="M284.17,-219.98C317.16,-210.97 369.4,-196.7 405.77,-186.76"/>
<polygon fill="#63b8ff" stroke="#63b8ff" points="406.86,-190.09 415.59,-184.08 405.02,-183.34 406.86,-190.09"/>
</a>
</g>
</g>
<!-- Node20 -->
<g id="Node000020" class="node">
<title>Node20</title>
<g id="a_Node000020"><a xlink:href="../../d2/d49/global_8h.html" target="_top" xlink:title="This file contains definitions for utility functions and text for modules, inputfiles and logging,...">
<polygon fill="white" stroke="#666666" points="314,-184 192,-184 192,-165 314,-165 314,-184"/>
<text text-anchor="middle" x="253" y="-172" font-family="Helvetica,sans-Serif" font-size="10.00">cantera/base/global.h</text>
</a>
</g>
</g>
<!-- Node2&#45;&gt;Node20 -->
<g id="edge20_Node000002_Node000020" class="edge">
<title>Node2&#45;&gt;Node20</title>
<g id="a_edge20_Node000002_Node000020"><a xlink:title=" ">
<path fill="none" stroke="#63b8ff" d="M253,-219.75C253,-212.8 253,-202.85 253,-194.13"/>
<polygon fill="#63b8ff" stroke="#63b8ff" points="256.5,-194.09 253,-184.09 249.5,-194.09 256.5,-194.09"/>
</a>
</g>
</g>
<!-- Node4 -->
<g id="Node000004" class="node">
<title>Node4</title>
<g id="a_Node000004"><a xlink:href="../../d9/ddc/ct__defs_8h.html" target="_top" xlink:title="This file contains definitions of constants, types and terms that are used in internal routines and a...">
<polygon fill="white" stroke="#666666" points="647.5,-74 586.5,-74 586.5,-55 647.5,-55 647.5,-74"/>
<text text-anchor="middle" x="617" y="-62" font-family="Helvetica,sans-Serif" font-size="10.00">ct_defs.h</text>
</a>
</g>
</g>
<!-- Node3&#45;&gt;Node4 -->
<g id="edge3_Node000003_Node000004" class="edge">
<title>Node3&#45;&gt;Node4</title>
<g id="a_edge3_Node000003_Node000004"><a xlink:title=" ">
<path fill="none" stroke="#63b8ff" d="M432.34,-164.92C413.06,-152.57 383.35,-129.16 399,-110 420.96,-83.1 519.62,-72.03 576.4,-67.83"/>
<polygon fill="#63b8ff" stroke="#63b8ff" points="576.76,-71.31 586.49,-67.12 576.27,-64.33 576.76,-71.31"/>
</a>
</g>
</g>
<!-- Node15 -->
<g id="Node000015" class="node">
<title>Node15</title>
<g id="a_Node000015"><a xlink:href="../../db/def/fmt_8h.html" target="_top" xlink:title="Wrapper for either system&#45;installed or local headers for fmt.">
<polygon fill="white" stroke="#666666" points="275.5,-129 166.5,-129 166.5,-110 275.5,-110 275.5,-129"/>
<text text-anchor="middle" x="221" y="-117" font-family="Helvetica,sans-Serif" font-size="10.00">cantera/base/fmt.h</text>
</a>
</g>
</g>
<!-- Node3&#45;&gt;Node15 -->
<g id="edge14_Node000003_Node000015" class="edge">
<title>Node3&#45;&gt;Node15</title>
<g id="a_edge14_Node000003_Node000015"><a xlink:title=" ">
<path fill="none" stroke="#63b8ff" d="M410.69,-164.98C371.76,-155.86 309.84,-141.33 267.4,-131.38"/>
<polygon fill="#63b8ff" stroke="#63b8ff" points="268.13,-127.96 257.6,-129.08 266.53,-134.77 268.13,-127.96"/>
</a>
</g>
</g>
<!-- Node19 -->
<g id="Node000019" class="node">
<title>Node19</title>
<g id="a_Node000019"><a xlink:title=" ">
<polygon fill="#e0e0e0" stroke="#999999" points="473.5,-129 408.5,-129 408.5,-110 473.5,-110 473.5,-129"/>
<text text-anchor="middle" x="441" y="-117" font-family="Helvetica,sans-Serif" font-size="10.00">exception</text>
</a>
</g>
</g>
<!-- Node3&#45;&gt;Node19 -->
<g id="edge19_Node000003_Node000019" class="edge">
<title>Node3&#45;&gt;Node19</title>
<g id="a_edge19_Node000003_Node000019"><a xlink:title=" ">
<path fill="none" stroke="#63b8ff" d="M446.01,-164.75C445.22,-157.8 444.1,-147.85 443.11,-139.13"/>
<polygon fill="#63b8ff" stroke="#63b8ff" points="446.58,-138.63 441.97,-129.09 439.62,-139.42 446.58,-138.63"/>
</a>
</g>
</g>
<!-- Node5 -->
<g id="Node000005" class="node">
<title>Node5</title>
<g id="a_Node000005"><a xlink:href="../../db/d16/config_8h_source.html" target="_top" xlink:title=" ">
<polygon fill="white" stroke="#666666" points="355.5,-19 300.5,-19 300.5,0 355.5,0 355.5,-19"/>
<text text-anchor="middle" x="328" y="-7" font-family="Helvetica,sans-Serif" font-size="10.00">config.h</text>
</a>
</g>
</g>
<!-- Node4&#45;&gt;Node5 -->
<g id="edge4_Node000004_Node000005" class="edge">
<title>Node4&#45;&gt;Node5</title>
<g id="a_edge4_Node000004_Node000005"><a xlink:title=" ">
<path fill="none" stroke="#63b8ff" d="M586.12,-58.66C540.13,-51.32 450.68,-36.56 365.68,-19.26"/>
<polygon fill="#63b8ff" stroke="#63b8ff" points="366.37,-15.83 355.87,-17.25 364.97,-22.69 366.37,-15.83"/>
</a>
</g>
</g>
<!-- Node6 -->
<g id="Node000006" class="node">
<title>Node6</title>
<g id="a_Node000006"><a xlink:title=" ">
<polygon fill="#e0e0e0" stroke="#999999" points="420.5,-19 373.5,-19 373.5,0 420.5,0 420.5,-19"/>
<text text-anchor="middle" x="397" y="-7" font-family="Helvetica,sans-Serif" font-size="10.00">cmath</text>
</a>
</g>
</g>
<!-- Node4&#45;&gt;Node6 -->
<g id="edge5_Node000004_Node000006" class="edge">
<title>Node4&#45;&gt;Node6</title>
<g id="a_edge5_Node000004_Node000006"><a xlink:title=" ">
<path fill="none" stroke="#63b8ff" d="M586.33,-56.51C551.03,-48.41 491.06,-34.46 430.81,-19.41"/>
<polygon fill="#63b8ff" stroke="#63b8ff" points="431.3,-15.92 420.75,-16.88 429.6,-22.71 431.3,-15.92"/>
</a>
</g>
</g>
<!-- Node7 -->
<g id="Node000007" class="node">
<title>Node7</title>
<g id="a_Node000007"><a xlink:title=" ">
<polygon fill="#e0e0e0" stroke="#999999" points="487.5,-19 438.5,-19 438.5,0 487.5,0 487.5,-19"/>
<text text-anchor="middle" x="463" y="-7" font-family="Helvetica,sans-Serif" font-size="10.00">cstdlib</text>
</a>
</g>
</g>
<!-- Node4&#45;&gt;Node7 -->
<g id="edge6_Node000004_Node000007" class="edge">
<title>Node4&#45;&gt;Node7</title>
<g id="a_edge6_Node000004_Node000007"><a xlink:title=" ">
<path fill="none" stroke="#63b8ff" d="M592.26,-54.98C566.55,-46.14 526.13,-32.23 497.34,-22.32"/>
<polygon fill="#63b8ff" stroke="#63b8ff" points="498.28,-18.94 487.68,-18.99 496,-25.56 498.28,-18.94"/>
</a>
</g>
</g>
<!-- Node8 -->
<g id="Node000008" class="node">
<title>Node8</title>
<g id="a_Node000008"><a xlink:title=" ">
<polygon fill="#e0e0e0" stroke="#999999" points="552.5,-19 505.5,-19 505.5,0 552.5,0 552.5,-19"/>
<text text-anchor="middle" x="529" y="-7" font-family="Helvetica,sans-Serif" font-size="10.00">vector</text>
</a>
</g>
</g>
<!-- Node4&#45;&gt;Node8 -->
<g id="edge7_Node000004_Node000008" class="edge">
<title>Node4&#45;&gt;Node8</title>
<g id="a_edge7_Node000004_Node000008"><a xlink:title=" ">
<path fill="none" stroke="#63b8ff" d="M602.86,-54.98C589.21,-46.77 568.31,-34.18 552.22,-24.49"/>
<polygon fill="#63b8ff" stroke="#63b8ff" points="553.77,-21.33 543.4,-19.17 550.16,-27.33 553.77,-21.33"/>
</a>
</g>
</g>
<!-- Node9 -->
<g id="Node000009" class="node">
<title>Node9</title>
<g id="a_Node000009"><a xlink:title=" ">
<polygon fill="#e0e0e0" stroke="#999999" points="609,-19 571,-19 571,0 609,0 609,-19"/>
<text text-anchor="middle" x="590" y="-7" font-family="Helvetica,sans-Serif" font-size="10.00">map</text>
</a>
</g>
</g>
<!-- Node4&#45;&gt;Node9 -->
<g id="edge8_Node000004_Node000009" class="edge">
<title>Node4&#45;&gt;Node9</title>
<g id="a_edge8_Node000004_Node000009"><a xlink:title=" ">
<path fill="none" stroke="#63b8ff" d="M612.54,-54.75C608.88,-47.57 603.59,-37.18 599.05,-28.27"/>
<polygon fill="#63b8ff" stroke="#63b8ff" points="602.03,-26.41 594.38,-19.09 595.8,-29.59 602.03,-26.41"/>
</a>
</g>
</g>
<!-- Node10 -->
<g id="Node000010" class="node">
<title>Node10</title>
<g id="a_Node000010"><a xlink:title=" ">
<polygon fill="#e0e0e0" stroke="#999999" points="659,-19 627,-19 627,0 659,0 659,-19"/>
<text text-anchor="middle" x="643" y="-7" font-family="Helvetica,sans-Serif" font-size="10.00">set</text>
</a>
</g>
</g>
<!-- Node4&#45;&gt;Node10 -->
<g id="edge9_Node000004_Node000010" class="edge">
<title>Node4&#45;&gt;Node10</title>
<g id="a_edge9_Node000004_Node000010"><a xlink:title=" ">
<path fill="none" stroke="#63b8ff" d="M621.29,-54.75C624.81,-47.57 629.91,-37.18 634.28,-28.27"/>
<polygon fill="#63b8ff" stroke="#63b8ff" points="637.52,-29.61 638.79,-19.09 631.24,-26.53 637.52,-29.61"/>
</a>
</g>
</g>
<!-- Node11 -->
<g id="Node000011" class="node">
<title>Node11</title>
<g id="a_Node000011"><a xlink:title=" ">
<polygon fill="#e0e0e0" stroke="#999999" points="721,-19 677,-19 677,0 721,0 721,-19"/>
<text text-anchor="middle" x="699" y="-7" font-family="Helvetica,sans-Serif" font-size="10.00">string</text>
</a>
</g>
</g>
<!-- Node4&#45;&gt;Node11 -->
<g id="edge10_Node000004_Node000011" class="edge">
<title>Node4&#45;&gt;Node11</title>
<g id="a_edge10_Node000004_Node000011"><a xlink:title=" ">
<path fill="none" stroke="#63b8ff" d="M630.17,-54.98C642.77,-46.84 662,-34.41 676.94,-24.76"/>
<polygon fill="#63b8ff" stroke="#63b8ff" points="679.09,-27.54 685.59,-19.17 675.29,-21.66 679.09,-27.54"/>
</a>
</g>
</g>
<!-- Node12 -->
<g id="Node000012" class="node">
<title>Node12</title>
<g id="a_Node000012"><a xlink:title=" ">
<polygon fill="#e0e0e0" stroke="#999999" points="803,-19 739,-19 739,0 803,0 803,-19"/>
<text text-anchor="middle" x="771" y="-7" font-family="Helvetica,sans-Serif" font-size="10.00">algorithm</text>
</a>
</g>
</g>
<!-- Node4&#45;&gt;Node12 -->
<g id="edge11_Node000004_Node000012" class="edge">
<title>Node4&#45;&gt;Node12</title>
<g id="a_edge11_Node000004_Node000012"><a xlink:title=" ">
<path fill="none" stroke="#63b8ff" d="M641.74,-54.98C667.37,-46.16 707.63,-32.31 736.41,-22.41"/>
<polygon fill="#63b8ff" stroke="#63b8ff" points="737.75,-25.65 746.06,-19.08 735.47,-19.03 737.75,-25.65"/>
</a>
</g>
</g>
<!-- Node13 -->
<g id="Node000013" class="node">
<title>Node13</title>
<g id="a_Node000013"><a xlink:title=" ">
<polygon fill="#e0e0e0" stroke="#999999" points="879,-19 821,-19 821,0 879,0 879,-19"/>
<text text-anchor="middle" x="850" y="-7" font-family="Helvetica,sans-Serif" font-size="10.00">memory</text>
</a>
</g>
</g>
<!-- Node4&#45;&gt;Node13 -->
<g id="edge12_Node000004_Node000013" class="edge">
<title>Node4&#45;&gt;Node13</title>
<g id="a_edge12_Node000004_Node000013"><a xlink:title=" ">
<path fill="none" stroke="#63b8ff" d="M647.94,-56.46C689.95,-46.91 765.03,-29.83 810.89,-19.4"/>
<polygon fill="#63b8ff" stroke="#63b8ff" points="811.79,-22.78 820.77,-17.15 810.24,-15.95 811.79,-22.78"/>
</a>
</g>
</g>
<!-- Node14 -->
<g id="Node000014" class="node">
<title>Node14</title>
<g id="a_Node000014"><a xlink:title=" ">
<polygon fill="#e0e0e0" stroke="#999999" points="962.5,-19 897.5,-19 897.5,0 962.5,0 962.5,-19"/>
<text text-anchor="middle" x="930" y="-7" font-family="Helvetica,sans-Serif" font-size="10.00">functional</text>
</a>
</g>
</g>
<!-- Node4&#45;&gt;Node14 -->
<g id="edge13_Node000004_Node000014" class="edge">
<title>Node4&#45;&gt;Node14</title>
<g id="a_edge13_Node000004_Node000014"><a xlink:title=" ">
<path fill="none" stroke="#63b8ff" d="M647.54,-58.86C696.08,-51.41 794.01,-36.04 887.55,-19.02"/>
<polygon fill="#63b8ff" stroke="#63b8ff" points="888.26,-22.45 897.46,-17.21 887,-15.56 888.26,-22.45"/>
</a>
</g>
</g>
<!-- Node15&#45;&gt;Node4 -->
<g id="edge15_Node000015_Node000004" class="edge">
<title>Node15&#45;&gt;Node4</title>
<g id="a_edge15_Node000015_Node000004"><a xlink:title=" ">
<path fill="none" stroke="#63b8ff" d="M275.65,-111.19C356.13,-100.41 504.74,-80.53 576.34,-70.94"/>
<polygon fill="#63b8ff" stroke="#63b8ff" points="576.88,-74.4 586.33,-69.61 575.95,-67.46 576.88,-74.4"/>
</a>
</g>
</g>
<!-- Node16 -->
<g id="Node000016" class="node">
<title>Node16</title>
<g id="a_Node000016"><a xlink:title=" ">
<polygon fill="#e0e0e0" stroke="#999999" points="448.5,-74 311.5,-74 311.5,-55 448.5,-55 448.5,-74"/>
<text text-anchor="middle" x="380" y="-62" font-family="Helvetica,sans-Serif" font-size="10.00">cantera/ext/fmt/format.h</text>
</a>
</g>
</g>
<!-- Node15&#45;&gt;Node16 -->
<g id="edge16_Node000015_Node000016" class="edge">
<title>Node15&#45;&gt;Node16</title>
<g id="a_edge16_Node000015_Node000016"><a xlink:title=" ">
<path fill="none" stroke="#63b8ff" d="M246.55,-109.98C273.12,-101.13 314.94,-87.19 344.67,-77.28"/>
<polygon fill="#63b8ff" stroke="#63b8ff" points="345.87,-80.56 354.25,-74.08 343.66,-73.92 345.87,-80.56"/>
</a>
</g>
</g>
<!-- Node17 -->
<g id="Node000017" class="node">
<title>Node17</title>
<g id="a_Node000017"><a xlink:title=" ">
<polygon fill="#e0e0e0" stroke="#999999" points="130,-74 0,-74 0,-55 130,-55 130,-74"/>
<text text-anchor="middle" x="65" y="-62" font-family="Helvetica,sans-Serif" font-size="10.00">cantera/ext/fmt/printf.h</text>
</a>
</g>
</g>
<!-- Node15&#45;&gt;Node17 -->
<g id="edge17_Node000015_Node000017" class="edge">
<title>Node15&#45;&gt;Node17</title>
<g id="a_edge17_Node000015_Node000017"><a xlink:title=" ">
<path fill="none" stroke="#63b8ff" d="M195.94,-109.98C169.97,-101.16 129.19,-87.31 100.04,-77.41"/>
<polygon fill="#63b8ff" stroke="#63b8ff" points="100.85,-73.99 90.26,-74.08 98.6,-80.61 100.85,-73.99"/>
</a>
</g>
</g>
<!-- Node18 -->
<g id="Node000018" class="node">
<title>Node18</title>
<g id="a_Node000018"><a xlink:title=" ">
<polygon fill="#e0e0e0" stroke="#999999" points="293.5,-74 148.5,-74 148.5,-55 293.5,-55 293.5,-74"/>
<text text-anchor="middle" x="221" y="-62" font-family="Helvetica,sans-Serif" font-size="10.00">cantera/ext/fmt/ostream.h</text>
</a>
</g>
</g>
<!-- Node15&#45;&gt;Node18 -->
<g id="edge18_Node000015_Node000018" class="edge">
<title>Node15&#45;&gt;Node18</title>
<g id="a_edge18_Node000015_Node000018"><a xlink:title=" ">
<path fill="none" stroke="#63b8ff" d="M221,-109.75C221,-102.8 221,-92.85 221,-84.13"/>
<polygon fill="#63b8ff" stroke="#63b8ff" points="224.5,-84.09 221,-74.09 217.5,-84.09 224.5,-84.09"/>
</a>
</g>
</g>
<!-- Node20&#45;&gt;Node4 -->
<g id="edge21_Node000020_Node000004" class="edge">
<title>Node20&#45;&gt;Node4</title>
<g id="a_edge21_Node000020_Node000004"><a xlink:title=" ">
<path fill="none" stroke="#63b8ff" d="M260.28,-164.81C272.62,-150.72 299.12,-123.16 328,-110 410.41,-72.44 518.3,-65.62 576.15,-64.93"/>
<polygon fill="#63b8ff" stroke="#63b8ff" points="576.37,-68.43 586.35,-64.87 576.33,-61.43 576.37,-68.43"/>
</a>
</g>
</g>
<!-- Node20&#45;&gt;Node15 -->
<g id="edge22_Node000020_Node000015" class="edge">
<title>Node20&#45;&gt;Node15</title>
<g id="a_edge22_Node000020_Node000015"><a xlink:title=" ">
<path fill="none" stroke="#63b8ff" d="M247.72,-164.75C243.29,-157.42 236.84,-146.73 231.38,-137.7"/>
<polygon fill="#63b8ff" stroke="#63b8ff" points="234.35,-135.84 226.19,-129.09 228.36,-139.46 234.35,-135.84"/>
</a>
</g>
</g>
<!-- Node22 -->
<g id="Node000022" class="node">
<title>Node22</title>
<g id="a_Node000022"><a xlink:href="../../de/d7e/BandMatrix_8h.html" target="_top" xlink:title="Declarations for the class BandMatrix which is a child class of GeneralMatrix for banded matrices han...">
<polygon fill="white" stroke="#666666" points="515,-294 345,-294 345,-275 515,-275 515,-294"/>
<text text-anchor="middle" x="430" y="-282" font-family="Helvetica,sans-Serif" font-size="10.00">cantera/numerics/BandMatrix.h</text>
</a>
</g>
</g>
<!-- Node21&#45;&gt;Node22 -->
<g id="edge24_Node000021_Node000022" class="edge">
<title>Node21&#45;&gt;Node22</title>
<g id="a_edge24_Node000021_Node000022"><a xlink:title=" ">
<path fill="none" stroke="#63b8ff" d="M387.42,-329.75C394.77,-322.11 405.63,-310.82 414.54,-301.56"/>
<polygon fill="#63b8ff" stroke="#63b8ff" points="417.32,-303.72 421.74,-294.09 412.28,-298.87 417.32,-303.72"/>
</a>
</g>
</g>
<!-- Node24 -->
<g id="Node000024" class="node">
<title>Node24</title>
<g id="a_Node000024"><a xlink:href="../../de/da1/OneDim_8h.html" target="_top" xlink:title=" ">
<polygon fill="white" stroke="#666666" points="326.5,-294 261.5,-294 261.5,-275 326.5,-275 326.5,-294"/>
<text text-anchor="middle" x="294" y="-282" font-family="Helvetica,sans-Serif" font-size="10.00">OneDim.h</text>
</a>
</g>
</g>
<!-- Node21&#45;&gt;Node24 -->
<g id="edge29_Node000021_Node000024" class="edge">
<title>Node21&#45;&gt;Node24</title>
<g id="a_edge29_Node000021_Node000024"><a xlink:title=" ">
<path fill="none" stroke="#63b8ff" d="M360.23,-329.98C345.51,-321.92 325.5,-309.65 311.21,-300.03"/>
<polygon fill="#63b8ff" stroke="#63b8ff" points="312.97,-296.99 302.76,-294.17 308.98,-302.74 312.97,-296.99"/>
</a>
</g>
</g>
<!-- Node23 -->
<g id="Node000023" class="node">
<title>Node23</title>
<g id="a_Node000023"><a xlink:href="../../da/d15/GeneralMatrix_8h.html" target="_top" xlink:title="Declarations for the class GeneralMatrix which is a virtual base class for matrices handled by solver...">
<polygon fill="white" stroke="#666666" points="477.5,-239 382.5,-239 382.5,-220 477.5,-220 477.5,-239"/>
<text text-anchor="middle" x="430" y="-227" font-family="Helvetica,sans-Serif" font-size="10.00">GeneralMatrix.h</text>
</a>
</g>
</g>
<!-- Node22&#45;&gt;Node23 -->
<g id="edge25_Node000022_Node000023" class="edge">
<title>Node22&#45;&gt;Node23</title>
<g id="a_edge25_Node000022_Node000023"><a xlink:title=" ">
<path fill="none" stroke="#63b8ff" d="M430,-274.75C430,-267.8 430,-257.85 430,-249.13"/>
<polygon fill="#63b8ff" stroke="#63b8ff" points="433.5,-249.09 430,-239.09 426.5,-249.09 433.5,-249.09"/>
</a>
</g>
</g>
<!-- Node23&#45;&gt;Node3 -->
<g id="edge27_Node000023_Node000003" class="edge">
<title>Node23&#45;&gt;Node3</title>
<g id="a_edge27_Node000023_Node000003"><a xlink:title=" ">
<path fill="none" stroke="#63b8ff" d="M432.81,-219.75C435.06,-212.72 438.3,-202.62 441.12,-193.84"/>
<polygon fill="#63b8ff" stroke="#63b8ff" points="444.52,-194.68 444.25,-184.09 437.86,-192.54 444.52,-194.68"/>
</a>
</g>
</g>
<!-- Node23&#45;&gt;Node4 -->
<g id="edge26_Node000023_Node000004" class="edge">
<title>Node23&#45;&gt;Node4</title>
<g id="a_edge26_Node000023_Node000004"><a xlink:title=" ">
<path fill="none" stroke="#63b8ff" d="M405.53,-219.86C389.73,-212.85 370.41,-201.27 361,-184 346.02,-156.5 385.63,-113.94 391,-110 419.91,-88.79 519.23,-75.46 576.12,-69.38"/>
<polygon fill="#63b8ff" stroke="#63b8ff" points="576.63,-72.84 586.22,-68.32 575.91,-65.88 576.63,-72.84"/>
</a>
</g>
</g>
<!-- Node23&#45;&gt;Node20 -->
<g id="edge28_Node000023_Node000020" class="edge">
<title>Node23&#45;&gt;Node20</title>
<g id="a_edge28_Node000023_Node000020"><a xlink:title=" ">
<path fill="none" stroke="#63b8ff" d="M401.56,-219.98C371.72,-211.05 324.62,-196.94 291.47,-187.02"/>
<polygon fill="#63b8ff" stroke="#63b8ff" points="292.24,-183.6 281.66,-184.08 290.24,-190.3 292.24,-183.6"/>
</a>
</g>
</g>
<!-- Node24&#45;&gt;Node2 -->
<g id="edge30_Node000024_Node000002" class="edge">
<title>Node24&#45;&gt;Node2</title>
<g id="a_edge30_Node000024_Node000002"><a xlink:title=" ">
<path fill="none" stroke="#63b8ff" d="M287.23,-274.75C281.44,-267.26 272.94,-256.28 265.86,-247.13"/>
<polygon fill="#63b8ff" stroke="#63b8ff" points="268.53,-244.86 259.64,-239.09 262.99,-249.14 268.53,-244.86"/>
</a>
</g>
</g>
<!-- Node24&#45;&gt;Node21 -->
<g id="edge31_Node000024_Node000021" class="edge">
<title>Node24&#45;&gt;Node21</title>
<g id="a_edge31_Node000024_Node000021"><a xlink:title=" ">
<path fill="none" stroke="#63b8ff" d="M313.05,-294.17C327.83,-302.29 347.84,-314.57 362.06,-324.15"/>
<polygon fill="#63b8ff" stroke="#63b8ff" points="360.25,-327.15 370.46,-329.98 364.24,-321.4 360.25,-327.15"/>
</a>
</g>
</g>
<!-- Node25&#45;&gt;Node4 -->
<g id="edge33_Node000025_Node000004" class="edge">
<title>Node25&#45;&gt;Node4</title>
<g id="a_edge33_Node000025_Node000004"><a xlink:title=" ">
<path fill="none" stroke="#63b8ff" d="M1312.66,-384.96C1336.68,-368.76 1384,-331.07 1384,-285.5 1384,-285.5 1384,-285.5 1384,-173.5 1384,-99.48 816.57,-72.89 657.82,-66.9"/>
<polygon fill="#63b8ff" stroke="#63b8ff" points="657.66,-63.39 647.54,-66.52 657.4,-70.39 657.66,-63.39"/>
</a>
</g>
</g>
<!-- Node26&#45;&gt;Node3 -->
<g id="edge36_Node000026_Node000003" class="edge">
<title>Node26&#45;&gt;Node3</title>
<g id="a_edge36_Node000026_Node000003"><a xlink:title=" ">
<path fill="none" stroke="#63b8ff" d="M845.01,-220.96C762.74,-211.57 621.98,-195.49 531.79,-185.18"/>
<polygon fill="#63b8ff" stroke="#63b8ff" points="531.92,-181.68 521.59,-184.02 531.13,-188.63 531.92,-181.68"/>
</a>
</g>
</g>
<!-- Node26&#45;&gt;Node4 -->
<g id="edge35_Node000026_Node000004" class="edge">
<title>Node26&#45;&gt;Node4</title>
<g id="a_edge35_Node000026_Node000004"><a xlink:title=" ">
<path fill="none" stroke="#63b8ff" d="M846.77,-219.98C821.63,-213.72 794.26,-202.85 775,-184 750.08,-159.62 773.81,-134.49 749,-110 724.63,-85.94 686.83,-74.88 657.92,-69.8"/>
<polygon fill="#63b8ff" stroke="#63b8ff" points="658.13,-66.29 647.71,-68.19 657.04,-73.21 658.13,-66.29"/>
</a>
</g>
</g>
<!-- Node27 -->
<g id="Node000027" class="node">
<title>Node27</title>
<g id="a_Node000027"><a xlink:href="../../da/d58/Units_8h.html" target="_top" xlink:title="Header for unit conversion utilities, which are used to translate user input from input files (See In...">
<polygon fill="white" stroke="#666666" points="1317.5,-184 1200.5,-184 1200.5,-165 1317.5,-165 1317.5,-184"/>
<text text-anchor="middle" x="1259" y="-172" font-family="Helvetica,sans-Serif" font-size="10.00">cantera/base/Units.h</text>
</a>
</g>
</g>
<!-- Node26&#45;&gt;Node27 -->
<g id="edge37_Node000026_Node000027" class="edge">
<title>Node26&#45;&gt;Node27</title>
<g id="a_edge37_Node000026_Node000027"><a xlink:title=" ">
<path fill="none" stroke="#63b8ff" d="M966.91,-219.98C1028.46,-210.61 1127.34,-195.55 1192.74,-185.59"/>
<polygon fill="#63b8ff" stroke="#63b8ff" points="1193.58,-189 1202.94,-184.04 1192.53,-182.08 1193.58,-189"/>
</a>
</g>
</g>
<!-- Node28 -->
<g id="Node000028" class="node">
<title>Node28</title>
<g id="a_Node000028"><a xlink:title=" ">
<polygon fill="#e0e0e0" stroke="#999999" points="1095.5,-184 1002.5,-184 1002.5,-165 1095.5,-165 1095.5,-184"/>
<text text-anchor="middle" x="1049" y="-172" font-family="Helvetica,sans-Serif" font-size="10.00">unordered_map</text>
</a>
</g>
</g>
<!-- Node26&#45;&gt;Node28 -->
<g id="edge39_Node000026_Node000028" class="edge">
<title>Node26&#45;&gt;Node28</title>
<g id="a_edge39_Node000026_Node000028"><a xlink:title=" ">
<path fill="none" stroke="#63b8ff" d="M933.17,-219.98C955.77,-211.3 991.06,-197.75 1016.75,-187.88"/>
<polygon fill="#63b8ff" stroke="#63b8ff" points="1018.34,-191.02 1026.42,-184.17 1015.83,-184.49 1018.34,-191.02"/>
</a>
</g>
</g>
<!-- Node29 -->
<g id="Node000029" class="node">
<title>Node29</title>
<g id="a_Node000029"><a xlink:title=" ">
<polygon fill="#e0e0e0" stroke="#999999" points="1182,-184 1114,-184 1114,-165 1182,-165 1182,-184"/>
<text text-anchor="middle" x="1148" y="-172" font-family="Helvetica,sans-Serif" font-size="10.00">filesystem</text>
</a>
</g>
</g>
<!-- Node26&#45;&gt;Node29 -->
<g id="edge40_Node000026_Node000029" class="edge">
<title>Node26&#45;&gt;Node29</title>
<g id="a_edge40_Node000026_Node000029"><a xlink:title=" ">
<path fill="none" stroke="#63b8ff" d="M949.08,-219.98C991.32,-210.54 1059.39,-195.32 1103.91,-185.36"/>
<polygon fill="#63b8ff" stroke="#63b8ff" points="1104.87,-188.73 1113.86,-183.13 1103.34,-181.9 1104.87,-188.73"/>
</a>
</g>
</g>
<!-- Node30 -->
<g id="Node000030" class="node">
<title>Node30</title>
<g id="a_Node000030"><a xlink:title=" ">
<polygon fill="#e0e0e0" stroke="#999999" points="819.5,-184 784.5,-184 784.5,-165 819.5,-165 819.5,-184"/>
<text text-anchor="middle" x="802" y="-172" font-family="Helvetica,sans-Serif" font-size="10.00">any</text>
</a>
</g>
</g>
<!-- Node26&#45;&gt;Node30 -->
<g id="edge41_Node000026_Node000030" class="edge">
<title>Node26&#45;&gt;Node30</title>
<g id="a_edge41_Node000026_Node000030"><a xlink:title=" ">
<path fill="none" stroke="#63b8ff" d="M893.49,-219.98C876.03,-211.5 848.99,-198.35 828.83,-188.54"/>
<polygon fill="#63b8ff" stroke="#63b8ff" points="830.36,-185.4 819.83,-184.17 827.29,-191.69 830.36,-185.4"/>
</a>
</g>
</g>
<!-- Node31 -->
<g id="Node000031" class="node">
<title>Node31</title>
<g id="a_Node000031"><a xlink:href="../../da/d4c/AnyMap_8inl_8h.html" target="_top" xlink:title=" ">
<polygon fill="white" stroke="#666666" points="984,-184 838,-184 838,-165 984,-165 984,-184"/>
<text text-anchor="middle" x="911" y="-172" font-family="Helvetica,sans-Serif" font-size="10.00">cantera/base/AnyMap.inl.h</text>
</a>
</g>
</g>
<!-- Node26&#45;&gt;Node31 -->
<g id="edge42_Node000026_Node000031" class="edge">
<title>Node26&#45;&gt;Node31</title>
<g id="a_edge42_Node000026_Node000031"><a xlink:title=" ">
<path fill="none" stroke="#63b8ff" d="M905.83,-219.75C904.34,-212.8 903.9,-202.85 904.52,-194.13"/>
<polygon fill="#63b8ff" stroke="#63b8ff" points="908.01,-194.47 905.87,-184.09 901.07,-193.53 908.01,-194.47"/>
</a>
</g>
</g>
<!-- Node27&#45;&gt;Node4 -->
<g id="edge38_Node000027_Node000004" class="edge">
<title>Node27&#45;&gt;Node4</title>
<g id="a_edge38_Node000027_Node000004"><a xlink:title=" ">
<path fill="none" stroke="#63b8ff" d="M1208.36,-164.98C1084.89,-144.21 770.3,-91.29 657.78,-72.36"/>
<polygon fill="#63b8ff" stroke="#63b8ff" points="658.29,-68.9 647.85,-70.69 657.13,-75.8 658.29,-68.9"/>
</a>
</g>
</g>
<!-- Node31&#45;&gt;Node26 -->
<g id="edge43_Node000031_Node000026" class="edge">
<title>Node31&#45;&gt;Node26</title>
<g id="a_edge43_Node000031_Node000026"><a xlink:title=" ">
<path fill="none" stroke="#63b8ff" d="M916.13,-184.09C917.64,-190.99 918.09,-200.93 917.49,-209.66"/>
<polygon fill="#63b8ff" stroke="#63b8ff" points="914,-209.38 916.17,-219.75 920.94,-210.29 914,-209.38"/>
</a>
</g>
</g>
<!-- Node32&#45;&gt;Node3 -->
<g id="edge45_Node000032_Node000003" class="edge">
<title>Node32&#45;&gt;Node3</title>
<g id="a_edge45_Node000032_Node000003"><a xlink:title=" ">
<path fill="none" stroke="#63b8ff" d="M710.41,-275C668.18,-268.1 611.68,-256.6 564,-239 528.75,-225.99 491.08,-203.89 468.28,-189.5"/>
<polygon fill="#63b8ff" stroke="#63b8ff" points="470.06,-186.48 459.75,-184.03 466.28,-192.37 470.06,-186.48"/>
</a>
</g>
</g>
<!-- Node32&#45;&gt;Node26 -->
<g id="edge46_Node000032_Node000026" class="edge">
<title>Node32&#45;&gt;Node26</title>
<g id="a_edge46_Node000032_Node000026"><a xlink:title=" ">
<path fill="none" stroke="#63b8ff" d="M795.17,-274.98C817.77,-266.3 853.06,-252.75 878.75,-242.88"/>
<polygon fill="#63b8ff" stroke="#63b8ff" points="880.34,-246.02 888.42,-239.17 877.83,-239.49 880.34,-246.02"/>
</a>
</g>
</g>
<!-- Node33&#45;&gt;Node20 -->
<g id="edge48_Node000033_Node000020" class="edge">
<title>Node33&#45;&gt;Node20</title>
<g id="a_edge48_Node000033_Node000020"><a xlink:title=" ">
<path fill="none" stroke="#63b8ff" d="M533.1,-274.97C485.86,-268.33 424.89,-257.11 373,-239 368.02,-237.26 311.24,-206.86 277.6,-188.76"/>
<polygon fill="#63b8ff" stroke="#63b8ff" points="279.25,-185.67 268.79,-184.02 275.93,-191.84 279.25,-185.67"/>
</a>
</g>
</g>
<!-- Node33&#45;&gt;Node26 -->
<g id="edge49_Node000033_Node000026" class="edge">
<title>Node33&#45;&gt;Node26</title>
<g id="a_edge49_Node000033_Node000026"><a xlink:title=" ">
<path fill="none" stroke="#63b8ff" d="M659.2,-274.98C711.75,-265.7 795.85,-250.84 852.23,-240.88"/>
<polygon fill="#63b8ff" stroke="#63b8ff" points="853.18,-244.27 862.42,-239.08 851.97,-237.38 853.18,-244.27"/>
</a>
</g>
</g>
<!-- Node34&#45;&gt;Node26 -->
<g id="edge64_Node000034_Node000026" class="edge">
<title>Node34&#45;&gt;Node26</title>
<g id="a_edge64_Node000034_Node000026"><a xlink:title=" ">
<path fill="none" stroke="#63b8ff" d="M905.32,-384.74C906.26,-359.31 908.99,-285.08 910.29,-249.69"/>
<polygon fill="#63b8ff" stroke="#63b8ff" points="913.81,-249.43 910.68,-239.31 906.81,-249.17 913.81,-249.43"/>
</a>
</g>
</g>
<!-- Node34&#45;&gt;Node27 -->
<g id="edge63_Node000034_Node000027" class="edge">
<title>Node34&#45;&gt;Node27</title>
<g id="a_edge63_Node000034_Node000027"><a xlink:title=" ">
<path fill="none" stroke="#63b8ff" d="M960.31,-384.94C992.81,-378.33 1033.88,-367.16 1067,-349 1144.72,-306.39 1216.68,-226.42 1245.6,-191.97"/>
<polygon fill="#63b8ff" stroke="#63b8ff" points="1248.31,-194.18 1252,-184.25 1242.92,-189.71 1248.31,-194.18"/>
</a>
</g>
</g>
<!-- Node35 -->
<g id="Node000035" class="node">
<title>Node35</title>
<g id="a_Node000035"><a xlink:href="../../da/d84/Phase_8h.html" target="_top" xlink:title="Header file for class Phase.">
<polygon fill="white" stroke="#666666" points="674.5,-239 619.5,-239 619.5,-220 674.5,-220 674.5,-239"/>
<text text-anchor="middle" x="647" y="-227" font-family="Helvetica,sans-Serif" font-size="10.00">Phase.h</text>
</a>
</g>
</g>
<!-- Node34&#45;&gt;Node35 -->
<g id="edge51_Node000034_Node000035" class="edge">
<title>Node34&#45;&gt;Node35</title>
<g id="a_edge51_Node000034_Node000035"><a xlink:title=" ">
<path fill="none" stroke="#63b8ff" d="M903.4,-384.72C898.89,-362.57 883.88,-304.06 847,-275 822.17,-255.44 735.39,-241.59 684.67,-234.95"/>
<polygon fill="#63b8ff" stroke="#63b8ff" points="685.1,-231.47 674.73,-233.68 684.21,-238.42 685.1,-231.47"/>
</a>
</g>
</g>
<!-- Node39 -->
<g id="Node000039" class="node">
<title>Node39</title>
<g id="a_Node000039"><a xlink:href="../../d6/d7a/MultiSpeciesThermo_8h.html" target="_top" xlink:title="Header for a general species thermodynamic property manager for a phase (see MultiSpeciesThermo).">
<polygon fill="white" stroke="#666666" points="1058.5,-349 933.5,-349 933.5,-330 1058.5,-330 1058.5,-349"/>
<text text-anchor="middle" x="996" y="-337" font-family="Helvetica,sans-Serif" font-size="10.00">MultiSpeciesThermo.h</text>
</a>
</g>
</g>
<!-- Node34&#45;&gt;Node39 -->
<g id="edge58_Node000034_Node000039" class="edge">
<title>Node34&#45;&gt;Node39</title>
<g id="a_edge58_Node000034_Node000039"><a xlink:title=" ">
<path fill="none" stroke="#63b8ff" d="M919.62,-384.98C933.86,-376.69 955.75,-363.94 972.45,-354.22"/>
<polygon fill="#63b8ff" stroke="#63b8ff" points="974.23,-357.23 981.11,-349.17 970.71,-351.18 974.23,-357.23"/>
</a>
</g>
</g>
<!-- Node35&#45;&gt;Node3 -->
<g id="edge52_Node000035_Node000003" class="edge">
<title>Node35&#45;&gt;Node3</title>
<g id="a_edge52_Node000035_Node000003"><a xlink:title=" ">
<path fill="none" stroke="#63b8ff" d="M619.19,-221.13C585.42,-212.18 528.14,-197 488.99,-186.63"/>
<polygon fill="#63b8ff" stroke="#63b8ff" points="489.77,-183.21 479.2,-184.03 487.97,-189.98 489.77,-183.21"/>
</a>
</g>
</g>
<!-- Node36 -->
<g id="Node000036" class="node">
<title>Node36</title>
<g id="a_Node000036"><a xlink:href="../../d9/dda/Elements_8h.html" target="_top" xlink:title="Contains the getElementWeight function and the definitions of element constraint types.">
<polygon fill="white" stroke="#666666" points="640.5,-129 491.5,-129 491.5,-110 640.5,-110 640.5,-129"/>
<text text-anchor="middle" x="566" y="-117" font-family="Helvetica,sans-Serif" font-size="10.00">cantera/thermo/Elements.h</text>
</a>
</g>
</g>
<!-- Node35&#45;&gt;Node36 -->
<g id="edge53_Node000035_Node000036" class="edge">
<title>Node35&#45;&gt;Node36</title>
<g id="a_edge53_Node000035_Node000036"><a xlink:title=" ">
<path fill="none" stroke="#63b8ff" d="M619.4,-220.1C602.1,-213.29 581.06,-201.85 570,-184 561.73,-170.65 561.41,-152.54 562.76,-139.08"/>
<polygon fill="#63b8ff" stroke="#63b8ff" points="566.24,-139.45 564.15,-129.07 559.31,-138.49 566.24,-139.45"/>
</a>
</g>
</g>
<!-- Node37 -->
<g id="Node000037" class="node">
<title>Node37</title>
<g id="a_Node000037"><a xlink:href="../../d6/df6/ValueCache_8h.html" target="_top" xlink:title=" ">
<polygon fill="white" stroke="#666666" points="728.5,-184 579.5,-184 579.5,-165 728.5,-165 728.5,-184"/>
<text text-anchor="middle" x="654" y="-172" font-family="Helvetica,sans-Serif" font-size="10.00">cantera/base/ValueCache.h</text>
</a>
</g>
</g>
<!-- Node35&#45;&gt;Node37 -->
<g id="edge55_Node000035_Node000037" class="edge">
<title>Node35&#45;&gt;Node37</title>
<g id="a_edge55_Node000035_Node000037"><a xlink:title=" ">
<path fill="none" stroke="#63b8ff" d="M648.16,-219.75C649.07,-212.8 650.39,-202.85 651.54,-194.13"/>
<polygon fill="#63b8ff" stroke="#63b8ff" points="655.03,-194.46 652.87,-184.09 648.09,-193.54 655.03,-194.46"/>
</a>
</g>
</g>
<!-- Node36&#45;&gt;Node4 -->
<g id="edge54_Node000036_Node000004" class="edge">
<title>Node36&#45;&gt;Node4</title>
<g id="a_edge54_Node000036_Node000004"><a xlink:title=" ">
<path fill="none" stroke="#63b8ff" d="M574.42,-109.75C581.77,-102.11 592.63,-90.82 601.54,-81.56"/>
<polygon fill="#63b8ff" stroke="#63b8ff" points="604.32,-83.72 608.74,-74.09 599.28,-78.87 604.32,-83.72"/>
</a>
</g>
</g>
<!-- Node37&#45;&gt;Node4 -->
<g id="edge56_Node000037_Node000004" class="edge">
<title>Node37&#45;&gt;Node4</title>
<g id="a_edge56_Node000037_Node000004"><a xlink:title=" ">
<path fill="none" stroke="#63b8ff" d="M654.75,-164.98C655.54,-152.49 655.84,-128.69 649,-110 645.25,-99.76 638.45,-89.78 632.08,-81.87"/>
<polygon fill="#63b8ff" stroke="#63b8ff" points="634.66,-79.5 625.5,-74.18 629.34,-84.06 634.66,-79.5"/>
</a>
</g>
</g>
<!-- Node38 -->
<g id="Node000038" class="node">
<title>Node38</title>
<g id="a_Node000038"><a xlink:title=" ">
<polygon fill="#e0e0e0" stroke="#999999" points="740,-129 696,-129 696,-110 740,-110 740,-129"/>
<text text-anchor="middle" x="718" y="-117" font-family="Helvetica,sans-Serif" font-size="10.00">limits</text>
</a>
</g>
</g>
<!-- Node37&#45;&gt;Node38 -->
<g id="edge57_Node000037_Node000038" class="edge">
<title>Node37&#45;&gt;Node38</title>
<g id="a_edge57_Node000037_Node000038"><a xlink:title=" ">
<path fill="none" stroke="#63b8ff" d="M664.28,-164.98C673.84,-157.07 688.28,-145.11 699.78,-135.58"/>
<polygon fill="#63b8ff" stroke="#63b8ff" points="702.06,-138.24 707.53,-129.17 697.6,-132.85 702.06,-138.24"/>
</a>
</g>
</g>
<!-- Node40 -->
<g id="Node000040" class="node">
<title>Node40</title>
<g id="a_Node000040"><a xlink:href="../../d4/d87/SpeciesThermoInterpType_8h.html" target="_top" xlink:title="Pure Virtual Base class for individual species reference state thermodynamic managers and text for th...">
<polygon fill="white" stroke="#666666" points="1085,-294 933,-294 933,-275 1085,-275 1085,-294"/>
<text text-anchor="middle" x="1009" y="-282" font-family="Helvetica,sans-Serif" font-size="10.00">SpeciesThermoInterpType.h</text>
</a>
</g>
</g>
<!-- Node39&#45;&gt;Node40 -->
<g id="edge59_Node000039_Node000040" class="edge">
<title>Node39&#45;&gt;Node40</title>
<g id="a_edge59_Node000039_Node000040"><a xlink:title=" ">
<path fill="none" stroke="#63b8ff" d="M998.15,-329.75C999.87,-322.72 1002.35,-312.62 1004.5,-303.84"/>
<polygon fill="#63b8ff" stroke="#63b8ff" points="1007.91,-304.63 1006.89,-294.09 1001.11,-302.97 1007.91,-304.63"/>
</a>
</g>
</g>
<!-- Node40&#45;&gt;Node3 -->
<g id="edge61_Node000040_Node000003" class="edge">
<title>Node40&#45;&gt;Node3</title>
<g id="a_edge61_Node000040_Node000003"><a xlink:title=" ">
<path fill="none" stroke="#63b8ff" d="M932.65,-277.37C834.4,-269.06 669.31,-253.59 610,-239 596.7,-235.73 521.16,-205.52 477.74,-187.97"/>
<polygon fill="#63b8ff" stroke="#63b8ff" points="478.8,-184.63 468.22,-184.12 476.18,-191.12 478.8,-184.63"/>
</a>
</g>
</g>
<!-- Node40&#45;&gt;Node4 -->
<g id="edge60_Node000040_Node000004" class="edge">
<title>Node40&#45;&gt;Node4</title>
<g id="a_edge60_Node000040_Node000004"><a xlink:title=" ">
<path fill="none" stroke="#63b8ff" d="M1085.02,-280.19C1199.86,-272.51 1397.05,-247.26 1326,-165 1281.91,-113.95 802.84,-77.94 658.15,-68.16"/>
<polygon fill="#63b8ff" stroke="#63b8ff" points="658.14,-64.65 647.92,-67.48 657.67,-71.64 658.14,-64.65"/>
</a>
</g>
</g>
<!-- Node40&#45;&gt;Node26 -->
<g id="edge62_Node000040_Node000026" class="edge">
<title>Node40&#45;&gt;Node26</title>
<g id="a_edge62_Node000040_Node000026"><a xlink:title=" ">
<path fill="none" stroke="#63b8ff" d="M993.25,-274.98C977.77,-266.61 953.91,-253.7 935.86,-243.95"/>
<polygon fill="#63b8ff" stroke="#63b8ff" points="937.49,-240.85 927.03,-239.17 934.16,-247.01 937.49,-240.85"/>
</a>
</g>
</g>
</g>
</svg>
