<?xml version="1.0" encoding="UTF-8" standalone="no"?>
<!DOCTYPE svg PUBLIC "-//W3C//DTD SVG 1.1//EN"
 "http://www.w3.org/Graphics/SVG/1.1/DTD/svg11.dtd">
<!-- Generated by graphviz version 2.50.0 (0)
 -->
<!-- Title: Interface.cpp Pages: 1 -->
<!--zoomable 431 -->
<svg id="main" version="1.1" xmlns="http://www.w3.org/2000/svg" xmlns:xlink="http://www.w3.org/1999/xlink" xml:space="preserve" onload="init(evt)">
<style type="text/css"><![CDATA[
.edge:hover path { stroke: red; }
.edge:hover polygon { stroke: red; fill: red; }
]]></style>
<script type="text/javascript"><![CDATA[
var edges = document.getElementsByTagName('g');
if (edges && edges.length) {
  for (var i=0;i<edges.length;i++) {
    if (edges[i].id.substr(0,4)=='edge') {
      edges[i].setAttribute('class','edge');
    }
  }
}
]]></script>
        <defs>
                <circle id="rim" cx="0" cy="0" r="7"/>
                <circle id="rim2" cx="0" cy="0" r="3.5"/>
                <g id="zoomPlus">
                        <use xlink:href="#rim" fill="#404040">
                                <set attributeName="fill" to="#808080" begin="zoomplus.mouseover" end="zoomplus.mouseout"/>
                        </use>
                        <path d="M-4,0h8M0,-4v8" fill="none" stroke="white" stroke-width="1.5" pointer-events="none"/>
                </g>
                <g id="zoomMin">
                        <use xlink:href="#rim" fill="#404040">
                                <set attributeName="fill" to="#808080" begin="zoomminus.mouseover" end="zoomminus.mouseout"/>
                        </use>
                        <path d="M-4,0h8" fill="none" stroke="white" stroke-width="1.5" pointer-events="none"/>
                </g>
                <g id="dirArrow">
                        <path fill="none" stroke="white" stroke-width="1.5" d="M0,-3.0v7 M-2.5,-0.5L0,-3.0L2.5,-0.5"/>
                </g>
               <g id="resetDef">
                       <use xlink:href="#rim2" fill="#404040">
                               <set attributeName="fill" to="#808080" begin="reset.mouseover" end="reset.mouseout"/>
                       </use>
               </g>
        </defs>

<script type="text/javascript">
var viewWidth = 1008;
var viewHeight = 431;
var sectionId = 'dynsection-0';
</script>
<script xlink:href="../../svgpan.js"/>
<svg id="graph" class="graph">
<g id="viewport">
<title>Interface.cpp</title>
<polygon fill="white" stroke="transparent" points="-4,4 -4,-427 1004.49,-427 1004.49,4 -4,4"/>
<!-- Node1 -->
<g id="node1" class="node">
<title>Node1</title>
<g id="a_node1"><a xlink:title=" ">
<polygon fill="#bfbfbf" stroke="black" points="628.5,-403.5 628.5,-422.5 702.5,-422.5 702.5,-403.5 628.5,-403.5"/>
<text text-anchor="middle" x="665.5" y="-410.5" font-family="Helvetica,sans-Serif" font-size="10.00">Interface.cpp</text>
</a>
</g>
</g>
<!-- Node2 -->
<g id="node2" class="node">
<title>Node2</title>
<g id="a_node2"><a xlink:href="../../d7/d91/Interface_8h.html" target="_top" xlink:title=" ">
<polygon fill="white" stroke="black" points="405.5,-347.5 405.5,-366.5 527.5,-366.5 527.5,-347.5 405.5,-347.5"/>
<text text-anchor="middle" x="466.5" y="-354.5" font-family="Helvetica,sans-Serif" font-size="10.00">cantera/base/Interface.h</text>
</a>
</g>
</g>
<!-- Node1&#45;&gt;Node2 -->
<g id="edge1" class="edge">
<title>Node1&#45;&gt;Node2</title>
<path fill="none" stroke="midnightblue" d="M633.97,-403.44C599.91,-394.2 545.49,-379.44 507.98,-369.26"/>
<polygon fill="midnightblue" stroke="midnightblue" points="508.45,-365.76 497.88,-366.52 506.62,-372.51 508.45,-365.76"/>
</g>
<!-- Node52 -->
<g id="node24" class="node">
<title>Node52</title>
<g id="a_node24"><a xlink:href="../../dc/d8e/ThermoFactory_8h.html" target="_top" xlink:title="Headers for the factory class that can create known ThermoPhase objects (see Thermodynamic Properties...">
<polygon fill="white" stroke="black" points="745.5,-286 745.5,-305 903.5,-305 903.5,-286 745.5,-286"/>
<text text-anchor="middle" x="824.5" y="-293" font-family="Helvetica,sans-Serif" font-size="10.00">cantera/thermo/ThermoFactory.h</text>
</a>
</g>
</g>
<!-- Node1&#45;&gt;Node52 -->
<g id="edge36" class="edge">
<title>Node1&#45;&gt;Node52</title>
<path fill="none" stroke="midnightblue" d="M677.45,-403.32C704.5,-383.67 770.66,-335.61 804.24,-311.22"/>
<polygon fill="midnightblue" stroke="midnightblue" points="806.38,-313.99 812.41,-305.28 802.26,-308.33 806.38,-313.99"/>
</g>
<!-- Node56 -->
<g id="node28" class="node">
<title>Node56</title>
<g id="a_node28"><a xlink:href="../../df/d76/KineticsFactory_8h.html" target="_top" xlink:title=" ">
<polygon fill="white" stroke="black" points="603.5,-280.5 603.5,-310.5 727.5,-310.5 727.5,-280.5 603.5,-280.5"/>
<text text-anchor="start" x="611.5" y="-298.5" font-family="Helvetica,sans-Serif" font-size="10.00">cantera/kinetics/Kinetics</text>
<text text-anchor="middle" x="665.5" y="-287.5" font-family="Helvetica,sans-Serif" font-size="10.00">Factory.h</text>
</a>
</g>
</g>
<!-- Node1&#45;&gt;Node56 -->
<g id="edge46" class="edge">
<title>Node1&#45;&gt;Node56</title>
<path fill="none" stroke="midnightblue" d="M665.5,-403.32C665.5,-385.97 665.5,-346.46 665.5,-320.66"/>
<polygon fill="midnightblue" stroke="midnightblue" points="669,-320.55 665.5,-310.55 662,-320.55 669,-320.55"/>
</g>
<!-- Node3 -->
<g id="node3" class="node">
<title>Node3</title>
<g id="a_node3"><a xlink:href="../../d4/dfa/Solution_8h.html" target="_top" xlink:title=" ">
<polygon fill="white" stroke="black" points="358,-224.5 358,-243.5 477,-243.5 477,-224.5 358,-224.5"/>
<text text-anchor="middle" x="417.5" y="-231.5" font-family="Helvetica,sans-Serif" font-size="10.00">cantera/base/Solution.h</text>
</a>
</g>
</g>
<!-- Node2&#45;&gt;Node3 -->
<g id="edge2" class="edge">
<title>Node2&#45;&gt;Node3</title>
<path fill="none" stroke="midnightblue" d="M459.61,-347.17C453.08,-338.43 443.42,-324.44 437.5,-311 429.27,-292.31 423.83,-269.5 420.72,-253.77"/>
<polygon fill="midnightblue" stroke="midnightblue" points="424.13,-252.93 418.87,-243.73 417.24,-254.2 424.13,-252.93"/>
</g>
<!-- Node25 -->
<g id="node13" class="node">
<title>Node25</title>
<g id="a_node13"><a xlink:href="../../d2/de5/SurfPhase_8h.html" target="_top" xlink:title="Header for a simple thermodynamics model of a surface phase derived from ThermoPhase,...">
<polygon fill="white" stroke="black" points="446,-286 446,-305 585,-305 585,-286 446,-286"/>
<text text-anchor="middle" x="515.5" y="-293" font-family="Helvetica,sans-Serif" font-size="10.00">cantera/thermo/SurfPhase.h</text>
</a>
</g>
</g>
<!-- Node2&#45;&gt;Node25 -->
<g id="edge16" class="edge">
<title>Node2&#45;&gt;Node25</title>
<path fill="none" stroke="midnightblue" d="M473.52,-347.48C480.94,-338.46 492.83,-324.02 502.07,-312.81"/>
<polygon fill="midnightblue" stroke="midnightblue" points="504.84,-314.95 508.49,-305.01 499.43,-310.5 504.84,-314.95"/>
</g>
<!-- Node33 -->
<g id="node18" class="node">
<title>Node33</title>
<g id="a_node18"><a xlink:href="../../d7/d0d/InterfaceKinetics_8h.html" target="_top" xlink:title=" ">
<polygon fill="white" stroke="black" points="206,-280.5 206,-310.5 333,-310.5 333,-280.5 206,-280.5"/>
<text text-anchor="start" x="214" y="-298.5" font-family="Helvetica,sans-Serif" font-size="10.00">cantera/kinetics/Interface</text>
<text text-anchor="middle" x="269.5" y="-287.5" font-family="Helvetica,sans-Serif" font-size="10.00">Kinetics.h</text>
</a>
</g>
</g>
<!-- Node2&#45;&gt;Node33 -->
<g id="edge25" class="edge">
<title>Node2&#45;&gt;Node33</title>
<path fill="none" stroke="midnightblue" d="M438.27,-347.48C408.98,-338.63 362.37,-324.55 325.55,-313.43"/>
<polygon fill="midnightblue" stroke="midnightblue" points="326.51,-310.06 315.93,-310.52 324.49,-316.76 326.51,-310.06"/>
</g>
<!-- Node4 -->
<g id="node4" class="node">
<title>Node4</title>
<g id="a_node4"><a xlink:href="../../db/d98/ctexceptions_8h.html" target="_top" xlink:title="Definitions for the classes that are thrown when Cantera experiences an error condition (also contain...">
<polygon fill="white" stroke="black" points="283.5,-112.5 283.5,-131.5 423.5,-131.5 423.5,-112.5 283.5,-112.5"/>
<text text-anchor="middle" x="353.5" y="-119.5" font-family="Helvetica,sans-Serif" font-size="10.00">cantera/base/ctexceptions.h</text>
</a>
</g>
</g>
<!-- Node3&#45;&gt;Node4 -->
<g id="edge3" class="edge">
<title>Node3&#45;&gt;Node4</title>
<path fill="none" stroke="midnightblue" d="M401.07,-224.5C388.03,-216.82 370.54,-204.24 361.5,-188 353.63,-173.88 352.04,-155.39 352.17,-141.74"/>
<polygon fill="midnightblue" stroke="midnightblue" points="355.68,-141.76 352.59,-131.62 348.68,-141.47 355.68,-141.76"/>
</g>
<!-- Node18 -->
<g id="node8" class="node">
<title>Node18</title>
<g id="a_node8"><a xlink:href="../../dd/d2a/AnyMap_8h.html" target="_top" xlink:title=" ">
<polygon fill="white" stroke="black" points="612.5,-168.5 612.5,-187.5 732.5,-187.5 732.5,-168.5 612.5,-168.5"/>
<text text-anchor="middle" x="672.5" y="-175.5" font-family="Helvetica,sans-Serif" font-size="10.00">cantera/base/AnyMap.h</text>
</a>
</g>
</g>
<!-- Node3&#45;&gt;Node18 -->
<g id="edge7" class="edge">
<title>Node3&#45;&gt;Node18</title>
<path fill="none" stroke="midnightblue" d="M457.91,-224.44C502.48,-215 574.27,-199.8 622.39,-189.61"/>
<polygon fill="midnightblue" stroke="midnightblue" points="623.23,-193.01 632.28,-187.52 621.78,-186.16 623.23,-193.01"/>
</g>
<!-- Node5 -->
<g id="node5" class="node">
<title>Node5</title>
<g id="a_node5"><a xlink:href="../../db/def/fmt_8h.html" target="_top" xlink:title="Wrapper for either system&#45;installed or local headers for fmt.">
<polygon fill="white" stroke="red" points="271.5,-56.5 271.5,-75.5 369.5,-75.5 369.5,-56.5 271.5,-56.5"/>
<text text-anchor="middle" x="320.5" y="-63.5" font-family="Helvetica,sans-Serif" font-size="10.00">cantera/base/fmt.h</text>
</a>
</g>
</g>
<!-- Node4&#45;&gt;Node5 -->
<g id="edge4" class="edge">
<title>Node4&#45;&gt;Node5</title>
<path fill="none" stroke="midnightblue" d="M348.05,-112.08C343.49,-104.61 336.83,-93.72 331.21,-84.52"/>
<polygon fill="midnightblue" stroke="midnightblue" points="334.05,-82.46 325.85,-75.75 328.08,-86.11 334.05,-82.46"/>
</g>
<!-- Node17 -->
<g id="node7" class="node">
<title>Node17</title>
<g id="a_node7"><a xlink:title=" ">
<polygon fill="white" stroke="#bfbfbf" points="388,-56.5 388,-75.5 447,-75.5 447,-56.5 388,-56.5"/>
<text text-anchor="middle" x="417.5" y="-63.5" font-family="Helvetica,sans-Serif" font-size="10.00">exception</text>
</a>
</g>
</g>
<!-- Node4&#45;&gt;Node17 -->
<g id="edge6" class="edge">
<title>Node4&#45;&gt;Node17</title>
<path fill="none" stroke="midnightblue" d="M363.78,-112.32C373.34,-104.26 387.78,-92.08 399.28,-82.37"/>
<polygon fill="midnightblue" stroke="midnightblue" points="401.64,-84.96 407.03,-75.83 397.13,-79.61 401.64,-84.96"/>
</g>
<!-- Node6 -->
<g id="node6" class="node">
<title>Node6</title>
<g id="a_node6"><a xlink:href="../../d9/ddc/ct__defs_8h.html" target="_top" xlink:title="This file contains definitions of constants, types and terms that are used in internal routines and a...">
<polygon fill="white" stroke="red" points="396,-0.5 396,-19.5 453,-19.5 453,-0.5 396,-0.5"/>
<text text-anchor="middle" x="424.5" y="-7.5" font-family="Helvetica,sans-Serif" font-size="10.00">ct_defs.h</text>
</a>
</g>
</g>
<!-- Node5&#45;&gt;Node6 -->
<g id="edge5" class="edge">
<title>Node5&#45;&gt;Node6</title>
<path fill="none" stroke="midnightblue" d="M337.21,-56.32C353.81,-47.7 379.5,-34.36 398.72,-24.39"/>
<polygon fill="midnightblue" stroke="midnightblue" points="400.57,-27.37 407.83,-19.65 397.34,-21.16 400.57,-27.37"/>
</g>
<!-- Node18&#45;&gt;Node4 -->
<g id="edge9" class="edge">
<title>Node18&#45;&gt;Node4</title>
<path fill="none" stroke="midnightblue" d="M621.95,-168.44C565.49,-158.89 474.13,-143.42 413.93,-133.23"/>
<polygon fill="midnightblue" stroke="midnightblue" points="414.25,-129.73 403.81,-131.52 413.09,-136.64 414.25,-129.73"/>
</g>
<!-- Node18&#45;&gt;Node6 -->
<g id="edge8" class="edge">
<title>Node18&#45;&gt;Node6</title>
<path fill="none" stroke="midnightblue" d="M657.37,-168.34C642.08,-159.49 617.88,-145.22 597.5,-132 540.96,-95.33 476.41,-48.92 444.51,-25.68"/>
<polygon fill="midnightblue" stroke="midnightblue" points="446.19,-22.58 436.05,-19.5 442.06,-28.23 446.19,-22.58"/>
</g>
<!-- Node19 -->
<g id="node9" class="node">
<title>Node19</title>
<g id="a_node9"><a xlink:href="../../da/d58/Units_8h.html" target="_top" xlink:title="Header for unit conversion utilities, which are used to translate user input from input files (See In...">
<polygon fill="white" stroke="black" points="442,-112.5 442,-131.5 549,-131.5 549,-112.5 442,-112.5"/>
<text text-anchor="middle" x="495.5" y="-119.5" font-family="Helvetica,sans-Serif" font-size="10.00">cantera/base/Units.h</text>
</a>
</g>
</g>
<!-- Node18&#45;&gt;Node19 -->
<g id="edge10" class="edge">
<title>Node18&#45;&gt;Node19</title>
<path fill="none" stroke="midnightblue" d="M644.45,-168.44C614.42,-159.28 566.59,-144.69 533.26,-134.52"/>
<polygon fill="midnightblue" stroke="midnightblue" points="534,-131.09 523.41,-131.52 531.96,-137.78 534,-131.09"/>
</g>
<!-- Node20 -->
<g id="node10" class="node">
<title>Node20</title>
<g id="a_node10"><a xlink:title=" ">
<polygon fill="white" stroke="#bfbfbf" points="834,-112.5 834,-131.5 917,-131.5 917,-112.5 834,-112.5"/>
<text text-anchor="middle" x="875.5" y="-119.5" font-family="Helvetica,sans-Serif" font-size="10.00">unordered_map</text>
</a>
</g>
</g>
<!-- Node18&#45;&gt;Node20 -->
<g id="edge12" class="edge">
<title>Node18&#45;&gt;Node20</title>
<path fill="none" stroke="midnightblue" d="M704.67,-168.44C739.56,-159.16 795.39,-144.31 833.67,-134.13"/>
<polygon fill="midnightblue" stroke="midnightblue" points="834.72,-137.47 843.48,-131.52 832.92,-130.7 834.72,-137.47"/>
</g>
<!-- Node21 -->
<g id="node11" class="node">
<title>Node21</title>
<g id="a_node11"><a xlink:title=" ">
<polygon fill="white" stroke="#bfbfbf" points="757,-112.5 757,-131.5 816,-131.5 816,-112.5 757,-112.5"/>
<text text-anchor="middle" x="786.5" y="-119.5" font-family="Helvetica,sans-Serif" font-size="10.00">functional</text>
</a>
</g>
</g>
<!-- Node18&#45;&gt;Node21 -->
<g id="edge13" class="edge">
<title>Node18&#45;&gt;Node21</title>
<path fill="none" stroke="midnightblue" d="M690.56,-168.44C709.07,-159.68 738.08,-145.94 759.36,-135.86"/>
<polygon fill="midnightblue" stroke="midnightblue" points="760.98,-138.96 768.52,-131.52 757.99,-132.63 760.98,-138.96"/>
</g>
<!-- Node22 -->
<g id="node12" class="node">
<title>Node22</title>
<g id="a_node12"><a xlink:href="../../da/d4c/AnyMap_8inl_8h.html" target="_top" xlink:title=" ">
<polygon fill="white" stroke="red" points="606,-112.5 606,-131.5 739,-131.5 739,-112.5 606,-112.5"/>
<text text-anchor="middle" x="672.5" y="-119.5" font-family="Helvetica,sans-Serif" font-size="10.00">cantera/base/AnyMap.inl.h</text>
</a>
</g>
</g>
<!-- Node18&#45;&gt;Node22 -->
<g id="edge14" class="edge">
<title>Node18&#45;&gt;Node22</title>
<path fill="none" stroke="midnightblue" d="M667.33,-168.08C665.82,-160.93 665.39,-150.64 666.04,-141.69"/>
<polygon fill="midnightblue" stroke="midnightblue" points="669.52,-142.13 667.37,-131.75 662.58,-141.2 669.52,-142.13"/>
</g>
<!-- Node19&#45;&gt;Node6 -->
<g id="edge11" class="edge">
<title>Node19&#45;&gt;Node6</title>
<path fill="none" stroke="midnightblue" d="M490.66,-112.46C483.48,-99.91 469.47,-75.82 456.5,-56 450.33,-46.57 443.09,-36.32 437.05,-27.99"/>
<polygon fill="midnightblue" stroke="midnightblue" points="439.81,-25.83 431.08,-19.82 434.16,-29.96 439.81,-25.83"/>
</g>
<!-- Node22&#45;&gt;Node18 -->
<g id="edge15" class="edge">
<title>Node22&#45;&gt;Node18</title>
<path fill="none" stroke="midnightblue" d="M677.63,-131.75C679.16,-138.86 679.6,-149.14 678.97,-158.1"/>
<polygon fill="midnightblue" stroke="midnightblue" points="675.49,-157.71 677.67,-168.08 682.43,-158.62 675.49,-157.71"/>
</g>
<!-- Node26 -->
<g id="node14" class="node">
<title>Node26</title>
<g id="a_node14"><a xlink:href="../../d7/d01/ThermoPhase_8h.html" target="_top" xlink:title="Header file for class ThermoPhase, the base class for phases with thermodynamic properties,...">
<polygon fill="white" stroke="black" points="520.5,-224.5 520.5,-243.5 606.5,-243.5 606.5,-224.5 520.5,-224.5"/>
<text text-anchor="middle" x="563.5" y="-231.5" font-family="Helvetica,sans-Serif" font-size="10.00">ThermoPhase.h</text>
</a>
</g>
</g>
<!-- Node25&#45;&gt;Node26 -->
<g id="edge17" class="edge">
<title>Node25&#45;&gt;Node26</title>
<path fill="none" stroke="midnightblue" d="M522.38,-285.98C529.65,-276.96 541.3,-262.52 550.34,-251.31"/>
<polygon fill="midnightblue" stroke="midnightblue" points="553.08,-253.49 556.64,-243.51 547.63,-249.09 553.08,-253.49"/>
</g>
<!-- Node26&#45;&gt;Node18 -->
<g id="edge24" class="edge">
<title>Node26&#45;&gt;Node18</title>
<path fill="none" stroke="midnightblue" d="M581.01,-224.32C598.57,-215.62 625.83,-202.12 646.03,-192.11"/>
<polygon fill="midnightblue" stroke="midnightblue" points="647.62,-195.23 655.03,-187.65 644.52,-188.96 647.62,-195.23"/>
</g>
<!-- Node26&#45;&gt;Node19 -->
<g id="edge23" class="edge">
<title>Node26&#45;&gt;Node19</title>
<path fill="none" stroke="midnightblue" d="M566.37,-224.37C570.18,-211.28 575.35,-186.04 565.5,-168 557.68,-153.68 543.14,-143.24 529.32,-136.04"/>
<polygon fill="midnightblue" stroke="midnightblue" points="530.5,-132.72 519.97,-131.56 527.48,-139.03 530.5,-132.72"/>
</g>
<!-- Node27 -->
<g id="node15" class="node">
<title>Node27</title>
<g id="a_node15"><a xlink:href="../../da/d84/Phase_8h.html" target="_top" xlink:title="Header file for class Phase.">
<polygon fill="white" stroke="red" points="503,-168.5 503,-187.5 556,-187.5 556,-168.5 503,-168.5"/>
<text text-anchor="middle" x="529.5" y="-175.5" font-family="Helvetica,sans-Serif" font-size="10.00">Phase.h</text>
</a>
</g>
</g>
<!-- Node26&#45;&gt;Node27 -->
<g id="edge18" class="edge">
<title>Node26&#45;&gt;Node27</title>
<path fill="none" stroke="midnightblue" d="M557.89,-224.08C553.13,-216.53 546.18,-205.49 540.35,-196.23"/>
<polygon fill="midnightblue" stroke="midnightblue" points="543.3,-194.35 535.01,-187.75 537.38,-198.08 543.3,-194.35"/>
</g>
<!-- Node31 -->
<g id="node17" class="node">
<title>Node31</title>
<g id="a_node17"><a xlink:href="../../d6/d7a/MultiSpeciesThermo_8h.html" target="_top" xlink:title="Header for a general species thermodynamic property manager for a phase (see MultiSpeciesThermo).">
<polygon fill="white" stroke="red" points="370.5,-168.5 370.5,-187.5 484.5,-187.5 484.5,-168.5 370.5,-168.5"/>
<text text-anchor="middle" x="427.5" y="-175.5" font-family="Helvetica,sans-Serif" font-size="10.00">MultiSpeciesThermo.h</text>
</a>
</g>
</g>
<!-- Node26&#45;&gt;Node31 -->
<g id="edge22" class="edge">
<title>Node26&#45;&gt;Node31</title>
<path fill="none" stroke="midnightblue" d="M541.95,-224.44C519.47,-215.52 484.01,-201.44 458.52,-191.32"/>
<polygon fill="midnightblue" stroke="midnightblue" points="459.53,-187.95 448.95,-187.52 456.95,-194.46 459.53,-187.95"/>
</g>
<!-- Node27&#45;&gt;Node4 -->
<g id="edge19" class="edge">
<title>Node27&#45;&gt;Node4</title>
<path fill="none" stroke="midnightblue" d="M502.77,-168.8C473.05,-159.68 424.83,-144.88 391.26,-134.59"/>
<polygon fill="midnightblue" stroke="midnightblue" points="391.94,-131.13 381.36,-131.55 389.89,-137.83 391.94,-131.13"/>
</g>
<!-- Node29 -->
<g id="node16" class="node">
<title>Node29</title>
<g id="a_node16"><a xlink:href="../../d6/df6/ValueCache_8h.html" target="_top" xlink:title=" ">
<polygon fill="white" stroke="red" points="0,-112.5 0,-131.5 137,-131.5 137,-112.5 0,-112.5"/>
<text text-anchor="middle" x="68.5" y="-119.5" font-family="Helvetica,sans-Serif" font-size="10.00">cantera/base/ValueCache.h</text>
</a>
</g>
</g>
<!-- Node27&#45;&gt;Node29 -->
<g id="edge20" class="edge">
<title>Node27&#45;&gt;Node29</title>
<path fill="none" stroke="midnightblue" d="M502.85,-169.89C499.71,-169.19 496.55,-168.54 493.5,-168 344.08,-141.71 302.41,-148.57 147.75,-132.11"/>
<polygon fill="midnightblue" stroke="midnightblue" points="147.72,-128.59 137.4,-130.99 146.96,-135.55 147.72,-128.59"/>
</g>
<!-- Node29&#45;&gt;Node6 -->
<g id="edge21" class="edge">
<title>Node29&#45;&gt;Node6</title>
<path fill="none" stroke="midnightblue" d="M88.23,-112.44C119.47,-99.1 182.42,-73.14 237.5,-56 288.07,-40.27 347.75,-26.76 385.84,-18.75"/>
<polygon fill="midnightblue" stroke="midnightblue" points="386.91,-22.11 395.99,-16.65 385.49,-15.25 386.91,-22.11"/>
</g>
<!-- Node34 -->
<g id="node19" class="node">
<title>Node34</title>
<g id="a_node19"><a xlink:href="../../d5/db4/Kinetics_8h.html" target="_top" xlink:title="Base class for kinetics managers and also contains the kineticsmgr module documentation (see Kinetics...">
<polygon fill="white" stroke="black" points="239.5,-224.5 239.5,-243.5 299.5,-243.5 299.5,-224.5 239.5,-224.5"/>
<text text-anchor="middle" x="269.5" y="-231.5" font-family="Helvetica,sans-Serif" font-size="10.00">Kinetics.h</text>
</a>
</g>
</g>
<!-- Node33&#45;&gt;Node34 -->
<g id="edge26" class="edge">
<title>Node33&#45;&gt;Node34</title>
<path fill="none" stroke="midnightblue" d="M269.5,-280.4C269.5,-272.47 269.5,-262.46 269.5,-253.86"/>
<polygon fill="midnightblue" stroke="midnightblue" points="273,-253.66 269.5,-243.66 266,-253.66 273,-253.66"/>
</g>
<!-- Node38 -->
<g id="node21" class="node">
<title>Node38</title>
<g id="a_node21"><a xlink:href="../../d4/d81/RateCoeffMgr_8h.html" target="_top" xlink:title=" ">
<polygon fill="white" stroke="black" points="132.5,-224.5 132.5,-243.5 218.5,-243.5 218.5,-224.5 132.5,-224.5"/>
<text text-anchor="middle" x="175.5" y="-231.5" font-family="Helvetica,sans-Serif" font-size="10.00">RateCoeffMgr.h</text>
</a>
</g>
</g>
<!-- Node33&#45;&gt;Node38 -->
<g id="edge30" class="edge">
<title>Node33&#45;&gt;Node38</title>
<path fill="none" stroke="midnightblue" d="M247.22,-280.4C232.3,-270.95 212.72,-258.56 197.79,-249.11"/>
<polygon fill="midnightblue" stroke="midnightblue" points="199.5,-246.05 189.18,-243.66 195.76,-251.96 199.5,-246.05"/>
</g>
<!-- Node34&#45;&gt;Node29 -->
<g id="edge29" class="edge">
<title>Node34&#45;&gt;Node29</title>
<path fill="none" stroke="midnightblue" d="M239.32,-225.32C203.72,-215.92 147.03,-199.8 128.5,-188 108.76,-175.43 91.26,-154.79 80.33,-140.15"/>
<polygon fill="midnightblue" stroke="midnightblue" points="83.1,-138 74.41,-131.93 77.42,-142.09 83.1,-138"/>
</g>
<!-- Node35 -->
<g id="node20" class="node">
<title>Node35</title>
<g id="a_node20"><a xlink:href="../../dd/dfd/StoichManager_8h.html" target="_top" xlink:title=" ">
<polygon fill="white" stroke="red" points="225,-168.5 225,-187.5 314,-187.5 314,-168.5 225,-168.5"/>
<text text-anchor="middle" x="269.5" y="-175.5" font-family="Helvetica,sans-Serif" font-size="10.00">StoichManager.h</text>
</a>
</g>
</g>
<!-- Node34&#45;&gt;Node35 -->
<g id="edge27" class="edge">
<title>Node34&#45;&gt;Node35</title>
<path fill="none" stroke="midnightblue" d="M269.5,-224.08C269.5,-217.01 269.5,-206.86 269.5,-197.99"/>
<polygon fill="midnightblue" stroke="midnightblue" points="273,-197.75 269.5,-187.75 266,-197.75 273,-197.75"/>
</g>
<!-- Node35&#45;&gt;Node4 -->
<g id="edge28" class="edge">
<title>Node35&#45;&gt;Node4</title>
<path fill="none" stroke="midnightblue" d="M283,-168.32C296.1,-159.9 316.21,-146.97 331.61,-137.07"/>
<polygon fill="midnightblue" stroke="midnightblue" points="333.52,-140.01 340.04,-131.65 329.73,-134.12 333.52,-140.01"/>
</g>
<!-- Node39 -->
<g id="node22" class="node">
<title>Node39</title>
<g id="a_node22"><a xlink:href="../../da/d70/RxnRates_8h.html" target="_top" xlink:title=" ">
<polygon fill="white" stroke="red" points="138,-168.5 138,-187.5 207,-187.5 207,-168.5 138,-168.5"/>
<text text-anchor="middle" x="172.5" y="-175.5" font-family="Helvetica,sans-Serif" font-size="10.00">RxnRates.h</text>
</a>
</g>
</g>
<!-- Node38&#45;&gt;Node39 -->
<g id="edge31" class="edge">
<title>Node38&#45;&gt;Node39</title>
<path fill="none" stroke="midnightblue" d="M175,-224.08C174.61,-217.01 174.05,-206.86 173.55,-197.99"/>
<polygon fill="midnightblue" stroke="midnightblue" points="177.04,-197.54 172.99,-187.75 170.05,-197.93 177.04,-197.54"/>
</g>
<!-- Node39&#45;&gt;Node4 -->
<g id="edge32" class="edge">
<title>Node39&#45;&gt;Node4</title>
<path fill="none" stroke="midnightblue" d="M201.18,-168.44C232.03,-159.24 281.23,-144.56 315.33,-134.39"/>
<polygon fill="midnightblue" stroke="midnightblue" points="316.37,-137.73 324.95,-131.52 314.37,-131.02 316.37,-137.73"/>
</g>
<!-- Node51 -->
<g id="node23" class="node">
<title>Node51</title>
<g id="a_node23"><a xlink:href="../../d2/d49/global_8h.html" target="_top" xlink:title="This file contains definitions for utility functions and text for modules, inputfiles,...">
<polygon fill="white" stroke="black" points="155.5,-112.5 155.5,-131.5 265.5,-131.5 265.5,-112.5 155.5,-112.5"/>
<text text-anchor="middle" x="210.5" y="-119.5" font-family="Helvetica,sans-Serif" font-size="10.00">cantera/base/global.h</text>
</a>
</g>
</g>
<!-- Node39&#45;&gt;Node51 -->
<g id="edge33" class="edge">
<title>Node39&#45;&gt;Node51</title>
<path fill="none" stroke="midnightblue" d="M178.77,-168.08C184.14,-160.46 192.02,-149.26 198.58,-139.94"/>
<polygon fill="midnightblue" stroke="midnightblue" points="201.45,-141.94 204.34,-131.75 195.72,-137.91 201.45,-141.94"/>
</g>
<!-- Node51&#45;&gt;Node5 -->
<g id="edge35" class="edge">
<title>Node51&#45;&gt;Node5</title>
<path fill="none" stroke="midnightblue" d="M228.17,-112.32C245.89,-103.62 273.4,-90.12 293.79,-80.11"/>
<polygon fill="midnightblue" stroke="midnightblue" points="295.44,-83.2 302.87,-75.65 292.35,-76.92 295.44,-83.2"/>
</g>
<!-- Node51&#45;&gt;Node6 -->
<g id="edge34" class="edge">
<title>Node51&#45;&gt;Node6</title>
<path fill="none" stroke="midnightblue" d="M215.01,-112.4C222.78,-98.41 240.07,-70.81 262.5,-56 300.03,-31.22 351.06,-19.97 385.75,-14.94"/>
<polygon fill="midnightblue" stroke="midnightblue" points="386.51,-18.37 395.96,-13.57 385.58,-11.43 386.51,-18.37"/>
</g>
<!-- Node52&#45;&gt;Node26 -->
<g id="edge37" class="edge">
<title>Node52&#45;&gt;Node26</title>
<path fill="none" stroke="midnightblue" d="M787.11,-285.98C740.69,-275.39 661.48,-257.34 610.86,-245.8"/>
<polygon fill="midnightblue" stroke="midnightblue" points="611.35,-242.32 600.83,-243.51 609.8,-249.14 611.35,-242.32"/>
</g>
<!-- Node53 -->
<g id="node25" class="node">
<title>Node53</title>
<g id="a_node25"><a xlink:href="../../d0/d62/xml_8h.html" target="_top" xlink:title="Classes providing support for XML data files.">
<polygon fill="white" stroke="black" points="781.5,-56.5 781.5,-75.5 881.5,-75.5 881.5,-56.5 781.5,-56.5"/>
<text text-anchor="middle" x="831.5" y="-63.5" font-family="Helvetica,sans-Serif" font-size="10.00">cantera/base/xml.h</text>
</a>
</g>
</g>
<!-- Node52&#45;&gt;Node53 -->
<g id="edge38" class="edge">
<title>Node52&#45;&gt;Node53</title>
<path fill="none" stroke="midnightblue" d="M843.7,-285.86C897.49,-260.48 1042.34,-183.44 988.5,-112 976.59,-96.2 931.03,-84.26 892.03,-76.66"/>
<polygon fill="midnightblue" stroke="midnightblue" points="892.23,-73.14 881.76,-74.73 890.94,-80.01 892.23,-73.14"/>
</g>
<!-- Node54 -->
<g id="node26" class="node">
<title>Node54</title>
<g id="a_node26"><a xlink:href="../../d6/dd5/FactoryBase_8h.html" target="_top" xlink:title="File contains the FactoryBase class declarations.">
<polygon fill="white" stroke="black" points="750.5,-168.5 750.5,-187.5 890.5,-187.5 890.5,-168.5 750.5,-168.5"/>
<text text-anchor="middle" x="820.5" y="-175.5" font-family="Helvetica,sans-Serif" font-size="10.00">cantera/base/FactoryBase.h</text>
</a>
</g>
</g>
<!-- Node52&#45;&gt;Node54 -->
<g id="edge40" class="edge">
<title>Node52&#45;&gt;Node54</title>
<path fill="none" stroke="midnightblue" d="M824.2,-285.82C823.56,-267.26 822.04,-223.34 821.16,-197.97"/>
<polygon fill="midnightblue" stroke="midnightblue" points="824.65,-197.65 820.8,-187.78 817.65,-197.9 824.65,-197.65"/>
</g>
<!-- Node53&#45;&gt;Node6 -->
<g id="edge39" class="edge">
<title>Node53&#45;&gt;Node6</title>
<path fill="none" stroke="midnightblue" d="M781.19,-58.32C698.99,-47.42 537.64,-26.01 463.47,-16.17"/>
<polygon fill="midnightblue" stroke="midnightblue" points="463.56,-12.65 453.18,-14.81 462.64,-19.59 463.56,-12.65"/>
</g>
<!-- Node54&#45;&gt;Node4 -->
<g id="edge44" class="edge">
<title>Node54&#45;&gt;Node4</title>
<path fill="none" stroke="midnightblue" d="M750.33,-168.89C665.5,-159.08 523.04,-142.6 433.88,-132.29"/>
<polygon fill="midnightblue" stroke="midnightblue" points="434.15,-128.8 423.81,-131.13 433.34,-135.76 434.15,-128.8"/>
</g>
<!-- Node54&#45;&gt;Node20 -->
<g id="edge42" class="edge">
<title>Node54&#45;&gt;Node20</title>
<path fill="none" stroke="midnightblue" d="M829.58,-168.08C837.67,-160.14 849.7,-148.34 859.41,-138.8"/>
<polygon fill="midnightblue" stroke="midnightblue" points="861.9,-141.25 866.59,-131.75 857,-136.26 861.9,-141.25"/>
</g>
<!-- Node54&#45;&gt;Node21 -->
<g id="edge43" class="edge">
<title>Node54&#45;&gt;Node21</title>
<path fill="none" stroke="midnightblue" d="M814.89,-168.08C810.13,-160.53 803.18,-149.49 797.35,-140.23"/>
<polygon fill="midnightblue" stroke="midnightblue" points="800.3,-138.35 792.01,-131.75 794.38,-142.08 800.3,-138.35"/>
</g>
<!-- Node54&#45;&gt;Node51 -->
<g id="edge45" class="edge">
<title>Node54&#45;&gt;Node51</title>
<path fill="none" stroke="midnightblue" d="M750.3,-168.87C747.33,-168.57 744.39,-168.28 741.5,-168 537.51,-148.52 483.14,-154.32 275.63,-132.06"/>
<polygon fill="midnightblue" stroke="midnightblue" points="275.95,-128.57 265.63,-130.98 275.2,-135.53 275.95,-128.57"/>
</g>
<!-- Node55 -->
<g id="node27" class="node">
<title>Node55</title>
<g id="a_node27"><a xlink:title=" ">
<polygon fill="white" stroke="#bfbfbf" points="935.5,-112.5 935.5,-131.5 979.5,-131.5 979.5,-112.5 935.5,-112.5"/>
<text text-anchor="middle" x="957.5" y="-119.5" font-family="Helvetica,sans-Serif" font-size="10.00">mutex</text>
</a>
</g>
</g>
<!-- Node54&#45;&gt;Node55 -->
<g id="edge41" class="edge">
<title>Node54&#45;&gt;Node55</title>
<path fill="none" stroke="midnightblue" d="M842.21,-168.44C864.85,-159.52 900.57,-145.44 926.25,-135.32"/>
<polygon fill="midnightblue" stroke="midnightblue" points="927.87,-138.44 935.89,-131.52 925.31,-131.93 927.87,-138.44"/>
</g>
<!-- Node56&#45;&gt;Node18 -->
<g id="edge49" class="edge">
<title>Node56&#45;&gt;Node18</title>
<path fill="none" stroke="midnightblue" d="M666.36,-280.34C667.61,-259.62 669.95,-221.02 671.35,-197.9"/>
<polygon fill="midnightblue" stroke="midnightblue" points="674.86,-197.86 671.97,-187.67 667.88,-197.44 674.86,-197.86"/>
</g>
<!-- Node56&#45;&gt;Node34 -->
<g id="edge47" class="edge">
<title>Node56&#45;&gt;Node34</title>
<path fill="none" stroke="midnightblue" d="M603.2,-281.54C600.26,-281.01 597.35,-280.49 594.5,-280 492.33,-262.51 371.2,-247.15 309.68,-239.73"/>
<polygon fill="midnightblue" stroke="midnightblue" points="309.97,-236.23 299.62,-238.52 309.13,-243.18 309.97,-236.23"/>
</g>
<!-- Node56&#45;&gt;Node54 -->
<g id="edge48" class="edge">
<title>Node56&#45;&gt;Node54</title>
<path fill="none" stroke="midnightblue" d="M684.51,-280.34C714.08,-258.3 770.84,-216.01 800.82,-193.66"/>
<polygon fill="midnightblue" stroke="midnightblue" points="802.94,-196.45 808.87,-187.67 798.76,-190.84 802.94,-196.45"/>
</g>
</g>
</svg>
        <g id="navigator" transform="translate(0 0)" fill="#404254">
                <rect fill="#f2f5e9" fill-opacity="0.5" stroke="#606060" stroke-width=".5" x="0" y="0" width="60" height="60"/>
                <use id="zoomplus" xlink:href="#zoomPlus" x="17" y="9" onmousedown="handleZoom(evt,'in')"/>
                <use id="zoomminus" xlink:href="#zoomMin" x="42" y="9" onmousedown="handleZoom(evt,'out')"/>
                <use id="reset" xlink:href="#resetDef" x="30" y="36" onmousedown="handleReset()"/>
                <g id="arrowUp" xlink:href="#dirArrow" transform="translate(30 24)" onmousedown="handlePan(0,-1)">
                  <use xlink:href="#rim" fill="#404040">
                        <set attributeName="fill" to="#808080" begin="arrowUp.mouseover" end="arrowUp.mouseout"/>
                  </use>
                  <path fill="none" stroke="white" stroke-width="1.5" d="M0,-3.0v7 M-2.5,-0.5L0,-3.0L2.5,-0.5"/>
                </g>
                <g id="arrowRight" xlink:href="#dirArrow" transform="rotate(90) translate(36 -43)" onmousedown="handlePan(1,0)">
                  <use xlink:href="#rim" fill="#404040">
                        <set attributeName="fill" to="#808080" begin="arrowRight.mouseover" end="arrowRight.mouseout"/>
                  </use>
                  <path fill="none" stroke="white" stroke-width="1.5" d="M0,-3.0v7 M-2.5,-0.5L0,-3.0L2.5,-0.5"/>
                </g>
                <g id="arrowDown" xlink:href="#dirArrow" transform="rotate(180) translate(-30 -48)" onmousedown="handlePan(0,1)">
                  <use xlink:href="#rim" fill="#404040">
                        <set attributeName="fill" to="#808080" begin="arrowDown.mouseover" end="arrowDown.mouseout"/>
                  </use>
                  <path fill="none" stroke="white" stroke-width="1.5" d="M0,-3.0v7 M-2.5,-0.5L0,-3.0L2.5,-0.5"/>
                </g>
                <g id="arrowLeft" xlink:href="#dirArrow" transform="rotate(270) translate(-36 17)" onmousedown="handlePan(-1,0)">
                  <use xlink:href="#rim" fill="#404040">
                        <set attributeName="fill" to="#808080" begin="arrowLeft.mouseover" end="arrowLeft.mouseout"/>
                  </use>
                  <path fill="none" stroke="white" stroke-width="1.5" d="M0,-3.0v7 M-2.5,-0.5L0,-3.0L2.5,-0.5"/>
                </g>
        </g>
        <svg viewBox="0 0 15 15" width="100%" height="30px" preserveAspectRatio="xMaxYMin meet">
         <g id="arrow_out" transform="scale(0.3 0.3)">
          <a xlink:href="Interface_8cpp__incl_org.svg" target="_base">
           <rect id="button" ry="5" rx="5" y="6" x="6" height="38" width="38"
                fill="#f2f5e9" fill-opacity="0.5" stroke="#606060" stroke-width="1.0"/>
           <path id="arrow"
             d="M 11.500037,31.436501 C 11.940474,20.09759 22.043105,11.32322 32.158766,21.979434 L 37.068811,17.246167 C 37.068811,17.246167 37.088388,32 37.088388,32 L 22.160133,31.978069 C 22.160133,31.978069 26.997745,27.140456 26.997745,27.140456 C 18.528582,18.264221 13.291696,25.230495 11.500037,31.436501 z"
             style="fill:#404040;"/>
          </a>
         </g>
        </svg>
</svg>
