<?xml version="1.0" encoding="UTF-8" standalone="no"?>
<!DOCTYPE svg PUBLIC "-//W3C//DTD SVG 1.1//EN"
 "http://www.w3.org/Graphics/SVG/1.1/DTD/svg11.dtd">
<!-- Generated by graphviz version 2.50.0 (0)
 -->
<!-- Title: Custom.cpp Pages: 1 -->
<!--zoomable 487 -->
<svg id="main" version="1.1" xmlns="http://www.w3.org/2000/svg" xmlns:xlink="http://www.w3.org/1999/xlink" xml:space="preserve" onload="init(evt)">
<style type="text/css"><![CDATA[
.edge:hover path { stroke: red; }
.edge:hover polygon { stroke: red; fill: red; }
]]></style>
<script type="text/javascript"><![CDATA[
var edges = document.getElementsByTagName('g');
if (edges && edges.length) {
  for (var i=0;i<edges.length;i++) {
    if (edges[i].id.substr(0,4)=='edge') {
      edges[i].setAttribute('class','edge');
    }
  }
}
]]></script>
        <defs>
                <circle id="rim" cx="0" cy="0" r="7"/>
                <circle id="rim2" cx="0" cy="0" r="3.5"/>
                <g id="zoomPlus">
                        <use xlink:href="#rim" fill="#404040">
                                <set attributeName="fill" to="#808080" begin="zoomplus.mouseover" end="zoomplus.mouseout"/>
                        </use>
                        <path d="M-4,0h8M0,-4v8" fill="none" stroke="white" stroke-width="1.5" pointer-events="none"/>
                </g>
                <g id="zoomMin">
                        <use xlink:href="#rim" fill="#404040">
                                <set attributeName="fill" to="#808080" begin="zoomminus.mouseover" end="zoomminus.mouseout"/>
                        </use>
                        <path d="M-4,0h8" fill="none" stroke="white" stroke-width="1.5" pointer-events="none"/>
                </g>
                <g id="dirArrow">
                        <path fill="none" stroke="white" stroke-width="1.5" d="M0,-3.0v7 M-2.5,-0.5L0,-3.0L2.5,-0.5"/>
                </g>
               <g id="resetDef">
                       <use xlink:href="#rim2" fill="#404040">
                               <set attributeName="fill" to="#808080" begin="reset.mouseover" end="reset.mouseout"/>
                       </use>
               </g>
        </defs>

<script type="text/javascript">
var viewWidth = 834;
var viewHeight = 487;
var sectionId = 'dynsection-0';
</script>
<script xlink:href="../../svgpan.js"/>
<svg id="graph" class="graph">
<g id="viewport">
<title>Custom.cpp</title>
<polygon fill="white" stroke="transparent" points="-4,4 -4,-483 830,-483 830,4 -4,4"/>
<!-- Node1 -->
<g id="node1" class="node">
<title>Node1</title>
<g id="a_node1"><a xlink:title=" ">
<polygon fill="#bfbfbf" stroke="black" points="437,-459.5 437,-478.5 507,-478.5 507,-459.5 437,-459.5"/>
<text text-anchor="middle" x="472" y="-466.5" font-family="Helvetica,sans-Serif" font-size="10.00">Custom.cpp</text>
</a>
</g>
</g>
<!-- Node2 -->
<g id="node2" class="node">
<title>Node2</title>
<g id="a_node2"><a xlink:href="../../de/d8f/Custom_8h.html" target="_top" xlink:title=" ">
<polygon fill="white" stroke="black" points="221.5,-403.5 221.5,-422.5 352.5,-422.5 352.5,-403.5 221.5,-403.5"/>
<text text-anchor="middle" x="287" y="-410.5" font-family="Helvetica,sans-Serif" font-size="10.00">cantera/kinetics/Custom.h</text>
</a>
</g>
</g>
<!-- Node1&#45;&gt;Node2 -->
<g id="edge1" class="edge">
<title>Node1&#45;&gt;Node2</title>
<path fill="none" stroke="midnightblue" d="M442.69,-459.44C411.16,-450.24 360.87,-435.56 326.01,-425.39"/>
<polygon fill="midnightblue" stroke="midnightblue" points="326.76,-421.96 316.18,-422.52 324.8,-428.68 326.76,-421.96"/>
</g>
<!-- Node31 -->
<g id="node21" class="node">
<title>Node31</title>
<g id="a_node21"><a xlink:href="../../d2/d9e/Func1_8h.html" target="_top" xlink:title=" ">
<polygon fill="white" stroke="black" points="696,-174 696,-193 826,-193 826,-174 696,-174"/>
<text text-anchor="middle" x="761" y="-181" font-family="Helvetica,sans-Serif" font-size="10.00">cantera/numerics/Func1.h</text>
</a>
</g>
</g>
<!-- Node1&#45;&gt;Node31 -->
<g id="edge35" class="edge">
<title>Node1&#45;&gt;Node31</title>
<path fill="none" stroke="midnightblue" d="M507.2,-468.6C578.44,-467.79 733,-454.87 733,-358 733,-358 733,-358 733,-300 733,-264.71 745.5,-225.03 753.79,-202.57"/>
<polygon fill="midnightblue" stroke="midnightblue" points="757.14,-203.61 757.45,-193.02 750.6,-201.1 757.14,-203.61"/>
</g>
<!-- Node3 -->
<g id="node3" class="node">
<title>Node3</title>
<g id="a_node3"><a xlink:href="../../d9/ddc/ct__defs_8h.html" target="_top" xlink:title="This file contains definitions of constants, types and terms that are used in internal routines and a...">
<polygon fill="white" stroke="black" points="395,-56.5 395,-75.5 511,-75.5 511,-56.5 395,-56.5"/>
<text text-anchor="middle" x="453" y="-63.5" font-family="Helvetica,sans-Serif" font-size="10.00">cantera/base/ct_defs.h</text>
</a>
</g>
</g>
<!-- Node2&#45;&gt;Node3 -->
<g id="edge2" class="edge">
<title>Node2&#45;&gt;Node3</title>
<path fill="none" stroke="midnightblue" d="M352.93,-406.58C461.98,-395.78 668,-366.8 668,-302 668,-302 668,-302 668,-182.5 668,-114.73 584.08,-86.56 521.09,-74.96"/>
<polygon fill="midnightblue" stroke="midnightblue" points="521.63,-71.5 511.18,-73.23 520.43,-78.39 521.63,-71.5"/>
</g>
<!-- Node12 -->
<g id="node12" class="node">
<title>Node12</title>
<g id="a_node12"><a xlink:href="../../da/d58/Units_8h.html" target="_top" xlink:title="Header for unit conversion utilities, which are used to translate user input from input files (See In...">
<polygon fill="white" stroke="black" points="216.5,-112.5 216.5,-131.5 323.5,-131.5 323.5,-112.5 216.5,-112.5"/>
<text text-anchor="middle" x="270" y="-119.5" font-family="Helvetica,sans-Serif" font-size="10.00">cantera/base/Units.h</text>
</a>
</g>
</g>
<!-- Node2&#45;&gt;Node12 -->
<g id="edge11" class="edge">
<title>Node2&#45;&gt;Node12</title>
<path fill="none" stroke="midnightblue" d="M237.01,-403.46C154.78,-387.97 0,-352.16 0,-302 0,-302 0,-302 0,-244 0,-154.16 126.02,-130.6 205.87,-124.69"/>
<polygon fill="midnightblue" stroke="midnightblue" points="206.59,-128.15 216.33,-123.99 206.12,-121.16 206.59,-128.15"/>
</g>
<!-- Node13 -->
<g id="node13" class="node">
<title>Node13</title>
<g id="a_node13"><a xlink:href="../../d6/dd6/Arrhenius_8h.html" target="_top" xlink:title="Header for reaction rates that involve Arrhenius&#45;type kinetics.">
<polygon fill="white" stroke="black" points="266,-347.5 266,-366.5 404,-366.5 404,-347.5 266,-347.5"/>
<text text-anchor="middle" x="335" y="-354.5" font-family="Helvetica,sans-Serif" font-size="10.00">cantera/kinetics/Arrhenius.h</text>
</a>
</g>
</g>
<!-- Node2&#45;&gt;Node13 -->
<g id="edge13" class="edge">
<title>Node2&#45;&gt;Node13</title>
<path fill="none" stroke="midnightblue" d="M294.93,-403.08C301.85,-395.3 312.07,-383.8 320.45,-374.37"/>
<polygon fill="midnightblue" stroke="midnightblue" points="323.19,-376.55 327.22,-366.75 317.96,-371.9 323.19,-376.55"/>
</g>
<!-- Node20 -->
<g id="node16" class="node">
<title>Node20</title>
<g id="a_node16"><a xlink:href="../../d8/db0/ReactionRate_8h.html" target="_top" xlink:title=" ">
<polygon fill="white" stroke="black" points="200.5,-235.5 200.5,-254.5 285.5,-254.5 285.5,-235.5 200.5,-235.5"/>
<text text-anchor="middle" x="243" y="-242.5" font-family="Helvetica,sans-Serif" font-size="10.00">ReactionRate.h</text>
</a>
</g>
</g>
<!-- Node2&#45;&gt;Node20 -->
<g id="edge33" class="edge">
<title>Node2&#45;&gt;Node20</title>
<path fill="none" stroke="midnightblue" d="M279.42,-403.39C272.34,-394.8 262.11,-380.93 257,-367 244.36,-332.54 242.42,-289.17 242.49,-264.83"/>
<polygon fill="midnightblue" stroke="midnightblue" points="245.99,-264.58 242.64,-254.53 238.99,-264.47 245.99,-264.58"/>
</g>
<!-- Node28 -->
<g id="node19" class="node">
<title>Node28</title>
<g id="a_node19"><a xlink:href="../../d6/d42/MultiRate_8h.html" target="_top" xlink:title=" ">
<polygon fill="white" stroke="black" points="142.5,-291.5 142.5,-310.5 209.5,-310.5 209.5,-291.5 142.5,-291.5"/>
<text text-anchor="middle" x="176" y="-298.5" font-family="Helvetica,sans-Serif" font-size="10.00">MultiRate.h</text>
</a>
</g>
</g>
<!-- Node2&#45;&gt;Node28 -->
<g id="edge34" class="edge">
<title>Node2&#45;&gt;Node28</title>
<path fill="none" stroke="midnightblue" d="M272.51,-403.5C259.07,-395.2 238.94,-381.71 224,-367 209.22,-352.45 195.5,-333.02 186.54,-319.2"/>
<polygon fill="midnightblue" stroke="midnightblue" points="189.45,-317.25 181.15,-310.66 183.53,-320.99 189.45,-317.25"/>
</g>
<!-- Node4 -->
<g id="node4" class="node">
<title>Node4</title>
<g id="a_node4"><a xlink:href="../../db/d16/config_8h_source.html" target="_top" xlink:title=" ">
<polygon fill="white" stroke="black" points="206.5,-0.5 206.5,-19.5 257.5,-19.5 257.5,-0.5 206.5,-0.5"/>
<text text-anchor="middle" x="232" y="-7.5" font-family="Helvetica,sans-Serif" font-size="10.00">config.h</text>
</a>
</g>
</g>
<!-- Node3&#45;&gt;Node4 -->
<g id="edge3" class="edge">
<title>Node3&#45;&gt;Node4</title>
<path fill="none" stroke="midnightblue" d="M416.96,-56.44C381.44,-47.97 325.37,-34.5 267.31,-20.05"/>
<polygon fill="midnightblue" stroke="midnightblue" points="268.15,-16.65 257.6,-17.63 266.46,-23.45 268.15,-16.65"/>
</g>
<!-- Node5 -->
<g id="node5" class="node">
<title>Node5</title>
<g id="a_node5"><a xlink:title=" ">
<polygon fill="white" stroke="#bfbfbf" points="276,-0.5 276,-19.5 320,-19.5 320,-0.5 276,-0.5"/>
<text text-anchor="middle" x="298" y="-7.5" font-family="Helvetica,sans-Serif" font-size="10.00">cmath</text>
</a>
</g>
</g>
<!-- Node3&#45;&gt;Node5 -->
<g id="edge4" class="edge">
<title>Node3&#45;&gt;Node5</title>
<path fill="none" stroke="midnightblue" d="M428.44,-56.44C401.87,-47.19 359.39,-32.39 330.17,-22.21"/>
<polygon fill="midnightblue" stroke="midnightblue" points="331.03,-18.8 320.43,-18.82 328.72,-25.41 331.03,-18.8"/>
</g>
<!-- Node6 -->
<g id="node6" class="node">
<title>Node6</title>
<g id="a_node6"><a xlink:title=" ">
<polygon fill="white" stroke="#bfbfbf" points="338.5,-0.5 338.5,-19.5 383.5,-19.5 383.5,-0.5 338.5,-0.5"/>
<text text-anchor="middle" x="361" y="-7.5" font-family="Helvetica,sans-Serif" font-size="10.00">cstdlib</text>
</a>
</g>
</g>
<!-- Node3&#45;&gt;Node6 -->
<g id="edge5" class="edge">
<title>Node3&#45;&gt;Node6</title>
<path fill="none" stroke="midnightblue" d="M438.22,-56.32C423.73,-47.82 401.43,-34.73 384.51,-24.8"/>
<polygon fill="midnightblue" stroke="midnightblue" points="386.14,-21.7 375.74,-19.65 382.6,-27.74 386.14,-21.7"/>
</g>
<!-- Node7 -->
<g id="node7" class="node">
<title>Node7</title>
<g id="a_node7"><a xlink:title=" ">
<polygon fill="white" stroke="#bfbfbf" points="402,-0.5 402,-19.5 446,-19.5 446,-0.5 402,-0.5"/>
<text text-anchor="middle" x="424" y="-7.5" font-family="Helvetica,sans-Serif" font-size="10.00">vector</text>
</a>
</g>
</g>
<!-- Node3&#45;&gt;Node7 -->
<g id="edge6" class="edge">
<title>Node3&#45;&gt;Node7</title>
<path fill="none" stroke="midnightblue" d="M448.21,-56.08C444.24,-48.69 438.47,-37.95 433.57,-28.81"/>
<polygon fill="midnightblue" stroke="midnightblue" points="436.51,-26.91 428.7,-19.75 430.35,-30.22 436.51,-26.91"/>
</g>
<!-- Node8 -->
<g id="node8" class="node">
<title>Node8</title>
<g id="a_node8"><a xlink:title=" ">
<polygon fill="white" stroke="#bfbfbf" points="464.5,-0.5 464.5,-19.5 499.5,-19.5 499.5,-0.5 464.5,-0.5"/>
<text text-anchor="middle" x="482" y="-7.5" font-family="Helvetica,sans-Serif" font-size="10.00">map</text>
</a>
</g>
</g>
<!-- Node3&#45;&gt;Node8 -->
<g id="edge7" class="edge">
<title>Node3&#45;&gt;Node8</title>
<path fill="none" stroke="midnightblue" d="M457.79,-56.08C461.76,-48.69 467.53,-37.95 472.43,-28.81"/>
<polygon fill="midnightblue" stroke="midnightblue" points="475.65,-30.22 477.3,-19.75 469.49,-26.91 475.65,-30.22"/>
</g>
<!-- Node9 -->
<g id="node9" class="node">
<title>Node9</title>
<g id="a_node9"><a xlink:title=" ">
<polygon fill="white" stroke="#bfbfbf" points="517.5,-0.5 517.5,-19.5 558.5,-19.5 558.5,-0.5 517.5,-0.5"/>
<text text-anchor="middle" x="538" y="-7.5" font-family="Helvetica,sans-Serif" font-size="10.00">string</text>
</a>
</g>
</g>
<!-- Node3&#45;&gt;Node9 -->
<g id="edge8" class="edge">
<title>Node3&#45;&gt;Node9</title>
<path fill="none" stroke="midnightblue" d="M466.66,-56.32C479.92,-47.9 500.27,-34.97 515.85,-25.07"/>
<polygon fill="midnightblue" stroke="midnightblue" points="517.81,-27.97 524.38,-19.65 514.06,-22.06 517.81,-27.97"/>
</g>
<!-- Node10 -->
<g id="node10" class="node">
<title>Node10</title>
<g id="a_node10"><a xlink:title=" ">
<polygon fill="white" stroke="#bfbfbf" points="577,-0.5 577,-19.5 633,-19.5 633,-0.5 577,-0.5"/>
<text text-anchor="middle" x="605" y="-7.5" font-family="Helvetica,sans-Serif" font-size="10.00">algorithm</text>
</a>
</g>
</g>
<!-- Node3&#45;&gt;Node10 -->
<g id="edge9" class="edge">
<title>Node3&#45;&gt;Node10</title>
<path fill="none" stroke="midnightblue" d="M477.08,-56.44C502.54,-47.4 542.89,-33.06 571.46,-22.92"/>
<polygon fill="midnightblue" stroke="midnightblue" points="572.78,-26.16 581.03,-19.52 570.43,-19.57 572.78,-26.16"/>
</g>
<!-- Node11 -->
<g id="node11" class="node">
<title>Node11</title>
<g id="a_node11"><a xlink:title=" ">
<polygon fill="white" stroke="#bfbfbf" points="651,-0.5 651,-19.5 703,-19.5 703,-0.5 651,-0.5"/>
<text text-anchor="middle" x="677" y="-7.5" font-family="Helvetica,sans-Serif" font-size="10.00">memory</text>
</a>
</g>
</g>
<!-- Node3&#45;&gt;Node11 -->
<g id="edge10" class="edge">
<title>Node3&#45;&gt;Node11</title>
<path fill="none" stroke="midnightblue" d="M489.63,-56.48C525.73,-48.04 582.71,-34.6 640.91,-20.24"/>
<polygon fill="midnightblue" stroke="midnightblue" points="641.77,-23.63 650.64,-17.83 640.09,-16.84 641.77,-23.63"/>
</g>
<!-- Node12&#45;&gt;Node3 -->
<g id="edge12" class="edge">
<title>Node12&#45;&gt;Node3</title>
<path fill="none" stroke="midnightblue" d="M299,-112.44C330.18,-103.24 379.93,-88.56 414.41,-78.39"/>
<polygon fill="midnightblue" stroke="midnightblue" points="415.54,-81.7 424.14,-75.52 413.56,-74.99 415.54,-81.7"/>
</g>
<!-- Node13&#45;&gt;Node3 -->
<g id="edge14" class="edge">
<title>Node13&#45;&gt;Node3</title>
<path fill="none" stroke="midnightblue" d="M387.74,-347.47C472.59,-332.24 630,-297.11 630,-246 630,-246 630,-246 630,-182.5 630,-122.86 558.66,-92.4 506.56,-78.1"/>
<polygon fill="midnightblue" stroke="midnightblue" points="507.31,-74.68 496.75,-75.53 505.54,-81.45 507.31,-74.68"/>
</g>
<!-- Node13&#45;&gt;Node12 -->
<g id="edge15" class="edge">
<title>Node13&#45;&gt;Node12</title>
<path fill="none" stroke="midnightblue" d="M332.28,-347.18C324.97,-323.37 304.4,-255.74 289,-199 283.73,-179.57 278.2,-157.19 274.47,-141.77"/>
<polygon fill="midnightblue" stroke="midnightblue" points="277.84,-140.83 272.11,-131.92 271.04,-142.46 277.84,-140.83"/>
</g>
<!-- Node14 -->
<g id="node14" class="node">
<title>Node14</title>
<g id="a_node14"><a xlink:href="../../d6/d4a/ReactionData_8h.html" target="_top" xlink:title=" ">
<polygon fill="white" stroke="black" points="474,-168.5 474,-198.5 602,-198.5 602,-168.5 474,-168.5"/>
<text text-anchor="start" x="482" y="-186.5" font-family="Helvetica,sans-Serif" font-size="10.00">cantera/kinetics/Reaction</text>
<text text-anchor="middle" x="538" y="-175.5" font-family="Helvetica,sans-Serif" font-size="10.00">Data.h</text>
</a>
</g>
</g>
<!-- Node13&#45;&gt;Node14 -->
<g id="edge16" class="edge">
<title>Node13&#45;&gt;Node14</title>
<path fill="none" stroke="midnightblue" d="M345.07,-347.5C375.8,-321.54 469,-242.8 513.65,-205.07"/>
<polygon fill="midnightblue" stroke="midnightblue" points="516.01,-207.66 521.39,-198.53 511.5,-202.31 516.01,-207.66"/>
</g>
<!-- Node13&#45;&gt;Node20 -->
<g id="edge19" class="edge">
<title>Node13&#45;&gt;Node20</title>
<path fill="none" stroke="midnightblue" d="M327.78,-347.37C312.46,-329.05 276.5,-286.05 256.68,-262.36"/>
<polygon fill="midnightblue" stroke="midnightblue" points="259.29,-260.02 250.19,-254.59 253.92,-264.51 259.29,-260.02"/>
</g>
<!-- Node13&#45;&gt;Node28 -->
<g id="edge28" class="edge">
<title>Node13&#45;&gt;Node28</title>
<path fill="none" stroke="midnightblue" d="M309.81,-347.44C283.06,-338.36 240.6,-323.94 210.69,-313.78"/>
<polygon fill="midnightblue" stroke="midnightblue" points="211.67,-310.42 201.08,-310.52 209.42,-317.05 211.67,-310.42"/>
</g>
<!-- Node14&#45;&gt;Node3 -->
<g id="edge17" class="edge">
<title>Node14&#45;&gt;Node3</title>
<path fill="none" stroke="midnightblue" d="M540.44,-168.3C542.26,-153.13 542.85,-128.97 532,-112 522.49,-97.13 506.22,-86.67 490.91,-79.6"/>
<polygon fill="midnightblue" stroke="midnightblue" points="492.14,-76.32 481.57,-75.62 489.4,-82.76 492.14,-76.32"/>
</g>
<!-- Node15 -->
<g id="node15" class="node">
<title>Node15</title>
<g id="a_node15"><a xlink:href="../../db/d98/ctexceptions_8h.html" target="_top" xlink:title="Definitions for the classes that are thrown when Cantera experiences an error condition (also contain...">
<polygon fill="white" stroke="red" points="383,-112.5 383,-131.5 523,-131.5 523,-112.5 383,-112.5"/>
<text text-anchor="middle" x="453" y="-119.5" font-family="Helvetica,sans-Serif" font-size="10.00">cantera/base/ctexceptions.h</text>
</a>
</g>
</g>
<!-- Node14&#45;&gt;Node15 -->
<g id="edge18" class="edge">
<title>Node14&#45;&gt;Node15</title>
<path fill="none" stroke="midnightblue" d="M517.86,-168.4C504.61,-159.13 487.32,-147.03 473.92,-137.65"/>
<polygon fill="midnightblue" stroke="midnightblue" points="475.57,-134.53 465.37,-131.66 471.55,-140.26 475.57,-134.53"/>
</g>
<!-- Node20&#45;&gt;Node12 -->
<g id="edge26" class="edge">
<title>Node20&#45;&gt;Node12</title>
<path fill="none" stroke="midnightblue" d="M244.08,-235.49C245.96,-221.36 250.19,-192.21 256,-168 258.15,-159.04 261.12,-149.25 263.77,-141.1"/>
<polygon fill="midnightblue" stroke="midnightblue" points="267.12,-142.13 266.97,-131.53 260.48,-139.9 267.12,-142.13"/>
</g>
<!-- Node20&#45;&gt;Node15 -->
<g id="edge27" class="edge">
<title>Node20&#45;&gt;Node15</title>
<path fill="none" stroke="midnightblue" d="M285.63,-238.37C333.31,-231.27 406.55,-217.69 427,-199 443.13,-184.26 449.25,-159.09 451.58,-141.79"/>
<polygon fill="midnightblue" stroke="midnightblue" points="455.07,-142.04 452.63,-131.74 448.11,-141.32 455.07,-142.04"/>
</g>
<!-- Node21 -->
<g id="node17" class="node">
<title>Node21</title>
<g id="a_node17"><a xlink:href="../../dd/d16/MultiRateBase_8h.html" target="_top" xlink:title=" ">
<polygon fill="white" stroke="black" points="114.5,-174 114.5,-193 203.5,-193 203.5,-174 114.5,-174"/>
<text text-anchor="middle" x="159" y="-181" font-family="Helvetica,sans-Serif" font-size="10.00">MultiRateBase.h</text>
</a>
</g>
</g>
<!-- Node20&#45;&gt;Node21 -->
<g id="edge20" class="edge">
<title>Node20&#45;&gt;Node21</title>
<path fill="none" stroke="midnightblue" d="M230.96,-235.48C217.49,-225.93 195.43,-210.31 179.28,-198.87"/>
<polygon fill="midnightblue" stroke="midnightblue" points="181.2,-195.93 171.01,-193.01 177.15,-201.65 181.2,-195.93"/>
</g>
<!-- Node22 -->
<g id="node18" class="node">
<title>Node22</title>
<g id="a_node18"><a xlink:href="../../dd/d2a/AnyMap_8h.html" target="_top" xlink:title=" ">
<polygon fill="white" stroke="red" points="298,-174 298,-193 418,-193 418,-174 298,-174"/>
<text text-anchor="middle" x="358" y="-181" font-family="Helvetica,sans-Serif" font-size="10.00">cantera/base/AnyMap.h</text>
</a>
</g>
</g>
<!-- Node20&#45;&gt;Node22 -->
<g id="edge22" class="edge">
<title>Node20&#45;&gt;Node22</title>
<path fill="none" stroke="midnightblue" d="M259.48,-235.48C278.61,-225.58 310.37,-209.14 332.65,-197.62"/>
<polygon fill="midnightblue" stroke="midnightblue" points="334.28,-200.71 341.55,-193.01 331.06,-194.5 334.28,-200.71"/>
</g>
<!-- Node21&#45;&gt;Node3 -->
<g id="edge21" class="edge">
<title>Node21&#45;&gt;Node3</title>
<path fill="none" stroke="midnightblue" d="M162.22,-173.92C168.4,-158.75 183.42,-127.35 207,-112 235.7,-93.32 322.41,-80.58 384.76,-73.55"/>
<polygon fill="midnightblue" stroke="midnightblue" points="385.37,-77 394.93,-72.42 384.61,-70.04 385.37,-77"/>
</g>
<!-- Node22&#45;&gt;Node3 -->
<g id="edge23" class="edge">
<title>Node22&#45;&gt;Node3</title>
<path fill="none" stroke="midnightblue" d="M357.82,-173.78C357.95,-159.47 360.09,-130.75 374,-112 384.82,-97.41 401.89,-86.84 417.39,-79.63"/>
<polygon fill="midnightblue" stroke="midnightblue" points="418.98,-82.75 426.77,-75.56 416.2,-76.33 418.98,-82.75"/>
</g>
<!-- Node22&#45;&gt;Node12 -->
<g id="edge25" class="edge">
<title>Node22&#45;&gt;Node12</title>
<path fill="none" stroke="midnightblue" d="M345.39,-173.98C331.28,-164.43 308.17,-148.81 291.25,-137.37"/>
<polygon fill="midnightblue" stroke="midnightblue" points="292.83,-134.21 282.58,-131.51 288.91,-140.01 292.83,-134.21"/>
</g>
<!-- Node22&#45;&gt;Node15 -->
<g id="edge24" class="edge">
<title>Node22&#45;&gt;Node15</title>
<path fill="none" stroke="midnightblue" d="M371.61,-173.98C387.06,-164.3 412.49,-148.37 430.82,-136.89"/>
<polygon fill="midnightblue" stroke="midnightblue" points="432.8,-139.78 439.41,-131.51 429.08,-133.85 432.8,-139.78"/>
</g>
<!-- Node28&#45;&gt;Node20 -->
<g id="edge29" class="edge">
<title>Node28&#45;&gt;Node20</title>
<path fill="none" stroke="midnightblue" d="M186.76,-291.32C196.77,-283.26 211.89,-271.08 223.93,-261.37"/>
<polygon fill="midnightblue" stroke="midnightblue" points="226.45,-263.83 232.04,-254.83 222.06,-258.38 226.45,-263.83"/>
</g>
<!-- Node28&#45;&gt;Node21 -->
<g id="edge30" class="edge">
<title>Node28&#45;&gt;Node21</title>
<path fill="none" stroke="midnightblue" d="M174.72,-291.32C171.99,-272.76 165.53,-228.84 161.79,-203.47"/>
<polygon fill="midnightblue" stroke="midnightblue" points="165.21,-202.67 160.29,-193.28 158.29,-203.69 165.21,-202.67"/>
</g>
<!-- Node29 -->
<g id="node20" class="node">
<title>Node29</title>
<g id="a_node20"><a xlink:href="../../de/df0/utilities_8h.html" target="_top" xlink:title="Various templated functions that carry out common vector operations (see Templated Utility Functions)...">
<polygon fill="white" stroke="red" points="28.5,-235.5 28.5,-254.5 143.5,-254.5 143.5,-235.5 28.5,-235.5"/>
<text text-anchor="middle" x="86" y="-242.5" font-family="Helvetica,sans-Serif" font-size="10.00">cantera/base/utilities.h</text>
</a>
</g>
</g>
<!-- Node28&#45;&gt;Node29 -->
<g id="edge31" class="edge">
<title>Node28&#45;&gt;Node29</title>
<path fill="none" stroke="midnightblue" d="M161.54,-291.32C147.5,-282.9 125.95,-269.97 109.46,-260.07"/>
<polygon fill="midnightblue" stroke="midnightblue" points="110.8,-256.8 100.42,-254.65 107.2,-262.8 110.8,-256.8"/>
</g>
<!-- Node29&#45;&gt;Node3 -->
<g id="edge32" class="edge">
<title>Node29&#45;&gt;Node3</title>
<path fill="none" stroke="midnightblue" d="M86.27,-235.24C87.12,-220.22 90.64,-189.15 105,-168 128.98,-132.7 143.59,-128.38 183,-112 248.17,-84.91 328.59,-74.11 384.63,-69.81"/>
<polygon fill="midnightblue" stroke="midnightblue" points="385.08,-73.29 394.81,-69.08 384.58,-66.31 385.08,-73.29"/>
</g>
<!-- Node31&#45;&gt;Node3 -->
<g id="edge36" class="edge">
<title>Node31&#45;&gt;Node3</title>
<path fill="none" stroke="midnightblue" d="M754.19,-173.96C741.64,-158.85 713.28,-127.55 682,-112 631.64,-86.96 568.56,-75.85 521.36,-70.92"/>
<polygon fill="midnightblue" stroke="midnightblue" points="521.54,-67.42 511.24,-69.93 520.85,-74.38 521.54,-67.42"/>
</g>
<!-- Node31&#45;&gt;Node15 -->
<g id="edge37" class="edge">
<title>Node31&#45;&gt;Node15</title>
<path fill="none" stroke="midnightblue" d="M716.87,-173.98C661.52,-163.28 566.66,-144.96 507.03,-133.44"/>
<polygon fill="midnightblue" stroke="midnightblue" points="507.53,-129.97 497.05,-131.51 506.2,-136.84 507.53,-129.97"/>
</g>
<!-- Node32 -->
<g id="node22" class="node">
<title>Node32</title>
<g id="a_node22"><a xlink:title=" ">
<polygon fill="white" stroke="#bfbfbf" points="734,-112.5 734,-131.5 788,-131.5 788,-112.5 734,-112.5"/>
<text text-anchor="middle" x="761" y="-119.5" font-family="Helvetica,sans-Serif" font-size="10.00">iostream</text>
</a>
</g>
</g>
<!-- Node31&#45;&gt;Node32 -->
<g id="edge38" class="edge">
<title>Node31&#45;&gt;Node32</title>
<path fill="none" stroke="midnightblue" d="M761,-173.98C761,-165.58 761,-152.48 761,-141.66"/>
<polygon fill="midnightblue" stroke="midnightblue" points="764.5,-141.51 761,-131.51 757.5,-141.51 764.5,-141.51"/>
</g>
</g>
</svg>
        <g id="navigator" transform="translate(0 0)" fill="#404254">
                <rect fill="#f2f5e9" fill-opacity="0.5" stroke="#606060" stroke-width=".5" x="0" y="0" width="60" height="60"/>
                <use id="zoomplus" xlink:href="#zoomPlus" x="17" y="9" onmousedown="handleZoom(evt,'in')"/>
                <use id="zoomminus" xlink:href="#zoomMin" x="42" y="9" onmousedown="handleZoom(evt,'out')"/>
                <use id="reset" xlink:href="#resetDef" x="30" y="36" onmousedown="handleReset()"/>
                <g id="arrowUp" xlink:href="#dirArrow" transform="translate(30 24)" onmousedown="handlePan(0,-1)">
                  <use xlink:href="#rim" fill="#404040">
                        <set attributeName="fill" to="#808080" begin="arrowUp.mouseover" end="arrowUp.mouseout"/>
                  </use>
                  <path fill="none" stroke="white" stroke-width="1.5" d="M0,-3.0v7 M-2.5,-0.5L0,-3.0L2.5,-0.5"/>
                </g>
                <g id="arrowRight" xlink:href="#dirArrow" transform="rotate(90) translate(36 -43)" onmousedown="handlePan(1,0)">
                  <use xlink:href="#rim" fill="#404040">
                        <set attributeName="fill" to="#808080" begin="arrowRight.mouseover" end="arrowRight.mouseout"/>
                  </use>
                  <path fill="none" stroke="white" stroke-width="1.5" d="M0,-3.0v7 M-2.5,-0.5L0,-3.0L2.5,-0.5"/>
                </g>
                <g id="arrowDown" xlink:href="#dirArrow" transform="rotate(180) translate(-30 -48)" onmousedown="handlePan(0,1)">
                  <use xlink:href="#rim" fill="#404040">
                        <set attributeName="fill" to="#808080" begin="arrowDown.mouseover" end="arrowDown.mouseout"/>
                  </use>
                  <path fill="none" stroke="white" stroke-width="1.5" d="M0,-3.0v7 M-2.5,-0.5L0,-3.0L2.5,-0.5"/>
                </g>
                <g id="arrowLeft" xlink:href="#dirArrow" transform="rotate(270) translate(-36 17)" onmousedown="handlePan(-1,0)">
                  <use xlink:href="#rim" fill="#404040">
                        <set attributeName="fill" to="#808080" begin="arrowLeft.mouseover" end="arrowLeft.mouseout"/>
                  </use>
                  <path fill="none" stroke="white" stroke-width="1.5" d="M0,-3.0v7 M-2.5,-0.5L0,-3.0L2.5,-0.5"/>
                </g>
        </g>
        <svg viewBox="0 0 15 15" width="100%" height="30px" preserveAspectRatio="xMaxYMin meet">
         <g id="arrow_out" transform="scale(0.3 0.3)">
          <a xlink:href="Custom_8cpp__incl_org.svg" target="_base">
           <rect id="button" ry="5" rx="5" y="6" x="6" height="38" width="38"
                fill="#f2f5e9" fill-opacity="0.5" stroke="#606060" stroke-width="1.0"/>
           <path id="arrow"
             d="M 11.500037,31.436501 C 11.940474,20.09759 22.043105,11.32322 32.158766,21.979434 L 37.068811,17.246167 C 37.068811,17.246167 37.088388,32 37.088388,32 L 22.160133,31.978069 C 22.160133,31.978069 26.997745,27.140456 26.997745,27.140456 C 18.528582,18.264221 13.291696,25.230495 11.500037,31.436501 z"
             style="fill:#404040;"/>
          </a>
         </g>
        </svg>
</svg>
