<?xml version="1.0" encoding="UTF-8" standalone="no"?>
<!DOCTYPE svg PUBLIC "-//W3C//DTD SVG 1.1//EN"
 "http://www.w3.org/Graphics/SVG/1.1/DTD/svg11.dtd">
<!-- Generated by graphviz version 6.0.1 (0)
 -->
<!-- Title: FlowDevice.h Pages: 1 -->
<svg width="1691pt" height="148pt"
 viewBox="0.00 0.00 1690.50 148.00" xmlns="http://www.w3.org/2000/svg" xmlns:xlink="http://www.w3.org/1999/xlink">
<g id="graph0" class="graph" transform="scale(1 1) rotate(0) translate(4 144)">
<title>FlowDevice.h</title>
<!-- Node1 -->
<g id="node1" class="node">
<title>Node1</title>
<g id="a_node1"><a xlink:title=" ">
<polygon fill="#999999" stroke="#666666" points="951,-140 874,-140 874,-121 951,-121 951,-140"/>
<text text-anchor="middle" x="912.5" y="-128" font-family="Helvetica,sans-Serif" font-size="10.00">FlowDevice.h</text>
</a>
</g>
</g>
<!-- Node2 -->
<g id="node2" class="node">
<title>Node2</title>
<g id="a_node2"><a xlink:href="../../d2/dcd/ConstPressureMoleReactor_8cpp.html" target="_top" xlink:title="A constant pressure zero&#45;dimensional reactor with moles as the state.">
<polygon fill="white" stroke="#666666" points="155,-79.5 0,-79.5 0,-60.5 155,-60.5 155,-79.5"/>
<text text-anchor="middle" x="77.5" y="-67.5" font-family="Helvetica,sans-Serif" font-size="10.00">ConstPressureMoleReactor.cpp</text>
</a>
</g>
</g>
<!-- Node1&#45;&gt;Node2 -->
<g id="edge1" class="edge">
<title>Node1&#45;&gt;Node2</title>
<path fill="none" stroke="#63b8ff" d="M863.56,-128.28C743.91,-124.94 427.16,-113.87 164.5,-85 151.73,-83.6 137.97,-81.61 125.25,-79.57"/>
<polygon fill="#63b8ff" stroke="#63b8ff" points="863.75,-131.79 873.85,-128.57 863.95,-124.79 863.75,-131.79"/>
</g>
<!-- Node3 -->
<g id="node3" class="node">
<title>Node3</title>
<g id="a_node3"><a xlink:href="../../d7/de6/ConstPressureReactor_8cpp.html" target="_top" xlink:title="A constant pressure zero&#45;dimensional reactor.">
<polygon fill="white" stroke="#666666" points="307.5,-79.5 173.5,-79.5 173.5,-60.5 307.5,-60.5 307.5,-79.5"/>
<text text-anchor="middle" x="240.5" y="-67.5" font-family="Helvetica,sans-Serif" font-size="10.00">ConstPressureReactor.cpp</text>
</a>
</g>
</g>
<!-- Node1&#45;&gt;Node3 -->
<g id="edge2" class="edge">
<title>Node1&#45;&gt;Node3</title>
<path fill="none" stroke="#63b8ff" d="M863.65,-127.64C761.65,-123.35 518.71,-111.1 316.5,-85 305.32,-83.56 293.3,-81.55 282.19,-79.51"/>
<polygon fill="#63b8ff" stroke="#63b8ff" points="863.52,-131.13 873.65,-128.05 863.81,-124.14 863.52,-131.13"/>
</g>
<!-- Node4 -->
<g id="node4" class="node">
<title>Node4</title>
<g id="a_node4"><a xlink:href="../../dc/d8f/FlowDevice_8cpp.html" target="_top" xlink:title=" ">
<polygon fill="white" stroke="#666666" points="413,-79.5 326,-79.5 326,-60.5 413,-60.5 413,-79.5"/>
<text text-anchor="middle" x="369.5" y="-67.5" font-family="Helvetica,sans-Serif" font-size="10.00">FlowDevice.cpp</text>
</a>
</g>
</g>
<!-- Node1&#45;&gt;Node4 -->
<g id="edge3" class="edge">
<title>Node1&#45;&gt;Node4</title>
<path fill="none" stroke="#63b8ff" d="M863.76,-127.78C775.27,-124.06 582.52,-113.2 422.5,-85 414.53,-83.6 406.01,-81.58 398.19,-79.52"/>
<polygon fill="#63b8ff" stroke="#63b8ff" points="863.64,-131.28 873.78,-128.19 863.93,-124.28 863.64,-131.28"/>
</g>
<!-- Node5 -->
<g id="node5" class="node">
<title>Node5</title>
<g id="a_node5"><a xlink:href="../../d5/d6c/FlowDeviceFactory_8h.html" target="_top" xlink:title=" ">
<polygon fill="white" stroke="#666666" points="539.5,-79.5 431.5,-79.5 431.5,-60.5 539.5,-60.5 539.5,-79.5"/>
<text text-anchor="middle" x="485.5" y="-67.5" font-family="Helvetica,sans-Serif" font-size="10.00">FlowDeviceFactory.h</text>
</a>
</g>
</g>
<!-- Node1&#45;&gt;Node5 -->
<g id="edge4" class="edge">
<title>Node1&#45;&gt;Node5</title>
<path fill="none" stroke="#63b8ff" d="M863.51,-125.03C793.4,-118.3 660.55,-104.25 548.5,-85 539.56,-83.46 529.96,-81.5 521.03,-79.53"/>
<polygon fill="#63b8ff" stroke="#63b8ff" points="863.51,-128.55 873.8,-126.01 864.18,-121.58 863.51,-128.55"/>
</g>
<!-- Node8 -->
<g id="node8" class="node">
<title>Node8</title>
<g id="a_node8"><a xlink:href="../../db/dbf/IdealGasConstPressureMoleReactor_8cpp.html" target="_top" xlink:title="A constant pressure zero&#45;dimensional reactor with moles as the state.">
<polygon fill="white" stroke="#666666" points="807.5,-85 665.5,-85 665.5,-55 807.5,-55 807.5,-85"/>
<text text-anchor="start" x="673.5" y="-73" font-family="Helvetica,sans-Serif" font-size="10.00">IdealGasConstPressureMole</text>
<text text-anchor="middle" x="736.5" y="-62" font-family="Helvetica,sans-Serif" font-size="10.00">Reactor.cpp</text>
</a>
</g>
</g>
<!-- Node1&#45;&gt;Node8 -->
<g id="edge7" class="edge">
<title>Node1&#45;&gt;Node8</title>
<path fill="none" stroke="#63b8ff" d="M877.39,-117.83C849.01,-108.4 808.96,-95.09 778.81,-85.06"/>
<polygon fill="#63b8ff" stroke="#63b8ff" points="876.31,-121.16 886.91,-120.99 878.52,-114.52 876.31,-121.16"/>
</g>
<!-- Node9 -->
<g id="node9" class="node">
<title>Node9</title>
<g id="a_node9"><a xlink:href="../../dc/de4/IdealGasConstPressureReactor_8cpp_source.html" target="_top" xlink:title=" ">
<polygon fill="white" stroke="#666666" points="999,-79.5 826,-79.5 826,-60.5 999,-60.5 999,-79.5"/>
<text text-anchor="middle" x="912.5" y="-67.5" font-family="Helvetica,sans-Serif" font-size="10.00">IdealGasConstPressureReactor.cpp</text>
</a>
</g>
</g>
<!-- Node1&#45;&gt;Node9 -->
<g id="edge8" class="edge">
<title>Node1&#45;&gt;Node9</title>
<path fill="none" stroke="#63b8ff" d="M912.5,-110.66C912.5,-100.24 912.5,-87.8 912.5,-79.67"/>
<polygon fill="#63b8ff" stroke="#63b8ff" points="909,-110.87 912.5,-120.87 916,-110.87 909,-110.87"/>
</g>
<!-- Node10 -->
<g id="node10" class="node">
<title>Node10</title>
<g id="a_node10"><a xlink:href="../../d3/d19/IdealGasMoleReactor_8cpp.html" target="_top" xlink:title="A constant volume zero&#45;dimensional reactor with moles as the state.">
<polygon fill="white" stroke="#666666" points="1146,-79.5 1017,-79.5 1017,-60.5 1146,-60.5 1146,-79.5"/>
<text text-anchor="middle" x="1081.5" y="-67.5" font-family="Helvetica,sans-Serif" font-size="10.00">IdealGasMoleReactor.cpp</text>
</a>
</g>
</g>
<!-- Node1&#45;&gt;Node10 -->
<g id="edge9" class="edge">
<title>Node1&#45;&gt;Node10</title>
<path fill="none" stroke="#63b8ff" d="M946.67,-117.67C979.36,-106.36 1027.85,-89.57 1056.9,-79.52"/>
<polygon fill="#63b8ff" stroke="#63b8ff" points="945.38,-114.41 937.07,-120.99 947.67,-121.03 945.38,-114.41"/>
</g>
<!-- Node11 -->
<g id="node11" class="node">
<title>Node11</title>
<g id="a_node11"><a xlink:href="../../d2/d80/IdealGasReactor_8cpp.html" target="_top" xlink:title="A zero&#45;dimensional reactor.">
<polygon fill="white" stroke="#666666" points="1272.5,-79.5 1164.5,-79.5 1164.5,-60.5 1272.5,-60.5 1272.5,-79.5"/>
<text text-anchor="middle" x="1218.5" y="-67.5" font-family="Helvetica,sans-Serif" font-size="10.00">IdealGasReactor.cpp</text>
</a>
</g>
</g>
<!-- Node1&#45;&gt;Node11 -->
<g id="edge10" class="edge">
<title>Node1&#45;&gt;Node11</title>
<path fill="none" stroke="#63b8ff" d="M961.34,-121.11C1010.48,-112.54 1088.39,-98.6 1155.5,-85 1163.85,-83.31 1172.79,-81.39 1181.24,-79.52"/>
<polygon fill="#63b8ff" stroke="#63b8ff" points="960.56,-117.69 951.31,-122.86 961.76,-124.59 960.56,-117.69"/>
</g>
<!-- Node12 -->
<g id="node12" class="node">
<title>Node12</title>
<g id="a_node12"><a xlink:href="../../db/d2c/MoleReactor_8cpp.html" target="_top" xlink:title="A zero&#45;dimensional reactor with a moles as the state.">
<polygon fill="white" stroke="#666666" points="1380.5,-79.5 1290.5,-79.5 1290.5,-60.5 1380.5,-60.5 1380.5,-79.5"/>
<text text-anchor="middle" x="1335.5" y="-67.5" font-family="Helvetica,sans-Serif" font-size="10.00">MoleReactor.cpp</text>
</a>
</g>
</g>
<!-- Node1&#45;&gt;Node12 -->
<g id="edge11" class="edge">
<title>Node1&#45;&gt;Node12</title>
<path fill="none" stroke="#63b8ff" d="M960.98,-125.73C1031.82,-119.76 1167.59,-106.54 1281.5,-85 1289.3,-83.52 1297.65,-81.56 1305.39,-79.57"/>
<polygon fill="#63b8ff" stroke="#63b8ff" points="960.68,-122.25 951.01,-126.56 961.26,-129.22 960.68,-122.25"/>
</g>
<!-- Node13 -->
<g id="node13" class="node">
<title>Node13</title>
<g id="a_node13"><a xlink:href="../../d3/d68/Reactor_8cpp.html" target="_top" xlink:title="A zero&#45;dimensional reactor.">
<polygon fill="white" stroke="#666666" points="1468,-79.5 1399,-79.5 1399,-60.5 1468,-60.5 1468,-79.5"/>
<text text-anchor="middle" x="1433.5" y="-67.5" font-family="Helvetica,sans-Serif" font-size="10.00">Reactor.cpp</text>
</a>
</g>
</g>
<!-- Node1&#45;&gt;Node13 -->
<g id="edge12" class="edge">
<title>Node1&#45;&gt;Node13</title>
<path fill="none" stroke="#63b8ff" d="M961.34,-128.4C1048.27,-125.68 1235.21,-116.36 1389.5,-85 1396.26,-83.63 1403.44,-81.6 1410,-79.5"/>
<polygon fill="#63b8ff" stroke="#63b8ff" points="961.14,-124.9 951.24,-128.7 961.34,-131.9 961.14,-124.9"/>
</g>
<!-- Node14 -->
<g id="node14" class="node">
<title>Node14</title>
<g id="a_node14"><a xlink:href="../../d3/d1d/ReactorBase_8cpp.html" target="_top" xlink:title=" ">
<polygon fill="white" stroke="#666666" points="1578.5,-79.5 1486.5,-79.5 1486.5,-60.5 1578.5,-60.5 1578.5,-79.5"/>
<text text-anchor="middle" x="1532.5" y="-67.5" font-family="Helvetica,sans-Serif" font-size="10.00">ReactorBase.cpp</text>
</a>
</g>
</g>
<!-- Node1&#45;&gt;Node14 -->
<g id="edge13" class="edge">
<title>Node1&#45;&gt;Node14</title>
<path fill="none" stroke="#63b8ff" d="M961.36,-128.45C1059.71,-125.73 1288.3,-116.3 1477.5,-85 1485.76,-83.63 1494.6,-81.63 1502.72,-79.57"/>
<polygon fill="#63b8ff" stroke="#63b8ff" points="961.04,-124.96 951.14,-128.72 961.23,-131.96 961.04,-124.96"/>
</g>
<!-- Node15 -->
<g id="node15" class="node">
<title>Node15</title>
<g id="a_node15"><a xlink:href="../../d0/d1c/ReactorNet_8cpp.html" target="_top" xlink:title=" ">
<polygon fill="white" stroke="#666666" points="1682.5,-79.5 1596.5,-79.5 1596.5,-60.5 1682.5,-60.5 1682.5,-79.5"/>
<text text-anchor="middle" x="1639.5" y="-67.5" font-family="Helvetica,sans-Serif" font-size="10.00">ReactorNet.cpp</text>
</a>
</g>
</g>
<!-- Node1&#45;&gt;Node15 -->
<g id="edge14" class="edge">
<title>Node1&#45;&gt;Node15</title>
<path fill="none" stroke="#63b8ff" d="M961.52,-129.56C1073.32,-129 1355.45,-123.5 1587.5,-85 1595.52,-83.67 1604.1,-81.63 1611.93,-79.51"/>
<polygon fill="#63b8ff" stroke="#63b8ff" points="961.22,-126.07 951.24,-129.61 961.25,-133.07 961.22,-126.07"/>
</g>
<!-- Node16 -->
<g id="node16" class="node">
<title>Node16</title>
<g id="a_node16"><a xlink:href="../../de/d80/flowControllers_8h.html" target="_top" xlink:title="Some flow devices derived from class FlowDevice.">
<polygon fill="white" stroke="#666666" points="647.5,-79.5 557.5,-79.5 557.5,-60.5 647.5,-60.5 647.5,-79.5"/>
<text text-anchor="middle" x="602.5" y="-67.5" font-family="Helvetica,sans-Serif" font-size="10.00">flowControllers.h</text>
</a>
</g>
</g>
<!-- Node1&#45;&gt;Node16 -->
<g id="edge15" class="edge">
<title>Node1&#45;&gt;Node16</title>
<path fill="none" stroke="#63b8ff" d="M863.82,-122.25C812.15,-114.27 728.22,-100.5 656.5,-85 649.02,-83.38 641.02,-81.43 633.52,-79.5"/>
<polygon fill="#63b8ff" stroke="#63b8ff" points="863.3,-125.71 873.71,-123.77 864.36,-118.79 863.3,-125.71"/>
</g>
<!-- Node6 -->
<g id="node6" class="node">
<title>Node6</title>
<g id="a_node6"><a xlink:href="../../d8/d77/FlowDeviceFactory_8cpp.html" target="_top" xlink:title=" ">
<polygon fill="white" stroke="#666666" points="652,-19 533,-19 533,0 652,0 652,-19"/>
<text text-anchor="middle" x="592.5" y="-7" font-family="Helvetica,sans-Serif" font-size="10.00">FlowDeviceFactory.cpp</text>
</a>
</g>
</g>
<!-- Node5&#45;&gt;Node6 -->
<g id="edge5" class="edge">
<title>Node5&#45;&gt;Node6</title>
<path fill="none" stroke="#63b8ff" d="M510.33,-55.42C530.78,-44.24 559.16,-28.73 576.65,-19.17"/>
<polygon fill="#63b8ff" stroke="#63b8ff" points="508.38,-52.5 501.29,-60.37 511.74,-58.64 508.38,-52.5"/>
</g>
<!-- Node7 -->
<g id="node7" class="node">
<title>Node7</title>
<g id="a_node7"><a xlink:href="../../dd/d2e/zerodim_8h.html" target="_top" xlink:title=" ">
<polygon fill="white" stroke="#666666" points="515,-19 456,-19 456,0 515,0 515,-19"/>
<text text-anchor="middle" x="485.5" y="-7" font-family="Helvetica,sans-Serif" font-size="10.00">zerodim.h</text>
</a>
</g>
</g>
<!-- Node5&#45;&gt;Node7 -->
<g id="edge6" class="edge">
<title>Node5&#45;&gt;Node7</title>
<path fill="none" stroke="#63b8ff" d="M485.5,-50.16C485.5,-39.74 485.5,-27.3 485.5,-19.17"/>
<polygon fill="#63b8ff" stroke="#63b8ff" points="482,-50.37 485.5,-60.37 489,-50.37 482,-50.37"/>
</g>
<!-- Node16&#45;&gt;Node6 -->
<g id="edge16" class="edge">
<title>Node16&#45;&gt;Node6</title>
<path fill="none" stroke="#63b8ff" d="M599.34,-50.49C597.54,-40.01 595.39,-27.39 593.98,-19.17"/>
<polygon fill="#63b8ff" stroke="#63b8ff" points="595.89,-51.1 601.02,-60.37 602.79,-49.92 595.89,-51.1"/>
</g>
<!-- Node16&#45;&gt;Node7 -->
<g id="edge18" class="edge">
<title>Node16&#45;&gt;Node7</title>
<path fill="none" stroke="#63b8ff" d="M576.46,-55.98C553.92,-44.71 521.95,-28.73 502.53,-19.02"/>
<polygon fill="#63b8ff" stroke="#63b8ff" points="574.98,-59.15 585.49,-60.49 578.11,-52.89 574.98,-59.15"/>
</g>
<!-- Node17 -->
<g id="node17" class="node">
<title>Node17</title>
<g id="a_node17"><a xlink:href="../../d6/d94/flowControllers_8cpp.html" target="_top" xlink:title=" ">
<polygon fill="white" stroke="#666666" points="771,-19 670,-19 670,0 771,0 771,-19"/>
<text text-anchor="middle" x="720.5" y="-7" font-family="Helvetica,sans-Serif" font-size="10.00">flowControllers.cpp</text>
</a>
</g>
</g>
<!-- Node16&#45;&gt;Node17 -->
<g id="edge17" class="edge">
<title>Node16&#45;&gt;Node17</title>
<path fill="none" stroke="#63b8ff" d="M628.76,-55.98C651.5,-44.71 683.74,-28.73 703.32,-19.02"/>
<polygon fill="#63b8ff" stroke="#63b8ff" points="627.06,-52.92 619.66,-60.49 630.17,-59.19 627.06,-52.92"/>
</g>
</g>
</svg>
