<?xml version="1.0" encoding="UTF-8" standalone="no"?>
<!DOCTYPE svg PUBLIC "-//W3C//DTD SVG 1.1//EN"
 "http://www.w3.org/Graphics/SVG/1.1/DTD/svg11.dtd">
<!-- Generated by graphviz version 2.43.0 (0)
 -->
<!-- Title: cantera Pages: 1 -->
<svg width="542pt" height="399pt"
 viewBox="0.00 0.00 542.00 399.00" xmlns="http://www.w3.org/2000/svg" xmlns:xlink="http://www.w3.org/1999/xlink">
<g id="graph0" class="graph" transform="scale(1 1) rotate(0) translate(4 395)">
<title>cantera</title>
<polygon fill="white" stroke="transparent" points="-4,4 -4,-395 538,-395 538,4 -4,4"/>
<g id="clust1" class="cluster">
<title>clusterdir_d44c64559bbebec7f509842c48db8b23</title>
<g id="a_clust1"><a xlink:href="dir_d44c64559bbebec7f509842c48db8b23.html" target="_top" xlink:title="include">
<polygon fill="#ddddee" stroke="black" points="8,-8 8,-383 526,-383 526,-8 8,-8"/>
<text text-anchor="middle" x="267" y="-371" font-family="Helvetica,sans-Serif" font-size="10.00">include</text>
</a>
</g>
</g>
<g id="clust2" class="cluster">
<title>clusterdir_6fbe91f1050ba110875dc8b0702a61ee</title>
<g id="a_clust2"><a xlink:href="dir_6fbe91f1050ba110875dc8b0702a61ee.html" target="_top">
<polygon fill="#eeeeff" stroke="black" points="16,-16 16,-356 518,-356 518,-16 16,-16"/>
</a>
</g>
</g>
<!-- dir_6fbe91f1050ba110875dc8b0702a61ee -->
<g id="node1" class="node">
<title>dir_6fbe91f1050ba110875dc8b0702a61ee</title>
<text text-anchor="middle" x="404" y="-327.5" font-family="Helvetica,sans-Serif" font-size="10.00">cantera</text>
</g>
<!-- dir_a54d9e5dfc2a2dbb65ec20bef473969d -->
<g id="node2" class="node">
<title>dir_a54d9e5dfc2a2dbb65ec20bef473969d</title>
<g id="a_node2"><a xlink:href="dir_a54d9e5dfc2a2dbb65ec20bef473969d.html" target="_top" xlink:title="base">
<polygon fill="white" stroke="black" points="302,-204 248,-204 248,-168 302,-168 302,-204"/>
<text text-anchor="middle" x="275" y="-183.5" font-family="Helvetica,sans-Serif" font-size="10.00">base</text>
</a>
</g>
</g>
<!-- dir_6fbe91f1050ba110875dc8b0702a61ee&#45;&gt;dir_a54d9e5dfc2a2dbb65ec20bef473969d -->
<g id="edge2" class="edge">
<title>dir_6fbe91f1050ba110875dc8b0702a61ee&#45;&gt;dir_a54d9e5dfc2a2dbb65ec20bef473969d</title>
<path fill="none" stroke="black" d="M376.88,-314.03C361.32,-304.53 342.14,-291.19 328,-276 310.68,-257.39 296.33,-232.2 286.95,-213.36"/>
<polygon fill="black" stroke="black" points="290.01,-211.65 282.51,-204.16 283.7,-214.69 290.01,-211.65"/>
<g id="a_edge2&#45;headlabel"><a xlink:href="dir_000003_000006.html" target="_top" xlink:title="113">
<text text-anchor="middle" x="294.12" y="-211.15" font-family="Helvetica,sans-Serif" font-size="10.00">113</text>
</a>
</g>
</g>
<!-- dir_8bf842952c463ead18ee9fb35e4c5251 -->
<g id="node8" class="node">
<title>dir_8bf842952c463ead18ee9fb35e4c5251</title>
<g id="a_node8"><a xlink:href="dir_8bf842952c463ead18ee9fb35e4c5251.html" target="_top" xlink:title="numerics">
<polygon fill="white" stroke="black" points="275,-60 213,-60 213,-24 275,-24 275,-60"/>
<text text-anchor="middle" x="244" y="-39.5" font-family="Helvetica,sans-Serif" font-size="10.00">numerics</text>
</a>
</g>
</g>
<!-- dir_6fbe91f1050ba110875dc8b0702a61ee&#45;&gt;dir_8bf842952c463ead18ee9fb35e4c5251 -->
<g id="edge1" class="edge">
<title>dir_6fbe91f1050ba110875dc8b0702a61ee&#45;&gt;dir_8bf842952c463ead18ee9fb35e4c5251</title>
<path fill="none" stroke="black" d="M431.1,-322.12C453.7,-314.8 484.46,-300.75 499,-276 536.93,-211.4 481.93,-145.54 421,-96 410.28,-87.29 333.86,-66.3 285,-53.51"/>
<polygon fill="black" stroke="black" points="285.58,-50.04 275.02,-50.91 283.82,-56.82 285.58,-50.04"/>
<g id="a_edge1&#45;headlabel"><a xlink:href="dir_000003_000004.html" target="_top" xlink:title="12">
<text text-anchor="middle" x="289.78" y="-45.7" font-family="Helvetica,sans-Serif" font-size="10.00">12</text>
</a>
</g>
</g>
<!-- dir_f46b18a6c00d0db8bc9244fc17f43dd7 -->
<g id="node9" class="node">
<title>dir_f46b18a6c00d0db8bc9244fc17f43dd7</title>
<g id="a_node9"><a xlink:href="dir_f46b18a6c00d0db8bc9244fc17f43dd7.html" target="_top" xlink:title="oneD">
<polygon fill="white" stroke="black" points="190,-276 136,-276 136,-240 190,-240 190,-276"/>
<text text-anchor="middle" x="163" y="-255.5" font-family="Helvetica,sans-Serif" font-size="10.00">oneD</text>
</a>
</g>
</g>
<!-- dir_6fbe91f1050ba110875dc8b0702a61ee&#45;&gt;dir_f46b18a6c00d0db8bc9244fc17f43dd7 -->
<g id="edge5" class="edge">
<title>dir_6fbe91f1050ba110875dc8b0702a61ee&#45;&gt;dir_f46b18a6c00d0db8bc9244fc17f43dd7</title>
<path fill="none" stroke="black" d="M376.75,-315.33C373.84,-314.11 370.88,-312.97 368,-312 298.22,-288.45 273.77,-299.55 199.99,-275.9"/>
<polygon fill="black" stroke="black" points="200.84,-272.49 190.25,-272.67 198.64,-279.13 200.84,-272.49"/>
<g id="a_edge5&#45;headlabel"><a xlink:href="dir_000003_000013.html" target="_top" xlink:title="4">
<text text-anchor="middle" x="205.15" y="-268.43" font-family="Helvetica,sans-Serif" font-size="10.00">4</text>
</a>
</g>
</g>
<!-- dir_e06e40b6a3c4e04950e39aba62791861 -->
<g id="node13" class="node">
<title>dir_e06e40b6a3c4e04950e39aba62791861</title>
<g id="a_node13"><a xlink:href="dir_e06e40b6a3c4e04950e39aba62791861.html" target="_top" xlink:title="transport">
<polygon fill="white" stroke="black" points="397.5,-276 336.5,-276 336.5,-240 397.5,-240 397.5,-276"/>
<text text-anchor="middle" x="367" y="-255.5" font-family="Helvetica,sans-Serif" font-size="10.00">transport</text>
</a>
</g>
</g>
<!-- dir_6fbe91f1050ba110875dc8b0702a61ee&#45;&gt;dir_e06e40b6a3c4e04950e39aba62791861 -->
<g id="edge4" class="edge">
<title>dir_6fbe91f1050ba110875dc8b0702a61ee&#45;&gt;dir_e06e40b6a3c4e04950e39aba62791861</title>
<path fill="none" stroke="black" d="M394.85,-311.7C390.6,-303.64 385.44,-293.89 380.73,-284.98"/>
<polygon fill="black" stroke="black" points="383.81,-283.31 376.04,-276.1 377.62,-286.58 383.81,-283.31"/>
<g id="a_edge4&#45;headlabel"><a xlink:href="dir_000003_000022.html" target="_top" xlink:title="3">
<text text-anchor="middle" x="388" y="-282.66" font-family="Helvetica,sans-Serif" font-size="10.00">3</text>
</a>
</g>
</g>
<!-- dir_c2f88de04d55f3b00cc7dddcabb0c3f5 -->
<g id="node14" class="node">
<title>dir_c2f88de04d55f3b00cc7dddcabb0c3f5</title>
<g id="a_node14"><a xlink:href="dir_c2f88de04d55f3b00cc7dddcabb0c3f5.html" target="_top" xlink:title="zeroD">
<polygon fill="white" stroke="black" points="490,-276 436,-276 436,-240 490,-240 490,-276"/>
<text text-anchor="middle" x="463" y="-255.5" font-family="Helvetica,sans-Serif" font-size="10.00">zeroD</text>
</a>
</g>
</g>
<!-- dir_6fbe91f1050ba110875dc8b0702a61ee&#45;&gt;dir_c2f88de04d55f3b00cc7dddcabb0c3f5 -->
<g id="edge3" class="edge">
<title>dir_6fbe91f1050ba110875dc8b0702a61ee&#45;&gt;dir_c2f88de04d55f3b00cc7dddcabb0c3f5</title>
<path fill="none" stroke="black" d="M418.58,-311.7C425.66,-303.3 434.28,-293.07 442.05,-283.86"/>
<polygon fill="black" stroke="black" points="444.81,-286.01 448.58,-276.1 439.46,-281.49 444.81,-286.01"/>
<g id="a_edge3&#45;headlabel"><a xlink:href="dir_000003_000020.html" target="_top" xlink:title="14">
<text text-anchor="middle" x="444.67" y="-288.08" font-family="Helvetica,sans-Serif" font-size="10.00">14</text>
</a>
</g>
</g>
<!-- dir_28819bef72f6570b005694d295d15d08 -->
<g id="node7" class="node">
<title>dir_28819bef72f6570b005694d295d15d08</title>
<g id="a_node7"><a xlink:href="dir_28819bef72f6570b005694d295d15d08.html" target="_top" xlink:title="kinetics">
<polygon fill="white" stroke="black" points="255.5,-132 200.5,-132 200.5,-96 255.5,-96 255.5,-132"/>
<text text-anchor="middle" x="228" y="-111.5" font-family="Helvetica,sans-Serif" font-size="10.00">kinetics</text>
</a>
</g>
</g>
<!-- dir_a54d9e5dfc2a2dbb65ec20bef473969d&#45;&gt;dir_28819bef72f6570b005694d295d15d08 -->
<g id="edge9" class="edge">
<title>dir_a54d9e5dfc2a2dbb65ec20bef473969d&#45;&gt;dir_28819bef72f6570b005694d295d15d08</title>
<path fill="none" stroke="black" d="M257.47,-167.7C251.16,-159.56 244.33,-149.69 238.72,-140.7"/>
<polygon fill="black" stroke="black" points="241.72,-138.9 233.59,-132.1 235.71,-142.48 241.72,-138.9"/>
<g id="a_edge9&#45;headlabel"><a xlink:href="dir_000006_000008.html" target="_top" xlink:title="1">
<text text-anchor="middle" x="246" y="-138.03" font-family="Helvetica,sans-Serif" font-size="10.00">1</text>
</a>
</g>
</g>
<!-- dir_3cc50e07c07b6e5dfebd896073e0298f -->
<g id="node11" class="node">
<title>dir_3cc50e07c07b6e5dfebd896073e0298f</title>
<g id="a_node11"><a xlink:href="dir_3cc50e07c07b6e5dfebd896073e0298f.html" target="_top" xlink:title="thermo">
<polygon fill="white" stroke="black" points="394,-132 340,-132 340,-96 394,-96 394,-132"/>
<text text-anchor="middle" x="367" y="-111.5" font-family="Helvetica,sans-Serif" font-size="10.00">thermo</text>
</a>
</g>
</g>
<!-- dir_a54d9e5dfc2a2dbb65ec20bef473969d&#45;&gt;dir_3cc50e07c07b6e5dfebd896073e0298f -->
<g id="edge10" class="edge">
<title>dir_a54d9e5dfc2a2dbb65ec20bef473969d&#45;&gt;dir_3cc50e07c07b6e5dfebd896073e0298f</title>
<path fill="none" stroke="black" d="M291.83,-167.7C303.03,-158.44 318,-146.95 331.68,-137.06"/>
<polygon fill="black" stroke="black" points="333.88,-139.8 339.99,-131.14 329.82,-134.09 333.88,-139.8"/>
<g id="a_edge10&#45;headlabel"><a xlink:href="dir_000006_000011.html" target="_top" xlink:title="1">
<text text-anchor="middle" x="332.59" y="-141.69" font-family="Helvetica,sans-Serif" font-size="10.00">1</text>
</a>
</g>
</g>
<!-- dir_690289abfa5e09db35ec6757548a6dfc -->
<g id="node3" class="node">
<title>dir_690289abfa5e09db35ec6757548a6dfc</title>
<g id="a_node3"><a xlink:href="dir_690289abfa5e09db35ec6757548a6dfc.html" target="_top" xlink:title="clib">
<polygon fill="white" stroke="black" points="359,-348 305,-348 305,-312 359,-312 359,-348"/>
<text text-anchor="middle" x="332" y="-327.5" font-family="Helvetica,sans-Serif" font-size="10.00">clib</text>
</a>
</g>
</g>
<!-- dir_5490827e5992e1ca34b709b90d1ef656 -->
<g id="node4" class="node">
<title>dir_5490827e5992e1ca34b709b90d1ef656</title>
<g id="a_node4"><a xlink:href="dir_5490827e5992e1ca34b709b90d1ef656.html" target="_top" xlink:title="cython">
<polygon fill="white" stroke="black" points="287,-348 233,-348 233,-312 287,-312 287,-348"/>
<text text-anchor="middle" x="260" y="-327.5" font-family="Helvetica,sans-Serif" font-size="10.00">cython</text>
</a>
</g>
</g>
<!-- dir_5490827e5992e1ca34b709b90d1ef656&#45;&gt;dir_a54d9e5dfc2a2dbb65ec20bef473969d -->
<g id="edge15" class="edge">
<title>dir_5490827e5992e1ca34b709b90d1ef656&#45;&gt;dir_a54d9e5dfc2a2dbb65ec20bef473969d</title>
<path fill="none" stroke="black" d="M271.47,-311.67C277.37,-301.69 283.96,-288.65 287,-276 291.93,-255.47 288.28,-231.75 283.76,-213.97"/>
<polygon fill="black" stroke="black" points="287.11,-212.95 281.05,-204.25 280.36,-214.83 287.11,-212.95"/>
<g id="a_edge15&#45;headlabel"><a xlink:href="dir_000023_000006.html" target="_top" xlink:title="3">
<text text-anchor="middle" x="290.81" y="-213.15" font-family="Helvetica,sans-Serif" font-size="10.00">3</text>
</a>
</g>
</g>
<!-- dir_5490827e5992e1ca34b709b90d1ef656&#45;&gt;dir_28819bef72f6570b005694d295d15d08 -->
<g id="edge12" class="edge">
<title>dir_5490827e5992e1ca34b709b90d1ef656&#45;&gt;dir_28819bef72f6570b005694d295d15d08</title>
<path fill="none" stroke="black" d="M232.91,-323.9C179.75,-313.62 66,-290.21 55,-276 6.97,-213.98 127.17,-154.8 191.11,-128.81"/>
<polygon fill="black" stroke="black" points="192.49,-132.03 200.48,-125.07 189.9,-125.52 192.49,-132.03"/>
<g id="a_edge12&#45;headlabel"><a xlink:href="dir_000023_000008.html" target="_top" xlink:title="1">
<text text-anchor="middle" x="190.2" y="-133.49" font-family="Helvetica,sans-Serif" font-size="10.00">1</text>
</a>
</g>
</g>
<!-- dir_5490827e5992e1ca34b709b90d1ef656&#45;&gt;dir_8bf842952c463ead18ee9fb35e4c5251 -->
<g id="edge14" class="edge">
<title>dir_5490827e5992e1ca34b709b90d1ef656&#45;&gt;dir_8bf842952c463ead18ee9fb35e4c5251</title>
<path fill="none" stroke="black" d="M232.6,-323.34C174.98,-311.31 46.03,-283.66 40,-276 -17.17,-203.42 68.27,-148.94 144,-96 162.6,-83 184.77,-70.94 203.5,-61.62"/>
<polygon fill="black" stroke="black" points="205.22,-64.68 212.67,-57.14 202.15,-58.39 205.22,-64.68"/>
<g id="a_edge14&#45;headlabel"><a xlink:href="dir_000023_000004.html" target="_top" xlink:title="1">
<text text-anchor="middle" x="203.24" y="-66.31" font-family="Helvetica,sans-Serif" font-size="10.00">1</text>
</a>
</g>
</g>
<!-- dir_5490827e5992e1ca34b709b90d1ef656&#45;&gt;dir_3cc50e07c07b6e5dfebd896073e0298f -->
<g id="edge13" class="edge">
<title>dir_5490827e5992e1ca34b709b90d1ef656&#45;&gt;dir_3cc50e07c07b6e5dfebd896073e0298f</title>
<path fill="none" stroke="black" d="M287.36,-315.64C290.25,-314.36 293.17,-313.12 296,-312 344.21,-292.89 376.5,-317.95 407,-276 436.69,-235.15 406.95,-174.74 385.26,-140.72"/>
<polygon fill="black" stroke="black" points="388.11,-138.68 379.68,-132.26 382.26,-142.54 388.11,-138.68"/>
<g id="a_edge13&#45;headlabel"><a xlink:href="dir_000023_000011.html" target="_top" xlink:title="1">
<text text-anchor="middle" x="392.46" y="-137.62" font-family="Helvetica,sans-Serif" font-size="10.00">1</text>
</a>
</g>
</g>
<!-- dir_5490827e5992e1ca34b709b90d1ef656&#45;&gt;dir_e06e40b6a3c4e04950e39aba62791861 -->
<g id="edge16" class="edge">
<title>dir_5490827e5992e1ca34b709b90d1ef656&#45;&gt;dir_e06e40b6a3c4e04950e39aba62791861</title>
<path fill="none" stroke="black" d="M286.18,-311.88C300.04,-302.81 317.24,-291.55 332.21,-281.76"/>
<polygon fill="black" stroke="black" points="334.27,-284.59 340.72,-276.19 330.44,-278.74 334.27,-284.59"/>
<g id="a_edge16&#45;headlabel"><a xlink:href="dir_000023_000022.html" target="_top" xlink:title="1">
<text text-anchor="middle" x="332.82" y="-286.44" font-family="Helvetica,sans-Serif" font-size="10.00">1</text>
</a>
</g>
</g>
<!-- dir_b6602fa85e55c10ff974e6d590939819 -->
<g id="node5" class="node">
<title>dir_b6602fa85e55c10ff974e6d590939819</title>
<g id="a_node5"><a xlink:href="dir_b6602fa85e55c10ff974e6d590939819.html" target="_top" xlink:title="equil">
<polygon fill="white" stroke="black" points="118,-276 64,-276 64,-240 118,-240 118,-276"/>
<text text-anchor="middle" x="91" y="-255.5" font-family="Helvetica,sans-Serif" font-size="10.00">equil</text>
</a>
</g>
</g>
<!-- dir_b6602fa85e55c10ff974e6d590939819&#45;&gt;dir_a54d9e5dfc2a2dbb65ec20bef473969d -->
<g id="edge18" class="edge">
<title>dir_b6602fa85e55c10ff974e6d590939819&#45;&gt;dir_a54d9e5dfc2a2dbb65ec20bef473969d</title>
<path fill="none" stroke="black" d="M118,-243.9C121.02,-242.54 124.06,-241.22 127,-240 164.38,-224.52 208.1,-209.2 238.28,-199.04"/>
<polygon fill="black" stroke="black" points="239.59,-202.29 247.96,-195.8 237.37,-195.65 239.59,-202.29"/>
<g id="a_edge18&#45;headlabel"><a xlink:href="dir_000017_000006.html" target="_top" xlink:title="6">
<text text-anchor="middle" x="237.08" y="-203.62" font-family="Helvetica,sans-Serif" font-size="10.00">6</text>
</a>
</g>
</g>
<!-- dir_b6602fa85e55c10ff974e6d590939819&#45;&gt;dir_8bf842952c463ead18ee9fb35e4c5251 -->
<g id="edge17" class="edge">
<title>dir_b6602fa85e55c10ff974e6d590939819&#45;&gt;dir_8bf842952c463ead18ee9fb35e4c5251</title>
<path fill="none" stroke="black" d="M96.71,-239.99C107.75,-208.89 134.39,-141.81 173,-96 182.57,-84.64 195.02,-74.31 206.82,-65.85"/>
<polygon fill="black" stroke="black" points="209.01,-68.59 215.25,-60.03 205.03,-62.83 209.01,-68.59"/>
<g id="a_edge17&#45;headlabel"><a xlink:href="dir_000017_000004.html" target="_top" xlink:title="1">
<text text-anchor="middle" x="207.67" y="-70.47" font-family="Helvetica,sans-Serif" font-size="10.00">1</text>
</a>
</g>
</g>
<!-- dir_fed6c60f65c09ce0c5f8f61d563c6181 -->
<g id="node6" class="node">
<title>dir_fed6c60f65c09ce0c5f8f61d563c6181</title>
<g id="a_node6"><a xlink:href="dir_fed6c60f65c09ce0c5f8f61d563c6181.html" target="_top" xlink:title="extensions">
<polygon fill="white" stroke="black" points="278,-276 208,-276 208,-240 278,-240 278,-276"/>
<text text-anchor="middle" x="243" y="-255.5" font-family="Helvetica,sans-Serif" font-size="10.00">extensions</text>
</a>
</g>
</g>
<!-- dir_fed6c60f65c09ce0c5f8f61d563c6181&#45;&gt;dir_a54d9e5dfc2a2dbb65ec20bef473969d -->
<g id="edge28" class="edge">
<title>dir_fed6c60f65c09ce0c5f8f61d563c6181&#45;&gt;dir_a54d9e5dfc2a2dbb65ec20bef473969d</title>
<path fill="none" stroke="black" d="M250.91,-239.7C254.55,-231.73 258.95,-222.1 262.99,-213.26"/>
<polygon fill="black" stroke="black" points="266.21,-214.65 267.18,-204.1 259.84,-211.74 266.21,-214.65"/>
<g id="a_edge28&#45;headlabel"><a xlink:href="dir_000025_000006.html" target="_top" xlink:title="2">
<text text-anchor="middle" x="267.29" y="-216.6" font-family="Helvetica,sans-Serif" font-size="10.00">2</text>
</a>
</g>
</g>
<!-- dir_28819bef72f6570b005694d295d15d08&#45;&gt;dir_a54d9e5dfc2a2dbb65ec20bef473969d -->
<g id="edge24" class="edge">
<title>dir_28819bef72f6570b005694d295d15d08&#45;&gt;dir_a54d9e5dfc2a2dbb65ec20bef473969d</title>
<path fill="none" stroke="black" d="M245.38,-132.1C251.67,-140.21 258.51,-150.08 264.14,-159.08"/>
<polygon fill="black" stroke="black" points="261.16,-160.91 269.3,-167.7 267.17,-157.32 261.16,-160.91"/>
<g id="a_edge24&#45;headlabel"><a xlink:href="dir_000008_000006.html" target="_top" xlink:title="25">
<text text-anchor="middle" x="256.88" y="-156.79" font-family="Helvetica,sans-Serif" font-size="10.00">25</text>
</a>
</g>
</g>
<!-- dir_28819bef72f6570b005694d295d15d08&#45;&gt;dir_8bf842952c463ead18ee9fb35e4c5251 -->
<g id="edge23" class="edge">
<title>dir_28819bef72f6570b005694d295d15d08&#45;&gt;dir_8bf842952c463ead18ee9fb35e4c5251</title>
<path fill="none" stroke="black" d="M231.96,-95.7C233.72,-87.98 235.84,-78.71 237.8,-70.11"/>
<polygon fill="black" stroke="black" points="241.27,-70.63 240.09,-60.1 234.45,-69.07 241.27,-70.63"/>
<g id="a_edge23&#45;headlabel"><a xlink:href="dir_000008_000004.html" target="_top" xlink:title="3">
<text text-anchor="middle" x="243.24" y="-72.27" font-family="Helvetica,sans-Serif" font-size="10.00">3</text>
</a>
</g>
</g>
<!-- dir_8bf842952c463ead18ee9fb35e4c5251&#45;&gt;dir_a54d9e5dfc2a2dbb65ec20bef473969d -->
<g id="edge25" class="edge">
<title>dir_8bf842952c463ead18ee9fb35e4c5251&#45;&gt;dir_a54d9e5dfc2a2dbb65ec20bef473969d</title>
<path fill="none" stroke="black" d="M252.2,-60.28C256.68,-70.46 261.93,-83.71 265,-96 270.07,-116.33 272.58,-139.93 273.81,-157.71"/>
<polygon fill="black" stroke="black" points="270.32,-157.93 274.41,-167.7 277.3,-157.51 270.32,-157.93"/>
<g id="a_edge25&#45;headlabel"><a xlink:href="dir_000004_000006.html" target="_top" xlink:title="27">
<text text-anchor="middle" x="267.27" y="-152.01" font-family="Helvetica,sans-Serif" font-size="10.00">27</text>
</a>
</g>
</g>
<!-- dir_f46b18a6c00d0db8bc9244fc17f43dd7&#45;&gt;dir_a54d9e5dfc2a2dbb65ec20bef473969d -->
<g id="edge22" class="edge">
<title>dir_f46b18a6c00d0db8bc9244fc17f43dd7&#45;&gt;dir_a54d9e5dfc2a2dbb65ec20bef473969d</title>
<path fill="none" stroke="black" d="M190.11,-240.05C204.86,-230.84 223.29,-219.32 239.21,-209.37"/>
<polygon fill="black" stroke="black" points="241.12,-212.3 247.75,-204.03 237.41,-206.36 241.12,-212.3"/>
<g id="a_edge22&#45;headlabel"><a xlink:href="dir_000013_000006.html" target="_top" xlink:title="5">
<text text-anchor="middle" x="239.58" y="-214.11" font-family="Helvetica,sans-Serif" font-size="10.00">5</text>
</a>
</g>
</g>
<!-- dir_f46b18a6c00d0db8bc9244fc17f43dd7&#45;&gt;dir_28819bef72f6570b005694d295d15d08 -->
<g id="edge19" class="edge">
<title>dir_f46b18a6c00d0db8bc9244fc17f43dd7&#45;&gt;dir_28819bef72f6570b005694d295d15d08</title>
<path fill="none" stroke="black" d="M170.84,-239.87C182.02,-215.46 202.63,-170.43 215.81,-141.64"/>
<polygon fill="black" stroke="black" points="219.15,-142.74 220.13,-132.19 212.79,-139.83 219.15,-142.74"/>
<g id="a_edge19&#45;headlabel"><a xlink:href="dir_000013_000008.html" target="_top" xlink:title="2">
<text text-anchor="middle" x="220.24" y="-144.69" font-family="Helvetica,sans-Serif" font-size="10.00">2</text>
</a>
</g>
</g>
<!-- dir_f46b18a6c00d0db8bc9244fc17f43dd7&#45;&gt;dir_8bf842952c463ead18ee9fb35e4c5251 -->
<g id="edge21" class="edge">
<title>dir_f46b18a6c00d0db8bc9244fc17f43dd7&#45;&gt;dir_8bf842952c463ead18ee9fb35e4c5251</title>
<path fill="none" stroke="black" d="M162.85,-239.97C163.25,-209.4 167.22,-143.94 192,-96 197.54,-85.28 205.98,-75.32 214.46,-66.99"/>
<polygon fill="black" stroke="black" points="216.91,-69.49 221.84,-60.11 212.14,-64.36 216.91,-69.49"/>
<g id="a_edge21&#45;headlabel"><a xlink:href="dir_000013_000004.html" target="_top" xlink:title="1">
<text text-anchor="middle" x="216.21" y="-71.51" font-family="Helvetica,sans-Serif" font-size="10.00">1</text>
</a>
</g>
</g>
<!-- dir_f46b18a6c00d0db8bc9244fc17f43dd7&#45;&gt;dir_3cc50e07c07b6e5dfebd896073e0298f -->
<g id="edge20" class="edge">
<title>dir_f46b18a6c00d0db8bc9244fc17f43dd7&#45;&gt;dir_3cc50e07c07b6e5dfebd896073e0298f</title>
<path fill="none" stroke="black" d="M190.36,-243.63C193.25,-242.35 196.17,-241.12 199,-240 247.63,-220.8 269.7,-236.06 311,-204 331.85,-187.82 347.01,-161.53 356.26,-141.71"/>
<polygon fill="black" stroke="black" points="359.58,-142.86 360.44,-132.3 353.18,-140.01 359.58,-142.86"/>
<g id="a_edge20&#45;headlabel"><a xlink:href="dir_000013_000011.html" target="_top" xlink:title="2">
<text text-anchor="middle" x="360.71" y="-144.79" font-family="Helvetica,sans-Serif" font-size="10.00">2</text>
</a>
</g>
</g>
<!-- dir_6032b51809c8e73d1d95c27d721d5dd9 -->
<g id="node10" class="node">
<title>dir_6032b51809c8e73d1d95c27d721d5dd9</title>
<g id="a_node10"><a xlink:href="dir_6032b51809c8e73d1d95c27d721d5dd9.html" target="_top" xlink:title="test">
<polygon fill="white" stroke="black" points="165,-348 111,-348 111,-312 165,-312 165,-348"/>
<text text-anchor="middle" x="138" y="-327.5" font-family="Helvetica,sans-Serif" font-size="10.00">test</text>
</a>
</g>
</g>
<!-- dir_3cc50e07c07b6e5dfebd896073e0298f&#45;&gt;dir_a54d9e5dfc2a2dbb65ec20bef473969d -->
<g id="edge27" class="edge">
<title>dir_3cc50e07c07b6e5dfebd896073e0298f&#45;&gt;dir_a54d9e5dfc2a2dbb65ec20bef473969d</title>
<path fill="none" stroke="black" d="M350.39,-132.12C339.2,-141.37 324.2,-152.9 310.47,-162.82"/>
<polygon fill="black" stroke="black" points="308.25,-160.11 302.14,-168.76 312.31,-165.81 308.25,-160.11"/>
<g id="a_edge27&#45;headlabel"><a xlink:href="dir_000011_000006.html" target="_top" xlink:title="24">
<text text-anchor="middle" x="309.53" y="-153.21" font-family="Helvetica,sans-Serif" font-size="10.00">24</text>
</a>
</g>
</g>
<!-- dir_27c871881f99b5d19593ee4ab0e66513 -->
<g id="node12" class="node">
<title>dir_27c871881f99b5d19593ee4ab0e66513</title>
<g id="a_node12"><a xlink:href="dir_27c871881f99b5d19593ee4ab0e66513.html" target="_top" xlink:title="tpx">
<polygon fill="white" stroke="black" points="378,-60 324,-60 324,-24 378,-24 378,-60"/>
<text text-anchor="middle" x="351" y="-39.5" font-family="Helvetica,sans-Serif" font-size="10.00">tpx</text>
</a>
</g>
</g>
<!-- dir_3cc50e07c07b6e5dfebd896073e0298f&#45;&gt;dir_27c871881f99b5d19593ee4ab0e66513 -->
<g id="edge26" class="edge">
<title>dir_3cc50e07c07b6e5dfebd896073e0298f&#45;&gt;dir_27c871881f99b5d19593ee4ab0e66513</title>
<path fill="none" stroke="black" d="M363.04,-95.7C361.28,-87.98 359.16,-78.71 357.2,-70.11"/>
<polygon fill="black" stroke="black" points="360.55,-69.07 354.91,-60.1 353.73,-70.63 360.55,-69.07"/>
<g id="a_edge26&#45;headlabel"><a xlink:href="dir_000011_000026.html" target="_top" xlink:title="1">
<text text-anchor="middle" x="364.12" y="-69.44" font-family="Helvetica,sans-Serif" font-size="10.00">1</text>
</a>
</g>
</g>
<!-- dir_27c871881f99b5d19593ee4ab0e66513&#45;&gt;dir_a54d9e5dfc2a2dbb65ec20bef473969d -->
<g id="edge11" class="edge">
<title>dir_27c871881f99b5d19593ee4ab0e66513&#45;&gt;dir_a54d9e5dfc2a2dbb65ec20bef473969d</title>
<path fill="none" stroke="black" d="M341.8,-60.19C328.66,-84.74 304.4,-130.07 289.02,-158.81"/>
<polygon fill="black" stroke="black" points="285.8,-157.4 284.17,-167.87 291.97,-160.71 285.8,-157.4"/>
<g id="a_edge11&#45;headlabel"><a xlink:href="dir_000026_000006.html" target="_top" xlink:title="1">
<text text-anchor="middle" x="284.99" y="-150.39" font-family="Helvetica,sans-Serif" font-size="10.00">1</text>
</a>
</g>
</g>
<!-- dir_e06e40b6a3c4e04950e39aba62791861&#45;&gt;dir_a54d9e5dfc2a2dbb65ec20bef473969d -->
<g id="edge8" class="edge">
<title>dir_e06e40b6a3c4e04950e39aba62791861&#45;&gt;dir_a54d9e5dfc2a2dbb65ec20bef473969d</title>
<path fill="none" stroke="black" d="M344.26,-239.7C332.56,-230.8 318.14,-219.82 305.49,-210.2"/>
<polygon fill="black" stroke="black" points="307.56,-207.37 297.48,-204.1 303.32,-212.94 307.56,-207.37"/>
<g id="a_edge8&#45;headlabel"><a xlink:href="dir_000022_000006.html" target="_top" xlink:title="6">
<text text-anchor="middle" x="312.14" y="-204.79" font-family="Helvetica,sans-Serif" font-size="10.00">6</text>
</a>
</g>
</g>
<!-- dir_e06e40b6a3c4e04950e39aba62791861&#45;&gt;dir_8bf842952c463ead18ee9fb35e4c5251 -->
<g id="edge7" class="edge">
<title>dir_e06e40b6a3c4e04950e39aba62791861&#45;&gt;dir_8bf842952c463ead18ee9fb35e4c5251</title>
<path fill="none" stroke="black" d="M357.14,-239.85C335.64,-202.44 284.42,-113.32 258.93,-68.98"/>
<polygon fill="black" stroke="black" points="261.92,-67.16 253.9,-60.23 255.85,-70.65 261.92,-67.16"/>
<g id="a_edge7&#45;headlabel"><a xlink:href="dir_000022_000004.html" target="_top" xlink:title="4">
<text text-anchor="middle" x="266.18" y="-66.36" font-family="Helvetica,sans-Serif" font-size="10.00">4</text>
</a>
</g>
</g>
<!-- dir_e06e40b6a3c4e04950e39aba62791861&#45;&gt;dir_3cc50e07c07b6e5dfebd896073e0298f -->
<g id="edge6" class="edge">
<title>dir_e06e40b6a3c4e04950e39aba62791861&#45;&gt;dir_3cc50e07c07b6e5dfebd896073e0298f</title>
<path fill="none" stroke="black" d="M367,-239.87C367,-215.67 367,-171.21 367,-142.39"/>
<polygon fill="black" stroke="black" points="370.5,-142.19 367,-132.19 363.5,-142.19 370.5,-142.19"/>
<g id="a_edge6&#45;headlabel"><a xlink:href="dir_000022_000011.html" target="_top" xlink:title="2">
<text text-anchor="middle" x="373.34" y="-143.28" font-family="Helvetica,sans-Serif" font-size="10.00">2</text>
</a>
</g>
</g>
<!-- dir_c2f88de04d55f3b00cc7dddcabb0c3f5&#45;&gt;dir_a54d9e5dfc2a2dbb65ec20bef473969d -->
<g id="edge31" class="edge">
<title>dir_c2f88de04d55f3b00cc7dddcabb0c3f5&#45;&gt;dir_a54d9e5dfc2a2dbb65ec20bef473969d</title>
<path fill="none" stroke="black" d="M435.66,-246.82C402.99,-234.66 348.18,-214.25 311.8,-200.7"/>
<polygon fill="black" stroke="black" points="312.66,-197.29 302.06,-197.08 310.21,-203.85 312.66,-197.29"/>
<g id="a_edge31&#45;headlabel"><a xlink:href="dir_000020_000006.html" target="_top" xlink:title="12">
<text text-anchor="middle" x="317.02" y="-193.38" font-family="Helvetica,sans-Serif" font-size="10.00">12</text>
</a>
</g>
</g>
<!-- dir_c2f88de04d55f3b00cc7dddcabb0c3f5&#45;&gt;dir_8bf842952c463ead18ee9fb35e4c5251 -->
<g id="edge30" class="edge">
<title>dir_c2f88de04d55f3b00cc7dddcabb0c3f5&#45;&gt;dir_8bf842952c463ead18ee9fb35e4c5251</title>
<path fill="none" stroke="black" d="M461.7,-239.79C458.25,-206.81 445.96,-134.55 403,-96 385.39,-80.2 326.01,-63.09 285.02,-52.71"/>
<polygon fill="black" stroke="black" points="285.84,-49.31 275.29,-50.28 284.15,-56.1 285.84,-49.31"/>
<g id="a_edge30&#45;headlabel"><a xlink:href="dir_000020_000004.html" target="_top" xlink:title="1">
<text text-anchor="middle" x="290.02" y="-44.92" font-family="Helvetica,sans-Serif" font-size="10.00">1</text>
</a>
</g>
</g>
<!-- dir_c2f88de04d55f3b00cc7dddcabb0c3f5&#45;&gt;dir_3cc50e07c07b6e5dfebd896073e0298f -->
<g id="edge29" class="edge">
<title>dir_c2f88de04d55f3b00cc7dddcabb0c3f5&#45;&gt;dir_3cc50e07c07b6e5dfebd896073e0298f</title>
<path fill="none" stroke="black" d="M457.3,-239.93C450.59,-221.24 438.26,-190.88 422,-168 414.56,-157.53 404.87,-147.39 395.71,-138.84"/>
<polygon fill="black" stroke="black" points="397.96,-136.16 388.19,-132.05 393.27,-141.35 397.96,-136.16"/>
<g id="a_edge29&#45;headlabel"><a xlink:href="dir_000020_000011.html" target="_top" xlink:title="1">
<text text-anchor="middle" x="402.53" y="-133.96" font-family="Helvetica,sans-Serif" font-size="10.00">1</text>
</a>
</g>
</g>
</g>
</svg>
