<?xml version="1.0" encoding="UTF-8" standalone="no"?>
<!DOCTYPE svg PUBLIC "-//W3C//DTD SVG 1.1//EN"
 "http://www.w3.org/Graphics/SVG/1.1/DTD/svg11.dtd">
<!-- Generated by graphviz version 6.0.1 (0)
 -->
<!-- Title: FalloffRate Pages: 1 -->
<svg width="318pt" height="137pt"
 viewBox="0.00 0.00 318.00 137.00" xmlns="http://www.w3.org/2000/svg" xmlns:xlink="http://www.w3.org/1999/xlink">
<g id="graph0" class="graph" transform="scale(1 1) rotate(0) translate(4 133)">
<title>FalloffRate</title>
<!-- Node1 -->
<g id="node1" class="node">
<title>Node1</title>
<g id="a_node1"><a xlink:title="Base class for falloff rate calculators.">
<polygon fill="#999999" stroke="#666666" points="197,-74 132,-74 132,-55 197,-55 197,-74"/>
<text text-anchor="middle" x="164.5" y="-62" font-family="Helvetica,sans-Serif" font-size="10.00">FalloffRate</text>
</a>
</g>
</g>
<!-- Node3 -->
<g id="node3" class="node">
<title>Node3</title>
<g id="a_node3"><a xlink:href="../../dd/d29/classCantera_1_1LindemannRate.html" target="_top" xlink:title="The Lindemann falloff parameterization.">
<polygon fill="white" stroke="#666666" points="85,-19 0,-19 0,0 85,0 85,-19"/>
<text text-anchor="middle" x="42.5" y="-7" font-family="Helvetica,sans-Serif" font-size="10.00">LindemannRate</text>
</a>
</g>
</g>
<!-- Node1&#45;&gt;Node3 -->
<g id="edge2" class="edge">
<title>Node1&#45;&gt;Node3</title>
<path fill="none" stroke="#63b8ff" d="M135.49,-50.9C112.96,-41.11 82.3,-27.79 62.46,-19.17"/>
<polygon fill="#63b8ff" stroke="#63b8ff" points="134.33,-54.21 144.9,-54.98 137.12,-47.79 134.33,-54.21"/>
</g>
<!-- Node4 -->
<g id="node4" class="node">
<title>Node4</title>
<g id="a_node4"><a xlink:href="../../dd/d86/classCantera_1_1SriRate.html" target="_top" xlink:title="The SRI falloff function.">
<polygon fill="white" stroke="#666666" points="153.5,-19 103.5,-19 103.5,0 153.5,0 153.5,-19"/>
<text text-anchor="middle" x="128.5" y="-7" font-family="Helvetica,sans-Serif" font-size="10.00">SriRate</text>
</a>
</g>
</g>
<!-- Node1&#45;&gt;Node4 -->
<g id="edge3" class="edge">
<title>Node1&#45;&gt;Node4</title>
<path fill="none" stroke="#63b8ff" d="M152.88,-46.39C146.68,-37.27 139.33,-26.45 134.33,-19.09"/>
<polygon fill="#63b8ff" stroke="#63b8ff" points="150.04,-48.44 158.56,-54.75 155.83,-44.51 150.04,-48.44"/>
</g>
<!-- Node5 -->
<g id="node5" class="node">
<title>Node5</title>
<g id="a_node5"><a xlink:href="../../dd/df3/classCantera_1_1TroeRate.html" target="_top" xlink:title="The 3&#45; or 4&#45;parameter Troe falloff parameterization.">
<polygon fill="white" stroke="#666666" points="229,-19 172,-19 172,0 229,0 229,-19"/>
<text text-anchor="middle" x="200.5" y="-7" font-family="Helvetica,sans-Serif" font-size="10.00">TroeRate</text>
</a>
</g>
</g>
<!-- Node1&#45;&gt;Node5 -->
<g id="edge4" class="edge">
<title>Node1&#45;&gt;Node5</title>
<path fill="none" stroke="#63b8ff" d="M176.12,-46.39C182.32,-37.27 189.67,-26.45 194.67,-19.09"/>
<polygon fill="#63b8ff" stroke="#63b8ff" points="173.17,-44.51 170.44,-54.75 178.96,-48.44 173.17,-44.51"/>
</g>
<!-- Node6 -->
<g id="node6" class="node">
<title>Node6</title>
<g id="a_node6"><a xlink:href="../../d0/dd8/classCantera_1_1TsangRate.html" target="_top" xlink:title="The 1&#45; or 2&#45;parameter Tsang falloff parameterization.">
<polygon fill="white" stroke="#666666" points="310,-19 247,-19 247,0 310,0 310,-19"/>
<text text-anchor="middle" x="278.5" y="-7" font-family="Helvetica,sans-Serif" font-size="10.00">TsangRate</text>
</a>
</g>
</g>
<!-- Node1&#45;&gt;Node6 -->
<g id="edge5" class="edge">
<title>Node1&#45;&gt;Node6</title>
<path fill="none" stroke="#63b8ff" d="M191.89,-50.77C212.92,-40.99 241.39,-27.75 259.85,-19.17"/>
<polygon fill="#63b8ff" stroke="#63b8ff" points="190.41,-47.6 182.82,-54.98 193.36,-53.94 190.41,-47.6"/>
</g>
<!-- Node2 -->
<g id="node2" class="node">
<title>Node2</title>
<g id="a_node2"><a xlink:href="../../d0/d19/classCantera_1_1ReactionRate.html" target="_top" xlink:title="Abstract base class for reaction rate definitions; this base class is used by user&#45;facing APIs to acc...">
<polygon fill="white" stroke="#666666" points="203,-129 126,-129 126,-110 203,-110 203,-129"/>
<text text-anchor="middle" x="164.5" y="-117" font-family="Helvetica,sans-Serif" font-size="10.00">ReactionRate</text>
</a>
</g>
</g>
<!-- Node2&#45;&gt;Node1 -->
<g id="edge1" class="edge">
<title>Node2&#45;&gt;Node1</title>
<path fill="none" stroke="#63b8ff" d="M164.5,-99.66C164.5,-90.93 164.5,-80.99 164.5,-74.09"/>
<polygon fill="#63b8ff" stroke="#63b8ff" points="161,-99.75 164.5,-109.75 168,-99.75 161,-99.75"/>
</g>
</g>
</svg>
