<?xml version="1.0" encoding="UTF-8" standalone="no"?>
<!DOCTYPE svg PUBLIC "-//W3C//DTD SVG 1.1//EN"
 "http://www.w3.org/Graphics/SVG/1.1/DTD/svg11.dtd">
<!-- Generated by graphviz version 2.50.0 (0)
 -->
<!-- Title: vcs_VolPhase.h Pages: 1 -->
<svg width="505pt" height="207pt"
 viewBox="0.00 0.00 504.50 207.00" xmlns="http://www.w3.org/2000/svg" xmlns:xlink="http://www.w3.org/1999/xlink">
<g id="graph0" class="graph" transform="scale(1 1) rotate(0) translate(4 203)">
<title>vcs_VolPhase.h</title>
<polygon fill="white" stroke="transparent" points="-4,4 -4,-203 500.5,-203 500.5,4 -4,4"/>
<!-- Node1 -->
<g id="node1" class="node">
<title>Node1</title>
<g id="a_node1"><a xlink:title="Header for the object representing each phase within vcs.">
<polygon fill="#bfbfbf" stroke="black" points="253.5,-179.5 253.5,-198.5 341.5,-198.5 341.5,-179.5 253.5,-179.5"/>
<text text-anchor="middle" x="297.5" y="-186.5" font-family="Helvetica,sans-Serif" font-size="10.00">vcs_VolPhase.h</text>
</a>
</g>
</g>
<!-- Node2 -->
<g id="node2" class="node">
<title>Node2</title>
<g id="a_node2"><a xlink:href="../../d0/d2e/vcs__SpeciesProperties_8h.html" target="_top" xlink:title=" ">
<polygon fill="white" stroke="black" points="164,-112.5 164,-142.5 295,-142.5 295,-112.5 164,-112.5"/>
<text text-anchor="start" x="172" y="-130.5" font-family="Helvetica,sans-Serif" font-size="10.00">cantera/equil/vcs_Species</text>
<text text-anchor="middle" x="229.5" y="-119.5" font-family="Helvetica,sans-Serif" font-size="10.00">Properties.h</text>
</a>
</g>
</g>
<!-- Node1&#45;&gt;Node2 -->
<g id="edge1" class="edge">
<title>Node1&#45;&gt;Node2</title>
<path fill="none" stroke="midnightblue" d="M287.76,-179.48C278.81,-171.64 265.17,-159.71 253.35,-149.37"/>
<polygon fill="midnightblue" stroke="midnightblue" points="255.36,-146.47 245.53,-142.52 250.75,-151.74 255.36,-146.47"/>
</g>
<!-- Node12 -->
<g id="node12" class="node">
<title>Node12</title>
<g id="a_node12"><a xlink:href="../../df/dd0/Array_8h.html" target="_top" xlink:title="Header file for class Cantera::Array2D.">
<polygon fill="white" stroke="black" points="313.5,-118 313.5,-137 419.5,-137 419.5,-118 313.5,-118"/>
<text text-anchor="middle" x="366.5" y="-125" font-family="Helvetica,sans-Serif" font-size="10.00">cantera/base/Array.h</text>
</a>
</g>
</g>
<!-- Node1&#45;&gt;Node12 -->
<g id="edge11" class="edge">
<title>Node1&#45;&gt;Node12</title>
<path fill="none" stroke="midnightblue" d="M307.39,-179.48C318.15,-170.2 335.57,-155.17 348.72,-143.83"/>
<polygon fill="midnightblue" stroke="midnightblue" points="351.34,-146.19 356.63,-137.01 346.77,-140.89 351.34,-146.19"/>
</g>
<!-- Node3 -->
<g id="node3" class="node">
<title>Node3</title>
<g id="a_node3"><a xlink:href="../../d9/ddc/ct__defs_8h.html" target="_top" xlink:title="This file contains definitions of constants, types and terms that are used in internal routines and a...">
<polygon fill="white" stroke="black" points="188.5,-56.5 188.5,-75.5 304.5,-75.5 304.5,-56.5 188.5,-56.5"/>
<text text-anchor="middle" x="246.5" y="-63.5" font-family="Helvetica,sans-Serif" font-size="10.00">cantera/base/ct_defs.h</text>
</a>
</g>
</g>
<!-- Node2&#45;&gt;Node3 -->
<g id="edge2" class="edge">
<title>Node2&#45;&gt;Node3</title>
<path fill="none" stroke="midnightblue" d="M233.53,-112.4C235.85,-104.29 238.78,-94.01 241.28,-85.28"/>
<polygon fill="midnightblue" stroke="midnightblue" points="244.64,-86.23 244.03,-75.66 237.91,-84.31 244.64,-86.23"/>
</g>
<!-- Node4 -->
<g id="node4" class="node">
<title>Node4</title>
<g id="a_node4"><a xlink:href="../../db/d16/config_8h_source.html" target="_top" xlink:title=" ">
<polygon fill="white" stroke="black" points="0,-0.5 0,-19.5 51,-19.5 51,-0.5 0,-0.5"/>
<text text-anchor="middle" x="25.5" y="-7.5" font-family="Helvetica,sans-Serif" font-size="10.00">config.h</text>
</a>
</g>
</g>
<!-- Node3&#45;&gt;Node4 -->
<g id="edge3" class="edge">
<title>Node3&#45;&gt;Node4</title>
<path fill="none" stroke="midnightblue" d="M210.46,-56.44C174.94,-47.97 118.87,-34.5 60.81,-20.05"/>
<polygon fill="midnightblue" stroke="midnightblue" points="61.65,-16.65 51.1,-17.63 59.96,-23.45 61.65,-16.65"/>
</g>
<!-- Node5 -->
<g id="node5" class="node">
<title>Node5</title>
<g id="a_node5"><a xlink:title=" ">
<polygon fill="white" stroke="#bfbfbf" points="69.5,-0.5 69.5,-19.5 113.5,-19.5 113.5,-0.5 69.5,-0.5"/>
<text text-anchor="middle" x="91.5" y="-7.5" font-family="Helvetica,sans-Serif" font-size="10.00">cmath</text>
</a>
</g>
</g>
<!-- Node3&#45;&gt;Node5 -->
<g id="edge4" class="edge">
<title>Node3&#45;&gt;Node5</title>
<path fill="none" stroke="midnightblue" d="M221.94,-56.44C195.37,-47.19 152.89,-32.39 123.67,-22.21"/>
<polygon fill="midnightblue" stroke="midnightblue" points="124.53,-18.8 113.93,-18.82 122.22,-25.41 124.53,-18.8"/>
</g>
<!-- Node6 -->
<g id="node6" class="node">
<title>Node6</title>
<g id="a_node6"><a xlink:title=" ">
<polygon fill="white" stroke="#bfbfbf" points="132,-0.5 132,-19.5 177,-19.5 177,-0.5 132,-0.5"/>
<text text-anchor="middle" x="154.5" y="-7.5" font-family="Helvetica,sans-Serif" font-size="10.00">cstdlib</text>
</a>
</g>
</g>
<!-- Node3&#45;&gt;Node6 -->
<g id="edge5" class="edge">
<title>Node3&#45;&gt;Node6</title>
<path fill="none" stroke="midnightblue" d="M231.72,-56.32C217.23,-47.82 194.93,-34.73 178.01,-24.8"/>
<polygon fill="midnightblue" stroke="midnightblue" points="179.64,-21.7 169.24,-19.65 176.1,-27.74 179.64,-21.7"/>
</g>
<!-- Node7 -->
<g id="node7" class="node">
<title>Node7</title>
<g id="a_node7"><a xlink:title=" ">
<polygon fill="white" stroke="#bfbfbf" points="195.5,-0.5 195.5,-19.5 239.5,-19.5 239.5,-0.5 195.5,-0.5"/>
<text text-anchor="middle" x="217.5" y="-7.5" font-family="Helvetica,sans-Serif" font-size="10.00">vector</text>
</a>
</g>
</g>
<!-- Node3&#45;&gt;Node7 -->
<g id="edge6" class="edge">
<title>Node3&#45;&gt;Node7</title>
<path fill="none" stroke="midnightblue" d="M241.71,-56.08C237.74,-48.69 231.97,-37.95 227.07,-28.81"/>
<polygon fill="midnightblue" stroke="midnightblue" points="230.01,-26.91 222.2,-19.75 223.85,-30.22 230.01,-26.91"/>
</g>
<!-- Node8 -->
<g id="node8" class="node">
<title>Node8</title>
<g id="a_node8"><a xlink:title=" ">
<polygon fill="white" stroke="#bfbfbf" points="258,-0.5 258,-19.5 293,-19.5 293,-0.5 258,-0.5"/>
<text text-anchor="middle" x="275.5" y="-7.5" font-family="Helvetica,sans-Serif" font-size="10.00">map</text>
</a>
</g>
</g>
<!-- Node3&#45;&gt;Node8 -->
<g id="edge7" class="edge">
<title>Node3&#45;&gt;Node8</title>
<path fill="none" stroke="midnightblue" d="M251.29,-56.08C255.26,-48.69 261.03,-37.95 265.93,-28.81"/>
<polygon fill="midnightblue" stroke="midnightblue" points="269.15,-30.22 270.8,-19.75 262.99,-26.91 269.15,-30.22"/>
</g>
<!-- Node9 -->
<g id="node9" class="node">
<title>Node9</title>
<g id="a_node9"><a xlink:title=" ">
<polygon fill="white" stroke="#bfbfbf" points="311,-0.5 311,-19.5 352,-19.5 352,-0.5 311,-0.5"/>
<text text-anchor="middle" x="331.5" y="-7.5" font-family="Helvetica,sans-Serif" font-size="10.00">string</text>
</a>
</g>
</g>
<!-- Node3&#45;&gt;Node9 -->
<g id="edge8" class="edge">
<title>Node3&#45;&gt;Node9</title>
<path fill="none" stroke="midnightblue" d="M260.16,-56.32C273.42,-47.9 293.77,-34.97 309.35,-25.07"/>
<polygon fill="midnightblue" stroke="midnightblue" points="311.31,-27.97 317.88,-19.65 307.56,-22.06 311.31,-27.97"/>
</g>
<!-- Node10 -->
<g id="node10" class="node">
<title>Node10</title>
<g id="a_node10"><a xlink:title=" ">
<polygon fill="white" stroke="#bfbfbf" points="370.5,-0.5 370.5,-19.5 426.5,-19.5 426.5,-0.5 370.5,-0.5"/>
<text text-anchor="middle" x="398.5" y="-7.5" font-family="Helvetica,sans-Serif" font-size="10.00">algorithm</text>
</a>
</g>
</g>
<!-- Node3&#45;&gt;Node10 -->
<g id="edge9" class="edge">
<title>Node3&#45;&gt;Node10</title>
<path fill="none" stroke="midnightblue" d="M270.58,-56.44C296.04,-47.4 336.39,-33.06 364.96,-22.92"/>
<polygon fill="midnightblue" stroke="midnightblue" points="366.28,-26.16 374.53,-19.52 363.93,-19.57 366.28,-26.16"/>
</g>
<!-- Node11 -->
<g id="node11" class="node">
<title>Node11</title>
<g id="a_node11"><a xlink:title=" ">
<polygon fill="white" stroke="#bfbfbf" points="444.5,-0.5 444.5,-19.5 496.5,-19.5 496.5,-0.5 444.5,-0.5"/>
<text text-anchor="middle" x="470.5" y="-7.5" font-family="Helvetica,sans-Serif" font-size="10.00">memory</text>
</a>
</g>
</g>
<!-- Node3&#45;&gt;Node11 -->
<g id="edge10" class="edge">
<title>Node3&#45;&gt;Node11</title>
<path fill="none" stroke="midnightblue" d="M283.13,-56.48C319.23,-48.04 376.21,-34.6 434.41,-20.24"/>
<polygon fill="midnightblue" stroke="midnightblue" points="435.27,-23.63 444.14,-17.83 433.59,-16.84 435.27,-23.63"/>
</g>
<!-- Node12&#45;&gt;Node3 -->
<g id="edge12" class="edge">
<title>Node12&#45;&gt;Node3</title>
<path fill="none" stroke="midnightblue" d="M349.31,-117.98C329.26,-108.03 295.9,-91.49 272.64,-79.96"/>
<polygon fill="midnightblue" stroke="midnightblue" points="274.18,-76.82 263.66,-75.51 271.07,-83.09 274.18,-76.82"/>
</g>
<!-- Node13 -->
<g id="node13" class="node">
<title>Node13</title>
<g id="a_node13"><a xlink:title=" ">
<polygon fill="white" stroke="#bfbfbf" points="339.5,-56.5 339.5,-75.5 393.5,-75.5 393.5,-56.5 339.5,-56.5"/>
<text text-anchor="middle" x="366.5" y="-63.5" font-family="Helvetica,sans-Serif" font-size="10.00">iostream</text>
</a>
</g>
</g>
<!-- Node12&#45;&gt;Node13 -->
<g id="edge13" class="edge">
<title>Node12&#45;&gt;Node13</title>
<path fill="none" stroke="midnightblue" d="M366.5,-117.98C366.5,-109.58 366.5,-96.48 366.5,-85.66"/>
<polygon fill="midnightblue" stroke="midnightblue" points="370,-85.51 366.5,-75.51 363,-85.51 370,-85.51"/>
</g>
</g>
</svg>
