<?xml version="1.0" encoding="UTF-8" standalone="no"?>
<!DOCTYPE svg PUBLIC "-//W3C//DTD SVG 1.1//EN"
 "http://www.w3.org/Graphics/SVG/1.1/DTD/svg11.dtd">
<!-- Generated by graphviz version 2.50.0 (0)
 -->
<!-- Title: IDA_Solver Pages: 1 -->
<svg width="205pt" height="219pt"
 viewBox="0.00 0.00 204.50 219.00" xmlns="http://www.w3.org/2000/svg" xmlns:xlink="http://www.w3.org/1999/xlink">
<g id="graph0" class="graph" transform="scale(1 1) rotate(0) translate(4 215)">
<title>IDA_Solver</title>
<polygon fill="white" stroke="transparent" points="-4,4 -4,-215 200.5,-215 200.5,4 -4,4"/>
<!-- Node1 -->
<g id="node1" class="node">
<title>Node1</title>
<g id="a_node1"><a xlink:title="Wrapper for Sundials IDA solver.">
<polygon fill="#bfbfbf" stroke="black" points="78,-0.5 78,-19.5 145,-19.5 145,-0.5 78,-0.5"/>
<text text-anchor="middle" x="111.5" y="-7.5" font-family="Helvetica,sans-Serif" font-size="10.00">IDA_Solver</text>
</a>
</g>
</g>
<!-- Node2 -->
<g id="node2" class="node">
<title>Node2</title>
<g id="a_node2"><a xlink:href="../../d8/db5/classCantera_1_1DAE__Solver.html" target="_top" xlink:title="Wrapper for DAE solvers.">
<polygon fill="white" stroke="black" points="3,-67.5 3,-86.5 74,-86.5 74,-67.5 3,-67.5"/>
<text text-anchor="middle" x="38.5" y="-74.5" font-family="Helvetica,sans-Serif" font-size="10.00">DAE_Solver</text>
</a>
</g>
</g>
<!-- Node2&#45;&gt;Node1 -->
<g id="edge1" class="edge">
<title>Node2&#45;&gt;Node1</title>
<path fill="none" stroke="midnightblue" d="M56.07,-60.36C70.42,-47.58 90.17,-29.99 101.81,-19.63"/>
<polygon fill="midnightblue" stroke="midnightblue" points="53.49,-57.97 48.35,-67.23 58.14,-63.2 53.49,-57.97"/>
</g>
<!-- Node3 -->
<g id="node3" class="node">
<title>Node3</title>
<g id="a_node3"><a xlink:href="../../d2/d8d/classCantera_1_1ResidJacEval.html" target="_top" xlink:title="Wrappers for the function evaluators for Nonlinear solvers and Time steppers.">
<polygon fill="white" stroke="black" points="0,-134.5 0,-153.5 77,-153.5 77,-134.5 0,-134.5"/>
<text text-anchor="middle" x="38.5" y="-141.5" font-family="Helvetica,sans-Serif" font-size="10.00">ResidJacEval</text>
</a>
</g>
</g>
<!-- Node3&#45;&gt;Node2 -->
<g id="edge2" class="edge">
<title>Node3&#45;&gt;Node2</title>
<path fill="none" stroke="#9a32cd" stroke-dasharray="5,2" d="M38.5,-124.04C38.5,-111.67 38.5,-96.12 38.5,-86.63"/>
<polygon fill="#9a32cd" stroke="#9a32cd" points="35,-124.23 38.5,-134.23 42,-124.23 35,-124.23"/>
<text text-anchor="middle" x="57.5" y="-108" font-family="Helvetica,sans-Serif" font-size="10.00"> m_resid</text>
</g>
<!-- Node4 -->
<g id="node4" class="node">
<title>Node4</title>
<g id="a_node4"><a xlink:href="../../d3/d1f/classCantera_1_1ResidEval.html" target="_top" xlink:title="Virtual base class for DAE residual function evaluators.">
<polygon fill="white" stroke="black" points="7.5,-191.5 7.5,-210.5 69.5,-210.5 69.5,-191.5 7.5,-191.5"/>
<text text-anchor="middle" x="38.5" y="-198.5" font-family="Helvetica,sans-Serif" font-size="10.00">ResidEval</text>
</a>
</g>
</g>
<!-- Node4&#45;&gt;Node3 -->
<g id="edge3" class="edge">
<title>Node4&#45;&gt;Node3</title>
<path fill="none" stroke="midnightblue" d="M38.5,-181.12C38.5,-171.82 38.5,-161.06 38.5,-153.71"/>
<polygon fill="midnightblue" stroke="midnightblue" points="35,-181.41 38.5,-191.41 42,-181.41 35,-181.41"/>
</g>
<!-- Node5 -->
<g id="node5" class="node">
<title>Node5</title>
<g id="a_node5"><a xlink:href="../../d8/dba/classCantera_1_1SundialsContext.html" target="_top" xlink:title="A wrapper for managing a SUNContext object, need for Sundials &gt;= 6.0.">
<polygon fill="white" stroke="black" points="92,-67.5 92,-86.5 181,-86.5 181,-67.5 92,-67.5"/>
<text text-anchor="middle" x="136.5" y="-74.5" font-family="Helvetica,sans-Serif" font-size="10.00">SundialsContext</text>
</a>
</g>
</g>
<!-- Node5&#45;&gt;Node1 -->
<g id="edge4" class="edge">
<title>Node5&#45;&gt;Node1</title>
<path fill="none" stroke="#9a32cd" stroke-dasharray="5,2" d="M129.5,-57.79C124.7,-45.31 118.54,-29.31 114.82,-19.63"/>
<polygon fill="#9a32cd" stroke="#9a32cd" points="126.27,-59.16 133.13,-67.23 132.81,-56.64 126.27,-59.16"/>
<text text-anchor="middle" x="160.5" y="-41" font-family="Helvetica,sans-Serif" font-size="10.00"> m_sundials_ctx</text>
</g>
</g>
</svg>
