<?xml version="1.0" encoding="UTF-8" standalone="no"?>
<!DOCTYPE svg PUBLIC "-//W3C//DTD SVG 1.1//EN"
 "http://www.w3.org/Graphics/SVG/1.1/DTD/svg11.dtd">
<!-- Generated by graphviz version 2.43.0 (0)
 -->
<!-- Title: Flow1D.h Pages: 1 -->
<svg width="727pt" height="137pt"
 viewBox="0.00 0.00 727.00 137.00" xmlns="http://www.w3.org/2000/svg" xmlns:xlink="http://www.w3.org/1999/xlink">
<g id="graph0" class="graph" transform="scale(1 1) rotate(0) translate(4 133)">
<title>Flow1D.h</title>
<!-- Node1 -->
<g id="Node000001" class="node">
<title>Node1</title>
<g id="a_Node000001"><a xlink:title=" ">
<polygon fill="#999999" stroke="#666666" points="377.5,-129 315.5,-129 315.5,-110 377.5,-110 377.5,-129"/>
<text text-anchor="middle" x="346.5" y="-117" font-family="Helvetica,sans-Serif" font-size="10.00">Flow1D.h</text>
</a>
</g>
</g>
<!-- Node2 -->
<g id="Node000002" class="node">
<title>Node2</title>
<g id="a_Node000002"><a xlink:href="../../de/d16/Boundary1D_8cpp.html" target="_top" xlink:title=" ">
<polygon fill="white" stroke="#666666" points="97,-19 0,-19 0,0 97,0 97,-19"/>
<text text-anchor="middle" x="48.5" y="-7" font-family="Helvetica,sans-Serif" font-size="10.00">Boundary1D.cpp</text>
</a>
</g>
</g>
<!-- Node1&#45;&gt;Node2 -->
<g id="edge1_Node000001_Node000002" class="edge">
<title>Node1&#45;&gt;Node2</title>
<g id="a_edge1_Node000001_Node000002"><a xlink:title=" ">
<path fill="none" stroke="#63b8ff" d="M305.44,-115.4C242.12,-109.95 124.29,-97.02 89.5,-74 69.14,-60.53 56.72,-33.11 51.45,-19.13"/>
<polygon fill="#63b8ff" stroke="#63b8ff" points="305.23,-118.89 315.49,-116.24 305.82,-111.91 305.23,-118.89"/>
</a>
</g>
</g>
<!-- Node3 -->
<g id="Node000003" class="node">
<title>Node3</title>
<g id="a_Node000003"><a xlink:href="../../dc/d7c/Boundary1D_8h.html" target="_top" xlink:title="Boundary objects for one&#45;dimensional simulations.">
<polygon fill="white" stroke="#666666" points="184.5,-74 98.5,-74 98.5,-55 184.5,-55 184.5,-74"/>
<text text-anchor="middle" x="141.5" y="-62" font-family="Helvetica,sans-Serif" font-size="10.00">Boundary1D.h</text>
</a>
</g>
</g>
<!-- Node1&#45;&gt;Node3 -->
<g id="edge2_Node000001_Node000003" class="edge">
<title>Node1&#45;&gt;Node3</title>
<g id="a_edge2_Node000001_Node000003"><a xlink:title=" ">
<path fill="none" stroke="#63b8ff" d="M305.53,-107.91C267.08,-97.97 210.3,-83.29 174.63,-74.07"/>
<polygon fill="#63b8ff" stroke="#63b8ff" points="304.81,-111.34 315.36,-110.45 306.56,-104.56 304.81,-111.34"/>
</a>
</g>
</g>
<!-- Node4 -->
<g id="Node000004" class="node">
<title>Node4</title>
<g id="a_Node000004"><a xlink:href="../../d9/db4/DomainFactory_8cpp.html" target="_top" xlink:title=" ">
<polygon fill="white" stroke="#666666" points="305,-19 196,-19 196,0 305,0 305,-19"/>
<text text-anchor="middle" x="250.5" y="-7" font-family="Helvetica,sans-Serif" font-size="10.00">DomainFactory.cpp</text>
</a>
</g>
</g>
<!-- Node1&#45;&gt;Node4 -->
<g id="edge6_Node000001_Node000004" class="edge">
<title>Node1&#45;&gt;Node4</title>
<g id="a_edge6_Node000001_Node000004"><a xlink:title=" ">
<path fill="none" stroke="#63b8ff" d="M312.86,-105.88C297.68,-98.64 280.68,-88.15 269.5,-74 256.52,-57.57 252.39,-32.41 251.09,-19.23"/>
<polygon fill="#63b8ff" stroke="#63b8ff" points="311.46,-109.09 322.02,-109.97 314.31,-102.69 311.46,-109.09"/>
</a>
</g>
</g>
<!-- Node5 -->
<g id="Node000005" class="node">
<title>Node5</title>
<g id="a_Node000005"><a xlink:href="../../d4/d07/onedim_8h.html" target="_top" xlink:title=" ">
<polygon fill="white" stroke="#666666" points="177.5,-19 115.5,-19 115.5,0 177.5,0 177.5,-19"/>
<text text-anchor="middle" x="146.5" y="-7" font-family="Helvetica,sans-Serif" font-size="10.00">onedim.h</text>
</a>
</g>
</g>
<!-- Node1&#45;&gt;Node5 -->
<g id="edge16_Node000001_Node000005" class="edge">
<title>Node1&#45;&gt;Node5</title>
<g id="a_edge16_Node000001_Node000005"><a xlink:title=" ">
<path fill="none" stroke="#63b8ff" d="M318.42,-105.42C300.29,-96.81 276.3,-85.13 255.5,-74 220.74,-55.41 180.97,-31.57 160.43,-19.05"/>
<polygon fill="#63b8ff" stroke="#63b8ff" points="317.29,-108.75 327.83,-109.86 320.28,-102.42 317.29,-108.75"/>
</a>
</g>
</g>
<!-- Node6 -->
<g id="Node000006" class="node">
<title>Node6</title>
<g id="a_Node000006"><a xlink:href="../../d7/dc5/Flow1D_8cpp.html" target="_top" xlink:title=" ">
<polygon fill="white" stroke="#666666" points="548.5,-74 474.5,-74 474.5,-55 548.5,-55 548.5,-74"/>
<text text-anchor="middle" x="511.5" y="-62" font-family="Helvetica,sans-Serif" font-size="10.00">Flow1D.cpp</text>
</a>
</g>
</g>
<!-- Node1&#45;&gt;Node6 -->
<g id="edge7_Node000001_Node000006" class="edge">
<title>Node1&#45;&gt;Node6</title>
<g id="a_edge7_Node000001_Node000006"><a xlink:title=" ">
<path fill="none" stroke="#63b8ff" d="M382.93,-106.8C413.72,-96.91 457.12,-82.97 484.78,-74.08"/>
<polygon fill="#63b8ff" stroke="#63b8ff" points="381.46,-103.59 373.01,-109.98 383.6,-110.26 381.46,-103.59"/>
</a>
</g>
</g>
<!-- Node7 -->
<g id="Node000007" class="node">
<title>Node7</title>
<g id="a_Node000007"><a xlink:href="../../d4/d57/IonFlow_8cpp.html" target="_top" xlink:title=" ">
<polygon fill="white" stroke="#666666" points="484.5,-19 410.5,-19 410.5,0 484.5,0 484.5,-19"/>
<text text-anchor="middle" x="447.5" y="-7" font-family="Helvetica,sans-Serif" font-size="10.00">IonFlow.cpp</text>
</a>
</g>
</g>
<!-- Node1&#45;&gt;Node7 -->
<g id="edge8_Node000001_Node000007" class="edge">
<title>Node1&#45;&gt;Node7</title>
<g id="a_edge8_Node000001_Node000007"><a xlink:title=" ">
<path fill="none" stroke="#63b8ff" d="M382.46,-105.88C398.23,-98.72 415.79,-88.28 427.5,-74 440.84,-57.73 445.32,-32.5 446.8,-19.27"/>
<polygon fill="#63b8ff" stroke="#63b8ff" points="380.77,-102.79 372.93,-109.92 383.5,-109.24 380.77,-102.79"/>
</a>
</g>
</g>
<!-- Node8 -->
<g id="Node000008" class="node">
<title>Node8</title>
<g id="a_Node000008"><a xlink:href="../../d7/d4b/IonFlow_8h.html" target="_top" xlink:title=" ">
<polygon fill="white" stroke="#666666" points="418,-74 355,-74 355,-55 418,-55 418,-74"/>
<text text-anchor="middle" x="386.5" y="-62" font-family="Helvetica,sans-Serif" font-size="10.00">IonFlow.h</text>
</a>
</g>
</g>
<!-- Node1&#45;&gt;Node8 -->
<g id="edge9_Node000001_Node000008" class="edge">
<title>Node1&#45;&gt;Node8</title>
<g id="a_edge9_Node000001_Node000008"><a xlink:title=" ">
<path fill="none" stroke="#63b8ff" d="M359.2,-101.67C366.13,-92.5 374.41,-81.52 380.02,-74.09"/>
<polygon fill="#63b8ff" stroke="#63b8ff" points="356.34,-99.66 353.11,-109.75 361.92,-103.87 356.34,-99.66"/>
</a>
</g>
</g>
<!-- Node9 -->
<g id="Node000009" class="node">
<title>Node9</title>
<g id="a_Node000009"><a xlink:href="../../d0/de8/Sim1D_8cpp.html" target="_top" xlink:title=" ">
<polygon fill="white" stroke="#666666" points="636,-74 567,-74 567,-55 636,-55 636,-74"/>
<text text-anchor="middle" x="601.5" y="-62" font-family="Helvetica,sans-Serif" font-size="10.00">Sim1D.cpp</text>
</a>
</g>
</g>
<!-- Node1&#45;&gt;Node9 -->
<g id="edge12_Node000001_Node000009" class="edge">
<title>Node1&#45;&gt;Node9</title>
<g id="a_edge12_Node000001_Node000009"><a xlink:title=" ">
<path fill="none" stroke="#63b8ff" d="M387.58,-109.96C437.24,-99.64 519.94,-82.45 566.63,-72.75"/>
<polygon fill="#63b8ff" stroke="#63b8ff" points="386.59,-106.59 377.51,-112.05 388.02,-113.45 386.59,-106.59"/>
</a>
</g>
</g>
<!-- Node10 -->
<g id="Node000010" class="node">
<title>Node10</title>
<g id="a_Node000010"><a xlink:href="../../d7/d7c/StFlow_8h.html" target="_top" xlink:title=" ">
<polygon fill="white" stroke="#666666" points="336.5,-74 278.5,-74 278.5,-55 336.5,-55 336.5,-74"/>
<text text-anchor="middle" x="307.5" y="-62" font-family="Helvetica,sans-Serif" font-size="10.00">StFlow.h</text>
</a>
</g>
</g>
<!-- Node1&#45;&gt;Node10 -->
<g id="edge13_Node000001_Node000010" class="edge">
<title>Node1&#45;&gt;Node10</title>
<g id="a_edge13_Node000001_Node000010"><a xlink:title=" ">
<path fill="none" stroke="#63b8ff" d="M334.12,-101.67C327.36,-92.5 319.29,-81.52 313.82,-74.09"/>
<polygon fill="#63b8ff" stroke="#63b8ff" points="331.31,-103.77 340.06,-109.75 336.95,-99.62 331.31,-103.77"/>
</a>
</g>
</g>
<!-- Node12 -->
<g id="Node000012" class="node">
<title>Node12</title>
<g id="a_Node000012"><a xlink:href="../../dd/d3c/refine_8cpp.html" target="_top" xlink:title=" ">
<polygon fill="white" stroke="#666666" points="719,-74 654,-74 654,-55 719,-55 719,-74"/>
<text text-anchor="middle" x="686.5" y="-62" font-family="Helvetica,sans-Serif" font-size="10.00">refine.cpp</text>
</a>
</g>
</g>
<!-- Node1&#45;&gt;Node12 -->
<g id="edge17_Node000001_Node000012" class="edge">
<title>Node1&#45;&gt;Node12</title>
<g id="a_edge17_Node000001_Node000012"><a xlink:title=" ">
<path fill="none" stroke="#63b8ff" d="M387.77,-113.11C445.56,-105.39 553.81,-90.31 645.5,-74 648.22,-73.52 651.04,-72.99 653.86,-72.44"/>
<polygon fill="#63b8ff" stroke="#63b8ff" points="387.04,-109.68 377.59,-114.46 387.96,-116.62 387.04,-109.68"/>
</a>
</g>
</g>
<!-- Node3&#45;&gt;Node2 -->
<g id="edge3_Node000003_Node000002" class="edge">
<title>Node3&#45;&gt;Node2</title>
<g id="a_edge3_Node000003_Node000002"><a xlink:title=" ">
<path fill="none" stroke="#63b8ff" d="M117.75,-49.97C100.75,-40.28 78.37,-27.52 63.71,-19.17"/>
<polygon fill="#63b8ff" stroke="#63b8ff" points="116.14,-53.07 126.56,-54.98 119.6,-46.99 116.14,-53.07"/>
</a>
</g>
</g>
<!-- Node3&#45;&gt;Node4 -->
<g id="edge4_Node000003_Node000004" class="edge">
<title>Node3&#45;&gt;Node4</title>
<g id="a_edge4_Node000003_Node000004"><a xlink:title=" ">
<path fill="none" stroke="#63b8ff" d="M168.23,-50.5C188.29,-40.75 215.18,-27.68 232.67,-19.17"/>
<polygon fill="#63b8ff" stroke="#63b8ff" points="166.48,-47.46 159.01,-54.98 169.54,-53.76 166.48,-47.46"/>
</a>
</g>
</g>
<!-- Node3&#45;&gt;Node5 -->
<g id="edge5_Node000003_Node000005" class="edge">
<title>Node3&#45;&gt;Node5</title>
<g id="a_edge5_Node000003_Node000005"><a xlink:title=" ">
<path fill="none" stroke="#63b8ff" d="M143.28,-44.66C144.1,-35.93 145.04,-25.99 145.69,-19.09"/>
<polygon fill="#63b8ff" stroke="#63b8ff" points="139.78,-44.46 142.33,-54.75 146.75,-45.12 139.78,-44.46"/>
</a>
</g>
</g>
<!-- Node8&#45;&gt;Node4 -->
<g id="edge10_Node000008_Node000004" class="edge">
<title>Node8&#45;&gt;Node4</title>
<g id="a_edge10_Node000008_Node000004"><a xlink:title=" ">
<path fill="none" stroke="#63b8ff" d="M355.17,-51.29C329.96,-41.47 295.17,-27.91 272.75,-19.17"/>
<polygon fill="#63b8ff" stroke="#63b8ff" points="354.06,-54.61 364.65,-54.98 356.6,-48.09 354.06,-54.61"/>
</a>
</g>
</g>
<!-- Node8&#45;&gt;Node7 -->
<g id="edge11_Node000008_Node000007" class="edge">
<title>Node8&#45;&gt;Node7</title>
<g id="a_edge11_Node000008_Node000007"><a xlink:title=" ">
<path fill="none" stroke="#63b8ff" d="M403.97,-48.32C414.84,-38.87 428.44,-27.06 437.52,-19.17"/>
<polygon fill="#63b8ff" stroke="#63b8ff" points="401.55,-45.78 396.3,-54.98 406.15,-51.07 401.55,-45.78"/>
</a>
</g>
</g>
<!-- Node10&#45;&gt;Node4 -->
<g id="edge14_Node000010_Node000004" class="edge">
<title>Node10&#45;&gt;Node4</title>
<g id="a_edge14_Node000010_Node000004"><a xlink:title=" ">
<path fill="none" stroke="#63b8ff" d="M290.88,-48.04C280.77,-38.64 268.22,-26.98 259.82,-19.17"/>
<polygon fill="#63b8ff" stroke="#63b8ff" points="288.64,-50.74 298.34,-54.98 293.4,-45.61 288.64,-50.74"/>
</a>
</g>
</g>
<!-- Node11 -->
<g id="Node000011" class="node">
<title>Node11</title>
<g id="a_Node000011"><a xlink:href="../../d4/d8d/StFlow_8cpp.html" target="_top" xlink:title=" ">
<polygon fill="white" stroke="#666666" points="392,-19 323,-19 323,0 392,0 392,-19"/>
<text text-anchor="middle" x="357.5" y="-7" font-family="Helvetica,sans-Serif" font-size="10.00">StFlow.cpp</text>
</a>
</g>
</g>
<!-- Node10&#45;&gt;Node11 -->
<g id="edge15_Node000010_Node000011" class="edge">
<title>Node10&#45;&gt;Node11</title>
<g id="a_edge15_Node000010_Node000011"><a xlink:title=" ">
<path fill="none" stroke="#63b8ff" d="M322.84,-47.24C331.6,-37.95 342.24,-26.68 349.4,-19.09"/>
<polygon fill="#63b8ff" stroke="#63b8ff" points="320.07,-45.07 315.76,-54.75 325.16,-49.88 320.07,-45.07"/>
</a>
</g>
</g>
</g>
</svg>
