<?xml version="1.0" encoding="UTF-8" standalone="no"?>
<!DOCTYPE svg PUBLIC "-//W3C//DTD SVG 1.1//EN"
 "http://www.w3.org/Graphics/SVG/1.1/DTD/svg11.dtd">
<!-- Generated by graphviz version 2.50.0 (0)
 -->
<!-- Title: PlogReaction2 Pages: 1 -->
<svg width="192pt" height="276pt"
 viewBox="0.00 0.00 191.50 276.00" xmlns="http://www.w3.org/2000/svg" xmlns:xlink="http://www.w3.org/1999/xlink">
<g id="graph0" class="graph" transform="scale(1 1) rotate(0) translate(4 272)">
<title>PlogReaction2</title>
<polygon fill="white" stroke="transparent" points="-4,4 -4,-272 187.5,-272 187.5,4 -4,4"/>
<!-- Node1 -->
<g id="node1" class="node">
<title>Node1</title>
<g id="a_node1"><a xlink:title="A pressure&#45;dependent reaction parameterized by logarithmically interpolating between Arrhenius rate e...">
<polygon fill="#bfbfbf" stroke="black" points="50.5,-0.5 50.5,-19.5 130.5,-19.5 130.5,-0.5 50.5,-0.5"/>
<text text-anchor="middle" x="90.5" y="-7.5" font-family="Helvetica,sans-Serif" font-size="10.00">PlogReaction2</text>
</a>
</g>
</g>
<!-- Node2 -->
<g id="node2" class="node">
<title>Node2</title>
<g id="a_node2"><a xlink:href="../../d5/d66/classCantera_1_1Reaction.html" target="_top" xlink:title="Abstract base class which stores data about a reaction and its rate parameterization so that it can b...">
<polygon fill="white" stroke="black" points="95.5,-124.5 95.5,-143.5 151.5,-143.5 151.5,-124.5 95.5,-124.5"/>
<text text-anchor="middle" x="123.5" y="-131.5" font-family="Helvetica,sans-Serif" font-size="10.00">Reaction</text>
</a>
</g>
</g>
<!-- Node2&#45;&gt;Node1 -->
<g id="edge1" class="edge">
<title>Node2&#45;&gt;Node1</title>
<path fill="none" stroke="midnightblue" d="M120.15,-114.62C116.41,-95.31 109.8,-64.17 101.5,-38 99.54,-31.82 96.79,-25.07 94.53,-19.87"/>
<polygon fill="midnightblue" stroke="midnightblue" points="116.72,-115.31 122,-124.49 123.59,-114.02 116.72,-115.31"/>
</g>
<!-- Node3 -->
<g id="node3" class="node">
<title>Node3</title>
<g id="a_node3"><a xlink:href="../../db/d74/classCantera_1_1AnyMap.html" target="_top" xlink:title="A map of string keys to values whose type can vary at runtime.">
<polygon fill="white" stroke="black" points="34,-191.5 34,-210.5 87,-210.5 87,-191.5 34,-191.5"/>
<text text-anchor="middle" x="60.5" y="-198.5" font-family="Helvetica,sans-Serif" font-size="10.00">AnyMap</text>
</a>
</g>
</g>
<!-- Node3&#45;&gt;Node2 -->
<g id="edge2" class="edge">
<title>Node3&#45;&gt;Node2</title>
<path fill="none" stroke="#9a32cd" stroke-dasharray="5,2" d="M76.01,-184C88.37,-171.25 105.19,-153.89 115.14,-143.63"/>
<polygon fill="#9a32cd" stroke="#9a32cd" points="73.44,-181.62 69,-191.23 78.47,-186.49 73.44,-181.62"/>
<text text-anchor="middle" x="109" y="-165" font-family="Helvetica,sans-Serif" font-size="10.00"> input</text>
</g>
<!-- Node7 -->
<g id="node7" class="node">
<title>Node7</title>
<g id="a_node7"><a xlink:href="../../d0/d19/classCantera_1_1ReactionRate.html" target="_top" xlink:title="Abstract base class for reaction rate definitions; this base class is used by user&#45;facing APIs to acc...">
<polygon fill="white" stroke="black" points="0,-124.5 0,-143.5 77,-143.5 77,-124.5 0,-124.5"/>
<text text-anchor="middle" x="38.5" y="-131.5" font-family="Helvetica,sans-Serif" font-size="10.00">ReactionRate</text>
</a>
</g>
</g>
<!-- Node3&#45;&gt;Node7 -->
<g id="edge7" class="edge">
<title>Node3&#45;&gt;Node7</title>
<path fill="none" stroke="#9a32cd" stroke-dasharray="5,2" d="M45.14,-183.54C42.85,-180.26 40.82,-176.68 39.5,-173 36.08,-163.43 36.41,-151.62 37.22,-143.73"/>
<polygon fill="#9a32cd" stroke="#9a32cd" points="42.48,-185.82 51.49,-191.4 47.92,-181.42 42.48,-185.82"/>
<text text-anchor="middle" x="58.5" y="-165" font-family="Helvetica,sans-Serif" font-size="10.00"> m_input</text>
</g>
<!-- Node4 -->
<g id="node4" class="node">
<title>Node4</title>
<g id="a_node4"><a xlink:href="../../d9/d23/classCantera_1_1AnyBase.html" target="_top" xlink:title="Base class defining common data possessed by both AnyMap and AnyValue objects.">
<polygon fill="white" stroke="black" points="32.5,-248.5 32.5,-267.5 88.5,-267.5 88.5,-248.5 32.5,-248.5"/>
<text text-anchor="middle" x="60.5" y="-255.5" font-family="Helvetica,sans-Serif" font-size="10.00">AnyBase</text>
</a>
</g>
</g>
<!-- Node4&#45;&gt;Node3 -->
<g id="edge3" class="edge">
<title>Node4&#45;&gt;Node3</title>
<path fill="none" stroke="midnightblue" d="M60.5,-238.12C60.5,-228.82 60.5,-218.06 60.5,-210.71"/>
<polygon fill="midnightblue" stroke="midnightblue" points="57,-238.41 60.5,-248.41 64,-238.41 57,-238.41"/>
</g>
<!-- Node5 -->
<g id="node5" class="node">
<title>Node5</title>
<g id="a_node5"><a xlink:href="../../db/d63/classCantera_1_1Units.html" target="_top" xlink:title="A representation of the units associated with a dimensional quantity.">
<polygon fill="white" stroke="black" points="127.5,-191.5 127.5,-210.5 167.5,-210.5 167.5,-191.5 127.5,-191.5"/>
<text text-anchor="middle" x="147.5" y="-198.5" font-family="Helvetica,sans-Serif" font-size="10.00">Units</text>
</a>
</g>
</g>
<!-- Node5&#45;&gt;Node2 -->
<g id="edge4" class="edge">
<title>Node5&#45;&gt;Node2</title>
<path fill="none" stroke="#9a32cd" stroke-dasharray="5,2" d="M140.78,-181.79C136.17,-169.31 130.26,-153.31 126.69,-143.63"/>
<polygon fill="#9a32cd" stroke="#9a32cd" points="137.52,-183.07 144.26,-191.23 144.08,-180.64 137.52,-183.07"/>
<text text-anchor="middle" x="160.5" y="-165" font-family="Helvetica,sans-Serif" font-size="10.00"> rate_units</text>
</g>
<!-- Node6 -->
<g id="node6" class="node">
<title>Node6</title>
<g id="a_node6"><a xlink:href="../../d9/d4b/classCantera_1_1PlogRate.html" target="_top" xlink:title="Pressure&#45;dependent reaction rate expressed by logarithmically interpolating between Arrhenius rate ex...">
<polygon fill="white" stroke="black" points="31,-67.5 31,-86.5 88,-86.5 88,-67.5 31,-67.5"/>
<text text-anchor="middle" x="59.5" y="-74.5" font-family="Helvetica,sans-Serif" font-size="10.00">PlogRate</text>
</a>
</g>
</g>
<!-- Node6&#45;&gt;Node1 -->
<g id="edge5" class="edge">
<title>Node6&#45;&gt;Node1</title>
<path fill="none" stroke="#9a32cd" stroke-dasharray="5,2" d="M68.01,-58.16C73.99,-45.63 81.72,-29.41 86.39,-19.63"/>
<polygon fill="#9a32cd" stroke="#9a32cd" points="64.83,-56.7 63.68,-67.23 71.14,-59.71 64.83,-56.7"/>
<text text-anchor="middle" x="87.5" y="-41" font-family="Helvetica,sans-Serif" font-size="10.00"> rate</text>
</g>
<!-- Node7&#45;&gt;Node6 -->
<g id="edge6" class="edge">
<title>Node7&#45;&gt;Node6</title>
<path fill="none" stroke="midnightblue" d="M45.36,-115.03C48.99,-105.53 53.28,-94.3 56.17,-86.71"/>
<polygon fill="midnightblue" stroke="midnightblue" points="42.08,-113.82 41.78,-124.41 48.62,-116.31 42.08,-113.82"/>
</g>
</g>
</svg>
