<?xml version="1.0" encoding="UTF-8" standalone="no"?>
<!DOCTYPE svg PUBLIC "-//W3C//DTD SVG 1.1//EN"
 "http://www.w3.org/Graphics/SVG/1.1/DTD/svg11.dtd">
<!-- Generated by graphviz version 2.50.0 (0)
 -->
<!-- Title: ChebyshevRate.h Pages: 1 -->
<!--zoomable 442 -->
<svg id="main" version="1.1" xmlns="http://www.w3.org/2000/svg" xmlns:xlink="http://www.w3.org/1999/xlink" xml:space="preserve" onload="init(evt)">
<style type="text/css"><![CDATA[
.edge:hover path { stroke: red; }
.edge:hover polygon { stroke: red; fill: red; }
]]></style>
<script type="text/javascript"><![CDATA[
var edges = document.getElementsByTagName('g');
if (edges && edges.length) {
  for (var i=0;i<edges.length;i++) {
    if (edges[i].id.substr(0,4)=='edge') {
      edges[i].setAttribute('class','edge');
    }
  }
}
]]></script>
        <defs>
                <circle id="rim" cx="0" cy="0" r="7"/>
                <circle id="rim2" cx="0" cy="0" r="3.5"/>
                <g id="zoomPlus">
                        <use xlink:href="#rim" fill="#404040">
                                <set attributeName="fill" to="#808080" begin="zoomplus.mouseover" end="zoomplus.mouseout"/>
                        </use>
                        <path d="M-4,0h8M0,-4v8" fill="none" stroke="white" stroke-width="1.5" pointer-events="none"/>
                </g>
                <g id="zoomMin">
                        <use xlink:href="#rim" fill="#404040">
                                <set attributeName="fill" to="#808080" begin="zoomminus.mouseover" end="zoomminus.mouseout"/>
                        </use>
                        <path d="M-4,0h8" fill="none" stroke="white" stroke-width="1.5" pointer-events="none"/>
                </g>
                <g id="dirArrow">
                        <path fill="none" stroke="white" stroke-width="1.5" d="M0,-3.0v7 M-2.5,-0.5L0,-3.0L2.5,-0.5"/>
                </g>
               <g id="resetDef">
                       <use xlink:href="#rim2" fill="#404040">
                               <set attributeName="fill" to="#808080" begin="reset.mouseover" end="reset.mouseout"/>
                       </use>
               </g>
        </defs>

<script type="text/javascript">
var viewWidth = 982;
var viewHeight = 442;
var sectionId = 'dynsection-0';
</script>
<script xlink:href="../../svgpan.js"/>
<svg id="graph" class="graph">
<g id="viewport">
<title>ChebyshevRate.h</title>
<polygon fill="white" stroke="transparent" points="-4,4 -4,-438 978,-438 978,4 -4,4"/>
<!-- Node1 -->
<g id="node1" class="node">
<title>Node1</title>
<g id="a_node1"><a xlink:title=" ">
<polygon fill="#bfbfbf" stroke="black" points="564.5,-414.5 564.5,-433.5 659.5,-433.5 659.5,-414.5 564.5,-414.5"/>
<text text-anchor="middle" x="612" y="-421.5" font-family="Helvetica,sans-Serif" font-size="10.00">ChebyshevRate.h</text>
</a>
</g>
</g>
<!-- Node2 -->
<g id="node2" class="node">
<title>Node2</title>
<g id="a_node2"><a xlink:href="../../d8/db0/ReactionRate_8h.html" target="_top" xlink:title=" ">
<polygon fill="white" stroke="black" points="551,-291.5 551,-321.5 679,-321.5 679,-291.5 551,-291.5"/>
<text text-anchor="start" x="559" y="-309.5" font-family="Helvetica,sans-Serif" font-size="10.00">cantera/kinetics/Reaction</text>
<text text-anchor="middle" x="615" y="-298.5" font-family="Helvetica,sans-Serif" font-size="10.00">Rate.h</text>
</a>
</g>
</g>
<!-- Node1&#45;&gt;Node2 -->
<g id="edge1" class="edge">
<title>Node1&#45;&gt;Node2</title>
<path fill="none" stroke="midnightblue" d="M612.23,-414.32C612.68,-396.97 613.7,-357.46 614.37,-331.66"/>
<polygon fill="midnightblue" stroke="midnightblue" points="617.87,-331.63 614.64,-321.55 610.88,-331.45 617.87,-331.63"/>
</g>
<!-- Node25 -->
<g id="node23" class="node">
<title>Node25</title>
<g id="a_node23"><a xlink:href="../../d6/d4a/ReactionData_8h.html" target="_top" xlink:title=" ">
<polygon fill="white" stroke="black" points="172,-224.5 172,-254.5 300,-254.5 300,-224.5 172,-224.5"/>
<text text-anchor="start" x="180" y="-242.5" font-family="Helvetica,sans-Serif" font-size="10.00">cantera/kinetics/Reaction</text>
<text text-anchor="middle" x="236" y="-231.5" font-family="Helvetica,sans-Serif" font-size="10.00">Data.h</text>
</a>
</g>
</g>
<!-- Node1&#45;&gt;Node25 -->
<g id="edge28" class="edge">
<title>Node1&#45;&gt;Node25</title>
<path fill="none" stroke="midnightblue" d="M594.37,-414.44C536.96,-386.58 354.47,-298 274.35,-259.11"/>
<polygon fill="midnightblue" stroke="midnightblue" points="275.62,-255.84 265.1,-254.62 272.56,-262.14 275.62,-255.84"/>
</g>
<!-- Node26 -->
<g id="node24" class="node">
<title>Node26</title>
<g id="a_node24"><a xlink:href="../../d6/d42/MultiRate_8h.html" target="_top" xlink:title=" ">
<polygon fill="white" stroke="black" points="640.5,-358.5 640.5,-377.5 779.5,-377.5 779.5,-358.5 640.5,-358.5"/>
<text text-anchor="middle" x="710" y="-365.5" font-family="Helvetica,sans-Serif" font-size="10.00">cantera/kinetics/MultiRate.h</text>
</a>
</g>
</g>
<!-- Node1&#45;&gt;Node26 -->
<g id="edge31" class="edge">
<title>Node1&#45;&gt;Node26</title>
<path fill="none" stroke="midnightblue" d="M627.75,-414.32C643.32,-405.74 667.38,-392.49 685.46,-382.52"/>
<polygon fill="midnightblue" stroke="midnightblue" points="687.22,-385.55 694.29,-377.65 683.85,-379.42 687.22,-385.55"/>
</g>
<!-- Node29 -->
<g id="node27" class="node">
<title>Node29</title>
<g id="a_node27"><a xlink:href="../../df/dd0/Array_8h.html" target="_top" xlink:title="Header file for class Cantera::Array2D.">
<polygon fill="white" stroke="black" points="866,-358.5 866,-377.5 972,-377.5 972,-358.5 866,-358.5"/>
<text text-anchor="middle" x="919" y="-365.5" font-family="Helvetica,sans-Serif" font-size="10.00">cantera/base/Array.h</text>
</a>
</g>
</g>
<!-- Node1&#45;&gt;Node29 -->
<g id="edge37" class="edge">
<title>Node1&#45;&gt;Node29</title>
<path fill="none" stroke="midnightblue" d="M659.63,-414.62C713.73,-405.11 802.04,-389.57 860.33,-379.32"/>
<polygon fill="midnightblue" stroke="midnightblue" points="861.25,-382.71 870.5,-377.53 860.04,-375.82 861.25,-382.71"/>
</g>
<!-- Node31 -->
<g id="node29" class="node">
<title>Node31</title>
<g id="a_node29"><a xlink:href="../../d2/d49/global_8h.html" target="_top" xlink:title="This file contains definitions for utility functions and text for modules, inputfiles,...">
<polygon fill="white" stroke="black" points="0,-168.5 0,-187.5 110,-187.5 110,-168.5 0,-168.5"/>
<text text-anchor="middle" x="55" y="-175.5" font-family="Helvetica,sans-Serif" font-size="10.00">cantera/base/global.h</text>
</a>
</g>
</g>
<!-- Node1&#45;&gt;Node31 -->
<g id="edge40" class="edge">
<title>Node1&#45;&gt;Node31</title>
<path fill="none" stroke="midnightblue" d="M580.53,-414.44C505.49,-393.36 311.22,-334.79 163,-255 129.61,-237.03 94.29,-210.56 73.47,-194.07"/>
<polygon fill="midnightblue" stroke="midnightblue" points="75.47,-191.19 65.48,-187.67 71.1,-196.66 75.47,-191.19"/>
</g>
<!-- Node3 -->
<g id="node3" class="node">
<title>Node3</title>
<g id="a_node3"><a xlink:href="../../dd/d16/MultiRateBase_8h.html" target="_top" xlink:title=" ">
<polygon fill="white" stroke="black" points="665.5,-230 665.5,-249 754.5,-249 754.5,-230 665.5,-230"/>
<text text-anchor="middle" x="710" y="-237" font-family="Helvetica,sans-Serif" font-size="10.00">MultiRateBase.h</text>
</a>
</g>
</g>
<!-- Node2&#45;&gt;Node3 -->
<g id="edge2" class="edge">
<title>Node2&#45;&gt;Node3</title>
<path fill="none" stroke="midnightblue" d="M635.61,-291.4C651.4,-280.6 673.09,-265.76 688.97,-254.89"/>
<polygon fill="midnightblue" stroke="midnightblue" points="691.29,-257.54 697.57,-249.01 687.34,-251.77 691.29,-257.54"/>
</g>
<!-- Node13 -->
<g id="node13" class="node">
<title>Node13</title>
<g id="a_node13"><a xlink:href="../../dd/d2a/AnyMap_8h.html" target="_top" xlink:title=" ">
<polygon fill="white" stroke="black" points="447,-230 447,-249 567,-249 567,-230 447,-230"/>
<text text-anchor="middle" x="507" y="-237" font-family="Helvetica,sans-Serif" font-size="10.00">cantera/base/AnyMap.h</text>
</a>
</g>
</g>
<!-- Node2&#45;&gt;Node13 -->
<g id="edge12" class="edge">
<title>Node2&#45;&gt;Node13</title>
<path fill="none" stroke="midnightblue" d="M591.57,-291.4C573.29,-280.39 548.04,-265.2 529.9,-254.28"/>
<polygon fill="midnightblue" stroke="midnightblue" points="531.51,-251.16 521.13,-249.01 527.9,-257.16 531.51,-251.16"/>
</g>
<!-- Node14 -->
<g id="node14" class="node">
<title>Node14</title>
<g id="a_node14"><a xlink:href="../../db/d98/ctexceptions_8h.html" target="_top" xlink:title="Definitions for the classes that are thrown when Cantera experiences an error condition (also contain...">
<polygon fill="white" stroke="black" points="166,-168.5 166,-187.5 306,-187.5 306,-168.5 166,-168.5"/>
<text text-anchor="middle" x="236" y="-175.5" font-family="Helvetica,sans-Serif" font-size="10.00">cantera/base/ctexceptions.h</text>
</a>
</g>
</g>
<!-- Node2&#45;&gt;Node14 -->
<g id="edge27" class="edge">
<title>Node2&#45;&gt;Node14</title>
<path fill="none" stroke="midnightblue" d="M561.6,-291.49C526.29,-281.93 479.12,-268.58 438,-255 376.33,-234.64 305.58,-207.01 266.31,-191.29"/>
<polygon fill="midnightblue" stroke="midnightblue" points="267.61,-188.04 257.03,-187.56 265,-194.54 267.61,-188.04"/>
</g>
<!-- Node19 -->
<g id="node17" class="node">
<title>Node19</title>
<g id="a_node17"><a xlink:href="../../da/d58/Units_8h.html" target="_top" xlink:title="Header for unit conversion utilities, which are used to translate user input from input files (See In...">
<polygon fill="white" stroke="black" points="692.5,-168.5 692.5,-187.5 799.5,-187.5 799.5,-168.5 692.5,-168.5"/>
<text text-anchor="middle" x="746" y="-175.5" font-family="Helvetica,sans-Serif" font-size="10.00">cantera/base/Units.h</text>
</a>
</g>
</g>
<!-- Node2&#45;&gt;Node19 -->
<g id="edge26" class="edge">
<title>Node2&#45;&gt;Node19</title>
<path fill="none" stroke="midnightblue" d="M619.02,-291.46C624.7,-273.77 636.6,-243.35 656,-224 670.71,-209.32 691.19,-198.57 708.89,-191.26"/>
<polygon fill="midnightblue" stroke="midnightblue" points="710.35,-194.45 718.39,-187.55 707.8,-187.93 710.35,-194.45"/>
</g>
<!-- Node4 -->
<g id="node4" class="node">
<title>Node4</title>
<g id="a_node4"><a xlink:href="../../d9/ddc/ct__defs_8h.html" target="_top" xlink:title="This file contains definitions of constants, types and terms that are used in internal routines and a...">
<polygon fill="white" stroke="black" points="521,-56.5 521,-75.5 637,-75.5 637,-56.5 521,-56.5"/>
<text text-anchor="middle" x="579" y="-63.5" font-family="Helvetica,sans-Serif" font-size="10.00">cantera/base/ct_defs.h</text>
</a>
</g>
</g>
<!-- Node3&#45;&gt;Node4 -->
<g id="edge3" class="edge">
<title>Node3&#45;&gt;Node4</title>
<path fill="none" stroke="midnightblue" d="M743.24,-229.91C778.33,-219.07 826.23,-198.12 808,-168 774.27,-112.27 701.51,-87.18 647,-75.95"/>
<polygon fill="midnightblue" stroke="midnightblue" points="647.53,-72.49 637.05,-74.01 646.19,-79.36 647.53,-72.49"/>
</g>
<!-- Node5 -->
<g id="node5" class="node">
<title>Node5</title>
<g id="a_node5"><a xlink:href="../../db/d16/config_8h_source.html" target="_top" xlink:title=" ">
<polygon fill="white" stroke="black" points="332.5,-0.5 332.5,-19.5 383.5,-19.5 383.5,-0.5 332.5,-0.5"/>
<text text-anchor="middle" x="358" y="-7.5" font-family="Helvetica,sans-Serif" font-size="10.00">config.h</text>
</a>
</g>
</g>
<!-- Node4&#45;&gt;Node5 -->
<g id="edge4" class="edge">
<title>Node4&#45;&gt;Node5</title>
<path fill="none" stroke="midnightblue" d="M542.96,-56.44C507.44,-47.97 451.37,-34.5 393.31,-20.05"/>
<polygon fill="midnightblue" stroke="midnightblue" points="394.15,-16.65 383.6,-17.63 392.46,-23.45 394.15,-16.65"/>
</g>
<!-- Node6 -->
<g id="node6" class="node">
<title>Node6</title>
<g id="a_node6"><a xlink:title=" ">
<polygon fill="white" stroke="#bfbfbf" points="402,-0.5 402,-19.5 446,-19.5 446,-0.5 402,-0.5"/>
<text text-anchor="middle" x="424" y="-7.5" font-family="Helvetica,sans-Serif" font-size="10.00">cmath</text>
</a>
</g>
</g>
<!-- Node4&#45;&gt;Node6 -->
<g id="edge5" class="edge">
<title>Node4&#45;&gt;Node6</title>
<path fill="none" stroke="midnightblue" d="M554.44,-56.44C527.87,-47.19 485.39,-32.39 456.17,-22.21"/>
<polygon fill="midnightblue" stroke="midnightblue" points="457.03,-18.8 446.43,-18.82 454.72,-25.41 457.03,-18.8"/>
</g>
<!-- Node7 -->
<g id="node7" class="node">
<title>Node7</title>
<g id="a_node7"><a xlink:title=" ">
<polygon fill="white" stroke="#bfbfbf" points="464.5,-0.5 464.5,-19.5 509.5,-19.5 509.5,-0.5 464.5,-0.5"/>
<text text-anchor="middle" x="487" y="-7.5" font-family="Helvetica,sans-Serif" font-size="10.00">cstdlib</text>
</a>
</g>
</g>
<!-- Node4&#45;&gt;Node7 -->
<g id="edge6" class="edge">
<title>Node4&#45;&gt;Node7</title>
<path fill="none" stroke="midnightblue" d="M564.22,-56.32C549.73,-47.82 527.43,-34.73 510.51,-24.8"/>
<polygon fill="midnightblue" stroke="midnightblue" points="512.14,-21.7 501.74,-19.65 508.6,-27.74 512.14,-21.7"/>
</g>
<!-- Node8 -->
<g id="node8" class="node">
<title>Node8</title>
<g id="a_node8"><a xlink:title=" ">
<polygon fill="white" stroke="#bfbfbf" points="528,-0.5 528,-19.5 572,-19.5 572,-0.5 528,-0.5"/>
<text text-anchor="middle" x="550" y="-7.5" font-family="Helvetica,sans-Serif" font-size="10.00">vector</text>
</a>
</g>
</g>
<!-- Node4&#45;&gt;Node8 -->
<g id="edge7" class="edge">
<title>Node4&#45;&gt;Node8</title>
<path fill="none" stroke="midnightblue" d="M574.21,-56.08C570.24,-48.69 564.47,-37.95 559.57,-28.81"/>
<polygon fill="midnightblue" stroke="midnightblue" points="562.51,-26.91 554.7,-19.75 556.35,-30.22 562.51,-26.91"/>
</g>
<!-- Node9 -->
<g id="node9" class="node">
<title>Node9</title>
<g id="a_node9"><a xlink:title=" ">
<polygon fill="white" stroke="#bfbfbf" points="590.5,-0.5 590.5,-19.5 625.5,-19.5 625.5,-0.5 590.5,-0.5"/>
<text text-anchor="middle" x="608" y="-7.5" font-family="Helvetica,sans-Serif" font-size="10.00">map</text>
</a>
</g>
</g>
<!-- Node4&#45;&gt;Node9 -->
<g id="edge8" class="edge">
<title>Node4&#45;&gt;Node9</title>
<path fill="none" stroke="midnightblue" d="M583.79,-56.08C587.76,-48.69 593.53,-37.95 598.43,-28.81"/>
<polygon fill="midnightblue" stroke="midnightblue" points="601.65,-30.22 603.3,-19.75 595.49,-26.91 601.65,-30.22"/>
</g>
<!-- Node10 -->
<g id="node10" class="node">
<title>Node10</title>
<g id="a_node10"><a xlink:title=" ">
<polygon fill="white" stroke="#bfbfbf" points="643.5,-0.5 643.5,-19.5 684.5,-19.5 684.5,-0.5 643.5,-0.5"/>
<text text-anchor="middle" x="664" y="-7.5" font-family="Helvetica,sans-Serif" font-size="10.00">string</text>
</a>
</g>
</g>
<!-- Node4&#45;&gt;Node10 -->
<g id="edge9" class="edge">
<title>Node4&#45;&gt;Node10</title>
<path fill="none" stroke="midnightblue" d="M592.66,-56.32C605.92,-47.9 626.27,-34.97 641.85,-25.07"/>
<polygon fill="midnightblue" stroke="midnightblue" points="643.81,-27.97 650.38,-19.65 640.06,-22.06 643.81,-27.97"/>
</g>
<!-- Node11 -->
<g id="node11" class="node">
<title>Node11</title>
<g id="a_node11"><a xlink:title=" ">
<polygon fill="white" stroke="#bfbfbf" points="703,-0.5 703,-19.5 759,-19.5 759,-0.5 703,-0.5"/>
<text text-anchor="middle" x="731" y="-7.5" font-family="Helvetica,sans-Serif" font-size="10.00">algorithm</text>
</a>
</g>
</g>
<!-- Node4&#45;&gt;Node11 -->
<g id="edge10" class="edge">
<title>Node4&#45;&gt;Node11</title>
<path fill="none" stroke="midnightblue" d="M603.08,-56.44C628.54,-47.4 668.89,-33.06 697.46,-22.92"/>
<polygon fill="midnightblue" stroke="midnightblue" points="698.78,-26.16 707.03,-19.52 696.43,-19.57 698.78,-26.16"/>
</g>
<!-- Node12 -->
<g id="node12" class="node">
<title>Node12</title>
<g id="a_node12"><a xlink:title=" ">
<polygon fill="white" stroke="#bfbfbf" points="777,-0.5 777,-19.5 829,-19.5 829,-0.5 777,-0.5"/>
<text text-anchor="middle" x="803" y="-7.5" font-family="Helvetica,sans-Serif" font-size="10.00">memory</text>
</a>
</g>
</g>
<!-- Node4&#45;&gt;Node12 -->
<g id="edge11" class="edge">
<title>Node4&#45;&gt;Node12</title>
<path fill="none" stroke="midnightblue" d="M615.63,-56.48C651.73,-48.04 708.71,-34.6 766.91,-20.24"/>
<polygon fill="midnightblue" stroke="midnightblue" points="767.77,-23.63 776.64,-17.83 766.09,-16.84 767.77,-23.63"/>
</g>
<!-- Node13&#45;&gt;Node4 -->
<g id="edge13" class="edge">
<title>Node13&#45;&gt;Node4</title>
<path fill="none" stroke="midnightblue" d="M483.38,-229.99C465.43,-222.13 442,-208.52 431,-188 423.97,-174.89 413.81,-136.13 432,-112 450.39,-87.59 481.74,-76.02 510.77,-70.68"/>
<polygon fill="midnightblue" stroke="midnightblue" points="511.61,-74.09 520.92,-69.04 510.49,-67.18 511.61,-74.09"/>
</g>
<!-- Node13&#45;&gt;Node14 -->
<g id="edge14" class="edge">
<title>Node13&#45;&gt;Node14</title>
<path fill="none" stroke="midnightblue" d="M468.17,-229.98C419.88,-219.37 337.39,-201.26 284.85,-189.72"/>
<polygon fill="midnightblue" stroke="midnightblue" points="285.27,-186.24 274.76,-187.51 283.77,-193.07 285.27,-186.24"/>
</g>
<!-- Node13&#45;&gt;Node19 -->
<g id="edge18" class="edge">
<title>Node13&#45;&gt;Node19</title>
<path fill="none" stroke="midnightblue" d="M541.24,-229.98C583.57,-219.44 655.68,-201.49 702.05,-189.94"/>
<polygon fill="midnightblue" stroke="midnightblue" points="702.96,-193.32 711.82,-187.51 701.27,-186.53 702.96,-193.32"/>
</g>
<!-- Node20 -->
<g id="node18" class="node">
<title>Node20</title>
<g id="a_node18"><a xlink:title=" ">
<polygon fill="white" stroke="#bfbfbf" points="591.5,-168.5 591.5,-187.5 674.5,-187.5 674.5,-168.5 591.5,-168.5"/>
<text text-anchor="middle" x="633" y="-175.5" font-family="Helvetica,sans-Serif" font-size="10.00">unordered_map</text>
</a>
</g>
</g>
<!-- Node13&#45;&gt;Node20 -->
<g id="edge20" class="edge">
<title>Node13&#45;&gt;Node20</title>
<path fill="none" stroke="midnightblue" d="M525.05,-229.98C546.2,-219.99 581.44,-203.35 605.88,-191.81"/>
<polygon fill="midnightblue" stroke="midnightblue" points="607.43,-194.94 614.98,-187.51 604.44,-188.61 607.43,-194.94"/>
</g>
<!-- Node21 -->
<g id="node19" class="node">
<title>Node21</title>
<g id="a_node19"><a xlink:title=" ">
<polygon fill="white" stroke="#bfbfbf" points="324.5,-168.5 324.5,-187.5 383.5,-187.5 383.5,-168.5 324.5,-168.5"/>
<text text-anchor="middle" x="354" y="-175.5" font-family="Helvetica,sans-Serif" font-size="10.00">functional</text>
</a>
</g>
</g>
<!-- Node13&#45;&gt;Node21 -->
<g id="edge21" class="edge">
<title>Node13&#45;&gt;Node21</title>
<path fill="none" stroke="midnightblue" d="M485.08,-229.98C458.95,-219.81 415.09,-202.76 385.37,-191.2"/>
<polygon fill="midnightblue" stroke="midnightblue" points="386.47,-187.87 375.88,-187.51 383.93,-194.4 386.47,-187.87"/>
</g>
<!-- Node22 -->
<g id="node20" class="node">
<title>Node22</title>
<g id="a_node20"><a xlink:href="../../da/d4c/AnyMap_8inl_8h.html" target="_top" xlink:title=" ">
<polygon fill="white" stroke="black" points="440.5,-168.5 440.5,-187.5 573.5,-187.5 573.5,-168.5 440.5,-168.5"/>
<text text-anchor="middle" x="507" y="-175.5" font-family="Helvetica,sans-Serif" font-size="10.00">cantera/base/AnyMap.inl.h</text>
</a>
</g>
</g>
<!-- Node13&#45;&gt;Node22 -->
<g id="edge22" class="edge">
<title>Node13&#45;&gt;Node22</title>
<path fill="none" stroke="midnightblue" d="M502.1,-229.98C500.27,-221.58 499.8,-208.48 500.69,-197.66"/>
<polygon fill="midnightblue" stroke="midnightblue" points="504.19,-197.9 502.1,-187.51 497.25,-196.93 504.19,-197.9"/>
</g>
<!-- Node15 -->
<g id="node15" class="node">
<title>Node15</title>
<g id="a_node15"><a xlink:href="../../db/def/fmt_8h.html" target="_top" xlink:title="Wrapper for either system&#45;installed or local headers for fmt.">
<polygon fill="white" stroke="red" points="32,-112.5 32,-131.5 130,-131.5 130,-112.5 32,-112.5"/>
<text text-anchor="middle" x="81" y="-119.5" font-family="Helvetica,sans-Serif" font-size="10.00">cantera/base/fmt.h</text>
</a>
</g>
</g>
<!-- Node14&#45;&gt;Node15 -->
<g id="edge15" class="edge">
<title>Node14&#45;&gt;Node15</title>
<path fill="none" stroke="midnightblue" d="M211.44,-168.44C185.48,-159.4 144.33,-145.06 115.2,-134.92"/>
<polygon fill="midnightblue" stroke="midnightblue" points="116.04,-131.5 105.45,-131.52 113.74,-138.11 116.04,-131.5"/>
</g>
<!-- Node18 -->
<g id="node16" class="node">
<title>Node18</title>
<g id="a_node16"><a xlink:title=" ">
<polygon fill="white" stroke="#bfbfbf" points="206.5,-112.5 206.5,-131.5 265.5,-131.5 265.5,-112.5 206.5,-112.5"/>
<text text-anchor="middle" x="236" y="-119.5" font-family="Helvetica,sans-Serif" font-size="10.00">exception</text>
</a>
</g>
</g>
<!-- Node14&#45;&gt;Node18 -->
<g id="edge17" class="edge">
<title>Node14&#45;&gt;Node18</title>
<path fill="none" stroke="midnightblue" d="M236,-168.08C236,-161.01 236,-150.86 236,-141.99"/>
<polygon fill="midnightblue" stroke="midnightblue" points="239.5,-141.75 236,-131.75 232.5,-141.75 239.5,-141.75"/>
</g>
<!-- Node15&#45;&gt;Node4 -->
<g id="edge16" class="edge">
<title>Node15&#45;&gt;Node4</title>
<path fill="none" stroke="midnightblue" d="M130.16,-113.79C134.83,-113.16 139.5,-112.55 144,-112 273.44,-96.07 425.01,-81.26 510.75,-73.23"/>
<polygon fill="midnightblue" stroke="midnightblue" points="511.24,-76.7 520.87,-72.29 510.59,-69.73 511.24,-76.7"/>
</g>
<!-- Node19&#45;&gt;Node4 -->
<g id="edge19" class="edge">
<title>Node19&#45;&gt;Node4</title>
<path fill="none" stroke="midnightblue" d="M737.82,-168.11C725.13,-154.69 699.5,-129.01 674,-112 654.35,-98.89 630.28,-87.53 611.29,-79.51"/>
<polygon fill="midnightblue" stroke="midnightblue" points="612.45,-76.2 601.87,-75.62 609.78,-82.67 612.45,-76.2"/>
</g>
<!-- Node22&#45;&gt;Node13 -->
<g id="edge23" class="edge">
<title>Node22&#45;&gt;Node13</title>
<path fill="none" stroke="midnightblue" d="M511.9,-187.51C513.73,-195.9 514.2,-209 513.32,-219.82"/>
<polygon fill="midnightblue" stroke="midnightblue" points="509.81,-219.59 511.9,-229.98 516.75,-220.55 509.81,-219.59"/>
</g>
<!-- Node23 -->
<g id="node21" class="node">
<title>Node23</title>
<g id="a_node21"><a xlink:title=" ">
<polygon fill="white" stroke="#bfbfbf" points="588.5,-112.5 588.5,-131.5 665.5,-131.5 665.5,-112.5 588.5,-112.5"/>
<text text-anchor="middle" x="627" y="-119.5" font-family="Helvetica,sans-Serif" font-size="10.00">boost/any.hpp</text>
</a>
</g>
</g>
<!-- Node22&#45;&gt;Node23 -->
<g id="edge24" class="edge">
<title>Node22&#45;&gt;Node23</title>
<path fill="none" stroke="midnightblue" d="M526.01,-168.44C545.59,-159.64 576.31,-145.81 598.73,-135.72"/>
<polygon fill="midnightblue" stroke="midnightblue" points="600.39,-138.81 608.07,-131.52 597.52,-132.43 600.39,-138.81"/>
</g>
<!-- Node24 -->
<g id="node22" class="node">
<title>Node24</title>
<g id="a_node22"><a xlink:title=" ">
<polygon fill="white" stroke="#bfbfbf" points="441.5,-112.5 441.5,-131.5 570.5,-131.5 570.5,-112.5 441.5,-112.5"/>
<text text-anchor="middle" x="506" y="-119.5" font-family="Helvetica,sans-Serif" font-size="10.00">boost/algorithm/string.hpp</text>
</a>
</g>
</g>
<!-- Node22&#45;&gt;Node24 -->
<g id="edge25" class="edge">
<title>Node22&#45;&gt;Node24</title>
<path fill="none" stroke="midnightblue" d="M506.83,-168.08C506.7,-161.01 506.52,-150.86 506.35,-141.99"/>
<polygon fill="midnightblue" stroke="midnightblue" points="509.85,-141.68 506.16,-131.75 502.85,-141.81 509.85,-141.68"/>
</g>
<!-- Node25&#45;&gt;Node4 -->
<g id="edge29" class="edge">
<title>Node25&#45;&gt;Node4</title>
<path fill="none" stroke="midnightblue" d="M198.69,-224.36C182.85,-216.28 165.99,-204.42 157,-188 139,-155.14 193.58,-114.02 197,-112 248.58,-81.51 415.57,-71.65 510.81,-68.48"/>
<polygon fill="midnightblue" stroke="midnightblue" points="511.04,-71.98 520.93,-68.16 510.82,-64.98 511.04,-71.98"/>
</g>
<!-- Node25&#45;&gt;Node14 -->
<g id="edge30" class="edge">
<title>Node25&#45;&gt;Node14</title>
<path fill="none" stroke="midnightblue" d="M236,-224.4C236,-216.47 236,-206.46 236,-197.86"/>
<polygon fill="midnightblue" stroke="midnightblue" points="239.5,-197.66 236,-187.66 232.5,-197.66 239.5,-197.66"/>
</g>
<!-- Node26&#45;&gt;Node2 -->
<g id="edge32" class="edge">
<title>Node26&#45;&gt;Node2</title>
<path fill="none" stroke="midnightblue" d="M696.39,-358.48C683.28,-350.27 662.99,-337.56 645.95,-326.88"/>
<polygon fill="midnightblue" stroke="midnightblue" points="647.72,-323.86 637.39,-321.52 644.01,-329.8 647.72,-323.86"/>
</g>
<!-- Node26&#45;&gt;Node3 -->
<g id="edge33" class="edge">
<title>Node26&#45;&gt;Node3</title>
<path fill="none" stroke="midnightblue" d="M710,-358.31C710,-337.99 710,-287.05 710,-259.28"/>
<polygon fill="midnightblue" stroke="midnightblue" points="713.5,-259.26 710,-249.26 706.5,-259.26 713.5,-259.26"/>
</g>
<!-- Node27 -->
<g id="node25" class="node">
<title>Node27</title>
<g id="a_node25"><a xlink:href="../../de/df0/utilities_8h.html" target="_top" xlink:title="Various templated functions that carry out common vector operations (see Templated Utility Functions)...">
<polygon fill="white" stroke="black" points="758.5,-297 758.5,-316 873.5,-316 873.5,-297 758.5,-297"/>
<text text-anchor="middle" x="816" y="-304" font-family="Helvetica,sans-Serif" font-size="10.00">cantera/base/utilities.h</text>
</a>
</g>
</g>
<!-- Node26&#45;&gt;Node27 -->
<g id="edge34" class="edge">
<title>Node26&#45;&gt;Node27</title>
<path fill="none" stroke="midnightblue" d="M725.19,-358.48C742.66,-348.67 771.58,-332.43 792.08,-320.92"/>
<polygon fill="midnightblue" stroke="midnightblue" points="793.83,-323.96 800.84,-316.01 790.41,-317.85 793.83,-323.96"/>
</g>
<!-- Node27&#45;&gt;Node4 -->
<g id="edge35" class="edge">
<title>Node27&#45;&gt;Node4</title>
<path fill="none" stroke="midnightblue" d="M818.98,-296.77C826.1,-274.46 842.25,-213.91 825,-168 813.37,-137.04 804.4,-128.95 776,-112 737.07,-88.75 687.23,-77.51 647.43,-72.08"/>
<polygon fill="midnightblue" stroke="midnightblue" points="647.63,-68.57 637.27,-70.78 646.75,-75.52 647.63,-68.57"/>
</g>
<!-- Node28 -->
<g id="node26" class="node">
<title>Node28</title>
<g id="a_node26"><a xlink:title=" ">
<polygon fill="white" stroke="#bfbfbf" points="894.5,-230 894.5,-249 945.5,-249 945.5,-230 894.5,-230"/>
<text text-anchor="middle" x="920" y="-237" font-family="Helvetica,sans-Serif" font-size="10.00">numeric</text>
</a>
</g>
</g>
<!-- Node27&#45;&gt;Node28 -->
<g id="edge36" class="edge">
<title>Node27&#45;&gt;Node28</title>
<path fill="none" stroke="midnightblue" d="M830.03,-296.73C847.33,-285.92 876.99,-267.38 897.49,-254.57"/>
<polygon fill="midnightblue" stroke="midnightblue" points="899.57,-257.4 906.2,-249.13 895.86,-251.46 899.57,-257.4"/>
</g>
<!-- Node29&#45;&gt;Node4 -->
<g id="edge38" class="edge">
<title>Node29&#45;&gt;Node4</title>
<path fill="none" stroke="midnightblue" d="M928.07,-358.19C936.31,-349.68 948.18,-336.04 955,-322 971.24,-288.54 974,-277.69 974,-240.5 974,-240.5 974,-240.5 974,-177 974,-110.04 760.69,-82.09 647.57,-71.98"/>
<polygon fill="midnightblue" stroke="midnightblue" points="647.55,-68.46 637.28,-71.08 646.94,-75.43 647.55,-68.46"/>
</g>
<!-- Node30 -->
<g id="node28" class="node">
<title>Node30</title>
<g id="a_node28"><a xlink:title=" ">
<polygon fill="white" stroke="#bfbfbf" points="892,-297 892,-316 946,-316 946,-297 892,-297"/>
<text text-anchor="middle" x="919" y="-304" font-family="Helvetica,sans-Serif" font-size="10.00">iostream</text>
</a>
</g>
</g>
<!-- Node29&#45;&gt;Node30 -->
<g id="edge39" class="edge">
<title>Node29&#45;&gt;Node30</title>
<path fill="none" stroke="midnightblue" d="M919,-358.48C919,-350.08 919,-336.98 919,-326.16"/>
<polygon fill="midnightblue" stroke="midnightblue" points="922.5,-326.01 919,-316.01 915.5,-326.01 922.5,-326.01"/>
</g>
<!-- Node31&#45;&gt;Node4 -->
<g id="edge41" class="edge">
<title>Node31&#45;&gt;Node4</title>
<path fill="none" stroke="midnightblue" d="M44.63,-168.06C30.2,-154.58 7.48,-128.83 23,-112 55.45,-76.82 369.31,-69.14 510.63,-67.46"/>
<polygon fill="midnightblue" stroke="midnightblue" points="510.95,-70.96 520.91,-67.35 510.87,-63.96 510.95,-70.96"/>
</g>
<!-- Node31&#45;&gt;Node15 -->
<g id="edge42" class="edge">
<title>Node31&#45;&gt;Node15</title>
<path fill="none" stroke="midnightblue" d="M59.29,-168.08C62.85,-160.69 68.02,-149.95 72.42,-140.81"/>
<polygon fill="midnightblue" stroke="midnightblue" points="75.6,-142.28 76.79,-131.75 69.29,-139.24 75.6,-142.28"/>
</g>
</g>
</svg>
        <g id="navigator" transform="translate(0 0)" fill="#404254">
                <rect fill="#f2f5e9" fill-opacity="0.5" stroke="#606060" stroke-width=".5" x="0" y="0" width="60" height="60"/>
                <use id="zoomplus" xlink:href="#zoomPlus" x="17" y="9" onmousedown="handleZoom(evt,'in')"/>
                <use id="zoomminus" xlink:href="#zoomMin" x="42" y="9" onmousedown="handleZoom(evt,'out')"/>
                <use id="reset" xlink:href="#resetDef" x="30" y="36" onmousedown="handleReset()"/>
                <g id="arrowUp" xlink:href="#dirArrow" transform="translate(30 24)" onmousedown="handlePan(0,-1)">
                  <use xlink:href="#rim" fill="#404040">
                        <set attributeName="fill" to="#808080" begin="arrowUp.mouseover" end="arrowUp.mouseout"/>
                  </use>
                  <path fill="none" stroke="white" stroke-width="1.5" d="M0,-3.0v7 M-2.5,-0.5L0,-3.0L2.5,-0.5"/>
                </g>
                <g id="arrowRight" xlink:href="#dirArrow" transform="rotate(90) translate(36 -43)" onmousedown="handlePan(1,0)">
                  <use xlink:href="#rim" fill="#404040">
                        <set attributeName="fill" to="#808080" begin="arrowRight.mouseover" end="arrowRight.mouseout"/>
                  </use>
                  <path fill="none" stroke="white" stroke-width="1.5" d="M0,-3.0v7 M-2.5,-0.5L0,-3.0L2.5,-0.5"/>
                </g>
                <g id="arrowDown" xlink:href="#dirArrow" transform="rotate(180) translate(-30 -48)" onmousedown="handlePan(0,1)">
                  <use xlink:href="#rim" fill="#404040">
                        <set attributeName="fill" to="#808080" begin="arrowDown.mouseover" end="arrowDown.mouseout"/>
                  </use>
                  <path fill="none" stroke="white" stroke-width="1.5" d="M0,-3.0v7 M-2.5,-0.5L0,-3.0L2.5,-0.5"/>
                </g>
                <g id="arrowLeft" xlink:href="#dirArrow" transform="rotate(270) translate(-36 17)" onmousedown="handlePan(-1,0)">
                  <use xlink:href="#rim" fill="#404040">
                        <set attributeName="fill" to="#808080" begin="arrowLeft.mouseover" end="arrowLeft.mouseout"/>
                  </use>
                  <path fill="none" stroke="white" stroke-width="1.5" d="M0,-3.0v7 M-2.5,-0.5L0,-3.0L2.5,-0.5"/>
                </g>
        </g>
        <svg viewBox="0 0 15 15" width="100%" height="30px" preserveAspectRatio="xMaxYMin meet">
         <g id="arrow_out" transform="scale(0.3 0.3)">
          <a xlink:href="ChebyshevRate_8h__incl_org.svg" target="_base">
           <rect id="button" ry="5" rx="5" y="6" x="6" height="38" width="38"
                fill="#f2f5e9" fill-opacity="0.5" stroke="#606060" stroke-width="1.0"/>
           <path id="arrow"
             d="M 11.500037,31.436501 C 11.940474,20.09759 22.043105,11.32322 32.158766,21.979434 L 37.068811,17.246167 C 37.068811,17.246167 37.088388,32 37.088388,32 L 22.160133,31.978069 C 22.160133,31.978069 26.997745,27.140456 26.997745,27.140456 C 18.528582,18.264221 13.291696,25.230495 11.500037,31.436501 z"
             style="fill:#404040;"/>
          </a>
         </g>
        </svg>
</svg>
