<?xml version="1.0" encoding="UTF-8" standalone="no"?>
<!DOCTYPE svg PUBLIC "-//W3C//DTD SVG 1.1//EN"
 "http://www.w3.org/Graphics/SVG/1.1/DTD/svg11.dtd">
<!-- Generated by graphviz version 6.0.1 (0)
 -->
<!-- Title: Domain1D.cpp Pages: 1 -->
<svg width="1004pt" height="412pt"
 viewBox="0.00 0.00 1004.00 412.00" xmlns="http://www.w3.org/2000/svg" xmlns:xlink="http://www.w3.org/1999/xlink">
<g id="graph0" class="graph" transform="scale(1 1) rotate(0) translate(4 408)">
<title>Domain1D.cpp</title>
<!-- Node1 -->
<g id="Node000001" class="node">
<title>Node1</title>
<g id="a_Node000001"><a xlink:title=" ">
<polygon fill="#999999" stroke="#666666" points="603,-404 521,-404 521,-385 603,-385 603,-404"/>
<text text-anchor="middle" x="562" y="-392" font-family="Helvetica,sans-Serif" font-size="10.00">Domain1D.cpp</text>
</a>
</g>
</g>
<!-- Node2 -->
<g id="Node000002" class="node">
<title>Node2</title>
<g id="a_Node000002"><a xlink:href="../../db/dce/Domain1D_8h.html" target="_top" xlink:title=" ">
<polygon fill="white" stroke="#666666" points="538.5,-239 405.5,-239 405.5,-220 538.5,-220 538.5,-239"/>
<text text-anchor="middle" x="472" y="-227" font-family="Helvetica,sans-Serif" font-size="10.00">cantera/oneD/Domain1D.h</text>
</a>
</g>
</g>
<!-- Node1&#45;&gt;Node2 -->
<g id="edge1_Node000001_Node000002" class="edge">
<title>Node1&#45;&gt;Node2</title>
<g id="a_edge1_Node000001_Node000002"><a xlink:title=" ">
<path fill="none" stroke="#63b8ff" d="M538.75,-384.98C522.71,-377.86 502.33,-366.1 491,-349 470.84,-318.56 469.38,-274.26 470.46,-249.35"/>
<polygon fill="#63b8ff" stroke="#63b8ff" points="473.97,-249.3 471.1,-239.1 466.98,-248.86 473.97,-249.3"/>
</a>
</g>
</g>
<!-- Node20 -->
<g id="Node000020" class="node">
<title>Node20</title>
<g id="a_Node000020"><a xlink:href="../../d5/d60/MultiJac_8h.html" target="_top" xlink:title=" ">
<polygon fill="white" stroke="#666666" points="623.5,-349 500.5,-349 500.5,-330 623.5,-330 623.5,-349"/>
<text text-anchor="middle" x="562" y="-337" font-family="Helvetica,sans-Serif" font-size="10.00">cantera/oneD/MultiJac.h</text>
</a>
</g>
</g>
<!-- Node1&#45;&gt;Node20 -->
<g id="edge20_Node000001_Node000020" class="edge">
<title>Node1&#45;&gt;Node20</title>
<g id="a_edge20_Node000001_Node000020"><a xlink:title=" ">
<path fill="none" stroke="#63b8ff" d="M562,-384.75C562,-377.8 562,-367.85 562,-359.13"/>
<polygon fill="#63b8ff" stroke="#63b8ff" points="565.5,-359.09 562,-349.09 558.5,-359.09 565.5,-359.09"/>
</a>
</g>
</g>
<!-- Node25 -->
<g id="Node000025" class="node">
<title>Node25</title>
<g id="a_Node000025"><a xlink:href="../../da/dbc/refine_8h_source.html" target="_top" xlink:title=" ">
<polygon fill="white" stroke="#666666" points="922,-349 812,-349 812,-330 922,-330 922,-349"/>
<text text-anchor="middle" x="867" y="-337" font-family="Helvetica,sans-Serif" font-size="10.00">cantera/oneD/refine.h</text>
</a>
</g>
</g>
<!-- Node1&#45;&gt;Node25 -->
<g id="edge31_Node000001_Node000025" class="edge">
<title>Node1&#45;&gt;Node25</title>
<g id="a_edge31_Node000001_Node000025"><a xlink:title=" ">
<path fill="none" stroke="#63b8ff" d="M603.13,-386.35C655.86,-377.19 747.63,-361.24 807.84,-350.78"/>
<polygon fill="#63b8ff" stroke="#63b8ff" points="808.71,-354.18 817.96,-349.02 807.51,-347.29 808.71,-354.18"/>
</a>
</g>
</g>
<!-- Node26 -->
<g id="Node000026" class="node">
<title>Node26</title>
<g id="a_Node000026"><a xlink:href="../../dd/d2a/AnyMap_8h.html" target="_top" xlink:title=" ">
<polygon fill="white" stroke="#666666" points="709,-239 589,-239 589,-220 709,-220 709,-239"/>
<text text-anchor="middle" x="649" y="-227" font-family="Helvetica,sans-Serif" font-size="10.00">cantera/base/AnyMap.h</text>
</a>
</g>
</g>
<!-- Node1&#45;&gt;Node26 -->
<g id="edge33_Node000001_Node000026" class="edge">
<title>Node1&#45;&gt;Node26</title>
<g id="a_edge33_Node000001_Node000026"><a xlink:title=" ">
<path fill="none" stroke="#63b8ff" d="M585.02,-384.95C600.87,-377.82 620.98,-366.06 632,-349 651.76,-318.41 652.43,-274.17 650.89,-249.3"/>
<polygon fill="#63b8ff" stroke="#63b8ff" points="654.36,-248.76 650.06,-239.08 647.38,-249.33 654.36,-248.76"/>
</a>
</g>
</g>
<!-- Node32 -->
<g id="Node000032" class="node">
<title>Node32</title>
<g id="a_Node000032"><a xlink:href="../../db/df6/SolutionArray_8h.html" target="_top" xlink:title=" ">
<polygon fill="white" stroke="#666666" points="273.5,-294 132.5,-294 132.5,-275 273.5,-275 273.5,-294"/>
<text text-anchor="middle" x="203" y="-282" font-family="Helvetica,sans-Serif" font-size="10.00">cantera/base/SolutionArray.h</text>
</a>
</g>
</g>
<!-- Node1&#45;&gt;Node32 -->
<g id="edge43_Node000001_Node000032" class="edge">
<title>Node1&#45;&gt;Node32</title>
<g id="a_edge43_Node000001_Node000032"><a xlink:title=" ">
<path fill="none" stroke="#63b8ff" d="M533.53,-384.94C469.38,-365.64 313.51,-318.74 241.12,-296.97"/>
<polygon fill="#63b8ff" stroke="#63b8ff" points="242.06,-293.6 231.47,-294.07 240.04,-300.3 242.06,-293.6"/>
</a>
</g>
</g>
<!-- Node3 -->
<g id="Node000003" class="node">
<title>Node3</title>
<g id="a_Node000003"><a xlink:href="../../db/d98/ctexceptions_8h.html" target="_top" xlink:title="Definitions for the classes that are thrown when Cantera experiences an error condition (also contain...">
<polygon fill="white" stroke="#666666" points="496,-184 356,-184 356,-165 496,-165 496,-184"/>
<text text-anchor="middle" x="426" y="-172" font-family="Helvetica,sans-Serif" font-size="10.00">cantera/base/ctexceptions.h</text>
</a>
</g>
</g>
<!-- Node2&#45;&gt;Node3 -->
<g id="edge2_Node000002_Node000003" class="edge">
<title>Node2&#45;&gt;Node3</title>
<g id="a_edge2_Node000002_Node000003"><a xlink:title=" ">
<path fill="none" stroke="#63b8ff" d="M464.4,-219.75C457.84,-212.18 448.18,-201.05 440.19,-191.84"/>
<polygon fill="#63b8ff" stroke="#63b8ff" points="442.65,-189.35 433.45,-184.09 437.37,-193.94 442.65,-189.35"/>
</a>
</g>
</g>
<!-- Node4 -->
<g id="Node000004" class="node">
<title>Node4</title>
<g id="a_Node000004"><a xlink:href="../../d9/ddc/ct__defs_8h.html" target="_top" xlink:title="This file contains definitions of constants, types and terms that are used in internal routines and a...">
<polygon fill="white" stroke="#666666" points="479.5,-74 422.5,-74 422.5,-55 479.5,-55 479.5,-74"/>
<text text-anchor="middle" x="451" y="-62" font-family="Helvetica,sans-Serif" font-size="10.00">ct_defs.h</text>
</a>
</g>
</g>
<!-- Node3&#45;&gt;Node4 -->
<g id="edge3_Node000003_Node000004" class="edge">
<title>Node3&#45;&gt;Node4</title>
<g id="a_edge3_Node000003_Node000004"><a xlink:title=" ">
<path fill="none" stroke="#63b8ff" d="M428.05,-164.66C432.11,-147.09 441.29,-107.45 446.73,-83.95"/>
<polygon fill="#63b8ff" stroke="#63b8ff" points="450.15,-84.69 449,-74.16 443.33,-83.11 450.15,-84.69"/>
</a>
</g>
</g>
<!-- Node15 -->
<g id="Node000015" class="node">
<title>Node15</title>
<g id="a_Node000015"><a xlink:href="../../db/def/fmt_8h.html" target="_top" xlink:title="Wrapper for either system&#45;installed or local headers for fmt.">
<polygon fill="white" stroke="#666666" points="258,-129 160,-129 160,-110 258,-110 258,-129"/>
<text text-anchor="middle" x="209" y="-117" font-family="Helvetica,sans-Serif" font-size="10.00">cantera/base/fmt.h</text>
</a>
</g>
</g>
<!-- Node3&#45;&gt;Node15 -->
<g id="edge14_Node000003_Node000015" class="edge">
<title>Node3&#45;&gt;Node15</title>
<g id="a_edge14_Node000003_Node000015"><a xlink:title=" ">
<path fill="none" stroke="#63b8ff" d="M391.14,-164.98C353.91,-155.89 294.8,-141.46 254.07,-131.51"/>
<polygon fill="#63b8ff" stroke="#63b8ff" points="254.68,-128.05 244.14,-129.08 253.02,-134.85 254.68,-128.05"/>
</a>
</g>
</g>
<!-- Node19 -->
<g id="Node000019" class="node">
<title>Node19</title>
<g id="a_Node000019"><a xlink:title=" ">
<polygon fill="#e0e0e0" stroke="#999999" points="411.5,-129 352.5,-129 352.5,-110 411.5,-110 411.5,-129"/>
<text text-anchor="middle" x="382" y="-117" font-family="Helvetica,sans-Serif" font-size="10.00">exception</text>
</a>
</g>
</g>
<!-- Node3&#45;&gt;Node19 -->
<g id="edge19_Node000003_Node000019" class="edge">
<title>Node3&#45;&gt;Node19</title>
<g id="a_edge19_Node000003_Node000019"><a xlink:title=" ">
<path fill="none" stroke="#63b8ff" d="M418.73,-164.75C412.46,-157.18 403.21,-146.05 395.57,-136.84"/>
<polygon fill="#63b8ff" stroke="#63b8ff" points="398.21,-134.55 389.13,-129.09 392.83,-139.02 398.21,-134.55"/>
</a>
</g>
</g>
<!-- Node5 -->
<g id="Node000005" class="node">
<title>Node5</title>
<g id="a_Node000005"><a xlink:href="../../db/d16/config_8h_source.html" target="_top" xlink:title=" ">
<polygon fill="white" stroke="#666666" points="200.5,-19 149.5,-19 149.5,0 200.5,0 200.5,-19"/>
<text text-anchor="middle" x="175" y="-7" font-family="Helvetica,sans-Serif" font-size="10.00">config.h</text>
</a>
</g>
</g>
<!-- Node4&#45;&gt;Node5 -->
<g id="edge4_Node000004_Node000005" class="edge">
<title>Node4&#45;&gt;Node5</title>
<g id="a_edge4_Node000004_Node000005"><a xlink:title=" ">
<path fill="none" stroke="#63b8ff" d="M422.4,-56.96C419.23,-56.28 416.05,-55.61 413,-55 326.23,-37.61 301.36,-37.79 210.47,-18.98"/>
<polygon fill="#63b8ff" stroke="#63b8ff" points="211.08,-15.53 200.57,-16.91 209.64,-22.38 211.08,-15.53"/>
</a>
</g>
</g>
<!-- Node6 -->
<g id="Node000006" class="node">
<title>Node6</title>
<g id="a_Node000006"><a xlink:title=" ">
<polygon fill="#e0e0e0" stroke="#999999" points="263,-19 219,-19 219,0 263,0 263,-19"/>
<text text-anchor="middle" x="241" y="-7" font-family="Helvetica,sans-Serif" font-size="10.00">cmath</text>
</a>
</g>
</g>
<!-- Node4&#45;&gt;Node6 -->
<g id="edge5_Node000004_Node000006" class="edge">
<title>Node4&#45;&gt;Node6</title>
<g id="a_edge5_Node000004_Node000006"><a xlink:title=" ">
<path fill="none" stroke="#63b8ff" d="M422.42,-56.62C388.91,-48.5 331.45,-34.43 273.09,-19.24"/>
<polygon fill="#63b8ff" stroke="#63b8ff" points="273.89,-15.83 263.33,-16.69 272.12,-22.61 273.89,-15.83"/>
</a>
</g>
</g>
<!-- Node7 -->
<g id="Node000007" class="node">
<title>Node7</title>
<g id="a_Node000007"><a xlink:title=" ">
<polygon fill="#e0e0e0" stroke="#999999" points="326.5,-19 281.5,-19 281.5,0 326.5,0 326.5,-19"/>
<text text-anchor="middle" x="304" y="-7" font-family="Helvetica,sans-Serif" font-size="10.00">cstdlib</text>
</a>
</g>
</g>
<!-- Node4&#45;&gt;Node7 -->
<g id="edge6_Node000004_Node000007" class="edge">
<title>Node4&#45;&gt;Node7</title>
<g id="a_edge6_Node000004_Node000007"><a xlink:title=" ">
<path fill="none" stroke="#63b8ff" d="M427.38,-54.98C402.66,-46.07 363.69,-32.02 336.17,-22.1"/>
<polygon fill="#63b8ff" stroke="#63b8ff" points="337.19,-18.75 326.59,-18.65 334.81,-25.33 337.19,-18.75"/>
</a>
</g>
</g>
<!-- Node8 -->
<g id="Node000008" class="node">
<title>Node8</title>
<g id="a_Node000008"><a xlink:title=" ">
<polygon fill="#e0e0e0" stroke="#999999" points="389,-19 345,-19 345,0 389,0 389,-19"/>
<text text-anchor="middle" x="367" y="-7" font-family="Helvetica,sans-Serif" font-size="10.00">vector</text>
</a>
</g>
</g>
<!-- Node4&#45;&gt;Node8 -->
<g id="edge7_Node000004_Node000008" class="edge">
<title>Node4&#45;&gt;Node8</title>
<g id="a_edge7_Node000004_Node000008"><a xlink:title=" ">
<path fill="none" stroke="#63b8ff" d="M437.5,-54.98C424.6,-46.84 404.9,-34.41 389.6,-24.76"/>
<polygon fill="#63b8ff" stroke="#63b8ff" points="391.07,-21.55 380.74,-19.17 387.33,-27.47 391.07,-21.55"/>
</a>
</g>
</g>
<!-- Node9 -->
<g id="Node000009" class="node">
<title>Node9</title>
<g id="a_Node000009"><a xlink:title=" ">
<polygon fill="#e0e0e0" stroke="#999999" points="442.5,-19 407.5,-19 407.5,0 442.5,0 442.5,-19"/>
<text text-anchor="middle" x="425" y="-7" font-family="Helvetica,sans-Serif" font-size="10.00">map</text>
</a>
</g>
</g>
<!-- Node4&#45;&gt;Node9 -->
<g id="edge8_Node000004_Node000009" class="edge">
<title>Node4&#45;&gt;Node9</title>
<g id="a_edge8_Node000004_Node000009"><a xlink:title=" ">
<path fill="none" stroke="#63b8ff" d="M446.71,-54.75C443.19,-47.57 438.09,-37.18 433.72,-28.27"/>
<polygon fill="#63b8ff" stroke="#63b8ff" points="436.76,-26.53 429.21,-19.09 430.48,-29.61 436.76,-26.53"/>
</a>
</g>
</g>
<!-- Node10 -->
<g id="Node000010" class="node">
<title>Node10</title>
<g id="a_Node000010"><a xlink:title=" ">
<polygon fill="#e0e0e0" stroke="#999999" points="491,-19 461,-19 461,0 491,0 491,-19"/>
<text text-anchor="middle" x="476" y="-7" font-family="Helvetica,sans-Serif" font-size="10.00">set</text>
</a>
</g>
</g>
<!-- Node4&#45;&gt;Node10 -->
<g id="edge9_Node000004_Node000010" class="edge">
<title>Node4&#45;&gt;Node10</title>
<g id="a_edge9_Node000004_Node000010"><a xlink:title=" ">
<path fill="none" stroke="#63b8ff" d="M455.13,-54.75C458.51,-47.57 463.42,-37.18 467.62,-28.27"/>
<polygon fill="#63b8ff" stroke="#63b8ff" points="470.85,-29.63 471.95,-19.09 464.52,-26.64 470.85,-29.63"/>
</a>
</g>
</g>
<!-- Node11 -->
<g id="Node000011" class="node">
<title>Node11</title>
<g id="a_Node000011"><a xlink:title=" ">
<polygon fill="#e0e0e0" stroke="#999999" points="550.5,-19 509.5,-19 509.5,0 550.5,0 550.5,-19"/>
<text text-anchor="middle" x="530" y="-7" font-family="Helvetica,sans-Serif" font-size="10.00">string</text>
</a>
</g>
</g>
<!-- Node4&#45;&gt;Node11 -->
<g id="edge10_Node000004_Node000011" class="edge">
<title>Node4&#45;&gt;Node11</title>
<g id="a_edge10_Node000004_Node000011"><a xlink:title=" ">
<path fill="none" stroke="#63b8ff" d="M463.69,-54.98C475.83,-46.84 494.36,-34.41 508.75,-24.76"/>
<polygon fill="#63b8ff" stroke="#63b8ff" points="510.72,-27.65 517.08,-19.17 506.82,-21.84 510.72,-27.65"/>
</a>
</g>
</g>
<!-- Node12 -->
<g id="Node000012" class="node">
<title>Node12</title>
<g id="a_Node000012"><a xlink:title=" ">
<polygon fill="#e0e0e0" stroke="#999999" points="625,-19 569,-19 569,0 625,0 625,-19"/>
<text text-anchor="middle" x="597" y="-7" font-family="Helvetica,sans-Serif" font-size="10.00">algorithm</text>
</a>
</g>
</g>
<!-- Node4&#45;&gt;Node12 -->
<g id="edge11_Node000004_Node000012" class="edge">
<title>Node4&#45;&gt;Node12</title>
<g id="a_edge11_Node000004_Node000012"><a xlink:title=" ">
<path fill="none" stroke="#63b8ff" d="M474.46,-54.98C498.58,-46.23 536.37,-32.51 563.6,-22.62"/>
<polygon fill="#63b8ff" stroke="#63b8ff" points="564.91,-25.87 573.12,-19.17 562.52,-19.29 564.91,-25.87"/>
</a>
</g>
</g>
<!-- Node13 -->
<g id="Node000013" class="node">
<title>Node13</title>
<g id="a_Node000013"><a xlink:title=" ">
<polygon fill="#e0e0e0" stroke="#999999" points="695,-19 643,-19 643,0 695,0 695,-19"/>
<text text-anchor="middle" x="669" y="-7" font-family="Helvetica,sans-Serif" font-size="10.00">memory</text>
</a>
</g>
</g>
<!-- Node4&#45;&gt;Node13 -->
<g id="edge12_Node000004_Node000013" class="edge">
<title>Node4&#45;&gt;Node13</title>
<g id="a_edge12_Node000004_Node000013"><a xlink:title=" ">
<path fill="none" stroke="#63b8ff" d="M479.95,-56.46C519.51,-46.84 590.44,-29.6 633.27,-19.19"/>
<polygon fill="#63b8ff" stroke="#63b8ff" points="634.11,-22.59 643,-16.82 632.45,-15.78 634.11,-22.59"/>
</a>
</g>
</g>
<!-- Node14 -->
<g id="Node000014" class="node">
<title>Node14</title>
<g id="a_Node000014"><a xlink:title=" ">
<polygon fill="#e0e0e0" stroke="#999999" points="772.5,-19 713.5,-19 713.5,0 772.5,0 772.5,-19"/>
<text text-anchor="middle" x="743" y="-7" font-family="Helvetica,sans-Serif" font-size="10.00">functional</text>
</a>
</g>
</g>
<!-- Node4&#45;&gt;Node14 -->
<g id="edge13_Node000004_Node000014" class="edge">
<title>Node4&#45;&gt;Node14</title>
<g id="a_edge13_Node000004_Node000014"><a xlink:title=" ">
<path fill="none" stroke="#63b8ff" d="M479.53,-58.87C524.76,-51.44 615.93,-36.14 703.4,-19.05"/>
<polygon fill="#63b8ff" stroke="#63b8ff" points="704.08,-22.48 713.22,-17.12 702.73,-15.61 704.08,-22.48"/>
</a>
</g>
</g>
<!-- Node15&#45;&gt;Node4 -->
<g id="edge15_Node000015_Node000004" class="edge">
<title>Node15&#45;&gt;Node4</title>
<g id="a_edge15_Node000015_Node000004"><a xlink:title=" ">
<path fill="none" stroke="#63b8ff" d="M248.5,-109.95C287.52,-101.49 349.17,-88.08 412.24,-74.16"/>
<polygon fill="#63b8ff" stroke="#63b8ff" points="413.36,-77.5 422.37,-71.92 411.85,-70.66 413.36,-77.5"/>
</a>
</g>
</g>
<!-- Node16 -->
<g id="Node000016" class="node">
<title>Node16</title>
<g id="a_Node000016"><a xlink:title=" ">
<polygon fill="#e0e0e0" stroke="#999999" points="404,-74 282,-74 282,-55 404,-55 404,-74"/>
<text text-anchor="middle" x="343" y="-62" font-family="Helvetica,sans-Serif" font-size="10.00">cantera/ext/fmt/format.h</text>
</a>
</g>
</g>
<!-- Node15&#45;&gt;Node16 -->
<g id="edge16_Node000015_Node000016" class="edge">
<title>Node15&#45;&gt;Node16</title>
<g id="a_edge16_Node000015_Node000016"><a xlink:title=" ">
<path fill="none" stroke="#63b8ff" d="M230.53,-109.98C252.47,-101.3 286.74,-87.75 311.69,-77.88"/>
<polygon fill="#63b8ff" stroke="#63b8ff" points="313.07,-81.1 321.08,-74.17 310.49,-74.59 313.07,-81.1"/>
</a>
</g>
</g>
<!-- Node17 -->
<g id="Node000017" class="node">
<title>Node17</title>
<g id="a_Node000017"><a xlink:title=" ">
<polygon fill="#e0e0e0" stroke="#999999" points="116,-74 0,-74 0,-55 116,-55 116,-74"/>
<text text-anchor="middle" x="58" y="-62" font-family="Helvetica,sans-Serif" font-size="10.00">cantera/ext/fmt/printf.h</text>
</a>
</g>
</g>
<!-- Node15&#45;&gt;Node17 -->
<g id="edge17_Node000015_Node000017" class="edge">
<title>Node15&#45;&gt;Node17</title>
<g id="a_edge17_Node000015_Node000017"><a xlink:title=" ">
<path fill="none" stroke="#63b8ff" d="M184.74,-109.98C159.68,-101.19 120.37,-87.39 92.17,-77.49"/>
<polygon fill="#63b8ff" stroke="#63b8ff" points="93.3,-74.18 82.7,-74.17 90.98,-80.78 93.3,-74.18"/>
</a>
</g>
</g>
<!-- Node18 -->
<g id="Node000018" class="node">
<title>Node18</title>
<g id="a_Node000018"><a xlink:title=" ">
<polygon fill="#e0e0e0" stroke="#999999" points="263.5,-74 134.5,-74 134.5,-55 263.5,-55 263.5,-74"/>
<text text-anchor="middle" x="199" y="-62" font-family="Helvetica,sans-Serif" font-size="10.00">cantera/ext/fmt/ostream.h</text>
</a>
</g>
</g>
<!-- Node15&#45;&gt;Node18 -->
<g id="edge18_Node000015_Node000018" class="edge">
<title>Node15&#45;&gt;Node18</title>
<g id="a_edge18_Node000015_Node000018"><a xlink:title=" ">
<path fill="none" stroke="#63b8ff" d="M207.35,-109.75C206.04,-102.8 204.16,-92.85 202.52,-84.13"/>
<polygon fill="#63b8ff" stroke="#63b8ff" points="205.91,-83.27 200.62,-74.09 199.04,-84.56 205.91,-83.27"/>
</a>
</g>
</g>
<!-- Node21 -->
<g id="Node000021" class="node">
<title>Node21</title>
<g id="a_Node000021"><a xlink:href="../../de/d7e/BandMatrix_8h.html" target="_top" xlink:title="Declarations for the class BandMatrix which is a child class of GeneralMatrix for banded matrices han...">
<polygon fill="white" stroke="#666666" points="444,-294 292,-294 292,-275 444,-275 444,-294"/>
<text text-anchor="middle" x="368" y="-282" font-family="Helvetica,sans-Serif" font-size="10.00">cantera/numerics/BandMatrix.h</text>
</a>
</g>
</g>
<!-- Node20&#45;&gt;Node21 -->
<g id="edge21_Node000020_Node000021" class="edge">
<title>Node20&#45;&gt;Node21</title>
<g id="a_edge21_Node000020_Node000021"><a xlink:title=" ">
<path fill="none" stroke="#63b8ff" d="M530.83,-329.98C497.84,-320.97 445.6,-306.7 409.23,-296.76"/>
<polygon fill="#63b8ff" stroke="#63b8ff" points="409.98,-293.34 399.41,-294.08 408.14,-300.09 409.98,-293.34"/>
</a>
</g>
</g>
<!-- Node24 -->
<g id="Node000024" class="node">
<title>Node24</title>
<g id="a_Node000024"><a xlink:href="../../de/da1/OneDim_8h.html" target="_top" xlink:title=" ">
<polygon fill="white" stroke="#666666" points="592.5,-294 531.5,-294 531.5,-275 592.5,-275 592.5,-294"/>
<text text-anchor="middle" x="562" y="-282" font-family="Helvetica,sans-Serif" font-size="10.00">OneDim.h</text>
</a>
</g>
</g>
<!-- Node20&#45;&gt;Node24 -->
<g id="edge28_Node000020_Node000024" class="edge">
<title>Node20&#45;&gt;Node24</title>
<g id="a_edge28_Node000020_Node000024"><a xlink:title=" ">
<path fill="none" stroke="#63b8ff" d="M556.83,-329.75C555.34,-322.8 554.9,-312.85 555.52,-304.13"/>
<polygon fill="#63b8ff" stroke="#63b8ff" points="559.01,-304.47 556.87,-294.09 552.07,-303.53 559.01,-304.47"/>
</a>
</g>
</g>
<!-- Node22 -->
<g id="Node000022" class="node">
<title>Node22</title>
<g id="a_Node000022"><a xlink:href="../../da/d15/GeneralMatrix_8h.html" target="_top" xlink:title="Declarations for the class GeneralMatrix which is a virtual base class for matrices handled by solver...">
<polygon fill="white" stroke="#666666" points="377,-239 291,-239 291,-220 377,-220 377,-239"/>
<text text-anchor="middle" x="334" y="-227" font-family="Helvetica,sans-Serif" font-size="10.00">GeneralMatrix.h</text>
</a>
</g>
</g>
<!-- Node21&#45;&gt;Node22 -->
<g id="edge22_Node000021_Node000022" class="edge">
<title>Node21&#45;&gt;Node22</title>
<g id="a_edge22_Node000021_Node000022"><a xlink:title=" ">
<path fill="none" stroke="#63b8ff" d="M362.39,-274.75C357.68,-267.42 350.83,-256.73 345.03,-247.7"/>
<polygon fill="#63b8ff" stroke="#63b8ff" points="347.86,-245.62 339.51,-239.09 341.96,-249.4 347.86,-245.62"/>
</a>
</g>
</g>
<!-- Node22&#45;&gt;Node3 -->
<g id="edge24_Node000022_Node000003" class="edge">
<title>Node22&#45;&gt;Node3</title>
<g id="a_edge24_Node000022_Node000003"><a xlink:title=" ">
<path fill="none" stroke="#63b8ff" d="M348.78,-219.98C363.18,-211.69 385.31,-198.94 402.19,-189.22"/>
<polygon fill="#63b8ff" stroke="#63b8ff" points="404.03,-192.19 410.95,-184.17 400.54,-186.13 404.03,-192.19"/>
</a>
</g>
</g>
<!-- Node22&#45;&gt;Node4 -->
<g id="edge23_Node000022_Node000004" class="edge">
<title>Node22&#45;&gt;Node4</title>
<g id="a_edge23_Node000022_Node000004"><a xlink:title=" ">
<path fill="none" stroke="#63b8ff" d="M331.83,-219.72C327.15,-198.55 318.4,-143.9 343,-110 351.65,-98.09 385.22,-85.38 412.66,-76.6"/>
<polygon fill="#63b8ff" stroke="#63b8ff" points="413.93,-79.87 422.44,-73.56 411.85,-73.19 413.93,-79.87"/>
</a>
</g>
</g>
<!-- Node23 -->
<g id="Node000023" class="node">
<title>Node23</title>
<g id="a_Node000023"><a xlink:href="../../d2/d49/global_8h.html" target="_top" xlink:title="This file contains definitions for utility functions and text for modules, inputfiles and logging,...">
<polygon fill="white" stroke="#666666" points="277,-184 167,-184 167,-165 277,-165 277,-184"/>
<text text-anchor="middle" x="222" y="-172" font-family="Helvetica,sans-Serif" font-size="10.00">cantera/base/global.h</text>
</a>
</g>
</g>
<!-- Node22&#45;&gt;Node23 -->
<g id="edge25_Node000022_Node000023" class="edge">
<title>Node22&#45;&gt;Node23</title>
<g id="a_edge25_Node000022_Node000023"><a xlink:title=" ">
<path fill="none" stroke="#63b8ff" d="M316.01,-219.98C298.07,-211.5 270.28,-198.35 249.57,-188.54"/>
<polygon fill="#63b8ff" stroke="#63b8ff" points="250.86,-185.28 240.32,-184.17 247.86,-191.61 250.86,-185.28"/>
</a>
</g>
</g>
<!-- Node23&#45;&gt;Node4 -->
<g id="edge26_Node000023_Node000004" class="edge">
<title>Node23&#45;&gt;Node4</title>
<g id="a_edge26_Node000023_Node000004"><a xlink:title=" ">
<path fill="none" stroke="#63b8ff" d="M231.62,-164.95C247.11,-151.55 279.02,-125.56 310,-110 328.06,-100.93 377.24,-86.18 412.43,-76.17"/>
<polygon fill="#63b8ff" stroke="#63b8ff" points="413.73,-79.44 422.4,-73.36 411.83,-72.71 413.73,-79.44"/>
</a>
</g>
</g>
<!-- Node23&#45;&gt;Node15 -->
<g id="edge27_Node000023_Node000015" class="edge">
<title>Node23&#45;&gt;Node15</title>
<g id="a_edge27_Node000023_Node000015"><a xlink:title=" ">
<path fill="none" stroke="#63b8ff" d="M219.85,-164.75C218.13,-157.72 215.65,-147.62 213.5,-138.84"/>
<polygon fill="#63b8ff" stroke="#63b8ff" points="216.89,-137.97 211.11,-129.09 210.09,-139.63 216.89,-137.97"/>
</a>
</g>
</g>
<!-- Node24&#45;&gt;Node2 -->
<g id="edge29_Node000024_Node000002" class="edge">
<title>Node24&#45;&gt;Node2</title>
<g id="a_edge29_Node000024_Node000002"><a xlink:title=" ">
<path fill="none" stroke="#63b8ff" d="M547.54,-274.98C533.58,-266.77 512.21,-254.18 495.75,-244.49"/>
<polygon fill="#63b8ff" stroke="#63b8ff" points="497.12,-241.23 486.72,-239.17 493.56,-247.26 497.12,-241.23"/>
</a>
</g>
</g>
<!-- Node24&#45;&gt;Node20 -->
<g id="edge30_Node000024_Node000020" class="edge">
<title>Node24&#45;&gt;Node20</title>
<g id="a_edge30_Node000024_Node000020"><a xlink:title=" ">
<path fill="none" stroke="#63b8ff" d="M567.13,-294.09C568.64,-300.99 569.09,-310.93 568.49,-319.66"/>
<polygon fill="#63b8ff" stroke="#63b8ff" points="565,-319.38 567.17,-329.75 571.94,-320.29 565,-319.38"/>
</a>
</g>
</g>
<!-- Node25&#45;&gt;Node4 -->
<g id="edge32_Node000025_Node000004" class="edge">
<title>Node25&#45;&gt;Node4</title>
<g id="a_edge32_Node000025_Node000004"><a xlink:title=" ">
<path fill="none" stroke="#63b8ff" d="M893.11,-329.97C930.8,-315.82 996,-283.66 996,-230.5 996,-230.5 996,-230.5 996,-173.5 996,-70.17 614.25,-64.15 489.75,-64.94"/>
<polygon fill="#63b8ff" stroke="#63b8ff" points="489.51,-61.44 479.53,-65.02 489.56,-68.44 489.51,-61.44"/>
</a>
</g>
</g>
<!-- Node26&#45;&gt;Node3 -->
<g id="edge35_Node000026_Node000003" class="edge">
<title>Node26&#45;&gt;Node3</title>
<g id="a_edge35_Node000026_Node000003"><a xlink:title=" ">
<path fill="none" stroke="#63b8ff" d="M613.17,-219.98C574.84,-210.87 513.92,-196.4 472.05,-186.45"/>
<polygon fill="#63b8ff" stroke="#63b8ff" points="472.65,-182.99 462.11,-184.08 471.03,-189.8 472.65,-182.99"/>
</a>
</g>
</g>
<!-- Node26&#45;&gt;Node4 -->
<g id="edge34_Node000026_Node000004" class="edge">
<title>Node26&#45;&gt;Node4</title>
<g id="a_edge34_Node000026_Node000004"><a xlink:title=" ">
<path fill="none" stroke="#63b8ff" d="M632.3,-219.99C619.29,-212.41 601.97,-200.04 593,-184 576.82,-155.09 604.95,-135.67 584,-110 561.21,-82.07 520.3,-71.56 489.85,-67.67"/>
<polygon fill="#63b8ff" stroke="#63b8ff" points="489.88,-64.15 479.56,-66.55 489.12,-71.11 489.88,-64.15"/>
</a>
</g>
</g>
<!-- Node27 -->
<g id="Node000027" class="node">
<title>Node27</title>
<g id="a_Node000027"><a xlink:href="../../da/d58/Units_8h.html" target="_top" xlink:title="Header for unit conversion utilities, which are used to translate user input from input files (See In...">
<polygon fill="white" stroke="#666666" points="575.5,-129 468.5,-129 468.5,-110 575.5,-110 575.5,-129"/>
<text text-anchor="middle" x="522" y="-117" font-family="Helvetica,sans-Serif" font-size="10.00">cantera/base/Units.h</text>
</a>
</g>
</g>
<!-- Node26&#45;&gt;Node27 -->
<g id="edge36_Node000026_Node000027" class="edge">
<title>Node26&#45;&gt;Node27</title>
<g id="a_edge36_Node000026_Node000027"><a xlink:title=" ">
<path fill="none" stroke="#63b8ff" d="M622.88,-219.96C603.76,-212.71 578.12,-200.8 560,-184 546.34,-171.33 535.96,-152.64 529.53,-138.81"/>
<polygon fill="#63b8ff" stroke="#63b8ff" points="532.61,-137.12 525.39,-129.37 526.2,-139.93 532.61,-137.12"/>
</a>
</g>
</g>
<!-- Node28 -->
<g id="Node000028" class="node">
<title>Node28</title>
<g id="a_Node000028"><a xlink:title=" ">
<polygon fill="#e0e0e0" stroke="#999999" points="685.5,-184 602.5,-184 602.5,-165 685.5,-165 685.5,-184"/>
<text text-anchor="middle" x="644" y="-172" font-family="Helvetica,sans-Serif" font-size="10.00">unordered_map</text>
</a>
</g>
</g>
<!-- Node26&#45;&gt;Node28 -->
<g id="edge38_Node000026_Node000028" class="edge">
<title>Node26&#45;&gt;Node28</title>
<g id="a_edge38_Node000026_Node000028"><a xlink:title=" ">
<path fill="none" stroke="#63b8ff" d="M648.17,-219.75C647.52,-212.8 646.58,-202.85 645.76,-194.13"/>
<polygon fill="#63b8ff" stroke="#63b8ff" points="649.23,-193.72 644.81,-184.09 642.27,-194.37 649.23,-193.72"/>
</a>
</g>
</g>
<!-- Node29 -->
<g id="Node000029" class="node">
<title>Node29</title>
<g id="a_Node000029"><a xlink:title=" ">
<polygon fill="#e0e0e0" stroke="#999999" points="766,-184 704,-184 704,-165 766,-165 766,-184"/>
<text text-anchor="middle" x="735" y="-172" font-family="Helvetica,sans-Serif" font-size="10.00">filesystem</text>
</a>
</g>
</g>
<!-- Node26&#45;&gt;Node29 -->
<g id="edge39_Node000026_Node000029" class="edge">
<title>Node26&#45;&gt;Node29</title>
<g id="a_edge39_Node000026_Node000029"><a xlink:title=" ">
<path fill="none" stroke="#63b8ff" d="M662.82,-219.98C676.15,-211.77 696.58,-199.18 712.31,-189.49"/>
<polygon fill="#63b8ff" stroke="#63b8ff" points="714.25,-192.4 720.93,-184.17 710.58,-186.44 714.25,-192.4"/>
</a>
</g>
</g>
<!-- Node30 -->
<g id="Node000030" class="node">
<title>Node30</title>
<g id="a_Node000030"><a xlink:title=" ">
<polygon fill="#e0e0e0" stroke="#999999" points="816,-184 784,-184 784,-165 816,-165 816,-184"/>
<text text-anchor="middle" x="800" y="-172" font-family="Helvetica,sans-Serif" font-size="10.00">any</text>
</a>
</g>
</g>
<!-- Node26&#45;&gt;Node30 -->
<g id="edge40_Node000026_Node000030" class="edge">
<title>Node26&#45;&gt;Node30</title>
<g id="a_edge40_Node000026_Node000030"><a xlink:title=" ">
<path fill="none" stroke="#63b8ff" d="M673.26,-219.98C700.88,-210.29 745.83,-194.51 774.11,-184.59"/>
<polygon fill="#63b8ff" stroke="#63b8ff" points="775.43,-187.83 783.71,-181.22 773.12,-181.23 775.43,-187.83"/>
</a>
</g>
</g>
<!-- Node31 -->
<g id="Node000031" class="node">
<title>Node31</title>
<g id="a_Node000031"><a xlink:href="../../da/d4c/AnyMap_8inl_8h.html" target="_top" xlink:title=" ">
<polygon fill="white" stroke="#666666" points="967.5,-184 834.5,-184 834.5,-165 967.5,-165 967.5,-184"/>
<text text-anchor="middle" x="901" y="-172" font-family="Helvetica,sans-Serif" font-size="10.00">cantera/base/AnyMap.inl.h</text>
</a>
</g>
</g>
<!-- Node26&#45;&gt;Node31 -->
<g id="edge41_Node000026_Node000031" class="edge">
<title>Node26&#45;&gt;Node31</title>
<g id="a_edge41_Node000026_Node000031"><a xlink:title=" ">
<path fill="none" stroke="#63b8ff" d="M684.37,-219.98C726.2,-210.76 796.11,-196.03 845.23,-186.07"/>
<polygon fill="#63b8ff" stroke="#63b8ff" points="845.96,-189.49 855.07,-184.08 844.57,-182.63 845.96,-189.49"/>
</a>
</g>
</g>
<!-- Node27&#45;&gt;Node4 -->
<g id="edge37_Node000027_Node000004" class="edge">
<title>Node27&#45;&gt;Node4</title>
<g id="a_edge37_Node000027_Node000004"><a xlink:title=" ">
<path fill="none" stroke="#63b8ff" d="M510.59,-109.98C499.89,-102 483.66,-89.88 470.84,-80.31"/>
<polygon fill="#63b8ff" stroke="#63b8ff" points="472.72,-77.35 462.61,-74.17 468.53,-82.96 472.72,-77.35"/>
</a>
</g>
</g>
<!-- Node31&#45;&gt;Node26 -->
<g id="edge42_Node000031_Node000026" class="edge">
<title>Node31&#45;&gt;Node26</title>
<g id="a_edge42_Node000031_Node000026"><a xlink:title=" ">
<path fill="none" stroke="#63b8ff" d="M865.32,-184.08C823.36,-193.33 753.43,-208.07 704.42,-218"/>
<polygon fill="#63b8ff" stroke="#63b8ff" points="703.71,-214.57 694.6,-219.98 705.1,-221.44 703.71,-214.57"/>
</a>
</g>
</g>
<!-- Node32&#45;&gt;Node23 -->
<g id="edge44_Node000032_Node000023" class="edge">
<title>Node32&#45;&gt;Node23</title>
<g id="a_edge44_Node000032_Node000023"><a xlink:title=" ">
<path fill="none" stroke="#63b8ff" d="M204.55,-274.66C207.63,-257.17 214.56,-217.8 218.7,-194.27"/>
<polygon fill="#63b8ff" stroke="#63b8ff" points="222.19,-194.61 220.48,-184.16 215.3,-193.4 222.19,-194.61"/>
</a>
</g>
</g>
<!-- Node32&#45;&gt;Node26 -->
<g id="edge45_Node000032_Node000026" class="edge">
<title>Node32&#45;&gt;Node26</title>
<g id="a_edge45_Node000032_Node000026"><a xlink:title=" ">
<path fill="none" stroke="#63b8ff" d="M273.67,-275.1C357.14,-265.18 495.15,-248.78 578.53,-238.87"/>
<polygon fill="#63b8ff" stroke="#63b8ff" points="579.16,-242.32 588.67,-237.67 578.33,-235.37 579.16,-242.32"/>
</a>
</g>
</g>
</g>
</svg>
