<?xml version="1.0" encoding="UTF-8" standalone="no"?>
<!DOCTYPE svg PUBLIC "-//W3C//DTD SVG 1.1//EN"
 "http://www.w3.org/Graphics/SVG/1.1/DTD/svg11.dtd">
<!-- Generated by graphviz version 2.50.0 (0)
 -->
<!-- Title: IdealGasPhase.h Pages: 1 -->
<!--zoomable 196 -->
<svg id="main" version="1.1" xmlns="http://www.w3.org/2000/svg" xmlns:xlink="http://www.w3.org/1999/xlink" xml:space="preserve" onload="init(evt)">
<style type="text/css"><![CDATA[
.edge:hover path { stroke: red; }
.edge:hover polygon { stroke: red; fill: red; }
]]></style>
<script type="text/javascript"><![CDATA[
var edges = document.getElementsByTagName('g');
if (edges && edges.length) {
  for (var i=0;i<edges.length;i++) {
    if (edges[i].id.substr(0,4)=='edge') {
      edges[i].setAttribute('class','edge');
    }
  }
}
]]></script>
        <defs>
                <circle id="rim" cx="0" cy="0" r="7"/>
                <circle id="rim2" cx="0" cy="0" r="3.5"/>
                <g id="zoomPlus">
                        <use xlink:href="#rim" fill="#404040">
                                <set attributeName="fill" to="#808080" begin="zoomplus.mouseover" end="zoomplus.mouseout"/>
                        </use>
                        <path d="M-4,0h8M0,-4v8" fill="none" stroke="white" stroke-width="1.5" pointer-events="none"/>
                </g>
                <g id="zoomMin">
                        <use xlink:href="#rim" fill="#404040">
                                <set attributeName="fill" to="#808080" begin="zoomminus.mouseover" end="zoomminus.mouseout"/>
                        </use>
                        <path d="M-4,0h8" fill="none" stroke="white" stroke-width="1.5" pointer-events="none"/>
                </g>
                <g id="dirArrow">
                        <path fill="none" stroke="white" stroke-width="1.5" d="M0,-3.0v7 M-2.5,-0.5L0,-3.0L2.5,-0.5"/>
                </g>
               <g id="resetDef">
                       <use xlink:href="#rim2" fill="#404040">
                               <set attributeName="fill" to="#808080" begin="reset.mouseover" end="reset.mouseout"/>
                       </use>
               </g>
        </defs>

<script type="text/javascript">
var viewWidth = 1077;
var viewHeight = 196;
var sectionId = 'dynsection-1';
</script>
<script xlink:href="../../svgpan.js"/>
<svg id="graph" class="graph">
<g id="viewport">
<title>IdealGasPhase.h</title>
<polygon fill="white" stroke="transparent" points="-4,4 -4,-192 1072.5,-192 1072.5,4 -4,4"/>
<!-- Node1 -->
<g id="node1" class="node">
<title>Node1</title>
<g id="a_node1"><a xlink:title="ThermoPhase object for the ideal gas equation of state &#45; workhorse for Cantera (see Thermodynamic Pro...">
<polygon fill="#bfbfbf" stroke="black" points="350,-168.5 350,-187.5 442,-187.5 442,-168.5 350,-168.5"/>
<text text-anchor="middle" x="396" y="-175.5" font-family="Helvetica,sans-Serif" font-size="10.00">IdealGasPhase.h</text>
</a>
</g>
</g>
<!-- Node2 -->
<g id="node2" class="node">
<title>Node2</title>
<g id="a_node2"><a xlink:href="../../d2/d89/HighPressureGasTransport_8cpp.html" target="_top" xlink:title="Implementation file for class HighPressureGasTransport.">
<polygon fill="white" stroke="black" points="0,-112.5 0,-131.5 154,-131.5 154,-112.5 0,-112.5"/>
<text text-anchor="middle" x="77" y="-119.5" font-family="Helvetica,sans-Serif" font-size="10.00">HighPressureGasTransport.cpp</text>
</a>
</g>
</g>
<!-- Node1&#45;&gt;Node2 -->
<g id="edge1" class="edge">
<title>Node1&#45;&gt;Node2</title>
<path fill="none" stroke="midnightblue" d="M339.87,-167.5C279.7,-157.31 185.04,-141.29 127.24,-131.5"/>
<polygon fill="midnightblue" stroke="midnightblue" points="339.51,-170.99 349.96,-169.21 340.68,-164.09 339.51,-170.99"/>
</g>
<!-- Node3 -->
<g id="node3" class="node">
<title>Node3</title>
<g id="a_node3"><a xlink:href="../../d7/dd4/IdealGasPhase_8cpp.html" target="_top" xlink:title="ThermoPhase object for the ideal gas equation of state &#45; workhorse for Cantera (see Thermodynamic Pro...">
<polygon fill="white" stroke="black" points="172,-112.5 172,-131.5 274,-131.5 274,-112.5 172,-112.5"/>
<text text-anchor="middle" x="223" y="-119.5" font-family="Helvetica,sans-Serif" font-size="10.00">IdealGasPhase.cpp</text>
</a>
</g>
</g>
<!-- Node1&#45;&gt;Node3 -->
<g id="edge2" class="edge">
<title>Node1&#45;&gt;Node3</title>
<path fill="none" stroke="midnightblue" d="M358.95,-165.44C326.34,-155.26 279.59,-140.66 250.28,-131.52"/>
<polygon fill="midnightblue" stroke="midnightblue" points="358,-168.8 368.59,-168.44 360.08,-162.12 358,-168.8"/>
</g>
<!-- Node4 -->
<g id="node4" class="node">
<title>Node4</title>
<g id="a_node4"><a xlink:href="../../d2/d60/MultiTransport_8cpp.html" target="_top" xlink:title="Implementation file for class MultiTransport.">
<polygon fill="white" stroke="black" points="292,-112.5 292,-131.5 390,-131.5 390,-112.5 292,-112.5"/>
<text text-anchor="middle" x="341" y="-119.5" font-family="Helvetica,sans-Serif" font-size="10.00">MultiTransport.cpp</text>
</a>
</g>
</g>
<!-- Node1&#45;&gt;Node4 -->
<g id="edge3" class="edge">
<title>Node1&#45;&gt;Node4</title>
<path fill="none" stroke="midnightblue" d="M379.71,-161C369.96,-151.43 357.95,-139.64 349.91,-131.75"/>
<polygon fill="midnightblue" stroke="midnightblue" points="377.33,-163.57 386.92,-168.08 382.23,-158.58 377.33,-163.57"/>
</g>
<!-- Node5 -->
<g id="node5" class="node">
<title>Node5</title>
<g id="a_node5"><a xlink:href="../../d6/ded/PlasmaPhase_8h.html" target="_top" xlink:title="Header file for class PlasmaPhase.">
<polygon fill="white" stroke="black" points="408,-112.5 408,-131.5 494,-131.5 494,-112.5 408,-112.5"/>
<text text-anchor="middle" x="451" y="-119.5" font-family="Helvetica,sans-Serif" font-size="10.00">PlasmaPhase.h</text>
</a>
</g>
</g>
<!-- Node1&#45;&gt;Node5 -->
<g id="edge4" class="edge">
<title>Node1&#45;&gt;Node5</title>
<path fill="none" stroke="midnightblue" d="M412.29,-161C422.04,-151.43 434.05,-139.64 442.09,-131.75"/>
<polygon fill="midnightblue" stroke="midnightblue" points="409.77,-158.58 405.08,-168.08 414.67,-163.57 409.77,-158.58"/>
</g>
<!-- Node7 -->
<g id="node7" class="node">
<title>Node7</title>
<g id="a_node7"><a xlink:href="../../d2/d3a/ThermoFactory_8cpp.html" target="_top" xlink:title="Definitions for the factory class that can create known ThermoPhase objects (see Thermodynamic Proper...">
<polygon fill="white" stroke="black" points="437,-56.5 437,-75.5 537,-75.5 537,-56.5 437,-56.5"/>
<text text-anchor="middle" x="487" y="-63.5" font-family="Helvetica,sans-Serif" font-size="10.00">ThermoFactory.cpp</text>
</a>
</g>
</g>
<!-- Node1&#45;&gt;Node7 -->
<g id="edge20" class="edge">
<title>Node1&#45;&gt;Node7</title>
<path fill="none" stroke="midnightblue" d="M451.9,-166.78C471.43,-160.23 491.36,-149.52 503,-132 514.7,-114.38 501.68,-88.96 493.17,-75.74"/>
<polygon fill="midnightblue" stroke="midnightblue" points="450.63,-163.5 442.08,-169.75 452.66,-170.2 450.63,-163.5"/>
</g>
<!-- Node8 -->
<g id="node8" class="node">
<title>Node8</title>
<g id="a_node8"><a xlink:href="../../d7/d7c/StFlow_8h.html" target="_top" xlink:title=" ">
<polygon fill="white" stroke="black" points="712,-112.5 712,-131.5 766,-131.5 766,-112.5 712,-112.5"/>
<text text-anchor="middle" x="739" y="-119.5" font-family="Helvetica,sans-Serif" font-size="10.00">StFlow.h</text>
</a>
</g>
</g>
<!-- Node1&#45;&gt;Node8 -->
<g id="edge7" class="edge">
<title>Node1&#45;&gt;Node8</title>
<path fill="none" stroke="midnightblue" d="M452.43,-168.12C527.13,-156.36 655.91,-136.08 711.8,-127.28"/>
<polygon fill="midnightblue" stroke="midnightblue" points="451.59,-164.7 442.26,-169.72 452.68,-171.62 451.59,-164.7"/>
</g>
<!-- Node6 -->
<g id="node6" class="node">
<title>Node6</title>
<g id="a_node6"><a xlink:href="../../da/dc4/PlasmaPhase_8cpp.html" target="_top" xlink:title=" ">
<polygon fill="white" stroke="black" points="323,-56.5 323,-75.5 419,-75.5 419,-56.5 323,-56.5"/>
<text text-anchor="middle" x="371" y="-63.5" font-family="Helvetica,sans-Serif" font-size="10.00">PlasmaPhase.cpp</text>
</a>
</g>
</g>
<!-- Node5&#45;&gt;Node6 -->
<g id="edge5" class="edge">
<title>Node5&#45;&gt;Node6</title>
<path fill="none" stroke="midnightblue" d="M429.7,-106.62C415.08,-96.76 396.17,-83.99 383.82,-75.65"/>
<polygon fill="midnightblue" stroke="midnightblue" points="427.9,-109.63 438.15,-112.32 431.82,-103.83 427.9,-109.63"/>
</g>
<!-- Node5&#45;&gt;Node7 -->
<g id="edge6" class="edge">
<title>Node5&#45;&gt;Node7</title>
<path fill="none" stroke="midnightblue" d="M462.62,-103.57C468.82,-94.27 476.17,-83.25 481.17,-75.75"/>
<polygon fill="midnightblue" stroke="midnightblue" points="459.58,-101.82 456.94,-112.08 465.4,-105.7 459.58,-101.82"/>
</g>
<!-- Node9 -->
<g id="node9" class="node">
<title>Node9</title>
<g id="a_node9"><a xlink:href="../../de/d16/Boundary1D_8cpp.html" target="_top" xlink:title=" ">
<polygon fill="white" stroke="black" points="497.5,-0.5 497.5,-19.5 586.5,-19.5 586.5,-0.5 497.5,-0.5"/>
<text text-anchor="middle" x="542" y="-7.5" font-family="Helvetica,sans-Serif" font-size="10.00">Boundary1D.cpp</text>
</a>
</g>
</g>
<!-- Node8&#45;&gt;Node9 -->
<g id="edge8" class="edge">
<title>Node8&#45;&gt;Node9</title>
<path fill="none" stroke="midnightblue" d="M701.47,-117.56C667.87,-112.86 618.68,-101.82 584,-76 563.95,-61.08 550.87,-33.53 545.21,-19.58"/>
<polygon fill="midnightblue" stroke="midnightblue" points="701.43,-121.08 711.8,-118.87 702.32,-114.14 701.43,-121.08"/>
</g>
<!-- Node10 -->
<g id="node10" class="node">
<title>Node10</title>
<g id="a_node10"><a xlink:href="../../dc/d7c/Boundary1D_8h.html" target="_top" xlink:title="Boundary objects for one&#45;dimensional simulations.">
<polygon fill="white" stroke="black" points="593.5,-56.5 593.5,-75.5 672.5,-75.5 672.5,-56.5 593.5,-56.5"/>
<text text-anchor="middle" x="633" y="-63.5" font-family="Helvetica,sans-Serif" font-size="10.00">Boundary1D.h</text>
</a>
</g>
</g>
<!-- Node8&#45;&gt;Node10 -->
<g id="edge9" class="edge">
<title>Node8&#45;&gt;Node10</title>
<path fill="none" stroke="midnightblue" d="M712.94,-107.73C693.32,-97.73 666.97,-84.31 649.99,-75.65"/>
<polygon fill="midnightblue" stroke="midnightblue" points="711.47,-110.9 721.97,-112.32 714.65,-104.67 711.47,-110.9"/>
</g>
<!-- Node12 -->
<g id="node12" class="node">
<title>Node12</title>
<g id="a_node12"><a xlink:href="../../d4/d07/onedim_8h.html" target="_top" xlink:title=" ">
<polygon fill="white" stroke="black" points="679,-0.5 679,-19.5 735,-19.5 735,-0.5 679,-0.5"/>
<text text-anchor="middle" x="707" y="-7.5" font-family="Helvetica,sans-Serif" font-size="10.00">onedim.h</text>
</a>
</g>
</g>
<!-- Node8&#45;&gt;Node12 -->
<g id="edge18" class="edge">
<title>Node8&#45;&gt;Node12</title>
<path fill="none" stroke="midnightblue" d="M733.19,-102.79C730.62,-94.62 727.6,-84.84 725,-76 719.12,-56 712.72,-32.39 709.36,-19.86"/>
<polygon fill="midnightblue" stroke="midnightblue" points="729.88,-103.92 736.24,-112.4 736.55,-101.81 729.88,-103.92"/>
</g>
<!-- Node13 -->
<g id="node13" class="node">
<title>Node13</title>
<g id="a_node13"><a xlink:href="../../d4/d57/IonFlow_8cpp.html" target="_top" xlink:title=" ">
<polygon fill="white" stroke="black" points="758,-0.5 758,-19.5 826,-19.5 826,-0.5 758,-0.5"/>
<text text-anchor="middle" x="792" y="-7.5" font-family="Helvetica,sans-Serif" font-size="10.00">IonFlow.cpp</text>
</a>
</g>
</g>
<!-- Node8&#45;&gt;Node13 -->
<g id="edge13" class="edge">
<title>Node8&#45;&gt;Node13</title>
<path fill="none" stroke="midnightblue" d="M742.57,-102.29C745.57,-88.93 750.58,-70.77 758,-56 764.95,-42.18 776.27,-28.28 783.92,-19.66"/>
<polygon fill="midnightblue" stroke="midnightblue" points="739.12,-101.71 740.52,-112.21 745.98,-103.13 739.12,-101.71"/>
</g>
<!-- Node14 -->
<g id="node14" class="node">
<title>Node14</title>
<g id="a_node14"><a xlink:href="../../d7/d4b/IonFlow_8h.html" target="_top" xlink:title=" ">
<polygon fill="white" stroke="black" points="767,-56.5 767,-75.5 825,-75.5 825,-56.5 767,-56.5"/>
<text text-anchor="middle" x="796" y="-63.5" font-family="Helvetica,sans-Serif" font-size="10.00">IonFlow.h</text>
</a>
</g>
</g>
<!-- Node8&#45;&gt;Node14 -->
<g id="edge14" class="edge">
<title>Node8&#45;&gt;Node14</title>
<path fill="none" stroke="midnightblue" d="M755.62,-105.25C765.73,-95.67 778.28,-83.79 786.68,-75.83"/>
<polygon fill="midnightblue" stroke="midnightblue" points="753.01,-102.91 748.16,-112.32 757.82,-107.99 753.01,-102.91"/>
</g>
<!-- Node15 -->
<g id="node15" class="node">
<title>Node15</title>
<g id="a_node15"><a xlink:href="../../d0/de8/Sim1D_8cpp.html" target="_top" xlink:title=" ">
<polygon fill="white" stroke="black" points="843.5,-56.5 843.5,-75.5 908.5,-75.5 908.5,-56.5 843.5,-56.5"/>
<text text-anchor="middle" x="876" y="-63.5" font-family="Helvetica,sans-Serif" font-size="10.00">Sim1D.cpp</text>
</a>
</g>
</g>
<!-- Node8&#45;&gt;Node15 -->
<g id="edge16" class="edge">
<title>Node8&#45;&gt;Node15</title>
<path fill="none" stroke="midnightblue" d="M770.02,-108.77C795.76,-98.63 831.69,-84.47 854.39,-75.52"/>
<polygon fill="midnightblue" stroke="midnightblue" points="768.73,-105.52 760.71,-112.44 771.29,-112.03 768.73,-105.52"/>
</g>
<!-- Node16 -->
<g id="node16" class="node">
<title>Node16</title>
<g id="a_node16"><a xlink:href="../../d4/d8d/StFlow_8cpp.html" target="_top" xlink:title=" ">
<polygon fill="white" stroke="black" points="926.5,-56.5 926.5,-75.5 991.5,-75.5 991.5,-56.5 926.5,-56.5"/>
<text text-anchor="middle" x="959" y="-63.5" font-family="Helvetica,sans-Serif" font-size="10.00">StFlow.cpp</text>
</a>
</g>
</g>
<!-- Node8&#45;&gt;Node16 -->
<g id="edge17" class="edge">
<title>Node8&#45;&gt;Node16</title>
<path fill="none" stroke="midnightblue" d="M776.27,-111.85C818.33,-101.53 886.09,-84.9 926.21,-75.05"/>
<polygon fill="midnightblue" stroke="midnightblue" points="775.3,-108.49 766.42,-114.27 776.96,-115.29 775.3,-108.49"/>
</g>
<!-- Node17 -->
<g id="node17" class="node">
<title>Node17</title>
<g id="a_node17"><a xlink:href="../../dd/d3c/refine_8cpp.html" target="_top" xlink:title=" ">
<polygon fill="white" stroke="black" points="1009.5,-56.5 1009.5,-75.5 1068.5,-75.5 1068.5,-56.5 1009.5,-56.5"/>
<text text-anchor="middle" x="1039" y="-63.5" font-family="Helvetica,sans-Serif" font-size="10.00">refine.cpp</text>
</a>
</g>
</g>
<!-- Node8&#45;&gt;Node17 -->
<g id="edge19" class="edge">
<title>Node8&#45;&gt;Node17</title>
<path fill="none" stroke="midnightblue" d="M776.15,-115.37C827.05,-107.48 921.25,-92.28 1001,-76 1003.66,-75.46 1006.41,-74.87 1009.17,-74.25"/>
<polygon fill="midnightblue" stroke="midnightblue" points="775.61,-111.91 766.26,-116.89 776.68,-118.83 775.61,-111.91"/>
</g>
<!-- Node10&#45;&gt;Node9 -->
<g id="edge10" class="edge">
<title>Node10&#45;&gt;Node9</title>
<path fill="none" stroke="midnightblue" d="M609.71,-51.18C592.96,-41.24 570.9,-28.15 556.58,-19.65"/>
<polygon fill="midnightblue" stroke="midnightblue" points="607.99,-54.23 618.38,-56.32 611.57,-48.21 607.99,-54.23"/>
</g>
<!-- Node11 -->
<g id="node11" class="node">
<title>Node11</title>
<g id="a_node11"><a xlink:href="../../d0/de5/Inlet1D_8h.html" target="_top" xlink:title="Boundary objects for one&#45;dimensional simulations.">
<polygon fill="white" stroke="black" points="605,-0.5 605,-19.5 661,-19.5 661,-0.5 605,-0.5"/>
<text text-anchor="middle" x="633" y="-7.5" font-family="Helvetica,sans-Serif" font-size="10.00">Inlet1D.h</text>
</a>
</g>
</g>
<!-- Node10&#45;&gt;Node11 -->
<g id="edge11" class="edge">
<title>Node10&#45;&gt;Node11</title>
<path fill="none" stroke="midnightblue" d="M633,-45.8C633,-36.91 633,-26.78 633,-19.75"/>
<polygon fill="midnightblue" stroke="midnightblue" points="629.5,-46.08 633,-56.08 636.5,-46.08 629.5,-46.08"/>
</g>
<!-- Node10&#45;&gt;Node12 -->
<g id="edge12" class="edge">
<title>Node10&#45;&gt;Node12</title>
<path fill="none" stroke="midnightblue" d="M653.03,-50.38C666.41,-40.62 683.56,-28.11 694.89,-19.83"/>
<polygon fill="midnightblue" stroke="midnightblue" points="650.9,-47.6 644.89,-56.32 655.03,-53.26 650.9,-47.6"/>
</g>
<!-- Node14&#45;&gt;Node13 -->
<g id="edge15" class="edge">
<title>Node14&#45;&gt;Node13</title>
<path fill="none" stroke="midnightblue" d="M794.6,-46.1C793.94,-37.14 793.17,-26.86 792.65,-19.75"/>
<polygon fill="midnightblue" stroke="midnightblue" points="791.11,-46.37 795.34,-56.08 798.09,-45.85 791.11,-46.37"/>
</g>
</g>
</svg>
        <g id="navigator" transform="translate(0 0)" fill="#404254">
                <rect fill="#f2f5e9" fill-opacity="0.5" stroke="#606060" stroke-width=".5" x="0" y="0" width="60" height="60"/>
                <use id="zoomplus" xlink:href="#zoomPlus" x="17" y="9" onmousedown="handleZoom(evt,'in')"/>
                <use id="zoomminus" xlink:href="#zoomMin" x="42" y="9" onmousedown="handleZoom(evt,'out')"/>
                <use id="reset" xlink:href="#resetDef" x="30" y="36" onmousedown="handleReset()"/>
                <g id="arrowUp" xlink:href="#dirArrow" transform="translate(30 24)" onmousedown="handlePan(0,-1)">
                  <use xlink:href="#rim" fill="#404040">
                        <set attributeName="fill" to="#808080" begin="arrowUp.mouseover" end="arrowUp.mouseout"/>
                  </use>
                  <path fill="none" stroke="white" stroke-width="1.5" d="M0,-3.0v7 M-2.5,-0.5L0,-3.0L2.5,-0.5"/>
                </g>
                <g id="arrowRight" xlink:href="#dirArrow" transform="rotate(90) translate(36 -43)" onmousedown="handlePan(1,0)">
                  <use xlink:href="#rim" fill="#404040">
                        <set attributeName="fill" to="#808080" begin="arrowRight.mouseover" end="arrowRight.mouseout"/>
                  </use>
                  <path fill="none" stroke="white" stroke-width="1.5" d="M0,-3.0v7 M-2.5,-0.5L0,-3.0L2.5,-0.5"/>
                </g>
                <g id="arrowDown" xlink:href="#dirArrow" transform="rotate(180) translate(-30 -48)" onmousedown="handlePan(0,1)">
                  <use xlink:href="#rim" fill="#404040">
                        <set attributeName="fill" to="#808080" begin="arrowDown.mouseover" end="arrowDown.mouseout"/>
                  </use>
                  <path fill="none" stroke="white" stroke-width="1.5" d="M0,-3.0v7 M-2.5,-0.5L0,-3.0L2.5,-0.5"/>
                </g>
                <g id="arrowLeft" xlink:href="#dirArrow" transform="rotate(270) translate(-36 17)" onmousedown="handlePan(-1,0)">
                  <use xlink:href="#rim" fill="#404040">
                        <set attributeName="fill" to="#808080" begin="arrowLeft.mouseover" end="arrowLeft.mouseout"/>
                  </use>
                  <path fill="none" stroke="white" stroke-width="1.5" d="M0,-3.0v7 M-2.5,-0.5L0,-3.0L2.5,-0.5"/>
                </g>
        </g>
        <svg viewBox="0 0 15 15" width="100%" height="30px" preserveAspectRatio="xMaxYMin meet">
         <g id="arrow_out" transform="scale(0.3 0.3)">
          <a xlink:href="IdealGasPhase_8h__dep__incl_org.svg" target="_base">
           <rect id="button" ry="5" rx="5" y="6" x="6" height="38" width="38"
                fill="#f2f5e9" fill-opacity="0.5" stroke="#606060" stroke-width="1.0"/>
           <path id="arrow"
             d="M 11.500037,31.436501 C 11.940474,20.09759 22.043105,11.32322 32.158766,21.979434 L 37.068811,17.246167 C 37.068811,17.246167 37.088388,32 37.088388,32 L 22.160133,31.978069 C 22.160133,31.978069 26.997745,27.140456 26.997745,27.140456 C 18.528582,18.264221 13.291696,25.230495 11.500037,31.436501 z"
             style="fill:#404040;"/>
          </a>
         </g>
        </svg>
</svg>
