<?xml version="1.0" encoding="UTF-8" standalone="no"?>
<!DOCTYPE svg PUBLIC "-//W3C//DTD SVG 1.1//EN"
 "http://www.w3.org/Graphics/SVG/1.1/DTD/svg11.dtd">
<!-- Generated by graphviz version 2.50.0 (0)
 -->
<!-- Title: Unit Pages: 1 -->
<svg width="80pt" height="95pt"
 viewBox="0.00 0.00 80.00 95.00" xmlns="http://www.w3.org/2000/svg" xmlns:xlink="http://www.w3.org/1999/xlink">
<g id="graph0" class="graph" transform="scale(1 1) rotate(0) translate(4 91)">
<title>Unit</title>
<polygon fill="white" stroke="transparent" points="-4,4 -4,-91 76,-91 76,4 -4,4"/>
<!-- Node1 -->
<g id="node1" class="node">
<title>Node1</title>
<g id="a_node1"><a xlink:title="Unit conversion utility.">
<polygon fill="#bfbfbf" stroke="black" points="0,-0.5 0,-19.5 35,-19.5 35,-0.5 0,-0.5"/>
<text text-anchor="middle" x="17.5" y="-7.5" font-family="Helvetica,sans-Serif" font-size="10.00">Unit</text>
</a>
</g>
</g>
<!-- Node2 -->
<g id="node2" class="node">
<title>Node2</title>
<g id="a_node2"><a xlink:href="../../dc/d5b/classCantera_1_1Unit.html" target="_top" xlink:title="Unit conversion utility.">
<polygon fill="white" stroke="black" points="0,-67.5 0,-86.5 35,-86.5 35,-67.5 0,-67.5"/>
<text text-anchor="middle" x="17.5" y="-74.5" font-family="Helvetica,sans-Serif" font-size="10.00">Unit</text>
</a>
</g>
</g>
<!-- Node2&#45;&gt;Node1 -->
<g id="edge1" class="edge">
<title>Node2&#45;&gt;Node1</title>
<path fill="none" stroke="#9a32cd" stroke-dasharray="5,2" d="M17.5,-57.04C17.5,-44.67 17.5,-29.12 17.5,-19.63"/>
<polygon fill="#9a32cd" stroke="#9a32cd" points="14,-57.23 17.5,-67.23 21,-57.23 14,-57.23"/>
<text text-anchor="middle" x="27" y="-41" font-family="Helvetica,sans-Serif" font-size="10.00"> s_u</text>
</g>
<!-- Node2&#45;&gt;Node2 -->
<g id="edge2" class="edge">
<title>Node2&#45;&gt;Node2</title>
<path fill="none" stroke="#9a32cd" stroke-dasharray="5,2" d="M45.21,-82.57C49.82,-81.79 53,-79.93 53,-77 53,-72.19 44.44,-70.27 35.03,-71.25"/>
<polygon fill="#9a32cd" stroke="#9a32cd" points="44.97,-79.08 35.03,-82.75 45.1,-86.08 44.97,-79.08"/>
<text text-anchor="middle" x="62.5" y="-74.5" font-family="Helvetica,sans-Serif" font-size="10.00"> s_u</text>
</g>
</g>
</svg>
