<?xml version="1.0" encoding="UTF-8" standalone="no"?>
<!DOCTYPE svg PUBLIC "-//W3C//DTD SVG 1.1//EN"
 "http://www.w3.org/Graphics/SVG/1.1/DTD/svg11.dtd">
<!-- Generated by graphviz version 2.43.0 (0)
 -->
<!-- Title: global.cpp Pages: 1 -->
<!--zoomable 319 -->
<svg id="main" version="1.1" xmlns="http://www.w3.org/2000/svg" xmlns:xlink="http://www.w3.org/1999/xlink" xml:space="preserve" onload="init(evt)">
<style type="text/css"><![CDATA[
.edge:hover path { stroke: red; }
.edge:hover polygon { stroke: red; fill: red; }
]]></style>
<script type="text/javascript"><![CDATA[
var edges = document.getElementsByTagName('g');
if (edges && edges.length) {
  for (var i=0;i<edges.length;i++) {
    if (edges[i].id.substr(0,4)=='edge') {
      edges[i].setAttribute('class','edge');
    }
  }
}
]]></script>
        <defs>
                <circle id="rim" cx="0" cy="0" r="7"/>
                <circle id="rim2" cx="0" cy="0" r="3.5"/>
                <g id="zoomPlus">
                        <use xlink:href="#rim" fill="#404040">
                                <set attributeName="fill" to="#808080" begin="zoomplus.mouseover" end="zoomplus.mouseout"/>
                        </use>
                        <path d="M-4,0h8M0,-4v8" fill="none" stroke="white" stroke-width="1.5" pointer-events="none"/>
                </g>
                <g id="zoomMin">
                        <use xlink:href="#rim" fill="#404040">
                                <set attributeName="fill" to="#808080" begin="zoomminus.mouseover" end="zoomminus.mouseout"/>
                        </use>
                        <path d="M-4,0h8" fill="none" stroke="white" stroke-width="1.5" pointer-events="none"/>
                </g>
                <g id="dirArrow">
                        <path fill="none" stroke="white" stroke-width="1.5" d="M0,-3.0v7 M-2.5,-0.5L0,-3.0L2.5,-0.5"/>
                </g>
               <g id="resetDef">
                       <use xlink:href="#rim2" fill="#404040">
                               <set attributeName="fill" to="#808080" begin="reset.mouseover" end="reset.mouseout"/>
                       </use>
               </g>
        </defs>

<script type="text/javascript">
var viewWidth = 1244;
var viewHeight = 319;
var sectionId = 'dynsection-0';
</script>
<script xlink:href="../../svgpan.js"/>
<svg id="graph" class="graph">
<g id="viewport">
<title>global.cpp</title>
<polygon fill="white" stroke="transparent" points="-4,4 -4,-315 1240.19,-315 1240.19,4 -4,4"/>
<!-- Node1 -->
<g id="node1" class="node">
<title>Node1</title>
<g id="a_node1"><a xlink:title=" ">
<polygon fill="#bfbfbf" stroke="black" points="839.19,-291.5 839.19,-310.5 906.19,-310.5 906.19,-291.5 839.19,-291.5"/>
<text text-anchor="middle" x="872.69" y="-298.5" font-family="Helvetica,sans-Serif" font-size="10.00">global.cpp</text>
</a>
</g>
</g>
<!-- Node2 -->
<g id="node2" class="node">
<title>Node2</title>
<g id="a_node2"><a xlink:href="../../d6/dd5/FactoryBase_8h.html" target="_top" xlink:title="File contains the FactoryBase class declarations.">
<polygon fill="white" stroke="black" points="490.19,-235.5 490.19,-254.5 641.19,-254.5 641.19,-235.5 490.19,-235.5"/>
<text text-anchor="middle" x="565.69" y="-242.5" font-family="Helvetica,sans-Serif" font-size="10.00">cantera/base/FactoryBase.h</text>
</a>
</g>
</g>
<!-- Node1&#45;&gt;Node2 -->
<g id="edge1" class="edge">
<title>Node1&#45;&gt;Node2</title>
<path fill="none" stroke="midnightblue" d="M838.96,-294.07C787.21,-284.96 687.56,-267.44 623.96,-256.25"/>
<polygon fill="midnightblue" stroke="midnightblue" points="624.53,-252.8 614.08,-254.51 623.32,-259.69 624.53,-252.8"/>
</g>
<!-- Node23 -->
<g id="node23" class="node">
<title>Node23</title>
<g id="a_node23"><a xlink:href="../../db/d32/application_8h.html" target="_top" xlink:title=" ">
<polygon fill="white" stroke="black" points="182.69,-179.5 182.69,-198.5 262.69,-198.5 262.69,-179.5 182.69,-179.5"/>
<text text-anchor="middle" x="222.69" y="-186.5" font-family="Helvetica,sans-Serif" font-size="10.00">application.h</text>
</a>
</g>
</g>
<!-- Node1&#45;&gt;Node23 -->
<g id="edge25" class="edge">
<title>Node1&#45;&gt;Node23</title>
<path fill="none" stroke="midnightblue" d="M839.17,-297.66C771.16,-292.58 612.27,-279.02 480.69,-255 401.83,-240.61 311.32,-215.86 261.2,-201.41"/>
<polygon fill="midnightblue" stroke="midnightblue" points="262.01,-198 251.43,-198.57 260.06,-204.72 262.01,-198"/>
</g>
<!-- Node28 -->
<g id="node28" class="node">
<title>Node28</title>
<g id="a_node28"><a xlink:href="../../dd/d2a/AnyMap_8h.html" target="_top" xlink:title=" ">
<polygon fill="white" stroke="black" points="736.19,-235.5 736.19,-254.5 867.19,-254.5 867.19,-235.5 736.19,-235.5"/>
<text text-anchor="middle" x="801.69" y="-242.5" font-family="Helvetica,sans-Serif" font-size="10.00">cantera/base/AnyMap.h</text>
</a>
</g>
</g>
<!-- Node1&#45;&gt;Node28 -->
<g id="edge32" class="edge">
<title>Node1&#45;&gt;Node28</title>
<path fill="none" stroke="midnightblue" d="M861.28,-291.32C850.58,-283.18 834.35,-270.84 821.53,-261.09"/>
<polygon fill="midnightblue" stroke="midnightblue" points="823.38,-258.1 813.3,-254.83 819.14,-263.67 823.38,-258.1"/>
</g>
<!-- Node33 -->
<g id="node33" class="node">
<title>Node33</title>
<g id="a_node33"><a xlink:title=" ">
<polygon fill="white" stroke="#bfbfbf" points="885.19,-235.5 885.19,-254.5 1004.19,-254.5 1004.19,-235.5 885.19,-235.5"/>
<text text-anchor="middle" x="944.69" y="-242.5" font-family="Helvetica,sans-Serif" font-size="10.00">boost/stacktrace.hpp</text>
</a>
</g>
</g>
<!-- Node1&#45;&gt;Node33 -->
<g id="edge42" class="edge">
<title>Node1&#45;&gt;Node33</title>
<path fill="none" stroke="midnightblue" d="M884.26,-291.32C895.11,-283.18 911.57,-270.84 924.57,-261.09"/>
<polygon fill="midnightblue" stroke="midnightblue" points="927.01,-263.63 932.91,-254.83 922.81,-258.03 927.01,-263.63"/>
</g>
<!-- Node34 -->
<g id="node34" class="node">
<title>Node34</title>
<g id="a_node34"><a xlink:title=" ">
<polygon fill="white" stroke="#bfbfbf" points="1022.69,-235.5 1022.69,-254.5 1162.69,-254.5 1162.69,-235.5 1022.69,-235.5"/>
<text text-anchor="middle" x="1092.69" y="-242.5" font-family="Helvetica,sans-Serif" font-size="10.00">boost/core/demangle.hpp</text>
</a>
</g>
</g>
<!-- Node1&#45;&gt;Node34 -->
<g id="edge43" class="edge">
<title>Node1&#45;&gt;Node34</title>
<path fill="none" stroke="midnightblue" d="M906.58,-291.68C944.55,-282.36 1006.25,-267.22 1048.11,-256.94"/>
<polygon fill="midnightblue" stroke="midnightblue" points="1049.15,-260.29 1058.03,-254.51 1047.48,-253.49 1049.15,-260.29"/>
</g>
<!-- Node35 -->
<g id="node35" class="node">
<title>Node35</title>
<g id="a_node35"><a xlink:title=" ">
<polygon fill="white" stroke="#bfbfbf" points="1181.19,-235.5 1181.19,-254.5 1236.19,-254.5 1236.19,-235.5 1181.19,-235.5"/>
<text text-anchor="middle" x="1208.69" y="-242.5" font-family="Helvetica,sans-Serif" font-size="10.00">signal.h</text>
</a>
</g>
</g>
<!-- Node1&#45;&gt;Node35 -->
<g id="edge44" class="edge">
<title>Node1&#45;&gt;Node35</title>
<path fill="none" stroke="midnightblue" d="M906.49,-295.91C960.33,-289.18 1069.07,-274.71 1171.02,-254.98"/>
<polygon fill="midnightblue" stroke="midnightblue" points="1171.73,-258.4 1180.87,-253.05 1170.38,-251.54 1171.73,-258.4"/>
</g>
<!-- Node3 -->
<g id="node3" class="node">
<title>Node3</title>
<g id="a_node3"><a xlink:title=" ">
<polygon fill="white" stroke="#bfbfbf" points="282.69,-179.5 282.69,-198.5 330.69,-198.5 330.69,-179.5 282.69,-179.5"/>
<text text-anchor="middle" x="306.69" y="-186.5" font-family="Helvetica,sans-Serif" font-size="10.00">mutex</text>
</a>
</g>
</g>
<!-- Node2&#45;&gt;Node3 -->
<g id="edge2" class="edge">
<title>Node2&#45;&gt;Node3</title>
<path fill="none" stroke="midnightblue" d="M517.86,-235.48C474.13,-227.46 407.44,-214.67 340.64,-199.1"/>
<polygon fill="midnightblue" stroke="midnightblue" points="341.33,-195.66 330.79,-196.78 339.72,-202.48 341.33,-195.66"/>
</g>
<!-- Node4 -->
<g id="node4" class="node">
<title>Node4</title>
<g id="a_node4"><a xlink:title=" ">
<polygon fill="white" stroke="#bfbfbf" points="661.19,-179.5 661.19,-198.5 754.19,-198.5 754.19,-179.5 661.19,-179.5"/>
<text text-anchor="middle" x="707.69" y="-186.5" font-family="Helvetica,sans-Serif" font-size="10.00">unordered_map</text>
</a>
</g>
</g>
<!-- Node2&#45;&gt;Node4 -->
<g id="edge3" class="edge">
<title>Node2&#45;&gt;Node4</title>
<path fill="none" stroke="midnightblue" d="M588.19,-235.44C611.77,-226.48 649.01,-212.31 675.65,-202.18"/>
<polygon fill="midnightblue" stroke="midnightblue" points="677.19,-205.34 685.29,-198.52 674.7,-198.8 677.19,-205.34"/>
</g>
<!-- Node5 -->
<g id="node5" class="node">
<title>Node5</title>
<g id="a_node5"><a xlink:href="../../db/d98/ctexceptions_8h.html" target="_top" xlink:title="Definitions for the classes that are thrown when Cantera experiences an error condition (also contain...">
<polygon fill="white" stroke="black" points="488.69,-179.5 488.69,-198.5 642.69,-198.5 642.69,-179.5 488.69,-179.5"/>
<text text-anchor="middle" x="565.69" y="-186.5" font-family="Helvetica,sans-Serif" font-size="10.00">cantera/base/ctexceptions.h</text>
</a>
</g>
</g>
<!-- Node2&#45;&gt;Node5 -->
<g id="edge4" class="edge">
<title>Node2&#45;&gt;Node5</title>
<path fill="none" stroke="midnightblue" d="M565.69,-235.08C565.69,-228.01 565.69,-217.86 565.69,-208.99"/>
<polygon fill="midnightblue" stroke="midnightblue" points="569.19,-208.75 565.69,-198.75 562.19,-208.75 569.19,-208.75"/>
</g>
<!-- Node22 -->
<g id="node22" class="node">
<title>Node22</title>
<g id="a_node22"><a xlink:href="../../d2/d49/global_8h.html" target="_top" xlink:title="This file contains definitions for utility functions and text for modules, inputfiles and logging,...">
<polygon fill="white" stroke="black" points="348.69,-179.5 348.69,-198.5 470.69,-198.5 470.69,-179.5 348.69,-179.5"/>
<text text-anchor="middle" x="409.69" y="-186.5" font-family="Helvetica,sans-Serif" font-size="10.00">cantera/base/global.h</text>
</a>
</g>
</g>
<!-- Node2&#45;&gt;Node22 -->
<g id="edge22" class="edge">
<title>Node2&#45;&gt;Node22</title>
<path fill="none" stroke="midnightblue" d="M540.97,-235.44C514.84,-226.4 473.43,-212.06 444.11,-201.92"/>
<polygon fill="midnightblue" stroke="midnightblue" points="444.89,-198.48 434.29,-198.52 442.6,-205.1 444.89,-198.48"/>
</g>
<!-- Node6 -->
<g id="node6" class="node">
<title>Node6</title>
<g id="a_node6"><a xlink:href="../../d9/ddc/ct__defs_8h.html" target="_top" xlink:title="This file contains definitions of constants, types and terms that are used in internal routines and a...">
<polygon fill="white" stroke="black" points="597.19,-56.5 597.19,-75.5 658.19,-75.5 658.19,-56.5 597.19,-56.5"/>
<text text-anchor="middle" x="627.69" y="-63.5" font-family="Helvetica,sans-Serif" font-size="10.00">ct_defs.h</text>
</a>
</g>
</g>
<!-- Node5&#45;&gt;Node6 -->
<g id="edge5" class="edge">
<title>Node5&#45;&gt;Node6</title>
<path fill="none" stroke="midnightblue" d="M577.21,-179.28C587.3,-171.03 601.57,-157.74 609.69,-143 619.58,-125.03 624.07,-101.76 626.08,-85.73"/>
<polygon fill="midnightblue" stroke="midnightblue" points="629.59,-85.82 627.16,-75.51 622.63,-85.09 629.59,-85.82"/>
</g>
<!-- Node17 -->
<g id="node17" class="node">
<title>Node17</title>
<g id="a_node17"><a xlink:href="../../db/def/fmt_8h.html" target="_top" xlink:title="Wrapper for either system&#45;installed or local headers for fmt.">
<polygon fill="white" stroke="black" points="370.19,-118 370.19,-137 479.19,-137 479.19,-118 370.19,-118"/>
<text text-anchor="middle" x="424.69" y="-125" font-family="Helvetica,sans-Serif" font-size="10.00">cantera/base/fmt.h</text>
</a>
</g>
</g>
<!-- Node5&#45;&gt;Node17 -->
<g id="edge16" class="edge">
<title>Node5&#45;&gt;Node17</title>
<path fill="none" stroke="midnightblue" d="M545.49,-179.48C521.61,-169.4 481.69,-152.55 454.32,-141"/>
<polygon fill="midnightblue" stroke="midnightblue" points="455.43,-137.67 444.85,-137.01 452.71,-144.12 455.43,-137.67"/>
</g>
<!-- Node21 -->
<g id="node21" class="node">
<title>Node21</title>
<g id="a_node21"><a xlink:title=" ">
<polygon fill="white" stroke="#bfbfbf" points="536.19,-118 536.19,-137 601.19,-137 601.19,-118 536.19,-118"/>
<text text-anchor="middle" x="568.69" y="-125" font-family="Helvetica,sans-Serif" font-size="10.00">exception</text>
</a>
</g>
</g>
<!-- Node5&#45;&gt;Node21 -->
<g id="edge21" class="edge">
<title>Node5&#45;&gt;Node21</title>
<path fill="none" stroke="midnightblue" d="M566.12,-179.48C566.54,-171.08 567.2,-157.98 567.75,-147.16"/>
<polygon fill="midnightblue" stroke="midnightblue" points="571.25,-147.17 568.26,-137.01 564.26,-146.82 571.25,-147.17"/>
</g>
<!-- Node7 -->
<g id="node7" class="node">
<title>Node7</title>
<g id="a_node7"><a xlink:href="../../db/d16/config_8h_source.html" target="_top" xlink:title=" ">
<polygon fill="white" stroke="black" points="120.19,-0.5 120.19,-19.5 175.19,-19.5 175.19,-0.5 120.19,-0.5"/>
<text text-anchor="middle" x="147.69" y="-7.5" font-family="Helvetica,sans-Serif" font-size="10.00">config.h</text>
</a>
</g>
</g>
<!-- Node6&#45;&gt;Node7 -->
<g id="edge6" class="edge">
<title>Node6&#45;&gt;Node7</title>
<path fill="none" stroke="midnightblue" d="M597.19,-57.74C593.99,-57.1 590.78,-56.5 587.69,-56 439.85,-31.9 261.83,-18.4 185.47,-13.34"/>
<polygon fill="midnightblue" stroke="midnightblue" points="185.59,-9.84 175.38,-12.68 185.13,-16.82 185.59,-9.84"/>
</g>
<!-- Node8 -->
<g id="node8" class="node">
<title>Node8</title>
<g id="a_node8"><a xlink:title=" ">
<polygon fill="white" stroke="#bfbfbf" points="758.19,-0.5 758.19,-19.5 805.19,-19.5 805.19,-0.5 758.19,-0.5"/>
<text text-anchor="middle" x="781.69" y="-7.5" font-family="Helvetica,sans-Serif" font-size="10.00">cmath</text>
</a>
</g>
</g>
<!-- Node6&#45;&gt;Node8 -->
<g id="edge7" class="edge">
<title>Node6&#45;&gt;Node8</title>
<path fill="none" stroke="midnightblue" d="M652.09,-56.44C678.11,-47.32 719.49,-32.81 748.47,-22.65"/>
<polygon fill="midnightblue" stroke="midnightblue" points="749.88,-25.86 758.16,-19.25 747.56,-19.26 749.88,-25.86"/>
</g>
<!-- Node9 -->
<g id="node9" class="node">
<title>Node9</title>
<g id="a_node9"><a xlink:title=" ">
<polygon fill="white" stroke="#bfbfbf" points="823.19,-0.5 823.19,-19.5 872.19,-19.5 872.19,-0.5 823.19,-0.5"/>
<text text-anchor="middle" x="847.69" y="-7.5" font-family="Helvetica,sans-Serif" font-size="10.00">cstdlib</text>
</a>
</g>
</g>
<!-- Node6&#45;&gt;Node9 -->
<g id="edge8" class="edge">
<title>Node6&#45;&gt;Node9</title>
<path fill="none" stroke="midnightblue" d="M658.35,-57.79C693.38,-49.51 752.68,-35.36 813.12,-20.1"/>
<polygon fill="midnightblue" stroke="midnightblue" points="813.99,-23.5 822.82,-17.65 812.27,-16.71 813.99,-23.5"/>
</g>
<!-- Node10 -->
<g id="node10" class="node">
<title>Node10</title>
<g id="a_node10"><a xlink:title=" ">
<polygon fill="white" stroke="#bfbfbf" points="890.19,-0.5 890.19,-19.5 937.19,-19.5 937.19,-0.5 890.19,-0.5"/>
<text text-anchor="middle" x="913.69" y="-7.5" font-family="Helvetica,sans-Serif" font-size="10.00">vector</text>
</a>
</g>
</g>
<!-- Node6&#45;&gt;Node10 -->
<g id="edge9" class="edge">
<title>Node6&#45;&gt;Node10</title>
<path fill="none" stroke="midnightblue" d="M658.38,-60.57C704.55,-53.68 794.78,-39.38 880.14,-20.19"/>
<polygon fill="midnightblue" stroke="midnightblue" points="881.02,-23.58 889.99,-17.95 879.46,-16.75 881.02,-23.58"/>
</g>
<!-- Node11 -->
<g id="node11" class="node">
<title>Node11</title>
<g id="a_node11"><a xlink:title=" ">
<polygon fill="white" stroke="#bfbfbf" points="348.69,-0.5 348.69,-19.5 386.69,-19.5 386.69,-0.5 348.69,-0.5"/>
<text text-anchor="middle" x="367.69" y="-7.5" font-family="Helvetica,sans-Serif" font-size="10.00">map</text>
</a>
</g>
</g>
<!-- Node6&#45;&gt;Node11 -->
<g id="edge10" class="edge">
<title>Node6&#45;&gt;Node11</title>
<path fill="none" stroke="midnightblue" d="M597.14,-58.01C593.95,-57.31 590.76,-56.63 587.69,-56 505.73,-39.1 481.58,-41.15 396.69,-20"/>
<polygon fill="midnightblue" stroke="midnightblue" points="397.43,-16.57 386.88,-17.52 395.71,-23.36 397.43,-16.57"/>
</g>
<!-- Node12 -->
<g id="node12" class="node">
<title>Node12</title>
<g id="a_node12"><a xlink:title=" ">
<polygon fill="white" stroke="#bfbfbf" points="404.69,-0.5 404.69,-19.5 436.69,-19.5 436.69,-0.5 404.69,-0.5"/>
<text text-anchor="middle" x="420.69" y="-7.5" font-family="Helvetica,sans-Serif" font-size="10.00">set</text>
</a>
</g>
</g>
<!-- Node6&#45;&gt;Node12 -->
<g id="edge11" class="edge">
<title>Node6&#45;&gt;Node12</title>
<path fill="none" stroke="midnightblue" d="M596.87,-57.79C556.28,-48.22 486.22,-31.48 446.41,-19.94"/>
<polygon fill="midnightblue" stroke="midnightblue" points="447.33,-16.56 436.74,-17.06 445.33,-23.27 447.33,-16.56"/>
</g>
<!-- Node13 -->
<g id="node13" class="node">
<title>Node13</title>
<g id="a_node13"><a xlink:title=" ">
<polygon fill="white" stroke="#bfbfbf" points="454.69,-0.5 454.69,-19.5 498.69,-19.5 498.69,-0.5 454.69,-0.5"/>
<text text-anchor="middle" x="476.69" y="-7.5" font-family="Helvetica,sans-Serif" font-size="10.00">string</text>
</a>
</g>
</g>
<!-- Node6&#45;&gt;Node13 -->
<g id="edge12" class="edge">
<title>Node6&#45;&gt;Node13</title>
<path fill="none" stroke="midnightblue" d="M603.76,-56.44C578.02,-47.24 536.97,-32.56 508.52,-22.38"/>
<polygon fill="midnightblue" stroke="midnightblue" points="509.62,-19.06 499.03,-18.99 507.26,-25.65 509.62,-19.06"/>
</g>
<!-- Node14 -->
<g id="node14" class="node">
<title>Node14</title>
<g id="a_node14"><a xlink:title=" ">
<polygon fill="white" stroke="#bfbfbf" points="516.69,-0.5 516.69,-19.5 580.69,-19.5 580.69,-0.5 516.69,-0.5"/>
<text text-anchor="middle" x="548.69" y="-7.5" font-family="Helvetica,sans-Serif" font-size="10.00">algorithm</text>
</a>
</g>
</g>
<!-- Node6&#45;&gt;Node14 -->
<g id="edge13" class="edge">
<title>Node6&#45;&gt;Node14</title>
<path fill="none" stroke="midnightblue" d="M615,-56.32C602.79,-47.98 584.11,-35.21 569.69,-25.35"/>
<polygon fill="midnightblue" stroke="midnightblue" points="571.58,-22.41 561.35,-19.65 567.63,-28.19 571.58,-22.41"/>
</g>
<!-- Node15 -->
<g id="node15" class="node">
<title>Node15</title>
<g id="a_node15"><a xlink:title=" ">
<polygon fill="white" stroke="#bfbfbf" points="598.69,-0.5 598.69,-19.5 656.69,-19.5 656.69,-0.5 598.69,-0.5"/>
<text text-anchor="middle" x="627.69" y="-7.5" font-family="Helvetica,sans-Serif" font-size="10.00">memory</text>
</a>
</g>
</g>
<!-- Node6&#45;&gt;Node15 -->
<g id="edge14" class="edge">
<title>Node6&#45;&gt;Node15</title>
<path fill="none" stroke="midnightblue" d="M627.69,-56.08C627.69,-49.01 627.69,-38.86 627.69,-29.99"/>
<polygon fill="midnightblue" stroke="midnightblue" points="631.19,-29.75 627.69,-19.75 624.19,-29.75 631.19,-29.75"/>
</g>
<!-- Node16 -->
<g id="node16" class="node">
<title>Node16</title>
<g id="a_node16"><a xlink:title=" ">
<polygon fill="white" stroke="#bfbfbf" points="675.19,-0.5 675.19,-19.5 740.19,-19.5 740.19,-0.5 675.19,-0.5"/>
<text text-anchor="middle" x="707.69" y="-7.5" font-family="Helvetica,sans-Serif" font-size="10.00">functional</text>
</a>
</g>
</g>
<!-- Node6&#45;&gt;Node16 -->
<g id="edge15" class="edge">
<title>Node6&#45;&gt;Node16</title>
<path fill="none" stroke="midnightblue" d="M640.54,-56.32C652.9,-47.98 671.82,-35.21 686.43,-25.35"/>
<polygon fill="midnightblue" stroke="midnightblue" points="688.54,-28.15 694.87,-19.65 684.62,-22.35 688.54,-28.15"/>
</g>
<!-- Node17&#45;&gt;Node6 -->
<g id="edge17" class="edge">
<title>Node17&#45;&gt;Node6</title>
<path fill="none" stroke="midnightblue" d="M453.77,-117.98C489.27,-107.57 549.43,-89.94 588.86,-78.38"/>
<polygon fill="midnightblue" stroke="midnightblue" points="590.05,-81.68 598.66,-75.51 588.08,-74.96 590.05,-81.68"/>
</g>
<!-- Node18 -->
<g id="node18" class="node">
<title>Node18</title>
<g id="a_node18"><a xlink:title=" ">
<polygon fill="white" stroke="#bfbfbf" points="293.19,-56.5 293.19,-75.5 430.19,-75.5 430.19,-56.5 293.19,-56.5"/>
<text text-anchor="middle" x="361.69" y="-63.5" font-family="Helvetica,sans-Serif" font-size="10.00">cantera/ext/fmt/format.h</text>
</a>
</g>
</g>
<!-- Node17&#45;&gt;Node18 -->
<g id="edge18" class="edge">
<title>Node17&#45;&gt;Node18</title>
<path fill="none" stroke="midnightblue" d="M415.66,-117.98C405.93,-108.78 390.23,-93.96 378.27,-82.66"/>
<polygon fill="midnightblue" stroke="midnightblue" points="380.37,-79.83 370.7,-75.51 375.56,-84.92 380.37,-79.83"/>
</g>
<!-- Node19 -->
<g id="node19" class="node">
<title>Node19</title>
<g id="a_node19"><a xlink:title=" ">
<polygon fill="white" stroke="#bfbfbf" points="448.69,-56.5 448.69,-75.5 578.69,-75.5 578.69,-56.5 448.69,-56.5"/>
<text text-anchor="middle" x="513.69" y="-63.5" font-family="Helvetica,sans-Serif" font-size="10.00">cantera/ext/fmt/printf.h</text>
</a>
</g>
</g>
<!-- Node17&#45;&gt;Node19 -->
<g id="edge19" class="edge">
<title>Node17&#45;&gt;Node19</title>
<path fill="none" stroke="midnightblue" d="M437.44,-117.98C451.72,-108.43 475.09,-92.81 492.2,-81.37"/>
<polygon fill="midnightblue" stroke="midnightblue" points="494.59,-83.98 500.96,-75.51 490.7,-78.16 494.59,-83.98"/>
</g>
<!-- Node20 -->
<g id="node20" class="node">
<title>Node20</title>
<g id="a_node20"><a xlink:title=" ">
<polygon fill="white" stroke="#bfbfbf" points="130.19,-56.5 130.19,-75.5 275.19,-75.5 275.19,-56.5 130.19,-56.5"/>
<text text-anchor="middle" x="202.69" y="-63.5" font-family="Helvetica,sans-Serif" font-size="10.00">cantera/ext/fmt/ostream.h</text>
</a>
</g>
</g>
<!-- Node17&#45;&gt;Node20 -->
<g id="edge20" class="edge">
<title>Node17&#45;&gt;Node20</title>
<path fill="none" stroke="midnightblue" d="M392.88,-117.98C353.81,-107.5 287.43,-89.71 244.33,-78.16"/>
<polygon fill="midnightblue" stroke="midnightblue" points="245,-74.72 234.44,-75.51 243.19,-81.48 245,-74.72"/>
</g>
<!-- Node22&#45;&gt;Node6 -->
<g id="edge23" class="edge">
<title>Node22&#45;&gt;Node6</title>
<path fill="none" stroke="midnightblue" d="M426.25,-179.37C442.34,-170.78 467.27,-156.9 487.69,-143 505.99,-130.54 507.76,-123.49 526.69,-112 548.27,-98.91 574.32,-87.39 594.56,-79.29"/>
<polygon fill="midnightblue" stroke="midnightblue" points="595.96,-82.5 603.99,-75.59 593.4,-75.99 595.96,-82.5"/>
</g>
<!-- Node22&#45;&gt;Node17 -->
<g id="edge24" class="edge">
<title>Node22&#45;&gt;Node17</title>
<path fill="none" stroke="midnightblue" d="M411.84,-179.48C413.98,-170.99 417.33,-157.7 420.07,-146.82"/>
<polygon fill="midnightblue" stroke="midnightblue" points="423.49,-147.56 422.54,-137.01 416.7,-145.85 423.49,-147.56"/>
</g>
<!-- Node23&#45;&gt;Node7 -->
<g id="edge26" class="edge">
<title>Node23&#45;&gt;Node7</title>
<path fill="none" stroke="midnightblue" d="M182.44,-185.34C127.09,-180.74 31.88,-169.17 10.69,-143 -15.15,-111.1 11.19,-83.48 41.69,-56 61.14,-38.48 88.42,-27.11 110.44,-20.18"/>
<polygon fill="midnightblue" stroke="midnightblue" points="111.55,-23.5 120.14,-17.3 109.56,-16.79 111.55,-23.5"/>
</g>
<!-- Node24 -->
<g id="node24" class="node">
<title>Node24</title>
<g id="a_node24"><a xlink:href="../../d1/d8c/logger_8h.html" target="_top" xlink:title="Header for Base class for &#39;loggers&#39; that write text messages to log files (see Logging and class Logg...">
<polygon fill="white" stroke="black" points="19.69,-118 19.69,-137 141.69,-137 141.69,-118 19.69,-118"/>
<text text-anchor="middle" x="80.69" y="-125" font-family="Helvetica,sans-Serif" font-size="10.00">cantera/base/logger.h</text>
</a>
</g>
</g>
<!-- Node23&#45;&gt;Node24 -->
<g id="edge27" class="edge">
<title>Node23&#45;&gt;Node24</title>
<path fill="none" stroke="midnightblue" d="M202.34,-179.48C178.3,-169.4 138.09,-152.55 110.53,-141"/>
<polygon fill="midnightblue" stroke="midnightblue" points="111.57,-137.65 101,-137.01 108.87,-144.1 111.57,-137.65"/>
</g>
<!-- Node26 -->
<g id="node26" class="node">
<title>Node26</title>
<g id="a_node26"><a xlink:title=" ">
<polygon fill="white" stroke="#bfbfbf" points="160.19,-112.5 160.19,-142.5 285.19,-142.5 285.19,-112.5 160.19,-112.5"/>
<text text-anchor="start" x="168.19" y="-130.5" font-family="Helvetica,sans-Serif" font-size="10.00">boost/algorithm/string</text>
<text text-anchor="middle" x="222.69" y="-119.5" font-family="Helvetica,sans-Serif" font-size="10.00">/join.hpp</text>
</a>
</g>
</g>
<!-- Node23&#45;&gt;Node26 -->
<g id="edge30" class="edge">
<title>Node23&#45;&gt;Node26</title>
<path fill="none" stroke="midnightblue" d="M222.69,-179.48C222.69,-172.47 222.69,-162.19 222.69,-152.7"/>
<polygon fill="midnightblue" stroke="midnightblue" points="226.19,-152.52 222.69,-142.52 219.19,-152.52 226.19,-152.52"/>
</g>
<!-- Node27 -->
<g id="node27" class="node">
<title>Node27</title>
<g id="a_node27"><a xlink:title=" ">
<polygon fill="white" stroke="#bfbfbf" points="303.69,-118 303.69,-137 351.69,-137 351.69,-118 303.69,-118"/>
<text text-anchor="middle" x="327.69" y="-125" font-family="Helvetica,sans-Serif" font-size="10.00">thread</text>
</a>
</g>
</g>
<!-- Node23&#45;&gt;Node27 -->
<g id="edge31" class="edge">
<title>Node23&#45;&gt;Node27</title>
<path fill="none" stroke="midnightblue" d="M237.73,-179.48C254.96,-169.71 283.43,-153.58 303.72,-142.08"/>
<polygon fill="midnightblue" stroke="midnightblue" points="305.7,-144.98 312.67,-137.01 302.25,-138.89 305.7,-144.98"/>
</g>
<!-- Node24&#45;&gt;Node6 -->
<g id="edge28" class="edge">
<title>Node24&#45;&gt;Node6</title>
<path fill="none" stroke="midnightblue" d="M117.59,-117.98C128.23,-115.76 139.88,-113.56 150.69,-112 340.37,-84.65 393.3,-104.77 586.84,-75.91"/>
<polygon fill="midnightblue" stroke="midnightblue" points="587.4,-79.36 596.76,-74.41 586.35,-72.44 587.4,-79.36"/>
</g>
<!-- Node25 -->
<g id="node25" class="node">
<title>Node25</title>
<g id="a_node25"><a xlink:title=" ">
<polygon fill="white" stroke="#bfbfbf" points="50.69,-56.5 50.69,-75.5 110.69,-75.5 110.69,-56.5 50.69,-56.5"/>
<text text-anchor="middle" x="80.69" y="-63.5" font-family="Helvetica,sans-Serif" font-size="10.00">iostream</text>
</a>
</g>
</g>
<!-- Node24&#45;&gt;Node25 -->
<g id="edge29" class="edge">
<title>Node24&#45;&gt;Node25</title>
<path fill="none" stroke="midnightblue" d="M80.69,-117.98C80.69,-109.58 80.69,-96.48 80.69,-85.66"/>
<polygon fill="midnightblue" stroke="midnightblue" points="84.19,-85.51 80.69,-75.51 77.19,-85.51 84.19,-85.51"/>
</g>
<!-- Node28&#45;&gt;Node4 -->
<g id="edge37" class="edge">
<title>Node28&#45;&gt;Node4</title>
<path fill="none" stroke="midnightblue" d="M786.59,-235.32C771.79,-226.82 748.99,-213.73 731.71,-203.8"/>
<polygon fill="midnightblue" stroke="midnightblue" points="733.17,-200.6 722.75,-198.65 729.68,-206.67 733.17,-200.6"/>
</g>
<!-- Node28&#45;&gt;Node5 -->
<g id="edge34" class="edge">
<title>Node28&#45;&gt;Node5</title>
<path fill="none" stroke="midnightblue" d="M764.29,-235.44C723.3,-226.06 657.43,-210.99 612.9,-200.8"/>
<polygon fill="midnightblue" stroke="midnightblue" points="613.44,-197.34 602.91,-198.52 611.88,-204.16 613.44,-197.34"/>
</g>
<!-- Node28&#45;&gt;Node6 -->
<g id="edge33" class="edge">
<title>Node28&#45;&gt;Node6</title>
<path fill="none" stroke="midnightblue" d="M797.71,-235.4C791.42,-222.36 778.29,-197.17 762.69,-179 727.97,-138.55 677.61,-101.05 649.23,-81.38"/>
<polygon fill="midnightblue" stroke="midnightblue" points="651.07,-78.39 640.84,-75.64 647.11,-84.17 651.07,-78.39"/>
</g>
<!-- Node29 -->
<g id="node29" class="node">
<title>Node29</title>
<g id="a_node29"><a xlink:href="../../da/d58/Units_8h.html" target="_top" xlink:title="Header for unit conversion utilities, which are used to translate user input from input files (See In...">
<polygon fill="white" stroke="black" points="811.19,-118 811.19,-137 928.19,-137 928.19,-118 811.19,-118"/>
<text text-anchor="middle" x="869.69" y="-125" font-family="Helvetica,sans-Serif" font-size="10.00">cantera/base/Units.h</text>
</a>
</g>
</g>
<!-- Node28&#45;&gt;Node29 -->
<g id="edge35" class="edge">
<title>Node28&#45;&gt;Node29</title>
<path fill="none" stroke="midnightblue" d="M806.83,-235.16C814.12,-222.64 827.87,-199.05 839.69,-179 846.21,-167.93 853.58,-155.52 859.38,-145.78"/>
<polygon fill="midnightblue" stroke="midnightblue" points="862.46,-147.45 864.57,-137.07 856.45,-143.87 862.46,-147.45"/>
</g>
<!-- Node30 -->
<g id="node30" class="node">
<title>Node30</title>
<g id="a_node30"><a xlink:title=" ">
<polygon fill="white" stroke="#bfbfbf" points="848.69,-179.5 848.69,-198.5 916.69,-198.5 916.69,-179.5 848.69,-179.5"/>
<text text-anchor="middle" x="882.69" y="-186.5" font-family="Helvetica,sans-Serif" font-size="10.00">filesystem</text>
</a>
</g>
</g>
<!-- Node28&#45;&gt;Node30 -->
<g id="edge38" class="edge">
<title>Node28&#45;&gt;Node30</title>
<path fill="none" stroke="midnightblue" d="M814.7,-235.32C827.22,-226.98 846.37,-214.21 861.16,-204.35"/>
<polygon fill="midnightblue" stroke="midnightblue" points="863.33,-207.11 869.71,-198.65 859.44,-201.29 863.33,-207.11"/>
</g>
<!-- Node31 -->
<g id="node31" class="node">
<title>Node31</title>
<g id="a_node31"><a xlink:title=" ">
<polygon fill="white" stroke="#bfbfbf" points="935.19,-179.5 935.19,-198.5 970.19,-198.5 970.19,-179.5 935.19,-179.5"/>
<text text-anchor="middle" x="952.69" y="-186.5" font-family="Helvetica,sans-Serif" font-size="10.00">any</text>
</a>
</g>
</g>
<!-- Node28&#45;&gt;Node31 -->
<g id="edge39" class="edge">
<title>Node28&#45;&gt;Node31</title>
<path fill="none" stroke="midnightblue" d="M825.61,-235.44C852.72,-225.75 896.82,-209.98 925.29,-199.8"/>
<polygon fill="midnightblue" stroke="midnightblue" points="926.77,-202.99 935.01,-196.32 924.41,-196.39 926.77,-202.99"/>
</g>
<!-- Node32 -->
<g id="node32" class="node">
<title>Node32</title>
<g id="a_node32"><a xlink:href="../../da/d4c/AnyMap_8inl_8h.html" target="_top" xlink:title=" ">
<polygon fill="white" stroke="black" points="988.69,-179.5 988.69,-198.5 1134.69,-198.5 1134.69,-179.5 988.69,-179.5"/>
<text text-anchor="middle" x="1061.69" y="-186.5" font-family="Helvetica,sans-Serif" font-size="10.00">cantera/base/AnyMap.inl.h</text>
</a>
</g>
</g>
<!-- Node28&#45;&gt;Node32 -->
<g id="edge40" class="edge">
<title>Node28&#45;&gt;Node32</title>
<path fill="none" stroke="midnightblue" d="M837.8,-235.44C881.36,-225.96 954.85,-210.67 1005.74,-200.48"/>
<polygon fill="midnightblue" stroke="midnightblue" points="1006.48,-203.9 1015.6,-198.52 1005.11,-197.04 1006.48,-203.9"/>
</g>
<!-- Node29&#45;&gt;Node6 -->
<g id="edge36" class="edge">
<title>Node29&#45;&gt;Node6</title>
<path fill="none" stroke="midnightblue" d="M835.02,-117.98C790.94,-107.14 714.97,-88.46 668.25,-76.97"/>
<polygon fill="midnightblue" stroke="midnightblue" points="669.01,-73.56 658.46,-74.57 667.34,-80.35 669.01,-73.56"/>
</g>
<!-- Node32&#45;&gt;Node28 -->
<g id="edge41" class="edge">
<title>Node32&#45;&gt;Node28</title>
<path fill="none" stroke="midnightblue" d="M1025.76,-198.52C982.29,-207.98 908.81,-223.27 857.85,-233.47"/>
<polygon fill="midnightblue" stroke="midnightblue" points="857.1,-230.05 847.97,-235.44 858.47,-236.92 857.1,-230.05"/>
</g>
</g>
</svg>
        <g id="navigator" transform="translate(0 0)" fill="#404254">
                <rect fill="#f2f5e9" fill-opacity="0.5" stroke="#606060" stroke-width=".5" x="0" y="0" width="60" height="60"/>
                <use id="zoomplus" xlink:href="#zoomPlus" x="17" y="9" onmousedown="handleZoom(evt,'in')"/>
                <use id="zoomminus" xlink:href="#zoomMin" x="42" y="9" onmousedown="handleZoom(evt,'out')"/>
                <use id="reset" xlink:href="#resetDef" x="30" y="36" onmousedown="handleReset()"/>
                <g id="arrowUp" xlink:href="#dirArrow" transform="translate(30 24)" onmousedown="handlePan(0,-1)">
                  <use xlink:href="#rim" fill="#404040">
                        <set attributeName="fill" to="#808080" begin="arrowUp.mouseover" end="arrowUp.mouseout"/>
                  </use>
                  <path fill="none" stroke="white" stroke-width="1.5" d="M0,-3.0v7 M-2.5,-0.5L0,-3.0L2.5,-0.5"/>
                </g>
                <g id="arrowRight" xlink:href="#dirArrow" transform="rotate(90) translate(36 -43)" onmousedown="handlePan(1,0)">
                  <use xlink:href="#rim" fill="#404040">
                        <set attributeName="fill" to="#808080" begin="arrowRight.mouseover" end="arrowRight.mouseout"/>
                  </use>
                  <path fill="none" stroke="white" stroke-width="1.5" d="M0,-3.0v7 M-2.5,-0.5L0,-3.0L2.5,-0.5"/>
                </g>
                <g id="arrowDown" xlink:href="#dirArrow" transform="rotate(180) translate(-30 -48)" onmousedown="handlePan(0,1)">
                  <use xlink:href="#rim" fill="#404040">
                        <set attributeName="fill" to="#808080" begin="arrowDown.mouseover" end="arrowDown.mouseout"/>
                  </use>
                  <path fill="none" stroke="white" stroke-width="1.5" d="M0,-3.0v7 M-2.5,-0.5L0,-3.0L2.5,-0.5"/>
                </g>
                <g id="arrowLeft" xlink:href="#dirArrow" transform="rotate(270) translate(-36 17)" onmousedown="handlePan(-1,0)">
                  <use xlink:href="#rim" fill="#404040">
                        <set attributeName="fill" to="#808080" begin="arrowLeft.mouseover" end="arrowLeft.mouseout"/>
                  </use>
                  <path fill="none" stroke="white" stroke-width="1.5" d="M0,-3.0v7 M-2.5,-0.5L0,-3.0L2.5,-0.5"/>
                </g>
        </g>
        <svg viewBox="0 0 15 15" width="100%" height="30px" preserveAspectRatio="xMaxYMin meet">
         <g id="arrow_out" transform="scale(0.3 0.3)">
          <a xlink:href="global_8cpp__incl_org.svg" target="_base">
           <rect id="button" ry="5" rx="5" y="6" x="6" height="38" width="38"
                fill="#f2f5e9" fill-opacity="0.5" stroke="#606060" stroke-width="1.0"/>
           <path id="arrow"
             d="M 11.500037,31.436501 C 11.940474,20.09759 22.043105,11.32322 32.158766,21.979434 L 37.068811,17.246167 C 37.068811,17.246167 37.088388,32 37.088388,32 L 22.160133,31.978069 C 22.160133,31.978069 26.997745,27.140456 26.997745,27.140456 C 18.528582,18.264221 13.291696,25.230495 11.500037,31.436501 z"
             style="fill:#404040;"/>
          </a>
         </g>
        </svg>
</svg>
