<?xml version="1.0" encoding="UTF-8" standalone="no"?>
<!DOCTYPE svg PUBLIC "-//W3C//DTD SVG 1.1//EN"
 "http://www.w3.org/Graphics/SVG/1.1/DTD/svg11.dtd">
<!-- Generated by graphviz version 6.0.1 (0)
 -->
<!-- Title: GasTransport Pages: 1 -->
<svg width="284pt" height="379pt"
 viewBox="0.00 0.00 283.50 379.00" xmlns="http://www.w3.org/2000/svg" xmlns:xlink="http://www.w3.org/1999/xlink">
<g id="graph0" class="graph" transform="scale(1 1) rotate(0) translate(4 375)">
<title>GasTransport</title>
<!-- Node1 -->
<g id="node1" class="node">
<title>Node1</title>
<g id="a_node1"><a xlink:title="Class GasTransport implements some functions and properties that are shared by the MixTransport and M...">
<polygon fill="#999999" stroke="#666666" points="206.5,-19 130.5,-19 130.5,0 206.5,0 206.5,-19"/>
<text text-anchor="middle" x="168.5" y="-7" font-family="Helvetica,sans-Serif" font-size="10.00">GasTransport</text>
</a>
</g>
</g>
<!-- Node2 -->
<g id="node2" class="node">
<title>Node2</title>
<g id="a_node2"><a xlink:href="../../d2/dfb/classCantera_1_1Transport.html" target="_top" xlink:title="Base class for transport property managers.">
<polygon fill="white" stroke="#666666" points="156.5,-173 98.5,-173 98.5,-154 156.5,-154 156.5,-173"/>
<text text-anchor="middle" x="127.5" y="-161" font-family="Helvetica,sans-Serif" font-size="10.00">Transport</text>
</a>
</g>
</g>
<!-- Node2&#45;&gt;Node1 -->
<g id="edge1" class="edge">
<title>Node2&#45;&gt;Node1</title>
<path fill="none" stroke="#63b8ff" d="M132.45,-144.16C141.35,-111.15 159.75,-42.93 166.2,-19.01"/>
<polygon fill="#63b8ff" stroke="#63b8ff" points="129.05,-143.33 129.82,-153.89 135.81,-145.15 129.05,-143.33"/>
</g>
<!-- Node3 -->
<g id="node3" class="node">
<title>Node3</title>
<g id="a_node3"><a xlink:href="../../dc/d38/classCantera_1_1ThermoPhase.html" target="_top" xlink:title="Base class for a phase with thermodynamic properties.">
<polygon fill="white" stroke="#666666" points="166,-239 89,-239 89,-220 166,-220 166,-239"/>
<text text-anchor="middle" x="127.5" y="-227" font-family="Helvetica,sans-Serif" font-size="10.00">ThermoPhase</text>
</a>
</g>
</g>
<!-- Node3&#45;&gt;Node2 -->
<g id="edge2" class="edge">
<title>Node3&#45;&gt;Node2</title>
<path fill="none" stroke="#9a32cd" stroke-dasharray="5,2" d="M127.5,-209.58C127.5,-197.63 127.5,-182.72 127.5,-173.41"/>
<polygon fill="#9a32cd" stroke="#9a32cd" points="124,-209.87 127.5,-219.87 131,-209.87 124,-209.87"/>
<text text-anchor="middle" x="151" y="-194" font-family="Helvetica,sans-Serif" font-size="10.00"> m_thermo</text>
</g>
<!-- Node4 -->
<g id="node4" class="node">
<title>Node4</title>
<g id="a_node4"><a xlink:href="../../d6/d0e/classCantera_1_1Phase.html" target="_top" xlink:title="Class Phase is the base class for phases of matter, managing the species and elements in a phase,...">
<polygon fill="white" stroke="#666666" points="56.5,-305 12.5,-305 12.5,-286 56.5,-286 56.5,-305"/>
<text text-anchor="middle" x="34.5" y="-293" font-family="Helvetica,sans-Serif" font-size="10.00">Phase</text>
</a>
</g>
</g>
<!-- Node4&#45;&gt;Node3 -->
<g id="edge3" class="edge">
<title>Node4&#45;&gt;Node3</title>
<path fill="none" stroke="#63b8ff" d="M55.31,-280.18C73.58,-267.61 99.56,-249.73 114.86,-239.2"/>
<polygon fill="#63b8ff" stroke="#63b8ff" points="53.3,-277.32 47.04,-285.87 57.26,-283.08 53.3,-277.32"/>
</g>
<!-- Node5 -->
<g id="node5" class="node">
<title>Node5</title>
<g id="a_node5"><a xlink:href="../../d8/d89/classCantera_1_1ValueCache.html" target="_top" xlink:title=" ">
<polygon fill="white" stroke="#666666" points="69,-371 0,-371 0,-352 69,-352 69,-371"/>
<text text-anchor="middle" x="34.5" y="-359" font-family="Helvetica,sans-Serif" font-size="10.00">ValueCache</text>
</a>
</g>
</g>
<!-- Node5&#45;&gt;Node4 -->
<g id="edge4" class="edge">
<title>Node5&#45;&gt;Node4</title>
<path fill="none" stroke="#9a32cd" stroke-dasharray="5,2" d="M34.5,-341.58C34.5,-329.63 34.5,-314.72 34.5,-305.41"/>
<polygon fill="#9a32cd" stroke="#9a32cd" points="31,-341.87 34.5,-351.87 38,-341.87 31,-341.87"/>
<text text-anchor="middle" x="56" y="-326" font-family="Helvetica,sans-Serif" font-size="10.00"> m_cache</text>
</g>
<!-- Node6 -->
<g id="node6" class="node">
<title>Node6</title>
<g id="a_node6"><a xlink:href="../../d5/dda/classCantera_1_1MultiSpeciesThermo.html" target="_top" xlink:title="A species thermodynamic property manager for a phase.">
<polygon fill="white" stroke="#666666" points="180.5,-305 74.5,-305 74.5,-286 180.5,-286 180.5,-305"/>
<text text-anchor="middle" x="127.5" y="-293" font-family="Helvetica,sans-Serif" font-size="10.00">MultiSpeciesThermo</text>
</a>
</g>
</g>
<!-- Node6&#45;&gt;Node3 -->
<g id="edge5" class="edge">
<title>Node6&#45;&gt;Node3</title>
<path fill="none" stroke="#9a32cd" stroke-dasharray="5,2" d="M127.5,-275.58C127.5,-263.63 127.5,-248.72 127.5,-239.41"/>
<polygon fill="#9a32cd" stroke="#9a32cd" points="124,-275.87 127.5,-285.87 131,-275.87 124,-275.87"/>
<text text-anchor="middle" x="156.5" y="-260" font-family="Helvetica,sans-Serif" font-size="10.00"> m_spthermo</text>
</g>
<!-- Node7 -->
<g id="node7" class="node">
<title>Node7</title>
<g id="a_node7"><a xlink:href="../../db/d74/classCantera_1_1AnyMap.html" target="_top" xlink:title="A map of string keys to values whose type can vary at runtime.">
<polygon fill="white" stroke="#666666" points="252,-305 199,-305 199,-286 252,-286 252,-305"/>
<text text-anchor="middle" x="225.5" y="-293" font-family="Helvetica,sans-Serif" font-size="10.00">AnyMap</text>
</a>
</g>
</g>
<!-- Node7&#45;&gt;Node3 -->
<g id="edge6" class="edge">
<title>Node7&#45;&gt;Node3</title>
<path fill="none" stroke="#9a32cd" stroke-dasharray="5,2" d="M212.3,-278C205.97,-270.86 197.93,-262.83 189.5,-257 178.62,-249.48 165.26,-243.43 153.74,-239.03"/>
<polygon fill="#9a32cd" stroke="#9a32cd" points="209.74,-280.4 218.87,-285.79 215.09,-275.89 209.74,-280.4"/>
<text text-anchor="middle" x="222.5" y="-260" font-family="Helvetica,sans-Serif" font-size="10.00"> m_input</text>
</g>
<!-- Node8 -->
<g id="node8" class="node">
<title>Node8</title>
<g id="a_node8"><a xlink:href="../../d9/d23/classCantera_1_1AnyBase.html" target="_top" xlink:title="Base class defining common data possessed by both AnyMap and AnyValue objects.">
<polygon fill="white" stroke="#666666" points="253.5,-371 197.5,-371 197.5,-352 253.5,-352 253.5,-371"/>
<text text-anchor="middle" x="225.5" y="-359" font-family="Helvetica,sans-Serif" font-size="10.00">AnyBase</text>
</a>
</g>
</g>
<!-- Node8&#45;&gt;Node7 -->
<g id="edge7" class="edge">
<title>Node8&#45;&gt;Node7</title>
<path fill="none" stroke="#63b8ff" d="M225.5,-341.58C225.5,-329.63 225.5,-314.72 225.5,-305.41"/>
<polygon fill="#63b8ff" stroke="#63b8ff" points="222,-341.87 225.5,-351.87 229,-341.87 222,-341.87"/>
</g>
<!-- Node9 -->
<g id="node9" class="node">
<title>Node9</title>
<g id="a_node9"><a xlink:href="../../dd/d8f/classCantera_1_1DenseMatrix.html" target="_top" xlink:title="A class for full (non&#45;sparse) matrices with Fortran&#45;compatible data storage, which adds matrix operat...">
<polygon fill="white" stroke="#666666" points="246.5,-173 174.5,-173 174.5,-154 246.5,-154 246.5,-173"/>
<text text-anchor="middle" x="210.5" y="-161" font-family="Helvetica,sans-Serif" font-size="10.00">DenseMatrix</text>
</a>
</g>
</g>
<!-- Node9&#45;&gt;Node1 -->
<g id="edge8" class="edge">
<title>Node9&#45;&gt;Node1</title>
<path fill="none" stroke="#9a32cd" stroke-dasharray="5,2" d="M205.43,-144.16C196.31,-111.15 177.46,-42.93 170.85,-19.01"/>
<polygon fill="#9a32cd" stroke="#9a32cd" points="202.08,-145.19 208.12,-153.89 208.83,-143.32 202.08,-145.19"/>
<text text-anchor="middle" x="239" y="-128" font-family="Helvetica,sans-Serif" font-size="10.00"> m_bdiff</text>
<text text-anchor="middle" x="239" y="-117" font-family="Helvetica,sans-Serif" font-size="10.00">m_delta</text>
<text text-anchor="middle" x="239" y="-106" font-family="Helvetica,sans-Serif" font-size="10.00">m_diam</text>
<text text-anchor="middle" x="239" y="-95" font-family="Helvetica,sans-Serif" font-size="10.00">m_dipole</text>
<text text-anchor="middle" x="239" y="-84" font-family="Helvetica,sans-Serif" font-size="10.00">m_epsilon</text>
<text text-anchor="middle" x="239" y="-73" font-family="Helvetica,sans-Serif" font-size="10.00">m_phi</text>
<text text-anchor="middle" x="239" y="-62" font-family="Helvetica,sans-Serif" font-size="10.00">m_reducedMass</text>
<text text-anchor="middle" x="239" y="-51" font-family="Helvetica,sans-Serif" font-size="10.00">m_wratjk</text>
<text text-anchor="middle" x="239" y="-40" font-family="Helvetica,sans-Serif" font-size="10.00">m_wratkj1</text>
</g>
<!-- Node10 -->
<g id="node10" class="node">
<title>Node10</title>
<g id="a_node10"><a xlink:href="../../d1/dcf/classCantera_1_1Array2D.html" target="_top" xlink:title="A class for 2D arrays stored in column&#45;major (Fortran&#45;compatible) form.">
<polygon fill="white" stroke="#666666" points="237,-239 184,-239 184,-220 237,-220 237,-239"/>
<text text-anchor="middle" x="210.5" y="-227" font-family="Helvetica,sans-Serif" font-size="10.00">Array2D</text>
</a>
</g>
</g>
<!-- Node10&#45;&gt;Node9 -->
<g id="edge9" class="edge">
<title>Node10&#45;&gt;Node9</title>
<path fill="none" stroke="#63b8ff" d="M210.5,-209.58C210.5,-197.63 210.5,-182.72 210.5,-173.41"/>
<polygon fill="#63b8ff" stroke="#63b8ff" points="207,-209.87 210.5,-219.87 214,-209.87 207,-209.87"/>
</g>
</g>
</svg>
