<?xml version="1.0" encoding="UTF-8" standalone="no"?>
<!DOCTYPE svg PUBLIC "-//W3C//DTD SVG 1.1//EN"
 "http://www.w3.org/Graphics/SVG/1.1/DTD/svg11.dtd">
<!-- Generated by graphviz version 2.50.0 (0)
 -->
<!-- Title: Sub.h Pages: 1 -->
<!--zoomable 140 -->
<svg id="main" version="1.1" xmlns="http://www.w3.org/2000/svg" xmlns:xlink="http://www.w3.org/1999/xlink" xml:space="preserve" onload="init(evt)">
<style type="text/css"><![CDATA[
.edge:hover path { stroke: red; }
.edge:hover polygon { stroke: red; fill: red; }
]]></style>
<script type="text/javascript"><![CDATA[
var edges = document.getElementsByTagName('g');
if (edges && edges.length) {
  for (var i=0;i<edges.length;i++) {
    if (edges[i].id.substr(0,4)=='edge') {
      edges[i].setAttribute('class','edge');
    }
  }
}
]]></script>
        <defs>
                <circle id="rim" cx="0" cy="0" r="7"/>
                <circle id="rim2" cx="0" cy="0" r="3.5"/>
                <g id="zoomPlus">
                        <use xlink:href="#rim" fill="#404040">
                                <set attributeName="fill" to="#808080" begin="zoomplus.mouseover" end="zoomplus.mouseout"/>
                        </use>
                        <path d="M-4,0h8M0,-4v8" fill="none" stroke="white" stroke-width="1.5" pointer-events="none"/>
                </g>
                <g id="zoomMin">
                        <use xlink:href="#rim" fill="#404040">
                                <set attributeName="fill" to="#808080" begin="zoomminus.mouseover" end="zoomminus.mouseout"/>
                        </use>
                        <path d="M-4,0h8" fill="none" stroke="white" stroke-width="1.5" pointer-events="none"/>
                </g>
                <g id="dirArrow">
                        <path fill="none" stroke="white" stroke-width="1.5" d="M0,-3.0v7 M-2.5,-0.5L0,-3.0L2.5,-0.5"/>
                </g>
               <g id="resetDef">
                       <use xlink:href="#rim2" fill="#404040">
                               <set attributeName="fill" to="#808080" begin="reset.mouseover" end="reset.mouseout"/>
                       </use>
               </g>
        </defs>

<script type="text/javascript">
var viewWidth = 1066;
var viewHeight = 140;
var sectionId = 'dynsection-1';
</script>
<script xlink:href="../../svgpan.js"/>
<svg id="graph" class="graph">
<g id="viewport">
<title>Sub.h</title>
<polygon fill="white" stroke="transparent" points="-4,4 -4,-136 1061.5,-136 1061.5,4 -4,4"/>
<!-- Node1 -->
<g id="node1" class="node">
<title>Node1</title>
<g id="a_node1"><a xlink:title=" ">
<polygon fill="#bfbfbf" stroke="black" points="615,-112.5 615,-131.5 657,-131.5 657,-112.5 615,-112.5"/>
<text text-anchor="middle" x="636" y="-119.5" font-family="Helvetica,sans-Serif" font-size="10.00">Sub.h</text>
</a>
</g>
</g>
<!-- Node2 -->
<g id="node2" class="node">
<title>Node2</title>
<g id="a_node2"><a xlink:href="../../d3/dc4/CarbonDioxide_8h.html" target="_top" xlink:title=" ">
<polygon fill="white" stroke="black" points="127.5,-56.5 127.5,-75.5 216.5,-75.5 216.5,-56.5 127.5,-56.5"/>
<text text-anchor="middle" x="172" y="-63.5" font-family="Helvetica,sans-Serif" font-size="10.00">CarbonDioxide.h</text>
</a>
</g>
</g>
<!-- Node1&#45;&gt;Node2 -->
<g id="edge1" class="edge">
<title>Node1&#45;&gt;Node2</title>
<path fill="none" stroke="midnightblue" d="M604.84,-118.22C536.12,-111.96 366.37,-95.73 225,-76 222.23,-75.61 219.38,-75.19 216.5,-74.75"/>
<polygon fill="midnightblue" stroke="midnightblue" points="604.71,-121.73 614.99,-119.14 605.34,-114.75 604.71,-121.73"/>
</g>
<!-- Node5 -->
<g id="node5" class="node">
<title>Node5</title>
<g id="a_node5"><a xlink:href="../../db/d33/HFC134a_8h.html" target="_top" xlink:title=" ">
<polygon fill="white" stroke="black" points="234.5,-56.5 234.5,-75.5 301.5,-75.5 301.5,-56.5 234.5,-56.5"/>
<text text-anchor="middle" x="268" y="-63.5" font-family="Helvetica,sans-Serif" font-size="10.00">HFC134a.h</text>
</a>
</g>
</g>
<!-- Node1&#45;&gt;Node5 -->
<g id="edge4" class="edge">
<title>Node1&#45;&gt;Node5</title>
<path fill="none" stroke="midnightblue" d="M604.61,-117.38C546.49,-110.52 418.25,-94.63 311,-76 307.99,-75.48 304.88,-74.9 301.76,-74.29"/>
<polygon fill="midnightblue" stroke="midnightblue" points="604.29,-120.87 614.63,-118.56 605.1,-113.92 604.29,-120.87"/>
</g>
<!-- Node7 -->
<g id="node7" class="node">
<title>Node7</title>
<g id="a_node7"><a xlink:href="../../d9/d76/Heptane_8h.html" target="_top" xlink:title=" ">
<polygon fill="white" stroke="black" points="320,-56.5 320,-75.5 382,-75.5 382,-56.5 320,-56.5"/>
<text text-anchor="middle" x="351" y="-63.5" font-family="Helvetica,sans-Serif" font-size="10.00">Heptane.h</text>
</a>
</g>
</g>
<!-- Node1&#45;&gt;Node7 -->
<g id="edge7" class="edge">
<title>Node1&#45;&gt;Node7</title>
<path fill="none" stroke="midnightblue" d="M604.91,-115.7C558.32,-107.66 467.65,-91.66 391,-76 388.21,-75.43 385.32,-74.82 382.42,-74.19"/>
<polygon fill="midnightblue" stroke="midnightblue" points="604.52,-119.18 614.97,-117.43 605.71,-112.28 604.52,-119.18"/>
</g>
<!-- Node9 -->
<g id="node9" class="node">
<title>Node9</title>
<g id="a_node9"><a xlink:href="../../dd/dbf/Hydrogen_8h.html" target="_top" xlink:title=" ">
<polygon fill="white" stroke="black" points="400.5,-56.5 400.5,-75.5 467.5,-75.5 467.5,-56.5 400.5,-56.5"/>
<text text-anchor="middle" x="434" y="-63.5" font-family="Helvetica,sans-Serif" font-size="10.00">Hydrogen.h</text>
</a>
</g>
</g>
<!-- Node1&#45;&gt;Node9 -->
<g id="edge10" class="edge">
<title>Node1&#45;&gt;Node9</title>
<path fill="none" stroke="midnightblue" d="M604.84,-112.67C567.1,-102.58 503.87,-85.68 465.83,-75.51"/>
<polygon fill="midnightblue" stroke="midnightblue" points="604.2,-116.12 614.76,-115.32 606.01,-109.36 604.2,-116.12"/>
</g>
<!-- Node11 -->
<g id="node11" class="node">
<title>Node11</title>
<g id="a_node11"><a xlink:href="../../df/d25/Methane_8h.html" target="_top" xlink:title=" ">
<polygon fill="white" stroke="black" points="486,-56.5 486,-75.5 548,-75.5 548,-56.5 486,-56.5"/>
<text text-anchor="middle" x="517" y="-63.5" font-family="Helvetica,sans-Serif" font-size="10.00">Methane.h</text>
</a>
</g>
</g>
<!-- Node1&#45;&gt;Node11 -->
<g id="edge13" class="edge">
<title>Node1&#45;&gt;Node11</title>
<path fill="none" stroke="midnightblue" d="M607.86,-108.23C585.6,-98.13 555.14,-84.31 535.77,-75.52"/>
<polygon fill="midnightblue" stroke="midnightblue" points="606.59,-111.5 617.14,-112.44 609.48,-105.12 606.59,-111.5"/>
</g>
<!-- Node13 -->
<g id="node13" class="node">
<title>Node13</title>
<g id="a_node13"><a xlink:href="../../de/d5b/Nitrogen_8h.html" target="_top" xlink:title=" ">
<polygon fill="white" stroke="black" points="566,-56.5 566,-75.5 628,-75.5 628,-56.5 566,-56.5"/>
<text text-anchor="middle" x="597" y="-63.5" font-family="Helvetica,sans-Serif" font-size="10.00">Nitrogen.h</text>
</a>
</g>
</g>
<!-- Node1&#45;&gt;Node13 -->
<g id="edge16" class="edge">
<title>Node1&#45;&gt;Node13</title>
<path fill="none" stroke="midnightblue" d="M623.62,-103.86C616.86,-94.5 608.79,-83.33 603.32,-75.75"/>
<polygon fill="midnightblue" stroke="midnightblue" points="620.87,-106.03 629.56,-112.08 626.54,-101.93 620.87,-106.03"/>
</g>
<!-- Node15 -->
<g id="node15" class="node">
<title>Node15</title>
<g id="a_node15"><a xlink:href="../../d8/df3/Oxygen_8h.html" target="_top" xlink:title=" ">
<polygon fill="white" stroke="black" points="646.5,-56.5 646.5,-75.5 705.5,-75.5 705.5,-56.5 646.5,-56.5"/>
<text text-anchor="middle" x="676" y="-63.5" font-family="Helvetica,sans-Serif" font-size="10.00">Oxygen.h</text>
</a>
</g>
</g>
<!-- Node1&#45;&gt;Node15 -->
<g id="edge19" class="edge">
<title>Node1&#45;&gt;Node15</title>
<path fill="none" stroke="midnightblue" d="M648.7,-103.86C655.63,-94.5 663.91,-83.33 669.52,-75.75"/>
<polygon fill="midnightblue" stroke="midnightblue" points="645.75,-101.96 642.61,-112.08 651.37,-106.13 645.75,-101.96"/>
</g>
<!-- Node17 -->
<g id="node17" class="node">
<title>Node17</title>
<g id="a_node17"><a xlink:href="../../d8/d53/PureFluidPhase_8cpp.html" target="_top" xlink:title="Definitions for a ThermoPhase object for a pure fluid phase consisting of gas, liquid,...">
<polygon fill="white" stroke="black" points="818,-0.5 818,-19.5 922,-19.5 922,-0.5 818,-0.5"/>
<text text-anchor="middle" x="870" y="-7.5" font-family="Helvetica,sans-Serif" font-size="10.00">PureFluidPhase.cpp</text>
</a>
</g>
</g>
<!-- Node1&#45;&gt;Node17 -->
<g id="edge22" class="edge">
<title>Node1&#45;&gt;Node17</title>
<path fill="none" stroke="midnightblue" d="M667.28,-117.83C718.6,-112.06 817.59,-98.32 844,-76 861.27,-61.41 867.17,-33.71 869.1,-19.65"/>
<polygon fill="midnightblue" stroke="midnightblue" points="666.66,-114.38 657.1,-118.94 667.42,-121.34 666.66,-114.38"/>
</g>
<!-- Node18 -->
<g id="node18" class="node">
<title>Node18</title>
<g id="a_node18"><a xlink:href="../../dd/d2d/PureFluidPhase_8h.html" target="_top" xlink:title="Header for a ThermoPhase class for a pure fluid phase consisting of gas, liquid, mixed&#45;gas&#45;liquid and...">
<polygon fill="white" stroke="black" points="892,-56.5 892,-75.5 986,-75.5 986,-56.5 892,-56.5"/>
<text text-anchor="middle" x="939" y="-63.5" font-family="Helvetica,sans-Serif" font-size="10.00">PureFluidPhase.h</text>
</a>
</g>
</g>
<!-- Node1&#45;&gt;Node18 -->
<g id="edge23" class="edge">
<title>Node1&#45;&gt;Node18</title>
<path fill="none" stroke="midnightblue" d="M667.19,-115.44C720.44,-105.95 829.21,-86.57 891.8,-75.41"/>
<polygon fill="midnightblue" stroke="midnightblue" points="666.54,-112 657.31,-117.2 667.77,-118.89 666.54,-112"/>
</g>
<!-- Node20 -->
<g id="node20" class="node">
<title>Node20</title>
<g id="a_node20"><a xlink:href="../../d2/d1f/Sub_8cpp.html" target="_top" xlink:title=" ">
<polygon fill="white" stroke="black" points="1004.5,-56.5 1004.5,-75.5 1057.5,-75.5 1057.5,-56.5 1004.5,-56.5"/>
<text text-anchor="middle" x="1031" y="-63.5" font-family="Helvetica,sans-Serif" font-size="10.00">Sub.cpp</text>
</a>
</g>
</g>
<!-- Node1&#45;&gt;Node20 -->
<g id="edge26" class="edge">
<title>Node1&#45;&gt;Node20</title>
<path fill="none" stroke="midnightblue" d="M667.18,-118.36C729.72,-112.8 874.76,-98.48 995,-76 998.04,-75.43 1001.21,-74.76 1004.34,-74.04"/>
<polygon fill="midnightblue" stroke="midnightblue" points="666.83,-114.88 657.18,-119.24 667.45,-121.85 666.83,-114.88"/>
</g>
<!-- Node21 -->
<g id="node21" class="node">
<title>Node21</title>
<g id="a_node21"><a xlink:href="../../d2/d02/Water_8h.html" target="_top" xlink:title=" ">
<polygon fill="white" stroke="black" points="724,-56.5 724,-75.5 774,-75.5 774,-56.5 724,-56.5"/>
<text text-anchor="middle" x="749" y="-63.5" font-family="Helvetica,sans-Serif" font-size="10.00">Water.h</text>
</a>
</g>
</g>
<!-- Node1&#45;&gt;Node21 -->
<g id="edge27" class="edge">
<title>Node1&#45;&gt;Node21</title>
<path fill="none" stroke="midnightblue" d="M663,-108.1C684.11,-98.01 712.86,-84.27 731.18,-75.52"/>
<polygon fill="midnightblue" stroke="midnightblue" points="661.42,-104.97 653.91,-112.44 664.44,-111.29 661.42,-104.97"/>
</g>
<!-- Node23 -->
<g id="node23" class="node">
<title>Node23</title>
<g id="a_node23"><a xlink:href="../../d5/d60/utils_8h.html" target="_top" xlink:title=" ">
<polygon fill="white" stroke="black" points="792.5,-56.5 792.5,-75.5 835.5,-75.5 835.5,-56.5 792.5,-56.5"/>
<text text-anchor="middle" x="814" y="-63.5" font-family="Helvetica,sans-Serif" font-size="10.00">utils.h</text>
</a>
</g>
</g>
<!-- Node1&#45;&gt;Node23 -->
<g id="edge30" class="edge">
<title>Node1&#45;&gt;Node23</title>
<path fill="none" stroke="midnightblue" d="M667.05,-111.58C702.93,-100.7 761.04,-83.07 792.35,-73.57"/>
<polygon fill="midnightblue" stroke="midnightblue" points="665.67,-108.34 657.12,-114.59 667.7,-115.04 665.67,-108.34"/>
</g>
<!-- Node3 -->
<g id="node3" class="node">
<title>Node3</title>
<g id="a_node3"><a xlink:href="../../d0/d64/CarbonDioxide_8cpp.html" target="_top" xlink:title="representation of substance Carbon Dioxide.">
<polygon fill="white" stroke="black" points="0,-0.5 0,-19.5 100,-19.5 100,-0.5 0,-0.5"/>
<text text-anchor="middle" x="50" y="-7.5" font-family="Helvetica,sans-Serif" font-size="10.00">CarbonDioxide.cpp</text>
</a>
</g>
</g>
<!-- Node2&#45;&gt;Node3 -->
<g id="edge2" class="edge">
<title>Node2&#45;&gt;Node3</title>
<path fill="none" stroke="midnightblue" d="M143.46,-52.37C120.61,-42.26 89.19,-28.35 69.24,-19.52"/>
<polygon fill="midnightblue" stroke="midnightblue" points="142.11,-55.6 152.67,-56.44 144.94,-49.2 142.11,-55.6"/>
</g>
<!-- Node4 -->
<g id="node4" class="node">
<title>Node4</title>
<g id="a_node4"><a xlink:href="../../de/d06/utils_8cpp.html" target="_top" xlink:title=" ">
<polygon fill="white" stroke="black" points="490.5,-0.5 490.5,-19.5 543.5,-19.5 543.5,-0.5 490.5,-0.5"/>
<text text-anchor="middle" x="517" y="-7.5" font-family="Helvetica,sans-Serif" font-size="10.00">utils.cpp</text>
</a>
</g>
</g>
<!-- Node2&#45;&gt;Node4 -->
<g id="edge3" class="edge">
<title>Node2&#45;&gt;Node4</title>
<path fill="none" stroke="midnightblue" d="M226.67,-55.79C340.29,-38.56 371.42,-41.34 481,-20 484.04,-19.41 487.2,-18.72 490.33,-18"/>
<polygon fill="midnightblue" stroke="midnightblue" points="225.87,-52.37 216.52,-57.35 226.93,-59.29 225.87,-52.37"/>
</g>
<!-- Node5&#45;&gt;Node4 -->
<g id="edge6" class="edge">
<title>Node5&#45;&gt;Node4</title>
<path fill="none" stroke="midnightblue" d="M311.79,-55.84C369.25,-43.8 464.71,-23.75 481,-20 484.01,-19.31 487.16,-18.55 490.29,-17.79"/>
<polygon fill="midnightblue" stroke="midnightblue" points="310.95,-52.44 301.88,-57.91 312.39,-59.29 310.95,-52.44"/>
</g>
<!-- Node6 -->
<g id="node6" class="node">
<title>Node6</title>
<g id="a_node6"><a xlink:href="../../d8/da7/HFC134a_8cpp.html" target="_top" xlink:title=" ">
<polygon fill="white" stroke="black" points="118.5,-0.5 118.5,-19.5 195.5,-19.5 195.5,-0.5 118.5,-0.5"/>
<text text-anchor="middle" x="157" y="-7.5" font-family="Helvetica,sans-Serif" font-size="10.00">HFC134a.cpp</text>
</a>
</g>
</g>
<!-- Node5&#45;&gt;Node6 -->
<g id="edge5" class="edge">
<title>Node5&#45;&gt;Node6</title>
<path fill="none" stroke="midnightblue" d="M240.99,-51.86C220.41,-41.85 192.66,-28.35 174.79,-19.65"/>
<polygon fill="midnightblue" stroke="midnightblue" points="239.64,-55.1 250.17,-56.32 242.7,-48.8 239.64,-55.1"/>
</g>
<!-- Node7&#45;&gt;Node4 -->
<g id="edge9" class="edge">
<title>Node7&#45;&gt;Node4</title>
<path fill="none" stroke="midnightblue" d="M386.95,-53.3C418.23,-43.13 462.82,-28.62 490.82,-19.52"/>
<polygon fill="midnightblue" stroke="midnightblue" points="385.73,-50.02 377.3,-56.44 387.9,-56.68 385.73,-50.02"/>
</g>
<!-- Node8 -->
<g id="node8" class="node">
<title>Node8</title>
<g id="a_node8"><a xlink:href="../../d4/d44/Heptane_8cpp.html" target="_top" xlink:title="representation of substance Heptane.">
<polygon fill="white" stroke="black" points="214,-0.5 214,-19.5 286,-19.5 286,-0.5 214,-0.5"/>
<text text-anchor="middle" x="250" y="-7.5" font-family="Helvetica,sans-Serif" font-size="10.00">Heptane.cpp</text>
</a>
</g>
</g>
<!-- Node7&#45;&gt;Node8 -->
<g id="edge8" class="edge">
<title>Node7&#45;&gt;Node8</title>
<path fill="none" stroke="midnightblue" d="M325.92,-51.59C307.24,-41.61 282.3,-28.27 266.19,-19.65"/>
<polygon fill="midnightblue" stroke="midnightblue" points="324.3,-54.7 334.77,-56.32 327.6,-48.52 324.3,-54.7"/>
</g>
<!-- Node9&#45;&gt;Node4 -->
<g id="edge12" class="edge">
<title>Node9&#45;&gt;Node4</title>
<path fill="none" stroke="midnightblue" d="M456.1,-50.62C471.26,-40.76 490.88,-27.99 503.7,-19.65"/>
<polygon fill="midnightblue" stroke="midnightblue" points="453.81,-47.94 447.34,-56.32 457.63,-53.8 453.81,-47.94"/>
</g>
<!-- Node10 -->
<g id="node10" class="node">
<title>Node10</title>
<g id="a_node10"><a xlink:href="../../de/d64/Hydrogen_8cpp.html" target="_top" xlink:title=" ">
<polygon fill="white" stroke="black" points="304.5,-0.5 304.5,-19.5 381.5,-19.5 381.5,-0.5 304.5,-0.5"/>
<text text-anchor="middle" x="343" y="-7.5" font-family="Helvetica,sans-Serif" font-size="10.00">Hydrogen.cpp</text>
</a>
</g>
</g>
<!-- Node9&#45;&gt;Node10 -->
<g id="edge11" class="edge">
<title>Node9&#45;&gt;Node10</title>
<path fill="none" stroke="midnightblue" d="M410.71,-51.18C393.96,-41.24 371.9,-28.15 357.58,-19.65"/>
<polygon fill="midnightblue" stroke="midnightblue" points="408.99,-54.23 419.38,-56.32 412.57,-48.21 408.99,-54.23"/>
</g>
<!-- Node11&#45;&gt;Node4 -->
<g id="edge15" class="edge">
<title>Node11&#45;&gt;Node4</title>
<path fill="none" stroke="midnightblue" d="M517,-45.8C517,-36.91 517,-26.78 517,-19.75"/>
<polygon fill="midnightblue" stroke="midnightblue" points="513.5,-46.08 517,-56.08 520.5,-46.08 513.5,-46.08"/>
</g>
<!-- Node12 -->
<g id="node12" class="node">
<title>Node12</title>
<g id="a_node12"><a xlink:href="../../d5/d5e/Methane_8cpp.html" target="_top" xlink:title=" ">
<polygon fill="white" stroke="black" points="399.5,-0.5 399.5,-19.5 472.5,-19.5 472.5,-0.5 399.5,-0.5"/>
<text text-anchor="middle" x="436" y="-7.5" font-family="Helvetica,sans-Serif" font-size="10.00">Methane.cpp</text>
</a>
</g>
</g>
<!-- Node11&#45;&gt;Node12 -->
<g id="edge14" class="edge">
<title>Node11&#45;&gt;Node12</title>
<path fill="none" stroke="midnightblue" d="M495.43,-50.62C480.64,-40.76 461.49,-27.99 448.98,-19.65"/>
<polygon fill="midnightblue" stroke="midnightblue" points="493.72,-53.69 503.99,-56.32 497.61,-47.86 493.72,-53.69"/>
</g>
<!-- Node13&#45;&gt;Node4 -->
<g id="edge18" class="edge">
<title>Node13&#45;&gt;Node4</title>
<path fill="none" stroke="midnightblue" d="M575.7,-50.62C561.08,-40.76 542.17,-27.99 529.82,-19.65"/>
<polygon fill="midnightblue" stroke="midnightblue" points="573.9,-53.63 584.15,-56.32 577.82,-47.83 573.9,-53.63"/>
</g>
<!-- Node14 -->
<g id="node14" class="node">
<title>Node14</title>
<g id="a_node14"><a xlink:href="../../df/dc0/Nitrogen_8cpp.html" target="_top" xlink:title=" ">
<polygon fill="white" stroke="black" points="562,-0.5 562,-19.5 634,-19.5 634,-0.5 562,-0.5"/>
<text text-anchor="middle" x="598" y="-7.5" font-family="Helvetica,sans-Serif" font-size="10.00">Nitrogen.cpp</text>
</a>
</g>
</g>
<!-- Node13&#45;&gt;Node14 -->
<g id="edge17" class="edge">
<title>Node13&#45;&gt;Node14</title>
<path fill="none" stroke="midnightblue" d="M597.36,-45.8C597.52,-36.91 597.71,-26.78 597.84,-19.75"/>
<polygon fill="midnightblue" stroke="midnightblue" points="593.85,-46.02 597.17,-56.08 600.85,-46.15 593.85,-46.02"/>
</g>
<!-- Node15&#45;&gt;Node4 -->
<g id="edge21" class="edge">
<title>Node15&#45;&gt;Node4</title>
<path fill="none" stroke="midnightblue" d="M641.17,-53.17C611.23,-43 568.78,-28.59 542.08,-19.52"/>
<polygon fill="midnightblue" stroke="midnightblue" points="640.21,-56.54 650.81,-56.44 642.46,-49.91 640.21,-56.54"/>
</g>
<!-- Node16 -->
<g id="node16" class="node">
<title>Node16</title>
<g id="a_node16"><a xlink:href="../../dd/d24/Oxygen_8cpp.html" target="_top" xlink:title=" ">
<polygon fill="white" stroke="black" points="652.5,-0.5 652.5,-19.5 721.5,-19.5 721.5,-0.5 652.5,-0.5"/>
<text text-anchor="middle" x="687" y="-7.5" font-family="Helvetica,sans-Serif" font-size="10.00">Oxygen.cpp</text>
</a>
</g>
</g>
<!-- Node15&#45;&gt;Node16 -->
<g id="edge20" class="edge">
<title>Node15&#45;&gt;Node16</title>
<path fill="none" stroke="midnightblue" d="M679.85,-46.1C681.68,-37.14 683.77,-26.86 685.22,-19.75"/>
<polygon fill="midnightblue" stroke="midnightblue" points="676.38,-45.59 677.82,-56.08 683.24,-46.98 676.38,-45.59"/>
</g>
<!-- Node18&#45;&gt;Node17 -->
<g id="edge24" class="edge">
<title>Node18&#45;&gt;Node17</title>
<path fill="none" stroke="midnightblue" d="M919.96,-50.1C907.54,-40.38 891.76,-28.03 881.29,-19.83"/>
<polygon fill="midnightblue" stroke="midnightblue" points="917.88,-52.92 927.91,-56.32 922.2,-47.4 917.88,-52.92"/>
</g>
<!-- Node19 -->
<g id="node19" class="node">
<title>Node19</title>
<g id="a_node19"><a xlink:href="../../d2/d3a/ThermoFactory_8cpp.html" target="_top" xlink:title="Definitions for the factory class that can create known ThermoPhase objects (see Thermodynamic Proper...">
<polygon fill="white" stroke="black" points="940,-0.5 940,-19.5 1040,-19.5 1040,-0.5 940,-0.5"/>
<text text-anchor="middle" x="990" y="-7.5" font-family="Helvetica,sans-Serif" font-size="10.00">ThermoFactory.cpp</text>
</a>
</g>
</g>
<!-- Node18&#45;&gt;Node19 -->
<g id="edge25" class="edge">
<title>Node18&#45;&gt;Node19</title>
<path fill="none" stroke="midnightblue" d="M954.38,-48.72C963.37,-39.2 974.36,-27.56 981.74,-19.75"/>
<polygon fill="midnightblue" stroke="midnightblue" points="951.74,-46.41 947.42,-56.08 956.83,-51.22 951.74,-46.41"/>
</g>
<!-- Node21&#45;&gt;Node4 -->
<g id="edge29" class="edge">
<title>Node21&#45;&gt;Node4</title>
<path fill="none" stroke="midnightblue" d="M714.3,-56.07C714.2,-56.05 714.1,-56.02 714,-56 642.71,-38.87 624.35,-36.89 553,-20 549.99,-19.29 546.84,-18.53 543.72,-17.76"/>
<polygon fill="midnightblue" stroke="midnightblue" points="713.24,-59.42 723.79,-58.42 714.92,-52.62 713.24,-59.42"/>
</g>
<!-- Node22 -->
<g id="node22" class="node">
<title>Node22</title>
<g id="a_node22"><a xlink:href="../../de/d90/Water_8cpp.html" target="_top" xlink:title=" ">
<polygon fill="white" stroke="black" points="740,-0.5 740,-19.5 800,-19.5 800,-0.5 740,-0.5"/>
<text text-anchor="middle" x="770" y="-7.5" font-family="Helvetica,sans-Serif" font-size="10.00">Water.cpp</text>
</a>
</g>
</g>
<!-- Node21&#45;&gt;Node22 -->
<g id="edge28" class="edge">
<title>Node21&#45;&gt;Node22</title>
<path fill="none" stroke="midnightblue" d="M756.12,-46.69C759.66,-37.59 763.77,-27.01 766.6,-19.75"/>
<polygon fill="midnightblue" stroke="midnightblue" points="752.83,-45.49 752.47,-56.08 759.35,-48.03 752.83,-45.49"/>
</g>
<!-- Node23&#45;&gt;Node4 -->
<g id="edge32" class="edge">
<title>Node23&#45;&gt;Node4</title>
<path fill="none" stroke="midnightblue" d="M782.61,-56.18C680.26,-33.93 651.33,-39.95 553,-20 549.97,-19.39 546.81,-18.68 543.68,-17.95"/>
<polygon fill="midnightblue" stroke="midnightblue" points="781.89,-59.61 792.41,-58.35 783.4,-52.77 781.89,-59.61"/>
</g>
<!-- Node23&#45;&gt;Node17 -->
<g id="edge31" class="edge">
<title>Node23&#45;&gt;Node17</title>
<path fill="none" stroke="midnightblue" d="M830.33,-49.25C840.26,-39.67 852.59,-27.79 860.84,-19.83"/>
<polygon fill="midnightblue" stroke="midnightblue" points="827.77,-46.86 823,-56.32 832.63,-51.9 827.77,-46.86"/>
</g>
</g>
</svg>
        <g id="navigator" transform="translate(0 0)" fill="#404254">
                <rect fill="#f2f5e9" fill-opacity="0.5" stroke="#606060" stroke-width=".5" x="0" y="0" width="60" height="60"/>
                <use id="zoomplus" xlink:href="#zoomPlus" x="17" y="9" onmousedown="handleZoom(evt,'in')"/>
                <use id="zoomminus" xlink:href="#zoomMin" x="42" y="9" onmousedown="handleZoom(evt,'out')"/>
                <use id="reset" xlink:href="#resetDef" x="30" y="36" onmousedown="handleReset()"/>
                <g id="arrowUp" xlink:href="#dirArrow" transform="translate(30 24)" onmousedown="handlePan(0,-1)">
                  <use xlink:href="#rim" fill="#404040">
                        <set attributeName="fill" to="#808080" begin="arrowUp.mouseover" end="arrowUp.mouseout"/>
                  </use>
                  <path fill="none" stroke="white" stroke-width="1.5" d="M0,-3.0v7 M-2.5,-0.5L0,-3.0L2.5,-0.5"/>
                </g>
                <g id="arrowRight" xlink:href="#dirArrow" transform="rotate(90) translate(36 -43)" onmousedown="handlePan(1,0)">
                  <use xlink:href="#rim" fill="#404040">
                        <set attributeName="fill" to="#808080" begin="arrowRight.mouseover" end="arrowRight.mouseout"/>
                  </use>
                  <path fill="none" stroke="white" stroke-width="1.5" d="M0,-3.0v7 M-2.5,-0.5L0,-3.0L2.5,-0.5"/>
                </g>
                <g id="arrowDown" xlink:href="#dirArrow" transform="rotate(180) translate(-30 -48)" onmousedown="handlePan(0,1)">
                  <use xlink:href="#rim" fill="#404040">
                        <set attributeName="fill" to="#808080" begin="arrowDown.mouseover" end="arrowDown.mouseout"/>
                  </use>
                  <path fill="none" stroke="white" stroke-width="1.5" d="M0,-3.0v7 M-2.5,-0.5L0,-3.0L2.5,-0.5"/>
                </g>
                <g id="arrowLeft" xlink:href="#dirArrow" transform="rotate(270) translate(-36 17)" onmousedown="handlePan(-1,0)">
                  <use xlink:href="#rim" fill="#404040">
                        <set attributeName="fill" to="#808080" begin="arrowLeft.mouseover" end="arrowLeft.mouseout"/>
                  </use>
                  <path fill="none" stroke="white" stroke-width="1.5" d="M0,-3.0v7 M-2.5,-0.5L0,-3.0L2.5,-0.5"/>
                </g>
        </g>
        <svg viewBox="0 0 15 15" width="100%" height="30px" preserveAspectRatio="xMaxYMin meet">
         <g id="arrow_out" transform="scale(0.3 0.3)">
          <a xlink:href="Sub_8h__dep__incl_org.svg" target="_base">
           <rect id="button" ry="5" rx="5" y="6" x="6" height="38" width="38"
                fill="#f2f5e9" fill-opacity="0.5" stroke="#606060" stroke-width="1.0"/>
           <path id="arrow"
             d="M 11.500037,31.436501 C 11.940474,20.09759 22.043105,11.32322 32.158766,21.979434 L 37.068811,17.246167 C 37.068811,17.246167 37.088388,32 37.088388,32 L 22.160133,31.978069 C 22.160133,31.978069 26.997745,27.140456 26.997745,27.140456 C 18.528582,18.264221 13.291696,25.230495 11.500037,31.436501 z"
             style="fill:#404040;"/>
          </a>
         </g>
        </svg>
</svg>
