<?xml version="1.0" encoding="UTF-8" standalone="no"?>
<!DOCTYPE svg PUBLIC "-//W3C//DTD SVG 1.1//EN"
 "http://www.w3.org/Graphics/SVG/1.1/DTD/svg11.dtd">
<!-- Generated by graphviz version 6.0.1 (0)
 -->
<!-- Title: PureFluidPhase.cpp Pages: 1 -->
<svg width="795pt" height="478pt"
 viewBox="0.00 0.00 794.50 478.00" xmlns="http://www.w3.org/2000/svg" xmlns:xlink="http://www.w3.org/1999/xlink">
<g id="graph0" class="graph" transform="scale(1 1) rotate(0) translate(4 474)">
<title>PureFluidPhase.cpp</title>
<!-- Node1 -->
<g id="Node000001" class="node">
<title>Node1</title>
<g id="a_Node000001"><a xlink:title="Definitions for a ThermoPhase object for a pure fluid phase consisting of gas, liquid,...">
<polygon fill="#999999" stroke="#666666" points="644.5,-470 540.5,-470 540.5,-451 644.5,-451 644.5,-470"/>
<text text-anchor="middle" x="592.5" y="-458" font-family="Helvetica,sans-Serif" font-size="10.00">PureFluidPhase.cpp</text>
</a>
</g>
</g>
<!-- Node2 -->
<g id="Node000002" class="node">
<title>Node2</title>
<g id="a_Node000002"><a xlink:href="../../dd/d2d/PureFluidPhase_8h.html" target="_top" xlink:title="Header for a ThermoPhase class for a pure fluid phase consisting of gas, liquid, mixed&#45;gas&#45;liquid and...">
<polygon fill="white" stroke="#666666" points="450.5,-415 324.5,-415 324.5,-385 450.5,-385 450.5,-415"/>
<text text-anchor="start" x="332.5" y="-403" font-family="Helvetica,sans-Serif" font-size="10.00">cantera/thermo/PureFluid</text>
<text text-anchor="middle" x="387.5" y="-392" font-family="Helvetica,sans-Serif" font-size="10.00">Phase.h</text>
</a>
</g>
</g>
<!-- Node1&#45;&gt;Node2 -->
<g id="edge1_Node000001_Node000002" class="edge">
<title>Node1&#45;&gt;Node2</title>
<g id="a_edge1_Node000001_Node000002"><a xlink:title=" ">
<path fill="none" stroke="#63b8ff" d="M562.69,-450.99C532.42,-442.35 484.71,-428.74 446.72,-417.9"/>
<polygon fill="#63b8ff" stroke="#63b8ff" points="447.36,-414.44 436.78,-415.06 445.44,-421.17 447.36,-414.44"/>
</a>
</g>
</g>
<!-- Node33 -->
<g id="Node000033" class="node">
<title>Node33</title>
<g id="a_Node000033"><a xlink:href="../../d5/d68/Sub_8h.html" target="_top" xlink:title=" ">
<polygon fill="white" stroke="#666666" points="582.5,-349 488.5,-349 488.5,-330 582.5,-330 582.5,-349"/>
<text text-anchor="middle" x="535.5" y="-337" font-family="Helvetica,sans-Serif" font-size="10.00">cantera/tpx/Sub.h</text>
</a>
</g>
</g>
<!-- Node1&#45;&gt;Node33 -->
<g id="edge25_Node000001_Node000033" class="edge">
<title>Node1&#45;&gt;Node33</title>
<g id="a_edge25_Node000001_Node000033"><a xlink:title=" ">
<path fill="none" stroke="#63b8ff" d="M591.58,-450.78C589.78,-436.38 584.93,-407.04 573.5,-385 568.03,-374.45 559.62,-364.25 552.11,-356.28"/>
<polygon fill="#63b8ff" stroke="#63b8ff" points="554.55,-353.77 545.03,-349.12 549.57,-358.69 554.55,-353.77"/>
</a>
</g>
</g>
<!-- Node34 -->
<g id="Node000034" class="node">
<title>Node34</title>
<g id="a_Node000034"><a xlink:href="../../d5/d60/utils_8h.html" target="_top" xlink:title=" ">
<polygon fill="white" stroke="#666666" points="564,-409.5 469,-409.5 469,-390.5 564,-390.5 564,-409.5"/>
<text text-anchor="middle" x="516.5" y="-397.5" font-family="Helvetica,sans-Serif" font-size="10.00">cantera/tpx/utils.h</text>
</a>
</g>
</g>
<!-- Node1&#45;&gt;Node34 -->
<g id="edge26_Node000001_Node000034" class="edge">
<title>Node1&#45;&gt;Node34</title>
<g id="a_edge26_Node000001_Node000034"><a xlink:title=" ">
<path fill="none" stroke="#63b8ff" d="M581.29,-450.87C569.39,-441.71 550.36,-427.06 535.99,-416.01"/>
<polygon fill="#63b8ff" stroke="#63b8ff" points="537.82,-412.99 527.76,-409.67 533.55,-418.54 537.82,-412.99"/>
</a>
</g>
</g>
<!-- Node35 -->
<g id="Node000035" class="node">
<title>Node35</title>
<g id="a_Node000035"><a xlink:href="../../dd/dc3/stringUtils_8h.html" target="_top" xlink:title="Contains declarations for string manipulation functions within Cantera.">
<polygon fill="white" stroke="#666666" points="786.5,-294 658.5,-294 658.5,-275 786.5,-275 786.5,-294"/>
<text text-anchor="middle" x="722.5" y="-282" font-family="Helvetica,sans-Serif" font-size="10.00">cantera/base/stringUtils.h</text>
</a>
</g>
</g>
<!-- Node1&#45;&gt;Node35 -->
<g id="edge28_Node000001_Node000035" class="edge">
<title>Node1&#45;&gt;Node35</title>
<g id="a_edge28_Node000001_Node000035"><a xlink:title=" ">
<path fill="none" stroke="#63b8ff" d="M604.62,-450.91C615.83,-442.58 632.52,-429.15 644.5,-415 675.04,-378.93 701.21,-329.52 714.05,-303.39"/>
<polygon fill="#63b8ff" stroke="#63b8ff" points="717.24,-304.83 718.43,-294.3 710.94,-301.79 717.24,-304.83"/>
</a>
</g>
</g>
<!-- Node36 -->
<g id="Node000036" class="node">
<title>Node36</title>
<g id="a_Node000036"><a xlink:href="../../d2/d49/global_8h.html" target="_top" xlink:title="This file contains definitions for utility functions and text for modules, inputfiles and logging,...">
<polygon fill="white" stroke="#666666" points="689.5,-129 579.5,-129 579.5,-110 689.5,-110 689.5,-129"/>
<text text-anchor="middle" x="634.5" y="-117" font-family="Helvetica,sans-Serif" font-size="10.00">cantera/base/global.h</text>
</a>
</g>
</g>
<!-- Node1&#45;&gt;Node36 -->
<g id="edge30_Node000001_Node000036" class="edge">
<title>Node1&#45;&gt;Node36</title>
<g id="a_edge30_Node000001_Node000036"><a xlink:title=" ">
<path fill="none" stroke="#63b8ff" d="M597.31,-450.85C607.54,-431.63 630.5,-383.66 630.5,-340.5 630.5,-340.5 630.5,-340.5 630.5,-228.5 630.5,-197.17 632.2,-160.76 633.39,-139.23"/>
<polygon fill="#63b8ff" stroke="#63b8ff" points="636.88,-139.36 633.96,-129.18 629.9,-138.96 636.88,-139.36"/>
</a>
</g>
</g>
<!-- Node3 -->
<g id="Node000003" class="node">
<title>Node3</title>
<g id="a_Node000003"><a xlink:href="../../d7/d01/ThermoPhase_8h.html" target="_top" xlink:title="Header file for class ThermoPhase, the base class for phases with thermodynamic properties,...">
<polygon fill="white" stroke="#666666" points="398.5,-349 312.5,-349 312.5,-330 398.5,-330 398.5,-349"/>
<text text-anchor="middle" x="355.5" y="-337" font-family="Helvetica,sans-Serif" font-size="10.00">ThermoPhase.h</text>
</a>
</g>
</g>
<!-- Node2&#45;&gt;Node3 -->
<g id="edge2_Node000002_Node000003" class="edge">
<title>Node2&#45;&gt;Node3</title>
<g id="a_edge2_Node000002_Node000003"><a xlink:title=" ">
<path fill="none" stroke="#63b8ff" d="M379.75,-384.84C375.35,-376.78 369.79,-366.62 365.1,-358.06"/>
<polygon fill="#63b8ff" stroke="#63b8ff" points="368.16,-356.36 360.3,-349.27 362.02,-359.72 368.16,-356.36"/>
</a>
</g>
</g>
<!-- Node2&#45;&gt;Node33 -->
<g id="edge23_Node000002_Node000033" class="edge">
<title>Node2&#45;&gt;Node33</title>
<g id="a_edge23_Node000002_Node000033"><a xlink:title=" ">
<path fill="none" stroke="#63b8ff" d="M422.95,-384.99C447.64,-375.23 480.28,-362.33 504.05,-352.93"/>
<polygon fill="#63b8ff" stroke="#63b8ff" points="505.63,-356.07 513.64,-349.14 503.06,-349.56 505.63,-356.07"/>
</a>
</g>
</g>
<!-- Node4 -->
<g id="Node000004" class="node">
<title>Node4</title>
<g id="a_Node000004"><a xlink:href="../../da/d84/Phase_8h.html" target="_top" xlink:title="Header file for class Phase.">
<polygon fill="white" stroke="#666666" points="232,-184 179,-184 179,-165 232,-165 232,-184"/>
<text text-anchor="middle" x="205.5" y="-172" font-family="Helvetica,sans-Serif" font-size="10.00">Phase.h</text>
</a>
</g>
</g>
<!-- Node3&#45;&gt;Node4 -->
<g id="edge3_Node000003_Node000004" class="edge">
<title>Node3&#45;&gt;Node4</title>
<g id="a_edge3_Node000003_Node000004"><a xlink:title=" ">
<path fill="none" stroke="#63b8ff" d="M323.15,-329.86C302.72,-323.01 276.98,-311.59 259.5,-294 231.18,-265.5 216.16,-219.47 209.62,-193.98"/>
<polygon fill="#63b8ff" stroke="#63b8ff" points="212.99,-193.04 207.26,-184.13 206.19,-194.67 212.99,-193.04"/>
</a>
</g>
</g>
<!-- Node25 -->
<g id="Node000025" class="node">
<title>Node25</title>
<g id="a_Node000025"><a xlink:href="../../d6/d7a/MultiSpeciesThermo_8h.html" target="_top" xlink:title="Header for a general species thermodynamic property manager for a phase (see MultiSpeciesThermo).">
<polygon fill="white" stroke="#666666" points="504.5,-294 390.5,-294 390.5,-275 504.5,-275 504.5,-294"/>
<text text-anchor="middle" x="447.5" y="-282" font-family="Helvetica,sans-Serif" font-size="10.00">MultiSpeciesThermo.h</text>
</a>
</g>
</g>
<!-- Node3&#45;&gt;Node25 -->
<g id="edge12_Node000003_Node000025" class="edge">
<title>Node3&#45;&gt;Node25</title>
<g id="a_edge12_Node000003_Node000025"><a xlink:title=" ">
<path fill="none" stroke="#63b8ff" d="M370.28,-329.98C384.68,-321.69 406.81,-308.94 423.69,-299.22"/>
<polygon fill="#63b8ff" stroke="#63b8ff" points="425.53,-302.19 432.45,-294.17 422.04,-296.13 425.53,-302.19"/>
</a>
</g>
</g>
<!-- Node27 -->
<g id="Node000027" class="node">
<title>Node27</title>
<g id="a_Node000027"><a xlink:href="../../dd/d2a/AnyMap_8h.html" target="_top" xlink:title=" ">
<polygon fill="#fff0f0" stroke="red" points="421.5,-184 301.5,-184 301.5,-165 421.5,-165 421.5,-184"/>
<text text-anchor="middle" x="361.5" y="-172" font-family="Helvetica,sans-Serif" font-size="10.00">cantera/base/AnyMap.h</text>
</a>
</g>
</g>
<!-- Node3&#45;&gt;Node27 -->
<g id="edge22_Node000003_Node000027" class="edge">
<title>Node3&#45;&gt;Node27</title>
<g id="a_edge22_Node000003_Node000027"><a xlink:title=" ">
<path fill="none" stroke="#63b8ff" d="M355.82,-329.74C356.76,-304.31 359.49,-230.08 360.79,-194.69"/>
<polygon fill="#63b8ff" stroke="#63b8ff" points="364.31,-194.43 361.18,-184.31 357.31,-194.17 364.31,-194.43"/>
</a>
</g>
</g>
<!-- Node28 -->
<g id="Node000028" class="node">
<title>Node28</title>
<g id="a_Node000028"><a xlink:href="../../da/d58/Units_8h.html" target="_top" xlink:title="Header for unit conversion utilities, which are used to translate user input from input files (See In...">
<polygon fill="white" stroke="#666666" points="327,-129 220,-129 220,-110 327,-110 327,-129"/>
<text text-anchor="middle" x="273.5" y="-117" font-family="Helvetica,sans-Serif" font-size="10.00">cantera/base/Units.h</text>
</a>
</g>
</g>
<!-- Node3&#45;&gt;Node28 -->
<g id="edge21_Node000003_Node000028" class="edge">
<title>Node3&#45;&gt;Node28</title>
<g id="a_edge21_Node000003_Node000028"><a xlink:title=" ">
<path fill="none" stroke="#63b8ff" d="M351.65,-329.9C341.32,-306.66 312.44,-240.55 292.5,-184 287.23,-169.06 282.14,-151.82 278.55,-139.08"/>
<polygon fill="#63b8ff" stroke="#63b8ff" points="281.86,-137.92 275.82,-129.21 275.11,-139.78 281.86,-137.92"/>
</a>
</g>
</g>
<!-- Node5 -->
<g id="Node000005" class="node">
<title>Node5</title>
<g id="a_Node000005"><a xlink:href="../../db/d98/ctexceptions_8h.html" target="_top" xlink:title="Definitions for the classes that are thrown when Cantera experiences an error condition (also contain...">
<polygon fill="#fff0f0" stroke="red" points="523.5,-129 383.5,-129 383.5,-110 523.5,-110 523.5,-129"/>
<text text-anchor="middle" x="453.5" y="-117" font-family="Helvetica,sans-Serif" font-size="10.00">cantera/base/ctexceptions.h</text>
</a>
</g>
</g>
<!-- Node4&#45;&gt;Node5 -->
<g id="edge4_Node000004_Node000005" class="edge">
<title>Node4&#45;&gt;Node5</title>
<g id="a_edge4_Node000004_Node000005"><a xlink:title=" ">
<path fill="none" stroke="#63b8ff" d="M232.04,-167.83C272.92,-159.09 351.99,-142.19 403.75,-131.13"/>
<polygon fill="#63b8ff" stroke="#63b8ff" points="404.67,-134.52 413.71,-129 403.2,-127.67 404.67,-134.52"/>
</a>
</g>
</g>
<!-- Node22 -->
<g id="Node000022" class="node">
<title>Node22</title>
<g id="a_Node000022"><a xlink:href="../../d9/dda/Elements_8h.html" target="_top" xlink:title="Contains the getElementWeight function and the definitions of element constraint types.">
<polygon fill="white" stroke="#666666" points="289.5,-74 155.5,-74 155.5,-55 289.5,-55 289.5,-74"/>
<text text-anchor="middle" x="222.5" y="-62" font-family="Helvetica,sans-Serif" font-size="10.00">cantera/thermo/Elements.h</text>
</a>
</g>
</g>
<!-- Node4&#45;&gt;Node22 -->
<g id="edge8_Node000004_Node000022" class="edge">
<title>Node4&#45;&gt;Node22</title>
<g id="a_edge8_Node000004_Node000022"><a xlink:title=" ">
<path fill="none" stroke="#63b8ff" d="M205.68,-164.81C206.04,-152.52 207.15,-129.4 210.5,-110 212,-101.33 214.42,-91.89 216.7,-83.95"/>
<polygon fill="#63b8ff" stroke="#63b8ff" points="220.09,-84.84 219.62,-74.26 213.39,-82.82 220.09,-84.84"/>
</a>
</g>
</g>
<!-- Node23 -->
<g id="Node000023" class="node">
<title>Node23</title>
<g id="a_Node000023"><a xlink:href="../../d6/df6/ValueCache_8h.html" target="_top" xlink:title=" ">
<polygon fill="#fff0f0" stroke="red" points="137,-74 0,-74 0,-55 137,-55 137,-74"/>
<text text-anchor="middle" x="68.5" y="-62" font-family="Helvetica,sans-Serif" font-size="10.00">cantera/base/ValueCache.h</text>
</a>
</g>
</g>
<!-- Node4&#45;&gt;Node23 -->
<g id="edge10_Node000004_Node000023" class="edge">
<title>Node4&#45;&gt;Node23</title>
<g id="a_edge10_Node000004_Node000023"><a xlink:title=" ">
<path fill="none" stroke="#63b8ff" d="M194.29,-164.66C170.89,-146.22 116.63,-103.45 87.62,-80.57"/>
<polygon fill="#63b8ff" stroke="#63b8ff" points="89.5,-77.6 79.48,-74.16 85.17,-83.1 89.5,-77.6"/>
</a>
</g>
</g>
<!-- Node6 -->
<g id="Node000006" class="node">
<title>Node6</title>
<g id="a_Node000006"><a xlink:href="../../d9/ddc/ct__defs_8h.html" target="_top" xlink:title="This file contains definitions of constants, types and terms that are used in internal routines and a...">
<polygon fill="#fff0f0" stroke="red" points="482,-19 425,-19 425,0 482,0 482,-19"/>
<text text-anchor="middle" x="453.5" y="-7" font-family="Helvetica,sans-Serif" font-size="10.00">ct_defs.h</text>
</a>
</g>
</g>
<!-- Node5&#45;&gt;Node6 -->
<g id="edge5_Node000005_Node000006" class="edge">
<title>Node5&#45;&gt;Node6</title>
<g id="a_edge5_Node000005_Node000006"><a xlink:title=" ">
<path fill="none" stroke="#63b8ff" d="M453.5,-109.66C453.5,-92.17 453.5,-52.8 453.5,-29.27"/>
<polygon fill="#63b8ff" stroke="#63b8ff" points="457,-29.16 453.5,-19.16 450,-29.16 457,-29.16"/>
</a>
</g>
</g>
<!-- Node17 -->
<g id="Node000017" class="node">
<title>Node17</title>
<g id="a_Node000017"><a xlink:href="../../db/def/fmt_8h.html" target="_top" xlink:title="Wrapper for either system&#45;installed or local headers for fmt.">
<polygon fill="#fff0f0" stroke="red" points="635.5,-74 537.5,-74 537.5,-55 635.5,-55 635.5,-74"/>
<text text-anchor="middle" x="586.5" y="-62" font-family="Helvetica,sans-Serif" font-size="10.00">cantera/base/fmt.h</text>
</a>
</g>
</g>
<!-- Node5&#45;&gt;Node17 -->
<g id="edge6_Node000005_Node000017" class="edge">
<title>Node5&#45;&gt;Node17</title>
<g id="a_edge6_Node000005_Node000017"><a xlink:title=" ">
<path fill="none" stroke="#63b8ff" d="M474.87,-109.98C496.65,-101.3 530.66,-87.75 555.42,-77.88"/>
<polygon fill="#63b8ff" stroke="#63b8ff" points="556.75,-81.12 564.74,-74.17 554.16,-74.62 556.75,-81.12"/>
</a>
</g>
</g>
<!-- Node17&#45;&gt;Node6 -->
<g id="edge7_Node000017_Node000006" class="edge">
<title>Node17&#45;&gt;Node6</title>
<g id="a_edge7_Node000017_Node000006"><a xlink:title=" ">
<path fill="none" stroke="#63b8ff" d="M565.13,-54.98C543.35,-46.3 509.34,-32.75 484.58,-22.88"/>
<polygon fill="#63b8ff" stroke="#63b8ff" points="485.84,-19.62 475.26,-19.17 483.25,-26.12 485.84,-19.62"/>
</a>
</g>
</g>
<!-- Node22&#45;&gt;Node6 -->
<g id="edge9_Node000022_Node000006" class="edge">
<title>Node22&#45;&gt;Node6</title>
<g id="a_edge9_Node000022_Node000006"><a xlink:title=" ">
<path fill="none" stroke="#63b8ff" d="M259.61,-54.98C302.24,-45.21 371.83,-29.24 415.02,-19.33"/>
<polygon fill="#63b8ff" stroke="#63b8ff" points="415.9,-22.72 424.87,-17.07 414.34,-15.89 415.9,-22.72"/>
</a>
</g>
</g>
<!-- Node23&#45;&gt;Node6 -->
<g id="edge11_Node000023_Node000006" class="edge">
<title>Node23&#45;&gt;Node6</title>
<g id="a_edge11_Node000023_Node000006"><a xlink:title=" ">
<path fill="none" stroke="#63b8ff" d="M130.36,-54.98C210.46,-43.96 347.7,-25.06 414.58,-15.86"/>
<polygon fill="#63b8ff" stroke="#63b8ff" points="415.26,-19.3 424.69,-14.47 414.3,-12.36 415.26,-19.3"/>
</a>
</g>
</g>
<!-- Node26 -->
<g id="Node000026" class="node">
<title>Node26</title>
<g id="a_Node000026"><a xlink:href="../../d4/d87/SpeciesThermoInterpType_8h.html" target="_top" xlink:title="Pure Virtual Base class for individual species reference state thermodynamic managers and text for th...">
<polygon fill="white" stroke="#666666" points="523,-239 384,-239 384,-220 523,-220 523,-239"/>
<text text-anchor="middle" x="453.5" y="-227" font-family="Helvetica,sans-Serif" font-size="10.00">SpeciesThermoInterpType.h</text>
</a>
</g>
</g>
<!-- Node25&#45;&gt;Node26 -->
<g id="edge13_Node000025_Node000026" class="edge">
<title>Node25&#45;&gt;Node26</title>
<g id="a_edge13_Node000025_Node000026"><a xlink:title=" ">
<path fill="none" stroke="#63b8ff" d="M448.49,-274.75C449.28,-267.8 450.4,-257.85 451.39,-249.13"/>
<polygon fill="#63b8ff" stroke="#63b8ff" points="454.88,-249.42 452.53,-239.09 447.92,-248.63 454.88,-249.42"/>
</a>
</g>
</g>
<!-- Node26&#45;&gt;Node5 -->
<g id="edge15_Node000026_Node000005" class="edge">
<title>Node26&#45;&gt;Node5</title>
<g id="a_edge15_Node000026_Node000005"><a xlink:title=" ">
<path fill="none" stroke="#63b8ff" d="M453.5,-219.66C453.5,-202.17 453.5,-162.8 453.5,-139.27"/>
<polygon fill="#63b8ff" stroke="#63b8ff" points="457,-139.16 453.5,-129.16 450,-139.16 457,-139.16"/>
</a>
</g>
</g>
<!-- Node26&#45;&gt;Node6 -->
<g id="edge14_Node000026_Node000006" class="edge">
<title>Node26&#45;&gt;Node6</title>
<g id="a_edge14_Node000026_Node000006"><a xlink:title=" ">
<path fill="none" stroke="#63b8ff" d="M463.79,-219.96C481.87,-204.21 518.7,-168.57 532.5,-129 547.03,-87.32 502.88,-46.14 474.82,-25.04"/>
<polygon fill="#63b8ff" stroke="#63b8ff" points="476.86,-22.19 466.71,-19.15 472.75,-27.86 476.86,-22.19"/>
</a>
</g>
</g>
<!-- Node26&#45;&gt;Node27 -->
<g id="edge16_Node000026_Node000027" class="edge">
<title>Node26&#45;&gt;Node27</title>
<g id="a_edge16_Node000026_Node000027"><a xlink:title=" ">
<path fill="none" stroke="#63b8ff" d="M438.72,-219.98C424.32,-211.69 402.19,-198.94 385.31,-189.22"/>
<polygon fill="#63b8ff" stroke="#63b8ff" points="386.96,-186.13 376.55,-184.17 383.47,-192.19 386.96,-186.13"/>
</a>
</g>
</g>
<!-- Node27&#45;&gt;Node5 -->
<g id="edge18_Node000027_Node000005" class="edge">
<title>Node27&#45;&gt;Node5</title>
<g id="a_edge18_Node000027_Node000005"><a xlink:title=" ">
<path fill="none" stroke="#63b8ff" d="M376.28,-164.98C390.68,-156.69 412.81,-143.94 429.69,-134.22"/>
<polygon fill="#63b8ff" stroke="#63b8ff" points="431.53,-137.19 438.45,-129.17 428.04,-131.13 431.53,-137.19"/>
</a>
</g>
</g>
<!-- Node27&#45;&gt;Node6 -->
<g id="edge17_Node000027_Node000006" class="edge">
<title>Node27&#45;&gt;Node6</title>
<g id="a_edge17_Node000027_Node000006"><a xlink:title=" ">
<path fill="none" stroke="#63b8ff" d="M361.99,-164.89C362.99,-152.29 365.94,-128.36 374.5,-110 390.01,-76.74 418.73,-44.69 436.94,-26.32"/>
<polygon fill="#63b8ff" stroke="#63b8ff" points="439.59,-28.62 444.25,-19.1 434.67,-23.63 439.59,-28.62"/>
</a>
</g>
</g>
<!-- Node27&#45;&gt;Node28 -->
<g id="edge19_Node000027_Node000028" class="edge">
<title>Node27&#45;&gt;Node28</title>
<g id="a_edge19_Node000027_Node000028"><a xlink:title=" ">
<path fill="none" stroke="#63b8ff" d="M347.36,-164.98C333.71,-156.77 312.81,-144.18 296.72,-134.49"/>
<polygon fill="#63b8ff" stroke="#63b8ff" points="298.27,-131.33 287.9,-129.17 294.66,-137.33 298.27,-131.33"/>
</a>
</g>
</g>
<!-- Node28&#45;&gt;Node6 -->
<g id="edge20_Node000028_Node000006" class="edge">
<title>Node28&#45;&gt;Node6</title>
<g id="a_edge20_Node000028_Node000006"><a xlink:title=" ">
<path fill="none" stroke="#63b8ff" d="M281.04,-109.59C292.77,-96.19 316.67,-70.73 341.5,-55 364.44,-40.47 392.91,-29.23 415.4,-21.69"/>
<polygon fill="#63b8ff" stroke="#63b8ff" points="416.53,-25 424.96,-18.58 414.37,-18.34 416.53,-25"/>
</a>
</g>
</g>
<!-- Node33&#45;&gt;Node5 -->
<g id="edge24_Node000033_Node000005" class="edge">
<title>Node33&#45;&gt;Node5</title>
<g id="a_edge24_Node000033_Node000005"><a xlink:title=" ">
<path fill="none" stroke="#63b8ff" d="M537.1,-329.83C540.41,-309.76 546.61,-258.88 532.5,-220 519.99,-185.53 490.41,-153.87 471.21,-135.9"/>
<polygon fill="#63b8ff" stroke="#63b8ff" points="473.45,-133.21 463.69,-129.08 468.74,-138.39 473.45,-133.21"/>
</a>
</g>
</g>
<!-- Node34&#45;&gt;Node33 -->
<g id="edge27_Node000034_Node000033" class="edge">
<title>Node34&#45;&gt;Node33</title>
<g id="a_edge27_Node000034_Node000033"><a xlink:title=" ">
<path fill="none" stroke="#63b8ff" d="M519.3,-390.37C522,-382.07 526.15,-369.28 529.58,-358.72"/>
<polygon fill="#63b8ff" stroke="#63b8ff" points="532.92,-359.76 532.68,-349.17 526.27,-357.6 532.92,-359.76"/>
</a>
</g>
</g>
<!-- Node35&#45;&gt;Node6 -->
<g id="edge29_Node000035_Node000006" class="edge">
<title>Node35&#45;&gt;Node6</title>
<g id="a_edge29_Node000035_Node000006"><a xlink:title=" ">
<path fill="none" stroke="#63b8ff" d="M722.1,-274.82C721.28,-256.49 719.5,-212.45 719.5,-175.5 719.5,-175.5 719.5,-175.5 719.5,-118.5 719.5,-79.98 693.99,-74.04 660.5,-55 607.36,-24.79 535.92,-15.05 492.37,-11.93"/>
<polygon fill="#63b8ff" stroke="#63b8ff" points="492.39,-8.43 482.19,-11.29 491.95,-15.42 492.39,-8.43"/>
</a>
</g>
</g>
<!-- Node36&#45;&gt;Node6 -->
<g id="edge31_Node000036_Node000006" class="edge">
<title>Node36&#45;&gt;Node6</title>
<g id="a_edge31_Node000036_Node000006"><a xlink:title=" ">
<path fill="none" stroke="#63b8ff" d="M639.69,-109.64C646.75,-96.29 657.13,-70.91 644.5,-55 625.87,-31.54 542.6,-19.3 492.36,-13.95"/>
<polygon fill="#63b8ff" stroke="#63b8ff" points="492.48,-10.44 482.17,-12.91 491.77,-17.41 492.48,-10.44"/>
</a>
</g>
</g>
<!-- Node36&#45;&gt;Node17 -->
<g id="edge32_Node000036_Node000017" class="edge">
<title>Node36&#45;&gt;Node17</title>
<g id="a_edge32_Node000036_Node000017"><a xlink:title=" ">
<path fill="none" stroke="#63b8ff" d="M626.57,-109.75C619.65,-102.11 609.43,-90.82 601.05,-81.56"/>
<polygon fill="#63b8ff" stroke="#63b8ff" points="603.59,-79.15 594.28,-74.09 598.4,-83.85 603.59,-79.15"/>
</a>
</g>
</g>
</g>
</svg>
