<?xml version="1.0" encoding="UTF-8" standalone="no"?>
<!DOCTYPE svg PUBLIC "-//W3C//DTD SVG 1.1//EN"
 "http://www.w3.org/Graphics/SVG/1.1/DTD/svg11.dtd">
<!-- Generated by graphviz version 2.50.0 (0)
 -->
<!-- Title: NasaPoly2.h Pages: 1 -->
<svg width="747pt" height="431pt"
 viewBox="0.00 0.00 747.26 431.00" xmlns="http://www.w3.org/2000/svg" xmlns:xlink="http://www.w3.org/1999/xlink">
<g id="graph0" class="graph" transform="scale(1 1) rotate(0) translate(4 427)">
<title>NasaPoly2.h</title>
<polygon fill="white" stroke="transparent" points="-4,4 -4,-427 743.26,-427 743.26,4 -4,4"/>
<!-- Node1 -->
<g id="node1" class="node">
<title>Node1</title>
<g id="a_node1"><a xlink:title="Header for a single&#45;species standard state object derived from SpeciesThermoInterpType based on the N...">
<polygon fill="#bfbfbf" stroke="black" points="336.5,-403.5 336.5,-422.5 409.5,-422.5 409.5,-403.5 336.5,-403.5"/>
<text text-anchor="middle" x="373" y="-410.5" font-family="Helvetica,sans-Serif" font-size="10.00">NasaPoly2.h</text>
</a>
</g>
</g>
<!-- Node2 -->
<g id="node2" class="node">
<title>Node2</title>
<g id="a_node2"><a xlink:href="../../d4/d87/SpeciesThermoInterpType_8h.html" target="_top" xlink:title="Pure Virtual Base class for individual species reference state thermodynamic managers and text for th...">
<polygon fill="white" stroke="black" points="211.5,-280.5 211.5,-310.5 364.5,-310.5 364.5,-280.5 211.5,-280.5"/>
<text text-anchor="start" x="219.5" y="-298.5" font-family="Helvetica,sans-Serif" font-size="10.00">cantera/thermo/SpeciesThermo</text>
<text text-anchor="middle" x="288" y="-287.5" font-family="Helvetica,sans-Serif" font-size="10.00">InterpType.h</text>
</a>
</g>
</g>
<!-- Node1&#45;&gt;Node2 -->
<g id="edge1" class="edge">
<title>Node1&#45;&gt;Node2</title>
<path fill="none" stroke="midnightblue" d="M366.61,-403.32C353.5,-385.5 323.2,-344.32 304.28,-318.61"/>
<polygon fill="midnightblue" stroke="midnightblue" points="307.08,-316.52 298.34,-310.55 301.44,-320.67 307.08,-316.52"/>
</g>
<!-- Node24 -->
<g id="node24" class="node">
<title>Node24</title>
<g id="a_node24"><a xlink:href="../../d2/d2a/NasaPoly1_8h.html" target="_top" xlink:title="Header for a single&#45;species standard state object derived from SpeciesThermoInterpType based on the N...">
<polygon fill="white" stroke="black" points="370.5,-347.5 370.5,-366.5 511.5,-366.5 511.5,-347.5 370.5,-347.5"/>
<text text-anchor="middle" x="441" y="-354.5" font-family="Helvetica,sans-Serif" font-size="10.00">cantera/thermo/NasaPoly1.h</text>
</a>
</g>
</g>
<!-- Node1&#45;&gt;Node24 -->
<g id="edge28" class="edge">
<title>Node1&#45;&gt;Node24</title>
<path fill="none" stroke="midnightblue" d="M383.93,-403.32C394.17,-395.18 409.72,-382.84 422,-373.09"/>
<polygon fill="midnightblue" stroke="midnightblue" points="424.22,-375.79 429.88,-366.83 419.87,-370.31 424.22,-375.79"/>
</g>
<!-- Node3 -->
<g id="node3" class="node">
<title>Node3</title>
<g id="a_node3"><a xlink:href="../../d9/ddc/ct__defs_8h.html" target="_top" xlink:title="This file contains definitions of constants, types and terms that are used in internal routines and a...">
<polygon fill="white" stroke="black" points="336,-56.5 336,-75.5 452,-75.5 452,-56.5 336,-56.5"/>
<text text-anchor="middle" x="394" y="-63.5" font-family="Helvetica,sans-Serif" font-size="10.00">cantera/base/ct_defs.h</text>
</a>
</g>
</g>
<!-- Node2&#45;&gt;Node3 -->
<g id="edge2" class="edge">
<title>Node2&#45;&gt;Node3</title>
<path fill="none" stroke="midnightblue" d="M291.29,-280.47C299.1,-248.83 320.7,-170.14 355,-112 361.22,-101.45 370.04,-91.02 377.72,-82.87"/>
<polygon fill="midnightblue" stroke="midnightblue" points="380.39,-85.15 384.88,-75.55 375.38,-80.25 380.39,-85.15"/>
</g>
<!-- Node12 -->
<g id="node12" class="node">
<title>Node12</title>
<g id="a_node12"><a xlink:href="../../db/d98/ctexceptions_8h.html" target="_top" xlink:title="Definitions for the classes that are thrown when Cantera experiences an error condition (also contain...">
<polygon fill="white" stroke="black" points="168,-168.5 168,-187.5 308,-187.5 308,-168.5 168,-168.5"/>
<text text-anchor="middle" x="238" y="-175.5" font-family="Helvetica,sans-Serif" font-size="10.00">cantera/base/ctexceptions.h</text>
</a>
</g>
</g>
<!-- Node2&#45;&gt;Node12 -->
<g id="edge11" class="edge">
<title>Node2&#45;&gt;Node12</title>
<path fill="none" stroke="midnightblue" d="M281.87,-280.34C272.78,-259.34 255.73,-219.96 245.77,-196.96"/>
<polygon fill="midnightblue" stroke="midnightblue" points="248.94,-195.46 241.75,-187.67 242.51,-198.24 248.94,-195.46"/>
</g>
<!-- Node17 -->
<g id="node17" class="node">
<title>Node17</title>
<g id="a_node17"><a xlink:href="../../dd/d2a/AnyMap_8h.html" target="_top" xlink:title=" ">
<polygon fill="white" stroke="black" points="473,-224.5 473,-243.5 593,-243.5 593,-224.5 473,-224.5"/>
<text text-anchor="middle" x="533" y="-231.5" font-family="Helvetica,sans-Serif" font-size="10.00">cantera/base/AnyMap.h</text>
</a>
</g>
</g>
<!-- Node2&#45;&gt;Node17 -->
<g id="edge17" class="edge">
<title>Node2&#45;&gt;Node17</title>
<path fill="none" stroke="midnightblue" d="M345.75,-280.47C389.31,-269.9 448.2,-255.59 488.22,-245.87"/>
<polygon fill="midnightblue" stroke="midnightblue" points="489.08,-249.27 497.97,-243.51 487.43,-242.47 489.08,-249.27"/>
</g>
<!-- Node4 -->
<g id="node4" class="node">
<title>Node4</title>
<g id="a_node4"><a xlink:href="../../db/d16/config_8h_source.html" target="_top" xlink:title=" ">
<polygon fill="white" stroke="black" points="147.5,-0.5 147.5,-19.5 198.5,-19.5 198.5,-0.5 147.5,-0.5"/>
<text text-anchor="middle" x="173" y="-7.5" font-family="Helvetica,sans-Serif" font-size="10.00">config.h</text>
</a>
</g>
</g>
<!-- Node3&#45;&gt;Node4 -->
<g id="edge3" class="edge">
<title>Node3&#45;&gt;Node4</title>
<path fill="none" stroke="midnightblue" d="M357.96,-56.44C322.44,-47.97 266.37,-34.5 208.31,-20.05"/>
<polygon fill="midnightblue" stroke="midnightblue" points="209.15,-16.65 198.6,-17.63 207.46,-23.45 209.15,-16.65"/>
</g>
<!-- Node5 -->
<g id="node5" class="node">
<title>Node5</title>
<g id="a_node5"><a xlink:title=" ">
<polygon fill="white" stroke="#bfbfbf" points="217,-0.5 217,-19.5 261,-19.5 261,-0.5 217,-0.5"/>
<text text-anchor="middle" x="239" y="-7.5" font-family="Helvetica,sans-Serif" font-size="10.00">cmath</text>
</a>
</g>
</g>
<!-- Node3&#45;&gt;Node5 -->
<g id="edge4" class="edge">
<title>Node3&#45;&gt;Node5</title>
<path fill="none" stroke="midnightblue" d="M369.44,-56.44C342.87,-47.19 300.39,-32.39 271.17,-22.21"/>
<polygon fill="midnightblue" stroke="midnightblue" points="272.03,-18.8 261.43,-18.82 269.72,-25.41 272.03,-18.8"/>
</g>
<!-- Node6 -->
<g id="node6" class="node">
<title>Node6</title>
<g id="a_node6"><a xlink:title=" ">
<polygon fill="white" stroke="#bfbfbf" points="279.5,-0.5 279.5,-19.5 324.5,-19.5 324.5,-0.5 279.5,-0.5"/>
<text text-anchor="middle" x="302" y="-7.5" font-family="Helvetica,sans-Serif" font-size="10.00">cstdlib</text>
</a>
</g>
</g>
<!-- Node3&#45;&gt;Node6 -->
<g id="edge5" class="edge">
<title>Node3&#45;&gt;Node6</title>
<path fill="none" stroke="midnightblue" d="M379.22,-56.32C364.73,-47.82 342.43,-34.73 325.51,-24.8"/>
<polygon fill="midnightblue" stroke="midnightblue" points="327.14,-21.7 316.74,-19.65 323.6,-27.74 327.14,-21.7"/>
</g>
<!-- Node7 -->
<g id="node7" class="node">
<title>Node7</title>
<g id="a_node7"><a xlink:title=" ">
<polygon fill="white" stroke="#bfbfbf" points="343,-0.5 343,-19.5 387,-19.5 387,-0.5 343,-0.5"/>
<text text-anchor="middle" x="365" y="-7.5" font-family="Helvetica,sans-Serif" font-size="10.00">vector</text>
</a>
</g>
</g>
<!-- Node3&#45;&gt;Node7 -->
<g id="edge6" class="edge">
<title>Node3&#45;&gt;Node7</title>
<path fill="none" stroke="midnightblue" d="M389.21,-56.08C385.24,-48.69 379.47,-37.95 374.57,-28.81"/>
<polygon fill="midnightblue" stroke="midnightblue" points="377.51,-26.91 369.7,-19.75 371.35,-30.22 377.51,-26.91"/>
</g>
<!-- Node8 -->
<g id="node8" class="node">
<title>Node8</title>
<g id="a_node8"><a xlink:title=" ">
<polygon fill="white" stroke="#bfbfbf" points="405.5,-0.5 405.5,-19.5 440.5,-19.5 440.5,-0.5 405.5,-0.5"/>
<text text-anchor="middle" x="423" y="-7.5" font-family="Helvetica,sans-Serif" font-size="10.00">map</text>
</a>
</g>
</g>
<!-- Node3&#45;&gt;Node8 -->
<g id="edge7" class="edge">
<title>Node3&#45;&gt;Node8</title>
<path fill="none" stroke="midnightblue" d="M398.79,-56.08C402.76,-48.69 408.53,-37.95 413.43,-28.81"/>
<polygon fill="midnightblue" stroke="midnightblue" points="416.65,-30.22 418.3,-19.75 410.49,-26.91 416.65,-30.22"/>
</g>
<!-- Node9 -->
<g id="node9" class="node">
<title>Node9</title>
<g id="a_node9"><a xlink:title=" ">
<polygon fill="white" stroke="#bfbfbf" points="458.5,-0.5 458.5,-19.5 499.5,-19.5 499.5,-0.5 458.5,-0.5"/>
<text text-anchor="middle" x="479" y="-7.5" font-family="Helvetica,sans-Serif" font-size="10.00">string</text>
</a>
</g>
</g>
<!-- Node3&#45;&gt;Node9 -->
<g id="edge8" class="edge">
<title>Node3&#45;&gt;Node9</title>
<path fill="none" stroke="midnightblue" d="M407.66,-56.32C420.92,-47.9 441.27,-34.97 456.85,-25.07"/>
<polygon fill="midnightblue" stroke="midnightblue" points="458.81,-27.97 465.38,-19.65 455.06,-22.06 458.81,-27.97"/>
</g>
<!-- Node10 -->
<g id="node10" class="node">
<title>Node10</title>
<g id="a_node10"><a xlink:title=" ">
<polygon fill="white" stroke="#bfbfbf" points="518,-0.5 518,-19.5 574,-19.5 574,-0.5 518,-0.5"/>
<text text-anchor="middle" x="546" y="-7.5" font-family="Helvetica,sans-Serif" font-size="10.00">algorithm</text>
</a>
</g>
</g>
<!-- Node3&#45;&gt;Node10 -->
<g id="edge9" class="edge">
<title>Node3&#45;&gt;Node10</title>
<path fill="none" stroke="midnightblue" d="M418.08,-56.44C443.54,-47.4 483.89,-33.06 512.46,-22.92"/>
<polygon fill="midnightblue" stroke="midnightblue" points="513.78,-26.16 522.03,-19.52 511.43,-19.57 513.78,-26.16"/>
</g>
<!-- Node11 -->
<g id="node11" class="node">
<title>Node11</title>
<g id="a_node11"><a xlink:title=" ">
<polygon fill="white" stroke="#bfbfbf" points="592,-0.5 592,-19.5 644,-19.5 644,-0.5 592,-0.5"/>
<text text-anchor="middle" x="618" y="-7.5" font-family="Helvetica,sans-Serif" font-size="10.00">memory</text>
</a>
</g>
</g>
<!-- Node3&#45;&gt;Node11 -->
<g id="edge10" class="edge">
<title>Node3&#45;&gt;Node11</title>
<path fill="none" stroke="midnightblue" d="M430.63,-56.48C466.73,-48.04 523.71,-34.6 581.91,-20.24"/>
<polygon fill="midnightblue" stroke="midnightblue" points="582.77,-23.63 591.64,-17.83 581.09,-16.84 582.77,-23.63"/>
</g>
<!-- Node13 -->
<g id="node13" class="node">
<title>Node13</title>
<g id="a_node13"><a xlink:href="../../db/def/fmt_8h.html" target="_top" xlink:title="Wrapper for either system&#45;installed or local headers for fmt.">
<polygon fill="white" stroke="black" points="132,-112.5 132,-131.5 230,-131.5 230,-112.5 132,-112.5"/>
<text text-anchor="middle" x="181" y="-119.5" font-family="Helvetica,sans-Serif" font-size="10.00">cantera/base/fmt.h</text>
</a>
</g>
</g>
<!-- Node12&#45;&gt;Node13 -->
<g id="edge12" class="edge">
<title>Node12&#45;&gt;Node13</title>
<path fill="none" stroke="midnightblue" d="M228.84,-168.32C220.5,-160.42 207.97,-148.55 197.82,-138.94"/>
<polygon fill="midnightblue" stroke="midnightblue" points="199.99,-136.17 190.32,-131.83 195.18,-141.25 199.99,-136.17"/>
</g>
<!-- Node16 -->
<g id="node16" class="node">
<title>Node16</title>
<g id="a_node16"><a xlink:title=" ">
<polygon fill="white" stroke="#bfbfbf" points="248.5,-112.5 248.5,-131.5 307.5,-131.5 307.5,-112.5 248.5,-112.5"/>
<text text-anchor="middle" x="278" y="-119.5" font-family="Helvetica,sans-Serif" font-size="10.00">exception</text>
</a>
</g>
</g>
<!-- Node12&#45;&gt;Node16 -->
<g id="edge16" class="edge">
<title>Node12&#45;&gt;Node16</title>
<path fill="none" stroke="midnightblue" d="M244.61,-168.08C250.26,-160.46 258.54,-149.26 265.45,-139.94"/>
<polygon fill="midnightblue" stroke="midnightblue" points="268.38,-141.87 271.52,-131.75 262.75,-137.7 268.38,-141.87"/>
</g>
<!-- Node13&#45;&gt;Node3 -->
<g id="edge13" class="edge">
<title>Node13&#45;&gt;Node3</title>
<path fill="none" stroke="midnightblue" d="M214.75,-112.44C251.52,-103.12 310.45,-88.18 350.62,-78"/>
<polygon fill="midnightblue" stroke="midnightblue" points="351.57,-81.37 360.41,-75.52 349.85,-74.58 351.57,-81.37"/>
</g>
<!-- Node14 -->
<g id="node14" class="node">
<title>Node14</title>
<g id="a_node14"><a xlink:title=" ">
<polygon fill="white" stroke="#bfbfbf" points="0,-56.5 0,-75.5 122,-75.5 122,-56.5 0,-56.5"/>
<text text-anchor="middle" x="61" y="-63.5" font-family="Helvetica,sans-Serif" font-size="10.00">cantera/ext/fmt/format.h</text>
</a>
</g>
</g>
<!-- Node13&#45;&gt;Node14 -->
<g id="edge14" class="edge">
<title>Node13&#45;&gt;Node14</title>
<path fill="none" stroke="midnightblue" d="M161.99,-112.44C142.41,-103.64 111.69,-89.81 89.27,-79.72"/>
<polygon fill="midnightblue" stroke="midnightblue" points="90.48,-76.43 79.93,-75.52 87.61,-82.81 90.48,-76.43"/>
</g>
<!-- Node15 -->
<g id="node15" class="node">
<title>Node15</title>
<g id="a_node15"><a xlink:title=" ">
<polygon fill="white" stroke="#bfbfbf" points="140.5,-56.5 140.5,-75.5 269.5,-75.5 269.5,-56.5 140.5,-56.5"/>
<text text-anchor="middle" x="205" y="-63.5" font-family="Helvetica,sans-Serif" font-size="10.00">cantera/ext/fmt/ostream.h</text>
</a>
</g>
</g>
<!-- Node13&#45;&gt;Node15 -->
<g id="edge15" class="edge">
<title>Node13&#45;&gt;Node15</title>
<path fill="none" stroke="midnightblue" d="M184.96,-112.08C188.21,-104.77 192.92,-94.18 196.95,-85.1"/>
<polygon fill="midnightblue" stroke="midnightblue" points="200.25,-86.31 201.11,-75.75 193.85,-83.47 200.25,-86.31"/>
</g>
<!-- Node17&#45;&gt;Node3 -->
<g id="edge18" class="edge">
<title>Node17&#45;&gt;Node3</title>
<path fill="none" stroke="midnightblue" d="M593.2,-226.82C642.61,-220.36 706.97,-208.27 723,-188 743.95,-161.51 745.21,-137.45 723,-112 689.9,-74.07 548.84,-66.95 462.53,-66.25"/>
<polygon fill="midnightblue" stroke="midnightblue" points="462.3,-62.75 452.28,-66.2 462.26,-69.75 462.3,-62.75"/>
</g>
<!-- Node17&#45;&gt;Node12 -->
<g id="edge19" class="edge">
<title>Node17&#45;&gt;Node12</title>
<path fill="none" stroke="midnightblue" d="M486.26,-224.44C434.25,-214.92 350.25,-199.55 294.58,-189.36"/>
<polygon fill="midnightblue" stroke="midnightblue" points="294.99,-185.87 284.52,-187.52 293.73,-192.76 294.99,-185.87"/>
</g>
<!-- Node18 -->
<g id="node18" class="node">
<title>Node18</title>
<g id="a_node18"><a xlink:href="../../da/d58/Units_8h.html" target="_top" xlink:title="Header for unit conversion utilities, which are used to translate user input from input files (See In...">
<polygon fill="white" stroke="black" points="364.5,-112.5 364.5,-131.5 471.5,-131.5 471.5,-112.5 364.5,-112.5"/>
<text text-anchor="middle" x="418" y="-119.5" font-family="Helvetica,sans-Serif" font-size="10.00">cantera/base/Units.h</text>
</a>
</g>
</g>
<!-- Node17&#45;&gt;Node18 -->
<g id="edge20" class="edge">
<title>Node17&#45;&gt;Node18</title>
<path fill="none" stroke="midnightblue" d="M472.8,-229.55C443.74,-224.48 411.27,-213.07 393,-188 382.27,-173.27 392.84,-153.36 403.35,-139.47"/>
<polygon fill="midnightblue" stroke="midnightblue" points="406.08,-141.66 409.69,-131.7 400.66,-137.23 406.08,-141.66"/>
</g>
<!-- Node19 -->
<g id="node19" class="node">
<title>Node19</title>
<g id="a_node19"><a xlink:title=" ">
<polygon fill="white" stroke="#bfbfbf" points="402.5,-168.5 402.5,-187.5 485.5,-187.5 485.5,-168.5 402.5,-168.5"/>
<text text-anchor="middle" x="444" y="-175.5" font-family="Helvetica,sans-Serif" font-size="10.00">unordered_map</text>
</a>
</g>
</g>
<!-- Node17&#45;&gt;Node19 -->
<g id="edge22" class="edge">
<title>Node17&#45;&gt;Node19</title>
<path fill="none" stroke="midnightblue" d="M518.7,-224.32C504.82,-215.9 483.51,-202.97 467.2,-193.07"/>
<polygon fill="midnightblue" stroke="midnightblue" points="468.63,-189.85 458.26,-187.65 465,-195.83 468.63,-189.85"/>
</g>
<!-- Node20 -->
<g id="node20" class="node">
<title>Node20</title>
<g id="a_node20"><a xlink:title=" ">
<polygon fill="white" stroke="#bfbfbf" points="503.5,-168.5 503.5,-187.5 562.5,-187.5 562.5,-168.5 503.5,-168.5"/>
<text text-anchor="middle" x="533" y="-175.5" font-family="Helvetica,sans-Serif" font-size="10.00">functional</text>
</a>
</g>
</g>
<!-- Node17&#45;&gt;Node20 -->
<g id="edge23" class="edge">
<title>Node17&#45;&gt;Node20</title>
<path fill="none" stroke="midnightblue" d="M533,-224.08C533,-217.01 533,-206.86 533,-197.99"/>
<polygon fill="midnightblue" stroke="midnightblue" points="536.5,-197.75 533,-187.75 529.5,-197.75 536.5,-197.75"/>
</g>
<!-- Node21 -->
<g id="node21" class="node">
<title>Node21</title>
<g id="a_node21"><a xlink:href="../../da/d4c/AnyMap_8inl_8h.html" target="_top" xlink:title=" ">
<polygon fill="white" stroke="black" points="580.5,-168.5 580.5,-187.5 713.5,-187.5 713.5,-168.5 580.5,-168.5"/>
<text text-anchor="middle" x="647" y="-175.5" font-family="Helvetica,sans-Serif" font-size="10.00">cantera/base/AnyMap.inl.h</text>
</a>
</g>
</g>
<!-- Node17&#45;&gt;Node21 -->
<g id="edge24" class="edge">
<title>Node17&#45;&gt;Node21</title>
<path fill="none" stroke="midnightblue" d="M546.2,-224.32C562.91,-215.51 591.71,-201.75 614.35,-191.71"/>
<polygon fill="midnightblue" stroke="midnightblue" points="615.86,-194.87 623.62,-187.65 613.05,-188.45 615.86,-194.87"/>
</g>
<!-- Node18&#45;&gt;Node3 -->
<g id="edge21" class="edge">
<title>Node18&#45;&gt;Node3</title>
<path fill="none" stroke="midnightblue" d="M414.04,-112.08C410.79,-104.77 406.08,-94.18 402.05,-85.1"/>
<polygon fill="midnightblue" stroke="midnightblue" points="405.15,-83.47 397.89,-75.75 398.75,-86.31 405.15,-83.47"/>
</g>
<!-- Node21&#45;&gt;Node17 -->
<g id="edge25" class="edge">
<title>Node21&#45;&gt;Node17</title>
<path fill="none" stroke="midnightblue" d="M634.1,-187.52C617.4,-196.35 588.29,-210.26 565.48,-220.37"/>
<polygon fill="midnightblue" stroke="midnightblue" points="563.92,-217.23 556.15,-224.44 566.72,-223.65 563.92,-217.23"/>
</g>
<!-- Node22 -->
<g id="node22" class="node">
<title>Node22</title>
<g id="a_node22"><a xlink:title=" ">
<polygon fill="white" stroke="#bfbfbf" points="489.5,-112.5 489.5,-131.5 566.5,-131.5 566.5,-112.5 489.5,-112.5"/>
<text text-anchor="middle" x="528" y="-119.5" font-family="Helvetica,sans-Serif" font-size="10.00">boost/any.hpp</text>
</a>
</g>
</g>
<!-- Node21&#45;&gt;Node22 -->
<g id="edge26" class="edge">
<title>Node21&#45;&gt;Node22</title>
<path fill="none" stroke="midnightblue" d="M628.14,-168.44C608.73,-159.64 578.27,-145.81 556.04,-135.72"/>
<polygon fill="midnightblue" stroke="midnightblue" points="557.32,-132.46 546.77,-131.52 554.43,-138.84 557.32,-132.46"/>
</g>
<!-- Node23 -->
<g id="node23" class="node">
<title>Node23</title>
<g id="a_node23"><a xlink:title=" ">
<polygon fill="white" stroke="#bfbfbf" points="584.5,-112.5 584.5,-131.5 713.5,-131.5 713.5,-112.5 584.5,-112.5"/>
<text text-anchor="middle" x="649" y="-119.5" font-family="Helvetica,sans-Serif" font-size="10.00">boost/algorithm/string.hpp</text>
</a>
</g>
</g>
<!-- Node21&#45;&gt;Node23 -->
<g id="edge27" class="edge">
<title>Node21&#45;&gt;Node23</title>
<path fill="none" stroke="midnightblue" d="M647.33,-168.08C647.59,-161.01 647.97,-150.86 648.3,-141.99"/>
<polygon fill="midnightblue" stroke="midnightblue" points="651.8,-141.87 648.68,-131.75 644.81,-141.61 651.8,-141.87"/>
</g>
<!-- Node24&#45;&gt;Node2 -->
<g id="edge29" class="edge">
<title>Node24&#45;&gt;Node2</title>
<path fill="none" stroke="midnightblue" d="M419.08,-347.48C396.9,-338.85 361.96,-325.26 333.73,-314.29"/>
<polygon fill="midnightblue" stroke="midnightblue" points="334.65,-310.89 324.06,-310.52 332.11,-317.41 334.65,-310.89"/>
</g>
<!-- Node24&#45;&gt;Node17 -->
<g id="edge31" class="edge">
<title>Node24&#45;&gt;Node17</title>
<path fill="none" stroke="midnightblue" d="M488.33,-347.42C509.1,-341.05 531.55,-330.02 544,-311 555.26,-293.8 548.96,-269.74 542.17,-253.33"/>
<polygon fill="midnightblue" stroke="midnightblue" points="545.16,-251.44 537.82,-243.8 538.79,-254.35 545.16,-251.44"/>
</g>
<!-- Node25 -->
<g id="node25" class="node">
<title>Node25</title>
<g id="a_node25"><a xlink:href="../../d4/d0c/speciesThermoTypes_8h.html" target="_top" xlink:title="Contains const definitions for types of species reference&#45;state thermodynamics managers (see Species ...">
<polygon fill="white" stroke="black" points="383,-280.5 383,-310.5 535,-310.5 535,-280.5 383,-280.5"/>
<text text-anchor="start" x="391" y="-298.5" font-family="Helvetica,sans-Serif" font-size="10.00">cantera/thermo/speciesThermo</text>
<text text-anchor="middle" x="459" y="-287.5" font-family="Helvetica,sans-Serif" font-size="10.00">Types.h</text>
</a>
</g>
</g>
<!-- Node24&#45;&gt;Node25 -->
<g id="edge30" class="edge">
<title>Node24&#45;&gt;Node25</title>
<path fill="none" stroke="midnightblue" d="M443.58,-347.48C445.72,-340.4 448.87,-329.97 451.77,-320.39"/>
<polygon fill="midnightblue" stroke="midnightblue" points="455.21,-321.11 454.76,-310.52 448.51,-319.08 455.21,-321.11"/>
</g>
</g>
</svg>
