<?xml version="1.0" encoding="UTF-8" standalone="no"?>
<!DOCTYPE svg PUBLIC "-//W3C//DTD SVG 1.1//EN"
 "http://www.w3.org/Graphics/SVG/1.1/DTD/svg11.dtd">
<!-- Generated by graphviz version 2.50.0 (0)
 -->
<!-- Title: SingleSpeciesTP.h Pages: 1 -->
<svg width="460pt" height="140pt"
 viewBox="0.00 0.00 460.00 140.00" xmlns="http://www.w3.org/2000/svg" xmlns:xlink="http://www.w3.org/1999/xlink">
<g id="graph0" class="graph" transform="scale(1 1) rotate(0) translate(4 136)">
<title>SingleSpeciesTP.h</title>
<polygon fill="white" stroke="transparent" points="-4,4 -4,-136 456,-136 456,4 -4,4"/>
<!-- Node1 -->
<g id="node1" class="node">
<title>Node1</title>
<g id="a_node1"><a xlink:title="Header for the SingleSpeciesTP class, which is a filter class for ThermoPhase, that eases the constru...">
<polygon fill="#bfbfbf" stroke="black" points="129,-112.5 129,-131.5 227,-131.5 227,-112.5 129,-112.5"/>
<text text-anchor="middle" x="178" y="-119.5" font-family="Helvetica,sans-Serif" font-size="10.00">SingleSpeciesTP.h</text>
</a>
</g>
</g>
<!-- Node2 -->
<g id="node2" class="node">
<title>Node2</title>
<g id="a_node2"><a xlink:href="../../d4/df7/SingleSpeciesTP_8cpp.html" target="_top" xlink:title="Definitions for the SingleSpeciesTP class, which is a filter class for ThermoPhase,...">
<polygon fill="white" stroke="black" points="1.5,-56.5 1.5,-75.5 110.5,-75.5 110.5,-56.5 1.5,-56.5"/>
<text text-anchor="middle" x="56" y="-63.5" font-family="Helvetica,sans-Serif" font-size="10.00">SingleSpeciesTP.cpp</text>
</a>
</g>
</g>
<!-- Node1&#45;&gt;Node2 -->
<g id="edge1" class="edge">
<title>Node1&#45;&gt;Node2</title>
<path fill="none" stroke="midnightblue" d="M149.46,-108.37C126.61,-98.26 95.19,-84.35 75.24,-75.52"/>
<polygon fill="midnightblue" stroke="midnightblue" points="148.11,-111.6 158.67,-112.44 150.94,-105.2 148.11,-111.6"/>
</g>
<!-- Node3 -->
<g id="node3" class="node">
<title>Node3</title>
<g id="a_node3"><a xlink:href="../../d8/dfb/StoichSubstance_8h.html" target="_top" xlink:title="Header file for the StoichSubstance class, which represents a fixed&#45;composition incompressible substa...">
<polygon fill="white" stroke="black" points="128.5,-56.5 128.5,-75.5 227.5,-75.5 227.5,-56.5 128.5,-56.5"/>
<text text-anchor="middle" x="178" y="-63.5" font-family="Helvetica,sans-Serif" font-size="10.00">StoichSubstance.h</text>
</a>
</g>
</g>
<!-- Node1&#45;&gt;Node3 -->
<g id="edge2" class="edge">
<title>Node1&#45;&gt;Node3</title>
<path fill="none" stroke="midnightblue" d="M178,-101.8C178,-92.91 178,-82.78 178,-75.75"/>
<polygon fill="midnightblue" stroke="midnightblue" points="174.5,-102.08 178,-112.08 181.5,-102.08 174.5,-102.08"/>
</g>
<!-- Node6 -->
<g id="node6" class="node">
<title>Node6</title>
<g id="a_node6"><a xlink:href="../../dd/da3/WaterSSTP_8h.html" target="_top" xlink:title="Declares a ThermoPhase class consisting of pure water (see Thermodynamic Properties and class WaterSS...">
<polygon fill="white" stroke="black" points="248.5,-56.5 248.5,-75.5 323.5,-75.5 323.5,-56.5 248.5,-56.5"/>
<text text-anchor="middle" x="286" y="-63.5" font-family="Helvetica,sans-Serif" font-size="10.00">WaterSSTP.h</text>
</a>
</g>
</g>
<!-- Node1&#45;&gt;Node6 -->
<g id="edge5" class="edge">
<title>Node1&#45;&gt;Node6</title>
<path fill="none" stroke="midnightblue" d="M204.55,-107.73C224.55,-97.73 251.39,-84.31 268.69,-75.65"/>
<polygon fill="midnightblue" stroke="midnightblue" points="202.73,-104.72 195.35,-112.32 205.86,-110.98 202.73,-104.72"/>
</g>
<!-- Node4 -->
<g id="node4" class="node">
<title>Node4</title>
<g id="a_node4"><a xlink:href="../../d1/ddb/StoichSubstance_8cpp.html" target="_top" xlink:title="Definition file for the StoichSubstance class, which represents a fixed&#45;composition incompressible su...">
<polygon fill="white" stroke="black" points="0,-0.5 0,-19.5 110,-19.5 110,-0.5 0,-0.5"/>
<text text-anchor="middle" x="55" y="-7.5" font-family="Helvetica,sans-Serif" font-size="10.00">StoichSubstance.cpp</text>
</a>
</g>
</g>
<!-- Node3&#45;&gt;Node4 -->
<g id="edge3" class="edge">
<title>Node3&#45;&gt;Node4</title>
<path fill="none" stroke="midnightblue" d="M149.23,-52.37C126.19,-42.26 94.52,-28.35 74.4,-19.52"/>
<polygon fill="midnightblue" stroke="midnightblue" points="147.95,-55.63 158.51,-56.44 150.76,-49.22 147.95,-55.63"/>
</g>
<!-- Node5 -->
<g id="node5" class="node">
<title>Node5</title>
<g id="a_node5"><a xlink:href="../../d2/d3a/ThermoFactory_8cpp.html" target="_top" xlink:title="Definitions for the factory class that can create known ThermoPhase objects (see Thermodynamic Proper...">
<polygon fill="white" stroke="black" points="128,-0.5 128,-19.5 228,-19.5 228,-0.5 128,-0.5"/>
<text text-anchor="middle" x="178" y="-7.5" font-family="Helvetica,sans-Serif" font-size="10.00">ThermoFactory.cpp</text>
</a>
</g>
</g>
<!-- Node3&#45;&gt;Node5 -->
<g id="edge4" class="edge">
<title>Node3&#45;&gt;Node5</title>
<path fill="none" stroke="midnightblue" d="M178,-45.8C178,-36.91 178,-26.78 178,-19.75"/>
<polygon fill="midnightblue" stroke="midnightblue" points="174.5,-46.08 178,-56.08 181.5,-46.08 174.5,-46.08"/>
</g>
<!-- Node6&#45;&gt;Node5 -->
<g id="edge6" class="edge">
<title>Node6&#45;&gt;Node5</title>
<path fill="none" stroke="midnightblue" d="M259.45,-51.73C239.45,-41.73 212.61,-28.31 195.31,-19.65"/>
<polygon fill="midnightblue" stroke="midnightblue" points="258.14,-54.98 268.65,-56.32 261.27,-48.72 258.14,-54.98"/>
</g>
<!-- Node7 -->
<g id="node7" class="node">
<title>Node7</title>
<g id="a_node7"><a xlink:href="../../db/de5/WaterSSTP_8cpp.html" target="_top" xlink:title="Definitions for a ThermoPhase class consisting of pure water (see Thermodynamic Properties and class ...">
<polygon fill="white" stroke="black" points="246,-0.5 246,-19.5 332,-19.5 332,-0.5 246,-0.5"/>
<text text-anchor="middle" x="289" y="-7.5" font-family="Helvetica,sans-Serif" font-size="10.00">WaterSSTP.cpp</text>
</a>
</g>
</g>
<!-- Node6&#45;&gt;Node7 -->
<g id="edge7" class="edge">
<title>Node6&#45;&gt;Node7</title>
<path fill="none" stroke="midnightblue" d="M287.07,-45.8C287.56,-36.91 288.12,-26.78 288.51,-19.75"/>
<polygon fill="midnightblue" stroke="midnightblue" points="283.56,-45.9 286.5,-56.08 290.54,-46.29 283.56,-45.9"/>
</g>
<!-- Node8 -->
<g id="node8" class="node">
<title>Node8</title>
<g id="a_node8"><a xlink:href="../../d7/d8a/WaterTransport_8cpp.html" target="_top" xlink:title=" ">
<polygon fill="white" stroke="black" points="350,-0.5 350,-19.5 452,-19.5 452,-0.5 350,-0.5"/>
<text text-anchor="middle" x="401" y="-7.5" font-family="Helvetica,sans-Serif" font-size="10.00">WaterTransport.cpp</text>
</a>
</g>
</g>
<!-- Node6&#45;&gt;Node8 -->
<g id="edge8" class="edge">
<title>Node6&#45;&gt;Node8</title>
<path fill="none" stroke="midnightblue" d="M313.48,-52.1C334.97,-42.01 364.22,-28.27 382.86,-19.52"/>
<polygon fill="midnightblue" stroke="midnightblue" points="311.79,-49.02 304.22,-56.44 314.76,-55.36 311.79,-49.02"/>
</g>
</g>
</svg>
