<?xml version="1.0" encoding="UTF-8" standalone="no"?>
<!DOCTYPE svg PUBLIC "-//W3C//DTD SVG 1.1//EN"
 "http://www.w3.org/Graphics/SVG/1.1/DTD/svg11.dtd">
<!-- Generated by graphviz version 2.50.0 (0)
 -->
<!-- Title: WaterSSTP Pages: 1 -->
<svg width="367pt" height="298pt"
 viewBox="0.00 0.00 367.00 298.00" xmlns="http://www.w3.org/2000/svg" xmlns:xlink="http://www.w3.org/1999/xlink">
<g id="graph0" class="graph" transform="scale(1 1) rotate(0) translate(4 294)">
<title>WaterSSTP</title>
<polygon fill="white" stroke="transparent" points="-4,4 -4,-294 363,-294 363,4 -4,4"/>
<!-- Node1 -->
<g id="node1" class="node">
<title>Node1</title>
<g id="a_node1"><a xlink:title="Class for single&#45;component water.">
<polygon fill="#bfbfbf" stroke="black" points="210.5,-0.5 210.5,-19.5 278.5,-19.5 278.5,-0.5 210.5,-0.5"/>
<text text-anchor="middle" x="244.5" y="-7.5" font-family="Helvetica,sans-Serif" font-size="10.00">WaterSSTP</text>
</a>
</g>
</g>
<!-- Node2 -->
<g id="node2" class="node">
<title>Node2</title>
<g id="a_node2"><a xlink:href="../../db/d95/classCantera_1_1SingleSpeciesTP.html" target="_top" xlink:title="The SingleSpeciesTP class is a filter class for ThermoPhase.">
<polygon fill="white" stroke="black" points="141.5,-67.5 141.5,-86.5 233.5,-86.5 233.5,-67.5 141.5,-67.5"/>
<text text-anchor="middle" x="187.5" y="-74.5" font-family="Helvetica,sans-Serif" font-size="10.00">SingleSpeciesTP</text>
</a>
</g>
</g>
<!-- Node2&#45;&gt;Node1 -->
<g id="edge1" class="edge">
<title>Node2&#45;&gt;Node1</title>
<path fill="none" stroke="midnightblue" d="M201.85,-59.63C213,-46.92 228.02,-29.8 236.93,-19.63"/>
<polygon fill="midnightblue" stroke="midnightblue" points="199.15,-57.41 195.19,-67.23 204.41,-62.02 199.15,-57.41"/>
</g>
<!-- Node3 -->
<g id="node3" class="node">
<title>Node3</title>
<g id="a_node3"><a xlink:href="../../dc/d38/classCantera_1_1ThermoPhase.html" target="_top" xlink:title="Base class for a phase with thermodynamic properties.">
<polygon fill="white" stroke="black" points="149,-134.5 149,-153.5 226,-153.5 226,-134.5 149,-134.5"/>
<text text-anchor="middle" x="187.5" y="-141.5" font-family="Helvetica,sans-Serif" font-size="10.00">ThermoPhase</text>
</a>
</g>
</g>
<!-- Node3&#45;&gt;Node2 -->
<g id="edge2" class="edge">
<title>Node3&#45;&gt;Node2</title>
<path fill="none" stroke="midnightblue" d="M187.5,-124.04C187.5,-111.67 187.5,-96.12 187.5,-86.63"/>
<polygon fill="midnightblue" stroke="midnightblue" points="184,-124.23 187.5,-134.23 191,-124.23 184,-124.23"/>
</g>
<!-- Node4 -->
<g id="node4" class="node">
<title>Node4</title>
<g id="a_node4"><a xlink:href="../../d6/d0e/classCantera_1_1Phase.html" target="_top" xlink:title="Class Phase is the base class for phases of matter, managing the species and elements in a phase,...">
<polygon fill="white" stroke="black" points="72.5,-201.5 72.5,-220.5 116.5,-220.5 116.5,-201.5 72.5,-201.5"/>
<text text-anchor="middle" x="94.5" y="-208.5" font-family="Helvetica,sans-Serif" font-size="10.00">Phase</text>
</a>
</g>
</g>
<!-- Node4&#45;&gt;Node3 -->
<g id="edge3" class="edge">
<title>Node4&#45;&gt;Node3</title>
<path fill="none" stroke="midnightblue" d="M115.36,-195.42C133.75,-182.57 159.91,-164.28 175.16,-153.63"/>
<polygon fill="midnightblue" stroke="midnightblue" points="113.23,-192.64 107.04,-201.23 117.24,-198.37 113.23,-192.64"/>
</g>
<!-- Node5 -->
<g id="node5" class="node">
<title>Node5</title>
<g id="a_node5"><a xlink:href="../../d8/d89/classCantera_1_1ValueCache.html" target="_top" xlink:title=" ">
<polygon fill="white" stroke="black" points="0,-269.5 0,-288.5 69,-288.5 69,-269.5 0,-269.5"/>
<text text-anchor="middle" x="34.5" y="-276.5" font-family="Helvetica,sans-Serif" font-size="10.00">ValueCache</text>
</a>
</g>
</g>
<!-- Node5&#45;&gt;Node4 -->
<g id="edge4" class="edge">
<title>Node5&#45;&gt;Node4</title>
<path fill="none" stroke="#9a32cd" stroke-dasharray="5,2" d="M43.42,-260.45C47.48,-253.37 52.68,-245.38 58.5,-239 64.92,-231.96 73.4,-225.5 80.51,-220.66"/>
<polygon fill="#9a32cd" stroke="#9a32cd" points="40.31,-258.85 38.64,-269.31 46.47,-262.17 40.31,-258.85"/>
<text text-anchor="middle" x="80" y="-242" font-family="Helvetica,sans-Serif" font-size="10.00"> m_cache</text>
</g>
<!-- Node6 -->
<g id="node6" class="node">
<title>Node6</title>
<g id="a_node6"><a xlink:href="../../d1/d98/classCantera_1_1XML__Node.html" target="_top" xlink:title="Class XML_Node is a tree&#45;based representation of the contents of an XML file.">
<polygon fill="white" stroke="black" points="87,-269.5 87,-288.5 152,-288.5 152,-269.5 87,-269.5"/>
<text text-anchor="middle" x="119.5" y="-276.5" font-family="Helvetica,sans-Serif" font-size="10.00">XML_Node</text>
</a>
</g>
</g>
<!-- Node6&#45;&gt;Node4 -->
<g id="edge5" class="edge">
<title>Node6&#45;&gt;Node4</title>
<path fill="none" stroke="#9a32cd" stroke-dasharray="5,2" d="M112.61,-259.81C107.8,-247.12 101.61,-230.76 97.85,-220.84"/>
<polygon fill="#9a32cd" stroke="#9a32cd" points="109.42,-261.26 116.23,-269.37 115.96,-258.78 109.42,-261.26"/>
<text text-anchor="middle" x="125" y="-242" font-family="Helvetica,sans-Serif" font-size="10.00"> m_xml</text>
</g>
<!-- Node6&#45;&gt;Node6 -->
<g id="edge6" class="edge">
<title>Node6&#45;&gt;Node6</title>
<path fill="none" stroke="#9a32cd" stroke-dasharray="5,2" d="M162.14,-284.38C166.91,-283.37 170,-281.57 170,-279 170,-274.88 162.1,-272.76 152.04,-272.63"/>
<polygon fill="#9a32cd" stroke="#9a32cd" points="161.66,-280.91 152.04,-285.37 162.34,-287.88 161.66,-280.91"/>
<text text-anchor="middle" x="192" y="-282" font-family="Helvetica,sans-Serif" font-size="10.00"> m_parent</text>
<text text-anchor="middle" x="192" y="-271" font-family="Helvetica,sans-Serif" font-size="10.00">m_root</text>
</g>
<!-- Node7 -->
<g id="node7" class="node">
<title>Node7</title>
<g id="a_node7"><a xlink:href="../../d5/dda/classCantera_1_1MultiSpeciesThermo.html" target="_top" xlink:title="A species thermodynamic property manager for a phase.">
<polygon fill="white" stroke="black" points="134.5,-201.5 134.5,-220.5 240.5,-220.5 240.5,-201.5 134.5,-201.5"/>
<text text-anchor="middle" x="187.5" y="-208.5" font-family="Helvetica,sans-Serif" font-size="10.00">MultiSpeciesThermo</text>
</a>
</g>
</g>
<!-- Node7&#45;&gt;Node3 -->
<g id="edge7" class="edge">
<title>Node7&#45;&gt;Node3</title>
<path fill="none" stroke="#9a32cd" stroke-dasharray="5,2" d="M187.5,-191.04C187.5,-178.67 187.5,-163.12 187.5,-153.63"/>
<polygon fill="#9a32cd" stroke="#9a32cd" points="184,-191.23 187.5,-201.23 191,-191.23 184,-191.23"/>
<text text-anchor="middle" x="216.5" y="-175" font-family="Helvetica,sans-Serif" font-size="10.00"> m_spthermo</text>
</g>
<!-- Node8 -->
<g id="node8" class="node">
<title>Node8</title>
<g id="a_node8"><a xlink:href="../../db/d74/classCantera_1_1AnyMap.html" target="_top" xlink:title="A map of string keys to values whose type can vary at runtime.">
<polygon fill="white" stroke="black" points="259,-201.5 259,-220.5 312,-220.5 312,-201.5 259,-201.5"/>
<text text-anchor="middle" x="285.5" y="-208.5" font-family="Helvetica,sans-Serif" font-size="10.00">AnyMap</text>
</a>
</g>
</g>
<!-- Node8&#45;&gt;Node3 -->
<g id="edge8" class="edge">
<title>Node8&#45;&gt;Node3</title>
<path fill="none" stroke="#9a32cd" stroke-dasharray="5,2" d="M272.55,-193.58C266.19,-186.28 258.06,-178 249.5,-172 238.54,-164.32 225.05,-158.12 213.45,-153.61"/>
<polygon fill="#9a32cd" stroke="#9a32cd" points="270.05,-196.04 279.13,-201.5 275.44,-191.57 270.05,-196.04"/>
<text text-anchor="middle" x="281.5" y="-175" font-family="Helvetica,sans-Serif" font-size="10.00"> m_input</text>
</g>
<!-- Node9 -->
<g id="node9" class="node">
<title>Node9</title>
<g id="a_node9"><a xlink:href="../../d9/d23/classCantera_1_1AnyBase.html" target="_top" xlink:title="Base class defining common data possessed by both AnyMap and AnyValue objects.">
<polygon fill="white" stroke="black" points="257.5,-269.5 257.5,-288.5 313.5,-288.5 313.5,-269.5 257.5,-269.5"/>
<text text-anchor="middle" x="285.5" y="-276.5" font-family="Helvetica,sans-Serif" font-size="10.00">AnyBase</text>
</a>
</g>
</g>
<!-- Node9&#45;&gt;Node8 -->
<g id="edge9" class="edge">
<title>Node9&#45;&gt;Node8</title>
<path fill="none" stroke="midnightblue" d="M285.5,-259.04C285.5,-246.47 285.5,-230.56 285.5,-220.84"/>
<polygon fill="midnightblue" stroke="midnightblue" points="282,-259.37 285.5,-269.37 289,-259.37 282,-259.37"/>
</g>
<!-- Node10 -->
<g id="node10" class="node">
<title>Node10</title>
<g id="a_node10"><a xlink:href="../../d9/d05/classCantera_1_1WaterPropsIAPWS.html" target="_top" xlink:title="Class for calculating the equation of state of water.">
<polygon fill="white" stroke="black" points="252,-67.5 252,-86.5 353,-86.5 353,-67.5 252,-67.5"/>
<text text-anchor="middle" x="302.5" y="-74.5" font-family="Helvetica,sans-Serif" font-size="10.00">WaterPropsIAPWS</text>
</a>
</g>
</g>
<!-- Node10&#45;&gt;Node1 -->
<g id="edge10" class="edge">
<title>Node10&#45;&gt;Node1</title>
<path fill="none" stroke="#9a32cd" stroke-dasharray="5,2" d="M287.9,-59.63C276.55,-46.92 261.27,-29.8 252.2,-19.63"/>
<polygon fill="#9a32cd" stroke="#9a32cd" points="285.41,-62.1 294.68,-67.23 290.63,-57.44 285.41,-62.1"/>
<text text-anchor="middle" x="294" y="-41" font-family="Helvetica,sans-Serif" font-size="10.00"> m_sub</text>
</g>
<!-- Node11 -->
<g id="node11" class="node">
<title>Node11</title>
<g id="a_node11"><a xlink:href="../../d2/d40/classCantera_1_1WaterPropsIAPWSphi.html" target="_top" xlink:title="Low level class for the real description of water.">
<polygon fill="white" stroke="black" points="246,-134.5 246,-153.5 359,-153.5 359,-134.5 246,-134.5"/>
<text text-anchor="middle" x="302.5" y="-141.5" font-family="Helvetica,sans-Serif" font-size="10.00">WaterPropsIAPWSphi</text>
</a>
</g>
</g>
<!-- Node11&#45;&gt;Node10 -->
<g id="edge11" class="edge">
<title>Node11&#45;&gt;Node10</title>
<path fill="none" stroke="#9a32cd" stroke-dasharray="5,2" d="M302.5,-124.04C302.5,-111.67 302.5,-96.12 302.5,-86.63"/>
<polygon fill="#9a32cd" stroke="#9a32cd" points="299,-124.23 302.5,-134.23 306,-124.23 299,-124.23"/>
<text text-anchor="middle" x="317.5" y="-108" font-family="Helvetica,sans-Serif" font-size="10.00"> m_phi</text>
</g>
</g>
</svg>
