<?xml version="1.0" encoding="UTF-8" standalone="no"?>
<!DOCTYPE svg PUBLIC "-//W3C//DTD SVG 1.1//EN"
 "http://www.w3.org/Graphics/SVG/1.1/DTD/svg11.dtd">
<!-- Generated by graphviz version 2.43.0 (0)
 -->
<!-- Title: Utilities Pages: 1 -->
<svg width="498pt" height="38pt"
 viewBox="0.00 0.00 498.00 38.00" xmlns="http://www.w3.org/2000/svg" xmlns:xlink="http://www.w3.org/1999/xlink">
<g id="graph0" class="graph" transform="scale(1 1) rotate(0) translate(4 34)">
<title>Utilities</title>
<polygon fill="white" stroke="transparent" points="-4,4 -4,-34 494,-34 494,4 -4,4"/>
<!-- Node2 -->
<g id="node1" class="node">
<title>Node2</title>
<g id="a_node1"><a xlink:href="../../d4/d2d/group__onedGroup.html" target="_top" xlink:title=" ">
<polygon fill="white" stroke="black" points="147,-30 0,-30 0,0 147,0 147,-30"/>
<text text-anchor="start" x="8" y="-18" font-family="Helvetica,sans-Serif" font-size="10.00">One&#45;Dimensional Reacting</text>
<text text-anchor="middle" x="73.5" y="-7" font-family="Helvetica,sans-Serif" font-size="10.00"> Flows</text>
</a>
</g>
</g>
<!-- Node1 -->
<g id="node2" class="node">
<title>Node1</title>
<g id="a_node2"><a xlink:title="Utility classes and functions for one&#45;dimensional problems.">
<polygon fill="#bfbfbf" stroke="black" points="239,-24.5 184,-24.5 184,-5.5 239,-5.5 239,-24.5"/>
<text text-anchor="middle" x="211.5" y="-12.5" font-family="Helvetica,sans-Serif" font-size="10.00">Utilities</text>
</a>
</g>
</g>
<!-- Node2&#45;&gt;Node1 -->
<g id="edge1" class="edge">
<title>Node2&#45;&gt;Node1</title>
<path fill="none" stroke="black" d="M157.36,-15C166.92,-15 176.07,-15 184,-15"/>
<polygon fill="black" stroke="black" points="157.28,-11.5 147.28,-15 157.28,-18.5 157.28,-11.5"/>
</g>
<!-- Node3 -->
<g id="node3" class="node">
<title>Node3</title>
<g id="a_node3"><a xlink:href="../../d9/d08/group__derivGroup.html" target="_top" xlink:title=" ">
<polygon fill="white" stroke="black" points="490,-24.5 359,-24.5 359,-5.5 490,-5.5 490,-24.5"/>
<text text-anchor="middle" x="424.5" y="-12.5" font-family="Helvetica,sans-Serif" font-size="10.00">Derivative Calculations</text>
</a>
</g>
</g>
<!-- Node1&#45;&gt;Node3 -->
<g id="edge2" class="edge">
<title>Node1&#45;&gt;Node3</title>
<path fill="none" stroke="orange" stroke-dasharray="5,2" d="M239.22,-15C269.16,-15 318.77,-15 358.98,-15"/>
<text text-anchor="middle" x="299" y="-18" font-family="Helvetica,sans-Serif" font-size="10.00">Cantera::MultiJac</text>
</g>
</g>
</svg>
