<?xml version="1.0" encoding="UTF-8" standalone="no"?>
<!DOCTYPE svg PUBLIC "-//W3C//DTD SVG 1.1//EN"
 "http://www.w3.org/Graphics/SVG/1.1/DTD/svg11.dtd">
<!-- Generated by graphviz version 2.50.0 (0)
 -->
<!-- Title: PengRobinson.cpp Pages: 1 -->
<!--zoomable 364 -->
<svg id="main" version="1.1" xmlns="http://www.w3.org/2000/svg" xmlns:xlink="http://www.w3.org/1999/xlink" xml:space="preserve" onload="init(evt)">
<style type="text/css"><![CDATA[
.edge:hover path { stroke: red; }
.edge:hover polygon { stroke: red; fill: red; }
]]></style>
<script type="text/javascript"><![CDATA[
var edges = document.getElementsByTagName('g');
if (edges && edges.length) {
  for (var i=0;i<edges.length;i++) {
    if (edges[i].id.substr(0,4)=='edge') {
      edges[i].setAttribute('class','edge');
    }
  }
}
]]></script>
        <defs>
                <circle id="rim" cx="0" cy="0" r="7"/>
                <circle id="rim2" cx="0" cy="0" r="3.5"/>
                <g id="zoomPlus">
                        <use xlink:href="#rim" fill="#404040">
                                <set attributeName="fill" to="#808080" begin="zoomplus.mouseover" end="zoomplus.mouseout"/>
                        </use>
                        <path d="M-4,0h8M0,-4v8" fill="none" stroke="white" stroke-width="1.5" pointer-events="none"/>
                </g>
                <g id="zoomMin">
                        <use xlink:href="#rim" fill="#404040">
                                <set attributeName="fill" to="#808080" begin="zoomminus.mouseover" end="zoomminus.mouseout"/>
                        </use>
                        <path d="M-4,0h8" fill="none" stroke="white" stroke-width="1.5" pointer-events="none"/>
                </g>
                <g id="dirArrow">
                        <path fill="none" stroke="white" stroke-width="1.5" d="M0,-3.0v7 M-2.5,-0.5L0,-3.0L2.5,-0.5"/>
                </g>
               <g id="resetDef">
                       <use xlink:href="#rim2" fill="#404040">
                               <set attributeName="fill" to="#808080" begin="reset.mouseover" end="reset.mouseout"/>
                       </use>
               </g>
        </defs>

<script type="text/javascript">
var viewWidth = 1003;
var viewHeight = 364;
var sectionId = 'dynsection-0';
</script>
<script xlink:href="../../svgpan.js"/>
<svg id="graph" class="graph">
<g id="viewport">
<title>PengRobinson.cpp</title>
<polygon fill="white" stroke="transparent" points="-4,4 -4,-360 999.28,-360 999.28,4 -4,4"/>
<!-- Node1 -->
<g id="node1" class="node">
<title>Node1</title>
<g id="a_node1"><a xlink:title=" ">
<polygon fill="#bfbfbf" stroke="black" points="389.74,-336.5 389.74,-355.5 488.74,-355.5 488.74,-336.5 389.74,-336.5"/>
<text text-anchor="middle" x="439.24" y="-343.5" font-family="Helvetica,sans-Serif" font-size="10.00">PengRobinson.cpp</text>
</a>
</g>
</g>
<!-- Node2 -->
<g id="node2" class="node">
<title>Node2</title>
<g id="a_node2"><a xlink:href="../../de/d01/PengRobinson_8h.html" target="_top" xlink:title=" ">
<polygon fill="white" stroke="black" points="664.74,-280.5 664.74,-299.5 821.74,-299.5 821.74,-280.5 664.74,-280.5"/>
<text text-anchor="middle" x="743.24" y="-287.5" font-family="Helvetica,sans-Serif" font-size="10.00">cantera/thermo/PengRobinson.h</text>
</a>
</g>
</g>
<!-- Node1&#45;&gt;Node2 -->
<g id="edge1" class="edge">
<title>Node1&#45;&gt;Node2</title>
<path fill="none" stroke="midnightblue" d="M487.41,-336.44C541.11,-326.9 627.93,-311.48 685.3,-301.29"/>
<polygon fill="midnightblue" stroke="midnightblue" points="686.07,-304.71 695.3,-299.52 684.84,-297.82 686.07,-304.71"/>
</g>
<!-- Node38 -->
<g id="node18" class="node">
<title>Node38</title>
<g id="a_node18"><a xlink:href="../../dc/d8e/ThermoFactory_8h.html" target="_top" xlink:title="Headers for the factory class that can create known ThermoPhase objects (see Thermodynamic Properties...">
<polygon fill="white" stroke="black" points="310.24,-224.5 310.24,-243.5 468.24,-243.5 468.24,-224.5 310.24,-224.5"/>
<text text-anchor="middle" x="389.24" y="-231.5" font-family="Helvetica,sans-Serif" font-size="10.00">cantera/thermo/ThermoFactory.h</text>
</a>
</g>
</g>
<!-- Node1&#45;&gt;Node38 -->
<g id="edge25" class="edge">
<title>Node1&#45;&gt;Node38</title>
<path fill="none" stroke="midnightblue" d="M435.32,-336.37C427.18,-318.46 408.3,-276.92 397.4,-252.95"/>
<polygon fill="midnightblue" stroke="midnightblue" points="400.47,-251.25 393.15,-243.59 394.1,-254.14 400.47,-251.25"/>
</g>
<!-- Node42 -->
<g id="node22" class="node">
<title>Node42</title>
<g id="a_node22"><a xlink:href="../../d7/dd9/Species_8h.html" target="_top" xlink:title="Declaration for class Cantera::Species.">
<polygon fill="white" stroke="black" points="153.24,-168.5 153.24,-187.5 281.24,-187.5 281.24,-168.5 153.24,-168.5"/>
<text text-anchor="middle" x="217.24" y="-175.5" font-family="Helvetica,sans-Serif" font-size="10.00">cantera/thermo/Species.h</text>
</a>
</g>
</g>
<!-- Node1&#45;&gt;Node42 -->
<g id="edge35" class="edge">
<title>Node1&#45;&gt;Node42</title>
<path fill="none" stroke="midnightblue" d="M427.35,-336.46C403.36,-319.19 347.5,-278.81 301.24,-244 278.66,-227 253.01,-207.06 236.05,-193.79"/>
<polygon fill="midnightblue" stroke="midnightblue" points="238.07,-190.92 228.05,-187.51 233.76,-196.43 238.07,-190.92"/>
</g>
<!-- Node43 -->
<g id="node23" class="node">
<title>Node43</title>
<g id="a_node23"><a xlink:href="../../dd/dc3/stringUtils_8h.html" target="_top" xlink:title="Contains declarations for string manipulation functions within Cantera.">
<polygon fill="white" stroke="black" points="486.24,-280.5 486.24,-299.5 614.24,-299.5 614.24,-280.5 486.24,-280.5"/>
<text text-anchor="middle" x="550.24" y="-287.5" font-family="Helvetica,sans-Serif" font-size="10.00">cantera/base/stringUtils.h</text>
</a>
</g>
</g>
<!-- Node1&#45;&gt;Node43 -->
<g id="edge38" class="edge">
<title>Node1&#45;&gt;Node43</title>
<path fill="none" stroke="midnightblue" d="M457.08,-336.32C474.96,-327.62 502.72,-314.12 523.29,-304.11"/>
<polygon fill="midnightblue" stroke="midnightblue" points="524.99,-307.18 532.45,-299.65 521.93,-300.88 524.99,-307.18"/>
</g>
<!-- Node44 -->
<g id="node24" class="node">
<title>Node44</title>
<g id="a_node24"><a xlink:href="../../dc/deb/ctml_8h.html" target="_top" xlink:title="CTML (&quot;Cantera Markup Language&quot;) is the variant of XML that Cantera uses to store data.">
<polygon fill="white" stroke="black" points="25.74,-224.5 25.74,-243.5 128.74,-243.5 128.74,-224.5 25.74,-224.5"/>
<text text-anchor="middle" x="77.24" y="-231.5" font-family="Helvetica,sans-Serif" font-size="10.00">cantera/base/ctml.h</text>
</a>
</g>
</g>
<!-- Node1&#45;&gt;Node44 -->
<g id="edge40" class="edge">
<title>Node1&#45;&gt;Node44</title>
<path fill="none" stroke="midnightblue" d="M389.56,-336.53C347.86,-328.84 286.98,-316.21 235.24,-300 188.25,-285.27 135.75,-262.31 104.66,-247.98"/>
<polygon fill="midnightblue" stroke="midnightblue" points="105.89,-244.7 95.35,-243.66 102.94,-251.05 105.89,-244.7"/>
</g>
<!-- Node45 -->
<g id="node25" class="node">
<title>Node45</title>
<g id="a_node25"><a xlink:title=" ">
<polygon fill="white" stroke="#bfbfbf" points="839.74,-280.5 839.74,-299.5 972.74,-299.5 972.74,-280.5 839.74,-280.5"/>
<text text-anchor="middle" x="906.24" y="-287.5" font-family="Helvetica,sans-Serif" font-size="10.00">boost/math/tools/roots.hpp</text>
</a>
</g>
</g>
<!-- Node1&#45;&gt;Node45 -->
<g id="edge43" class="edge">
<title>Node1&#45;&gt;Node45</title>
<path fill="none" stroke="midnightblue" d="M488.76,-339.4C561.24,-331.18 700.78,-315.29 829.55,-300.19"/>
<polygon fill="midnightblue" stroke="midnightblue" points="830.06,-303.66 839.59,-299.02 829.25,-296.71 830.06,-303.66"/>
</g>
<!-- Node3 -->
<g id="node3" class="node">
<title>Node3</title>
<g id="a_node3"><a xlink:href="../../d1/da4/MixtureFugacityTP_8h.html" target="_top" xlink:title="Header file for a derived class of ThermoPhase that handles non&#45;ideal mixtures based on the fugacity ...">
<polygon fill="white" stroke="black" points="695.24,-224.5 695.24,-243.5 801.24,-243.5 801.24,-224.5 695.24,-224.5"/>
<text text-anchor="middle" x="748.24" y="-231.5" font-family="Helvetica,sans-Serif" font-size="10.00">MixtureFugacityTP.h</text>
</a>
</g>
</g>
<!-- Node2&#45;&gt;Node3 -->
<g id="edge2" class="edge">
<title>Node2&#45;&gt;Node3</title>
<path fill="none" stroke="midnightblue" d="M744.07,-280.08C744.72,-273.01 745.66,-262.86 746.49,-253.99"/>
<polygon fill="midnightblue" stroke="midnightblue" points="750,-254.03 747.43,-243.75 743.03,-253.39 750,-254.03"/>
</g>
<!-- Node36 -->
<g id="node16" class="node">
<title>Node36</title>
<g id="a_node16"><a xlink:href="../../df/dd0/Array_8h.html" target="_top" xlink:title="Header file for class Cantera::Array2D.">
<polygon fill="white" stroke="black" points="852.24,-224.5 852.24,-243.5 958.24,-243.5 958.24,-224.5 852.24,-224.5"/>
<text text-anchor="middle" x="905.24" y="-231.5" font-family="Helvetica,sans-Serif" font-size="10.00">cantera/base/Array.h</text>
</a>
</g>
</g>
<!-- Node2&#45;&gt;Node36 -->
<g id="edge22" class="edge">
<title>Node2&#45;&gt;Node36</title>
<path fill="none" stroke="midnightblue" d="M768.91,-280.44C796.17,-271.36 839.43,-256.94 869.89,-246.78"/>
<polygon fill="midnightblue" stroke="midnightblue" points="871.31,-250 879.69,-243.52 869.1,-243.36 871.31,-250"/>
</g>
<!-- Node4 -->
<g id="node4" class="node">
<title>Node4</title>
<g id="a_node4"><a xlink:href="../../d7/d01/ThermoPhase_8h.html" target="_top" xlink:title="Header file for class ThermoPhase, the base class for phases with thermodynamic properties,...">
<polygon fill="white" stroke="black" points="430.24,-168.5 430.24,-187.5 516.24,-187.5 516.24,-168.5 430.24,-168.5"/>
<text text-anchor="middle" x="473.24" y="-175.5" font-family="Helvetica,sans-Serif" font-size="10.00">ThermoPhase.h</text>
</a>
</g>
</g>
<!-- Node3&#45;&gt;Node4 -->
<g id="edge3" class="edge">
<title>Node3&#45;&gt;Node4</title>
<path fill="none" stroke="midnightblue" d="M704.67,-224.44C656.39,-214.96 578.53,-199.67 526.63,-189.48"/>
<polygon fill="midnightblue" stroke="midnightblue" points="527.1,-186.01 516.61,-187.52 525.75,-192.88 527.1,-186.01"/>
</g>
<!-- Node32 -->
<g id="node13" class="node">
<title>Node32</title>
<g id="a_node13"><a xlink:href="../../da/d61/ResidEval_8h.html" target="_top" xlink:title=" ">
<polygon fill="white" stroke="black" points="695.24,-112.5 695.24,-131.5 843.24,-131.5 843.24,-112.5 695.24,-112.5"/>
<text text-anchor="middle" x="769.24" y="-119.5" font-family="Helvetica,sans-Serif" font-size="10.00">cantera/numerics/ResidEval.h</text>
</a>
</g>
</g>
<!-- Node3&#45;&gt;Node32 -->
<g id="edge15" class="edge">
<title>Node3&#45;&gt;Node32</title>
<path fill="none" stroke="midnightblue" d="M749.89,-224.37C753.28,-206.62 761.1,-165.67 765.69,-141.6"/>
<polygon fill="midnightblue" stroke="midnightblue" points="769.17,-142.07 767.6,-131.59 762.29,-140.76 769.17,-142.07"/>
</g>
<!-- Node5 -->
<g id="node5" class="node">
<title>Node5</title>
<g id="a_node5"><a xlink:href="../../da/d84/Phase_8h.html" target="_top" xlink:title="Header file for class Phase.">
<polygon fill="white" stroke="red" points="585.74,-112.5 585.74,-131.5 638.74,-131.5 638.74,-112.5 585.74,-112.5"/>
<text text-anchor="middle" x="612.24" y="-119.5" font-family="Helvetica,sans-Serif" font-size="10.00">Phase.h</text>
</a>
</g>
</g>
<!-- Node4&#45;&gt;Node5 -->
<g id="edge4" class="edge">
<title>Node4&#45;&gt;Node5</title>
<path fill="none" stroke="midnightblue" d="M495.27,-168.44C518.35,-159.48 554.81,-145.31 580.88,-135.18"/>
<polygon fill="midnightblue" stroke="midnightblue" points="582.27,-138.4 590.32,-131.52 579.73,-131.88 582.27,-138.4"/>
</g>
<!-- Node23 -->
<g id="node7" class="node">
<title>Node23</title>
<g id="a_node7"><a xlink:href="../../d6/d7a/MultiSpeciesThermo_8h.html" target="_top" xlink:title="Header for a general species thermodynamic property manager for a phase (see MultiSpeciesThermo).">
<polygon fill="white" stroke="red" points="453.24,-112.5 453.24,-131.5 567.24,-131.5 567.24,-112.5 453.24,-112.5"/>
<text text-anchor="middle" x="510.24" y="-119.5" font-family="Helvetica,sans-Serif" font-size="10.00">MultiSpeciesThermo.h</text>
</a>
</g>
</g>
<!-- Node4&#45;&gt;Node23 -->
<g id="edge6" class="edge">
<title>Node4&#45;&gt;Node23</title>
<path fill="none" stroke="midnightblue" d="M479.35,-168.08C484.53,-160.53 492.09,-149.49 498.44,-140.23"/>
<polygon fill="midnightblue" stroke="midnightblue" points="501.48,-141.98 504.25,-131.75 495.71,-138.02 501.48,-141.98"/>
</g>
<!-- Node26 -->
<g id="node8" class="node">
<title>Node26</title>
<g id="a_node8"><a xlink:href="../../da/d58/Units_8h.html" target="_top" xlink:title="Header for unit conversion utilities, which are used to translate user input from input files (See In...">
<polygon fill="white" stroke="black" points="88.74,-56.5 88.74,-75.5 195.74,-75.5 195.74,-56.5 88.74,-56.5"/>
<text text-anchor="middle" x="142.24" y="-63.5" font-family="Helvetica,sans-Serif" font-size="10.00">cantera/base/Units.h</text>
</a>
</g>
</g>
<!-- Node4&#45;&gt;Node26 -->
<g id="edge7" class="edge">
<title>Node4&#45;&gt;Node26</title>
<path fill="none" stroke="midnightblue" d="M429.95,-173.97C345.96,-167.68 167.43,-152.08 148.24,-132 136.64,-119.86 136.46,-99.98 138.37,-85.41"/>
<polygon fill="midnightblue" stroke="midnightblue" points="141.82,-85.95 140.08,-75.5 134.93,-84.76 141.82,-85.95"/>
</g>
<!-- Node25 -->
<g id="node10" class="node">
<title>Node25</title>
<g id="a_node10"><a xlink:href="../../dd/d2a/AnyMap_8h.html" target="_top" xlink:title=" ">
<polygon fill="white" stroke="red" points="157.24,-112.5 157.24,-131.5 277.24,-131.5 277.24,-112.5 157.24,-112.5"/>
<text text-anchor="middle" x="217.24" y="-119.5" font-family="Helvetica,sans-Serif" font-size="10.00">cantera/base/AnyMap.h</text>
</a>
</g>
</g>
<!-- Node4&#45;&gt;Node25 -->
<g id="edge9" class="edge">
<title>Node4&#45;&gt;Node25</title>
<path fill="none" stroke="midnightblue" d="M432.68,-168.44C387.93,-159 315.86,-143.8 267.55,-133.61"/>
<polygon fill="midnightblue" stroke="midnightblue" points="268.12,-130.16 257.62,-131.52 266.68,-137.01 268.12,-130.16"/>
</g>
<!-- Node6 -->
<g id="node6" class="node">
<title>Node6</title>
<g id="a_node6"><a xlink:href="../../db/d98/ctexceptions_8h.html" target="_top" xlink:title="Definitions for the classes that are thrown when Cantera experiences an error condition (also contain...">
<polygon fill="white" stroke="red" points="493.24,-56.5 493.24,-75.5 633.24,-75.5 633.24,-56.5 493.24,-56.5"/>
<text text-anchor="middle" x="563.24" y="-63.5" font-family="Helvetica,sans-Serif" font-size="10.00">cantera/base/ctexceptions.h</text>
</a>
</g>
</g>
<!-- Node5&#45;&gt;Node6 -->
<g id="edge5" class="edge">
<title>Node5&#45;&gt;Node6</title>
<path fill="none" stroke="midnightblue" d="M604.15,-112.08C597.09,-104.3 586.66,-92.8 578.09,-83.37"/>
<polygon fill="midnightblue" stroke="midnightblue" points="580.5,-80.8 571.18,-75.75 575.31,-85.51 580.5,-80.8"/>
</g>
<!-- Node8 -->
<g id="node9" class="node">
<title>Node8</title>
<g id="a_node9"><a xlink:href="../../d9/ddc/ct__defs_8h.html" target="_top" xlink:title="This file contains definitions of constants, types and terms that are used in internal routines and a...">
<polygon fill="white" stroke="red" points="413.74,-0.5 413.74,-19.5 470.74,-19.5 470.74,-0.5 413.74,-0.5"/>
<text text-anchor="middle" x="442.24" y="-7.5" font-family="Helvetica,sans-Serif" font-size="10.00">ct_defs.h</text>
</a>
</g>
</g>
<!-- Node26&#45;&gt;Node8 -->
<g id="edge8" class="edge">
<title>Node26&#45;&gt;Node8</title>
<path fill="none" stroke="midnightblue" d="M189.78,-56.44C248.92,-45.8 348.75,-27.83 403.48,-17.98"/>
<polygon fill="midnightblue" stroke="midnightblue" points="404.26,-21.39 413.48,-16.18 403.02,-14.5 404.26,-21.39"/>
</g>
<!-- Node25&#45;&gt;Node6 -->
<g id="edge11" class="edge">
<title>Node25&#45;&gt;Node6</title>
<path fill="none" stroke="midnightblue" d="M272.07,-112.44C333.57,-102.85 433.23,-87.29 498.5,-77.1"/>
<polygon fill="midnightblue" stroke="midnightblue" points="499.33,-80.52 508.67,-75.52 498.25,-73.6 499.33,-80.52"/>
</g>
<!-- Node25&#45;&gt;Node26 -->
<g id="edge12" class="edge">
<title>Node25&#45;&gt;Node26</title>
<path fill="none" stroke="midnightblue" d="M205.19,-112.32C193.78,-104.11 176.41,-91.6 162.81,-81.81"/>
<polygon fill="midnightblue" stroke="midnightblue" points="164.67,-78.84 154.51,-75.83 160.58,-84.52 164.67,-78.84"/>
</g>
<!-- Node25&#45;&gt;Node8 -->
<g id="edge10" class="edge">
<title>Node25&#45;&gt;Node8</title>
<path fill="none" stroke="midnightblue" d="M218.3,-112.36C220.49,-98.32 226.86,-70.65 244.24,-56 268.01,-35.97 352.99,-22.18 403.57,-15.54"/>
<polygon fill="midnightblue" stroke="midnightblue" points="404.03,-19.01 413.5,-14.27 403.14,-12.07 404.03,-19.01"/>
</g>
<!-- Node27 -->
<g id="node11" class="node">
<title>Node27</title>
<g id="a_node11"><a xlink:title=" ">
<polygon fill="white" stroke="#bfbfbf" points="329.74,-56.5 329.74,-75.5 412.74,-75.5 412.74,-56.5 329.74,-56.5"/>
<text text-anchor="middle" x="371.24" y="-63.5" font-family="Helvetica,sans-Serif" font-size="10.00">unordered_map</text>
</a>
</g>
</g>
<!-- Node25&#45;&gt;Node27 -->
<g id="edge13" class="edge">
<title>Node25&#45;&gt;Node27</title>
<path fill="none" stroke="midnightblue" d="M241.64,-112.44C267.44,-103.4 308.32,-89.06 337.26,-78.92"/>
<polygon fill="midnightblue" stroke="midnightblue" points="338.68,-82.13 346.96,-75.52 336.36,-75.52 338.68,-82.13"/>
</g>
<!-- Node28 -->
<g id="node12" class="node">
<title>Node28</title>
<g id="a_node12"><a xlink:title=" ">
<polygon fill="white" stroke="#bfbfbf" points="252.74,-56.5 252.74,-75.5 311.74,-75.5 311.74,-56.5 252.74,-56.5"/>
<text text-anchor="middle" x="282.24" y="-63.5" font-family="Helvetica,sans-Serif" font-size="10.00">functional</text>
</a>
</g>
</g>
<!-- Node25&#45;&gt;Node28 -->
<g id="edge14" class="edge">
<title>Node25&#45;&gt;Node28</title>
<path fill="none" stroke="midnightblue" d="M227.69,-112.32C237.39,-104.26 252.06,-92.08 263.74,-82.37"/>
<polygon fill="midnightblue" stroke="midnightblue" points="266.15,-84.92 271.61,-75.83 261.68,-79.53 266.15,-84.92"/>
</g>
<!-- Node32&#45;&gt;Node6 -->
<g id="edge17" class="edge">
<title>Node32&#45;&gt;Node6</title>
<path fill="none" stroke="midnightblue" d="M736.6,-112.44C701.19,-103.16 644.53,-88.31 605.69,-78.13"/>
<polygon fill="midnightblue" stroke="midnightblue" points="606.29,-74.67 595.73,-75.52 604.52,-81.44 606.29,-74.67"/>
</g>
<!-- Node32&#45;&gt;Node8 -->
<g id="edge16" class="edge">
<title>Node32&#45;&gt;Node8</title>
<path fill="none" stroke="midnightblue" d="M781.11,-112.34C797.71,-99.22 824.11,-73.94 808.24,-56 786.8,-31.76 570.81,-17.73 481.05,-12.91"/>
<polygon fill="midnightblue" stroke="midnightblue" points="481.17,-9.41 471,-12.38 480.8,-16.4 481.17,-9.41"/>
</g>
<!-- Node33 -->
<g id="node14" class="node">
<title>Node33</title>
<g id="a_node14"><a xlink:href="../../de/df0/utilities_8h.html" target="_top" xlink:title="Various templated functions that carry out common vector operations (see Templated Utility Functions)...">
<polygon fill="white" stroke="red" points="855.74,-56.5 855.74,-75.5 970.74,-75.5 970.74,-56.5 855.74,-56.5"/>
<text text-anchor="middle" x="913.24" y="-63.5" font-family="Helvetica,sans-Serif" font-size="10.00">cantera/base/utilities.h</text>
</a>
</g>
</g>
<!-- Node32&#45;&gt;Node33 -->
<g id="edge18" class="edge">
<title>Node32&#45;&gt;Node33</title>
<path fill="none" stroke="midnightblue" d="M792.06,-112.44C816.07,-103.44 854.07,-89.19 881.11,-79.05"/>
<polygon fill="midnightblue" stroke="midnightblue" points="882.4,-82.3 890.53,-75.52 879.94,-75.75 882.4,-82.3"/>
</g>
<!-- Node35 -->
<g id="node15" class="node">
<title>Node35</title>
<g id="a_node15"><a xlink:href="../../d2/d49/global_8h.html" target="_top" xlink:title="This file contains definitions for utility functions and text for modules, inputfiles,...">
<polygon fill="white" stroke="red" points="689.24,-56.5 689.24,-75.5 799.24,-75.5 799.24,-56.5 689.24,-56.5"/>
<text text-anchor="middle" x="744.24" y="-63.5" font-family="Helvetica,sans-Serif" font-size="10.00">cantera/base/global.h</text>
</a>
</g>
</g>
<!-- Node32&#45;&gt;Node35 -->
<g id="edge20" class="edge">
<title>Node32&#45;&gt;Node35</title>
<path fill="none" stroke="midnightblue" d="M765.11,-112.08C761.73,-104.77 756.83,-94.18 752.62,-85.1"/>
<polygon fill="midnightblue" stroke="midnightblue" points="755.67,-83.36 748.29,-75.75 749.32,-86.3 755.67,-83.36"/>
</g>
<!-- Node33&#45;&gt;Node8 -->
<g id="edge19" class="edge">
<title>Node33&#45;&gt;Node8</title>
<path fill="none" stroke="midnightblue" d="M855.48,-57.72C850.67,-57.13 845.87,-56.55 841.24,-56 709.23,-40.31 552.47,-23.02 481.1,-15.23"/>
<polygon fill="midnightblue" stroke="midnightblue" points="481.12,-11.71 470.8,-14.1 480.36,-18.67 481.12,-11.71"/>
</g>
<!-- Node35&#45;&gt;Node8 -->
<g id="edge21" class="edge">
<title>Node35&#45;&gt;Node8</title>
<path fill="none" stroke="midnightblue" d="M696.39,-56.44C636.7,-45.77 535.83,-27.73 480.83,-17.9"/>
<polygon fill="midnightblue" stroke="midnightblue" points="481.25,-14.42 470.79,-16.1 480.02,-21.31 481.25,-14.42"/>
</g>
<!-- Node36&#45;&gt;Node8 -->
<g id="edge23" class="edge">
<title>Node36&#45;&gt;Node8</title>
<path fill="none" stroke="midnightblue" d="M914.95,-224.12C944.49,-196.11 1028.37,-108.32 980.24,-56 946.56,-19.38 598.61,-12.55 480.91,-11.28"/>
<polygon fill="midnightblue" stroke="midnightblue" points="480.93,-7.78 470.9,-11.18 480.86,-14.78 480.93,-7.78"/>
</g>
<!-- Node37 -->
<g id="node17" class="node">
<title>Node37</title>
<g id="a_node17"><a xlink:title=" ">
<polygon fill="white" stroke="#bfbfbf" points="878.24,-168.5 878.24,-187.5 932.24,-187.5 932.24,-168.5 878.24,-168.5"/>
<text text-anchor="middle" x="905.24" y="-175.5" font-family="Helvetica,sans-Serif" font-size="10.00">iostream</text>
</a>
</g>
</g>
<!-- Node36&#45;&gt;Node37 -->
<g id="edge24" class="edge">
<title>Node36&#45;&gt;Node37</title>
<path fill="none" stroke="midnightblue" d="M905.24,-224.08C905.24,-217.01 905.24,-206.86 905.24,-197.99"/>
<polygon fill="midnightblue" stroke="midnightblue" points="908.74,-197.75 905.24,-187.75 901.74,-197.75 908.74,-197.75"/>
</g>
<!-- Node38&#45;&gt;Node4 -->
<g id="edge26" class="edge">
<title>Node38&#45;&gt;Node4</title>
<path fill="none" stroke="midnightblue" d="M402.74,-224.32C415.84,-215.9 435.96,-202.97 451.35,-193.07"/>
<polygon fill="midnightblue" stroke="midnightblue" points="453.26,-196.01 459.78,-187.65 449.48,-190.12 453.26,-196.01"/>
</g>
<!-- Node39 -->
<g id="node19" class="node">
<title>Node39</title>
<g id="a_node19"><a xlink:href="../../d0/d62/xml_8h.html" target="_top" xlink:title="Classes providing support for XML data files.">
<polygon fill="white" stroke="black" points="27.24,-168.5 27.24,-187.5 127.24,-187.5 127.24,-168.5 27.24,-168.5"/>
<text text-anchor="middle" x="77.24" y="-175.5" font-family="Helvetica,sans-Serif" font-size="10.00">cantera/base/xml.h</text>
</a>
</g>
</g>
<!-- Node38&#45;&gt;Node39 -->
<g id="edge27" class="edge">
<title>Node38&#45;&gt;Node39</title>
<path fill="none" stroke="midnightblue" d="M339.81,-224.44C284.58,-214.89 195.22,-199.42 136.35,-189.23"/>
<polygon fill="midnightblue" stroke="midnightblue" points="136.9,-185.77 126.45,-187.52 135.71,-192.67 136.9,-185.77"/>
</g>
<!-- Node40 -->
<g id="node20" class="node">
<title>Node40</title>
<g id="a_node20"><a xlink:href="../../d6/dd5/FactoryBase_8h.html" target="_top" xlink:title="File contains the FactoryBase class declarations.">
<polygon fill="white" stroke="black" points="295.24,-112.5 295.24,-131.5 435.24,-131.5 435.24,-112.5 295.24,-112.5"/>
<text text-anchor="middle" x="365.24" y="-119.5" font-family="Helvetica,sans-Serif" font-size="10.00">cantera/base/FactoryBase.h</text>
</a>
</g>
</g>
<!-- Node38&#45;&gt;Node40 -->
<g id="edge29" class="edge">
<title>Node38&#45;&gt;Node40</title>
<path fill="none" stroke="midnightblue" d="M387.36,-224.37C383.49,-206.62 374.55,-165.67 369.3,-141.6"/>
<polygon fill="midnightblue" stroke="midnightblue" points="372.67,-140.62 367.12,-131.59 365.83,-142.11 372.67,-140.62"/>
</g>
<!-- Node39&#45;&gt;Node8 -->
<g id="edge28" class="edge">
<title>Node39&#45;&gt;Node8</title>
<path fill="none" stroke="midnightblue" d="M72.69,-168.36C61.86,-146.48 37.54,-88.34 66.24,-56 88.39,-31.05 311.76,-17.38 403.37,-12.78"/>
<polygon fill="midnightblue" stroke="midnightblue" points="403.79,-16.26 413.61,-12.28 403.45,-9.27 403.79,-16.26"/>
</g>
<!-- Node40&#45;&gt;Node6 -->
<g id="edge33" class="edge">
<title>Node40&#45;&gt;Node6</title>
<path fill="none" stroke="midnightblue" d="M396.62,-112.44C430.51,-103.2 484.65,-88.44 521.97,-78.26"/>
<polygon fill="midnightblue" stroke="midnightblue" points="523.29,-81.52 532.02,-75.52 521.45,-74.77 523.29,-81.52"/>
</g>
<!-- Node40&#45;&gt;Node27 -->
<g id="edge31" class="edge">
<title>Node40&#45;&gt;Node27</title>
<path fill="none" stroke="midnightblue" d="M366.23,-112.08C367.03,-104.93 368.17,-94.64 369.17,-85.69"/>
<polygon fill="midnightblue" stroke="midnightblue" points="372.64,-86.08 370.27,-75.75 365.69,-85.3 372.64,-86.08"/>
</g>
<!-- Node40&#45;&gt;Node28 -->
<g id="edge32" class="edge">
<title>Node40&#45;&gt;Node28</title>
<path fill="none" stroke="midnightblue" d="M351.91,-112.32C339.08,-103.98 319.46,-91.21 304.3,-81.35"/>
<polygon fill="midnightblue" stroke="midnightblue" points="305.84,-78.17 295.55,-75.65 302.02,-84.04 305.84,-78.17"/>
</g>
<!-- Node40&#45;&gt;Node35 -->
<g id="edge34" class="edge">
<title>Node40&#45;&gt;Node35</title>
<path fill="none" stroke="midnightblue" d="M425.3,-112.44C494.43,-102.59 607.59,-86.47 678.88,-76.31"/>
<polygon fill="midnightblue" stroke="midnightblue" points="679.68,-79.73 689.09,-74.86 678.7,-72.8 679.68,-79.73"/>
</g>
<!-- Node41 -->
<g id="node21" class="node">
<title>Node41</title>
<g id="a_node21"><a xlink:title=" ">
<polygon fill="white" stroke="#bfbfbf" points="431.24,-56.5 431.24,-75.5 475.24,-75.5 475.24,-56.5 431.24,-56.5"/>
<text text-anchor="middle" x="453.24" y="-63.5" font-family="Helvetica,sans-Serif" font-size="10.00">mutex</text>
</a>
</g>
</g>
<!-- Node40&#45;&gt;Node41 -->
<g id="edge30" class="edge">
<title>Node40&#45;&gt;Node41</title>
<path fill="none" stroke="midnightblue" d="M379.38,-112.32C393.11,-103.9 414.18,-90.97 430.31,-81.07"/>
<polygon fill="midnightblue" stroke="midnightblue" points="432.45,-83.87 439.14,-75.65 428.79,-77.9 432.45,-83.87"/>
</g>
<!-- Node42&#45;&gt;Node8 -->
<g id="edge36" class="edge">
<title>Node42&#45;&gt;Node8</title>
<path fill="none" stroke="midnightblue" d="M192.77,-168.46C142.87,-149.8 37.47,-103.28 79.24,-56 100.48,-31.96 314.29,-17.84 403.49,-12.95"/>
<polygon fill="midnightblue" stroke="midnightblue" points="403.93,-16.43 413.72,-12.4 403.55,-9.44 403.93,-16.43"/>
</g>
<!-- Node42&#45;&gt;Node25 -->
<g id="edge37" class="edge">
<title>Node42&#45;&gt;Node25</title>
<path fill="none" stroke="midnightblue" d="M217.24,-168.08C217.24,-161.01 217.24,-150.86 217.24,-141.99"/>
<polygon fill="midnightblue" stroke="midnightblue" points="220.74,-141.75 217.24,-131.75 213.74,-141.75 220.74,-141.75"/>
</g>
<!-- Node43&#45;&gt;Node8 -->
<g id="edge39" class="edge">
<title>Node43&#45;&gt;Node8</title>
<path fill="none" stroke="midnightblue" d="M559.42,-280.26C593.24,-247.07 705.62,-127.09 642.24,-56 621.19,-32.39 532.95,-19.87 480.97,-14.42"/>
<polygon fill="midnightblue" stroke="midnightblue" points="481.08,-10.92 470.78,-13.4 480.38,-17.88 481.08,-10.92"/>
</g>
<!-- Node44&#45;&gt;Node8 -->
<g id="edge41" class="edge">
<title>Node44&#45;&gt;Node8</title>
<path fill="none" stroke="midnightblue" d="M58.26,-224.4C44.36,-216.95 26.53,-204.74 18.24,-188 -2.27,-146.57 -19.86,-116.18 52.24,-56 104.92,-12.04 315.93,-9.39 403.67,-10.27"/>
<polygon fill="midnightblue" stroke="midnightblue" points="403.7,-13.77 413.74,-10.39 403.78,-6.77 403.7,-13.77"/>
</g>
<!-- Node44&#45;&gt;Node39 -->
<g id="edge42" class="edge">
<title>Node44&#45;&gt;Node39</title>
<path fill="none" stroke="midnightblue" d="M77.24,-224.08C77.24,-217.01 77.24,-206.86 77.24,-197.99"/>
<polygon fill="midnightblue" stroke="midnightblue" points="80.74,-197.75 77.24,-187.75 73.74,-197.75 80.74,-197.75"/>
</g>
</g>
</svg>
        <g id="navigator" transform="translate(0 0)" fill="#404254">
                <rect fill="#f2f5e9" fill-opacity="0.5" stroke="#606060" stroke-width=".5" x="0" y="0" width="60" height="60"/>
                <use id="zoomplus" xlink:href="#zoomPlus" x="17" y="9" onmousedown="handleZoom(evt,'in')"/>
                <use id="zoomminus" xlink:href="#zoomMin" x="42" y="9" onmousedown="handleZoom(evt,'out')"/>
                <use id="reset" xlink:href="#resetDef" x="30" y="36" onmousedown="handleReset()"/>
                <g id="arrowUp" xlink:href="#dirArrow" transform="translate(30 24)" onmousedown="handlePan(0,-1)">
                  <use xlink:href="#rim" fill="#404040">
                        <set attributeName="fill" to="#808080" begin="arrowUp.mouseover" end="arrowUp.mouseout"/>
                  </use>
                  <path fill="none" stroke="white" stroke-width="1.5" d="M0,-3.0v7 M-2.5,-0.5L0,-3.0L2.5,-0.5"/>
                </g>
                <g id="arrowRight" xlink:href="#dirArrow" transform="rotate(90) translate(36 -43)" onmousedown="handlePan(1,0)">
                  <use xlink:href="#rim" fill="#404040">
                        <set attributeName="fill" to="#808080" begin="arrowRight.mouseover" end="arrowRight.mouseout"/>
                  </use>
                  <path fill="none" stroke="white" stroke-width="1.5" d="M0,-3.0v7 M-2.5,-0.5L0,-3.0L2.5,-0.5"/>
                </g>
                <g id="arrowDown" xlink:href="#dirArrow" transform="rotate(180) translate(-30 -48)" onmousedown="handlePan(0,1)">
                  <use xlink:href="#rim" fill="#404040">
                        <set attributeName="fill" to="#808080" begin="arrowDown.mouseover" end="arrowDown.mouseout"/>
                  </use>
                  <path fill="none" stroke="white" stroke-width="1.5" d="M0,-3.0v7 M-2.5,-0.5L0,-3.0L2.5,-0.5"/>
                </g>
                <g id="arrowLeft" xlink:href="#dirArrow" transform="rotate(270) translate(-36 17)" onmousedown="handlePan(-1,0)">
                  <use xlink:href="#rim" fill="#404040">
                        <set attributeName="fill" to="#808080" begin="arrowLeft.mouseover" end="arrowLeft.mouseout"/>
                  </use>
                  <path fill="none" stroke="white" stroke-width="1.5" d="M0,-3.0v7 M-2.5,-0.5L0,-3.0L2.5,-0.5"/>
                </g>
        </g>
        <svg viewBox="0 0 15 15" width="100%" height="30px" preserveAspectRatio="xMaxYMin meet">
         <g id="arrow_out" transform="scale(0.3 0.3)">
          <a xlink:href="PengRobinson_8cpp__incl_org.svg" target="_base">
           <rect id="button" ry="5" rx="5" y="6" x="6" height="38" width="38"
                fill="#f2f5e9" fill-opacity="0.5" stroke="#606060" stroke-width="1.0"/>
           <path id="arrow"
             d="M 11.500037,31.436501 C 11.940474,20.09759 22.043105,11.32322 32.158766,21.979434 L 37.068811,17.246167 C 37.068811,17.246167 37.088388,32 37.088388,32 L 22.160133,31.978069 C 22.160133,31.978069 26.997745,27.140456 26.997745,27.140456 C 18.528582,18.264221 13.291696,25.230495 11.500037,31.436501 z"
             style="fill:#404040;"/>
          </a>
         </g>
        </svg>
</svg>
