<?xml version="1.0" encoding="UTF-8" standalone="no"?>
<!DOCTYPE svg PUBLIC "-//W3C//DTD SVG 1.1//EN"
 "http://www.w3.org/Graphics/SVG/1.1/DTD/svg11.dtd">
<!-- Generated by graphviz version 2.50.0 (0)
 -->
<!-- Title: ThermoPhase Pages: 1 -->
<svg width="322pt" height="164pt"
 viewBox="0.00 0.00 321.50 164.00" xmlns="http://www.w3.org/2000/svg" xmlns:xlink="http://www.w3.org/1999/xlink">
<g id="graph0" class="graph" transform="scale(1 1) rotate(0) translate(4 160)">
<title>ThermoPhase</title>
<polygon fill="white" stroke="transparent" points="-4,4 -4,-160 317.5,-160 317.5,4 -4,4"/>
<!-- Node1 -->
<g id="node1" class="node">
<title>Node1</title>
<g id="a_node1"><a xlink:title="Base class for a phase with thermodynamic properties.">
<polygon fill="#bfbfbf" stroke="black" points="149,-0.5 149,-19.5 226,-19.5 226,-0.5 149,-0.5"/>
<text text-anchor="middle" x="187.5" y="-7.5" font-family="Helvetica,sans-Serif" font-size="10.00">ThermoPhase</text>
</a>
</g>
</g>
<!-- Node2 -->
<g id="node2" class="node">
<title>Node2</title>
<g id="a_node2"><a xlink:href="../../d6/d0e/classCantera_1_1Phase.html" target="_top" xlink:title="Class Phase is the base class for phases of matter, managing the species and elements in a phase,...">
<polygon fill="white" stroke="black" points="72.5,-67.5 72.5,-86.5 116.5,-86.5 116.5,-67.5 72.5,-67.5"/>
<text text-anchor="middle" x="94.5" y="-74.5" font-family="Helvetica,sans-Serif" font-size="10.00">Phase</text>
</a>
</g>
</g>
<!-- Node2&#45;&gt;Node1 -->
<g id="edge1" class="edge">
<title>Node2&#45;&gt;Node1</title>
<path fill="none" stroke="midnightblue" d="M115.36,-61.42C133.75,-48.57 159.91,-30.28 175.16,-19.63"/>
<polygon fill="midnightblue" stroke="midnightblue" points="113.23,-58.64 107.04,-67.23 117.24,-64.37 113.23,-58.64"/>
</g>
<!-- Node3 -->
<g id="node3" class="node">
<title>Node3</title>
<g id="a_node3"><a xlink:href="../../d8/d89/classCantera_1_1ValueCache.html" target="_top" xlink:title=" ">
<polygon fill="white" stroke="black" points="0,-135.5 0,-154.5 69,-154.5 69,-135.5 0,-135.5"/>
<text text-anchor="middle" x="34.5" y="-142.5" font-family="Helvetica,sans-Serif" font-size="10.00">ValueCache</text>
</a>
</g>
</g>
<!-- Node3&#45;&gt;Node2 -->
<g id="edge2" class="edge">
<title>Node3&#45;&gt;Node2</title>
<path fill="none" stroke="#9a32cd" stroke-dasharray="5,2" d="M43.42,-126.45C47.48,-119.37 52.68,-111.38 58.5,-105 64.92,-97.96 73.4,-91.5 80.51,-86.66"/>
<polygon fill="#9a32cd" stroke="#9a32cd" points="40.31,-124.85 38.64,-135.31 46.47,-128.17 40.31,-124.85"/>
<text text-anchor="middle" x="80" y="-108" font-family="Helvetica,sans-Serif" font-size="10.00"> m_cache</text>
</g>
<!-- Node4 -->
<g id="node4" class="node">
<title>Node4</title>
<g id="a_node4"><a xlink:href="../../d1/d98/classCantera_1_1XML__Node.html" target="_top" xlink:title="Class XML_Node is a tree&#45;based representation of the contents of an XML file.">
<polygon fill="white" stroke="black" points="87,-135.5 87,-154.5 152,-154.5 152,-135.5 87,-135.5"/>
<text text-anchor="middle" x="119.5" y="-142.5" font-family="Helvetica,sans-Serif" font-size="10.00">XML_Node</text>
</a>
</g>
</g>
<!-- Node4&#45;&gt;Node2 -->
<g id="edge3" class="edge">
<title>Node4&#45;&gt;Node2</title>
<path fill="none" stroke="#9a32cd" stroke-dasharray="5,2" d="M112.61,-125.81C107.8,-113.12 101.61,-96.76 97.85,-86.84"/>
<polygon fill="#9a32cd" stroke="#9a32cd" points="109.42,-127.26 116.23,-135.37 115.96,-124.78 109.42,-127.26"/>
<text text-anchor="middle" x="125" y="-108" font-family="Helvetica,sans-Serif" font-size="10.00"> m_xml</text>
</g>
<!-- Node4&#45;&gt;Node4 -->
<g id="edge4" class="edge">
<title>Node4&#45;&gt;Node4</title>
<path fill="none" stroke="#9a32cd" stroke-dasharray="5,2" d="M162.14,-150.38C166.91,-149.37 170,-147.57 170,-145 170,-140.88 162.1,-138.76 152.04,-138.63"/>
<polygon fill="#9a32cd" stroke="#9a32cd" points="161.66,-146.91 152.04,-151.37 162.34,-153.88 161.66,-146.91"/>
<text text-anchor="middle" x="192" y="-148" font-family="Helvetica,sans-Serif" font-size="10.00"> m_parent</text>
<text text-anchor="middle" x="192" y="-137" font-family="Helvetica,sans-Serif" font-size="10.00">m_root</text>
</g>
<!-- Node5 -->
<g id="node5" class="node">
<title>Node5</title>
<g id="a_node5"><a xlink:href="../../d5/dda/classCantera_1_1MultiSpeciesThermo.html" target="_top" xlink:title="A species thermodynamic property manager for a phase.">
<polygon fill="white" stroke="black" points="134.5,-67.5 134.5,-86.5 240.5,-86.5 240.5,-67.5 134.5,-67.5"/>
<text text-anchor="middle" x="187.5" y="-74.5" font-family="Helvetica,sans-Serif" font-size="10.00">MultiSpeciesThermo</text>
</a>
</g>
</g>
<!-- Node5&#45;&gt;Node1 -->
<g id="edge5" class="edge">
<title>Node5&#45;&gt;Node1</title>
<path fill="none" stroke="#9a32cd" stroke-dasharray="5,2" d="M187.5,-57.04C187.5,-44.67 187.5,-29.12 187.5,-19.63"/>
<polygon fill="#9a32cd" stroke="#9a32cd" points="184,-57.23 187.5,-67.23 191,-57.23 184,-57.23"/>
<text text-anchor="middle" x="216.5" y="-41" font-family="Helvetica,sans-Serif" font-size="10.00"> m_spthermo</text>
</g>
<!-- Node6 -->
<g id="node6" class="node">
<title>Node6</title>
<g id="a_node6"><a xlink:href="../../db/d74/classCantera_1_1AnyMap.html" target="_top" xlink:title="A map of string keys to values whose type can vary at runtime.">
<polygon fill="white" stroke="black" points="259,-67.5 259,-86.5 312,-86.5 312,-67.5 259,-67.5"/>
<text text-anchor="middle" x="285.5" y="-74.5" font-family="Helvetica,sans-Serif" font-size="10.00">AnyMap</text>
</a>
</g>
</g>
<!-- Node6&#45;&gt;Node1 -->
<g id="edge6" class="edge">
<title>Node6&#45;&gt;Node1</title>
<path fill="none" stroke="#9a32cd" stroke-dasharray="5,2" d="M272.55,-59.58C266.19,-52.28 258.06,-44 249.5,-38 238.54,-30.32 225.05,-24.12 213.45,-19.61"/>
<polygon fill="#9a32cd" stroke="#9a32cd" points="270.05,-62.04 279.13,-67.5 275.44,-57.57 270.05,-62.04"/>
<text text-anchor="middle" x="281.5" y="-41" font-family="Helvetica,sans-Serif" font-size="10.00"> m_input</text>
</g>
<!-- Node7 -->
<g id="node7" class="node">
<title>Node7</title>
<g id="a_node7"><a xlink:href="../../d9/d23/classCantera_1_1AnyBase.html" target="_top" xlink:title="Base class defining common data possessed by both AnyMap and AnyValue objects.">
<polygon fill="white" stroke="black" points="257.5,-135.5 257.5,-154.5 313.5,-154.5 313.5,-135.5 257.5,-135.5"/>
<text text-anchor="middle" x="285.5" y="-142.5" font-family="Helvetica,sans-Serif" font-size="10.00">AnyBase</text>
</a>
</g>
</g>
<!-- Node7&#45;&gt;Node6 -->
<g id="edge7" class="edge">
<title>Node7&#45;&gt;Node6</title>
<path fill="none" stroke="midnightblue" d="M285.5,-125.04C285.5,-112.47 285.5,-96.56 285.5,-86.84"/>
<polygon fill="midnightblue" stroke="midnightblue" points="282,-125.37 285.5,-135.37 289,-125.37 282,-125.37"/>
</g>
</g>
</svg>
