<?xml version="1.0" encoding="UTF-8" standalone="no"?>
<!DOCTYPE svg PUBLIC "-//W3C//DTD SVG 1.1//EN"
 "http://www.w3.org/Graphics/SVG/1.1/DTD/svg11.dtd">
<!-- Generated by graphviz version 2.43.0 (0)
 -->
<!-- Title: Integrator.h Pages: 1 -->
<svg width="728pt" height="137pt"
 viewBox="0.00 0.00 728.00 137.00" xmlns="http://www.w3.org/2000/svg" xmlns:xlink="http://www.w3.org/1999/xlink">
<g id="graph0" class="graph" transform="scale(1 1) rotate(0) translate(4 133)">
<title>Integrator.h</title>
<!-- Node1 -->
<g id="Node000001" class="node">
<title>Node1</title>
<g id="a_Node000001"><a xlink:title=" ">
<polygon fill="#999999" stroke="#666666" points="334.5,-129 261.5,-129 261.5,-110 334.5,-110 334.5,-129"/>
<text text-anchor="middle" x="298" y="-117" font-family="Helvetica,sans-Serif" font-size="10.00">Integrator.h</text>
</a>
</g>
</g>
<!-- Node2 -->
<g id="Node000002" class="node">
<title>Node2</title>
<g id="a_Node000002"><a xlink:href="../../d7/dd9/CVodesIntegrator_8h.html" target="_top" xlink:title=" ">
<polygon fill="white" stroke="#666666" points="194.5,-74 85.5,-74 85.5,-55 194.5,-55 194.5,-74"/>
<text text-anchor="middle" x="140" y="-62" font-family="Helvetica,sans-Serif" font-size="10.00">CVodesIntegrator.h</text>
</a>
</g>
</g>
<!-- Node1&#45;&gt;Node2 -->
<g id="edge1_Node000001_Node000002" class="edge">
<title>Node1&#45;&gt;Node2</title>
<g id="a_edge1_Node000001_Node000002"><a xlink:title=" ">
<path fill="none" stroke="#63b8ff" d="M263.12,-106.8C233.63,-96.91 192.07,-82.97 165.58,-74.08"/>
<polygon fill="#63b8ff" stroke="#63b8ff" points="262.02,-110.12 272.61,-109.98 264.25,-103.49 262.02,-110.12"/>
</a>
</g>
</g>
<!-- Node4 -->
<g id="Node000004" class="node">
<title>Node4</title>
<g id="a_Node000004"><a xlink:href="../../de/dfe/Integrators_8cpp.html" target="_top" xlink:title=" ">
<polygon fill="white" stroke="#666666" points="228,-19 138,-19 138,0 228,0 228,-19"/>
<text text-anchor="middle" x="183" y="-7" font-family="Helvetica,sans-Serif" font-size="10.00">Integrators.cpp</text>
</a>
</g>
</g>
<!-- Node1&#45;&gt;Node4 -->
<g id="edge11_Node000001_Node000004" class="edge">
<title>Node1&#45;&gt;Node4</title>
<g id="a_edge11_Node000001_Node000004"><a xlink:title=" ">
<path fill="none" stroke="#63b8ff" d="M277.88,-103.69C266.94,-95.34 253.36,-84.52 242,-74 222.12,-55.6 201.03,-31.68 190.26,-19.1"/>
<polygon fill="#63b8ff" stroke="#63b8ff" points="275.9,-106.58 285.99,-109.79 280.11,-100.98 275.9,-106.58"/>
</a>
</g>
</g>
<!-- Node5 -->
<g id="Node000005" class="node">
<title>Node5</title>
<g id="a_Node000005"><a xlink:href="../../d0/dbd/IdasIntegrator_8h.html" target="_top" xlink:title="Header file for class IdasIntegrator.">
<polygon fill="white" stroke="#666666" points="344.5,-74 251.5,-74 251.5,-55 344.5,-55 344.5,-74"/>
<text text-anchor="middle" x="298" y="-62" font-family="Helvetica,sans-Serif" font-size="10.00">IdasIntegrator.h</text>
</a>
</g>
</g>
<!-- Node1&#45;&gt;Node5 -->
<g id="edge4_Node000001_Node000005" class="edge">
<title>Node1&#45;&gt;Node5</title>
<g id="a_edge4_Node000001_Node000005"><a xlink:title=" ">
<path fill="none" stroke="#63b8ff" d="M298,-99.66C298,-90.93 298,-80.99 298,-74.09"/>
<polygon fill="#63b8ff" stroke="#63b8ff" points="294.5,-99.75 298,-109.75 301.5,-99.75 294.5,-99.75"/>
</a>
</g>
</g>
<!-- Node7 -->
<g id="Node000007" class="node">
<title>Node7</title>
<g id="a_Node000007"><a xlink:href="../../da/d1f/ImplicitSurfChem_8h.html" target="_top" xlink:title="Declarations for the implicit integration of surface site density equations (see Kinetics Managers an...">
<polygon fill="white" stroke="#666666" points="484,-74 374,-74 374,-55 484,-55 484,-74"/>
<text text-anchor="middle" x="429" y="-62" font-family="Helvetica,sans-Serif" font-size="10.00">ImplicitSurfChem.h</text>
</a>
</g>
</g>
<!-- Node1&#45;&gt;Node7 -->
<g id="edge7_Node000001_Node000007" class="edge">
<title>Node1&#45;&gt;Node7</title>
<g id="a_edge7_Node000001_Node000007"><a xlink:title=" ">
<path fill="none" stroke="#63b8ff" d="M328.5,-106.16C352.75,-96.35 386.07,-82.87 407.57,-74.17"/>
<polygon fill="#63b8ff" stroke="#63b8ff" points="327,-102.99 319.05,-109.98 329.63,-109.48 327,-102.99"/>
</a>
</g>
</g>
<!-- Node11 -->
<g id="Node000011" class="node">
<title>Node11</title>
<g id="a_Node000011"><a xlink:href="../../d0/d1c/ReactorNet_8cpp.html" target="_top" xlink:title=" ">
<polygon fill="white" stroke="#666666" points="594,-74 502,-74 502,-55 594,-55 594,-74"/>
<text text-anchor="middle" x="548" y="-62" font-family="Helvetica,sans-Serif" font-size="10.00">ReactorNet.cpp</text>
</a>
</g>
</g>
<!-- Node1&#45;&gt;Node11 -->
<g id="edge12_Node000001_Node000011" class="edge">
<title>Node1&#45;&gt;Node11</title>
<g id="a_edge12_Node000001_Node000011"><a xlink:title=" ">
<path fill="none" stroke="#63b8ff" d="M344.52,-108.64C391.38,-98.7 462.97,-83.53 507.55,-74.08"/>
<polygon fill="#63b8ff" stroke="#63b8ff" points="343.68,-105.24 334.62,-110.74 345.13,-112.09 343.68,-105.24"/>
</a>
</g>
</g>
<!-- Node3 -->
<g id="Node000003" class="node">
<title>Node3</title>
<g id="a_Node000003"><a xlink:href="../../da/d4f/CVodesIntegrator_8cpp.html" target="_top" xlink:title=" ">
<polygon fill="white" stroke="#666666" points="120,-19 0,-19 0,0 120,0 120,-19"/>
<text text-anchor="middle" x="60" y="-7" font-family="Helvetica,sans-Serif" font-size="10.00">CVodesIntegrator.cpp</text>
</a>
</g>
</g>
<!-- Node2&#45;&gt;Node3 -->
<g id="edge2_Node000002_Node000003" class="edge">
<title>Node2&#45;&gt;Node3</title>
<g id="a_edge2_Node000002_Node000003"><a xlink:title=" ">
<path fill="none" stroke="#63b8ff" d="M118.75,-49.42C104.24,-39.81 85.46,-27.37 73.09,-19.17"/>
<polygon fill="#63b8ff" stroke="#63b8ff" points="116.88,-52.38 127.15,-54.98 120.74,-46.54 116.88,-52.38"/>
</a>
</g>
</g>
<!-- Node2&#45;&gt;Node4 -->
<g id="edge3_Node000002_Node000004" class="edge">
<title>Node2&#45;&gt;Node4</title>
<g id="a_edge3_Node000002_Node000004"><a xlink:title=" ">
<path fill="none" stroke="#63b8ff" d="M153.42,-46.96C160.91,-37.72 169.94,-26.6 176.03,-19.09"/>
<polygon fill="#63b8ff" stroke="#63b8ff" points="150.68,-44.78 147.1,-54.75 156.12,-49.19 150.68,-44.78"/>
</a>
</g>
</g>
<!-- Node5&#45;&gt;Node4 -->
<g id="edge6_Node000005_Node000004" class="edge">
<title>Node5&#45;&gt;Node4</title>
<g id="a_edge6_Node000005_Node000004"><a xlink:title=" ">
<path fill="none" stroke="#63b8ff" d="M270.37,-50.77C249.16,-40.99 220.44,-27.75 201.81,-19.17"/>
<polygon fill="#63b8ff" stroke="#63b8ff" points="268.98,-53.98 279.52,-54.98 271.91,-47.62 268.98,-53.98"/>
</a>
</g>
</g>
<!-- Node6 -->
<g id="Node000006" class="node">
<title>Node6</title>
<g id="a_Node000006"><a xlink:href="../../d4/d7c/IdasIntegrator_8cpp.html" target="_top" xlink:title=" ">
<polygon fill="white" stroke="#666666" points="350,-19 246,-19 246,0 350,0 350,-19"/>
<text text-anchor="middle" x="298" y="-7" font-family="Helvetica,sans-Serif" font-size="10.00">IdasIntegrator.cpp</text>
</a>
</g>
</g>
<!-- Node5&#45;&gt;Node6 -->
<g id="edge5_Node000005_Node000006" class="edge">
<title>Node5&#45;&gt;Node6</title>
<g id="a_edge5_Node000005_Node000006"><a xlink:title=" ">
<path fill="none" stroke="#63b8ff" d="M298,-44.66C298,-35.93 298,-25.99 298,-19.09"/>
<polygon fill="#63b8ff" stroke="#63b8ff" points="294.5,-44.75 298,-54.75 301.5,-44.75 294.5,-44.75"/>
</a>
</g>
</g>
<!-- Node8 -->
<g id="Node000008" class="node">
<title>Node8</title>
<g id="a_Node000008"><a xlink:href="../../d7/d3f/ImplicitSurfChem_8cpp.html" target="_top" xlink:title="Definitions for the implicit integration of surface site density equations (see Kinetics Managers and...">
<polygon fill="white" stroke="#666666" points="490,-19 368,-19 368,0 490,0 490,-19"/>
<text text-anchor="middle" x="429" y="-7" font-family="Helvetica,sans-Serif" font-size="10.00">ImplicitSurfChem.cpp</text>
</a>
</g>
</g>
<!-- Node7&#45;&gt;Node8 -->
<g id="edge8_Node000007_Node000008" class="edge">
<title>Node7&#45;&gt;Node8</title>
<g id="a_edge8_Node000007_Node000008"><a xlink:title=" ">
<path fill="none" stroke="#63b8ff" d="M429,-44.66C429,-35.93 429,-25.99 429,-19.09"/>
<polygon fill="#63b8ff" stroke="#63b8ff" points="425.5,-44.75 429,-54.75 432.5,-44.75 425.5,-44.75"/>
</a>
</g>
</g>
<!-- Node9 -->
<g id="Node000009" class="node">
<title>Node9</title>
<g id="a_Node000009"><a xlink:href="../../d3/db3/InterfaceKinetics_8cpp.html" target="_top" xlink:title=" ">
<polygon fill="white" stroke="#666666" points="627.5,-19 508.5,-19 508.5,0 627.5,0 627.5,-19"/>
<text text-anchor="middle" x="568" y="-7" font-family="Helvetica,sans-Serif" font-size="10.00">InterfaceKinetics.cpp</text>
</a>
</g>
</g>
<!-- Node7&#45;&gt;Node9 -->
<g id="edge9_Node000007_Node000009" class="edge">
<title>Node7&#45;&gt;Node9</title>
<g id="a_edge9_Node000007_Node000009"><a xlink:title=" ">
<path fill="none" stroke="#63b8ff" d="M460.68,-51.42C486.47,-41.59 522.24,-27.95 545.26,-19.17"/>
<polygon fill="#63b8ff" stroke="#63b8ff" points="459.43,-48.15 451.33,-54.98 461.92,-54.69 459.43,-48.15"/>
</a>
</g>
</g>
<!-- Node10 -->
<g id="Node000010" class="node">
<title>Node10</title>
<g id="a_Node000010"><a xlink:href="../../d3/dc9/solveSP_8cpp.html" target="_top" xlink:title="Implicit surface site concentration solver.">
<polygon fill="white" stroke="#666666" points="720,-19 646,-19 646,0 720,0 720,-19"/>
<text text-anchor="middle" x="683" y="-7" font-family="Helvetica,sans-Serif" font-size="10.00">solveSP.cpp</text>
</a>
</g>
</g>
<!-- Node7&#45;&gt;Node10 -->
<g id="edge10_Node000007_Node000010" class="edge">
<title>Node7&#45;&gt;Node10</title>
<g id="a_edge10_Node000007_Node000010"><a xlink:title=" ">
<path fill="none" stroke="#63b8ff" d="M479.88,-52.88C528.85,-42.67 601.75,-27.45 645.6,-18.3"/>
<polygon fill="#63b8ff" stroke="#63b8ff" points="478.88,-49.52 469.81,-54.98 480.31,-56.37 478.88,-49.52"/>
</a>
</g>
</g>
</g>
</svg>
