<?xml version="1.0" encoding="UTF-8" standalone="no"?>
<!DOCTYPE svg PUBLIC "-//W3C//DTD SVG 1.1//EN"
 "http://www.w3.org/Graphics/SVG/1.1/DTD/svg11.dtd">
<!-- Generated by graphviz version 2.50.0 (0)
 -->
<!-- Title: MetalPhase.h Pages: 1 -->
<svg width="712pt" height="420pt"
 viewBox="0.00 0.00 712.00 420.00" xmlns="http://www.w3.org/2000/svg" xmlns:xlink="http://www.w3.org/1999/xlink">
<g id="graph0" class="graph" transform="scale(1 1) rotate(0) translate(4 416)">
<title>MetalPhase.h</title>
<polygon fill="white" stroke="transparent" points="-4,4 -4,-416 708,-416 708,4 -4,4"/>
<!-- Node1 -->
<g id="node1" class="node">
<title>Node1</title>
<g id="a_node1"><a xlink:title=" ">
<polygon fill="#bfbfbf" stroke="black" points="325,-392.5 325,-411.5 402,-411.5 402,-392.5 325,-392.5"/>
<text text-anchor="middle" x="363.5" y="-399.5" font-family="Helvetica,sans-Serif" font-size="10.00">MetalPhase.h</text>
</a>
</g>
</g>
<!-- Node2 -->
<g id="node2" class="node">
<title>Node2</title>
<g id="a_node2"><a xlink:href="../../d7/d01/ThermoPhase_8h.html" target="_top" xlink:title="Header file for class ThermoPhase, the base class for phases with thermodynamic properties,...">
<polygon fill="white" stroke="black" points="216.5,-336.5 216.5,-355.5 302.5,-355.5 302.5,-336.5 216.5,-336.5"/>
<text text-anchor="middle" x="259.5" y="-343.5" font-family="Helvetica,sans-Serif" font-size="10.00">ThermoPhase.h</text>
</a>
</g>
</g>
<!-- Node1&#45;&gt;Node2 -->
<g id="edge1" class="edge">
<title>Node1&#45;&gt;Node2</title>
<path fill="none" stroke="midnightblue" d="M346.79,-392.32C330.19,-383.7 304.5,-370.36 285.28,-360.39"/>
<polygon fill="midnightblue" stroke="midnightblue" points="286.66,-357.16 276.17,-355.65 283.43,-363.37 286.66,-357.16"/>
</g>
<!-- Node30 -->
<g id="node15" class="node">
<title>Node30</title>
<g id="a_node15"><a xlink:href="../../dc/deb/ctml_8h.html" target="_top" xlink:title="CTML (&quot;Cantera Markup Language&quot;) is the variant of XML that Cantera uses to store data.">
<polygon fill="white" stroke="black" points="583,-112.5 583,-131.5 686,-131.5 686,-112.5 583,-112.5"/>
<text text-anchor="middle" x="634.5" y="-119.5" font-family="Helvetica,sans-Serif" font-size="10.00">cantera/base/ctml.h</text>
</a>
</g>
</g>
<!-- Node1&#45;&gt;Node30 -->
<g id="edge23" class="edge">
<title>Node1&#45;&gt;Node30</title>
<path fill="none" stroke="midnightblue" d="M402.35,-396.27C458.46,-387.02 555.5,-360.92 555.5,-291 555.5,-291 555.5,-291 555.5,-233 555.5,-192.79 590.75,-157.22 614.16,-138.03"/>
<polygon fill="midnightblue" stroke="midnightblue" points="616.47,-140.66 622.16,-131.72 612.14,-135.17 616.47,-140.66"/>
</g>
<!-- Node3 -->
<g id="node3" class="node">
<title>Node3</title>
<g id="a_node3"><a xlink:href="../../da/d84/Phase_8h.html" target="_top" xlink:title="Header file for class Phase.">
<polygon fill="white" stroke="black" points="395,-168.5 395,-187.5 448,-187.5 448,-168.5 395,-168.5"/>
<text text-anchor="middle" x="421.5" y="-175.5" font-family="Helvetica,sans-Serif" font-size="10.00">Phase.h</text>
</a>
</g>
</g>
<!-- Node2&#45;&gt;Node3 -->
<g id="edge2" class="edge">
<title>Node2&#45;&gt;Node3</title>
<path fill="none" stroke="midnightblue" d="M274.86,-336.35C288.89,-328.05 309.76,-314.64 325.5,-300 360.69,-267.27 393.65,-221.07 410.27,-196.29"/>
<polygon fill="midnightblue" stroke="midnightblue" points="413.39,-197.92 415.98,-187.64 407.55,-194.06 413.39,-197.92"/>
</g>
<!-- Node21 -->
<g id="node11" class="node">
<title>Node21</title>
<g id="a_node11"><a xlink:href="../../d6/d7a/MultiSpeciesThermo_8h.html" target="_top" xlink:title="Header for a general species thermodynamic property manager for a phase (see MultiSpeciesThermo).">
<polygon fill="white" stroke="black" points="202.5,-280.5 202.5,-299.5 316.5,-299.5 316.5,-280.5 202.5,-280.5"/>
<text text-anchor="middle" x="259.5" y="-287.5" font-family="Helvetica,sans-Serif" font-size="10.00">MultiSpeciesThermo.h</text>
</a>
</g>
</g>
<!-- Node2&#45;&gt;Node21 -->
<g id="edge12" class="edge">
<title>Node2&#45;&gt;Node21</title>
<path fill="none" stroke="midnightblue" d="M259.5,-336.08C259.5,-329.01 259.5,-318.86 259.5,-309.99"/>
<polygon fill="midnightblue" stroke="midnightblue" points="263,-309.75 259.5,-299.75 256,-309.75 263,-309.75"/>
</g>
<!-- Node23 -->
<g id="node13" class="node">
<title>Node23</title>
<g id="a_node13"><a xlink:href="../../dd/d2a/AnyMap_8h.html" target="_top" xlink:title=" ">
<polygon fill="white" stroke="red" points="101.5,-168.5 101.5,-187.5 221.5,-187.5 221.5,-168.5 101.5,-168.5"/>
<text text-anchor="middle" x="161.5" y="-175.5" font-family="Helvetica,sans-Serif" font-size="10.00">cantera/base/AnyMap.h</text>
</a>
</g>
</g>
<!-- Node2&#45;&gt;Node23 -->
<g id="edge22" class="edge">
<title>Node2&#45;&gt;Node23</title>
<path fill="none" stroke="midnightblue" d="M239.89,-336.37C225.01,-328.84 205.19,-316.53 193.5,-300 171.42,-268.77 164.57,-223.27 162.45,-197.9"/>
<polygon fill="midnightblue" stroke="midnightblue" points="165.93,-197.52 161.77,-187.78 158.95,-197.99 165.93,-197.52"/>
</g>
<!-- Node24 -->
<g id="node14" class="node">
<title>Node24</title>
<g id="a_node14"><a xlink:href="../../da/d58/Units_8h.html" target="_top" xlink:title="Header for unit conversion utilities, which are used to translate user input from input files (See In...">
<polygon fill="white" stroke="black" points="0,-112.5 0,-131.5 107,-131.5 107,-112.5 0,-112.5"/>
<text text-anchor="middle" x="53.5" y="-119.5" font-family="Helvetica,sans-Serif" font-size="10.00">cantera/base/Units.h</text>
</a>
</g>
</g>
<!-- Node2&#45;&gt;Node24 -->
<g id="edge21" class="edge">
<title>Node2&#45;&gt;Node24</title>
<path fill="none" stroke="midnightblue" d="M239.36,-336.43C222.28,-328.54 197.73,-315.71 179.5,-300 124.11,-252.26 80.35,-175.32 62.38,-140.78"/>
<polygon fill="midnightblue" stroke="midnightblue" points="65.49,-139.18 57.82,-131.86 59.25,-142.36 65.49,-139.18"/>
</g>
<!-- Node4 -->
<g id="node4" class="node">
<title>Node4</title>
<g id="a_node4"><a xlink:href="../../db/d98/ctexceptions_8h.html" target="_top" xlink:title="Definitions for the classes that are thrown when Cantera experiences an error condition (also contain...">
<polygon fill="white" stroke="black" points="177.5,-112.5 177.5,-131.5 317.5,-131.5 317.5,-112.5 177.5,-112.5"/>
<text text-anchor="middle" x="247.5" y="-119.5" font-family="Helvetica,sans-Serif" font-size="10.00">cantera/base/ctexceptions.h</text>
</a>
</g>
</g>
<!-- Node3&#45;&gt;Node4 -->
<g id="edge3" class="edge">
<title>Node3&#45;&gt;Node4</title>
<path fill="none" stroke="midnightblue" d="M394.69,-168.68C365.23,-159.54 317.71,-144.79 284.67,-134.53"/>
<polygon fill="midnightblue" stroke="midnightblue" points="285.5,-131.13 274.91,-131.51 283.42,-137.81 285.5,-131.13"/>
</g>
<!-- Node18 -->
<g id="node8" class="node">
<title>Node18</title>
<g id="a_node8"><a xlink:href="../../d9/dda/Elements_8h.html" target="_top" xlink:title="Contains the getElementWeight function and the definitions of element constraint types.">
<polygon fill="white" stroke="black" points="472.5,-56.5 472.5,-75.5 606.5,-75.5 606.5,-56.5 472.5,-56.5"/>
<text text-anchor="middle" x="539.5" y="-63.5" font-family="Helvetica,sans-Serif" font-size="10.00">cantera/thermo/Elements.h</text>
</a>
</g>
</g>
<!-- Node3&#45;&gt;Node18 -->
<g id="edge7" class="edge">
<title>Node3&#45;&gt;Node18</title>
<path fill="none" stroke="midnightblue" d="M448.03,-171.23C470.12,-165.1 500.87,-153.26 519.5,-132 530.8,-119.11 535.71,-99.93 537.85,-85.75"/>
<polygon fill="midnightblue" stroke="midnightblue" points="541.35,-86 539.04,-75.65 534.39,-85.18 541.35,-86"/>
</g>
<!-- Node19 -->
<g id="node9" class="node">
<title>Node19</title>
<g id="a_node9"><a xlink:href="../../d6/df6/ValueCache_8h.html" target="_top" xlink:title=" ">
<polygon fill="white" stroke="black" points="374,-112.5 374,-131.5 511,-131.5 511,-112.5 374,-112.5"/>
<text text-anchor="middle" x="442.5" y="-119.5" font-family="Helvetica,sans-Serif" font-size="10.00">cantera/base/ValueCache.h</text>
</a>
</g>
</g>
<!-- Node3&#45;&gt;Node19 -->
<g id="edge9" class="edge">
<title>Node3&#45;&gt;Node19</title>
<path fill="none" stroke="midnightblue" d="M424.97,-168.08C427.81,-160.77 431.93,-150.18 435.46,-141.1"/>
<polygon fill="midnightblue" stroke="midnightblue" points="438.73,-142.34 439.1,-131.75 432.21,-139.8 438.73,-142.34"/>
</g>
<!-- Node5 -->
<g id="node5" class="node">
<title>Node5</title>
<g id="a_node5"><a xlink:href="../../db/def/fmt_8h.html" target="_top" xlink:title="Wrapper for either system&#45;installed or local headers for fmt.">
<polygon fill="white" stroke="red" points="144.5,-56.5 144.5,-75.5 242.5,-75.5 242.5,-56.5 144.5,-56.5"/>
<text text-anchor="middle" x="193.5" y="-63.5" font-family="Helvetica,sans-Serif" font-size="10.00">cantera/base/fmt.h</text>
</a>
</g>
</g>
<!-- Node4&#45;&gt;Node5 -->
<g id="edge4" class="edge">
<title>Node4&#45;&gt;Node5</title>
<path fill="none" stroke="midnightblue" d="M238.58,-112.08C230.72,-104.22 219.07,-92.57 209.58,-83.08"/>
<polygon fill="midnightblue" stroke="midnightblue" points="211.8,-80.35 202.25,-75.75 206.85,-85.3 211.8,-80.35"/>
</g>
<!-- Node17 -->
<g id="node7" class="node">
<title>Node17</title>
<g id="a_node7"><a xlink:title=" ">
<polygon fill="white" stroke="#bfbfbf" points="261,-56.5 261,-75.5 320,-75.5 320,-56.5 261,-56.5"/>
<text text-anchor="middle" x="290.5" y="-63.5" font-family="Helvetica,sans-Serif" font-size="10.00">exception</text>
</a>
</g>
</g>
<!-- Node4&#45;&gt;Node17 -->
<g id="edge6" class="edge">
<title>Node4&#45;&gt;Node17</title>
<path fill="none" stroke="midnightblue" d="M254.6,-112.08C260.74,-104.38 269.77,-93.03 277.24,-83.65"/>
<polygon fill="midnightblue" stroke="midnightblue" points="280.04,-85.75 283.53,-75.75 274.56,-81.39 280.04,-85.75"/>
</g>
<!-- Node6 -->
<g id="node6" class="node">
<title>Node6</title>
<g id="a_node6"><a xlink:href="../../d9/ddc/ct__defs_8h.html" target="_top" xlink:title="This file contains definitions of constants, types and terms that are used in internal routines and a...">
<polygon fill="white" stroke="red" points="339,-0.5 339,-19.5 396,-19.5 396,-0.5 339,-0.5"/>
<text text-anchor="middle" x="367.5" y="-7.5" font-family="Helvetica,sans-Serif" font-size="10.00">ct_defs.h</text>
</a>
</g>
</g>
<!-- Node5&#45;&gt;Node6 -->
<g id="edge5" class="edge">
<title>Node5&#45;&gt;Node6</title>
<path fill="none" stroke="midnightblue" d="M221.07,-56.44C250.6,-47.28 297.62,-32.69 330.38,-22.52"/>
<polygon fill="midnightblue" stroke="midnightblue" points="331.54,-25.82 340.06,-19.52 329.47,-19.14 331.54,-25.82"/>
</g>
<!-- Node18&#45;&gt;Node6 -->
<g id="edge8" class="edge">
<title>Node18&#45;&gt;Node6</title>
<path fill="none" stroke="midnightblue" d="M512.25,-56.44C483.06,-47.28 436.58,-32.69 404.19,-22.52"/>
<polygon fill="midnightblue" stroke="midnightblue" points="405.22,-19.17 394.63,-19.52 403.12,-25.85 405.22,-19.17"/>
</g>
<!-- Node19&#45;&gt;Node6 -->
<g id="edge10" class="edge">
<title>Node19&#45;&gt;Node6</title>
<path fill="none" stroke="midnightblue" d="M434.7,-112.36C426.89,-103.54 414.75,-89.28 405.5,-76 394.78,-60.62 384.14,-42.07 376.86,-28.73"/>
<polygon fill="midnightblue" stroke="midnightblue" points="379.82,-26.83 372,-19.68 373.65,-30.15 379.82,-26.83"/>
</g>
<!-- Node20 -->
<g id="node10" class="node">
<title>Node20</title>
<g id="a_node10"><a xlink:title=" ">
<polygon fill="white" stroke="#bfbfbf" points="414.5,-56.5 414.5,-75.5 454.5,-75.5 454.5,-56.5 414.5,-56.5"/>
<text text-anchor="middle" x="434.5" y="-63.5" font-family="Helvetica,sans-Serif" font-size="10.00">limits</text>
</a>
</g>
</g>
<!-- Node19&#45;&gt;Node20 -->
<g id="edge11" class="edge">
<title>Node19&#45;&gt;Node20</title>
<path fill="none" stroke="midnightblue" d="M441.18,-112.08C440.12,-104.93 438.59,-94.64 437.27,-85.69"/>
<polygon fill="midnightblue" stroke="midnightblue" points="440.72,-85.13 435.8,-75.75 433.8,-86.16 440.72,-85.13"/>
</g>
<!-- Node22 -->
<g id="node12" class="node">
<title>Node22</title>
<g id="a_node12"><a xlink:href="../../d4/d87/SpeciesThermoInterpType_8h.html" target="_top" xlink:title="Pure Virtual Base class for individual species reference state thermodynamic managers and text for th...">
<polygon fill="white" stroke="black" points="190,-224.5 190,-243.5 329,-243.5 329,-224.5 190,-224.5"/>
<text text-anchor="middle" x="259.5" y="-231.5" font-family="Helvetica,sans-Serif" font-size="10.00">SpeciesThermoInterpType.h</text>
</a>
</g>
</g>
<!-- Node21&#45;&gt;Node22 -->
<g id="edge13" class="edge">
<title>Node21&#45;&gt;Node22</title>
<path fill="none" stroke="midnightblue" d="M259.5,-280.08C259.5,-273.01 259.5,-262.86 259.5,-253.99"/>
<polygon fill="midnightblue" stroke="midnightblue" points="263,-253.75 259.5,-243.75 256,-253.75 263,-253.75"/>
</g>
<!-- Node22&#45;&gt;Node4 -->
<g id="edge15" class="edge">
<title>Node22&#45;&gt;Node4</title>
<path fill="none" stroke="midnightblue" d="M258.56,-224.37C256.62,-206.62 252.15,-165.67 249.53,-141.6"/>
<polygon fill="midnightblue" stroke="midnightblue" points="253,-141.15 248.44,-131.59 246.04,-141.91 253,-141.15"/>
</g>
<!-- Node22&#45;&gt;Node6 -->
<g id="edge14" class="edge">
<title>Node22&#45;&gt;Node6</title>
<path fill="none" stroke="midnightblue" d="M266.43,-224.28C279.61,-207.35 308.61,-168.46 326.5,-132 343.54,-97.28 356.39,-53.71 362.85,-29.47"/>
<polygon fill="midnightblue" stroke="midnightblue" points="366.31,-30.07 365.43,-19.51 359.53,-28.31 366.31,-30.07"/>
</g>
<!-- Node22&#45;&gt;Node23 -->
<g id="edge16" class="edge">
<title>Node22&#45;&gt;Node23</title>
<path fill="none" stroke="midnightblue" d="M243.75,-224.32C228.18,-215.74 204.12,-202.49 186.04,-192.52"/>
<polygon fill="midnightblue" stroke="midnightblue" points="187.65,-189.42 177.21,-187.65 184.28,-195.55 187.65,-189.42"/>
</g>
<!-- Node23&#45;&gt;Node4 -->
<g id="edge18" class="edge">
<title>Node23&#45;&gt;Node4</title>
<path fill="none" stroke="midnightblue" d="M175.32,-168.32C188.73,-159.9 209.32,-146.97 225.09,-137.07"/>
<polygon fill="midnightblue" stroke="midnightblue" points="227.11,-139.94 233.72,-131.65 223.39,-134.01 227.11,-139.94"/>
</g>
<!-- Node23&#45;&gt;Node6 -->
<g id="edge17" class="edge">
<title>Node23&#45;&gt;Node6</title>
<path fill="none" stroke="midnightblue" d="M155.27,-168.24C140.68,-146.57 107.61,-89.82 135.5,-56 159.51,-26.89 268.81,-16.38 328.42,-12.77"/>
<polygon fill="midnightblue" stroke="midnightblue" points="328.81,-16.25 338.6,-12.19 328.41,-9.26 328.81,-16.25"/>
</g>
<!-- Node23&#45;&gt;Node24 -->
<g id="edge19" class="edge">
<title>Node23&#45;&gt;Node24</title>
<path fill="none" stroke="midnightblue" d="M144.15,-168.32C126.83,-159.66 99.98,-146.24 80,-136.25"/>
<polygon fill="midnightblue" stroke="midnightblue" points="81.32,-133 70.81,-131.65 78.19,-139.26 81.32,-133"/>
</g>
<!-- Node24&#45;&gt;Node6 -->
<g id="edge20" class="edge">
<title>Node24&#45;&gt;Node6</title>
<path fill="none" stroke="midnightblue" d="M57.45,-112.14C64.35,-97.78 80.04,-69.66 102.5,-56 139.89,-33.26 264.74,-19.68 328.82,-14.05"/>
<polygon fill="midnightblue" stroke="midnightblue" points="329.27,-17.53 338.93,-13.19 328.67,-10.55 329.27,-17.53"/>
</g>
<!-- Node30&#45;&gt;Node6 -->
<g id="edge24" class="edge">
<title>Node30&#45;&gt;Node6</title>
<path fill="none" stroke="midnightblue" d="M634.66,-112.36C634.42,-98.31 631.75,-70.63 615.5,-56 585.3,-28.81 468.35,-17.38 406.45,-13.16"/>
<polygon fill="midnightblue" stroke="midnightblue" points="406.49,-9.66 396.29,-12.5 406.04,-16.64 406.49,-9.66"/>
</g>
<!-- Node31 -->
<g id="node16" class="node">
<title>Node31</title>
<g id="a_node16"><a xlink:href="../../d0/d62/xml_8h.html" target="_top" xlink:title="Classes providing support for XML data files.">
<polygon fill="white" stroke="black" points="663,-56.5 663,-75.5 704,-75.5 704,-56.5 663,-56.5"/>
<text text-anchor="middle" x="683.5" y="-63.5" font-family="Helvetica,sans-Serif" font-size="10.00">xml.h</text>
</a>
</g>
</g>
<!-- Node30&#45;&gt;Node31 -->
<g id="edge25" class="edge">
<title>Node30&#45;&gt;Node31</title>
<path fill="none" stroke="midnightblue" d="M642.59,-112.08C649.66,-104.3 660.09,-92.8 668.65,-83.37"/>
<polygon fill="midnightblue" stroke="midnightblue" points="671.43,-85.51 675.56,-75.75 666.25,-80.8 671.43,-85.51"/>
</g>
<!-- Node31&#45;&gt;Node6 -->
<g id="edge26" class="edge">
<title>Node31&#45;&gt;Node6</title>
<path fill="none" stroke="midnightblue" d="M662.85,-59.35C658.15,-58.16 653.17,-56.97 648.5,-56 562.8,-38.16 461.12,-23.46 406.63,-16.1"/>
<polygon fill="midnightblue" stroke="midnightblue" points="406.76,-12.58 396.38,-14.72 405.83,-19.52 406.76,-12.58"/>
</g>
</g>
</svg>
