<?xml version="1.0" encoding="UTF-8" standalone="no"?>
<!DOCTYPE svg PUBLIC "-//W3C//DTD SVG 1.1//EN"
 "http://www.w3.org/Graphics/SVG/1.1/DTD/svg11.dtd">
<!-- Generated by graphviz version 2.50.0 (0)
 -->
<!-- Title: Domain1D Pages: 1 -->
<svg width="213pt" height="266pt"
 viewBox="0.00 0.00 213.00 266.00" xmlns="http://www.w3.org/2000/svg" xmlns:xlink="http://www.w3.org/1999/xlink">
<g id="graph0" class="graph" transform="scale(1 1) rotate(0) translate(4 262)">
<title>Domain1D</title>
<polygon fill="white" stroke="transparent" points="-4,4 -4,-262 209,-262 209,4 -4,4"/>
<!-- Node1 -->
<g id="node1" class="node">
<title>Node1</title>
<g id="a_node1"><a xlink:title="Base class for one&#45;dimensional domains.">
<polygon fill="#bfbfbf" stroke="black" points="0,-0.5 0,-19.5 63,-19.5 63,-0.5 0,-0.5"/>
<text text-anchor="middle" x="31.5" y="-7.5" font-family="Helvetica,sans-Serif" font-size="10.00">Domain1D</text>
</a>
</g>
</g>
<!-- Node2 -->
<g id="node2" class="node">
<title>Node2</title>
<g id="a_node2"><a xlink:href="../../d5/d41/classCantera_1_1OneDim.html" target="_top" xlink:title="Container class for multiple&#45;domain 1D problems.">
<polygon fill="white" stroke="black" points="5,-147.5 5,-166.5 58,-166.5 58,-147.5 5,-147.5"/>
<text text-anchor="middle" x="31.5" y="-154.5" font-family="Helvetica,sans-Serif" font-size="10.00">OneDim</text>
</a>
</g>
</g>
<!-- Node2&#45;&gt;Node1 -->
<g id="edge1" class="edge">
<title>Node2&#45;&gt;Node1</title>
<path fill="none" stroke="#9a32cd" stroke-dasharray="5,2" d="M28.99,-137.29C27.66,-126.42 26.17,-112.46 25.5,-100 23.92,-70.46 28.04,-35.46 30.23,-19.59"/>
<polygon fill="#9a32cd" stroke="#9a32cd" points="25.53,-137.82 30.28,-147.29 32.47,-136.93 25.53,-137.82"/>
<text text-anchor="middle" x="54" y="-86.5" font-family="Helvetica,sans-Serif" font-size="10.00"> m_container</text>
</g>
<!-- Node4 -->
<g id="node4" class="node">
<title>Node4</title>
<g id="a_node4"><a xlink:href="../../d9/dfd/classCantera_1_1Domain1D.html" target="_top" xlink:title="Base class for one&#45;dimensional domains.">
<polygon fill="white" stroke="black" points="91,-79.5 91,-98.5 154,-98.5 154,-79.5 91,-79.5"/>
<text text-anchor="middle" x="122.5" y="-86.5" font-family="Helvetica,sans-Serif" font-size="10.00">Domain1D</text>
</a>
</g>
</g>
<!-- Node2&#45;&gt;Node4 -->
<g id="edge5" class="edge">
<title>Node2&#45;&gt;Node4</title>
<path fill="none" stroke="#9a32cd" stroke-dasharray="5,2" d="M51.55,-141.46C69.63,-128.34 95.61,-109.5 110.6,-98.63"/>
<polygon fill="#9a32cd" stroke="#9a32cd" points="49.44,-138.67 43.4,-147.37 53.55,-144.33 49.44,-138.67"/>
<text text-anchor="middle" x="110" y="-121" font-family="Helvetica,sans-Serif" font-size="10.00"> m_container</text>
</g>
<!-- Node3 -->
<g id="node3" class="node">
<title>Node3</title>
<g id="a_node3"><a xlink:href="../../d2/d3f/classCantera_1_1Func1.html" target="_top" xlink:title="Base class for &#39;functor&#39; classes that evaluate a function of one variable.">
<polygon fill="white" stroke="black" points="9.5,-232 9.5,-251 53.5,-251 53.5,-232 9.5,-232"/>
<text text-anchor="middle" x="31.5" y="-239" font-family="Helvetica,sans-Serif" font-size="10.00">Func1</text>
</a>
</g>
</g>
<!-- Node3&#45;&gt;Node2 -->
<g id="edge2" class="edge">
<title>Node3&#45;&gt;Node2</title>
<path fill="none" stroke="#9a32cd" stroke-dasharray="5,2" d="M31.5,-221.93C31.5,-204.63 31.5,-179.61 31.5,-166.6"/>
<polygon fill="#9a32cd" stroke="#9a32cd" points="28,-221.98 31.5,-231.98 35,-221.98 28,-221.98"/>
<text text-anchor="middle" x="80.5" y="-199" font-family="Helvetica,sans-Serif" font-size="10.00"> m_interrupt</text>
<text text-anchor="middle" x="80.5" y="-188" font-family="Helvetica,sans-Serif" font-size="10.00">m_time_step_callback</text>
</g>
<!-- Node3&#45;&gt;Node3 -->
<g id="edge3" class="edge">
<title>Node3&#45;&gt;Node3</title>
<path fill="none" stroke="#9a32cd" stroke-dasharray="5,2" d="M63.9,-248.88C68.45,-247.68 71.5,-245.22 71.5,-241.5 71.5,-235.4 63.3,-232.68 53.71,-233.35"/>
<polygon fill="#9a32cd" stroke="#9a32cd" points="63.42,-245.41 53.71,-249.65 63.95,-252.39 63.42,-245.41"/>
<text text-anchor="middle" x="92" y="-250" font-family="Helvetica,sans-Serif" font-size="10.00"> m_f1</text>
<text text-anchor="middle" x="92" y="-239" font-family="Helvetica,sans-Serif" font-size="10.00">m_f2</text>
<text text-anchor="middle" x="92" y="-228" font-family="Helvetica,sans-Serif" font-size="10.00">m_parent</text>
</g>
<!-- Node4&#45;&gt;Node1 -->
<g id="edge4" class="edge">
<title>Node4&#45;&gt;Node1</title>
<path fill="none" stroke="#9a32cd" stroke-dasharray="5,2" d="M104.56,-72.82C85.74,-56.9 56.83,-32.43 41.63,-19.57"/>
<polygon fill="#9a32cd" stroke="#9a32cd" points="102.52,-75.68 112.41,-79.47 107.04,-70.33 102.52,-75.68"/>
<text text-anchor="middle" x="104" y="-52" font-family="Helvetica,sans-Serif" font-size="10.00"> m_left</text>
<text text-anchor="middle" x="104" y="-41" font-family="Helvetica,sans-Serif" font-size="10.00">m_right</text>
</g>
<!-- Node4&#45;&gt;Node4 -->
<g id="edge6" class="edge">
<title>Node4&#45;&gt;Node4</title>
<path fill="none" stroke="#9a32cd" stroke-dasharray="5,2" d="M164.65,-94.31C169.12,-93.28 172,-91.51 172,-89 172,-84.88 164.26,-82.76 154.4,-82.63"/>
<polygon fill="#9a32cd" stroke="#9a32cd" points="163.98,-90.86 154.4,-95.37 164.71,-97.82 163.98,-90.86"/>
<text text-anchor="middle" x="188.5" y="-92" font-family="Helvetica,sans-Serif" font-size="10.00"> m_left</text>
<text text-anchor="middle" x="188.5" y="-81" font-family="Helvetica,sans-Serif" font-size="10.00">m_right</text>
</g>
</g>
</svg>
