<?xml version="1.0" encoding="UTF-8" standalone="no"?>
<!DOCTYPE svg PUBLIC "-//W3C//DTD SVG 1.1//EN"
 "http://www.w3.org/Graphics/SVG/1.1/DTD/svg11.dtd">
<!-- Generated by graphviz version 2.43.0 (0)
 -->
<!-- Title: vcs_solve_TP.cpp Pages: 1 -->
<!--zoomable 368 -->

<svg id="main" version="1.1" xmlns="http://www.w3.org/2000/svg" xmlns:xlink="http://www.w3.org/1999/xlink" xml:space="preserve" onload="init(evt)">
<style type="text/css"><![CDATA[
.node, .edge {opacity: 0.7;}
.node.selected, .edge.selected {opacity: 1;}
.edge:hover path { stroke: red; }
.edge:hover polygon { stroke: red; fill: red; }
]]></style>

<defs>
  <circle id="rim" cx="0" cy="0" r="7"/>
  <circle id="rim2" cx="0" cy="0" r="3.5"/>
  <g id="zoomPlus">
    <use xlink:href="#rim" fill="#404040"><set attributeName="fill" to="#808080" begin="zoomplus.mouseover" end="zoomplus.mouseout"/></use>
    <path d="M-4,0h8M0,-4v8" fill="none" stroke="white" stroke-width="1.5" pointer-events="none"/>
  </g>
  <g id="zoomMin">
    <use xlink:href="#rim" fill="#404040"><set attributeName="fill" to="#808080" begin="zoomminus.mouseover" end="zoomminus.mouseout"/></use>
    <path d="M-4,0h8" fill="none" stroke="white" stroke-width="1.5" pointer-events="none"/>
  </g>
  <g id="arrowUp" transform="translate(30 24)">
    <use xlink:href="#rim"/>
    <path pointer-events="none" fill="none" stroke="white" stroke-width="1.5" d="M0,-3.0v7 M-2.5,-0.5L0,-3.0L2.5,-0.5"/>
  </g>
  <g id="arrowRight" transform="rotate(90) translate(36 -43)">
    <use xlink:href="#rim"/>
    <path pointer-events="none" fill="none" stroke="white" stroke-width="1.5" d="M0,-3.0v7 M-2.5,-0.5L0,-3.0L2.5,-0.5"/>
  </g>
  <g id="arrowDown" transform="rotate(180) translate(-30 -48)">
    <use xlink:href="#rim"/>
    <path pointer-events="none" fill="none" stroke="white" stroke-width="1.5" d="M0,-3.0v7 M-2.5,-0.5L0,-3.0L2.5,-0.5"/>
  </g>
  <g id="arrowLeft" transform="rotate(270) translate(-36 17)">
    <use xlink:href="#rim"/>
    <path pointer-events="none" fill="none" stroke="white" stroke-width="1.5" d="M0,-3.0v7 M-2.5,-0.5L0,-3.0L2.5,-0.5"/>
  </g>
  <g id="resetDef">
    <use xlink:href="#rim2" fill="#404040"><set attributeName="fill" to="#808080" begin="reset.mouseover" end="reset.mouseout"/></use>
  </g>
</defs>
<script type="application/ecmascript">
var viewWidth = 970;
var viewHeight = 368;
var sectionId = 'dynsection-0';
</script>
<script type="application/ecmascript" xlink:href="../../svg.min.js"/>
<svg id="graph" class="graph">
<g id="viewport">
<title>vcs_solve_TP.cpp</title>
<!-- Node1 -->
<g id="Node000001" class="node">
<title>Node1</title>
<g id="a_Node000001"><a xlink:title="Implementation file that contains the main algorithm for finding an equilibrium.">
<polygon fill="#999999" stroke="#666666" points="690.5,-360 589.5,-360 589.5,-341 690.5,-341 690.5,-360"/>
<text text-anchor="middle" x="640" y="-348" font-family="Helvetica,sans-Serif" font-size="10.00">vcs_solve_TP.cpp</text>
</a>
</g>
</g>
<!-- Node2 -->
<g id="Node000002" class="node">
<title>Node2</title>
<g id="a_Node000002"><a xlink:href="../../d4/d51/vcs__solve_8h.html" target="_top" xlink:title="Header file for the internal object that holds the vcs equilibrium problem (see Class VCS_SOLVE and C...">
<polygon fill="white" stroke="#666666" points="140,-299.5 0,-299.5 0,-280.5 140,-280.5 140,-299.5"/>
<text text-anchor="middle" x="70" y="-287.5" font-family="Helvetica,sans-Serif" font-size="10.00">cantera/equil/vcs_solve.h</text>
</a>
</g>
</g>
<!-- Node1&#45;&gt;Node2 -->
<g id="edge1_Node000001_Node000002" class="edge">
<title>Node1&#45;&gt;Node2</title>
<g id="a_edge1_Node000001_Node000002"><a xlink:title=" ">
<path fill="none" stroke="#63b8ff" d="M589.3,-346.33C500.05,-340.44 309.13,-326.41 149,-305 140.95,-303.92 132.47,-302.61 124.17,-301.23"/>
<polygon fill="#63b8ff" stroke="#63b8ff" points="124.63,-297.76 114.19,-299.51 123.45,-304.65 124.63,-297.76"/>
</a>
</g>
</g>
<!-- Node23 -->
<g id="Node000023" class="node">
<title>Node23</title>
<g id="a_Node000023"><a xlink:href="../../d0/d1f/vcs__species__thermo_8h.html" target="_top" xlink:title=" ">
<polygon fill="white" stroke="#666666" points="300,-305 158,-305 158,-275 300,-275 300,-305"/>
<text text-anchor="start" x="166" y="-293" font-family="Helvetica,sans-Serif" font-size="10.00">cantera/equil/vcs_species</text>
<text text-anchor="middle" x="229" y="-282" font-family="Helvetica,sans-Serif" font-size="10.00">_thermo.h</text>
</a>
</g>
</g>
<!-- Node1&#45;&gt;Node23 -->
<g id="edge22_Node000001_Node000023" class="edge">
<title>Node1&#45;&gt;Node23</title>
<g id="a_edge22_Node000001_Node000023"><a xlink:title=" ">
<path fill="none" stroke="#63b8ff" d="M589.44,-343.33C526.47,-335.52 415.35,-321.26 310.23,-305.15"/>
<polygon fill="#63b8ff" stroke="#63b8ff" points="310.49,-301.65 300.08,-303.59 309.43,-308.57 310.49,-301.65"/>
</a>
</g>
</g>
<!-- Node24 -->
<g id="Node000024" class="node">
<title>Node24</title>
<g id="a_Node000024"><a xlink:href="../../d7/dfb/vcs__VolPhase_8h.html" target="_top" xlink:title="Header for the object representing each phase within vcs.">
<polygon fill="white" stroke="#666666" points="476,-299.5 318,-299.5 318,-280.5 476,-280.5 476,-299.5"/>
<text text-anchor="middle" x="397" y="-287.5" font-family="Helvetica,sans-Serif" font-size="10.00">cantera/equil/vcs_VolPhase.h</text>
</a>
</g>
</g>
<!-- Node1&#45;&gt;Node24 -->
<g id="edge24_Node000001_Node000024" class="edge">
<title>Node1&#45;&gt;Node24</title>
<g id="a_edge24_Node000001_Node000024"><a xlink:title=" ">
<path fill="none" stroke="#63b8ff" d="M604.67,-340.99C561.74,-330.66 489.26,-313.21 442.28,-301.9"/>
<polygon fill="#63b8ff" stroke="#63b8ff" points="442.92,-298.45 432.38,-299.52 441.28,-305.26 442.92,-298.45"/>
</a>
</g>
</g>
<!-- Node26 -->
<g id="Node000026" class="node">
<title>Node26</title>
<g id="a_Node000026"><a xlink:href="../../db/d98/ctexceptions_8h.html" target="_top" xlink:title="Definitions for the classes that are thrown when Cantera experiences an error condition (also contain...">
<polygon fill="white" stroke="#666666" points="758,-239 604,-239 604,-220 758,-220 758,-239"/>
<text text-anchor="middle" x="681" y="-227" font-family="Helvetica,sans-Serif" font-size="10.00">cantera/base/ctexceptions.h</text>
</a>
</g>
</g>
<!-- Node1&#45;&gt;Node26 -->
<g id="edge29_Node000001_Node000026" class="edge">
<title>Node1&#45;&gt;Node26</title>
<g id="a_edge29_Node000001_Node000026"><a xlink:title=" ">
<path fill="none" stroke="#63b8ff" d="M650.89,-340.95C660.29,-332.84 673.23,-319.73 679,-305 685.99,-287.14 685.56,-264.99 683.95,-249.5"/>
<polygon fill="#63b8ff" stroke="#63b8ff" points="687.37,-248.6 682.6,-239.14 680.42,-249.51 687.37,-248.6"/>
</a>
</g>
</g>
<!-- Node28 -->
<g id="Node000028" class="node">
<title>Node28</title>
<g id="a_Node000028"><a xlink:href="../../d1/d88/clockWC_8h.html" target="_top" xlink:title="Declarations for a simple class that implements an Ansi C wall clock timer (see Cantera::clockWC).">
<polygon fill="white" stroke="#666666" points="860,-299.5 726,-299.5 726,-280.5 860,-280.5 860,-299.5"/>
<text text-anchor="middle" x="793" y="-287.5" font-family="Helvetica,sans-Serif" font-size="10.00">cantera/base/clockWC.h</text>
</a>
</g>
</g>
<!-- Node1&#45;&gt;Node28 -->
<g id="edge33_Node000001_Node000028" class="edge">
<title>Node1&#45;&gt;Node28</title>
<g id="a_edge33_Node000001_Node000028"><a xlink:title=" ">
<path fill="none" stroke="#63b8ff" d="M662.25,-340.99C688.31,-331.03 731.68,-314.45 761.27,-303.13"/>
<polygon fill="#63b8ff" stroke="#63b8ff" points="762.64,-306.36 770.73,-299.52 760.14,-299.82 762.64,-306.36"/>
</a>
</g>
</g>
<!-- Node30 -->
<g id="Node000030" class="node">
<title>Node30</title>
<g id="a_Node000030"><a xlink:href="../../dd/dc3/stringUtils_8h.html" target="_top" xlink:title="Contains declarations for string manipulation functions within Cantera.">
<polygon fill="white" stroke="#666666" points="914,-129 772,-129 772,-110 914,-110 914,-129"/>
<text text-anchor="middle" x="843" y="-117" font-family="Helvetica,sans-Serif" font-size="10.00">cantera/base/stringUtils.h</text>
</a>
</g>
</g>
<!-- Node1&#45;&gt;Node30 -->
<g id="edge35_Node000001_Node000030" class="edge">
<title>Node1&#45;&gt;Node30</title>
<g id="a_edge35_Node000001_Node000030"><a xlink:title=" ">
<path fill="none" stroke="#63b8ff" d="M690.63,-346.95C751.09,-342.73 846.84,-331.88 869,-305 909.44,-255.95 872.47,-173.48 853.11,-137.81"/>
<polygon fill="#63b8ff" stroke="#63b8ff" points="856.14,-136.06 848.19,-129.05 850.04,-139.49 856.14,-136.06"/>
</a>
</g>
</g>
<!-- Node31 -->
<g id="Node000031" class="node">
<title>Node31</title>
<g id="a_Node000031"><a xlink:href="../../d1/df7/DenseMatrix_8h.html" target="_top" xlink:title="Headers for the DenseMatrix object, which deals with dense rectangular matrices and description of th...">
<polygon fill="white" stroke="#666666" points="670,-299.5 494,-299.5 494,-280.5 670,-280.5 670,-299.5"/>
<text text-anchor="middle" x="582" y="-287.5" font-family="Helvetica,sans-Serif" font-size="10.00">cantera/numerics/DenseMatrix.h</text>
</a>
</g>
</g>
<!-- Node1&#45;&gt;Node31 -->
<g id="edge37_Node000001_Node000031" class="edge">
<title>Node1&#45;&gt;Node31</title>
<g id="a_edge37_Node000001_Node000031"><a xlink:title=" ">
<path fill="none" stroke="#63b8ff" d="M631.44,-340.87C622.62,-331.97 608.66,-317.89 597.82,-306.95"/>
<polygon fill="#63b8ff" stroke="#63b8ff" points="600.12,-304.3 590.59,-299.67 595.15,-309.23 600.12,-304.3"/>
</a>
</g>
</g>
<!-- Node32 -->
<g id="Node000032" class="node">
<title>Node32</title>
<g id="a_Node000032"><a xlink:title=" ">
<polygon fill="#e0e0e0" stroke="#999999" points="962,-299.5 916,-299.5 916,-280.5 962,-280.5 962,-299.5"/>
<text text-anchor="middle" x="939" y="-287.5" font-family="Helvetica,sans-Serif" font-size="10.00">cstdio</text>
</a>
</g>
</g>
<!-- Node1&#45;&gt;Node32 -->
<g id="edge41_Node000001_Node000032" class="edge">
<title>Node1&#45;&gt;Node32</title>
<g id="a_edge41_Node000001_Node000032"><a xlink:title=" ">
<path fill="none" stroke="#63b8ff" d="M690.86,-343.82C744.11,-337.2 829.87,-324.57 902,-305 904.29,-304.38 906.64,-303.67 908.99,-302.91"/>
<polygon fill="#63b8ff" stroke="#63b8ff" points="910.22,-306.18 918.49,-299.57 907.89,-299.58 910.22,-306.18"/>
</a>
</g>
</g>
<!-- Node3 -->
<g id="Node000003" class="node">
<title>Node3</title>
<g id="a_Node000003"><a xlink:href="../../d9/ddc/ct__defs_8h.html" target="_top" xlink:title="This file contains definitions of constants, types and terms that are used in internal routines and a...">
<polygon fill="white" stroke="#666666" points="521.5,-74 394.5,-74 394.5,-55 521.5,-55 521.5,-74"/>
<text text-anchor="middle" x="458" y="-62" font-family="Helvetica,sans-Serif" font-size="10.00">cantera/base/ct_defs.h</text>
</a>
</g>
</g>
<!-- Node2&#45;&gt;Node3 -->
<g id="edge2_Node000002_Node000003" class="edge">
<title>Node2&#45;&gt;Node3</title>
<g id="a_edge2_Node000002_Node000003"><a xlink:title=" ">
<path fill="none" stroke="#63b8ff" d="M57.77,-280.32C41.27,-267.48 15.24,-242.52 27,-220 66.61,-144.16 105.7,-142.12 185,-110 249.21,-83.99 327.75,-73.16 384.08,-68.67"/>
<polygon fill="#63b8ff" stroke="#63b8ff" points="384.62,-72.14 394.33,-67.9 384.1,-65.16 384.62,-72.14"/>
</a>
</g>
</g>
<!-- Node14 -->
<g id="Node000014" class="node">
<title>Node14</title>
<g id="a_Node000014"><a xlink:href="../../da/d80/vcs__defs_8h.html" target="_top" xlink:title="Defines and definitions within the vcs package.">
<polygon fill="white" stroke="#666666" points="341.5,-239 206.5,-239 206.5,-220 341.5,-220 341.5,-239"/>
<text text-anchor="middle" x="274" y="-227" font-family="Helvetica,sans-Serif" font-size="10.00">cantera/equil/vcs_defs.h</text>
</a>
</g>
</g>
<!-- Node2&#45;&gt;Node14 -->
<g id="edge13_Node000002_Node000014" class="edge">
<title>Node2&#45;&gt;Node14</title>
<g id="a_edge13_Node000002_Node000014"><a xlink:title=" ">
<path fill="none" stroke="#63b8ff" d="M99.66,-280.49C135.24,-270.29 195.02,-253.15 234.48,-241.83"/>
<polygon fill="#63b8ff" stroke="#63b8ff" points="235.65,-245.14 244.3,-239.02 233.72,-238.41 235.65,-245.14"/>
</a>
</g>
</g>
<!-- Node15 -->
<g id="Node000015" class="node">
<title>Node15</title>
<g id="a_Node000015"><a xlink:href="../../df/da3/vcs__internal_8h.html" target="_top" xlink:title="Internal declarations for the VCSnonideal package.">
<polygon fill="white" stroke="#666666" points="188,-239 36,-239 36,-220 188,-220 188,-239"/>
<text text-anchor="middle" x="112" y="-227" font-family="Helvetica,sans-Serif" font-size="10.00">cantera/equil/vcs_internal.h</text>
</a>
</g>
</g>
<!-- Node2&#45;&gt;Node15 -->
<g id="edge14_Node000002_Node000015" class="edge">
<title>Node2&#45;&gt;Node15</title>
<g id="a_edge14_Node000002_Node000015"><a xlink:title=" ">
<path fill="none" stroke="#63b8ff" d="M76.2,-280.37C82.4,-271.73 92.11,-258.2 99.86,-247.42"/>
<polygon fill="#63b8ff" stroke="#63b8ff" points="102.79,-249.33 105.78,-239.17 97.1,-245.25 102.79,-249.33"/>
</a>
</g>
</g>
<!-- Node21 -->
<g id="Node000021" class="node">
<title>Node21</title>
<g id="a_Node000021"><a xlink:href="../../df/dd0/Array_8h.html" target="_top" xlink:title="Header file for class Cantera::Array2D.">
<polygon fill="white" stroke="#666666" points="514,-239 398,-239 398,-220 514,-220 514,-239"/>
<text text-anchor="middle" x="456" y="-227" font-family="Helvetica,sans-Serif" font-size="10.00">cantera/base/Array.h</text>
</a>
</g>
</g>
<!-- Node2&#45;&gt;Node21 -->
<g id="edge19_Node000002_Node000021" class="edge">
<title>Node2&#45;&gt;Node21</title>
<g id="a_edge19_Node000002_Node000021"><a xlink:title=" ">
<path fill="none" stroke="#63b8ff" d="M116.75,-280.47C127.34,-278.6 138.55,-276.68 149,-275 230.97,-261.8 325.55,-248.36 387.83,-239.76"/>
<polygon fill="#63b8ff" stroke="#63b8ff" points="388.49,-243.2 397.92,-238.36 387.53,-236.26 388.49,-243.2"/>
</a>
</g>
</g>
<!-- Node4 -->
<g id="Node000004" class="node">
<title>Node4</title>
<g id="a_Node000004"><a xlink:href="../../db/d16/config_8h_source.html" target="_top" xlink:title=" ">
<polygon fill="white" stroke="#666666" points="197.5,-19 142.5,-19 142.5,0 197.5,0 197.5,-19"/>
<text text-anchor="middle" x="170" y="-7" font-family="Helvetica,sans-Serif" font-size="10.00">config.h</text>
</a>
</g>
</g>
<!-- Node3&#45;&gt;Node4 -->
<g id="edge3_Node000003_Node000004" class="edge">
<title>Node3&#45;&gt;Node4</title>
<g id="a_edge3_Node000003_Node000004"><a xlink:title=" ">
<path fill="none" stroke="#63b8ff" d="M404.25,-54.92C355.31,-46.9 280.83,-34.19 207.71,-19.27"/>
<polygon fill="#63b8ff" stroke="#63b8ff" points="208.37,-15.83 197.87,-17.25 206.96,-22.69 208.37,-15.83"/>
</a>
</g>
</g>
<!-- Node5 -->
<g id="Node000005" class="node">
<title>Node5</title>
<g id="a_Node000005"><a xlink:title=" ">
<polygon fill="#e0e0e0" stroke="#999999" points="262.5,-19 215.5,-19 215.5,0 262.5,0 262.5,-19"/>
<text text-anchor="middle" x="239" y="-7" font-family="Helvetica,sans-Serif" font-size="10.00">cmath</text>
</a>
</g>
</g>
<!-- Node3&#45;&gt;Node5 -->
<g id="edge4_Node000003_Node000005" class="edge">
<title>Node3&#45;&gt;Node5</title>
<g id="a_edge4_Node000003_Node000005"><a xlink:title=" ">
<path fill="none" stroke="#63b8ff" d="M420.68,-54.92C384.95,-46.64 329.29,-33.56 272.59,-19.36"/>
<polygon fill="#63b8ff" stroke="#63b8ff" points="273.3,-15.93 262.75,-16.88 271.59,-22.71 273.3,-15.93"/>
</a>
</g>
</g>
<!-- Node6 -->
<g id="Node000006" class="node">
<title>Node6</title>
<g id="a_Node000006"><a xlink:title=" ">
<polygon fill="#e0e0e0" stroke="#999999" points="329.5,-19 280.5,-19 280.5,0 329.5,0 329.5,-19"/>
<text text-anchor="middle" x="305" y="-7" font-family="Helvetica,sans-Serif" font-size="10.00">cstdlib</text>
</a>
</g>
</g>
<!-- Node3&#45;&gt;Node6 -->
<g id="edge5_Node000003_Node000006" class="edge">
<title>Node3&#45;&gt;Node6</title>
<g id="a_edge5_Node000003_Node000006"><a xlink:title=" ">
<path fill="none" stroke="#63b8ff" d="M433.42,-54.98C407.88,-46.14 367.72,-32.23 339.11,-22.32"/>
<polygon fill="#63b8ff" stroke="#63b8ff" points="340.12,-18.96 329.52,-18.99 337.82,-25.57 340.12,-18.96"/>
</a>
</g>
</g>
<!-- Node7 -->
<g id="Node000007" class="node">
<title>Node7</title>
<g id="a_Node000007"><a xlink:title=" ">
<polygon fill="#e0e0e0" stroke="#999999" points="394.5,-19 347.5,-19 347.5,0 394.5,0 394.5,-19"/>
<text text-anchor="middle" x="371" y="-7" font-family="Helvetica,sans-Serif" font-size="10.00">vector</text>
</a>
</g>
</g>
<!-- Node3&#45;&gt;Node7 -->
<g id="edge6_Node000003_Node000007" class="edge">
<title>Node3&#45;&gt;Node7</title>
<g id="a_edge6_Node000003_Node000007"><a xlink:title=" ">
<path fill="none" stroke="#63b8ff" d="M444.02,-54.98C430.53,-46.77 409.87,-34.18 393.96,-24.49"/>
<polygon fill="#63b8ff" stroke="#63b8ff" points="395.59,-21.38 385.23,-19.17 391.95,-27.36 395.59,-21.38"/>
</a>
</g>
</g>
<!-- Node8 -->
<g id="Node000008" class="node">
<title>Node8</title>
<g id="a_Node000008"><a xlink:title=" ">
<polygon fill="#e0e0e0" stroke="#999999" points="451,-19 413,-19 413,0 451,0 451,-19"/>
<text text-anchor="middle" x="432" y="-7" font-family="Helvetica,sans-Serif" font-size="10.00">map</text>
</a>
</g>
</g>
<!-- Node3&#45;&gt;Node8 -->
<g id="edge7_Node000003_Node000008" class="edge">
<title>Node3&#45;&gt;Node8</title>
<g id="a_edge7_Node000003_Node000008"><a xlink:title=" ">
<path fill="none" stroke="#63b8ff" d="M453.71,-54.75C450.19,-47.57 445.09,-37.18 440.72,-28.27"/>
<polygon fill="#63b8ff" stroke="#63b8ff" points="443.76,-26.53 436.21,-19.09 437.48,-29.61 443.76,-26.53"/>
</a>
</g>
</g>
<!-- Node9 -->
<g id="Node000009" class="node">
<title>Node9</title>
<g id="a_Node000009"><a xlink:title=" ">
<polygon fill="#e0e0e0" stroke="#999999" points="501,-19 469,-19 469,0 501,0 501,-19"/>
<text text-anchor="middle" x="485" y="-7" font-family="Helvetica,sans-Serif" font-size="10.00">set</text>
</a>
</g>
</g>
<!-- Node3&#45;&gt;Node9 -->
<g id="edge8_Node000003_Node000009" class="edge">
<title>Node3&#45;&gt;Node9</title>
<g id="a_edge8_Node000003_Node000009"><a xlink:title=" ">
<path fill="none" stroke="#63b8ff" d="M462.46,-54.75C466.12,-47.57 471.41,-37.18 475.95,-28.27"/>
<polygon fill="#63b8ff" stroke="#63b8ff" points="479.2,-29.59 480.62,-19.09 472.97,-26.41 479.2,-29.59"/>
</a>
</g>
</g>
<!-- Node10 -->
<g id="Node000010" class="node">
<title>Node10</title>
<g id="a_Node000010"><a xlink:title=" ">
<polygon fill="#e0e0e0" stroke="#999999" points="563,-19 519,-19 519,0 563,0 563,-19"/>
<text text-anchor="middle" x="541" y="-7" font-family="Helvetica,sans-Serif" font-size="10.00">string</text>
</a>
</g>
</g>
<!-- Node3&#45;&gt;Node10 -->
<g id="edge9_Node000003_Node000010" class="edge">
<title>Node3&#45;&gt;Node10</title>
<g id="a_edge9_Node000003_Node000010"><a xlink:title=" ">
<path fill="none" stroke="#63b8ff" d="M471.34,-54.98C484.09,-46.84 503.55,-34.41 518.67,-24.76"/>
<polygon fill="#63b8ff" stroke="#63b8ff" points="520.88,-27.5 527.42,-19.17 517.11,-21.6 520.88,-27.5"/>
</a>
</g>
</g>
<!-- Node11 -->
<g id="Node000011" class="node">
<title>Node11</title>
<g id="a_Node000011"><a xlink:title=" ">
<polygon fill="#e0e0e0" stroke="#999999" points="645,-19 581,-19 581,0 645,0 645,-19"/>
<text text-anchor="middle" x="613" y="-7" font-family="Helvetica,sans-Serif" font-size="10.00">algorithm</text>
</a>
</g>
</g>
<!-- Node3&#45;&gt;Node11 -->
<g id="edge10_Node000003_Node000011" class="edge">
<title>Node3&#45;&gt;Node11</title>
<g id="a_edge10_Node000003_Node000011"><a xlink:title=" ">
<path fill="none" stroke="#63b8ff" d="M482.9,-54.98C508.7,-46.16 549.22,-32.31 578.18,-22.41"/>
<polygon fill="#63b8ff" stroke="#63b8ff" points="579.57,-25.63 587.9,-19.08 577.31,-19.01 579.57,-25.63"/>
</a>
</g>
</g>
<!-- Node12 -->
<g id="Node000012" class="node">
<title>Node12</title>
<g id="a_Node000012"><a xlink:title=" ">
<polygon fill="#e0e0e0" stroke="#999999" points="721,-19 663,-19 663,0 721,0 721,-19"/>
<text text-anchor="middle" x="692" y="-7" font-family="Helvetica,sans-Serif" font-size="10.00">memory</text>
</a>
</g>
</g>
<!-- Node3&#45;&gt;Node12 -->
<g id="edge11_Node000003_Node000012" class="edge">
<title>Node3&#45;&gt;Node12</title>
<g id="a_edge11_Node000003_Node000012"><a xlink:title=" ">
<path fill="none" stroke="#63b8ff" d="M495.6,-54.98C538.77,-45.21 609.27,-29.24 653.02,-19.33"/>
<polygon fill="#63b8ff" stroke="#63b8ff" points="654.02,-22.69 663,-17.07 652.47,-15.86 654.02,-22.69"/>
</a>
</g>
</g>
<!-- Node13 -->
<g id="Node000013" class="node">
<title>Node13</title>
<g id="a_Node000013"><a xlink:title=" ">
<polygon fill="#e0e0e0" stroke="#999999" points="804.5,-19 739.5,-19 739.5,0 804.5,0 804.5,-19"/>
<text text-anchor="middle" x="772" y="-7" font-family="Helvetica,sans-Serif" font-size="10.00">functional</text>
</a>
</g>
</g>
<!-- Node3&#45;&gt;Node13 -->
<g id="edge12_Node000003_Node000013" class="edge">
<title>Node3&#45;&gt;Node13</title>
<g id="a_edge12_Node000003_Node000013"><a xlink:title=" ">
<path fill="none" stroke="#63b8ff" d="M513.85,-54.99C566.75,-46.79 648.69,-33.72 729.6,-19.01"/>
<polygon fill="#63b8ff" stroke="#63b8ff" points="730.26,-22.45 739.46,-17.21 729,-15.56 730.26,-22.45"/>
</a>
</g>
</g>
<!-- Node16 -->
<g id="Node000016" class="node">
<title>Node16</title>
<g id="a_Node000016"><a xlink:href="../../d2/d49/global_8h.html" target="_top" xlink:title="This file contains definitions for utility functions and text for modules, inputfiles and logging,...">
<polygon fill="white" stroke="#666666" points="243,-184 121,-184 121,-165 243,-165 243,-184"/>
<text text-anchor="middle" x="182" y="-172" font-family="Helvetica,sans-Serif" font-size="10.00">cantera/base/global.h</text>
</a>
</g>
</g>
<!-- Node15&#45;&gt;Node16 -->
<g id="edge15_Node000015_Node000016" class="edge">
<title>Node15&#45;&gt;Node16</title>
<g id="a_edge15_Node000015_Node000016"><a xlink:title=" ">
<path fill="none" stroke="#63b8ff" d="M123.25,-219.98C133.8,-212 149.8,-199.88 162.44,-190.31"/>
<polygon fill="#63b8ff" stroke="#63b8ff" points="164.69,-193 170.55,-184.17 160.46,-187.42 164.69,-193"/>
</a>
</g>
</g>
<!-- Node16&#45;&gt;Node3 -->
<g id="edge16_Node000016_Node000003" class="edge">
<title>Node16&#45;&gt;Node3</title>
<g id="a_edge16_Node000016_Node000003"><a xlink:title=" ">
<path fill="none" stroke="#63b8ff" d="M181.91,-164.59C182.28,-150.71 185.16,-124.05 201,-110 227.58,-86.42 318.16,-75.02 384.28,-69.74"/>
<polygon fill="#63b8ff" stroke="#63b8ff" points="384.56,-73.23 394.26,-68.97 384.02,-66.25 384.56,-73.23"/>
</a>
</g>
</g>
<!-- Node17 -->
<g id="Node000017" class="node">
<title>Node17</title>
<g id="a_Node000017"><a xlink:href="../../db/def/fmt_8h.html" target="_top" xlink:title="Wrapper for either system&#45;installed or local headers for fmt.">
<polygon fill="#fff0f0" stroke="red" points="471.5,-129 362.5,-129 362.5,-110 471.5,-110 471.5,-129"/>
<text text-anchor="middle" x="417" y="-117" font-family="Helvetica,sans-Serif" font-size="10.00">cantera/base/fmt.h</text>
</a>
</g>
</g>
<!-- Node16&#45;&gt;Node17 -->
<g id="edge17_Node000016_Node000017" class="edge">
<title>Node16&#45;&gt;Node17</title>
<g id="a_edge17_Node000016_Node000017"><a xlink:title=" ">
<path fill="none" stroke="#63b8ff" d="M219.76,-164.98C260.32,-155.84 324.89,-141.27 369.03,-131.32"/>
<polygon fill="#63b8ff" stroke="#63b8ff" points="369.96,-134.7 378.95,-129.08 368.42,-127.87 369.96,-134.7"/>
</a>
</g>
</g>
<!-- Node17&#45;&gt;Node3 -->
<g id="edge18_Node000017_Node000003" class="edge">
<title>Node17&#45;&gt;Node3</title>
<g id="a_edge18_Node000017_Node000003"><a xlink:title=" ">
<path fill="none" stroke="#63b8ff" d="M423.77,-109.75C429.56,-102.26 438.06,-91.28 445.14,-82.13"/>
<polygon fill="#63b8ff" stroke="#63b8ff" points="448.01,-84.14 451.36,-74.09 442.47,-79.86 448.01,-84.14"/>
</a>
</g>
</g>
<!-- Node21&#45;&gt;Node3 -->
<g id="edge20_Node000021_Node000003" class="edge">
<title>Node21&#45;&gt;Node3</title>
<g id="a_edge20_Node000021_Node000003"><a xlink:title=" ">
<path fill="none" stroke="#63b8ff" d="M462.63,-219.88C468.76,-211.32 477.46,-197.54 481,-184 483.98,-172.61 487.14,-139.37 480,-110 477.71,-100.59 473.2,-90.87 468.85,-82.93"/>
<polygon fill="#63b8ff" stroke="#63b8ff" points="471.85,-81.13 463.79,-74.25 465.8,-84.66 471.85,-81.13"/>
</a>
</g>
</g>
<!-- Node22 -->
<g id="Node000022" class="node">
<title>Node22</title>
<g id="a_Node000022"><a xlink:title=" ">
<polygon fill="#e0e0e0" stroke="#999999" points="472,-184 412,-184 412,-165 472,-165 472,-184"/>
<text text-anchor="middle" x="442" y="-172" font-family="Helvetica,sans-Serif" font-size="10.00">iostream</text>
</a>
</g>
</g>
<!-- Node21&#45;&gt;Node22 -->
<g id="edge21_Node000021_Node000022" class="edge">
<title>Node21&#45;&gt;Node22</title>
<g id="a_edge21_Node000021_Node000022"><a xlink:title=" ">
<path fill="none" stroke="#63b8ff" d="M453.69,-219.75C451.83,-212.72 449.16,-202.62 446.85,-193.84"/>
<polygon fill="#63b8ff" stroke="#63b8ff" points="450.21,-192.86 444.27,-184.09 443.44,-194.65 450.21,-192.86"/>
</a>
</g>
</g>
<!-- Node23&#45;&gt;Node14 -->
<g id="edge23_Node000023_Node000014" class="edge">
<title>Node23&#45;&gt;Node14</title>
<g id="a_edge23_Node000023_Node000014"><a xlink:title=" ">
<path fill="none" stroke="#63b8ff" d="M239.89,-274.84C246.29,-266.52 254.42,-255.96 261.13,-247.23"/>
<polygon fill="#63b8ff" stroke="#63b8ff" points="263.93,-249.33 267.26,-239.27 258.39,-245.06 263.93,-249.33"/>
</a>
</g>
</g>
<!-- Node24&#45;&gt;Node14 -->
<g id="edge27_Node000024_Node000014" class="edge">
<title>Node24&#45;&gt;Node14</title>
<g id="a_edge27_Node000024_Node000014"><a xlink:title=" ">
<path fill="none" stroke="#63b8ff" d="M379.11,-280.49C358.62,-270.75 324.81,-254.66 301.08,-243.38"/>
<polygon fill="#63b8ff" stroke="#63b8ff" points="302.44,-240.15 291.91,-239.02 299.43,-246.47 302.44,-240.15"/>
</a>
</g>
</g>
<!-- Node24&#45;&gt;Node21 -->
<g id="edge28_Node000024_Node000021" class="edge">
<title>Node24&#45;&gt;Node21</title>
<g id="a_edge28_Node000024_Node000021"><a xlink:title=" ">
<path fill="none" stroke="#63b8ff" d="M405.71,-280.37C414.68,-271.47 428.88,-257.39 439.91,-246.45"/>
<polygon fill="#63b8ff" stroke="#63b8ff" points="442.62,-248.69 447.26,-239.17 437.69,-243.72 442.62,-248.69"/>
</a>
</g>
</g>
<!-- Node25 -->
<g id="Node000025" class="node">
<title>Node25</title>
<g id="a_Node000025"><a xlink:href="../../d0/d2e/vcs__SpeciesProperties_8h.html" target="_top" xlink:title=" ">
<polygon fill="white" stroke="#666666" points="344,-129 210,-129 210,-110 344,-110 344,-129"/>
<text text-anchor="middle" x="277" y="-117" font-family="Helvetica,sans-Serif" font-size="10.00">vcs_SpeciesProperties.h</text>
</a>
</g>
</g>
<!-- Node24&#45;&gt;Node25 -->
<g id="edge25_Node000024_Node000025" class="edge">
<title>Node24&#45;&gt;Node25</title>
<g id="a_edge25_Node000024_Node000025"><a xlink:title=" ">
<path fill="none" stroke="#63b8ff" d="M391.31,-280.44C382.56,-267.33 365.23,-241.54 350,-220 329.28,-190.7 304.43,-157.15 289.72,-137.45"/>
<polygon fill="#63b8ff" stroke="#63b8ff" points="292.34,-135.12 283.55,-129.21 286.74,-139.31 292.34,-135.12"/>
</a>
</g>
</g>
<!-- Node25&#45;&gt;Node3 -->
<g id="edge26_Node000025_Node000003" class="edge">
<title>Node25&#45;&gt;Node3</title>
<g id="a_edge26_Node000025_Node000003"><a xlink:title=" ">
<path fill="none" stroke="#63b8ff" d="M306.08,-109.98C336.6,-101.05 384.76,-86.94 418.66,-77.02"/>
<polygon fill="#63b8ff" stroke="#63b8ff" points="420.08,-80.25 428.69,-74.08 418.11,-73.53 420.08,-80.25"/>
</a>
</g>
</g>
<!-- Node26&#45;&gt;Node3 -->
<g id="edge30_Node000026_Node000003" class="edge">
<title>Node26&#45;&gt;Node3</title>
<g id="a_edge30_Node000026_Node000003"><a xlink:title=" ">
<path fill="none" stroke="#63b8ff" d="M682.94,-219.99C685.38,-207.12 688.15,-182.33 678,-165 647.61,-113.09 582.16,-88.11 530.51,-76.18"/>
<polygon fill="#63b8ff" stroke="#63b8ff" points="531.22,-72.76 520.7,-74.04 529.72,-79.59 531.22,-72.76"/>
</a>
</g>
</g>
<!-- Node26&#45;&gt;Node17 -->
<g id="edge31_Node000026_Node000017" class="edge">
<title>Node26&#45;&gt;Node17</title>
<g id="a_edge31_Node000026_Node000017"><a xlink:title=" ">
<path fill="none" stroke="#63b8ff" d="M659.84,-219.84C613.19,-200.76 501.36,-155.01 447.29,-132.89"/>
<polygon fill="#63b8ff" stroke="#63b8ff" points="448.47,-129.59 437.89,-129.05 445.82,-136.07 448.47,-129.59"/>
</a>
</g>
</g>
<!-- Node27 -->
<g id="Node000027" class="node">
<title>Node27</title>
<g id="a_Node000027"><a xlink:title=" ">
<polygon fill="#e0e0e0" stroke="#999999" points="669.5,-184 604.5,-184 604.5,-165 669.5,-165 669.5,-184"/>
<text text-anchor="middle" x="637" y="-172" font-family="Helvetica,sans-Serif" font-size="10.00">exception</text>
</a>
</g>
</g>
<!-- Node26&#45;&gt;Node27 -->
<g id="edge32_Node000026_Node000027" class="edge">
<title>Node26&#45;&gt;Node27</title>
<g id="a_edge32_Node000026_Node000027"><a xlink:title=" ">
<path fill="none" stroke="#63b8ff" d="M673.73,-219.75C667.46,-212.18 658.21,-201.05 650.57,-191.84"/>
<polygon fill="#63b8ff" stroke="#63b8ff" points="653.21,-189.55 644.13,-184.09 647.83,-194.02 653.21,-189.55"/>
</a>
</g>
</g>
<!-- Node29 -->
<g id="Node000029" class="node">
<title>Node29</title>
<g id="a_Node000029"><a xlink:title=" ">
<polygon fill="#e0e0e0" stroke="#999999" points="824,-239 776,-239 776,-220 824,-220 824,-239"/>
<text text-anchor="middle" x="800" y="-227" font-family="Helvetica,sans-Serif" font-size="10.00">time.h</text>
</a>
</g>
</g>
<!-- Node28&#45;&gt;Node29 -->
<g id="edge34_Node000028_Node000029" class="edge">
<title>Node28&#45;&gt;Node29</title>
<g id="a_edge34_Node000028_Node000029"><a xlink:title=" ">
<path fill="none" stroke="#63b8ff" d="M794.03,-280.37C795,-272.25 796.49,-259.81 797.74,-249.39"/>
<polygon fill="#63b8ff" stroke="#63b8ff" points="801.25,-249.51 798.96,-239.17 794.3,-248.68 801.25,-249.51"/>
</a>
</g>
</g>
<!-- Node30&#45;&gt;Node3 -->
<g id="edge36_Node000030_Node000003" class="edge">
<title>Node30&#45;&gt;Node3</title>
<g id="a_edge36_Node000030_Node000003"><a xlink:title=" ">
<path fill="none" stroke="#63b8ff" d="M781.14,-109.98C712.63,-100.55 602.3,-85.36 529.97,-75.41"/>
<polygon fill="#63b8ff" stroke="#63b8ff" points="530.41,-71.93 520.02,-74.04 529.45,-78.87 530.41,-71.93"/>
</a>
</g>
</g>
<!-- Node31&#45;&gt;Node3 -->
<g id="edge38_Node000031_Node000003" class="edge">
<title>Node31&#45;&gt;Node3</title>
<g id="a_edge38_Node000031_Node000003"><a xlink:title=" ">
<path fill="none" stroke="#63b8ff" d="M578.79,-280.38C568.69,-253.81 535.89,-171.24 496,-110 489.43,-99.91 480.8,-89.63 473.42,-81.49"/>
<polygon fill="#63b8ff" stroke="#63b8ff" points="475.97,-79.09 466.59,-74.16 470.85,-83.86 475.97,-79.09"/>
</a>
</g>
</g>
<!-- Node31&#45;&gt;Node21 -->
<g id="edge40_Node000031_Node000021" class="edge">
<title>Node31&#45;&gt;Node21</title>
<g id="a_edge40_Node000031_Node000021"><a xlink:title=" ">
<path fill="none" stroke="#63b8ff" d="M563.68,-280.49C542.59,-270.7 507.74,-254.52 483.42,-243.23"/>
<polygon fill="#63b8ff" stroke="#63b8ff" points="484.89,-240.05 474.34,-239.02 481.94,-246.4 484.89,-240.05"/>
</a>
</g>
</g>
<!-- Node31&#45;&gt;Node26 -->
<g id="edge39_Node000031_Node000026" class="edge">
<title>Node31&#45;&gt;Node26</title>
<g id="a_edge39_Node000031_Node000026"><a xlink:title=" ">
<path fill="none" stroke="#63b8ff" d="M596.61,-280.37C612.69,-270.86 638.78,-255.45 657.7,-244.27"/>
<polygon fill="#63b8ff" stroke="#63b8ff" points="659.5,-247.27 666.33,-239.17 655.94,-241.24 659.5,-247.27"/>
</a>
</g>
</g>
</g>
</svg>

<g id="navigator" transform="translate(0 0)" fill="#404254">
  <rect fill="#f2f5e9" fill-opacity="0.5" stroke="#606060" stroke-width=".5" x="0" y="0" width="60" height="60"/>
  <use id="zoomplus" xlink:href="#zoomPlus" x="17" y="9" onmousedown="handleZoom(evt,'in')"/>
  <use id="zoomminus" xlink:href="#zoomMin" x="42" y="9" onmousedown="handleZoom(evt,'out')"/>
  <use id="reset" xlink:href="#resetDef" x="30" y="36" onmousedown="handleReset()"/>
   <use id="arrowup" xlink:href="#arrowUp" x="0" y="0" onmousedown="handlePan(0,-1)"/>
  <use id="arrowright" xlink:href="#arrowRight" x="0" y="0" onmousedown="handlePan(1,0)"/>
  <use id="arrowdown" xlink:href="#arrowDown" x="0" y="0" onmousedown="handlePan(0,1)"/>
  <use id="arrowleft" xlink:href="#arrowLeft" x="0" y="0" onmousedown="handlePan(-1,0)"/>
</g>
<svg viewBox="0 0 15 15" width="100%" height="30px" preserveAspectRatio="xMaxYMin meet">
 <g id="arrow_out" transform="scale(0.3 0.3)">
  <a xlink:href="vcs__solve__TP_8cpp__incl_org.svg" target="_base">
   <rect id="button" ry="5" rx="5" y="6" x="6" height="38" width="38"
        fill="#f2f5e9" fill-opacity="0.5" stroke="#606060" stroke-width="1.0"/>
   <path id="arrow"
     d="M 11.500037,31.436501 C 11.940474,20.09759 22.043105,11.32322 32.158766,21.979434 L 37.068811,17.246167 C 37.068811,17.246167 37.088388,32 37.088388,32 L 22.160133,31.978069 C 22.160133,31.978069 26.997745,27.140456 26.997745,27.140456 C 18.528582,18.264221 13.291696,25.230495 11.500037,31.436501 z"
     style="fill:#404040;"/>
  </a>
 </g>
</svg>

<style type='text/css'>
<![CDATA[
[data-mouse-over-selected='false'] { opacity: 0.7; }
[data-mouse-over-selected='true']  { opacity: 1.0; }
]]>
</style>
<script type="application/ecmascript"><![CDATA[
document.addEventListener('DOMContentLoaded', (event) => {
  highlightEdges();
  highlightAdjacentNodes();
});
]]></script>
</svg>
