<?xml version="1.0" encoding="UTF-8" standalone="no"?>
<!DOCTYPE svg PUBLIC "-//W3C//DTD SVG 1.1//EN"
 "http://www.w3.org/Graphics/SVG/1.1/DTD/svg11.dtd">
<!-- Generated by graphviz version 6.0.1 (0)
 -->
<!-- Title: PDSS_SSVol.cpp Pages: 1 -->
<!--zoomable 478 -->
<svg id="main" version="1.1" xmlns="http://www.w3.org/2000/svg" xmlns:xlink="http://www.w3.org/1999/xlink" xml:space="preserve" onload="init(evt)">
<style type="text/css"><![CDATA[
.edge:hover path { stroke: red; }
.edge:hover polygon { stroke: red; fill: red; }
]]></style>
<script type="text/javascript"><![CDATA[
var edges = document.getElementsByTagName('g');
if (edges && edges.length) {
  for (var i=0;i<edges.length;i++) {
    if (edges[i].id.substr(0,4)=='edge') {
      edges[i].setAttribute('class','edge');
    }
  }
}
]]></script>
        <defs>
                <circle id="rim" cx="0" cy="0" r="7"/>
                <circle id="rim2" cx="0" cy="0" r="3.5"/>
                <g id="zoomPlus">
                        <use xlink:href="#rim" fill="#404040">
                                <set attributeName="fill" to="#808080" begin="zoomplus.mouseover" end="zoomplus.mouseout"/>
                        </use>
                        <path d="M-4,0h8M0,-4v8" fill="none" stroke="white" stroke-width="1.5" pointer-events="none"/>
                </g>
                <g id="zoomMin">
                        <use xlink:href="#rim" fill="#404040">
                                <set attributeName="fill" to="#808080" begin="zoomminus.mouseover" end="zoomminus.mouseout"/>
                        </use>
                        <path d="M-4,0h8" fill="none" stroke="white" stroke-width="1.5" pointer-events="none"/>
                </g>
                <g id="dirArrow">
                        <path fill="none" stroke="white" stroke-width="1.5" d="M0,-3.0v7 M-2.5,-0.5L0,-3.0L2.5,-0.5"/>
                </g>
               <g id="resetDef">
                       <use xlink:href="#rim2" fill="#404040">
                               <set attributeName="fill" to="#808080" begin="reset.mouseover" end="reset.mouseout"/>
                       </use>
               </g>
        </defs>

<script type="text/javascript">
var viewWidth = 1046;
var viewHeight = 478;
var sectionId = 'dynsection-0';
</script>
<script xlink:href="../../svgpan.js"/>
<svg id="graph" class="graph">
<g id="viewport">
<title>PDSS_SSVol.cpp</title>
<!-- Node1 -->
<g id="node1" class="node">
<title>Node1</title>
<g id="a_node1"><a xlink:title="Implementation of a pressure dependent standard state virtual function.">
<polygon fill="#999999" stroke="#666666" points="607.28,-470 511.28,-470 511.28,-451 607.28,-451 607.28,-470"/>
<text text-anchor="middle" x="559.28" y="-458" font-family="Helvetica,sans-Serif" font-size="10.00">PDSS_SSVol.cpp</text>
</a>
</g>
</g>
<!-- Node2 -->
<g id="node2" class="node">
<title>Node2</title>
<g id="a_node2"><a xlink:href="../../d0/db8/PDSS__SSVol_8h.html" target="_top" xlink:title="Declarations for the class PDSS_SSVol (pressure dependent standard state) which handles calculations ...">
<polygon fill="white" stroke="#666666" points="687.78,-415 574.78,-415 574.78,-385 687.78,-385 687.78,-415"/>
<text text-anchor="start" x="582.78" y="-403" font-family="Helvetica,sans-Serif" font-size="10.00">cantera/thermo/PDSS</text>
<text text-anchor="middle" x="631.28" y="-392" font-family="Helvetica,sans-Serif" font-size="10.00">_SSVol.h</text>
</a>
</g>
</g>
<!-- Node1&#45;&gt;Node2 -->
<g id="edge1" class="edge">
<title>Node1&#45;&gt;Node2</title>
<path fill="none" stroke="#63b8ff" d="M569.9,-450.87C579.4,-443.15 593.69,-431.54 606.1,-421.46"/>
<polygon fill="#63b8ff" stroke="#63b8ff" points="608.35,-424.14 613.91,-415.11 603.94,-418.7 608.35,-424.14"/>
</g>
<!-- Node26 -->
<g id="node22" class="node">
<title>Node26</title>
<g id="a_node22"><a xlink:href="../../df/dfd/VPStandardStateTP_8h.html" target="_top" xlink:title="Header file for a derived class of ThermoPhase that handles variable pressure standard state methods ...">
<polygon fill="white" stroke="#666666" points="556.78,-415 419.78,-415 419.78,-385 556.78,-385 556.78,-415"/>
<text text-anchor="start" x="427.78" y="-403" font-family="Helvetica,sans-Serif" font-size="10.00">cantera/thermo/VPStandard</text>
<text text-anchor="middle" x="488.28" y="-392" font-family="Helvetica,sans-Serif" font-size="10.00">StateTP.h</text>
</a>
</g>
</g>
<!-- Node1&#45;&gt;Node26 -->
<g id="edge25" class="edge">
<title>Node1&#45;&gt;Node26</title>
<path fill="none" stroke="#63b8ff" d="M548.8,-450.87C539.53,-443.22 525.61,-431.76 513.46,-421.75"/>
<polygon fill="#63b8ff" stroke="#63b8ff" points="515.35,-418.77 505.41,-415.11 510.9,-424.17 515.35,-418.77"/>
</g>
<!-- Node3 -->
<g id="node3" class="node">
<title>Node3</title>
<g id="a_node3"><a xlink:href="../../d7/dfa/PDSS_8h.html" target="_top" xlink:title="Declarations for the virtual base class PDSS (pressure dependent standard state) which handles calcul...">
<polygon fill="white" stroke="#666666" points="657.78,-239 604.78,-239 604.78,-220 657.78,-220 657.78,-239"/>
<text text-anchor="middle" x="631.28" y="-227" font-family="Helvetica,sans-Serif" font-size="10.00">PDSS.h</text>
</a>
</g>
</g>
<!-- Node2&#45;&gt;Node3 -->
<g id="edge2" class="edge">
<title>Node2&#45;&gt;Node3</title>
<path fill="none" stroke="#63b8ff" d="M631.28,-384.92C631.28,-354.65 631.28,-283.35 631.28,-249.27"/>
<polygon fill="#63b8ff" stroke="#63b8ff" points="634.78,-249.25 631.28,-239.25 627.78,-249.25 634.78,-249.25"/>
</g>
<!-- Node4 -->
<g id="node4" class="node">
<title>Node4</title>
<g id="a_node4"><a xlink:href="../../d9/ddc/ct__defs_8h.html" target="_top" xlink:title="This file contains definitions of constants, types and terms that are used in internal routines and a...">
<polygon fill="white" stroke="#666666" points="703.28,-74 587.28,-74 587.28,-55 703.28,-55 703.28,-74"/>
<text text-anchor="middle" x="645.28" y="-62" font-family="Helvetica,sans-Serif" font-size="10.00">cantera/base/ct_defs.h</text>
</a>
</g>
</g>
<!-- Node3&#45;&gt;Node4 -->
<g id="edge3" class="edge">
<title>Node3&#45;&gt;Node4</title>
<path fill="none" stroke="#63b8ff" d="M657.97,-225.43C755.62,-213.67 1085.06,-169.2 1032.28,-110 1011.48,-86.67 818.95,-73.83 713.53,-68.5"/>
<polygon fill="#63b8ff" stroke="#63b8ff" points="713.46,-64.99 703.3,-67.99 713.12,-71.98 713.46,-64.99"/>
</g>
<!-- Node15 -->
<g id="node15" class="node">
<title>Node15</title>
<g id="a_node15"><a xlink:href="../../dd/d2a/AnyMap_8h.html" target="_top" xlink:title=" ">
<polygon fill="white" stroke="#666666" points="512.28,-184 392.28,-184 392.28,-165 512.28,-165 512.28,-184"/>
<text text-anchor="middle" x="452.28" y="-172" font-family="Helvetica,sans-Serif" font-size="10.00">cantera/base/AnyMap.h</text>
</a>
</g>
</g>
<!-- Node3&#45;&gt;Node15 -->
<g id="edge14" class="edge">
<title>Node3&#45;&gt;Node15</title>
<path fill="none" stroke="#63b8ff" d="M604.48,-220.57C574.3,-211.63 525,-197.03 490.72,-186.88"/>
<polygon fill="#63b8ff" stroke="#63b8ff" points="491.62,-183.5 481.04,-184.02 489.64,-190.21 491.62,-183.5"/>
</g>
<!-- Node5 -->
<g id="node5" class="node">
<title>Node5</title>
<g id="a_node5"><a xlink:href="../../db/d16/config_8h_source.html" target="_top" xlink:title=" ">
<polygon fill="white" stroke="#666666" points="395.78,-19 344.78,-19 344.78,0 395.78,0 395.78,-19"/>
<text text-anchor="middle" x="370.28" y="-7" font-family="Helvetica,sans-Serif" font-size="10.00">config.h</text>
</a>
</g>
</g>
<!-- Node4&#45;&gt;Node5 -->
<g id="edge4" class="edge">
<title>Node4&#45;&gt;Node5</title>
<path fill="none" stroke="#63b8ff" d="M594.55,-54.93C548.05,-46.88 477.07,-34.13 405.9,-19.03"/>
<polygon fill="#63b8ff" stroke="#63b8ff" points="406.37,-15.55 395.86,-16.88 404.9,-22.4 406.37,-15.55"/>
</g>
<!-- Node6 -->
<g id="node6" class="node">
<title>Node6</title>
<g id="a_node6"><a xlink:title=" ">
<polygon fill="#e0e0e0" stroke="#999999" points="458.28,-19 414.28,-19 414.28,0 458.28,0 458.28,-19"/>
<text text-anchor="middle" x="436.28" y="-7" font-family="Helvetica,sans-Serif" font-size="10.00">cmath</text>
</a>
</g>
</g>
<!-- Node4&#45;&gt;Node6 -->
<g id="edge5" class="edge">
<title>Node4&#45;&gt;Node6</title>
<path fill="none" stroke="#63b8ff" d="M610.09,-54.95C576.18,-46.66 523.17,-33.55 468.48,-19.27"/>
<polygon fill="#63b8ff" stroke="#63b8ff" points="469.17,-15.84 458.61,-16.69 467.4,-22.61 469.17,-15.84"/>
</g>
<!-- Node7 -->
<g id="node7" class="node">
<title>Node7</title>
<g id="a_node7"><a xlink:title=" ">
<polygon fill="#e0e0e0" stroke="#999999" points="521.78,-19 476.78,-19 476.78,0 521.78,0 521.78,-19"/>
<text text-anchor="middle" x="499.28" y="-7" font-family="Helvetica,sans-Serif" font-size="10.00">cstdlib</text>
</a>
</g>
</g>
<!-- Node4&#45;&gt;Node7 -->
<g id="edge6" class="edge">
<title>Node4&#45;&gt;Node7</title>
<path fill="none" stroke="#63b8ff" d="M621.82,-54.98C597.41,-46.12 559.01,-32.18 531.71,-22.27"/>
<polygon fill="#63b8ff" stroke="#63b8ff" points="532.79,-18.94 522.2,-18.82 530.4,-25.52 532.79,-18.94"/>
</g>
<!-- Node8 -->
<g id="node8" class="node">
<title>Node8</title>
<g id="a_node8"><a xlink:title=" ">
<polygon fill="#e0e0e0" stroke="#999999" points="584.28,-19 540.28,-19 540.28,0 584.28,0 584.28,-19"/>
<text text-anchor="middle" x="562.28" y="-7" font-family="Helvetica,sans-Serif" font-size="10.00">vector</text>
</a>
</g>
</g>
<!-- Node4&#45;&gt;Node8 -->
<g id="edge7" class="edge">
<title>Node4&#45;&gt;Node8</title>
<path fill="none" stroke="#63b8ff" d="M631.94,-54.98C619.19,-46.84 599.73,-34.41 584.61,-24.76"/>
<polygon fill="#63b8ff" stroke="#63b8ff" points="586.17,-21.6 575.86,-19.17 582.4,-27.5 586.17,-21.6"/>
</g>
<!-- Node9 -->
<g id="node9" class="node">
<title>Node9</title>
<g id="a_node9"><a xlink:title=" ">
<polygon fill="#e0e0e0" stroke="#999999" points="637.78,-19 602.78,-19 602.78,0 637.78,0 637.78,-19"/>
<text text-anchor="middle" x="620.28" y="-7" font-family="Helvetica,sans-Serif" font-size="10.00">map</text>
</a>
</g>
</g>
<!-- Node4&#45;&gt;Node9 -->
<g id="edge8" class="edge">
<title>Node4&#45;&gt;Node9</title>
<path fill="none" stroke="#63b8ff" d="M641.15,-54.75C637.77,-47.57 632.86,-37.18 628.66,-28.27"/>
<polygon fill="#63b8ff" stroke="#63b8ff" points="631.76,-26.64 624.33,-19.09 625.43,-29.63 631.76,-26.64"/>
</g>
<!-- Node10 -->
<g id="node10" class="node">
<title>Node10</title>
<g id="a_node10"><a xlink:title=" ">
<polygon fill="#e0e0e0" stroke="#999999" points="686.28,-19 656.28,-19 656.28,0 686.28,0 686.28,-19"/>
<text text-anchor="middle" x="671.28" y="-7" font-family="Helvetica,sans-Serif" font-size="10.00">set</text>
</a>
</g>
</g>
<!-- Node4&#45;&gt;Node10 -->
<g id="edge9" class="edge">
<title>Node4&#45;&gt;Node10</title>
<path fill="none" stroke="#63b8ff" d="M649.57,-54.75C653.09,-47.57 658.19,-37.18 662.56,-28.27"/>
<polygon fill="#63b8ff" stroke="#63b8ff" points="665.8,-29.61 667.07,-19.09 659.52,-26.53 665.8,-29.61"/>
</g>
<!-- Node11 -->
<g id="node11" class="node">
<title>Node11</title>
<g id="a_node11"><a xlink:title=" ">
<polygon fill="#e0e0e0" stroke="#999999" points="745.78,-19 704.78,-19 704.78,0 745.78,0 745.78,-19"/>
<text text-anchor="middle" x="725.28" y="-7" font-family="Helvetica,sans-Serif" font-size="10.00">string</text>
</a>
</g>
</g>
<!-- Node4&#45;&gt;Node11 -->
<g id="edge10" class="edge">
<title>Node4&#45;&gt;Node11</title>
<path fill="none" stroke="#63b8ff" d="M658.13,-54.98C670.42,-46.84 689.19,-34.41 703.76,-24.76"/>
<polygon fill="#63b8ff" stroke="#63b8ff" points="705.79,-27.61 712.19,-19.17 701.92,-21.78 705.79,-27.61"/>
</g>
<!-- Node12 -->
<g id="node12" class="node">
<title>Node12</title>
<g id="a_node12"><a xlink:title=" ">
<polygon fill="#e0e0e0" stroke="#999999" points="820.28,-19 764.28,-19 764.28,0 820.28,0 820.28,-19"/>
<text text-anchor="middle" x="792.28" y="-7" font-family="Helvetica,sans-Serif" font-size="10.00">algorithm</text>
</a>
</g>
</g>
<!-- Node4&#45;&gt;Node12 -->
<g id="edge11" class="edge">
<title>Node4&#45;&gt;Node12</title>
<path fill="none" stroke="#63b8ff" d="M668.9,-54.98C693.18,-46.23 731.23,-32.51 758.65,-22.62"/>
<polygon fill="#63b8ff" stroke="#63b8ff" points="760.01,-25.85 768.23,-19.17 757.64,-19.27 760.01,-25.85"/>
</g>
<!-- Node13 -->
<g id="node13" class="node">
<title>Node13</title>
<g id="a_node13"><a xlink:title=" ">
<polygon fill="#e0e0e0" stroke="#999999" points="890.28,-19 838.28,-19 838.28,0 890.28,0 890.28,-19"/>
<text text-anchor="middle" x="864.28" y="-7" font-family="Helvetica,sans-Serif" font-size="10.00">memory</text>
</a>
</g>
</g>
<!-- Node4&#45;&gt;Node13 -->
<g id="edge12" class="edge">
<title>Node4&#45;&gt;Node13</title>
<path fill="none" stroke="#63b8ff" d="M680.56,-54.98C715.57,-46.52 771.05,-33.11 828.01,-19.31"/>
<polygon fill="#63b8ff" stroke="#63b8ff" points="829.01,-22.66 837.91,-16.91 827.36,-15.86 829.01,-22.66"/>
</g>
<!-- Node14 -->
<g id="node14" class="node">
<title>Node14</title>
<g id="a_node14"><a xlink:title=" ">
<polygon fill="#e0e0e0" stroke="#999999" points="967.78,-19 908.78,-19 908.78,0 967.78,0 967.78,-19"/>
<text text-anchor="middle" x="938.28" y="-7" font-family="Helvetica,sans-Serif" font-size="10.00">functional</text>
</a>
</g>
</g>
<!-- Node4&#45;&gt;Node14 -->
<g id="edge13" class="edge">
<title>Node4&#45;&gt;Node14</title>
<path fill="none" stroke="#63b8ff" d="M697.93,-54.92C747.17,-46.76 823.01,-33.81 898.35,-19.11"/>
<polygon fill="#63b8ff" stroke="#63b8ff" points="899.36,-22.48 908.5,-17.12 898.01,-15.61 899.36,-22.48"/>
</g>
<!-- Node15&#45;&gt;Node4 -->
<g id="edge15" class="edge">
<title>Node15&#45;&gt;Node4</title>
<path fill="none" stroke="#63b8ff" d="M467.75,-164.84C501.29,-146.08 580.91,-101.52 621.14,-79.01"/>
<polygon fill="#63b8ff" stroke="#63b8ff" points="622.99,-81.98 630.01,-74.05 619.57,-75.88 622.99,-81.98"/>
</g>
<!-- Node16 -->
<g id="node16" class="node">
<title>Node16</title>
<g id="a_node16"><a xlink:href="../../db/d98/ctexceptions_8h.html" target="_top" xlink:title="Definitions for the classes that are thrown when Cantera experiences an error condition (also contain...">
<polygon fill="#fff0f0" stroke="red" points="715.28,-129 575.28,-129 575.28,-110 715.28,-110 715.28,-129"/>
<text text-anchor="middle" x="645.28" y="-117" font-family="Helvetica,sans-Serif" font-size="10.00">cantera/base/ctexceptions.h</text>
</a>
</g>
</g>
<!-- Node15&#45;&gt;Node16 -->
<g id="edge16" class="edge">
<title>Node15&#45;&gt;Node16</title>
<path fill="none" stroke="#63b8ff" d="M483.29,-164.98C516.11,-155.97 568.08,-141.7 604.27,-131.76"/>
<polygon fill="#63b8ff" stroke="#63b8ff" points="605.31,-135.11 614.03,-129.08 603.46,-128.36 605.31,-135.11"/>
</g>
<!-- Node21 -->
<g id="node17" class="node">
<title>Node21</title>
<g id="a_node17"><a xlink:href="../../da/d58/Units_8h.html" target="_top" xlink:title="Header for unit conversion utilities, which are used to translate user input from input files (See In...">
<polygon fill="white" stroke="#666666" points="135.78,-129 28.78,-129 28.78,-110 135.78,-110 135.78,-129"/>
<text text-anchor="middle" x="82.28" y="-117" font-family="Helvetica,sans-Serif" font-size="10.00">cantera/base/Units.h</text>
</a>
</g>
</g>
<!-- Node15&#45;&gt;Node21 -->
<g id="edge18" class="edge">
<title>Node15&#45;&gt;Node21</title>
<path fill="none" stroke="#63b8ff" d="M392.83,-164.98C325.17,-155.29 215.09,-139.52 145.79,-129.6"/>
<polygon fill="#63b8ff" stroke="#63b8ff" points="146.26,-126.13 135.87,-128.18 145.27,-133.06 146.26,-126.13"/>
</g>
<!-- Node22 -->
<g id="node18" class="node">
<title>Node22</title>
<g id="a_node18"><a xlink:title=" ">
<polygon fill="#e0e0e0" stroke="#999999" points="236.78,-129 153.78,-129 153.78,-110 236.78,-110 236.78,-129"/>
<text text-anchor="middle" x="195.28" y="-117" font-family="Helvetica,sans-Serif" font-size="10.00">unordered_map</text>
</a>
</g>
</g>
<!-- Node15&#45;&gt;Node22 -->
<g id="edge20" class="edge">
<title>Node15&#45;&gt;Node22</title>
<path fill="none" stroke="#63b8ff" d="M410.99,-164.98C366.35,-155.78 295.12,-141.09 246.83,-131.13"/>
<polygon fill="#63b8ff" stroke="#63b8ff" points="247.4,-127.67 236.89,-129.08 245.98,-134.53 247.4,-127.67"/>
</g>
<!-- Node23 -->
<g id="node19" class="node">
<title>Node23</title>
<g id="a_node19"><a xlink:title=" ">
<polygon fill="#e0e0e0" stroke="#999999" points="317.28,-129 255.28,-129 255.28,-110 317.28,-110 317.28,-129"/>
<text text-anchor="middle" x="286.28" y="-117" font-family="Helvetica,sans-Serif" font-size="10.00">filesystem</text>
</a>
</g>
</g>
<!-- Node15&#45;&gt;Node23 -->
<g id="edge21" class="edge">
<title>Node15&#45;&gt;Node23</title>
<path fill="none" stroke="#63b8ff" d="M425.61,-164.98C397.74,-156.09 353.83,-142.07 322.76,-132.15"/>
<polygon fill="#63b8ff" stroke="#63b8ff" points="323.75,-128.79 313.16,-129.08 321.62,-135.46 323.75,-128.79"/>
</g>
<!-- Node24 -->
<g id="node20" class="node">
<title>Node24</title>
<g id="a_node20"><a xlink:title=" ">
<polygon fill="#e0e0e0" stroke="#999999" points="367.28,-129 335.28,-129 335.28,-110 367.28,-110 367.28,-129"/>
<text text-anchor="middle" x="351.28" y="-117" font-family="Helvetica,sans-Serif" font-size="10.00">any</text>
</a>
</g>
</g>
<!-- Node15&#45;&gt;Node24 -->
<g id="edge22" class="edge">
<title>Node15&#45;&gt;Node24</title>
<path fill="none" stroke="#63b8ff" d="M436.05,-164.98C420,-156.56 395.21,-143.55 376.57,-133.77"/>
<polygon fill="#63b8ff" stroke="#63b8ff" points="377.95,-130.54 367.47,-128.99 374.7,-136.74 377.95,-130.54"/>
</g>
<!-- Node25 -->
<g id="node21" class="node">
<title>Node25</title>
<g id="a_node21"><a xlink:href="../../da/d4c/AnyMap_8inl_8h.html" target="_top" xlink:title=" ">
<polygon fill="white" stroke="#666666" points="518.78,-129 385.78,-129 385.78,-110 518.78,-110 518.78,-129"/>
<text text-anchor="middle" x="452.28" y="-117" font-family="Helvetica,sans-Serif" font-size="10.00">cantera/base/AnyMap.inl.h</text>
</a>
</g>
</g>
<!-- Node15&#45;&gt;Node25 -->
<g id="edge23" class="edge">
<title>Node15&#45;&gt;Node25</title>
<path fill="none" stroke="#63b8ff" d="M447.11,-164.75C445.62,-157.8 445.18,-147.85 445.8,-139.13"/>
<polygon fill="#63b8ff" stroke="#63b8ff" points="449.29,-139.47 447.15,-129.09 442.35,-138.53 449.29,-139.47"/>
</g>
<!-- Node16&#45;&gt;Node4 -->
<g id="edge17" class="edge">
<title>Node16&#45;&gt;Node4</title>
<path fill="none" stroke="#63b8ff" d="M645.28,-109.75C645.28,-102.8 645.28,-92.85 645.28,-84.13"/>
<polygon fill="#63b8ff" stroke="#63b8ff" points="648.78,-84.09 645.28,-74.09 641.78,-84.09 648.78,-84.09"/>
</g>
<!-- Node21&#45;&gt;Node4 -->
<g id="edge19" class="edge">
<title>Node21&#45;&gt;Node4</title>
<path fill="none" stroke="#63b8ff" d="M136.03,-110.97C138.82,-110.63 141.58,-110.3 144.28,-110 298.53,-92.59 480.15,-77.9 576.74,-70.55"/>
<polygon fill="#63b8ff" stroke="#63b8ff" points="577.24,-74.02 586.95,-69.77 576.71,-67.04 577.24,-74.02"/>
</g>
<!-- Node25&#45;&gt;Node15 -->
<g id="edge24" class="edge">
<title>Node25&#45;&gt;Node15</title>
<path fill="none" stroke="#63b8ff" d="M457.41,-129.09C458.92,-135.99 459.37,-145.93 458.77,-154.66"/>
<polygon fill="#63b8ff" stroke="#63b8ff" points="455.28,-154.38 457.45,-164.75 462.22,-155.29 455.28,-154.38"/>
</g>
<!-- Node27 -->
<g id="node23" class="node">
<title>Node27</title>
<g id="a_node23"><a xlink:href="../../d7/d01/ThermoPhase_8h.html" target="_top" xlink:title="Header file for class ThermoPhase, the base class for phases with thermodynamic properties,...">
<polygon fill="white" stroke="#666666" points="531.28,-349 445.28,-349 445.28,-330 531.28,-330 531.28,-349"/>
<text text-anchor="middle" x="488.28" y="-337" font-family="Helvetica,sans-Serif" font-size="10.00">ThermoPhase.h</text>
</a>
</g>
</g>
<!-- Node26&#45;&gt;Node27 -->
<g id="edge26" class="edge">
<title>Node26&#45;&gt;Node27</title>
<path fill="none" stroke="#63b8ff" d="M488.28,-384.84C488.28,-377.21 488.28,-367.7 488.28,-359.45"/>
<polygon fill="#63b8ff" stroke="#63b8ff" points="491.78,-359.27 488.28,-349.27 484.78,-359.27 491.78,-359.27"/>
</g>
<!-- Node27&#45;&gt;Node15 -->
<g id="edge39" class="edge">
<title>Node27&#45;&gt;Node15</title>
<path fill="none" stroke="#63b8ff" d="M489.24,-329.89C491.16,-309.96 494.24,-259.34 481.28,-220 478.01,-210.07 471.95,-200.21 466.21,-192.31"/>
<polygon fill="#63b8ff" stroke="#63b8ff" points="468.92,-190.09 460.04,-184.31 463.38,-194.37 468.92,-190.09"/>
</g>
<!-- Node27&#45;&gt;Node21 -->
<g id="edge38" class="edge">
<title>Node27&#45;&gt;Node21</title>
<path fill="none" stroke="#63b8ff" d="M450.49,-329.97C420.79,-322.53 378.81,-310.35 344.28,-294 246.23,-247.56 142.42,-168.58 100.96,-135.63"/>
<polygon fill="#63b8ff" stroke="#63b8ff" points="103.08,-132.85 93.08,-129.33 98.7,-138.31 103.08,-132.85"/>
</g>
<!-- Node28 -->
<g id="node24" class="node">
<title>Node28</title>
<g id="a_node24"><a xlink:href="../../da/d84/Phase_8h.html" target="_top" xlink:title="Header file for class Phase.">
<polygon fill="white" stroke="#666666" points="711.78,-184 658.78,-184 658.78,-165 711.78,-165 711.78,-184"/>
<text text-anchor="middle" x="685.28" y="-172" font-family="Helvetica,sans-Serif" font-size="10.00">Phase.h</text>
</a>
</g>
</g>
<!-- Node27&#45;&gt;Node28 -->
<g id="edge27" class="edge">
<title>Node27&#45;&gt;Node28</title>
<path fill="none" stroke="#63b8ff" d="M494.37,-329.73C509.42,-308.57 550.41,-253.95 595.28,-220 612.75,-206.78 634.77,-195.81 652.65,-188.07"/>
<polygon fill="#63b8ff" stroke="#63b8ff" points="654.24,-191.2 662.11,-184.11 651.53,-184.75 654.24,-191.2"/>
</g>
<!-- Node32 -->
<g id="node27" class="node">
<title>Node32</title>
<g id="a_node27"><a xlink:href="../../d6/d7a/MultiSpeciesThermo_8h.html" target="_top" xlink:title="Header for a general species thermodynamic property manager for a phase (see MultiSpeciesThermo).">
<polygon fill="white" stroke="#666666" points="467.28,-294 353.28,-294 353.28,-275 467.28,-275 467.28,-294"/>
<text text-anchor="middle" x="410.28" y="-282" font-family="Helvetica,sans-Serif" font-size="10.00">MultiSpeciesThermo.h</text>
</a>
</g>
</g>
<!-- Node27&#45;&gt;Node32 -->
<g id="edge33" class="edge">
<title>Node27&#45;&gt;Node32</title>
<path fill="none" stroke="#63b8ff" d="M475.75,-329.98C463.88,-321.92 445.82,-309.65 431.67,-300.03"/>
<polygon fill="#63b8ff" stroke="#63b8ff" points="433.28,-296.9 423.04,-294.17 429.34,-302.69 433.28,-296.9"/>
</g>
<!-- Node28&#45;&gt;Node16 -->
<g id="edge28" class="edge">
<title>Node28&#45;&gt;Node16</title>
<path fill="none" stroke="#63b8ff" d="M678.67,-164.75C673.02,-157.26 664.73,-146.28 657.83,-137.13"/>
<polygon fill="#63b8ff" stroke="#63b8ff" points="660.58,-134.96 651.76,-129.09 654.99,-139.18 660.58,-134.96"/>
</g>
<!-- Node29 -->
<g id="node25" class="node">
<title>Node29</title>
<g id="a_node25"><a xlink:href="../../d9/dda/Elements_8h.html" target="_top" xlink:title="Contains the getElementWeight function and the definitions of element constraint types.">
<polygon fill="white" stroke="#666666" points="1023.28,-129 889.28,-129 889.28,-110 1023.28,-110 1023.28,-129"/>
<text text-anchor="middle" x="956.28" y="-117" font-family="Helvetica,sans-Serif" font-size="10.00">cantera/thermo/Elements.h</text>
</a>
</g>
</g>
<!-- Node28&#45;&gt;Node29 -->
<g id="edge29" class="edge">
<title>Node28&#45;&gt;Node29</title>
<path fill="none" stroke="#63b8ff" d="M712.25,-168.22C756.46,-159.58 845.13,-142.24 902.54,-131.01"/>
<polygon fill="#63b8ff" stroke="#63b8ff" points="903.38,-134.41 912.52,-129.06 902.04,-127.54 903.38,-134.41"/>
</g>
<!-- Node30 -->
<g id="node26" class="node">
<title>Node30</title>
<g id="a_node26"><a xlink:href="../../d6/df6/ValueCache_8h.html" target="_top" xlink:title=" ">
<polygon fill="#fff0f0" stroke="red" points="870.78,-129 733.78,-129 733.78,-110 870.78,-110 870.78,-129"/>
<text text-anchor="middle" x="802.28" y="-117" font-family="Helvetica,sans-Serif" font-size="10.00">cantera/base/ValueCache.h</text>
</a>
</g>
</g>
<!-- Node28&#45;&gt;Node30 -->
<g id="edge31" class="edge">
<title>Node28&#45;&gt;Node30</title>
<path fill="none" stroke="#63b8ff" d="M704.08,-164.98C722.9,-156.46 752.1,-143.23 773.78,-133.41"/>
<polygon fill="#63b8ff" stroke="#63b8ff" points="775.47,-136.48 783.14,-129.17 772.59,-130.11 775.47,-136.48"/>
</g>
<!-- Node29&#45;&gt;Node4 -->
<g id="edge30" class="edge">
<title>Node29&#45;&gt;Node4</title>
<path fill="none" stroke="#63b8ff" d="M906.31,-109.98C851.64,-100.67 764.03,-85.74 705.58,-75.78"/>
<polygon fill="#63b8ff" stroke="#63b8ff" points="705.83,-72.27 695.38,-74.04 704.65,-79.17 705.83,-72.27"/>
</g>
<!-- Node30&#45;&gt;Node4 -->
<g id="edge32" class="edge">
<title>Node30&#45;&gt;Node4</title>
<path fill="none" stroke="#63b8ff" d="M777.05,-109.98C750.92,-101.16 709.88,-87.31 680.55,-77.41"/>
<polygon fill="#63b8ff" stroke="#63b8ff" points="681.3,-73.96 670.7,-74.08 679.06,-80.6 681.3,-73.96"/>
</g>
<!-- Node33 -->
<g id="node28" class="node">
<title>Node33</title>
<g id="a_node28"><a xlink:href="../../d4/d87/SpeciesThermoInterpType_8h.html" target="_top" xlink:title="Pure Virtual Base class for individual species reference state thermodynamic managers and text for th...">
<polygon fill="white" stroke="#666666" points="472.78,-239 333.78,-239 333.78,-220 472.78,-220 472.78,-239"/>
<text text-anchor="middle" x="403.28" y="-227" font-family="Helvetica,sans-Serif" font-size="10.00">SpeciesThermoInterpType.h</text>
</a>
</g>
</g>
<!-- Node32&#45;&gt;Node33 -->
<g id="edge34" class="edge">
<title>Node32&#45;&gt;Node33</title>
<path fill="none" stroke="#63b8ff" d="M409.12,-274.75C408.21,-267.8 406.89,-257.85 405.74,-249.13"/>
<polygon fill="#63b8ff" stroke="#63b8ff" points="409.19,-248.54 404.41,-239.09 402.25,-249.46 409.19,-248.54"/>
</g>
<!-- Node33&#45;&gt;Node4 -->
<g id="edge35" class="edge">
<title>Node33&#45;&gt;Node4</title>
<path fill="none" stroke="#63b8ff" d="M333.76,-228.5C199.63,-226.3 -73.75,-209.87 19.28,-110 56.64,-69.89 422.13,-65.34 576.76,-65.23"/>
<polygon fill="#63b8ff" stroke="#63b8ff" points="577.08,-68.73 587.08,-65.23 577.07,-61.73 577.08,-68.73"/>
</g>
<!-- Node33&#45;&gt;Node15 -->
<g id="edge37" class="edge">
<title>Node33&#45;&gt;Node15</title>
<path fill="none" stroke="#63b8ff" d="M411.37,-219.75C418.43,-212.11 428.87,-200.82 437.43,-191.56"/>
<polygon fill="#63b8ff" stroke="#63b8ff" points="440.12,-193.81 444.34,-184.09 434.98,-189.06 440.12,-193.81"/>
</g>
<!-- Node33&#45;&gt;Node16 -->
<g id="edge36" class="edge">
<title>Node33&#45;&gt;Node16</title>
<path fill="none" stroke="#63b8ff" d="M428.47,-219.93C452.59,-211.5 489.85,-197.92 521.28,-184 556.62,-168.35 596.15,-147.5 620.87,-134.03"/>
<polygon fill="#63b8ff" stroke="#63b8ff" points="622.81,-136.97 629.89,-129.09 619.44,-130.83 622.81,-136.97"/>
</g>
</g>
</svg>
        <g id="navigator" transform="translate(0 0)" fill="#404254">
                <rect fill="#f2f5e9" fill-opacity="0.5" stroke="#606060" stroke-width=".5" x="0" y="0" width="60" height="60"/>
                <use id="zoomplus" xlink:href="#zoomPlus" x="17" y="9" onmousedown="handleZoom(evt,'in')"/>
                <use id="zoomminus" xlink:href="#zoomMin" x="42" y="9" onmousedown="handleZoom(evt,'out')"/>
                <use id="reset" xlink:href="#resetDef" x="30" y="36" onmousedown="handleReset()"/>
                <g id="arrowUp" xlink:href="#dirArrow" transform="translate(30 24)" onmousedown="handlePan(0,-1)">
                  <use xlink:href="#rim" fill="#404040">
                        <set attributeName="fill" to="#808080" begin="arrowUp.mouseover" end="arrowUp.mouseout"/>
                  </use>
                  <path fill="none" stroke="white" stroke-width="1.5" d="M0,-3.0v7 M-2.5,-0.5L0,-3.0L2.5,-0.5"/>
                </g>
                <g id="arrowRight" xlink:href="#dirArrow" transform="rotate(90) translate(36 -43)" onmousedown="handlePan(1,0)">
                  <use xlink:href="#rim" fill="#404040">
                        <set attributeName="fill" to="#808080" begin="arrowRight.mouseover" end="arrowRight.mouseout"/>
                  </use>
                  <path fill="none" stroke="white" stroke-width="1.5" d="M0,-3.0v7 M-2.5,-0.5L0,-3.0L2.5,-0.5"/>
                </g>
                <g id="arrowDown" xlink:href="#dirArrow" transform="rotate(180) translate(-30 -48)" onmousedown="handlePan(0,1)">
                  <use xlink:href="#rim" fill="#404040">
                        <set attributeName="fill" to="#808080" begin="arrowDown.mouseover" end="arrowDown.mouseout"/>
                  </use>
                  <path fill="none" stroke="white" stroke-width="1.5" d="M0,-3.0v7 M-2.5,-0.5L0,-3.0L2.5,-0.5"/>
                </g>
                <g id="arrowLeft" xlink:href="#dirArrow" transform="rotate(270) translate(-36 17)" onmousedown="handlePan(-1,0)">
                  <use xlink:href="#rim" fill="#404040">
                        <set attributeName="fill" to="#808080" begin="arrowLeft.mouseover" end="arrowLeft.mouseout"/>
                  </use>
                  <path fill="none" stroke="white" stroke-width="1.5" d="M0,-3.0v7 M-2.5,-0.5L0,-3.0L2.5,-0.5"/>
                </g>
        </g>
        <svg viewBox="0 0 15 15" width="100%" height="30px" preserveAspectRatio="xMaxYMin meet">
         <g id="arrow_out" transform="scale(0.3 0.3)">
          <a xlink:href="PDSS__SSVol_8cpp__incl_org.svg" target="_base">
           <rect id="button" ry="5" rx="5" y="6" x="6" height="38" width="38"
                fill="#f2f5e9" fill-opacity="0.5" stroke="#606060" stroke-width="1.0"/>
           <path id="arrow"
             d="M 11.500037,31.436501 C 11.940474,20.09759 22.043105,11.32322 32.158766,21.979434 L 37.068811,17.246167 C 37.068811,17.246167 37.088388,32 37.088388,32 L 22.160133,31.978069 C 22.160133,31.978069 26.997745,27.140456 26.997745,27.140456 C 18.528582,18.264221 13.291696,25.230495 11.500037,31.436501 z"
             style="fill:#404040;"/>
          </a>
         </g>
        </svg>
</svg>
