<?xml version="1.0" encoding="UTF-8" standalone="no"?>
<!DOCTYPE svg PUBLIC "-//W3C//DTD SVG 1.1//EN"
 "http://www.w3.org/Graphics/SVG/1.1/DTD/svg11.dtd">
<!-- Generated by graphviz version 2.43.0 (0)
 -->
<!-- Title: DomainFactory.cpp Pages: 1 -->
<!--zoomable 487 -->
<svg id="main" version="1.1" xmlns="http://www.w3.org/2000/svg" xmlns:xlink="http://www.w3.org/1999/xlink" xml:space="preserve" onload="init(evt)">
<style type="text/css"><![CDATA[
.edge:hover path { stroke: red; }
.edge:hover polygon { stroke: red; fill: red; }
]]></style>
<script type="text/javascript"><![CDATA[
var edges = document.getElementsByTagName('g');
if (edges && edges.length) {
  for (var i=0;i<edges.length;i++) {
    if (edges[i].id.substr(0,4)=='edge') {
      edges[i].setAttribute('class','edge');
    }
  }
}
]]></script>
        <defs>
                <circle id="rim" cx="0" cy="0" r="7"/>
                <circle id="rim2" cx="0" cy="0" r="3.5"/>
                <g id="zoomPlus">
                        <use xlink:href="#rim" fill="#404040">
                                <set attributeName="fill" to="#808080" begin="zoomplus.mouseover" end="zoomplus.mouseout"/>
                        </use>
                        <path d="M-4,0h8M0,-4v8" fill="none" stroke="white" stroke-width="1.5" pointer-events="none"/>
                </g>
                <g id="zoomMin">
                        <use xlink:href="#rim" fill="#404040">
                                <set attributeName="fill" to="#808080" begin="zoomminus.mouseover" end="zoomminus.mouseout"/>
                        </use>
                        <path d="M-4,0h8" fill="none" stroke="white" stroke-width="1.5" pointer-events="none"/>
                </g>
                <g id="dirArrow">
                        <path fill="none" stroke="white" stroke-width="1.5" d="M0,-3.0v7 M-2.5,-0.5L0,-3.0L2.5,-0.5"/>
                </g>
               <g id="resetDef">
                       <use xlink:href="#rim2" fill="#404040">
                               <set attributeName="fill" to="#808080" begin="reset.mouseover" end="reset.mouseout"/>
                       </use>
               </g>
        </defs>

<script type="text/javascript">
var viewWidth = 1344;
var viewHeight = 487;
var sectionId = 'dynsection-0';
</script>
<script xlink:href="../../svgpan.js"/>
<svg id="graph" class="graph">
<g id="viewport">
<title>DomainFactory.cpp</title>
<polygon fill="white" stroke="transparent" points="-4,4 -4,-483 1340,-483 1340,4 -4,4"/>
<!-- Node1 -->
<g id="node1" class="node">
<title>Node1</title>
<g id="a_node1"><a xlink:title=" ">
<polygon fill="#bfbfbf" stroke="black" points="608.5,-459.5 608.5,-478.5 717.5,-478.5 717.5,-459.5 608.5,-459.5"/>
<text text-anchor="middle" x="663" y="-466.5" font-family="Helvetica,sans-Serif" font-size="10.00">DomainFactory.cpp</text>
</a>
</g>
</g>
<!-- Node2 -->
<g id="node2" class="node">
<title>Node2</title>
<g id="a_node2"><a xlink:href="../../db/d68/DomainFactory_8h.html" target="_top" xlink:title=" ">
<polygon fill="white" stroke="black" points="404,-280.5 404,-299.5 570,-299.5 570,-280.5 404,-280.5"/>
<text text-anchor="middle" x="487" y="-287.5" font-family="Helvetica,sans-Serif" font-size="10.00">cantera/oneD/DomainFactory.h</text>
</a>
</g>
</g>
<!-- Node1&#45;&gt;Node2 -->
<g id="edge1" class="edge">
<title>Node1&#45;&gt;Node2</title>
<path fill="none" stroke="midnightblue" d="M634.66,-459.48C596.57,-446.38 530.06,-417.38 499,-367 488.4,-349.8 486.13,-326.39 486.06,-310.11"/>
<polygon fill="midnightblue" stroke="midnightblue" points="489.57,-309.79 486.3,-299.71 482.57,-309.63 489.57,-309.79"/>
</g>
<!-- Node25 -->
<g id="node12" class="node">
<title>Node25</title>
<g id="a_node12"><a xlink:href="../../dc/d7c/Boundary1D_8h.html" target="_top" xlink:title="Boundary objects for one&#45;dimensional simulations.">
<polygon fill="white" stroke="black" points="586,-403.5 586,-422.5 740,-422.5 740,-403.5 586,-403.5"/>
<text text-anchor="middle" x="663" y="-410.5" font-family="Helvetica,sans-Serif" font-size="10.00">cantera/oneD/Boundary1D.h</text>
</a>
</g>
</g>
<!-- Node1&#45;&gt;Node25 -->
<g id="edge15" class="edge">
<title>Node1&#45;&gt;Node25</title>
<path fill="none" stroke="midnightblue" d="M663,-459.08C663,-452.01 663,-441.86 663,-432.99"/>
<polygon fill="midnightblue" stroke="midnightblue" points="666.5,-432.75 663,-422.75 659.5,-432.75 666.5,-432.75"/>
</g>
<!-- Node49 -->
<g id="node27" class="node">
<title>Node49</title>
<g id="a_node27"><a xlink:href="../../d7/d7c/StFlow_8h.html" target="_top" xlink:title=" ">
<polygon fill="white" stroke="black" points="773,-280.5 773,-299.5 831,-299.5 831,-280.5 773,-280.5"/>
<text text-anchor="middle" x="802" y="-287.5" font-family="Helvetica,sans-Serif" font-size="10.00">StFlow.h</text>
</a>
</g>
</g>
<!-- Node1&#45;&gt;Node49 -->
<g id="edge57" class="edge">
<title>Node1&#45;&gt;Node49</title>
<path fill="none" stroke="midnightblue" d="M690.22,-459.43C708.94,-452.31 733.18,-440.5 749,-423 778.99,-389.84 793.07,-337.56 798.74,-309.79"/>
<polygon fill="midnightblue" stroke="midnightblue" points="802.21,-310.3 800.63,-299.82 795.33,-309 802.21,-310.3"/>
</g>
<!-- Node53 -->
<g id="node31" class="node">
<title>Node53</title>
<g id="a_node31"><a xlink:href="../../d7/d4b/IonFlow_8h.html" target="_top" xlink:title=" ">
<polygon fill="white" stroke="black" points="796.5,-403.5 796.5,-422.5 927.5,-422.5 927.5,-403.5 796.5,-403.5"/>
<text text-anchor="middle" x="862" y="-410.5" font-family="Helvetica,sans-Serif" font-size="10.00">cantera/oneD/IonFlow.h</text>
</a>
</g>
</g>
<!-- Node1&#45;&gt;Node53 -->
<g id="edge58" class="edge">
<title>Node1&#45;&gt;Node53</title>
<path fill="none" stroke="midnightblue" d="M694.53,-459.44C728.59,-450.2 783.01,-435.44 820.52,-425.26"/>
<polygon fill="midnightblue" stroke="midnightblue" points="821.88,-428.51 830.62,-422.52 820.05,-421.76 821.88,-428.51"/>
</g>
<!-- Node54 -->
<g id="node32" class="node">
<title>Node54</title>
<g id="a_node32"><a xlink:href="../../d8/d5e/Transport_8h.html" target="_top" xlink:title="Headers for the Transport object, which is the virtual base class for all transport property evaluato...">
<polygon fill="white" stroke="black" points="0,-168.5 0,-187.5 158,-187.5 158,-168.5 0,-168.5"/>
<text text-anchor="middle" x="79" y="-175.5" font-family="Helvetica,sans-Serif" font-size="10.00">cantera/transport/Transport.h</text>
</a>
</g>
</g>
<!-- Node1&#45;&gt;Node54 -->
<g id="edge60" class="edge">
<title>Node1&#45;&gt;Node54</title>
<path fill="none" stroke="midnightblue" d="M608.28,-467.57C472.86,-465.02 133,-449.03 133,-352.5 133,-352.5 133,-352.5 133,-289 133,-252.86 109.23,-216.25 93.23,-195.71"/>
<polygon fill="midnightblue" stroke="midnightblue" points="95.75,-193.26 86.74,-187.69 90.31,-197.67 95.75,-193.26"/>
</g>
<!-- Node3 -->
<g id="node3" class="node">
<title>Node3</title>
<g id="a_node3"><a xlink:href="../../db/dce/Domain1D_8h.html" target="_top" xlink:title=" ">
<polygon fill="white" stroke="black" points="517,-224.5 517,-243.5 663,-243.5 663,-224.5 517,-224.5"/>
<text text-anchor="middle" x="590" y="-231.5" font-family="Helvetica,sans-Serif" font-size="10.00">cantera/oneD/Domain1D.h</text>
</a>
</g>
</g>
<!-- Node2&#45;&gt;Node3 -->
<g id="edge2" class="edge">
<title>Node2&#45;&gt;Node3</title>
<path fill="none" stroke="midnightblue" d="M503.55,-280.32C519.99,-271.7 545.43,-258.36 564.47,-248.39"/>
<polygon fill="midnightblue" stroke="midnightblue" points="566.26,-251.4 573.49,-243.65 563.01,-245.2 566.26,-251.4"/>
</g>
<!-- Node21 -->
<g id="node8" class="node">
<title>Node21</title>
<g id="a_node8"><a xlink:href="../../d6/dd5/FactoryBase_8h.html" target="_top" xlink:title="File contains the FactoryBase class declarations.">
<polygon fill="white" stroke="black" points="367.5,-168.5 367.5,-187.5 518.5,-187.5 518.5,-168.5 367.5,-168.5"/>
<text text-anchor="middle" x="443" y="-175.5" font-family="Helvetica,sans-Serif" font-size="10.00">cantera/base/FactoryBase.h</text>
</a>
</g>
</g>
<!-- Node2&#45;&gt;Node21 -->
<g id="edge8" class="edge">
<title>Node2&#45;&gt;Node21</title>
<path fill="none" stroke="midnightblue" d="M485.13,-280.38C482.24,-267.73 476.16,-243.53 468,-224 464.04,-214.52 458.59,-204.47 453.79,-196.29"/>
<polygon fill="midnightblue" stroke="midnightblue" points="456.75,-194.42 448.58,-187.67 450.76,-198.04 456.75,-194.42"/>
</g>
<!-- Node4 -->
<g id="node4" class="node">
<title>Node4</title>
<g id="a_node4"><a xlink:href="../../db/d98/ctexceptions_8h.html" target="_top" xlink:title="Definitions for the classes that are thrown when Cantera experiences an error condition (also contain...">
<polygon fill="white" stroke="black" points="499,-112.5 499,-131.5 653,-131.5 653,-112.5 499,-112.5"/>
<text text-anchor="middle" x="576" y="-119.5" font-family="Helvetica,sans-Serif" font-size="10.00">cantera/base/ctexceptions.h</text>
</a>
</g>
</g>
<!-- Node3&#45;&gt;Node4 -->
<g id="edge3" class="edge">
<title>Node3&#45;&gt;Node4</title>
<path fill="none" stroke="midnightblue" d="M588.9,-224.37C586.64,-206.62 581.43,-165.67 578.37,-141.6"/>
<polygon fill="midnightblue" stroke="midnightblue" points="581.83,-141.07 577.09,-131.59 574.88,-141.95 581.83,-141.07"/>
</g>
<!-- Node5 -->
<g id="node5" class="node">
<title>Node5</title>
<g id="a_node5"><a xlink:href="../../d9/ddc/ct__defs_8h.html" target="_top" xlink:title="This file contains definitions of constants, types and terms that are used in internal routines and a...">
<polygon fill="white" stroke="red" points="511.5,-0.5 511.5,-19.5 572.5,-19.5 572.5,-0.5 511.5,-0.5"/>
<text text-anchor="middle" x="542" y="-7.5" font-family="Helvetica,sans-Serif" font-size="10.00">ct_defs.h</text>
</a>
</g>
</g>
<!-- Node4&#45;&gt;Node5 -->
<g id="edge4" class="edge">
<title>Node4&#45;&gt;Node5</title>
<path fill="none" stroke="midnightblue" d="M576.23,-112.34C576.32,-99.63 575.5,-75.37 569,-56 565.71,-46.19 560.02,-36.23 554.72,-28.18"/>
<polygon fill="midnightblue" stroke="midnightblue" points="557.42,-25.94 548.83,-19.74 551.68,-29.94 557.42,-25.94"/>
</g>
<!-- Node16 -->
<g id="node6" class="node">
<title>Node16</title>
<g id="a_node6"><a xlink:href="../../db/def/fmt_8h.html" target="_top" xlink:title="Wrapper for either system&#45;installed or local headers for fmt.">
<polygon fill="white" stroke="red" points="304.5,-56.5 304.5,-75.5 413.5,-75.5 413.5,-56.5 304.5,-56.5"/>
<text text-anchor="middle" x="359" y="-63.5" font-family="Helvetica,sans-Serif" font-size="10.00">cantera/base/fmt.h</text>
</a>
</g>
</g>
<!-- Node4&#45;&gt;Node16 -->
<g id="edge5" class="edge">
<title>Node4&#45;&gt;Node16</title>
<path fill="none" stroke="midnightblue" d="M541.62,-112.44C504.08,-103.1 443.87,-88.12 402.93,-77.93"/>
<polygon fill="midnightblue" stroke="midnightblue" points="403.77,-74.53 393.22,-75.52 402.08,-81.33 403.77,-74.53"/>
</g>
<!-- Node20 -->
<g id="node7" class="node">
<title>Node20</title>
<g id="a_node7"><a xlink:title=" ">
<polygon fill="white" stroke="#bfbfbf" points="616.5,-56.5 616.5,-75.5 681.5,-75.5 681.5,-56.5 616.5,-56.5"/>
<text text-anchor="middle" x="649" y="-63.5" font-family="Helvetica,sans-Serif" font-size="10.00">exception</text>
</a>
</g>
</g>
<!-- Node4&#45;&gt;Node20 -->
<g id="edge7" class="edge">
<title>Node4&#45;&gt;Node20</title>
<path fill="none" stroke="midnightblue" d="M587.73,-112.32C598.84,-104.11 615.74,-91.6 628.98,-81.81"/>
<polygon fill="midnightblue" stroke="midnightblue" points="631.1,-84.59 637.06,-75.83 626.94,-78.97 631.1,-84.59"/>
</g>
<!-- Node16&#45;&gt;Node5 -->
<g id="edge6" class="edge">
<title>Node16&#45;&gt;Node5</title>
<path fill="none" stroke="midnightblue" d="M388,-56.44C419.18,-47.24 468.93,-32.56 503.41,-22.39"/>
<polygon fill="midnightblue" stroke="midnightblue" points="504.54,-25.7 513.14,-19.52 502.56,-18.99 504.54,-25.7"/>
</g>
<!-- Node21&#45;&gt;Node4 -->
<g id="edge11" class="edge">
<title>Node21&#45;&gt;Node4</title>
<path fill="none" stroke="midnightblue" d="M464.07,-168.44C486.06,-159.52 520.73,-145.44 545.66,-135.32"/>
<polygon fill="midnightblue" stroke="midnightblue" points="547.08,-138.52 555.02,-131.52 544.44,-132.04 547.08,-138.52"/>
</g>
<!-- Node22 -->
<g id="node9" class="node">
<title>Node22</title>
<g id="a_node9"><a xlink:title=" ">
<polygon fill="white" stroke="#bfbfbf" points="419,-112.5 419,-131.5 467,-131.5 467,-112.5 419,-112.5"/>
<text text-anchor="middle" x="443" y="-119.5" font-family="Helvetica,sans-Serif" font-size="10.00">mutex</text>
</a>
</g>
</g>
<!-- Node21&#45;&gt;Node22 -->
<g id="edge9" class="edge">
<title>Node21&#45;&gt;Node22</title>
<path fill="none" stroke="midnightblue" d="M443,-168.08C443,-161.01 443,-150.86 443,-141.99"/>
<polygon fill="midnightblue" stroke="midnightblue" points="446.5,-141.75 443,-131.75 439.5,-141.75 446.5,-141.75"/>
</g>
<!-- Node23 -->
<g id="node10" class="node">
<title>Node23</title>
<g id="a_node10"><a xlink:title=" ">
<polygon fill="white" stroke="#bfbfbf" points="671.5,-112.5 671.5,-131.5 764.5,-131.5 764.5,-112.5 671.5,-112.5"/>
<text text-anchor="middle" x="718" y="-119.5" font-family="Helvetica,sans-Serif" font-size="10.00">unordered_map</text>
</a>
</g>
</g>
<!-- Node21&#45;&gt;Node23 -->
<g id="edge10" class="edge">
<title>Node21&#45;&gt;Node23</title>
<path fill="none" stroke="midnightblue" d="M486.57,-168.44C534.85,-158.96 612.71,-143.67 664.61,-133.48"/>
<polygon fill="midnightblue" stroke="midnightblue" points="665.49,-136.88 674.63,-131.52 664.14,-130.01 665.49,-136.88"/>
</g>
<!-- Node24 -->
<g id="node11" class="node">
<title>Node24</title>
<g id="a_node11"><a xlink:href="../../d2/d49/global_8h.html" target="_top" xlink:title="This file contains definitions for utility functions and text for modules, inputfiles and logging,...">
<polygon fill="white" stroke="black" points="229,-112.5 229,-131.5 351,-131.5 351,-112.5 229,-112.5"/>
<text text-anchor="middle" x="290" y="-119.5" font-family="Helvetica,sans-Serif" font-size="10.00">cantera/base/global.h</text>
</a>
</g>
</g>
<!-- Node21&#45;&gt;Node24 -->
<g id="edge12" class="edge">
<title>Node21&#45;&gt;Node24</title>
<path fill="none" stroke="midnightblue" d="M418.76,-168.44C393.13,-159.4 352.51,-145.06 323.76,-134.92"/>
<polygon fill="midnightblue" stroke="midnightblue" points="324.72,-131.54 314.13,-131.52 322.39,-138.15 324.72,-131.54"/>
</g>
<!-- Node24&#45;&gt;Node5 -->
<g id="edge13" class="edge">
<title>Node24&#45;&gt;Node5</title>
<path fill="none" stroke="midnightblue" d="M287.65,-112.14C284.57,-98.28 281.06,-71.47 295,-56 321.9,-26.16 438.13,-15.96 501.09,-12.59"/>
<polygon fill="midnightblue" stroke="midnightblue" points="501.65,-16.07 511.46,-12.07 501.3,-9.08 501.65,-16.07"/>
</g>
<!-- Node24&#45;&gt;Node16 -->
<g id="edge14" class="edge">
<title>Node24&#45;&gt;Node16</title>
<path fill="none" stroke="midnightblue" d="M301.09,-112.32C311.49,-104.18 327.26,-91.84 339.72,-82.09"/>
<polygon fill="midnightblue" stroke="midnightblue" points="341.99,-84.75 347.71,-75.83 337.68,-79.24 341.99,-84.75"/>
</g>
<!-- Node25&#45;&gt;Node3 -->
<g id="edge16" class="edge">
<title>Node25&#45;&gt;Node3</title>
<path fill="none" stroke="midnightblue" d="M663.87,-403.28C664.99,-388.85 665.95,-359.27 658,-336 646.62,-302.69 621.28,-269.99 604.95,-251.19"/>
<polygon fill="midnightblue" stroke="midnightblue" points="607.43,-248.71 598.17,-243.58 602.21,-253.37 607.43,-248.71"/>
</g>
<!-- Node26 -->
<g id="node13" class="node">
<title>Node26</title>
<g id="a_node13"><a xlink:href="../../d2/de5/SurfPhase_8h.html" target="_top" xlink:title="Header for a simple thermodynamics model of a surface phase derived from ThermoPhase,...">
<polygon fill="white" stroke="black" points="864,-342 864,-361 1016,-361 1016,-342 864,-342"/>
<text text-anchor="middle" x="940" y="-349" font-family="Helvetica,sans-Serif" font-size="10.00">cantera/thermo/SurfPhase.h</text>
</a>
</g>
</g>
<!-- Node25&#45;&gt;Node26 -->
<g id="edge17" class="edge">
<title>Node25&#45;&gt;Node26</title>
<path fill="none" stroke="midnightblue" d="M702.69,-403.48C752.16,-392.85 836.72,-374.68 890.41,-363.15"/>
<polygon fill="midnightblue" stroke="midnightblue" points="891.34,-366.53 900.39,-361.01 889.87,-359.69 891.34,-366.53"/>
</g>
<!-- Node39 -->
<g id="node20" class="node">
<title>Node39</title>
<g id="a_node20"><a xlink:href="../../d7/d0d/InterfaceKinetics_8h.html" target="_top" xlink:title=" ">
<polygon fill="white" stroke="black" points="507.5,-336.5 507.5,-366.5 648.5,-366.5 648.5,-336.5 507.5,-336.5"/>
<text text-anchor="start" x="515.5" y="-354.5" font-family="Helvetica,sans-Serif" font-size="10.00">cantera/kinetics/Interface</text>
<text text-anchor="middle" x="578" y="-343.5" font-family="Helvetica,sans-Serif" font-size="10.00">Kinetics.h</text>
</a>
</g>
</g>
<!-- Node25&#45;&gt;Node39 -->
<g id="edge31" class="edge">
<title>Node25&#45;&gt;Node39</title>
<path fill="none" stroke="midnightblue" d="M650.82,-403.48C639.31,-395.42 621.6,-383.02 606.53,-372.47"/>
<polygon fill="midnightblue" stroke="midnightblue" points="608.23,-369.39 598.03,-366.52 604.22,-375.12 608.23,-369.39"/>
</g>
<!-- Node25&#45;&gt;Node49 -->
<g id="edge47" class="edge">
<title>Node25&#45;&gt;Node49</title>
<path fill="none" stroke="midnightblue" d="M673,-403.3C696.34,-382.98 754.69,-332.19 784.24,-306.46"/>
<polygon fill="midnightblue" stroke="midnightblue" points="786.85,-308.83 792.09,-299.62 782.25,-303.55 786.85,-308.83"/>
</g>
<!-- Node27 -->
<g id="node14" class="node">
<title>Node27</title>
<g id="a_node14"><a xlink:href="../../d7/d01/ThermoPhase_8h.html" target="_top" xlink:title="Header file for class ThermoPhase, the base class for phases with thermodynamic properties,...">
<polygon fill="white" stroke="black" points="945,-224.5 945,-243.5 1037,-243.5 1037,-224.5 945,-224.5"/>
<text text-anchor="middle" x="991" y="-231.5" font-family="Helvetica,sans-Serif" font-size="10.00">ThermoPhase.h</text>
</a>
</g>
</g>
<!-- Node26&#45;&gt;Node27 -->
<g id="edge18" class="edge">
<title>Node26&#45;&gt;Node27</title>
<path fill="none" stroke="midnightblue" d="M943.83,-341.82C952.14,-323.01 971.95,-278.15 983.07,-252.96"/>
<polygon fill="midnightblue" stroke="midnightblue" points="986.28,-254.34 987.12,-243.78 979.88,-251.52 986.28,-254.34"/>
</g>
<!-- Node28 -->
<g id="node15" class="node">
<title>Node28</title>
<g id="a_node15"><a xlink:href="../../da/d84/Phase_8h.html" target="_top" xlink:title="Header file for class Phase.">
<polygon fill="white" stroke="red" points="993.5,-168.5 993.5,-187.5 1048.5,-187.5 1048.5,-168.5 993.5,-168.5"/>
<text text-anchor="middle" x="1021" y="-175.5" font-family="Helvetica,sans-Serif" font-size="10.00">Phase.h</text>
</a>
</g>
</g>
<!-- Node27&#45;&gt;Node28 -->
<g id="edge19" class="edge">
<title>Node27&#45;&gt;Node28</title>
<path fill="none" stroke="midnightblue" d="M995.95,-224.08C1000.1,-216.61 1006.15,-205.72 1011.27,-196.52"/>
<polygon fill="midnightblue" stroke="midnightblue" points="1014.34,-198.19 1016.14,-187.75 1008.22,-194.79 1014.34,-198.19"/>
</g>
<!-- Node32 -->
<g id="node17" class="node">
<title>Node32</title>
<g id="a_node17"><a xlink:href="../../d6/d7a/MultiSpeciesThermo_8h.html" target="_top" xlink:title="Header for a general species thermodynamic property manager for a phase (see MultiSpeciesThermo).">
<polygon fill="white" stroke="red" points="1066.5,-168.5 1066.5,-187.5 1191.5,-187.5 1191.5,-168.5 1066.5,-168.5"/>
<text text-anchor="middle" x="1129" y="-175.5" font-family="Helvetica,sans-Serif" font-size="10.00">MultiSpeciesThermo.h</text>
</a>
</g>
</g>
<!-- Node27&#45;&gt;Node32 -->
<g id="edge23" class="edge">
<title>Node27&#45;&gt;Node32</title>
<path fill="none" stroke="midnightblue" d="M1012.87,-224.44C1035.78,-215.48 1071.98,-201.31 1097.87,-191.18"/>
<polygon fill="midnightblue" stroke="midnightblue" points="1099.2,-194.42 1107.24,-187.52 1096.65,-187.9 1099.2,-194.42"/>
</g>
<!-- Node35 -->
<g id="node18" class="node">
<title>Node35</title>
<g id="a_node18"><a xlink:href="../../da/d58/Units_8h.html" target="_top" xlink:title="Header for unit conversion utilities, which are used to translate user input from input files (See In...">
<polygon fill="white" stroke="black" points="821.5,-112.5 821.5,-131.5 938.5,-131.5 938.5,-112.5 821.5,-112.5"/>
<text text-anchor="middle" x="880" y="-119.5" font-family="Helvetica,sans-Serif" font-size="10.00">cantera/base/Units.h</text>
</a>
</g>
</g>
<!-- Node27&#45;&gt;Node35 -->
<g id="edge24" class="edge">
<title>Node27&#45;&gt;Node35</title>
<path fill="none" stroke="midnightblue" d="M1037.25,-233.14C1112.4,-231.84 1248.14,-222.21 1201,-168 1199.96,-166.81 1042.63,-145.17 948.65,-132.34"/>
<polygon fill="midnightblue" stroke="midnightblue" points="949.02,-128.86 938.64,-130.98 948.07,-135.8 949.02,-128.86"/>
</g>
<!-- Node34 -->
<g id="node19" class="node">
<title>Node34</title>
<g id="a_node19"><a xlink:href="../../dd/d2a/AnyMap_8h.html" target="_top" xlink:title=" ">
<polygon fill="white" stroke="red" points="767.5,-168.5 767.5,-187.5 898.5,-187.5 898.5,-168.5 767.5,-168.5"/>
<text text-anchor="middle" x="833" y="-175.5" font-family="Helvetica,sans-Serif" font-size="10.00">cantera/base/AnyMap.h</text>
</a>
</g>
</g>
<!-- Node27&#45;&gt;Node34 -->
<g id="edge26" class="edge">
<title>Node27&#45;&gt;Node34</title>
<path fill="none" stroke="midnightblue" d="M965.96,-224.44C939.38,-215.36 897.19,-200.94 867.48,-190.78"/>
<polygon fill="midnightblue" stroke="midnightblue" points="868.51,-187.44 857.92,-187.52 866.25,-194.06 868.51,-187.44"/>
</g>
<!-- Node28&#45;&gt;Node4 -->
<g id="edge20" class="edge">
<title>Node28&#45;&gt;Node4</title>
<path fill="none" stroke="midnightblue" d="M993.5,-173.66C927.46,-165.65 757.86,-145.07 656.3,-132.74"/>
<polygon fill="midnightblue" stroke="midnightblue" points="656.44,-129.24 646.09,-131.5 655.59,-136.18 656.44,-129.24"/>
</g>
<!-- Node30 -->
<g id="node16" class="node">
<title>Node30</title>
<g id="a_node16"><a xlink:href="../../d6/df6/ValueCache_8h.html" target="_top" xlink:title=" ">
<polygon fill="white" stroke="red" points="956.5,-112.5 956.5,-131.5 1105.5,-131.5 1105.5,-112.5 956.5,-112.5"/>
<text text-anchor="middle" x="1031" y="-119.5" font-family="Helvetica,sans-Serif" font-size="10.00">cantera/base/ValueCache.h</text>
</a>
</g>
</g>
<!-- Node28&#45;&gt;Node30 -->
<g id="edge21" class="edge">
<title>Node28&#45;&gt;Node30</title>
<path fill="none" stroke="midnightblue" d="M1022.65,-168.08C1023.98,-160.93 1025.88,-150.64 1027.54,-141.69"/>
<polygon fill="midnightblue" stroke="midnightblue" points="1031,-142.22 1029.38,-131.75 1024.12,-140.95 1031,-142.22"/>
</g>
<!-- Node30&#45;&gt;Node5 -->
<g id="edge22" class="edge">
<title>Node30&#45;&gt;Node5</title>
<path fill="none" stroke="midnightblue" d="M1009.3,-112.47C973.52,-98.7 899.65,-71.57 835,-56 746.21,-34.62 639.73,-21.26 582.75,-15.07"/>
<polygon fill="midnightblue" stroke="midnightblue" points="583.01,-11.58 572.7,-14 582.27,-18.54 583.01,-11.58"/>
</g>
<!-- Node35&#45;&gt;Node5 -->
<g id="edge25" class="edge">
<title>Node35&#45;&gt;Node5</title>
<path fill="none" stroke="midnightblue" d="M872.99,-112.14C861.1,-97.79 835.45,-69.67 807,-56 733.45,-20.67 636.76,-12.61 582.84,-11.05"/>
<polygon fill="midnightblue" stroke="midnightblue" points="582.72,-7.54 572.64,-10.82 582.56,-14.54 582.72,-7.54"/>
</g>
<!-- Node34&#45;&gt;Node4 -->
<g id="edge28" class="edge">
<title>Node34&#45;&gt;Node4</title>
<path fill="none" stroke="midnightblue" d="M792.28,-168.44C747.35,-159 675,-143.8 626.5,-133.61"/>
<polygon fill="midnightblue" stroke="midnightblue" points="627.04,-130.15 616.53,-131.52 625.6,-137 627.04,-130.15"/>
</g>
<!-- Node34&#45;&gt;Node5 -->
<g id="edge27" class="edge">
<title>Node34&#45;&gt;Node5</title>
<path fill="none" stroke="midnightblue" d="M826.32,-168.4C815.94,-155.35 794.97,-130.16 774,-112 740.36,-82.87 731.2,-75.09 691,-56 655.91,-39.33 613.25,-27.2 582.58,-19.76"/>
<polygon fill="midnightblue" stroke="midnightblue" points="583.21,-16.31 572.67,-17.41 581.6,-23.12 583.21,-16.31"/>
</g>
<!-- Node34&#45;&gt;Node23 -->
<g id="edge30" class="edge">
<title>Node34&#45;&gt;Node23</title>
<path fill="none" stroke="midnightblue" d="M814.78,-168.44C796.1,-159.68 766.84,-145.94 745.38,-135.86"/>
<polygon fill="midnightblue" stroke="midnightblue" points="746.68,-132.6 736.14,-131.52 743.7,-138.93 746.68,-132.6"/>
</g>
<!-- Node34&#45;&gt;Node35 -->
<g id="edge29" class="edge">
<title>Node34&#45;&gt;Node35</title>
<path fill="none" stroke="midnightblue" d="M840.76,-168.08C847.54,-160.3 857.54,-148.8 865.76,-139.37"/>
<polygon fill="midnightblue" stroke="midnightblue" points="868.46,-141.59 872.38,-131.75 863.18,-137 868.46,-141.59"/>
</g>
<!-- Node40 -->
<g id="node21" class="node">
<title>Node40</title>
<g id="a_node21"><a xlink:href="../../d5/db4/Kinetics_8h.html" target="_top" xlink:title="Base class for kinetics managers and also contains the kineticsmgr module documentation (see Kinetics...">
<polygon fill="white" stroke="black" points="682.5,-224.5 682.5,-243.5 747.5,-243.5 747.5,-224.5 682.5,-224.5"/>
<text text-anchor="middle" x="715" y="-231.5" font-family="Helvetica,sans-Serif" font-size="10.00">Kinetics.h</text>
</a>
</g>
</g>
<!-- Node39&#45;&gt;Node40 -->
<g id="edge32" class="edge">
<title>Node39&#45;&gt;Node40</title>
<path fill="none" stroke="midnightblue" d="M594.8,-336.34C620.72,-314.49 670.24,-272.73 696.92,-250.24"/>
<polygon fill="midnightblue" stroke="midnightblue" points="699.33,-252.79 704.72,-243.67 694.82,-247.44 699.33,-252.79"/>
</g>
<!-- Node44 -->
<g id="node23" class="node">
<title>Node44</title>
<g id="a_node23"><a xlink:href="../../d6/d42/MultiRate_8h.html" target="_top" xlink:title=" ">
<polygon fill="white" stroke="black" points="307.5,-280.5 307.5,-299.5 380.5,-299.5 380.5,-280.5 307.5,-280.5"/>
<text text-anchor="middle" x="344" y="-287.5" font-family="Helvetica,sans-Serif" font-size="10.00">MultiRate.h</text>
</a>
</g>
</g>
<!-- Node39&#45;&gt;Node44 -->
<g id="edge36" class="edge">
<title>Node39&#45;&gt;Node44</title>
<path fill="none" stroke="midnightblue" d="M522.84,-336.47C481.41,-325.94 425.47,-311.72 387.25,-302"/>
<polygon fill="midnightblue" stroke="midnightblue" points="388.01,-298.58 377.45,-299.51 386.28,-305.36 388.01,-298.58"/>
</g>
<!-- Node40&#45;&gt;Node30 -->
<g id="edge35" class="edge">
<title>Node40&#45;&gt;Node30</title>
<path fill="none" stroke="midnightblue" d="M747.55,-225.97C750.74,-225.29 753.93,-224.63 757,-224 838.63,-207.27 864.56,-221.17 941,-188 969.26,-175.74 997.32,-153.45 1014.41,-138.43"/>
<polygon fill="midnightblue" stroke="midnightblue" points="1016.78,-141.01 1021.87,-131.72 1012.09,-135.81 1016.78,-141.01"/>
</g>
<!-- Node41 -->
<g id="node22" class="node">
<title>Node41</title>
<g id="a_node22"><a xlink:href="../../dd/dfd/StoichManager_8h.html" target="_top" xlink:title=" ">
<polygon fill="white" stroke="red" points="613,-168.5 613,-187.5 711,-187.5 711,-168.5 613,-168.5"/>
<text text-anchor="middle" x="662" y="-175.5" font-family="Helvetica,sans-Serif" font-size="10.00">StoichManager.h</text>
</a>
</g>
</g>
<!-- Node40&#45;&gt;Node41 -->
<g id="edge33" class="edge">
<title>Node40&#45;&gt;Node41</title>
<path fill="none" stroke="midnightblue" d="M706.25,-224.08C698.53,-216.22 687.1,-204.57 677.78,-195.08"/>
<polygon fill="midnightblue" stroke="midnightblue" points="680.09,-192.44 670.59,-187.75 675.1,-197.34 680.09,-192.44"/>
</g>
<!-- Node41&#45;&gt;Node4 -->
<g id="edge34" class="edge">
<title>Node41&#45;&gt;Node4</title>
<path fill="none" stroke="midnightblue" d="M648.18,-168.32C634.77,-159.9 614.18,-146.97 598.41,-137.07"/>
<polygon fill="midnightblue" stroke="midnightblue" points="600.11,-134.01 589.78,-131.65 596.39,-139.94 600.11,-134.01"/>
</g>
<!-- Node45 -->
<g id="node24" class="node">
<title>Node45</title>
<g id="a_node24"><a xlink:href="../../d8/db0/ReactionRate_8h.html" target="_top" xlink:title=" ">
<polygon fill="white" stroke="black" points="367.5,-224.5 367.5,-243.5 458.5,-243.5 458.5,-224.5 367.5,-224.5"/>
<text text-anchor="middle" x="413" y="-231.5" font-family="Helvetica,sans-Serif" font-size="10.00">ReactionRate.h</text>
</a>
</g>
</g>
<!-- Node44&#45;&gt;Node45 -->
<g id="edge37" class="edge">
<title>Node44&#45;&gt;Node45</title>
<path fill="none" stroke="midnightblue" d="M355.09,-280.32C365.49,-272.18 381.26,-259.84 393.72,-250.09"/>
<polygon fill="midnightblue" stroke="midnightblue" points="395.99,-252.75 401.71,-243.83 391.68,-247.24 395.99,-252.75"/>
</g>
<!-- Node46 -->
<g id="node25" class="node">
<title>Node46</title>
<g id="a_node25"><a xlink:href="../../dd/d16/MultiRateBase_8h.html" target="_top" xlink:title=" ">
<polygon fill="white" stroke="black" points="175.5,-168.5 175.5,-187.5 272.5,-187.5 272.5,-168.5 175.5,-168.5"/>
<text text-anchor="middle" x="224" y="-175.5" font-family="Helvetica,sans-Serif" font-size="10.00">MultiRateBase.h</text>
</a>
</g>
</g>
<!-- Node44&#45;&gt;Node46 -->
<g id="edge44" class="edge">
<title>Node44&#45;&gt;Node46</title>
<path fill="none" stroke="midnightblue" d="M334.58,-280.37C314.34,-261.81 266.45,-217.91 240.84,-194.44"/>
<polygon fill="midnightblue" stroke="midnightblue" points="243.11,-191.77 233.37,-187.59 238.38,-196.93 243.11,-191.77"/>
</g>
<!-- Node47 -->
<g id="node26" class="node">
<title>Node47</title>
<g id="a_node26"><a xlink:href="../../de/df0/utilities_8h.html" target="_top" xlink:title="Various templated functions that carry out common vector and polynomial operations (see Templated Arr...">
<polygon fill="white" stroke="red" points="432,-56.5 432,-75.5 560,-75.5 560,-56.5 432,-56.5"/>
<text text-anchor="middle" x="496" y="-63.5" font-family="Helvetica,sans-Serif" font-size="10.00">cantera/base/utilities.h</text>
</a>
</g>
</g>
<!-- Node44&#45;&gt;Node47 -->
<g id="edge45" class="edge">
<title>Node44&#45;&gt;Node47</title>
<path fill="none" stroke="midnightblue" d="M343.34,-280.31C342.12,-259.73 341.14,-206.85 359,-168 379.28,-123.89 429.95,-94.8 463.66,-79.62"/>
<polygon fill="midnightblue" stroke="midnightblue" points="465.31,-82.72 473.1,-75.53 462.53,-76.29 465.31,-82.72"/>
</g>
<!-- Node45&#45;&gt;Node4 -->
<g id="edge43" class="edge">
<title>Node45&#45;&gt;Node4</title>
<path fill="none" stroke="midnightblue" d="M449.33,-224.45C473.39,-217.5 504.69,-205.87 528,-188 544.65,-175.24 558.22,-155.22 566.63,-140.77"/>
<polygon fill="midnightblue" stroke="midnightblue" points="569.81,-142.25 571.61,-131.81 563.69,-138.85 569.81,-142.25"/>
</g>
<!-- Node45&#45;&gt;Node24 -->
<g id="edge42" class="edge">
<title>Node45&#45;&gt;Node24</title>
<path fill="none" stroke="midnightblue" d="M402.08,-224.23C391.05,-215.29 373.61,-200.95 359,-188 340.47,-171.58 319.88,-152 306.06,-138.66"/>
<polygon fill="midnightblue" stroke="midnightblue" points="308.39,-136.04 298.77,-131.59 303.51,-141.06 308.39,-136.04"/>
</g>
<!-- Node45&#45;&gt;Node35 -->
<g id="edge41" class="edge">
<title>Node45&#45;&gt;Node35</title>
<path fill="none" stroke="midnightblue" d="M458.9,-228.61C474.48,-227.13 492,-225.48 508,-224 552.43,-219.9 877.89,-220.94 908,-188 920.75,-174.05 908.07,-153.4 895.92,-139.13"/>
<polygon fill="midnightblue" stroke="midnightblue" points="898.34,-136.6 889.02,-131.57 893.17,-141.32 898.34,-136.6"/>
</g>
<!-- Node45&#45;&gt;Node34 -->
<g id="edge40" class="edge">
<title>Node45&#45;&gt;Node34</title>
<path fill="none" stroke="midnightblue" d="M458.75,-227.12C530.53,-217.89 670.39,-199.91 757.32,-188.73"/>
<polygon fill="midnightblue" stroke="midnightblue" points="757.92,-192.18 767.39,-187.44 757.03,-185.24 757.92,-192.18"/>
</g>
<!-- Node45&#45;&gt;Node46 -->
<g id="edge38" class="edge">
<title>Node45&#45;&gt;Node46</title>
<path fill="none" stroke="midnightblue" d="M383.05,-224.44C350.84,-215.24 299.47,-200.56 263.86,-190.39"/>
<polygon fill="midnightblue" stroke="midnightblue" points="264.38,-186.9 253.81,-187.52 262.46,-193.63 264.38,-186.9"/>
</g>
<!-- Node46&#45;&gt;Node5 -->
<g id="edge39" class="edge">
<title>Node46&#45;&gt;Node5</title>
<path fill="none" stroke="midnightblue" d="M220.95,-168.12C217.03,-155.16 211.66,-130.56 220,-112 235.35,-77.82 249.26,-72.27 283,-56 354.49,-21.52 448.37,-13.12 501.23,-11.28"/>
<polygon fill="midnightblue" stroke="midnightblue" points="501.35,-14.78 511.24,-10.99 501.14,-7.78 501.35,-14.78"/>
</g>
<!-- Node47&#45;&gt;Node5 -->
<g id="edge46" class="edge">
<title>Node47&#45;&gt;Node5</title>
<path fill="none" stroke="midnightblue" d="M503.6,-56.08C510.23,-48.3 520.02,-36.8 528.06,-27.37"/>
<polygon fill="midnightblue" stroke="midnightblue" points="530.73,-29.63 534.55,-19.75 525.4,-25.09 530.73,-29.63"/>
</g>
<!-- Node49&#45;&gt;Node3 -->
<g id="edge48" class="edge">
<title>Node49&#45;&gt;Node3</title>
<path fill="none" stroke="midnightblue" d="M772.97,-281.6C736.93,-272.43 675.14,-256.69 633.45,-246.07"/>
<polygon fill="midnightblue" stroke="midnightblue" points="634.12,-242.63 623.57,-243.55 632.4,-249.41 634.12,-242.63"/>
</g>
<!-- Node49&#45;&gt;Node27 -->
<g id="edge55" class="edge">
<title>Node49&#45;&gt;Node27</title>
<path fill="none" stroke="midnightblue" d="M831.12,-280.68C863.39,-271.46 915.63,-256.54 951.55,-246.27"/>
<polygon fill="midnightblue" stroke="midnightblue" points="952.57,-249.62 961.23,-243.51 950.65,-242.89 952.57,-249.62"/>
</g>
<!-- Node49&#45;&gt;Node40 -->
<g id="edge56" class="edge">
<title>Node49&#45;&gt;Node40</title>
<path fill="none" stroke="midnightblue" d="M788.02,-280.32C774.45,-271.9 753.62,-258.97 737.68,-249.07"/>
<polygon fill="midnightblue" stroke="midnightblue" points="739.29,-245.95 728.94,-243.65 735.59,-251.9 739.29,-245.95"/>
</g>
<!-- Node50 -->
<g id="node28" class="node">
<title>Node50</title>
<g id="a_node28"><a xlink:href="../../df/dd0/Array_8h.html" target="_top" xlink:title="Header file for class Cantera::Array2D.">
<polygon fill="white" stroke="black" points="1220,-224.5 1220,-243.5 1336,-243.5 1336,-224.5 1220,-224.5"/>
<text text-anchor="middle" x="1278" y="-231.5" font-family="Helvetica,sans-Serif" font-size="10.00">cantera/base/Array.h</text>
</a>
</g>
</g>
<!-- Node49&#45;&gt;Node50 -->
<g id="edge49" class="edge">
<title>Node49&#45;&gt;Node50</title>
<path fill="none" stroke="midnightblue" d="M831.06,-285.7C905.39,-277.27 1103.99,-254.74 1209.66,-242.75"/>
<polygon fill="midnightblue" stroke="midnightblue" points="1210.35,-246.2 1219.9,-241.59 1209.57,-239.24 1210.35,-246.2"/>
</g>
<!-- Node52 -->
<g id="node30" class="node">
<title>Node52</title>
<g id="a_node30"><a xlink:href="../../d4/dfa/Solution_8h.html" target="_top" xlink:title=" ">
<polygon fill="white" stroke="black" points="765.5,-224.5 765.5,-243.5 896.5,-243.5 896.5,-224.5 765.5,-224.5"/>
<text text-anchor="middle" x="831" y="-231.5" font-family="Helvetica,sans-Serif" font-size="10.00">cantera/base/Solution.h</text>
</a>
</g>
</g>
<!-- Node49&#45;&gt;Node52 -->
<g id="edge52" class="edge">
<title>Node49&#45;&gt;Node52</title>
<path fill="none" stroke="midnightblue" d="M806.79,-280.08C810.76,-272.69 816.53,-261.95 821.43,-252.81"/>
<polygon fill="midnightblue" stroke="midnightblue" points="824.65,-254.22 826.3,-243.75 818.49,-250.91 824.65,-254.22"/>
</g>
<!-- Node50&#45;&gt;Node5 -->
<g id="edge50" class="edge">
<title>Node50&#45;&gt;Node5</title>
<path fill="none" stroke="midnightblue" d="M1289.79,-224.41C1305.95,-211.6 1331.42,-186.96 1317,-168 1303.47,-150.21 890.3,-57.73 881,-56 774,-36.15 646.43,-21.66 582.61,-15.02"/>
<polygon fill="midnightblue" stroke="midnightblue" points="582.86,-11.53 572.55,-13.99 582.14,-18.49 582.86,-11.53"/>
</g>
<!-- Node51 -->
<g id="node29" class="node">
<title>Node51</title>
<g id="a_node29"><a xlink:title=" ">
<polygon fill="white" stroke="#bfbfbf" points="1248,-168.5 1248,-187.5 1308,-187.5 1308,-168.5 1248,-168.5"/>
<text text-anchor="middle" x="1278" y="-175.5" font-family="Helvetica,sans-Serif" font-size="10.00">iostream</text>
</a>
</g>
</g>
<!-- Node50&#45;&gt;Node51 -->
<g id="edge51" class="edge">
<title>Node50&#45;&gt;Node51</title>
<path fill="none" stroke="midnightblue" d="M1278,-224.08C1278,-217.01 1278,-206.86 1278,-197.99"/>
<polygon fill="midnightblue" stroke="midnightblue" points="1281.5,-197.75 1278,-187.75 1274.5,-197.75 1281.5,-197.75"/>
</g>
<!-- Node52&#45;&gt;Node4 -->
<g id="edge53" class="edge">
<title>Node52&#45;&gt;Node4</title>
<path fill="none" stroke="midnightblue" d="M817.33,-224.47C792.24,-208.9 739.61,-176.67 720,-168 687.75,-153.74 649.6,-142.03 620.67,-134.14"/>
<polygon fill="midnightblue" stroke="midnightblue" points="621.41,-130.71 610.84,-131.51 619.6,-137.48 621.41,-130.71"/>
</g>
<!-- Node52&#45;&gt;Node34 -->
<g id="edge54" class="edge">
<title>Node52&#45;&gt;Node34</title>
<path fill="none" stroke="midnightblue" d="M831.33,-224.08C831.59,-217.01 831.97,-206.86 832.3,-197.99"/>
<polygon fill="midnightblue" stroke="midnightblue" points="835.8,-197.87 832.68,-187.75 828.81,-197.61 835.8,-197.87"/>
</g>
<!-- Node53&#45;&gt;Node49 -->
<g id="edge59" class="edge">
<title>Node53&#45;&gt;Node49</title>
<path fill="none" stroke="midnightblue" d="M857.68,-403.3C847.91,-383.59 823.92,-335.21 810.85,-308.84"/>
<polygon fill="midnightblue" stroke="midnightblue" points="813.85,-307.03 806.28,-299.62 807.58,-310.14 813.85,-307.03"/>
</g>
<!-- Node54&#45;&gt;Node4 -->
<g id="edge62" class="edge">
<title>Node54&#45;&gt;Node4</title>
<path fill="none" stroke="midnightblue" d="M157.48,-168.47C247.61,-158.68 395.06,-142.66 488.73,-132.48"/>
<polygon fill="midnightblue" stroke="midnightblue" points="489.19,-135.95 498.75,-131.39 488.43,-128.99 489.19,-135.95"/>
</g>
<!-- Node54&#45;&gt;Node5 -->
<g id="edge61" class="edge">
<title>Node54&#45;&gt;Node5</title>
<path fill="none" stroke="midnightblue" d="M87.29,-168.48C109.87,-145.84 175.33,-84.02 243,-56 330.16,-19.91 442.3,-12.32 501.39,-10.99"/>
<polygon fill="midnightblue" stroke="midnightblue" points="501.5,-14.49 511.44,-10.82 501.38,-7.49 501.5,-14.49"/>
</g>
<!-- Node54&#45;&gt;Node24 -->
<g id="edge63" class="edge">
<title>Node54&#45;&gt;Node24</title>
<path fill="none" stroke="midnightblue" d="M112.43,-168.44C148.86,-159.12 207.23,-144.18 247.03,-134"/>
<polygon fill="midnightblue" stroke="midnightblue" points="247.9,-137.39 256.72,-131.52 246.17,-130.61 247.9,-137.39"/>
</g>
</g>
</svg>
        <g id="navigator" transform="translate(0 0)" fill="#404254">
                <rect fill="#f2f5e9" fill-opacity="0.5" stroke="#606060" stroke-width=".5" x="0" y="0" width="60" height="60"/>
                <use id="zoomplus" xlink:href="#zoomPlus" x="17" y="9" onmousedown="handleZoom(evt,'in')"/>
                <use id="zoomminus" xlink:href="#zoomMin" x="42" y="9" onmousedown="handleZoom(evt,'out')"/>
                <use id="reset" xlink:href="#resetDef" x="30" y="36" onmousedown="handleReset()"/>
                <g id="arrowUp" xlink:href="#dirArrow" transform="translate(30 24)" onmousedown="handlePan(0,-1)">
                  <use xlink:href="#rim" fill="#404040">
                        <set attributeName="fill" to="#808080" begin="arrowUp.mouseover" end="arrowUp.mouseout"/>
                  </use>
                  <path fill="none" stroke="white" stroke-width="1.5" d="M0,-3.0v7 M-2.5,-0.5L0,-3.0L2.5,-0.5"/>
                </g>
                <g id="arrowRight" xlink:href="#dirArrow" transform="rotate(90) translate(36 -43)" onmousedown="handlePan(1,0)">
                  <use xlink:href="#rim" fill="#404040">
                        <set attributeName="fill" to="#808080" begin="arrowRight.mouseover" end="arrowRight.mouseout"/>
                  </use>
                  <path fill="none" stroke="white" stroke-width="1.5" d="M0,-3.0v7 M-2.5,-0.5L0,-3.0L2.5,-0.5"/>
                </g>
                <g id="arrowDown" xlink:href="#dirArrow" transform="rotate(180) translate(-30 -48)" onmousedown="handlePan(0,1)">
                  <use xlink:href="#rim" fill="#404040">
                        <set attributeName="fill" to="#808080" begin="arrowDown.mouseover" end="arrowDown.mouseout"/>
                  </use>
                  <path fill="none" stroke="white" stroke-width="1.5" d="M0,-3.0v7 M-2.5,-0.5L0,-3.0L2.5,-0.5"/>
                </g>
                <g id="arrowLeft" xlink:href="#dirArrow" transform="rotate(270) translate(-36 17)" onmousedown="handlePan(-1,0)">
                  <use xlink:href="#rim" fill="#404040">
                        <set attributeName="fill" to="#808080" begin="arrowLeft.mouseover" end="arrowLeft.mouseout"/>
                  </use>
                  <path fill="none" stroke="white" stroke-width="1.5" d="M0,-3.0v7 M-2.5,-0.5L0,-3.0L2.5,-0.5"/>
                </g>
        </g>
        <svg viewBox="0 0 15 15" width="100%" height="30px" preserveAspectRatio="xMaxYMin meet">
         <g id="arrow_out" transform="scale(0.3 0.3)">
          <a xlink:href="DomainFactory_8cpp__incl_org.svg" target="_base">
           <rect id="button" ry="5" rx="5" y="6" x="6" height="38" width="38"
                fill="#f2f5e9" fill-opacity="0.5" stroke="#606060" stroke-width="1.0"/>
           <path id="arrow"
             d="M 11.500037,31.436501 C 11.940474,20.09759 22.043105,11.32322 32.158766,21.979434 L 37.068811,17.246167 C 37.068811,17.246167 37.088388,32 37.088388,32 L 22.160133,31.978069 C 22.160133,31.978069 26.997745,27.140456 26.997745,27.140456 C 18.528582,18.264221 13.291696,25.230495 11.500037,31.436501 z"
             style="fill:#404040;"/>
          </a>
         </g>
        </svg>
</svg>
