<?xml version="1.0" encoding="UTF-8" standalone="no"?>
<!DOCTYPE svg PUBLIC "-//W3C//DTD SVG 1.1//EN"
 "http://www.w3.org/Graphics/SVG/1.1/DTD/svg11.dtd">
<!-- Generated by graphviz version 6.0.1 (0)
 -->
<!-- Title: ctexceptions.h Pages: 1 -->
<svg width="4058pt" height="192pt"
 viewBox="0.00 0.00 4057.50 192.00" xmlns="http://www.w3.org/2000/svg" xmlns:xlink="http://www.w3.org/1999/xlink">
<g id="graph0" class="graph" transform="scale(1 1) rotate(0) translate(4 188)">
<title>ctexceptions.h</title>
<!-- Node1 -->
<g id="node1" class="node">
<title>Node1</title>
<g id="a_node1"><a xlink:title="Definitions for the classes that are thrown when Cantera experiences an error condition (also contain...">
<polygon fill="#999999" stroke="#666666" points="2089,-184 2009,-184 2009,-165 2089,-165 2089,-184"/>
<text text-anchor="middle" x="2049" y="-172" font-family="Helvetica,sans-Serif" font-size="10.00">ctexceptions.h</text>
</a>
</g>
</g>
<!-- Node2 -->
<g id="node2" class="node">
<title>Node2</title>
<g id="a_node2"><a xlink:href="../../dd/d2a/AnyMap_8h.html" target="_top" xlink:title=" ">
<polygon fill="#fff0f0" stroke="red" points="622.5,-129 561.5,-129 561.5,-110 622.5,-110 622.5,-129"/>
<text text-anchor="middle" x="592" y="-117" font-family="Helvetica,sans-Serif" font-size="10.00">AnyMap.h</text>
</a>
</g>
</g>
<!-- Node1&#45;&gt;Node2 -->
<g id="edge1" class="edge">
<title>Node1&#45;&gt;Node2</title>
<path fill="none" stroke="#63b8ff" d="M1998.7,-172.74C1820.62,-169.88 1203.5,-158.32 695,-129 670.64,-127.6 643.09,-125.28 622.62,-123.43"/>
<polygon fill="#63b8ff" stroke="#63b8ff" points="1998.76,-176.25 2008.82,-172.91 1998.87,-169.25 1998.76,-176.25"/>
</g>
<!-- Node7 -->
<g id="node7" class="node">
<title>Node7</title>
<g id="a_node7"><a xlink:href="../../d7/d8a/Falloff_8cpp.html" target="_top" xlink:title="Definitions for member functions of classes derived from Falloff.">
<polygon fill="white" stroke="#666666" points="62,-74 0,-74 0,-55 62,-55 62,-74"/>
<text text-anchor="middle" x="31" y="-62" font-family="Helvetica,sans-Serif" font-size="10.00">Falloff.cpp</text>
</a>
</g>
</g>
<!-- Node1&#45;&gt;Node7 -->
<g id="edge27" class="edge">
<title>Node1&#45;&gt;Node7</title>
<path fill="none" stroke="#63b8ff" d="M1998.76,-173.05C1758.83,-170.76 728.11,-159.32 408,-129 278.49,-116.73 126.3,-86.03 62.08,-72.31"/>
<polygon fill="#63b8ff" stroke="#63b8ff" points="1998.9,-176.55 2008.93,-173.15 1998.96,-169.55 1998.9,-176.55"/>
</g>
<!-- Node9 -->
<g id="node9" class="node">
<title>Node9</title>
<g id="a_node9"><a xlink:href="../../d7/dd9/CVodesIntegrator_8h.html" target="_top" xlink:title=" ">
<polygon fill="#fff0f0" stroke="red" points="1194.5,-19 1093.5,-19 1093.5,0 1194.5,0 1194.5,-19"/>
<text text-anchor="middle" x="1144" y="-7" font-family="Helvetica,sans-Serif" font-size="10.00">CVodesIntegrator.h</text>
</a>
</g>
</g>
<!-- Node1&#45;&gt;Node9 -->
<g id="edge17" class="edge">
<title>Node1&#45;&gt;Node9</title>
<path fill="none" stroke="#63b8ff" d="M1998.7,-172.97C1810.66,-170.74 1158.23,-160.72 1128,-129 1098.64,-98.19 1126.56,-40.74 1138.85,-19.07"/>
<polygon fill="#63b8ff" stroke="#63b8ff" points="1998.82,-176.47 2008.86,-173.09 1998.9,-169.47 1998.82,-176.47"/>
</g>
<!-- Node12 -->
<g id="node10" class="node">
<title>Node12</title>
<g id="a_node10"><a xlink:href="../../d0/dbd/IdasIntegrator_8h.html" target="_top" xlink:title="Header file for class IdasIntegrator.">
<polygon fill="#fff0f0" stroke="red" points="1609,-19 1525,-19 1525,0 1609,0 1609,-19"/>
<text text-anchor="middle" x="1567" y="-7" font-family="Helvetica,sans-Serif" font-size="10.00">IdasIntegrator.h</text>
</a>
</g>
</g>
<!-- Node1&#45;&gt;Node12 -->
<g id="edge37" class="edge">
<title>Node1&#45;&gt;Node12</title>
<path fill="none" stroke="#63b8ff" d="M1998.81,-165.62C1961.9,-158.76 1911.05,-147.03 1869,-129 1812.8,-104.9 1809.29,-78.89 1753,-55 1705.78,-34.96 1647.81,-22.9 1609.26,-16.49"/>
<polygon fill="#63b8ff" stroke="#63b8ff" points="1998.37,-169.1 2008.83,-167.43 1999.61,-162.21 1998.37,-169.1"/>
</g>
<!-- Node27 -->
<g id="node11" class="node">
<title>Node27</title>
<g id="a_node11"><a xlink:href="../../d2/d49/Nasa9PolyMultiTempRegion_8cpp.html" target="_top" xlink:title="Definitions for a single&#45;species standard state object derived from SpeciesThermoInterpType based on ...">
<polygon fill="white" stroke="#666666" points="239.5,-74 80.5,-74 80.5,-55 239.5,-55 239.5,-74"/>
<text text-anchor="middle" x="160" y="-62" font-family="Helvetica,sans-Serif" font-size="10.00">Nasa9PolyMultiTempRegion.cpp</text>
</a>
</g>
</g>
<!-- Node1&#45;&gt;Node27 -->
<g id="edge39" class="edge">
<title>Node1&#45;&gt;Node27</title>
<path fill="none" stroke="#63b8ff" d="M1998.47,-172.89C1771.18,-170 841.98,-156.68 552,-129 423.15,-116.7 272.45,-88.29 201.25,-74.01"/>
<polygon fill="#63b8ff" stroke="#63b8ff" points="1998.72,-176.39 2008.76,-173.02 1998.81,-169.39 1998.72,-176.39"/>
</g>
<!-- Node70 -->
<g id="node12" class="node">
<title>Node70</title>
<g id="a_node12"><a xlink:href="../../d8/db0/ReactionRate_8h.html" target="_top" xlink:title=" ">
<polygon fill="#fff0f0" stroke="red" points="634.5,-74 549.5,-74 549.5,-55 634.5,-55 634.5,-74"/>
<text text-anchor="middle" x="592" y="-62" font-family="Helvetica,sans-Serif" font-size="10.00">ReactionRate.h</text>
</a>
</g>
</g>
<!-- Node1&#45;&gt;Node70 -->
<g id="edge44" class="edge">
<title>Node1&#45;&gt;Node70</title>
<path fill="none" stroke="#63b8ff" d="M1998.65,-173.38C1796.33,-172.64 1042.22,-167.32 807,-129 734.78,-117.23 652.68,-88.5 614.16,-74.07"/>
<polygon fill="#63b8ff" stroke="#63b8ff" points="1998.68,-176.88 2008.69,-173.42 1998.71,-169.88 1998.68,-176.88"/>
</g>
<!-- Node101 -->
<g id="node13" class="node">
<title>Node101</title>
<g id="a_node13"><a xlink:href="../../d4/dfa/Solution_8h.html" target="_top" xlink:title=" ">
<polygon fill="#fff0f0" stroke="red" points="713,-74 653,-74 653,-55 713,-55 713,-74"/>
<text text-anchor="middle" x="683" y="-62" font-family="Helvetica,sans-Serif" font-size="10.00">Solution.h</text>
</a>
</g>
</g>
<!-- Node1&#45;&gt;Node101 -->
<g id="edge48" class="edge">
<title>Node1&#45;&gt;Node101</title>
<path fill="none" stroke="#63b8ff" d="M1998.6,-173.37C1804.21,-172.57 1103.06,-167.08 884,-129 816.22,-117.22 739.59,-88.5 703.66,-74.07"/>
<polygon fill="#63b8ff" stroke="#63b8ff" points="1998.8,-176.87 2008.81,-173.41 1998.83,-169.87 1998.8,-176.87"/>
</g>
<!-- Node127 -->
<g id="node14" class="node">
<title>Node127</title>
<g id="a_node14"><a xlink:href="../../d4/d87/SpeciesThermoInterpType_8h.html" target="_top" xlink:title="Pure Virtual Base class for individual species reference state thermodynamic managers and text for th...">
<polygon fill="#fff0f0" stroke="red" points="870.5,-74 731.5,-74 731.5,-55 870.5,-55 870.5,-74"/>
<text text-anchor="middle" x="801" y="-62" font-family="Helvetica,sans-Serif" font-size="10.00">SpeciesThermoInterpType.h</text>
</a>
</g>
</g>
<!-- Node1&#45;&gt;Node127 -->
<g id="edge50" class="edge">
<title>Node1&#45;&gt;Node127</title>
<path fill="none" stroke="#63b8ff" d="M1998.62,-172.64C1795.38,-169.03 1041.74,-154.06 938,-129 890.09,-117.43 838.66,-88.61 814.72,-74.11"/>
<polygon fill="#63b8ff" stroke="#63b8ff" points="1998.65,-176.15 2008.71,-172.82 1998.78,-169.15 1998.65,-176.15"/>
</g>
<!-- Node121 -->
<g id="node15" class="node">
<title>Node121</title>
<g id="a_node15"><a xlink:href="../../d7/d17/Species_8cpp_source.html" target="_top" xlink:title=" ">
<polygon fill="white" stroke="#666666" points="971.5,-19 900.5,-19 900.5,0 971.5,0 971.5,-19"/>
<text text-anchor="middle" x="936" y="-7" font-family="Helvetica,sans-Serif" font-size="10.00">Species.cpp</text>
</a>
</g>
</g>
<!-- Node1&#45;&gt;Node121 -->
<g id="edge49" class="edge">
<title>Node1&#45;&gt;Node121</title>
<path fill="none" stroke="#63b8ff" d="M1998.85,-173.56C1816.14,-173.44 1192.57,-170 1114,-129 1077.2,-109.79 1090.46,-79.57 1057,-55 1031.47,-36.25 997.2,-24.64 971.64,-17.99"/>
<polygon fill="#63b8ff" stroke="#63b8ff" points="1998.99,-177.06 2008.99,-173.56 1998.99,-170.06 1998.99,-177.06"/>
</g>
<!-- Node204 -->
<g id="node16" class="node">
<title>Node204</title>
<g id="a_node16"><a xlink:href="../../d4/d3b/Units_8cpp.html" target="_top" xlink:title=" ">
<polygon fill="white" stroke="#666666" points="947.5,-74 888.5,-74 888.5,-55 947.5,-55 947.5,-74"/>
<text text-anchor="middle" x="918" y="-62" font-family="Helvetica,sans-Serif" font-size="10.00">Units.cpp</text>
</a>
</g>
</g>
<!-- Node1&#45;&gt;Node204 -->
<g id="edge55" class="edge">
<title>Node1&#45;&gt;Node204</title>
<path fill="none" stroke="#63b8ff" d="M1998.66,-172.68C1790.79,-169.16 1007.9,-154.25 962,-129 940.14,-116.98 926.82,-88.9 921.17,-74.45"/>
<polygon fill="#63b8ff" stroke="#63b8ff" points="1998.64,-176.18 2008.69,-172.85 1998.75,-169.19 1998.64,-176.18"/>
</g>
<!-- Node207 -->
<g id="node17" class="node">
<title>Node207</title>
<g id="a_node17"><a xlink:href="../../d8/d78/Delegator_8h.html" target="_top" xlink:title=" ">
<polygon fill="#fff0f0" stroke="red" points="1744,-74 1678,-74 1678,-55 1744,-55 1744,-74"/>
<text text-anchor="middle" x="1711" y="-62" font-family="Helvetica,sans-Serif" font-size="10.00">Delegator.h</text>
</a>
</g>
</g>
<!-- Node1&#45;&gt;Node207 -->
<g id="edge18" class="edge">
<title>Node1&#45;&gt;Node207</title>
<path fill="none" stroke="#63b8ff" d="M1998.78,-166.84C1954.96,-160.13 1890.11,-148.02 1836,-129 1814.07,-121.29 1755.28,-89.74 1726.84,-74.21"/>
<polygon fill="#63b8ff" stroke="#63b8ff" points="1998.48,-170.33 2008.89,-168.35 1999.52,-163.41 1998.48,-170.33"/>
</g>
<!-- Node208 -->
<g id="node18" class="node">
<title>Node208</title>
<g id="a_node18"><a xlink:href="../../d1/df7/DenseMatrix_8h.html" target="_top" xlink:title="Headers for the DenseMatrix object, which deals with dense rectangular matrices and description of th...">
<polygon fill="#fff0f0" stroke="red" points="1467,-129 1387,-129 1387,-110 1467,-110 1467,-129"/>
<text text-anchor="middle" x="1427" y="-117" font-family="Helvetica,sans-Serif" font-size="10.00">DenseMatrix.h</text>
</a>
</g>
</g>
<!-- Node1&#45;&gt;Node208 -->
<g id="edge19" class="edge">
<title>Node1&#45;&gt;Node208</title>
<path fill="none" stroke="#63b8ff" d="M1998.82,-171.2C1898.98,-166.26 1668.44,-153.11 1476,-129 1473.09,-128.64 1470.08,-128.22 1467.07,-127.77"/>
<polygon fill="#63b8ff" stroke="#63b8ff" points="1998.77,-174.7 2008.92,-171.69 1999.11,-167.71 1998.77,-174.7"/>
</g>
<!-- Node224 -->
<g id="node19" class="node">
<title>Node224</title>
<g id="a_node19"><a xlink:href="../../d7/dec/vcs__solve__TP_8cpp.html" target="_top" xlink:title="Implementation file that contains the main algorithm for finding an equilibrium.">
<polygon fill="white" stroke="#666666" points="1441,-74 1345,-74 1345,-55 1441,-55 1441,-74"/>
<text text-anchor="middle" x="1393" y="-62" font-family="Helvetica,sans-Serif" font-size="10.00">vcs_solve_TP.cpp</text>
</a>
</g>
</g>
<!-- Node1&#45;&gt;Node224 -->
<g id="edge67" class="edge">
<title>Node1&#45;&gt;Node224</title>
<path fill="none" stroke="#63b8ff" d="M1998.38,-174.02C1849.37,-175.04 1420.12,-174 1378,-129 1363.76,-113.78 1377.74,-87.64 1386.73,-74.13"/>
<polygon fill="#63b8ff" stroke="#63b8ff" points="1998.64,-177.52 2008.61,-173.95 1998.58,-170.52 1998.64,-177.52"/>
</g>
<!-- Node225 -->
<g id="node20" class="node">
<title>Node225</title>
<g id="a_node20"><a xlink:href="../../db/dce/Domain1D_8h.html" target="_top" xlink:title=" ">
<polygon fill="#fff0f0" stroke="red" points="1042.5,-129 971.5,-129 971.5,-110 1042.5,-110 1042.5,-129"/>
<text text-anchor="middle" x="1007" y="-117" font-family="Helvetica,sans-Serif" font-size="10.00">Domain1D.h</text>
</a>
</g>
</g>
<!-- Node1&#45;&gt;Node225 -->
<g id="edge21" class="edge">
<title>Node1&#45;&gt;Node225</title>
<path fill="none" stroke="#63b8ff" d="M1998.7,-173.43C1852.72,-172.77 1416.49,-167.47 1057,-129 1052.36,-128.5 1047.5,-127.85 1042.7,-127.12"/>
<polygon fill="#63b8ff" stroke="#63b8ff" points="1998.69,-176.93 2008.71,-173.47 1998.72,-169.93 1998.69,-176.93"/>
</g>
<!-- Node233 -->
<g id="node21" class="node">
<title>Node233</title>
<g id="a_node21"><a xlink:href="../../de/dfb/Elements_8cpp.html" target="_top" xlink:title="This file contains a database of atomic weights.">
<polygon fill="white" stroke="#666666" points="1562.5,-129 1485.5,-129 1485.5,-110 1562.5,-110 1562.5,-129"/>
<text text-anchor="middle" x="1524" y="-117" font-family="Helvetica,sans-Serif" font-size="10.00">Elements.cpp</text>
</a>
</g>
</g>
<!-- Node1&#45;&gt;Node233 -->
<g id="edge23" class="edge">
<title>Node1&#45;&gt;Node233</title>
<path fill="none" stroke="#63b8ff" d="M1998.74,-170.25C1911.47,-164.29 1726.33,-150.24 1571,-129 1568.29,-128.63 1565.5,-128.21 1562.69,-127.77"/>
<polygon fill="#63b8ff" stroke="#63b8ff" points="1998.68,-173.75 2008.89,-170.94 1999.15,-166.77 1998.68,-173.75"/>
</g>
<!-- Node234 -->
<g id="node22" class="node">
<title>Node234</title>
<g id="a_node22"><a xlink:href="../../d8/d0d/ExtensionManager_8h.html" target="_top" xlink:title=" ">
<polygon fill="#fff0f0" stroke="red" points="1685.5,-129 1580.5,-129 1580.5,-110 1685.5,-110 1685.5,-129"/>
<text text-anchor="middle" x="1633" y="-117" font-family="Helvetica,sans-Serif" font-size="10.00">ExtensionManager.h</text>
</a>
</g>
</g>
<!-- Node1&#45;&gt;Node234 -->
<g id="edge24" class="edge">
<title>Node1&#45;&gt;Node234</title>
<path fill="none" stroke="#63b8ff" d="M1998.8,-167.37C1930.17,-158.95 1803.21,-143.22 1695,-129 1691.98,-128.6 1688.89,-128.19 1685.76,-127.77"/>
<polygon fill="#63b8ff" stroke="#63b8ff" points="1998.55,-170.86 2008.9,-168.61 1999.4,-163.92 1998.55,-170.86"/>
</g>
<!-- Node241 -->
<g id="node23" class="node">
<title>Node241</title>
<g id="a_node23"><a xlink:href="../../d6/dd5/FactoryBase_8h.html" target="_top" xlink:title="File contains the FactoryBase class declarations.">
<polygon fill="#fff0f0" stroke="red" points="1784,-129 1704,-129 1704,-110 1784,-110 1784,-129"/>
<text text-anchor="middle" x="1744" y="-117" font-family="Helvetica,sans-Serif" font-size="10.00">FactoryBase.h</text>
</a>
</g>
</g>
<!-- Node1&#45;&gt;Node241 -->
<g id="edge26" class="edge">
<title>Node1&#45;&gt;Node241</title>
<path fill="none" stroke="#63b8ff" d="M1998.81,-164.78C1938.79,-154.35 1839.52,-137.1 1784.28,-127.5"/>
<polygon fill="#63b8ff" stroke="#63b8ff" points="1998.36,-168.25 2008.81,-166.52 1999.56,-161.36 1998.36,-168.25"/>
</g>
<!-- Node253 -->
<g id="node24" class="node">
<title>Node253</title>
<g id="a_node24"><a xlink:href="../../d5/dff/FlowDevice_8h.html" target="_top" xlink:title=" ">
<polygon fill="#fff0f0" stroke="red" points="1955.5,-129 1878.5,-129 1878.5,-110 1955.5,-110 1955.5,-129"/>
<text text-anchor="middle" x="1917" y="-117" font-family="Helvetica,sans-Serif" font-size="10.00">FlowDevice.h</text>
</a>
</g>
</g>
<!-- Node1&#45;&gt;Node253 -->
<g id="edge28" class="edge">
<title>Node1&#45;&gt;Node253</title>
<path fill="none" stroke="#63b8ff" d="M2018.27,-161.16C1993.83,-151.35 1960.26,-137.87 1938.59,-129.17"/>
<polygon fill="#63b8ff" stroke="#63b8ff" points="2017.21,-164.51 2027.79,-164.98 2019.82,-158.01 2017.21,-164.51"/>
</g>
<!-- Node254 -->
<g id="node25" class="node">
<title>Node254</title>
<g id="a_node25"><a xlink:href="../../de/d80/flowControllers_8h.html" target="_top" xlink:title="Some flow devices derived from class FlowDevice.">
<polygon fill="#fff0f0" stroke="red" points="1983,-74 1893,-74 1893,-55 1983,-55 1983,-74"/>
<text text-anchor="middle" x="1938" y="-62" font-family="Helvetica,sans-Serif" font-size="10.00">flowControllers.h</text>
</a>
</g>
</g>
<!-- Node1&#45;&gt;Node254 -->
<g id="edge61" class="edge">
<title>Node1&#45;&gt;Node254</title>
<path fill="none" stroke="#63b8ff" d="M2032.66,-157.61C2008.88,-134.47 1965.53,-92.29 1946.9,-74.16"/>
<polygon fill="#63b8ff" stroke="#63b8ff" points="2030.31,-160.2 2039.92,-164.66 2035.19,-155.18 2030.31,-160.2"/>
</g>
<!-- Node256 -->
<g id="node26" class="node">
<title>Node256</title>
<g id="a_node26"><a xlink:href="../../d1/d91/Func1_8cpp.html" target="_top" xlink:title=" ">
<polygon fill="white" stroke="#666666" points="2092,-74 2030,-74 2030,-55 2092,-55 2092,-74"/>
<text text-anchor="middle" x="2061" y="-62" font-family="Helvetica,sans-Serif" font-size="10.00">Func1.cpp</text>
</a>
</g>
</g>
<!-- Node1&#45;&gt;Node256 -->
<g id="edge30" class="edge">
<title>Node1&#45;&gt;Node256</title>
<path fill="none" stroke="#63b8ff" d="M2043.4,-154.93C2040.35,-142.19 2037.79,-124.96 2041,-110 2043.81,-96.91 2050.77,-83.03 2055.68,-74.32"/>
<polygon fill="#63b8ff" stroke="#63b8ff" points="2040.08,-156.06 2046.07,-164.79 2046.83,-154.23 2040.08,-156.06"/>
</g>
<!-- Node257 -->
<g id="node27" class="node">
<title>Node257</title>
<g id="a_node27"><a xlink:href="../../d2/d9e/Func1_8h.html" target="_top" xlink:title=" ">
<polygon fill="#fff0f0" stroke="red" points="2102,-129 2050,-129 2050,-110 2102,-110 2102,-129"/>
<text text-anchor="middle" x="2076" y="-117" font-family="Helvetica,sans-Serif" font-size="10.00">Func1.h</text>
</a>
</g>
</g>
<!-- Node1&#45;&gt;Node257 -->
<g id="edge31" class="edge">
<title>Node1&#45;&gt;Node257</title>
<path fill="none" stroke="#63b8ff" d="M2058.01,-155.82C2062.59,-146.82 2067.95,-136.29 2071.62,-129.09"/>
<polygon fill="#63b8ff" stroke="#63b8ff" points="2054.88,-154.25 2053.46,-164.75 2061.12,-157.43 2054.88,-154.25"/>
</g>
<!-- Node258 -->
<g id="node28" class="node">
<title>Node258</title>
<g id="a_node28"><a xlink:href="../../d4/d0c/funcWrapper_8h_source.html" target="_top" xlink:title=" ">
<polygon fill="white" stroke="#666666" points="2346.5,-74 2267.5,-74 2267.5,-55 2346.5,-55 2346.5,-74"/>
<text text-anchor="middle" x="2307" y="-62" font-family="Helvetica,sans-Serif" font-size="10.00">funcWrapper.h</text>
</a>
</g>
</g>
<!-- Node1&#45;&gt;Node258 -->
<g id="edge62" class="edge">
<title>Node1&#45;&gt;Node258</title>
<path fill="none" stroke="#63b8ff" d="M2099.27,-171.27C2197.54,-166.39 2407.44,-153.23 2429,-129 2456.3,-98.32 2391.84,-80.2 2346.6,-71.61"/>
<polygon fill="#63b8ff" stroke="#63b8ff" points="2099.09,-167.77 2089.27,-171.76 2099.43,-174.77 2099.09,-167.77"/>
</g>
<!-- Node259 -->
<g id="node29" class="node">
<title>Node259</title>
<g id="a_node29"><a xlink:href="../../da/d37/FuncEval_8h.html" target="_top" xlink:title=" ">
<polygon fill="#fff0f0" stroke="red" points="1203,-129 1137,-129 1137,-110 1203,-110 1203,-129"/>
<text text-anchor="middle" x="1170" y="-117" font-family="Helvetica,sans-Serif" font-size="10.00">FuncEval.h</text>
</a>
</g>
</g>
<!-- Node1&#45;&gt;Node259 -->
<g id="edge34" class="edge">
<title>Node1&#45;&gt;Node259</title>
<path fill="none" stroke="#63b8ff" d="M1998.65,-173.39C1868.16,-172.54 1508.56,-166.69 1212,-129 1209.2,-128.64 1206.3,-128.21 1203.4,-127.72"/>
<polygon fill="#63b8ff" stroke="#63b8ff" points="1998.72,-176.89 2008.74,-173.45 1998.76,-169.89 1998.72,-176.89"/>
</g>
<!-- Node262 -->
<g id="node30" class="node">
<title>Node262</title>
<g id="a_node30"><a xlink:href="../../da/d15/GeneralMatrix_8h.html" target="_top" xlink:title="Declarations for the class GeneralMatrix which is a virtual base class for matrices handled by solver...">
<polygon fill="#fff0f0" stroke="red" points="2206,-129 2120,-129 2120,-110 2206,-110 2206,-129"/>
<text text-anchor="middle" x="2163" y="-117" font-family="Helvetica,sans-Serif" font-size="10.00">GeneralMatrix.h</text>
</a>
</g>
</g>
<!-- Node1&#45;&gt;Node262 -->
<g id="edge36" class="edge">
<title>Node1&#45;&gt;Node262</title>
<path fill="none" stroke="#63b8ff" d="M2076.39,-160.77C2097.42,-150.99 2125.89,-137.75 2144.35,-129.17"/>
<polygon fill="#63b8ff" stroke="#63b8ff" points="2074.91,-157.6 2067.32,-164.98 2077.86,-163.94 2074.91,-157.6"/>
</g>
<!-- Node132 -->
<g id="node31" class="node">
<title>Node132</title>
<g id="a_node31"><a xlink:href="../../dd/de9/MultiSpeciesThermo_8cpp.html" target="_top" xlink:title="Declarations for a thermodynamic property manager for multiple species in a phase (see Species Refere...">
<polygon fill="white" stroke="#666666" points="2349.5,-129 2224.5,-129 2224.5,-110 2349.5,-110 2349.5,-129"/>
<text text-anchor="middle" x="2287" y="-117" font-family="Helvetica,sans-Serif" font-size="10.00">MultiSpeciesThermo.cpp</text>
</a>
</g>
</g>
<!-- Node1&#45;&gt;Node132 -->
<g id="edge38" class="edge">
<title>Node1&#45;&gt;Node132</title>
<path fill="none" stroke="#63b8ff" d="M2097.26,-162.75C2141.86,-152.82 2207.26,-138.26 2248.46,-129.08"/>
<polygon fill="#63b8ff" stroke="#63b8ff" points="2096.24,-159.39 2087.24,-164.98 2097.76,-166.23 2096.24,-159.39"/>
</g>
<!-- Node265 -->
<g id="node32" class="node">
<title>Node265</title>
<g id="a_node32"><a xlink:href="../../da/d84/Phase_8h.html" target="_top" xlink:title="Header file for class Phase.">
<polygon fill="#fff0f0" stroke="red" points="2420.5,-129 2367.5,-129 2367.5,-110 2420.5,-110 2420.5,-129"/>
<text text-anchor="middle" x="2394" y="-117" font-family="Helvetica,sans-Serif" font-size="10.00">Phase.h</text>
</a>
</g>
</g>
<!-- Node1&#45;&gt;Node265 -->
<g id="edge40" class="edge">
<title>Node1&#45;&gt;Node265</title>
<path fill="none" stroke="#63b8ff" d="M2099.37,-167.64C2160.72,-160.19 2267.39,-146.19 2358,-129 2361.03,-128.43 2364.19,-127.77 2367.32,-127.08"/>
<polygon fill="#63b8ff" stroke="#63b8ff" points="2098.7,-164.2 2089.19,-168.87 2099.53,-171.15 2098.7,-164.2"/>
</g>
<!-- Node266 -->
<g id="node33" class="node">
<title>Node266</title>
<g id="a_node33"><a xlink:href="../../d7/ddf/PreconditionerBase_8h.html" target="_top" xlink:title="Declarations for the class PreconditionerBase which is a virtual base class for preconditioning syste...">
<polygon fill="#fff0f0" stroke="red" points="1331,-129 1221,-129 1221,-110 1331,-110 1331,-129"/>
<text text-anchor="middle" x="1276" y="-117" font-family="Helvetica,sans-Serif" font-size="10.00">PreconditionerBase.h</text>
</a>
</g>
</g>
<!-- Node1&#45;&gt;Node266 -->
<g id="edge41" class="edge">
<title>Node1&#45;&gt;Node266</title>
<path fill="none" stroke="#63b8ff" d="M1998.54,-171.34C1882.82,-166.17 1589.48,-151.76 1345,-129 1340.55,-128.59 1335.95,-128.11 1331.33,-127.61"/>
<polygon fill="#63b8ff" stroke="#63b8ff" points="1998.7,-174.85 2008.85,-171.8 1999.02,-167.86 1998.7,-174.85"/>
</g>
<!-- Node269 -->
<g id="node34" class="node">
<title>Node269</title>
<g id="a_node34"><a xlink:href="../../d6/d4a/ReactionData_8h.html" target="_top" xlink:title=" ">
<polygon fill="#fff0f0" stroke="red" points="2562.5,-129 2477.5,-129 2477.5,-110 2562.5,-110 2562.5,-129"/>
<text text-anchor="middle" x="2520" y="-117" font-family="Helvetica,sans-Serif" font-size="10.00">ReactionData.h</text>
</a>
</g>
</g>
<!-- Node1&#45;&gt;Node269 -->
<g id="edge43" class="edge">
<title>Node1&#45;&gt;Node269</title>
<path fill="none" stroke="#63b8ff" d="M2099.05,-168.79C2176.96,-161.3 2331.93,-145.81 2463,-129 2467.66,-128.4 2472.54,-127.74 2477.38,-127.05"/>
<polygon fill="#63b8ff" stroke="#63b8ff" points="2098.65,-165.31 2089.03,-169.75 2099.32,-172.28 2098.65,-165.31"/>
</g>
<!-- Node270 -->
<g id="node35" class="node">
<title>Node270</title>
<g id="a_node35"><a xlink:href="../../d6/df1/ReactorBase_8h.html" target="_top" xlink:title=" ">
<polygon fill="#fff0f0" stroke="red" points="2663,-129 2581,-129 2581,-110 2663,-110 2663,-129"/>
<text text-anchor="middle" x="2622" y="-117" font-family="Helvetica,sans-Serif" font-size="10.00">ReactorBase.h</text>
</a>
</g>
</g>
<!-- Node1&#45;&gt;Node270 -->
<g id="edge45" class="edge">
<title>Node1&#45;&gt;Node270</title>
<path fill="none" stroke="#63b8ff" d="M2099.05,-170.57C2192.19,-164.83 2398.34,-150.71 2571,-129 2574.21,-128.6 2577.52,-128.14 2580.85,-127.65"/>
<polygon fill="#63b8ff" stroke="#63b8ff" points="2098.83,-167.08 2089.06,-171.18 2099.26,-174.07 2098.83,-167.08"/>
</g>
<!-- Node281 -->
<g id="node36" class="node">
<title>Node281</title>
<g id="a_node36"><a xlink:href="../../da/dcb/Wall_8h.html" target="_top" xlink:title="Header file for base class WallBase.">
<polygon fill="#fff0f0" stroke="red" points="2678,-74 2634,-74 2634,-55 2678,-55 2678,-74"/>
<text text-anchor="middle" x="2656" y="-62" font-family="Helvetica,sans-Serif" font-size="10.00">Wall.h</text>
</a>
</g>
</g>
<!-- Node1&#45;&gt;Node281 -->
<g id="edge56" class="edge">
<title>Node1&#45;&gt;Node281</title>
<path fill="none" stroke="#63b8ff" d="M2099.35,-173.74C2240.68,-173.9 2633.3,-170.57 2672,-129 2686.26,-113.69 2671.75,-87.58 2662.47,-74.11"/>
<polygon fill="#63b8ff" stroke="#63b8ff" points="2099.23,-170.24 2089.22,-173.72 2099.22,-177.24 2099.23,-170.24"/>
</g>
<!-- Node282 -->
<g id="node37" class="node">
<title>Node282</title>
<g id="a_node37"><a xlink:href="../../da/d61/ResidEval_8h.html" target="_top" xlink:title=" ">
<polygon fill="#fff0f0" stroke="red" points="2789,-129 2719,-129 2719,-110 2789,-110 2789,-129"/>
<text text-anchor="middle" x="2754" y="-117" font-family="Helvetica,sans-Serif" font-size="10.00">ResidEval.h</text>
</a>
</g>
</g>
<!-- Node1&#45;&gt;Node282 -->
<g id="edge47" class="edge">
<title>Node1&#45;&gt;Node282</title>
<path fill="none" stroke="#63b8ff" d="M2099.21,-171.88C2209.28,-167.93 2479.93,-156.08 2705,-129 2709.46,-128.46 2714.13,-127.79 2718.74,-127.07"/>
<polygon fill="#63b8ff" stroke="#63b8ff" points="2098.94,-168.38 2089.07,-172.23 2099.19,-175.38 2098.94,-168.38"/>
</g>
<!-- Node283 -->
<g id="node38" class="node">
<title>Node283</title>
<g id="a_node38"><a xlink:href="../../dd/dfd/StoichManager_8h.html" target="_top" xlink:title=" ">
<polygon fill="#fff0f0" stroke="red" points="2896.5,-129 2807.5,-129 2807.5,-110 2896.5,-110 2896.5,-129"/>
<text text-anchor="middle" x="2852" y="-117" font-family="Helvetica,sans-Serif" font-size="10.00">StoichManager.h</text>
</a>
</g>
</g>
<!-- Node1&#45;&gt;Node283 -->
<g id="edge51" class="edge">
<title>Node1&#45;&gt;Node283</title>
<path fill="none" stroke="#63b8ff" d="M2099.37,-172.19C2220.19,-168.68 2535.94,-157.34 2798,-129 2801.02,-128.67 2804.13,-128.3 2807.26,-127.88"/>
<polygon fill="#63b8ff" stroke="#63b8ff" points="2099.2,-168.69 2089.3,-172.48 2099.4,-175.69 2099.2,-168.69"/>
</g>
<!-- Node287 -->
<g id="node39" class="node">
<title>Node287</title>
<g id="a_node39"><a xlink:href="../../d5/d68/Sub_8h.html" target="_top" xlink:title=" ">
<polygon fill="#fff0f0" stroke="red" points="2957,-129 2915,-129 2915,-110 2957,-110 2957,-129"/>
<text text-anchor="middle" x="2936" y="-117" font-family="Helvetica,sans-Serif" font-size="10.00">Sub.h</text>
</a>
</g>
</g>
<!-- Node1&#45;&gt;Node287 -->
<g id="edge52" class="edge">
<title>Node1&#45;&gt;Node287</title>
<path fill="none" stroke="#63b8ff" d="M2099.66,-172.36C2259.09,-168.54 2749.29,-154.93 2906,-129 2908.88,-128.52 2911.89,-127.87 2914.83,-127.13"/>
<polygon fill="#63b8ff" stroke="#63b8ff" points="2099.11,-168.87 2089.2,-172.61 2099.28,-175.87 2099.11,-168.87"/>
</g>
<!-- Node307 -->
<g id="node40" class="node">
<title>Node307</title>
<g id="a_node40"><a xlink:href="../../d8/d5e/Transport_8h.html" target="_top" xlink:title="Headers for the Transport object, which is the virtual base class for all transport property evaluato...">
<polygon fill="#fff0f0" stroke="red" points="3041,-129 2975,-129 2975,-110 3041,-110 3041,-129"/>
<text text-anchor="middle" x="3008" y="-117" font-family="Helvetica,sans-Serif" font-size="10.00">Transport.h</text>
</a>
</g>
</g>
<!-- Node1&#45;&gt;Node307 -->
<g id="edge53" class="edge">
<title>Node1&#45;&gt;Node307</title>
<path fill="none" stroke="#63b8ff" d="M2099.75,-173.72C2238.84,-173.75 2637.67,-169.95 2966,-129 2968.81,-128.65 2971.7,-128.22 2974.6,-127.73"/>
<polygon fill="#63b8ff" stroke="#63b8ff" points="2099.41,-170.22 2089.41,-173.71 2099.41,-177.22 2099.41,-170.22"/>
</g>
<!-- Node125 -->
<g id="node41" class="node">
<title>Node125</title>
<g id="a_node41"><a xlink:href="../../da/dc7/TransportData_8cpp.html" target="_top" xlink:title=" ">
<polygon fill="white" stroke="#666666" points="3157,-129 3059,-129 3059,-110 3157,-110 3157,-129"/>
<text text-anchor="middle" x="3108" y="-117" font-family="Helvetica,sans-Serif" font-size="10.00">TransportData.cpp</text>
</a>
</g>
</g>
<!-- Node1&#45;&gt;Node125 -->
<g id="edge54" class="edge">
<title>Node1&#45;&gt;Node125</title>
<path fill="none" stroke="#63b8ff" d="M2099.2,-173.06C2245.89,-171.39 2686.41,-163.64 3050,-129 3052.94,-128.72 3055.95,-128.39 3058.99,-128.04"/>
<polygon fill="#63b8ff" stroke="#63b8ff" points="2099.11,-169.56 2089.15,-173.17 2099.19,-176.56 2099.11,-169.56"/>
</g>
<!-- Node311 -->
<g id="node42" class="node">
<title>Node311</title>
<g id="a_node42"><a xlink:href="../../d4/d76/WaterPropsIAPWS_8cpp.html" target="_top" xlink:title="Definitions for a class for calculating the equation of state of water from the IAPWS 1995 Formulatio...">
<polygon fill="white" stroke="#666666" points="3294.5,-129 3175.5,-129 3175.5,-110 3294.5,-110 3294.5,-129"/>
<text text-anchor="middle" x="3235" y="-117" font-family="Helvetica,sans-Serif" font-size="10.00">WaterPropsIAPWS.cpp</text>
</a>
</g>
</g>
<!-- Node1&#45;&gt;Node311 -->
<g id="edge57" class="edge">
<title>Node1&#45;&gt;Node311</title>
<path fill="none" stroke="#63b8ff" d="M2099.48,-172.98C2257.27,-171.02 2755.19,-162.43 3166,-129 3169.01,-128.76 3172.09,-128.48 3175.19,-128.17"/>
<polygon fill="#63b8ff" stroke="#63b8ff" points="2099.1,-169.48 2089.14,-173.1 2099.19,-176.48 2099.1,-169.48"/>
</g>
<!-- Node238 -->
<g id="node43" class="node">
<title>Node238</title>
<g id="a_node43"><a xlink:href="../../df/d7b/application_8cpp.html" target="_top" xlink:title=" ">
<polygon fill="white" stroke="#666666" points="3395,-129 3313,-129 3313,-110 3395,-110 3395,-129"/>
<text text-anchor="middle" x="3354" y="-117" font-family="Helvetica,sans-Serif" font-size="10.00">application.cpp</text>
</a>
</g>
</g>
<!-- Node1&#45;&gt;Node238 -->
<g id="edge58" class="edge">
<title>Node1&#45;&gt;Node238</title>
<path fill="none" stroke="#63b8ff" d="M2099.09,-172.61C2302.11,-168.89 3064.17,-153.53 3304,-129 3306.89,-128.7 3309.87,-128.34 3312.86,-127.94"/>
<polygon fill="#63b8ff" stroke="#63b8ff" points="2098.95,-169.12 2089.02,-172.8 2099.08,-176.12 2098.95,-169.12"/>
</g>
<!-- Node312 -->
<g id="node44" class="node">
<title>Node312</title>
<g id="a_node44"><a xlink:href="../../db/d20/checkFinite_8cpp.html" target="_top" xlink:title="Declarations for routines that check for the presence of NaNs in the code.">
<polygon fill="white" stroke="#666666" points="3499,-129 3413,-129 3413,-110 3499,-110 3499,-129"/>
<text text-anchor="middle" x="3456" y="-117" font-family="Helvetica,sans-Serif" font-size="10.00">checkFinite.cpp</text>
</a>
</g>
</g>
<!-- Node1&#45;&gt;Node312 -->
<g id="edge59" class="edge">
<title>Node1&#45;&gt;Node312</title>
<path fill="none" stroke="#63b8ff" d="M2099.52,-172.72C2313.18,-169.26 3143.54,-154.46 3404,-129 3406.91,-128.72 3409.91,-128.37 3412.93,-127.98"/>
<polygon fill="#63b8ff" stroke="#63b8ff" points="2099.17,-169.22 2089.23,-172.88 2099.29,-176.22 2099.17,-169.22"/>
</g>
<!-- Node313 -->
<g id="node45" class="node">
<title>Node313</title>
<g id="a_node45"><a xlink:href="../../d8/d96/ctexceptions_8cpp.html" target="_top" xlink:title=" ">
<polygon fill="white" stroke="#666666" points="3608.5,-129 3517.5,-129 3517.5,-110 3608.5,-110 3608.5,-129"/>
<text text-anchor="middle" x="3563" y="-117" font-family="Helvetica,sans-Serif" font-size="10.00">ctexceptions.cpp</text>
</a>
</g>
</g>
<!-- Node1&#45;&gt;Node313 -->
<g id="edge60" class="edge">
<title>Node1&#45;&gt;Node313</title>
<path fill="none" stroke="#63b8ff" d="M2099.34,-172.8C2322.73,-169.54 3225.75,-155.02 3508,-129 3511.08,-128.72 3514.25,-128.37 3517.43,-127.98"/>
<polygon fill="#63b8ff" stroke="#63b8ff" points="2099.17,-169.3 2089.22,-172.94 2099.27,-176.3 2099.17,-169.3"/>
</g>
<!-- Node314 -->
<g id="node46" class="node">
<title>Node314</title>
<g id="a_node46"><a xlink:href="../../d9/dc7/funcs_8cpp.html" target="_top" xlink:title="file containing miscellaneous numerical functions.">
<polygon fill="white" stroke="#666666" points="3685.5,-129 3626.5,-129 3626.5,-110 3685.5,-110 3685.5,-129"/>
<text text-anchor="middle" x="3656" y="-117" font-family="Helvetica,sans-Serif" font-size="10.00">funcs.cpp</text>
</a>
</g>
</g>
<!-- Node1&#45;&gt;Node314 -->
<g id="edge63" class="edge">
<title>Node1&#45;&gt;Node314</title>
<path fill="none" stroke="#63b8ff" d="M2099.32,-173.37C2333.02,-172.57 3313.9,-166.97 3618,-129 3620.68,-128.66 3623.46,-128.23 3626.22,-127.73"/>
<polygon fill="#63b8ff" stroke="#63b8ff" points="2099.07,-169.87 2089.08,-173.4 2099.09,-176.87 2099.07,-169.87"/>
</g>
<!-- Node315 -->
<g id="node47" class="node">
<title>Node315</title>
<g id="a_node47"><a xlink:href="../../d0/de1/polyfit_8cpp.html" target="_top" xlink:title=" ">
<polygon fill="white" stroke="#666666" points="3766,-129 3704,-129 3704,-110 3766,-110 3766,-129"/>
<text text-anchor="middle" x="3735" y="-117" font-family="Helvetica,sans-Serif" font-size="10.00">polyfit.cpp</text>
</a>
</g>
</g>
<!-- Node1&#45;&gt;Node315 -->
<g id="edge64" class="edge">
<title>Node1&#45;&gt;Node315</title>
<path fill="none" stroke="#63b8ff" d="M2099.43,-173.38C2340.25,-172.59 3374.73,-167.04 3695,-129 3697.82,-128.67 3700.74,-128.23 3703.65,-127.73"/>
<polygon fill="#63b8ff" stroke="#63b8ff" points="2099.21,-169.88 2089.22,-173.41 2099.23,-176.88 2099.21,-169.88"/>
</g>
<!-- Node316 -->
<g id="node48" class="node">
<title>Node316</title>
<g id="a_node48"><a xlink:href="../../d5/d22/stringUtils_8cpp.html" target="_top" xlink:title="Contains definitions for string manipulation functions within Cantera.">
<polygon fill="white" stroke="#666666" points="3864,-129 3784,-129 3784,-110 3864,-110 3864,-129"/>
<text text-anchor="middle" x="3824" y="-117" font-family="Helvetica,sans-Serif" font-size="10.00">stringUtils.cpp</text>
</a>
</g>
</g>
<!-- Node1&#45;&gt;Node316 -->
<g id="edge65" class="edge">
<title>Node1&#45;&gt;Node316</title>
<path fill="none" stroke="#63b8ff" d="M2099.43,-173.19C2347.23,-171.54 3437.37,-162.46 3775,-129 3777.92,-128.71 3780.93,-128.35 3783.95,-127.94"/>
<polygon fill="#63b8ff" stroke="#63b8ff" points="2099.26,-169.7 2089.28,-173.26 2099.3,-176.7 2099.26,-169.7"/>
</g>
<!-- Node198 -->
<g id="node49" class="node">
<title>Node198</title>
<g id="a_node49"><a xlink:href="../../dc/d88/vcs__solve_8cpp.html" target="_top" xlink:title=" ">
<polygon fill="white" stroke="#666666" points="3962,-129 3882,-129 3882,-110 3962,-110 3962,-129"/>
<text text-anchor="middle" x="3922" y="-117" font-family="Helvetica,sans-Serif" font-size="10.00">vcs_solve.cpp</text>
</a>
</g>
</g>
<!-- Node1&#45;&gt;Node198 -->
<g id="edge66" class="edge">
<title>Node1&#45;&gt;Node198</title>
<path fill="none" stroke="#63b8ff" d="M2099.38,-173.28C2355.48,-171.98 3514.85,-164.24 3873,-129 3875.92,-128.71 3878.93,-128.35 3881.95,-127.94"/>
<polygon fill="#63b8ff" stroke="#63b8ff" points="2099.24,-169.78 2089.25,-173.33 2099.27,-176.78 2099.24,-169.78"/>
</g>
<!-- Node317 -->
<g id="node50" class="node">
<title>Node317</title>
<g id="a_node50"><a xlink:href="../../da/ddf/vcs__util_8cpp.html" target="_top" xlink:title="Internal definitions for utility functions for the VCSnonideal package.">
<polygon fill="white" stroke="#666666" points="4049.5,-129 3980.5,-129 3980.5,-110 4049.5,-110 4049.5,-129"/>
<text text-anchor="middle" x="4015" y="-117" font-family="Helvetica,sans-Serif" font-size="10.00">vcs_util.cpp</text>
</a>
</g>
</g>
<!-- Node1&#45;&gt;Node317 -->
<g id="edge68" class="edge">
<title>Node1&#45;&gt;Node317</title>
<path fill="none" stroke="#63b8ff" d="M2099.1,-173.48C2362.85,-173.19 3592.55,-169.65 3971,-129 3974.09,-128.67 3977.3,-128.23 3980.5,-127.73"/>
<polygon fill="#63b8ff" stroke="#63b8ff" points="2099.05,-169.98 2089.05,-173.49 2099.05,-176.98 2099.05,-169.98"/>
</g>
<!-- Node3 -->
<g id="node3" class="node">
<title>Node3</title>
<g id="a_node3"><a xlink:href="../../de/dfc/AnyMap_8cpp.html" target="_top" xlink:title=" ">
<polygon fill="white" stroke="#666666" points="328.5,-74 257.5,-74 257.5,-55 328.5,-55 328.5,-74"/>
<text text-anchor="middle" x="293" y="-62" font-family="Helvetica,sans-Serif" font-size="10.00">AnyMap.cpp</text>
</a>
</g>
</g>
<!-- Node2&#45;&gt;Node3 -->
<g id="edge2" class="edge">
<title>Node2&#45;&gt;Node3</title>
<path fill="none" stroke="#63b8ff" d="M551.36,-111.55C501.19,-102.93 413.25,-87.7 338,-74 335.03,-73.46 331.95,-72.89 328.85,-72.32"/>
<polygon fill="#63b8ff" stroke="#63b8ff" points="551.03,-115.05 561.48,-113.29 552.22,-108.15 551.03,-115.05"/>
</g>
<!-- Node4 -->
<g id="node4" class="node">
<title>Node4</title>
<g id="a_node4"><a xlink:href="../../da/d4c/AnyMap_8inl_8h.html" target="_top" xlink:title=" ">
<polygon fill="white" stroke="#666666" points="421,-74 347,-74 347,-55 421,-55 421,-74"/>
<text text-anchor="middle" x="384" y="-62" font-family="Helvetica,sans-Serif" font-size="10.00">AnyMap.inl.h</text>
</a>
</g>
</g>
<!-- Node2&#45;&gt;Node4 -->
<g id="edge3" class="edge">
<title>Node2&#45;&gt;Node4</title>
<path fill="none" stroke="#63b8ff" d="M551.5,-109.51C510.51,-99.59 448.4,-83.76 412.37,-74.03"/>
<polygon fill="#63b8ff" stroke="#63b8ff" points="550.89,-112.96 561.43,-111.89 552.53,-106.16 550.89,-112.96"/>
</g>
<!-- Node5 -->
<g id="node5" class="node">
<title>Node5</title>
<g id="a_node5"><a xlink:href="../../df/d8c/ConstCpPoly_8cpp.html" target="_top" xlink:title="Declarations for the SpeciesThermoInterpType &#160;object that employs a constant heat capacity assumption...">
<polygon fill="white" stroke="#666666" points="531,-74 439,-74 439,-55 531,-55 531,-74"/>
<text text-anchor="middle" x="485" y="-62" font-family="Helvetica,sans-Serif" font-size="10.00">ConstCpPoly.cpp</text>
</a>
</g>
</g>
<!-- Node2&#45;&gt;Node5 -->
<g id="edge5" class="edge">
<title>Node2&#45;&gt;Node5</title>
<path fill="none" stroke="#63b8ff" d="M565.76,-105.5C546.07,-95.75 519.68,-82.68 502.5,-74.17"/>
<polygon fill="#63b8ff" stroke="#63b8ff" points="564.29,-108.68 574.81,-109.98 567.4,-102.41 564.29,-108.68"/>
</g>
<!-- Node6 -->
<g id="node6" class="node">
<title>Node6</title>
<g id="a_node6"><a xlink:href="../../dc/d9c/Domain1D_8cpp.html" target="_top" xlink:title=" ">
<polygon fill="white" stroke="#666666" points="1048,-74 966,-74 966,-55 1048,-55 1048,-74"/>
<text text-anchor="middle" x="1007" y="-62" font-family="Helvetica,sans-Serif" font-size="10.00">Domain1D.cpp</text>
</a>
</g>
</g>
<!-- Node2&#45;&gt;Node6 -->
<g id="edge6" class="edge">
<title>Node2&#45;&gt;Node6</title>
<path fill="none" stroke="#63b8ff" d="M632.94,-114.08C700.39,-106.67 839.07,-90.88 956,-74 959.2,-73.54 962.51,-73.04 965.83,-72.52"/>
<polygon fill="#63b8ff" stroke="#63b8ff" points="632.3,-110.63 622.74,-115.2 633.06,-117.59 632.3,-110.63"/>
</g>
<!-- Node2&#45;&gt;Node7 -->
<g id="edge7" class="edge">
<title>Node2&#45;&gt;Node7</title>
<path fill="none" stroke="#63b8ff" d="M551.21,-116.74C463.13,-112.57 248.76,-100.37 71,-74 68.19,-73.58 65.28,-73.09 62.38,-72.55"/>
<polygon fill="#63b8ff" stroke="#63b8ff" points="551.16,-120.24 561.31,-117.21 551.48,-113.25 551.16,-120.24"/>
</g>
<!-- Node8 -->
<g id="node8" class="node">
<title>Node8</title>
<g id="a_node8"><a xlink:href="../../d8/d97/Integrator_8h.html" target="_top" xlink:title=" ">
<polygon fill="#fff0f0" stroke="red" points="1207.5,-74 1142.5,-74 1142.5,-55 1207.5,-55 1207.5,-74"/>
<text text-anchor="middle" x="1175" y="-62" font-family="Helvetica,sans-Serif" font-size="10.00">Integrator.h</text>
</a>
</g>
</g>
<!-- Node2&#45;&gt;Node8 -->
<g id="edge8" class="edge">
<title>Node2&#45;&gt;Node8</title>
<path fill="none" stroke="#63b8ff" d="M632.51,-114.82C742.04,-104.86 1042.48,-77.55 1142.29,-68.47"/>
<polygon fill="#63b8ff" stroke="#63b8ff" points="632.17,-111.33 622.52,-115.73 632.8,-118.31 632.17,-111.33"/>
</g>
<!-- Node2&#45;&gt;Node27 -->
<g id="edge11" class="edge">
<title>Node2&#45;&gt;Node27</title>
<path fill="none" stroke="#63b8ff" d="M550.98,-113.47C477.01,-104.39 320.52,-85.19 229.54,-74.03"/>
<polygon fill="#63b8ff" stroke="#63b8ff" points="550.93,-116.99 561.28,-114.73 551.78,-110.04 550.93,-116.99"/>
</g>
<!-- Node2&#45;&gt;Node70 -->
<g id="edge12" class="edge">
<title>Node2&#45;&gt;Node70</title>
<path fill="none" stroke="#63b8ff" d="M592,-99.66C592,-90.93 592,-80.99 592,-74.09"/>
<polygon fill="#63b8ff" stroke="#63b8ff" points="588.5,-99.75 592,-109.75 595.5,-99.75 588.5,-99.75"/>
</g>
<!-- Node2&#45;&gt;Node101 -->
<g id="edge13" class="edge">
<title>Node2&#45;&gt;Node101</title>
<path fill="none" stroke="#63b8ff" d="M615.7,-104.7C632.28,-95.04 653.91,-82.44 668.11,-74.17"/>
<polygon fill="#63b8ff" stroke="#63b8ff" points="613.5,-101.93 606.62,-109.98 617.02,-107.98 613.5,-101.93"/>
</g>
<!-- Node2&#45;&gt;Node127 -->
<g id="edge14" class="edge">
<title>Node2&#45;&gt;Node127</title>
<path fill="none" stroke="#63b8ff" d="M632.61,-108.2C671.83,-98.26 730.54,-83.37 767.26,-74.06"/>
<polygon fill="#63b8ff" stroke="#63b8ff" points="631.67,-104.83 622.84,-110.68 633.39,-111.61 631.67,-104.83"/>
</g>
<!-- Node2&#45;&gt;Node204 -->
<g id="edge16" class="edge">
<title>Node2&#45;&gt;Node204</title>
<path fill="none" stroke="#63b8ff" d="M632.87,-112.96C688.65,-105.22 791.69,-90.27 879,-74 882,-73.44 885.12,-72.82 888.23,-72.18"/>
<polygon fill="#63b8ff" stroke="#63b8ff" points="632.11,-109.53 622.69,-114.37 633.07,-116.47 632.11,-109.53"/>
</g>
<!-- Node4&#45;&gt;Node2 -->
<g id="edge4" class="edge">
<title>Node4&#45;&gt;Node2</title>
<path fill="none" stroke="#63b8ff" d="M430.74,-76.01C471.6,-85.96 529.45,-100.74 563.7,-109.98"/>
<polygon fill="#63b8ff" stroke="#63b8ff" points="431.54,-72.6 421,-73.65 429.9,-79.4 431.54,-72.6"/>
</g>
<!-- Node8&#45;&gt;Node9 -->
<g id="edge9" class="edge">
<title>Node8&#45;&gt;Node9</title>
<path fill="none" stroke="#63b8ff" d="M1164.82,-46.1C1159.53,-37.04 1153.28,-26.37 1149.02,-19.09"/>
<polygon fill="#63b8ff" stroke="#63b8ff" points="1161.81,-47.88 1169.88,-54.75 1167.85,-44.35 1161.81,-47.88"/>
</g>
<!-- Node8&#45;&gt;Node12 -->
<g id="edge10" class="edge">
<title>Node8&#45;&gt;Node12</title>
<path fill="none" stroke="#63b8ff" d="M1217.86,-57.7C1293.46,-47.48 1449.56,-26.38 1524.73,-16.21"/>
<polygon fill="#63b8ff" stroke="#63b8ff" points="1217.19,-54.26 1207.75,-59.07 1218.13,-61.2 1217.19,-54.26"/>
</g>
<!-- Node127&#45;&gt;Node121 -->
<g id="edge15" class="edge">
<title>Node127&#45;&gt;Node121</title>
<path fill="none" stroke="#63b8ff" d="M832.1,-51.29C857.12,-41.47 891.66,-27.91 913.92,-19.17"/>
<polygon fill="#63b8ff" stroke="#63b8ff" points="830.72,-48.07 822.69,-54.98 833.28,-54.59 830.72,-48.07"/>
</g>
<!-- Node208&#45;&gt;Node224 -->
<g id="edge20" class="edge">
<title>Node208&#45;&gt;Node224</title>
<path fill="none" stroke="#63b8ff" d="M1415.84,-101.1C1410.03,-92.04 1403.18,-81.37 1398.51,-74.09"/>
<polygon fill="#63b8ff" stroke="#63b8ff" points="1413.04,-103.22 1421.39,-109.75 1418.93,-99.44 1413.04,-103.22"/>
</g>
<!-- Node225&#45;&gt;Node6 -->
<g id="edge22" class="edge">
<title>Node225&#45;&gt;Node6</title>
<path fill="none" stroke="#63b8ff" d="M1007,-99.66C1007,-90.93 1007,-80.99 1007,-74.09"/>
<polygon fill="#63b8ff" stroke="#63b8ff" points="1003.5,-99.75 1007,-109.75 1010.5,-99.75 1003.5,-99.75"/>
</g>
<!-- Node234&#45;&gt;Node207 -->
<g id="edge25" class="edge">
<title>Node234&#45;&gt;Node207</title>
<path fill="none" stroke="#63b8ff" d="M1654.12,-104.15C1668.21,-94.57 1686.29,-82.29 1698.24,-74.17"/>
<polygon fill="#63b8ff" stroke="#63b8ff" points="1651.84,-101.47 1645.53,-109.98 1655.77,-107.26 1651.84,-101.47"/>
</g>
<!-- Node253&#45;&gt;Node254 -->
<g id="edge29" class="edge">
<title>Node253&#45;&gt;Node254</title>
<path fill="none" stroke="#63b8ff" d="M1924.24,-100.24C1927.75,-91.37 1931.8,-81.14 1934.6,-74.09"/>
<polygon fill="#63b8ff" stroke="#63b8ff" points="1920.9,-99.16 1920.47,-109.75 1927.41,-101.74 1920.9,-99.16"/>
</g>
<!-- Node257&#45;&gt;Node256 -->
<g id="edge32" class="edge">
<title>Node257&#45;&gt;Node256</title>
<path fill="none" stroke="#63b8ff" d="M2070.75,-99.95C2068.26,-91.15 2065.4,-81.06 2063.43,-74.09"/>
<polygon fill="#63b8ff" stroke="#63b8ff" points="2067.43,-101.08 2073.52,-109.75 2074.17,-99.17 2067.43,-101.08"/>
</g>
<!-- Node257&#45;&gt;Node258 -->
<g id="edge33" class="edge">
<title>Node257&#45;&gt;Node258</title>
<path fill="none" stroke="#63b8ff" d="M2112.38,-109.7C2172.31,-95.66 2231.2,-82.4 2268.65,-74.03"/>
<polygon fill="#63b8ff" stroke="#63b8ff" points="2111.3,-106.36 2102.36,-112.05 2112.9,-113.17 2111.3,-106.36"/>
</g>
<!-- Node259&#45;&gt;Node8 -->
<g id="edge35" class="edge">
<title>Node259&#45;&gt;Node8</title>
<path fill="none" stroke="#63b8ff" d="M1171.78,-99.66C1172.6,-90.93 1173.54,-80.99 1174.19,-74.09"/>
<polygon fill="#63b8ff" stroke="#63b8ff" points="1168.28,-99.46 1170.83,-109.75 1175.25,-100.12 1168.28,-99.46"/>
</g>
<!-- Node266&#45;&gt;Node8 -->
<g id="edge42" class="edge">
<title>Node266&#45;&gt;Node8</title>
<path fill="none" stroke="#63b8ff" d="M1250.72,-105.23C1232.2,-95.51 1207.58,-82.6 1191.52,-74.17"/>
<polygon fill="#63b8ff" stroke="#63b8ff" points="1249.29,-108.44 1259.77,-109.98 1252.54,-102.24 1249.29,-108.44"/>
</g>
<!-- Node270&#45;&gt;Node281 -->
<g id="edge46" class="edge">
<title>Node270&#45;&gt;Node281</title>
<path fill="none" stroke="#63b8ff" d="M2633.16,-101.1C2638.97,-92.04 2645.82,-81.37 2650.49,-74.09"/>
<polygon fill="#63b8ff" stroke="#63b8ff" points="2630.07,-99.44 2627.61,-109.75 2635.96,-103.22 2630.07,-99.44"/>
</g>
</g>
</svg>
