<?xml version="1.0" encoding="UTF-8" standalone="no"?>
<!DOCTYPE svg PUBLIC "-//W3C//DTD SVG 1.1//EN"
 "http://www.w3.org/Graphics/SVG/1.1/DTD/svg11.dtd">
<!-- Generated by graphviz version 2.43.0 (0)
 -->
<!-- Title: FlowDevice.cpp Pages: 1 -->
<svg width="1143pt" height="467pt"
 viewBox="0.00 0.00 1142.50 467.00" xmlns="http://www.w3.org/2000/svg" xmlns:xlink="http://www.w3.org/1999/xlink">
<g id="graph0" class="graph" transform="scale(1 1) rotate(0) translate(4 463)">
<title>FlowDevice.cpp</title>
<!-- Node1 -->
<g id="Node000001" class="node">
<title>Node1</title>
<g id="a_Node000001"><a xlink:title=" ">
<polygon fill="#999999" stroke="#666666" points="697.5,-459 603.5,-459 603.5,-440 697.5,-440 697.5,-459"/>
<text text-anchor="middle" x="650.5" y="-447" font-family="Helvetica,sans-Serif" font-size="10.00">FlowDevice.cpp</text>
</a>
</g>
</g>
<!-- Node2 -->
<g id="Node000002" class="node">
<title>Node2</title>
<g id="a_Node000002"><a xlink:href="../../d5/dff/FlowDevice_8h.html" target="_top" xlink:title=" ">
<polygon fill="white" stroke="#666666" points="426.5,-239 272.5,-239 272.5,-220 426.5,-220 426.5,-239"/>
<text text-anchor="middle" x="349.5" y="-227" font-family="Helvetica,sans-Serif" font-size="10.00">cantera/zeroD/FlowDevice.h</text>
</a>
</g>
</g>
<!-- Node1&#45;&gt;Node2 -->
<g id="edge1_Node000001_Node000002" class="edge">
<title>Node1&#45;&gt;Node2</title>
<g id="a_edge1_Node000001_Node000002"><a xlink:title=" ">
<path fill="none" stroke="#63b8ff" d="M638.7,-439.95C593.1,-406.93 428.04,-287.38 369.92,-245.29"/>
<polygon fill="#63b8ff" stroke="#63b8ff" points="371.7,-242.25 361.55,-239.22 367.59,-247.92 371.7,-242.25"/>
</a>
</g>
</g>
<!-- Node21 -->
<g id="Node000021" class="node">
<title>Node21</title>
<g id="a_Node000021"><a xlink:href="../../d6/df1/ReactorBase_8h.html" target="_top" xlink:title=" ">
<polygon fill="white" stroke="#666666" points="602.5,-239 444.5,-239 444.5,-220 602.5,-220 602.5,-239"/>
<text text-anchor="middle" x="523.5" y="-227" font-family="Helvetica,sans-Serif" font-size="10.00">cantera/zeroD/ReactorBase.h</text>
</a>
</g>
</g>
<!-- Node1&#45;&gt;Node21 -->
<g id="edge24_Node000001_Node000021" class="edge">
<title>Node1&#45;&gt;Node21</title>
<g id="a_edge24_Node000001_Node000021"><a xlink:title=" ">
<path fill="none" stroke="#63b8ff" d="M645.52,-439.95C626.68,-407.61 559.48,-292.26 533.69,-247.98"/>
<polygon fill="#63b8ff" stroke="#63b8ff" points="536.64,-246.1 528.58,-239.22 530.59,-249.63 536.64,-246.1"/>
</a>
</g>
</g>
<!-- Node22 -->
<g id="Node000022" class="node">
<title>Node22</title>
<g id="a_Node000022"><a xlink:href="../../d7/d01/ThermoPhase_8h.html" target="_top" xlink:title="Header file for class ThermoPhase, the base class for phases with thermodynamic properties,...">
<polygon fill="white" stroke="#666666" points="861.5,-404 691.5,-404 691.5,-385 861.5,-385 861.5,-404"/>
<text text-anchor="middle" x="776.5" y="-392" font-family="Helvetica,sans-Serif" font-size="10.00">cantera/thermo/ThermoPhase.h</text>
</a>
</g>
</g>
<!-- Node1&#45;&gt;Node22 -->
<g id="edge27_Node000001_Node000022" class="edge">
<title>Node1&#45;&gt;Node22</title>
<g id="a_edge27_Node000001_Node000022"><a xlink:title=" ">
<path fill="none" stroke="#63b8ff" d="M670.74,-439.98C691.2,-431.38 723.03,-417.99 746.43,-408.15"/>
<polygon fill="#63b8ff" stroke="#63b8ff" points="748.03,-411.27 755.89,-404.17 745.31,-404.82 748.03,-411.27"/>
</a>
</g>
</g>
<!-- Node35 -->
<g id="Node000035" class="node">
<title>Node35</title>
<g id="a_Node000035"><a xlink:href="../../d2/d9e/Func1_8h.html" target="_top" xlink:title=" ">
<polygon fill="white" stroke="#666666" points="1134.5,-239 992.5,-239 992.5,-220 1134.5,-220 1134.5,-239"/>
<text text-anchor="middle" x="1063.5" y="-227" font-family="Helvetica,sans-Serif" font-size="10.00">cantera/numerics/Func1.h</text>
</a>
</g>
</g>
<!-- Node1&#45;&gt;Node35 -->
<g id="edge46_Node000001_Node000035" class="edge">
<title>Node1&#45;&gt;Node35</title>
<g id="a_edge46_Node000001_Node000035"><a xlink:title=" ">
<path fill="none" stroke="#63b8ff" d="M697.92,-446.13C744.13,-442.19 815.32,-431.75 870.5,-404 950.28,-363.88 1022.22,-281.88 1050.63,-246.9"/>
<polygon fill="#63b8ff" stroke="#63b8ff" points="1053.38,-249.07 1056.89,-239.08 1047.91,-244.7 1053.38,-249.07"/>
</a>
</g>
</g>
<!-- Node3 -->
<g id="Node000003" class="node">
<title>Node3</title>
<g id="a_Node000003"><a xlink:href="../../d9/ddc/ct__defs_8h.html" target="_top" xlink:title="This file contains definitions of constants, types and terms that are used in internal routines and a...">
<polygon fill="white" stroke="#666666" points="744,-74 617,-74 617,-55 744,-55 744,-74"/>
<text text-anchor="middle" x="680.5" y="-62" font-family="Helvetica,sans-Serif" font-size="10.00">cantera/base/ct_defs.h</text>
</a>
</g>
</g>
<!-- Node2&#45;&gt;Node3 -->
<g id="edge2_Node000002_Node000003" class="edge">
<title>Node2&#45;&gt;Node3</title>
<g id="a_edge2_Node000002_Node000003"><a xlink:title=" ">
<path fill="none" stroke="#63b8ff" d="M333.47,-219.96C313.61,-208.21 283.96,-186.11 297.5,-165 330.73,-113.22 504.92,-85.19 606.58,-73.02"/>
<polygon fill="#63b8ff" stroke="#63b8ff" points="607.26,-76.47 616.78,-71.83 606.44,-69.52 607.26,-76.47"/>
</a>
</g>
</g>
<!-- Node14 -->
<g id="Node000014" class="node">
<title>Node14</title>
<g id="a_Node000014"><a xlink:href="../../d2/d49/global_8h.html" target="_top" xlink:title="This file contains definitions for utility functions and text for modules, inputfiles and logging,...">
<polygon fill="white" stroke="#666666" points="428.5,-184 306.5,-184 306.5,-165 428.5,-165 428.5,-184"/>
<text text-anchor="middle" x="367.5" y="-172" font-family="Helvetica,sans-Serif" font-size="10.00">cantera/base/global.h</text>
</a>
</g>
</g>
<!-- Node2&#45;&gt;Node14 -->
<g id="edge13_Node000002_Node000014" class="edge">
<title>Node2&#45;&gt;Node14</title>
<g id="a_edge13_Node000002_Node000014"><a xlink:title=" ">
<path fill="none" stroke="#63b8ff" d="M352.47,-219.75C354.86,-212.72 358.29,-202.62 361.27,-193.84"/>
<polygon fill="#63b8ff" stroke="#63b8ff" points="364.68,-194.68 364.58,-184.09 358.05,-192.43 364.68,-194.68"/>
</a>
</g>
</g>
<!-- Node19 -->
<g id="Node000019" class="node">
<title>Node19</title>
<g id="a_Node000019"><a xlink:href="../../db/d98/ctexceptions_8h.html" target="_top" xlink:title="Definitions for the classes that are thrown when Cantera experiences an error condition (also contain...">
<polygon fill="white" stroke="#666666" points="600.5,-184 446.5,-184 446.5,-165 600.5,-165 600.5,-184"/>
<text text-anchor="middle" x="523.5" y="-172" font-family="Helvetica,sans-Serif" font-size="10.00">cantera/base/ctexceptions.h</text>
</a>
</g>
</g>
<!-- Node2&#45;&gt;Node19 -->
<g id="edge20_Node000002_Node000019" class="edge">
<title>Node2&#45;&gt;Node19</title>
<g id="a_edge20_Node000002_Node000019"><a xlink:title=" ">
<path fill="none" stroke="#63b8ff" d="M377.46,-219.98C406.8,-211.05 453.1,-196.94 485.69,-187.02"/>
<polygon fill="#63b8ff" stroke="#63b8ff" points="486.78,-190.34 495.32,-184.08 484.74,-183.65 486.78,-190.34"/>
</a>
</g>
</g>
<!-- Node4 -->
<g id="Node000004" class="node">
<title>Node4</title>
<g id="a_Node000004"><a xlink:href="../../db/d16/config_8h_source.html" target="_top" xlink:title=" ">
<polygon fill="white" stroke="#666666" points="419,-19 364,-19 364,0 419,0 419,-19"/>
<text text-anchor="middle" x="391.5" y="-7" font-family="Helvetica,sans-Serif" font-size="10.00">config.h</text>
</a>
</g>
</g>
<!-- Node3&#45;&gt;Node4 -->
<g id="edge3_Node000003_Node000004" class="edge">
<title>Node3&#45;&gt;Node4</title>
<g id="a_edge3_Node000003_Node000004"><a xlink:title=" ">
<path fill="none" stroke="#63b8ff" d="M626.53,-54.94C577.4,-46.93 502.63,-34.22 429.25,-19.28"/>
<polygon fill="#63b8ff" stroke="#63b8ff" points="429.87,-15.83 419.37,-17.25 428.46,-22.69 429.87,-15.83"/>
</a>
</g>
</g>
<!-- Node5 -->
<g id="Node000005" class="node">
<title>Node5</title>
<g id="a_Node000005"><a xlink:title=" ">
<polygon fill="#e0e0e0" stroke="#999999" points="484,-19 437,-19 437,0 484,0 484,-19"/>
<text text-anchor="middle" x="460.5" y="-7" font-family="Helvetica,sans-Serif" font-size="10.00">cmath</text>
</a>
</g>
</g>
<!-- Node3&#45;&gt;Node5 -->
<g id="edge4_Node000003_Node000005" class="edge">
<title>Node3&#45;&gt;Node5</title>
<g id="a_edge4_Node000003_Node000005"><a xlink:title=" ">
<path fill="none" stroke="#63b8ff" d="M642.97,-54.93C607.05,-46.66 551.09,-33.6 494.14,-19.37"/>
<polygon fill="#63b8ff" stroke="#63b8ff" points="494.8,-15.92 484.25,-16.88 493.09,-22.71 494.8,-15.92"/>
</a>
</g>
</g>
<!-- Node6 -->
<g id="Node000006" class="node">
<title>Node6</title>
<g id="a_Node000006"><a xlink:title=" ">
<polygon fill="#e0e0e0" stroke="#999999" points="551,-19 502,-19 502,0 551,0 551,-19"/>
<text text-anchor="middle" x="526.5" y="-7" font-family="Helvetica,sans-Serif" font-size="10.00">cstdlib</text>
</a>
</g>
</g>
<!-- Node3&#45;&gt;Node6 -->
<g id="edge5_Node000003_Node000006" class="edge">
<title>Node3&#45;&gt;Node6</title>
<g id="a_edge5_Node000003_Node000006"><a xlink:title=" ">
<path fill="none" stroke="#63b8ff" d="M655.76,-54.98C630.05,-46.14 589.63,-32.23 560.84,-22.32"/>
<polygon fill="#63b8ff" stroke="#63b8ff" points="561.78,-18.94 551.18,-18.99 559.5,-25.56 561.78,-18.94"/>
</a>
</g>
</g>
<!-- Node7 -->
<g id="Node000007" class="node">
<title>Node7</title>
<g id="a_Node000007"><a xlink:title=" ">
<polygon fill="#e0e0e0" stroke="#999999" points="616,-19 569,-19 569,0 616,0 616,-19"/>
<text text-anchor="middle" x="592.5" y="-7" font-family="Helvetica,sans-Serif" font-size="10.00">vector</text>
</a>
</g>
</g>
<!-- Node3&#45;&gt;Node7 -->
<g id="edge6_Node000003_Node000007" class="edge">
<title>Node3&#45;&gt;Node7</title>
<g id="a_edge6_Node000003_Node000007"><a xlink:title=" ">
<path fill="none" stroke="#63b8ff" d="M666.36,-54.98C652.71,-46.77 631.81,-34.18 615.72,-24.49"/>
<polygon fill="#63b8ff" stroke="#63b8ff" points="617.27,-21.33 606.9,-19.17 613.66,-27.33 617.27,-21.33"/>
</a>
</g>
</g>
<!-- Node8 -->
<g id="Node000008" class="node">
<title>Node8</title>
<g id="a_Node000008"><a xlink:title=" ">
<polygon fill="#e0e0e0" stroke="#999999" points="672.5,-19 634.5,-19 634.5,0 672.5,0 672.5,-19"/>
<text text-anchor="middle" x="653.5" y="-7" font-family="Helvetica,sans-Serif" font-size="10.00">map</text>
</a>
</g>
</g>
<!-- Node3&#45;&gt;Node8 -->
<g id="edge7_Node000003_Node000008" class="edge">
<title>Node3&#45;&gt;Node8</title>
<g id="a_edge7_Node000003_Node000008"><a xlink:title=" ">
<path fill="none" stroke="#63b8ff" d="M676.04,-54.75C672.38,-47.57 667.09,-37.18 662.55,-28.27"/>
<polygon fill="#63b8ff" stroke="#63b8ff" points="665.53,-26.41 657.88,-19.09 659.3,-29.59 665.53,-26.41"/>
</a>
</g>
</g>
<!-- Node9 -->
<g id="Node000009" class="node">
<title>Node9</title>
<g id="a_Node000009"><a xlink:title=" ">
<polygon fill="#e0e0e0" stroke="#999999" points="722.5,-19 690.5,-19 690.5,0 722.5,0 722.5,-19"/>
<text text-anchor="middle" x="706.5" y="-7" font-family="Helvetica,sans-Serif" font-size="10.00">set</text>
</a>
</g>
</g>
<!-- Node3&#45;&gt;Node9 -->
<g id="edge8_Node000003_Node000009" class="edge">
<title>Node3&#45;&gt;Node9</title>
<g id="a_edge8_Node000003_Node000009"><a xlink:title=" ">
<path fill="none" stroke="#63b8ff" d="M684.79,-54.75C688.31,-47.57 693.41,-37.18 697.78,-28.27"/>
<polygon fill="#63b8ff" stroke="#63b8ff" points="701.02,-29.61 702.29,-19.09 694.74,-26.53 701.02,-29.61"/>
</a>
</g>
</g>
<!-- Node10 -->
<g id="Node000010" class="node">
<title>Node10</title>
<g id="a_Node000010"><a xlink:title=" ">
<polygon fill="#e0e0e0" stroke="#999999" points="784.5,-19 740.5,-19 740.5,0 784.5,0 784.5,-19"/>
<text text-anchor="middle" x="762.5" y="-7" font-family="Helvetica,sans-Serif" font-size="10.00">string</text>
</a>
</g>
</g>
<!-- Node3&#45;&gt;Node10 -->
<g id="edge9_Node000003_Node000010" class="edge">
<title>Node3&#45;&gt;Node10</title>
<g id="a_edge9_Node000003_Node000010"><a xlink:title=" ">
<path fill="none" stroke="#63b8ff" d="M693.67,-54.98C706.27,-46.84 725.5,-34.41 740.44,-24.76"/>
<polygon fill="#63b8ff" stroke="#63b8ff" points="742.59,-27.54 749.09,-19.17 738.79,-21.66 742.59,-27.54"/>
</a>
</g>
</g>
<!-- Node11 -->
<g id="Node000011" class="node">
<title>Node11</title>
<g id="a_Node000011"><a xlink:title=" ">
<polygon fill="#e0e0e0" stroke="#999999" points="866.5,-19 802.5,-19 802.5,0 866.5,0 866.5,-19"/>
<text text-anchor="middle" x="834.5" y="-7" font-family="Helvetica,sans-Serif" font-size="10.00">algorithm</text>
</a>
</g>
</g>
<!-- Node3&#45;&gt;Node11 -->
<g id="edge10_Node000003_Node000011" class="edge">
<title>Node3&#45;&gt;Node11</title>
<g id="a_edge10_Node000003_Node000011"><a xlink:title=" ">
<path fill="none" stroke="#63b8ff" d="M705.24,-54.98C730.87,-46.16 771.13,-32.31 799.91,-22.41"/>
<polygon fill="#63b8ff" stroke="#63b8ff" points="801.25,-25.65 809.56,-19.08 798.97,-19.03 801.25,-25.65"/>
</a>
</g>
</g>
<!-- Node12 -->
<g id="Node000012" class="node">
<title>Node12</title>
<g id="a_Node000012"><a xlink:title=" ">
<polygon fill="#e0e0e0" stroke="#999999" points="942.5,-19 884.5,-19 884.5,0 942.5,0 942.5,-19"/>
<text text-anchor="middle" x="913.5" y="-7" font-family="Helvetica,sans-Serif" font-size="10.00">memory</text>
</a>
</g>
</g>
<!-- Node3&#45;&gt;Node12 -->
<g id="edge11_Node000003_Node000012" class="edge">
<title>Node3&#45;&gt;Node12</title>
<g id="a_edge11_Node000003_Node000012"><a xlink:title=" ">
<path fill="none" stroke="#63b8ff" d="M717.94,-54.98C760.81,-45.23 830.73,-29.33 874.32,-19.41"/>
<polygon fill="#63b8ff" stroke="#63b8ff" points="875.3,-22.78 884.27,-17.15 873.74,-15.95 875.3,-22.78"/>
</a>
</g>
</g>
<!-- Node13 -->
<g id="Node000013" class="node">
<title>Node13</title>
<g id="a_Node000013"><a xlink:title=" ">
<polygon fill="#e0e0e0" stroke="#999999" points="1026,-19 961,-19 961,0 1026,0 1026,-19"/>
<text text-anchor="middle" x="993.5" y="-7" font-family="Helvetica,sans-Serif" font-size="10.00">functional</text>
</a>
</g>
</g>
<!-- Node3&#45;&gt;Node13 -->
<g id="edge12_Node000003_Node000013" class="edge">
<title>Node3&#45;&gt;Node13</title>
<g id="a_edge12_Node000003_Node000013"><a xlink:title=" ">
<path fill="none" stroke="#63b8ff" d="M736.14,-54.98C788.75,-46.78 870.15,-33.74 950.64,-19.1"/>
<polygon fill="#63b8ff" stroke="#63b8ff" points="951.76,-22.45 960.96,-17.21 950.5,-15.56 951.76,-22.45"/>
</a>
</g>
</g>
<!-- Node14&#45;&gt;Node3 -->
<g id="edge14_Node000014_Node000003" class="edge">
<title>Node14&#45;&gt;Node3</title>
<g id="a_edge14_Node000014_Node000003"><a xlink:title=" ">
<path fill="none" stroke="#63b8ff" d="M376.31,-164.98C391.15,-151.15 422.64,-123.94 454.5,-110 502.87,-88.84 561.45,-77.67 606.85,-71.81"/>
<polygon fill="#63b8ff" stroke="#63b8ff" points="607.42,-75.27 616.91,-70.57 606.56,-68.32 607.42,-75.27"/>
</a>
</g>
</g>
<!-- Node15 -->
<g id="Node000015" class="node">
<title>Node15</title>
<g id="a_Node000015"><a xlink:href="../../db/def/fmt_8h.html" target="_top" xlink:title="Wrapper for either system&#45;installed or local headers for fmt.">
<polygon fill="white" stroke="#666666" points="275,-129 166,-129 166,-110 275,-110 275,-129"/>
<text text-anchor="middle" x="220.5" y="-117" font-family="Helvetica,sans-Serif" font-size="10.00">cantera/base/fmt.h</text>
</a>
</g>
</g>
<!-- Node14&#45;&gt;Node15 -->
<g id="edge15_Node000014_Node000015" class="edge">
<title>Node14&#45;&gt;Node15</title>
<g id="a_edge15_Node000014_Node000015"><a xlink:title=" ">
<path fill="none" stroke="#63b8ff" d="M343.88,-164.98C319.6,-156.23 281.55,-142.51 254.13,-132.62"/>
<polygon fill="#63b8ff" stroke="#63b8ff" points="255.14,-129.27 244.55,-129.17 252.77,-135.85 255.14,-129.27"/>
</a>
</g>
</g>
<!-- Node15&#45;&gt;Node3 -->
<g id="edge16_Node000015_Node000003" class="edge">
<title>Node15&#45;&gt;Node3</title>
<g id="a_edge16_Node000015_Node000003"><a xlink:title=" ">
<path fill="none" stroke="#63b8ff" d="M275.11,-111.73C279.97,-111.14 284.83,-110.55 289.5,-110 399.88,-96.92 527.89,-82.49 606.53,-73.71"/>
<polygon fill="#63b8ff" stroke="#63b8ff" points="607.27,-77.15 616.82,-72.56 606.49,-70.2 607.27,-77.15"/>
</a>
</g>
</g>
<!-- Node16 -->
<g id="Node000016" class="node">
<title>Node16</title>
<g id="a_Node000016"><a xlink:title=" ">
<polygon fill="#e0e0e0" stroke="#999999" points="137,-74 0,-74 0,-55 137,-55 137,-74"/>
<text text-anchor="middle" x="68.5" y="-62" font-family="Helvetica,sans-Serif" font-size="10.00">cantera/ext/fmt/format.h</text>
</a>
</g>
</g>
<!-- Node15&#45;&gt;Node16 -->
<g id="edge17_Node000015_Node000016" class="edge">
<title>Node15&#45;&gt;Node16</title>
<g id="a_edge17_Node000015_Node000016"><a xlink:title=" ">
<path fill="none" stroke="#63b8ff" d="M196.08,-109.98C170.78,-101.16 131.05,-87.31 102.64,-77.41"/>
<polygon fill="#63b8ff" stroke="#63b8ff" points="103.71,-74.07 93.11,-74.08 101.4,-80.68 103.71,-74.07"/>
</a>
</g>
</g>
<!-- Node17 -->
<g id="Node000017" class="node">
<title>Node17</title>
<g id="a_Node000017"><a xlink:title=" ">
<polygon fill="#e0e0e0" stroke="#999999" points="285.5,-74 155.5,-74 155.5,-55 285.5,-55 285.5,-74"/>
<text text-anchor="middle" x="220.5" y="-62" font-family="Helvetica,sans-Serif" font-size="10.00">cantera/ext/fmt/printf.h</text>
</a>
</g>
</g>
<!-- Node15&#45;&gt;Node17 -->
<g id="edge18_Node000015_Node000017" class="edge">
<title>Node15&#45;&gt;Node17</title>
<g id="a_edge18_Node000015_Node000017"><a xlink:title=" ">
<path fill="none" stroke="#63b8ff" d="M220.5,-109.75C220.5,-102.8 220.5,-92.85 220.5,-84.13"/>
<polygon fill="#63b8ff" stroke="#63b8ff" points="224,-84.09 220.5,-74.09 217,-84.09 224,-84.09"/>
</a>
</g>
</g>
<!-- Node18 -->
<g id="Node000018" class="node">
<title>Node18</title>
<g id="a_Node000018"><a xlink:title=" ">
<polygon fill="#e0e0e0" stroke="#999999" points="449,-74 304,-74 304,-55 449,-55 449,-74"/>
<text text-anchor="middle" x="376.5" y="-62" font-family="Helvetica,sans-Serif" font-size="10.00">cantera/ext/fmt/ostream.h</text>
</a>
</g>
</g>
<!-- Node15&#45;&gt;Node18 -->
<g id="edge19_Node000015_Node000018" class="edge">
<title>Node15&#45;&gt;Node18</title>
<g id="a_edge19_Node000015_Node000018"><a xlink:title=" ">
<path fill="none" stroke="#63b8ff" d="M245.56,-109.98C271.53,-101.16 312.31,-87.31 341.46,-77.41"/>
<polygon fill="#63b8ff" stroke="#63b8ff" points="342.9,-80.61 351.24,-74.08 340.65,-73.99 342.9,-80.61"/>
</a>
</g>
</g>
<!-- Node19&#45;&gt;Node3 -->
<g id="edge21_Node000019_Node000003" class="edge">
<title>Node19&#45;&gt;Node3</title>
<g id="a_edge21_Node000019_Node000003"><a xlink:title=" ">
<path fill="none" stroke="#63b8ff" d="M504.37,-164.88C480.7,-153.04 445.48,-130.84 462.5,-110 480.58,-87.85 550.65,-76.44 606.53,-70.75"/>
<polygon fill="#63b8ff" stroke="#63b8ff" points="607.17,-74.21 616.79,-69.75 606.49,-67.24 607.17,-74.21"/>
</a>
</g>
</g>
<!-- Node19&#45;&gt;Node15 -->
<g id="edge22_Node000019_Node000015" class="edge">
<title>Node19&#45;&gt;Node15</title>
<g id="a_edge22_Node000019_Node000015"><a xlink:title=" ">
<path fill="none" stroke="#63b8ff" d="M474.82,-164.98C421.56,-155.67 336.19,-140.74 279.25,-130.78"/>
<polygon fill="#63b8ff" stroke="#63b8ff" points="279.77,-127.31 269.31,-129.04 278.56,-134.21 279.77,-127.31"/>
</a>
</g>
</g>
<!-- Node20 -->
<g id="Node000020" class="node">
<title>Node20</title>
<g id="a_Node000020"><a xlink:title=" ">
<polygon fill="#e0e0e0" stroke="#999999" points="537,-129 472,-129 472,-110 537,-110 537,-129"/>
<text text-anchor="middle" x="504.5" y="-117" font-family="Helvetica,sans-Serif" font-size="10.00">exception</text>
</a>
</g>
</g>
<!-- Node19&#45;&gt;Node20 -->
<g id="edge23_Node000019_Node000020" class="edge">
<title>Node19&#45;&gt;Node20</title>
<g id="a_edge23_Node000019_Node000020"><a xlink:title=" ">
<path fill="none" stroke="#63b8ff" d="M520.36,-164.75C517.82,-157.65 514.14,-147.4 510.97,-138.56"/>
<polygon fill="#63b8ff" stroke="#63b8ff" points="514.25,-137.32 507.58,-129.09 507.66,-139.68 514.25,-137.32"/>
</a>
</g>
</g>
<!-- Node21&#45;&gt;Node14 -->
<g id="edge25_Node000021_Node000014" class="edge">
<title>Node21&#45;&gt;Node14</title>
<g id="a_edge25_Node000021_Node000014"><a xlink:title=" ">
<path fill="none" stroke="#63b8ff" d="M498.44,-219.98C472.47,-211.16 431.69,-197.31 402.54,-187.41"/>
<polygon fill="#63b8ff" stroke="#63b8ff" points="403.35,-183.99 392.76,-184.08 401.1,-190.61 403.35,-183.99"/>
</a>
</g>
</g>
<!-- Node21&#45;&gt;Node19 -->
<g id="edge26_Node000021_Node000019" class="edge">
<title>Node21&#45;&gt;Node19</title>
<g id="a_edge26_Node000021_Node000019"><a xlink:title=" ">
<path fill="none" stroke="#63b8ff" d="M523.5,-219.75C523.5,-212.8 523.5,-202.85 523.5,-194.13"/>
<polygon fill="#63b8ff" stroke="#63b8ff" points="527,-194.09 523.5,-184.09 520,-194.09 527,-194.09"/>
</a>
</g>
</g>
<!-- Node23 -->
<g id="Node000023" class="node">
<title>Node23</title>
<g id="a_Node000023"><a xlink:href="../../da/d84/Phase_8h.html" target="_top" xlink:title="Header file for class Phase.">
<polygon fill="white" stroke="#666666" points="714,-239 659,-239 659,-220 714,-220 714,-239"/>
<text text-anchor="middle" x="686.5" y="-227" font-family="Helvetica,sans-Serif" font-size="10.00">Phase.h</text>
</a>
</g>
</g>
<!-- Node22&#45;&gt;Node23 -->
<g id="edge28_Node000022_Node000023" class="edge">
<title>Node22&#45;&gt;Node23</title>
<g id="a_edge28_Node000022_Node000023"><a xlink:title=" ">
<path fill="none" stroke="#63b8ff" d="M753.64,-384.96C737.52,-377.77 716.7,-365.93 704.5,-349 683.08,-319.29 682.61,-274.4 684.4,-249.26"/>
<polygon fill="#63b8ff" stroke="#63b8ff" points="687.89,-249.51 685.32,-239.23 680.92,-248.87 687.89,-249.51"/>
</a>
</g>
</g>
<!-- Node27 -->
<g id="Node000027" class="node">
<title>Node27</title>
<g id="a_Node000027"><a xlink:href="../../d6/d7a/MultiSpeciesThermo_8h.html" target="_top" xlink:title="Header for a general species thermodynamic property manager for a phase (see MultiSpeciesThermo).">
<polygon fill="white" stroke="#666666" points="839,-349 714,-349 714,-330 839,-330 839,-349"/>
<text text-anchor="middle" x="776.5" y="-337" font-family="Helvetica,sans-Serif" font-size="10.00">MultiSpeciesThermo.h</text>
</a>
</g>
</g>
<!-- Node22&#45;&gt;Node27 -->
<g id="edge35_Node000022_Node000027" class="edge">
<title>Node22&#45;&gt;Node27</title>
<g id="a_edge35_Node000022_Node000027"><a xlink:title=" ">
<path fill="none" stroke="#63b8ff" d="M776.5,-384.75C776.5,-377.8 776.5,-367.85 776.5,-359.13"/>
<polygon fill="#63b8ff" stroke="#63b8ff" points="780,-359.09 776.5,-349.09 773,-359.09 780,-359.09"/>
</a>
</g>
</g>
<!-- Node29 -->
<g id="Node000029" class="node">
<title>Node29</title>
<g id="a_Node000029"><a xlink:href="../../dd/d2a/AnyMap_8h.html" target="_top" xlink:title=" ">
<polygon fill="#fff0f0" stroke="red" points="936,-239 805,-239 805,-220 936,-220 936,-239"/>
<text text-anchor="middle" x="870.5" y="-227" font-family="Helvetica,sans-Serif" font-size="10.00">cantera/base/AnyMap.h</text>
</a>
</g>
</g>
<!-- Node22&#45;&gt;Node29 -->
<g id="edge45_Node000022_Node000029" class="edge">
<title>Node22&#45;&gt;Node29</title>
<g id="a_edge45_Node000022_Node000029"><a xlink:title=" ">
<path fill="none" stroke="#63b8ff" d="M798.62,-384.97C814.53,-377.72 835.24,-365.81 847.5,-349 869.24,-319.19 871.96,-274.34 871.53,-249.24"/>
<polygon fill="#63b8ff" stroke="#63b8ff" points="875.03,-249.08 871.17,-239.21 868.03,-249.33 875.03,-249.08"/>
</a>
</g>
</g>
<!-- Node30 -->
<g id="Node000030" class="node">
<title>Node30</title>
<g id="a_Node000030"><a xlink:href="../../da/d58/Units_8h.html" target="_top" xlink:title="Header for unit conversion utilities, which are used to translate user input from input files (See In...">
<polygon fill="white" stroke="#666666" points="1016,-184 899,-184 899,-165 1016,-165 1016,-184"/>
<text text-anchor="middle" x="957.5" y="-172" font-family="Helvetica,sans-Serif" font-size="10.00">cantera/base/Units.h</text>
</a>
</g>
</g>
<!-- Node22&#45;&gt;Node30 -->
<g id="edge44_Node000022_Node000030" class="edge">
<title>Node22&#45;&gt;Node30</title>
<g id="a_edge44_Node000022_Node000030"><a xlink:title=" ">
<path fill="none" stroke="#63b8ff" d="M802.46,-384.85C821.87,-377.48 848.25,-365.46 867.5,-349 912.86,-310.22 920.91,-293.82 944.5,-239 950.69,-224.61 953.99,-207.09 955.72,-194.1"/>
<polygon fill="#63b8ff" stroke="#63b8ff" points="959.21,-194.38 956.86,-184.05 952.25,-193.59 959.21,-194.38"/>
</a>
</g>
</g>
<!-- Node23&#45;&gt;Node19 -->
<g id="edge29_Node000023_Node000019" class="edge">
<title>Node23&#45;&gt;Node19</title>
<g id="a_edge29_Node000023_Node000019"><a xlink:title=" ">
<path fill="none" stroke="#63b8ff" d="M660.31,-219.98C633.06,-211.13 590.2,-197.19 559.72,-187.28"/>
<polygon fill="#63b8ff" stroke="#63b8ff" points="560.49,-183.85 549.89,-184.08 558.32,-190.5 560.49,-183.85"/>
</a>
</g>
</g>
<!-- Node24 -->
<g id="Node000024" class="node">
<title>Node24</title>
<g id="a_Node000024"><a xlink:href="../../d9/dda/Elements_8h.html" target="_top" xlink:title="Contains the getElementWeight function and the definitions of element constraint types.">
<polygon fill="white" stroke="#666666" points="704,-129 555,-129 555,-110 704,-110 704,-129"/>
<text text-anchor="middle" x="629.5" y="-117" font-family="Helvetica,sans-Serif" font-size="10.00">cantera/thermo/Elements.h</text>
</a>
</g>
</g>
<!-- Node23&#45;&gt;Node24 -->
<g id="edge30_Node000023_Node000024" class="edge">
<title>Node23&#45;&gt;Node24</title>
<g id="a_edge30_Node000023_Node000024"><a xlink:title=" ">
<path fill="none" stroke="#63b8ff" d="M676.49,-219.96C667.39,-211.65 654.22,-198.25 646.5,-184 638.93,-170.03 634.56,-152.48 632.16,-139.37"/>
<polygon fill="#63b8ff" stroke="#63b8ff" points="635.56,-138.51 630.52,-129.19 628.65,-139.62 635.56,-138.51"/>
</a>
</g>
</g>
<!-- Node25 -->
<g id="Node000025" class="node">
<title>Node25</title>
<g id="a_Node000025"><a xlink:href="../../d6/df6/ValueCache_8h.html" target="_top" xlink:title=" ">
<polygon fill="white" stroke="#666666" points="805,-184 656,-184 656,-165 805,-165 805,-184"/>
<text text-anchor="middle" x="730.5" y="-172" font-family="Helvetica,sans-Serif" font-size="10.00">cantera/base/ValueCache.h</text>
</a>
</g>
</g>
<!-- Node23&#45;&gt;Node25 -->
<g id="edge32_Node000023_Node000025" class="edge">
<title>Node23&#45;&gt;Node25</title>
<g id="a_edge32_Node000023_Node000025"><a xlink:title=" ">
<path fill="none" stroke="#63b8ff" d="M693.77,-219.75C700.04,-212.18 709.29,-201.05 716.93,-191.84"/>
<polygon fill="#63b8ff" stroke="#63b8ff" points="719.67,-194.02 723.37,-184.09 714.29,-189.55 719.67,-194.02"/>
</a>
</g>
</g>
<!-- Node24&#45;&gt;Node3 -->
<g id="edge31_Node000024_Node000003" class="edge">
<title>Node24&#45;&gt;Node3</title>
<g id="a_edge31_Node000024_Node000003"><a xlink:title=" ">
<path fill="none" stroke="#63b8ff" d="M637.92,-109.75C645.27,-102.11 656.13,-90.82 665.04,-81.56"/>
<polygon fill="#63b8ff" stroke="#63b8ff" points="667.82,-83.72 672.24,-74.09 662.78,-78.87 667.82,-83.72"/>
</a>
</g>
</g>
<!-- Node25&#45;&gt;Node3 -->
<g id="edge33_Node000025_Node000003" class="edge">
<title>Node25&#45;&gt;Node3</title>
<g id="a_edge33_Node000025_Node000003"><a xlink:title=" ">
<path fill="none" stroke="#63b8ff" d="M729.05,-164.94C726.72,-152.42 721.47,-128.57 712.5,-110 707.7,-100.06 700.68,-89.99 694.43,-81.94"/>
<polygon fill="#63b8ff" stroke="#63b8ff" points="697.11,-79.69 688.1,-74.12 691.67,-84.1 697.11,-79.69"/>
</a>
</g>
</g>
<!-- Node26 -->
<g id="Node000026" class="node">
<title>Node26</title>
<g id="a_Node000026"><a xlink:title=" ">
<polygon fill="#e0e0e0" stroke="#999999" points="803.5,-129 759.5,-129 759.5,-110 803.5,-110 803.5,-129"/>
<text text-anchor="middle" x="781.5" y="-117" font-family="Helvetica,sans-Serif" font-size="10.00">limits</text>
</a>
</g>
</g>
<!-- Node25&#45;&gt;Node26 -->
<g id="edge34_Node000025_Node000026" class="edge">
<title>Node25&#45;&gt;Node26</title>
<g id="a_edge34_Node000025_Node000026"><a xlink:title=" ">
<path fill="none" stroke="#63b8ff" d="M738.92,-164.75C746.27,-157.11 757.13,-145.82 766.04,-136.56"/>
<polygon fill="#63b8ff" stroke="#63b8ff" points="768.82,-138.72 773.24,-129.09 763.78,-133.87 768.82,-138.72"/>
</a>
</g>
</g>
<!-- Node28 -->
<g id="Node000028" class="node">
<title>Node28</title>
<g id="a_Node000028"><a xlink:href="../../d4/d87/SpeciesThermoInterpType_8h.html" target="_top" xlink:title="Pure Virtual Base class for individual species reference state thermodynamic managers and text for th...">
<polygon fill="white" stroke="#666666" points="852.5,-294 700.5,-294 700.5,-275 852.5,-275 852.5,-294"/>
<text text-anchor="middle" x="776.5" y="-282" font-family="Helvetica,sans-Serif" font-size="10.00">SpeciesThermoInterpType.h</text>
</a>
</g>
</g>
<!-- Node27&#45;&gt;Node28 -->
<g id="edge36_Node000027_Node000028" class="edge">
<title>Node27&#45;&gt;Node28</title>
<g id="a_edge36_Node000027_Node000028"><a xlink:title=" ">
<path fill="none" stroke="#63b8ff" d="M776.5,-329.75C776.5,-322.8 776.5,-312.85 776.5,-304.13"/>
<polygon fill="#63b8ff" stroke="#63b8ff" points="780,-304.09 776.5,-294.09 773,-304.09 780,-304.09"/>
</a>
</g>
</g>
<!-- Node28&#45;&gt;Node3 -->
<g id="edge37_Node000028_Node000003" class="edge">
<title>Node28&#45;&gt;Node3</title>
<g id="a_edge37_Node000028_Node000003"><a xlink:title=" ">
<path fill="none" stroke="#63b8ff" d="M778.62,-274.71C781.72,-262.3 787.96,-239.04 795.5,-220 802.09,-203.37 809.39,-201.41 813.5,-184 817.47,-167.18 822.51,-123.67 812.5,-110 798.69,-91.13 776.48,-80.17 754.19,-73.83"/>
<polygon fill="#63b8ff" stroke="#63b8ff" points="754.87,-70.39 744.31,-71.31 753.13,-77.17 754.87,-70.39"/>
</a>
</g>
</g>
<!-- Node28&#45;&gt;Node19 -->
<g id="edge38_Node000028_Node000019" class="edge">
<title>Node28&#45;&gt;Node19</title>
<g id="a_edge38_Node000028_Node000019"><a xlink:title=" ">
<path fill="none" stroke="#63b8ff" d="M748.86,-274.96C722.86,-266.66 683.04,-253.26 649.5,-239 646.96,-237.92 585.44,-206.84 549.32,-188.57"/>
<polygon fill="#63b8ff" stroke="#63b8ff" points="550.81,-185.4 540.31,-184.01 547.65,-191.64 550.81,-185.4"/>
</a>
</g>
</g>
<!-- Node28&#45;&gt;Node29 -->
<g id="edge39_Node000028_Node000029" class="edge">
<title>Node28&#45;&gt;Node29</title>
<g id="a_edge39_Node000028_Node000029"><a xlink:title=" ">
<path fill="none" stroke="#63b8ff" d="M791.6,-274.98C806.32,-266.69 828.92,-253.94 846.17,-244.22"/>
<polygon fill="#63b8ff" stroke="#63b8ff" points="848.13,-247.13 855.12,-239.17 844.69,-241.03 848.13,-247.13"/>
</a>
</g>
</g>
<!-- Node29&#45;&gt;Node3 -->
<g id="edge40_Node000029_Node000003" class="edge">
<title>Node29&#45;&gt;Node3</title>
<g id="a_edge40_Node000029_Node000003"><a xlink:title=" ">
<path fill="none" stroke="#63b8ff" d="M871.53,-220C873.63,-198.48 875.97,-141.36 846.5,-110 822.89,-84.88 786.78,-73.37 754.25,-68.3"/>
<polygon fill="#63b8ff" stroke="#63b8ff" points="754.68,-64.83 744.29,-66.93 753.72,-71.76 754.68,-64.83"/>
</a>
</g>
</g>
<!-- Node29&#45;&gt;Node19 -->
<g id="edge41_Node000029_Node000019" class="edge">
<title>Node29&#45;&gt;Node19</title>
<g id="a_edge41_Node000029_Node000019"><a xlink:title=" ">
<path fill="none" stroke="#63b8ff" d="M814.75,-219.98C753.37,-210.61 654.78,-195.55 589.57,-185.59"/>
<polygon fill="#63b8ff" stroke="#63b8ff" points="589.81,-182.09 579.4,-184.04 588.76,-189.01 589.81,-182.09"/>
</a>
</g>
</g>
<!-- Node29&#45;&gt;Node30 -->
<g id="edge42_Node000029_Node000030" class="edge">
<title>Node29&#45;&gt;Node30</title>
<g id="a_edge42_Node000029_Node000030"><a xlink:title=" ">
<path fill="none" stroke="#63b8ff" d="M884.48,-219.98C897.97,-211.77 918.63,-199.18 934.54,-189.49"/>
<polygon fill="#63b8ff" stroke="#63b8ff" points="936.55,-192.36 943.27,-184.17 932.91,-186.38 936.55,-192.36"/>
</a>
</g>
</g>
<!-- Node30&#45;&gt;Node3 -->
<g id="edge43_Node000030_Node000003" class="edge">
<title>Node30&#45;&gt;Node3</title>
<g id="a_edge43_Node000030_Node000003"><a xlink:title=" ">
<path fill="none" stroke="#63b8ff" d="M950.37,-165C938.31,-151.19 912.42,-124.02 884.5,-110 844.03,-89.68 794.49,-78.6 754.36,-72.57"/>
<polygon fill="#63b8ff" stroke="#63b8ff" points="754.76,-69.09 744.37,-71.15 753.77,-76.02 754.76,-69.09"/>
</a>
</g>
</g>
<!-- Node35&#45;&gt;Node3 -->
<g id="edge47_Node000035_Node000003" class="edge">
<title>Node35&#45;&gt;Node3</title>
<g id="a_edge47_Node000035_Node000003"><a xlink:title=" ">
<path fill="none" stroke="#63b8ff" d="M1059.97,-219.63C1054.26,-206.27 1041.89,-180.88 1024.5,-165 949.7,-96.69 830.76,-75.03 754.18,-68.31"/>
<polygon fill="#63b8ff" stroke="#63b8ff" points="754.37,-64.81 744.12,-67.49 753.81,-71.79 754.37,-64.81"/>
</a>
</g>
</g>
<!-- Node35&#45;&gt;Node19 -->
<g id="edge48_Node000035_Node000019" class="edge">
<title>Node35&#45;&gt;Node19</title>
<g id="a_edge48_Node000035_Node000019"><a xlink:title=" ">
<path fill="none" stroke="#63b8ff" d="M992.35,-221.52C894.13,-211.88 717.15,-194.51 610.97,-184.09"/>
<polygon fill="#63b8ff" stroke="#63b8ff" points="611.22,-180.59 600.92,-183.1 610.54,-187.56 611.22,-180.59"/>
</a>
</g>
</g>
<!-- Node36 -->
<g id="Node000036" class="node">
<title>Node36</title>
<g id="a_Node000036"><a xlink:title=" ">
<polygon fill="#e0e0e0" stroke="#999999" points="1132.5,-184 1072.5,-184 1072.5,-165 1132.5,-165 1132.5,-184"/>
<text text-anchor="middle" x="1102.5" y="-172" font-family="Helvetica,sans-Serif" font-size="10.00">iostream</text>
</a>
</g>
</g>
<!-- Node35&#45;&gt;Node36 -->
<g id="edge49_Node000035_Node000036" class="edge">
<title>Node35&#45;&gt;Node36</title>
<g id="a_edge49_Node000035_Node000036"><a xlink:title=" ">
<path fill="none" stroke="#63b8ff" d="M1069.94,-219.75C1075.39,-212.34 1083.36,-201.5 1090.06,-192.41"/>
<polygon fill="#63b8ff" stroke="#63b8ff" points="1093.07,-194.22 1096.18,-184.09 1087.43,-190.07 1093.07,-194.22"/>
</a>
</g>
</g>
</g>
</svg>
