<?xml version="1.0" encoding="UTF-8" standalone="no"?>
<!DOCTYPE svg PUBLIC "-//W3C//DTD SVG 1.1//EN"
 "http://www.w3.org/Graphics/SVG/1.1/DTD/svg11.dtd">
<!-- Generated by graphviz version 6.0.1 (0)
 -->
<!-- Title: IonFlow Pages: 1 -->
<svg width="71pt" height="137pt"
 viewBox="0.00 0.00 71.00 137.00" xmlns="http://www.w3.org/2000/svg" xmlns:xlink="http://www.w3.org/1999/xlink">
<g id="graph0" class="graph" transform="scale(1 1) rotate(0) translate(4 133)">
<title>IonFlow</title>
<!-- Node1 -->
<g id="node1" class="node">
<title>Node1</title>
<g id="a_node1"><a xlink:title="This class models the ion transportation in a flame.">
<polygon fill="#999999" stroke="#666666" points="57,-19 6,-19 6,0 57,0 57,-19"/>
<text text-anchor="middle" x="31.5" y="-7" font-family="Helvetica,sans-Serif" font-size="10.00">IonFlow</text>
</a>
</g>
</g>
<!-- Node2 -->
<g id="node2" class="node">
<title>Node2</title>
<g id="a_node2"><a xlink:href="../../d9/d1a/classCantera_1_1StFlow.html" target="_top" xlink:title="This class represents 1D flow domains that satisfy the one&#45;dimensional similarity solution for chemic...">
<polygon fill="white" stroke="#666666" points="55,-74 8,-74 8,-55 55,-55 55,-74"/>
<text text-anchor="middle" x="31.5" y="-62" font-family="Helvetica,sans-Serif" font-size="10.00">StFlow</text>
</a>
</g>
</g>
<!-- Node2&#45;&gt;Node1 -->
<g id="edge1" class="edge">
<title>Node2&#45;&gt;Node1</title>
<path fill="none" stroke="#63b8ff" d="M31.5,-44.66C31.5,-35.93 31.5,-25.99 31.5,-19.09"/>
<polygon fill="#63b8ff" stroke="#63b8ff" points="28,-44.75 31.5,-54.75 35,-44.75 28,-44.75"/>
</g>
<!-- Node3 -->
<g id="node3" class="node">
<title>Node3</title>
<g id="a_node3"><a xlink:href="../../d9/dfd/classCantera_1_1Domain1D.html" target="_top" xlink:title="Base class for one&#45;dimensional domains.">
<polygon fill="white" stroke="#666666" points="63,-129 0,-129 0,-110 63,-110 63,-129"/>
<text text-anchor="middle" x="31.5" y="-117" font-family="Helvetica,sans-Serif" font-size="10.00">Domain1D</text>
</a>
</g>
</g>
<!-- Node3&#45;&gt;Node2 -->
<g id="edge2" class="edge">
<title>Node3&#45;&gt;Node2</title>
<path fill="none" stroke="#63b8ff" d="M31.5,-99.66C31.5,-90.93 31.5,-80.99 31.5,-74.09"/>
<polygon fill="#63b8ff" stroke="#63b8ff" points="28,-99.75 31.5,-109.75 35,-99.75 28,-99.75"/>
</g>
</g>
</svg>
