<?xml version="1.0" encoding="UTF-8" standalone="no"?>
<!DOCTYPE svg PUBLIC "-//W3C//DTD SVG 1.1//EN"
 "http://www.w3.org/Graphics/SVG/1.1/DTD/svg11.dtd">
<!-- Generated by graphviz version 2.43.0 (0)
 -->
<!-- Title: ElectronCollisionPlasmaRate.h Pages: 1 -->
<svg width="1206pt" height="434pt"
 viewBox="0.00 0.00 1206.00 434.00" xmlns="http://www.w3.org/2000/svg" xmlns:xlink="http://www.w3.org/1999/xlink">
<g id="graph0" class="graph" transform="scale(1 1) rotate(0) translate(4 430)">
<title>ElectronCollisionPlasmaRate.h</title>
<!-- Node1 -->
<g id="Node000001" class="node">
<title>Node1</title>
<g id="a_Node000001"><a xlink:title="Header for plasma reaction rates parameterized by electron collision cross section and electron energ...">
<polygon fill="#999999" stroke="#666666" points="856,-426 690,-426 690,-407 856,-407 856,-426"/>
<text text-anchor="middle" x="773" y="-414" font-family="Helvetica,sans-Serif" font-size="10.00">ElectronCollisionPlasmaRate.h</text>
</a>
</g>
</g>
<!-- Node2 -->
<g id="Node000002" class="node">
<title>Node2</title>
<g id="a_Node000002"><a xlink:href="../../d6/d4a/ReactionData_8h.html" target="_top" xlink:title=" ">
<polygon fill="white" stroke="#666666" points="886,-250 746,-250 746,-220 886,-220 886,-250"/>
<text text-anchor="start" x="754" y="-238" font-family="Helvetica,sans-Serif" font-size="10.00">cantera/kinetics/Reaction</text>
<text text-anchor="middle" x="816" y="-227" font-family="Helvetica,sans-Serif" font-size="10.00">Data.h</text>
</a>
</g>
</g>
<!-- Node1&#45;&gt;Node2 -->
<g id="edge1_Node000001_Node000002" class="edge">
<title>Node1&#45;&gt;Node2</title>
<g id="a_edge1_Node000001_Node000002"><a xlink:title=" ">
<path fill="none" stroke="#63b8ff" d="M775.07,-406.84C781.39,-380.49 800.53,-300.56 810.23,-260.07"/>
<polygon fill="#63b8ff" stroke="#63b8ff" points="813.67,-260.76 812.59,-250.22 806.86,-259.13 813.67,-260.76"/>
</a>
</g>
</g>
<!-- Node20 -->
<g id="Node000020" class="node">
<title>Node20</title>
<g id="a_Node000020"><a xlink:href="../../d8/db0/ReactionRate_8h.html" target="_top" xlink:title=" ">
<polygon fill="white" stroke="#666666" points="647.5,-305 556.5,-305 556.5,-286 647.5,-286 647.5,-305"/>
<text text-anchor="middle" x="602" y="-293" font-family="Helvetica,sans-Serif" font-size="10.00">ReactionRate.h</text>
</a>
</g>
</g>
<!-- Node1&#45;&gt;Node20 -->
<g id="edge21_Node000001_Node000020" class="edge">
<title>Node1&#45;&gt;Node20</title>
<g id="a_edge21_Node000001_Node000020"><a xlink:title=" ">
<path fill="none" stroke="#63b8ff" d="M737.96,-406.96C714.32,-400 683.3,-388.43 660,-371 639.15,-355.41 621.85,-330.48 611.71,-313.81"/>
<polygon fill="#63b8ff" stroke="#63b8ff" points="614.68,-311.94 606.6,-305.08 608.64,-315.48 614.68,-311.94"/>
</a>
</g>
</g>
<!-- Node29 -->
<g id="Node000029" class="node">
<title>Node29</title>
<g id="a_Node000029"><a xlink:href="../../d6/d42/MultiRate_8h.html" target="_top" xlink:title=" ">
<polygon fill="white" stroke="#666666" points="741.5,-365.5 668.5,-365.5 668.5,-346.5 741.5,-346.5 741.5,-365.5"/>
<text text-anchor="middle" x="705" y="-353.5" font-family="Helvetica,sans-Serif" font-size="10.00">MultiRate.h</text>
</a>
</g>
</g>
<!-- Node1&#45;&gt;Node29 -->
<g id="edge39_Node000001_Node000029" class="edge">
<title>Node1&#45;&gt;Node29</title>
<g id="a_edge39_Node000001_Node000029"><a xlink:title=" ">
<path fill="none" stroke="#63b8ff" d="M762.97,-406.87C752.42,-397.8 735.61,-383.34 722.81,-372.32"/>
<polygon fill="#63b8ff" stroke="#63b8ff" points="724.94,-369.54 715.07,-365.67 720.37,-374.84 724.94,-369.54"/>
</a>
</g>
</g>
<!-- Node32 -->
<g id="Node000032" class="node">
<title>Node32</title>
<g id="a_Node000032"><a xlink:href="../../dc/d2e/eigen__dense_8h_source.html" target="_top" xlink:title=" ">
<polygon fill="white" stroke="#666666" points="1099.5,-371 968.5,-371 968.5,-341 1099.5,-341 1099.5,-371"/>
<text text-anchor="start" x="976.5" y="-359" font-family="Helvetica,sans-Serif" font-size="10.00">cantera/numerics/eigen</text>
<text text-anchor="middle" x="1034" y="-348" font-family="Helvetica,sans-Serif" font-size="10.00">_dense.h</text>
</a>
</g>
</g>
<!-- Node1&#45;&gt;Node32 -->
<g id="edge45_Node000001_Node000032" class="edge">
<title>Node1&#45;&gt;Node32</title>
<g id="a_edge45_Node000001_Node000032"><a xlink:title=" ">
<path fill="none" stroke="#63b8ff" d="M810.95,-406.99C850.3,-398.17 912.78,-384.17 961.62,-373.22"/>
<polygon fill="#63b8ff" stroke="#63b8ff" points="962.51,-376.61 971.5,-371.01 960.98,-369.78 962.51,-376.61"/>
</a>
</g>
</g>
<!-- Node3 -->
<g id="Node000003" class="node">
<title>Node3</title>
<g id="a_Node000003"><a xlink:href="../../d9/ddc/ct__defs_8h.html" target="_top" xlink:title="This file contains definitions of constants, types and terms that are used in internal routines and a...">
<polygon fill="white" stroke="#666666" points="792.5,-74 665.5,-74 665.5,-55 792.5,-55 792.5,-74"/>
<text text-anchor="middle" x="729" y="-62" font-family="Helvetica,sans-Serif" font-size="10.00">cantera/base/ct_defs.h</text>
</a>
</g>
</g>
<!-- Node2&#45;&gt;Node3 -->
<g id="edge2_Node000002_Node000003" class="edge">
<title>Node2&#45;&gt;Node3</title>
<g id="a_edge2_Node000002_Node000003"><a xlink:title=" ">
<path fill="none" stroke="#63b8ff" d="M865.61,-219.82C883.09,-212.18 900.89,-200.75 911,-184 915.36,-176.77 912.91,-173.23 911,-165 904.84,-138.47 904.88,-127.48 884,-110 861.25,-90.95 830.77,-80.05 802.86,-73.81"/>
<polygon fill="#63b8ff" stroke="#63b8ff" points="803.21,-70.31 792.71,-71.72 801.8,-77.17 803.21,-70.31"/>
</a>
</g>
</g>
<!-- Node14 -->
<g id="Node000014" class="node">
<title>Node14</title>
<g id="a_Node000014"><a xlink:href="../../db/d98/ctexceptions_8h.html" target="_top" xlink:title="Definitions for the classes that are thrown when Cantera experiences an error condition (also contain...">
<polygon fill="white" stroke="#666666" points="884,-184 730,-184 730,-165 884,-165 884,-184"/>
<text text-anchor="middle" x="807" y="-172" font-family="Helvetica,sans-Serif" font-size="10.00">cantera/base/ctexceptions.h</text>
</a>
</g>
</g>
<!-- Node2&#45;&gt;Node14 -->
<g id="edge13_Node000002_Node000014" class="edge">
<title>Node2&#45;&gt;Node14</title>
<g id="a_edge13_Node000002_Node000014"><a xlink:title=" ">
<path fill="none" stroke="#63b8ff" d="M813.82,-219.84C812.63,-212.13 811.15,-202.49 809.87,-194.17"/>
<polygon fill="#63b8ff" stroke="#63b8ff" points="813.33,-193.62 808.35,-184.27 806.41,-194.68 813.33,-193.62"/>
</a>
</g>
</g>
<!-- Node4 -->
<g id="Node000004" class="node">
<title>Node4</title>
<g id="a_Node000004"><a xlink:href="../../db/d16/config_8h_source.html" target="_top" xlink:title=" ">
<polygon fill="white" stroke="#666666" points="1065.5,-19 1010.5,-19 1010.5,0 1065.5,0 1065.5,-19"/>
<text text-anchor="middle" x="1038" y="-7" font-family="Helvetica,sans-Serif" font-size="10.00">config.h</text>
</a>
</g>
</g>
<!-- Node3&#45;&gt;Node4 -->
<g id="edge3_Node000003_Node000004" class="edge">
<title>Node3&#45;&gt;Node4</title>
<g id="a_edge3_Node000003_Node000004"><a xlink:title=" ">
<path fill="none" stroke="#63b8ff" d="M788.86,-54.98C842.05,-47.13 922.11,-34.63 1000.14,-19.27"/>
<polygon fill="#63b8ff" stroke="#63b8ff" points="1001.01,-22.66 1010.13,-17.28 999.64,-15.8 1001.01,-22.66"/>
</a>
</g>
</g>
<!-- Node5 -->
<g id="Node000005" class="node">
<title>Node5</title>
<g id="a_Node000005"><a xlink:title=" ">
<polygon fill="#e0e0e0" stroke="#999999" points="450.5,-19 403.5,-19 403.5,0 450.5,0 450.5,-19"/>
<text text-anchor="middle" x="427" y="-7" font-family="Helvetica,sans-Serif" font-size="10.00">cmath</text>
</a>
</g>
</g>
<!-- Node3&#45;&gt;Node5 -->
<g id="edge4_Node000003_Node000005" class="edge">
<title>Node3&#45;&gt;Node5</title>
<g id="a_edge4_Node000003_Node000005"><a xlink:title=" ">
<path fill="none" stroke="#63b8ff" d="M666.75,-54.98C614.18,-47.39 536.72,-35.28 460.9,-19.25"/>
<polygon fill="#63b8ff" stroke="#63b8ff" points="461.22,-15.74 450.7,-17.07 459.75,-22.58 461.22,-15.74"/>
</a>
</g>
</g>
<!-- Node6 -->
<g id="Node000006" class="node">
<title>Node6</title>
<g id="a_Node000006"><a xlink:title=" ">
<polygon fill="#e0e0e0" stroke="#999999" points="517.5,-19 468.5,-19 468.5,0 517.5,0 517.5,-19"/>
<text text-anchor="middle" x="493" y="-7" font-family="Helvetica,sans-Serif" font-size="10.00">cstdlib</text>
</a>
</g>
</g>
<!-- Node3&#45;&gt;Node6 -->
<g id="edge5_Node000003_Node000006" class="edge">
<title>Node3&#45;&gt;Node6</title>
<g id="a_edge5_Node000003_Node000006"><a xlink:title=" ">
<path fill="none" stroke="#63b8ff" d="M688.07,-54.98C649.09,-46.77 588.52,-33.75 527.62,-19.33"/>
<polygon fill="#63b8ff" stroke="#63b8ff" points="528.38,-15.91 517.84,-17 526.76,-22.72 528.38,-15.91"/>
</a>
</g>
</g>
<!-- Node7 -->
<g id="Node000007" class="node">
<title>Node7</title>
<g id="a_Node000007"><a xlink:title=" ">
<polygon fill="#e0e0e0" stroke="#999999" points="582.5,-19 535.5,-19 535.5,0 582.5,0 582.5,-19"/>
<text text-anchor="middle" x="559" y="-7" font-family="Helvetica,sans-Serif" font-size="10.00">vector</text>
</a>
</g>
</g>
<!-- Node3&#45;&gt;Node7 -->
<g id="edge6_Node000003_Node000007" class="edge">
<title>Node3&#45;&gt;Node7</title>
<g id="a_edge6_Node000003_Node000007"><a xlink:title=" ">
<path fill="none" stroke="#63b8ff" d="M701.69,-54.98C671.96,-45.72 624.41,-30.89 592.46,-20.93"/>
<polygon fill="#63b8ff" stroke="#63b8ff" points="593.27,-17.52 582.68,-17.88 591.19,-24.2 593.27,-17.52"/>
</a>
</g>
</g>
<!-- Node8 -->
<g id="Node000008" class="node">
<title>Node8</title>
<g id="a_Node000008"><a xlink:title=" ">
<polygon fill="#e0e0e0" stroke="#999999" points="639,-19 601,-19 601,0 639,0 639,-19"/>
<text text-anchor="middle" x="620" y="-7" font-family="Helvetica,sans-Serif" font-size="10.00">map</text>
</a>
</g>
</g>
<!-- Node3&#45;&gt;Node8 -->
<g id="edge7_Node000003_Node000008" class="edge">
<title>Node3&#45;&gt;Node8</title>
<g id="a_edge7_Node000003_Node000008"><a xlink:title=" ">
<path fill="none" stroke="#63b8ff" d="M711.49,-54.98C694.03,-46.5 666.99,-33.35 646.83,-23.54"/>
<polygon fill="#63b8ff" stroke="#63b8ff" points="648.36,-20.4 637.83,-19.17 645.29,-26.69 648.36,-20.4"/>
</a>
</g>
</g>
<!-- Node9 -->
<g id="Node000009" class="node">
<title>Node9</title>
<g id="a_Node000009"><a xlink:title=" ">
<polygon fill="#e0e0e0" stroke="#999999" points="689,-19 657,-19 657,0 689,0 689,-19"/>
<text text-anchor="middle" x="673" y="-7" font-family="Helvetica,sans-Serif" font-size="10.00">set</text>
</a>
</g>
</g>
<!-- Node3&#45;&gt;Node9 -->
<g id="edge8_Node000003_Node000009" class="edge">
<title>Node3&#45;&gt;Node9</title>
<g id="a_edge8_Node000003_Node000009"><a xlink:title=" ">
<path fill="none" stroke="#63b8ff" d="M720,-54.98C711.81,-47.23 699.49,-35.58 689.53,-26.14"/>
<polygon fill="#63b8ff" stroke="#63b8ff" points="691.83,-23.5 682.16,-19.17 687.02,-28.59 691.83,-23.5"/>
</a>
</g>
</g>
<!-- Node10 -->
<g id="Node000010" class="node">
<title>Node10</title>
<g id="a_Node000010"><a xlink:title=" ">
<polygon fill="#e0e0e0" stroke="#999999" points="751,-19 707,-19 707,0 751,0 751,-19"/>
<text text-anchor="middle" x="729" y="-7" font-family="Helvetica,sans-Serif" font-size="10.00">string</text>
</a>
</g>
</g>
<!-- Node3&#45;&gt;Node10 -->
<g id="edge9_Node000003_Node000010" class="edge">
<title>Node3&#45;&gt;Node10</title>
<g id="a_edge9_Node000003_Node000010"><a xlink:title=" ">
<path fill="none" stroke="#63b8ff" d="M729,-54.75C729,-47.8 729,-37.85 729,-29.13"/>
<polygon fill="#63b8ff" stroke="#63b8ff" points="732.5,-29.09 729,-19.09 725.5,-29.09 732.5,-29.09"/>
</a>
</g>
</g>
<!-- Node11 -->
<g id="Node000011" class="node">
<title>Node11</title>
<g id="a_Node000011"><a xlink:title=" ">
<polygon fill="#e0e0e0" stroke="#999999" points="833,-19 769,-19 769,0 833,0 833,-19"/>
<text text-anchor="middle" x="801" y="-7" font-family="Helvetica,sans-Serif" font-size="10.00">algorithm</text>
</a>
</g>
</g>
<!-- Node3&#45;&gt;Node11 -->
<g id="edge10_Node000003_Node000011" class="edge">
<title>Node3&#45;&gt;Node11</title>
<g id="a_edge10_Node000003_Node000011"><a xlink:title=" ">
<path fill="none" stroke="#63b8ff" d="M740.57,-54.98C751.42,-47 767.88,-34.88 780.88,-25.31"/>
<polygon fill="#63b8ff" stroke="#63b8ff" points="783.24,-27.92 789.22,-19.17 779.09,-22.28 783.24,-27.92"/>
</a>
</g>
</g>
<!-- Node12 -->
<g id="Node000012" class="node">
<title>Node12</title>
<g id="a_Node000012"><a xlink:title=" ">
<polygon fill="#e0e0e0" stroke="#999999" points="909,-19 851,-19 851,0 909,0 909,-19"/>
<text text-anchor="middle" x="880" y="-7" font-family="Helvetica,sans-Serif" font-size="10.00">memory</text>
</a>
</g>
</g>
<!-- Node3&#45;&gt;Node12 -->
<g id="edge11_Node000003_Node000012" class="edge">
<title>Node3&#45;&gt;Node12</title>
<g id="a_edge11_Node000003_Node000012"><a xlink:title=" ">
<path fill="none" stroke="#63b8ff" d="M753.26,-54.98C778.32,-46.19 817.63,-32.39 845.83,-22.49"/>
<polygon fill="#63b8ff" stroke="#63b8ff" points="847.02,-25.78 855.3,-19.17 844.7,-19.18 847.02,-25.78"/>
</a>
</g>
</g>
<!-- Node13 -->
<g id="Node000013" class="node">
<title>Node13</title>
<g id="a_Node000013"><a xlink:title=" ">
<polygon fill="#e0e0e0" stroke="#999999" points="992.5,-19 927.5,-19 927.5,0 992.5,0 992.5,-19"/>
<text text-anchor="middle" x="960" y="-7" font-family="Helvetica,sans-Serif" font-size="10.00">functional</text>
</a>
</g>
</g>
<!-- Node3&#45;&gt;Node13 -->
<g id="edge12_Node000003_Node000013" class="edge">
<title>Node3&#45;&gt;Node13</title>
<g id="a_edge12_Node000003_Node000013"><a xlink:title=" ">
<path fill="none" stroke="#63b8ff" d="M766.11,-54.98C807.44,-45.5 874.11,-30.21 917.5,-20.25"/>
<polygon fill="#63b8ff" stroke="#63b8ff" points="918.49,-23.61 927.46,-17.97 916.93,-16.79 918.49,-23.61"/>
</a>
</g>
</g>
<!-- Node14&#45;&gt;Node3 -->
<g id="edge14_Node000014_Node000003" class="edge">
<title>Node14&#45;&gt;Node3</title>
<g id="a_edge14_Node000014_Node000003"><a xlink:title=" ">
<path fill="none" stroke="#63b8ff" d="M809.17,-164.98C811.94,-152.07 815.26,-127.26 805,-110 796.35,-95.44 780.96,-85.16 766.28,-78.16"/>
<polygon fill="#63b8ff" stroke="#63b8ff" points="767.38,-74.83 756.82,-74.03 764.58,-81.24 767.38,-74.83"/>
</a>
</g>
</g>
<!-- Node15 -->
<g id="Node000015" class="node">
<title>Node15</title>
<g id="a_Node000015"><a xlink:href="../../db/def/fmt_8h.html" target="_top" xlink:title="Wrapper for either system&#45;installed or local headers for fmt.">
<polygon fill="white" stroke="#666666" points="507.5,-129 398.5,-129 398.5,-110 507.5,-110 507.5,-129"/>
<text text-anchor="middle" x="453" y="-117" font-family="Helvetica,sans-Serif" font-size="10.00">cantera/base/fmt.h</text>
</a>
</g>
</g>
<!-- Node14&#45;&gt;Node15 -->
<g id="edge15_Node000014_Node000015" class="edge">
<title>Node14&#45;&gt;Node15</title>
<g id="a_edge15_Node000014_Node000015"><a xlink:title=" ">
<path fill="none" stroke="#63b8ff" d="M750.12,-164.98C686.64,-155.48 584.12,-140.13 517.64,-130.18"/>
<polygon fill="#63b8ff" stroke="#63b8ff" points="518.11,-126.71 507.7,-128.69 517.07,-133.63 518.11,-126.71"/>
</a>
</g>
</g>
<!-- Node19 -->
<g id="Node000019" class="node">
<title>Node19</title>
<g id="a_Node000019"><a xlink:title=" ">
<polygon fill="#e0e0e0" stroke="#999999" points="795.5,-129 730.5,-129 730.5,-110 795.5,-110 795.5,-129"/>
<text text-anchor="middle" x="763" y="-117" font-family="Helvetica,sans-Serif" font-size="10.00">exception</text>
</a>
</g>
</g>
<!-- Node14&#45;&gt;Node19 -->
<g id="edge20_Node000014_Node000019" class="edge">
<title>Node14&#45;&gt;Node19</title>
<g id="a_edge20_Node000014_Node000019"><a xlink:title=" ">
<path fill="none" stroke="#63b8ff" d="M799.73,-164.75C793.46,-157.18 784.21,-146.05 776.57,-136.84"/>
<polygon fill="#63b8ff" stroke="#63b8ff" points="779.21,-134.55 770.13,-129.09 773.83,-139.02 779.21,-134.55"/>
</a>
</g>
</g>
<!-- Node15&#45;&gt;Node3 -->
<g id="edge16_Node000015_Node000003" class="edge">
<title>Node15&#45;&gt;Node3</title>
<g id="a_edge16_Node000015_Node000003"><a xlink:title=" ">
<path fill="none" stroke="#63b8ff" d="M497.34,-109.98C545.49,-100.74 622.42,-85.97 674.29,-76.01"/>
<polygon fill="#63b8ff" stroke="#63b8ff" points="675.15,-79.41 684.31,-74.08 673.83,-72.53 675.15,-79.41"/>
</a>
</g>
</g>
<!-- Node16 -->
<g id="Node000016" class="node">
<title>Node16</title>
<g id="a_Node000016"><a xlink:title=" ">
<polygon fill="#e0e0e0" stroke="#999999" points="335.5,-74 198.5,-74 198.5,-55 335.5,-55 335.5,-74"/>
<text text-anchor="middle" x="267" y="-62" font-family="Helvetica,sans-Serif" font-size="10.00">cantera/ext/fmt/format.h</text>
</a>
</g>
</g>
<!-- Node15&#45;&gt;Node16 -->
<g id="edge17_Node000015_Node000016" class="edge">
<title>Node15&#45;&gt;Node16</title>
<g id="a_edge17_Node000015_Node000016"><a xlink:title=" ">
<path fill="none" stroke="#63b8ff" d="M423.12,-109.98C391.62,-101.01 341.83,-86.82 306.97,-76.89"/>
<polygon fill="#63b8ff" stroke="#63b8ff" points="307.69,-73.46 297.12,-74.08 305.78,-80.19 307.69,-73.46"/>
</a>
</g>
</g>
<!-- Node17 -->
<g id="Node000017" class="node">
<title>Node17</title>
<g id="a_Node000017"><a xlink:title=" ">
<polygon fill="#e0e0e0" stroke="#999999" points="484,-74 354,-74 354,-55 484,-55 484,-74"/>
<text text-anchor="middle" x="419" y="-62" font-family="Helvetica,sans-Serif" font-size="10.00">cantera/ext/fmt/printf.h</text>
</a>
</g>
</g>
<!-- Node15&#45;&gt;Node17 -->
<g id="edge18_Node000015_Node000017" class="edge">
<title>Node15&#45;&gt;Node17</title>
<g id="a_edge18_Node000015_Node000017"><a xlink:title=" ">
<path fill="none" stroke="#63b8ff" d="M447.39,-109.75C442.68,-102.42 435.83,-91.73 430.03,-82.7"/>
<polygon fill="#63b8ff" stroke="#63b8ff" points="432.86,-80.62 424.51,-74.09 426.96,-84.4 432.86,-80.62"/>
</a>
</g>
</g>
<!-- Node18 -->
<g id="Node000018" class="node">
<title>Node18</title>
<g id="a_Node000018"><a xlink:title=" ">
<polygon fill="#e0e0e0" stroke="#999999" points="647.5,-74 502.5,-74 502.5,-55 647.5,-55 647.5,-74"/>
<text text-anchor="middle" x="575" y="-62" font-family="Helvetica,sans-Serif" font-size="10.00">cantera/ext/fmt/ostream.h</text>
</a>
</g>
</g>
<!-- Node15&#45;&gt;Node18 -->
<g id="edge19_Node000015_Node000018" class="edge">
<title>Node15&#45;&gt;Node18</title>
<g id="a_edge19_Node000015_Node000018"><a xlink:title=" ">
<path fill="none" stroke="#63b8ff" d="M472.6,-109.98C492.32,-101.42 522.95,-88.11 545.58,-78.28"/>
<polygon fill="#63b8ff" stroke="#63b8ff" points="547.26,-81.37 555.04,-74.17 544.48,-74.94 547.26,-81.37"/>
</a>
</g>
</g>
<!-- Node20&#45;&gt;Node14 -->
<g id="edge38_Node000020_Node000014" class="edge">
<title>Node20&#45;&gt;Node14</title>
<g id="a_edge38_Node000020_Node000014"><a xlink:title=" ">
<path fill="none" stroke="#63b8ff" d="M601.67,-285.74C601.59,-270.19 603.77,-237.75 622,-220 637.81,-204.6 687.5,-193.16 731.4,-185.73"/>
<polygon fill="#63b8ff" stroke="#63b8ff" points="732.23,-189.14 741.54,-184.07 731.1,-182.23 732.23,-189.14"/>
</a>
</g>
</g>
<!-- Node21 -->
<g id="Node000021" class="node">
<title>Node21</title>
<g id="a_Node000021"><a xlink:href="../../dd/d16/MultiRateBase_8h.html" target="_top" xlink:title=" ">
<polygon fill="white" stroke="#666666" points="727.5,-244.5 630.5,-244.5 630.5,-225.5 727.5,-225.5 727.5,-244.5"/>
<text text-anchor="middle" x="679" y="-232.5" font-family="Helvetica,sans-Serif" font-size="10.00">MultiRateBase.h</text>
</a>
</g>
</g>
<!-- Node20&#45;&gt;Node21 -->
<g id="edge22_Node000020_Node000021" class="edge">
<title>Node20&#45;&gt;Node21</title>
<g id="a_edge22_Node000020_Node000021"><a xlink:title=" ">
<path fill="none" stroke="#63b8ff" d="M613.36,-285.87C625.42,-276.71 644.7,-262.06 659.25,-251.01"/>
<polygon fill="#63b8ff" stroke="#63b8ff" points="661.75,-253.5 667.59,-244.67 657.51,-247.93 661.75,-253.5"/>
</a>
</g>
</g>
<!-- Node22 -->
<g id="Node000022" class="node">
<title>Node22</title>
<g id="a_Node000022"><a xlink:href="../../dd/d2a/AnyMap_8h.html" target="_top" xlink:title=" ">
<polygon fill="white" stroke="#666666" points="554.5,-244.5 423.5,-244.5 423.5,-225.5 554.5,-225.5 554.5,-244.5"/>
<text text-anchor="middle" x="489" y="-232.5" font-family="Helvetica,sans-Serif" font-size="10.00">cantera/base/AnyMap.h</text>
</a>
</g>
</g>
<!-- Node20&#45;&gt;Node22 -->
<g id="edge24_Node000020_Node000022" class="edge">
<title>Node20&#45;&gt;Node22</title>
<g id="a_edge24_Node000020_Node000022"><a xlink:title=" ">
<path fill="none" stroke="#63b8ff" d="M585.33,-285.87C566.72,-276.23 536.38,-260.53 514.72,-249.31"/>
<polygon fill="#63b8ff" stroke="#63b8ff" points="516.23,-246.16 505.74,-244.67 513.01,-252.37 516.23,-246.16"/>
</a>
</g>
</g>
<!-- Node23 -->
<g id="Node000023" class="node">
<title>Node23</title>
<g id="a_Node000023"><a xlink:href="../../da/d58/Units_8h.html" target="_top" xlink:title="Header for unit conversion utilities, which are used to translate user input from input files (See In...">
<polygon fill="white" stroke="#666666" points="257.5,-184 140.5,-184 140.5,-165 257.5,-165 257.5,-184"/>
<text text-anchor="middle" x="199" y="-172" font-family="Helvetica,sans-Serif" font-size="10.00">cantera/base/Units.h</text>
</a>
</g>
</g>
<!-- Node20&#45;&gt;Node23 -->
<g id="edge34_Node000020_Node000023" class="edge">
<title>Node20&#45;&gt;Node23</title>
<g id="a_edge34_Node000020_Node000023"><a xlink:title=" ">
<path fill="none" stroke="#63b8ff" d="M560.61,-285.96C522.31,-277.77 463.92,-264.52 414,-250 348.12,-230.84 272.67,-203.39 230.96,-187.71"/>
<polygon fill="#63b8ff" stroke="#63b8ff" points="231.95,-184.34 221.36,-184.09 229.47,-190.89 231.95,-184.34"/>
</a>
</g>
</g>
<!-- Node28 -->
<g id="Node000028" class="node">
<title>Node28</title>
<g id="a_Node000028"><a xlink:href="../../d2/d49/global_8h.html" target="_top" xlink:title="This file contains definitions for utility functions and text for modules, inputfiles and logging,...">
<polygon fill="white" stroke="#666666" points="122,-184 0,-184 0,-165 122,-165 122,-184"/>
<text text-anchor="middle" x="61" y="-172" font-family="Helvetica,sans-Serif" font-size="10.00">cantera/base/global.h</text>
</a>
</g>
</g>
<!-- Node20&#45;&gt;Node28 -->
<g id="edge35_Node000020_Node000028" class="edge">
<title>Node20&#45;&gt;Node28</title>
<g id="a_edge35_Node000020_Node000028"><a xlink:title=" ">
<path fill="none" stroke="#63b8ff" d="M556.42,-289.02C500.57,-281.91 403.22,-268.22 321,-250 239.73,-231.99 146.33,-203.2 96.58,-187.19"/>
<polygon fill="#63b8ff" stroke="#63b8ff" points="97.52,-183.82 86.93,-184.07 95.37,-190.48 97.52,-183.82"/>
</a>
</g>
</g>
<!-- Node21&#45;&gt;Node3 -->
<g id="edge23_Node000021_Node000003" class="edge">
<title>Node21&#45;&gt;Node3</title>
<g id="a_edge23_Node000021_Node000003"><a xlink:title=" ">
<path fill="none" stroke="#63b8ff" d="M714.26,-225.43C721.76,-223.62 729.64,-221.74 737,-220 806.25,-203.65 848.7,-239.68 893,-184 932.77,-134 833.26,-95.24 772.29,-76.98"/>
<polygon fill="#63b8ff" stroke="#63b8ff" points="773.08,-73.56 762.5,-74.12 771.12,-80.28 773.08,-73.56"/>
</a>
</g>
</g>
<!-- Node22&#45;&gt;Node3 -->
<g id="edge25_Node000022_Node000003" class="edge">
<title>Node22&#45;&gt;Node3</title>
<g id="a_edge25_Node000022_Node000003"><a xlink:title=" ">
<path fill="none" stroke="#63b8ff" d="M544.13,-225.42C593.66,-216.72 661.63,-201.98 682,-184 711.63,-157.84 722.79,-110.52 726.83,-84.28"/>
<polygon fill="#63b8ff" stroke="#63b8ff" points="730.33,-84.54 728.2,-74.16 723.39,-83.6 730.33,-84.54"/>
</a>
</g>
</g>
<!-- Node22&#45;&gt;Node14 -->
<g id="edge26_Node000022_Node000014" class="edge">
<title>Node22&#45;&gt;Node14</title>
<g id="a_edge26_Node000022_Node000014"><a xlink:title=" ">
<path fill="none" stroke="#63b8ff" d="M535.24,-225.49C592.35,-214.99 689.45,-197.12 750.8,-185.84"/>
<polygon fill="#63b8ff" stroke="#63b8ff" points="751.5,-189.27 760.7,-184.02 750.24,-182.38 751.5,-189.27"/>
</a>
</g>
</g>
<!-- Node22&#45;&gt;Node23 -->
<g id="edge27_Node000022_Node000023" class="edge">
<title>Node22&#45;&gt;Node23</title>
<g id="a_edge27_Node000022_Node000023"><a xlink:title=" ">
<path fill="none" stroke="#63b8ff" d="M446.83,-225.49C395.07,-215.05 307.29,-197.35 251.29,-186.05"/>
<polygon fill="#63b8ff" stroke="#63b8ff" points="251.71,-182.56 241.22,-184.02 250.33,-189.43 251.71,-182.56"/>
</a>
</g>
</g>
<!-- Node24 -->
<g id="Node000024" class="node">
<title>Node24</title>
<g id="a_Node000024"><a xlink:title=" ">
<polygon fill="#e0e0e0" stroke="#999999" points="673.5,-184 580.5,-184 580.5,-165 673.5,-165 673.5,-184"/>
<text text-anchor="middle" x="627" y="-172" font-family="Helvetica,sans-Serif" font-size="10.00">unordered_map</text>
</a>
</g>
</g>
<!-- Node22&#45;&gt;Node24 -->
<g id="edge29_Node000022_Node000024" class="edge">
<title>Node22&#45;&gt;Node24</title>
<g id="a_edge29_Node000022_Node000024"><a xlink:title=" ">
<path fill="none" stroke="#63b8ff" d="M509.07,-225.49C532.37,-215.62 571.01,-199.23 597.68,-187.93"/>
<polygon fill="#63b8ff" stroke="#63b8ff" points="599.07,-191.14 606.91,-184.02 596.34,-184.7 599.07,-191.14"/>
</a>
</g>
</g>
<!-- Node25 -->
<g id="Node000025" class="node">
<title>Node25</title>
<g id="a_Node000025"><a xlink:title=" ">
<polygon fill="#e0e0e0" stroke="#999999" points="344,-184 276,-184 276,-165 344,-165 344,-184"/>
<text text-anchor="middle" x="310" y="-172" font-family="Helvetica,sans-Serif" font-size="10.00">filesystem</text>
</a>
</g>
</g>
<!-- Node22&#45;&gt;Node25 -->
<g id="edge30_Node000022_Node000025" class="edge">
<title>Node22&#45;&gt;Node25</title>
<g id="a_edge30_Node000022_Node000025"><a xlink:title=" ">
<path fill="none" stroke="#63b8ff" d="M462.97,-225.49C432.08,-215.4 380.42,-198.51 345.78,-187.19"/>
<polygon fill="#63b8ff" stroke="#63b8ff" points="346.65,-183.8 336.06,-184.02 344.48,-190.45 346.65,-183.8"/>
</a>
</g>
</g>
<!-- Node26 -->
<g id="Node000026" class="node">
<title>Node26</title>
<g id="a_Node000026"><a xlink:title=" ">
<polygon fill="#e0e0e0" stroke="#999999" points="397.5,-184 362.5,-184 362.5,-165 397.5,-165 397.5,-184"/>
<text text-anchor="middle" x="380" y="-172" font-family="Helvetica,sans-Serif" font-size="10.00">any</text>
</a>
</g>
</g>
<!-- Node22&#45;&gt;Node26 -->
<g id="edge31_Node000022_Node000026" class="edge">
<title>Node22&#45;&gt;Node26</title>
<g id="a_edge31_Node000022_Node000026"><a xlink:title=" ">
<path fill="none" stroke="#63b8ff" d="M472.92,-225.37C455.05,-215.78 425.96,-200.17 405.09,-188.97"/>
<polygon fill="#63b8ff" stroke="#63b8ff" points="406.62,-185.81 396.15,-184.17 403.31,-191.98 406.62,-185.81"/>
</a>
</g>
</g>
<!-- Node27 -->
<g id="Node000027" class="node">
<title>Node27</title>
<g id="a_Node000027"><a xlink:href="../../da/d4c/AnyMap_8inl_8h.html" target="_top" xlink:title=" ">
<polygon fill="white" stroke="#666666" points="562,-184 416,-184 416,-165 562,-165 562,-184"/>
<text text-anchor="middle" x="489" y="-172" font-family="Helvetica,sans-Serif" font-size="10.00">cantera/base/AnyMap.inl.h</text>
</a>
</g>
</g>
<!-- Node22&#45;&gt;Node27 -->
<g id="edge32_Node000022_Node000027" class="edge">
<title>Node22&#45;&gt;Node27</title>
<g id="a_edge32_Node000022_Node000027"><a xlink:title=" ">
<path fill="none" stroke="#63b8ff" d="M484.04,-225.37C482.29,-217.25 481.82,-204.81 482.64,-194.39"/>
<polygon fill="#63b8ff" stroke="#63b8ff" points="486.15,-194.55 484.04,-184.17 479.22,-193.6 486.15,-194.55"/>
</a>
</g>
</g>
<!-- Node23&#45;&gt;Node3 -->
<g id="edge28_Node000023_Node000003" class="edge">
<title>Node23&#45;&gt;Node3</title>
<g id="a_edge28_Node000023_Node000003"><a xlink:title=" ">
<path fill="none" stroke="#63b8ff" d="M257.6,-166.09C260.78,-165.72 263.93,-165.35 267,-165 422.81,-147.27 468.7,-176.98 618,-129 652.59,-117.89 688.31,-95.04 709.58,-80"/>
<polygon fill="#63b8ff" stroke="#63b8ff" points="711.71,-82.78 717.77,-74.08 707.61,-77.1 711.71,-82.78"/>
</a>
</g>
</g>
<!-- Node27&#45;&gt;Node22 -->
<g id="edge33_Node000027_Node000022" class="edge">
<title>Node27&#45;&gt;Node22</title>
<g id="a_edge33_Node000027_Node000022"><a xlink:title=" ">
<path fill="none" stroke="#63b8ff" d="M493.96,-184.17C495.71,-192.3 496.18,-204.74 495.35,-215.16"/>
<polygon fill="#63b8ff" stroke="#63b8ff" points="491.85,-214.99 493.96,-225.37 498.78,-215.94 491.85,-214.99"/>
</a>
</g>
</g>
<!-- Node28&#45;&gt;Node3 -->
<g id="edge36_Node000028_Node000003" class="edge">
<title>Node28&#45;&gt;Node3</title>
<g id="a_edge36_Node000028_Node000003"><a xlink:title=" ">
<path fill="none" stroke="#63b8ff" d="M122.07,-165.98C125.09,-165.64 128.08,-165.31 131,-165 301.87,-146.64 347.28,-161.71 516,-129 581.09,-116.38 654.77,-92.09 696.18,-77.49"/>
<polygon fill="#63b8ff" stroke="#63b8ff" points="697.49,-80.73 705.74,-74.08 695.14,-74.14 697.49,-80.73"/>
</a>
</g>
</g>
<!-- Node28&#45;&gt;Node15 -->
<g id="edge37_Node000028_Node000015" class="edge">
<title>Node28&#45;&gt;Node15</title>
<g id="a_edge37_Node000028_Node000015"><a xlink:title=" ">
<path fill="none" stroke="#63b8ff" d="M122.25,-165.22C194.64,-155.43 314.57,-139.22 388.39,-129.24"/>
<polygon fill="#63b8ff" stroke="#63b8ff" points="389.05,-132.68 398.49,-127.87 388.12,-125.74 389.05,-132.68"/>
</a>
</g>
</g>
<!-- Node29&#45;&gt;Node20 -->
<g id="edge40_Node000029_Node000020" class="edge">
<title>Node29&#45;&gt;Node20</title>
<g id="a_edge40_Node000029_Node000020"><a xlink:title=" ">
<path fill="none" stroke="#63b8ff" d="M689.8,-346.37C672.99,-336.82 645.68,-321.31 625.98,-310.12"/>
<polygon fill="#63b8ff" stroke="#63b8ff" points="627.68,-307.06 617.26,-305.17 624.23,-313.15 627.68,-307.06"/>
</a>
</g>
</g>
<!-- Node29&#45;&gt;Node21 -->
<g id="edge41_Node000029_Node000021" class="edge">
<title>Node29&#45;&gt;Node21</title>
<g id="a_edge41_Node000029_Node000021"><a xlink:title=" ">
<path fill="none" stroke="#63b8ff" d="M703.13,-346.44C698.95,-327.32 688.78,-280.77 683.07,-254.62"/>
<polygon fill="#63b8ff" stroke="#63b8ff" points="686.48,-253.82 680.92,-244.8 679.64,-255.32 686.48,-253.82"/>
</a>
</g>
</g>
<!-- Node30 -->
<g id="Node000030" class="node">
<title>Node30</title>
<g id="a_Node000030"><a xlink:href="../../de/df0/utilities_8h.html" target="_top" xlink:title="Various templated functions that carry out common vector and polynomial operations (see Templated Arr...">
<polygon fill="white" stroke="#666666" points="996,-305 868,-305 868,-286 996,-286 996,-305"/>
<text text-anchor="middle" x="932" y="-293" font-family="Helvetica,sans-Serif" font-size="10.00">cantera/base/utilities.h</text>
</a>
</g>
</g>
<!-- Node29&#45;&gt;Node30 -->
<g id="edge42_Node000029_Node000030" class="edge">
<title>Node29&#45;&gt;Node30</title>
<g id="a_edge42_Node000029_Node000030"><a xlink:title=" ">
<path fill="none" stroke="#63b8ff" d="M738.01,-346.49C777.94,-336.2 845.24,-318.86 889.14,-307.54"/>
<polygon fill="#63b8ff" stroke="#63b8ff" points="890.14,-310.9 898.95,-305.02 888.4,-304.12 890.14,-310.9"/>
</a>
</g>
</g>
<!-- Node30&#45;&gt;Node3 -->
<g id="edge43_Node000030_Node000003" class="edge">
<title>Node30&#45;&gt;Node3</title>
<g id="a_edge43_Node000030_Node000003"><a xlink:title=" ">
<path fill="none" stroke="#63b8ff" d="M942.44,-285.87C951.42,-277.7 963.74,-264.55 969,-250 973.53,-237.46 972.43,-232.88 969,-220 954.51,-165.56 950.9,-144.03 906,-110 876.47,-87.62 836.97,-76.4 802.79,-70.81"/>
<polygon fill="#63b8ff" stroke="#63b8ff" points="803.24,-67.34 792.83,-69.32 802.2,-74.27 803.24,-67.34"/>
</a>
</g>
</g>
<!-- Node31 -->
<g id="Node000031" class="node">
<title>Node31</title>
<g id="a_Node000031"><a xlink:title=" ">
<polygon fill="#e0e0e0" stroke="#999999" points="960,-244.5 904,-244.5 904,-225.5 960,-225.5 960,-244.5"/>
<text text-anchor="middle" x="932" y="-232.5" font-family="Helvetica,sans-Serif" font-size="10.00">numeric</text>
</a>
</g>
</g>
<!-- Node30&#45;&gt;Node31 -->
<g id="edge44_Node000030_Node000031" class="edge">
<title>Node30&#45;&gt;Node31</title>
<g id="a_edge44_Node000030_Node000031"><a xlink:title=" ">
<path fill="none" stroke="#63b8ff" d="M932,-285.87C932,-277.75 932,-265.31 932,-254.89"/>
<polygon fill="#63b8ff" stroke="#63b8ff" points="935.5,-254.67 932,-244.67 928.5,-254.67 935.5,-254.67"/>
</a>
</g>
</g>
<!-- Node32&#45;&gt;Node4 -->
<g id="edge46_Node000032_Node000004" class="edge">
<title>Node32&#45;&gt;Node4</title>
<g id="a_edge46_Node000032_Node000004"><a xlink:title=" ">
<path fill="none" stroke="#63b8ff" d="M1034,-340.71C1034,-318.37 1034,-273.81 1034,-236 1034,-236 1034,-236 1034,-118.5 1034,-87.17 1035.7,-50.76 1036.89,-29.23"/>
<polygon fill="#63b8ff" stroke="#63b8ff" points="1040.38,-29.36 1037.46,-19.18 1033.4,-28.96 1040.38,-29.36"/>
</a>
</g>
</g>
<!-- Node33 -->
<g id="Node000033" class="node">
<title>Node33</title>
<g id="a_Node000033"><a xlink:title=" ">
<polygon fill="#e0e0e0" stroke="#999999" points="1198,-305 1062,-305 1062,-286 1198,-286 1198,-305"/>
<text text-anchor="middle" x="1130" y="-293" font-family="Helvetica,sans-Serif" font-size="10.00">cantera/ext/Eigen/Dense</text>
</a>
</g>
</g>
<!-- Node32&#45;&gt;Node33 -->
<g id="edge47_Node000032_Node000033" class="edge">
<title>Node32&#45;&gt;Node33</title>
<g id="a_edge47_Node000032_Node000033"><a xlink:title=" ">
<path fill="none" stroke="#63b8ff" d="M1057.24,-340.84C1072.4,-331.6 1092.11,-319.59 1107.19,-310.4"/>
<polygon fill="#63b8ff" stroke="#63b8ff" points="1109.18,-313.29 1115.9,-305.09 1105.54,-307.31 1109.18,-313.29"/>
</a>
</g>
</g>
</g>
</svg>
