<?xml version="1.0" encoding="UTF-8" standalone="no"?>
<!DOCTYPE svg PUBLIC "-//W3C//DTD SVG 1.1//EN"
 "http://www.w3.org/Graphics/SVG/1.1/DTD/svg11.dtd">
<!-- Generated by graphviz version 6.0.1 (0)
 -->
<!-- Title: Math1FactoryA Pages: 1 -->
<svg width="546pt" height="71pt"
 viewBox="0.00 0.00 546.00 71.00" xmlns="http://www.w3.org/2000/svg" xmlns:xlink="http://www.w3.org/1999/xlink">
<g id="graph0" class="graph" transform="scale(1 1) rotate(0) translate(4 67)">
<title>Math1FactoryA</title>
<!-- Node1 -->
<g id="node1" class="node">
<title>Node1</title>
<g id="a_node1"><a xlink:title="Factory class to create Func1 compound objects &#45; version A.">
<polygon fill="#999999" stroke="#666666" points="538,-53 455,-53 455,-34 538,-34 538,-53"/>
<text text-anchor="middle" x="496.5" y="-41" font-family="Helvetica,sans-Serif" font-size="10.00">Math1FactoryA</text>
</a>
</g>
</g>
<!-- Node2 -->
<g id="node2" class="node">
<title>Node2</title>
<g id="a_node2"><a xlink:href="../../dc/dd4/classCantera_1_1Factory.html" target="_top" xlink:title=" ">
<polygon fill="white" stroke="#666666" points="255,-63 109,-63 109,-22 255,-22 255,-63"/>
<text text-anchor="start" x="117" y="-51" font-family="Helvetica,sans-Serif" font-size="10.00">Factory&lt; Func1, const</text>
<text text-anchor="start" x="117" y="-40" font-family="Helvetica,sans-Serif" font-size="10.00"> shared_ptr&lt; Func1 &gt;,</text>
<text text-anchor="middle" x="182" y="-29" font-family="Helvetica,sans-Serif" font-size="10.00"> const shared_ptr&lt; Func1 &gt; &gt;</text>
</a>
</g>
</g>
<!-- Node2&#45;&gt;Node1 -->
<g id="edge1" class="edge">
<title>Node2&#45;&gt;Node1</title>
<path fill="none" stroke="#63b8ff" d="M265.38,-54.21C274.35,-55.15 283.35,-55.95 292,-56.5 328.81,-58.85 338.16,-58.48 375,-56.5 401.68,-55.06 431.55,-51.85 454.87,-48.98"/>
<polygon fill="#63b8ff" stroke="#63b8ff" points="265.61,-50.72 255.29,-53.1 264.84,-57.67 265.61,-50.72"/>
</g>
<!-- Node4 -->
<g id="node4" class="node">
<title>Node4</title>
<g id="a_node4"><a xlink:href="../../d4/dec/classCantera_1_1Math1FactoryA.html" target="_top" xlink:title="Factory class to create Func1 compound objects &#45; version A.">
<polygon fill="white" stroke="#666666" points="375,-19 292,-19 292,0 375,0 375,-19"/>
<text text-anchor="middle" x="333.5" y="-7" font-family="Helvetica,sans-Serif" font-size="10.00">Math1FactoryA</text>
</a>
</g>
</g>
<!-- Node2&#45;&gt;Node4 -->
<g id="edge4" class="edge">
<title>Node2&#45;&gt;Node4</title>
<path fill="none" stroke="#63b8ff" d="M265.11,-24.37C274.29,-22.35 283.32,-20.36 291.64,-18.52"/>
<polygon fill="#63b8ff" stroke="#63b8ff" points="264.13,-21.01 255.12,-26.58 265.64,-27.84 264.13,-21.01"/>
</g>
<!-- Node3 -->
<g id="node3" class="node">
<title>Node3</title>
<g id="a_node3"><a xlink:href="../../da/dac/classCantera_1_1FactoryBase.html" target="_top" xlink:title="Base class for factories.">
<polygon fill="white" stroke="#666666" points="72,-52 0,-52 0,-33 72,-33 72,-52"/>
<text text-anchor="middle" x="36" y="-40" font-family="Helvetica,sans-Serif" font-size="10.00">FactoryBase</text>
</a>
</g>
</g>
<!-- Node3&#45;&gt;Node2 -->
<g id="edge2" class="edge">
<title>Node3&#45;&gt;Node2</title>
<path fill="none" stroke="#63b8ff" d="M82.27,-42.5C90.77,-42.5 99.84,-42.5 108.92,-42.5"/>
<polygon fill="#63b8ff" stroke="#63b8ff" points="82.23,-39 72.23,-42.5 82.23,-46 82.23,-39"/>
</g>
<!-- Node4&#45;&gt;Node1 -->
<g id="edge3" class="edge">
<title>Node4&#45;&gt;Node1</title>
<path fill="none" stroke="#9a32cd" stroke-dasharray="5,2" d="M385.17,-20.2C407.64,-24.95 433.72,-30.45 454.89,-34.92"/>
<polygon fill="#9a32cd" stroke="#9a32cd" points="385.63,-16.72 375.13,-18.08 384.19,-23.57 385.63,-16.72"/>
<text text-anchor="middle" x="415" y="-34.5" font-family="Helvetica,sans-Serif" font-size="10.00"> s_factory</text>
</g>
<!-- Node4&#45;&gt;Node4 -->
<g id="edge5" class="edge">
<title>Node4&#45;&gt;Node4</title>
<path fill="none" stroke="#9a32cd" stroke-dasharray="5,2" d="M322.52,-29.27C323.51,-33.73 327.17,-37 333.5,-37 344.16,-37 347.25,-27.73 342.75,-19.08"/>
<polygon fill="#9a32cd" stroke="#9a32cd" points="326.03,-29.53 324.25,-19.08 319.13,-28.36 326.03,-29.53"/>
<text text-anchor="middle" x="333.5" y="-40" font-family="Helvetica,sans-Serif" font-size="10.00"> s_factory</text>
</g>
</g>
</svg>
