<?xml version="1.0" encoding="UTF-8" standalone="no"?>
<!DOCTYPE svg PUBLIC "-//W3C//DTD SVG 1.1//EN"
 "http://www.w3.org/Graphics/SVG/1.1/DTD/svg11.dtd">
<!-- Generated by graphviz version 2.50.0 (0)
 -->
<!-- Title: VPStandardStateTP.h Pages: 1 -->
<svg width="2272pt" height="196pt"
 viewBox="0.00 0.00 2271.50 196.00" xmlns="http://www.w3.org/2000/svg" xmlns:xlink="http://www.w3.org/1999/xlink">
<g id="graph0" class="graph" transform="scale(1 1) rotate(0) translate(4 192)">
<title>VPStandardStateTP.h</title>
<polygon fill="white" stroke="transparent" points="-4,4 -4,-192 2267.5,-192 2267.5,4 -4,4"/>
<!-- Node1 -->
<g id="node1" class="node">
<title>Node1</title>
<g id="a_node1"><a xlink:title="Header file for a derived class of ThermoPhase that handles variable pressure standard state methods ...">
<polygon fill="#bfbfbf" stroke="black" points="1388.5,-168.5 1388.5,-187.5 1500.5,-187.5 1500.5,-168.5 1388.5,-168.5"/>
<text text-anchor="middle" x="1444.5" y="-175.5" font-family="Helvetica,sans-Serif" font-size="10.00">VPStandardStateTP.h</text>
</a>
</g>
</g>
<!-- Node2 -->
<g id="node2" class="node">
<title>Node2</title>
<g id="a_node2"><a xlink:href="../../d6/d88/GibbsExcessVPSSTP_8h.html" target="_top" xlink:title="Header for intermediate ThermoPhase object for phases which employ Gibbs excess free energy based for...">
<polygon fill="white" stroke="black" points="403.5,-112.5 403.5,-131.5 525.5,-131.5 525.5,-112.5 403.5,-112.5"/>
<text text-anchor="middle" x="464.5" y="-119.5" font-family="Helvetica,sans-Serif" font-size="10.00">GibbsExcessVPSSTP.h</text>
</a>
</g>
</g>
<!-- Node1&#45;&gt;Node2 -->
<g id="edge1" class="edge">
<title>Node1&#45;&gt;Node2</title>
<path fill="none" stroke="midnightblue" d="M1378.15,-173.34C1197.72,-163.4 700.06,-135.98 525.76,-126.38"/>
<polygon fill="midnightblue" stroke="midnightblue" points="1378.11,-176.85 1388.29,-173.9 1378.5,-169.86 1378.11,-176.85"/>
</g>
<!-- Node12 -->
<g id="node12" class="node">
<title>Node12</title>
<g id="a_node12"><a xlink:href="../../db/d88/IdealSolnGasVPSS_8h.html" target="_top" xlink:title="Definition file for a derived class of ThermoPhase that assumes an ideal solution approximation and h...">
<polygon fill="white" stroke="black" points="953.5,-112.5 953.5,-131.5 1063.5,-131.5 1063.5,-112.5 953.5,-112.5"/>
<text text-anchor="middle" x="1008.5" y="-119.5" font-family="Helvetica,sans-Serif" font-size="10.00">IdealSolnGasVPSS.h</text>
</a>
</g>
</g>
<!-- Node1&#45;&gt;Node12 -->
<g id="edge13" class="edge">
<title>Node1&#45;&gt;Node12</title>
<path fill="none" stroke="midnightblue" d="M1378.2,-169.37C1303.76,-160.72 1179.39,-145.98 1072.5,-132 1069.61,-131.62 1066.64,-131.23 1063.65,-130.82"/>
<polygon fill="midnightblue" stroke="midnightblue" points="1378.03,-172.88 1388.37,-170.55 1378.84,-165.92 1378.03,-172.88"/>
</g>
<!-- Node14 -->
<g id="node14" class="node">
<title>Node14</title>
<g id="a_node14"><a xlink:href="../../d4/d33/MaskellSolidSolnPhase_8h.html" target="_top" xlink:title="Header file for a solid solution model following Maskell, Shaw, and Tye.">
<polygon fill="white" stroke="black" points="708.5,-112.5 708.5,-131.5 836.5,-131.5 836.5,-112.5 708.5,-112.5"/>
<text text-anchor="middle" x="772.5" y="-119.5" font-family="Helvetica,sans-Serif" font-size="10.00">MaskellSolidSolnPhase.h</text>
</a>
</g>
</g>
<!-- Node1&#45;&gt;Node14 -->
<g id="edge16" class="edge">
<title>Node1&#45;&gt;Node14</title>
<path fill="none" stroke="midnightblue" d="M1378.2,-171.67C1248.87,-161.28 964.43,-138.42 836.75,-128.16"/>
<polygon fill="midnightblue" stroke="midnightblue" points="1378.11,-175.18 1388.36,-172.49 1378.67,-168.2 1378.11,-175.18"/>
</g>
<!-- Node16 -->
<g id="node16" class="node">
<title>Node16</title>
<g id="a_node16"><a xlink:href="../../d1/d24/MolalityVPSSTP_8h.html" target="_top" xlink:title="Header for intermediate ThermoPhase object for phases which employ molality based activity coefficien...">
<polygon fill="white" stroke="black" points="1194,-112.5 1194,-131.5 1291,-131.5 1291,-112.5 1194,-112.5"/>
<text text-anchor="middle" x="1242.5" y="-119.5" font-family="Helvetica,sans-Serif" font-size="10.00">MolalityVPSSTP.h</text>
</a>
</g>
</g>
<!-- Node1&#45;&gt;Node16 -->
<g id="edge19" class="edge">
<title>Node1&#45;&gt;Node16</title>
<path fill="none" stroke="midnightblue" d="M1402.71,-165.83C1364.57,-155.63 1309.02,-140.78 1274.36,-131.52"/>
<polygon fill="midnightblue" stroke="midnightblue" points="1401.93,-169.24 1412.49,-168.44 1403.74,-162.48 1401.93,-169.24"/>
</g>
<!-- Node26 -->
<g id="node26" class="node">
<title>Node26</title>
<g id="a_node26"><a xlink:href="../../d3/d3c/PDSS_8cpp.html" target="_top" xlink:title="Implementation of a pressure dependent standard state virtual function (see class PDSS).">
<polygon fill="white" stroke="black" points="1309,-112.5 1309,-131.5 1372,-131.5 1372,-112.5 1309,-112.5"/>
<text text-anchor="middle" x="1340.5" y="-119.5" font-family="Helvetica,sans-Serif" font-size="10.00">PDSS.cpp</text>
</a>
</g>
</g>
<!-- Node1&#45;&gt;Node26 -->
<g id="edge32" class="edge">
<title>Node1&#45;&gt;Node26</title>
<path fill="none" stroke="midnightblue" d="M1418.67,-163.59C1399.44,-153.61 1373.76,-140.27 1357.17,-131.65"/>
<polygon fill="midnightblue" stroke="midnightblue" points="1417.3,-166.82 1427.79,-168.32 1420.53,-160.61 1417.3,-166.82"/>
</g>
<!-- Node27 -->
<g id="node27" class="node">
<title>Node27</title>
<g id="a_node27"><a xlink:href="../../db/d8c/PDSSFactory_8h.html" target="_top" xlink:title=" ">
<polygon fill="white" stroke="black" points="1081.5,-112.5 1081.5,-131.5 1165.5,-131.5 1165.5,-112.5 1081.5,-112.5"/>
<text text-anchor="middle" x="1123.5" y="-119.5" font-family="Helvetica,sans-Serif" font-size="10.00">PDSSFactory.h</text>
</a>
</g>
</g>
<!-- Node1&#45;&gt;Node27 -->
<g id="edge33" class="edge">
<title>Node1&#45;&gt;Node27</title>
<path fill="none" stroke="midnightblue" d="M1383.73,-166.78C1320.06,-156.07 1221.7,-139.52 1165.92,-130.14"/>
<polygon fill="midnightblue" stroke="midnightblue" points="1383.19,-170.24 1393.64,-168.44 1384.36,-163.33 1383.19,-170.24"/>
</g>
<!-- Node29 -->
<g id="node29" class="node">
<title>Node29</title>
<g id="a_node29"><a xlink:href="../../da/d94/PDSS__ConstVol_8cpp.html" target="_top" xlink:title="Implementation of a pressure dependent standard state virtual function.">
<polygon fill="white" stroke="black" points="1390,-112.5 1390,-131.5 1499,-131.5 1499,-112.5 1390,-112.5"/>
<text text-anchor="middle" x="1444.5" y="-119.5" font-family="Helvetica,sans-Serif" font-size="10.00">PDSS_ConstVol.cpp</text>
</a>
</g>
</g>
<!-- Node1&#45;&gt;Node29 -->
<g id="edge36" class="edge">
<title>Node1&#45;&gt;Node29</title>
<path fill="none" stroke="midnightblue" d="M1444.5,-157.8C1444.5,-148.91 1444.5,-138.78 1444.5,-131.75"/>
<polygon fill="midnightblue" stroke="midnightblue" points="1441,-158.08 1444.5,-168.08 1448,-158.08 1441,-158.08"/>
</g>
<!-- Node30 -->
<g id="node30" class="node">
<title>Node30</title>
<g id="a_node30"><a xlink:href="../../d1/d3f/PDSS__HKFT_8cpp.html" target="_top" xlink:title="Definitions for the class PDSS_HKFT (pressure dependent standard state) which handles calculations fo...">
<polygon fill="white" stroke="black" points="1517,-112.5 1517,-131.5 1610,-131.5 1610,-112.5 1517,-112.5"/>
<text text-anchor="middle" x="1563.5" y="-119.5" font-family="Helvetica,sans-Serif" font-size="10.00">PDSS_HKFT.cpp</text>
</a>
</g>
</g>
<!-- Node1&#45;&gt;Node30 -->
<g id="edge37" class="edge">
<title>Node1&#45;&gt;Node30</title>
<path fill="none" stroke="midnightblue" d="M1472.64,-164.23C1494.9,-154.13 1525.36,-140.31 1544.73,-131.52"/>
<polygon fill="midnightblue" stroke="midnightblue" points="1471.02,-161.12 1463.36,-168.44 1473.91,-167.5 1471.02,-161.12"/>
</g>
<!-- Node31 -->
<g id="node31" class="node">
<title>Node31</title>
<g id="a_node31"><a xlink:href="../../d3/d44/PDSS__IdealGas_8cpp.html" target="_top" xlink:title="Implementation of a pressure dependent standard state virtual function.">
<polygon fill="white" stroke="black" points="1628,-112.5 1628,-131.5 1735,-131.5 1735,-112.5 1628,-112.5"/>
<text text-anchor="middle" x="1681.5" y="-119.5" font-family="Helvetica,sans-Serif" font-size="10.00">PDSS_IdealGas.cpp</text>
</a>
</g>
</g>
<!-- Node1&#45;&gt;Node31 -->
<g id="edge38" class="edge">
<title>Node1&#45;&gt;Node31</title>
<path fill="none" stroke="midnightblue" d="M1491.82,-166.22C1536.61,-156.01 1602.94,-140.9 1644.12,-131.52"/>
<polygon fill="midnightblue" stroke="midnightblue" points="1491.03,-162.81 1482.05,-168.44 1492.58,-169.63 1491.03,-162.81"/>
</g>
<!-- Node32 -->
<g id="node32" class="node">
<title>Node32</title>
<g id="a_node32"><a xlink:href="../../d2/d42/PDSS__SSVol_8cpp.html" target="_top" xlink:title="Implementation of a pressure dependent standard state virtual function.">
<polygon fill="white" stroke="black" points="1753.5,-112.5 1753.5,-131.5 1849.5,-131.5 1849.5,-112.5 1753.5,-112.5"/>
<text text-anchor="middle" x="1801.5" y="-119.5" font-family="Helvetica,sans-Serif" font-size="10.00">PDSS_SSVol.cpp</text>
</a>
</g>
</g>
<!-- Node1&#45;&gt;Node32 -->
<g id="edge39" class="edge">
<title>Node1&#45;&gt;Node32</title>
<path fill="none" stroke="midnightblue" d="M1510.87,-167.19C1571.67,-158.18 1664.17,-144.37 1744.5,-132 1747.37,-131.56 1750.32,-131.1 1753.3,-130.64"/>
<polygon fill="midnightblue" stroke="midnightblue" points="1510.02,-163.78 1500.64,-168.71 1511.05,-170.71 1510.02,-163.78"/>
</g>
<!-- Node33 -->
<g id="node33" class="node">
<title>Node33</title>
<g id="a_node33"><a xlink:href="../../da/d47/SpeciesThermoFactory_8cpp.html" target="_top" xlink:title="Definitions for factory functions to build instances of classes that manage the standard&#45;state thermo...">
<polygon fill="white" stroke="black" points="1868,-112.5 1868,-131.5 2003,-131.5 2003,-112.5 1868,-112.5"/>
<text text-anchor="middle" x="1935.5" y="-119.5" font-family="Helvetica,sans-Serif" font-size="10.00">SpeciesThermoFactory.cpp</text>
</a>
</g>
</g>
<!-- Node1&#45;&gt;Node33 -->
<g id="edge40" class="edge">
<title>Node1&#45;&gt;Node33</title>
<path fill="none" stroke="midnightblue" d="M1510.92,-169.95C1592.7,-161.23 1735.86,-145.83 1858.5,-132 1861.58,-131.65 1864.72,-131.3 1867.9,-130.93"/>
<polygon fill="midnightblue" stroke="midnightblue" points="1510.34,-166.49 1500.76,-171.03 1511.08,-173.45 1510.34,-166.49"/>
</g>
<!-- Node34 -->
<g id="node34" class="node">
<title>Node34</title>
<g id="a_node34"><a xlink:href="../../d9/da4/VPStandardStateTP_8cpp.html" target="_top" xlink:title="Definition file for a derived class of ThermoPhase that handles variable pressure standard state meth...">
<polygon fill="white" stroke="black" points="2021.5,-112.5 2021.5,-131.5 2143.5,-131.5 2143.5,-112.5 2021.5,-112.5"/>
<text text-anchor="middle" x="2082.5" y="-119.5" font-family="Helvetica,sans-Serif" font-size="10.00">VPStandardStateTP.cpp</text>
</a>
</g>
</g>
<!-- Node1&#45;&gt;Node34 -->
<g id="edge41" class="edge">
<title>Node1&#45;&gt;Node34</title>
<path fill="none" stroke="midnightblue" d="M1510.85,-172.8C1616.96,-165.84 1831.34,-150.81 2012.5,-132 2015.42,-131.7 2018.42,-131.37 2021.44,-131.03"/>
<polygon fill="midnightblue" stroke="midnightblue" points="1510.36,-169.32 1500.61,-173.47 1510.82,-176.31 1510.36,-169.32"/>
</g>
<!-- Node35 -->
<g id="node35" class="node">
<title>Node35</title>
<g id="a_node35"><a xlink:href="../../d7/d8a/WaterTransport_8cpp.html" target="_top" xlink:title=" ">
<polygon fill="white" stroke="black" points="2161.5,-112.5 2161.5,-131.5 2263.5,-131.5 2263.5,-112.5 2161.5,-112.5"/>
<text text-anchor="middle" x="2212.5" y="-119.5" font-family="Helvetica,sans-Serif" font-size="10.00">WaterTransport.cpp</text>
</a>
</g>
</g>
<!-- Node1&#45;&gt;Node35 -->
<g id="edge42" class="edge">
<title>Node1&#45;&gt;Node35</title>
<path fill="none" stroke="midnightblue" d="M1510.84,-174.68C1636.39,-169.86 1917.23,-157.08 2152.5,-132 2155.43,-131.69 2158.44,-131.34 2161.48,-130.96"/>
<polygon fill="midnightblue" stroke="midnightblue" points="1510.48,-171.19 1500.62,-175.06 1510.75,-178.18 1510.48,-171.19"/>
</g>
<!-- Node3 -->
<g id="node3" class="node">
<title>Node3</title>
<g id="a_node3"><a xlink:href="../../d1/d54/GibbsExcessVPSSTP_8cpp.html" target="_top" xlink:title="Definitions for intermediate ThermoPhase object for phases which employ excess Gibbs free energy form...">
<polygon fill="white" stroke="black" points="253.5,-56.5 253.5,-75.5 385.5,-75.5 385.5,-56.5 253.5,-56.5"/>
<text text-anchor="middle" x="319.5" y="-63.5" font-family="Helvetica,sans-Serif" font-size="10.00">GibbsExcessVPSSTP.cpp</text>
</a>
</g>
</g>
<!-- Node2&#45;&gt;Node3 -->
<g id="edge2" class="edge">
<title>Node2&#45;&gt;Node3</title>
<path fill="none" stroke="midnightblue" d="M432.02,-108.91C404.76,-98.75 366.51,-84.51 342.37,-75.52"/>
<polygon fill="midnightblue" stroke="midnightblue" points="430.93,-112.23 441.52,-112.44 433.37,-105.67 430.93,-112.23"/>
</g>
<!-- Node4 -->
<g id="node4" class="node">
<title>Node4</title>
<g id="a_node4"><a xlink:href="../../de/dd7/IonsFromNeutralVPSSTP_8h.html" target="_top" xlink:title="Header for intermediate ThermoPhase object for phases which consist of ions whose thermodynamics is c...">
<polygon fill="white" stroke="black" points="99.5,-56.5 99.5,-75.5 235.5,-75.5 235.5,-56.5 99.5,-56.5"/>
<text text-anchor="middle" x="167.5" y="-63.5" font-family="Helvetica,sans-Serif" font-size="10.00">IonsFromNeutralVPSSTP.h</text>
</a>
</g>
</g>
<!-- Node2&#45;&gt;Node4 -->
<g id="edge3" class="edge">
<title>Node2&#45;&gt;Node4</title>
<path fill="none" stroke="midnightblue" d="M407.3,-110.6C351.17,-100.4 266.6,-85.02 214.34,-75.52"/>
<polygon fill="midnightblue" stroke="midnightblue" points="406.97,-114.1 417.44,-112.44 408.23,-107.21 406.97,-114.1"/>
</g>
<!-- Node8 -->
<g id="node8" class="node">
<title>Node8</title>
<g id="a_node8"><a xlink:href="../../d9/db4/MargulesVPSSTP_8h.html" target="_top" xlink:title="(see Thermodynamic Properties and class MargulesVPSSTP).">
<polygon fill="white" stroke="black" points="544,-56.5 544,-75.5 647,-75.5 647,-56.5 544,-56.5"/>
<text text-anchor="middle" x="595.5" y="-63.5" font-family="Helvetica,sans-Serif" font-size="10.00">MargulesVPSSTP.h</text>
</a>
</g>
</g>
<!-- Node2&#45;&gt;Node8 -->
<g id="edge7" class="edge">
<title>Node2&#45;&gt;Node8</title>
<path fill="none" stroke="midnightblue" d="M494.82,-108.5C519.38,-98.38 553.32,-84.39 574.84,-75.52"/>
<polygon fill="midnightblue" stroke="midnightblue" points="493.17,-105.4 485.26,-112.44 495.84,-111.87 493.17,-105.4"/>
</g>
<!-- Node10 -->
<g id="node10" class="node">
<title>Node10</title>
<g id="a_node10"><a xlink:href="../../d6/d63/RedlichKisterVPSSTP_8h.html" target="_top" xlink:title="(see Thermodynamic Properties and class RedlichKisterVPSSTP).">
<polygon fill="white" stroke="black" points="403.5,-56.5 403.5,-75.5 525.5,-75.5 525.5,-56.5 403.5,-56.5"/>
<text text-anchor="middle" x="464.5" y="-63.5" font-family="Helvetica,sans-Serif" font-size="10.00">RedlichKisterVPSSTP.h</text>
</a>
</g>
</g>
<!-- Node2&#45;&gt;Node10 -->
<g id="edge10" class="edge">
<title>Node2&#45;&gt;Node10</title>
<path fill="none" stroke="midnightblue" d="M464.5,-101.8C464.5,-92.91 464.5,-82.78 464.5,-75.75"/>
<polygon fill="midnightblue" stroke="midnightblue" points="461,-102.08 464.5,-112.08 468,-102.08 461,-102.08"/>
</g>
<!-- Node5 -->
<g id="node5" class="node">
<title>Node5</title>
<g id="a_node5"><a xlink:href="../../db/dcc/IonsFromNeutralVPSSTP_8cpp.html" target="_top" xlink:title="Definitions for the object which treats ionic liquids as made of ions as species even though the ther...">
<polygon fill="white" stroke="black" points="159.5,-0.5 159.5,-19.5 305.5,-19.5 305.5,-0.5 159.5,-0.5"/>
<text text-anchor="middle" x="232.5" y="-7.5" font-family="Helvetica,sans-Serif" font-size="10.00">IonsFromNeutralVPSSTP.cpp</text>
</a>
</g>
</g>
<!-- Node4&#45;&gt;Node5 -->
<g id="edge4" class="edge">
<title>Node4&#45;&gt;Node5</title>
<path fill="none" stroke="midnightblue" d="M185.77,-49.82C197.42,-40.15 212.1,-27.95 221.87,-19.83"/>
<polygon fill="midnightblue" stroke="midnightblue" points="183.4,-47.24 177.94,-56.32 187.87,-52.63 183.4,-47.24"/>
</g>
<!-- Node6 -->
<g id="node6" class="node">
<title>Node6</title>
<g id="a_node6"><a xlink:href="../../dc/dc2/PDSS__IonsFromNeutral_8cpp.html" target="_top" xlink:title="Implementation of a pressure dependent standard state virtual function.">
<polygon fill="white" stroke="black" points="0,-0.5 0,-19.5 141,-19.5 141,-0.5 0,-0.5"/>
<text text-anchor="middle" x="70.5" y="-7.5" font-family="Helvetica,sans-Serif" font-size="10.00">PDSS_IonsFromNeutral.cpp</text>
</a>
</g>
</g>
<!-- Node4&#45;&gt;Node6 -->
<g id="edge5" class="edge">
<title>Node4&#45;&gt;Node6</title>
<path fill="none" stroke="midnightblue" d="M143.16,-51.45C125.26,-41.48 101.45,-28.23 86.05,-19.65"/>
<polygon fill="midnightblue" stroke="midnightblue" points="141.48,-54.52 151.92,-56.32 144.88,-48.4 141.48,-54.52"/>
</g>
<!-- Node7 -->
<g id="node7" class="node">
<title>Node7</title>
<g id="a_node7"><a xlink:href="../../d2/d3a/ThermoFactory_8cpp.html" target="_top" xlink:title="Definitions for the factory class that can create known ThermoPhase objects (see Thermodynamic Proper...">
<polygon fill="white" stroke="black" points="959.5,-0.5 959.5,-19.5 1059.5,-19.5 1059.5,-0.5 959.5,-0.5"/>
<text text-anchor="middle" x="1009.5" y="-7.5" font-family="Helvetica,sans-Serif" font-size="10.00">ThermoFactory.cpp</text>
</a>
</g>
</g>
<!-- Node4&#45;&gt;Node7 -->
<g id="edge6" class="edge">
<title>Node4&#45;&gt;Node7</title>
<path fill="none" stroke="midnightblue" d="M246.1,-55.91C521.41,-32.03 838.43,-17.86 959.3,-12.95"/>
<polygon fill="midnightblue" stroke="midnightblue" points="245.57,-52.44 235.91,-56.8 246.18,-59.41 245.57,-52.44"/>
</g>
<!-- Node8&#45;&gt;Node7 -->
<g id="edge9" class="edge">
<title>Node8&#45;&gt;Node7</title>
<path fill="none" stroke="midnightblue" d="M657.04,-56.59C658.54,-56.39 660.03,-56.2 661.5,-56 767.48,-41.92 891.7,-26 959.35,-17.37"/>
<polygon fill="midnightblue" stroke="midnightblue" points="656.46,-53.14 647.02,-57.94 657.39,-60.08 656.46,-53.14"/>
</g>
<!-- Node9 -->
<g id="node9" class="node">
<title>Node9</title>
<g id="a_node9"><a xlink:href="../../dd/d35/MargulesVPSSTP_8cpp.html" target="_top" xlink:title="Definitions for ThermoPhase object for phases which employ excess Gibbs free energy formulations rela...">
<polygon fill="white" stroke="black" points="544,-0.5 544,-19.5 657,-19.5 657,-0.5 544,-0.5"/>
<text text-anchor="middle" x="600.5" y="-7.5" font-family="Helvetica,sans-Serif" font-size="10.00">MargulesVPSSTP.cpp</text>
</a>
</g>
</g>
<!-- Node8&#45;&gt;Node9 -->
<g id="edge8" class="edge">
<title>Node8&#45;&gt;Node9</title>
<path fill="none" stroke="midnightblue" d="M597.25,-46.1C598.08,-37.14 599.03,-26.86 599.69,-19.75"/>
<polygon fill="midnightblue" stroke="midnightblue" points="593.76,-45.8 596.33,-56.08 600.73,-46.45 593.76,-45.8"/>
</g>
<!-- Node10&#45;&gt;Node7 -->
<g id="edge12" class="edge">
<title>Node10&#45;&gt;Node7</title>
<path fill="none" stroke="midnightblue" d="M535.65,-55.9C696.54,-38.09 874.18,-22.45 959.17,-15.21"/>
<polygon fill="midnightblue" stroke="midnightblue" points="535.12,-52.44 525.57,-57.03 535.89,-59.4 535.12,-52.44"/>
</g>
<!-- Node11 -->
<g id="node11" class="node">
<title>Node11</title>
<g id="a_node11"><a xlink:href="../../d1/dec/RedlichKisterVPSSTP_8cpp.html" target="_top" xlink:title="Definitions for ThermoPhase object for phases which employ excess Gibbs free energy formulations rela...">
<polygon fill="white" stroke="black" points="393.5,-0.5 393.5,-19.5 525.5,-19.5 525.5,-0.5 393.5,-0.5"/>
<text text-anchor="middle" x="459.5" y="-7.5" font-family="Helvetica,sans-Serif" font-size="10.00">RedlichKisterVPSSTP.cpp</text>
</a>
</g>
</g>
<!-- Node10&#45;&gt;Node11 -->
<g id="edge11" class="edge">
<title>Node10&#45;&gt;Node11</title>
<path fill="none" stroke="midnightblue" d="M462.75,-46.1C461.92,-37.14 460.97,-26.86 460.31,-19.75"/>
<polygon fill="midnightblue" stroke="midnightblue" points="459.27,-46.45 463.67,-56.08 466.24,-45.8 459.27,-46.45"/>
</g>
<!-- Node12&#45;&gt;Node7 -->
<g id="edge15" class="edge">
<title>Node12&#45;&gt;Node7</title>
<path fill="none" stroke="midnightblue" d="M1008.67,-102.35C1008.89,-78.25 1009.26,-37.31 1009.42,-19.59"/>
<polygon fill="midnightblue" stroke="midnightblue" points="1005.17,-102.34 1008.58,-112.37 1012.17,-102.4 1005.17,-102.34"/>
</g>
<!-- Node13 -->
<g id="node13" class="node">
<title>Node13</title>
<g id="a_node13"><a xlink:href="../../d6/d7f/IdealSolnGasVPSS_8cpp.html" target="_top" xlink:title="Definition file for a derived class of ThermoPhase that assumes an ideal solution approximation and h...">
<polygon fill="white" stroke="black" points="860,-56.5 860,-75.5 981,-75.5 981,-56.5 860,-56.5"/>
<text text-anchor="middle" x="920.5" y="-63.5" font-family="Helvetica,sans-Serif" font-size="10.00">IdealSolnGasVPSS.cpp</text>
</a>
</g>
</g>
<!-- Node12&#45;&gt;Node13 -->
<g id="edge14" class="edge">
<title>Node12&#45;&gt;Node13</title>
<path fill="none" stroke="midnightblue" d="M985.52,-106.9C969.39,-97 948.32,-84.07 934.6,-75.65"/>
<polygon fill="midnightblue" stroke="midnightblue" points="984.01,-110.08 994.36,-112.32 987.67,-104.11 984.01,-110.08"/>
</g>
<!-- Node14&#45;&gt;Node7 -->
<g id="edge18" class="edge">
<title>Node14&#45;&gt;Node7</title>
<path fill="none" stroke="midnightblue" d="M738.27,-108.68C709.72,-96.56 676.39,-76.88 694.5,-56 728.16,-17.19 879.19,-11.02 959.27,-10.55"/>
<polygon fill="midnightblue" stroke="midnightblue" points="737.11,-111.99 747.69,-112.5 739.73,-105.5 737.11,-111.99"/>
</g>
<!-- Node15 -->
<g id="node15" class="node">
<title>Node15</title>
<g id="a_node15"><a xlink:href="../../d0/d82/MaskellSolidSolnPhase_8cpp.html" target="_top" xlink:title="Implementation file for an ideal solid solution model with incompressible thermodynamics (see Thermod...">
<polygon fill="white" stroke="black" points="703.5,-56.5 703.5,-75.5 841.5,-75.5 841.5,-56.5 703.5,-56.5"/>
<text text-anchor="middle" x="772.5" y="-63.5" font-family="Helvetica,sans-Serif" font-size="10.00">MaskellSolidSolnPhase.cpp</text>
</a>
</g>
</g>
<!-- Node14&#45;&gt;Node15 -->
<g id="edge17" class="edge">
<title>Node14&#45;&gt;Node15</title>
<path fill="none" stroke="midnightblue" d="M772.5,-101.8C772.5,-92.91 772.5,-82.78 772.5,-75.75"/>
<polygon fill="midnightblue" stroke="midnightblue" points="769,-102.08 772.5,-112.08 776,-102.08 769,-102.08"/>
</g>
<!-- Node17 -->
<g id="node17" class="node">
<title>Node17</title>
<g id="a_node17"><a xlink:href="../../de/dd9/DebyeHuckel_8h.html" target="_top" xlink:title="Headers for the DebyeHuckel ThermoPhase object, which models dilute electrolyte solutions (see Thermo...">
<polygon fill="white" stroke="black" points="1401.5,-56.5 1401.5,-75.5 1485.5,-75.5 1485.5,-56.5 1401.5,-56.5"/>
<text text-anchor="middle" x="1443.5" y="-63.5" font-family="Helvetica,sans-Serif" font-size="10.00">DebyeHuckel.h</text>
</a>
</g>
</g>
<!-- Node16&#45;&gt;Node17 -->
<g id="edge20" class="edge">
<title>Node16&#45;&gt;Node17</title>
<path fill="none" stroke="midnightblue" d="M1284.08,-109.83C1322.03,-99.63 1377.31,-84.78 1411.8,-75.52"/>
<polygon fill="midnightblue" stroke="midnightblue" points="1283.1,-106.47 1274.35,-112.44 1284.91,-113.23 1283.1,-106.47"/>
</g>
<!-- Node19 -->
<g id="node19" class="node">
<title>Node19</title>
<g id="a_node19"><a xlink:href="../../d0/d16/HMWSoln_8h.html" target="_top" xlink:title="Headers for the HMWSoln ThermoPhase object, which models concentrated electrolyte solutions (see Ther...">
<polygon fill="white" stroke="black" points="1313.5,-56.5 1313.5,-75.5 1383.5,-75.5 1383.5,-56.5 1313.5,-56.5"/>
<text text-anchor="middle" x="1348.5" y="-63.5" font-family="Helvetica,sans-Serif" font-size="10.00">HMWSoln.h</text>
</a>
</g>
</g>
<!-- Node16&#45;&gt;Node19 -->
<g id="edge23" class="edge">
<title>Node16&#45;&gt;Node19</title>
<path fill="none" stroke="midnightblue" d="M1268.56,-107.73C1288.18,-97.73 1314.53,-84.31 1331.51,-75.65"/>
<polygon fill="midnightblue" stroke="midnightblue" points="1266.85,-104.67 1259.53,-112.32 1270.03,-110.9 1266.85,-104.67"/>
</g>
<!-- Node21 -->
<g id="node21" class="node">
<title>Node21</title>
<g id="a_node21"><a xlink:href="../../d5/db6/IdealMolalSoln_8h.html" target="_top" xlink:title="ThermoPhase object for the ideal molal equation of state (see Thermodynamic Properties and class Idea...">
<polygon fill="white" stroke="black" points="1629,-56.5 1629,-75.5 1718,-75.5 1718,-56.5 1629,-56.5"/>
<text text-anchor="middle" x="1673.5" y="-63.5" font-family="Helvetica,sans-Serif" font-size="10.00">IdealMolalSoln.h</text>
</a>
</g>
</g>
<!-- Node16&#45;&gt;Node21 -->
<g id="edge26" class="edge">
<title>Node16&#45;&gt;Node21</title>
<path fill="none" stroke="midnightblue" d="M1301.23,-111.96C1444.05,-93.14 1481.97,-95.54 1620.5,-76 1623.27,-75.61 1626.12,-75.19 1629,-74.74"/>
<polygon fill="midnightblue" stroke="midnightblue" points="1300.66,-108.5 1291.21,-113.29 1301.59,-115.44 1300.66,-108.5"/>
</g>
<!-- Node24 -->
<g id="node24" class="node">
<title>Node24</title>
<g id="a_node24"><a xlink:href="../../db/dd7/MolalityVPSSTP_8cpp.html" target="_top" xlink:title="Definitions for intermediate ThermoPhase object for phases which employ molality based activity coeff...">
<polygon fill="white" stroke="black" points="1504,-56.5 1504,-75.5 1611,-75.5 1611,-56.5 1504,-56.5"/>
<text text-anchor="middle" x="1557.5" y="-63.5" font-family="Helvetica,sans-Serif" font-size="10.00">MolalityVPSSTP.cpp</text>
</a>
</g>
</g>
<!-- Node16&#45;&gt;Node24 -->
<g id="edge30" class="edge">
<title>Node16&#45;&gt;Node24</title>
<path fill="none" stroke="midnightblue" d="M1301.03,-110.97C1360.55,-100.76 1451.78,-85.12 1507.88,-75.51"/>
<polygon fill="midnightblue" stroke="midnightblue" points="1300.29,-107.54 1291.03,-112.68 1301.48,-114.44 1300.29,-107.54"/>
</g>
<!-- Node25 -->
<g id="node25" class="node">
<title>Node25</title>
<g id="a_node25"><a xlink:href="../../d1/dd3/MultiPhaseEquil_8cpp.html" target="_top" xlink:title=" ">
<polygon fill="white" stroke="black" points="1189.5,-56.5 1189.5,-75.5 1295.5,-75.5 1295.5,-56.5 1189.5,-56.5"/>
<text text-anchor="middle" x="1242.5" y="-63.5" font-family="Helvetica,sans-Serif" font-size="10.00">MultiPhaseEquil.cpp</text>
</a>
</g>
</g>
<!-- Node16&#45;&gt;Node25 -->
<g id="edge31" class="edge">
<title>Node16&#45;&gt;Node25</title>
<path fill="none" stroke="midnightblue" d="M1242.5,-101.8C1242.5,-92.91 1242.5,-82.78 1242.5,-75.75"/>
<polygon fill="midnightblue" stroke="midnightblue" points="1239,-102.08 1242.5,-112.08 1246,-102.08 1239,-102.08"/>
</g>
<!-- Node17&#45;&gt;Node7 -->
<g id="edge22" class="edge">
<title>Node17&#45;&gt;Node7</title>
<path fill="none" stroke="midnightblue" d="M1391.1,-55.87C1266.06,-37.72 1130.82,-23.2 1059.5,-15.94"/>
<polygon fill="midnightblue" stroke="midnightblue" points="1390.83,-59.36 1401.23,-57.35 1391.84,-52.44 1390.83,-59.36"/>
</g>
<!-- Node18 -->
<g id="node18" class="node">
<title>Node18</title>
<g id="a_node18"><a xlink:href="../../dc/ddc/DebyeHuckel_8cpp.html" target="_top" xlink:title="Declarations for the DebyeHuckel ThermoPhase object, which models dilute electrolyte solutions (see T...">
<polygon fill="white" stroke="black" points="1401,-0.5 1401,-19.5 1496,-19.5 1496,-0.5 1401,-0.5"/>
<text text-anchor="middle" x="1448.5" y="-7.5" font-family="Helvetica,sans-Serif" font-size="10.00">DebyeHuckel.cpp</text>
</a>
</g>
</g>
<!-- Node17&#45;&gt;Node18 -->
<g id="edge21" class="edge">
<title>Node17&#45;&gt;Node18</title>
<path fill="none" stroke="midnightblue" d="M1445.25,-46.1C1446.08,-37.14 1447.03,-26.86 1447.69,-19.75"/>
<polygon fill="midnightblue" stroke="midnightblue" points="1441.76,-45.8 1444.33,-56.08 1448.73,-46.45 1441.76,-45.8"/>
</g>
<!-- Node19&#45;&gt;Node7 -->
<g id="edge25" class="edge">
<title>Node19&#45;&gt;Node7</title>
<path fill="none" stroke="midnightblue" d="M1303.46,-55.89C1211.82,-39.69 1116.48,-25.82 1059.74,-17.88"/>
<polygon fill="midnightblue" stroke="midnightblue" points="1303.01,-59.36 1313.47,-57.67 1304.23,-52.47 1303.01,-59.36"/>
</g>
<!-- Node20 -->
<g id="node20" class="node">
<title>Node20</title>
<g id="a_node20"><a xlink:href="../../d0/d0e/HMWSoln_8cpp.html" target="_top" xlink:title="Definitions for the HMWSoln ThermoPhase object, which models concentrated electrolyte solutions (see ...">
<polygon fill="white" stroke="black" points="1302.5,-0.5 1302.5,-19.5 1382.5,-19.5 1382.5,-0.5 1302.5,-0.5"/>
<text text-anchor="middle" x="1342.5" y="-7.5" font-family="Helvetica,sans-Serif" font-size="10.00">HMWSoln.cpp</text>
</a>
</g>
</g>
<!-- Node19&#45;&gt;Node20 -->
<g id="edge24" class="edge">
<title>Node19&#45;&gt;Node20</title>
<path fill="none" stroke="midnightblue" d="M1346.4,-46.1C1345.4,-37.14 1344.26,-26.86 1343.47,-19.75"/>
<polygon fill="midnightblue" stroke="midnightblue" points="1342.93,-46.53 1347.51,-56.08 1349.88,-45.76 1342.93,-46.53"/>
</g>
<!-- Node21&#45;&gt;Node7 -->
<g id="edge28" class="edge">
<title>Node21&#45;&gt;Node7</title>
<path fill="none" stroke="midnightblue" d="M1618.59,-55.87C1405.28,-30.4 1162.43,-17.7 1059.55,-13.08"/>
<polygon fill="midnightblue" stroke="midnightblue" points="1618.38,-59.37 1628.72,-57.09 1619.22,-52.42 1618.38,-59.37"/>
</g>
<!-- Node22 -->
<g id="node22" class="node">
<title>Node22</title>
<g id="a_node22"><a xlink:href="../../d3/d32/IdealMolalSoln_8cpp.html" target="_top" xlink:title="ThermoPhase object for the ideal molal equation of state (see Thermodynamic Properties and class Idea...">
<polygon fill="white" stroke="black" points="1709,-0.5 1709,-19.5 1808,-19.5 1808,-0.5 1709,-0.5"/>
<text text-anchor="middle" x="1758.5" y="-7.5" font-family="Helvetica,sans-Serif" font-size="10.00">IdealMolalSoln.cpp</text>
</a>
</g>
</g>
<!-- Node21&#45;&gt;Node22 -->
<g id="edge27" class="edge">
<title>Node21&#45;&gt;Node22</title>
<path fill="none" stroke="midnightblue" d="M1695.69,-50.9C1711.28,-41 1731.63,-28.07 1744.88,-19.65"/>
<polygon fill="midnightblue" stroke="midnightblue" points="1693.72,-48.01 1687.16,-56.32 1697.47,-53.92 1693.72,-48.01"/>
</g>
<!-- Node23 -->
<g id="node23" class="node">
<title>Node23</title>
<g id="a_node23"><a xlink:href="../../dc/d00/vcs__MultiPhaseEquil_8cpp.html" target="_top" xlink:title="Driver routine for the VCSnonideal equilibrium solver package.">
<polygon fill="white" stroke="black" points="1564,-0.5 1564,-19.5 1691,-19.5 1691,-0.5 1564,-0.5"/>
<text text-anchor="middle" x="1627.5" y="-7.5" font-family="Helvetica,sans-Serif" font-size="10.00">vcs_MultiPhaseEquil.cpp</text>
</a>
</g>
</g>
<!-- Node21&#45;&gt;Node23 -->
<g id="edge29" class="edge">
<title>Node21&#45;&gt;Node23</title>
<path fill="none" stroke="midnightblue" d="M1659.39,-48.43C1651.32,-38.97 1641.54,-27.48 1634.95,-19.75"/>
<polygon fill="midnightblue" stroke="midnightblue" points="1656.75,-50.74 1665.9,-56.08 1662.08,-46.2 1656.75,-50.74"/>
</g>
<!-- Node27&#45;&gt;Node7 -->
<g id="edge35" class="edge">
<title>Node27&#45;&gt;Node7</title>
<path fill="none" stroke="midnightblue" d="M1102.89,-106.17C1091.71,-97.78 1077.9,-86.82 1066.5,-76 1046.91,-57.4 1026.69,-32.82 1016.41,-19.87"/>
<polygon fill="midnightblue" stroke="midnightblue" points="1101.06,-109.17 1111.19,-112.3 1105.22,-103.54 1101.06,-109.17"/>
</g>
<!-- Node28 -->
<g id="node28" class="node">
<title>Node28</title>
<g id="a_node28"><a xlink:href="../../d0/d6d/PDSSFactory_8cpp.html" target="_top" xlink:title=" ">
<polygon fill="white" stroke="black" points="1076,-56.5 1076,-75.5 1171,-75.5 1171,-56.5 1076,-56.5"/>
<text text-anchor="middle" x="1123.5" y="-63.5" font-family="Helvetica,sans-Serif" font-size="10.00">PDSSFactory.cpp</text>
</a>
</g>
</g>
<!-- Node27&#45;&gt;Node28 -->
<g id="edge34" class="edge">
<title>Node27&#45;&gt;Node28</title>
<path fill="none" stroke="midnightblue" d="M1123.5,-101.8C1123.5,-92.91 1123.5,-82.78 1123.5,-75.75"/>
<polygon fill="midnightblue" stroke="midnightblue" points="1120,-102.08 1123.5,-112.08 1127,-102.08 1120,-102.08"/>
</g>
</g>
</svg>
