<?xml version="1.0" encoding="UTF-8" standalone="no"?>
<!DOCTYPE svg PUBLIC "-//W3C//DTD SVG 1.1//EN"
 "http://www.w3.org/Graphics/SVG/1.1/DTD/svg11.dtd">
<!-- Generated by graphviz version 2.50.0 (0)
 -->
<!-- Title: MixtureFugacityTP.h Pages: 1 -->
<svg width="438pt" height="140pt"
 viewBox="0.00 0.00 438.00 140.00" xmlns="http://www.w3.org/2000/svg" xmlns:xlink="http://www.w3.org/1999/xlink">
<g id="graph0" class="graph" transform="scale(1 1) rotate(0) translate(4 136)">
<title>MixtureFugacityTP.h</title>
<polygon fill="white" stroke="transparent" points="-4,4 -4,-136 434,-136 434,4 -4,4"/>
<!-- Node1 -->
<g id="node1" class="node">
<title>Node1</title>
<g id="a_node1"><a xlink:title="Header file for a derived class of ThermoPhase that handles non&#45;ideal mixtures based on the fugacity ...">
<polygon fill="#bfbfbf" stroke="black" points="126,-112.5 126,-131.5 232,-131.5 232,-112.5 126,-112.5"/>
<text text-anchor="middle" x="179" y="-119.5" font-family="Helvetica,sans-Serif" font-size="10.00">MixtureFugacityTP.h</text>
</a>
</g>
</g>
<!-- Node2 -->
<g id="node2" class="node">
<title>Node2</title>
<g id="a_node2"><a xlink:href="../../db/d86/MixtureFugacityTP_8cpp.html" target="_top" xlink:title="Methods file for a derived class of ThermoPhase that handles non&#45;ideal mixtures based on the fugacity...">
<polygon fill="white" stroke="black" points="0,-56.5 0,-75.5 116,-75.5 116,-56.5 0,-56.5"/>
<text text-anchor="middle" x="58" y="-63.5" font-family="Helvetica,sans-Serif" font-size="10.00">MixtureFugacityTP.cpp</text>
</a>
</g>
</g>
<!-- Node1&#45;&gt;Node2 -->
<g id="edge1" class="edge">
<title>Node1&#45;&gt;Node2</title>
<path fill="none" stroke="midnightblue" d="M150.69,-108.37C128.03,-98.26 96.87,-84.35 77.08,-75.52"/>
<polygon fill="midnightblue" stroke="midnightblue" points="149.27,-111.56 159.83,-112.44 152.12,-105.17 149.27,-111.56"/>
</g>
<!-- Node3 -->
<g id="node3" class="node">
<title>Node3</title>
<g id="a_node3"><a xlink:href="../../de/d01/PengRobinson_8h.html" target="_top" xlink:title=" ">
<polygon fill="white" stroke="black" points="134.5,-56.5 134.5,-75.5 223.5,-75.5 223.5,-56.5 134.5,-56.5"/>
<text text-anchor="middle" x="179" y="-63.5" font-family="Helvetica,sans-Serif" font-size="10.00">PengRobinson.h</text>
</a>
</g>
</g>
<!-- Node1&#45;&gt;Node3 -->
<g id="edge2" class="edge">
<title>Node1&#45;&gt;Node3</title>
<path fill="none" stroke="midnightblue" d="M179,-101.8C179,-92.91 179,-82.78 179,-75.75"/>
<polygon fill="midnightblue" stroke="midnightblue" points="175.5,-102.08 179,-112.08 182.5,-102.08 175.5,-102.08"/>
</g>
<!-- Node6 -->
<g id="node6" class="node">
<title>Node6</title>
<g id="a_node6"><a xlink:href="../../d6/d45/RedlichKwongMFTP_8h.html" target="_top" xlink:title=" ">
<polygon fill="white" stroke="black" points="241.5,-56.5 241.5,-75.5 354.5,-75.5 354.5,-56.5 241.5,-56.5"/>
<text text-anchor="middle" x="298" y="-63.5" font-family="Helvetica,sans-Serif" font-size="10.00">RedlichKwongMFTP.h</text>
</a>
</g>
</g>
<!-- Node1&#45;&gt;Node6 -->
<g id="edge5" class="edge">
<title>Node1&#45;&gt;Node6</title>
<path fill="none" stroke="midnightblue" d="M207.14,-108.23C229.4,-98.13 259.86,-84.31 279.23,-75.52"/>
<polygon fill="midnightblue" stroke="midnightblue" points="205.52,-105.12 197.86,-112.44 208.41,-111.5 205.52,-105.12"/>
</g>
<!-- Node4 -->
<g id="node4" class="node">
<title>Node4</title>
<g id="a_node4"><a xlink:href="../../db/db8/PengRobinson_8cpp.html" target="_top" xlink:title=" ">
<polygon fill="white" stroke="black" points="70.5,-0.5 70.5,-19.5 169.5,-19.5 169.5,-0.5 70.5,-0.5"/>
<text text-anchor="middle" x="120" y="-7.5" font-family="Helvetica,sans-Serif" font-size="10.00">PengRobinson.cpp</text>
</a>
</g>
</g>
<!-- Node3&#45;&gt;Node4 -->
<g id="edge3" class="edge">
<title>Node3&#45;&gt;Node4</title>
<path fill="none" stroke="midnightblue" d="M162.11,-49.54C151.59,-39.91 138.43,-27.87 129.65,-19.83"/>
<polygon fill="midnightblue" stroke="midnightblue" points="159.78,-52.15 169.52,-56.32 164.51,-46.99 159.78,-52.15"/>
</g>
<!-- Node5 -->
<g id="node5" class="node">
<title>Node5</title>
<g id="a_node5"><a xlink:href="../../d2/d3a/ThermoFactory_8cpp.html" target="_top" xlink:title="Definitions for the factory class that can create known ThermoPhase objects (see Thermodynamic Proper...">
<polygon fill="white" stroke="black" points="188,-0.5 188,-19.5 288,-19.5 288,-0.5 188,-0.5"/>
<text text-anchor="middle" x="238" y="-7.5" font-family="Helvetica,sans-Serif" font-size="10.00">ThermoFactory.cpp</text>
</a>
</g>
</g>
<!-- Node3&#45;&gt;Node5 -->
<g id="edge4" class="edge">
<title>Node3&#45;&gt;Node5</title>
<path fill="none" stroke="midnightblue" d="M195.89,-49.54C206.41,-39.91 219.57,-27.87 228.35,-19.83"/>
<polygon fill="midnightblue" stroke="midnightblue" points="193.49,-46.99 188.48,-56.32 198.22,-52.15 193.49,-46.99"/>
</g>
<!-- Node6&#45;&gt;Node5 -->
<g id="edge7" class="edge">
<title>Node6&#45;&gt;Node5</title>
<path fill="none" stroke="midnightblue" d="M280.82,-49.54C270.12,-39.91 256.74,-27.87 247.82,-19.83"/>
<polygon fill="midnightblue" stroke="midnightblue" points="278.59,-52.24 288.36,-56.32 283.27,-47.03 278.59,-52.24"/>
</g>
<!-- Node7 -->
<g id="node7" class="node">
<title>Node7</title>
<g id="a_node7"><a xlink:href="../../dd/d0d/RedlichKwongMFTP_8cpp.html" target="_top" xlink:title=" ">
<polygon fill="white" stroke="black" points="306,-0.5 306,-19.5 430,-19.5 430,-0.5 306,-0.5"/>
<text text-anchor="middle" x="368" y="-7.5" font-family="Helvetica,sans-Serif" font-size="10.00">RedlichKwongMFTP.cpp</text>
</a>
</g>
</g>
<!-- Node6&#45;&gt;Node7 -->
<g id="edge6" class="edge">
<title>Node6&#45;&gt;Node7</title>
<path fill="none" stroke="midnightblue" d="M317.31,-50.1C329.91,-40.38 345.93,-28.03 356.55,-19.83"/>
<polygon fill="midnightblue" stroke="midnightblue" points="315.03,-47.44 309.25,-56.32 319.3,-52.99 315.03,-47.44"/>
</g>
</g>
</svg>
