<?xml version="1.0" encoding="UTF-8" standalone="no"?>
<!DOCTYPE svg PUBLIC "-//W3C//DTD SVG 1.1//EN"
 "http://www.w3.org/Graphics/SVG/1.1/DTD/svg11.dtd">
<!-- Generated by graphviz version 2.50.0 (0)
 -->
<!-- Title: MargulesVPSSTP Pages: 1 -->
<svg width="279pt" height="276pt"
 viewBox="0.00 0.00 279.00 276.00" xmlns="http://www.w3.org/2000/svg" xmlns:xlink="http://www.w3.org/1999/xlink">
<g id="graph0" class="graph" transform="scale(1 1) rotate(0) translate(4 272)">
<title>MargulesVPSSTP</title>
<polygon fill="white" stroke="transparent" points="-4,4 -4,-272 275,-272 275,4 -4,4"/>
<!-- Node1 -->
<g id="node1" class="node">
<title>Node1</title>
<g id="a_node1"><a xlink:title="MargulesVPSSTP is a derived class of GibbsExcessVPSSTP that employs the Margules approximation for th...">
<polygon fill="#bfbfbf" stroke="black" points="115,-0.5 115,-19.5 211,-19.5 211,-0.5 115,-0.5"/>
<text text-anchor="middle" x="163" y="-7.5" font-family="Helvetica,sans-Serif" font-size="10.00">MargulesVPSSTP</text>
</a>
</g>
</g>
<!-- Node2 -->
<g id="node2" class="node">
<title>Node2</title>
<g id="a_node2"><a xlink:href="../../d8/d1a/classCantera_1_1GibbsExcessVPSSTP.html" target="_top" xlink:title=" ">
<polygon fill="white" stroke="black" points="105.5,-57.5 105.5,-76.5 220.5,-76.5 220.5,-57.5 105.5,-57.5"/>
<text text-anchor="middle" x="163" y="-64.5" font-family="Helvetica,sans-Serif" font-size="10.00">GibbsExcessVPSSTP</text>
</a>
</g>
</g>
<!-- Node2&#45;&gt;Node1 -->
<g id="edge1" class="edge">
<title>Node2&#45;&gt;Node1</title>
<path fill="none" stroke="midnightblue" d="M163,-47.12C163,-37.82 163,-27.06 163,-19.71"/>
<polygon fill="midnightblue" stroke="midnightblue" points="159.5,-47.41 163,-57.41 166.5,-47.41 159.5,-47.41"/>
</g>
<!-- Node3 -->
<g id="node3" class="node">
<title>Node3</title>
<g id="a_node3"><a xlink:href="../../d8/deb/classCantera_1_1VPStandardStateTP.html" target="_top" xlink:title="This is a filter class for ThermoPhase that implements some preparatory steps for efficiently handlin...">
<polygon fill="white" stroke="black" points="62.5,-124.5 62.5,-143.5 167.5,-143.5 167.5,-124.5 62.5,-124.5"/>
<text text-anchor="middle" x="115" y="-131.5" font-family="Helvetica,sans-Serif" font-size="10.00">VPStandardStateTP</text>
</a>
</g>
</g>
<!-- Node3&#45;&gt;Node2 -->
<g id="edge2" class="edge">
<title>Node3&#45;&gt;Node2</title>
<path fill="none" stroke="midnightblue" d="M127.62,-115.9C136.95,-103.27 149.26,-86.6 156.63,-76.63"/>
<polygon fill="midnightblue" stroke="midnightblue" points="124.6,-114.11 121.47,-124.23 130.23,-118.27 124.6,-114.11"/>
</g>
<!-- Node4 -->
<g id="node4" class="node">
<title>Node4</title>
<g id="a_node4"><a xlink:href="../../dc/d38/classCantera_1_1ThermoPhase.html" target="_top" xlink:title="Base class for a phase with thermodynamic properties.">
<polygon fill="white" stroke="black" points="76.5,-181.5 76.5,-200.5 153.5,-200.5 153.5,-181.5 76.5,-181.5"/>
<text text-anchor="middle" x="115" y="-188.5" font-family="Helvetica,sans-Serif" font-size="10.00">ThermoPhase</text>
</a>
</g>
</g>
<!-- Node4&#45;&gt;Node3 -->
<g id="edge3" class="edge">
<title>Node4&#45;&gt;Node3</title>
<path fill="none" stroke="midnightblue" d="M115,-171.12C115,-161.82 115,-151.06 115,-143.71"/>
<polygon fill="midnightblue" stroke="midnightblue" points="111.5,-171.41 115,-181.41 118.5,-171.41 111.5,-171.41"/>
</g>
<!-- Node5 -->
<g id="node5" class="node">
<title>Node5</title>
<g id="a_node5"><a xlink:href="../../d6/d0e/classCantera_1_1Phase.html" target="_top" xlink:title="Class Phase is the base class for phases of matter, managing the species and elements in a phase,...">
<polygon fill="white" stroke="red" points="0,-248.5 0,-267.5 44,-267.5 44,-248.5 0,-248.5"/>
<text text-anchor="middle" x="22" y="-255.5" font-family="Helvetica,sans-Serif" font-size="10.00">Phase</text>
</a>
</g>
</g>
<!-- Node5&#45;&gt;Node4 -->
<g id="edge4" class="edge">
<title>Node5&#45;&gt;Node4</title>
<path fill="none" stroke="midnightblue" d="M42.86,-242.42C61.25,-229.57 87.41,-211.28 102.66,-200.63"/>
<polygon fill="midnightblue" stroke="midnightblue" points="40.73,-239.64 34.54,-248.23 44.74,-245.37 40.73,-239.64"/>
</g>
<!-- Node8 -->
<g id="node6" class="node">
<title>Node8</title>
<g id="a_node6"><a xlink:href="../../d5/dda/classCantera_1_1MultiSpeciesThermo.html" target="_top" xlink:title="A species thermodynamic property manager for a phase.">
<polygon fill="white" stroke="black" points="62,-248.5 62,-267.5 168,-267.5 168,-248.5 62,-248.5"/>
<text text-anchor="middle" x="115" y="-255.5" font-family="Helvetica,sans-Serif" font-size="10.00">MultiSpeciesThermo</text>
</a>
</g>
</g>
<!-- Node8&#45;&gt;Node4 -->
<g id="edge5" class="edge">
<title>Node8&#45;&gt;Node4</title>
<path fill="none" stroke="#9a32cd" stroke-dasharray="5,2" d="M115,-238.04C115,-225.67 115,-210.12 115,-200.63"/>
<polygon fill="#9a32cd" stroke="#9a32cd" points="111.5,-238.23 115,-248.23 118.5,-238.23 111.5,-238.23"/>
<text text-anchor="middle" x="144" y="-222" font-family="Helvetica,sans-Serif" font-size="10.00"> m_spthermo</text>
</g>
<!-- Node9 -->
<g id="node7" class="node">
<title>Node9</title>
<g id="a_node7"><a xlink:href="../../db/d74/classCantera_1_1AnyMap.html" target="_top" xlink:title="A map of string keys to values whose type can vary at runtime.">
<polygon fill="white" stroke="red" points="186.5,-248.5 186.5,-267.5 239.5,-267.5 239.5,-248.5 186.5,-248.5"/>
<text text-anchor="middle" x="213" y="-255.5" font-family="Helvetica,sans-Serif" font-size="10.00">AnyMap</text>
</a>
</g>
</g>
<!-- Node9&#45;&gt;Node4 -->
<g id="edge6" class="edge">
<title>Node9&#45;&gt;Node4</title>
<path fill="none" stroke="#9a32cd" stroke-dasharray="5,2" d="M200.05,-240.58C193.69,-233.28 185.56,-225 177,-219 166.04,-211.32 152.55,-205.12 140.95,-200.61"/>
<polygon fill="#9a32cd" stroke="#9a32cd" points="197.55,-243.04 206.63,-248.5 202.94,-238.57 197.55,-243.04"/>
<text text-anchor="middle" x="208" y="-222" font-family="Helvetica,sans-Serif" font-size="10.00"> m_input</text>
</g>
<!-- Node11 -->
<g id="node8" class="node">
<title>Node11</title>
<g id="a_node8"><a xlink:href="../../d1/dcf/classCantera_1_1Array2D.html" target="_top" xlink:title="A class for 2D arrays stored in column&#45;major (Fortran&#45;compatible) form.">
<polygon fill="white" stroke="black" points="185.5,-124.5 185.5,-143.5 238.5,-143.5 238.5,-124.5 185.5,-124.5"/>
<text text-anchor="middle" x="212" y="-131.5" font-family="Helvetica,sans-Serif" font-size="10.00">Array2D</text>
</a>
</g>
</g>
<!-- Node11&#45;&gt;Node2 -->
<g id="edge7" class="edge">
<title>Node11&#45;&gt;Node2</title>
<path fill="none" stroke="#9a32cd" stroke-dasharray="5,2" d="M199.11,-115.9C189.59,-103.27 177.02,-86.6 169.5,-76.63"/>
<polygon fill="#9a32cd" stroke="#9a32cd" points="196.58,-118.36 205.39,-124.23 202.17,-114.14 196.58,-118.36"/>
<text text-anchor="middle" x="230.5" y="-98" font-family="Helvetica,sans-Serif" font-size="10.00"> dlnActCoeffdlnN_</text>
</g>
</g>
</svg>
