<?xml version="1.0" encoding="UTF-8" standalone="no"?>
<!DOCTYPE svg PUBLIC "-//W3C//DTD SVG 1.1//EN"
 "http://www.w3.org/Graphics/SVG/1.1/DTD/svg11.dtd">
<!-- Generated by graphviz version 2.50.0 (0)
 -->
<!-- Title: IDA_Solver.h Pages: 1 -->
<!--zoomable 308 -->
<svg id="main" version="1.1" xmlns="http://www.w3.org/2000/svg" xmlns:xlink="http://www.w3.org/1999/xlink" xml:space="preserve" onload="init(evt)">
<style type="text/css"><![CDATA[
.edge:hover path { stroke: red; }
.edge:hover polygon { stroke: red; fill: red; }
]]></style>
<script type="text/javascript"><![CDATA[
var edges = document.getElementsByTagName('g');
if (edges && edges.length) {
  for (var i=0;i<edges.length;i++) {
    if (edges[i].id.substr(0,4)=='edge') {
      edges[i].setAttribute('class','edge');
    }
  }
}
]]></script>
        <defs>
                <circle id="rim" cx="0" cy="0" r="7"/>
                <circle id="rim2" cx="0" cy="0" r="3.5"/>
                <g id="zoomPlus">
                        <use xlink:href="#rim" fill="#404040">
                                <set attributeName="fill" to="#808080" begin="zoomplus.mouseover" end="zoomplus.mouseout"/>
                        </use>
                        <path d="M-4,0h8M0,-4v8" fill="none" stroke="white" stroke-width="1.5" pointer-events="none"/>
                </g>
                <g id="zoomMin">
                        <use xlink:href="#rim" fill="#404040">
                                <set attributeName="fill" to="#808080" begin="zoomminus.mouseover" end="zoomminus.mouseout"/>
                        </use>
                        <path d="M-4,0h8" fill="none" stroke="white" stroke-width="1.5" pointer-events="none"/>
                </g>
                <g id="dirArrow">
                        <path fill="none" stroke="white" stroke-width="1.5" d="M0,-3.0v7 M-2.5,-0.5L0,-3.0L2.5,-0.5"/>
                </g>
               <g id="resetDef">
                       <use xlink:href="#rim2" fill="#404040">
                               <set attributeName="fill" to="#808080" begin="reset.mouseover" end="reset.mouseout"/>
                       </use>
               </g>
        </defs>

<script type="text/javascript">
var viewWidth = 607;
var viewHeight = 308;
var sectionId = 'dynsection-0';
</script>
<script xlink:href="../../svgpan.js"/>
<svg id="graph" class="graph">
<g id="viewport">
<title>IDA_Solver.h</title>
<polygon fill="white" stroke="transparent" points="-4,4 -4,-304 602.61,-304 602.61,4 -4,4"/>
<!-- Node1 -->
<g id="node1" class="node">
<title>Node1</title>
<g id="a_node1"><a xlink:title="Header file for class IDA_Solver.">
<polygon fill="#bfbfbf" stroke="black" points="350,-280.5 350,-299.5 424,-299.5 424,-280.5 350,-280.5"/>
<text text-anchor="middle" x="387" y="-287.5" font-family="Helvetica,sans-Serif" font-size="10.00">IDA_Solver.h</text>
</a>
</g>
</g>
<!-- Node2 -->
<g id="node2" class="node">
<title>Node2</title>
<g id="a_node2"><a xlink:href="../../d6/d87/DAE__Solver_8h.html" target="_top" xlink:title="Header file for class DAE_Solver.">
<polygon fill="white" stroke="black" points="260,-224.5 260,-243.5 338,-243.5 338,-224.5 260,-224.5"/>
<text text-anchor="middle" x="299" y="-231.5" font-family="Helvetica,sans-Serif" font-size="10.00">DAE_Solver.h</text>
</a>
</g>
</g>
<!-- Node1&#45;&gt;Node2 -->
<g id="edge1" class="edge">
<title>Node1&#45;&gt;Node2</title>
<path fill="none" stroke="midnightblue" d="M372.86,-280.32C359.13,-271.9 338.06,-258.97 321.94,-249.07"/>
<polygon fill="midnightblue" stroke="midnightblue" points="323.46,-245.9 313.1,-243.65 319.8,-251.87 323.46,-245.9"/>
</g>
<!-- Node25 -->
<g id="node11" class="node">
<title>Node25</title>
<g id="a_node11"><a xlink:href="../../d4/ddd/SundialsContext_8h.html" target="_top" xlink:title=" ">
<polygon fill="white" stroke="black" points="457.5,-168.5 457.5,-187.5 554.5,-187.5 554.5,-168.5 457.5,-168.5"/>
<text text-anchor="middle" x="506" y="-175.5" font-family="Helvetica,sans-Serif" font-size="10.00">SundialsContext.h</text>
</a>
</g>
</g>
<!-- Node1&#45;&gt;Node25 -->
<g id="edge16" class="edge">
<title>Node1&#45;&gt;Node25</title>
<path fill="none" stroke="midnightblue" d="M387.29,-280.34C388.2,-266.76 391.8,-240.32 406,-224 419.73,-208.22 440.09,-197.7 458.86,-190.83"/>
<polygon fill="midnightblue" stroke="midnightblue" points="460.15,-194.09 468.49,-187.56 457.9,-187.46 460.15,-194.09"/>
</g>
<!-- Node26 -->
<g id="node12" class="node">
<title>Node26</title>
<g id="a_node12"><a xlink:title=" ">
<polygon fill="white" stroke="#bfbfbf" points="415.5,-224.5 415.5,-243.5 552.5,-243.5 552.5,-224.5 415.5,-224.5"/>
<text text-anchor="middle" x="484" y="-231.5" font-family="Helvetica,sans-Serif" font-size="10.00">sundials/sundials_nvector.h</text>
</a>
</g>
</g>
<!-- Node1&#45;&gt;Node26 -->
<g id="edge18" class="edge">
<title>Node1&#45;&gt;Node26</title>
<path fill="none" stroke="midnightblue" d="M402.58,-280.32C418,-271.74 441.81,-258.49 459.71,-248.52"/>
<polygon fill="midnightblue" stroke="midnightblue" points="461.42,-251.58 468.45,-243.65 458.01,-245.46 461.42,-251.58"/>
</g>
<!-- Node3 -->
<g id="node3" class="node">
<title>Node3</title>
<g id="a_node3"><a xlink:href="../../d8/d05/ResidJacEval_8h.html" target="_top" xlink:title="Dense, Square (not sparse) matrices.">
<polygon fill="white" stroke="black" points="256,-168.5 256,-187.5 342,-187.5 342,-168.5 256,-168.5"/>
<text text-anchor="middle" x="299" y="-175.5" font-family="Helvetica,sans-Serif" font-size="10.00">ResidJacEval.h</text>
</a>
</g>
</g>
<!-- Node2&#45;&gt;Node3 -->
<g id="edge2" class="edge">
<title>Node2&#45;&gt;Node3</title>
<path fill="none" stroke="midnightblue" d="M299,-224.08C299,-217.01 299,-206.86 299,-197.99"/>
<polygon fill="midnightblue" stroke="midnightblue" points="302.5,-197.75 299,-187.75 295.5,-197.75 302.5,-197.75"/>
</g>
<!-- Node21 -->
<g id="node8" class="node">
<title>Node21</title>
<g id="a_node8"><a xlink:href="../../d2/d49/global_8h.html" target="_top" xlink:title="This file contains definitions for utility functions and text for modules, inputfiles,...">
<polygon fill="white" stroke="red" points="0,-56.5 0,-75.5 110,-75.5 110,-56.5 0,-56.5"/>
<text text-anchor="middle" x="55" y="-63.5" font-family="Helvetica,sans-Serif" font-size="10.00">cantera/base/global.h</text>
</a>
</g>
</g>
<!-- Node2&#45;&gt;Node21 -->
<g id="edge15" class="edge">
<title>Node2&#45;&gt;Node21</title>
<path fill="none" stroke="midnightblue" d="M286.23,-224.31C246.53,-197.3 125.06,-114.67 75.94,-81.25"/>
<polygon fill="midnightblue" stroke="midnightblue" points="77.89,-78.34 67.65,-75.61 73.95,-84.12 77.89,-78.34"/>
</g>
<!-- Node4 -->
<g id="node4" class="node">
<title>Node4</title>
<g id="a_node4"><a xlink:href="../../da/d61/ResidEval_8h.html" target="_top" xlink:title=" ">
<polygon fill="white" stroke="black" points="237,-112.5 237,-131.5 307,-131.5 307,-112.5 237,-112.5"/>
<text text-anchor="middle" x="272" y="-119.5" font-family="Helvetica,sans-Serif" font-size="10.00">ResidEval.h</text>
</a>
</g>
</g>
<!-- Node3&#45;&gt;Node4 -->
<g id="edge3" class="edge">
<title>Node3&#45;&gt;Node4</title>
<path fill="none" stroke="midnightblue" d="M294.54,-168.08C290.85,-160.69 285.48,-149.95 280.91,-140.81"/>
<polygon fill="midnightblue" stroke="midnightblue" points="283.98,-139.13 276.38,-131.75 277.72,-142.26 283.98,-139.13"/>
</g>
<!-- Node22 -->
<g id="node9" class="node">
<title>Node22</title>
<g id="a_node9"><a xlink:href="../../d1/df7/DenseMatrix_8h.html" target="_top" xlink:title="Headers for the DenseMatrix object, which deals with dense rectangular matrices and description of th...">
<polygon fill="white" stroke="black" points="400,-112.5 400,-131.5 480,-131.5 480,-112.5 400,-112.5"/>
<text text-anchor="middle" x="440" y="-119.5" font-family="Helvetica,sans-Serif" font-size="10.00">DenseMatrix.h</text>
</a>
</g>
</g>
<!-- Node3&#45;&gt;Node22 -->
<g id="edge10" class="edge">
<title>Node3&#45;&gt;Node22</title>
<path fill="none" stroke="midnightblue" d="M321.34,-168.44C344.75,-159.48 381.74,-145.31 408.19,-135.18"/>
<polygon fill="midnightblue" stroke="midnightblue" points="409.68,-138.36 417.76,-131.52 407.17,-131.82 409.68,-138.36"/>
</g>
<!-- Node5 -->
<g id="node5" class="node">
<title>Node5</title>
<g id="a_node5"><a xlink:href="../../d9/ddc/ct__defs_8h.html" target="_top" xlink:title="This file contains definitions of constants, types and terms that are used in internal routines and a...">
<polygon fill="white" stroke="red" points="333,-0.5 333,-19.5 449,-19.5 449,-0.5 333,-0.5"/>
<text text-anchor="middle" x="391" y="-7.5" font-family="Helvetica,sans-Serif" font-size="10.00">cantera/base/ct_defs.h</text>
</a>
</g>
</g>
<!-- Node4&#45;&gt;Node5 -->
<g id="edge4" class="edge">
<title>Node4&#45;&gt;Node5</title>
<path fill="none" stroke="midnightblue" d="M272.29,-112.34C273.2,-98.76 276.8,-72.32 291,-56 304.73,-40.22 325.09,-29.7 343.86,-22.83"/>
<polygon fill="midnightblue" stroke="midnightblue" points="345.15,-26.09 353.49,-19.56 342.9,-19.46 345.15,-26.09"/>
</g>
<!-- Node14 -->
<g id="node6" class="node">
<title>Node14</title>
<g id="a_node6"><a xlink:href="../../db/d98/ctexceptions_8h.html" target="_top" xlink:title="Definitions for the classes that are thrown when Cantera experiences an error condition (also contain...">
<polygon fill="white" stroke="red" points="300,-56.5 300,-75.5 440,-75.5 440,-56.5 300,-56.5"/>
<text text-anchor="middle" x="370" y="-63.5" font-family="Helvetica,sans-Serif" font-size="10.00">cantera/base/ctexceptions.h</text>
</a>
</g>
</g>
<!-- Node4&#45;&gt;Node14 -->
<g id="edge5" class="edge">
<title>Node4&#45;&gt;Node14</title>
<path fill="none" stroke="midnightblue" d="M287.75,-112.32C303.32,-103.74 327.38,-90.49 345.46,-80.52"/>
<polygon fill="midnightblue" stroke="midnightblue" points="347.22,-83.55 354.29,-75.65 343.85,-77.42 347.22,-83.55"/>
</g>
<!-- Node19 -->
<g id="node7" class="node">
<title>Node19</title>
<g id="a_node7"><a xlink:href="../../de/df0/utilities_8h.html" target="_top" xlink:title="Various templated functions that carry out common vector operations (see Templated Utility Functions)...">
<polygon fill="white" stroke="red" points="128.5,-56.5 128.5,-75.5 243.5,-75.5 243.5,-56.5 128.5,-56.5"/>
<text text-anchor="middle" x="186" y="-63.5" font-family="Helvetica,sans-Serif" font-size="10.00">cantera/base/utilities.h</text>
</a>
</g>
</g>
<!-- Node4&#45;&gt;Node19 -->
<g id="edge6" class="edge">
<title>Node4&#45;&gt;Node19</title>
<path fill="none" stroke="midnightblue" d="M258.18,-112.32C244.77,-103.9 224.18,-90.97 208.41,-81.07"/>
<polygon fill="midnightblue" stroke="midnightblue" points="210.11,-78.01 199.78,-75.65 206.39,-83.94 210.11,-78.01"/>
</g>
<!-- Node4&#45;&gt;Node21 -->
<g id="edge8" class="edge">
<title>Node4&#45;&gt;Node21</title>
<path fill="none" stroke="midnightblue" d="M237.62,-112.44C200.08,-103.1 139.87,-88.12 98.93,-77.93"/>
<polygon fill="midnightblue" stroke="midnightblue" points="99.77,-74.53 89.22,-75.52 98.08,-81.33 99.77,-74.53"/>
</g>
<!-- Node19&#45;&gt;Node5 -->
<g id="edge7" class="edge">
<title>Node19&#45;&gt;Node5</title>
<path fill="none" stroke="midnightblue" d="M218.48,-56.44C253.72,-47.16 310.1,-32.31 348.76,-22.13"/>
<polygon fill="midnightblue" stroke="midnightblue" points="349.89,-25.45 358.67,-19.52 348.11,-18.68 349.89,-25.45"/>
</g>
<!-- Node21&#45;&gt;Node5 -->
<g id="edge9" class="edge">
<title>Node21&#45;&gt;Node5</title>
<path fill="none" stroke="midnightblue" d="M108.24,-56.44C167.96,-46.85 264.74,-31.29 328.13,-21.1"/>
<polygon fill="midnightblue" stroke="midnightblue" points="328.69,-24.56 338.01,-19.52 327.58,-17.65 328.69,-24.56"/>
</g>
<!-- Node22&#45;&gt;Node5 -->
<g id="edge11" class="edge">
<title>Node22&#45;&gt;Node5</title>
<path fill="none" stroke="midnightblue" d="M480.26,-116.17C528.81,-108.69 600.65,-91.31 573,-56 558.82,-37.89 504.84,-26.06 459.32,-19.1"/>
<polygon fill="midnightblue" stroke="midnightblue" points="459.56,-15.6 449.16,-17.6 458.54,-22.52 459.56,-15.6"/>
</g>
<!-- Node22&#45;&gt;Node14 -->
<g id="edge12" class="edge">
<title>Node22&#45;&gt;Node14</title>
<path fill="none" stroke="midnightblue" d="M428.75,-112.32C418.2,-104.18 402.2,-91.84 389.56,-82.09"/>
<polygon fill="midnightblue" stroke="midnightblue" points="391.51,-79.17 381.45,-75.83 387.23,-84.71 391.51,-79.17"/>
</g>
<!-- Node23 -->
<g id="node10" class="node">
<title>Node23</title>
<g id="a_node10"><a xlink:href="../../df/dd0/Array_8h.html" target="_top" xlink:title="Header file for class Cantera::Array2D.">
<polygon fill="white" stroke="red" points="458,-56.5 458,-75.5 564,-75.5 564,-56.5 458,-56.5"/>
<text text-anchor="middle" x="511" y="-63.5" font-family="Helvetica,sans-Serif" font-size="10.00">cantera/base/Array.h</text>
</a>
</g>
</g>
<!-- Node22&#45;&gt;Node23 -->
<g id="edge13" class="edge">
<title>Node22&#45;&gt;Node23</title>
<path fill="none" stroke="midnightblue" d="M451.41,-112.32C462.11,-104.18 478.34,-91.84 491.16,-82.09"/>
<polygon fill="midnightblue" stroke="midnightblue" points="493.54,-84.67 499.39,-75.83 489.31,-79.1 493.54,-84.67"/>
</g>
<!-- Node23&#45;&gt;Node5 -->
<g id="edge14" class="edge">
<title>Node23&#45;&gt;Node5</title>
<path fill="none" stroke="midnightblue" d="M491.99,-56.44C472.41,-47.64 441.69,-33.81 419.27,-23.72"/>
<polygon fill="midnightblue" stroke="midnightblue" points="420.48,-20.43 409.93,-19.52 417.61,-26.81 420.48,-20.43"/>
</g>
<!-- Node25&#45;&gt;Node5 -->
<g id="edge17" class="edge">
<title>Node25&#45;&gt;Node5</title>
<path fill="none" stroke="midnightblue" d="M520.41,-168.2C552,-147.85 622.09,-96.15 590,-56 573.73,-35.64 510.38,-23.81 459.47,-17.44"/>
<polygon fill="midnightblue" stroke="midnightblue" points="459.82,-13.96 449.48,-16.24 458.99,-20.91 459.82,-13.96"/>
</g>
</g>
</svg>
        <g id="navigator" transform="translate(0 0)" fill="#404254">
                <rect fill="#f2f5e9" fill-opacity="0.5" stroke="#606060" stroke-width=".5" x="0" y="0" width="60" height="60"/>
                <use id="zoomplus" xlink:href="#zoomPlus" x="17" y="9" onmousedown="handleZoom(evt,'in')"/>
                <use id="zoomminus" xlink:href="#zoomMin" x="42" y="9" onmousedown="handleZoom(evt,'out')"/>
                <use id="reset" xlink:href="#resetDef" x="30" y="36" onmousedown="handleReset()"/>
                <g id="arrowUp" xlink:href="#dirArrow" transform="translate(30 24)" onmousedown="handlePan(0,-1)">
                  <use xlink:href="#rim" fill="#404040">
                        <set attributeName="fill" to="#808080" begin="arrowUp.mouseover" end="arrowUp.mouseout"/>
                  </use>
                  <path fill="none" stroke="white" stroke-width="1.5" d="M0,-3.0v7 M-2.5,-0.5L0,-3.0L2.5,-0.5"/>
                </g>
                <g id="arrowRight" xlink:href="#dirArrow" transform="rotate(90) translate(36 -43)" onmousedown="handlePan(1,0)">
                  <use xlink:href="#rim" fill="#404040">
                        <set attributeName="fill" to="#808080" begin="arrowRight.mouseover" end="arrowRight.mouseout"/>
                  </use>
                  <path fill="none" stroke="white" stroke-width="1.5" d="M0,-3.0v7 M-2.5,-0.5L0,-3.0L2.5,-0.5"/>
                </g>
                <g id="arrowDown" xlink:href="#dirArrow" transform="rotate(180) translate(-30 -48)" onmousedown="handlePan(0,1)">
                  <use xlink:href="#rim" fill="#404040">
                        <set attributeName="fill" to="#808080" begin="arrowDown.mouseover" end="arrowDown.mouseout"/>
                  </use>
                  <path fill="none" stroke="white" stroke-width="1.5" d="M0,-3.0v7 M-2.5,-0.5L0,-3.0L2.5,-0.5"/>
                </g>
                <g id="arrowLeft" xlink:href="#dirArrow" transform="rotate(270) translate(-36 17)" onmousedown="handlePan(-1,0)">
                  <use xlink:href="#rim" fill="#404040">
                        <set attributeName="fill" to="#808080" begin="arrowLeft.mouseover" end="arrowLeft.mouseout"/>
                  </use>
                  <path fill="none" stroke="white" stroke-width="1.5" d="M0,-3.0v7 M-2.5,-0.5L0,-3.0L2.5,-0.5"/>
                </g>
        </g>
        <svg viewBox="0 0 15 15" width="100%" height="30px" preserveAspectRatio="xMaxYMin meet">
         <g id="arrow_out" transform="scale(0.3 0.3)">
          <a xlink:href="IDA__Solver_8h__incl_org.svg" target="_base">
           <rect id="button" ry="5" rx="5" y="6" x="6" height="38" width="38"
                fill="#f2f5e9" fill-opacity="0.5" stroke="#606060" stroke-width="1.0"/>
           <path id="arrow"
             d="M 11.500037,31.436501 C 11.940474,20.09759 22.043105,11.32322 32.158766,21.979434 L 37.068811,17.246167 C 37.068811,17.246167 37.088388,32 37.088388,32 L 22.160133,31.978069 C 22.160133,31.978069 26.997745,27.140456 26.997745,27.140456 C 18.528582,18.264221 13.291696,25.230495 11.500037,31.436501 z"
             style="fill:#404040;"/>
          </a>
         </g>
        </svg>
</svg>
