<?xml version="1.0" encoding="UTF-8" standalone="no"?>
<!DOCTYPE svg PUBLIC "-//W3C//DTD SVG 1.1//EN"
 "http://www.w3.org/Graphics/SVG/1.1/DTD/svg11.dtd">
<!-- Generated by graphviz version 2.43.0 (0)
 -->
<!-- Title: ChebyshevRate.h Pages: 1 -->
<!--zoomable 442 -->
<svg id="main" version="1.1" xmlns="http://www.w3.org/2000/svg" xmlns:xlink="http://www.w3.org/1999/xlink" xml:space="preserve" onload="init(evt)">
<style type="text/css"><![CDATA[
.edge:hover path { stroke: red; }
.edge:hover polygon { stroke: red; fill: red; }
]]></style>
<script type="text/javascript"><![CDATA[
var edges = document.getElementsByTagName('g');
if (edges && edges.length) {
  for (var i=0;i<edges.length;i++) {
    if (edges[i].id.substr(0,4)=='edge') {
      edges[i].setAttribute('class','edge');
    }
  }
}
]]></script>
        <defs>
                <circle id="rim" cx="0" cy="0" r="7"/>
                <circle id="rim2" cx="0" cy="0" r="3.5"/>
                <g id="zoomPlus">
                        <use xlink:href="#rim" fill="#404040">
                                <set attributeName="fill" to="#808080" begin="zoomplus.mouseover" end="zoomplus.mouseout"/>
                        </use>
                        <path d="M-4,0h8M0,-4v8" fill="none" stroke="white" stroke-width="1.5" pointer-events="none"/>
                </g>
                <g id="zoomMin">
                        <use xlink:href="#rim" fill="#404040">
                                <set attributeName="fill" to="#808080" begin="zoomminus.mouseover" end="zoomminus.mouseout"/>
                        </use>
                        <path d="M-4,0h8" fill="none" stroke="white" stroke-width="1.5" pointer-events="none"/>
                </g>
                <g id="dirArrow">
                        <path fill="none" stroke="white" stroke-width="1.5" d="M0,-3.0v7 M-2.5,-0.5L0,-3.0L2.5,-0.5"/>
                </g>
               <g id="resetDef">
                       <use xlink:href="#rim2" fill="#404040">
                               <set attributeName="fill" to="#808080" begin="reset.mouseover" end="reset.mouseout"/>
                       </use>
               </g>
        </defs>

<script type="text/javascript">
var viewWidth = 985;
var viewHeight = 442;
var sectionId = 'dynsection-0';
</script>
<script xlink:href="../../svgpan.js"/>
<svg id="graph" class="graph">
<g id="viewport">
<title>ChebyshevRate.h</title>
<polygon fill="white" stroke="transparent" points="-4,4 -4,-438 980.57,-438 980.57,4 -4,4"/>
<!-- Node1 -->
<g id="node1" class="node">
<title>Node1</title>
<g id="a_node1"><a xlink:title=" ">
<polygon fill="#bfbfbf" stroke="black" points="453.57,-414.5 453.57,-433.5 555.57,-433.5 555.57,-414.5 453.57,-414.5"/>
<text text-anchor="middle" x="504.57" y="-421.5" font-family="Helvetica,sans-Serif" font-size="10.00">ChebyshevRate.h</text>
</a>
</g>
</g>
<!-- Node2 -->
<g id="node2" class="node">
<title>Node2</title>
<g id="a_node2"><a xlink:href="../../d8/db0/ReactionRate_8h.html" target="_top" xlink:title=" ">
<polygon fill="white" stroke="black" points="434.57,-291.5 434.57,-321.5 574.57,-321.5 574.57,-291.5 434.57,-291.5"/>
<text text-anchor="start" x="442.57" y="-309.5" font-family="Helvetica,sans-Serif" font-size="10.00">cantera/kinetics/Reaction</text>
<text text-anchor="middle" x="504.57" y="-298.5" font-family="Helvetica,sans-Serif" font-size="10.00">Rate.h</text>
</a>
</g>
</g>
<!-- Node1&#45;&gt;Node2 -->
<g id="edge1" class="edge">
<title>Node1&#45;&gt;Node2</title>
<path fill="none" stroke="midnightblue" d="M504.57,-414.32C504.57,-396.97 504.57,-357.46 504.57,-331.66"/>
<polygon fill="midnightblue" stroke="midnightblue" points="508.07,-331.55 504.57,-321.55 501.07,-331.55 508.07,-331.55"/>
</g>
<!-- Node27 -->
<g id="node24" class="node">
<title>Node27</title>
<g id="a_node24"><a xlink:href="../../d2/d49/global_8h.html" target="_top" xlink:title="This file contains definitions for utility functions and text for modules, inputfiles and logging,...">
<polygon fill="white" stroke="black" points="2.57,-230 2.57,-249 124.57,-249 124.57,-230 2.57,-230"/>
<text text-anchor="middle" x="63.57" y="-237" font-family="Helvetica,sans-Serif" font-size="10.00">cantera/base/global.h</text>
</a>
</g>
</g>
<!-- Node1&#45;&gt;Node27 -->
<g id="edge45" class="edge">
<title>Node1&#45;&gt;Node27</title>
<path fill="none" stroke="midnightblue" d="M483.89,-414.44C412.71,-384.99 177.59,-287.69 93.67,-252.96"/>
<polygon fill="midnightblue" stroke="midnightblue" points="94.78,-249.63 84.2,-249.04 92.1,-256.1 94.78,-249.63"/>
</g>
<!-- Node28 -->
<g id="node25" class="node">
<title>Node28</title>
<g id="a_node25"><a xlink:href="../../d6/d4a/ReactionData_8h.html" target="_top" xlink:title=" ">
<polygon fill="white" stroke="black" points="142.57,-224.5 142.57,-254.5 282.57,-254.5 282.57,-224.5 142.57,-224.5"/>
<text text-anchor="start" x="150.57" y="-242.5" font-family="Helvetica,sans-Serif" font-size="10.00">cantera/kinetics/Reaction</text>
<text text-anchor="middle" x="212.57" y="-231.5" font-family="Helvetica,sans-Serif" font-size="10.00">Data.h</text>
</a>
</g>
</g>
<!-- Node1&#45;&gt;Node28 -->
<g id="edge33" class="edge">
<title>Node1&#45;&gt;Node28</title>
<path fill="none" stroke="midnightblue" d="M490.88,-414.44C446.71,-386.84 307.21,-299.65 244.11,-260.21"/>
<polygon fill="midnightblue" stroke="midnightblue" points="245.71,-257.09 235.37,-254.75 242,-263.02 245.71,-257.09"/>
</g>
<!-- Node29 -->
<g id="node26" class="node">
<title>Node29</title>
<g id="a_node26"><a xlink:href="../../d6/d42/MultiRate_8h.html" target="_top" xlink:title=" ">
<polygon fill="white" stroke="black" points="548.57,-358.5 548.57,-377.5 702.57,-377.5 702.57,-358.5 548.57,-358.5"/>
<text text-anchor="middle" x="625.57" y="-365.5" font-family="Helvetica,sans-Serif" font-size="10.00">cantera/kinetics/MultiRate.h</text>
</a>
</g>
</g>
<!-- Node1&#45;&gt;Node29 -->
<g id="edge36" class="edge">
<title>Node1&#45;&gt;Node29</title>
<path fill="none" stroke="midnightblue" d="M523.74,-414.44C543.48,-405.64 574.45,-391.81 597.06,-381.72"/>
<polygon fill="midnightblue" stroke="midnightblue" points="598.78,-384.79 606.48,-377.52 595.93,-378.4 598.78,-384.79"/>
</g>
<!-- Node32 -->
<g id="node29" class="node">
<title>Node32</title>
<g id="a_node29"><a xlink:href="../../df/dd0/Array_8h.html" target="_top" xlink:title="Header file for class Cantera::Array2D.">
<polygon fill="white" stroke="black" points="838.57,-358.5 838.57,-377.5 954.57,-377.5 954.57,-358.5 838.57,-358.5"/>
<text text-anchor="middle" x="896.57" y="-365.5" font-family="Helvetica,sans-Serif" font-size="10.00">cantera/base/Array.h</text>
</a>
</g>
</g>
<!-- Node1&#45;&gt;Node32 -->
<g id="edge42" class="edge">
<title>Node1&#45;&gt;Node32</title>
<path fill="none" stroke="midnightblue" d="M555.81,-415.94C625.53,-406.34 750.44,-389.13 828.12,-378.43"/>
<polygon fill="midnightblue" stroke="midnightblue" points="828.86,-381.86 838.28,-377.03 827.9,-374.93 828.86,-381.86"/>
</g>
<!-- Node3 -->
<g id="node3" class="node">
<title>Node3</title>
<g id="a_node3"><a xlink:href="../../dd/d16/MultiRateBase_8h.html" target="_top" xlink:title=" ">
<polygon fill="white" stroke="black" points="618.07,-230 618.07,-249 715.07,-249 715.07,-230 618.07,-230"/>
<text text-anchor="middle" x="666.57" y="-237" font-family="Helvetica,sans-Serif" font-size="10.00">MultiRateBase.h</text>
</a>
</g>
</g>
<!-- Node2&#45;&gt;Node3 -->
<g id="edge2" class="edge">
<title>Node2&#45;&gt;Node3</title>
<path fill="none" stroke="midnightblue" d="M539.72,-291.4C568.4,-279.89 608.5,-263.8 635.89,-252.81"/>
<polygon fill="midnightblue" stroke="midnightblue" points="637.39,-255.98 645.37,-249.01 634.78,-249.48 637.39,-255.98"/>
</g>
<!-- Node15 -->
<g id="node15" class="node">
<title>Node15</title>
<g id="a_node15"><a xlink:href="../../dd/d2a/AnyMap_8h.html" target="_top" xlink:title=" ">
<polygon fill="white" stroke="black" points="430.07,-230 430.07,-249 561.07,-249 561.07,-230 430.07,-230"/>
<text text-anchor="middle" x="495.57" y="-237" font-family="Helvetica,sans-Serif" font-size="10.00">cantera/base/AnyMap.h</text>
</a>
</g>
</g>
<!-- Node2&#45;&gt;Node15 -->
<g id="edge14" class="edge">
<title>Node2&#45;&gt;Node15</title>
<path fill="none" stroke="midnightblue" d="M502.61,-291.4C501.31,-281.96 499.58,-269.45 498.15,-259.19"/>
<polygon fill="midnightblue" stroke="midnightblue" points="501.61,-258.62 496.77,-249.19 494.68,-259.58 501.61,-258.62"/>
</g>
<!-- Node16 -->
<g id="node16" class="node">
<title>Node16</title>
<g id="a_node16"><a xlink:href="../../db/d98/ctexceptions_8h.html" target="_top" xlink:title="Definitions for the classes that are thrown when Cantera experiences an error condition (also contain...">
<polygon fill="white" stroke="black" points="129.57,-168.5 129.57,-187.5 283.57,-187.5 283.57,-168.5 129.57,-168.5"/>
<text text-anchor="middle" x="206.57" y="-175.5" font-family="Helvetica,sans-Serif" font-size="10.00">cantera/base/ctexceptions.h</text>
</a>
</g>
</g>
<!-- Node2&#45;&gt;Node16 -->
<g id="edge32" class="edge">
<title>Node2&#45;&gt;Node16</title>
<path fill="none" stroke="midnightblue" d="M471.54,-291.48C413.07,-266.66 292.25,-215.37 236.26,-191.6"/>
<polygon fill="midnightblue" stroke="midnightblue" points="237.47,-188.32 226.9,-187.63 234.74,-194.76 237.47,-188.32"/>
</g>
<!-- Node22 -->
<g id="node19" class="node">
<title>Node22</title>
<g id="a_node19"><a xlink:href="../../da/d58/Units_8h.html" target="_top" xlink:title="Header for unit conversion utilities, which are used to translate user input from input files (See In...">
<polygon fill="white" stroke="black" points="755.07,-168.5 755.07,-187.5 872.07,-187.5 872.07,-168.5 755.07,-168.5"/>
<text text-anchor="middle" x="813.57" y="-175.5" font-family="Helvetica,sans-Serif" font-size="10.00">cantera/base/Units.h</text>
</a>
</g>
</g>
<!-- Node2&#45;&gt;Node22 -->
<g id="edge28" class="edge">
<title>Node2&#45;&gt;Node22</title>
<path fill="none" stroke="midnightblue" d="M522.82,-291.4C535.87,-281.31 553.84,-267.36 569.57,-255 586.98,-241.32 588.57,-233.51 608.57,-224 633.63,-212.08 701.46,-198.41 752.28,-189.3"/>
<polygon fill="midnightblue" stroke="midnightblue" points="752.97,-192.73 762.2,-187.54 751.75,-185.84 752.97,-192.73"/>
</g>
<!-- Node2&#45;&gt;Node27 -->
<g id="edge29" class="edge">
<title>Node2&#45;&gt;Node27</title>
<path fill="none" stroke="midnightblue" d="M434.26,-297.39C359.48,-288.43 237.84,-272.87 133.57,-255 126.75,-253.83 119.57,-252.48 112.53,-251.09"/>
<polygon fill="midnightblue" stroke="midnightblue" points="112.85,-247.58 102.35,-249.03 111.46,-254.44 112.85,-247.58"/>
</g>
<!-- Node4 -->
<g id="node4" class="node">
<title>Node4</title>
<g id="a_node4"><a xlink:href="../../d9/ddc/ct__defs_8h.html" target="_top" xlink:title="This file contains definitions of constants, types and terms that are used in internal routines and a...">
<polygon fill="white" stroke="black" points="388.07,-56.5 388.07,-75.5 515.07,-75.5 515.07,-56.5 388.07,-56.5"/>
<text text-anchor="middle" x="451.57" y="-63.5" font-family="Helvetica,sans-Serif" font-size="10.00">cantera/base/ct_defs.h</text>
</a>
</g>
</g>
<!-- Node3&#45;&gt;Node4 -->
<g id="edge3" class="edge">
<title>Node3&#45;&gt;Node4</title>
<path fill="none" stroke="midnightblue" d="M705.69,-229.91C766.69,-216.43 877.82,-191.47 880.57,-188 886.08,-181.03 886.07,-174.98 880.57,-168 837.14,-112.95 636.01,-84.96 525.24,-73.49"/>
<polygon fill="midnightblue" stroke="midnightblue" points="525.44,-70 515.14,-72.47 524.73,-76.96 525.44,-70"/>
</g>
<!-- Node5 -->
<g id="node5" class="node">
<title>Node5</title>
<g id="a_node5"><a xlink:href="../../db/d16/config_8h_source.html" target="_top" xlink:title=" ">
<polygon fill="white" stroke="black" points="136.07,-0.5 136.07,-19.5 191.07,-19.5 191.07,-0.5 136.07,-0.5"/>
<text text-anchor="middle" x="163.57" y="-7.5" font-family="Helvetica,sans-Serif" font-size="10.00">config.h</text>
</a>
</g>
</g>
<!-- Node4&#45;&gt;Node5 -->
<g id="edge4" class="edge">
<title>Node4&#45;&gt;Node5</title>
<path fill="none" stroke="midnightblue" d="M397.78,-56.49C348.81,-48.49 274.32,-35.71 201.26,-20.26"/>
<polygon fill="midnightblue" stroke="midnightblue" points="201.94,-16.83 191.43,-18.17 200.48,-23.68 201.94,-16.83"/>
</g>
<!-- Node6 -->
<g id="node6" class="node">
<title>Node6</title>
<g id="a_node6"><a xlink:title=" ">
<polygon fill="white" stroke="#bfbfbf" points="209.07,-0.5 209.07,-19.5 256.07,-19.5 256.07,-0.5 209.07,-0.5"/>
<text text-anchor="middle" x="232.57" y="-7.5" font-family="Helvetica,sans-Serif" font-size="10.00">cmath</text>
</a>
</g>
</g>
<!-- Node4&#45;&gt;Node6 -->
<g id="edge5" class="edge">
<title>Node4&#45;&gt;Node6</title>
<path fill="none" stroke="midnightblue" d="M414.21,-56.45C378.46,-48.17 322.77,-35.02 266.14,-20.35"/>
<polygon fill="midnightblue" stroke="midnightblue" points="266.86,-16.92 256.31,-17.78 265.1,-23.69 266.86,-16.92"/>
</g>
<!-- Node7 -->
<g id="node7" class="node">
<title>Node7</title>
<g id="a_node7"><a xlink:title=" ">
<polygon fill="white" stroke="#bfbfbf" points="274.07,-0.5 274.07,-19.5 323.07,-19.5 323.07,-0.5 274.07,-0.5"/>
<text text-anchor="middle" x="298.57" y="-7.5" font-family="Helvetica,sans-Serif" font-size="10.00">cstdlib</text>
</a>
</g>
</g>
<!-- Node4&#45;&gt;Node7 -->
<g id="edge6" class="edge">
<title>Node4&#45;&gt;Node7</title>
<path fill="none" stroke="midnightblue" d="M427.32,-56.44C401.7,-47.4 361.08,-33.06 332.33,-22.92"/>
<polygon fill="midnightblue" stroke="midnightblue" points="333.29,-19.54 322.7,-19.52 330.96,-26.15 333.29,-19.54"/>
</g>
<!-- Node8 -->
<g id="node8" class="node">
<title>Node8</title>
<g id="a_node8"><a xlink:title=" ">
<polygon fill="white" stroke="#bfbfbf" points="341.07,-0.5 341.07,-19.5 388.07,-19.5 388.07,-0.5 341.07,-0.5"/>
<text text-anchor="middle" x="364.57" y="-7.5" font-family="Helvetica,sans-Serif" font-size="10.00">vector</text>
</a>
</g>
</g>
<!-- Node4&#45;&gt;Node8 -->
<g id="edge7" class="edge">
<title>Node4&#45;&gt;Node8</title>
<path fill="none" stroke="midnightblue" d="M437.59,-56.32C424.02,-47.9 403.19,-34.97 387.24,-25.07"/>
<polygon fill="midnightblue" stroke="midnightblue" points="388.85,-21.95 378.51,-19.65 385.16,-27.9 388.85,-21.95"/>
</g>
<!-- Node9 -->
<g id="node9" class="node">
<title>Node9</title>
<g id="a_node9"><a xlink:title=" ">
<polygon fill="white" stroke="#bfbfbf" points="406.57,-0.5 406.57,-19.5 444.57,-19.5 444.57,-0.5 406.57,-0.5"/>
<text text-anchor="middle" x="425.57" y="-7.5" font-family="Helvetica,sans-Serif" font-size="10.00">map</text>
</a>
</g>
</g>
<!-- Node4&#45;&gt;Node9 -->
<g id="edge8" class="edge">
<title>Node4&#45;&gt;Node9</title>
<path fill="none" stroke="midnightblue" d="M447.27,-56.08C443.71,-48.69 438.54,-37.95 434.14,-28.81"/>
<polygon fill="midnightblue" stroke="midnightblue" points="437.27,-27.24 429.78,-19.75 430.97,-30.28 437.27,-27.24"/>
</g>
<!-- Node10 -->
<g id="node10" class="node">
<title>Node10</title>
<g id="a_node10"><a xlink:title=" ">
<polygon fill="white" stroke="#bfbfbf" points="462.57,-0.5 462.57,-19.5 494.57,-19.5 494.57,-0.5 462.57,-0.5"/>
<text text-anchor="middle" x="478.57" y="-7.5" font-family="Helvetica,sans-Serif" font-size="10.00">set</text>
</a>
</g>
</g>
<!-- Node4&#45;&gt;Node10 -->
<g id="edge9" class="edge">
<title>Node4&#45;&gt;Node10</title>
<path fill="none" stroke="midnightblue" d="M456.03,-56.08C459.72,-48.69 465.09,-37.95 469.66,-28.81"/>
<polygon fill="midnightblue" stroke="midnightblue" points="472.85,-30.26 474.19,-19.75 466.59,-27.13 472.85,-30.26"/>
</g>
<!-- Node11 -->
<g id="node11" class="node">
<title>Node11</title>
<g id="a_node11"><a xlink:title=" ">
<polygon fill="white" stroke="#bfbfbf" points="512.57,-0.5 512.57,-19.5 556.57,-19.5 556.57,-0.5 512.57,-0.5"/>
<text text-anchor="middle" x="534.57" y="-7.5" font-family="Helvetica,sans-Serif" font-size="10.00">string</text>
</a>
</g>
</g>
<!-- Node4&#45;&gt;Node11 -->
<g id="edge10" class="edge">
<title>Node4&#45;&gt;Node11</title>
<path fill="none" stroke="midnightblue" d="M464.9,-56.32C477.73,-47.98 497.35,-35.21 512.51,-25.35"/>
<polygon fill="midnightblue" stroke="midnightblue" points="514.79,-28.04 521.26,-19.65 510.97,-22.17 514.79,-28.04"/>
</g>
<!-- Node12 -->
<g id="node12" class="node">
<title>Node12</title>
<g id="a_node12"><a xlink:title=" ">
<polygon fill="white" stroke="#bfbfbf" points="574.57,-0.5 574.57,-19.5 638.57,-19.5 638.57,-0.5 574.57,-0.5"/>
<text text-anchor="middle" x="606.57" y="-7.5" font-family="Helvetica,sans-Serif" font-size="10.00">algorithm</text>
</a>
</g>
</g>
<!-- Node4&#45;&gt;Node12 -->
<g id="edge11" class="edge">
<title>Node4&#45;&gt;Node12</title>
<path fill="none" stroke="midnightblue" d="M476.13,-56.44C502.09,-47.4 543.24,-33.06 572.36,-22.92"/>
<polygon fill="midnightblue" stroke="midnightblue" points="573.83,-26.11 582.12,-19.52 571.53,-19.5 573.83,-26.11"/>
</g>
<!-- Node13 -->
<g id="node13" class="node">
<title>Node13</title>
<g id="a_node13"><a xlink:title=" ">
<polygon fill="white" stroke="#bfbfbf" points="656.57,-0.5 656.57,-19.5 714.57,-19.5 714.57,-0.5 656.57,-0.5"/>
<text text-anchor="middle" x="685.57" y="-7.5" font-family="Helvetica,sans-Serif" font-size="10.00">memory</text>
</a>
</g>
</g>
<!-- Node4&#45;&gt;Node13 -->
<g id="edge12" class="edge">
<title>Node4&#45;&gt;Node13</title>
<path fill="none" stroke="midnightblue" d="M489.16,-56.45C526.62,-47.91 586.06,-34.31 646.77,-20.17"/>
<polygon fill="midnightblue" stroke="midnightblue" points="647.58,-23.58 656.53,-17.9 645.99,-16.76 647.58,-23.58"/>
</g>
<!-- Node14 -->
<g id="node14" class="node">
<title>Node14</title>
<g id="a_node14"><a xlink:title=" ">
<polygon fill="white" stroke="#bfbfbf" points="733.07,-0.5 733.07,-19.5 798.07,-19.5 798.07,-0.5 733.07,-0.5"/>
<text text-anchor="middle" x="765.57" y="-7.5" font-family="Helvetica,sans-Serif" font-size="10.00">functional</text>
</a>
</g>
</g>
<!-- Node4&#45;&gt;Node14 -->
<g id="edge13" class="edge">
<title>Node4&#45;&gt;Node14</title>
<path fill="none" stroke="midnightblue" d="M507.97,-56.46C560.92,-48.27 642.58,-35.17 723.21,-19.99"/>
<polygon fill="midnightblue" stroke="midnightblue" points="723.86,-23.43 733.04,-18.13 722.56,-16.55 723.86,-23.43"/>
</g>
<!-- Node15&#45;&gt;Node4 -->
<g id="edge15" class="edge">
<title>Node15&#45;&gt;Node4</title>
<path fill="none" stroke="midnightblue" d="M490.29,-229.9C484.54,-220.12 475.49,-203.48 470.57,-188 459.44,-152.99 454.68,-110.14 452.76,-85.97"/>
<polygon fill="midnightblue" stroke="midnightblue" points="456.23,-85.44 452.03,-75.71 449.25,-85.94 456.23,-85.44"/>
</g>
<!-- Node15&#45;&gt;Node16 -->
<g id="edge16" class="edge">
<title>Node15&#45;&gt;Node16</title>
<path fill="none" stroke="midnightblue" d="M454.16,-229.98C402.44,-219.33 313.95,-201.11 257.96,-189.58"/>
<polygon fill="midnightblue" stroke="midnightblue" points="258.4,-186.1 247.9,-187.51 256.99,-192.95 258.4,-186.1"/>
</g>
<!-- Node15&#45;&gt;Node22 -->
<g id="edge21" class="edge">
<title>Node15&#45;&gt;Node22</title>
<path fill="none" stroke="midnightblue" d="M541.13,-229.98C598.39,-219.26 696.62,-200.88 758.17,-189.37"/>
<polygon fill="midnightblue" stroke="midnightblue" points="758.9,-192.79 768.09,-187.51 757.62,-185.91 758.9,-192.79"/>
</g>
<!-- Node23 -->
<g id="node20" class="node">
<title>Node23</title>
<g id="a_node20"><a xlink:title=" ">
<polygon fill="white" stroke="#bfbfbf" points="644.07,-168.5 644.07,-187.5 737.07,-187.5 737.07,-168.5 644.07,-168.5"/>
<text text-anchor="middle" x="690.57" y="-175.5" font-family="Helvetica,sans-Serif" font-size="10.00">unordered_map</text>
</a>
</g>
</g>
<!-- Node15&#45;&gt;Node23 -->
<g id="edge23" class="edge">
<title>Node15&#45;&gt;Node23</title>
<path fill="none" stroke="midnightblue" d="M523.51,-229.98C557.53,-219.59 615.15,-202.01 653.03,-190.45"/>
<polygon fill="midnightblue" stroke="midnightblue" points="654.14,-193.78 662.68,-187.51 652.09,-187.08 654.14,-193.78"/>
</g>
<!-- Node24 -->
<g id="node21" class="node">
<title>Node24</title>
<g id="a_node21"><a xlink:title=" ">
<polygon fill="white" stroke="#bfbfbf" points="301.57,-168.5 301.57,-187.5 369.57,-187.5 369.57,-168.5 301.57,-168.5"/>
<text text-anchor="middle" x="335.57" y="-175.5" font-family="Helvetica,sans-Serif" font-size="10.00">filesystem</text>
</a>
</g>
</g>
<!-- Node15&#45;&gt;Node24 -->
<g id="edge24" class="edge">
<title>Node15&#45;&gt;Node24</title>
<path fill="none" stroke="midnightblue" d="M472.64,-229.98C445.2,-219.77 399.05,-202.61 367.97,-191.05"/>
<polygon fill="midnightblue" stroke="midnightblue" points="369.04,-187.71 358.45,-187.51 366.6,-194.28 369.04,-187.71"/>
</g>
<!-- Node25 -->
<g id="node22" class="node">
<title>Node25</title>
<g id="a_node22"><a xlink:title=" ">
<polygon fill="white" stroke="#bfbfbf" points="388.07,-168.5 388.07,-187.5 423.07,-187.5 423.07,-168.5 388.07,-168.5"/>
<text text-anchor="middle" x="405.57" y="-175.5" font-family="Helvetica,sans-Serif" font-size="10.00">any</text>
</a>
</g>
</g>
<!-- Node15&#45;&gt;Node25 -->
<g id="edge25" class="edge">
<title>Node15&#45;&gt;Node25</title>
<path fill="none" stroke="midnightblue" d="M482.67,-229.98C468.1,-220.34 444.17,-204.52 426.82,-193.05"/>
<polygon fill="midnightblue" stroke="midnightblue" points="428.71,-190.1 418.44,-187.51 424.85,-195.94 428.71,-190.1"/>
</g>
<!-- Node26 -->
<g id="node23" class="node">
<title>Node26</title>
<g id="a_node23"><a xlink:href="../../da/d4c/AnyMap_8inl_8h.html" target="_top" xlink:title=" ">
<polygon fill="white" stroke="black" points="479.57,-168.5 479.57,-187.5 625.57,-187.5 625.57,-168.5 479.57,-168.5"/>
<text text-anchor="middle" x="552.57" y="-175.5" font-family="Helvetica,sans-Serif" font-size="10.00">cantera/base/AnyMap.inl.h</text>
</a>
</g>
</g>
<!-- Node15&#45;&gt;Node26 -->
<g id="edge26" class="edge">
<title>Node15&#45;&gt;Node26</title>
<path fill="none" stroke="midnightblue" d="M498.83,-229.98C505.7,-220.7 519.73,-205.67 531.89,-194.33"/>
<polygon fill="midnightblue" stroke="midnightblue" points="534.4,-196.78 539.52,-187.51 529.73,-191.57 534.4,-196.78"/>
</g>
<!-- Node16&#45;&gt;Node4 -->
<g id="edge17" class="edge">
<title>Node16&#45;&gt;Node4</title>
<path fill="none" stroke="midnightblue" d="M206.43,-168.39C206.72,-154.39 209.44,-126.77 225.57,-112 247.55,-91.86 320.55,-79.92 377.7,-73.46"/>
<polygon fill="midnightblue" stroke="midnightblue" points="378.25,-76.92 387.81,-72.35 377.49,-69.96 378.25,-76.92"/>
</g>
<!-- Node17 -->
<g id="node17" class="node">
<title>Node17</title>
<g id="a_node17"><a xlink:href="../../db/def/fmt_8h.html" target="_top" xlink:title="Wrapper for either system&#45;installed or local headers for fmt.">
<polygon fill="white" stroke="red" points="20.07,-112.5 20.07,-131.5 129.07,-131.5 129.07,-112.5 20.07,-112.5"/>
<text text-anchor="middle" x="74.57" y="-119.5" font-family="Helvetica,sans-Serif" font-size="10.00">cantera/base/fmt.h</text>
</a>
</g>
</g>
<!-- Node16&#45;&gt;Node17 -->
<g id="edge18" class="edge">
<title>Node16&#45;&gt;Node17</title>
<path fill="none" stroke="midnightblue" d="M185.65,-168.44C163.83,-159.52 129.42,-145.44 104.68,-135.32"/>
<polygon fill="midnightblue" stroke="midnightblue" points="105.97,-132.06 95.39,-131.52 103.32,-138.54 105.97,-132.06"/>
</g>
<!-- Node21 -->
<g id="node18" class="node">
<title>Node21</title>
<g id="a_node18"><a xlink:title=" ">
<polygon fill="white" stroke="#bfbfbf" points="235.07,-112.5 235.07,-131.5 300.07,-131.5 300.07,-112.5 235.07,-112.5"/>
<text text-anchor="middle" x="267.57" y="-119.5" font-family="Helvetica,sans-Serif" font-size="10.00">exception</text>
</a>
</g>
</g>
<!-- Node16&#45;&gt;Node21 -->
<g id="edge20" class="edge">
<title>Node16&#45;&gt;Node21</title>
<path fill="none" stroke="midnightblue" d="M216.37,-168.32C225.39,-160.34 238.97,-148.31 249.89,-138.65"/>
<polygon fill="midnightblue" stroke="midnightblue" points="252.42,-141.08 257.59,-131.83 247.78,-135.84 252.42,-141.08"/>
</g>
<!-- Node17&#45;&gt;Node4 -->
<g id="edge19" class="edge">
<title>Node17&#45;&gt;Node4</title>
<path fill="none" stroke="midnightblue" d="M129.39,-113.15C196.19,-103.58 309.14,-87.4 382.01,-76.96"/>
<polygon fill="midnightblue" stroke="midnightblue" points="382.61,-80.41 392.01,-75.53 381.62,-73.48 382.61,-80.41"/>
</g>
<!-- Node22&#45;&gt;Node4 -->
<g id="edge22" class="edge">
<title>Node22&#45;&gt;Node4</title>
<path fill="none" stroke="midnightblue" d="M785.46,-168.46C721.05,-148.89 562.69,-100.77 489.63,-78.57"/>
<polygon fill="midnightblue" stroke="midnightblue" points="490.49,-75.17 479.9,-75.61 488.45,-81.87 490.49,-75.17"/>
</g>
<!-- Node26&#45;&gt;Node15 -->
<g id="edge27" class="edge">
<title>Node26&#45;&gt;Node15</title>
<path fill="none" stroke="midnightblue" d="M549.31,-187.51C542.46,-196.78 528.43,-211.81 516.26,-223.15"/>
<polygon fill="midnightblue" stroke="midnightblue" points="513.75,-220.7 508.63,-229.98 518.42,-225.92 513.75,-220.7"/>
</g>
<!-- Node27&#45;&gt;Node4 -->
<g id="edge30" class="edge">
<title>Node27&#45;&gt;Node4</title>
<path fill="none" stroke="midnightblue" d="M54.2,-229.75C31.52,-207.55 -22.15,-148.23 10.57,-112 34.66,-85.33 258.41,-73.62 377.61,-69.24"/>
<polygon fill="midnightblue" stroke="midnightblue" points="377.89,-72.73 387.76,-68.88 377.64,-65.74 377.89,-72.73"/>
</g>
<!-- Node27&#45;&gt;Node17 -->
<g id="edge31" class="edge">
<title>Node27&#45;&gt;Node17</title>
<path fill="none" stroke="midnightblue" d="M64.39,-229.82C66.16,-211.26 70.34,-167.34 72.76,-141.97"/>
<polygon fill="midnightblue" stroke="midnightblue" points="76.27,-142.07 73.73,-131.78 69.3,-141.41 76.27,-142.07"/>
</g>
<!-- Node28&#45;&gt;Node4 -->
<g id="edge34" class="edge">
<title>Node28&#45;&gt;Node4</title>
<path fill="none" stroke="midnightblue" d="M167.1,-224.39C137.42,-212.5 106.56,-193.37 120.57,-168 143.16,-127.09 166.04,-129.02 209.57,-112 263.72,-90.82 328.68,-79.45 377.65,-73.43"/>
<polygon fill="midnightblue" stroke="midnightblue" points="378.33,-76.88 387.85,-72.23 377.51,-69.93 378.33,-76.88"/>
</g>
<!-- Node28&#45;&gt;Node16 -->
<g id="edge35" class="edge">
<title>Node28&#45;&gt;Node16</title>
<path fill="none" stroke="midnightblue" d="M211.15,-224.4C210.35,-216.47 209.34,-206.46 208.47,-197.86"/>
<polygon fill="midnightblue" stroke="midnightblue" points="211.93,-197.26 207.44,-187.66 204.96,-197.96 211.93,-197.26"/>
</g>
<!-- Node29&#45;&gt;Node2 -->
<g id="edge37" class="edge">
<title>Node29&#45;&gt;Node2</title>
<path fill="none" stroke="midnightblue" d="M608.23,-358.48C591.08,-350.04 564.26,-336.86 542.21,-326.01"/>
<polygon fill="midnightblue" stroke="midnightblue" points="543.6,-322.79 533.08,-321.52 540.51,-329.08 543.6,-322.79"/>
</g>
<!-- Node29&#45;&gt;Node3 -->
<g id="edge38" class="edge">
<title>Node29&#45;&gt;Node3</title>
<path fill="none" stroke="midnightblue" d="M628.39,-358.31C635,-337.9 651.63,-286.6 660.6,-258.91"/>
<polygon fill="midnightblue" stroke="midnightblue" points="663.98,-259.85 663.73,-249.26 657.32,-257.69 663.98,-259.85"/>
</g>
<!-- Node30 -->
<g id="node27" class="node">
<title>Node30</title>
<g id="a_node27"><a xlink:href="../../de/df0/utilities_8h.html" target="_top" xlink:title="Various templated functions that carry out common vector and polynomial operations (see Templated Arr...">
<polygon fill="white" stroke="black" points="708.57,-297 708.57,-316 836.57,-316 836.57,-297 708.57,-297"/>
<text text-anchor="middle" x="772.57" y="-304" font-family="Helvetica,sans-Serif" font-size="10.00">cantera/base/utilities.h</text>
</a>
</g>
</g>
<!-- Node29&#45;&gt;Node30 -->
<g id="edge39" class="edge">
<title>Node29&#45;&gt;Node30</title>
<path fill="none" stroke="midnightblue" d="M646.63,-358.48C671.63,-348.36 713.51,-331.4 742.05,-319.85"/>
<polygon fill="midnightblue" stroke="midnightblue" points="743.59,-323.01 751.54,-316.01 740.96,-316.52 743.59,-323.01"/>
</g>
<!-- Node30&#45;&gt;Node4 -->
<g id="edge40" class="edge">
<title>Node30&#45;&gt;Node4</title>
<path fill="none" stroke="midnightblue" d="M792.13,-296.85C834.69,-276.76 929.39,-224.31 897.57,-168 873.83,-126 850.14,-127.84 804.57,-112 711.77,-79.76 598.05,-70.21 525.21,-67.6"/>
<polygon fill="midnightblue" stroke="midnightblue" points="525.32,-64.1 515.21,-67.28 525.09,-71.1 525.32,-64.1"/>
</g>
<!-- Node31 -->
<g id="node28" class="node">
<title>Node31</title>
<g id="a_node28"><a xlink:title=" ">
<polygon fill="white" stroke="#bfbfbf" points="744.57,-230 744.57,-249 800.57,-249 800.57,-230 744.57,-230"/>
<text text-anchor="middle" x="772.57" y="-237" font-family="Helvetica,sans-Serif" font-size="10.00">numeric</text>
</a>
</g>
</g>
<!-- Node30&#45;&gt;Node31 -->
<g id="edge41" class="edge">
<title>Node30&#45;&gt;Node31</title>
<path fill="none" stroke="midnightblue" d="M772.57,-296.73C772.57,-287.18 772.57,-271.62 772.57,-259.28"/>
<polygon fill="midnightblue" stroke="midnightblue" points="776.07,-259.13 772.57,-249.13 769.07,-259.13 776.07,-259.13"/>
</g>
<!-- Node32&#45;&gt;Node4 -->
<g id="edge43" class="edge">
<title>Node32&#45;&gt;Node4</title>
<path fill="none" stroke="midnightblue" d="M907.03,-358.39C928.71,-339.49 976.57,-291.95 976.57,-240.5 976.57,-240.5 976.57,-240.5 976.57,-177 976.57,-85.89 669.83,-69.79 525.28,-67.27"/>
<polygon fill="midnightblue" stroke="midnightblue" points="525.21,-63.77 515.16,-67.11 525.1,-70.77 525.21,-63.77"/>
</g>
<!-- Node33 -->
<g id="node30" class="node">
<title>Node33</title>
<g id="a_node30"><a xlink:title=" ">
<polygon fill="white" stroke="#bfbfbf" points="866.57,-297 866.57,-316 926.57,-316 926.57,-297 866.57,-297"/>
<text text-anchor="middle" x="896.57" y="-304" font-family="Helvetica,sans-Serif" font-size="10.00">iostream</text>
</a>
</g>
</g>
<!-- Node32&#45;&gt;Node33 -->
<g id="edge44" class="edge">
<title>Node32&#45;&gt;Node33</title>
<path fill="none" stroke="midnightblue" d="M896.57,-358.48C896.57,-350.08 896.57,-336.98 896.57,-326.16"/>
<polygon fill="midnightblue" stroke="midnightblue" points="900.07,-326.01 896.57,-316.01 893.07,-326.01 900.07,-326.01"/>
</g>
</g>
</svg>
        <g id="navigator" transform="translate(0 0)" fill="#404254">
                <rect fill="#f2f5e9" fill-opacity="0.5" stroke="#606060" stroke-width=".5" x="0" y="0" width="60" height="60"/>
                <use id="zoomplus" xlink:href="#zoomPlus" x="17" y="9" onmousedown="handleZoom(evt,'in')"/>
                <use id="zoomminus" xlink:href="#zoomMin" x="42" y="9" onmousedown="handleZoom(evt,'out')"/>
                <use id="reset" xlink:href="#resetDef" x="30" y="36" onmousedown="handleReset()"/>
                <g id="arrowUp" xlink:href="#dirArrow" transform="translate(30 24)" onmousedown="handlePan(0,-1)">
                  <use xlink:href="#rim" fill="#404040">
                        <set attributeName="fill" to="#808080" begin="arrowUp.mouseover" end="arrowUp.mouseout"/>
                  </use>
                  <path fill="none" stroke="white" stroke-width="1.5" d="M0,-3.0v7 M-2.5,-0.5L0,-3.0L2.5,-0.5"/>
                </g>
                <g id="arrowRight" xlink:href="#dirArrow" transform="rotate(90) translate(36 -43)" onmousedown="handlePan(1,0)">
                  <use xlink:href="#rim" fill="#404040">
                        <set attributeName="fill" to="#808080" begin="arrowRight.mouseover" end="arrowRight.mouseout"/>
                  </use>
                  <path fill="none" stroke="white" stroke-width="1.5" d="M0,-3.0v7 M-2.5,-0.5L0,-3.0L2.5,-0.5"/>
                </g>
                <g id="arrowDown" xlink:href="#dirArrow" transform="rotate(180) translate(-30 -48)" onmousedown="handlePan(0,1)">
                  <use xlink:href="#rim" fill="#404040">
                        <set attributeName="fill" to="#808080" begin="arrowDown.mouseover" end="arrowDown.mouseout"/>
                  </use>
                  <path fill="none" stroke="white" stroke-width="1.5" d="M0,-3.0v7 M-2.5,-0.5L0,-3.0L2.5,-0.5"/>
                </g>
                <g id="arrowLeft" xlink:href="#dirArrow" transform="rotate(270) translate(-36 17)" onmousedown="handlePan(-1,0)">
                  <use xlink:href="#rim" fill="#404040">
                        <set attributeName="fill" to="#808080" begin="arrowLeft.mouseover" end="arrowLeft.mouseout"/>
                  </use>
                  <path fill="none" stroke="white" stroke-width="1.5" d="M0,-3.0v7 M-2.5,-0.5L0,-3.0L2.5,-0.5"/>
                </g>
        </g>
        <svg viewBox="0 0 15 15" width="100%" height="30px" preserveAspectRatio="xMaxYMin meet">
         <g id="arrow_out" transform="scale(0.3 0.3)">
          <a xlink:href="ChebyshevRate_8h__incl_org.svg" target="_base">
           <rect id="button" ry="5" rx="5" y="6" x="6" height="38" width="38"
                fill="#f2f5e9" fill-opacity="0.5" stroke="#606060" stroke-width="1.0"/>
           <path id="arrow"
             d="M 11.500037,31.436501 C 11.940474,20.09759 22.043105,11.32322 32.158766,21.979434 L 37.068811,17.246167 C 37.068811,17.246167 37.088388,32 37.088388,32 L 22.160133,31.978069 C 22.160133,31.978069 26.997745,27.140456 26.997745,27.140456 C 18.528582,18.264221 13.291696,25.230495 11.500037,31.436501 z"
             style="fill:#404040;"/>
          </a>
         </g>
        </svg>
</svg>
