<?xml version="1.0" encoding="UTF-8" standalone="no"?>
<!DOCTYPE svg PUBLIC "-//W3C//DTD SVG 1.1//EN"
 "http://www.w3.org/Graphics/SVG/1.1/DTD/svg11.dtd">
<!-- Generated by graphviz version 6.0.1 (0)
 -->
<!-- Title: ChebyshevRate.h Pages: 1 -->
<!--zoomable 434 -->
<svg id="main" version="1.1" xmlns="http://www.w3.org/2000/svg" xmlns:xlink="http://www.w3.org/1999/xlink" xml:space="preserve" onload="init(evt)">
<style type="text/css"><![CDATA[
.edge:hover path { stroke: red; }
.edge:hover polygon { stroke: red; fill: red; }
]]></style>
<script type="text/javascript"><![CDATA[
var edges = document.getElementsByTagName('g');
if (edges && edges.length) {
  for (var i=0;i<edges.length;i++) {
    if (edges[i].id.substr(0,4)=='edge') {
      edges[i].setAttribute('class','edge');
    }
  }
}
]]></script>
        <defs>
                <circle id="rim" cx="0" cy="0" r="7"/>
                <circle id="rim2" cx="0" cy="0" r="3.5"/>
                <g id="zoomPlus">
                        <use xlink:href="#rim" fill="#404040">
                                <set attributeName="fill" to="#808080" begin="zoomplus.mouseover" end="zoomplus.mouseout"/>
                        </use>
                        <path d="M-4,0h8M0,-4v8" fill="none" stroke="white" stroke-width="1.5" pointer-events="none"/>
                </g>
                <g id="zoomMin">
                        <use xlink:href="#rim" fill="#404040">
                                <set attributeName="fill" to="#808080" begin="zoomminus.mouseover" end="zoomminus.mouseout"/>
                        </use>
                        <path d="M-4,0h8" fill="none" stroke="white" stroke-width="1.5" pointer-events="none"/>
                </g>
                <g id="dirArrow">
                        <path fill="none" stroke="white" stroke-width="1.5" d="M0,-3.0v7 M-2.5,-0.5L0,-3.0L2.5,-0.5"/>
                </g>
               <g id="resetDef">
                       <use xlink:href="#rim2" fill="#404040">
                               <set attributeName="fill" to="#808080" begin="reset.mouseover" end="reset.mouseout"/>
                       </use>
               </g>
        </defs>

<script type="text/javascript">
var viewWidth = 921;
var viewHeight = 434;
var sectionId = 'dynsection-0';
</script>
<script xlink:href="../../svgpan.js"/>
<svg id="graph" class="graph">
<g id="viewport">
<title>ChebyshevRate.h</title>
<!-- Node1 -->
<g id="node1" class="node">
<title>Node1</title>
<g id="a_node1"><a xlink:title=" ">
<polygon fill="#999999" stroke="#666666" points="518.98,-426 423.98,-426 423.98,-407 518.98,-407 518.98,-426"/>
<text text-anchor="middle" x="471.48" y="-414" font-family="Helvetica,sans-Serif" font-size="10.00">ChebyshevRate.h</text>
</a>
</g>
</g>
<!-- Node2 -->
<g id="node2" class="node">
<title>Node2</title>
<g id="a_node2"><a xlink:href="../../d8/db0/ReactionRate_8h.html" target="_top" xlink:title=" ">
<polygon fill="white" stroke="#666666" points="535.48,-316 407.48,-316 407.48,-286 535.48,-286 535.48,-316"/>
<text text-anchor="start" x="415.48" y="-304" font-family="Helvetica,sans-Serif" font-size="10.00">cantera/kinetics/Reaction</text>
<text text-anchor="middle" x="471.48" y="-293" font-family="Helvetica,sans-Serif" font-size="10.00">Rate.h</text>
</a>
</g>
</g>
<!-- Node1&#45;&gt;Node2 -->
<g id="edge1" class="edge">
<title>Node1&#45;&gt;Node2</title>
<path fill="none" stroke="#63b8ff" d="M471.48,-406.97C471.48,-390.08 471.48,-351.85 471.48,-326.48"/>
<polygon fill="#63b8ff" stroke="#63b8ff" points="474.98,-326.18 471.48,-316.18 467.98,-326.18 474.98,-326.18"/>
</g>
<!-- Node26 -->
<g id="node24" class="node">
<title>Node26</title>
<g id="a_node24"><a xlink:href="../../d2/d49/global_8h.html" target="_top" xlink:title="This file contains definitions for utility functions and text for modules, inputfiles,...">
<polygon fill="white" stroke="#666666" points="112.48,-244.5 2.48,-244.5 2.48,-225.5 112.48,-225.5 112.48,-244.5"/>
<text text-anchor="middle" x="57.48" y="-232.5" font-family="Helvetica,sans-Serif" font-size="10.00">cantera/base/global.h</text>
</a>
</g>
</g>
<!-- Node1&#45;&gt;Node26 -->
<g id="edge45" class="edge">
<title>Node1&#45;&gt;Node26</title>
<path fill="none" stroke="#63b8ff" d="M451.79,-406.96C384.91,-377.97 166.2,-283.14 86.7,-248.67"/>
<polygon fill="#63b8ff" stroke="#63b8ff" points="87.85,-245.36 77.29,-244.59 85.07,-251.78 87.85,-245.36"/>
</g>
<!-- Node27 -->
<g id="node25" class="node">
<title>Node27</title>
<g id="a_node25"><a xlink:href="../../d6/d4a/ReactionData_8h.html" target="_top" xlink:title=" ">
<polygon fill="white" stroke="#666666" points="258.48,-250 130.48,-250 130.48,-220 258.48,-220 258.48,-250"/>
<text text-anchor="start" x="138.48" y="-238" font-family="Helvetica,sans-Serif" font-size="10.00">cantera/kinetics/Reaction</text>
<text text-anchor="middle" x="194.48" y="-227" font-family="Helvetica,sans-Serif" font-size="10.00">Data.h</text>
</a>
</g>
</g>
<!-- Node1&#45;&gt;Node27 -->
<g id="edge33" class="edge">
<title>Node1&#45;&gt;Node27</title>
<path fill="none" stroke="#63b8ff" d="M458.12,-406.84C415.97,-379.53 285.07,-294.71 225.08,-255.83"/>
<polygon fill="#63b8ff" stroke="#63b8ff" points="226.72,-252.72 216.42,-250.22 222.91,-258.6 226.72,-252.72"/>
</g>
<!-- Node28 -->
<g id="node26" class="node">
<title>Node28</title>
<g id="a_node26"><a xlink:href="../../d6/d42/MultiRate_8h.html" target="_top" xlink:title=" ">
<polygon fill="white" stroke="#666666" points="654.98,-371 515.98,-371 515.98,-352 654.98,-352 654.98,-371"/>
<text text-anchor="middle" x="585.48" y="-359" font-family="Helvetica,sans-Serif" font-size="10.00">cantera/kinetics/MultiRate.h</text>
</a>
</g>
</g>
<!-- Node1&#45;&gt;Node28 -->
<g id="edge36" class="edge">
<title>Node1&#45;&gt;Node28</title>
<path fill="none" stroke="#63b8ff" d="M489.79,-406.98C508.13,-398.46 536.59,-385.23 557.7,-375.41"/>
<polygon fill="#63b8ff" stroke="#63b8ff" points="559.23,-378.56 566.83,-371.17 556.28,-372.21 559.23,-378.56"/>
</g>
<!-- Node31 -->
<g id="node29" class="node">
<title>Node31</title>
<g id="a_node29"><a xlink:href="../../df/dd0/Array_8h.html" target="_top" xlink:title="Header file for class Cantera::Array2D.">
<polygon fill="white" stroke="#666666" points="890.48,-371 784.48,-371 784.48,-352 890.48,-352 890.48,-371"/>
<text text-anchor="middle" x="837.48" y="-359" font-family="Helvetica,sans-Serif" font-size="10.00">cantera/base/Array.h</text>
</a>
</g>
</g>
<!-- Node1&#45;&gt;Node31 -->
<g id="edge42" class="edge">
<title>Node1&#45;&gt;Node31</title>
<path fill="none" stroke="#63b8ff" d="M519.32,-408.57C584.65,-399.11 701.89,-382.13 774.36,-371.64"/>
<polygon fill="#63b8ff" stroke="#63b8ff" points="774.88,-375.1 784.27,-370.2 773.88,-368.17 774.88,-375.1"/>
</g>
<!-- Node3 -->
<g id="node3" class="node">
<title>Node3</title>
<g id="a_node3"><a xlink:href="../../dd/d16/MultiRateBase_8h.html" target="_top" xlink:title=" ">
<polygon fill="white" stroke="#666666" points="668.98,-244.5 579.98,-244.5 579.98,-225.5 668.98,-225.5 668.98,-244.5"/>
<text text-anchor="middle" x="624.48" y="-232.5" font-family="Helvetica,sans-Serif" font-size="10.00">MultiRateBase.h</text>
</a>
</g>
</g>
<!-- Node2&#45;&gt;Node3 -->
<g id="edge2" class="edge">
<title>Node2&#45;&gt;Node3</title>
<path fill="none" stroke="#63b8ff" d="M505.05,-285.95C531.88,-274.73 569.13,-259.15 594.86,-248.39"/>
<polygon fill="#63b8ff" stroke="#63b8ff" points="596.24,-251.61 604.11,-244.52 593.54,-245.15 596.24,-251.61"/>
</g>
<!-- Node15 -->
<g id="node15" class="node">
<title>Node15</title>
<g id="a_node15"><a xlink:href="../../dd/d2a/AnyMap_8h.html" target="_top" xlink:title=" ">
<polygon fill="white" stroke="#666666" points="523.48,-244.5 403.48,-244.5 403.48,-225.5 523.48,-225.5 523.48,-244.5"/>
<text text-anchor="middle" x="463.48" y="-232.5" font-family="Helvetica,sans-Serif" font-size="10.00">cantera/base/AnyMap.h</text>
</a>
</g>
</g>
<!-- Node2&#45;&gt;Node15 -->
<g id="edge14" class="edge">
<title>Node2&#45;&gt;Node15</title>
<path fill="none" stroke="#63b8ff" d="M469.7,-285.8C468.56,-276.7 467.07,-264.79 465.84,-254.9"/>
<polygon fill="#63b8ff" stroke="#63b8ff" points="469.29,-254.33 464.58,-244.84 462.35,-255.2 469.29,-254.33"/>
</g>
<!-- Node16 -->
<g id="node16" class="node">
<title>Node16</title>
<g id="a_node16"><a xlink:href="../../db/d98/ctexceptions_8h.html" target="_top" xlink:title="Definitions for the classes that are thrown when Cantera experiences an error condition (also contain...">
<polygon fill="white" stroke="#666666" points="263.48,-184 123.48,-184 123.48,-165 263.48,-165 263.48,-184"/>
<text text-anchor="middle" x="193.48" y="-172" font-family="Helvetica,sans-Serif" font-size="10.00">cantera/base/ctexceptions.h</text>
</a>
</g>
</g>
<!-- Node2&#45;&gt;Node16 -->
<g id="edge32" class="edge">
<title>Node2&#45;&gt;Node16</title>
<path fill="none" stroke="#63b8ff" d="M440.13,-285.96C385.7,-261.59 274.53,-211.8 222.08,-188.31"/>
<polygon fill="#63b8ff" stroke="#63b8ff" points="223.26,-185 212.7,-184.11 220.4,-191.39 223.26,-185"/>
</g>
<!-- Node21 -->
<g id="node19" class="node">
<title>Node21</title>
<g id="a_node19"><a xlink:href="../../da/d58/Units_8h.html" target="_top" xlink:title="Header for unit conversion utilities, which are used to translate user input from input files (See In...">
<polygon fill="white" stroke="#666666" points="808.98,-184 701.98,-184 701.98,-165 808.98,-165 808.98,-184"/>
<text text-anchor="middle" x="755.48" y="-172" font-family="Helvetica,sans-Serif" font-size="10.00">cantera/base/Units.h</text>
</a>
</g>
</g>
<!-- Node2&#45;&gt;Node21 -->
<g id="edge28" class="edge">
<title>Node2&#45;&gt;Node21</title>
<path fill="none" stroke="#63b8ff" d="M488.67,-285.95C516.4,-263.3 568.16,-221.14 570.48,-220 593.04,-208.88 654.25,-195.24 700.13,-186.01"/>
<polygon fill="#63b8ff" stroke="#63b8ff" points="700.83,-189.44 709.96,-184.06 699.47,-182.58 700.83,-189.44"/>
</g>
<!-- Node2&#45;&gt;Node26 -->
<g id="edge29" class="edge">
<title>Node2&#45;&gt;Node26</title>
<path fill="none" stroke="#63b8ff" d="M407.38,-292.28C337.02,-283.47 220.84,-267.94 121.48,-250 115.95,-249 110.17,-247.87 104.45,-246.69"/>
<polygon fill="#63b8ff" stroke="#63b8ff" points="104.78,-243.18 94.27,-244.53 103.33,-250.03 104.78,-243.18"/>
</g>
<!-- Node4 -->
<g id="node4" class="node">
<title>Node4</title>
<g id="a_node4"><a xlink:href="../../d9/ddc/ct__defs_8h.html" target="_top" xlink:title="This file contains definitions of constants, types and terms that are used in internal routines and a...">
<polygon fill="white" stroke="#666666" points="479.48,-74 363.48,-74 363.48,-55 479.48,-55 479.48,-74"/>
<text text-anchor="middle" x="421.48" y="-62" font-family="Helvetica,sans-Serif" font-size="10.00">cantera/base/ct_defs.h</text>
</a>
</g>
</g>
<!-- Node3&#45;&gt;Node4 -->
<g id="edge3" class="edge">
<title>Node3&#45;&gt;Node4</title>
<path fill="none" stroke="#63b8ff" d="M662.32,-225.44C717.14,-212.87 812.66,-190.23 817.48,-184 822.64,-177.32 822.65,-171.67 817.48,-165 777.67,-113.72 592.13,-84.89 489.76,-72.63"/>
<polygon fill="#63b8ff" stroke="#63b8ff" points="490.15,-69.15 479.81,-71.46 489.34,-76.1 490.15,-69.15"/>
</g>
<!-- Node5 -->
<g id="node5" class="node">
<title>Node5</title>
<g id="a_node5"><a xlink:href="../../db/d16/config_8h_source.html" target="_top" xlink:title=" ">
<polygon fill="white" stroke="#666666" points="171.98,-19 120.98,-19 120.98,0 171.98,0 171.98,-19"/>
<text text-anchor="middle" x="146.48" y="-7" font-family="Helvetica,sans-Serif" font-size="10.00">config.h</text>
</a>
</g>
</g>
<!-- Node4&#45;&gt;Node5 -->
<g id="edge4" class="edge">
<title>Node4&#45;&gt;Node5</title>
<path fill="none" stroke="#63b8ff" d="M370.75,-54.93C324.25,-46.88 253.27,-34.13 182.09,-19.03"/>
<polygon fill="#63b8ff" stroke="#63b8ff" points="182.56,-15.55 172.05,-16.88 181.1,-22.4 182.56,-15.55"/>
</g>
<!-- Node6 -->
<g id="node6" class="node">
<title>Node6</title>
<g id="a_node6"><a xlink:title=" ">
<polygon fill="#e0e0e0" stroke="#999999" points="234.48,-19 190.48,-19 190.48,0 234.48,0 234.48,-19"/>
<text text-anchor="middle" x="212.48" y="-7" font-family="Helvetica,sans-Serif" font-size="10.00">cmath</text>
</a>
</g>
</g>
<!-- Node4&#45;&gt;Node6 -->
<g id="edge5" class="edge">
<title>Node4&#45;&gt;Node6</title>
<path fill="none" stroke="#63b8ff" d="M386.29,-54.95C352.38,-46.66 299.37,-33.55 244.68,-19.27"/>
<polygon fill="#63b8ff" stroke="#63b8ff" points="245.37,-15.84 234.81,-16.69 243.6,-22.61 245.37,-15.84"/>
</g>
<!-- Node7 -->
<g id="node7" class="node">
<title>Node7</title>
<g id="a_node7"><a xlink:title=" ">
<polygon fill="#e0e0e0" stroke="#999999" points="297.98,-19 252.98,-19 252.98,0 297.98,0 297.98,-19"/>
<text text-anchor="middle" x="275.48" y="-7" font-family="Helvetica,sans-Serif" font-size="10.00">cstdlib</text>
</a>
</g>
</g>
<!-- Node4&#45;&gt;Node7 -->
<g id="edge6" class="edge">
<title>Node4&#45;&gt;Node7</title>
<path fill="none" stroke="#63b8ff" d="M398.02,-54.98C373.61,-46.12 335.21,-32.18 307.9,-22.27"/>
<polygon fill="#63b8ff" stroke="#63b8ff" points="308.99,-18.94 298.39,-18.82 306.6,-25.52 308.99,-18.94"/>
</g>
<!-- Node8 -->
<g id="node8" class="node">
<title>Node8</title>
<g id="a_node8"><a xlink:title=" ">
<polygon fill="#e0e0e0" stroke="#999999" points="360.48,-19 316.48,-19 316.48,0 360.48,0 360.48,-19"/>
<text text-anchor="middle" x="338.48" y="-7" font-family="Helvetica,sans-Serif" font-size="10.00">vector</text>
</a>
</g>
</g>
<!-- Node4&#45;&gt;Node8 -->
<g id="edge7" class="edge">
<title>Node4&#45;&gt;Node8</title>
<path fill="none" stroke="#63b8ff" d="M408.14,-54.98C395.39,-46.84 375.92,-34.41 360.81,-24.76"/>
<polygon fill="#63b8ff" stroke="#63b8ff" points="362.37,-21.6 352.05,-19.17 358.6,-27.5 362.37,-21.6"/>
</g>
<!-- Node9 -->
<g id="node9" class="node">
<title>Node9</title>
<g id="a_node9"><a xlink:title=" ">
<polygon fill="#e0e0e0" stroke="#999999" points="413.98,-19 378.98,-19 378.98,0 413.98,0 413.98,-19"/>
<text text-anchor="middle" x="396.48" y="-7" font-family="Helvetica,sans-Serif" font-size="10.00">map</text>
</a>
</g>
</g>
<!-- Node4&#45;&gt;Node9 -->
<g id="edge8" class="edge">
<title>Node4&#45;&gt;Node9</title>
<path fill="none" stroke="#63b8ff" d="M417.35,-54.75C413.96,-47.57 409.06,-37.18 404.86,-28.27"/>
<polygon fill="#63b8ff" stroke="#63b8ff" points="407.96,-26.64 400.53,-19.09 401.63,-29.63 407.96,-26.64"/>
</g>
<!-- Node10 -->
<g id="node10" class="node">
<title>Node10</title>
<g id="a_node10"><a xlink:title=" ">
<polygon fill="#e0e0e0" stroke="#999999" points="462.48,-19 432.48,-19 432.48,0 462.48,0 462.48,-19"/>
<text text-anchor="middle" x="447.48" y="-7" font-family="Helvetica,sans-Serif" font-size="10.00">set</text>
</a>
</g>
</g>
<!-- Node4&#45;&gt;Node10 -->
<g id="edge9" class="edge">
<title>Node4&#45;&gt;Node10</title>
<path fill="none" stroke="#63b8ff" d="M425.77,-54.75C429.29,-47.57 434.39,-37.18 438.76,-28.27"/>
<polygon fill="#63b8ff" stroke="#63b8ff" points="442,-29.61 443.26,-19.09 435.72,-26.53 442,-29.61"/>
</g>
<!-- Node11 -->
<g id="node11" class="node">
<title>Node11</title>
<g id="a_node11"><a xlink:title=" ">
<polygon fill="#e0e0e0" stroke="#999999" points="521.98,-19 480.98,-19 480.98,0 521.98,0 521.98,-19"/>
<text text-anchor="middle" x="501.48" y="-7" font-family="Helvetica,sans-Serif" font-size="10.00">string</text>
</a>
</g>
</g>
<!-- Node4&#45;&gt;Node11 -->
<g id="edge10" class="edge">
<title>Node4&#45;&gt;Node11</title>
<path fill="none" stroke="#63b8ff" d="M434.33,-54.98C446.62,-46.84 465.38,-34.41 479.95,-24.76"/>
<polygon fill="#63b8ff" stroke="#63b8ff" points="481.98,-27.61 488.39,-19.17 478.12,-21.78 481.98,-27.61"/>
</g>
<!-- Node12 -->
<g id="node12" class="node">
<title>Node12</title>
<g id="a_node12"><a xlink:title=" ">
<polygon fill="#e0e0e0" stroke="#999999" points="596.48,-19 540.48,-19 540.48,0 596.48,0 596.48,-19"/>
<text text-anchor="middle" x="568.48" y="-7" font-family="Helvetica,sans-Serif" font-size="10.00">algorithm</text>
</a>
</g>
</g>
<!-- Node4&#45;&gt;Node12 -->
<g id="edge11" class="edge">
<title>Node4&#45;&gt;Node12</title>
<path fill="none" stroke="#63b8ff" d="M445.09,-54.98C469.38,-46.23 507.43,-32.51 534.85,-22.62"/>
<polygon fill="#63b8ff" stroke="#63b8ff" points="536.21,-25.85 544.43,-19.17 533.83,-19.27 536.21,-25.85"/>
</g>
<!-- Node13 -->
<g id="node13" class="node">
<title>Node13</title>
<g id="a_node13"><a xlink:title=" ">
<polygon fill="#e0e0e0" stroke="#999999" points="666.48,-19 614.48,-19 614.48,0 666.48,0 666.48,-19"/>
<text text-anchor="middle" x="640.48" y="-7" font-family="Helvetica,sans-Serif" font-size="10.00">memory</text>
</a>
</g>
</g>
<!-- Node4&#45;&gt;Node13 -->
<g id="edge12" class="edge">
<title>Node4&#45;&gt;Node13</title>
<path fill="none" stroke="#63b8ff" d="M456.75,-54.98C491.77,-46.52 547.24,-33.11 604.21,-19.31"/>
<polygon fill="#63b8ff" stroke="#63b8ff" points="605.21,-22.66 614.1,-16.91 603.56,-15.86 605.21,-22.66"/>
</g>
<!-- Node14 -->
<g id="node14" class="node">
<title>Node14</title>
<g id="a_node14"><a xlink:title=" ">
<polygon fill="#e0e0e0" stroke="#999999" points="743.98,-19 684.98,-19 684.98,0 743.98,0 743.98,-19"/>
<text text-anchor="middle" x="714.48" y="-7" font-family="Helvetica,sans-Serif" font-size="10.00">functional</text>
</a>
</g>
</g>
<!-- Node4&#45;&gt;Node14 -->
<g id="edge13" class="edge">
<title>Node4&#45;&gt;Node14</title>
<path fill="none" stroke="#63b8ff" d="M474.13,-54.92C523.37,-46.76 599.2,-33.81 674.55,-19.11"/>
<polygon fill="#63b8ff" stroke="#63b8ff" points="675.55,-22.48 684.69,-17.12 674.2,-15.61 675.55,-22.48"/>
</g>
<!-- Node15&#45;&gt;Node4 -->
<g id="edge15" class="edge">
<title>Node15&#45;&gt;Node4</title>
<path fill="none" stroke="#63b8ff" d="M458.66,-225.43C453.39,-215.69 445.09,-199.18 440.48,-184 430.01,-149.56 425.02,-107.65 422.88,-84.03"/>
<polygon fill="#63b8ff" stroke="#63b8ff" points="426.36,-83.69 422.04,-74.01 419.38,-84.27 426.36,-83.69"/>
</g>
<!-- Node15&#45;&gt;Node16 -->
<g id="edge16" class="edge">
<title>Node15&#45;&gt;Node16</title>
<path fill="none" stroke="#63b8ff" d="M424.22,-225.49C376.22,-215.1 294.98,-197.49 242.81,-186.19"/>
<polygon fill="#63b8ff" stroke="#63b8ff" points="243.3,-182.71 232.78,-184.02 241.82,-189.55 243.3,-182.71"/>
</g>
<!-- Node15&#45;&gt;Node21 -->
<g id="edge21" class="edge">
<title>Node15&#45;&gt;Node21</title>
<path fill="none" stroke="#63b8ff" d="M505.93,-225.49C558.05,-215.05 646.44,-197.35 702.82,-186.05"/>
<polygon fill="#63b8ff" stroke="#63b8ff" points="703.85,-189.41 712.97,-184.02 702.47,-182.55 703.85,-189.41"/>
</g>
<!-- Node22 -->
<g id="node20" class="node">
<title>Node22</title>
<g id="a_node20"><a xlink:title=" ">
<polygon fill="#e0e0e0" stroke="#999999" points="683.98,-184 600.98,-184 600.98,-165 683.98,-165 683.98,-184"/>
<text text-anchor="middle" x="642.48" y="-172" font-family="Helvetica,sans-Serif" font-size="10.00">unordered_map</text>
</a>
</g>
</g>
<!-- Node15&#45;&gt;Node22 -->
<g id="edge23" class="edge">
<title>Node15&#45;&gt;Node22</title>
<path fill="none" stroke="#63b8ff" d="M489.5,-225.49C520.39,-215.4 572.06,-198.51 606.69,-187.19"/>
<polygon fill="#63b8ff" stroke="#63b8ff" points="608,-190.45 616.42,-184.02 605.82,-183.8 608,-190.45"/>
</g>
<!-- Node23 -->
<g id="node21" class="node">
<title>Node23</title>
<g id="a_node21"><a xlink:title=" ">
<polygon fill="#e0e0e0" stroke="#999999" points="343.48,-184 281.48,-184 281.48,-165 343.48,-165 343.48,-184"/>
<text text-anchor="middle" x="312.48" y="-172" font-family="Helvetica,sans-Serif" font-size="10.00">filesystem</text>
</a>
</g>
</g>
<!-- Node15&#45;&gt;Node23 -->
<g id="edge24" class="edge">
<title>Node15&#45;&gt;Node23</title>
<path fill="none" stroke="#63b8ff" d="M441.52,-225.49C415.8,-215.53 373,-198.95 343.8,-187.63"/>
<polygon fill="#63b8ff" stroke="#63b8ff" points="345.05,-184.37 334.46,-184.02 342.52,-190.89 345.05,-184.37"/>
</g>
<!-- Node24 -->
<g id="node22" class="node">
<title>Node24</title>
<g id="a_node22"><a xlink:title=" ">
<polygon fill="#e0e0e0" stroke="#999999" points="393.48,-184 361.48,-184 361.48,-165 393.48,-165 393.48,-184"/>
<text text-anchor="middle" x="377.48" y="-172" font-family="Helvetica,sans-Serif" font-size="10.00">any</text>
</a>
</g>
</g>
<!-- Node15&#45;&gt;Node24 -->
<g id="edge25" class="edge">
<title>Node15&#45;&gt;Node24</title>
<path fill="none" stroke="#63b8ff" d="M450.79,-225.37C437.07,-216.04 414.97,-201.01 398.62,-189.88"/>
<polygon fill="#63b8ff" stroke="#63b8ff" points="400.45,-186.9 390.22,-184.17 396.52,-192.69 400.45,-186.9"/>
</g>
<!-- Node25 -->
<g id="node23" class="node">
<title>Node25</title>
<g id="a_node23"><a xlink:href="../../da/d4c/AnyMap_8inl_8h.html" target="_top" xlink:title=" ">
<polygon fill="white" stroke="#666666" points="582.98,-184 449.98,-184 449.98,-165 582.98,-165 582.98,-184"/>
<text text-anchor="middle" x="516.48" y="-172" font-family="Helvetica,sans-Serif" font-size="10.00">cantera/base/AnyMap.inl.h</text>
</a>
</g>
</g>
<!-- Node15&#45;&gt;Node25 -->
<g id="edge26" class="edge">
<title>Node15&#45;&gt;Node25</title>
<path fill="none" stroke="#63b8ff" d="M466.34,-225.37C472.54,-216.38 485.1,-202.11 496.26,-191.14"/>
<polygon fill="#63b8ff" stroke="#63b8ff" points="498.78,-193.57 503.66,-184.17 493.98,-188.47 498.78,-193.57"/>
</g>
<!-- Node16&#45;&gt;Node4 -->
<g id="edge17" class="edge">
<title>Node16&#45;&gt;Node4</title>
<path fill="none" stroke="#63b8ff" d="M193.45,-164.66C193.9,-150.88 196.91,-124.35 212.48,-110 232.81,-91.25 300.39,-79.24 353.26,-72.49"/>
<polygon fill="#63b8ff" stroke="#63b8ff" points="353.79,-75.95 363.28,-71.24 352.93,-69 353.79,-75.95"/>
</g>
<!-- Node17 -->
<g id="node17" class="node">
<title>Node17</title>
<g id="a_node17"><a xlink:href="../../db/def/fmt_8h.html" target="_top" xlink:title="Wrapper for either system&#45;installed or local headers for fmt.">
<polygon fill="#fff0f0" stroke="red" points="117.48,-129 19.48,-129 19.48,-110 117.48,-110 117.48,-129"/>
<text text-anchor="middle" x="68.48" y="-117" font-family="Helvetica,sans-Serif" font-size="10.00">cantera/base/fmt.h</text>
</a>
</g>
</g>
<!-- Node16&#45;&gt;Node17 -->
<g id="edge18" class="edge">
<title>Node16&#45;&gt;Node17</title>
<path fill="none" stroke="#63b8ff" d="M173.39,-164.98C153.1,-156.38 121.52,-142.99 98.3,-133.15"/>
<polygon fill="#63b8ff" stroke="#63b8ff" points="99.5,-129.85 88.92,-129.17 96.76,-136.3 99.5,-129.85"/>
</g>
<!-- Node20 -->
<g id="node18" class="node">
<title>Node20</title>
<g id="a_node18"><a xlink:title=" ">
<polygon fill="#e0e0e0" stroke="#999999" points="280.98,-129 221.98,-129 221.98,-110 280.98,-110 280.98,-129"/>
<text text-anchor="middle" x="251.48" y="-117" font-family="Helvetica,sans-Serif" font-size="10.00">exception</text>
</a>
</g>
</g>
<!-- Node16&#45;&gt;Node20 -->
<g id="edge20" class="edge">
<title>Node16&#45;&gt;Node20</title>
<path fill="none" stroke="#63b8ff" d="M202.79,-164.98C211.28,-157.23 224.03,-145.58 234.36,-136.14"/>
<polygon fill="#63b8ff" stroke="#63b8ff" points="236.97,-138.5 241.99,-129.17 232.24,-133.33 236.97,-138.5"/>
</g>
<!-- Node17&#45;&gt;Node4 -->
<g id="edge19" class="edge">
<title>Node17&#45;&gt;Node4</title>
<path fill="none" stroke="#63b8ff" d="M117.56,-111.13C179.31,-101.86 285.62,-85.9 354.72,-75.52"/>
<polygon fill="#63b8ff" stroke="#63b8ff" points="355.27,-78.98 364.64,-74.03 354.23,-72.06 355.27,-78.98"/>
</g>
<!-- Node21&#45;&gt;Node4 -->
<g id="edge22" class="edge">
<title>Node21&#45;&gt;Node4</title>
<path fill="none" stroke="#63b8ff" d="M728.99,-164.94C669.55,-145.72 525.47,-99.13 457.77,-77.24"/>
<polygon fill="#63b8ff" stroke="#63b8ff" points="458.56,-73.81 447.97,-74.07 456.4,-80.47 458.56,-73.81"/>
</g>
<!-- Node25&#45;&gt;Node15 -->
<g id="edge27" class="edge">
<title>Node25&#45;&gt;Node15</title>
<path fill="none" stroke="#63b8ff" d="M513.59,-184.17C507.37,-193.17 494.8,-207.44 483.65,-218.41"/>
<polygon fill="#63b8ff" stroke="#63b8ff" points="481.14,-215.97 476.25,-225.37 485.93,-221.07 481.14,-215.97"/>
</g>
<!-- Node26&#45;&gt;Node4 -->
<g id="edge30" class="edge">
<title>Node26&#45;&gt;Node4</title>
<path fill="none" stroke="#63b8ff" d="M48.87,-225.38C28.05,-203.51 -21.05,-145.12 10.48,-110 32.91,-85.01 242.21,-72.77 353.16,-68"/>
<polygon fill="#63b8ff" stroke="#63b8ff" points="353.41,-71.49 363.26,-67.58 353.12,-64.5 353.41,-71.49"/>
</g>
<!-- Node26&#45;&gt;Node17 -->
<g id="edge31" class="edge">
<title>Node26&#45;&gt;Node17</title>
<path fill="none" stroke="#63b8ff" d="M58.3,-225.47C60.07,-207.23 64.25,-164.07 66.67,-139.14"/>
<polygon fill="#63b8ff" stroke="#63b8ff" points="70.16,-139.42 67.64,-129.13 63.19,-138.75 70.16,-139.42"/>
</g>
<!-- Node27&#45;&gt;Node4 -->
<g id="edge34" class="edge">
<title>Node27&#45;&gt;Node4</title>
<path fill="none" stroke="#63b8ff" d="M156.11,-219.92C129.8,-207.85 101.76,-188.67 114.48,-165 135.41,-126.01 156.56,-126.85 197.48,-110 247.41,-89.44 307.61,-78.16 353.03,-72.1"/>
<polygon fill="#63b8ff" stroke="#63b8ff" points="353.59,-75.56 363.07,-70.82 352.7,-68.62 353.59,-75.56"/>
</g>
<!-- Node27&#45;&gt;Node16 -->
<g id="edge35" class="edge">
<title>Node27&#45;&gt;Node16</title>
<path fill="none" stroke="#63b8ff" d="M194.23,-219.84C194.1,-212.21 193.94,-202.7 193.8,-194.45"/>
<polygon fill="#63b8ff" stroke="#63b8ff" points="197.3,-194.2 193.63,-184.27 190.3,-194.32 197.3,-194.2"/>
</g>
<!-- Node28&#45;&gt;Node2 -->
<g id="edge37" class="edge">
<title>Node28&#45;&gt;Node2</title>
<path fill="none" stroke="#63b8ff" d="M568.65,-351.87C552.76,-343.71 528.37,-331.2 508.01,-320.75"/>
<polygon fill="#63b8ff" stroke="#63b8ff" points="509.48,-317.57 498.98,-316.11 506.28,-323.79 509.48,-317.57"/>
</g>
<!-- Node28&#45;&gt;Node3 -->
<g id="edge38" class="edge">
<title>Node28&#45;&gt;Node3</title>
<path fill="none" stroke="#63b8ff" d="M588.16,-351.94C594.42,-331.95 610.12,-281.82 618.69,-254.48"/>
<polygon fill="#63b8ff" stroke="#63b8ff" points="622.13,-255.21 621.78,-244.62 615.45,-253.11 622.13,-255.21"/>
</g>
<!-- Node29 -->
<g id="node27" class="node">
<title>Node29</title>
<g id="a_node27"><a xlink:href="../../de/df0/utilities_8h.html" target="_top" xlink:title="Various templated functions that carry out common vector operations (see Templated Utility Functions)...">
<polygon fill="white" stroke="#666666" points="780.98,-310.5 665.98,-310.5 665.98,-291.5 780.98,-291.5 780.98,-310.5"/>
<text text-anchor="middle" x="723.48" y="-298.5" font-family="Helvetica,sans-Serif" font-size="10.00">cantera/base/utilities.h</text>
</a>
</g>
</g>
<!-- Node28&#45;&gt;Node29 -->
<g id="edge39" class="edge">
<title>Node28&#45;&gt;Node29</title>
<path fill="none" stroke="#63b8ff" d="M605.54,-351.99C628.84,-342.12 667.49,-325.73 694.15,-314.43"/>
<polygon fill="#63b8ff" stroke="#63b8ff" points="695.54,-317.64 703.38,-310.52 692.81,-311.2 695.54,-317.64"/>
</g>
<!-- Node29&#45;&gt;Node4 -->
<g id="edge40" class="edge">
<title>Node29&#45;&gt;Node4</title>
<path fill="none" stroke="#63b8ff" d="M740.32,-291.49C777.9,-271.32 863.01,-218.28 833.48,-165 811.12,-124.66 788.84,-125.71 745.48,-110 660.81,-79.33 556.68,-69.58 489.71,-66.6"/>
<polygon fill="#63b8ff" stroke="#63b8ff" points="489.83,-63.11 479.7,-66.2 489.55,-70.1 489.83,-63.11"/>
</g>
<!-- Node30 -->
<g id="node28" class="node">
<title>Node30</title>
<g id="a_node28"><a xlink:title=" ">
<polygon fill="#e0e0e0" stroke="#999999" points="748.98,-244.5 697.98,-244.5 697.98,-225.5 748.98,-225.5 748.98,-244.5"/>
<text text-anchor="middle" x="723.48" y="-232.5" font-family="Helvetica,sans-Serif" font-size="10.00">numeric</text>
</a>
</g>
</g>
<!-- Node29&#45;&gt;Node30 -->
<g id="edge41" class="edge">
<title>Node29&#45;&gt;Node30</title>
<path fill="none" stroke="#63b8ff" d="M723.48,-291.37C723.48,-282.16 723.48,-267.29 723.48,-255.27"/>
<polygon fill="#63b8ff" stroke="#63b8ff" points="726.98,-254.91 723.48,-244.91 719.98,-254.91 726.98,-254.91"/>
</g>
<!-- Node31&#45;&gt;Node4 -->
<g id="edge43" class="edge">
<title>Node31&#45;&gt;Node4</title>
<path fill="none" stroke="#63b8ff" d="M847.41,-351.95C868.01,-333.2 913.48,-286.14 913.48,-236 913.48,-236 913.48,-236 913.48,-173.5 913.48,-87.84 625.38,-70.04 490.1,-66.4"/>
<polygon fill="#63b8ff" stroke="#63b8ff" points="489.93,-62.89 479.85,-66.14 489.76,-69.89 489.93,-62.89"/>
</g>
<!-- Node32 -->
<g id="node30" class="node">
<title>Node32</title>
<g id="a_node30"><a xlink:title=" ">
<polygon fill="#e0e0e0" stroke="#999999" points="864.48,-310.5 810.48,-310.5 810.48,-291.5 864.48,-291.5 864.48,-310.5"/>
<text text-anchor="middle" x="837.48" y="-298.5" font-family="Helvetica,sans-Serif" font-size="10.00">iostream</text>
</a>
</g>
</g>
<!-- Node31&#45;&gt;Node32 -->
<g id="edge44" class="edge">
<title>Node31&#45;&gt;Node32</title>
<path fill="none" stroke="#63b8ff" d="M837.48,-351.87C837.48,-343.75 837.48,-331.31 837.48,-320.89"/>
<polygon fill="#63b8ff" stroke="#63b8ff" points="840.98,-320.67 837.48,-310.67 833.98,-320.67 840.98,-320.67"/>
</g>
</g>
</svg>
        <g id="navigator" transform="translate(0 0)" fill="#404254">
                <rect fill="#f2f5e9" fill-opacity="0.5" stroke="#606060" stroke-width=".5" x="0" y="0" width="60" height="60"/>
                <use id="zoomplus" xlink:href="#zoomPlus" x="17" y="9" onmousedown="handleZoom(evt,'in')"/>
                <use id="zoomminus" xlink:href="#zoomMin" x="42" y="9" onmousedown="handleZoom(evt,'out')"/>
                <use id="reset" xlink:href="#resetDef" x="30" y="36" onmousedown="handleReset()"/>
                <g id="arrowUp" xlink:href="#dirArrow" transform="translate(30 24)" onmousedown="handlePan(0,-1)">
                  <use xlink:href="#rim" fill="#404040">
                        <set attributeName="fill" to="#808080" begin="arrowUp.mouseover" end="arrowUp.mouseout"/>
                  </use>
                  <path fill="none" stroke="white" stroke-width="1.5" d="M0,-3.0v7 M-2.5,-0.5L0,-3.0L2.5,-0.5"/>
                </g>
                <g id="arrowRight" xlink:href="#dirArrow" transform="rotate(90) translate(36 -43)" onmousedown="handlePan(1,0)">
                  <use xlink:href="#rim" fill="#404040">
                        <set attributeName="fill" to="#808080" begin="arrowRight.mouseover" end="arrowRight.mouseout"/>
                  </use>
                  <path fill="none" stroke="white" stroke-width="1.5" d="M0,-3.0v7 M-2.5,-0.5L0,-3.0L2.5,-0.5"/>
                </g>
                <g id="arrowDown" xlink:href="#dirArrow" transform="rotate(180) translate(-30 -48)" onmousedown="handlePan(0,1)">
                  <use xlink:href="#rim" fill="#404040">
                        <set attributeName="fill" to="#808080" begin="arrowDown.mouseover" end="arrowDown.mouseout"/>
                  </use>
                  <path fill="none" stroke="white" stroke-width="1.5" d="M0,-3.0v7 M-2.5,-0.5L0,-3.0L2.5,-0.5"/>
                </g>
                <g id="arrowLeft" xlink:href="#dirArrow" transform="rotate(270) translate(-36 17)" onmousedown="handlePan(-1,0)">
                  <use xlink:href="#rim" fill="#404040">
                        <set attributeName="fill" to="#808080" begin="arrowLeft.mouseover" end="arrowLeft.mouseout"/>
                  </use>
                  <path fill="none" stroke="white" stroke-width="1.5" d="M0,-3.0v7 M-2.5,-0.5L0,-3.0L2.5,-0.5"/>
                </g>
        </g>
        <svg viewBox="0 0 15 15" width="100%" height="30px" preserveAspectRatio="xMaxYMin meet">
         <g id="arrow_out" transform="scale(0.3 0.3)">
          <a xlink:href="ChebyshevRate_8h__incl_org.svg" target="_base">
           <rect id="button" ry="5" rx="5" y="6" x="6" height="38" width="38"
                fill="#f2f5e9" fill-opacity="0.5" stroke="#606060" stroke-width="1.0"/>
           <path id="arrow"
             d="M 11.500037,31.436501 C 11.940474,20.09759 22.043105,11.32322 32.158766,21.979434 L 37.068811,17.246167 C 37.068811,17.246167 37.088388,32 37.088388,32 L 22.160133,31.978069 C 22.160133,31.978069 26.997745,27.140456 26.997745,27.140456 C 18.528582,18.264221 13.291696,25.230495 11.500037,31.436501 z"
             style="fill:#404040;"/>
          </a>
         </g>
        </svg>
</svg>
