<?xml version="1.0" encoding="UTF-8" standalone="no"?>
<!DOCTYPE svg PUBLIC "-//W3C//DTD SVG 1.1//EN"
 "http://www.w3.org/Graphics/SVG/1.1/DTD/svg11.dtd">
<!-- Generated by graphviz version 6.0.1 (0)
 -->
<!-- Title: MultiNewton.cpp Pages: 1 -->
<svg width="454pt" height="302pt"
 viewBox="0.00 0.00 453.50 302.00" xmlns="http://www.w3.org/2000/svg" xmlns:xlink="http://www.w3.org/1999/xlink">

<svg id="main" version="1.1" xmlns="http://www.w3.org/2000/svg" xmlns:xlink="http://www.w3.org/1999/xlink" xml:space="preserve" onload="init(evt)">
<style type="text/css"><![CDATA[
.node, .edge {opacity: 0.7;}
.node.selected, .edge.selected {opacity: 1;}
.edge:hover path { stroke: red; }
.edge:hover polygon { stroke: red; fill: red; }
]]></style>
<script type="application/ecmascript" xlink:href="../../svg.min.js"/>
<svg id="graph" class="graph">
<g id="graph0" class="graph" transform="scale(1 1) rotate(0) translate(4 298)">
<title>MultiNewton.cpp</title>
<!-- Node1 -->
<g id="Node000001" class="node">
<title>Node1</title>
<g id="a_Node000001"><a xlink:title="Damped Newton solver for 1D multi&#45;domain problems.">
<polygon fill="#999999" stroke="#666666" points="374,-294 284,-294 284,-275 374,-275 374,-294"/>
<text text-anchor="middle" x="329" y="-282" font-family="Helvetica,sans-Serif" font-size="10.00">MultiNewton.cpp</text>
</a>
</g>
</g>
<!-- Node2 -->
<g id="Node000002" class="node">
<title>Node2</title>
<g id="a_Node000002"><a xlink:href="../../d6/d1e/MultiNewton_8h.html" target="_top" xlink:title=" ">
<polygon fill="white" stroke="#666666" points="253.5,-239 112.5,-239 112.5,-220 253.5,-220 253.5,-239"/>
<text text-anchor="middle" x="183" y="-227" font-family="Helvetica,sans-Serif" font-size="10.00">cantera/oneD/MultiNewton.h</text>
</a>
</g>
</g>
<!-- Node1&#45;&gt;Node2 -->
<g id="edge1_Node000001_Node000002" class="edge">
<title>Node1&#45;&gt;Node2</title>
<g id="a_edge1_Node000001_Node000002"><a xlink:title=" ">
<path fill="none" stroke="#63b8ff" d="M305.54,-274.98C281.42,-266.23 243.63,-252.51 216.4,-242.62"/>
<polygon fill="#63b8ff" stroke="#63b8ff" points="217.48,-239.29 206.88,-239.17 215.09,-245.87 217.48,-239.29"/>
</a>
</g>
</g>
<!-- Node26 -->
<g id="Node000026" class="node">
<title>Node26</title>
<g id="a_Node000026"><a xlink:href="../../de/df0/utilities_8h.html" target="_top" xlink:title="Various templated functions that carry out common vector and polynomial operations (see Templated Arr...">
<polygon fill="white" stroke="#666666" points="386.5,-239 271.5,-239 271.5,-220 386.5,-220 386.5,-239"/>
<text text-anchor="middle" x="329" y="-227" font-family="Helvetica,sans-Serif" font-size="10.00">cantera/base/utilities.h</text>
</a>
</g>
</g>
<!-- Node1&#45;&gt;Node26 -->
<g id="edge9_Node000001_Node000026" class="edge">
<title>Node1&#45;&gt;Node26</title>
<g id="a_edge9_Node000001_Node000026"><a xlink:title=" ">
<path fill="none" stroke="#63b8ff" d="M329,-274.75C329,-267.8 329,-257.85 329,-249.13"/>
<polygon fill="#63b8ff" stroke="#63b8ff" points="332.5,-249.09 329,-239.09 325.5,-249.09 332.5,-249.09"/>
</a>
</g>
</g>
<!-- Node28 -->
<g id="Node000028" class="node">
<title>Node28</title>
<g id="a_Node000028"><a xlink:title=" ">
<polygon fill="#e0e0e0" stroke="#999999" points="445.5,-239 404.5,-239 404.5,-220 445.5,-220 445.5,-239"/>
<text text-anchor="middle" x="425" y="-227" font-family="Helvetica,sans-Serif" font-size="10.00">ctime</text>
</a>
</g>
</g>
<!-- Node1&#45;&gt;Node28 -->
<g id="edge12_Node000001_Node000028" class="edge">
<title>Node1&#45;&gt;Node28</title>
<g id="a_edge12_Node000001_Node000028"><a xlink:title=" ">
<path fill="none" stroke="#63b8ff" d="M344.42,-274.98C359.45,-266.69 382.54,-253.94 400.16,-244.22"/>
<polygon fill="#63b8ff" stroke="#63b8ff" points="402.23,-247.07 409.3,-239.17 398.85,-240.94 402.23,-247.07"/>
</a>
</g>
</g>
<!-- Node3 -->
<g id="Node000003" class="node">
<title>Node3</title>
<g id="a_Node000003"><a xlink:href="../../d5/d60/MultiJac_8h.html" target="_top" xlink:title=" ">
<polygon fill="white" stroke="#666666" points="228,-184 166,-184 166,-165 228,-165 228,-184"/>
<text text-anchor="middle" x="197" y="-172" font-family="Helvetica,sans-Serif" font-size="10.00">MultiJac.h</text>
</a>
</g>
</g>
<!-- Node2&#45;&gt;Node3 -->
<g id="edge2_Node000002_Node000003" class="edge">
<title>Node2&#45;&gt;Node3</title>
<g id="a_edge2_Node000002_Node000003"><a xlink:title=" ">
<path fill="none" stroke="#63b8ff" d="M185.31,-219.75C187.17,-212.72 189.84,-202.62 192.15,-193.84"/>
<polygon fill="#63b8ff" stroke="#63b8ff" points="195.56,-194.65 194.73,-184.09 188.79,-192.86 195.56,-194.65"/>
</a>
</g>
</g>
<!-- Node4 -->
<g id="Node000004" class="node">
<title>Node4</title>
<g id="a_Node000004"><a xlink:href="../../de/d7e/BandMatrix_8h.html" target="_top" xlink:title="Declarations for the class BandMatrix which is a child class of GeneralMatrix for banded matrices han...">
<polygon fill="white" stroke="#666666" points="152,-129 0,-129 0,-110 152,-110 152,-129"/>
<text text-anchor="middle" x="76" y="-117" font-family="Helvetica,sans-Serif" font-size="10.00">cantera/numerics/BandMatrix.h</text>
</a>
</g>
</g>
<!-- Node3&#45;&gt;Node4 -->
<g id="edge3_Node000003_Node000004" class="edge">
<title>Node3&#45;&gt;Node4</title>
<g id="a_edge3_Node000003_Node000004"><a xlink:title=" ">
<path fill="none" stroke="#63b8ff" d="M177.56,-164.98C158.01,-156.42 127.62,-143.11 105.18,-133.28"/>
<polygon fill="#63b8ff" stroke="#63b8ff" points="106.36,-129.98 95.79,-129.17 103.55,-136.39 106.36,-129.98"/>
</a>
</g>
</g>
<!-- Node24 -->
<g id="Node000024" class="node">
<title>Node24</title>
<g id="a_Node000024"><a xlink:href="../../de/da1/OneDim_8h.html" target="_top" xlink:title=" ">
<polygon fill="white" stroke="#666666" points="231.5,-129 170.5,-129 170.5,-110 231.5,-110 231.5,-129"/>
<text text-anchor="middle" x="201" y="-117" font-family="Helvetica,sans-Serif" font-size="10.00">OneDim.h</text>
</a>
</g>
</g>
<!-- Node3&#45;&gt;Node24 -->
<g id="edge6_Node000003_Node000024" class="edge">
<title>Node3&#45;&gt;Node24</title>
<g id="a_edge6_Node000003_Node000024"><a xlink:title=" ">
<path fill="none" stroke="#63b8ff" d="M192.49,-164.75C191.53,-157.8 191.84,-147.85 193.12,-139.13"/>
<polygon fill="#63b8ff" stroke="#63b8ff" points="196.59,-139.59 195.22,-129.09 189.74,-138.16 196.59,-139.59"/>
</a>
</g>
</g>
<!-- Node5 -->
<g id="Node000005" class="node">
<title>Node5</title>
<g id="a_Node000005"><a xlink:href="../../da/d15/GeneralMatrix_8h.html" target="_top" xlink:title="Declarations for the class GeneralMatrix which is a virtual base class for matrices handled by solver...">
<polygon fill="#fff0f0" stroke="red" points="133,-74 47,-74 47,-55 133,-55 133,-74"/>
<text text-anchor="middle" x="90" y="-62" font-family="Helvetica,sans-Serif" font-size="10.00">GeneralMatrix.h</text>
</a>
</g>
</g>
<!-- Node4&#45;&gt;Node5 -->
<g id="edge4_Node000004_Node000005" class="edge">
<title>Node4&#45;&gt;Node5</title>
<g id="a_edge4_Node000004_Node000005"><a xlink:title=" ">
<path fill="none" stroke="#63b8ff" d="M78.31,-109.75C80.17,-102.72 82.84,-92.62 85.15,-83.84"/>
<polygon fill="#63b8ff" stroke="#63b8ff" points="88.56,-84.65 87.73,-74.09 81.79,-82.86 88.56,-84.65"/>
</a>
</g>
</g>
<!-- Node6 -->
<g id="Node000006" class="node">
<title>Node6</title>
<g id="a_Node000006"><a xlink:href="../../d9/ddc/ct__defs_8h.html" target="_top" xlink:title="This file contains definitions of constants, types and terms that are used in internal routines and a...">
<polygon fill="#fff0f0" stroke="red" points="228,-19 112,-19 112,0 228,0 228,-19"/>
<text text-anchor="middle" x="170" y="-7" font-family="Helvetica,sans-Serif" font-size="10.00">cantera/base/ct_defs.h</text>
</a>
</g>
</g>
<!-- Node5&#45;&gt;Node6 -->
<g id="edge5_Node000005_Node000006" class="edge">
<title>Node5&#45;&gt;Node6</title>
<g id="a_edge5_Node000005_Node000006"><a xlink:title=" ">
<path fill="none" stroke="#63b8ff" d="M102.85,-54.98C115.14,-46.84 133.91,-34.41 148.48,-24.76"/>
<polygon fill="#63b8ff" stroke="#63b8ff" points="150.51,-27.61 156.91,-19.17 146.64,-21.78 150.51,-27.61"/>
</a>
</g>
</g>
<!-- Node24&#45;&gt;Node3 -->
<g id="edge8_Node000024_Node000003" class="edge">
<title>Node24&#45;&gt;Node3</title>
<g id="a_edge8_Node000024_Node000003"><a xlink:title=" ">
<path fill="none" stroke="#63b8ff" d="M205.48,-129.09C206.48,-136.06 206.17,-146.15 204.87,-154.95"/>
<polygon fill="#63b8ff" stroke="#63b8ff" points="201.44,-154.24 202.83,-164.75 208.3,-155.67 201.44,-154.24"/>
</a>
</g>
</g>
<!-- Node25 -->
<g id="Node000025" class="node">
<title>Node25</title>
<g id="a_Node000025"><a xlink:href="../../db/dce/Domain1D_8h.html" target="_top" xlink:title=" ">
<polygon fill="#fff0f0" stroke="red" points="236.5,-74 165.5,-74 165.5,-55 236.5,-55 236.5,-74"/>
<text text-anchor="middle" x="201" y="-62" font-family="Helvetica,sans-Serif" font-size="10.00">Domain1D.h</text>
</a>
</g>
</g>
<!-- Node24&#45;&gt;Node25 -->
<g id="edge7_Node000024_Node000025" class="edge">
<title>Node24&#45;&gt;Node25</title>
<g id="a_edge7_Node000024_Node000025"><a xlink:title=" ">
<path fill="none" stroke="#63b8ff" d="M201,-109.75C201,-102.8 201,-92.85 201,-84.13"/>
<polygon fill="#63b8ff" stroke="#63b8ff" points="204.5,-84.09 201,-74.09 197.5,-84.09 204.5,-84.09"/>
</a>
</g>
</g>
<!-- Node26&#45;&gt;Node6 -->
<g id="edge10_Node000026_Node000006" class="edge">
<title>Node26&#45;&gt;Node6</title>
<g id="a_edge10_Node000026_Node000006"><a xlink:title=" ">
<path fill="none" stroke="#63b8ff" d="M321.15,-219.83C313.67,-211.23 302.47,-197.42 295,-184 265.18,-130.41 285.61,-101.83 246,-55 234.42,-41.31 217.49,-30.82 202.55,-23.47"/>
<polygon fill="#63b8ff" stroke="#63b8ff" points="203.64,-20.12 193.1,-19.1 200.7,-26.47 203.64,-20.12"/>
</a>
</g>
</g>
<!-- Node27 -->
<g id="Node000027" class="node">
<title>Node27</title>
<g id="a_Node000027"><a xlink:title=" ">
<polygon fill="#e0e0e0" stroke="#999999" points="354.5,-184 303.5,-184 303.5,-165 354.5,-165 354.5,-184"/>
<text text-anchor="middle" x="329" y="-172" font-family="Helvetica,sans-Serif" font-size="10.00">numeric</text>
</a>
</g>
</g>
<!-- Node26&#45;&gt;Node27 -->
<g id="edge11_Node000026_Node000027" class="edge">
<title>Node26&#45;&gt;Node27</title>
<g id="a_edge11_Node000026_Node000027"><a xlink:title=" ">
<path fill="none" stroke="#63b8ff" d="M329,-219.75C329,-212.8 329,-202.85 329,-194.13"/>
<polygon fill="#63b8ff" stroke="#63b8ff" points="332.5,-194.09 329,-184.09 325.5,-194.09 332.5,-194.09"/>
</a>
</g>
</g>
</g>
</svg>
</svg>

<style type='text/css'>
<![CDATA[
[data-mouse-over-selected='false'] { opacity: 0.7; }
[data-mouse-over-selected='true']  { opacity: 1.0; }
]]>
</style>
<script type="application/ecmascript"><![CDATA[
document.addEventListener('DOMContentLoaded', (event) => {
  highlightEdges();
  highlightAdjacentNodes();
});
]]></script>
</svg>
