<?xml version="1.0" encoding="UTF-8" standalone="no"?>
<!DOCTYPE svg PUBLIC "-//W3C//DTD SVG 1.1//EN"
 "http://www.w3.org/Graphics/SVG/1.1/DTD/svg11.dtd">
<!-- Generated by graphviz version 2.50.0 (0)
 -->
<!-- Title: GasTransport.h Pages: 1 -->
<svg width="742pt" height="196pt"
 viewBox="0.00 0.00 741.50 196.00" xmlns="http://www.w3.org/2000/svg" xmlns:xlink="http://www.w3.org/1999/xlink">
<g id="graph0" class="graph" transform="scale(1 1) rotate(0) translate(4 192)">
<title>GasTransport.h</title>
<polygon fill="white" stroke="transparent" points="-4,4 -4,-192 737.5,-192 737.5,4 -4,4"/>
<!-- Node1 -->
<g id="node1" class="node">
<title>Node1</title>
<g id="a_node1"><a xlink:title=" ">
<polygon fill="#bfbfbf" stroke="black" points="131.5,-168.5 131.5,-187.5 215.5,-187.5 215.5,-168.5 131.5,-168.5"/>
<text text-anchor="middle" x="173.5" y="-175.5" font-family="Helvetica,sans-Serif" font-size="10.00">GasTransport.h</text>
</a>
</g>
</g>
<!-- Node2 -->
<g id="node2" class="node">
<title>Node2</title>
<g id="a_node2"><a xlink:href="../../d5/de4/GasTransport_8cpp.html" target="_top" xlink:title=" ">
<polygon fill="white" stroke="black" points="14,-112.5 14,-131.5 109,-131.5 109,-112.5 14,-112.5"/>
<text text-anchor="middle" x="61.5" y="-119.5" font-family="Helvetica,sans-Serif" font-size="10.00">GasTransport.cpp</text>
</a>
</g>
</g>
<!-- Node1&#45;&gt;Node2 -->
<g id="edge1" class="edge">
<title>Node1&#45;&gt;Node2</title>
<path fill="none" stroke="midnightblue" d="M146.25,-163.86C125.48,-153.85 97.48,-140.35 79.45,-131.65"/>
<polygon fill="midnightblue" stroke="midnightblue" points="144.98,-167.13 155.51,-168.32 148.02,-160.83 144.98,-167.13"/>
</g>
<!-- Node3 -->
<g id="node3" class="node">
<title>Node3</title>
<g id="a_node3"><a xlink:href="../../d0/de4/HighPressureGasTransport_8h.html" target="_top" xlink:title="Interface for class HighPressureGasTransport.">
<polygon fill="white" stroke="black" points="0,-56.5 0,-75.5 143,-75.5 143,-56.5 0,-56.5"/>
<text text-anchor="middle" x="71.5" y="-63.5" font-family="Helvetica,sans-Serif" font-size="10.00">HighPressureGasTransport.h</text>
</a>
</g>
</g>
<!-- Node1&#45;&gt;Node3 -->
<g id="edge2" class="edge">
<title>Node1&#45;&gt;Node3</title>
<path fill="none" stroke="midnightblue" d="M159.99,-160.54C148.87,-147.2 132.55,-128.04 117.5,-112 105.27,-98.97 90.36,-84.65 80.89,-75.74"/>
<polygon fill="midnightblue" stroke="midnightblue" points="157.4,-162.91 166.48,-168.38 162.8,-158.45 157.4,-162.91"/>
</g>
<!-- Node6 -->
<g id="node6" class="node">
<title>Node6</title>
<g id="a_node6"><a xlink:href="../../d5/d57/MixTransport_8h.html" target="_top" xlink:title="Headers for the MixTransport object, which models transport properties in ideal gas solutions using a...">
<polygon fill="white" stroke="black" points="456.5,-112.5 456.5,-131.5 538.5,-131.5 538.5,-112.5 456.5,-112.5"/>
<text text-anchor="middle" x="497.5" y="-119.5" font-family="Helvetica,sans-Serif" font-size="10.00">MixTransport.h</text>
</a>
</g>
</g>
<!-- Node1&#45;&gt;Node6 -->
<g id="edge5" class="edge">
<title>Node1&#45;&gt;Node6</title>
<path fill="none" stroke="midnightblue" d="M225.44,-168.34C289.62,-157.65 397.54,-139.66 456.32,-129.86"/>
<polygon fill="midnightblue" stroke="midnightblue" points="224.81,-164.9 215.53,-170 225.96,-171.8 224.81,-164.9"/>
</g>
<!-- Node11 -->
<g id="node11" class="node">
<title>Node11</title>
<g id="a_node11"><a xlink:href="../../da/dd1/MultiTransport_8h.html" target="_top" xlink:title="Interface for class MultiTransport.">
<polygon fill="white" stroke="black" points="166,-112.5 166,-131.5 253,-131.5 253,-112.5 166,-112.5"/>
<text text-anchor="middle" x="209.5" y="-119.5" font-family="Helvetica,sans-Serif" font-size="10.00">MultiTransport.h</text>
</a>
</g>
</g>
<!-- Node1&#45;&gt;Node11 -->
<g id="edge13" class="edge">
<title>Node1&#45;&gt;Node11</title>
<path fill="none" stroke="midnightblue" d="M185.12,-159.57C191.32,-150.27 198.67,-139.25 203.67,-131.75"/>
<polygon fill="midnightblue" stroke="midnightblue" points="182.08,-157.82 179.44,-168.08 187.9,-161.7 182.08,-157.82"/>
</g>
<!-- Node4 -->
<g id="node4" class="node">
<title>Node4</title>
<g id="a_node4"><a xlink:href="../../d2/d89/HighPressureGasTransport_8cpp.html" target="_top" xlink:title="Implementation file for class HighPressureGasTransport.">
<polygon fill="white" stroke="black" points="44.5,-0.5 44.5,-19.5 198.5,-19.5 198.5,-0.5 44.5,-0.5"/>
<text text-anchor="middle" x="121.5" y="-7.5" font-family="Helvetica,sans-Serif" font-size="10.00">HighPressureGasTransport.cpp</text>
</a>
</g>
</g>
<!-- Node3&#45;&gt;Node4 -->
<g id="edge3" class="edge">
<title>Node3&#45;&gt;Node4</title>
<path fill="none" stroke="midnightblue" d="M86.58,-48.72C95.39,-39.2 106.17,-27.56 113.4,-19.75"/>
<polygon fill="midnightblue" stroke="midnightblue" points="83.98,-46.37 79.76,-56.08 89.12,-51.12 83.98,-46.37"/>
</g>
<!-- Node5 -->
<g id="node5" class="node">
<title>Node5</title>
<g id="a_node5"><a xlink:href="../../d2/d33/TransportFactory_8cpp.html" target="_top" xlink:title="Implementation file for class TransportFactory.">
<polygon fill="white" stroke="black" points="357.5,-0.5 357.5,-19.5 465.5,-19.5 465.5,-0.5 357.5,-0.5"/>
<text text-anchor="middle" x="411.5" y="-7.5" font-family="Helvetica,sans-Serif" font-size="10.00">TransportFactory.cpp</text>
</a>
</g>
</g>
<!-- Node3&#45;&gt;Node5 -->
<g id="edge4" class="edge">
<title>Node3&#45;&gt;Node5</title>
<path fill="none" stroke="midnightblue" d="M135.38,-54.85C199.62,-44.65 297.55,-29.1 357.88,-19.52"/>
<polygon fill="midnightblue" stroke="midnightblue" points="134.7,-51.42 125.37,-56.44 135.8,-58.33 134.7,-51.42"/>
</g>
<!-- Node6&#45;&gt;Node5 -->
<g id="edge10" class="edge">
<title>Node6&#45;&gt;Node5</title>
<path fill="none" stroke="midnightblue" d="M495.06,-101.89C492.53,-88.07 487.46,-69.51 477.5,-56 465.4,-39.59 445.43,-27.19 430.63,-19.6"/>
<polygon fill="midnightblue" stroke="midnightblue" points="491.67,-102.83 496.65,-112.18 498.59,-101.76 491.67,-102.83"/>
</g>
<!-- Node7 -->
<g id="node7" class="node">
<title>Node7</title>
<g id="a_node7"><a xlink:href="../../d8/d57/IonGasTransport_8h.html" target="_top" xlink:title=" ">
<polygon fill="white" stroke="black" points="525.5,-56.5 525.5,-75.5 623.5,-75.5 623.5,-56.5 525.5,-56.5"/>
<text text-anchor="middle" x="574.5" y="-63.5" font-family="Helvetica,sans-Serif" font-size="10.00">IonGasTransport.h</text>
</a>
</g>
</g>
<!-- Node6&#45;&gt;Node7 -->
<g id="edge6" class="edge">
<title>Node6&#45;&gt;Node7</title>
<path fill="none" stroke="midnightblue" d="M518.4,-106.34C532.41,-96.52 550.38,-83.91 562.16,-75.65"/>
<polygon fill="midnightblue" stroke="midnightblue" points="516.05,-103.72 509.87,-112.32 520.07,-109.45 516.05,-103.72"/>
</g>
<!-- Node9 -->
<g id="node9" class="node">
<title>Node9</title>
<g id="a_node9"><a xlink:href="../../dd/d16/MixTransport_8cpp.html" target="_top" xlink:title="Mixture&#45;averaged transport properties for ideal gas mixtures.">
<polygon fill="white" stroke="black" points="641.5,-56.5 641.5,-75.5 733.5,-75.5 733.5,-56.5 641.5,-56.5"/>
<text text-anchor="middle" x="687.5" y="-63.5" font-family="Helvetica,sans-Serif" font-size="10.00">MixTransport.cpp</text>
</a>
</g>
</g>
<!-- Node6&#45;&gt;Node9 -->
<g id="edge9" class="edge">
<title>Node6&#45;&gt;Node9</title>
<path fill="none" stroke="midnightblue" d="M537.26,-109.7C573.12,-99.51 625.07,-84.74 657.53,-75.52"/>
<polygon fill="midnightblue" stroke="midnightblue" points="536.27,-106.34 527.61,-112.44 538.18,-113.08 536.27,-106.34"/>
</g>
<!-- Node10 -->
<g id="node10" class="node">
<title>Node10</title>
<g id="a_node10"><a xlink:href="../../db/d48/UnityLewisTransport_8h.html" target="_top" xlink:title="Headers for the UnityLewisTransport object, which models transport properties in ideal gas solutions ...">
<polygon fill="white" stroke="black" points="354,-56.5 354,-75.5 469,-75.5 469,-56.5 354,-56.5"/>
<text text-anchor="middle" x="411.5" y="-63.5" font-family="Helvetica,sans-Serif" font-size="10.00">UnityLewisTransport.h</text>
</a>
</g>
</g>
<!-- Node6&#45;&gt;Node10 -->
<g id="edge11" class="edge">
<title>Node6&#45;&gt;Node10</title>
<path fill="none" stroke="midnightblue" d="M475.05,-106.9C459.28,-97 438.69,-84.07 425.28,-75.65"/>
<polygon fill="midnightblue" stroke="midnightblue" points="473.35,-109.97 483.68,-112.32 477.07,-104.04 473.35,-109.97"/>
</g>
<!-- Node7&#45;&gt;Node5 -->
<g id="edge8" class="edge">
<title>Node7&#45;&gt;Node5</title>
<path fill="none" stroke="midnightblue" d="M538.8,-53.17C508.1,-43 464.58,-28.59 437.21,-19.52"/>
<polygon fill="midnightblue" stroke="midnightblue" points="538.08,-56.62 548.67,-56.44 540.28,-49.98 538.08,-56.62"/>
</g>
<!-- Node8 -->
<g id="node8" class="node">
<title>Node8</title>
<g id="a_node8"><a xlink:href="../../d2/dc5/IonGasTransport_8cpp.html" target="_top" xlink:title=" ">
<polygon fill="white" stroke="black" points="520.5,-0.5 520.5,-19.5 628.5,-19.5 628.5,-0.5 520.5,-0.5"/>
<text text-anchor="middle" x="574.5" y="-7.5" font-family="Helvetica,sans-Serif" font-size="10.00">IonGasTransport.cpp</text>
</a>
</g>
</g>
<!-- Node7&#45;&gt;Node8 -->
<g id="edge7" class="edge">
<title>Node7&#45;&gt;Node8</title>
<path fill="none" stroke="midnightblue" d="M574.5,-45.8C574.5,-36.91 574.5,-26.78 574.5,-19.75"/>
<polygon fill="midnightblue" stroke="midnightblue" points="571,-46.08 574.5,-56.08 578,-46.08 571,-46.08"/>
</g>
<!-- Node10&#45;&gt;Node5 -->
<g id="edge12" class="edge">
<title>Node10&#45;&gt;Node5</title>
<path fill="none" stroke="midnightblue" d="M411.5,-45.8C411.5,-36.91 411.5,-26.78 411.5,-19.75"/>
<polygon fill="midnightblue" stroke="midnightblue" points="408,-46.08 411.5,-56.08 415,-46.08 408,-46.08"/>
</g>
<!-- Node11&#45;&gt;Node3 -->
<g id="edge15" class="edge">
<title>Node11&#45;&gt;Node3</title>
<path fill="none" stroke="midnightblue" d="M178.25,-108.77C152.33,-98.63 116.14,-84.47 93.26,-75.52"/>
<polygon fill="midnightblue" stroke="midnightblue" points="177.05,-112.06 187.63,-112.44 179.6,-105.54 177.05,-112.06"/>
</g>
<!-- Node11&#45;&gt;Node4 -->
<g id="edge14" class="edge">
<title>Node11&#45;&gt;Node4</title>
<path fill="none" stroke="midnightblue" d="M196.12,-104.27C177.1,-80.49 142.93,-37.79 128.37,-19.59"/>
<polygon fill="midnightblue" stroke="midnightblue" points="193.61,-106.75 202.59,-112.37 199.08,-102.37 193.61,-106.75"/>
</g>
<!-- Node11&#45;&gt;Node5 -->
<g id="edge17" class="edge">
<title>Node11&#45;&gt;Node5</title>
<path fill="none" stroke="midnightblue" d="M239.17,-108.34C258.61,-99.78 284.41,-87.9 306.5,-76 340.85,-57.49 379.43,-32.44 398.86,-19.51"/>
<polygon fill="midnightblue" stroke="midnightblue" points="237.68,-105.18 229.91,-112.38 240.48,-111.59 237.68,-105.18"/>
</g>
<!-- Node12 -->
<g id="node12" class="node">
<title>Node12</title>
<g id="a_node12"><a xlink:href="../../d2/d60/MultiTransport_8cpp.html" target="_top" xlink:title="Implementation file for class MultiTransport.">
<polygon fill="white" stroke="black" points="199.5,-56.5 199.5,-75.5 297.5,-75.5 297.5,-56.5 199.5,-56.5"/>
<text text-anchor="middle" x="248.5" y="-63.5" font-family="Helvetica,sans-Serif" font-size="10.00">MultiTransport.cpp</text>
</a>
</g>
</g>
<!-- Node11&#45;&gt;Node12 -->
<g id="edge16" class="edge">
<title>Node11&#45;&gt;Node12</title>
<path fill="none" stroke="midnightblue" d="M221.88,-103.86C228.64,-94.5 236.71,-83.33 242.18,-75.75"/>
<polygon fill="midnightblue" stroke="midnightblue" points="218.96,-101.93 215.94,-112.08 224.63,-106.03 218.96,-101.93"/>
</g>
</g>
</svg>
