<?xml version="1.0" encoding="UTF-8" standalone="no"?>
<!DOCTYPE svg PUBLIC "-//W3C//DTD SVG 1.1//EN"
 "http://www.w3.org/Graphics/SVG/1.1/DTD/svg11.dtd">
<!-- Generated by graphviz version 6.0.1 (0)
 -->
<!-- Title: CoverageDependentSurfPhase.cpp Pages: 1 -->
<svg width="946pt" height="423pt"
 viewBox="0.00 0.00 945.50 423.00" xmlns="http://www.w3.org/2000/svg" xmlns:xlink="http://www.w3.org/1999/xlink">
<g id="graph0" class="graph" transform="scale(1 1) rotate(0) translate(4 419)">
<title>CoverageDependentSurfPhase.cpp</title>
<!-- Node1 -->
<g id="node1" class="node">
<title>Node1</title>
<g id="a_node1"><a xlink:title="Definitions for a thermodynamics model of a coverage&#45;dependent surface phase derived from SurfPhase,...">
<polygon fill="#999999" stroke="#666666" points="641,-415 471,-415 471,-396 641,-396 641,-415"/>
<text text-anchor="middle" x="556" y="-403" font-family="Helvetica,sans-Serif" font-size="10.00">CoverageDependentSurfPhase.cpp</text>
</a>
</g>
</g>
<!-- Node2 -->
<g id="node2" class="node">
<title>Node2</title>
<g id="a_node2"><a xlink:href="../../db/dda/CoverageDependentSurfPhase_8h.html" target="_top" xlink:title="Header for a thermodynamics model of a coverage&#45;dependent surface phase derived from SurfPhase,...">
<polygon fill="white" stroke="#666666" points="509,-360 335,-360 335,-330 509,-330 509,-360"/>
<text text-anchor="start" x="343" y="-348" font-family="Helvetica,sans-Serif" font-size="10.00">cantera/thermo/CoverageDependent</text>
<text text-anchor="middle" x="422" y="-337" font-family="Helvetica,sans-Serif" font-size="10.00">SurfPhase.h</text>
</a>
</g>
</g>
<!-- Node1&#45;&gt;Node2 -->
<g id="edge1" class="edge">
<title>Node1&#45;&gt;Node2</title>
<path fill="none" stroke="#63b8ff" d="M536.52,-395.99C517.48,-387.68 487.91,-374.78 463.59,-364.16"/>
<polygon fill="#63b8ff" stroke="#63b8ff" points="464.78,-360.86 454.22,-360.06 461.98,-367.27 464.78,-360.86"/>
</g>
<!-- Node3 -->
<g id="node3" class="node">
<title>Node3</title>
<g id="a_node3"><a xlink:href="../../d2/de5/SurfPhase_8h.html" target="_top" xlink:title="Header for a simple thermodynamics model of a surface phase derived from ThermoPhase,...">
<polygon fill="white" stroke="#666666" points="467.5,-294 396.5,-294 396.5,-275 467.5,-275 467.5,-294"/>
<text text-anchor="middle" x="432" y="-282" font-family="Helvetica,sans-Serif" font-size="10.00">SurfPhase.h</text>
</a>
</g>
</g>
<!-- Node1&#45;&gt;Node3 -->
<g id="edge20" class="edge">
<title>Node1&#45;&gt;Node3</title>
<path fill="none" stroke="#63b8ff" d="M553.45,-395.62C548.72,-380.46 537.25,-349.36 518,-330 503.93,-315.85 484.42,-305.25 467.54,-297.96"/>
<polygon fill="#63b8ff" stroke="#63b8ff" points="468.54,-294.59 457.96,-294.04 465.89,-301.07 468.54,-294.59"/>
</g>
<!-- Node35 -->
<g id="node15" class="node">
<title>Node35</title>
<g id="a_node15"><a xlink:href="../../dc/d8e/ThermoFactory_8h.html" target="_top" xlink:title="Headers for the factory class that can create known ThermoPhase objects (see Thermodynamic Properties...">
<polygon fill="white" stroke="#666666" points="654,-294 496,-294 496,-275 654,-275 654,-294"/>
<text text-anchor="middle" x="575" y="-282" font-family="Helvetica,sans-Serif" font-size="10.00">cantera/thermo/ThermoFactory.h</text>
</a>
</g>
</g>
<!-- Node1&#45;&gt;Node35 -->
<g id="edge21" class="edge">
<title>Node1&#45;&gt;Node35</title>
<path fill="none" stroke="#63b8ff" d="M557.37,-395.94C560.41,-376.91 567.78,-330.69 571.97,-304.47"/>
<polygon fill="#63b8ff" stroke="#63b8ff" points="575.47,-304.73 573.59,-294.3 568.56,-303.62 575.47,-304.73"/>
</g>
<!-- Node39 -->
<g id="node19" class="node">
<title>Node39</title>
<g id="a_node19"><a xlink:href="../../dd/dc3/stringUtils_8h.html" target="_top" xlink:title="Contains declarations for string manipulation functions within Cantera.">
<polygon fill="white" stroke="#666666" points="788,-74 660,-74 660,-55 788,-55 788,-74"/>
<text text-anchor="middle" x="724" y="-62" font-family="Helvetica,sans-Serif" font-size="10.00">cantera/base/stringUtils.h</text>
</a>
</g>
</g>
<!-- Node1&#45;&gt;Node39 -->
<g id="edge30" class="edge">
<title>Node1&#45;&gt;Node39</title>
<path fill="none" stroke="#63b8ff" d="M641.25,-396.42C709.54,-384.69 794,-355.95 794,-285.5 794,-285.5 794,-285.5 794,-173.5 794,-144.04 790.95,-134.77 775,-110 767.45,-98.27 755.93,-87.84 745.75,-80.04"/>
<polygon fill="#63b8ff" stroke="#63b8ff" points="747.77,-77.18 737.62,-74.13 743.65,-82.84 747.77,-77.18"/>
</g>
<!-- Node40 -->
<g id="node20" class="node">
<title>Node40</title>
<g id="a_node20"><a xlink:href="../../de/df0/utilities_8h.html" target="_top" xlink:title="Various templated functions that carry out common vector operations (see Templated Utility Functions)...">
<polygon fill="white" stroke="#666666" points="937.5,-354.5 822.5,-354.5 822.5,-335.5 937.5,-335.5 937.5,-354.5"/>
<text text-anchor="middle" x="880" y="-342.5" font-family="Helvetica,sans-Serif" font-size="10.00">cantera/base/utilities.h</text>
</a>
</g>
</g>
<!-- Node1&#45;&gt;Node40 -->
<g id="edge32" class="edge">
<title>Node1&#45;&gt;Node40</title>
<path fill="none" stroke="#63b8ff" d="M605.77,-395.97C656.64,-387.19 737.89,-373.01 808,-360 814.08,-358.87 820.44,-357.67 826.77,-356.46"/>
<polygon fill="#63b8ff" stroke="#63b8ff" points="827.46,-359.89 836.62,-354.56 826.14,-353.01 827.46,-359.89"/>
</g>
<!-- Node42 -->
<g id="node22" class="node">
<title>Node42</title>
<g id="a_node22"><a xlink:href="../../d7/dd9/Species_8h.html" target="_top" xlink:title="Declaration for class Cantera::Species.">
<polygon fill="white" stroke="#666666" points="128,-239 0,-239 0,-220 128,-220 128,-239"/>
<text text-anchor="middle" x="64" y="-227" font-family="Helvetica,sans-Serif" font-size="10.00">cantera/thermo/Species.h</text>
</a>
</g>
</g>
<!-- Node1&#45;&gt;Node42 -->
<g id="edge35" class="edge">
<title>Node1&#45;&gt;Node42</title>
<path fill="none" stroke="#63b8ff" d="M486.32,-395.98C440.05,-389.12 378.42,-377.67 326,-360 233.05,-328.67 131.08,-270.81 86.71,-244.36"/>
<polygon fill="#63b8ff" stroke="#63b8ff" points="88.28,-241.21 77.91,-239.06 84.67,-247.21 88.28,-241.21"/>
</g>
<!-- Node2&#45;&gt;Node3 -->
<g id="edge2" class="edge">
<title>Node2&#45;&gt;Node3</title>
<path fill="none" stroke="#63b8ff" d="M424.42,-329.84C425.74,-322.13 427.39,-312.49 428.81,-304.17"/>
<polygon fill="#63b8ff" stroke="#63b8ff" points="432.27,-304.71 430.5,-294.27 425.37,-303.53 432.27,-304.71"/>
</g>
<!-- Node33 -->
<g id="node13" class="node">
<title>Node33</title>
<g id="a_node13"><a xlink:href="../../df/dd0/Array_8h.html" target="_top" xlink:title="Header file for class Cantera::Array2D.">
<polygon fill="white" stroke="#666666" points="336,-294 230,-294 230,-275 336,-275 336,-294"/>
<text text-anchor="middle" x="283" y="-282" font-family="Helvetica,sans-Serif" font-size="10.00">cantera/base/Array.h</text>
</a>
</g>
</g>
<!-- Node2&#45;&gt;Node33 -->
<g id="edge17" class="edge">
<title>Node2&#45;&gt;Node33</title>
<path fill="none" stroke="#63b8ff" d="M388.71,-329.99C365.62,-320.27 335.13,-307.44 312.84,-298.06"/>
<polygon fill="#63b8ff" stroke="#63b8ff" points="314.1,-294.79 303.53,-294.14 311.39,-301.24 314.1,-294.79"/>
</g>
<!-- Node4 -->
<g id="node4" class="node">
<title>Node4</title>
<g id="a_node4"><a xlink:href="../../d7/d01/ThermoPhase_8h.html" target="_top" xlink:title="Header file for class ThermoPhase, the base class for phases with thermodynamic properties,...">
<polygon fill="white" stroke="#666666" points="475,-239 389,-239 389,-220 475,-220 475,-239"/>
<text text-anchor="middle" x="432" y="-227" font-family="Helvetica,sans-Serif" font-size="10.00">ThermoPhase.h</text>
</a>
</g>
</g>
<!-- Node3&#45;&gt;Node4 -->
<g id="edge3" class="edge">
<title>Node3&#45;&gt;Node4</title>
<path fill="none" stroke="#63b8ff" d="M432,-274.75C432,-267.8 432,-257.85 432,-249.13"/>
<polygon fill="#63b8ff" stroke="#63b8ff" points="435.5,-249.09 432,-239.09 428.5,-249.09 435.5,-249.09"/>
</g>
<!-- Node5 -->
<g id="node5" class="node">
<title>Node5</title>
<g id="a_node5"><a xlink:href="../../da/d84/Phase_8h.html" target="_top" xlink:title="Header file for class Phase.">
<polygon fill="#fff0f0" stroke="red" points="560.5,-184 507.5,-184 507.5,-165 560.5,-165 560.5,-184"/>
<text text-anchor="middle" x="534" y="-172" font-family="Helvetica,sans-Serif" font-size="10.00">Phase.h</text>
</a>
</g>
</g>
<!-- Node4&#45;&gt;Node5 -->
<g id="edge4" class="edge">
<title>Node4&#45;&gt;Node5</title>
<path fill="none" stroke="#63b8ff" d="M448.39,-219.98C464.57,-211.57 489.57,-198.59 508.38,-188.81"/>
<polygon fill="#63b8ff" stroke="#63b8ff" points="510.05,-191.89 517.31,-184.17 506.83,-185.68 510.05,-191.89"/>
</g>
<!-- Node25 -->
<g id="node9" class="node">
<title>Node25</title>
<g id="a_node9"><a xlink:href="../../d6/d7a/MultiSpeciesThermo_8h.html" target="_top" xlink:title="Header for a general species thermodynamic property manager for a phase (see MultiSpeciesThermo).">
<polygon fill="#fff0f0" stroke="red" points="489,-184 375,-184 375,-165 489,-165 489,-184"/>
<text text-anchor="middle" x="432" y="-172" font-family="Helvetica,sans-Serif" font-size="10.00">MultiSpeciesThermo.h</text>
</a>
</g>
</g>
<!-- Node4&#45;&gt;Node25 -->
<g id="edge9" class="edge">
<title>Node4&#45;&gt;Node25</title>
<path fill="none" stroke="#63b8ff" d="M432,-219.75C432,-212.8 432,-202.85 432,-194.13"/>
<polygon fill="#63b8ff" stroke="#63b8ff" points="435.5,-194.09 432,-184.09 428.5,-194.09 435.5,-194.09"/>
</g>
<!-- Node28 -->
<g id="node10" class="node">
<title>Node28</title>
<g id="a_node10"><a xlink:href="../../da/d58/Units_8h.html" target="_top" xlink:title="Header for unit conversion utilities, which are used to translate user input from input files (See In...">
<polygon fill="white" stroke="#666666" points="277.5,-129 170.5,-129 170.5,-110 277.5,-110 277.5,-129"/>
<text text-anchor="middle" x="224" y="-117" font-family="Helvetica,sans-Serif" font-size="10.00">cantera/base/Units.h</text>
</a>
</g>
</g>
<!-- Node4&#45;&gt;Node28 -->
<g id="edge10" class="edge">
<title>Node4&#45;&gt;Node28</title>
<path fill="none" stroke="#63b8ff" d="M388.94,-225.09C335.4,-219.89 248.54,-207.93 228,-184 217.55,-171.83 217.67,-153.04 219.73,-139.05"/>
<polygon fill="#63b8ff" stroke="#63b8ff" points="223.19,-139.56 221.63,-129.08 216.32,-138.25 223.19,-139.56"/>
</g>
<!-- Node27 -->
<g id="node11" class="node">
<title>Node27</title>
<g id="a_node11"><a xlink:href="../../dd/d2a/AnyMap_8h.html" target="_top" xlink:title=" ">
<polygon fill="#fff0f0" stroke="red" points="357,-184 237,-184 237,-165 357,-165 357,-184"/>
<text text-anchor="middle" x="297" y="-172" font-family="Helvetica,sans-Serif" font-size="10.00">cantera/base/AnyMap.h</text>
</a>
</g>
</g>
<!-- Node4&#45;&gt;Node27 -->
<g id="edge12" class="edge">
<title>Node4&#45;&gt;Node27</title>
<path fill="none" stroke="#63b8ff" d="M410.31,-219.98C388.2,-211.3 353.68,-197.75 328.55,-187.88"/>
<polygon fill="#63b8ff" stroke="#63b8ff" points="329.67,-184.57 319.08,-184.17 327.11,-191.08 329.67,-184.57"/>
</g>
<!-- Node6 -->
<g id="node6" class="node">
<title>Node6</title>
<g id="a_node6"><a xlink:href="../../db/d98/ctexceptions_8h.html" target="_top" xlink:title="Definitions for the classes that are thrown when Cantera experiences an error condition (also contain...">
<polygon fill="#fff0f0" stroke="red" points="576,-129 436,-129 436,-110 576,-110 576,-129"/>
<text text-anchor="middle" x="506" y="-117" font-family="Helvetica,sans-Serif" font-size="10.00">cantera/base/ctexceptions.h</text>
</a>
</g>
</g>
<!-- Node5&#45;&gt;Node6 -->
<g id="edge5" class="edge">
<title>Node5&#45;&gt;Node6</title>
<path fill="none" stroke="#63b8ff" d="M529.38,-164.75C525.54,-157.49 519.98,-146.95 515.24,-137.98"/>
<polygon fill="#63b8ff" stroke="#63b8ff" points="518.3,-136.3 510.54,-129.09 512.11,-139.57 518.3,-136.3"/>
</g>
<!-- Node7 -->
<g id="node7" class="node">
<title>Node7</title>
<g id="a_node7"><a xlink:href="../../d9/ddc/ct__defs_8h.html" target="_top" xlink:title="This file contains definitions of constants, types and terms that are used in internal routines and a...">
<polygon fill="#fff0f0" stroke="red" points="465.5,-19 408.5,-19 408.5,0 465.5,0 465.5,-19"/>
<text text-anchor="middle" x="437" y="-7" font-family="Helvetica,sans-Serif" font-size="10.00">ct_defs.h</text>
</a>
</g>
</g>
<!-- Node6&#45;&gt;Node7 -->
<g id="edge6" class="edge">
<title>Node6&#45;&gt;Node7</title>
<path fill="none" stroke="#63b8ff" d="M492.65,-109.81C481.34,-101.79 465.49,-88.9 456,-74 447.31,-60.35 442.43,-42.54 439.8,-29.25"/>
<polygon fill="#63b8ff" stroke="#63b8ff" points="443.24,-28.6 438.09,-19.35 436.34,-29.8 443.24,-28.6"/>
</g>
<!-- Node18 -->
<g id="node8" class="node">
<title>Node18</title>
<g id="a_node8"><a xlink:href="../../db/def/fmt_8h.html" target="_top" xlink:title="Wrapper for either system&#45;installed or local headers for fmt.">
<polygon fill="#fff0f0" stroke="red" points="563,-74 465,-74 465,-55 563,-55 563,-74"/>
<text text-anchor="middle" x="514" y="-62" font-family="Helvetica,sans-Serif" font-size="10.00">cantera/base/fmt.h</text>
</a>
</g>
</g>
<!-- Node6&#45;&gt;Node18 -->
<g id="edge7" class="edge">
<title>Node6&#45;&gt;Node18</title>
<path fill="none" stroke="#63b8ff" d="M507.32,-109.75C508.37,-102.8 509.87,-92.85 511.19,-84.13"/>
<polygon fill="#63b8ff" stroke="#63b8ff" points="514.67,-84.5 512.7,-74.09 507.75,-83.45 514.67,-84.5"/>
</g>
<!-- Node18&#45;&gt;Node7 -->
<g id="edge8" class="edge">
<title>Node18&#45;&gt;Node7</title>
<path fill="none" stroke="#63b8ff" d="M501.63,-54.98C489.91,-46.92 472.08,-34.65 458.11,-25.03"/>
<polygon fill="#63b8ff" stroke="#63b8ff" points="459.82,-21.96 449.6,-19.17 455.85,-27.72 459.82,-21.96"/>
</g>
<!-- Node28&#45;&gt;Node7 -->
<g id="edge11" class="edge">
<title>Node28&#45;&gt;Node7</title>
<path fill="none" stroke="#63b8ff" d="M231.01,-109.79C242.4,-96.18 266.27,-69.88 292,-55 325.48,-35.63 368.28,-23.84 398.68,-17.3"/>
<polygon fill="#63b8ff" stroke="#63b8ff" points="399.39,-20.73 408.48,-15.29 397.98,-13.87 399.39,-20.73"/>
</g>
<!-- Node27&#45;&gt;Node6 -->
<g id="edge14" class="edge">
<title>Node27&#45;&gt;Node6</title>
<path fill="none" stroke="#63b8ff" d="M330.58,-164.98C366.35,-155.91 423.12,-141.52 462.34,-131.57"/>
<polygon fill="#63b8ff" stroke="#63b8ff" points="463.32,-134.93 472.16,-129.08 461.6,-128.15 463.32,-134.93"/>
</g>
<!-- Node27&#45;&gt;Node7 -->
<g id="edge13" class="edge">
<title>Node27&#45;&gt;Node7</title>
<path fill="none" stroke="#63b8ff" d="M299.56,-164.67C303.57,-151.8 312.23,-127.53 325,-110 350.79,-74.62 391.09,-42.75 415.66,-25.07"/>
<polygon fill="#63b8ff" stroke="#63b8ff" points="417.8,-27.84 423.95,-19.22 413.76,-22.13 417.8,-27.84"/>
</g>
<!-- Node27&#45;&gt;Node28 -->
<g id="edge15" class="edge">
<title>Node27&#45;&gt;Node28</title>
<path fill="none" stroke="#63b8ff" d="M285.27,-164.98C274.27,-157 257.58,-144.88 244.4,-135.31"/>
<polygon fill="#63b8ff" stroke="#63b8ff" points="246.09,-132.21 235.94,-129.17 241.98,-137.88 246.09,-132.21"/>
</g>
<!-- Node29 -->
<g id="node12" class="node">
<title>Node29</title>
<g id="a_node12"><a xlink:title=" ">
<polygon fill="#e0e0e0" stroke="#999999" points="417.5,-129 334.5,-129 334.5,-110 417.5,-110 417.5,-129"/>
<text text-anchor="middle" x="376" y="-117" font-family="Helvetica,sans-Serif" font-size="10.00">unordered_map</text>
</a>
</g>
</g>
<!-- Node27&#45;&gt;Node29 -->
<g id="edge16" class="edge">
<title>Node27&#45;&gt;Node29</title>
<path fill="none" stroke="#63b8ff" d="M309.69,-164.98C321.83,-156.84 340.36,-144.41 354.75,-134.76"/>
<polygon fill="#63b8ff" stroke="#63b8ff" points="356.72,-137.65 363.08,-129.17 352.82,-131.84 356.72,-137.65"/>
</g>
<!-- Node33&#45;&gt;Node7 -->
<g id="edge18" class="edge">
<title>Node33&#45;&gt;Node7</title>
<path fill="none" stroke="#63b8ff" d="M268.46,-274.96C228.29,-250.23 121.33,-176.16 161,-110 210.01,-28.28 334.79,-12.86 398.42,-10.48"/>
<polygon fill="#63b8ff" stroke="#63b8ff" points="398.56,-13.98 408.45,-10.2 398.36,-6.98 398.56,-13.98"/>
</g>
<!-- Node34 -->
<g id="node14" class="node">
<title>Node34</title>
<g id="a_node14"><a xlink:title=" ">
<polygon fill="#e0e0e0" stroke="#999999" points="310,-239 256,-239 256,-220 310,-220 310,-239"/>
<text text-anchor="middle" x="283" y="-227" font-family="Helvetica,sans-Serif" font-size="10.00">iostream</text>
</a>
</g>
</g>
<!-- Node33&#45;&gt;Node34 -->
<g id="edge19" class="edge">
<title>Node33&#45;&gt;Node34</title>
<path fill="none" stroke="#63b8ff" d="M283,-274.75C283,-267.8 283,-257.85 283,-249.13"/>
<polygon fill="#63b8ff" stroke="#63b8ff" points="286.5,-249.09 283,-239.09 279.5,-249.09 286.5,-249.09"/>
</g>
<!-- Node35&#45;&gt;Node4 -->
<g id="edge22" class="edge">
<title>Node35&#45;&gt;Node4</title>
<path fill="none" stroke="#63b8ff" d="M552.02,-274.98C528.5,-266.27 491.71,-252.63 465.06,-242.75"/>
<polygon fill="#63b8ff" stroke="#63b8ff" points="465.99,-239.36 455.39,-239.17 463.55,-245.93 465.99,-239.36"/>
</g>
<!-- Node36 -->
<g id="node16" class="node">
<title>Node36</title>
<g id="a_node16"><a xlink:href="../../d6/dd5/FactoryBase_8h.html" target="_top" xlink:title="File contains the FactoryBase class declarations.">
<polygon fill="white" stroke="#666666" points="719,-184 579,-184 579,-165 719,-165 719,-184"/>
<text text-anchor="middle" x="649" y="-172" font-family="Helvetica,sans-Serif" font-size="10.00">cantera/base/FactoryBase.h</text>
</a>
</g>
</g>
<!-- Node35&#45;&gt;Node36 -->
<g id="edge23" class="edge">
<title>Node35&#45;&gt;Node36</title>
<path fill="none" stroke="#63b8ff" d="M581.06,-274.66C593.31,-256.77 621.25,-216 637.22,-192.69"/>
<polygon fill="#63b8ff" stroke="#63b8ff" points="640.3,-194.39 643.07,-184.16 634.53,-190.43 640.3,-194.39"/>
</g>
<!-- Node36&#45;&gt;Node6 -->
<g id="edge26" class="edge">
<title>Node36&#45;&gt;Node6</title>
<path fill="none" stroke="#63b8ff" d="M626.02,-164.98C602.5,-156.27 565.71,-142.63 539.06,-132.75"/>
<polygon fill="#63b8ff" stroke="#63b8ff" points="539.99,-129.36 529.39,-129.17 537.55,-135.93 539.99,-129.36"/>
</g>
<!-- Node36&#45;&gt;Node29 -->
<g id="edge25" class="edge">
<title>Node36&#45;&gt;Node29</title>
<path fill="none" stroke="#63b8ff" d="M605.14,-164.98C556.67,-155.58 478.7,-140.44 427.4,-130.48"/>
<polygon fill="#63b8ff" stroke="#63b8ff" points="428,-127.03 417.52,-128.56 426.67,-133.9 428,-127.03"/>
</g>
<!-- Node37 -->
<g id="node17" class="node">
<title>Node37</title>
<g id="a_node17"><a xlink:title=" ">
<polygon fill="#e0e0e0" stroke="#999999" points="766,-129 722,-129 722,-110 766,-110 766,-129"/>
<text text-anchor="middle" x="744" y="-117" font-family="Helvetica,sans-Serif" font-size="10.00">mutex</text>
</a>
</g>
</g>
<!-- Node36&#45;&gt;Node37 -->
<g id="edge24" class="edge">
<title>Node36&#45;&gt;Node37</title>
<path fill="none" stroke="#63b8ff" d="M664.26,-164.98C679.13,-156.69 701.98,-143.94 719.42,-134.22"/>
<polygon fill="#63b8ff" stroke="#63b8ff" points="721.43,-137.1 728.46,-129.17 718.02,-130.99 721.43,-137.1"/>
</g>
<!-- Node38 -->
<g id="node18" class="node">
<title>Node38</title>
<g id="a_node18"><a xlink:href="../../d2/d49/global_8h.html" target="_top" xlink:title="This file contains definitions for utility functions and text for modules, inputfiles,...">
<polygon fill="white" stroke="#666666" points="704,-129 594,-129 594,-110 704,-110 704,-129"/>
<text text-anchor="middle" x="649" y="-117" font-family="Helvetica,sans-Serif" font-size="10.00">cantera/base/global.h</text>
</a>
</g>
</g>
<!-- Node36&#45;&gt;Node38 -->
<g id="edge27" class="edge">
<title>Node36&#45;&gt;Node38</title>
<path fill="none" stroke="#63b8ff" d="M649,-164.75C649,-157.8 649,-147.85 649,-139.13"/>
<polygon fill="#63b8ff" stroke="#63b8ff" points="652.5,-139.09 649,-129.09 645.5,-139.09 652.5,-139.09"/>
</g>
<!-- Node38&#45;&gt;Node7 -->
<g id="edge28" class="edge">
<title>Node38&#45;&gt;Node7</title>
<path fill="none" stroke="#63b8ff" d="M640.78,-109.91C627.48,-96.47 599.92,-70.4 572,-55 541.4,-38.12 503.34,-26.3 475.45,-19.11"/>
<polygon fill="#63b8ff" stroke="#63b8ff" points="476.21,-15.69 465.66,-16.66 474.51,-22.48 476.21,-15.69"/>
</g>
<!-- Node38&#45;&gt;Node18 -->
<g id="edge29" class="edge">
<title>Node38&#45;&gt;Node18</title>
<path fill="none" stroke="#63b8ff" d="M627.31,-109.98C605.2,-101.3 570.68,-87.75 545.55,-77.88"/>
<polygon fill="#63b8ff" stroke="#63b8ff" points="546.67,-74.57 536.08,-74.17 544.11,-81.08 546.67,-74.57"/>
</g>
<!-- Node39&#45;&gt;Node7 -->
<g id="edge31" class="edge">
<title>Node39&#45;&gt;Node7</title>
<path fill="none" stroke="#63b8ff" d="M677.89,-54.98C621.74,-44.62 527.92,-27.29 475.47,-17.6"/>
<polygon fill="#63b8ff" stroke="#63b8ff" points="476.02,-14.15 465.56,-15.77 474.75,-21.03 476.02,-14.15"/>
</g>
<!-- Node40&#45;&gt;Node7 -->
<g id="edge33" class="edge">
<title>Node40&#45;&gt;Node7</title>
<path fill="none" stroke="#63b8ff" d="M873.53,-335.41C860.42,-317.14 832,-272.65 832,-230.5 832,-230.5 832,-230.5 832,-118.5 832,-86.27 823.69,-73.06 797,-55 745.29,-20 557.67,-12.52 475.73,-10.93"/>
<polygon fill="#63b8ff" stroke="#63b8ff" points="475.65,-7.43 465.59,-10.75 475.52,-14.43 475.65,-7.43"/>
</g>
<!-- Node41 -->
<g id="node21" class="node">
<title>Node41</title>
<g id="a_node21"><a xlink:title=" ">
<polygon fill="#e0e0e0" stroke="#999999" points="911.5,-294 860.5,-294 860.5,-275 911.5,-275 911.5,-294"/>
<text text-anchor="middle" x="886" y="-282" font-family="Helvetica,sans-Serif" font-size="10.00">numeric</text>
</a>
</g>
</g>
<!-- Node40&#45;&gt;Node41 -->
<g id="edge34" class="edge">
<title>Node40&#45;&gt;Node41</title>
<path fill="none" stroke="#63b8ff" d="M880.89,-335.37C881.72,-327.25 882.99,-314.81 884.06,-304.39"/>
<polygon fill="#63b8ff" stroke="#63b8ff" points="887.57,-304.47 885.11,-294.17 880.61,-303.76 887.57,-304.47"/>
</g>
<!-- Node42&#45;&gt;Node7 -->
<g id="edge36" class="edge">
<title>Node42&#45;&gt;Node7</title>
<path fill="none" stroke="#63b8ff" d="M64.27,-219.92C65.67,-191.28 74.34,-98.42 128,-55 168.76,-22.02 324.42,-13.47 398.01,-11.27"/>
<polygon fill="#63b8ff" stroke="#63b8ff" points="398.35,-14.76 408.25,-10.98 398.16,-7.76 398.35,-14.76"/>
</g>
<!-- Node42&#45;&gt;Node27 -->
<g id="edge37" class="edge">
<title>Node42&#45;&gt;Node27</title>
<path fill="none" stroke="#63b8ff" d="M101.44,-219.98C141.65,-210.84 205.68,-196.27 249.44,-186.32"/>
<polygon fill="#63b8ff" stroke="#63b8ff" points="250.3,-189.71 259.27,-184.08 248.74,-182.89 250.3,-189.71"/>
</g>
</g>
</svg>
