<?xml version="1.0" encoding="UTF-8" standalone="no"?>
<!DOCTYPE svg PUBLIC "-//W3C//DTD SVG 1.1//EN"
 "http://www.w3.org/Graphics/SVG/1.1/DTD/svg11.dtd">
<!-- Generated by graphviz version 6.0.1 (0)
 -->
<!-- Title: Reaction.h Pages: 1 -->
<svg width="1325pt" height="137pt"
 viewBox="0.00 0.00 1325.00 137.00" xmlns="http://www.w3.org/2000/svg" xmlns:xlink="http://www.w3.org/1999/xlink">
<g id="graph0" class="graph" transform="scale(1 1) rotate(0) translate(4 133)">
<title>Reaction.h</title>
<!-- Node1 -->
<g id="node1" class="node">
<title>Node1</title>
<g id="a_node1"><a xlink:title=" ">
<polygon fill="#999999" stroke="#666666" points="693,-129 629,-129 629,-110 693,-110 693,-129"/>
<text text-anchor="middle" x="661" y="-117" font-family="Helvetica,sans-Serif" font-size="10.00">Reaction.h</text>
</a>
</g>
</g>
<!-- Node2 -->
<g id="node2" class="node">
<title>Node2</title>
<g id="a_node2"><a xlink:href="../../d4/d81/BlowersMaselRate_8cpp.html" target="_top" xlink:title=" ">
<polygon fill="white" stroke="#666666" points="118,-74 0,-74 0,-55 118,-55 118,-74"/>
<text text-anchor="middle" x="59" y="-62" font-family="Helvetica,sans-Serif" font-size="10.00">BlowersMaselRate.cpp</text>
</a>
</g>
</g>
<!-- Node1&#45;&gt;Node2 -->
<g id="edge1" class="edge">
<title>Node1&#45;&gt;Node2</title>
<path fill="none" stroke="#63b8ff" d="M618.63,-115.57C528.2,-109.17 309.68,-93.02 127,-74 124.16,-73.7 121.25,-73.39 118.32,-73.06"/>
<polygon fill="#63b8ff" stroke="#63b8ff" points="618.53,-119.07 628.75,-116.28 619.02,-112.08 618.53,-119.07"/>
</g>
<!-- Node3 -->
<g id="node3" class="node">
<title>Node3</title>
<g id="a_node3"><a xlink:href="../../df/d7d/BulkKinetics_8cpp_source.html" target="_top" xlink:title=" ">
<polygon fill="white" stroke="#666666" points="226,-74 136,-74 136,-55 226,-55 226,-74"/>
<text text-anchor="middle" x="181" y="-62" font-family="Helvetica,sans-Serif" font-size="10.00">BulkKinetics.cpp</text>
</a>
</g>
</g>
<!-- Node1&#45;&gt;Node3 -->
<g id="edge2" class="edge">
<title>Node1&#45;&gt;Node3</title>
<path fill="none" stroke="#63b8ff" d="M618.66,-114.81C542,-107.97 375.14,-92.34 235,-74 232.08,-73.62 229.08,-73.2 226.06,-72.77"/>
<polygon fill="#63b8ff" stroke="#63b8ff" points="618.6,-118.32 628.87,-115.72 619.22,-111.35 618.6,-118.32"/>
</g>
<!-- Node4 -->
<g id="node4" class="node">
<title>Node4</title>
<g id="a_node4"><a xlink:href="../../db/dac/GasKinetics_8h.html" target="_top" xlink:title=" ">
<polygon fill="white" stroke="#666666" points="322,-74 244,-74 244,-55 322,-55 322,-74"/>
<text text-anchor="middle" x="283" y="-62" font-family="Helvetica,sans-Serif" font-size="10.00">GasKinetics.h</text>
</a>
</g>
</g>
<!-- Node1&#45;&gt;Node4 -->
<g id="edge3" class="edge">
<title>Node1&#45;&gt;Node4</title>
<path fill="none" stroke="#63b8ff" d="M618.42,-113.26C555.64,-105.41 434.58,-89.83 332,-74 328.76,-73.5 325.4,-72.96 322.03,-72.41"/>
<polygon fill="#63b8ff" stroke="#63b8ff" points="618.36,-116.78 628.72,-114.54 619.23,-109.83 618.36,-116.78"/>
</g>
<!-- Node6 -->
<g id="node6" class="node">
<title>Node6</title>
<g id="a_node6"><a xlink:href="../../d3/db3/InterfaceKinetics_8cpp.html" target="_top" xlink:title=" ">
<polygon fill="white" stroke="#666666" points="449.5,-74 340.5,-74 340.5,-55 449.5,-55 449.5,-74"/>
<text text-anchor="middle" x="395" y="-62" font-family="Helvetica,sans-Serif" font-size="10.00">InterfaceKinetics.cpp</text>
</a>
</g>
</g>
<!-- Node1&#45;&gt;Node6 -->
<g id="edge5" class="edge">
<title>Node1&#45;&gt;Node6</title>
<path fill="none" stroke="#63b8ff" d="M618.85,-110.1C569.31,-100.23 487.55,-83.94 437.74,-74.02"/>
<polygon fill="#63b8ff" stroke="#63b8ff" points="618.42,-113.59 628.91,-112.11 619.79,-106.72 618.42,-113.59"/>
</g>
<!-- Node7 -->
<g id="node7" class="node">
<title>Node7</title>
<g id="a_node7"><a xlink:href="../../d8/dc2/InterfaceRate_8cpp.html" target="_top" xlink:title=" ">
<polygon fill="white" stroke="#666666" points="562.5,-74 467.5,-74 467.5,-55 562.5,-55 562.5,-74"/>
<text text-anchor="middle" x="515" y="-62" font-family="Helvetica,sans-Serif" font-size="10.00">InterfaceRate.cpp</text>
</a>
</g>
</g>
<!-- Node1&#45;&gt;Node7 -->
<g id="edge6" class="edge">
<title>Node1&#45;&gt;Node7</title>
<path fill="none" stroke="#63b8ff" d="M628.08,-106.55C600.97,-96.71 563.17,-82.98 538.88,-74.17"/>
<polygon fill="#63b8ff" stroke="#63b8ff" points="626.95,-109.86 637.54,-109.98 629.34,-103.28 626.95,-109.86"/>
</g>
<!-- Node8 -->
<g id="node8" class="node">
<title>Node8</title>
<g id="a_node8"><a xlink:href="../../d7/ddb/Kinetics_8cpp.html" target="_top" xlink:title="Declarations for the base class for kinetics managers (see Kinetics Managers and class Kinetics ).">
<polygon fill="white" stroke="#666666" points="651.5,-74 580.5,-74 580.5,-55 651.5,-55 651.5,-74"/>
<text text-anchor="middle" x="616" y="-62" font-family="Helvetica,sans-Serif" font-size="10.00">Kinetics.cpp</text>
</a>
</g>
</g>
<!-- Node1&#45;&gt;Node8 -->
<g id="edge7" class="edge">
<title>Node1&#45;&gt;Node8</title>
<path fill="none" stroke="#63b8ff" d="M646.95,-101.96C639.11,-92.72 629.67,-81.6 623.29,-74.09"/>
<polygon fill="#63b8ff" stroke="#63b8ff" points="644.43,-104.39 653.57,-109.75 649.76,-99.86 644.43,-104.39"/>
</g>
<!-- Node9 -->
<g id="node9" class="node">
<title>Node9</title>
<g id="a_node9"><a xlink:href="../../d1/d9f/Reaction_8cpp.html" target="_top" xlink:title=" ">
<polygon fill="white" stroke="#666666" points="744,-74 670,-74 670,-55 744,-55 744,-74"/>
<text text-anchor="middle" x="707" y="-62" font-family="Helvetica,sans-Serif" font-size="10.00">Reaction.cpp</text>
</a>
</g>
</g>
<!-- Node1&#45;&gt;Node9 -->
<g id="edge8" class="edge">
<title>Node1&#45;&gt;Node9</title>
<path fill="none" stroke="#63b8ff" d="M675.36,-101.96C683.37,-92.72 693.03,-81.6 699.55,-74.09"/>
<polygon fill="#63b8ff" stroke="#63b8ff" points="672.51,-99.9 668.6,-109.75 677.79,-104.49 672.51,-99.9"/>
</g>
<!-- Node10 -->
<g id="node10" class="node">
<title>Node10</title>
<g id="a_node10"><a xlink:href="../../da/d26/ReactionPath_8cpp.html" target="_top" xlink:title="Implementation file for classes used in reaction path analysis.">
<polygon fill="white" stroke="#666666" points="857.5,-74 762.5,-74 762.5,-55 857.5,-55 857.5,-74"/>
<text text-anchor="middle" x="810" y="-62" font-family="Helvetica,sans-Serif" font-size="10.00">ReactionPath.cpp</text>
</a>
</g>
</g>
<!-- Node1&#45;&gt;Node10 -->
<g id="edge9" class="edge">
<title>Node1&#45;&gt;Node10</title>
<path fill="none" stroke="#63b8ff" d="M694.59,-106.55C722.26,-96.71 760.84,-82.98 785.62,-74.17"/>
<polygon fill="#63b8ff" stroke="#63b8ff" points="693.19,-103.34 684.94,-109.98 695.53,-109.93 693.19,-103.34"/>
</g>
<!-- Node11 -->
<g id="node11" class="node">
<title>Node11</title>
<g id="a_node11"><a xlink:href="../../d3/d68/Reactor_8cpp.html" target="_top" xlink:title="A zero&#45;dimensional reactor.">
<polygon fill="white" stroke="#666666" points="944.5,-74 875.5,-74 875.5,-55 944.5,-55 944.5,-74"/>
<text text-anchor="middle" x="910" y="-62" font-family="Helvetica,sans-Serif" font-size="10.00">Reactor.cpp</text>
</a>
</g>
</g>
<!-- Node1&#45;&gt;Node11 -->
<g id="edge10" class="edge">
<title>Node1&#45;&gt;Node11</title>
<path fill="none" stroke="#63b8ff" d="M702.89,-109.58C751.32,-99.28 830.13,-82.5 875.28,-72.89"/>
<polygon fill="#63b8ff" stroke="#63b8ff" points="702.09,-106.17 693.04,-111.68 703.55,-113.02 702.09,-106.17"/>
</g>
<!-- Node12 -->
<g id="node12" class="node">
<title>Node12</title>
<g id="a_node12"><a xlink:href="../../df/ddb/ReactorSurface_8cpp.html" target="_top" xlink:title=" ">
<polygon fill="white" stroke="#666666" points="1067,-74 963,-74 963,-55 1067,-55 1067,-74"/>
<text text-anchor="middle" x="1015" y="-62" font-family="Helvetica,sans-Serif" font-size="10.00">ReactorSurface.cpp</text>
</a>
</g>
</g>
<!-- Node1&#45;&gt;Node12 -->
<g id="edge11" class="edge">
<title>Node1&#45;&gt;Node12</title>
<path fill="none" stroke="#63b8ff" d="M703.32,-112.16C768.31,-102.43 892.51,-83.84 962.92,-73.3"/>
<polygon fill="#63b8ff" stroke="#63b8ff" points="702.41,-108.76 693.04,-113.7 703.45,-115.68 702.41,-108.76"/>
</g>
<!-- Node13 -->
<g id="node13" class="node">
<title>Node13</title>
<g id="a_node13"><a xlink:href="../../de/d71/TwoTempPlasmaRate_8cpp.html" target="_top" xlink:title=" ">
<polygon fill="white" stroke="#666666" points="1216.5,-74 1085.5,-74 1085.5,-55 1216.5,-55 1216.5,-74"/>
<text text-anchor="middle" x="1151" y="-62" font-family="Helvetica,sans-Serif" font-size="10.00">TwoTempPlasmaRate.cpp</text>
</a>
</g>
</g>
<!-- Node1&#45;&gt;Node13 -->
<g id="edge12" class="edge">
<title>Node1&#45;&gt;Node13</title>
<path fill="none" stroke="#63b8ff" d="M703.02,-114.08C777.96,-106.18 939.62,-89.04 1076,-74 1079,-73.67 1082.06,-73.33 1085.15,-72.99"/>
<polygon fill="#63b8ff" stroke="#63b8ff" points="702.61,-110.6 693.03,-115.13 703.34,-117.56 702.61,-110.6"/>
</g>
<!-- Node14 -->
<g id="node14" class="node">
<title>Node14</title>
<g id="a_node14"><a xlink:href="../../da/d67/YamlWriter_8cpp_source.html" target="_top" xlink:title=" ">
<polygon fill="white" stroke="#666666" points="1317,-74 1235,-74 1235,-55 1317,-55 1317,-74"/>
<text text-anchor="middle" x="1276" y="-62" font-family="Helvetica,sans-Serif" font-size="10.00">YamlWriter.cpp</text>
</a>
</g>
</g>
<!-- Node1&#45;&gt;Node14 -->
<g id="edge13" class="edge">
<title>Node1&#45;&gt;Node14</title>
<path fill="none" stroke="#63b8ff" d="M703.26,-116.47C797.4,-111.67 1031.41,-98.15 1226,-74 1228.88,-73.64 1231.85,-73.24 1234.84,-72.8"/>
<polygon fill="#63b8ff" stroke="#63b8ff" points="703.08,-112.98 693.27,-116.98 703.44,-119.97 703.08,-112.98"/>
</g>
<!-- Node5 -->
<g id="node5" class="node">
<title>Node5</title>
<g id="a_node5"><a xlink:href="../../d3/df8/KineticsFactory_8cpp.html" target="_top" xlink:title=" ">
<polygon fill="white" stroke="#666666" points="334,-19 232,-19 232,0 334,0 334,-19"/>
<text text-anchor="middle" x="283" y="-7" font-family="Helvetica,sans-Serif" font-size="10.00">KineticsFactory.cpp</text>
</a>
</g>
</g>
<!-- Node4&#45;&gt;Node5 -->
<g id="edge4" class="edge">
<title>Node4&#45;&gt;Node5</title>
<path fill="none" stroke="#63b8ff" d="M283,-44.66C283,-35.93 283,-25.99 283,-19.09"/>
<polygon fill="#63b8ff" stroke="#63b8ff" points="279.5,-44.75 283,-54.75 286.5,-44.75 279.5,-44.75"/>
</g>
</g>
</svg>
