<?xml version="1.0" encoding="UTF-8" standalone="no"?>
<!DOCTYPE svg PUBLIC "-//W3C//DTD SVG 1.1//EN"
 "http://www.w3.org/Graphics/SVG/1.1/DTD/svg11.dtd">
<!-- Generated by graphviz version 6.0.1 (0)
 -->
<!-- Title: Phase.cpp Pages: 1 -->
<!--zoomable 522 -->

<svg id="main" version="1.1" xmlns="http://www.w3.org/2000/svg" xmlns:xlink="http://www.w3.org/1999/xlink" xml:space="preserve" onload="init(evt)">
<style type="text/css"><![CDATA[
.node, .edge {opacity: 0.7;}
.node.selected, .edge.selected {opacity: 1;}
.edge:hover path { stroke: red; }
.edge:hover polygon { stroke: red; fill: red; }
]]></style>

<defs>
  <circle id="rim" cx="0" cy="0" r="7"/>
  <circle id="rim2" cx="0" cy="0" r="3.5"/>
  <g id="zoomPlus">
    <use xlink:href="#rim" fill="#404040"><set attributeName="fill" to="#808080" begin="zoomplus.mouseover" end="zoomplus.mouseout"/></use>
    <path d="M-4,0h8M0,-4v8" fill="none" stroke="white" stroke-width="1.5" pointer-events="none"/>
  </g>
  <g id="zoomMin">
    <use xlink:href="#rim" fill="#404040"><set attributeName="fill" to="#808080" begin="zoomminus.mouseover" end="zoomminus.mouseout"/></use>
    <path d="M-4,0h8" fill="none" stroke="white" stroke-width="1.5" pointer-events="none"/>
  </g>
  <g id="arrowUp" transform="translate(30 24)">
    <use xlink:href="#rim"/>
    <path pointer-events="none" fill="none" stroke="white" stroke-width="1.5" d="M0,-3.0v7 M-2.5,-0.5L0,-3.0L2.5,-0.5"/>
  </g>
  <g id="arrowRight" transform="rotate(90) translate(36 -43)">
    <use xlink:href="#rim"/>
    <path pointer-events="none" fill="none" stroke="white" stroke-width="1.5" d="M0,-3.0v7 M-2.5,-0.5L0,-3.0L2.5,-0.5"/>
  </g>
  <g id="arrowDown" transform="rotate(180) translate(-30 -48)">
    <use xlink:href="#rim"/>
    <path pointer-events="none" fill="none" stroke="white" stroke-width="1.5" d="M0,-3.0v7 M-2.5,-0.5L0,-3.0L2.5,-0.5"/>
  </g>
  <g id="arrowLeft" transform="rotate(270) translate(-36 17)">
    <use xlink:href="#rim"/>
    <path pointer-events="none" fill="none" stroke="white" stroke-width="1.5" d="M0,-3.0v7 M-2.5,-0.5L0,-3.0L2.5,-0.5"/>
  </g>
  <g id="resetDef">
    <use xlink:href="#rim2" fill="#404040"><set attributeName="fill" to="#808080" begin="reset.mouseover" end="reset.mouseout"/></use>
  </g>
</defs>
<script type="application/ecmascript">
var viewWidth = 1221;
var viewHeight = 522;
var sectionId = 'dynsection-0';
</script>
<script type="application/ecmascript" xlink:href="../../svg.min.js"/>
<svg id="graph" class="graph">
<g id="viewport">
<title>Phase.cpp</title>
<!-- Node1 -->
<g id="Node000001" class="node">
<title>Node1</title>
<g id="a_Node000001"><a xlink:title="Definition file for class Phase.">
<polygon fill="#999999" stroke="#666666" points="1022,-514 959,-514 959,-495 1022,-495 1022,-514"/>
<text text-anchor="middle" x="990.5" y="-502" font-family="Helvetica,sans-Serif" font-size="10.00">Phase.cpp</text>
</a>
</g>
</g>
<!-- Node2 -->
<g id="Node000002" class="node">
<title>Node2</title>
<g id="a_Node000002"><a xlink:href="../../da/d84/Phase_8h.html" target="_top" xlink:title="Header file for class Phase.">
<polygon fill="white" stroke="#666666" points="392,-239 271,-239 271,-220 392,-220 392,-239"/>
<text text-anchor="middle" x="331.5" y="-227" font-family="Helvetica,sans-Serif" font-size="10.00">cantera/thermo/Phase.h</text>
</a>
</g>
</g>
<!-- Node1&#45;&gt;Node2 -->
<g id="edge1_Node000001_Node000002" class="edge">
<title>Node1&#45;&gt;Node2</title>
<g id="a_edge1_Node000001_Node000002"><a xlink:title=" ">
<path fill="none" stroke="#63b8ff" d="M958.72,-503.8C844.78,-504.02 463.5,-497.18 463.5,-395.5 463.5,-395.5 463.5,-395.5 463.5,-338.5 463.5,-289.09 407.42,-258.21 368.37,-242.69"/>
<polygon fill="#63b8ff" stroke="#63b8ff" points="369.44,-239.36 358.85,-239.08 366.96,-245.9 369.44,-239.36"/>
</a>
</g>
</g>
<!-- Node23 -->
<g id="Node000023" class="node">
<title>Node23</title>
<g id="a_Node000023"><a xlink:href="../../de/df0/utilities_8h.html" target="_top" xlink:title="Various templated functions that carry out common vector and polynomial operations (see Templated Arr...">
<polygon fill="white" stroke="#666666" points="1204,-459 1089,-459 1089,-440 1204,-440 1204,-459"/>
<text text-anchor="middle" x="1146.5" y="-447" font-family="Helvetica,sans-Serif" font-size="10.00">cantera/base/utilities.h</text>
</a>
</g>
</g>
<!-- Node1&#45;&gt;Node23 -->
<g id="edge25_Node000001_Node000023" class="edge">
<title>Node1&#45;&gt;Node23</title>
<g id="a_edge25_Node000001_Node000023"><a xlink:title=" ">
<path fill="none" stroke="#63b8ff" d="M1015.56,-494.98C1041.53,-486.16 1082.31,-472.31 1111.46,-462.41"/>
<polygon fill="#63b8ff" stroke="#63b8ff" points="1112.9,-465.61 1121.24,-459.08 1110.65,-458.99 1112.9,-465.61"/>
</a>
</g>
</g>
<!-- Node25 -->
<g id="Node000025" class="node">
<title>Node25</title>
<g id="a_Node000025"><a xlink:href="../../dd/dc3/stringUtils_8h.html" target="_top" xlink:title="Contains declarations for string manipulation functions within Cantera.">
<polygon fill="white" stroke="#666666" points="1162.5,-349 1034.5,-349 1034.5,-330 1162.5,-330 1162.5,-349"/>
<text text-anchor="middle" x="1098.5" y="-337" font-family="Helvetica,sans-Serif" font-size="10.00">cantera/base/stringUtils.h</text>
</a>
</g>
</g>
<!-- Node1&#45;&gt;Node25 -->
<g id="edge28_Node000001_Node000025" class="edge">
<title>Node1&#45;&gt;Node25</title>
<g id="a_edge28_Node000001_Node000025"><a xlink:title=" ">
<path fill="none" stroke="#63b8ff" d="M996.31,-494.74C1013.45,-468.87 1064.06,-392.48 1086.98,-357.88"/>
<polygon fill="#63b8ff" stroke="#63b8ff" points="1090.06,-359.58 1092.66,-349.31 1084.22,-355.71 1090.06,-359.58"/>
</a>
</g>
</g>
<!-- Node26 -->
<g id="Node000026" class="node">
<title>Node26</title>
<g id="a_Node000026"><a xlink:href="../../d7/dd9/Species_8h.html" target="_top" xlink:title="Declaration for class Cantera::Species.">
<polygon fill="white" stroke="#666666" points="1054.5,-294 926.5,-294 926.5,-275 1054.5,-275 1054.5,-294"/>
<text text-anchor="middle" x="990.5" y="-282" font-family="Helvetica,sans-Serif" font-size="10.00">cantera/thermo/Species.h</text>
</a>
</g>
</g>
<!-- Node1&#45;&gt;Node26 -->
<g id="edge30_Node000001_Node000026" class="edge">
<title>Node1&#45;&gt;Node26</title>
<g id="a_edge30_Node000001_Node000026"><a xlink:title=" ">
<path fill="none" stroke="#63b8ff" d="M990.5,-494.95C990.5,-462.95 990.5,-349.68 990.5,-304.4"/>
<polygon fill="#63b8ff" stroke="#63b8ff" points="994,-304.22 990.5,-294.22 987,-304.22 994,-304.22"/>
</a>
</g>
</g>
<!-- Node33 -->
<g id="Node000033" class="node">
<title>Node33</title>
<g id="a_Node000033"><a xlink:href="../../dc/d8e/ThermoFactory_8h.html" target="_top" xlink:title="Headers for the factory class that can create known ThermoPhase objects (see Thermodynamic Properties...">
<polygon fill="white" stroke="#666666" points="794.5,-459 636.5,-459 636.5,-440 794.5,-440 794.5,-459"/>
<text text-anchor="middle" x="715.5" y="-447" font-family="Helvetica,sans-Serif" font-size="10.00">cantera/thermo/ThermoFactory.h</text>
</a>
</g>
</g>
<!-- Node1&#45;&gt;Node33 -->
<g id="edge42_Node000001_Node000033" class="edge">
<title>Node1&#45;&gt;Node33</title>
<g id="a_edge42_Node000001_Node000033"><a xlink:title=" ">
<path fill="none" stroke="#63b8ff" d="M958.95,-497.42C912.77,-488.52 826.13,-471.82 769.64,-460.93"/>
<polygon fill="#63b8ff" stroke="#63b8ff" points="770.28,-457.49 759.8,-459.04 768.96,-464.37 770.28,-457.49"/>
</a>
</g>
</g>
<!-- Node3 -->
<g id="Node000003" class="node">
<title>Node3</title>
<g id="a_Node000003"><a xlink:href="../../db/d98/ctexceptions_8h.html" target="_top" xlink:title="Definitions for the classes that are thrown when Cantera experiences an error condition (also contain...">
<polygon fill="white" stroke="#666666" points="523.5,-184 383.5,-184 383.5,-165 523.5,-165 523.5,-184"/>
<text text-anchor="middle" x="453.5" y="-172" font-family="Helvetica,sans-Serif" font-size="10.00">cantera/base/ctexceptions.h</text>
</a>
</g>
</g>
<!-- Node2&#45;&gt;Node3 -->
<g id="edge2_Node000002_Node000003" class="edge">
<title>Node2&#45;&gt;Node3</title>
<g id="a_edge2_Node000002_Node000003"><a xlink:title=" ">
<path fill="none" stroke="#63b8ff" d="M351.1,-219.98C370.82,-211.42 401.45,-198.11 424.08,-188.28"/>
<polygon fill="#63b8ff" stroke="#63b8ff" points="425.76,-191.37 433.54,-184.17 422.98,-184.94 425.76,-191.37"/>
</a>
</g>
</g>
<!-- Node20 -->
<g id="Node000020" class="node">
<title>Node20</title>
<g id="a_Node000020"><a xlink:href="../../d9/dda/Elements_8h.html" target="_top" xlink:title="Contains the getElementWeight function and the definitions of element constraint types.">
<polygon fill="white" stroke="#666666" points="549.5,-129 415.5,-129 415.5,-110 549.5,-110 549.5,-129"/>
<text text-anchor="middle" x="482.5" y="-117" font-family="Helvetica,sans-Serif" font-size="10.00">cantera/thermo/Elements.h</text>
</a>
</g>
</g>
<!-- Node2&#45;&gt;Node20 -->
<g id="edge20_Node000002_Node000020" class="edge">
<title>Node2&#45;&gt;Node20</title>
<g id="a_edge20_Node000002_Node000020"><a xlink:title=" ">
<path fill="none" stroke="#63b8ff" d="M270.76,-222.34C218.54,-214.66 155.83,-198.27 184.5,-165 191.72,-156.63 319.36,-139.91 405.23,-129.51"/>
<polygon fill="#63b8ff" stroke="#63b8ff" points="405.71,-132.98 415.22,-128.31 404.87,-126.03 405.71,-132.98"/>
</a>
</g>
</g>
<!-- Node21 -->
<g id="Node000021" class="node">
<title>Node21</title>
<g id="a_Node000021"><a xlink:href="../../d6/df6/ValueCache_8h.html" target="_top" xlink:title=" ">
<polygon fill="white" stroke="#666666" points="137,-184 0,-184 0,-165 137,-165 137,-184"/>
<text text-anchor="middle" x="68.5" y="-172" font-family="Helvetica,sans-Serif" font-size="10.00">cantera/base/ValueCache.h</text>
</a>
</g>
</g>
<!-- Node2&#45;&gt;Node21 -->
<g id="edge22_Node000002_Node000021" class="edge">
<title>Node2&#45;&gt;Node21</title>
<g id="a_edge22_Node000002_Node000021"><a xlink:title=" ">
<path fill="none" stroke="#63b8ff" d="M289.24,-219.98C243.46,-210.76 170.36,-196.03 120.95,-186.07"/>
<polygon fill="#63b8ff" stroke="#63b8ff" points="121.58,-182.63 111.09,-184.08 120.2,-189.49 121.58,-182.63"/>
</a>
</g>
</g>
<!-- Node4 -->
<g id="Node000004" class="node">
<title>Node4</title>
<g id="a_Node000004"><a xlink:href="../../d9/ddc/ct__defs_8h.html" target="_top" xlink:title="This file contains definitions of constants, types and terms that are used in internal routines and a...">
<polygon fill="white" stroke="#666666" points="760,-74 703,-74 703,-55 760,-55 760,-74"/>
<text text-anchor="middle" x="731.5" y="-62" font-family="Helvetica,sans-Serif" font-size="10.00">ct_defs.h</text>
</a>
</g>
</g>
<!-- Node3&#45;&gt;Node4 -->
<g id="edge3_Node000003_Node000004" class="edge">
<title>Node3&#45;&gt;Node4</title>
<g id="a_edge3_Node000003_Node000004"><a xlink:title=" ">
<path fill="none" stroke="#63b8ff" d="M483.18,-165C511.36,-156.67 554.75,-143.2 591.5,-129 602.58,-124.72 666,-95.66 703.57,-78.38"/>
<polygon fill="#63b8ff" stroke="#63b8ff" points="705.35,-81.41 712.97,-74.05 702.42,-75.05 705.35,-81.41"/>
</a>
</g>
</g>
<!-- Node15 -->
<g id="Node000015" class="node">
<title>Node15</title>
<g id="a_Node000015"><a xlink:href="../../db/def/fmt_8h.html" target="_top" xlink:title="Wrapper for either system&#45;installed or local headers for fmt.">
<polygon fill="white" stroke="#666666" points="359.5,-129 261.5,-129 261.5,-110 359.5,-110 359.5,-129"/>
<text text-anchor="middle" x="310.5" y="-117" font-family="Helvetica,sans-Serif" font-size="10.00">cantera/base/fmt.h</text>
</a>
</g>
</g>
<!-- Node3&#45;&gt;Node15 -->
<g id="edge14_Node000003_Node000015" class="edge">
<title>Node3&#45;&gt;Node15</title>
<g id="a_edge14_Node000003_Node000015"><a xlink:title=" ">
<path fill="none" stroke="#63b8ff" d="M430.52,-164.98C407,-156.27 370.21,-142.63 343.56,-132.75"/>
<polygon fill="#63b8ff" stroke="#63b8ff" points="344.49,-129.36 333.89,-129.17 342.05,-135.93 344.49,-129.36"/>
</a>
</g>
</g>
<!-- Node19 -->
<g id="Node000019" class="node">
<title>Node19</title>
<g id="a_Node000019"><a xlink:title=" ">
<polygon fill="#e0e0e0" stroke="#999999" points="703,-129 644,-129 644,-110 703,-110 703,-129"/>
<text text-anchor="middle" x="673.5" y="-117" font-family="Helvetica,sans-Serif" font-size="10.00">exception</text>
</a>
</g>
</g>
<!-- Node3&#45;&gt;Node19 -->
<g id="edge19_Node000003_Node000019" class="edge">
<title>Node3&#45;&gt;Node19</title>
<g id="a_edge19_Node000003_Node000019"><a xlink:title=" ">
<path fill="none" stroke="#63b8ff" d="M488.85,-164.98C528.49,-155.44 592.61,-139.99 633.91,-130.04"/>
<polygon fill="#63b8ff" stroke="#63b8ff" points="634.98,-133.38 643.88,-127.63 633.34,-126.57 634.98,-133.38"/>
</a>
</g>
</g>
<!-- Node5 -->
<g id="Node000005" class="node">
<title>Node5</title>
<g id="a_Node000005"><a xlink:href="../../db/d16/config_8h_source.html" target="_top" xlink:title=" ">
<polygon fill="white" stroke="#666666" points="481,-19 430,-19 430,0 481,0 481,-19"/>
<text text-anchor="middle" x="455.5" y="-7" font-family="Helvetica,sans-Serif" font-size="10.00">config.h</text>
</a>
</g>
</g>
<!-- Node4&#45;&gt;Node5 -->
<g id="edge4_Node000004_Node000005" class="edge">
<title>Node4&#45;&gt;Node5</title>
<g id="a_edge4_Node000004_Node000005"><a xlink:title=" ">
<path fill="none" stroke="#63b8ff" d="M702.83,-58.74C659.3,-51.39 573.7,-36.5 490.9,-18.98"/>
<polygon fill="#63b8ff" stroke="#63b8ff" points="491.59,-15.55 481.08,-16.89 490.13,-22.39 491.59,-15.55"/>
</a>
</g>
</g>
<!-- Node6 -->
<g id="Node000006" class="node">
<title>Node6</title>
<g id="a_Node000006"><a xlink:title=" ">
<polygon fill="#e0e0e0" stroke="#999999" points="543.5,-19 499.5,-19 499.5,0 543.5,0 543.5,-19"/>
<text text-anchor="middle" x="521.5" y="-7" font-family="Helvetica,sans-Serif" font-size="10.00">cmath</text>
</a>
</g>
</g>
<!-- Node4&#45;&gt;Node6 -->
<g id="edge5_Node000004_Node000006" class="edge">
<title>Node4&#45;&gt;Node6</title>
<g id="a_edge5_Node000004_Node000006"><a xlink:title=" ">
<path fill="none" stroke="#63b8ff" d="M702.92,-56.62C669.41,-48.5 611.95,-34.43 553.59,-19.24"/>
<polygon fill="#63b8ff" stroke="#63b8ff" points="554.39,-15.83 543.83,-16.69 552.62,-22.61 554.39,-15.83"/>
</a>
</g>
</g>
<!-- Node7 -->
<g id="Node000007" class="node">
<title>Node7</title>
<g id="a_Node000007"><a xlink:title=" ">
<polygon fill="#e0e0e0" stroke="#999999" points="607,-19 562,-19 562,0 607,0 607,-19"/>
<text text-anchor="middle" x="584.5" y="-7" font-family="Helvetica,sans-Serif" font-size="10.00">cstdlib</text>
</a>
</g>
</g>
<!-- Node4&#45;&gt;Node7 -->
<g id="edge6_Node000004_Node000007" class="edge">
<title>Node4&#45;&gt;Node7</title>
<g id="a_edge6_Node000004_Node000007"><a xlink:title=" ">
<path fill="none" stroke="#63b8ff" d="M707.88,-54.98C683.16,-46.07 644.19,-32.02 616.67,-22.1"/>
<polygon fill="#63b8ff" stroke="#63b8ff" points="617.69,-18.75 607.09,-18.65 615.31,-25.33 617.69,-18.75"/>
</a>
</g>
</g>
<!-- Node8 -->
<g id="Node000008" class="node">
<title>Node8</title>
<g id="a_Node000008"><a xlink:title=" ">
<polygon fill="#e0e0e0" stroke="#999999" points="669.5,-19 625.5,-19 625.5,0 669.5,0 669.5,-19"/>
<text text-anchor="middle" x="647.5" y="-7" font-family="Helvetica,sans-Serif" font-size="10.00">vector</text>
</a>
</g>
</g>
<!-- Node4&#45;&gt;Node8 -->
<g id="edge7_Node000004_Node000008" class="edge">
<title>Node4&#45;&gt;Node8</title>
<g id="a_edge7_Node000004_Node000008"><a xlink:title=" ">
<path fill="none" stroke="#63b8ff" d="M718,-54.98C705.1,-46.84 685.4,-34.41 670.1,-24.76"/>
<polygon fill="#63b8ff" stroke="#63b8ff" points="671.57,-21.55 661.24,-19.17 667.83,-27.47 671.57,-21.55"/>
</a>
</g>
</g>
<!-- Node9 -->
<g id="Node000009" class="node">
<title>Node9</title>
<g id="a_Node000009"><a xlink:title=" ">
<polygon fill="#e0e0e0" stroke="#999999" points="723,-19 688,-19 688,0 723,0 723,-19"/>
<text text-anchor="middle" x="705.5" y="-7" font-family="Helvetica,sans-Serif" font-size="10.00">map</text>
</a>
</g>
</g>
<!-- Node4&#45;&gt;Node9 -->
<g id="edge8_Node000004_Node000009" class="edge">
<title>Node4&#45;&gt;Node9</title>
<g id="a_edge8_Node000004_Node000009"><a xlink:title=" ">
<path fill="none" stroke="#63b8ff" d="M727.21,-54.75C723.69,-47.57 718.59,-37.18 714.22,-28.27"/>
<polygon fill="#63b8ff" stroke="#63b8ff" points="717.26,-26.53 709.71,-19.09 710.98,-29.61 717.26,-26.53"/>
</a>
</g>
</g>
<!-- Node10 -->
<g id="Node000010" class="node">
<title>Node10</title>
<g id="a_Node000010"><a xlink:title=" ">
<polygon fill="#e0e0e0" stroke="#999999" points="771.5,-19 741.5,-19 741.5,0 771.5,0 771.5,-19"/>
<text text-anchor="middle" x="756.5" y="-7" font-family="Helvetica,sans-Serif" font-size="10.00">set</text>
</a>
</g>
</g>
<!-- Node4&#45;&gt;Node10 -->
<g id="edge9_Node000004_Node000010" class="edge">
<title>Node4&#45;&gt;Node10</title>
<g id="a_edge9_Node000004_Node000010"><a xlink:title=" ">
<path fill="none" stroke="#63b8ff" d="M735.63,-54.75C739.01,-47.57 743.92,-37.18 748.12,-28.27"/>
<polygon fill="#63b8ff" stroke="#63b8ff" points="751.35,-29.63 752.45,-19.09 745.02,-26.64 751.35,-29.63"/>
</a>
</g>
</g>
<!-- Node11 -->
<g id="Node000011" class="node">
<title>Node11</title>
<g id="a_Node000011"><a xlink:title=" ">
<polygon fill="#e0e0e0" stroke="#999999" points="831,-19 790,-19 790,0 831,0 831,-19"/>
<text text-anchor="middle" x="810.5" y="-7" font-family="Helvetica,sans-Serif" font-size="10.00">string</text>
</a>
</g>
</g>
<!-- Node4&#45;&gt;Node11 -->
<g id="edge10_Node000004_Node000011" class="edge">
<title>Node4&#45;&gt;Node11</title>
<g id="a_edge10_Node000004_Node000011"><a xlink:title=" ">
<path fill="none" stroke="#63b8ff" d="M744.19,-54.98C756.33,-46.84 774.86,-34.41 789.25,-24.76"/>
<polygon fill="#63b8ff" stroke="#63b8ff" points="791.22,-27.65 797.58,-19.17 787.32,-21.84 791.22,-27.65"/>
</a>
</g>
</g>
<!-- Node12 -->
<g id="Node000012" class="node">
<title>Node12</title>
<g id="a_Node000012"><a xlink:title=" ">
<polygon fill="#e0e0e0" stroke="#999999" points="905.5,-19 849.5,-19 849.5,0 905.5,0 905.5,-19"/>
<text text-anchor="middle" x="877.5" y="-7" font-family="Helvetica,sans-Serif" font-size="10.00">algorithm</text>
</a>
</g>
</g>
<!-- Node4&#45;&gt;Node12 -->
<g id="edge11_Node000004_Node000012" class="edge">
<title>Node4&#45;&gt;Node12</title>
<g id="a_edge11_Node000004_Node000012"><a xlink:title=" ">
<path fill="none" stroke="#63b8ff" d="M754.96,-54.98C779.08,-46.23 816.87,-32.51 844.1,-22.62"/>
<polygon fill="#63b8ff" stroke="#63b8ff" points="845.41,-25.87 853.62,-19.17 843.02,-19.29 845.41,-25.87"/>
</a>
</g>
</g>
<!-- Node13 -->
<g id="Node000013" class="node">
<title>Node13</title>
<g id="a_Node000013"><a xlink:title=" ">
<polygon fill="#e0e0e0" stroke="#999999" points="975.5,-19 923.5,-19 923.5,0 975.5,0 975.5,-19"/>
<text text-anchor="middle" x="949.5" y="-7" font-family="Helvetica,sans-Serif" font-size="10.00">memory</text>
</a>
</g>
</g>
<!-- Node4&#45;&gt;Node13 -->
<g id="edge12_Node000004_Node000013" class="edge">
<title>Node4&#45;&gt;Node13</title>
<g id="a_edge12_Node000004_Node000013"><a xlink:title=" ">
<path fill="none" stroke="#63b8ff" d="M760.45,-56.46C800.01,-46.84 870.94,-29.6 913.77,-19.19"/>
<polygon fill="#63b8ff" stroke="#63b8ff" points="914.61,-22.59 923.5,-16.82 912.95,-15.78 914.61,-22.59"/>
</a>
</g>
</g>
<!-- Node14 -->
<g id="Node000014" class="node">
<title>Node14</title>
<g id="a_Node000014"><a xlink:title=" ">
<polygon fill="#e0e0e0" stroke="#999999" points="1053,-19 994,-19 994,0 1053,0 1053,-19"/>
<text text-anchor="middle" x="1023.5" y="-7" font-family="Helvetica,sans-Serif" font-size="10.00">functional</text>
</a>
</g>
</g>
<!-- Node4&#45;&gt;Node14 -->
<g id="edge13_Node000004_Node000014" class="edge">
<title>Node4&#45;&gt;Node14</title>
<g id="a_edge13_Node000004_Node000014"><a xlink:title=" ">
<path fill="none" stroke="#63b8ff" d="M760.03,-58.87C805.26,-51.44 896.43,-36.14 983.9,-19.05"/>
<polygon fill="#63b8ff" stroke="#63b8ff" points="984.58,-22.48 993.72,-17.12 983.23,-15.61 984.58,-22.48"/>
</a>
</g>
</g>
<!-- Node15&#45;&gt;Node4 -->
<g id="edge15_Node000015_Node000004" class="edge">
<title>Node15&#45;&gt;Node4</title>
<g id="a_edge15_Node000015_Node000004"><a xlink:title=" ">
<path fill="none" stroke="#63b8ff" d="M359.67,-111.81C364.35,-111.19 369.01,-110.58 373.5,-110 489.41,-94.98 626.56,-78.21 692.4,-70.22"/>
<polygon fill="#63b8ff" stroke="#63b8ff" points="693.21,-73.65 702.72,-68.97 692.37,-66.7 693.21,-73.65"/>
</a>
</g>
</g>
<!-- Node16 -->
<g id="Node000016" class="node">
<title>Node16</title>
<g id="a_Node000016"><a xlink:title=" ">
<polygon fill="#e0e0e0" stroke="#999999" points="515.5,-74 393.5,-74 393.5,-55 515.5,-55 515.5,-74"/>
<text text-anchor="middle" x="454.5" y="-62" font-family="Helvetica,sans-Serif" font-size="10.00">cantera/ext/fmt/format.h</text>
</a>
</g>
</g>
<!-- Node15&#45;&gt;Node16 -->
<g id="edge16_Node000015_Node000016" class="edge">
<title>Node15&#45;&gt;Node16</title>
<g id="a_edge16_Node000015_Node000016"><a xlink:title=" ">
<path fill="none" stroke="#63b8ff" d="M333.64,-109.98C357.32,-101.27 394.37,-87.63 421.21,-77.75"/>
<polygon fill="#63b8ff" stroke="#63b8ff" points="422.77,-80.91 430.94,-74.17 420.35,-74.34 422.77,-80.91"/>
</a>
</g>
</g>
<!-- Node17 -->
<g id="Node000017" class="node">
<title>Node17</title>
<g id="a_Node000017"><a xlink:title=" ">
<polygon fill="#e0e0e0" stroke="#999999" points="227.5,-74 111.5,-74 111.5,-55 227.5,-55 227.5,-74"/>
<text text-anchor="middle" x="169.5" y="-62" font-family="Helvetica,sans-Serif" font-size="10.00">cantera/ext/fmt/printf.h</text>
</a>
</g>
</g>
<!-- Node15&#45;&gt;Node17 -->
<g id="edge17_Node000015_Node000017" class="edge">
<title>Node15&#45;&gt;Node17</title>
<g id="a_edge17_Node000015_Node000017"><a xlink:title=" ">
<path fill="none" stroke="#63b8ff" d="M287.85,-109.98C264.65,-101.27 228.38,-87.63 202.1,-77.75"/>
<polygon fill="#63b8ff" stroke="#63b8ff" points="203.16,-74.41 192.57,-74.17 200.7,-80.97 203.16,-74.41"/>
</a>
</g>
</g>
<!-- Node18 -->
<g id="Node000018" class="node">
<title>Node18</title>
<g id="a_Node000018"><a xlink:title=" ">
<polygon fill="#e0e0e0" stroke="#999999" points="375,-74 246,-74 246,-55 375,-55 375,-74"/>
<text text-anchor="middle" x="310.5" y="-62" font-family="Helvetica,sans-Serif" font-size="10.00">cantera/ext/fmt/ostream.h</text>
</a>
</g>
</g>
<!-- Node15&#45;&gt;Node18 -->
<g id="edge18_Node000015_Node000018" class="edge">
<title>Node15&#45;&gt;Node18</title>
<g id="a_edge18_Node000015_Node000018"><a xlink:title=" ">
<path fill="none" stroke="#63b8ff" d="M310.5,-109.75C310.5,-102.8 310.5,-92.85 310.5,-84.13"/>
<polygon fill="#63b8ff" stroke="#63b8ff" points="314,-84.09 310.5,-74.09 307,-84.09 314,-84.09"/>
</a>
</g>
</g>
<!-- Node20&#45;&gt;Node4 -->
<g id="edge21_Node000020_Node000004" class="edge">
<title>Node20&#45;&gt;Node4</title>
<g id="a_edge21_Node000020_Node000004"><a xlink:title=" ">
<path fill="none" stroke="#63b8ff" d="M522.51,-109.98C569.41,-100 646.61,-83.57 692.9,-73.72"/>
<polygon fill="#63b8ff" stroke="#63b8ff" points="693.8,-77.1 702.85,-71.6 692.34,-70.26 693.8,-77.1"/>
</a>
</g>
</g>
<!-- Node21&#45;&gt;Node4 -->
<g id="edge23_Node000021_Node000004" class="edge">
<title>Node21&#45;&gt;Node4</title>
<g id="a_edge23_Node000021_Node000004"><a xlink:title=" ">
<path fill="none" stroke="#63b8ff" d="M137.2,-165.86C212.02,-157.09 326.63,-142.2 368.5,-129 386.51,-123.32 388.46,-115.58 406.5,-110 506.54,-79.07 630.52,-69.61 692.46,-66.74"/>
<polygon fill="#63b8ff" stroke="#63b8ff" points="692.72,-70.23 702.56,-66.31 692.42,-63.24 692.72,-70.23"/>
</a>
</g>
</g>
<!-- Node22 -->
<g id="Node000022" class="node">
<title>Node22</title>
<g id="a_Node000022"><a xlink:title=" ">
<polygon fill="#e0e0e0" stroke="#999999" points="88.5,-129 48.5,-129 48.5,-110 88.5,-110 88.5,-129"/>
<text text-anchor="middle" x="68.5" y="-117" font-family="Helvetica,sans-Serif" font-size="10.00">limits</text>
</a>
</g>
</g>
<!-- Node21&#45;&gt;Node22 -->
<g id="edge24_Node000021_Node000022" class="edge">
<title>Node21&#45;&gt;Node22</title>
<g id="a_edge24_Node000021_Node000022"><a xlink:title=" ">
<path fill="none" stroke="#63b8ff" d="M68.5,-164.75C68.5,-157.8 68.5,-147.85 68.5,-139.13"/>
<polygon fill="#63b8ff" stroke="#63b8ff" points="72,-139.09 68.5,-129.09 65,-139.09 72,-139.09"/>
</a>
</g>
</g>
<!-- Node23&#45;&gt;Node4 -->
<g id="edge26_Node000023_Node000004" class="edge">
<title>Node23&#45;&gt;Node4</title>
<g id="a_edge26_Node000023_Node000004"><a xlink:title=" ">
<path fill="none" stroke="#63b8ff" d="M1156.52,-439.8C1174.99,-422.76 1212.5,-382.91 1212.5,-340.5 1212.5,-340.5 1212.5,-340.5 1212.5,-173.5 1212.5,-83.04 884.5,-68.33 770.21,-65.95"/>
<polygon fill="#63b8ff" stroke="#63b8ff" points="770.21,-62.45 760.15,-65.77 770.08,-69.45 770.21,-62.45"/>
</a>
</g>
</g>
<!-- Node24 -->
<g id="Node000024" class="node">
<title>Node24</title>
<g id="a_Node000024"><a xlink:title=" ">
<polygon fill="#e0e0e0" stroke="#999999" points="1172,-404 1121,-404 1121,-385 1172,-385 1172,-404"/>
<text text-anchor="middle" x="1146.5" y="-392" font-family="Helvetica,sans-Serif" font-size="10.00">numeric</text>
</a>
</g>
</g>
<!-- Node23&#45;&gt;Node24 -->
<g id="edge27_Node000023_Node000024" class="edge">
<title>Node23&#45;&gt;Node24</title>
<g id="a_edge27_Node000023_Node000024"><a xlink:title=" ">
<path fill="none" stroke="#63b8ff" d="M1146.5,-439.75C1146.5,-432.8 1146.5,-422.85 1146.5,-414.13"/>
<polygon fill="#63b8ff" stroke="#63b8ff" points="1150,-414.09 1146.5,-404.09 1143,-414.09 1150,-414.09"/>
</a>
</g>
</g>
<!-- Node25&#45;&gt;Node4 -->
<g id="edge29_Node000025_Node000004" class="edge">
<title>Node25&#45;&gt;Node4</title>
<g id="a_edge29_Node000025_Node000004"><a xlink:title=" ">
<path fill="none" stroke="#63b8ff" d="M1110.38,-329.88C1131.75,-313.26 1174.5,-274.52 1174.5,-230.5 1174.5,-230.5 1174.5,-230.5 1174.5,-173.5 1174.5,-90.66 878.44,-71.09 770.38,-66.7"/>
<polygon fill="#63b8ff" stroke="#63b8ff" points="770.35,-63.2 760.23,-66.31 770.08,-70.19 770.35,-63.2"/>
</a>
</g>
</g>
<!-- Node26&#45;&gt;Node4 -->
<g id="edge31_Node000026_Node000004" class="edge">
<title>Node26&#45;&gt;Node4</title>
<g id="a_edge31_Node000026_Node000004"><a xlink:title=" ">
<path fill="none" stroke="#63b8ff" d="M1017.81,-274.88C1036.26,-267.83 1059.98,-256.18 1075.5,-239 1098.5,-213.54 1114.21,-194.97 1097.5,-165 1074.86,-124.39 1052.08,-126.22 1008.5,-110 927.41,-79.81 825.46,-70.09 770.66,-66.97"/>
<polygon fill="#63b8ff" stroke="#63b8ff" points="770.52,-63.46 760.35,-66.43 770.16,-70.45 770.52,-63.46"/>
</a>
</g>
</g>
<!-- Node27 -->
<g id="Node000027" class="node">
<title>Node27</title>
<g id="a_Node000027"><a xlink:href="../../dd/d2a/AnyMap_8h.html" target="_top" xlink:title=" ">
<polygon fill="white" stroke="#666666" points="892.5,-239 772.5,-239 772.5,-220 892.5,-220 892.5,-239"/>
<text text-anchor="middle" x="832.5" y="-227" font-family="Helvetica,sans-Serif" font-size="10.00">cantera/base/AnyMap.h</text>
</a>
</g>
</g>
<!-- Node26&#45;&gt;Node27 -->
<g id="edge32_Node000026_Node000027" class="edge">
<title>Node26&#45;&gt;Node27</title>
<g id="a_edge32_Node000026_Node000027"><a xlink:title=" ">
<path fill="none" stroke="#63b8ff" d="M965.11,-274.98C938.7,-266.13 897.15,-252.19 867.61,-242.28"/>
<polygon fill="#63b8ff" stroke="#63b8ff" points="868.68,-238.94 858.08,-239.08 866.45,-245.58 868.68,-238.94"/>
</a>
</g>
</g>
<!-- Node27&#45;&gt;Node3 -->
<g id="edge34_Node000027_Node000003" class="edge">
<title>Node27&#45;&gt;Node3</title>
<g id="a_edge34_Node000027_Node000003"><a xlink:title=" ">
<path fill="none" stroke="#63b8ff" d="M772.45,-220.1C705.2,-210.7 596.31,-195.47 524.8,-185.47"/>
<polygon fill="#63b8ff" stroke="#63b8ff" points="524.92,-181.95 514.53,-184.03 523.95,-188.89 524.92,-181.95"/>
</a>
</g>
</g>
<!-- Node27&#45;&gt;Node4 -->
<g id="edge33_Node000027_Node000004" class="edge">
<title>Node27&#45;&gt;Node4</title>
<g id="a_edge33_Node000027_Node000004"><a xlink:title=" ">
<path fill="none" stroke="#63b8ff" d="M825.1,-219.94C817.71,-211.2 806.21,-197.09 797.5,-184 774.65,-149.68 752.18,-106.87 740.26,-83.24"/>
<polygon fill="#63b8ff" stroke="#63b8ff" points="743.3,-81.48 735.7,-74.1 737.04,-84.61 743.3,-81.48"/>
</a>
</g>
</g>
<!-- Node28 -->
<g id="Node000028" class="node">
<title>Node28</title>
<g id="a_Node000028"><a xlink:href="../../da/d58/Units_8h.html" target="_top" xlink:title="Header for unit conversion utilities, which are used to translate user input from input files (See In...">
<polygon fill="white" stroke="#666666" points="750,-184 643,-184 643,-165 750,-165 750,-184"/>
<text text-anchor="middle" x="696.5" y="-172" font-family="Helvetica,sans-Serif" font-size="10.00">cantera/base/Units.h</text>
</a>
</g>
</g>
<!-- Node27&#45;&gt;Node28 -->
<g id="edge35_Node000027_Node000028" class="edge">
<title>Node27&#45;&gt;Node28</title>
<g id="a_edge35_Node000027_Node000028"><a xlink:title=" ">
<path fill="none" stroke="#63b8ff" d="M810.65,-219.98C788.38,-211.3 753.6,-197.75 728.28,-187.88"/>
<polygon fill="#63b8ff" stroke="#63b8ff" points="729.34,-184.54 718.75,-184.17 726.79,-191.06 729.34,-184.54"/>
</a>
</g>
</g>
<!-- Node29 -->
<g id="Node000029" class="node">
<title>Node29</title>
<g id="a_Node000029"><a xlink:title=" ">
<polygon fill="#e0e0e0" stroke="#999999" points="625,-184 542,-184 542,-165 625,-165 625,-184"/>
<text text-anchor="middle" x="583.5" y="-172" font-family="Helvetica,sans-Serif" font-size="10.00">unordered_map</text>
</a>
</g>
</g>
<!-- Node27&#45;&gt;Node29 -->
<g id="edge37_Node000027_Node000029" class="edge">
<title>Node27&#45;&gt;Node29</title>
<g id="a_edge37_Node000027_Node000029"><a xlink:title=" ">
<path fill="none" stroke="#63b8ff" d="M792.49,-219.98C749.33,-210.8 680.52,-196.15 633.74,-186.19"/>
<polygon fill="#63b8ff" stroke="#63b8ff" points="634.33,-182.74 623.82,-184.08 632.87,-189.59 634.33,-182.74"/>
</a>
</g>
</g>
<!-- Node30 -->
<g id="Node000030" class="node">
<title>Node30</title>
<g id="a_Node000030"><a xlink:title=" ">
<polygon fill="#e0e0e0" stroke="#999999" points="1020.5,-184 958.5,-184 958.5,-165 1020.5,-165 1020.5,-184"/>
<text text-anchor="middle" x="989.5" y="-172" font-family="Helvetica,sans-Serif" font-size="10.00">filesystem</text>
</a>
</g>
</g>
<!-- Node27&#45;&gt;Node30 -->
<g id="edge38_Node000027_Node000030" class="edge">
<title>Node27&#45;&gt;Node30</title>
<g id="a_edge38_Node000027_Node000030"><a xlink:title=" ">
<path fill="none" stroke="#63b8ff" d="M857.72,-219.98C883.86,-211.16 924.9,-197.31 954.23,-187.41"/>
<polygon fill="#63b8ff" stroke="#63b8ff" points="955.72,-190.6 964.08,-184.08 953.48,-183.96 955.72,-190.6"/>
</a>
</g>
</g>
<!-- Node31 -->
<g id="Node000031" class="node">
<title>Node31</title>
<g id="a_Node000031"><a xlink:title=" ">
<polygon fill="#e0e0e0" stroke="#999999" points="1070.5,-184 1038.5,-184 1038.5,-165 1070.5,-165 1070.5,-184"/>
<text text-anchor="middle" x="1054.5" y="-172" font-family="Helvetica,sans-Serif" font-size="10.00">any</text>
</a>
</g>
</g>
<!-- Node27&#45;&gt;Node31 -->
<g id="edge39_Node000027_Node000031" class="edge">
<title>Node27&#45;&gt;Node31</title>
<g id="a_edge39_Node000027_Node000031"><a xlink:title=" ">
<path fill="none" stroke="#63b8ff" d="M876.26,-220C914.29,-212.3 970.99,-200.08 1028.78,-183.97"/>
<polygon fill="#63b8ff" stroke="#63b8ff" points="1029.77,-187.32 1038.44,-181.24 1027.87,-180.59 1029.77,-187.32"/>
</a>
</g>
</g>
<!-- Node32 -->
<g id="Node000032" class="node">
<title>Node32</title>
<g id="a_Node000032"><a xlink:href="../../da/d4c/AnyMap_8inl_8h.html" target="_top" xlink:title=" ">
<polygon fill="white" stroke="#666666" points="940,-184 807,-184 807,-165 940,-165 940,-184"/>
<text text-anchor="middle" x="873.5" y="-172" font-family="Helvetica,sans-Serif" font-size="10.00">cantera/base/AnyMap.inl.h</text>
</a>
</g>
</g>
<!-- Node27&#45;&gt;Node32 -->
<g id="edge40_Node000027_Node000032" class="edge">
<title>Node27&#45;&gt;Node32</title>
<g id="a_edge40_Node000027_Node000032"><a xlink:title=" ">
<path fill="none" stroke="#63b8ff" d="M834.1,-219.75C838.37,-212.11 846.74,-200.82 854.81,-191.56"/>
<polygon fill="#63b8ff" stroke="#63b8ff" points="857.5,-193.81 861.72,-184.09 852.37,-189.05 857.5,-193.81"/>
</a>
</g>
</g>
<!-- Node28&#45;&gt;Node4 -->
<g id="edge36_Node000028_Node000004" class="edge">
<title>Node28&#45;&gt;Node4</title>
<g id="a_edge36_Node000028_Node000004"><a xlink:title=" ">
<path fill="none" stroke="#63b8ff" d="M699.43,-164.99C702.49,-156.04 707.41,-141.56 711.5,-129 716.43,-113.87 721.84,-96.65 725.79,-83.96"/>
<polygon fill="#63b8ff" stroke="#63b8ff" points="729.22,-84.73 728.84,-74.15 722.53,-82.66 729.22,-84.73"/>
</a>
</g>
</g>
<!-- Node32&#45;&gt;Node27 -->
<g id="edge41_Node000032_Node000027" class="edge">
<title>Node32&#45;&gt;Node27</title>
<g id="a_edge41_Node000032_Node000027"><a xlink:title=" ">
<path fill="none" stroke="#63b8ff" d="M871.99,-184.09C867.78,-191.68 859.44,-202.95 851.36,-212.24"/>
<polygon fill="#63b8ff" stroke="#63b8ff" points="848.64,-210.02 844.44,-219.75 853.79,-214.77 848.64,-210.02"/>
</a>
</g>
</g>
<!-- Node34 -->
<g id="Node000034" class="node">
<title>Node34</title>
<g id="a_Node000034"><a xlink:href="../../d7/d01/ThermoPhase_8h.html" target="_top" xlink:title="Header file for class ThermoPhase, the base class for phases with thermodynamic properties,...">
<polygon fill="white" stroke="#666666" points="758.5,-404 672.5,-404 672.5,-385 758.5,-385 758.5,-404"/>
<text text-anchor="middle" x="715.5" y="-392" font-family="Helvetica,sans-Serif" font-size="10.00">ThermoPhase.h</text>
</a>
</g>
</g>
<!-- Node33&#45;&gt;Node34 -->
<g id="edge43_Node000033_Node000034" class="edge">
<title>Node33&#45;&gt;Node34</title>
<g id="a_edge43_Node000033_Node000034"><a xlink:title=" ">
<path fill="none" stroke="#63b8ff" d="M715.5,-439.75C715.5,-432.8 715.5,-422.85 715.5,-414.13"/>
<polygon fill="#63b8ff" stroke="#63b8ff" points="719,-414.09 715.5,-404.09 712,-414.09 719,-414.09"/>
</a>
</g>
</g>
<!-- Node37 -->
<g id="Node000037" class="node">
<title>Node37</title>
<g id="a_Node000037"><a xlink:href="../../d6/dd5/FactoryBase_8h.html" target="_top" xlink:title="File contains the FactoryBase class declarations.">
<polygon fill="white" stroke="#666666" points="550.5,-239 410.5,-239 410.5,-220 550.5,-220 550.5,-239"/>
<text text-anchor="middle" x="480.5" y="-227" font-family="Helvetica,sans-Serif" font-size="10.00">cantera/base/FactoryBase.h</text>
</a>
</g>
</g>
<!-- Node33&#45;&gt;Node37 -->
<g id="edge52_Node000033_Node000037" class="edge">
<title>Node33&#45;&gt;Node37</title>
<g id="a_edge52_Node000033_Node000037"><a xlink:title=" ">
<path fill="none" stroke="#63b8ff" d="M705.01,-439.79C694.41,-430.93 677.63,-416.72 663.5,-404 600.8,-347.51 528.76,-277.72 497,-246.68"/>
<polygon fill="#63b8ff" stroke="#63b8ff" points="499.08,-243.82 489.49,-239.33 494.19,-248.83 499.08,-243.82"/>
</a>
</g>
</g>
<!-- Node34&#45;&gt;Node2 -->
<g id="edge44_Node000034_Node000002" class="edge">
<title>Node34&#45;&gt;Node2</title>
<g id="a_edge44_Node000034_Node000002"><a xlink:title=" ">
<path fill="none" stroke="#63b8ff" d="M700.59,-384.98C663.69,-364.13 564.77,-309.75 477.5,-275 443.81,-261.58 404.41,-249.79 375.04,-241.73"/>
<polygon fill="#63b8ff" stroke="#63b8ff" points="375.66,-238.27 365.09,-239.03 373.83,-245.03 375.66,-238.27"/>
</a>
</g>
</g>
<!-- Node34&#45;&gt;Node27 -->
<g id="edge51_Node000034_Node000027" class="edge">
<title>Node34&#45;&gt;Node27</title>
<g id="a_edge51_Node000034_Node000027"><a xlink:title=" ">
<path fill="none" stroke="#63b8ff" d="M716.15,-384.74C718.13,-363.59 725.78,-308.99 753.5,-275 765.03,-260.86 782.32,-250.4 797.79,-243.18"/>
<polygon fill="#63b8ff" stroke="#63b8ff" points="799.35,-246.32 807.12,-239.11 796.55,-239.91 799.35,-246.32"/>
</a>
</g>
</g>
<!-- Node34&#45;&gt;Node28 -->
<g id="edge50_Node000034_Node000028" class="edge">
<title>Node34&#45;&gt;Node28</title>
<g id="a_edge50_Node000034_Node000028"><a xlink:title=" ">
<path fill="none" stroke="#63b8ff" d="M714.76,-384.95C711.97,-352.95 702.09,-239.68 698.15,-194.4"/>
<polygon fill="#63b8ff" stroke="#63b8ff" points="701.62,-193.88 697.26,-184.22 694.64,-194.49 701.62,-193.88"/>
</a>
</g>
</g>
<!-- Node35 -->
<g id="Node000035" class="node">
<title>Node35</title>
<g id="a_Node000035"><a xlink:href="../../d6/d7a/MultiSpeciesThermo_8h.html" target="_top" xlink:title="Header for a general species thermodynamic property manager for a phase (see MultiSpeciesThermo).">
<polygon fill="white" stroke="#666666" points="883.5,-349 769.5,-349 769.5,-330 883.5,-330 883.5,-349"/>
<text text-anchor="middle" x="826.5" y="-337" font-family="Helvetica,sans-Serif" font-size="10.00">MultiSpeciesThermo.h</text>
</a>
</g>
</g>
<!-- Node34&#45;&gt;Node35 -->
<g id="edge45_Node000034_Node000035" class="edge">
<title>Node34&#45;&gt;Node35</title>
<g id="a_edge45_Node000034_Node000035"><a xlink:title=" ">
<path fill="none" stroke="#63b8ff" d="M733.33,-384.98C751.11,-376.5 778.65,-363.35 799.18,-353.54"/>
<polygon fill="#63b8ff" stroke="#63b8ff" points="800.83,-356.64 808.34,-349.17 797.81,-350.32 800.83,-356.64"/>
</a>
</g>
</g>
<!-- Node36 -->
<g id="Node000036" class="node">
<title>Node36</title>
<g id="a_Node000036"><a xlink:href="../../d4/d87/SpeciesThermoInterpType_8h.html" target="_top" xlink:title="Pure Virtual Base class for individual species reference state thermodynamic managers and text for th...">
<polygon fill="white" stroke="#666666" points="902,-294 763,-294 763,-275 902,-275 902,-294"/>
<text text-anchor="middle" x="832.5" y="-282" font-family="Helvetica,sans-Serif" font-size="10.00">SpeciesThermoInterpType.h</text>
</a>
</g>
</g>
<!-- Node35&#45;&gt;Node36 -->
<g id="edge46_Node000035_Node000036" class="edge">
<title>Node35&#45;&gt;Node36</title>
<g id="a_edge46_Node000035_Node000036"><a xlink:title=" ">
<path fill="none" stroke="#63b8ff" d="M827.49,-329.75C828.28,-322.8 829.4,-312.85 830.39,-304.13"/>
<polygon fill="#63b8ff" stroke="#63b8ff" points="833.88,-304.42 831.53,-294.09 826.92,-303.63 833.88,-304.42"/>
</a>
</g>
</g>
<!-- Node36&#45;&gt;Node3 -->
<g id="edge48_Node000036_Node000003" class="edge">
<title>Node36&#45;&gt;Node3</title>
<g id="a_edge48_Node000036_Node000003"><a xlink:title=" ">
<path fill="none" stroke="#63b8ff" d="M802.44,-274.94C734.58,-255.6 569.49,-208.55 493.27,-186.83"/>
<polygon fill="#63b8ff" stroke="#63b8ff" points="494.14,-183.44 483.56,-184.07 492.22,-190.17 494.14,-183.44"/>
</a>
</g>
</g>
<!-- Node36&#45;&gt;Node4 -->
<g id="edge47_Node000036_Node000004" class="edge">
<title>Node36&#45;&gt;Node4</title>
<g id="a_edge47_Node000036_Node000004"><a xlink:title=" ">
<path fill="none" stroke="#63b8ff" d="M902.27,-275.92C991.93,-263.31 1130.33,-232.4 1079.5,-165 1041.86,-115.08 852.47,-82.65 769.99,-70.68"/>
<polygon fill="#63b8ff" stroke="#63b8ff" points="770.41,-67.2 760.01,-69.26 769.42,-74.13 770.41,-67.2"/>
</a>
</g>
</g>
<!-- Node36&#45;&gt;Node27 -->
<g id="edge49_Node000036_Node000027" class="edge">
<title>Node36&#45;&gt;Node27</title>
<g id="a_edge49_Node000036_Node000027"><a xlink:title=" ">
<path fill="none" stroke="#63b8ff" d="M832.5,-274.75C832.5,-267.8 832.5,-257.85 832.5,-249.13"/>
<polygon fill="#63b8ff" stroke="#63b8ff" points="836,-249.09 832.5,-239.09 829,-249.09 836,-249.09"/>
</a>
</g>
</g>
<!-- Node37&#45;&gt;Node3 -->
<g id="edge55_Node000037_Node000003" class="edge">
<title>Node37&#45;&gt;Node3</title>
<g id="a_edge55_Node000037_Node000003"><a xlink:title=" ">
<path fill="none" stroke="#63b8ff" d="M476.04,-219.75C472.38,-212.57 467.09,-202.18 462.55,-193.27"/>
<polygon fill="#63b8ff" stroke="#63b8ff" points="465.53,-191.41 457.88,-184.09 459.3,-194.59 465.53,-191.41"/>
</a>
</g>
</g>
<!-- Node37&#45;&gt;Node29 -->
<g id="edge54_Node000037_Node000029" class="edge">
<title>Node37&#45;&gt;Node29</title>
<g id="a_edge54_Node000037_Node000029"><a xlink:title=" ">
<path fill="none" stroke="#63b8ff" d="M497.05,-219.98C513.39,-211.57 538.63,-198.59 557.63,-188.81"/>
<polygon fill="#63b8ff" stroke="#63b8ff" points="559.36,-191.86 566.65,-184.17 556.16,-185.63 559.36,-191.86"/>
</a>
</g>
</g>
<!-- Node38 -->
<g id="Node000038" class="node">
<title>Node38</title>
<g id="a_Node000038"><a xlink:title=" ">
<polygon fill="#e0e0e0" stroke="#999999" points="237.5,-184 193.5,-184 193.5,-165 237.5,-165 237.5,-184"/>
<text text-anchor="middle" x="215.5" y="-172" font-family="Helvetica,sans-Serif" font-size="10.00">mutex</text>
</a>
</g>
</g>
<!-- Node37&#45;&gt;Node38 -->
<g id="edge53_Node000037_Node000038" class="edge">
<title>Node37&#45;&gt;Node38</title>
<g id="a_edge53_Node000037_Node000038"><a xlink:title=" ">
<path fill="none" stroke="#63b8ff" d="M429.13,-219.94C383.78,-212.12 315.69,-199.71 247.81,-184.16"/>
<polygon fill="#63b8ff" stroke="#63b8ff" points="248.33,-180.69 237.8,-181.84 246.75,-187.51 248.33,-180.69"/>
</a>
</g>
</g>
<!-- Node39 -->
<g id="Node000039" class="node">
<title>Node39</title>
<g id="a_Node000039"><a xlink:href="../../d2/d49/global_8h.html" target="_top" xlink:title="This file contains definitions for utility functions and text for modules, inputfiles and logging,...">
<polygon fill="white" stroke="#666666" points="365.5,-184 255.5,-184 255.5,-165 365.5,-165 365.5,-184"/>
<text text-anchor="middle" x="310.5" y="-172" font-family="Helvetica,sans-Serif" font-size="10.00">cantera/base/global.h</text>
</a>
</g>
</g>
<!-- Node37&#45;&gt;Node39 -->
<g id="edge56_Node000037_Node000039" class="edge">
<title>Node37&#45;&gt;Node39</title>
<g id="a_edge56_Node000037_Node000039"><a xlink:title=" ">
<path fill="none" stroke="#63b8ff" d="M453.19,-219.98C424.65,-211.09 379.67,-197.07 347.86,-187.15"/>
<polygon fill="#63b8ff" stroke="#63b8ff" points="348.62,-183.72 338.03,-184.08 346.53,-190.4 348.62,-183.72"/>
</a>
</g>
</g>
<!-- Node39&#45;&gt;Node4 -->
<g id="edge57_Node000039_Node000004" class="edge">
<title>Node39&#45;&gt;Node4</title>
<g id="a_edge57_Node000039_Node000004"><a xlink:title=" ">
<path fill="none" stroke="#63b8ff" d="M365.75,-165.85C427.68,-156.87 523.93,-141.62 558.5,-129 574.4,-123.2 576.01,-116.82 591.5,-110 624.76,-95.34 664.37,-83.22 692.96,-75.34"/>
<polygon fill="#63b8ff" stroke="#63b8ff" points="694.22,-78.63 702.96,-72.64 692.39,-71.87 694.22,-78.63"/>
</a>
</g>
</g>
<!-- Node39&#45;&gt;Node15 -->
<g id="edge58_Node000039_Node000015" class="edge">
<title>Node39&#45;&gt;Node15</title>
<g id="a_edge58_Node000039_Node000015"><a xlink:title=" ">
<path fill="none" stroke="#63b8ff" d="M310.5,-164.75C310.5,-157.8 310.5,-147.85 310.5,-139.13"/>
<polygon fill="#63b8ff" stroke="#63b8ff" points="314,-139.09 310.5,-129.09 307,-139.09 314,-139.09"/>
</a>
</g>
</g>
</g>
</svg>

<g id="navigator" transform="translate(0 0)" fill="#404254">
  <rect fill="#f2f5e9" fill-opacity="0.5" stroke="#606060" stroke-width=".5" x="0" y="0" width="60" height="60"/>
  <use id="zoomplus" xlink:href="#zoomPlus" x="17" y="9" onmousedown="handleZoom(evt,'in')"/>
  <use id="zoomminus" xlink:href="#zoomMin" x="42" y="9" onmousedown="handleZoom(evt,'out')"/>
  <use id="reset" xlink:href="#resetDef" x="30" y="36" onmousedown="handleReset()"/>
   <use id="arrowup" xlink:href="#arrowUp" x="0" y="0" onmousedown="handlePan(0,-1)"/>
  <use id="arrowright" xlink:href="#arrowRight" x="0" y="0" onmousedown="handlePan(1,0)"/>
  <use id="arrowdown" xlink:href="#arrowDown" x="0" y="0" onmousedown="handlePan(0,1)"/>
  <use id="arrowleft" xlink:href="#arrowLeft" x="0" y="0" onmousedown="handlePan(-1,0)"/>
</g>
<svg viewBox="0 0 15 15" width="100%" height="30px" preserveAspectRatio="xMaxYMin meet">
 <g id="arrow_out" transform="scale(0.3 0.3)">
  <a xlink:href="Phase_8cpp__incl_org.svg" target="_base">
   <rect id="button" ry="5" rx="5" y="6" x="6" height="38" width="38"
        fill="#f2f5e9" fill-opacity="0.5" stroke="#606060" stroke-width="1.0"/>
   <path id="arrow"
     d="M 11.500037,31.436501 C 11.940474,20.09759 22.043105,11.32322 32.158766,21.979434 L 37.068811,17.246167 C 37.068811,17.246167 37.088388,32 37.088388,32 L 22.160133,31.978069 C 22.160133,31.978069 26.997745,27.140456 26.997745,27.140456 C 18.528582,18.264221 13.291696,25.230495 11.500037,31.436501 z"
     style="fill:#404040;"/>
  </a>
 </g>
</svg>

<style type='text/css'>
<![CDATA[
[data-mouse-over-selected='false'] { opacity: 0.7; }
[data-mouse-over-selected='true']  { opacity: 1.0; }
]]>
</style>
<script type="application/ecmascript"><![CDATA[
document.addEventListener('DOMContentLoaded', (event) => {
  highlightEdges();
  highlightAdjacentNodes();
});
]]></script>
</svg>
