<?xml version="1.0" encoding="UTF-8" standalone="no"?>
<!DOCTYPE svg PUBLIC "-//W3C//DTD SVG 1.1//EN"
 "http://www.w3.org/Graphics/SVG/1.1/DTD/svg11.dtd">
<!-- Generated by graphviz version 6.0.1 (0)
 -->
<!-- Title: FlowDeviceFactory.cpp Pages: 1 -->
<svg width="470pt" height="313pt"
 viewBox="0.00 0.00 469.81 313.00" xmlns="http://www.w3.org/2000/svg" xmlns:xlink="http://www.w3.org/1999/xlink">
<g id="graph0" class="graph" transform="scale(1 1) rotate(0) translate(4 309)">
<title>FlowDeviceFactory.cpp</title>
<!-- Node1 -->
<g id="node1" class="node">
<title>Node1</title>
<g id="a_node1"><a xlink:title=" ">
<polygon fill="#999999" stroke="#666666" points="341.5,-305 222.5,-305 222.5,-286 341.5,-286 341.5,-305"/>
<text text-anchor="middle" x="282" y="-293" font-family="Helvetica,sans-Serif" font-size="10.00">FlowDeviceFactory.cpp</text>
</a>
</g>
</g>
<!-- Node2 -->
<g id="node2" class="node">
<title>Node2</title>
<g id="a_node2"><a xlink:href="../../d5/d6c/FlowDeviceFactory_8h.html" target="_top" xlink:title=" ">
<polygon fill="white" stroke="#666666" points="267.5,-250 134.5,-250 134.5,-220 267.5,-220 267.5,-250"/>
<text text-anchor="start" x="142.5" y="-238" font-family="Helvetica,sans-Serif" font-size="10.00">cantera/zeroD/FlowDevice</text>
<text text-anchor="middle" x="201" y="-227" font-family="Helvetica,sans-Serif" font-size="10.00">Factory.h</text>
</a>
</g>
</g>
<!-- Node1&#45;&gt;Node2 -->
<g id="edge1" class="edge">
<title>Node1&#45;&gt;Node2</title>
<path fill="none" stroke="#63b8ff" d="M270.05,-285.87C259.26,-278.08 242.98,-266.32 228.93,-256.17"/>
<polygon fill="#63b8ff" stroke="#63b8ff" points="230.7,-253.13 220.54,-250.11 226.6,-258.81 230.7,-253.13"/>
</g>
<!-- Node24 -->
<g id="node12" class="node">
<title>Node24</title>
<g id="a_node12"><a xlink:href="../../de/d80/flowControllers_8h.html" target="_top" xlink:title="Some flow devices derived from class FlowDevice.">
<polygon fill="white" stroke="#666666" points="440.5,-244.5 285.5,-244.5 285.5,-225.5 440.5,-225.5 440.5,-244.5"/>
<text text-anchor="middle" x="363" y="-232.5" font-family="Helvetica,sans-Serif" font-size="10.00">cantera/zeroD/flowControllers.h</text>
</a>
</g>
</g>
<!-- Node1&#45;&gt;Node24 -->
<g id="edge17" class="edge">
<title>Node1&#45;&gt;Node24</title>
<path fill="none" stroke="#63b8ff" d="M293.95,-285.87C306.75,-276.62 327.3,-261.78 342.65,-250.69"/>
<polygon fill="#63b8ff" stroke="#63b8ff" points="344.94,-253.36 351,-244.67 340.84,-247.68 344.94,-253.36"/>
</g>
<!-- Node3 -->
<g id="node3" class="node">
<title>Node3</title>
<g id="a_node3"><a xlink:href="../../d6/dd5/FactoryBase_8h.html" target="_top" xlink:title="File contains the FactoryBase class declarations.">
<polygon fill="white" stroke="#666666" points="223,-184 83,-184 83,-165 223,-165 223,-184"/>
<text text-anchor="middle" x="153" y="-172" font-family="Helvetica,sans-Serif" font-size="10.00">cantera/base/FactoryBase.h</text>
</a>
</g>
</g>
<!-- Node2&#45;&gt;Node3 -->
<g id="edge2" class="edge">
<title>Node2&#45;&gt;Node3</title>
<path fill="none" stroke="#63b8ff" d="M189.38,-219.84C182.56,-211.52 173.89,-200.96 166.73,-192.23"/>
<polygon fill="#63b8ff" stroke="#63b8ff" points="169.24,-189.78 160.19,-184.27 163.83,-194.22 169.24,-189.78"/>
</g>
<!-- Node23 -->
<g id="node11" class="node">
<title>Node23</title>
<g id="a_node11"><a xlink:href="../../d5/dff/FlowDevice_8h.html" target="_top" xlink:title=" ">
<polygon fill="white" stroke="#666666" points="382.5,-184 241.5,-184 241.5,-165 382.5,-165 382.5,-184"/>
<text text-anchor="middle" x="312" y="-172" font-family="Helvetica,sans-Serif" font-size="10.00">cantera/zeroD/FlowDevice.h</text>
</a>
</g>
</g>
<!-- Node2&#45;&gt;Node23 -->
<g id="edge13" class="edge">
<title>Node2&#45;&gt;Node23</title>
<path fill="none" stroke="#63b8ff" d="M227.59,-219.99C245.45,-210.58 268.84,-198.24 286.48,-188.95"/>
<polygon fill="#63b8ff" stroke="#63b8ff" points="288.39,-191.9 295.61,-184.14 285.13,-185.71 288.39,-191.9"/>
</g>
<!-- Node4 -->
<g id="node4" class="node">
<title>Node4</title>
<g id="a_node4"><a xlink:title=" ">
<polygon fill="#e0e0e0" stroke="#999999" points="44,-129 0,-129 0,-110 44,-110 44,-129"/>
<text text-anchor="middle" x="22" y="-117" font-family="Helvetica,sans-Serif" font-size="10.00">mutex</text>
</a>
</g>
</g>
<!-- Node3&#45;&gt;Node4 -->
<g id="edge3" class="edge">
<title>Node3&#45;&gt;Node4</title>
<path fill="none" stroke="#63b8ff" d="M131.95,-164.98C110.59,-156.34 77.3,-142.87 52.94,-133.02"/>
<polygon fill="#63b8ff" stroke="#63b8ff" points="54.01,-129.68 43.43,-129.17 51.39,-136.17 54.01,-129.68"/>
</g>
<!-- Node5 -->
<g id="node5" class="node">
<title>Node5</title>
<g id="a_node5"><a xlink:title=" ">
<polygon fill="#e0e0e0" stroke="#999999" points="145.5,-129 62.5,-129 62.5,-110 145.5,-110 145.5,-129"/>
<text text-anchor="middle" x="104" y="-117" font-family="Helvetica,sans-Serif" font-size="10.00">unordered_map</text>
</a>
</g>
</g>
<!-- Node3&#45;&gt;Node5 -->
<g id="edge4" class="edge">
<title>Node3&#45;&gt;Node5</title>
<path fill="none" stroke="#63b8ff" d="M144.91,-164.75C137.84,-157.11 127.41,-145.82 118.85,-136.56"/>
<polygon fill="#63b8ff" stroke="#63b8ff" points="121.3,-134.06 111.94,-129.09 116.16,-138.81 121.3,-134.06"/>
</g>
<!-- Node6 -->
<g id="node6" class="node">
<title>Node6</title>
<g id="a_node6"><a xlink:href="../../db/d98/ctexceptions_8h.html" target="_top" xlink:title="Definitions for the classes that are thrown when Cantera experiences an error condition (also contain...">
<polygon fill="white" stroke="#666666" points="432,-129 292,-129 292,-110 432,-110 432,-129"/>
<text text-anchor="middle" x="362" y="-117" font-family="Helvetica,sans-Serif" font-size="10.00">cantera/base/ctexceptions.h</text>
</a>
</g>
</g>
<!-- Node3&#45;&gt;Node6 -->
<g id="edge5" class="edge">
<title>Node3&#45;&gt;Node6</title>
<path fill="none" stroke="#63b8ff" d="M186.58,-164.98C222.35,-155.91 279.12,-141.52 318.34,-131.57"/>
<polygon fill="#63b8ff" stroke="#63b8ff" points="319.32,-134.93 328.16,-129.08 317.6,-128.15 319.32,-134.93"/>
</g>
<!-- Node22 -->
<g id="node10" class="node">
<title>Node22</title>
<g id="a_node10"><a xlink:href="../../d2/d49/global_8h.html" target="_top" xlink:title="This file contains definitions for utility functions and text for modules, inputfiles,...">
<polygon fill="white" stroke="#666666" points="274,-129 164,-129 164,-110 274,-110 274,-129"/>
<text text-anchor="middle" x="219" y="-117" font-family="Helvetica,sans-Serif" font-size="10.00">cantera/base/global.h</text>
</a>
</g>
</g>
<!-- Node3&#45;&gt;Node22 -->
<g id="edge10" class="edge">
<title>Node3&#45;&gt;Node22</title>
<path fill="none" stroke="#63b8ff" d="M163.6,-164.98C173.46,-157.07 188.35,-145.11 200.22,-135.58"/>
<polygon fill="#63b8ff" stroke="#63b8ff" points="202.6,-138.16 208.2,-129.17 198.21,-132.7 202.6,-138.16"/>
</g>
<!-- Node7 -->
<g id="node7" class="node">
<title>Node7</title>
<g id="a_node7"><a xlink:href="../../d9/ddc/ct__defs_8h.html" target="_top" xlink:title="This file contains definitions of constants, types and terms that are used in internal routines and a...">
<polygon fill="#fff0f0" stroke="red" points="342.5,-19 285.5,-19 285.5,0 342.5,0 342.5,-19"/>
<text text-anchor="middle" x="314" y="-7" font-family="Helvetica,sans-Serif" font-size="10.00">ct_defs.h</text>
</a>
</g>
</g>
<!-- Node6&#45;&gt;Node7 -->
<g id="edge6" class="edge">
<title>Node6&#45;&gt;Node7</title>
<path fill="none" stroke="#63b8ff" d="M358.22,-109.86C352.85,-97.64 342.72,-74.59 334,-55 330.08,-46.19 325.68,-36.41 322.02,-28.26"/>
<polygon fill="#63b8ff" stroke="#63b8ff" points="325.15,-26.7 317.85,-19.02 318.77,-29.58 325.15,-26.7"/>
</g>
<!-- Node18 -->
<g id="node8" class="node">
<title>Node18</title>
<g id="a_node8"><a xlink:href="../../db/def/fmt_8h.html" target="_top" xlink:title="Wrapper for either system&#45;installed or local headers for fmt.">
<polygon fill="#fff0f0" stroke="red" points="325,-74 227,-74 227,-55 325,-55 325,-74"/>
<text text-anchor="middle" x="276" y="-62" font-family="Helvetica,sans-Serif" font-size="10.00">cantera/base/fmt.h</text>
</a>
</g>
</g>
<!-- Node6&#45;&gt;Node18 -->
<g id="edge7" class="edge">
<title>Node6&#45;&gt;Node18</title>
<path fill="none" stroke="#63b8ff" d="M348.18,-109.98C334.85,-101.77 314.42,-89.18 298.69,-79.49"/>
<polygon fill="#63b8ff" stroke="#63b8ff" points="300.42,-76.44 290.07,-74.17 296.75,-82.4 300.42,-76.44"/>
</g>
<!-- Node21 -->
<g id="node9" class="node">
<title>Node21</title>
<g id="a_node9"><a xlink:title=" ">
<polygon fill="#e0e0e0" stroke="#999999" points="440.5,-74 381.5,-74 381.5,-55 440.5,-55 440.5,-74"/>
<text text-anchor="middle" x="411" y="-62" font-family="Helvetica,sans-Serif" font-size="10.00">exception</text>
</a>
</g>
</g>
<!-- Node6&#45;&gt;Node21 -->
<g id="edge9" class="edge">
<title>Node6&#45;&gt;Node21</title>
<path fill="none" stroke="#63b8ff" d="M370.09,-109.75C377.16,-102.11 387.59,-90.82 396.15,-81.56"/>
<polygon fill="#63b8ff" stroke="#63b8ff" points="398.84,-83.81 403.06,-74.09 393.7,-79.06 398.84,-83.81"/>
</g>
<!-- Node18&#45;&gt;Node7 -->
<g id="edge8" class="edge">
<title>Node18&#45;&gt;Node7</title>
<path fill="none" stroke="#63b8ff" d="M282.27,-54.75C287.59,-47.34 295.36,-36.5 301.88,-27.41"/>
<polygon fill="#63b8ff" stroke="#63b8ff" points="304.86,-29.26 307.84,-19.09 299.17,-25.18 304.86,-29.26"/>
</g>
<!-- Node22&#45;&gt;Node7 -->
<g id="edge11" class="edge">
<title>Node22&#45;&gt;Node7</title>
<path fill="none" stroke="#63b8ff" d="M216.09,-109.89C212.26,-96.87 207.2,-71.91 218,-55 230.66,-35.18 254.67,-24.05 275.52,-17.88"/>
<polygon fill="#63b8ff" stroke="#63b8ff" points="276.67,-21.2 285.43,-15.23 274.86,-14.43 276.67,-21.2"/>
</g>
<!-- Node22&#45;&gt;Node18 -->
<g id="edge12" class="edge">
<title>Node22&#45;&gt;Node18</title>
<path fill="none" stroke="#63b8ff" d="M228.16,-109.98C236.5,-102.23 249.03,-90.58 259.18,-81.14"/>
<polygon fill="#63b8ff" stroke="#63b8ff" points="261.74,-83.54 266.68,-74.17 256.97,-78.42 261.74,-83.54"/>
</g>
<!-- Node23&#45;&gt;Node6 -->
<g id="edge16" class="edge">
<title>Node23&#45;&gt;Node6</title>
<path fill="none" stroke="#63b8ff" d="M320.26,-164.75C327.46,-157.11 338.11,-145.82 346.85,-136.56"/>
<polygon fill="#63b8ff" stroke="#63b8ff" points="349.58,-138.76 353.9,-129.09 344.49,-133.96 349.58,-138.76"/>
</g>
<!-- Node23&#45;&gt;Node7 -->
<g id="edge14" class="edge">
<title>Node23&#45;&gt;Node7</title>
<path fill="none" stroke="#63b8ff" d="M377.63,-164.99C400.85,-158.71 425.12,-147.84 441,-129 462.35,-103.67 469.45,-81.82 450,-55 428.06,-24.73 384.92,-14.67 353.08,-11.52"/>
<polygon fill="#63b8ff" stroke="#63b8ff" points="353.01,-8 342.77,-10.7 352.46,-14.98 353.01,-8"/>
</g>
<!-- Node23&#45;&gt;Node22 -->
<g id="edge15" class="edge">
<title>Node23&#45;&gt;Node22</title>
<path fill="none" stroke="#63b8ff" d="M297.06,-164.98C282.5,-156.69 260.13,-143.94 243.07,-134.22"/>
<polygon fill="#63b8ff" stroke="#63b8ff" points="244.64,-131.08 234.21,-129.17 241.17,-137.16 244.64,-131.08"/>
</g>
<!-- Node24&#45;&gt;Node6 -->
<g id="edge19" class="edge">
<title>Node24&#45;&gt;Node6</title>
<path fill="none" stroke="#63b8ff" d="M370.96,-225.28C381.72,-212.39 398.84,-187.37 392,-165 388.91,-154.9 382.68,-145.02 376.69,-137.15"/>
<polygon fill="#63b8ff" stroke="#63b8ff" points="379.24,-134.74 370.21,-129.2 373.82,-139.16 379.24,-134.74"/>
</g>
<!-- Node24&#45;&gt;Node23 -->
<g id="edge18" class="edge">
<title>Node24&#45;&gt;Node23</title>
<path fill="none" stroke="#63b8ff" d="M355.47,-225.37C347.79,-216.55 335.68,-202.66 326.19,-191.77"/>
<polygon fill="#63b8ff" stroke="#63b8ff" points="328.77,-189.41 319.56,-184.17 323.49,-194.01 328.77,-189.41"/>
</g>
</g>
</svg>
