<?xml version="1.0" encoding="UTF-8" standalone="no"?>
<!DOCTYPE svg PUBLIC "-//W3C//DTD SVG 1.1//EN"
 "http://www.w3.org/Graphics/SVG/1.1/DTD/svg11.dtd">
<!-- Generated by graphviz version 2.50.0 (0)
 -->
<!-- Title: ReactionPath.h Pages: 1 -->
<!--zoomable 375 -->
<svg id="main" version="1.1" xmlns="http://www.w3.org/2000/svg" xmlns:xlink="http://www.w3.org/1999/xlink" xml:space="preserve" onload="init(evt)">
<style type="text/css"><![CDATA[
.edge:hover path { stroke: red; }
.edge:hover polygon { stroke: red; fill: red; }
]]></style>
<script type="text/javascript"><![CDATA[
var edges = document.getElementsByTagName('g');
if (edges && edges.length) {
  for (var i=0;i<edges.length;i++) {
    if (edges[i].id.substr(0,4)=='edge') {
      edges[i].setAttribute('class','edge');
    }
  }
}
]]></script>
        <defs>
                <circle id="rim" cx="0" cy="0" r="7"/>
                <circle id="rim2" cx="0" cy="0" r="3.5"/>
                <g id="zoomPlus">
                        <use xlink:href="#rim" fill="#404040">
                                <set attributeName="fill" to="#808080" begin="zoomplus.mouseover" end="zoomplus.mouseout"/>
                        </use>
                        <path d="M-4,0h8M0,-4v8" fill="none" stroke="white" stroke-width="1.5" pointer-events="none"/>
                </g>
                <g id="zoomMin">
                        <use xlink:href="#rim" fill="#404040">
                                <set attributeName="fill" to="#808080" begin="zoomminus.mouseover" end="zoomminus.mouseout"/>
                        </use>
                        <path d="M-4,0h8" fill="none" stroke="white" stroke-width="1.5" pointer-events="none"/>
                </g>
                <g id="dirArrow">
                        <path fill="none" stroke="white" stroke-width="1.5" d="M0,-3.0v7 M-2.5,-0.5L0,-3.0L2.5,-0.5"/>
                </g>
               <g id="resetDef">
                       <use xlink:href="#rim2" fill="#404040">
                               <set attributeName="fill" to="#808080" begin="reset.mouseover" end="reset.mouseout"/>
                       </use>
               </g>
        </defs>

<script type="text/javascript">
var viewWidth = 618;
var viewHeight = 375;
var sectionId = 'dynsection-0';
</script>
<script xlink:href="../../svgpan.js"/>
<svg id="graph" class="graph">
<g id="viewport">
<title>ReactionPath.h</title>
<polygon fill="white" stroke="transparent" points="-4,4 -4,-371 613.63,-371 613.63,4 -4,4"/>
<!-- Node1 -->
<g id="node1" class="node">
<title>Node1</title>
<g id="a_node1"><a xlink:title="Classes for reaction path analysis.">
<polygon fill="#bfbfbf" stroke="black" points="68.5,-347.5 68.5,-366.5 152.5,-366.5 152.5,-347.5 68.5,-347.5"/>
<text text-anchor="middle" x="110.5" y="-354.5" font-family="Helvetica,sans-Serif" font-size="10.00">ReactionPath.h</text>
</a>
</g>
</g>
<!-- Node2 -->
<g id="node2" class="node">
<title>Node2</title>
<g id="a_node2"><a xlink:href="../../d1/df7/DenseMatrix_8h.html" target="_top" xlink:title="Headers for the DenseMatrix object, which deals with dense rectangular matrices and description of th...">
<polygon fill="white" stroke="black" points="170.5,-235.5 170.5,-254.5 328.5,-254.5 328.5,-235.5 170.5,-235.5"/>
<text text-anchor="middle" x="249.5" y="-242.5" font-family="Helvetica,sans-Serif" font-size="10.00">cantera/numerics/DenseMatrix.h</text>
</a>
</g>
</g>
<!-- Node1&#45;&gt;Node2 -->
<g id="edge1" class="edge">
<title>Node1&#45;&gt;Node2</title>
<path fill="none" stroke="midnightblue" d="M121.41,-347.37C145.06,-328.65 201.29,-284.15 230.76,-260.83"/>
<polygon fill="midnightblue" stroke="midnightblue" points="232.97,-263.54 238.64,-254.59 228.63,-258.05 232.97,-263.54"/>
</g>
<!-- Node19 -->
<g id="node19" class="node">
<title>Node19</title>
<g id="a_node19"><a xlink:href="../../de/d3d/Group_8h.html" target="_top" xlink:title=" ">
<polygon fill="white" stroke="black" points="0,-291.5 0,-310.5 51,-310.5 51,-291.5 0,-291.5"/>
<text text-anchor="middle" x="25.5" y="-298.5" font-family="Helvetica,sans-Serif" font-size="10.00">Group.h</text>
</a>
</g>
</g>
<!-- Node1&#45;&gt;Node19 -->
<g id="edge20" class="edge">
<title>Node1&#45;&gt;Node19</title>
<path fill="none" stroke="midnightblue" d="M96.84,-347.32C83.58,-338.9 63.23,-325.97 47.65,-316.07"/>
<polygon fill="midnightblue" stroke="midnightblue" points="49.44,-313.06 39.12,-310.65 45.69,-318.97 49.44,-313.06"/>
</g>
<!-- Node20 -->
<g id="node20" class="node">
<title>Node20</title>
<g id="a_node20"><a xlink:href="../../d5/db4/Kinetics_8h.html" target="_top" xlink:title="Base class for kinetics managers and also contains the kineticsmgr module documentation (see Kinetics...">
<polygon fill="white" stroke="black" points="80.5,-291.5 80.5,-310.5 140.5,-310.5 140.5,-291.5 80.5,-291.5"/>
<text text-anchor="middle" x="110.5" y="-298.5" font-family="Helvetica,sans-Serif" font-size="10.00">Kinetics.h</text>
</a>
</g>
</g>
<!-- Node1&#45;&gt;Node20 -->
<g id="edge22" class="edge">
<title>Node1&#45;&gt;Node20</title>
<path fill="none" stroke="midnightblue" d="M110.5,-347.08C110.5,-340.01 110.5,-329.86 110.5,-320.99"/>
<polygon fill="midnightblue" stroke="midnightblue" points="114,-320.75 110.5,-310.75 107,-320.75 114,-320.75"/>
</g>
<!-- Node3 -->
<g id="node3" class="node">
<title>Node3</title>
<g id="a_node3"><a xlink:href="../../d9/ddc/ct__defs_8h.html" target="_top" xlink:title="This file contains definitions of constants, types and terms that are used in internal routines and a...">
<polygon fill="white" stroke="black" points="170.5,-56.5 170.5,-75.5 286.5,-75.5 286.5,-56.5 170.5,-56.5"/>
<text text-anchor="middle" x="228.5" y="-63.5" font-family="Helvetica,sans-Serif" font-size="10.00">cantera/base/ct_defs.h</text>
</a>
</g>
</g>
<!-- Node2&#45;&gt;Node3 -->
<g id="edge2" class="edge">
<title>Node2&#45;&gt;Node3</title>
<path fill="none" stroke="midnightblue" d="M248.49,-235.46C245.28,-208.43 235.29,-124.24 230.77,-86.11"/>
<polygon fill="midnightblue" stroke="midnightblue" points="234.21,-85.39 229.55,-75.87 227.25,-86.21 234.21,-85.39"/>
</g>
<!-- Node12 -->
<g id="node12" class="node">
<title>Node12</title>
<g id="a_node12"><a xlink:href="../../db/d98/ctexceptions_8h.html" target="_top" xlink:title="Definitions for the classes that are thrown when Cantera experiences an error condition (also contain...">
<polygon fill="white" stroke="black" points="296.5,-174 296.5,-193 436.5,-193 436.5,-174 296.5,-174"/>
<text text-anchor="middle" x="366.5" y="-181" font-family="Helvetica,sans-Serif" font-size="10.00">cantera/base/ctexceptions.h</text>
</a>
</g>
</g>
<!-- Node2&#45;&gt;Node12 -->
<g id="edge11" class="edge">
<title>Node2&#45;&gt;Node12</title>
<path fill="none" stroke="midnightblue" d="M266.26,-235.48C285.72,-225.58 318.05,-209.14 340.71,-197.62"/>
<polygon fill="midnightblue" stroke="midnightblue" points="342.44,-200.66 349.77,-193.01 339.27,-194.42 342.44,-200.66"/>
</g>
<!-- Node17 -->
<g id="node17" class="node">
<title>Node17</title>
<g id="a_node17"><a xlink:href="../../df/dd0/Array_8h.html" target="_top" xlink:title="Header file for class Cantera::Array2D.">
<polygon fill="white" stroke="black" points="113.5,-174 113.5,-193 219.5,-193 219.5,-174 113.5,-174"/>
<text text-anchor="middle" x="166.5" y="-181" font-family="Helvetica,sans-Serif" font-size="10.00">cantera/base/Array.h</text>
</a>
</g>
</g>
<!-- Node2&#45;&gt;Node17 -->
<g id="edge17" class="edge">
<title>Node2&#45;&gt;Node17</title>
<path fill="none" stroke="midnightblue" d="M237.61,-235.48C224.3,-225.93 202.5,-210.31 186.54,-198.87"/>
<polygon fill="midnightblue" stroke="midnightblue" points="188.54,-195.99 178.37,-193.01 184.46,-201.68 188.54,-195.99"/>
</g>
<!-- Node4 -->
<g id="node4" class="node">
<title>Node4</title>
<g id="a_node4"><a xlink:href="../../db/d16/config_8h_source.html" target="_top" xlink:title=" ">
<polygon fill="white" stroke="black" points="534,-0.5 534,-19.5 585,-19.5 585,-0.5 534,-0.5"/>
<text text-anchor="middle" x="559.5" y="-7.5" font-family="Helvetica,sans-Serif" font-size="10.00">config.h</text>
</a>
</g>
</g>
<!-- Node3&#45;&gt;Node4 -->
<g id="edge3" class="edge">
<title>Node3&#45;&gt;Node4</title>
<path fill="none" stroke="midnightblue" d="M280.95,-56.44C348.87,-45.36 465.47,-26.34 523.92,-16.81"/>
<polygon fill="midnightblue" stroke="midnightblue" points="524.48,-20.26 533.79,-15.19 523.36,-13.35 524.48,-20.26"/>
</g>
<!-- Node5 -->
<g id="node5" class="node">
<title>Node5</title>
<g id="a_node5"><a xlink:title=" ">
<polygon fill="white" stroke="#bfbfbf" points="22.5,-0.5 22.5,-19.5 66.5,-19.5 66.5,-0.5 22.5,-0.5"/>
<text text-anchor="middle" x="44.5" y="-7.5" font-family="Helvetica,sans-Serif" font-size="10.00">cmath</text>
</a>
</g>
</g>
<!-- Node3&#45;&gt;Node5 -->
<g id="edge4" class="edge">
<title>Node3&#45;&gt;Node5</title>
<path fill="none" stroke="midnightblue" d="M199.34,-56.44C165.77,-46.59 110.82,-30.46 76.2,-20.3"/>
<polygon fill="midnightblue" stroke="midnightblue" points="77.17,-16.94 66.59,-17.48 75.2,-23.66 77.17,-16.94"/>
</g>
<!-- Node6 -->
<g id="node6" class="node">
<title>Node6</title>
<g id="a_node6"><a xlink:title=" ">
<polygon fill="white" stroke="#bfbfbf" points="85,-0.5 85,-19.5 130,-19.5 130,-0.5 85,-0.5"/>
<text text-anchor="middle" x="107.5" y="-7.5" font-family="Helvetica,sans-Serif" font-size="10.00">cstdlib</text>
</a>
</g>
</g>
<!-- Node3&#45;&gt;Node6 -->
<g id="edge5" class="edge">
<title>Node3&#45;&gt;Node6</title>
<path fill="none" stroke="midnightblue" d="M209.33,-56.44C189.59,-47.64 158.61,-33.81 136.01,-23.72"/>
<polygon fill="midnightblue" stroke="midnightblue" points="137.14,-20.4 126.58,-19.52 134.29,-26.79 137.14,-20.4"/>
</g>
<!-- Node7 -->
<g id="node7" class="node">
<title>Node7</title>
<g id="a_node7"><a xlink:title=" ">
<polygon fill="white" stroke="#bfbfbf" points="148.5,-0.5 148.5,-19.5 192.5,-19.5 192.5,-0.5 148.5,-0.5"/>
<text text-anchor="middle" x="170.5" y="-7.5" font-family="Helvetica,sans-Serif" font-size="10.00">vector</text>
</a>
</g>
</g>
<!-- Node3&#45;&gt;Node7 -->
<g id="edge6" class="edge">
<title>Node3&#45;&gt;Node7</title>
<path fill="none" stroke="midnightblue" d="M219.18,-56.32C210.61,-48.34 197.69,-36.31 187.31,-26.65"/>
<polygon fill="midnightblue" stroke="midnightblue" points="189.69,-24.09 179.99,-19.83 184.92,-29.21 189.69,-24.09"/>
</g>
<!-- Node8 -->
<g id="node8" class="node">
<title>Node8</title>
<g id="a_node8"><a xlink:title=" ">
<polygon fill="white" stroke="#bfbfbf" points="211,-0.5 211,-19.5 246,-19.5 246,-0.5 211,-0.5"/>
<text text-anchor="middle" x="228.5" y="-7.5" font-family="Helvetica,sans-Serif" font-size="10.00">map</text>
</a>
</g>
</g>
<!-- Node3&#45;&gt;Node8 -->
<g id="edge7" class="edge">
<title>Node3&#45;&gt;Node8</title>
<path fill="none" stroke="midnightblue" d="M228.5,-56.08C228.5,-49.01 228.5,-38.86 228.5,-29.99"/>
<polygon fill="midnightblue" stroke="midnightblue" points="232,-29.75 228.5,-19.75 225,-29.75 232,-29.75"/>
</g>
<!-- Node9 -->
<g id="node9" class="node">
<title>Node9</title>
<g id="a_node9"><a xlink:title=" ">
<polygon fill="white" stroke="#bfbfbf" points="264,-0.5 264,-19.5 305,-19.5 305,-0.5 264,-0.5"/>
<text text-anchor="middle" x="284.5" y="-7.5" font-family="Helvetica,sans-Serif" font-size="10.00">string</text>
</a>
</g>
</g>
<!-- Node3&#45;&gt;Node9 -->
<g id="edge8" class="edge">
<title>Node3&#45;&gt;Node9</title>
<path fill="none" stroke="midnightblue" d="M237.5,-56.32C245.69,-48.42 258.01,-36.55 267.97,-26.94"/>
<polygon fill="midnightblue" stroke="midnightblue" points="270.57,-29.29 275.34,-19.83 265.71,-24.26 270.57,-29.29"/>
</g>
<!-- Node10 -->
<g id="node10" class="node">
<title>Node10</title>
<g id="a_node10"><a xlink:title=" ">
<polygon fill="white" stroke="#bfbfbf" points="323.5,-0.5 323.5,-19.5 379.5,-19.5 379.5,-0.5 323.5,-0.5"/>
<text text-anchor="middle" x="351.5" y="-7.5" font-family="Helvetica,sans-Serif" font-size="10.00">algorithm</text>
</a>
</g>
</g>
<!-- Node3&#45;&gt;Node10 -->
<g id="edge9" class="edge">
<title>Node3&#45;&gt;Node10</title>
<path fill="none" stroke="midnightblue" d="M247.99,-56.44C268.14,-47.6 299.82,-33.69 322.83,-23.59"/>
<polygon fill="midnightblue" stroke="midnightblue" points="324.35,-26.74 332.1,-19.52 321.54,-20.33 324.35,-26.74"/>
</g>
<!-- Node11 -->
<g id="node11" class="node">
<title>Node11</title>
<g id="a_node11"><a xlink:title=" ">
<polygon fill="white" stroke="#bfbfbf" points="397.5,-0.5 397.5,-19.5 449.5,-19.5 449.5,-0.5 397.5,-0.5"/>
<text text-anchor="middle" x="423.5" y="-7.5" font-family="Helvetica,sans-Serif" font-size="10.00">memory</text>
</a>
</g>
</g>
<!-- Node3&#45;&gt;Node11 -->
<g id="edge10" class="edge">
<title>Node3&#45;&gt;Node11</title>
<path fill="none" stroke="midnightblue" d="M259.4,-56.44C294.25,-46.79 350.84,-31.12 387.61,-20.94"/>
<polygon fill="midnightblue" stroke="midnightblue" points="388.72,-24.26 397.43,-18.22 386.86,-17.52 388.72,-24.26"/>
</g>
<!-- Node13 -->
<g id="node13" class="node">
<title>Node13</title>
<g id="a_node13"><a xlink:href="../../db/def/fmt_8h.html" target="_top" xlink:title="Wrapper for either system&#45;installed or local headers for fmt.">
<polygon fill="white" stroke="black" points="353.5,-112.5 353.5,-131.5 451.5,-131.5 451.5,-112.5 353.5,-112.5"/>
<text text-anchor="middle" x="402.5" y="-119.5" font-family="Helvetica,sans-Serif" font-size="10.00">cantera/base/fmt.h</text>
</a>
</g>
</g>
<!-- Node12&#45;&gt;Node13 -->
<g id="edge12" class="edge">
<title>Node12&#45;&gt;Node13</title>
<path fill="none" stroke="midnightblue" d="M371.66,-173.98C376.95,-165.23 385.34,-151.37 392.03,-140.31"/>
<polygon fill="midnightblue" stroke="midnightblue" points="395.17,-141.88 397.35,-131.51 389.18,-138.25 395.17,-141.88"/>
</g>
<!-- Node16 -->
<g id="node16" class="node">
<title>Node16</title>
<g id="a_node16"><a xlink:title=" ">
<polygon fill="white" stroke="#bfbfbf" points="276,-112.5 276,-131.5 335,-131.5 335,-112.5 276,-112.5"/>
<text text-anchor="middle" x="305.5" y="-119.5" font-family="Helvetica,sans-Serif" font-size="10.00">exception</text>
</a>
</g>
</g>
<!-- Node12&#45;&gt;Node16 -->
<g id="edge16" class="edge">
<title>Node12&#45;&gt;Node16</title>
<path fill="none" stroke="midnightblue" d="M357.76,-173.98C348.34,-164.78 333.14,-149.96 321.55,-138.66"/>
<polygon fill="midnightblue" stroke="midnightblue" points="323.83,-135.99 314.22,-131.51 318.94,-141 323.83,-135.99"/>
</g>
<!-- Node13&#45;&gt;Node3 -->
<g id="edge13" class="edge">
<title>Node13&#45;&gt;Node3</title>
<path fill="none" stroke="midnightblue" d="M374.93,-112.44C345.4,-103.28 298.38,-88.69 265.62,-78.52"/>
<polygon fill="midnightblue" stroke="midnightblue" points="266.53,-75.14 255.94,-75.52 264.46,-81.82 266.53,-75.14"/>
</g>
<!-- Node14 -->
<g id="node14" class="node">
<title>Node14</title>
<g id="a_node14"><a xlink:title=" ">
<polygon fill="white" stroke="#bfbfbf" points="464.5,-56.5 464.5,-75.5 586.5,-75.5 586.5,-56.5 464.5,-56.5"/>
<text text-anchor="middle" x="525.5" y="-63.5" font-family="Helvetica,sans-Serif" font-size="10.00">cantera/ext/fmt/format.h</text>
</a>
</g>
</g>
<!-- Node13&#45;&gt;Node14 -->
<g id="edge14" class="edge">
<title>Node13&#45;&gt;Node14</title>
<path fill="none" stroke="midnightblue" d="M421.99,-112.44C442.14,-103.6 473.82,-89.69 496.83,-79.59"/>
<polygon fill="midnightblue" stroke="midnightblue" points="498.35,-82.74 506.1,-75.52 495.54,-76.33 498.35,-82.74"/>
</g>
<!-- Node15 -->
<g id="node15" class="node">
<title>Node15</title>
<g id="a_node15"><a xlink:title=" ">
<polygon fill="white" stroke="#bfbfbf" points="317,-56.5 317,-75.5 446,-75.5 446,-56.5 317,-56.5"/>
<text text-anchor="middle" x="381.5" y="-63.5" font-family="Helvetica,sans-Serif" font-size="10.00">cantera/ext/fmt/ostream.h</text>
</a>
</g>
</g>
<!-- Node13&#45;&gt;Node15 -->
<g id="edge15" class="edge">
<title>Node13&#45;&gt;Node15</title>
<path fill="none" stroke="midnightblue" d="M399.03,-112.08C396.19,-104.77 392.07,-94.18 388.54,-85.1"/>
<polygon fill="midnightblue" stroke="midnightblue" points="391.79,-83.8 384.9,-75.75 385.27,-86.34 391.79,-83.8"/>
</g>
<!-- Node17&#45;&gt;Node3 -->
<g id="edge18" class="edge">
<title>Node17&#45;&gt;Node3</title>
<path fill="none" stroke="midnightblue" d="M171.16,-173.82C181.3,-154.92 205.55,-109.75 219.04,-84.62"/>
<polygon fill="midnightblue" stroke="midnightblue" points="222.14,-86.25 223.79,-75.78 215.97,-82.94 222.14,-86.25"/>
</g>
<!-- Node18 -->
<g id="node18" class="node">
<title>Node18</title>
<g id="a_node18"><a xlink:title=" ">
<polygon fill="white" stroke="#bfbfbf" points="127.5,-112.5 127.5,-131.5 181.5,-131.5 181.5,-112.5 127.5,-112.5"/>
<text text-anchor="middle" x="154.5" y="-119.5" font-family="Helvetica,sans-Serif" font-size="10.00">iostream</text>
</a>
</g>
</g>
<!-- Node17&#45;&gt;Node18 -->
<g id="edge19" class="edge">
<title>Node17&#45;&gt;Node18</title>
<path fill="none" stroke="midnightblue" d="M164.78,-173.98C163.07,-165.49 160.39,-152.2 158.2,-141.32"/>
<polygon fill="midnightblue" stroke="midnightblue" points="161.62,-140.62 156.22,-131.51 154.76,-142 161.62,-140.62"/>
</g>
<!-- Node19&#45;&gt;Node3 -->
<g id="edge21" class="edge">
<title>Node19&#45;&gt;Node3</title>
<path fill="none" stroke="midnightblue" d="M20.37,-291.41C15.44,-282.61 8.34,-268.38 5.5,-255 0.91,-233.36 -2.5,-186.59 8.5,-168 40.07,-114.65 108.29,-89.25 160.45,-77.3"/>
<polygon fill="midnightblue" stroke="midnightblue" points="161.29,-80.7 170.32,-75.16 159.8,-73.86 161.29,-80.7"/>
</g>
<!-- Node21 -->
<g id="node21" class="node">
<title>Node21</title>
<g id="a_node21"><a xlink:href="../../dd/dfd/StoichManager_8h.html" target="_top" xlink:title=" ">
<polygon fill="white" stroke="black" points="347,-235.5 347,-254.5 436,-254.5 436,-235.5 347,-235.5"/>
<text text-anchor="middle" x="391.5" y="-242.5" font-family="Helvetica,sans-Serif" font-size="10.00">StoichManager.h</text>
</a>
</g>
</g>
<!-- Node20&#45;&gt;Node21 -->
<g id="edge23" class="edge">
<title>Node20&#45;&gt;Node21</title>
<path fill="none" stroke="midnightblue" d="M140.57,-294.22C187.42,-285.22 278.5,-267.71 337.09,-256.46"/>
<polygon fill="midnightblue" stroke="midnightblue" points="337.76,-259.89 346.92,-254.57 336.44,-253.02 337.76,-259.89"/>
</g>
<!-- Node24 -->
<g id="node24" class="node">
<title>Node24</title>
<g id="a_node24"><a xlink:href="../../d6/df6/ValueCache_8h.html" target="_top" xlink:title=" ">
<polygon fill="white" stroke="black" points="15,-235.5 15,-254.5 152,-254.5 152,-235.5 15,-235.5"/>
<text text-anchor="middle" x="83.5" y="-242.5" font-family="Helvetica,sans-Serif" font-size="10.00">cantera/base/ValueCache.h</text>
</a>
</g>
</g>
<!-- Node20&#45;&gt;Node24 -->
<g id="edge28" class="edge">
<title>Node20&#45;&gt;Node24</title>
<path fill="none" stroke="midnightblue" d="M106.04,-291.08C102.35,-283.69 96.98,-272.95 92.41,-263.81"/>
<polygon fill="midnightblue" stroke="midnightblue" points="95.48,-262.13 87.88,-254.75 89.22,-265.26 95.48,-262.13"/>
</g>
<!-- Node21&#45;&gt;Node12 -->
<g id="edge27" class="edge">
<title>Node21&#45;&gt;Node12</title>
<path fill="none" stroke="midnightblue" d="M387.92,-235.48C384.32,-226.9 378.65,-213.43 374.06,-202.48"/>
<polygon fill="midnightblue" stroke="midnightblue" points="377.18,-200.87 370.08,-193.01 370.72,-203.58 377.18,-200.87"/>
</g>
<!-- Node22 -->
<g id="node22" class="node">
<title>Node22</title>
<g id="a_node22"><a xlink:href="../../d9/d42/eigen__sparse_8h_source.html" target="_top" xlink:title=" ">
<polygon fill="white" stroke="black" points="474.5,-168.5 474.5,-198.5 592.5,-198.5 592.5,-168.5 474.5,-168.5"/>
<text text-anchor="start" x="482.5" y="-186.5" font-family="Helvetica,sans-Serif" font-size="10.00">cantera/numerics/eigen</text>
<text text-anchor="middle" x="533.5" y="-175.5" font-family="Helvetica,sans-Serif" font-size="10.00">_sparse.h</text>
</a>
</g>
</g>
<!-- Node21&#45;&gt;Node22 -->
<g id="edge24" class="edge">
<title>Node21&#45;&gt;Node22</title>
<path fill="none" stroke="midnightblue" d="M411.85,-235.48C432.34,-226.89 464.57,-213.38 490.71,-202.43"/>
<polygon fill="midnightblue" stroke="midnightblue" points="492.16,-205.62 500.03,-198.52 489.46,-199.16 492.16,-205.62"/>
</g>
<!-- Node22&#45;&gt;Node4 -->
<g id="edge25" class="edge">
<title>Node22&#45;&gt;Node4</title>
<path fill="none" stroke="midnightblue" d="M566.91,-168.34C581.89,-160.09 598.06,-148.11 606.5,-132 615.16,-115.48 603.83,-73.95 595.5,-56 590.63,-45.49 582.8,-35.28 575.68,-27.25"/>
<polygon fill="midnightblue" stroke="midnightblue" points="578.06,-24.68 568.68,-19.75 572.95,-29.45 578.06,-24.68"/>
</g>
<!-- Node23 -->
<g id="node23" class="node">
<title>Node23</title>
<g id="a_node23"><a xlink:title=" ">
<polygon fill="white" stroke="#bfbfbf" points="470,-112.5 470,-131.5 597,-131.5 597,-112.5 470,-112.5"/>
<text text-anchor="middle" x="533.5" y="-119.5" font-family="Helvetica,sans-Serif" font-size="10.00">cantera/ext/Eigen/Sparse</text>
</a>
</g>
</g>
<!-- Node22&#45;&gt;Node23 -->
<g id="edge26" class="edge">
<title>Node22&#45;&gt;Node23</title>
<path fill="none" stroke="midnightblue" d="M533.5,-168.4C533.5,-160.47 533.5,-150.46 533.5,-141.86"/>
<polygon fill="midnightblue" stroke="midnightblue" points="537,-141.66 533.5,-131.66 530,-141.66 537,-141.66"/>
</g>
<!-- Node24&#45;&gt;Node3 -->
<g id="edge29" class="edge">
<title>Node24&#45;&gt;Node3</title>
<path fill="none" stroke="midnightblue" d="M83.3,-235.4C83.22,-212.42 86.11,-148.87 118.5,-112 132.78,-95.75 153.81,-85.26 173.67,-78.54"/>
<polygon fill="midnightblue" stroke="midnightblue" points="174.79,-81.86 183.29,-75.54 172.7,-75.18 174.79,-81.86"/>
</g>
<!-- Node25 -->
<g id="node25" class="node">
<title>Node25</title>
<g id="a_node25"><a xlink:title=" ">
<polygon fill="white" stroke="#bfbfbf" points="17.5,-174 17.5,-193 57.5,-193 57.5,-174 17.5,-174"/>
<text text-anchor="middle" x="37.5" y="-181" font-family="Helvetica,sans-Serif" font-size="10.00">limits</text>
</a>
</g>
</g>
<!-- Node24&#45;&gt;Node25 -->
<g id="edge30" class="edge">
<title>Node24&#45;&gt;Node25</title>
<path fill="none" stroke="midnightblue" d="M76.91,-235.48C70.01,-226.55 59,-212.31 50.37,-201.14"/>
<polygon fill="midnightblue" stroke="midnightblue" points="52.96,-198.78 44.08,-193.01 47.43,-203.06 52.96,-198.78"/>
</g>
</g>
</svg>
        <g id="navigator" transform="translate(0 0)" fill="#404254">
                <rect fill="#f2f5e9" fill-opacity="0.5" stroke="#606060" stroke-width=".5" x="0" y="0" width="60" height="60"/>
                <use id="zoomplus" xlink:href="#zoomPlus" x="17" y="9" onmousedown="handleZoom(evt,'in')"/>
                <use id="zoomminus" xlink:href="#zoomMin" x="42" y="9" onmousedown="handleZoom(evt,'out')"/>
                <use id="reset" xlink:href="#resetDef" x="30" y="36" onmousedown="handleReset()"/>
                <g id="arrowUp" xlink:href="#dirArrow" transform="translate(30 24)" onmousedown="handlePan(0,-1)">
                  <use xlink:href="#rim" fill="#404040">
                        <set attributeName="fill" to="#808080" begin="arrowUp.mouseover" end="arrowUp.mouseout"/>
                  </use>
                  <path fill="none" stroke="white" stroke-width="1.5" d="M0,-3.0v7 M-2.5,-0.5L0,-3.0L2.5,-0.5"/>
                </g>
                <g id="arrowRight" xlink:href="#dirArrow" transform="rotate(90) translate(36 -43)" onmousedown="handlePan(1,0)">
                  <use xlink:href="#rim" fill="#404040">
                        <set attributeName="fill" to="#808080" begin="arrowRight.mouseover" end="arrowRight.mouseout"/>
                  </use>
                  <path fill="none" stroke="white" stroke-width="1.5" d="M0,-3.0v7 M-2.5,-0.5L0,-3.0L2.5,-0.5"/>
                </g>
                <g id="arrowDown" xlink:href="#dirArrow" transform="rotate(180) translate(-30 -48)" onmousedown="handlePan(0,1)">
                  <use xlink:href="#rim" fill="#404040">
                        <set attributeName="fill" to="#808080" begin="arrowDown.mouseover" end="arrowDown.mouseout"/>
                  </use>
                  <path fill="none" stroke="white" stroke-width="1.5" d="M0,-3.0v7 M-2.5,-0.5L0,-3.0L2.5,-0.5"/>
                </g>
                <g id="arrowLeft" xlink:href="#dirArrow" transform="rotate(270) translate(-36 17)" onmousedown="handlePan(-1,0)">
                  <use xlink:href="#rim" fill="#404040">
                        <set attributeName="fill" to="#808080" begin="arrowLeft.mouseover" end="arrowLeft.mouseout"/>
                  </use>
                  <path fill="none" stroke="white" stroke-width="1.5" d="M0,-3.0v7 M-2.5,-0.5L0,-3.0L2.5,-0.5"/>
                </g>
        </g>
        <svg viewBox="0 0 15 15" width="100%" height="30px" preserveAspectRatio="xMaxYMin meet">
         <g id="arrow_out" transform="scale(0.3 0.3)">
          <a xlink:href="ReactionPath_8h__incl_org.svg" target="_base">
           <rect id="button" ry="5" rx="5" y="6" x="6" height="38" width="38"
                fill="#f2f5e9" fill-opacity="0.5" stroke="#606060" stroke-width="1.0"/>
           <path id="arrow"
             d="M 11.500037,31.436501 C 11.940474,20.09759 22.043105,11.32322 32.158766,21.979434 L 37.068811,17.246167 C 37.068811,17.246167 37.088388,32 37.088388,32 L 22.160133,31.978069 C 22.160133,31.978069 26.997745,27.140456 26.997745,27.140456 C 18.528582,18.264221 13.291696,25.230495 11.500037,31.436501 z"
             style="fill:#404040;"/>
          </a>
         </g>
        </svg>
</svg>
