<?xml version="1.0" encoding="UTF-8" standalone="no"?>
<!DOCTYPE svg PUBLIC "-//W3C//DTD SVG 1.1//EN"
 "http://www.w3.org/Graphics/SVG/1.1/DTD/svg11.dtd">
<!-- Generated by graphviz version 2.43.0 (0)
 -->
<!-- Title: RedlichKisterVPSSTP.cpp Pages: 1 -->
<!--zoomable 324 -->

<svg id="main" version="1.1" xmlns="http://www.w3.org/2000/svg" xmlns:xlink="http://www.w3.org/1999/xlink" xml:space="preserve" onload="init(evt)">
<style type="text/css"><![CDATA[
.node, .edge {opacity: 0.7;}
.node.selected, .edge.selected {opacity: 1;}
.edge:hover path { stroke: red; }
.edge:hover polygon { stroke: red; fill: red; }
]]></style>

<defs>
  <circle id="rim" cx="0" cy="0" r="7"/>
  <circle id="rim2" cx="0" cy="0" r="3.5"/>
  <g id="zoomPlus">
    <use xlink:href="#rim" fill="#404040"><set attributeName="fill" to="#808080" begin="zoomplus.mouseover" end="zoomplus.mouseout"/></use>
    <path d="M-4,0h8M0,-4v8" fill="none" stroke="white" stroke-width="1.5" pointer-events="none"/>
  </g>
  <g id="zoomMin">
    <use xlink:href="#rim" fill="#404040"><set attributeName="fill" to="#808080" begin="zoomminus.mouseover" end="zoomminus.mouseout"/></use>
    <path d="M-4,0h8" fill="none" stroke="white" stroke-width="1.5" pointer-events="none"/>
  </g>
  <g id="arrowUp" transform="translate(30 24)">
    <use xlink:href="#rim"/>
    <path pointer-events="none" fill="none" stroke="white" stroke-width="1.5" d="M0,-3.0v7 M-2.5,-0.5L0,-3.0L2.5,-0.5"/>
  </g>
  <g id="arrowRight" transform="rotate(90) translate(36 -43)">
    <use xlink:href="#rim"/>
    <path pointer-events="none" fill="none" stroke="white" stroke-width="1.5" d="M0,-3.0v7 M-2.5,-0.5L0,-3.0L2.5,-0.5"/>
  </g>
  <g id="arrowDown" transform="rotate(180) translate(-30 -48)">
    <use xlink:href="#rim"/>
    <path pointer-events="none" fill="none" stroke="white" stroke-width="1.5" d="M0,-3.0v7 M-2.5,-0.5L0,-3.0L2.5,-0.5"/>
  </g>
  <g id="arrowLeft" transform="rotate(270) translate(-36 17)">
    <use xlink:href="#rim"/>
    <path pointer-events="none" fill="none" stroke="white" stroke-width="1.5" d="M0,-3.0v7 M-2.5,-0.5L0,-3.0L2.5,-0.5"/>
  </g>
  <g id="resetDef">
    <use xlink:href="#rim2" fill="#404040"><set attributeName="fill" to="#808080" begin="reset.mouseover" end="reset.mouseout"/></use>
  </g>
</defs>
<script type="application/ecmascript">
var viewWidth = 800;
var viewHeight = 324;
var sectionId = 'dynsection-0';
</script>
<script type="application/ecmascript" xlink:href="../../svg.min.js"/>
<svg id="graph" class="graph">
<g id="viewport">
<title>RedlichKisterVPSSTP.cpp</title>
<!-- Node1 -->
<g id="Node000001" class="node">
<title>Node1</title>
<g id="a_Node000001"><a xlink:title="Definitions for ThermoPhase object for phases which employ excess Gibbs free energy formulations rela...">
<polygon fill="#999999" stroke="#666666" points="473.5,-316 336.5,-316 336.5,-297 473.5,-297 473.5,-316"/>
<text text-anchor="middle" x="405" y="-304" font-family="Helvetica,sans-Serif" font-size="10.00">RedlichKisterVPSSTP.cpp</text>
</a>
</g>
</g>
<!-- Node2 -->
<g id="Node000002" class="node">
<title>Node2</title>
<g id="a_Node000002"><a xlink:href="../../d6/d63/RedlichKisterVPSSTP_8h.html" target="_top" xlink:title="(see Thermodynamic Properties and class RedlichKisterVPSSTP).">
<polygon fill="white" stroke="#666666" points="284.5,-261 125.5,-261 125.5,-231 284.5,-231 284.5,-261"/>
<text text-anchor="start" x="133.5" y="-249" font-family="Helvetica,sans-Serif" font-size="10.00">cantera/thermo/RedlichKister</text>
<text text-anchor="middle" x="205" y="-238" font-family="Helvetica,sans-Serif" font-size="10.00">VPSSTP.h</text>
</a>
</g>
</g>
<!-- Node1&#45;&gt;Node2 -->
<g id="edge1_Node000001_Node000002" class="edge">
<title>Node1&#45;&gt;Node2</title>
<g id="a_edge1_Node000001_Node000002"><a xlink:title=" ">
<path fill="none" stroke="#63b8ff" d="M375.92,-296.99C346.38,-288.35 299.84,-274.74 262.77,-263.9"/>
<polygon fill="#63b8ff" stroke="#63b8ff" points="263.66,-260.51 253.08,-261.06 261.7,-267.23 263.66,-260.51"/>
</a>
</g>
</g>
<!-- Node37 -->
<g id="Node000037" class="node">
<title>Node37</title>
<g id="a_Node000037"><a xlink:href="../../dc/d8e/ThermoFactory_8h.html" target="_top" xlink:title="Headers for the factory class that can create known ThermoPhase objects (see Thermodynamic Properties...">
<polygon fill="white" stroke="#666666" points="492.5,-255.5 317.5,-255.5 317.5,-236.5 492.5,-236.5 492.5,-255.5"/>
<text text-anchor="middle" x="405" y="-243.5" font-family="Helvetica,sans-Serif" font-size="10.00">cantera/thermo/ThermoFactory.h</text>
</a>
</g>
</g>
<!-- Node1&#45;&gt;Node37 -->
<g id="edge8_Node000001_Node000037" class="edge">
<title>Node1&#45;&gt;Node37</title>
<g id="a_edge8_Node000001_Node000037"><a xlink:title=" ">
<path fill="none" stroke="#63b8ff" d="M405,-296.87C405,-288.75 405,-276.31 405,-265.89"/>
<polygon fill="#63b8ff" stroke="#63b8ff" points="408.5,-265.67 405,-255.67 401.5,-265.67 408.5,-265.67"/>
</a>
</g>
</g>
<!-- Node41 -->
<g id="Node000041" class="node">
<title>Node41</title>
<g id="a_Node000041"><a xlink:href="../../dd/dc3/stringUtils_8h.html" target="_top" xlink:title="Contains declarations for string manipulation functions within Cantera.">
<polygon fill="white" stroke="#666666" points="768,-189.5 626,-189.5 626,-170.5 768,-170.5 768,-189.5"/>
<text text-anchor="middle" x="697" y="-177.5" font-family="Helvetica,sans-Serif" font-size="10.00">cantera/base/stringUtils.h</text>
</a>
</g>
</g>
<!-- Node1&#45;&gt;Node41 -->
<g id="edge20_Node000001_Node000041" class="edge">
<title>Node1&#45;&gt;Node41</title>
<g id="a_edge20_Node000001_Node000041"><a xlink:title=" ">
<path fill="none" stroke="#63b8ff" d="M425.07,-296.94C475.6,-275.4 608.26,-218.84 667.59,-193.54"/>
<polygon fill="#63b8ff" stroke="#63b8ff" points="668.96,-196.76 676.79,-189.62 666.22,-190.32 668.96,-196.76"/>
</a>
</g>
</g>
<!-- Node3 -->
<g id="Node000003" class="node">
<title>Node3</title>
<g id="a_Node000003"><a xlink:href="../../d6/d88/GibbsExcessVPSSTP_8h.html" target="_top" xlink:title="Header for intermediate ThermoPhase object for phases which employ Gibbs excess free energy based for...">
<polygon fill="white" stroke="#666666" points="252,-195 96,-195 96,-165 252,-165 252,-195"/>
<text text-anchor="start" x="104" y="-183" font-family="Helvetica,sans-Serif" font-size="10.00">cantera/thermo/GibbsExcess</text>
<text text-anchor="middle" x="174" y="-172" font-family="Helvetica,sans-Serif" font-size="10.00">VPSSTP.h</text>
</a>
</g>
</g>
<!-- Node2&#45;&gt;Node3 -->
<g id="edge2_Node000002_Node000003" class="edge">
<title>Node2&#45;&gt;Node3</title>
<g id="a_edge2_Node000002_Node000003"><a xlink:title=" ">
<path fill="none" stroke="#63b8ff" d="M198.12,-230.8C194.35,-223.01 189.58,-213.16 185.27,-204.28"/>
<polygon fill="#63b8ff" stroke="#63b8ff" points="188.37,-202.64 180.86,-195.16 182.07,-205.69 188.37,-202.64"/>
</a>
</g>
</g>
<!-- Node4 -->
<g id="Node000004" class="node">
<title>Node4</title>
<g id="a_Node000004"><a xlink:href="../../df/dfd/VPStandardStateTP_8h.html" target="_top" xlink:title="Header file for a derived class of ThermoPhase that handles variable pressure standard state methods ...">
<polygon fill="white" stroke="#666666" points="252,-129 134,-129 134,-110 252,-110 252,-129"/>
<text text-anchor="middle" x="193" y="-117" font-family="Helvetica,sans-Serif" font-size="10.00">VPStandardStateTP.h</text>
</a>
</g>
</g>
<!-- Node3&#45;&gt;Node4 -->
<g id="edge3_Node000003_Node000004" class="edge">
<title>Node3&#45;&gt;Node4</title>
<g id="a_edge3_Node000003_Node000004"><a xlink:title=" ">
<path fill="none" stroke="#63b8ff" d="M178.6,-164.84C181.13,-157.04 184.31,-147.27 187.03,-138.89"/>
<polygon fill="#63b8ff" stroke="#63b8ff" points="190.39,-139.86 190.15,-129.27 183.74,-137.7 190.39,-139.86"/>
</a>
</g>
</g>
<!-- Node35 -->
<g id="Node000035" class="node">
<title>Node35</title>
<g id="a_Node000035"><a xlink:href="../../df/dd0/Array_8h.html" target="_top" xlink:title="Header file for class Cantera::Array2D.">
<polygon fill="white" stroke="#666666" points="116,-129 0,-129 0,-110 116,-110 116,-129"/>
<text text-anchor="middle" x="58" y="-117" font-family="Helvetica,sans-Serif" font-size="10.00">cantera/base/Array.h</text>
</a>
</g>
</g>
<!-- Node3&#45;&gt;Node35 -->
<g id="edge5_Node000003_Node000035" class="edge">
<title>Node3&#45;&gt;Node35</title>
<g id="a_edge5_Node000003_Node000035"><a xlink:title=" ">
<path fill="none" stroke="#63b8ff" d="M146.22,-164.99C127.38,-155.49 102.65,-143.02 84.16,-133.69"/>
<polygon fill="#63b8ff" stroke="#63b8ff" points="85.64,-130.52 75.13,-129.14 82.48,-136.77 85.64,-130.52"/>
</a>
</g>
</g>
<!-- Node5 -->
<g id="Node000005" class="node">
<title>Node5</title>
<g id="a_Node000005"><a xlink:href="../../d7/d01/ThermoPhase_8h.html" target="_top" xlink:title="Header file for class ThermoPhase, the base class for phases with thermodynamic properties,...">
<polygon fill="#fff0f0" stroke="red" points="291,-74 199,-74 199,-55 291,-55 291,-74"/>
<text text-anchor="middle" x="245" y="-62" font-family="Helvetica,sans-Serif" font-size="10.00">ThermoPhase.h</text>
</a>
</g>
</g>
<!-- Node4&#45;&gt;Node5 -->
<g id="edge4_Node000004_Node000005" class="edge">
<title>Node4&#45;&gt;Node5</title>
<g id="a_edge4_Node000004_Node000005"><a xlink:title=" ">
<path fill="none" stroke="#63b8ff" d="M201.59,-109.75C209.16,-102.03 220.38,-90.6 229.51,-81.28"/>
<polygon fill="#63b8ff" stroke="#63b8ff" points="232.07,-83.68 236.57,-74.09 227.07,-78.78 232.07,-83.68"/>
</a>
</g>
</g>
<!-- Node8 -->
<g id="Node000008" class="node">
<title>Node8</title>
<g id="a_Node000008"><a xlink:href="../../d9/ddc/ct__defs_8h.html" target="_top" xlink:title="This file contains definitions of constants, types and terms that are used in internal routines and a...">
<polygon fill="#fff0f0" stroke="red" points="671.5,-19 610.5,-19 610.5,0 671.5,0 671.5,-19"/>
<text text-anchor="middle" x="641" y="-7" font-family="Helvetica,sans-Serif" font-size="10.00">ct_defs.h</text>
</a>
</g>
</g>
<!-- Node35&#45;&gt;Node8 -->
<g id="edge6_Node000035_Node000008" class="edge">
<title>Node35&#45;&gt;Node8</title>
<g id="a_edge6_Node000035_Node000008"><a xlink:title=" ">
<path fill="none" stroke="#63b8ff" d="M57.75,-109.87C57.86,-95.88 60.35,-68.45 77,-55 117.46,-22.32 477.12,-13.25 600.03,-11.1"/>
<polygon fill="#63b8ff" stroke="#63b8ff" points="600.22,-14.6 610.16,-10.93 600.1,-7.6 600.22,-14.6"/>
</a>
</g>
</g>
<!-- Node36 -->
<g id="Node000036" class="node">
<title>Node36</title>
<g id="a_Node000036"><a xlink:title=" ">
<polygon fill="#e0e0e0" stroke="#999999" points="146,-74 86,-74 86,-55 146,-55 146,-74"/>
<text text-anchor="middle" x="116" y="-62" font-family="Helvetica,sans-Serif" font-size="10.00">iostream</text>
</a>
</g>
</g>
<!-- Node35&#45;&gt;Node36 -->
<g id="edge7_Node000035_Node000036" class="edge">
<title>Node35&#45;&gt;Node36</title>
<g id="a_edge7_Node000035_Node000036"><a xlink:title=" ">
<path fill="none" stroke="#63b8ff" d="M67.32,-109.98C75.81,-102.23 88.56,-90.58 98.88,-81.14"/>
<polygon fill="#63b8ff" stroke="#63b8ff" points="101.49,-83.5 106.51,-74.17 96.77,-78.33 101.49,-83.5"/>
</a>
</g>
</g>
<!-- Node37&#45;&gt;Node5 -->
<g id="edge9_Node000037_Node000005" class="edge">
<title>Node37&#45;&gt;Node5</title>
<g id="a_edge9_Node000037_Node000005"><a xlink:title=" ">
<path fill="none" stroke="#63b8ff" d="M390.45,-236.46C375.7,-227.37 352.72,-211.96 336,-195 300.94,-159.42 269.79,-109.08 254.67,-82.87"/>
<polygon fill="#63b8ff" stroke="#63b8ff" points="257.67,-81.06 249.69,-74.09 251.58,-84.52 257.67,-81.06"/>
</a>
</g>
</g>
<!-- Node38 -->
<g id="Node000038" class="node">
<title>Node38</title>
<g id="a_Node000038"><a xlink:href="../../d6/dd5/FactoryBase_8h.html" target="_top" xlink:title="File contains the FactoryBase class declarations.">
<polygon fill="white" stroke="#666666" points="496.5,-189.5 345.5,-189.5 345.5,-170.5 496.5,-170.5 496.5,-189.5"/>
<text text-anchor="middle" x="421" y="-177.5" font-family="Helvetica,sans-Serif" font-size="10.00">cantera/base/FactoryBase.h</text>
</a>
</g>
</g>
<!-- Node37&#45;&gt;Node38 -->
<g id="edge10_Node000037_Node000038" class="edge">
<title>Node37&#45;&gt;Node38</title>
<g id="a_edge10_Node000037_Node000038"><a xlink:title=" ">
<path fill="none" stroke="#63b8ff" d="M407.16,-236.37C409.48,-227.07 413.26,-211.98 416.28,-199.9"/>
<polygon fill="#63b8ff" stroke="#63b8ff" points="419.74,-200.46 418.77,-189.91 412.95,-198.76 419.74,-200.46"/>
</a>
</g>
</g>
<!-- Node39 -->
<g id="Node000039" class="node">
<title>Node39</title>
<g id="a_Node000039"><a xlink:title=" ">
<polygon fill="#e0e0e0" stroke="#999999" points="356,-129 308,-129 308,-110 356,-110 356,-129"/>
<text text-anchor="middle" x="332" y="-117" font-family="Helvetica,sans-Serif" font-size="10.00">mutex</text>
</a>
</g>
</g>
<!-- Node38&#45;&gt;Node39 -->
<g id="edge11_Node000038_Node000039" class="edge">
<title>Node38&#45;&gt;Node39</title>
<g id="a_edge11_Node000038_Node000039"><a xlink:title=" ">
<path fill="none" stroke="#63b8ff" d="M407.87,-170.37C393.67,-161.04 370.8,-146.01 353.88,-134.88"/>
<polygon fill="#63b8ff" stroke="#63b8ff" points="355.47,-131.74 345.19,-129.17 351.62,-137.58 355.47,-131.74"/>
</a>
</g>
</g>
<!-- Node31 -->
<g id="Node000031" class="node">
<title>Node31</title>
<g id="a_Node000031"><a xlink:title=" ">
<polygon fill="#e0e0e0" stroke="#999999" points="467.5,-129 374.5,-129 374.5,-110 467.5,-110 467.5,-129"/>
<text text-anchor="middle" x="421" y="-117" font-family="Helvetica,sans-Serif" font-size="10.00">unordered_map</text>
</a>
</g>
</g>
<!-- Node38&#45;&gt;Node31 -->
<g id="edge12_Node000038_Node000031" class="edge">
<title>Node38&#45;&gt;Node31</title>
<g id="a_edge12_Node000038_Node000031"><a xlink:title=" ">
<path fill="none" stroke="#63b8ff" d="M421,-170.37C421,-162.25 421,-149.81 421,-139.39"/>
<polygon fill="#63b8ff" stroke="#63b8ff" points="424.5,-139.17 421,-129.17 417.5,-139.17 424.5,-139.17"/>
</a>
</g>
</g>
<!-- Node7 -->
<g id="Node000007" class="node">
<title>Node7</title>
<g id="a_Node000007"><a xlink:href="../../db/d98/ctexceptions_8h.html" target="_top" xlink:title="Definitions for the classes that are thrown when Cantera experiences an error condition (also contain...">
<polygon fill="#fff0f0" stroke="red" points="640,-129 486,-129 486,-110 640,-110 640,-129"/>
<text text-anchor="middle" x="563" y="-117" font-family="Helvetica,sans-Serif" font-size="10.00">cantera/base/ctexceptions.h</text>
</a>
</g>
</g>
<!-- Node38&#45;&gt;Node7 -->
<g id="edge13_Node000038_Node000007" class="edge">
<title>Node38&#45;&gt;Node7</title>
<g id="a_edge13_Node000038_Node000007"><a xlink:title=" ">
<path fill="none" stroke="#63b8ff" d="M441.65,-170.49C465.63,-160.62 505.39,-144.23 532.83,-132.93"/>
<polygon fill="#63b8ff" stroke="#63b8ff" points="534.41,-136.06 542.33,-129.02 531.75,-129.59 534.41,-136.06"/>
</a>
</g>
</g>
<!-- Node40 -->
<g id="Node000040" class="node">
<title>Node40</title>
<g id="a_Node000040"><a xlink:href="../../d2/d49/global_8h.html" target="_top" xlink:title="This file contains definitions for utility functions and text for modules, inputfiles and logging,...">
<polygon fill="white" stroke="#666666" points="780,-129 658,-129 658,-110 780,-110 780,-129"/>
<text text-anchor="middle" x="719" y="-117" font-family="Helvetica,sans-Serif" font-size="10.00">cantera/base/global.h</text>
</a>
</g>
</g>
<!-- Node38&#45;&gt;Node40 -->
<g id="edge17_Node000038_Node000040" class="edge">
<title>Node38&#45;&gt;Node40</title>
<g id="a_edge17_Node000038_Node000040"><a xlink:title=" ">
<path fill="none" stroke="#63b8ff" d="M464.33,-170.49C517.63,-160.03 608.09,-142.27 665.62,-130.98"/>
<polygon fill="#63b8ff" stroke="#63b8ff" points="666.48,-134.38 675.62,-129.02 665.13,-127.51 666.48,-134.38"/>
</a>
</g>
</g>
<!-- Node7&#45;&gt;Node8 -->
<g id="edge14_Node000007_Node000008" class="edge">
<title>Node7&#45;&gt;Node8</title>
<g id="a_edge14_Node000007_Node000008"><a xlink:title=" ">
<path fill="none" stroke="#63b8ff" d="M562.97,-109.93C563.31,-96.96 565.57,-72.07 577,-55 585.79,-41.88 599.86,-31.48 612.57,-24.04"/>
<polygon fill="#63b8ff" stroke="#63b8ff" points="614.41,-27.02 621.5,-19.15 611.04,-20.88 614.41,-27.02"/>
</a>
</g>
</g>
<!-- Node19 -->
<g id="Node000019" class="node">
<title>Node19</title>
<g id="a_Node000019"><a xlink:href="../../db/def/fmt_8h.html" target="_top" xlink:title="Wrapper for either system&#45;installed or local headers for fmt.">
<polygon fill="#fff0f0" stroke="red" points="695.5,-74 586.5,-74 586.5,-55 695.5,-55 695.5,-74"/>
<text text-anchor="middle" x="641" y="-62" font-family="Helvetica,sans-Serif" font-size="10.00">cantera/base/fmt.h</text>
</a>
</g>
</g>
<!-- Node7&#45;&gt;Node19 -->
<g id="edge15_Node000007_Node000019" class="edge">
<title>Node7&#45;&gt;Node19</title>
<g id="a_edge15_Node000007_Node000019"><a xlink:title=" ">
<path fill="none" stroke="#63b8ff" d="M575.53,-109.98C587.4,-101.92 605.46,-89.65 619.61,-80.03"/>
<polygon fill="#63b8ff" stroke="#63b8ff" points="621.94,-82.69 628.24,-74.17 618,-76.9 621.94,-82.69"/>
</a>
</g>
</g>
<!-- Node19&#45;&gt;Node8 -->
<g id="edge16_Node000019_Node000008" class="edge">
<title>Node19&#45;&gt;Node8</title>
<g id="a_edge16_Node000019_Node000008"><a xlink:title=" ">
<path fill="none" stroke="#63b8ff" d="M641,-54.75C641,-47.8 641,-37.85 641,-29.13"/>
<polygon fill="#63b8ff" stroke="#63b8ff" points="644.5,-29.09 641,-19.09 637.5,-29.09 644.5,-29.09"/>
</a>
</g>
</g>
<!-- Node40&#45;&gt;Node8 -->
<g id="edge18_Node000040_Node000008" class="edge">
<title>Node40&#45;&gt;Node8</title>
<g id="a_edge18_Node000040_Node000008"><a xlink:title=" ">
<path fill="none" stroke="#63b8ff" d="M719.03,-109.93C718.69,-96.96 716.43,-72.07 705,-55 696.21,-41.88 682.14,-31.48 669.43,-24.04"/>
<polygon fill="#63b8ff" stroke="#63b8ff" points="670.96,-20.88 660.5,-19.15 667.59,-27.02 670.96,-20.88"/>
</a>
</g>
</g>
<!-- Node40&#45;&gt;Node19 -->
<g id="edge19_Node000040_Node000019" class="edge">
<title>Node40&#45;&gt;Node19</title>
<g id="a_edge19_Node000040_Node000019"><a xlink:title=" ">
<path fill="none" stroke="#63b8ff" d="M706.47,-109.98C694.6,-101.92 676.54,-89.65 662.39,-80.03"/>
<polygon fill="#63b8ff" stroke="#63b8ff" points="664,-76.9 653.76,-74.17 660.06,-82.69 664,-76.9"/>
</a>
</g>
</g>
<!-- Node41&#45;&gt;Node8 -->
<g id="edge21_Node000041_Node000008" class="edge">
<title>Node41&#45;&gt;Node8</title>
<g id="a_edge21_Node000041_Node000008"><a xlink:title=" ">
<path fill="none" stroke="#63b8ff" d="M728.62,-170.45C760.46,-159.99 803.02,-139.92 789,-110 767.81,-64.77 714.55,-37.03 678.06,-22.7"/>
<polygon fill="#63b8ff" stroke="#63b8ff" points="678.84,-19.25 668.25,-19.01 676.38,-25.81 678.84,-19.25"/>
</a>
</g>
</g>
</g>
</svg>

<g id="navigator" transform="translate(0 0)" fill="#404254">
  <rect fill="#f2f5e9" fill-opacity="0.5" stroke="#606060" stroke-width=".5" x="0" y="0" width="60" height="60"/>
  <use id="zoomplus" xlink:href="#zoomPlus" x="17" y="9" onmousedown="handleZoom(evt,'in')"/>
  <use id="zoomminus" xlink:href="#zoomMin" x="42" y="9" onmousedown="handleZoom(evt,'out')"/>
  <use id="reset" xlink:href="#resetDef" x="30" y="36" onmousedown="handleReset()"/>
   <use id="arrowup" xlink:href="#arrowUp" x="0" y="0" onmousedown="handlePan(0,-1)"/>
  <use id="arrowright" xlink:href="#arrowRight" x="0" y="0" onmousedown="handlePan(1,0)"/>
  <use id="arrowdown" xlink:href="#arrowDown" x="0" y="0" onmousedown="handlePan(0,1)"/>
  <use id="arrowleft" xlink:href="#arrowLeft" x="0" y="0" onmousedown="handlePan(-1,0)"/>
</g>
<svg viewBox="0 0 15 15" width="100%" height="30px" preserveAspectRatio="xMaxYMin meet">
 <g id="arrow_out" transform="scale(0.3 0.3)">
  <a xlink:href="RedlichKisterVPSSTP_8cpp__incl_org.svg" target="_base">
   <rect id="button" ry="5" rx="5" y="6" x="6" height="38" width="38"
        fill="#f2f5e9" fill-opacity="0.5" stroke="#606060" stroke-width="1.0"/>
   <path id="arrow"
     d="M 11.500037,31.436501 C 11.940474,20.09759 22.043105,11.32322 32.158766,21.979434 L 37.068811,17.246167 C 37.068811,17.246167 37.088388,32 37.088388,32 L 22.160133,31.978069 C 22.160133,31.978069 26.997745,27.140456 26.997745,27.140456 C 18.528582,18.264221 13.291696,25.230495 11.500037,31.436501 z"
     style="fill:#404040;"/>
  </a>
 </g>
</svg>

<style type='text/css'>
<![CDATA[
[data-mouse-over-selected='false'] { opacity: 0.7; }
[data-mouse-over-selected='true']  { opacity: 1.0; }
]]>
</style>
<script type="application/ecmascript"><![CDATA[
document.addEventListener('DOMContentLoaded', (event) => {
  highlightEdges();
  highlightAdjacentNodes();
});
]]></script>
</svg>
