<?xml version="1.0" encoding="UTF-8" standalone="no"?>
<!DOCTYPE svg PUBLIC "-//W3C//DTD SVG 1.1//EN"
 "http://www.w3.org/Graphics/SVG/1.1/DTD/svg11.dtd">
<!-- Generated by graphviz version 2.43.0 (0)
 -->
<!-- Title: Interface.h Pages: 1 -->
<!--zoomable 554 -->
<svg id="main" version="1.1" xmlns="http://www.w3.org/2000/svg" xmlns:xlink="http://www.w3.org/1999/xlink" xml:space="preserve" onload="init(evt)">
<style type="text/css"><![CDATA[
.edge:hover path { stroke: red; }
.edge:hover polygon { stroke: red; fill: red; }
]]></style>
<script type="text/javascript"><![CDATA[
var edges = document.getElementsByTagName('g');
if (edges && edges.length) {
  for (var i=0;i<edges.length;i++) {
    if (edges[i].id.substr(0,4)=='edge') {
      edges[i].setAttribute('class','edge');
    }
  }
}
]]></script>
        <defs>
                <circle id="rim" cx="0" cy="0" r="7"/>
                <circle id="rim2" cx="0" cy="0" r="3.5"/>
                <g id="zoomPlus">
                        <use xlink:href="#rim" fill="#404040">
                                <set attributeName="fill" to="#808080" begin="zoomplus.mouseover" end="zoomplus.mouseout"/>
                        </use>
                        <path d="M-4,0h8M0,-4v8" fill="none" stroke="white" stroke-width="1.5" pointer-events="none"/>
                </g>
                <g id="zoomMin">
                        <use xlink:href="#rim" fill="#404040">
                                <set attributeName="fill" to="#808080" begin="zoomminus.mouseover" end="zoomminus.mouseout"/>
                        </use>
                        <path d="M-4,0h8" fill="none" stroke="white" stroke-width="1.5" pointer-events="none"/>
                </g>
                <g id="dirArrow">
                        <path fill="none" stroke="white" stroke-width="1.5" d="M0,-3.0v7 M-2.5,-0.5L0,-3.0L2.5,-0.5"/>
                </g>
               <g id="resetDef">
                       <use xlink:href="#rim2" fill="#404040">
                               <set attributeName="fill" to="#808080" begin="reset.mouseover" end="reset.mouseout"/>
                       </use>
               </g>
        </defs>

<script type="text/javascript">
var viewWidth = 1411;
var viewHeight = 554;
var sectionId = 'dynsection-0';
</script>
<script xlink:href="../../svgpan.js"/>
<svg id="graph" class="graph">
<g id="viewport">
<title>Interface.h</title>
<polygon fill="white" stroke="transparent" points="-4,4 -4,-550 1407.05,-550 1407.05,4 -4,4"/>
<!-- Node1 -->
<g id="node1" class="node">
<title>Node1</title>
<g id="a_node1"><a xlink:title=" ">
<polygon fill="#bfbfbf" stroke="black" points="602.05,-526.5 602.05,-545.5 671.05,-545.5 671.05,-526.5 602.05,-526.5"/>
<text text-anchor="middle" x="636.55" y="-533.5" font-family="Helvetica,sans-Serif" font-size="10.00">Interface.h</text>
</a>
</g>
</g>
<!-- Node2 -->
<g id="node2" class="node">
<title>Node2</title>
<g id="a_node2"><a xlink:href="../../d4/dfa/Solution_8h.html" target="_top" xlink:title=" ">
<polygon fill="white" stroke="black" points="571.05,-291.5 571.05,-310.5 702.05,-310.5 702.05,-291.5 571.05,-291.5"/>
<text text-anchor="middle" x="636.55" y="-298.5" font-family="Helvetica,sans-Serif" font-size="10.00">cantera/base/Solution.h</text>
</a>
</g>
</g>
<!-- Node1&#45;&gt;Node2 -->
<g id="edge1" class="edge">
<title>Node1&#45;&gt;Node2</title>
<path fill="none" stroke="midnightblue" d="M636.55,-526.43C636.55,-492.75 636.55,-368.99 636.55,-321.1"/>
<polygon fill="midnightblue" stroke="midnightblue" points="640.05,-320.9 636.55,-310.9 633.05,-320.9 640.05,-320.9"/>
</g>
<!-- Node26 -->
<g id="node26" class="node">
<title>Node26</title>
<g id="a_node26"><a xlink:href="../../d2/de5/SurfPhase_8h.html" target="_top" xlink:title="Header for a simple thermodynamics model of a surface phase derived from ThermoPhase,...">
<polygon fill="white" stroke="black" points="442.55,-470.5 442.55,-489.5 594.55,-489.5 594.55,-470.5 442.55,-470.5"/>
<text text-anchor="middle" x="518.55" y="-477.5" font-family="Helvetica,sans-Serif" font-size="10.00">cantera/thermo/SurfPhase.h</text>
</a>
</g>
</g>
<!-- Node1&#45;&gt;Node26 -->
<g id="edge30" class="edge">
<title>Node1&#45;&gt;Node26</title>
<path fill="none" stroke="midnightblue" d="M617.85,-526.44C598.6,-517.64 568.39,-503.81 546.35,-493.72"/>
<polygon fill="midnightblue" stroke="midnightblue" points="547.71,-490.5 537.16,-489.52 544.79,-496.86 547.71,-490.5"/>
</g>
<!-- Node34 -->
<g id="node33" class="node">
<title>Node34</title>
<g id="a_node33"><a xlink:href="../../d7/d0d/InterfaceKinetics_8h.html" target="_top" xlink:title=" ">
<polygon fill="white" stroke="black" points="769.05,-403.5 769.05,-433.5 910.05,-433.5 910.05,-403.5 769.05,-403.5"/>
<text text-anchor="start" x="777.05" y="-421.5" font-family="Helvetica,sans-Serif" font-size="10.00">cantera/kinetics/Interface</text>
<text text-anchor="middle" x="839.55" y="-410.5" font-family="Helvetica,sans-Serif" font-size="10.00">Kinetics.h</text>
</a>
</g>
</g>
<!-- Node1&#45;&gt;Node34 -->
<g id="edge45" class="edge">
<title>Node1&#45;&gt;Node34</title>
<path fill="none" stroke="midnightblue" d="M651.81,-526.32C684.41,-507.77 761.54,-463.88 806.13,-438.51"/>
<polygon fill="midnightblue" stroke="midnightblue" points="807.9,-441.53 814.86,-433.55 804.44,-435.45 807.9,-441.53"/>
</g>
<!-- Node3 -->
<g id="node3" class="node">
<title>Node3</title>
<g id="a_node3"><a xlink:href="../../db/d98/ctexceptions_8h.html" target="_top" xlink:title="Definitions for the classes that are thrown when Cantera experiences an error condition (also contain...">
<polygon fill="white" stroke="black" points="641.55,-179.5 641.55,-198.5 795.55,-198.5 795.55,-179.5 641.55,-179.5"/>
<text text-anchor="middle" x="718.55" y="-186.5" font-family="Helvetica,sans-Serif" font-size="10.00">cantera/base/ctexceptions.h</text>
</a>
</g>
</g>
<!-- Node2&#45;&gt;Node3 -->
<g id="edge2" class="edge">
<title>Node2&#45;&gt;Node3</title>
<path fill="none" stroke="midnightblue" d="M642.98,-291.37C656.57,-273.14 688.41,-230.43 706.12,-206.68"/>
<polygon fill="midnightblue" stroke="midnightblue" points="708.97,-208.7 712.14,-198.59 703.36,-204.52 708.97,-208.7"/>
</g>
<!-- Node20 -->
<g id="node20" class="node">
<title>Node20</title>
<g id="a_node20"><a xlink:href="../../dd/d2a/AnyMap_8h.html" target="_top" xlink:title=" ">
<polygon fill="white" stroke="black" points="409.05,-235.5 409.05,-254.5 540.05,-254.5 540.05,-235.5 409.05,-235.5"/>
<text text-anchor="middle" x="474.55" y="-242.5" font-family="Helvetica,sans-Serif" font-size="10.00">cantera/base/AnyMap.h</text>
</a>
</g>
</g>
<!-- Node2&#45;&gt;Node20 -->
<g id="edge20" class="edge">
<title>Node2&#45;&gt;Node20</title>
<path fill="none" stroke="midnightblue" d="M610.88,-291.44C583.62,-282.36 540.36,-267.94 509.9,-257.78"/>
<polygon fill="midnightblue" stroke="midnightblue" points="510.69,-254.36 500.1,-254.52 508.48,-261 510.69,-254.36"/>
</g>
<!-- Node4 -->
<g id="node4" class="node">
<title>Node4</title>
<g id="a_node4"><a xlink:href="../../d9/ddc/ct__defs_8h.html" target="_top" xlink:title="This file contains definitions of constants, types and terms that are used in internal routines and a...">
<polygon fill="white" stroke="black" points="836.05,-56.5 836.05,-75.5 897.05,-75.5 897.05,-56.5 836.05,-56.5"/>
<text text-anchor="middle" x="866.55" y="-63.5" font-family="Helvetica,sans-Serif" font-size="10.00">ct_defs.h</text>
</a>
</g>
</g>
<!-- Node3&#45;&gt;Node4 -->
<g id="edge3" class="edge">
<title>Node3&#45;&gt;Node4</title>
<path fill="none" stroke="midnightblue" d="M775.74,-179.46C799.91,-173.13 826.56,-162.12 844.55,-143 859.08,-127.55 864.08,-103.1 865.77,-86.12"/>
<polygon fill="midnightblue" stroke="midnightblue" points="869.29,-85.98 866.48,-75.76 862.3,-85.5 869.29,-85.98"/>
</g>
<!-- Node15 -->
<g id="node15" class="node">
<title>Node15</title>
<g id="a_node15"><a xlink:href="../../db/def/fmt_8h.html" target="_top" xlink:title="Wrapper for either system&#45;installed or local headers for fmt.">
<polygon fill="white" stroke="black" points="1095.05,-118 1095.05,-137 1204.05,-137 1204.05,-118 1095.05,-118"/>
<text text-anchor="middle" x="1149.55" y="-125" font-family="Helvetica,sans-Serif" font-size="10.00">cantera/base/fmt.h</text>
</a>
</g>
</g>
<!-- Node3&#45;&gt;Node15 -->
<g id="edge14" class="edge">
<title>Node3&#45;&gt;Node15</title>
<path fill="none" stroke="midnightblue" d="M780.3,-179.48C861.19,-168.31 1002.37,-148.82 1084.74,-137.45"/>
<polygon fill="midnightblue" stroke="midnightblue" points="1085.31,-140.9 1094.74,-136.07 1084.35,-133.97 1085.31,-140.9"/>
</g>
<!-- Node19 -->
<g id="node19" class="node">
<title>Node19</title>
<g id="a_node19"><a xlink:title=" ">
<polygon fill="white" stroke="#bfbfbf" points="770.05,-118 770.05,-137 835.05,-137 835.05,-118 770.05,-118"/>
<text text-anchor="middle" x="802.55" y="-125" font-family="Helvetica,sans-Serif" font-size="10.00">exception</text>
</a>
</g>
</g>
<!-- Node3&#45;&gt;Node19 -->
<g id="edge19" class="edge">
<title>Node3&#45;&gt;Node19</title>
<path fill="none" stroke="midnightblue" d="M730.58,-179.48C744.06,-169.93 766.11,-154.31 782.26,-142.87"/>
<polygon fill="midnightblue" stroke="midnightblue" points="784.4,-145.65 790.53,-137.01 780.35,-139.93 784.4,-145.65"/>
</g>
<!-- Node5 -->
<g id="node5" class="node">
<title>Node5</title>
<g id="a_node5"><a xlink:href="../../db/d16/config_8h_source.html" target="_top" xlink:title=" ">
<polygon fill="white" stroke="black" points="1279.05,-0.5 1279.05,-19.5 1334.05,-19.5 1334.05,-0.5 1279.05,-0.5"/>
<text text-anchor="middle" x="1306.55" y="-7.5" font-family="Helvetica,sans-Serif" font-size="10.00">config.h</text>
</a>
</g>
</g>
<!-- Node4&#45;&gt;Node5 -->
<g id="edge4" class="edge">
<title>Node4&#45;&gt;Node5</title>
<path fill="none" stroke="midnightblue" d="M897.05,-57.78C900.25,-57.13 903.46,-56.52 906.55,-56 1038.63,-33.78 1197.14,-19.61 1268.48,-13.89"/>
<polygon fill="midnightblue" stroke="midnightblue" points="1269.07,-17.35 1278.76,-13.07 1268.51,-10.37 1269.07,-17.35"/>
</g>
<!-- Node6 -->
<g id="node6" class="node">
<title>Node6</title>
<g id="a_node6"><a xlink:title=" ">
<polygon fill="white" stroke="#bfbfbf" points="997.05,-0.5 997.05,-19.5 1044.05,-19.5 1044.05,-0.5 997.05,-0.5"/>
<text text-anchor="middle" x="1020.55" y="-7.5" font-family="Helvetica,sans-Serif" font-size="10.00">cmath</text>
</a>
</g>
</g>
<!-- Node4&#45;&gt;Node6 -->
<g id="edge5" class="edge">
<title>Node4&#45;&gt;Node6</title>
<path fill="none" stroke="midnightblue" d="M890.95,-56.44C916.97,-47.32 958.35,-32.81 987.33,-22.65"/>
<polygon fill="midnightblue" stroke="midnightblue" points="988.74,-25.86 997.02,-19.25 986.42,-19.26 988.74,-25.86"/>
</g>
<!-- Node7 -->
<g id="node7" class="node">
<title>Node7</title>
<g id="a_node7"><a xlink:title=" ">
<polygon fill="white" stroke="#bfbfbf" points="1062.05,-0.5 1062.05,-19.5 1111.05,-19.5 1111.05,-0.5 1062.05,-0.5"/>
<text text-anchor="middle" x="1086.55" y="-7.5" font-family="Helvetica,sans-Serif" font-size="10.00">cstdlib</text>
</a>
</g>
</g>
<!-- Node4&#45;&gt;Node7 -->
<g id="edge6" class="edge">
<title>Node4&#45;&gt;Node7</title>
<path fill="none" stroke="midnightblue" d="M897.06,-57.95C932.19,-49.78 991.84,-35.7 1051.71,-20.42"/>
<polygon fill="midnightblue" stroke="midnightblue" points="1052.88,-23.73 1061.7,-17.86 1051.15,-16.95 1052.88,-23.73"/>
</g>
<!-- Node8 -->
<g id="node8" class="node">
<title>Node8</title>
<g id="a_node8"><a xlink:title=" ">
<polygon fill="white" stroke="#bfbfbf" points="1129.05,-0.5 1129.05,-19.5 1176.05,-19.5 1176.05,-0.5 1129.05,-0.5"/>
<text text-anchor="middle" x="1152.55" y="-7.5" font-family="Helvetica,sans-Serif" font-size="10.00">vector</text>
</a>
</g>
</g>
<!-- Node4&#45;&gt;Node8 -->
<g id="edge7" class="edge">
<title>Node4&#45;&gt;Node8</title>
<path fill="none" stroke="midnightblue" d="M897.09,-57.95C900.28,-57.27 903.47,-56.6 906.55,-56 998.04,-38.02 1024.68,-40.87 1118.9,-20.19"/>
<polygon fill="midnightblue" stroke="midnightblue" points="1119.85,-23.56 1128.85,-17.97 1118.33,-16.73 1119.85,-23.56"/>
</g>
<!-- Node9 -->
<g id="node9" class="node">
<title>Node9</title>
<g id="a_node9"><a xlink:title=" ">
<polygon fill="white" stroke="#bfbfbf" points="587.55,-0.5 587.55,-19.5 625.55,-19.5 625.55,-0.5 587.55,-0.5"/>
<text text-anchor="middle" x="606.55" y="-7.5" font-family="Helvetica,sans-Serif" font-size="10.00">map</text>
</a>
</g>
</g>
<!-- Node4&#45;&gt;Node9 -->
<g id="edge8" class="edge">
<title>Node4&#45;&gt;Node9</title>
<path fill="none" stroke="midnightblue" d="M835.89,-60.25C793.07,-53.36 712.81,-39.51 635.62,-20.03"/>
<polygon fill="midnightblue" stroke="midnightblue" points="636.29,-16.59 625.74,-17.5 634.56,-23.37 636.29,-16.59"/>
</g>
<!-- Node10 -->
<g id="node10" class="node">
<title>Node10</title>
<g id="a_node10"><a xlink:title=" ">
<polygon fill="white" stroke="#bfbfbf" points="643.55,-0.5 643.55,-19.5 675.55,-19.5 675.55,-0.5 643.55,-0.5"/>
<text text-anchor="middle" x="659.55" y="-7.5" font-family="Helvetica,sans-Serif" font-size="10.00">set</text>
</a>
</g>
</g>
<!-- Node4&#45;&gt;Node10 -->
<g id="edge9" class="edge">
<title>Node4&#45;&gt;Node10</title>
<path fill="none" stroke="midnightblue" d="M836.02,-58.46C801.57,-50.87 743.71,-37.45 685.35,-20.01"/>
<polygon fill="midnightblue" stroke="midnightblue" points="686.19,-16.6 675.6,-17.06 684.16,-23.3 686.19,-16.6"/>
</g>
<!-- Node11 -->
<g id="node11" class="node">
<title>Node11</title>
<g id="a_node11"><a xlink:title=" ">
<polygon fill="white" stroke="#bfbfbf" points="693.55,-0.5 693.55,-19.5 737.55,-19.5 737.55,-0.5 693.55,-0.5"/>
<text text-anchor="middle" x="715.55" y="-7.5" font-family="Helvetica,sans-Serif" font-size="10.00">string</text>
</a>
</g>
</g>
<!-- Node4&#45;&gt;Node11 -->
<g id="edge10" class="edge">
<title>Node4&#45;&gt;Node11</title>
<path fill="none" stroke="midnightblue" d="M842.62,-56.44C816.88,-47.24 775.83,-32.56 747.38,-22.38"/>
<polygon fill="midnightblue" stroke="midnightblue" points="748.48,-19.06 737.88,-18.99 746.12,-25.65 748.48,-19.06"/>
</g>
<!-- Node12 -->
<g id="node12" class="node">
<title>Node12</title>
<g id="a_node12"><a xlink:title=" ">
<polygon fill="white" stroke="#bfbfbf" points="755.55,-0.5 755.55,-19.5 819.55,-19.5 819.55,-0.5 755.55,-0.5"/>
<text text-anchor="middle" x="787.55" y="-7.5" font-family="Helvetica,sans-Serif" font-size="10.00">algorithm</text>
</a>
</g>
</g>
<!-- Node4&#45;&gt;Node12 -->
<g id="edge11" class="edge">
<title>Node4&#45;&gt;Node12</title>
<path fill="none" stroke="midnightblue" d="M853.85,-56.32C841.65,-47.98 822.97,-35.21 808.54,-25.35"/>
<polygon fill="midnightblue" stroke="midnightblue" points="810.44,-22.41 800.21,-19.65 806.49,-28.19 810.44,-22.41"/>
</g>
<!-- Node13 -->
<g id="node13" class="node">
<title>Node13</title>
<g id="a_node13"><a xlink:title=" ">
<polygon fill="white" stroke="#bfbfbf" points="837.55,-0.5 837.55,-19.5 895.55,-19.5 895.55,-0.5 837.55,-0.5"/>
<text text-anchor="middle" x="866.55" y="-7.5" font-family="Helvetica,sans-Serif" font-size="10.00">memory</text>
</a>
</g>
</g>
<!-- Node4&#45;&gt;Node13 -->
<g id="edge12" class="edge">
<title>Node4&#45;&gt;Node13</title>
<path fill="none" stroke="midnightblue" d="M866.55,-56.08C866.55,-49.01 866.55,-38.86 866.55,-29.99"/>
<polygon fill="midnightblue" stroke="midnightblue" points="870.05,-29.75 866.55,-19.75 863.05,-29.75 870.05,-29.75"/>
</g>
<!-- Node14 -->
<g id="node14" class="node">
<title>Node14</title>
<g id="a_node14"><a xlink:title=" ">
<polygon fill="white" stroke="#bfbfbf" points="914.05,-0.5 914.05,-19.5 979.05,-19.5 979.05,-0.5 914.05,-0.5"/>
<text text-anchor="middle" x="946.55" y="-7.5" font-family="Helvetica,sans-Serif" font-size="10.00">functional</text>
</a>
</g>
</g>
<!-- Node4&#45;&gt;Node14 -->
<g id="edge13" class="edge">
<title>Node4&#45;&gt;Node14</title>
<path fill="none" stroke="midnightblue" d="M879.4,-56.32C891.76,-47.98 910.68,-35.21 925.28,-25.35"/>
<polygon fill="midnightblue" stroke="midnightblue" points="927.4,-28.15 933.73,-19.65 923.48,-22.35 927.4,-28.15"/>
</g>
<!-- Node15&#45;&gt;Node4 -->
<g id="edge15" class="edge">
<title>Node15&#45;&gt;Node4</title>
<path fill="none" stroke="midnightblue" d="M1109.05,-117.97C1099.69,-116 1089.77,-113.92 1080.55,-112 1006.26,-96.51 985.35,-92.94 906.96,-76.06"/>
<polygon fill="midnightblue" stroke="midnightblue" points="907.62,-72.62 897.11,-73.93 906.15,-79.46 907.62,-72.62"/>
</g>
<!-- Node16 -->
<g id="node16" class="node">
<title>Node16</title>
<g id="a_node16"><a xlink:title=" ">
<polygon fill="white" stroke="#bfbfbf" points="1078.05,-56.5 1078.05,-75.5 1215.05,-75.5 1215.05,-56.5 1078.05,-56.5"/>
<text text-anchor="middle" x="1146.55" y="-63.5" font-family="Helvetica,sans-Serif" font-size="10.00">cantera/ext/fmt/format.h</text>
</a>
</g>
</g>
<!-- Node15&#45;&gt;Node16 -->
<g id="edge16" class="edge">
<title>Node15&#45;&gt;Node16</title>
<path fill="none" stroke="midnightblue" d="M1149.12,-117.98C1148.69,-109.58 1148.03,-96.48 1147.49,-85.66"/>
<polygon fill="midnightblue" stroke="midnightblue" points="1150.98,-85.32 1146.98,-75.51 1143.98,-85.67 1150.98,-85.32"/>
</g>
<!-- Node17 -->
<g id="node17" class="node">
<title>Node17</title>
<g id="a_node17"><a xlink:title=" ">
<polygon fill="white" stroke="#bfbfbf" points="1233.55,-56.5 1233.55,-75.5 1363.55,-75.5 1363.55,-56.5 1233.55,-56.5"/>
<text text-anchor="middle" x="1298.55" y="-63.5" font-family="Helvetica,sans-Serif" font-size="10.00">cantera/ext/fmt/printf.h</text>
</a>
</g>
</g>
<!-- Node15&#45;&gt;Node17 -->
<g id="edge17" class="edge">
<title>Node15&#45;&gt;Node17</title>
<path fill="none" stroke="midnightblue" d="M1170.9,-117.98C1196.23,-107.86 1238.69,-90.9 1267.62,-79.35"/>
<polygon fill="midnightblue" stroke="midnightblue" points="1269.25,-82.47 1277.24,-75.51 1266.65,-75.97 1269.25,-82.47"/>
</g>
<!-- Node18 -->
<g id="node18" class="node">
<title>Node18</title>
<g id="a_node18"><a xlink:title=" ">
<polygon fill="white" stroke="#bfbfbf" points="915.05,-56.5 915.05,-75.5 1060.05,-75.5 1060.05,-56.5 915.05,-56.5"/>
<text text-anchor="middle" x="987.55" y="-63.5" font-family="Helvetica,sans-Serif" font-size="10.00">cantera/ext/fmt/ostream.h</text>
</a>
</g>
</g>
<!-- Node15&#45;&gt;Node18 -->
<g id="edge18" class="edge">
<title>Node15&#45;&gt;Node18</title>
<path fill="none" stroke="midnightblue" d="M1126.34,-117.98C1098.55,-107.77 1051.82,-90.61 1020.35,-79.05"/>
<polygon fill="midnightblue" stroke="midnightblue" points="1021.31,-75.67 1010.71,-75.51 1018.89,-82.24 1021.31,-75.67"/>
</g>
<!-- Node20&#45;&gt;Node3 -->
<g id="edge22" class="edge">
<title>Node20&#45;&gt;Node3</title>
<path fill="none" stroke="midnightblue" d="M513.21,-235.44C555.69,-226.04 623.98,-210.93 670.02,-200.74"/>
<polygon fill="midnightblue" stroke="midnightblue" points="671.06,-204.09 680.07,-198.52 669.55,-197.26 671.06,-204.09"/>
</g>
<!-- Node20&#45;&gt;Node4 -->
<g id="edge21" class="edge">
<title>Node20&#45;&gt;Node4</title>
<path fill="none" stroke="midnightblue" d="M499.22,-235.46C517.13,-228.18 540.88,-216.14 556.55,-199 585.01,-167.85 561.25,-137.92 594.55,-112 629.86,-84.51 758.71,-73.17 825.61,-69.05"/>
<polygon fill="midnightblue" stroke="midnightblue" points="826.02,-72.54 835.79,-68.45 825.6,-65.55 826.02,-72.54"/>
</g>
<!-- Node21 -->
<g id="node21" class="node">
<title>Node21</title>
<g id="a_node21"><a xlink:href="../../da/d58/Units_8h.html" target="_top" xlink:title="Header for unit conversion utilities, which are used to translate user input from input files (See In...">
<polygon fill="white" stroke="black" points="15.05,-179.5 15.05,-198.5 132.05,-198.5 132.05,-179.5 15.05,-179.5"/>
<text text-anchor="middle" x="73.55" y="-186.5" font-family="Helvetica,sans-Serif" font-size="10.00">cantera/base/Units.h</text>
</a>
</g>
</g>
<!-- Node20&#45;&gt;Node21 -->
<g id="edge23" class="edge">
<title>Node20&#45;&gt;Node21</title>
<path fill="none" stroke="midnightblue" d="M411.01,-235.44C337.82,-225.59 217.99,-209.45 142.56,-199.29"/>
<polygon fill="midnightblue" stroke="midnightblue" points="142.6,-195.77 132.22,-197.9 141.67,-202.7 142.6,-195.77"/>
</g>
<!-- Node22 -->
<g id="node22" class="node">
<title>Node22</title>
<g id="a_node22"><a xlink:title=" ">
<polygon fill="white" stroke="#bfbfbf" points="150.05,-179.5 150.05,-198.5 243.05,-198.5 243.05,-179.5 150.05,-179.5"/>
<text text-anchor="middle" x="196.55" y="-186.5" font-family="Helvetica,sans-Serif" font-size="10.00">unordered_map</text>
</a>
</g>
</g>
<!-- Node20&#45;&gt;Node22 -->
<g id="edge25" class="edge">
<title>Node20&#45;&gt;Node22</title>
<path fill="none" stroke="midnightblue" d="M430.5,-235.44C381.7,-225.96 302.98,-210.67 250.52,-200.48"/>
<polygon fill="midnightblue" stroke="midnightblue" points="250.87,-196.99 240.39,-198.52 249.54,-203.86 250.87,-196.99"/>
</g>
<!-- Node23 -->
<g id="node23" class="node">
<title>Node23</title>
<g id="a_node23"><a xlink:title=" ">
<polygon fill="white" stroke="#bfbfbf" points="261.55,-179.5 261.55,-198.5 329.55,-198.5 329.55,-179.5 261.55,-179.5"/>
<text text-anchor="middle" x="295.55" y="-186.5" font-family="Helvetica,sans-Serif" font-size="10.00">filesystem</text>
</a>
</g>
</g>
<!-- Node20&#45;&gt;Node23 -->
<g id="edge26" class="edge">
<title>Node20&#45;&gt;Node23</title>
<path fill="none" stroke="midnightblue" d="M446.18,-235.44C415.81,-226.28 367.44,-211.69 333.73,-201.52"/>
<polygon fill="midnightblue" stroke="midnightblue" points="334.36,-198.05 323.78,-198.52 332.34,-204.76 334.36,-198.05"/>
</g>
<!-- Node24 -->
<g id="node24" class="node">
<title>Node24</title>
<g id="a_node24"><a xlink:title=" ">
<polygon fill="white" stroke="#bfbfbf" points="348.05,-179.5 348.05,-198.5 383.05,-198.5 383.05,-179.5 348.05,-179.5"/>
<text text-anchor="middle" x="365.55" y="-186.5" font-family="Helvetica,sans-Serif" font-size="10.00">any</text>
</a>
</g>
</g>
<!-- Node20&#45;&gt;Node24 -->
<g id="edge27" class="edge">
<title>Node20&#45;&gt;Node24</title>
<path fill="none" stroke="midnightblue" d="M457.03,-235.32C439.47,-226.62 412.22,-213.12 392.02,-203.11"/>
<polygon fill="midnightblue" stroke="midnightblue" points="393.53,-199.96 383.02,-198.65 390.42,-206.23 393.53,-199.96"/>
</g>
<!-- Node25 -->
<g id="node25" class="node">
<title>Node25</title>
<g id="a_node25"><a xlink:href="../../da/d4c/AnyMap_8inl_8h.html" target="_top" xlink:title=" ">
<polygon fill="white" stroke="black" points="401.55,-179.5 401.55,-198.5 547.55,-198.5 547.55,-179.5 401.55,-179.5"/>
<text text-anchor="middle" x="474.55" y="-186.5" font-family="Helvetica,sans-Serif" font-size="10.00">cantera/base/AnyMap.inl.h</text>
</a>
</g>
</g>
<!-- Node20&#45;&gt;Node25 -->
<g id="edge28" class="edge">
<title>Node20&#45;&gt;Node25</title>
<path fill="none" stroke="midnightblue" d="M469.38,-235.08C467.87,-227.93 467.44,-217.64 468.09,-208.69"/>
<polygon fill="midnightblue" stroke="midnightblue" points="471.56,-209.13 469.42,-198.75 464.62,-208.2 471.56,-209.13"/>
</g>
<!-- Node21&#45;&gt;Node4 -->
<g id="edge24" class="edge">
<title>Node21&#45;&gt;Node4</title>
<path fill="none" stroke="midnightblue" d="M127.32,-179.48C217.2,-165.27 403.65,-135.94 561.55,-112 656.15,-97.65 767.36,-81.4 825.85,-72.9"/>
<polygon fill="midnightblue" stroke="midnightblue" points="826.4,-76.35 835.8,-71.45 825.4,-69.43 826.4,-76.35"/>
</g>
<!-- Node25&#45;&gt;Node20 -->
<g id="edge29" class="edge">
<title>Node25&#45;&gt;Node20</title>
<path fill="none" stroke="midnightblue" d="M479.68,-198.75C481.2,-205.86 481.65,-216.14 481.02,-225.1"/>
<polygon fill="midnightblue" stroke="midnightblue" points="477.54,-224.71 479.71,-235.08 484.48,-225.62 477.54,-224.71"/>
</g>
<!-- Node27 -->
<g id="node27" class="node">
<title>Node27</title>
<g id="a_node27"><a xlink:href="../../d7/d01/ThermoPhase_8h.html" target="_top" xlink:title="Header file for class ThermoPhase, the base class for phases with thermodynamic properties,...">
<polygon fill="white" stroke="black" points="458.55,-409 458.55,-428 550.55,-428 550.55,-409 458.55,-409"/>
<text text-anchor="middle" x="504.55" y="-416" font-family="Helvetica,sans-Serif" font-size="10.00">ThermoPhase.h</text>
</a>
</g>
</g>
<!-- Node26&#45;&gt;Node27 -->
<g id="edge31" class="edge">
<title>Node26&#45;&gt;Node27</title>
<path fill="none" stroke="midnightblue" d="M516.54,-470.48C514.55,-461.99 511.42,-448.7 508.86,-437.82"/>
<polygon fill="midnightblue" stroke="midnightblue" points="512.25,-436.94 506.55,-428.01 505.43,-438.54 512.25,-436.94"/>
</g>
<!-- Node27&#45;&gt;Node20 -->
<g id="edge44" class="edge">
<title>Node27&#45;&gt;Node20</title>
<path fill="none" stroke="midnightblue" d="M503.52,-408.86C501.03,-388.33 494.21,-335.02 485.55,-291 483.82,-282.21 481.51,-272.55 479.46,-264.44"/>
<polygon fill="midnightblue" stroke="midnightblue" points="482.79,-263.37 476.89,-254.58 476.02,-265.13 482.79,-263.37"/>
</g>
<!-- Node27&#45;&gt;Node21 -->
<g id="edge43" class="edge">
<title>Node27&#45;&gt;Node21</title>
<path fill="none" stroke="midnightblue" d="M463.67,-408.97C428.63,-400.8 377.34,-386.79 335.55,-367 236.43,-320.06 132.44,-238.58 91.56,-205.06"/>
<polygon fill="midnightblue" stroke="midnightblue" points="93.76,-202.34 83.82,-198.67 89.3,-207.74 93.76,-202.34"/>
</g>
<!-- Node28 -->
<g id="node28" class="node">
<title>Node28</title>
<g id="a_node28"><a xlink:href="../../da/d84/Phase_8h.html" target="_top" xlink:title="Header file for class Phase.">
<polygon fill="white" stroke="black" points="597.05,-235.5 597.05,-254.5 652.05,-254.5 652.05,-235.5 597.05,-235.5"/>
<text text-anchor="middle" x="624.55" y="-242.5" font-family="Helvetica,sans-Serif" font-size="10.00">Phase.h</text>
</a>
</g>
</g>
<!-- Node27&#45;&gt;Node28 -->
<g id="edge32" class="edge">
<title>Node27&#45;&gt;Node28</title>
<path fill="none" stroke="midnightblue" d="M506.7,-408.98C512.52,-387.33 530.23,-329.18 561.55,-291 571.9,-278.37 586.62,-267.59 599.23,-259.75"/>
<polygon fill="midnightblue" stroke="midnightblue" points="601.13,-262.7 607.94,-254.58 597.56,-256.68 601.13,-262.7"/>
</g>
<!-- Node32 -->
<g id="node31" class="node">
<title>Node32</title>
<g id="a_node31"><a xlink:href="../../d6/d7a/MultiSpeciesThermo_8h.html" target="_top" xlink:title="Header for a general species thermodynamic property manager for a phase (see MultiSpeciesThermo).">
<polygon fill="white" stroke="black" points="345.05,-347.5 345.05,-366.5 470.05,-366.5 470.05,-347.5 345.05,-347.5"/>
<text text-anchor="middle" x="407.55" y="-354.5" font-family="Helvetica,sans-Serif" font-size="10.00">MultiSpeciesThermo.h</text>
</a>
</g>
</g>
<!-- Node27&#45;&gt;Node32 -->
<g id="edge38" class="edge">
<title>Node27&#45;&gt;Node32</title>
<path fill="none" stroke="midnightblue" d="M490.65,-408.98C474.87,-399.3 448.91,-383.37 430.2,-371.89"/>
<polygon fill="midnightblue" stroke="midnightblue" points="431.77,-368.75 421.42,-366.51 428.11,-374.72 431.77,-368.75"/>
</g>
<!-- Node28&#45;&gt;Node3 -->
<g id="edge33" class="edge">
<title>Node28&#45;&gt;Node3</title>
<path fill="none" stroke="midnightblue" d="M639.65,-235.32C654.45,-226.82 677.24,-213.73 694.53,-203.8"/>
<polygon fill="midnightblue" stroke="midnightblue" points="696.55,-206.67 703.48,-198.65 693.07,-200.6 696.55,-206.67"/>
</g>
<!-- Node29 -->
<g id="node29" class="node">
<title>Node29</title>
<g id="a_node29"><a xlink:href="../../d9/dda/Elements_8h.html" target="_top" xlink:title="Contains the getElementWeight function and the definitions of element constraint types.">
<polygon fill="white" stroke="black" points="603.05,-118 603.05,-137 752.05,-137 752.05,-118 603.05,-118"/>
<text text-anchor="middle" x="677.55" y="-125" font-family="Helvetica,sans-Serif" font-size="10.00">cantera/thermo/Elements.h</text>
</a>
</g>
</g>
<!-- Node28&#45;&gt;Node29 -->
<g id="edge34" class="edge">
<title>Node28&#45;&gt;Node29</title>
<path fill="none" stroke="midnightblue" d="M624.01,-235.14C623.58,-222.2 624.11,-197.64 632.55,-179 638.6,-165.63 649.47,-153.27 659.01,-144.13"/>
<polygon fill="midnightblue" stroke="midnightblue" points="661.53,-146.57 666.58,-137.26 656.82,-141.39 661.53,-146.57"/>
</g>
<!-- Node30 -->
<g id="node30" class="node">
<title>Node30</title>
<g id="a_node30"><a xlink:href="../../d6/df6/ValueCache_8h.html" target="_top" xlink:title=" ">
<polygon fill="white" stroke="red" points="814.05,-179.5 814.05,-198.5 963.05,-198.5 963.05,-179.5 814.05,-179.5"/>
<text text-anchor="middle" x="888.55" y="-186.5" font-family="Helvetica,sans-Serif" font-size="10.00">cantera/base/ValueCache.h</text>
</a>
</g>
</g>
<!-- Node28&#45;&gt;Node30 -->
<g id="edge36" class="edge">
<title>Node28&#45;&gt;Node30</title>
<path fill="none" stroke="midnightblue" d="M652.3,-238.32C696.05,-229.38 781.73,-211.85 836.99,-200.55"/>
<polygon fill="midnightblue" stroke="midnightblue" points="837.85,-203.94 846.94,-198.51 836.44,-197.09 837.85,-203.94"/>
</g>
<!-- Node29&#45;&gt;Node4 -->
<g id="edge35" class="edge">
<title>Node29&#45;&gt;Node4</title>
<path fill="none" stroke="midnightblue" d="M704.63,-117.98C737.47,-107.64 792.98,-90.16 829.69,-78.6"/>
<polygon fill="midnightblue" stroke="midnightblue" points="831.03,-81.85 839.52,-75.51 828.93,-75.17 831.03,-81.85"/>
</g>
<!-- Node30&#45;&gt;Node4 -->
<g id="edge37" class="edge">
<title>Node30&#45;&gt;Node4</title>
<path fill="none" stroke="midnightblue" d="M887.54,-179.06C885.86,-164.81 882.22,-136.08 877.55,-112 875.84,-103.21 873.54,-93.55 871.48,-85.44"/>
<polygon fill="midnightblue" stroke="midnightblue" points="874.81,-84.36 868.9,-75.57 868.04,-86.13 874.81,-84.36"/>
</g>
<!-- Node33 -->
<g id="node32" class="node">
<title>Node33</title>
<g id="a_node32"><a xlink:href="../../d4/d87/SpeciesThermoInterpType_8h.html" target="_top" xlink:title="Pure Virtual Base class for individual species reference state thermodynamic managers and text for th...">
<polygon fill="white" stroke="black" points="324.55,-291.5 324.55,-310.5 476.55,-310.5 476.55,-291.5 324.55,-291.5"/>
<text text-anchor="middle" x="400.55" y="-298.5" font-family="Helvetica,sans-Serif" font-size="10.00">SpeciesThermoInterpType.h</text>
</a>
</g>
</g>
<!-- Node32&#45;&gt;Node33 -->
<g id="edge39" class="edge">
<title>Node32&#45;&gt;Node33</title>
<path fill="none" stroke="midnightblue" d="M406.39,-347.08C405.46,-339.93 404.13,-329.64 402.97,-320.69"/>
<polygon fill="midnightblue" stroke="midnightblue" points="406.44,-320.22 401.68,-310.75 399.5,-321.12 406.44,-320.22"/>
</g>
<!-- Node33&#45;&gt;Node3 -->
<g id="edge41" class="edge">
<title>Node33&#45;&gt;Node3</title>
<path fill="none" stroke="midnightblue" d="M434.65,-291.49C465.03,-283.48 510.46,-270.41 548.55,-255 566.6,-247.69 569.62,-242.63 587.55,-235 618.15,-221.97 653.93,-209.89 680.36,-201.53"/>
<polygon fill="midnightblue" stroke="midnightblue" points="681.5,-204.84 690,-198.51 679.41,-198.16 681.5,-204.84"/>
</g>
<!-- Node33&#45;&gt;Node4 -->
<g id="edge40" class="edge">
<title>Node33&#45;&gt;Node4</title>
<path fill="none" stroke="midnightblue" d="M333.5,-291.45C209.62,-274.24 -38.68,-232.47 5.55,-179 58.61,-114.86 661.18,-78.02 825.42,-69.12"/>
<polygon fill="midnightblue" stroke="midnightblue" points="825.8,-72.61 835.59,-68.58 825.42,-65.62 825.8,-72.61"/>
</g>
<!-- Node33&#45;&gt;Node20 -->
<g id="edge42" class="edge">
<title>Node33&#45;&gt;Node20</title>
<path fill="none" stroke="midnightblue" d="M412.44,-291.32C423.7,-283.11 440.83,-270.6 454.26,-260.81"/>
<polygon fill="midnightblue" stroke="midnightblue" points="456.43,-263.56 462.44,-254.83 452.3,-257.9 456.43,-263.56"/>
</g>
<!-- Node35 -->
<g id="node34" class="node">
<title>Node35</title>
<g id="a_node34"><a xlink:href="../../d5/db4/Kinetics_8h.html" target="_top" xlink:title="Base class for kinetics managers and also contains the kineticsmgr module documentation (see Kinetics...">
<polygon fill="white" stroke="black" points="917.05,-291.5 917.05,-310.5 982.05,-310.5 982.05,-291.5 917.05,-291.5"/>
<text text-anchor="middle" x="949.55" y="-298.5" font-family="Helvetica,sans-Serif" font-size="10.00">Kinetics.h</text>
</a>
</g>
</g>
<!-- Node34&#45;&gt;Node35 -->
<g id="edge46" class="edge">
<title>Node34&#45;&gt;Node35</title>
<path fill="none" stroke="midnightblue" d="M853.04,-403.34C873.58,-381.77 912.58,-340.81 934.19,-318.13"/>
<polygon fill="midnightblue" stroke="midnightblue" points="936.93,-320.32 941.29,-310.67 931.86,-315.5 936.93,-320.32"/>
</g>
<!-- Node39 -->
<g id="node37" class="node">
<title>Node39</title>
<g id="a_node37"><a xlink:href="../../d6/d42/MultiRate_8h.html" target="_top" xlink:title=" ">
<polygon fill="white" stroke="black" points="803.05,-347.5 803.05,-366.5 876.05,-366.5 876.05,-347.5 803.05,-347.5"/>
<text text-anchor="middle" x="839.55" y="-354.5" font-family="Helvetica,sans-Serif" font-size="10.00">MultiRate.h</text>
</a>
</g>
</g>
<!-- Node34&#45;&gt;Node39 -->
<g id="edge52" class="edge">
<title>Node34&#45;&gt;Node39</title>
<path fill="none" stroke="midnightblue" d="M839.55,-403.4C839.55,-395.47 839.55,-385.46 839.55,-376.86"/>
<polygon fill="midnightblue" stroke="midnightblue" points="843.05,-376.66 839.55,-366.66 836.05,-376.66 843.05,-376.66"/>
</g>
<!-- Node35&#45;&gt;Node30 -->
<g id="edge51" class="edge">
<title>Node35&#45;&gt;Node30</title>
<path fill="none" stroke="midnightblue" d="M967.43,-291.34C989.59,-279.41 1022.68,-256.9 1007.55,-235 996.32,-218.75 978.42,-208.36 959.88,-201.73"/>
<polygon fill="midnightblue" stroke="midnightblue" points="960.74,-198.33 950.15,-198.58 958.59,-204.99 960.74,-198.33"/>
</g>
<!-- Node36 -->
<g id="node35" class="node">
<title>Node36</title>
<g id="a_node35"><a xlink:href="../../dd/dfd/StoichManager_8h.html" target="_top" xlink:title=" ">
<polygon fill="white" stroke="black" points="900.55,-235.5 900.55,-254.5 998.55,-254.5 998.55,-235.5 900.55,-235.5"/>
<text text-anchor="middle" x="949.55" y="-242.5" font-family="Helvetica,sans-Serif" font-size="10.00">StoichManager.h</text>
</a>
</g>
</g>
<!-- Node35&#45;&gt;Node36 -->
<g id="edge47" class="edge">
<title>Node35&#45;&gt;Node36</title>
<path fill="none" stroke="midnightblue" d="M949.55,-291.08C949.55,-284.01 949.55,-273.86 949.55,-264.99"/>
<polygon fill="midnightblue" stroke="midnightblue" points="953.05,-264.75 949.55,-254.75 946.05,-264.75 953.05,-264.75"/>
</g>
<!-- Node36&#45;&gt;Node3 -->
<g id="edge50" class="edge">
<title>Node36&#45;&gt;Node3</title>
<path fill="none" stroke="midnightblue" d="M912.94,-235.44C872.82,-226.06 808.35,-210.99 764.76,-200.8"/>
<polygon fill="midnightblue" stroke="midnightblue" points="765.51,-197.38 754.98,-198.52 763.92,-204.2 765.51,-197.38"/>
</g>
<!-- Node37 -->
<g id="node36" class="node">
<title>Node37</title>
<g id="a_node36"><a xlink:href="../../d9/d42/eigen__sparse_8h_source.html" target="_top" xlink:title=" ">
<polygon fill="white" stroke="red" points="1272.05,-112.5 1272.05,-142.5 1403.05,-142.5 1403.05,-112.5 1272.05,-112.5"/>
<text text-anchor="start" x="1280.05" y="-130.5" font-family="Helvetica,sans-Serif" font-size="10.00">cantera/numerics/eigen</text>
<text text-anchor="middle" x="1337.55" y="-119.5" font-family="Helvetica,sans-Serif" font-size="10.00">_sparse.h</text>
</a>
</g>
</g>
<!-- Node36&#45;&gt;Node37 -->
<g id="edge48" class="edge">
<title>Node36&#45;&gt;Node37</title>
<path fill="none" stroke="midnightblue" d="M995.68,-235.49C1036.52,-227.52 1097.54,-214.52 1149.55,-199 1200.29,-183.85 1257.02,-161.86 1294.76,-146.47"/>
<polygon fill="midnightblue" stroke="midnightblue" points="1296.48,-149.55 1304.4,-142.52 1293.82,-143.07 1296.48,-149.55"/>
</g>
<!-- Node37&#45;&gt;Node5 -->
<g id="edge49" class="edge">
<title>Node37&#45;&gt;Node5</title>
<path fill="none" stroke="midnightblue" d="M1352.93,-112.35C1366.54,-98.04 1382.76,-75.33 1372.55,-56 1365.12,-41.95 1351.13,-31.47 1337.93,-24.17"/>
<polygon fill="midnightblue" stroke="midnightblue" points="1339.5,-21.04 1329.01,-19.62 1336.32,-27.28 1339.5,-21.04"/>
</g>
<!-- Node40 -->
<g id="node38" class="node">
<title>Node40</title>
<g id="a_node38"><a xlink:href="../../d8/db0/ReactionRate_8h.html" target="_top" xlink:title=" ">
<polygon fill="white" stroke="black" points="720.05,-291.5 720.05,-310.5 811.05,-310.5 811.05,-291.5 720.05,-291.5"/>
<text text-anchor="middle" x="765.55" y="-298.5" font-family="Helvetica,sans-Serif" font-size="10.00">ReactionRate.h</text>
</a>
</g>
</g>
<!-- Node39&#45;&gt;Node40 -->
<g id="edge53" class="edge">
<title>Node39&#45;&gt;Node40</title>
<path fill="none" stroke="midnightblue" d="M827.66,-347.32C816.4,-339.11 799.26,-326.6 785.84,-316.81"/>
<polygon fill="midnightblue" stroke="midnightblue" points="787.79,-313.9 777.65,-310.83 783.67,-319.56 787.79,-313.9"/>
</g>
<!-- Node41 -->
<g id="node39" class="node">
<title>Node41</title>
<g id="a_node39"><a xlink:href="../../dd/d16/MultiRateBase_8h.html" target="_top" xlink:title=" ">
<polygon fill="white" stroke="black" points="747.05,-235.5 747.05,-254.5 844.05,-254.5 844.05,-235.5 747.05,-235.5"/>
<text text-anchor="middle" x="795.55" y="-242.5" font-family="Helvetica,sans-Serif" font-size="10.00">MultiRateBase.h</text>
</a>
</g>
</g>
<!-- Node39&#45;&gt;Node41 -->
<g id="edge62" class="edge">
<title>Node39&#45;&gt;Node41</title>
<path fill="none" stroke="midnightblue" d="M837.67,-347.38C834.78,-334.73 828.71,-310.53 820.55,-291 816.59,-281.52 811.14,-271.47 806.34,-263.29"/>
<polygon fill="midnightblue" stroke="midnightblue" points="809.3,-261.42 801.13,-254.67 803.31,-265.04 809.3,-261.42"/>
</g>
<!-- Node43 -->
<g id="node41" class="node">
<title>Node43</title>
<g id="a_node41"><a xlink:href="../../de/df0/utilities_8h.html" target="_top" xlink:title="Various templated functions that carry out common vector and polynomial operations (see Templated Arr...">
<polygon fill="white" stroke="black" points="1052.55,-291.5 1052.55,-310.5 1180.55,-310.5 1180.55,-291.5 1052.55,-291.5"/>
<text text-anchor="middle" x="1116.55" y="-298.5" font-family="Helvetica,sans-Serif" font-size="10.00">cantera/base/utilities.h</text>
</a>
</g>
</g>
<!-- Node39&#45;&gt;Node43 -->
<g id="edge63" class="edge">
<title>Node39&#45;&gt;Node43</title>
<path fill="none" stroke="midnightblue" d="M876.33,-348.83C924.13,-339.51 1007.95,-323.17 1062.85,-312.47"/>
<polygon fill="midnightblue" stroke="midnightblue" points="1063.61,-315.89 1072.75,-310.54 1062.27,-309.02 1063.61,-315.89"/>
</g>
<!-- Node40&#45;&gt;Node3 -->
<g id="edge61" class="edge">
<title>Node40&#45;&gt;Node3</title>
<path fill="none" stroke="midnightblue" d="M759.51,-291.38C753.55,-282.56 744.48,-268.31 738.55,-255 731.79,-239.84 726.42,-221.72 722.95,-208.47"/>
<polygon fill="midnightblue" stroke="midnightblue" points="726.32,-207.51 720.5,-198.65 719.53,-209.2 726.32,-207.51"/>
</g>
<!-- Node40&#45;&gt;Node20 -->
<g id="edge56" class="edge">
<title>Node40&#45;&gt;Node20</title>
<path fill="none" stroke="midnightblue" d="M719.76,-291.5C668.53,-282 585.52,-266.59 530.49,-256.38"/>
<polygon fill="midnightblue" stroke="midnightblue" points="531.02,-252.92 520.55,-254.54 529.74,-259.8 531.02,-252.92"/>
</g>
<!-- Node40&#45;&gt;Node21 -->
<g id="edge57" class="edge">
<title>Node40&#45;&gt;Node21</title>
<path fill="none" stroke="midnightblue" d="M719.91,-292.23C717.08,-291.8 714.28,-291.38 711.55,-291 573.33,-271.52 537.44,-276.67 399.55,-255 299.91,-239.35 184.37,-214.77 121.09,-200.75"/>
<polygon fill="midnightblue" stroke="midnightblue" points="121.54,-197.27 111.02,-198.51 120.02,-204.1 121.54,-197.27"/>
</g>
<!-- Node40&#45;&gt;Node41 -->
<g id="edge54" class="edge">
<title>Node40&#45;&gt;Node41</title>
<path fill="none" stroke="midnightblue" d="M770.5,-291.08C774.65,-283.61 780.7,-272.72 785.81,-263.52"/>
<polygon fill="midnightblue" stroke="midnightblue" points="788.89,-265.19 790.69,-254.75 782.77,-261.79 788.89,-265.19"/>
</g>
<!-- Node42 -->
<g id="node40" class="node">
<title>Node42</title>
<g id="a_node40"><a xlink:href="../../d2/d49/global_8h.html" target="_top" xlink:title="This file contains definitions for utility functions and text for modules, inputfiles and logging,...">
<polygon fill="white" stroke="black" points="1018.55,-179.5 1018.55,-198.5 1140.55,-198.5 1140.55,-179.5 1018.55,-179.5"/>
<text text-anchor="middle" x="1079.55" y="-186.5" font-family="Helvetica,sans-Serif" font-size="10.00">cantera/base/global.h</text>
</a>
</g>
</g>
<!-- Node40&#45;&gt;Node42 -->
<g id="edge58" class="edge">
<title>Node40&#45;&gt;Node42</title>
<path fill="none" stroke="midnightblue" d="M782.45,-291.43C800.19,-282.42 828.87,-267.8 853.55,-255 870.49,-246.21 873.68,-241.72 891.55,-235 932.89,-219.45 981.42,-207.99 1018.82,-200.53"/>
<polygon fill="midnightblue" stroke="midnightblue" points="1019.91,-203.89 1029.05,-198.53 1018.57,-197.02 1019.91,-203.89"/>
</g>
<!-- Node41&#45;&gt;Node4 -->
<g id="edge55" class="edge">
<title>Node41&#45;&gt;Node4</title>
<path fill="none" stroke="midnightblue" d="M841.02,-235.43C890.7,-225.61 964.37,-209.51 972.55,-199 1006.52,-155.3 933.14,-104.46 891.97,-80.63"/>
<polygon fill="midnightblue" stroke="midnightblue" points="893.43,-77.44 883.01,-75.57 889.99,-83.54 893.43,-77.44"/>
</g>
<!-- Node42&#45;&gt;Node4 -->
<g id="edge59" class="edge">
<title>Node42&#45;&gt;Node4</title>
<path fill="none" stroke="midnightblue" d="M1073.32,-179.39C1061.59,-163.76 1034.66,-130.62 1004.55,-112 988.06,-101.81 941.57,-87.62 907.08,-77.91"/>
<polygon fill="midnightblue" stroke="midnightblue" points="907.83,-74.49 897.25,-75.18 905.95,-81.23 907.83,-74.49"/>
</g>
<!-- Node42&#45;&gt;Node15 -->
<g id="edge60" class="edge">
<title>Node42&#45;&gt;Node15</title>
<path fill="none" stroke="midnightblue" d="M1089.58,-179.48C1100.6,-170.11 1118.51,-154.88 1131.89,-143.51"/>
<polygon fill="midnightblue" stroke="midnightblue" points="1134.18,-146.15 1139.54,-137.01 1129.65,-140.82 1134.18,-146.15"/>
</g>
<!-- Node43&#45;&gt;Node4 -->
<g id="edge64" class="edge">
<title>Node43&#45;&gt;Node4</title>
<path fill="none" stroke="midnightblue" d="M1126.99,-291.24C1135.97,-282.97 1148.29,-269.66 1153.55,-255 1159.31,-238.92 1159.76,-195.23 1149.55,-179 1132.38,-151.7 1114.26,-159.5 1086.55,-143 1064.08,-129.62 1060.56,-122.35 1036.55,-112 1013.45,-102.04 949.64,-86.26 907.11,-76.28"/>
<polygon fill="midnightblue" stroke="midnightblue" points="907.86,-72.86 897.33,-73.99 906.27,-79.67 907.86,-72.86"/>
</g>
<!-- Node44 -->
<g id="node42" class="node">
<title>Node44</title>
<g id="a_node42"><a xlink:title=" ">
<polygon fill="white" stroke="#bfbfbf" points="1088.55,-235.5 1088.55,-254.5 1144.55,-254.5 1144.55,-235.5 1088.55,-235.5"/>
<text text-anchor="middle" x="1116.55" y="-242.5" font-family="Helvetica,sans-Serif" font-size="10.00">numeric</text>
</a>
</g>
</g>
<!-- Node43&#45;&gt;Node44 -->
<g id="edge65" class="edge">
<title>Node43&#45;&gt;Node44</title>
<path fill="none" stroke="midnightblue" d="M1116.55,-291.08C1116.55,-284.01 1116.55,-273.86 1116.55,-264.99"/>
<polygon fill="midnightblue" stroke="midnightblue" points="1120.05,-264.75 1116.55,-254.75 1113.05,-264.75 1120.05,-264.75"/>
</g>
</g>
</svg>
        <g id="navigator" transform="translate(0 0)" fill="#404254">
                <rect fill="#f2f5e9" fill-opacity="0.5" stroke="#606060" stroke-width=".5" x="0" y="0" width="60" height="60"/>
                <use id="zoomplus" xlink:href="#zoomPlus" x="17" y="9" onmousedown="handleZoom(evt,'in')"/>
                <use id="zoomminus" xlink:href="#zoomMin" x="42" y="9" onmousedown="handleZoom(evt,'out')"/>
                <use id="reset" xlink:href="#resetDef" x="30" y="36" onmousedown="handleReset()"/>
                <g id="arrowUp" xlink:href="#dirArrow" transform="translate(30 24)" onmousedown="handlePan(0,-1)">
                  <use xlink:href="#rim" fill="#404040">
                        <set attributeName="fill" to="#808080" begin="arrowUp.mouseover" end="arrowUp.mouseout"/>
                  </use>
                  <path fill="none" stroke="white" stroke-width="1.5" d="M0,-3.0v7 M-2.5,-0.5L0,-3.0L2.5,-0.5"/>
                </g>
                <g id="arrowRight" xlink:href="#dirArrow" transform="rotate(90) translate(36 -43)" onmousedown="handlePan(1,0)">
                  <use xlink:href="#rim" fill="#404040">
                        <set attributeName="fill" to="#808080" begin="arrowRight.mouseover" end="arrowRight.mouseout"/>
                  </use>
                  <path fill="none" stroke="white" stroke-width="1.5" d="M0,-3.0v7 M-2.5,-0.5L0,-3.0L2.5,-0.5"/>
                </g>
                <g id="arrowDown" xlink:href="#dirArrow" transform="rotate(180) translate(-30 -48)" onmousedown="handlePan(0,1)">
                  <use xlink:href="#rim" fill="#404040">
                        <set attributeName="fill" to="#808080" begin="arrowDown.mouseover" end="arrowDown.mouseout"/>
                  </use>
                  <path fill="none" stroke="white" stroke-width="1.5" d="M0,-3.0v7 M-2.5,-0.5L0,-3.0L2.5,-0.5"/>
                </g>
                <g id="arrowLeft" xlink:href="#dirArrow" transform="rotate(270) translate(-36 17)" onmousedown="handlePan(-1,0)">
                  <use xlink:href="#rim" fill="#404040">
                        <set attributeName="fill" to="#808080" begin="arrowLeft.mouseover" end="arrowLeft.mouseout"/>
                  </use>
                  <path fill="none" stroke="white" stroke-width="1.5" d="M0,-3.0v7 M-2.5,-0.5L0,-3.0L2.5,-0.5"/>
                </g>
        </g>
        <svg viewBox="0 0 15 15" width="100%" height="30px" preserveAspectRatio="xMaxYMin meet">
         <g id="arrow_out" transform="scale(0.3 0.3)">
          <a xlink:href="Interface_8h__incl_org.svg" target="_base">
           <rect id="button" ry="5" rx="5" y="6" x="6" height="38" width="38"
                fill="#f2f5e9" fill-opacity="0.5" stroke="#606060" stroke-width="1.0"/>
           <path id="arrow"
             d="M 11.500037,31.436501 C 11.940474,20.09759 22.043105,11.32322 32.158766,21.979434 L 37.068811,17.246167 C 37.068811,17.246167 37.088388,32 37.088388,32 L 22.160133,31.978069 C 22.160133,31.978069 26.997745,27.140456 26.997745,27.140456 C 18.528582,18.264221 13.291696,25.230495 11.500037,31.436501 z"
             style="fill:#404040;"/>
          </a>
         </g>
        </svg>
</svg>
