<?xml version="1.0" encoding="UTF-8" standalone="no"?>
<!DOCTYPE svg PUBLIC "-//W3C//DTD SVG 1.1//EN"
 "http://www.w3.org/Graphics/SVG/1.1/DTD/svg11.dtd">
<!-- Generated by graphviz version 2.43.0 (0)
 -->
<!-- Title: ReactionRate.h Pages: 1 -->
<!--zoomable 302 -->

<svg id="main" version="1.1" xmlns="http://www.w3.org/2000/svg" xmlns:xlink="http://www.w3.org/1999/xlink" xml:space="preserve" onload="init(evt)">
<style type="text/css"><![CDATA[
.node, .edge {opacity: 0.7;}
.node.selected, .edge.selected {opacity: 1;}
.edge:hover path { stroke: red; }
.edge:hover polygon { stroke: red; fill: red; }
]]></style>

<defs>
  <circle id="rim" cx="0" cy="0" r="7"/>
  <circle id="rim2" cx="0" cy="0" r="3.5"/>
  <g id="zoomPlus">
    <use xlink:href="#rim" fill="#404040"><set attributeName="fill" to="#808080" begin="zoomplus.mouseover" end="zoomplus.mouseout"/></use>
    <path d="M-4,0h8M0,-4v8" fill="none" stroke="white" stroke-width="1.5" pointer-events="none"/>
  </g>
  <g id="zoomMin">
    <use xlink:href="#rim" fill="#404040"><set attributeName="fill" to="#808080" begin="zoomminus.mouseover" end="zoomminus.mouseout"/></use>
    <path d="M-4,0h8" fill="none" stroke="white" stroke-width="1.5" pointer-events="none"/>
  </g>
  <g id="arrowUp" transform="translate(30 24)">
    <use xlink:href="#rim"/>
    <path pointer-events="none" fill="none" stroke="white" stroke-width="1.5" d="M0,-3.0v7 M-2.5,-0.5L0,-3.0L2.5,-0.5"/>
  </g>
  <g id="arrowRight" transform="rotate(90) translate(36 -43)">
    <use xlink:href="#rim"/>
    <path pointer-events="none" fill="none" stroke="white" stroke-width="1.5" d="M0,-3.0v7 M-2.5,-0.5L0,-3.0L2.5,-0.5"/>
  </g>
  <g id="arrowDown" transform="rotate(180) translate(-30 -48)">
    <use xlink:href="#rim"/>
    <path pointer-events="none" fill="none" stroke="white" stroke-width="1.5" d="M0,-3.0v7 M-2.5,-0.5L0,-3.0L2.5,-0.5"/>
  </g>
  <g id="arrowLeft" transform="rotate(270) translate(-36 17)">
    <use xlink:href="#rim"/>
    <path pointer-events="none" fill="none" stroke="white" stroke-width="1.5" d="M0,-3.0v7 M-2.5,-0.5L0,-3.0L2.5,-0.5"/>
  </g>
  <g id="resetDef">
    <use xlink:href="#rim2" fill="#404040"><set attributeName="fill" to="#808080" begin="reset.mouseover" end="reset.mouseout"/></use>
  </g>
</defs>
<script type="application/ecmascript">
var viewWidth = 1166;
var viewHeight = 302;
var sectionId = 'dynsection-0';
</script>
<script type="application/ecmascript" xlink:href="../../svg.min.js"/>
<svg id="graph" class="graph">
<g id="viewport">
<title>ReactionRate.h</title>
<!-- Node1 -->
<g id="Node000001" class="node">
<title>Node1</title>
<g id="a_Node000001"><a xlink:title=" ">
<polygon fill="#999999" stroke="#666666" points="537,-294 446,-294 446,-275 537,-275 537,-294"/>
<text text-anchor="middle" x="491.5" y="-282" font-family="Helvetica,sans-Serif" font-size="10.00">ReactionRate.h</text>
</a>
</g>
</g>
<!-- Node2 -->
<g id="Node000002" class="node">
<title>Node2</title>
<g id="a_Node000002"><a xlink:href="../../dd/d16/MultiRateBase_8h.html" target="_top" xlink:title=" ">
<polygon fill="white" stroke="#666666" points="453,-239 356,-239 356,-220 453,-220 453,-239"/>
<text text-anchor="middle" x="404.5" y="-227" font-family="Helvetica,sans-Serif" font-size="10.00">MultiRateBase.h</text>
</a>
</g>
</g>
<!-- Node1&#45;&gt;Node2 -->
<g id="edge1_Node000001_Node000002" class="edge">
<title>Node1&#45;&gt;Node2</title>
<g id="a_edge1_Node000001_Node000002"><a xlink:title=" ">
<path fill="none" stroke="#63b8ff" d="M477.52,-274.98C464.03,-266.77 443.37,-254.18 427.46,-244.49"/>
<polygon fill="#63b8ff" stroke="#63b8ff" points="429.09,-241.38 418.73,-239.17 425.45,-247.36 429.09,-241.38"/>
</a>
</g>
</g>
<!-- Node14 -->
<g id="Node000014" class="node">
<title>Node14</title>
<g id="a_Node000014"><a xlink:href="../../dd/d2a/AnyMap_8h.html" target="_top" xlink:title=" ">
<polygon fill="white" stroke="#666666" points="836,-239 705,-239 705,-220 836,-220 836,-239"/>
<text text-anchor="middle" x="770.5" y="-227" font-family="Helvetica,sans-Serif" font-size="10.00">cantera/base/AnyMap.h</text>
</a>
</g>
</g>
<!-- Node1&#45;&gt;Node14 -->
<g id="edge13_Node000001_Node000014" class="edge">
<title>Node1&#45;&gt;Node14</title>
<g id="a_edge13_Node000001_Node000014"><a xlink:title=" ">
<path fill="none" stroke="#63b8ff" d="M536.33,-274.98C584.99,-265.74 662.76,-250.97 715.19,-241.01"/>
<polygon fill="#63b8ff" stroke="#63b8ff" points="716.15,-244.39 725.32,-239.08 714.84,-237.51 716.15,-244.39"/>
</a>
</g>
</g>
<!-- Node15 -->
<g id="Node000015" class="node">
<title>Node15</title>
<g id="a_Node000015"><a xlink:href="../../db/d98/ctexceptions_8h.html" target="_top" xlink:title="Definitions for the classes that are thrown when Cantera experiences an error condition (also contain...">
<polygon fill="white" stroke="#666666" points="568.5,-184 414.5,-184 414.5,-165 568.5,-165 568.5,-184"/>
<text text-anchor="middle" x="491.5" y="-172" font-family="Helvetica,sans-Serif" font-size="10.00">cantera/base/ctexceptions.h</text>
</a>
</g>
</g>
<!-- Node1&#45;&gt;Node15 -->
<g id="edge34_Node000001_Node000015" class="edge">
<title>Node1&#45;&gt;Node15</title>
<g id="a_edge34_Node000001_Node000015"><a xlink:title=" ">
<path fill="none" stroke="#63b8ff" d="M491.5,-274.66C491.5,-257.17 491.5,-217.8 491.5,-194.27"/>
<polygon fill="#63b8ff" stroke="#63b8ff" points="495,-194.16 491.5,-184.16 488,-194.16 495,-194.16"/>
</a>
</g>
</g>
<!-- Node21 -->
<g id="Node000021" class="node">
<title>Node21</title>
<g id="a_Node000021"><a xlink:href="../../da/d58/Units_8h.html" target="_top" xlink:title="Header for unit conversion utilities, which are used to translate user input from input files (See In...">
<polygon fill="white" stroke="#666666" points="1158,-184 1041,-184 1041,-165 1158,-165 1158,-184"/>
<text text-anchor="middle" x="1099.5" y="-172" font-family="Helvetica,sans-Serif" font-size="10.00">cantera/base/Units.h</text>
</a>
</g>
</g>
<!-- Node1&#45;&gt;Node21 -->
<g id="edge30_Node000001_Node000021" class="edge">
<title>Node1&#45;&gt;Node21</title>
<g id="a_edge30_Node000001_Node000021"><a xlink:title=" ">
<path fill="none" stroke="#63b8ff" d="M537.18,-279.49C604.73,-273.16 735.05,-259.45 844.5,-239 921.7,-224.57 1010.38,-200.84 1060.19,-186.83"/>
<polygon fill="#63b8ff" stroke="#63b8ff" points="1061.24,-190.17 1069.92,-184.08 1059.34,-183.44 1061.24,-190.17"/>
</a>
</g>
</g>
<!-- Node26 -->
<g id="Node000026" class="node">
<title>Node26</title>
<g id="a_Node000026"><a xlink:href="../../d2/d49/global_8h.html" target="_top" xlink:title="This file contains definitions for utility functions and text for modules, inputfiles and logging,...">
<polygon fill="white" stroke="#666666" points="358.5,-184 236.5,-184 236.5,-165 358.5,-165 358.5,-184"/>
<text text-anchor="middle" x="297.5" y="-172" font-family="Helvetica,sans-Serif" font-size="10.00">cantera/base/global.h</text>
</a>
</g>
</g>
<!-- Node1&#45;&gt;Node26 -->
<g id="edge31_Node000001_Node000026" class="edge">
<title>Node1&#45;&gt;Node26</title>
<g id="a_edge31_Node000001_Node000026"><a xlink:title=" ">
<path fill="none" stroke="#63b8ff" d="M445.86,-276.91C415.6,-270.84 376.16,-259.54 346.5,-239 329.39,-227.15 315.55,-207.48 307,-193.17"/>
<polygon fill="#63b8ff" stroke="#63b8ff" points="309.93,-191.25 301.95,-184.28 303.85,-194.71 309.93,-191.25"/>
</a>
</g>
</g>
<!-- Node3 -->
<g id="Node000003" class="node">
<title>Node3</title>
<g id="a_Node000003"><a xlink:href="../../d9/ddc/ct__defs_8h.html" target="_top" xlink:title="This file contains definitions of constants, types and terms that are used in internal routines and a...">
<polygon fill="white" stroke="#666666" points="594,-74 467,-74 467,-55 594,-55 594,-74"/>
<text text-anchor="middle" x="530.5" y="-62" font-family="Helvetica,sans-Serif" font-size="10.00">cantera/base/ct_defs.h</text>
</a>
</g>
</g>
<!-- Node2&#45;&gt;Node3 -->
<g id="edge2_Node000002_Node000003" class="edge">
<title>Node2&#45;&gt;Node3</title>
<g id="a_edge2_Node000002_Node000003"><a xlink:title=" ">
<path fill="none" stroke="#63b8ff" d="M403.31,-219.93C400.81,-198.26 397.54,-140.79 427.5,-110 442.61,-94.47 464.03,-84.04 483.42,-77.2"/>
<polygon fill="#63b8ff" stroke="#63b8ff" points="484.64,-80.49 493.04,-74.04 482.45,-73.84 484.64,-80.49"/>
</a>
</g>
</g>
<!-- Node4 -->
<g id="Node000004" class="node">
<title>Node4</title>
<g id="a_Node000004"><a xlink:href="../../db/d16/config_8h_source.html" target="_top" xlink:title=" ">
<polygon fill="white" stroke="#666666" points="269,-19 214,-19 214,0 269,0 269,-19"/>
<text text-anchor="middle" x="241.5" y="-7" font-family="Helvetica,sans-Serif" font-size="10.00">config.h</text>
</a>
</g>
</g>
<!-- Node3&#45;&gt;Node4 -->
<g id="edge3_Node000003_Node000004" class="edge">
<title>Node3&#45;&gt;Node4</title>
<g id="a_edge3_Node000003_Node000004"><a xlink:title=" ">
<path fill="none" stroke="#63b8ff" d="M476.53,-54.94C427.4,-46.93 352.63,-34.22 279.25,-19.28"/>
<polygon fill="#63b8ff" stroke="#63b8ff" points="279.87,-15.83 269.37,-17.25 278.46,-22.69 279.87,-15.83"/>
</a>
</g>
</g>
<!-- Node5 -->
<g id="Node000005" class="node">
<title>Node5</title>
<g id="a_Node000005"><a xlink:title=" ">
<polygon fill="#e0e0e0" stroke="#999999" points="334,-19 287,-19 287,0 334,0 334,-19"/>
<text text-anchor="middle" x="310.5" y="-7" font-family="Helvetica,sans-Serif" font-size="10.00">cmath</text>
</a>
</g>
</g>
<!-- Node3&#45;&gt;Node5 -->
<g id="edge4_Node000003_Node000005" class="edge">
<title>Node3&#45;&gt;Node5</title>
<g id="a_edge4_Node000003_Node000005"><a xlink:title=" ">
<path fill="none" stroke="#63b8ff" d="M492.97,-54.93C457.05,-46.66 401.09,-33.6 344.14,-19.37"/>
<polygon fill="#63b8ff" stroke="#63b8ff" points="344.8,-15.92 334.25,-16.88 343.09,-22.71 344.8,-15.92"/>
</a>
</g>
</g>
<!-- Node6 -->
<g id="Node000006" class="node">
<title>Node6</title>
<g id="a_Node000006"><a xlink:title=" ">
<polygon fill="#e0e0e0" stroke="#999999" points="401,-19 352,-19 352,0 401,0 401,-19"/>
<text text-anchor="middle" x="376.5" y="-7" font-family="Helvetica,sans-Serif" font-size="10.00">cstdlib</text>
</a>
</g>
</g>
<!-- Node3&#45;&gt;Node6 -->
<g id="edge5_Node000003_Node000006" class="edge">
<title>Node3&#45;&gt;Node6</title>
<g id="a_edge5_Node000003_Node000006"><a xlink:title=" ">
<path fill="none" stroke="#63b8ff" d="M505.76,-54.98C480.05,-46.14 439.63,-32.23 410.84,-22.32"/>
<polygon fill="#63b8ff" stroke="#63b8ff" points="411.78,-18.94 401.18,-18.99 409.5,-25.56 411.78,-18.94"/>
</a>
</g>
</g>
<!-- Node7 -->
<g id="Node000007" class="node">
<title>Node7</title>
<g id="a_Node000007"><a xlink:title=" ">
<polygon fill="#e0e0e0" stroke="#999999" points="466,-19 419,-19 419,0 466,0 466,-19"/>
<text text-anchor="middle" x="442.5" y="-7" font-family="Helvetica,sans-Serif" font-size="10.00">vector</text>
</a>
</g>
</g>
<!-- Node3&#45;&gt;Node7 -->
<g id="edge6_Node000003_Node000007" class="edge">
<title>Node3&#45;&gt;Node7</title>
<g id="a_edge6_Node000003_Node000007"><a xlink:title=" ">
<path fill="none" stroke="#63b8ff" d="M516.36,-54.98C502.71,-46.77 481.81,-34.18 465.72,-24.49"/>
<polygon fill="#63b8ff" stroke="#63b8ff" points="467.27,-21.33 456.9,-19.17 463.66,-27.33 467.27,-21.33"/>
</a>
</g>
</g>
<!-- Node8 -->
<g id="Node000008" class="node">
<title>Node8</title>
<g id="a_Node000008"><a xlink:title=" ">
<polygon fill="#e0e0e0" stroke="#999999" points="522.5,-19 484.5,-19 484.5,0 522.5,0 522.5,-19"/>
<text text-anchor="middle" x="503.5" y="-7" font-family="Helvetica,sans-Serif" font-size="10.00">map</text>
</a>
</g>
</g>
<!-- Node3&#45;&gt;Node8 -->
<g id="edge7_Node000003_Node000008" class="edge">
<title>Node3&#45;&gt;Node8</title>
<g id="a_edge7_Node000003_Node000008"><a xlink:title=" ">
<path fill="none" stroke="#63b8ff" d="M526.04,-54.75C522.38,-47.57 517.09,-37.18 512.55,-28.27"/>
<polygon fill="#63b8ff" stroke="#63b8ff" points="515.53,-26.41 507.88,-19.09 509.3,-29.59 515.53,-26.41"/>
</a>
</g>
</g>
<!-- Node9 -->
<g id="Node000009" class="node">
<title>Node9</title>
<g id="a_Node000009"><a xlink:title=" ">
<polygon fill="#e0e0e0" stroke="#999999" points="572.5,-19 540.5,-19 540.5,0 572.5,0 572.5,-19"/>
<text text-anchor="middle" x="556.5" y="-7" font-family="Helvetica,sans-Serif" font-size="10.00">set</text>
</a>
</g>
</g>
<!-- Node3&#45;&gt;Node9 -->
<g id="edge8_Node000003_Node000009" class="edge">
<title>Node3&#45;&gt;Node9</title>
<g id="a_edge8_Node000003_Node000009"><a xlink:title=" ">
<path fill="none" stroke="#63b8ff" d="M534.79,-54.75C538.31,-47.57 543.41,-37.18 547.78,-28.27"/>
<polygon fill="#63b8ff" stroke="#63b8ff" points="551.02,-29.61 552.29,-19.09 544.74,-26.53 551.02,-29.61"/>
</a>
</g>
</g>
<!-- Node10 -->
<g id="Node000010" class="node">
<title>Node10</title>
<g id="a_Node000010"><a xlink:title=" ">
<polygon fill="#e0e0e0" stroke="#999999" points="634.5,-19 590.5,-19 590.5,0 634.5,0 634.5,-19"/>
<text text-anchor="middle" x="612.5" y="-7" font-family="Helvetica,sans-Serif" font-size="10.00">string</text>
</a>
</g>
</g>
<!-- Node3&#45;&gt;Node10 -->
<g id="edge9_Node000003_Node000010" class="edge">
<title>Node3&#45;&gt;Node10</title>
<g id="a_edge9_Node000003_Node000010"><a xlink:title=" ">
<path fill="none" stroke="#63b8ff" d="M543.67,-54.98C556.27,-46.84 575.5,-34.41 590.44,-24.76"/>
<polygon fill="#63b8ff" stroke="#63b8ff" points="592.59,-27.54 599.09,-19.17 588.79,-21.66 592.59,-27.54"/>
</a>
</g>
</g>
<!-- Node11 -->
<g id="Node000011" class="node">
<title>Node11</title>
<g id="a_Node000011"><a xlink:title=" ">
<polygon fill="#e0e0e0" stroke="#999999" points="716.5,-19 652.5,-19 652.5,0 716.5,0 716.5,-19"/>
<text text-anchor="middle" x="684.5" y="-7" font-family="Helvetica,sans-Serif" font-size="10.00">algorithm</text>
</a>
</g>
</g>
<!-- Node3&#45;&gt;Node11 -->
<g id="edge10_Node000003_Node000011" class="edge">
<title>Node3&#45;&gt;Node11</title>
<g id="a_edge10_Node000003_Node000011"><a xlink:title=" ">
<path fill="none" stroke="#63b8ff" d="M555.24,-54.98C580.87,-46.16 621.13,-32.31 649.91,-22.41"/>
<polygon fill="#63b8ff" stroke="#63b8ff" points="651.25,-25.65 659.56,-19.08 648.97,-19.03 651.25,-25.65"/>
</a>
</g>
</g>
<!-- Node12 -->
<g id="Node000012" class="node">
<title>Node12</title>
<g id="a_Node000012"><a xlink:title=" ">
<polygon fill="#e0e0e0" stroke="#999999" points="792.5,-19 734.5,-19 734.5,0 792.5,0 792.5,-19"/>
<text text-anchor="middle" x="763.5" y="-7" font-family="Helvetica,sans-Serif" font-size="10.00">memory</text>
</a>
</g>
</g>
<!-- Node3&#45;&gt;Node12 -->
<g id="edge11_Node000003_Node000012" class="edge">
<title>Node3&#45;&gt;Node12</title>
<g id="a_edge11_Node000003_Node000012"><a xlink:title=" ">
<path fill="none" stroke="#63b8ff" d="M567.94,-54.98C610.81,-45.23 680.73,-29.33 724.32,-19.41"/>
<polygon fill="#63b8ff" stroke="#63b8ff" points="725.3,-22.78 734.27,-17.15 723.74,-15.95 725.3,-22.78"/>
</a>
</g>
</g>
<!-- Node13 -->
<g id="Node000013" class="node">
<title>Node13</title>
<g id="a_Node000013"><a xlink:title=" ">
<polygon fill="#e0e0e0" stroke="#999999" points="876,-19 811,-19 811,0 876,0 876,-19"/>
<text text-anchor="middle" x="843.5" y="-7" font-family="Helvetica,sans-Serif" font-size="10.00">functional</text>
</a>
</g>
</g>
<!-- Node3&#45;&gt;Node13 -->
<g id="edge12_Node000003_Node000013" class="edge">
<title>Node3&#45;&gt;Node13</title>
<g id="a_edge12_Node000003_Node000013"><a xlink:title=" ">
<path fill="none" stroke="#63b8ff" d="M586.14,-54.98C638.75,-46.78 720.15,-33.74 800.64,-19.1"/>
<polygon fill="#63b8ff" stroke="#63b8ff" points="801.76,-22.45 810.96,-17.21 800.5,-15.56 801.76,-22.45"/>
</a>
</g>
</g>
<!-- Node14&#45;&gt;Node3 -->
<g id="edge14_Node000014_Node000003" class="edge">
<title>Node14&#45;&gt;Node3</title>
<g id="a_edge14_Node000014_Node000003"><a xlink:title=" ">
<path fill="none" stroke="#63b8ff" d="M760.13,-219.95C744.81,-207.42 715.06,-183.58 688.5,-165 642.04,-132.5 585.31,-97.96 554.03,-79.34"/>
<polygon fill="#63b8ff" stroke="#63b8ff" points="555.57,-76.18 545.18,-74.1 552,-82.21 555.57,-76.18"/>
</a>
</g>
</g>
<!-- Node14&#45;&gt;Node15 -->
<g id="edge15_Node000014_Node000015" class="edge">
<title>Node14&#45;&gt;Node15</title>
<g id="a_edge15_Node000014_Node000015"><a xlink:title=" ">
<path fill="none" stroke="#63b8ff" d="M725.67,-219.98C677.01,-210.74 599.24,-195.97 546.81,-186.01"/>
<polygon fill="#63b8ff" stroke="#63b8ff" points="547.16,-182.51 536.68,-184.08 545.85,-189.39 547.16,-182.51"/>
</a>
</g>
</g>
<!-- Node14&#45;&gt;Node21 -->
<g id="edge23_Node000014_Node000021" class="edge">
<title>Node14&#45;&gt;Node21</title>
<g id="a_edge23_Node000014_Node000021"><a xlink:title=" ">
<path fill="none" stroke="#63b8ff" d="M823.36,-219.98C881.43,-210.63 974.65,-195.61 1036.48,-185.65"/>
<polygon fill="#63b8ff" stroke="#63b8ff" points="1037.18,-189.08 1046.5,-184.04 1036.07,-182.17 1037.18,-189.08"/>
</a>
</g>
</g>
<!-- Node22 -->
<g id="Node000022" class="node">
<title>Node22</title>
<g id="a_Node000022"><a xlink:title=" ">
<polygon fill="#e0e0e0" stroke="#999999" points="680,-184 587,-184 587,-165 680,-165 680,-184"/>
<text text-anchor="middle" x="633.5" y="-172" font-family="Helvetica,sans-Serif" font-size="10.00">unordered_map</text>
</a>
</g>
</g>
<!-- Node14&#45;&gt;Node22 -->
<g id="edge25_Node000014_Node000022" class="edge">
<title>Node14&#45;&gt;Node22</title>
<g id="a_edge25_Node000014_Node000022"><a xlink:title=" ">
<path fill="none" stroke="#63b8ff" d="M748.49,-219.98C726.05,-211.3 691.02,-197.75 665.51,-187.88"/>
<polygon fill="#63b8ff" stroke="#63b8ff" points="666.5,-184.51 655.91,-184.17 663.98,-191.04 666.5,-184.51"/>
</a>
</g>
</g>
<!-- Node23 -->
<g id="Node000023" class="node">
<title>Node23</title>
<g id="a_Node000023"><a xlink:title=" ">
<polygon fill="#e0e0e0" stroke="#999999" points="804.5,-184 736.5,-184 736.5,-165 804.5,-165 804.5,-184"/>
<text text-anchor="middle" x="770.5" y="-172" font-family="Helvetica,sans-Serif" font-size="10.00">filesystem</text>
</a>
</g>
</g>
<!-- Node14&#45;&gt;Node23 -->
<g id="edge26_Node000014_Node000023" class="edge">
<title>Node14&#45;&gt;Node23</title>
<g id="a_edge26_Node000014_Node000023"><a xlink:title=" ">
<path fill="none" stroke="#63b8ff" d="M770.5,-219.75C770.5,-212.8 770.5,-202.85 770.5,-194.13"/>
<polygon fill="#63b8ff" stroke="#63b8ff" points="774,-194.09 770.5,-184.09 767,-194.09 774,-194.09"/>
</a>
</g>
</g>
<!-- Node24 -->
<g id="Node000024" class="node">
<title>Node24</title>
<g id="a_Node000024"><a xlink:title=" ">
<polygon fill="#e0e0e0" stroke="#999999" points="858,-184 823,-184 823,-165 858,-165 858,-184"/>
<text text-anchor="middle" x="840.5" y="-172" font-family="Helvetica,sans-Serif" font-size="10.00">any</text>
</a>
</g>
</g>
<!-- Node14&#45;&gt;Node24 -->
<g id="edge27_Node000014_Node000024" class="edge">
<title>Node14&#45;&gt;Node24</title>
<g id="a_edge27_Node000014_Node000024"><a xlink:title=" ">
<path fill="none" stroke="#63b8ff" d="M781.75,-219.98C792.3,-212 808.3,-199.88 820.94,-190.31"/>
<polygon fill="#63b8ff" stroke="#63b8ff" points="823.19,-193 829.05,-184.17 818.96,-187.42 823.19,-193"/>
</a>
</g>
</g>
<!-- Node25 -->
<g id="Node000025" class="node">
<title>Node25</title>
<g id="a_Node000025"><a xlink:href="../../da/d4c/AnyMap_8inl_8h.html" target="_top" xlink:title=" ">
<polygon fill="white" stroke="#666666" points="1022.5,-184 876.5,-184 876.5,-165 1022.5,-165 1022.5,-184"/>
<text text-anchor="middle" x="949.5" y="-172" font-family="Helvetica,sans-Serif" font-size="10.00">cantera/base/AnyMap.inl.h</text>
</a>
</g>
</g>
<!-- Node14&#45;&gt;Node25 -->
<g id="edge28_Node000014_Node000025" class="edge">
<title>Node14&#45;&gt;Node25</title>
<g id="a_edge28_Node000014_Node000025"><a xlink:title=" ">
<path fill="none" stroke="#63b8ff" d="M794.14,-219.98C822.48,-211.01 870.21,-196.82 905.37,-186.89"/>
<polygon fill="#63b8ff" stroke="#63b8ff" points="906.7,-190.15 915.39,-184.08 904.81,-183.41 906.7,-190.15"/>
</a>
</g>
</g>
<!-- Node15&#45;&gt;Node3 -->
<g id="edge16_Node000015_Node000003" class="edge">
<title>Node15&#45;&gt;Node3</title>
<g id="a_edge16_Node000015_Node000003"><a xlink:title=" ">
<path fill="none" stroke="#63b8ff" d="M495.54,-164.74C499.58,-155.84 505.84,-141.61 510.5,-129 516.02,-114.08 521.39,-96.84 525.17,-84.09"/>
<polygon fill="#63b8ff" stroke="#63b8ff" points="528.61,-84.8 528.05,-74.22 521.89,-82.84 528.61,-84.8"/>
</a>
</g>
</g>
<!-- Node16 -->
<g id="Node000016" class="node">
<title>Node16</title>
<g id="a_Node000016"><a xlink:href="../../db/def/fmt_8h.html" target="_top" xlink:title="Wrapper for either system&#45;installed or local headers for fmt.">
<polygon fill="white" stroke="#666666" points="320,-129 211,-129 211,-110 320,-110 320,-129"/>
<text text-anchor="middle" x="265.5" y="-117" font-family="Helvetica,sans-Serif" font-size="10.00">cantera/base/fmt.h</text>
</a>
</g>
</g>
<!-- Node15&#45;&gt;Node16 -->
<g id="edge17_Node000015_Node000016" class="edge">
<title>Node15&#45;&gt;Node16</title>
<g id="a_edge17_Node000015_Node000016"><a xlink:title=" ">
<path fill="none" stroke="#63b8ff" d="M455.19,-164.98C416.26,-155.86 354.34,-141.33 311.9,-131.38"/>
<polygon fill="#63b8ff" stroke="#63b8ff" points="312.63,-127.96 302.1,-129.08 311.03,-134.77 312.63,-127.96"/>
</a>
</g>
</g>
<!-- Node20 -->
<g id="Node000020" class="node">
<title>Node20</title>
<g id="a_Node000020"><a xlink:title=" ">
<polygon fill="#e0e0e0" stroke="#999999" points="502,-129 437,-129 437,-110 502,-110 502,-129"/>
<text text-anchor="middle" x="469.5" y="-117" font-family="Helvetica,sans-Serif" font-size="10.00">exception</text>
</a>
</g>
</g>
<!-- Node15&#45;&gt;Node20 -->
<g id="edge22_Node000015_Node000020" class="edge">
<title>Node15&#45;&gt;Node20</title>
<g id="a_edge22_Node000015_Node000020"><a xlink:title=" ">
<path fill="none" stroke="#63b8ff" d="M487.87,-164.75C484.92,-157.65 480.67,-147.4 476.99,-138.56"/>
<polygon fill="#63b8ff" stroke="#63b8ff" points="480.13,-136.98 473.07,-129.09 473.67,-139.67 480.13,-136.98"/>
</a>
</g>
</g>
<!-- Node16&#45;&gt;Node3 -->
<g id="edge18_Node000016_Node000003" class="edge">
<title>Node16&#45;&gt;Node3</title>
<g id="a_edge18_Node000016_Node000003"><a xlink:title=" ">
<path fill="none" stroke="#63b8ff" d="M308.08,-109.98C354.2,-100.76 427.86,-86.03 477.66,-76.07"/>
<polygon fill="#63b8ff" stroke="#63b8ff" points="478.47,-79.48 487.59,-74.08 477.1,-72.61 478.47,-79.48"/>
</a>
</g>
</g>
<!-- Node17 -->
<g id="Node000017" class="node">
<title>Node17</title>
<g id="a_Node000017"><a xlink:title=" ">
<polygon fill="#e0e0e0" stroke="#999999" points="137,-74 0,-74 0,-55 137,-55 137,-74"/>
<text text-anchor="middle" x="68.5" y="-62" font-family="Helvetica,sans-Serif" font-size="10.00">cantera/ext/fmt/format.h</text>
</a>
</g>
</g>
<!-- Node16&#45;&gt;Node17 -->
<g id="edge19_Node000016_Node000017" class="edge">
<title>Node16&#45;&gt;Node17</title>
<g id="a_edge19_Node000016_Node000017"><a xlink:title=" ">
<path fill="none" stroke="#63b8ff" d="M233.85,-109.98C200.34,-100.97 147.3,-86.7 110.36,-76.76"/>
<polygon fill="#63b8ff" stroke="#63b8ff" points="110.97,-73.3 100.4,-74.08 109.15,-80.06 110.97,-73.3"/>
</a>
</g>
</g>
<!-- Node18 -->
<g id="Node000018" class="node">
<title>Node18</title>
<g id="a_Node000018"><a xlink:title=" ">
<polygon fill="#e0e0e0" stroke="#999999" points="285.5,-74 155.5,-74 155.5,-55 285.5,-55 285.5,-74"/>
<text text-anchor="middle" x="220.5" y="-62" font-family="Helvetica,sans-Serif" font-size="10.00">cantera/ext/fmt/printf.h</text>
</a>
</g>
</g>
<!-- Node16&#45;&gt;Node18 -->
<g id="edge20_Node000016_Node000018" class="edge">
<title>Node16&#45;&gt;Node18</title>
<g id="a_edge20_Node000016_Node000018"><a xlink:title=" ">
<path fill="none" stroke="#63b8ff" d="M258.07,-109.75C251.65,-102.18 242.19,-91.05 234.38,-81.84"/>
<polygon fill="#63b8ff" stroke="#63b8ff" points="236.93,-79.45 227.79,-74.09 231.6,-83.98 236.93,-79.45"/>
</a>
</g>
</g>
<!-- Node19 -->
<g id="Node000019" class="node">
<title>Node19</title>
<g id="a_Node000019"><a xlink:title=" ">
<polygon fill="#e0e0e0" stroke="#999999" points="449,-74 304,-74 304,-55 449,-55 449,-74"/>
<text text-anchor="middle" x="376.5" y="-62" font-family="Helvetica,sans-Serif" font-size="10.00">cantera/ext/fmt/ostream.h</text>
</a>
</g>
</g>
<!-- Node16&#45;&gt;Node19 -->
<g id="edge21_Node000016_Node000019" class="edge">
<title>Node16&#45;&gt;Node19</title>
<g id="a_edge21_Node000016_Node000019"><a xlink:title=" ">
<path fill="none" stroke="#63b8ff" d="M283.33,-109.98C301.11,-101.5 328.65,-88.35 349.18,-78.54"/>
<polygon fill="#63b8ff" stroke="#63b8ff" points="350.83,-81.64 358.34,-74.17 347.81,-75.32 350.83,-81.64"/>
</a>
</g>
</g>
<!-- Node21&#45;&gt;Node3 -->
<g id="edge24_Node000021_Node000003" class="edge">
<title>Node21&#45;&gt;Node3</title>
<g id="a_edge24_Node000021_Node000003"><a xlink:title=" ">
<path fill="none" stroke="#63b8ff" d="M1054.38,-164.94C951.14,-145.34 698.04,-97.3 585.73,-75.98"/>
<polygon fill="#63b8ff" stroke="#63b8ff" points="586.11,-72.49 575.63,-74.07 584.8,-79.37 586.11,-72.49"/>
</a>
</g>
</g>
<!-- Node25&#45;&gt;Node14 -->
<g id="edge29_Node000025_Node000014" class="edge">
<title>Node25&#45;&gt;Node14</title>
<g id="a_edge29_Node000025_Node000014"><a xlink:title=" ">
<path fill="none" stroke="#63b8ff" d="M925.64,-184.08C897.22,-193.08 849.47,-207.27 814.37,-217.18"/>
<polygon fill="#63b8ff" stroke="#63b8ff" points="813.06,-213.92 804.37,-219.98 814.95,-220.66 813.06,-213.92"/>
</a>
</g>
</g>
<!-- Node26&#45;&gt;Node3 -->
<g id="edge32_Node000026_Node000003" class="edge">
<title>Node26&#45;&gt;Node3</title>
<g id="a_edge32_Node000026_Node000003"><a xlink:title=" ">
<path fill="none" stroke="#63b8ff" d="M305.38,-164.75C318.16,-151.09 344.78,-124.73 372.5,-110 402.68,-93.96 439.27,-83.18 469.63,-76.25"/>
<polygon fill="#63b8ff" stroke="#63b8ff" points="470.65,-79.61 479.67,-74.05 469.15,-72.78 470.65,-79.61"/>
</a>
</g>
</g>
<!-- Node26&#45;&gt;Node16 -->
<g id="edge33_Node000026_Node000016" class="edge">
<title>Node26&#45;&gt;Node16</title>
<g id="a_edge33_Node000026_Node000016"><a xlink:title=" ">
<path fill="none" stroke="#63b8ff" d="M292.22,-164.75C287.79,-157.42 281.34,-146.73 275.88,-137.7"/>
<polygon fill="#63b8ff" stroke="#63b8ff" points="278.85,-135.84 270.69,-129.09 272.86,-139.46 278.85,-135.84"/>
</a>
</g>
</g>
</g>
</svg>

<g id="navigator" transform="translate(0 0)" fill="#404254">
  <rect fill="#f2f5e9" fill-opacity="0.5" stroke="#606060" stroke-width=".5" x="0" y="0" width="60" height="60"/>
  <use id="zoomplus" xlink:href="#zoomPlus" x="17" y="9" onmousedown="handleZoom(evt,'in')"/>
  <use id="zoomminus" xlink:href="#zoomMin" x="42" y="9" onmousedown="handleZoom(evt,'out')"/>
  <use id="reset" xlink:href="#resetDef" x="30" y="36" onmousedown="handleReset()"/>
   <use id="arrowup" xlink:href="#arrowUp" x="0" y="0" onmousedown="handlePan(0,-1)"/>
  <use id="arrowright" xlink:href="#arrowRight" x="0" y="0" onmousedown="handlePan(1,0)"/>
  <use id="arrowdown" xlink:href="#arrowDown" x="0" y="0" onmousedown="handlePan(0,1)"/>
  <use id="arrowleft" xlink:href="#arrowLeft" x="0" y="0" onmousedown="handlePan(-1,0)"/>
</g>
<svg viewBox="0 0 15 15" width="100%" height="30px" preserveAspectRatio="xMaxYMin meet">
 <g id="arrow_out" transform="scale(0.3 0.3)">
  <a xlink:href="ReactionRate_8h__incl_org.svg" target="_base">
   <rect id="button" ry="5" rx="5" y="6" x="6" height="38" width="38"
        fill="#f2f5e9" fill-opacity="0.5" stroke="#606060" stroke-width="1.0"/>
   <path id="arrow"
     d="M 11.500037,31.436501 C 11.940474,20.09759 22.043105,11.32322 32.158766,21.979434 L 37.068811,17.246167 C 37.068811,17.246167 37.088388,32 37.088388,32 L 22.160133,31.978069 C 22.160133,31.978069 26.997745,27.140456 26.997745,27.140456 C 18.528582,18.264221 13.291696,25.230495 11.500037,31.436501 z"
     style="fill:#404040;"/>
  </a>
 </g>
</svg>

<style type='text/css'>
<![CDATA[
[data-mouse-over-selected='false'] { opacity: 0.7; }
[data-mouse-over-selected='true']  { opacity: 1.0; }
]]>
</style>
<script type="application/ecmascript"><![CDATA[
document.addEventListener('DOMContentLoaded', (event) => {
  highlightEdges();
  highlightAdjacentNodes();
});
]]></script>
</svg>
