<?xml version="1.0" encoding="UTF-8" standalone="no"?>
<!DOCTYPE svg PUBLIC "-//W3C//DTD SVG 1.1//EN"
 "http://www.w3.org/Graphics/SVG/1.1/DTD/svg11.dtd">
<!-- Generated by graphviz version 6.0.1 (0)
 -->
<!-- Title: ImplicitSurfChem.h Pages: 1 -->
<svg width="1244pt" height="544pt"
 viewBox="0.00 0.00 1244.03 544.00" xmlns="http://www.w3.org/2000/svg" xmlns:xlink="http://www.w3.org/1999/xlink">
<g id="graph0" class="graph" transform="scale(1 1) rotate(0) translate(4 540)">
<title>ImplicitSurfChem.h</title>
<!-- Node1 -->
<g id="Node000001" class="node">
<title>Node1</title>
<g id="a_Node000001"><a xlink:title="Declarations for the implicit integration of surface site density equations (see Kinetics Managers an...">
<polygon fill="#999999" stroke="#666666" points="662,-536 561,-536 561,-517 662,-517 662,-536"/>
<text text-anchor="middle" x="611.5" y="-524" font-family="Helvetica,sans-Serif" font-size="10.00">ImplicitSurfChem.h</text>
</a>
</g>
</g>
<!-- Node2 -->
<g id="Node000002" class="node">
<title>Node2</title>
<g id="a_Node000002"><a xlink:href="../../d8/d97/Integrator_8h.html" target="_top" xlink:title=" ">
<polygon fill="white" stroke="#666666" points="858,-305 715,-305 715,-286 858,-286 858,-305"/>
<text text-anchor="middle" x="786.5" y="-293" font-family="Helvetica,sans-Serif" font-size="10.00">cantera/numerics/Integrator.h</text>
</a>
</g>
</g>
<!-- Node1&#45;&gt;Node2 -->
<g id="edge1_Node000001_Node000002" class="edge">
<title>Node1&#45;&gt;Node2</title>
<g id="a_edge1_Node000001_Node000002"><a xlink:title=" ">
<path fill="none" stroke="#63b8ff" d="M632.32,-516.89C648.63,-509.33 671.07,-497.04 686.5,-481 735.48,-430.08 767.64,-350.42 780.35,-314.79"/>
<polygon fill="#63b8ff" stroke="#63b8ff" points="783.7,-315.83 783.67,-305.23 777.09,-313.53 783.7,-315.83"/>
</a>
</g>
</g>
<!-- Node29 -->
<g id="Node000029" class="node">
<title>Node29</title>
<g id="a_Node000029"><a xlink:href="../../d7/d0d/InterfaceKinetics_8h.html" target="_top" xlink:title=" ">
<polygon fill="white" stroke="#666666" points="515,-426 388,-426 388,-396 515,-396 515,-426"/>
<text text-anchor="start" x="396" y="-414" font-family="Helvetica,sans-Serif" font-size="10.00">cantera/kinetics/Interface</text>
<text text-anchor="middle" x="451.5" y="-403" font-family="Helvetica,sans-Serif" font-size="10.00">Kinetics.h</text>
</a>
</g>
</g>
<!-- Node1&#45;&gt;Node29 -->
<g id="edge35_Node000001_Node000029" class="edge">
<title>Node1&#45;&gt;Node29</title>
<g id="a_edge35_Node000001_Node000029"><a xlink:title=" ">
<path fill="none" stroke="#63b8ff" d="M595.57,-516.94C580.09,-508.42 556.13,-494.68 536.5,-481 514.93,-465.96 491.84,-447.02 475.18,-432.79"/>
<polygon fill="#63b8ff" stroke="#63b8ff" points="477.42,-430.1 467.56,-426.22 472.85,-435.4 477.42,-430.1"/>
</a>
</g>
</g>
<!-- Node41 -->
<g id="Node000041" class="node">
<title>Node41</title>
<g id="a_Node000041"><a xlink:href="../../d2/d25/solveSP_8h.html" target="_top" xlink:title="Header file for implicit surface problem solver (see Chemical Kinetics and class solveSP).">
<polygon fill="white" stroke="#666666" points="677.5,-481 545.5,-481 545.5,-462 677.5,-462 677.5,-481"/>
<text text-anchor="middle" x="611.5" y="-469" font-family="Helvetica,sans-Serif" font-size="10.00">cantera/kinetics/solveSP.h</text>
</a>
</g>
</g>
<!-- Node1&#45;&gt;Node41 -->
<g id="edge56_Node000001_Node000041" class="edge">
<title>Node1&#45;&gt;Node41</title>
<g id="a_edge56_Node000001_Node000041"><a xlink:title=" ">
<path fill="none" stroke="#63b8ff" d="M611.5,-516.75C611.5,-509.8 611.5,-499.85 611.5,-491.13"/>
<polygon fill="#63b8ff" stroke="#63b8ff" points="615,-491.09 611.5,-481.09 608,-491.09 615,-491.09"/>
</a>
</g>
</g>
<!-- Node3 -->
<g id="Node000003" class="node">
<title>Node3</title>
<g id="a_Node000003"><a xlink:href="../../da/d37/FuncEval_8h.html" target="_top" xlink:title=" ">
<polygon fill="white" stroke="#666666" points="1139.5,-250 1073.5,-250 1073.5,-231 1139.5,-231 1139.5,-250"/>
<text text-anchor="middle" x="1106.5" y="-238" font-family="Helvetica,sans-Serif" font-size="10.00">FuncEval.h</text>
</a>
</g>
</g>
<!-- Node2&#45;&gt;Node3 -->
<g id="edge2_Node000002_Node000003" class="edge">
<title>Node2&#45;&gt;Node3</title>
<g id="a_edge2_Node000002_Node000003"><a xlink:title=" ">
<path fill="none" stroke="#63b8ff" d="M840.42,-285.99C895.52,-277.23 983.54,-263.06 1059.5,-250 1060.76,-249.78 1062.05,-249.56 1063.34,-249.34"/>
<polygon fill="#63b8ff" stroke="#63b8ff" points="1064.15,-252.75 1073.39,-247.56 1062.93,-245.85 1064.15,-252.75"/>
</a>
</g>
</g>
<!-- Node21 -->
<g id="Node000021" class="node">
<title>Node21</title>
<g id="a_Node000021"><a xlink:href="../../d2/d49/global_8h.html" target="_top" xlink:title="This file contains definitions for utility functions and text for modules, inputfiles and logging,...">
<polygon fill="white" stroke="#666666" points="1222.5,-195 1112.5,-195 1112.5,-176 1222.5,-176 1222.5,-195"/>
<text text-anchor="middle" x="1167.5" y="-183" font-family="Helvetica,sans-Serif" font-size="10.00">cantera/base/global.h</text>
</a>
</g>
</g>
<!-- Node2&#45;&gt;Node21 -->
<g id="edge24_Node000002_Node000021" class="edge">
<title>Node2&#45;&gt;Node21</title>
<g id="a_edge24_Node000002_Node000021"><a xlink:title=" ">
<path fill="none" stroke="#63b8ff" d="M858.38,-294.71C951.23,-293.48 1105.98,-285.9 1148.5,-250 1161.4,-239.1 1165.76,-219.83 1167.12,-205.37"/>
<polygon fill="#63b8ff" stroke="#63b8ff" points="1170.64,-205.22 1167.68,-195.05 1163.65,-204.84 1170.64,-205.22"/>
</a>
</g>
</g>
<!-- Node22 -->
<g id="Node000022" class="node">
<title>Node22</title>
<g id="a_Node000022"><a xlink:href="../../d7/ddf/PreconditionerBase_8h.html" target="_top" xlink:title="Declarations for the class PreconditionerBase which is a virtual base class for preconditioning syste...">
<polygon fill="white" stroke="#666666" points="841.5,-250 731.5,-250 731.5,-231 841.5,-231 841.5,-250"/>
<text text-anchor="middle" x="786.5" y="-238" font-family="Helvetica,sans-Serif" font-size="10.00">PreconditionerBase.h</text>
</a>
</g>
</g>
<!-- Node2&#45;&gt;Node22 -->
<g id="edge22_Node000002_Node000022" class="edge">
<title>Node2&#45;&gt;Node22</title>
<g id="a_edge22_Node000002_Node000022"><a xlink:title=" ">
<path fill="none" stroke="#63b8ff" d="M786.5,-285.75C786.5,-278.8 786.5,-268.85 786.5,-260.13"/>
<polygon fill="#63b8ff" stroke="#63b8ff" points="790,-260.09 786.5,-250.09 783,-260.09 790,-260.09"/>
</a>
</g>
</g>
<!-- Node23 -->
<g id="Node000023" class="node">
<title>Node23</title>
<g id="a_Node000023"><a xlink:href="../../dd/d2a/AnyMap_8h.html" target="_top" xlink:title=" ">
<polygon fill="white" stroke="#666666" points="628.5,-250 508.5,-250 508.5,-231 628.5,-231 628.5,-250"/>
<text text-anchor="middle" x="568.5" y="-238" font-family="Helvetica,sans-Serif" font-size="10.00">cantera/base/AnyMap.h</text>
</a>
</g>
</g>
<!-- Node2&#45;&gt;Node23 -->
<g id="edge25_Node000002_Node000023" class="edge">
<title>Node2&#45;&gt;Node23</title>
<g id="a_edge25_Node000002_Node000023"><a xlink:title=" ">
<path fill="none" stroke="#63b8ff" d="M751.47,-285.98C714,-276.87 654.45,-262.4 613.52,-252.45"/>
<polygon fill="#63b8ff" stroke="#63b8ff" points="614.34,-249.04 603.8,-250.08 612.69,-255.85 614.34,-249.04"/>
</a>
</g>
</g>
<!-- Node4 -->
<g id="Node000004" class="node">
<title>Node4</title>
<g id="a_Node000004"><a xlink:href="../../d9/ddc/ct__defs_8h.html" target="_top" xlink:title="This file contains definitions of constants, types and terms that are used in internal routines and a...">
<polygon fill="white" stroke="#666666" points="661.5,-79.5 545.5,-79.5 545.5,-60.5 661.5,-60.5 661.5,-79.5"/>
<text text-anchor="middle" x="603.5" y="-67.5" font-family="Helvetica,sans-Serif" font-size="10.00">cantera/base/ct_defs.h</text>
</a>
</g>
</g>
<!-- Node3&#45;&gt;Node4 -->
<g id="edge3_Node000003_Node000004" class="edge">
<title>Node3&#45;&gt;Node4</title>
<g id="a_edge3_Node000003_Node000004"><a xlink:title=" ">
<path fill="none" stroke="#63b8ff" d="M1139.76,-235.83C1184,-229.44 1254.13,-213.23 1231.5,-176 1174.01,-81.41 822.12,-70.56 671.65,-70.31"/>
<polygon fill="#63b8ff" stroke="#63b8ff" points="671.6,-66.81 661.6,-70.31 671.6,-73.81 671.6,-66.81"/>
</a>
</g>
</g>
<!-- Node15 -->
<g id="Node000015" class="node">
<title>Node15</title>
<g id="a_Node000015"><a xlink:href="../../db/d98/ctexceptions_8h.html" target="_top" xlink:title="Definitions for the classes that are thrown when Cantera experiences an error condition (also contain...">
<polygon fill="white" stroke="#666666" points="932.5,-195 792.5,-195 792.5,-176 932.5,-176 932.5,-195"/>
<text text-anchor="middle" x="862.5" y="-183" font-family="Helvetica,sans-Serif" font-size="10.00">cantera/base/ctexceptions.h</text>
</a>
</g>
</g>
<!-- Node3&#45;&gt;Node15 -->
<g id="edge14_Node000003_Node000015" class="edge">
<title>Node3&#45;&gt;Node15</title>
<g id="a_edge14_Node000003_Node000015"><a xlink:title=" ">
<path fill="none" stroke="#63b8ff" d="M1073.34,-232.3C1031.61,-223.23 959.61,-207.59 911.52,-197.15"/>
<polygon fill="#63b8ff" stroke="#63b8ff" points="912.16,-193.7 901.64,-195 910.67,-200.54 912.16,-193.7"/>
</a>
</g>
</g>
<!-- Node3&#45;&gt;Node21 -->
<g id="edge19_Node000003_Node000021" class="edge">
<title>Node3&#45;&gt;Node21</title>
<g id="a_edge19_Node000003_Node000021"><a xlink:title=" ">
<path fill="none" stroke="#63b8ff" d="M1116.3,-230.98C1125.32,-223.15 1138.91,-211.34 1149.82,-201.86"/>
<polygon fill="#63b8ff" stroke="#63b8ff" points="1152.27,-204.37 1157.52,-195.17 1147.68,-199.09 1152.27,-204.37"/>
</a>
</g>
</g>
<!-- Node5 -->
<g id="Node000005" class="node">
<title>Node5</title>
<g id="a_Node000005"><a xlink:href="../../db/d16/config_8h_source.html" target="_top" xlink:title=" ">
<polygon fill="white" stroke="#666666" points="312,-19 261,-19 261,0 312,0 312,-19"/>
<text text-anchor="middle" x="286.5" y="-7" font-family="Helvetica,sans-Serif" font-size="10.00">config.h</text>
</a>
</g>
</g>
<!-- Node4&#45;&gt;Node5 -->
<g id="edge4_Node000004_Node000005" class="edge">
<title>Node4&#45;&gt;Node5</title>
<g id="a_edge4_Node000004_Node000005"><a xlink:title=" ">
<path fill="none" stroke="#63b8ff" d="M557.41,-60.49C493.71,-48.74 380.13,-27.78 322.37,-17.12"/>
<polygon fill="#63b8ff" stroke="#63b8ff" points="322.72,-13.63 312.25,-15.25 321.45,-20.51 322.72,-13.63"/>
</a>
</g>
</g>
<!-- Node6 -->
<g id="Node000006" class="node">
<title>Node6</title>
<g id="a_Node000006"><a xlink:title=" ">
<polygon fill="#e0e0e0" stroke="#999999" points="769.5,-19 725.5,-19 725.5,0 769.5,0 769.5,-19"/>
<text text-anchor="middle" x="747.5" y="-7" font-family="Helvetica,sans-Serif" font-size="10.00">cmath</text>
</a>
</g>
</g>
<!-- Node4&#45;&gt;Node6 -->
<g id="edge5_Node000004_Node000006" class="edge">
<title>Node4&#45;&gt;Node6</title>
<g id="a_edge5_Node000004_Node000006"><a xlink:title=" ">
<path fill="none" stroke="#63b8ff" d="M624.44,-60.49C648.86,-50.57 689.43,-34.09 717.27,-22.78"/>
<polygon fill="#63b8ff" stroke="#63b8ff" points="718.59,-26.02 726.54,-19.02 715.95,-19.54 718.59,-26.02"/>
</a>
</g>
</g>
<!-- Node7 -->
<g id="Node000007" class="node">
<title>Node7</title>
<g id="a_Node000007"><a xlink:title=" ">
<polygon fill="#e0e0e0" stroke="#999999" points="833,-19 788,-19 788,0 833,0 833,-19"/>
<text text-anchor="middle" x="810.5" y="-7" font-family="Helvetica,sans-Serif" font-size="10.00">cstdlib</text>
</a>
</g>
</g>
<!-- Node4&#45;&gt;Node7 -->
<g id="edge6_Node000004_Node000007" class="edge">
<title>Node4&#45;&gt;Node7</title>
<g id="a_edge6_Node000004_Node000007"><a xlink:title=" ">
<path fill="none" stroke="#63b8ff" d="M633.6,-60.49C672.08,-49.62 738.43,-30.87 778.02,-19.68"/>
<polygon fill="#63b8ff" stroke="#63b8ff" points="779.04,-23.03 787.71,-16.94 777.14,-16.29 779.04,-23.03"/>
</a>
</g>
</g>
<!-- Node8 -->
<g id="Node000008" class="node">
<title>Node8</title>
<g id="a_Node000008"><a xlink:title=" ">
<polygon fill="#e0e0e0" stroke="#999999" points="895.5,-19 851.5,-19 851.5,0 895.5,0 895.5,-19"/>
<text text-anchor="middle" x="873.5" y="-7" font-family="Helvetica,sans-Serif" font-size="10.00">vector</text>
</a>
</g>
</g>
<!-- Node4&#45;&gt;Node8 -->
<g id="edge7_Node000004_Node000008" class="edge">
<title>Node4&#45;&gt;Node8</title>
<g id="a_edge7_Node000004_Node000008"><a xlink:title=" ">
<path fill="none" stroke="#63b8ff" d="M648.61,-60.42C694.73,-51.46 768.64,-36.57 841.4,-19.15"/>
<polygon fill="#63b8ff" stroke="#63b8ff" points="842.29,-22.54 851.19,-16.79 840.65,-15.73 842.29,-22.54"/>
</a>
</g>
</g>
<!-- Node9 -->
<g id="Node000009" class="node">
<title>Node9</title>
<g id="a_Node000009"><a xlink:title=" ">
<polygon fill="#e0e0e0" stroke="#999999" points="377,-19 342,-19 342,0 377,0 377,-19"/>
<text text-anchor="middle" x="359.5" y="-7" font-family="Helvetica,sans-Serif" font-size="10.00">map</text>
</a>
</g>
</g>
<!-- Node4&#45;&gt;Node9 -->
<g id="edge8_Node000004_Node000009" class="edge">
<title>Node4&#45;&gt;Node9</title>
<g id="a_edge8_Node000004_Node000009"><a xlink:title=" ">
<path fill="none" stroke="#63b8ff" d="M562.06,-60.47C520.27,-51.63 453.72,-36.96 387,-18.96"/>
<polygon fill="#63b8ff" stroke="#63b8ff" points="387.73,-15.53 377.16,-16.28 385.89,-22.28 387.73,-15.53"/>
</a>
</g>
</g>
<!-- Node10 -->
<g id="Node000010" class="node">
<title>Node10</title>
<g id="a_Node000010"><a xlink:title=" ">
<polygon fill="#e0e0e0" stroke="#999999" points="425.5,-19 395.5,-19 395.5,0 425.5,0 425.5,-19"/>
<text text-anchor="middle" x="410.5" y="-7" font-family="Helvetica,sans-Serif" font-size="10.00">set</text>
</a>
</g>
</g>
<!-- Node4&#45;&gt;Node10 -->
<g id="edge9_Node000004_Node000010" class="edge">
<title>Node4&#45;&gt;Node10</title>
<g id="a_edge9_Node000004_Node000010"><a xlink:title=" ">
<path fill="none" stroke="#63b8ff" d="M573.65,-60.49C539.98,-50.81 483.63,-34.34 435.5,-19 435.4,-18.97 435.3,-18.94 435.2,-18.9"/>
<polygon fill="#63b8ff" stroke="#63b8ff" points="436.13,-15.53 425.54,-15.72 433.94,-22.17 436.13,-15.53"/>
</a>
</g>
</g>
<!-- Node11 -->
<g id="Node000011" class="node">
<title>Node11</title>
<g id="a_Node000011"><a xlink:title=" ">
<polygon fill="#e0e0e0" stroke="#999999" points="485,-19 444,-19 444,0 485,0 485,-19"/>
<text text-anchor="middle" x="464.5" y="-7" font-family="Helvetica,sans-Serif" font-size="10.00">string</text>
</a>
</g>
</g>
<!-- Node4&#45;&gt;Node11 -->
<g id="edge10_Node000004_Node000011" class="edge">
<title>Node4&#45;&gt;Node11</title>
<g id="a_edge10_Node000004_Node000011"><a xlink:title=" ">
<path fill="none" stroke="#63b8ff" d="M583.29,-60.49C559.82,-50.62 520.89,-34.23 494.04,-22.93"/>
<polygon fill="#63b8ff" stroke="#63b8ff" points="495.31,-19.67 484.74,-19.02 492.6,-26.12 495.31,-19.67"/>
</a>
</g>
</g>
<!-- Node12 -->
<g id="Node000012" class="node">
<title>Node12</title>
<g id="a_Node000012"><a xlink:title=" ">
<polygon fill="#e0e0e0" stroke="#999999" points="559.5,-19 503.5,-19 503.5,0 559.5,0 559.5,-19"/>
<text text-anchor="middle" x="531.5" y="-7" font-family="Helvetica,sans-Serif" font-size="10.00">algorithm</text>
</a>
</g>
</g>
<!-- Node4&#45;&gt;Node12 -->
<g id="edge11_Node000004_Node000012" class="edge">
<title>Node4&#45;&gt;Node12</title>
<g id="a_edge11_Node000004_Node000012"><a xlink:title=" ">
<path fill="none" stroke="#63b8ff" d="M592.88,-60.37C581.6,-51.21 563.58,-36.56 549.97,-25.51"/>
<polygon fill="#63b8ff" stroke="#63b8ff" points="552.14,-22.76 542.17,-19.17 547.72,-28.19 552.14,-22.76"/>
</a>
</g>
</g>
<!-- Node13 -->
<g id="Node000013" class="node">
<title>Node13</title>
<g id="a_Node000013"><a xlink:title=" ">
<polygon fill="#e0e0e0" stroke="#999999" points="629.5,-19 577.5,-19 577.5,0 629.5,0 629.5,-19"/>
<text text-anchor="middle" x="603.5" y="-7" font-family="Helvetica,sans-Serif" font-size="10.00">memory</text>
</a>
</g>
</g>
<!-- Node4&#45;&gt;Node13 -->
<g id="edge12_Node000004_Node000013" class="edge">
<title>Node4&#45;&gt;Node13</title>
<g id="a_edge12_Node000004_Node000013"><a xlink:title=" ">
<path fill="none" stroke="#63b8ff" d="M603.5,-60.37C603.5,-52.25 603.5,-39.81 603.5,-29.39"/>
<polygon fill="#63b8ff" stroke="#63b8ff" points="607,-29.17 603.5,-19.17 600,-29.17 607,-29.17"/>
</a>
</g>
</g>
<!-- Node14 -->
<g id="Node000014" class="node">
<title>Node14</title>
<g id="a_Node000014"><a xlink:title=" ">
<polygon fill="#e0e0e0" stroke="#999999" points="707,-19 648,-19 648,0 707,0 707,-19"/>
<text text-anchor="middle" x="677.5" y="-7" font-family="Helvetica,sans-Serif" font-size="10.00">functional</text>
</a>
</g>
</g>
<!-- Node4&#45;&gt;Node14 -->
<g id="edge13_Node000004_Node000014" class="edge">
<title>Node4&#45;&gt;Node14</title>
<g id="a_edge13_Node000004_Node000014"><a xlink:title=" ">
<path fill="none" stroke="#63b8ff" d="M614.42,-60.37C626.01,-51.21 644.53,-36.56 658.52,-25.51"/>
<polygon fill="#63b8ff" stroke="#63b8ff" points="660.86,-28.11 666.54,-19.17 656.52,-22.62 660.86,-28.11"/>
</a>
</g>
</g>
<!-- Node15&#45;&gt;Node4 -->
<g id="edge15_Node000015_Node000004" class="edge">
<title>Node15&#45;&gt;Node4</title>
<g id="a_edge15_Node000015_Node000004"><a xlink:title=" ">
<path fill="none" stroke="#63b8ff" d="M831.05,-175.97C803.28,-168.01 761.97,-155.11 727.5,-140 690.45,-123.76 649.91,-99.97 625.61,-84.99"/>
<polygon fill="#63b8ff" stroke="#63b8ff" points="627.17,-81.84 616.83,-79.53 623.47,-87.78 627.17,-81.84"/>
</a>
</g>
</g>
<!-- Node16 -->
<g id="Node000016" class="node">
<title>Node16</title>
<g id="a_Node000016"><a xlink:href="../../db/def/fmt_8h.html" target="_top" xlink:title="Wrapper for either system&#45;installed or local headers for fmt.">
<polygon fill="#fff0f0" stroke="red" points="911.5,-140 813.5,-140 813.5,-121 911.5,-121 911.5,-140"/>
<text text-anchor="middle" x="862.5" y="-128" font-family="Helvetica,sans-Serif" font-size="10.00">cantera/base/fmt.h</text>
</a>
</g>
</g>
<!-- Node15&#45;&gt;Node16 -->
<g id="edge16_Node000015_Node000016" class="edge">
<title>Node15&#45;&gt;Node16</title>
<g id="a_edge16_Node000015_Node000016"><a xlink:title=" ">
<path fill="none" stroke="#63b8ff" d="M862.5,-175.75C862.5,-168.8 862.5,-158.85 862.5,-150.13"/>
<polygon fill="#63b8ff" stroke="#63b8ff" points="866,-150.09 862.5,-140.09 859,-150.09 866,-150.09"/>
</a>
</g>
</g>
<!-- Node20 -->
<g id="Node000020" class="node">
<title>Node20</title>
<g id="a_Node000020"><a xlink:title=" ">
<polygon fill="#e0e0e0" stroke="#999999" points="795,-140 736,-140 736,-121 795,-121 795,-140"/>
<text text-anchor="middle" x="765.5" y="-128" font-family="Helvetica,sans-Serif" font-size="10.00">exception</text>
</a>
</g>
</g>
<!-- Node15&#45;&gt;Node20 -->
<g id="edge18_Node000015_Node000020" class="edge">
<title>Node15&#45;&gt;Node20</title>
<g id="a_edge18_Node000015_Node000020"><a xlink:title=" ">
<path fill="none" stroke="#63b8ff" d="M846.92,-175.98C831.73,-167.69 808.4,-154.94 790.6,-145.22"/>
<polygon fill="#63b8ff" stroke="#63b8ff" points="791.82,-141.89 781.37,-140.17 788.47,-148.04 791.82,-141.89"/>
</a>
</g>
</g>
<!-- Node16&#45;&gt;Node4 -->
<g id="edge17_Node000016_Node000004" class="edge">
<title>Node16&#45;&gt;Node4</title>
<g id="a_edge17_Node000016_Node000004"><a xlink:title=" ">
<path fill="none" stroke="#63b8ff" d="M824.84,-120.99C778.9,-110.62 701.19,-93.07 651.14,-81.76"/>
<polygon fill="#63b8ff" stroke="#63b8ff" points="651.73,-78.31 641.21,-79.52 650.19,-85.13 651.73,-78.31"/>
</a>
</g>
</g>
<!-- Node21&#45;&gt;Node4 -->
<g id="edge20_Node000021_Node000004" class="edge">
<title>Node21&#45;&gt;Node4</title>
<g id="a_edge20_Node000021_Node000004"><a xlink:title=" ">
<path fill="none" stroke="#63b8ff" d="M1161.04,-175.64C1150.03,-161.31 1126.12,-133.41 1098.5,-121 1024.03,-87.54 789.61,-76.23 672.09,-72.6"/>
<polygon fill="#63b8ff" stroke="#63b8ff" points="671.87,-69.1 661.77,-72.3 671.66,-76.09 671.87,-69.1"/>
</a>
</g>
</g>
<!-- Node21&#45;&gt;Node16 -->
<g id="edge21_Node000021_Node000016" class="edge">
<title>Node21&#45;&gt;Node16</title>
<g id="a_edge21_Node000021_Node000016"><a xlink:title=" ">
<path fill="none" stroke="#63b8ff" d="M1118.5,-175.98C1064.88,-166.67 978.96,-151.74 921.64,-141.78"/>
<polygon fill="#63b8ff" stroke="#63b8ff" points="922.09,-138.3 911.63,-140.04 920.89,-145.2 922.09,-138.3"/>
</a>
</g>
</g>
<!-- Node22&#45;&gt;Node15 -->
<g id="edge23_Node000022_Node000015" class="edge">
<title>Node22&#45;&gt;Node15</title>
<g id="a_edge23_Node000022_Node000015"><a xlink:title=" ">
<path fill="none" stroke="#63b8ff" d="M798.71,-230.98C810.28,-222.92 827.88,-210.65 841.66,-201.03"/>
<polygon fill="#63b8ff" stroke="#63b8ff" points="843.87,-203.76 850.07,-195.17 839.86,-198.02 843.87,-203.76"/>
</a>
</g>
</g>
<!-- Node23&#45;&gt;Node4 -->
<g id="edge26_Node000023_Node000004" class="edge">
<title>Node23&#45;&gt;Node4</title>
<g id="a_edge26_Node000023_Node000004"><a xlink:title=" ">
<path fill="none" stroke="#63b8ff" d="M508.22,-231.36C465.61,-224.23 413.8,-212.28 400.5,-195 395.35,-188.31 396.11,-183.21 400.5,-176 432.92,-122.73 502.05,-95.29 550.59,-82.05"/>
<polygon fill="#63b8ff" stroke="#63b8ff" points="551.52,-85.42 560.31,-79.51 549.75,-78.65 551.52,-85.42"/>
</a>
</g>
</g>
<!-- Node23&#45;&gt;Node15 -->
<g id="edge27_Node000023_Node000015" class="edge">
<title>Node23&#45;&gt;Node15</title>
<g id="a_edge27_Node000023_Node000015"><a xlink:title=" ">
<path fill="none" stroke="#63b8ff" d="M615.74,-230.98C667.23,-221.7 749.66,-206.84 804.91,-196.88"/>
<polygon fill="#63b8ff" stroke="#63b8ff" points="805.67,-200.3 814.89,-195.08 804.43,-193.41 805.67,-200.3"/>
</a>
</g>
</g>
<!-- Node24 -->
<g id="Node000024" class="node">
<title>Node24</title>
<g id="a_Node000024"><a xlink:href="../../da/d58/Units_8h.html" target="_top" xlink:title="Header for unit conversion utilities, which are used to translate user input from input files (See In...">
<polygon fill="white" stroke="#666666" points="353,-195 246,-195 246,-176 353,-176 353,-195"/>
<text text-anchor="middle" x="299.5" y="-183" font-family="Helvetica,sans-Serif" font-size="10.00">cantera/base/Units.h</text>
</a>
</g>
</g>
<!-- Node23&#45;&gt;Node24 -->
<g id="edge28_Node000023_Node000024" class="edge">
<title>Node23&#45;&gt;Node24</title>
<g id="a_edge28_Node000023_Node000024"><a xlink:title=" ">
<path fill="none" stroke="#63b8ff" d="M525.28,-230.98C478.46,-221.76 403.69,-207.03 353.14,-197.07"/>
<polygon fill="#63b8ff" stroke="#63b8ff" points="353.55,-193.58 343.06,-195.08 352.19,-200.45 353.55,-193.58"/>
</a>
</g>
</g>
<!-- Node25 -->
<g id="Node000025" class="node">
<title>Node25</title>
<g id="a_Node000025"><a xlink:title=" ">
<polygon fill="#e0e0e0" stroke="#999999" points="694,-195 611,-195 611,-176 694,-176 694,-195"/>
<text text-anchor="middle" x="652.5" y="-183" font-family="Helvetica,sans-Serif" font-size="10.00">unordered_map</text>
</a>
</g>
</g>
<!-- Node23&#45;&gt;Node25 -->
<g id="edge30_Node000023_Node000025" class="edge">
<title>Node23&#45;&gt;Node25</title>
<g id="a_edge30_Node000023_Node000025"><a xlink:title=" ">
<path fill="none" stroke="#63b8ff" d="M582,-230.98C594.9,-222.84 614.6,-210.41 629.9,-200.76"/>
<polygon fill="#63b8ff" stroke="#63b8ff" points="632.17,-203.47 638.76,-195.17 628.43,-197.55 632.17,-203.47"/>
</a>
</g>
</g>
<!-- Node26 -->
<g id="Node000026" class="node">
<title>Node26</title>
<g id="a_Node000026"><a xlink:title=" ">
<polygon fill="#e0e0e0" stroke="#999999" points="774.5,-195 712.5,-195 712.5,-176 774.5,-176 774.5,-195"/>
<text text-anchor="middle" x="743.5" y="-183" font-family="Helvetica,sans-Serif" font-size="10.00">filesystem</text>
</a>
</g>
</g>
<!-- Node23&#45;&gt;Node26 -->
<g id="edge31_Node000023_Node000026" class="edge">
<title>Node23&#45;&gt;Node26</title>
<g id="a_edge31_Node000023_Node000026"><a xlink:title=" ">
<path fill="none" stroke="#63b8ff" d="M596.62,-230.98C626.12,-222.05 672.69,-207.94 705.47,-198.02"/>
<polygon fill="#63b8ff" stroke="#63b8ff" points="706.61,-201.33 715.16,-195.08 704.58,-194.63 706.61,-201.33"/>
</a>
</g>
</g>
<!-- Node27 -->
<g id="Node000027" class="node">
<title>Node27</title>
<g id="a_Node000027"><a xlink:title=" ">
<polygon fill="#e0e0e0" stroke="#999999" points="441.5,-195 409.5,-195 409.5,-176 441.5,-176 441.5,-195"/>
<text text-anchor="middle" x="425.5" y="-183" font-family="Helvetica,sans-Serif" font-size="10.00">any</text>
</a>
</g>
</g>
<!-- Node23&#45;&gt;Node27 -->
<g id="edge32_Node000023_Node000027" class="edge">
<title>Node23&#45;&gt;Node27</title>
<g id="a_edge32_Node000023_Node000027"><a xlink:title=" ">
<path fill="none" stroke="#63b8ff" d="M545.52,-230.98C519.76,-221.44 478.09,-205.99 451.24,-196.04"/>
<polygon fill="#63b8ff" stroke="#63b8ff" points="452.34,-192.72 441.75,-192.52 449.91,-199.28 452.34,-192.72"/>
</a>
</g>
</g>
<!-- Node28 -->
<g id="Node000028" class="node">
<title>Node28</title>
<g id="a_Node000028"><a xlink:href="../../da/d4c/AnyMap_8inl_8h.html" target="_top" xlink:title=" ">
<polygon fill="white" stroke="#666666" points="593,-195 460,-195 460,-176 593,-176 593,-195"/>
<text text-anchor="middle" x="526.5" y="-183" font-family="Helvetica,sans-Serif" font-size="10.00">cantera/base/AnyMap.inl.h</text>
</a>
</g>
</g>
<!-- Node23&#45;&gt;Node28 -->
<g id="edge33_Node000023_Node000028" class="edge">
<title>Node23&#45;&gt;Node28</title>
<g id="a_edge33_Node000023_Node000028"><a xlink:title=" ">
<path fill="none" stroke="#63b8ff" d="M556.4,-230.75C549.01,-223.42 540.14,-212.73 533.76,-203.7"/>
<polygon fill="#63b8ff" stroke="#63b8ff" points="536.56,-201.57 528.18,-195.09 530.68,-205.38 536.56,-201.57"/>
</a>
</g>
</g>
<!-- Node24&#45;&gt;Node4 -->
<g id="edge29_Node000024_Node000004" class="edge">
<title>Node24&#45;&gt;Node4</title>
<g id="a_edge29_Node000024_Node000004"><a xlink:title=" ">
<path fill="none" stroke="#63b8ff" d="M305.99,-175.96C317.03,-162.11 340.85,-134.87 367.5,-121 419.87,-93.74 486.13,-81.34 535.1,-75.7"/>
<polygon fill="#63b8ff" stroke="#63b8ff" points="535.71,-79.15 545.27,-74.6 534.95,-72.19 535.71,-79.15"/>
</a>
</g>
</g>
<!-- Node28&#45;&gt;Node23 -->
<g id="edge34_Node000028_Node000023" class="edge">
<title>Node28&#45;&gt;Node23</title>
<g id="a_edge34_Node000028_Node000023"><a xlink:title=" ">
<path fill="none" stroke="#63b8ff" d="M538.44,-195.09C545.8,-202.37 554.68,-213.04 561.1,-222.1"/>
<polygon fill="#63b8ff" stroke="#63b8ff" points="558.34,-224.28 566.73,-230.75 564.2,-220.46 558.34,-224.28"/>
</a>
</g>
</g>
<!-- Node30 -->
<g id="Node000030" class="node">
<title>Node30</title>
<g id="a_Node000030"><a xlink:href="../../d5/db4/Kinetics_8h.html" target="_top" xlink:title="Base class for kinetics managers and also contains the kineticsmgr module documentation (see Kinetics...">
<polygon fill="white" stroke="#666666" points="437.5,-305 377.5,-305 377.5,-286 437.5,-286 437.5,-305"/>
<text text-anchor="middle" x="407.5" y="-293" font-family="Helvetica,sans-Serif" font-size="10.00">Kinetics.h</text>
</a>
</g>
</g>
<!-- Node29&#45;&gt;Node30 -->
<g id="edge36_Node000029_Node000030" class="edge">
<title>Node29&#45;&gt;Node30</title>
<g id="a_edge36_Node000029_Node000030"><a xlink:title=" ">
<path fill="none" stroke="#63b8ff" d="M445.93,-395.63C437.94,-375.03 423.25,-337.12 414.53,-314.63"/>
<polygon fill="#63b8ff" stroke="#63b8ff" points="417.76,-313.29 410.88,-305.23 411.24,-315.82 417.76,-313.29"/>
</a>
</g>
</g>
<!-- Node36 -->
<g id="Node000036" class="node">
<title>Node36</title>
<g id="a_Node000036"><a xlink:href="../../d6/d42/MultiRate_8h.html" target="_top" xlink:title=" ">
<polygon fill="white" stroke="#666666" points="329,-360 262,-360 262,-341 329,-341 329,-360"/>
<text text-anchor="middle" x="295.5" y="-348" font-family="Helvetica,sans-Serif" font-size="10.00">MultiRate.h</text>
</a>
</g>
</g>
<!-- Node29&#45;&gt;Node36 -->
<g id="edge44_Node000029_Node000036" class="edge">
<title>Node29&#45;&gt;Node36</title>
<g id="a_edge44_Node000029_Node000036"><a xlink:title=" ">
<path fill="none" stroke="#63b8ff" d="M414.13,-395.99C387.87,-386.14 353.09,-373.1 327.98,-363.68"/>
<polygon fill="#63b8ff" stroke="#63b8ff" points="329.13,-360.37 318.54,-360.14 326.67,-366.93 329.13,-360.37"/>
</a>
</g>
</g>
<!-- Node31 -->
<g id="Node000031" class="node">
<title>Node31</title>
<g id="a_Node000031"><a xlink:href="../../dd/dfd/StoichManager_8h.html" target="_top" xlink:title=" ">
<polygon fill="white" stroke="#666666" points="452,-250 363,-250 363,-231 452,-231 452,-250"/>
<text text-anchor="middle" x="407.5" y="-238" font-family="Helvetica,sans-Serif" font-size="10.00">StoichManager.h</text>
</a>
</g>
</g>
<!-- Node30&#45;&gt;Node31 -->
<g id="edge37_Node000030_Node000031" class="edge">
<title>Node30&#45;&gt;Node31</title>
<g id="a_edge37_Node000030_Node000031"><a xlink:title=" ">
<path fill="none" stroke="#63b8ff" d="M407.5,-285.75C407.5,-278.8 407.5,-268.85 407.5,-260.13"/>
<polygon fill="#63b8ff" stroke="#63b8ff" points="411,-260.09 407.5,-250.09 404,-260.09 411,-260.09"/>
</a>
</g>
</g>
<!-- Node34 -->
<g id="Node000034" class="node">
<title>Node34</title>
<g id="a_Node000034"><a xlink:href="../../d6/df6/ValueCache_8h.html" target="_top" xlink:title=" ">
<polygon fill="white" stroke="#666666" points="345,-250 208,-250 208,-231 345,-231 345,-250"/>
<text text-anchor="middle" x="276.5" y="-238" font-family="Helvetica,sans-Serif" font-size="10.00">cantera/base/ValueCache.h</text>
</a>
</g>
</g>
<!-- Node30&#45;&gt;Node34 -->
<g id="edge41_Node000030_Node000034" class="edge">
<title>Node30&#45;&gt;Node34</title>
<g id="a_edge41_Node000030_Node000034"><a xlink:title=" ">
<path fill="none" stroke="#63b8ff" d="M386.45,-285.98C365.09,-277.34 331.8,-263.87 307.44,-254.02"/>
<polygon fill="#63b8ff" stroke="#63b8ff" points="308.51,-250.68 297.93,-250.17 305.89,-257.17 308.51,-250.68"/>
</a>
</g>
</g>
<!-- Node31&#45;&gt;Node15 -->
<g id="edge40_Node000031_Node000015" class="edge">
<title>Node31&#45;&gt;Node15</title>
<g id="a_edge40_Node000031_Node000015"><a xlink:title=" ">
<path fill="none" stroke="#63b8ff" d="M452.37,-234.27C529.03,-225.34 686.19,-207.04 782.16,-195.86"/>
<polygon fill="#63b8ff" stroke="#63b8ff" points="782.58,-199.33 792.11,-194.7 781.77,-192.38 782.58,-199.33"/>
</a>
</g>
</g>
<!-- Node32 -->
<g id="Node000032" class="node">
<title>Node32</title>
<g id="a_Node000032"><a xlink:href="../../d9/d42/eigen__sparse_8h_source.html" target="_top" xlink:title=" ">
<polygon fill="#fff0f0" stroke="red" points="322.5,-85 204.5,-85 204.5,-55 322.5,-55 322.5,-85"/>
<text text-anchor="start" x="212.5" y="-73" font-family="Helvetica,sans-Serif" font-size="10.00">cantera/numerics/eigen</text>
<text text-anchor="middle" x="263.5" y="-62" font-family="Helvetica,sans-Serif" font-size="10.00">_sparse.h</text>
</a>
</g>
</g>
<!-- Node31&#45;&gt;Node32 -->
<g id="edge38_Node000031_Node000032" class="edge">
<title>Node31&#45;&gt;Node32</title>
<g id="a_edge38_Node000031_Node000032"><a xlink:title=" ">
<path fill="none" stroke="#63b8ff" d="M363.57,-230.95C315.56,-221.17 244.38,-205.19 236.5,-195 213.72,-165.53 232.8,-120.9 248.39,-93.99"/>
<polygon fill="#63b8ff" stroke="#63b8ff" points="251.49,-95.63 253.69,-85.27 245.51,-92 251.49,-95.63"/>
</a>
</g>
</g>
<!-- Node32&#45;&gt;Node5 -->
<g id="edge39_Node000032_Node000005" class="edge">
<title>Node32&#45;&gt;Node5</title>
<g id="a_edge39_Node000032_Node000005"><a xlink:title=" ">
<path fill="none" stroke="#63b8ff" d="M269.07,-54.84C272.17,-46.95 276.06,-37.05 279.38,-28.61"/>
<polygon fill="#63b8ff" stroke="#63b8ff" points="282.65,-29.85 283.05,-19.27 276.14,-27.29 282.65,-29.85"/>
</a>
</g>
</g>
<!-- Node34&#45;&gt;Node4 -->
<g id="edge42_Node000034_Node000004" class="edge">
<title>Node34&#45;&gt;Node4</title>
<g id="a_edge42_Node000034_Node000004"><a xlink:title=" ">
<path fill="none" stroke="#63b8ff" d="M264.35,-230.97C248.67,-218.88 224.74,-195.99 236.5,-176 262.03,-132.62 288.14,-138.06 335.5,-121 401.21,-97.33 480.21,-84.33 535.35,-77.57"/>
<polygon fill="#63b8ff" stroke="#63b8ff" points="535.85,-81.04 545.36,-76.38 535.02,-74.09 535.85,-81.04"/>
</a>
</g>
</g>
<!-- Node35 -->
<g id="Node000035" class="node">
<title>Node35</title>
<g id="a_Node000035"><a xlink:title=" ">
<polygon fill="#e0e0e0" stroke="#999999" points="151.5,-195 111.5,-195 111.5,-176 151.5,-176 151.5,-195"/>
<text text-anchor="middle" x="131.5" y="-183" font-family="Helvetica,sans-Serif" font-size="10.00">limits</text>
</a>
</g>
</g>
<!-- Node34&#45;&gt;Node35 -->
<g id="edge43_Node000034_Node000035" class="edge">
<title>Node34&#45;&gt;Node35</title>
<g id="a_edge43_Node000034_Node000035"><a xlink:title=" ">
<path fill="none" stroke="#63b8ff" d="M253.2,-230.98C228.25,-221.86 188.57,-207.36 161.34,-197.41"/>
<polygon fill="#63b8ff" stroke="#63b8ff" points="162.52,-194.11 151.93,-193.97 160.12,-200.69 162.52,-194.11"/>
</a>
</g>
</g>
<!-- Node37 -->
<g id="Node000037" class="node">
<title>Node37</title>
<g id="a_Node000037"><a xlink:href="../../d8/db0/ReactionRate_8h.html" target="_top" xlink:title=" ">
<polygon fill="white" stroke="#666666" points="576,-305 491,-305 491,-286 576,-286 576,-305"/>
<text text-anchor="middle" x="533.5" y="-293" font-family="Helvetica,sans-Serif" font-size="10.00">ReactionRate.h</text>
</a>
</g>
</g>
<!-- Node36&#45;&gt;Node37 -->
<g id="edge45_Node000036_Node000037" class="edge">
<title>Node36&#45;&gt;Node37</title>
<g id="a_edge45_Node000036_Node000037"><a xlink:title=" ">
<path fill="none" stroke="#63b8ff" d="M329.09,-342.02C369.8,-332.95 438.69,-317.61 485.11,-307.28"/>
<polygon fill="#63b8ff" stroke="#63b8ff" points="485.95,-310.67 494.95,-305.08 484.43,-303.84 485.95,-310.67"/>
</a>
</g>
</g>
<!-- Node38 -->
<g id="Node000038" class="node">
<title>Node38</title>
<g id="a_Node000038"><a xlink:href="../../dd/d16/MultiRateBase_8h.html" target="_top" xlink:title=" ">
<polygon fill="white" stroke="#666666" points="190,-250 101,-250 101,-231 190,-231 190,-250"/>
<text text-anchor="middle" x="145.5" y="-238" font-family="Helvetica,sans-Serif" font-size="10.00">MultiRateBase.h</text>
</a>
</g>
</g>
<!-- Node36&#45;&gt;Node38 -->
<g id="edge52_Node000036_Node000038" class="edge">
<title>Node36&#45;&gt;Node38</title>
<g id="a_edge52_Node000036_Node000038"><a xlink:title=" ">
<path fill="none" stroke="#63b8ff" d="M283.48,-340.84C257.81,-322.36 197.39,-278.86 165.7,-256.05"/>
<polygon fill="#63b8ff" stroke="#63b8ff" points="167.74,-253.2 157.58,-250.2 163.65,-258.88 167.74,-253.2"/>
</a>
</g>
</g>
<!-- Node39 -->
<g id="Node000039" class="node">
<title>Node39</title>
<g id="a_Node000039"><a xlink:href="../../de/df0/utilities_8h.html" target="_top" xlink:title="Various templated functions that carry out common vector and polynomial operations (see Templated Arr...">
<polygon fill="white" stroke="#666666" points="115,-305 0,-305 0,-286 115,-286 115,-305"/>
<text text-anchor="middle" x="57.5" y="-293" font-family="Helvetica,sans-Serif" font-size="10.00">cantera/base/utilities.h</text>
</a>
</g>
</g>
<!-- Node36&#45;&gt;Node39 -->
<g id="edge53_Node000036_Node000039" class="edge">
<title>Node36&#45;&gt;Node39</title>
<g id="a_edge53_Node000036_Node000039"><a xlink:title=" ">
<path fill="none" stroke="#63b8ff" d="M261.91,-342.02C221.2,-332.95 152.31,-317.61 105.89,-307.28"/>
<polygon fill="#63b8ff" stroke="#63b8ff" points="106.57,-303.84 96.05,-305.08 105.05,-310.67 106.57,-303.84"/>
</a>
</g>
</g>
<!-- Node37&#45;&gt;Node15 -->
<g id="edge51_Node000037_Node000015" class="edge">
<title>Node37&#45;&gt;Node15</title>
<g id="a_edge51_Node000037_Node000015"><a xlink:title=" ">
<path fill="none" stroke="#63b8ff" d="M558.53,-285.95C594.67,-273.63 663.61,-250.25 722.5,-231 757.26,-219.64 797,-207.04 825.24,-198.16"/>
<polygon fill="#63b8ff" stroke="#63b8ff" points="826.6,-201.4 835.09,-195.07 824.51,-194.72 826.6,-201.4"/>
</a>
</g>
</g>
<!-- Node37&#45;&gt;Node21 -->
<g id="edge50_Node000037_Node000021" class="edge">
<title>Node37&#45;&gt;Node21</title>
<g id="a_edge50_Node000037_Node000021"><a xlink:title=" ">
<path fill="none" stroke="#63b8ff" d="M576.2,-292.69C679.83,-287.96 942.28,-273.93 1026.5,-250 1044.66,-244.84 1047.38,-238.97 1064.5,-231 1088.78,-219.7 1116.69,-207.7 1137.33,-199.01"/>
<polygon fill="#63b8ff" stroke="#63b8ff" points="1138.96,-202.12 1146.83,-195.03 1136.25,-195.67 1138.96,-202.12"/>
</a>
</g>
</g>
<!-- Node37&#45;&gt;Node23 -->
<g id="edge48_Node000037_Node000023" class="edge">
<title>Node37&#45;&gt;Node23</title>
<g id="a_edge48_Node000037_Node000023"><a xlink:title=" ">
<path fill="none" stroke="#63b8ff" d="M539.28,-285.75C544.12,-278.42 551.18,-267.73 557.14,-258.7"/>
<polygon fill="#63b8ff" stroke="#63b8ff" points="560.24,-260.36 562.83,-250.09 554.4,-256.5 560.24,-260.36"/>
</a>
</g>
</g>
<!-- Node37&#45;&gt;Node24 -->
<g id="edge49_Node000037_Node000024" class="edge">
<title>Node37&#45;&gt;Node24</title>
<g id="a_edge49_Node000037_Node000024"><a xlink:title=" ">
<path fill="none" stroke="#63b8ff" d="M526.02,-285.72C513.87,-272 488.48,-245.58 461.5,-231 431.05,-214.55 394.03,-203.79 363.06,-196.97"/>
<polygon fill="#63b8ff" stroke="#63b8ff" points="363.74,-193.54 353.24,-194.9 362.3,-200.39 363.74,-193.54"/>
</a>
</g>
</g>
<!-- Node37&#45;&gt;Node38 -->
<g id="edge46_Node000037_Node000038" class="edge">
<title>Node37&#45;&gt;Node38</title>
<g id="a_edge46_Node000037_Node000038"><a xlink:title=" ">
<path fill="none" stroke="#63b8ff" d="M490.88,-289.21C429.05,-281.46 310.63,-266.3 200.01,-250.19"/>
<polygon fill="#63b8ff" stroke="#63b8ff" points="200.42,-246.71 190.02,-248.73 199.41,-253.64 200.42,-246.71"/>
</a>
</g>
</g>
<!-- Node38&#45;&gt;Node4 -->
<g id="edge47_Node000038_Node000004" class="edge">
<title>Node38&#45;&gt;Node4</title>
<g id="a_edge47_Node000038_Node000004"><a xlink:title=" ">
<path fill="none" stroke="#63b8ff" d="M132.37,-230.96C115.11,-218.65 88.51,-195.3 102.5,-176 152.66,-106.8 410.26,-82.31 535.28,-74.41"/>
<polygon fill="#63b8ff" stroke="#63b8ff" points="535.73,-77.89 545.5,-73.78 535.3,-70.9 535.73,-77.89"/>
</a>
</g>
</g>
<!-- Node39&#45;&gt;Node4 -->
<g id="edge54_Node000039_Node000004" class="edge">
<title>Node39&#45;&gt;Node4</title>
<g id="a_edge54_Node000039_Node000004"><a xlink:title=" ">
<path fill="none" stroke="#63b8ff" d="M46.63,-285.65C33.17,-273.55 13.1,-251.06 22.5,-231 54.89,-161.84 84.25,-150.94 154.5,-121 221.34,-92.52 426.61,-79.07 534.93,-73.82"/>
<polygon fill="#63b8ff" stroke="#63b8ff" points="535.28,-77.31 545.1,-73.34 534.95,-70.31 535.28,-77.31"/>
</a>
</g>
</g>
<!-- Node40 -->
<g id="Node000040" class="node">
<title>Node40</title>
<g id="a_Node000040"><a xlink:title=" ">
<polygon fill="#e0e0e0" stroke="#999999" points="83,-250 32,-250 32,-231 83,-231 83,-250"/>
<text text-anchor="middle" x="57.5" y="-238" font-family="Helvetica,sans-Serif" font-size="10.00">numeric</text>
</a>
</g>
</g>
<!-- Node39&#45;&gt;Node40 -->
<g id="edge55_Node000039_Node000040" class="edge">
<title>Node39&#45;&gt;Node40</title>
<g id="a_edge55_Node000039_Node000040"><a xlink:title=" ">
<path fill="none" stroke="#63b8ff" d="M57.5,-285.75C57.5,-278.8 57.5,-268.85 57.5,-260.13"/>
<polygon fill="#63b8ff" stroke="#63b8ff" points="61,-260.09 57.5,-250.09 54,-260.09 61,-260.09"/>
</a>
</g>
</g>
<!-- Node41&#45;&gt;Node29 -->
<g id="edge57_Node000041_Node000029" class="edge">
<title>Node41&#45;&gt;Node29</title>
<g id="a_edge57_Node000041_Node000029"><a xlink:title=" ">
<path fill="none" stroke="#63b8ff" d="M588.23,-461.99C565.11,-453.54 528.95,-440.32 499.62,-429.59"/>
<polygon fill="#63b8ff" stroke="#63b8ff" points="500.56,-426.21 489.97,-426.06 498.16,-432.79 500.56,-426.21"/>
</a>
</g>
</g>
<!-- Node42 -->
<g id="Node000042" class="node">
<title>Node42</title>
<g id="a_Node000042"><a xlink:href="../../d1/df7/DenseMatrix_8h.html" target="_top" xlink:title="Headers for the DenseMatrix object, which deals with dense rectangular matrices and description of th...">
<polygon fill="white" stroke="#666666" points="1017.5,-250 859.5,-250 859.5,-231 1017.5,-231 1017.5,-250"/>
<text text-anchor="middle" x="938.5" y="-238" font-family="Helvetica,sans-Serif" font-size="10.00">cantera/numerics/DenseMatrix.h</text>
</a>
</g>
</g>
<!-- Node41&#45;&gt;Node42 -->
<g id="edge58_Node000041_Node000042" class="edge">
<title>Node41&#45;&gt;Node42</title>
<g id="a_edge58_Node000041_Node000042"><a xlink:title=" ">
<path fill="none" stroke="#63b8ff" d="M613.17,-461.81C619.4,-431.92 644.19,-332.62 706.5,-286 728.99,-269.17 793.83,-257.61 849.26,-250.5"/>
<polygon fill="#63b8ff" stroke="#63b8ff" points="850,-253.94 859.49,-249.22 849.14,-246.99 850,-253.94"/>
</a>
</g>
</g>
<!-- Node42&#45;&gt;Node4 -->
<g id="edge59_Node000042_Node000004" class="edge">
<title>Node42&#45;&gt;Node4</title>
<g id="a_edge59_Node000042_Node000004"><a xlink:title=" ">
<path fill="none" stroke="#63b8ff" d="M1008.78,-230.91C1030.54,-224.57 1052.25,-213.68 1065.5,-195 1091.51,-158.33 1039.09,-134.61 1011.5,-121 953.34,-92.31 772.1,-79.15 671.87,-73.94"/>
<polygon fill="#63b8ff" stroke="#63b8ff" points="672,-70.44 661.83,-73.43 671.64,-77.43 672,-70.44"/>
</a>
</g>
</g>
<!-- Node42&#45;&gt;Node15 -->
<g id="edge60_Node000042_Node000015" class="edge">
<title>Node42&#45;&gt;Node15</title>
<g id="a_edge60_Node000042_Node000015"><a xlink:title=" ">
<path fill="none" stroke="#63b8ff" d="M926.29,-230.98C914.72,-222.92 897.12,-210.65 883.34,-201.03"/>
<polygon fill="#63b8ff" stroke="#63b8ff" points="885.14,-198.02 874.93,-195.17 881.13,-203.76 885.14,-198.02"/>
</a>
</g>
</g>
<!-- Node43 -->
<g id="Node000043" class="node">
<title>Node43</title>
<g id="a_Node000043"><a xlink:href="../../df/dd0/Array_8h.html" target="_top" xlink:title="Header file for class Cantera::Array2D.">
<polygon fill="white" stroke="#666666" points="1056.5,-195 950.5,-195 950.5,-176 1056.5,-176 1056.5,-195"/>
<text text-anchor="middle" x="1003.5" y="-183" font-family="Helvetica,sans-Serif" font-size="10.00">cantera/base/Array.h</text>
</a>
</g>
</g>
<!-- Node42&#45;&gt;Node43 -->
<g id="edge61_Node000042_Node000043" class="edge">
<title>Node42&#45;&gt;Node43</title>
<g id="a_edge61_Node000042_Node000043"><a xlink:title=" ">
<path fill="none" stroke="#63b8ff" d="M948.94,-230.98C958.65,-223.07 973.32,-211.11 985,-201.58"/>
<polygon fill="#63b8ff" stroke="#63b8ff" points="987.33,-204.2 992.87,-195.17 982.9,-198.78 987.33,-204.2"/>
</a>
</g>
</g>
<!-- Node43&#45;&gt;Node4 -->
<g id="edge62_Node000043_Node000004" class="edge">
<title>Node43&#45;&gt;Node4</title>
<g id="a_edge62_Node000043_Node000004"><a xlink:title=" ">
<path fill="none" stroke="#63b8ff" d="M1004.91,-175.63C1006.55,-161.81 1007.37,-135.24 992.5,-121 947.9,-78.31 771.31,-71.01 672.09,-70.38"/>
<polygon fill="#63b8ff" stroke="#63b8ff" points="671.87,-66.88 661.86,-70.34 671.84,-73.88 671.87,-66.88"/>
</a>
</g>
</g>
<!-- Node44 -->
<g id="Node000044" class="node">
<title>Node44</title>
<g id="a_Node000044"><a xlink:title=" ">
<polygon fill="#e0e0e0" stroke="#999999" points="983.5,-140 929.5,-140 929.5,-121 983.5,-121 983.5,-140"/>
<text text-anchor="middle" x="956.5" y="-128" font-family="Helvetica,sans-Serif" font-size="10.00">iostream</text>
</a>
</g>
</g>
<!-- Node43&#45;&gt;Node44 -->
<g id="edge63_Node000043_Node000044" class="edge">
<title>Node43&#45;&gt;Node44</title>
<g id="a_edge63_Node000043_Node000044"><a xlink:title=" ">
<path fill="none" stroke="#63b8ff" d="M995.74,-175.75C989.03,-168.18 979.16,-157.05 970.99,-147.84"/>
<polygon fill="#63b8ff" stroke="#63b8ff" points="973.37,-145.25 964.12,-140.09 968.13,-149.89 973.37,-145.25"/>
</a>
</g>
</g>
</g>
</svg>
