<?xml version="1.0" encoding="UTF-8" standalone="no"?>
<!DOCTYPE svg PUBLIC "-//W3C//DTD SVG 1.1//EN"
 "http://www.w3.org/Graphics/SVG/1.1/DTD/svg11.dtd">
<!-- Generated by graphviz version 6.0.1 (0)
 -->
<!-- Title: MultiRate.h Pages: 1 -->
<svg width="972pt" height="357pt"
 viewBox="0.00 0.00 972.00 357.00" xmlns="http://www.w3.org/2000/svg" xmlns:xlink="http://www.w3.org/1999/xlink">
<g id="graph0" class="graph" transform="scale(1 1) rotate(0) translate(4 353)">
<title>MultiRate.h</title>
<!-- Node1 -->
<g id="node1" class="node">
<title>Node1</title>
<g id="a_node1"><a xlink:title=" ">
<polygon fill="#999999" stroke="#666666" points="349,-349 282,-349 282,-330 349,-330 349,-349"/>
<text text-anchor="middle" x="315.5" y="-337" font-family="Helvetica,sans-Serif" font-size="10.00">MultiRate.h</text>
</a>
</g>
</g>
<!-- Node2 -->
<g id="node2" class="node">
<title>Node2</title>
<g id="a_node2"><a xlink:href="../../d8/db0/ReactionRate_8h.html" target="_top" xlink:title=" ">
<polygon fill="white" stroke="#666666" points="358,-294 273,-294 273,-275 358,-275 358,-294"/>
<text text-anchor="middle" x="315.5" y="-282" font-family="Helvetica,sans-Serif" font-size="10.00">ReactionRate.h</text>
</a>
</g>
</g>
<!-- Node1&#45;&gt;Node2 -->
<g id="edge1" class="edge">
<title>Node1&#45;&gt;Node2</title>
<path fill="none" stroke="#63b8ff" d="M315.5,-329.75C315.5,-322.8 315.5,-312.85 315.5,-304.13"/>
<polygon fill="#63b8ff" stroke="#63b8ff" points="319,-304.09 315.5,-294.09 312,-304.09 319,-304.09"/>
</g>
<!-- Node3 -->
<g id="node3" class="node">
<title>Node3</title>
<g id="a_node3"><a xlink:href="../../dd/d16/MultiRateBase_8h.html" target="_top" xlink:title=" ">
<polygon fill="white" stroke="#666666" points="249,-239 160,-239 160,-220 249,-220 249,-239"/>
<text text-anchor="middle" x="204.5" y="-227" font-family="Helvetica,sans-Serif" font-size="10.00">MultiRateBase.h</text>
</a>
</g>
</g>
<!-- Node1&#45;&gt;Node3 -->
<g id="edge33" class="edge">
<title>Node1&#45;&gt;Node3</title>
<path fill="none" stroke="#63b8ff" d="M304.83,-329.97C294.1,-321.26 277.21,-307.17 263.5,-294 247.47,-278.61 230.3,-259.85 218.64,-246.73"/>
<polygon fill="#63b8ff" stroke="#63b8ff" points="221.08,-244.2 211.85,-239.01 215.83,-248.82 221.08,-244.2"/>
</g>
<!-- Node27 -->
<g id="node25" class="node">
<title>Node27</title>
<g id="a_node25"><a xlink:href="../../de/df0/utilities_8h.html" target="_top" xlink:title="Various templated functions that carry out common vector operations (see Templated Utility Functions)...">
<polygon fill="white" stroke="#666666" points="942,-294 827,-294 827,-275 942,-275 942,-294"/>
<text text-anchor="middle" x="884.5" y="-282" font-family="Helvetica,sans-Serif" font-size="10.00">cantera/base/utilities.h</text>
</a>
</g>
</g>
<!-- Node1&#45;&gt;Node27 -->
<g id="edge34" class="edge">
<title>Node1&#45;&gt;Node27</title>
<path fill="none" stroke="#63b8ff" d="M349.39,-335.34C440.96,-326.81 694.65,-303.18 816.91,-291.8"/>
<polygon fill="#63b8ff" stroke="#63b8ff" points="817.27,-295.28 826.9,-290.86 816.62,-288.31 817.27,-295.28"/>
</g>
<!-- Node2&#45;&gt;Node3 -->
<g id="edge2" class="edge">
<title>Node2&#45;&gt;Node3</title>
<path fill="none" stroke="#63b8ff" d="M297.67,-274.98C279.89,-266.5 252.35,-253.35 231.82,-243.54"/>
<polygon fill="#63b8ff" stroke="#63b8ff" points="233.19,-240.32 222.66,-239.17 230.17,-246.64 233.19,-240.32"/>
</g>
<!-- Node15 -->
<g id="node15" class="node">
<title>Node15</title>
<g id="a_node15"><a xlink:href="../../dd/d2a/AnyMap_8h.html" target="_top" xlink:title=" ">
<polygon fill="white" stroke="#666666" points="522.5,-239 402.5,-239 402.5,-220 522.5,-220 522.5,-239"/>
<text text-anchor="middle" x="462.5" y="-227" font-family="Helvetica,sans-Serif" font-size="10.00">cantera/base/AnyMap.h</text>
</a>
</g>
</g>
<!-- Node2&#45;&gt;Node15 -->
<g id="edge14" class="edge">
<title>Node2&#45;&gt;Node15</title>
<path fill="none" stroke="#63b8ff" d="M339.12,-274.98C363.4,-266.23 401.45,-252.51 428.87,-242.62"/>
<polygon fill="#63b8ff" stroke="#63b8ff" points="430.23,-245.85 438.45,-239.17 427.86,-239.27 430.23,-245.85"/>
</g>
<!-- Node16 -->
<g id="node16" class="node">
<title>Node16</title>
<g id="a_node16"><a xlink:href="../../db/d98/ctexceptions_8h.html" target="_top" xlink:title="Definitions for the classes that are thrown when Cantera experiences an error condition (also contain...">
<polygon fill="white" stroke="#666666" points="182.5,-184 42.5,-184 42.5,-165 182.5,-165 182.5,-184"/>
<text text-anchor="middle" x="112.5" y="-172" font-family="Helvetica,sans-Serif" font-size="10.00">cantera/base/ctexceptions.h</text>
</a>
</g>
</g>
<!-- Node2&#45;&gt;Node16 -->
<g id="edge32" class="edge">
<title>Node2&#45;&gt;Node16</title>
<path fill="none" stroke="#63b8ff" d="M309.83,-274.74C300.52,-261.07 280.71,-234.69 257.5,-220 231.84,-203.76 199.87,-193.12 172.48,-186.33"/>
<polygon fill="#63b8ff" stroke="#63b8ff" points="173.15,-182.89 162.62,-184 171.54,-189.71 173.15,-182.89"/>
</g>
<!-- Node21 -->
<g id="node19" class="node">
<title>Node21</title>
<g id="a_node19"><a xlink:href="../../da/d58/Units_8h.html" target="_top" xlink:title="Header for unit conversion utilities, which are used to translate user input from input files (See In...">
<polygon fill="white" stroke="#666666" points="856,-184 749,-184 749,-165 856,-165 856,-184"/>
<text text-anchor="middle" x="802.5" y="-172" font-family="Helvetica,sans-Serif" font-size="10.00">cantera/base/Units.h</text>
</a>
</g>
</g>
<!-- Node2&#45;&gt;Node21 -->
<g id="edge28" class="edge">
<title>Node2&#45;&gt;Node21</title>
<path fill="none" stroke="#63b8ff" d="M358.2,-275.06C401.82,-266.35 471.49,-252.21 531.5,-239 611.3,-221.43 703.92,-199.37 757.61,-186.41"/>
<polygon fill="#63b8ff" stroke="#63b8ff" points="758.59,-189.77 767.49,-184.02 756.95,-182.97 758.59,-189.77"/>
</g>
<!-- Node26 -->
<g id="node24" class="node">
<title>Node26</title>
<g id="a_node24"><a xlink:href="../../d2/d49/global_8h.html" target="_top" xlink:title="This file contains definitions for utility functions and text for modules, inputfiles,...">
<polygon fill="white" stroke="#666666" points="310.5,-184 200.5,-184 200.5,-165 310.5,-165 310.5,-184"/>
<text text-anchor="middle" x="255.5" y="-172" font-family="Helvetica,sans-Serif" font-size="10.00">cantera/base/global.h</text>
</a>
</g>
</g>
<!-- Node2&#45;&gt;Node26 -->
<g id="edge29" class="edge">
<title>Node2&#45;&gt;Node26</title>
<path fill="none" stroke="#63b8ff" d="M313.2,-274.9C309.63,-262.32 302.06,-238.4 291.5,-220 285.7,-209.89 277.66,-199.71 270.65,-191.64"/>
<polygon fill="#63b8ff" stroke="#63b8ff" points="273.14,-189.18 263.85,-184.08 267.94,-193.86 273.14,-189.18"/>
</g>
<!-- Node4 -->
<g id="node4" class="node">
<title>Node4</title>
<g id="a_node4"><a xlink:href="../../d9/ddc/ct__defs_8h.html" target="_top" xlink:title="This file contains definitions of constants, types and terms that are used in internal routines and a...">
<polygon fill="white" stroke="#666666" points="358.5,-74 242.5,-74 242.5,-55 358.5,-55 358.5,-74"/>
<text text-anchor="middle" x="300.5" y="-62" font-family="Helvetica,sans-Serif" font-size="10.00">cantera/base/ct_defs.h</text>
</a>
</g>
</g>
<!-- Node3&#45;&gt;Node4 -->
<g id="edge3" class="edge">
<title>Node3&#45;&gt;Node4</title>
<path fill="none" stroke="#63b8ff" d="M159.75,-229.13C102.94,-227.82 14.43,-217.54 33.5,-165 44.38,-135.05 52.11,-126.29 79.5,-110 125.79,-82.48 186.16,-71.68 232.11,-67.59"/>
<polygon fill="#63b8ff" stroke="#63b8ff" points="232.58,-71.06 242.27,-66.77 232.02,-64.08 232.58,-71.06"/>
</g>
<!-- Node5 -->
<g id="node5" class="node">
<title>Node5</title>
<g id="a_node5"><a xlink:href="../../db/d16/config_8h_source.html" target="_top" xlink:title=" ">
<polygon fill="white" stroke="#666666" points="51,-19 0,-19 0,0 51,0 51,-19"/>
<text text-anchor="middle" x="25.5" y="-7" font-family="Helvetica,sans-Serif" font-size="10.00">config.h</text>
</a>
</g>
</g>
<!-- Node4&#45;&gt;Node5 -->
<g id="edge4" class="edge">
<title>Node4&#45;&gt;Node5</title>
<path fill="none" stroke="#63b8ff" d="M249.77,-54.93C203.27,-46.88 132.29,-34.13 61.12,-19.03"/>
<polygon fill="#63b8ff" stroke="#63b8ff" points="61.59,-15.55 51.08,-16.88 60.12,-22.4 61.59,-15.55"/>
</g>
<!-- Node6 -->
<g id="node6" class="node">
<title>Node6</title>
<g id="a_node6"><a xlink:title=" ">
<polygon fill="#e0e0e0" stroke="#999999" points="113.5,-19 69.5,-19 69.5,0 113.5,0 113.5,-19"/>
<text text-anchor="middle" x="91.5" y="-7" font-family="Helvetica,sans-Serif" font-size="10.00">cmath</text>
</a>
</g>
</g>
<!-- Node4&#45;&gt;Node6 -->
<g id="edge5" class="edge">
<title>Node4&#45;&gt;Node6</title>
<path fill="none" stroke="#63b8ff" d="M265.32,-54.95C231.4,-46.66 178.39,-33.55 123.7,-19.27"/>
<polygon fill="#63b8ff" stroke="#63b8ff" points="124.4,-15.84 113.83,-16.69 122.62,-22.61 124.4,-15.84"/>
</g>
<!-- Node7 -->
<g id="node7" class="node">
<title>Node7</title>
<g id="a_node7"><a xlink:title=" ">
<polygon fill="#e0e0e0" stroke="#999999" points="177,-19 132,-19 132,0 177,0 177,-19"/>
<text text-anchor="middle" x="154.5" y="-7" font-family="Helvetica,sans-Serif" font-size="10.00">cstdlib</text>
</a>
</g>
</g>
<!-- Node4&#45;&gt;Node7 -->
<g id="edge6" class="edge">
<title>Node4&#45;&gt;Node7</title>
<path fill="none" stroke="#63b8ff" d="M277.04,-54.98C252.63,-46.12 214.23,-32.18 186.93,-22.27"/>
<polygon fill="#63b8ff" stroke="#63b8ff" points="188.01,-18.94 177.42,-18.82 185.62,-25.52 188.01,-18.94"/>
</g>
<!-- Node8 -->
<g id="node8" class="node">
<title>Node8</title>
<g id="a_node8"><a xlink:title=" ">
<polygon fill="#e0e0e0" stroke="#999999" points="239.5,-19 195.5,-19 195.5,0 239.5,0 239.5,-19"/>
<text text-anchor="middle" x="217.5" y="-7" font-family="Helvetica,sans-Serif" font-size="10.00">vector</text>
</a>
</g>
</g>
<!-- Node4&#45;&gt;Node8 -->
<g id="edge7" class="edge">
<title>Node4&#45;&gt;Node8</title>
<path fill="none" stroke="#63b8ff" d="M287.16,-54.98C274.41,-46.84 254.95,-34.41 239.83,-24.76"/>
<polygon fill="#63b8ff" stroke="#63b8ff" points="241.39,-21.6 231.08,-19.17 237.62,-27.5 241.39,-21.6"/>
</g>
<!-- Node9 -->
<g id="node9" class="node">
<title>Node9</title>
<g id="a_node9"><a xlink:title=" ">
<polygon fill="#e0e0e0" stroke="#999999" points="293,-19 258,-19 258,0 293,0 293,-19"/>
<text text-anchor="middle" x="275.5" y="-7" font-family="Helvetica,sans-Serif" font-size="10.00">map</text>
</a>
</g>
</g>
<!-- Node4&#45;&gt;Node9 -->
<g id="edge8" class="edge">
<title>Node4&#45;&gt;Node9</title>
<path fill="none" stroke="#63b8ff" d="M296.37,-54.75C292.99,-47.57 288.08,-37.18 283.88,-28.27"/>
<polygon fill="#63b8ff" stroke="#63b8ff" points="286.98,-26.64 279.55,-19.09 280.65,-29.63 286.98,-26.64"/>
</g>
<!-- Node10 -->
<g id="node10" class="node">
<title>Node10</title>
<g id="a_node10"><a xlink:title=" ">
<polygon fill="#e0e0e0" stroke="#999999" points="341.5,-19 311.5,-19 311.5,0 341.5,0 341.5,-19"/>
<text text-anchor="middle" x="326.5" y="-7" font-family="Helvetica,sans-Serif" font-size="10.00">set</text>
</a>
</g>
</g>
<!-- Node4&#45;&gt;Node10 -->
<g id="edge9" class="edge">
<title>Node4&#45;&gt;Node10</title>
<path fill="none" stroke="#63b8ff" d="M304.79,-54.75C308.31,-47.57 313.41,-37.18 317.78,-28.27"/>
<polygon fill="#63b8ff" stroke="#63b8ff" points="321.02,-29.61 322.29,-19.09 314.74,-26.53 321.02,-29.61"/>
</g>
<!-- Node11 -->
<g id="node11" class="node">
<title>Node11</title>
<g id="a_node11"><a xlink:title=" ">
<polygon fill="#e0e0e0" stroke="#999999" points="401,-19 360,-19 360,0 401,0 401,-19"/>
<text text-anchor="middle" x="380.5" y="-7" font-family="Helvetica,sans-Serif" font-size="10.00">string</text>
</a>
</g>
</g>
<!-- Node4&#45;&gt;Node11 -->
<g id="edge10" class="edge">
<title>Node4&#45;&gt;Node11</title>
<path fill="none" stroke="#63b8ff" d="M313.35,-54.98C325.64,-46.84 344.41,-34.41 358.98,-24.76"/>
<polygon fill="#63b8ff" stroke="#63b8ff" points="361.01,-27.61 367.41,-19.17 357.14,-21.78 361.01,-27.61"/>
</g>
<!-- Node12 -->
<g id="node12" class="node">
<title>Node12</title>
<g id="a_node12"><a xlink:title=" ">
<polygon fill="#e0e0e0" stroke="#999999" points="475.5,-19 419.5,-19 419.5,0 475.5,0 475.5,-19"/>
<text text-anchor="middle" x="447.5" y="-7" font-family="Helvetica,sans-Serif" font-size="10.00">algorithm</text>
</a>
</g>
</g>
<!-- Node4&#45;&gt;Node12 -->
<g id="edge11" class="edge">
<title>Node4&#45;&gt;Node12</title>
<path fill="none" stroke="#63b8ff" d="M324.12,-54.98C348.4,-46.23 386.45,-32.51 413.87,-22.62"/>
<polygon fill="#63b8ff" stroke="#63b8ff" points="415.23,-25.85 423.45,-19.17 412.86,-19.27 415.23,-25.85"/>
</g>
<!-- Node13 -->
<g id="node13" class="node">
<title>Node13</title>
<g id="a_node13"><a xlink:title=" ">
<polygon fill="#e0e0e0" stroke="#999999" points="545.5,-19 493.5,-19 493.5,0 545.5,0 545.5,-19"/>
<text text-anchor="middle" x="519.5" y="-7" font-family="Helvetica,sans-Serif" font-size="10.00">memory</text>
</a>
</g>
</g>
<!-- Node4&#45;&gt;Node13 -->
<g id="edge12" class="edge">
<title>Node4&#45;&gt;Node13</title>
<path fill="none" stroke="#63b8ff" d="M335.78,-54.98C370.79,-46.52 426.27,-33.11 483.23,-19.31"/>
<polygon fill="#63b8ff" stroke="#63b8ff" points="484.23,-22.66 493.13,-16.91 482.58,-15.86 484.23,-22.66"/>
</g>
<!-- Node14 -->
<g id="node14" class="node">
<title>Node14</title>
<g id="a_node14"><a xlink:title=" ">
<polygon fill="#e0e0e0" stroke="#999999" points="623,-19 564,-19 564,0 623,0 623,-19"/>
<text text-anchor="middle" x="593.5" y="-7" font-family="Helvetica,sans-Serif" font-size="10.00">functional</text>
</a>
</g>
</g>
<!-- Node4&#45;&gt;Node14 -->
<g id="edge13" class="edge">
<title>Node4&#45;&gt;Node14</title>
<path fill="none" stroke="#63b8ff" d="M353.15,-54.92C402.4,-46.76 478.23,-33.81 553.57,-19.11"/>
<polygon fill="#63b8ff" stroke="#63b8ff" points="554.58,-22.48 563.72,-17.12 553.23,-15.61 554.58,-22.48"/>
</g>
<!-- Node15&#45;&gt;Node4 -->
<g id="edge15" class="edge">
<title>Node15&#45;&gt;Node4</title>
<path fill="none" stroke="#63b8ff" d="M425.77,-219.99C403.74,-213.3 376.41,-202.04 357.5,-184 328.14,-156 312.08,-109.78 305,-84.12"/>
<polygon fill="#63b8ff" stroke="#63b8ff" points="308.32,-83.01 302.43,-74.2 301.55,-84.76 308.32,-83.01"/>
</g>
<!-- Node15&#45;&gt;Node16 -->
<g id="edge16" class="edge">
<title>Node15&#45;&gt;Node16</title>
<path fill="none" stroke="#63b8ff" d="M406.27,-219.98C344.36,-210.61 244.91,-195.55 179.14,-185.59"/>
<polygon fill="#63b8ff" stroke="#63b8ff" points="179.3,-182.07 168.88,-184.04 178.25,-189 179.3,-182.07"/>
</g>
<!-- Node15&#45;&gt;Node21 -->
<g id="edge21" class="edge">
<title>Node15&#45;&gt;Node21</title>
<path fill="none" stroke="#63b8ff" d="M517.13,-219.98C577.62,-210.55 675.02,-195.37 738.9,-185.41"/>
<polygon fill="#63b8ff" stroke="#63b8ff" points="739.51,-188.86 748.85,-183.86 738.43,-181.95 739.51,-188.86"/>
</g>
<!-- Node22 -->
<g id="node20" class="node">
<title>Node22</title>
<g id="a_node20"><a xlink:title=" ">
<polygon fill="#e0e0e0" stroke="#999999" points="731,-184 648,-184 648,-165 731,-165 731,-184"/>
<text text-anchor="middle" x="689.5" y="-172" font-family="Helvetica,sans-Serif" font-size="10.00">unordered_map</text>
</a>
</g>
</g>
<!-- Node15&#45;&gt;Node22 -->
<g id="edge23" class="edge">
<title>Node15&#45;&gt;Node22</title>
<path fill="none" stroke="#63b8ff" d="M498.97,-219.98C538.07,-210.86 600.27,-196.33 642.89,-186.38"/>
<polygon fill="#63b8ff" stroke="#63b8ff" points="643.8,-189.76 652.74,-184.08 642.21,-182.95 643.8,-189.76"/>
</g>
<!-- Node23 -->
<g id="node21" class="node">
<title>Node23</title>
<g id="a_node21"><a xlink:title=" ">
<polygon fill="#e0e0e0" stroke="#999999" points="428.5,-184 366.5,-184 366.5,-165 428.5,-165 428.5,-184"/>
<text text-anchor="middle" x="397.5" y="-172" font-family="Helvetica,sans-Serif" font-size="10.00">filesystem</text>
</a>
</g>
</g>
<!-- Node15&#45;&gt;Node23 -->
<g id="edge24" class="edge">
<title>Node15&#45;&gt;Node23</title>
<path fill="none" stroke="#63b8ff" d="M452.06,-219.98C442.35,-212.07 427.68,-200.11 416,-190.58"/>
<polygon fill="#63b8ff" stroke="#63b8ff" points="418.1,-187.78 408.13,-184.17 413.67,-193.2 418.1,-187.78"/>
</g>
<!-- Node24 -->
<g id="node22" class="node">
<title>Node24</title>
<g id="a_node22"><a xlink:title=" ">
<polygon fill="#e0e0e0" stroke="#999999" points="478.5,-184 446.5,-184 446.5,-165 478.5,-165 478.5,-184"/>
<text text-anchor="middle" x="462.5" y="-172" font-family="Helvetica,sans-Serif" font-size="10.00">any</text>
</a>
</g>
</g>
<!-- Node15&#45;&gt;Node24 -->
<g id="edge25" class="edge">
<title>Node15&#45;&gt;Node24</title>
<path fill="none" stroke="#63b8ff" d="M462.5,-219.75C462.5,-212.8 462.5,-202.85 462.5,-194.13"/>
<polygon fill="#63b8ff" stroke="#63b8ff" points="466,-194.09 462.5,-184.09 459,-194.09 466,-194.09"/>
</g>
<!-- Node25 -->
<g id="node23" class="node">
<title>Node25</title>
<g id="a_node23"><a xlink:href="../../da/d4c/AnyMap_8inl_8h.html" target="_top" xlink:title=" ">
<polygon fill="white" stroke="#666666" points="630,-184 497,-184 497,-165 630,-165 630,-184"/>
<text text-anchor="middle" x="563.5" y="-172" font-family="Helvetica,sans-Serif" font-size="10.00">cantera/base/AnyMap.inl.h</text>
</a>
</g>
</g>
<!-- Node15&#45;&gt;Node25 -->
<g id="edge26" class="edge">
<title>Node15&#45;&gt;Node25</title>
<path fill="none" stroke="#63b8ff" d="M473.61,-219.98C487.91,-211.5 512.71,-198.35 532.73,-188.54"/>
<polygon fill="#63b8ff" stroke="#63b8ff" points="534.33,-191.66 541.83,-184.17 531.3,-185.35 534.33,-191.66"/>
</g>
<!-- Node16&#45;&gt;Node4 -->
<g id="edge17" class="edge">
<title>Node16&#45;&gt;Node4</title>
<path fill="none" stroke="#63b8ff" d="M104.03,-164.84C92.27,-151.77 73.9,-126.73 87.5,-110 105.58,-87.75 177.12,-76.24 232.35,-70.56"/>
<polygon fill="#63b8ff" stroke="#63b8ff" points="232.85,-74.02 242.46,-69.56 232.16,-67.06 232.85,-74.02"/>
</g>
<!-- Node17 -->
<g id="node17" class="node">
<title>Node17</title>
<g id="a_node17"><a xlink:href="../../db/def/fmt_8h.html" target="_top" xlink:title="Wrapper for either system&#45;installed or local headers for fmt.">
<polygon fill="#fff0f0" stroke="red" points="272.5,-129 174.5,-129 174.5,-110 272.5,-110 272.5,-129"/>
<text text-anchor="middle" x="223.5" y="-117" font-family="Helvetica,sans-Serif" font-size="10.00">cantera/base/fmt.h</text>
</a>
</g>
</g>
<!-- Node16&#45;&gt;Node17 -->
<g id="edge18" class="edge">
<title>Node16&#45;&gt;Node17</title>
<path fill="none" stroke="#63b8ff" d="M130.33,-164.98C148.11,-156.5 175.65,-143.35 196.18,-133.54"/>
<polygon fill="#63b8ff" stroke="#63b8ff" points="197.83,-136.64 205.34,-129.17 194.81,-130.32 197.83,-136.64"/>
</g>
<!-- Node20 -->
<g id="node18" class="node">
<title>Node20</title>
<g id="a_node18"><a xlink:title=" ">
<polygon fill="#e0e0e0" stroke="#999999" points="156,-129 97,-129 97,-110 156,-110 156,-129"/>
<text text-anchor="middle" x="126.5" y="-117" font-family="Helvetica,sans-Serif" font-size="10.00">exception</text>
</a>
</g>
</g>
<!-- Node16&#45;&gt;Node20 -->
<g id="edge20" class="edge">
<title>Node16&#45;&gt;Node20</title>
<path fill="none" stroke="#63b8ff" d="M114.81,-164.75C116.67,-157.72 119.34,-147.62 121.65,-138.84"/>
<polygon fill="#63b8ff" stroke="#63b8ff" points="125.06,-139.65 124.23,-129.09 118.29,-137.86 125.06,-139.65"/>
</g>
<!-- Node17&#45;&gt;Node4 -->
<g id="edge19" class="edge">
<title>Node17&#45;&gt;Node4</title>
<path fill="none" stroke="#63b8ff" d="M235.87,-109.98C247.59,-101.92 265.42,-89.65 279.39,-80.03"/>
<polygon fill="#63b8ff" stroke="#63b8ff" points="281.65,-82.72 287.9,-74.17 277.68,-76.96 281.65,-82.72"/>
</g>
<!-- Node21&#45;&gt;Node4 -->
<g id="edge22" class="edge">
<title>Node21&#45;&gt;Node4</title>
<path fill="none" stroke="#63b8ff" d="M762.69,-164.94C671.89,-145.4 449.66,-97.59 350.13,-76.18"/>
<polygon fill="#63b8ff" stroke="#63b8ff" points="350.83,-72.75 340.31,-74.07 349.35,-79.59 350.83,-72.75"/>
</g>
<!-- Node25&#45;&gt;Node15 -->
<g id="edge27" class="edge">
<title>Node25&#45;&gt;Node15</title>
<path fill="none" stroke="#63b8ff" d="M552.13,-184.17C537.7,-192.71 512.87,-205.87 492.9,-215.63"/>
<polygon fill="#63b8ff" stroke="#63b8ff" points="491.34,-212.5 483.84,-219.98 494.37,-218.81 491.34,-212.5"/>
</g>
<!-- Node26&#45;&gt;Node4 -->
<g id="edge30" class="edge">
<title>Node26&#45;&gt;Node4</title>
<path fill="none" stroke="#63b8ff" d="M261.32,-164.96C267.07,-156.23 275.8,-142.13 281.5,-129 287.81,-114.47 292.83,-97.2 296.12,-84.34"/>
<polygon fill="#63b8ff" stroke="#63b8ff" points="299.59,-84.91 298.56,-74.36 292.79,-83.25 299.59,-84.91"/>
</g>
<!-- Node26&#45;&gt;Node17 -->
<g id="edge31" class="edge">
<title>Node26&#45;&gt;Node17</title>
<path fill="none" stroke="#63b8ff" d="M250.22,-164.75C245.79,-157.42 239.34,-146.73 233.88,-137.7"/>
<polygon fill="#63b8ff" stroke="#63b8ff" points="236.85,-135.84 228.69,-129.09 230.86,-139.46 236.85,-135.84"/>
</g>
<!-- Node27&#45;&gt;Node4 -->
<g id="edge35" class="edge">
<title>Node27&#45;&gt;Node4</title>
<path fill="none" stroke="#63b8ff" d="M886.09,-274.9C889.59,-253.15 895.37,-195.53 865.5,-165 797.44,-95.44 504.08,-74.1 369.03,-67.89"/>
<polygon fill="#63b8ff" stroke="#63b8ff" points="368.95,-64.39 358.81,-67.44 368.64,-71.38 368.95,-64.39"/>
</g>
<!-- Node28 -->
<g id="node26" class="node">
<title>Node28</title>
<g id="a_node26"><a xlink:title=" ">
<polygon fill="#e0e0e0" stroke="#999999" points="964,-239 913,-239 913,-220 964,-220 964,-239"/>
<text text-anchor="middle" x="938.5" y="-227" font-family="Helvetica,sans-Serif" font-size="10.00">numeric</text>
</a>
</g>
</g>
<!-- Node27&#45;&gt;Node28 -->
<g id="edge36" class="edge">
<title>Node27&#45;&gt;Node28</title>
<path fill="none" stroke="#63b8ff" d="M893.42,-274.75C901.28,-267.03 912.93,-255.6 922.42,-246.28"/>
<polygon fill="#63b8ff" stroke="#63b8ff" points="925.06,-248.59 929.75,-239.09 920.16,-243.6 925.06,-248.59"/>
</g>
</g>
</svg>
