<?xml version="1.0" encoding="UTF-8" standalone="no"?>
<!DOCTYPE svg PUBLIC "-//W3C//DTD SVG 1.1//EN"
 "http://www.w3.org/Graphics/SVG/1.1/DTD/svg11.dtd">
<!-- Generated by graphviz version 2.43.0 (0)
 -->
<!-- Title: Phase.cpp Pages: 1 -->
<svg width="1304pt" height="522pt"
 viewBox="0.00 0.00 1303.50 522.00" xmlns="http://www.w3.org/2000/svg" xmlns:xlink="http://www.w3.org/1999/xlink">
<g id="graph0" class="graph" transform="scale(1 1) rotate(0) translate(4 518)">
<title>Phase.cpp</title>
<!-- Node1 -->
<g id="Node000001" class="node">
<title>Node1</title>
<g id="a_Node000001"><a xlink:title="Definition file for class Phase.">
<polygon fill="#999999" stroke="#666666" points="1098.5,-514 1032.5,-514 1032.5,-495 1098.5,-495 1098.5,-514"/>
<text text-anchor="middle" x="1065.5" y="-502" font-family="Helvetica,sans-Serif" font-size="10.00">Phase.cpp</text>
</a>
</g>
</g>
<!-- Node2 -->
<g id="Node000002" class="node">
<title>Node2</title>
<g id="a_Node000002"><a xlink:href="../../da/d84/Phase_8h.html" target="_top" xlink:title="Header file for class Phase.">
<polygon fill="white" stroke="#666666" points="425,-239 292,-239 292,-220 425,-220 425,-239"/>
<text text-anchor="middle" x="358.5" y="-227" font-family="Helvetica,sans-Serif" font-size="10.00">cantera/thermo/Phase.h</text>
</a>
</g>
</g>
<!-- Node1&#45;&gt;Node2 -->
<g id="edge1_Node000001_Node000002" class="edge">
<title>Node1&#45;&gt;Node2</title>
<g id="a_edge1_Node000001_Node000002"><a xlink:title=" ">
<path fill="none" stroke="#63b8ff" d="M1032.39,-502.21C964.48,-499.03 804.88,-488.77 674.5,-459 590.98,-439.93 492.5,-481.17 492.5,-395.5 492.5,-395.5 492.5,-395.5 492.5,-338.5 492.5,-288.68 435.65,-257.94 396,-242.56"/>
<polygon fill="#63b8ff" stroke="#63b8ff" points="397.18,-239.26 386.59,-239.07 394.75,-245.83 397.18,-239.26"/>
</a>
</g>
</g>
<!-- Node23 -->
<g id="Node000023" class="node">
<title>Node23</title>
<g id="a_Node000023"><a xlink:href="../../de/df0/utilities_8h.html" target="_top" xlink:title="Various templated functions that carry out common vector and polynomial operations (see Templated Arr...">
<polygon fill="white" stroke="#666666" points="1291.5,-459 1163.5,-459 1163.5,-440 1291.5,-440 1291.5,-459"/>
<text text-anchor="middle" x="1227.5" y="-447" font-family="Helvetica,sans-Serif" font-size="10.00">cantera/base/utilities.h</text>
</a>
</g>
</g>
<!-- Node1&#45;&gt;Node23 -->
<g id="edge25_Node000001_Node000023" class="edge">
<title>Node1&#45;&gt;Node23</title>
<g id="a_edge25_Node000001_Node000023"><a xlink:title=" ">
<path fill="none" stroke="#63b8ff" d="M1091.53,-494.98C1118.61,-486.13 1161.21,-472.19 1191.51,-462.28"/>
<polygon fill="#63b8ff" stroke="#63b8ff" points="1192.85,-465.52 1201.27,-459.08 1190.68,-458.87 1192.85,-465.52"/>
</a>
</g>
</g>
<!-- Node25 -->
<g id="Node000025" class="node">
<title>Node25</title>
<g id="a_Node000025"><a xlink:href="../../dd/dc3/stringUtils_8h.html" target="_top" xlink:title="Contains declarations for string manipulation functions within Cantera.">
<polygon fill="white" stroke="#666666" points="1248.5,-349 1106.5,-349 1106.5,-330 1248.5,-330 1248.5,-349"/>
<text text-anchor="middle" x="1177.5" y="-337" font-family="Helvetica,sans-Serif" font-size="10.00">cantera/base/stringUtils.h</text>
</a>
</g>
</g>
<!-- Node1&#45;&gt;Node25 -->
<g id="edge28_Node000001_Node000025" class="edge">
<title>Node1&#45;&gt;Node25</title>
<g id="a_edge28_Node000001_Node000025"><a xlink:title=" ">
<path fill="none" stroke="#63b8ff" d="M1071.52,-494.74C1089.3,-468.87 1141.78,-392.48 1165.56,-357.88"/>
<polygon fill="#63b8ff" stroke="#63b8ff" points="1168.67,-359.53 1171.45,-349.31 1162.9,-355.57 1168.67,-359.53"/>
</a>
</g>
</g>
<!-- Node26 -->
<g id="Node000026" class="node">
<title>Node26</title>
<g id="a_Node000026"><a xlink:href="../../d7/dd9/Species_8h.html" target="_top" xlink:title="Declaration for class Cantera::Species.">
<polygon fill="white" stroke="#666666" points="1136,-294 995,-294 995,-275 1136,-275 1136,-294"/>
<text text-anchor="middle" x="1065.5" y="-282" font-family="Helvetica,sans-Serif" font-size="10.00">cantera/thermo/Species.h</text>
</a>
</g>
</g>
<!-- Node1&#45;&gt;Node26 -->
<g id="edge30_Node000001_Node000026" class="edge">
<title>Node1&#45;&gt;Node26</title>
<g id="a_edge30_Node000001_Node000026"><a xlink:title=" ">
<path fill="none" stroke="#63b8ff" d="M1065.5,-494.95C1065.5,-462.95 1065.5,-349.68 1065.5,-304.4"/>
<polygon fill="#63b8ff" stroke="#63b8ff" points="1069,-304.22 1065.5,-294.22 1062,-304.22 1069,-304.22"/>
</a>
</g>
</g>
<!-- Node33 -->
<g id="Node000033" class="node">
<title>Node33</title>
<g id="a_Node000033"><a xlink:href="../../dc/d8e/ThermoFactory_8h.html" target="_top" xlink:title="Headers for the factory class that can create known ThermoPhase objects (see Thermodynamic Properties...">
<polygon fill="white" stroke="#666666" points="859,-459 684,-459 684,-440 859,-440 859,-459"/>
<text text-anchor="middle" x="771.5" y="-447" font-family="Helvetica,sans-Serif" font-size="10.00">cantera/thermo/ThermoFactory.h</text>
</a>
</g>
</g>
<!-- Node1&#45;&gt;Node33 -->
<g id="edge42_Node000001_Node000033" class="edge">
<title>Node1&#45;&gt;Node33</title>
<g id="a_edge42_Node000001_Node000033"><a xlink:title=" ">
<path fill="none" stroke="#63b8ff" d="M1032.35,-497.52C983.01,-488.63 889.61,-471.79 828.99,-460.86"/>
<polygon fill="#63b8ff" stroke="#63b8ff" points="829.28,-457.36 818.82,-459.03 828.04,-464.25 829.28,-457.36"/>
</a>
</g>
</g>
<!-- Node3 -->
<g id="Node000003" class="node">
<title>Node3</title>
<g id="a_Node000003"><a xlink:href="../../db/d98/ctexceptions_8h.html" target="_top" xlink:title="Definitions for the classes that are thrown when Cantera experiences an error condition (also contain...">
<polygon fill="white" stroke="#666666" points="564.5,-184 410.5,-184 410.5,-165 564.5,-165 564.5,-184"/>
<text text-anchor="middle" x="487.5" y="-172" font-family="Helvetica,sans-Serif" font-size="10.00">cantera/base/ctexceptions.h</text>
</a>
</g>
</g>
<!-- Node2&#45;&gt;Node3 -->
<g id="edge2_Node000002_Node000003" class="edge">
<title>Node2&#45;&gt;Node3</title>
<g id="a_edge2_Node000002_Node000003"><a xlink:title=" ">
<path fill="none" stroke="#63b8ff" d="M379.23,-219.98C400.26,-211.34 433.05,-197.87 457.04,-188.02"/>
<polygon fill="#63b8ff" stroke="#63b8ff" points="458.48,-191.21 466.4,-184.17 455.82,-184.73 458.48,-191.21"/>
</a>
</g>
</g>
<!-- Node20 -->
<g id="Node000020" class="node">
<title>Node20</title>
<g id="a_Node000020"><a xlink:href="../../d9/dda/Elements_8h.html" target="_top" xlink:title="Contains the getElementWeight function and the definitions of element constraint types.">
<polygon fill="white" stroke="#666666" points="591,-129 442,-129 442,-110 591,-110 591,-129"/>
<text text-anchor="middle" x="516.5" y="-117" font-family="Helvetica,sans-Serif" font-size="10.00">cantera/thermo/Elements.h</text>
</a>
</g>
</g>
<!-- Node2&#45;&gt;Node20 -->
<g id="edge20_Node000002_Node000020" class="edge">
<title>Node2&#45;&gt;Node20</title>
<g id="a_edge20_Node000002_Node000020"><a xlink:title=" ">
<path fill="none" stroke="#63b8ff" d="M291.82,-223.68C233.9,-216.99 163.89,-201.3 195.5,-165 203.26,-156.09 339,-139.72 431.46,-129.51"/>
<polygon fill="#63b8ff" stroke="#63b8ff" points="432.11,-132.96 441.67,-128.39 431.34,-126 432.11,-132.96"/>
</a>
</g>
</g>
<!-- Node21 -->
<g id="Node000021" class="node">
<title>Node21</title>
<g id="a_Node000021"><a xlink:href="../../d6/df6/ValueCache_8h.html" target="_top" xlink:title=" ">
<polygon fill="white" stroke="#666666" points="149,-184 0,-184 0,-165 149,-165 149,-184"/>
<text text-anchor="middle" x="74.5" y="-172" font-family="Helvetica,sans-Serif" font-size="10.00">cantera/base/ValueCache.h</text>
</a>
</g>
</g>
<!-- Node2&#45;&gt;Node21 -->
<g id="edge22_Node000002_Node000021" class="edge">
<title>Node2&#45;&gt;Node21</title>
<g id="a_edge22_Node000002_Node000021"><a xlink:title=" ">
<path fill="none" stroke="#63b8ff" d="M312.87,-219.98C263.23,-210.72 183.84,-195.9 130.47,-185.94"/>
<polygon fill="#63b8ff" stroke="#63b8ff" points="130.96,-182.48 120.49,-184.08 129.68,-189.36 130.96,-182.48"/>
</a>
</g>
</g>
<!-- Node4 -->
<g id="Node000004" class="node">
<title>Node4</title>
<g id="a_Node000004"><a xlink:href="../../d9/ddc/ct__defs_8h.html" target="_top" xlink:title="This file contains definitions of constants, types and terms that are used in internal routines and a...">
<polygon fill="white" stroke="#666666" points="809,-74 748,-74 748,-55 809,-55 809,-74"/>
<text text-anchor="middle" x="778.5" y="-62" font-family="Helvetica,sans-Serif" font-size="10.00">ct_defs.h</text>
</a>
</g>
</g>
<!-- Node3&#45;&gt;Node4 -->
<g id="edge3_Node000003_Node000004" class="edge">
<title>Node3&#45;&gt;Node4</title>
<g id="a_edge3_Node000003_Node000004"><a xlink:title=" ">
<path fill="none" stroke="#63b8ff" d="M519.26,-164.92C548.88,-156.65 594.13,-143.31 632.5,-129 652.08,-121.7 656.35,-118.37 675.5,-110 700.2,-99.21 728.28,-87.08 748.88,-78.22"/>
<polygon fill="#63b8ff" stroke="#63b8ff" points="750.54,-81.31 758.35,-74.15 747.78,-74.88 750.54,-81.31"/>
</a>
</g>
</g>
<!-- Node15 -->
<g id="Node000015" class="node">
<title>Node15</title>
<g id="a_Node000015"><a xlink:href="../../db/def/fmt_8h.html" target="_top" xlink:title="Wrapper for either system&#45;installed or local headers for fmt.">
<polygon fill="white" stroke="#666666" points="386,-129 277,-129 277,-110 386,-110 386,-129"/>
<text text-anchor="middle" x="331.5" y="-117" font-family="Helvetica,sans-Serif" font-size="10.00">cantera/base/fmt.h</text>
</a>
</g>
</g>
<!-- Node3&#45;&gt;Node15 -->
<g id="edge14_Node000003_Node000015" class="edge">
<title>Node3&#45;&gt;Node15</title>
<g id="a_edge14_Node000003_Node000015"><a xlink:title=" ">
<path fill="none" stroke="#63b8ff" d="M462.44,-164.98C436.47,-156.16 395.69,-142.31 366.54,-132.41"/>
<polygon fill="#63b8ff" stroke="#63b8ff" points="367.35,-128.99 356.76,-129.08 365.1,-135.61 367.35,-128.99"/>
</a>
</g>
</g>
<!-- Node19 -->
<g id="Node000019" class="node">
<title>Node19</title>
<g id="a_Node000019"><a xlink:title=" ">
<polygon fill="#e0e0e0" stroke="#999999" points="750,-129 685,-129 685,-110 750,-110 750,-129"/>
<text text-anchor="middle" x="717.5" y="-117" font-family="Helvetica,sans-Serif" font-size="10.00">exception</text>
</a>
</g>
</g>
<!-- Node3&#45;&gt;Node19 -->
<g id="edge19_Node000003_Node000019" class="edge">
<title>Node3&#45;&gt;Node19</title>
<g id="a_edge19_Node000003_Node000019"><a xlink:title=" ">
<path fill="none" stroke="#63b8ff" d="M524.45,-164.98C565.48,-155.53 631.6,-140.29 674.81,-130.34"/>
<polygon fill="#63b8ff" stroke="#63b8ff" points="675.78,-133.71 684.74,-128.05 674.21,-126.89 675.78,-133.71"/>
</a>
</g>
</g>
<!-- Node5 -->
<g id="Node000005" class="node">
<title>Node5</title>
<g id="a_Node000005"><a xlink:href="../../db/d16/config_8h_source.html" target="_top" xlink:title=" ">
<polygon fill="white" stroke="#666666" points="517,-19 462,-19 462,0 517,0 517,-19"/>
<text text-anchor="middle" x="489.5" y="-7" font-family="Helvetica,sans-Serif" font-size="10.00">config.h</text>
</a>
</g>
</g>
<!-- Node4&#45;&gt;Node5 -->
<g id="edge4_Node000004_Node000005" class="edge">
<title>Node4&#45;&gt;Node5</title>
<g id="a_edge4_Node000004_Node000005"><a xlink:title=" ">
<path fill="none" stroke="#63b8ff" d="M747.62,-58.66C701.63,-51.32 612.18,-36.56 527.18,-19.26"/>
<polygon fill="#63b8ff" stroke="#63b8ff" points="527.87,-15.83 517.37,-17.25 526.47,-22.69 527.87,-15.83"/>
</a>
</g>
</g>
<!-- Node6 -->
<g id="Node000006" class="node">
<title>Node6</title>
<g id="a_Node000006"><a xlink:title=" ">
<polygon fill="#e0e0e0" stroke="#999999" points="582,-19 535,-19 535,0 582,0 582,-19"/>
<text text-anchor="middle" x="558.5" y="-7" font-family="Helvetica,sans-Serif" font-size="10.00">cmath</text>
</a>
</g>
</g>
<!-- Node4&#45;&gt;Node6 -->
<g id="edge5_Node000004_Node000006" class="edge">
<title>Node4&#45;&gt;Node6</title>
<g id="a_edge5_Node000004_Node000006"><a xlink:title=" ">
<path fill="none" stroke="#63b8ff" d="M747.83,-56.51C712.53,-48.41 652.56,-34.46 592.31,-19.41"/>
<polygon fill="#63b8ff" stroke="#63b8ff" points="592.8,-15.92 582.25,-16.88 591.1,-22.71 592.8,-15.92"/>
</a>
</g>
</g>
<!-- Node7 -->
<g id="Node000007" class="node">
<title>Node7</title>
<g id="a_Node000007"><a xlink:title=" ">
<polygon fill="#e0e0e0" stroke="#999999" points="649,-19 600,-19 600,0 649,0 649,-19"/>
<text text-anchor="middle" x="624.5" y="-7" font-family="Helvetica,sans-Serif" font-size="10.00">cstdlib</text>
</a>
</g>
</g>
<!-- Node4&#45;&gt;Node7 -->
<g id="edge6_Node000004_Node000007" class="edge">
<title>Node4&#45;&gt;Node7</title>
<g id="a_edge6_Node000004_Node000007"><a xlink:title=" ">
<path fill="none" stroke="#63b8ff" d="M753.76,-54.98C728.05,-46.14 687.63,-32.23 658.84,-22.32"/>
<polygon fill="#63b8ff" stroke="#63b8ff" points="659.78,-18.94 649.18,-18.99 657.5,-25.56 659.78,-18.94"/>
</a>
</g>
</g>
<!-- Node8 -->
<g id="Node000008" class="node">
<title>Node8</title>
<g id="a_Node000008"><a xlink:title=" ">
<polygon fill="#e0e0e0" stroke="#999999" points="714,-19 667,-19 667,0 714,0 714,-19"/>
<text text-anchor="middle" x="690.5" y="-7" font-family="Helvetica,sans-Serif" font-size="10.00">vector</text>
</a>
</g>
</g>
<!-- Node4&#45;&gt;Node8 -->
<g id="edge7_Node000004_Node000008" class="edge">
<title>Node4&#45;&gt;Node8</title>
<g id="a_edge7_Node000004_Node000008"><a xlink:title=" ">
<path fill="none" stroke="#63b8ff" d="M764.36,-54.98C750.71,-46.77 729.81,-34.18 713.72,-24.49"/>
<polygon fill="#63b8ff" stroke="#63b8ff" points="715.27,-21.33 704.9,-19.17 711.66,-27.33 715.27,-21.33"/>
</a>
</g>
</g>
<!-- Node9 -->
<g id="Node000009" class="node">
<title>Node9</title>
<g id="a_Node000009"><a xlink:title=" ">
<polygon fill="#e0e0e0" stroke="#999999" points="770.5,-19 732.5,-19 732.5,0 770.5,0 770.5,-19"/>
<text text-anchor="middle" x="751.5" y="-7" font-family="Helvetica,sans-Serif" font-size="10.00">map</text>
</a>
</g>
</g>
<!-- Node4&#45;&gt;Node9 -->
<g id="edge8_Node000004_Node000009" class="edge">
<title>Node4&#45;&gt;Node9</title>
<g id="a_edge8_Node000004_Node000009"><a xlink:title=" ">
<path fill="none" stroke="#63b8ff" d="M774.04,-54.75C770.38,-47.57 765.09,-37.18 760.55,-28.27"/>
<polygon fill="#63b8ff" stroke="#63b8ff" points="763.53,-26.41 755.88,-19.09 757.3,-29.59 763.53,-26.41"/>
</a>
</g>
</g>
<!-- Node10 -->
<g id="Node000010" class="node">
<title>Node10</title>
<g id="a_Node000010"><a xlink:title=" ">
<polygon fill="#e0e0e0" stroke="#999999" points="820.5,-19 788.5,-19 788.5,0 820.5,0 820.5,-19"/>
<text text-anchor="middle" x="804.5" y="-7" font-family="Helvetica,sans-Serif" font-size="10.00">set</text>
</a>
</g>
</g>
<!-- Node4&#45;&gt;Node10 -->
<g id="edge9_Node000004_Node000010" class="edge">
<title>Node4&#45;&gt;Node10</title>
<g id="a_edge9_Node000004_Node000010"><a xlink:title=" ">
<path fill="none" stroke="#63b8ff" d="M782.79,-54.75C786.31,-47.57 791.41,-37.18 795.78,-28.27"/>
<polygon fill="#63b8ff" stroke="#63b8ff" points="799.02,-29.61 800.29,-19.09 792.74,-26.53 799.02,-29.61"/>
</a>
</g>
</g>
<!-- Node11 -->
<g id="Node000011" class="node">
<title>Node11</title>
<g id="a_Node000011"><a xlink:title=" ">
<polygon fill="#e0e0e0" stroke="#999999" points="882.5,-19 838.5,-19 838.5,0 882.5,0 882.5,-19"/>
<text text-anchor="middle" x="860.5" y="-7" font-family="Helvetica,sans-Serif" font-size="10.00">string</text>
</a>
</g>
</g>
<!-- Node4&#45;&gt;Node11 -->
<g id="edge10_Node000004_Node000011" class="edge">
<title>Node4&#45;&gt;Node11</title>
<g id="a_edge10_Node000004_Node000011"><a xlink:title=" ">
<path fill="none" stroke="#63b8ff" d="M791.67,-54.98C804.27,-46.84 823.5,-34.41 838.44,-24.76"/>
<polygon fill="#63b8ff" stroke="#63b8ff" points="840.59,-27.54 847.09,-19.17 836.79,-21.66 840.59,-27.54"/>
</a>
</g>
</g>
<!-- Node12 -->
<g id="Node000012" class="node">
<title>Node12</title>
<g id="a_Node000012"><a xlink:title=" ">
<polygon fill="#e0e0e0" stroke="#999999" points="964.5,-19 900.5,-19 900.5,0 964.5,0 964.5,-19"/>
<text text-anchor="middle" x="932.5" y="-7" font-family="Helvetica,sans-Serif" font-size="10.00">algorithm</text>
</a>
</g>
</g>
<!-- Node4&#45;&gt;Node12 -->
<g id="edge11_Node000004_Node000012" class="edge">
<title>Node4&#45;&gt;Node12</title>
<g id="a_edge11_Node000004_Node000012"><a xlink:title=" ">
<path fill="none" stroke="#63b8ff" d="M803.24,-54.98C828.87,-46.16 869.13,-32.31 897.91,-22.41"/>
<polygon fill="#63b8ff" stroke="#63b8ff" points="899.25,-25.65 907.56,-19.08 896.97,-19.03 899.25,-25.65"/>
</a>
</g>
</g>
<!-- Node13 -->
<g id="Node000013" class="node">
<title>Node13</title>
<g id="a_Node000013"><a xlink:title=" ">
<polygon fill="#e0e0e0" stroke="#999999" points="1040.5,-19 982.5,-19 982.5,0 1040.5,0 1040.5,-19"/>
<text text-anchor="middle" x="1011.5" y="-7" font-family="Helvetica,sans-Serif" font-size="10.00">memory</text>
</a>
</g>
</g>
<!-- Node4&#45;&gt;Node13 -->
<g id="edge12_Node000004_Node000013" class="edge">
<title>Node4&#45;&gt;Node13</title>
<g id="a_edge12_Node000004_Node000013"><a xlink:title=" ">
<path fill="none" stroke="#63b8ff" d="M809.44,-56.46C851.45,-46.91 926.53,-29.83 972.39,-19.4"/>
<polygon fill="#63b8ff" stroke="#63b8ff" points="973.29,-22.78 982.27,-17.15 971.74,-15.95 973.29,-22.78"/>
</a>
</g>
</g>
<!-- Node14 -->
<g id="Node000014" class="node">
<title>Node14</title>
<g id="a_Node000014"><a xlink:title=" ">
<polygon fill="#e0e0e0" stroke="#999999" points="1124,-19 1059,-19 1059,0 1124,0 1124,-19"/>
<text text-anchor="middle" x="1091.5" y="-7" font-family="Helvetica,sans-Serif" font-size="10.00">functional</text>
</a>
</g>
</g>
<!-- Node4&#45;&gt;Node14 -->
<g id="edge13_Node000004_Node000014" class="edge">
<title>Node4&#45;&gt;Node14</title>
<g id="a_edge13_Node000004_Node000014"><a xlink:title=" ">
<path fill="none" stroke="#63b8ff" d="M809.04,-58.86C857.58,-51.41 955.51,-36.04 1049.05,-19.02"/>
<polygon fill="#63b8ff" stroke="#63b8ff" points="1049.76,-22.45 1058.96,-17.21 1048.5,-15.56 1049.76,-22.45"/>
</a>
</g>
</g>
<!-- Node15&#45;&gt;Node4 -->
<g id="edge15_Node000015_Node000004" class="edge">
<title>Node15&#45;&gt;Node4</title>
<g id="a_edge15_Node000015_Node000004"><a xlink:title=" ">
<path fill="none" stroke="#63b8ff" d="M386.11,-111.75C390.98,-111.15 395.83,-110.56 400.5,-110 523.12,-95.23 668.18,-78.31 737.55,-70.25"/>
<polygon fill="#63b8ff" stroke="#63b8ff" points="738.1,-73.71 747.62,-69.08 737.29,-66.75 738.1,-73.71"/>
</a>
</g>
</g>
<!-- Node16 -->
<g id="Node000016" class="node">
<title>Node16</title>
<g id="a_Node000016"><a xlink:title=" ">
<polygon fill="#e0e0e0" stroke="#999999" points="559,-74 422,-74 422,-55 559,-55 559,-74"/>
<text text-anchor="middle" x="490.5" y="-62" font-family="Helvetica,sans-Serif" font-size="10.00">cantera/ext/fmt/format.h</text>
</a>
</g>
</g>
<!-- Node15&#45;&gt;Node16 -->
<g id="edge16_Node000015_Node000016" class="edge">
<title>Node15&#45;&gt;Node16</title>
<g id="a_edge16_Node000015_Node000016"><a xlink:title=" ">
<path fill="none" stroke="#63b8ff" d="M357.05,-109.98C383.62,-101.13 425.44,-87.19 455.17,-77.28"/>
<polygon fill="#63b8ff" stroke="#63b8ff" points="456.37,-80.56 464.75,-74.08 454.16,-73.92 456.37,-80.56"/>
</a>
</g>
</g>
<!-- Node17 -->
<g id="Node000017" class="node">
<title>Node17</title>
<g id="a_Node000017"><a xlink:title=" ">
<polygon fill="#e0e0e0" stroke="#999999" points="240.5,-74 110.5,-74 110.5,-55 240.5,-55 240.5,-74"/>
<text text-anchor="middle" x="175.5" y="-62" font-family="Helvetica,sans-Serif" font-size="10.00">cantera/ext/fmt/printf.h</text>
</a>
</g>
</g>
<!-- Node15&#45;&gt;Node17 -->
<g id="edge17_Node000015_Node000017" class="edge">
<title>Node15&#45;&gt;Node17</title>
<g id="a_edge17_Node000015_Node000017"><a xlink:title=" ">
<path fill="none" stroke="#63b8ff" d="M306.44,-109.98C280.47,-101.16 239.69,-87.31 210.54,-77.41"/>
<polygon fill="#63b8ff" stroke="#63b8ff" points="211.35,-73.99 200.76,-74.08 209.1,-80.61 211.35,-73.99"/>
</a>
</g>
</g>
<!-- Node18 -->
<g id="Node000018" class="node">
<title>Node18</title>
<g id="a_Node000018"><a xlink:title=" ">
<polygon fill="#e0e0e0" stroke="#999999" points="404,-74 259,-74 259,-55 404,-55 404,-74"/>
<text text-anchor="middle" x="331.5" y="-62" font-family="Helvetica,sans-Serif" font-size="10.00">cantera/ext/fmt/ostream.h</text>
</a>
</g>
</g>
<!-- Node15&#45;&gt;Node18 -->
<g id="edge18_Node000015_Node000018" class="edge">
<title>Node15&#45;&gt;Node18</title>
<g id="a_edge18_Node000015_Node000018"><a xlink:title=" ">
<path fill="none" stroke="#63b8ff" d="M331.5,-109.75C331.5,-102.8 331.5,-92.85 331.5,-84.13"/>
<polygon fill="#63b8ff" stroke="#63b8ff" points="335,-84.09 331.5,-74.09 328,-84.09 335,-84.09"/>
</a>
</g>
</g>
<!-- Node20&#45;&gt;Node4 -->
<g id="edge21_Node000020_Node000004" class="edge">
<title>Node20&#45;&gt;Node4</title>
<g id="a_edge21_Node000020_Node000004"><a xlink:title=" ">
<path fill="none" stroke="#63b8ff" d="M558.59,-109.98C608.02,-99.99 689.42,-83.52 738.1,-73.67"/>
<polygon fill="#63b8ff" stroke="#63b8ff" points="738.86,-77.09 747.97,-71.68 737.47,-70.23 738.86,-77.09"/>
</a>
</g>
</g>
<!-- Node21&#45;&gt;Node4 -->
<g id="edge23_Node000021_Node000004" class="edge">
<title>Node21&#45;&gt;Node4</title>
<g id="a_edge23_Node000021_Node000004"><a xlink:title=" ">
<path fill="none" stroke="#63b8ff" d="M149.22,-165.94C229.05,-157.37 350.1,-142.78 394.5,-129 412.53,-123.4 414.44,-115.5 432.5,-110 539.24,-77.47 671.56,-68.72 737.34,-66.36"/>
<polygon fill="#63b8ff" stroke="#63b8ff" points="737.82,-69.85 747.7,-66.03 737.59,-62.85 737.82,-69.85"/>
</a>
</g>
</g>
<!-- Node22 -->
<g id="Node000022" class="node">
<title>Node22</title>
<g id="a_Node000022"><a xlink:title=" ">
<polygon fill="#e0e0e0" stroke="#999999" points="96.5,-129 52.5,-129 52.5,-110 96.5,-110 96.5,-129"/>
<text text-anchor="middle" x="74.5" y="-117" font-family="Helvetica,sans-Serif" font-size="10.00">limits</text>
</a>
</g>
</g>
<!-- Node21&#45;&gt;Node22 -->
<g id="edge24_Node000021_Node000022" class="edge">
<title>Node21&#45;&gt;Node22</title>
<g id="a_edge24_Node000021_Node000022"><a xlink:title=" ">
<path fill="none" stroke="#63b8ff" d="M74.5,-164.75C74.5,-157.8 74.5,-147.85 74.5,-139.13"/>
<polygon fill="#63b8ff" stroke="#63b8ff" points="78,-139.09 74.5,-129.09 71,-139.09 78,-139.09"/>
</a>
</g>
</g>
<!-- Node23&#45;&gt;Node4 -->
<g id="edge26_Node000023_Node000004" class="edge">
<title>Node23&#45;&gt;Node4</title>
<g id="a_edge26_Node000023_Node000004"><a xlink:title=" ">
<path fill="none" stroke="#63b8ff" d="M1237.83,-439.87C1256.85,-422.93 1295.5,-383.26 1295.5,-340.5 1295.5,-340.5 1295.5,-340.5 1295.5,-173.5 1295.5,-76.38 941.53,-66.04 819.37,-65.36"/>
<polygon fill="#63b8ff" stroke="#63b8ff" points="819.31,-61.86 809.29,-65.33 819.28,-68.86 819.31,-61.86"/>
</a>
</g>
</g>
<!-- Node24 -->
<g id="Node000024" class="node">
<title>Node24</title>
<g id="a_Node000024"><a xlink:title=" ">
<polygon fill="#e0e0e0" stroke="#999999" points="1255.5,-404 1199.5,-404 1199.5,-385 1255.5,-385 1255.5,-404"/>
<text text-anchor="middle" x="1227.5" y="-392" font-family="Helvetica,sans-Serif" font-size="10.00">numeric</text>
</a>
</g>
</g>
<!-- Node23&#45;&gt;Node24 -->
<g id="edge27_Node000023_Node000024" class="edge">
<title>Node23&#45;&gt;Node24</title>
<g id="a_edge27_Node000023_Node000024"><a xlink:title=" ">
<path fill="none" stroke="#63b8ff" d="M1227.5,-439.75C1227.5,-432.8 1227.5,-422.85 1227.5,-414.13"/>
<polygon fill="#63b8ff" stroke="#63b8ff" points="1231,-414.09 1227.5,-404.09 1224,-414.09 1231,-414.09"/>
</a>
</g>
</g>
<!-- Node25&#45;&gt;Node4 -->
<g id="edge29_Node000025_Node000004" class="edge">
<title>Node25&#45;&gt;Node4</title>
<g id="a_edge29_Node000025_Node000004"><a xlink:title=" ">
<path fill="none" stroke="#63b8ff" d="M1190.35,-329.77C1212.97,-313.25 1257.5,-275.07 1257.5,-230.5 1257.5,-230.5 1257.5,-230.5 1257.5,-173.5 1257.5,-84.01 935.34,-68.67 819.43,-66.04"/>
<polygon fill="#63b8ff" stroke="#63b8ff" points="819.26,-62.54 809.19,-65.83 819.12,-69.53 819.26,-62.54"/>
</a>
</g>
</g>
<!-- Node26&#45;&gt;Node4 -->
<g id="edge31_Node000026_Node000004" class="edge">
<title>Node26&#45;&gt;Node4</title>
<g id="a_edge31_Node000026_Node000004"><a xlink:title=" ">
<path fill="none" stroke="#63b8ff" d="M1085.78,-274.89C1124.8,-257.02 1204.2,-213.47 1177.5,-165 1155.43,-124.93 1133.43,-125.8 1090.5,-110 997.74,-75.85 880.53,-67.74 819.57,-65.92"/>
<polygon fill="#63b8ff" stroke="#63b8ff" points="819.3,-62.41 809.21,-65.66 819.12,-69.41 819.3,-62.41"/>
</a>
</g>
</g>
<!-- Node27 -->
<g id="Node000027" class="node">
<title>Node27</title>
<g id="a_Node000027"><a xlink:href="../../dd/d2a/AnyMap_8h.html" target="_top" xlink:title=" ">
<polygon fill="white" stroke="#666666" points="960,-239 829,-239 829,-220 960,-220 960,-239"/>
<text text-anchor="middle" x="894.5" y="-227" font-family="Helvetica,sans-Serif" font-size="10.00">cantera/base/AnyMap.h</text>
</a>
</g>
</g>
<!-- Node26&#45;&gt;Node27 -->
<g id="edge32_Node000026_Node000027" class="edge">
<title>Node26&#45;&gt;Node27</title>
<g id="a_edge32_Node000026_Node000027"><a xlink:title=" ">
<path fill="none" stroke="#63b8ff" d="M1038.03,-274.98C1009.32,-266.09 964.08,-252.07 932.08,-242.15"/>
<polygon fill="#63b8ff" stroke="#63b8ff" points="932.78,-238.7 922.19,-239.08 930.7,-245.39 932.78,-238.7"/>
</a>
</g>
</g>
<!-- Node27&#45;&gt;Node3 -->
<g id="edge34_Node000027_Node000003" class="edge">
<title>Node27&#45;&gt;Node3</title>
<g id="a_edge34_Node000027_Node000003"><a xlink:title=" ">
<path fill="none" stroke="#63b8ff" d="M829.11,-219.98C756.53,-210.53 639.57,-195.3 563.11,-185.35"/>
<polygon fill="#63b8ff" stroke="#63b8ff" points="563.43,-181.86 553.07,-184.04 562.53,-188.8 563.43,-181.86"/>
</a>
</g>
</g>
<!-- Node27&#45;&gt;Node4 -->
<g id="edge33_Node000027_Node000004" class="edge">
<title>Node27&#45;&gt;Node4</title>
<g id="a_edge33_Node000027_Node000004"><a xlink:title=" ">
<path fill="none" stroke="#63b8ff" d="M887.1,-219.81C879.66,-210.97 867.96,-196.78 858.5,-184 832.42,-148.75 804.24,-105.72 789.27,-82.43"/>
<polygon fill="#63b8ff" stroke="#63b8ff" points="792.22,-80.54 783.88,-74 786.32,-84.31 792.22,-80.54"/>
</a>
</g>
</g>
<!-- Node28 -->
<g id="Node000028" class="node">
<title>Node28</title>
<g id="a_Node000028"><a xlink:href="../../da/d58/Units_8h.html" target="_top" xlink:title="Header for unit conversion utilities, which are used to translate user input from input files (See In...">
<polygon fill="white" stroke="#666666" points="811,-184 694,-184 694,-165 811,-165 811,-184"/>
<text text-anchor="middle" x="752.5" y="-172" font-family="Helvetica,sans-Serif" font-size="10.00">cantera/base/Units.h</text>
</a>
</g>
</g>
<!-- Node27&#45;&gt;Node28 -->
<g id="edge35_Node000027_Node000028" class="edge">
<title>Node27&#45;&gt;Node28</title>
<g id="a_edge35_Node000027_Node000028"><a xlink:title=" ">
<path fill="none" stroke="#63b8ff" d="M871.69,-219.98C848.33,-211.27 811.8,-197.63 785.33,-187.75"/>
<polygon fill="#63b8ff" stroke="#63b8ff" points="786.32,-184.39 775.73,-184.17 783.87,-190.95 786.32,-184.39"/>
</a>
</g>
</g>
<!-- Node29 -->
<g id="Node000029" class="node">
<title>Node29</title>
<g id="a_Node000029"><a xlink:title=" ">
<polygon fill="#e0e0e0" stroke="#999999" points="676,-184 583,-184 583,-165 676,-165 676,-184"/>
<text text-anchor="middle" x="629.5" y="-172" font-family="Helvetica,sans-Serif" font-size="10.00">unordered_map</text>
</a>
</g>
</g>
<!-- Node27&#45;&gt;Node29 -->
<g id="edge37_Node000027_Node000029" class="edge">
<title>Node27&#45;&gt;Node29</title>
<g id="a_edge37_Node000027_Node000029"><a xlink:title=" ">
<path fill="none" stroke="#63b8ff" d="M851.92,-219.98C805.8,-210.76 732.14,-196.03 682.34,-186.07"/>
<polygon fill="#63b8ff" stroke="#63b8ff" points="682.9,-182.61 672.41,-184.08 681.53,-189.48 682.9,-182.61"/>
</a>
</g>
</g>
<!-- Node30 -->
<g id="Node000030" class="node">
<title>Node30</title>
<g id="a_Node000030"><a xlink:title=" ">
<polygon fill="#e0e0e0" stroke="#999999" points="1099.5,-184 1031.5,-184 1031.5,-165 1099.5,-165 1099.5,-184"/>
<text text-anchor="middle" x="1065.5" y="-172" font-family="Helvetica,sans-Serif" font-size="10.00">filesystem</text>
</a>
</g>
</g>
<!-- Node27&#45;&gt;Node30 -->
<g id="edge38_Node000027_Node000030" class="edge">
<title>Node27&#45;&gt;Node30</title>
<g id="a_edge38_Node000027_Node000030"><a xlink:title=" ">
<path fill="none" stroke="#63b8ff" d="M921.97,-219.98C950.68,-211.09 995.92,-197.07 1027.92,-187.15"/>
<polygon fill="#63b8ff" stroke="#63b8ff" points="1029.3,-190.39 1037.81,-184.08 1027.22,-183.7 1029.3,-190.39"/>
</a>
</g>
</g>
<!-- Node31 -->
<g id="Node000031" class="node">
<title>Node31</title>
<g id="a_Node000031"><a xlink:title=" ">
<polygon fill="#e0e0e0" stroke="#999999" points="1153,-184 1118,-184 1118,-165 1153,-165 1153,-184"/>
<text text-anchor="middle" x="1135.5" y="-172" font-family="Helvetica,sans-Serif" font-size="10.00">any</text>
</a>
</g>
</g>
<!-- Node27&#45;&gt;Node31 -->
<g id="edge39_Node000027_Node000031" class="edge">
<title>Node27&#45;&gt;Node31</title>
<g id="a_edge39_Node000027_Node000031"><a xlink:title=" ">
<path fill="none" stroke="#63b8ff" d="M942.41,-219.96C983.78,-212.26 1045.31,-200.06 1107.82,-183.95"/>
<polygon fill="#63b8ff" stroke="#63b8ff" points="1109.06,-187.24 1117.85,-181.33 1107.29,-180.47 1109.06,-187.24"/>
</a>
</g>
</g>
<!-- Node32 -->
<g id="Node000032" class="node">
<title>Node32</title>
<g id="a_Node000032"><a xlink:href="../../da/d4c/AnyMap_8inl_8h.html" target="_top" xlink:title=" ">
<polygon fill="white" stroke="#666666" points="1013.5,-184 867.5,-184 867.5,-165 1013.5,-165 1013.5,-184"/>
<text text-anchor="middle" x="940.5" y="-172" font-family="Helvetica,sans-Serif" font-size="10.00">cantera/base/AnyMap.inl.h</text>
</a>
</g>
</g>
<!-- Node27&#45;&gt;Node32 -->
<g id="edge40_Node000027_Node000032" class="edge">
<title>Node27&#45;&gt;Node32</title>
<g id="a_edge40_Node000027_Node000032"><a xlink:title=" ">
<path fill="none" stroke="#63b8ff" d="M896.93,-219.75C901.97,-212.03 911.54,-200.6 920.57,-191.28"/>
<polygon fill="#63b8ff" stroke="#63b8ff" points="923.22,-193.59 927.91,-184.09 918.32,-188.59 923.22,-193.59"/>
</a>
</g>
</g>
<!-- Node28&#45;&gt;Node4 -->
<g id="edge36_Node000028_Node000004" class="edge">
<title>Node28&#45;&gt;Node4</title>
<g id="a_edge36_Node000028_Node000004"><a xlink:title=" ">
<path fill="none" stroke="#63b8ff" d="M754.63,-164.66C758.86,-147.09 768.4,-107.45 774.06,-83.95"/>
<polygon fill="#63b8ff" stroke="#63b8ff" points="777.48,-84.7 776.42,-74.16 770.67,-83.06 777.48,-84.7"/>
</a>
</g>
</g>
<!-- Node32&#45;&gt;Node27 -->
<g id="edge41_Node000032_Node000027" class="edge">
<title>Node32&#45;&gt;Node27</title>
<g id="a_edge41_Node000032_Node000027"><a xlink:title=" ">
<path fill="none" stroke="#63b8ff" d="M938.12,-184.17C933.09,-191.9 923.46,-203.41 914.39,-212.76"/>
<polygon fill="#63b8ff" stroke="#63b8ff" points="911.71,-210.49 907.01,-219.98 916.6,-215.49 911.71,-210.49"/>
</a>
</g>
</g>
<!-- Node34 -->
<g id="Node000034" class="node">
<title>Node34</title>
<g id="a_Node000034"><a xlink:href="../../d7/d01/ThermoPhase_8h.html" target="_top" xlink:title="Header file for class ThermoPhase, the base class for phases with thermodynamic properties,...">
<polygon fill="white" stroke="#666666" points="817.5,-404 725.5,-404 725.5,-385 817.5,-385 817.5,-404"/>
<text text-anchor="middle" x="771.5" y="-392" font-family="Helvetica,sans-Serif" font-size="10.00">ThermoPhase.h</text>
</a>
</g>
</g>
<!-- Node33&#45;&gt;Node34 -->
<g id="edge43_Node000033_Node000034" class="edge">
<title>Node33&#45;&gt;Node34</title>
<g id="a_edge43_Node000033_Node000034"><a xlink:title=" ">
<path fill="none" stroke="#63b8ff" d="M771.5,-439.75C771.5,-432.8 771.5,-422.85 771.5,-414.13"/>
<polygon fill="#63b8ff" stroke="#63b8ff" points="775,-414.09 771.5,-404.09 768,-414.09 775,-414.09"/>
</a>
</g>
</g>
<!-- Node37 -->
<g id="Node000037" class="node">
<title>Node37</title>
<g id="a_Node000037"><a xlink:href="../../d6/dd5/FactoryBase_8h.html" target="_top" xlink:title="File contains the FactoryBase class declarations.">
<polygon fill="white" stroke="#666666" points="594,-239 443,-239 443,-220 594,-220 594,-239"/>
<text text-anchor="middle" x="518.5" y="-227" font-family="Helvetica,sans-Serif" font-size="10.00">cantera/base/FactoryBase.h</text>
</a>
</g>
</g>
<!-- Node33&#45;&gt;Node37 -->
<g id="edge52_Node000033_Node000037" class="edge">
<title>Node33&#45;&gt;Node37</title>
<g id="a_edge52_Node000033_Node000037"><a xlink:title=" ">
<path fill="none" stroke="#63b8ff" d="M760.44,-439.76C749.26,-430.88 731.53,-416.66 716.5,-404 648.82,-347 570.27,-276.99 536,-246.24"/>
<polygon fill="#63b8ff" stroke="#63b8ff" points="538.05,-243.38 528.27,-239.3 533.37,-248.59 538.05,-243.38"/>
</a>
</g>
</g>
<!-- Node34&#45;&gt;Node2 -->
<g id="edge44_Node000034_Node000002" class="edge">
<title>Node34&#45;&gt;Node2</title>
<g id="a_edge44_Node000034_Node000002"><a xlink:title=" ">
<path fill="none" stroke="#63b8ff" d="M754.46,-384.95C712.83,-364.29 602.38,-310.68 506.5,-275 471.48,-261.97 430.77,-249.95 400.92,-241.69"/>
<polygon fill="#63b8ff" stroke="#63b8ff" points="401.8,-238.31 391.23,-239.04 399.95,-245.06 401.8,-238.31"/>
</a>
</g>
</g>
<!-- Node34&#45;&gt;Node27 -->
<g id="edge51_Node000034_Node000027" class="edge">
<title>Node34&#45;&gt;Node27</title>
<g id="a_edge51_Node000034_Node000027"><a xlink:title=" ">
<path fill="none" stroke="#63b8ff" d="M772.05,-384.99C773.84,-363.95 781.13,-308.73 809.5,-275 821.78,-260.4 840.08,-249.96 856.56,-242.88"/>
<polygon fill="#63b8ff" stroke="#63b8ff" points="858.02,-246.06 866,-239.09 855.41,-239.57 858.02,-246.06"/>
</a>
</g>
</g>
<!-- Node34&#45;&gt;Node28 -->
<g id="edge50_Node000034_Node000028" class="edge">
<title>Node34&#45;&gt;Node28</title>
<g id="a_edge50_Node000034_Node000028"><a xlink:title=" ">
<path fill="none" stroke="#63b8ff" d="M770.76,-384.95C767.97,-352.95 758.09,-239.68 754.15,-194.4"/>
<polygon fill="#63b8ff" stroke="#63b8ff" points="757.62,-193.88 753.26,-184.22 750.64,-194.49 757.62,-193.88"/>
</a>
</g>
</g>
<!-- Node35 -->
<g id="Node000035" class="node">
<title>Node35</title>
<g id="a_Node000035"><a xlink:href="../../d6/d7a/MultiSpeciesThermo_8h.html" target="_top" xlink:title="Header for a general species thermodynamic property manager for a phase (see MultiSpeciesThermo).">
<polygon fill="white" stroke="#666666" points="951,-349 826,-349 826,-330 951,-330 951,-349"/>
<text text-anchor="middle" x="888.5" y="-337" font-family="Helvetica,sans-Serif" font-size="10.00">MultiSpeciesThermo.h</text>
</a>
</g>
</g>
<!-- Node34&#45;&gt;Node35 -->
<g id="edge45_Node000034_Node000035" class="edge">
<title>Node34&#45;&gt;Node35</title>
<g id="a_edge45_Node000034_Node000035"><a xlink:title=" ">
<path fill="none" stroke="#63b8ff" d="M790.3,-384.98C809.12,-376.46 838.32,-363.23 860,-353.41"/>
<polygon fill="#63b8ff" stroke="#63b8ff" points="861.7,-356.48 869.36,-349.17 858.81,-350.11 861.7,-356.48"/>
</a>
</g>
</g>
<!-- Node36 -->
<g id="Node000036" class="node">
<title>Node36</title>
<g id="a_Node000036"><a xlink:href="../../d4/d87/SpeciesThermoInterpType_8h.html" target="_top" xlink:title="Pure Virtual Base class for individual species reference state thermodynamic managers and text for th...">
<polygon fill="white" stroke="#666666" points="970.5,-294 818.5,-294 818.5,-275 970.5,-275 970.5,-294"/>
<text text-anchor="middle" x="894.5" y="-282" font-family="Helvetica,sans-Serif" font-size="10.00">SpeciesThermoInterpType.h</text>
</a>
</g>
</g>
<!-- Node35&#45;&gt;Node36 -->
<g id="edge46_Node000035_Node000036" class="edge">
<title>Node35&#45;&gt;Node36</title>
<g id="a_edge46_Node000035_Node000036"><a xlink:title=" ">
<path fill="none" stroke="#63b8ff" d="M889.49,-329.75C890.28,-322.8 891.4,-312.85 892.39,-304.13"/>
<polygon fill="#63b8ff" stroke="#63b8ff" points="895.88,-304.42 893.53,-294.09 888.92,-303.63 895.88,-304.42"/>
</a>
</g>
</g>
<!-- Node36&#45;&gt;Node3 -->
<g id="edge48_Node000036_Node000003" class="edge">
<title>Node36&#45;&gt;Node3</title>
<g id="a_edge48_Node000036_Node000003"><a xlink:title=" ">
<path fill="none" stroke="#63b8ff" d="M862.22,-274.94C789.2,-255.56 611.34,-208.36 529.71,-186.7"/>
<polygon fill="#63b8ff" stroke="#63b8ff" points="530.34,-183.25 519.78,-184.07 528.55,-190.01 530.34,-183.25"/>
</a>
</g>
</g>
<!-- Node36&#45;&gt;Node4 -->
<g id="edge47_Node000036_Node000004" class="edge">
<title>Node36&#45;&gt;Node4</title>
<g id="a_edge47_Node000036_Node000004"><a xlink:title=" ">
<path fill="none" stroke="#63b8ff" d="M930.93,-274.97C1011.19,-255.3 1193.75,-205.38 1162.5,-165 1120.28,-110.45 909.01,-80.35 819.11,-69.83"/>
<polygon fill="#63b8ff" stroke="#63b8ff" points="819.35,-66.34 809.01,-68.67 818.55,-73.29 819.35,-66.34"/>
</a>
</g>
</g>
<!-- Node36&#45;&gt;Node27 -->
<g id="edge49_Node000036_Node000027" class="edge">
<title>Node36&#45;&gt;Node27</title>
<g id="a_edge49_Node000036_Node000027"><a xlink:title=" ">
<path fill="none" stroke="#63b8ff" d="M894.5,-274.75C894.5,-267.8 894.5,-257.85 894.5,-249.13"/>
<polygon fill="#63b8ff" stroke="#63b8ff" points="898,-249.09 894.5,-239.09 891,-249.09 898,-249.09"/>
</a>
</g>
</g>
<!-- Node37&#45;&gt;Node3 -->
<g id="edge55_Node000037_Node000003" class="edge">
<title>Node37&#45;&gt;Node3</title>
<g id="a_edge55_Node000037_Node000003"><a xlink:title=" ">
<path fill="none" stroke="#63b8ff" d="M513.38,-219.75C509.14,-212.49 502.97,-201.95 497.72,-192.98"/>
<polygon fill="#63b8ff" stroke="#63b8ff" points="500.59,-190.95 492.52,-184.09 494.55,-194.49 500.59,-190.95"/>
</a>
</g>
</g>
<!-- Node37&#45;&gt;Node29 -->
<g id="edge54_Node000037_Node000029" class="edge">
<title>Node37&#45;&gt;Node29</title>
<g id="a_edge54_Node000037_Node000029"><a xlink:title=" ">
<path fill="none" stroke="#63b8ff" d="M536.33,-219.98C554.11,-211.5 581.65,-198.35 602.18,-188.54"/>
<polygon fill="#63b8ff" stroke="#63b8ff" points="603.83,-191.64 611.34,-184.17 600.81,-185.32 603.83,-191.64"/>
</a>
</g>
</g>
<!-- Node38 -->
<g id="Node000038" class="node">
<title>Node38</title>
<g id="a_Node000038"><a xlink:title=" ">
<polygon fill="#e0e0e0" stroke="#999999" points="252.5,-184 204.5,-184 204.5,-165 252.5,-165 252.5,-184"/>
<text text-anchor="middle" x="228.5" y="-172" font-family="Helvetica,sans-Serif" font-size="10.00">mutex</text>
</a>
</g>
</g>
<!-- Node37&#45;&gt;Node38 -->
<g id="edge53_Node000037_Node000038" class="edge">
<title>Node37&#45;&gt;Node38</title>
<g id="a_edge53_Node000037_Node000038"><a xlink:title=" ">
<path fill="none" stroke="#63b8ff" d="M461.59,-220C411.59,-212.22 336.67,-199.83 262.57,-184.09"/>
<polygon fill="#63b8ff" stroke="#63b8ff" points="263.11,-180.62 252.6,-181.95 261.64,-187.47 263.11,-180.62"/>
</a>
</g>
</g>
<!-- Node39 -->
<g id="Node000039" class="node">
<title>Node39</title>
<g id="a_Node000039"><a xlink:href="../../d2/d49/global_8h.html" target="_top" xlink:title="This file contains definitions for utility functions and text for modules, inputfiles and logging,...">
<polygon fill="white" stroke="#666666" points="392.5,-184 270.5,-184 270.5,-165 392.5,-165 392.5,-184"/>
<text text-anchor="middle" x="331.5" y="-172" font-family="Helvetica,sans-Serif" font-size="10.00">cantera/base/global.h</text>
</a>
</g>
</g>
<!-- Node37&#45;&gt;Node39 -->
<g id="edge56_Node000037_Node000039" class="edge">
<title>Node37&#45;&gt;Node39</title>
<g id="a_edge56_Node000037_Node000039"><a xlink:title=" ">
<path fill="none" stroke="#63b8ff" d="M488.46,-219.98C456.79,-211.01 406.73,-196.82 371.69,-186.89"/>
<polygon fill="#63b8ff" stroke="#63b8ff" points="372.36,-183.44 361.78,-184.08 370.45,-190.18 372.36,-183.44"/>
</a>
</g>
</g>
<!-- Node39&#45;&gt;Node4 -->
<g id="edge57_Node000039_Node000004" class="edge">
<title>Node39&#45;&gt;Node4</title>
<g id="a_edge57_Node000039_Node000004"><a xlink:title=" ">
<path fill="none" stroke="#63b8ff" d="M392.71,-165.91C459.67,-157.16 562.42,-142.26 599.5,-129 615.44,-123.3 616.97,-116.73 632.5,-110 666.97,-95.05 708.04,-83.01 737.83,-75.24"/>
<polygon fill="#63b8ff" stroke="#63b8ff" points="739.05,-78.55 747.87,-72.68 737.31,-71.76 739.05,-78.55"/>
</a>
</g>
</g>
<!-- Node39&#45;&gt;Node15 -->
<g id="edge58_Node000039_Node000015" class="edge">
<title>Node39&#45;&gt;Node15</title>
<g id="a_edge58_Node000039_Node000015"><a xlink:title=" ">
<path fill="none" stroke="#63b8ff" d="M331.5,-164.75C331.5,-157.8 331.5,-147.85 331.5,-139.13"/>
<polygon fill="#63b8ff" stroke="#63b8ff" points="335,-139.09 331.5,-129.09 328,-139.09 335,-139.09"/>
</a>
</g>
</g>
</g>
</svg>
