<?xml version="1.0" encoding="UTF-8" standalone="no"?>
<!DOCTYPE svg PUBLIC "-//W3C//DTD SVG 1.1//EN"
 "http://www.w3.org/Graphics/SVG/1.1/DTD/svg11.dtd">
<!-- Generated by graphviz version 6.0.1 (0)
 -->
<!-- Title: BlowersMaselRate.cpp Pages: 1 -->
<svg width="1201pt" height="500pt"
 viewBox="0.00 0.00 1200.50 500.00" xmlns="http://www.w3.org/2000/svg" xmlns:xlink="http://www.w3.org/1999/xlink">
<g id="graph0" class="graph" transform="scale(1 1) rotate(0) translate(4 496)">
<title>BlowersMaselRate.cpp</title>
<!-- Node1 -->
<g id="node1" class="node">
<title>Node1</title>
<g id="a_node1"><a xlink:title=" ">
<polygon fill="#999999" stroke="#666666" points="590,-492 472,-492 472,-473 590,-473 590,-492"/>
<text text-anchor="middle" x="531" y="-480" font-family="Helvetica,sans-Serif" font-size="10.00">BlowersMaselRate.cpp</text>
</a>
</g>
</g>
<!-- Node2 -->
<g id="node2" class="node">
<title>Node2</title>
<g id="a_node2"><a xlink:href="../../da/dab/BlowersMaselRate_8h.html" target="_top" xlink:title="Header for Blowers&#45;Masel reaction rates.">
<polygon fill="white" stroke="#666666" points="415,-437 291,-437 291,-407 415,-407 415,-437"/>
<text text-anchor="start" x="299" y="-425" font-family="Helvetica,sans-Serif" font-size="10.00">cantera/kinetics/Blowers</text>
<text text-anchor="middle" x="353" y="-414" font-family="Helvetica,sans-Serif" font-size="10.00">MaselRate.h</text>
</a>
</g>
</g>
<!-- Node1&#45;&gt;Node2 -->
<g id="edge1" class="edge">
<title>Node1&#45;&gt;Node2</title>
<path fill="none" stroke="#63b8ff" d="M505.12,-472.99C479.16,-464.46 438.46,-451.09 405.69,-440.32"/>
<polygon fill="#63b8ff" stroke="#63b8ff" points="406.39,-436.86 395.79,-437.06 404.2,-443.51 406.39,-436.86"/>
</g>
<!-- Node33 -->
<g id="node24" class="node">
<title>Node33</title>
<g id="a_node24"><a xlink:href="../../d8/d5d/Reaction_8h.html" target="_top" xlink:title=" ">
<polygon fill="white" stroke="#666666" points="532,-316 396,-316 396,-297 532,-297 532,-316"/>
<text text-anchor="middle" x="464" y="-304" font-family="Helvetica,sans-Serif" font-size="10.00">cantera/kinetics/Reaction.h</text>
</a>
</g>
</g>
<!-- Node1&#45;&gt;Node33 -->
<g id="edge36" class="edge">
<title>Node1&#45;&gt;Node33</title>
<path fill="none" stroke="#63b8ff" d="M527.59,-472.63C517.1,-445.4 485.22,-362.61 470.99,-325.65"/>
<polygon fill="#63b8ff" stroke="#63b8ff" points="474.19,-324.22 467.33,-316.14 467.66,-326.73 474.19,-324.22"/>
</g>
<!-- Node34 -->
<g id="node25" class="node">
<title>Node34</title>
<g id="a_node25"><a xlink:href="../../d5/db4/Kinetics_8h.html" target="_top" xlink:title="Base class for kinetics managers and also contains the kineticsmgr module documentation (see Kinetics...">
<polygon fill="white" stroke="#666666" points="993,-261 861,-261 861,-242 993,-242 993,-261"/>
<text text-anchor="middle" x="927" y="-249" font-family="Helvetica,sans-Serif" font-size="10.00">cantera/kinetics/Kinetics.h</text>
</a>
</g>
</g>
<!-- Node1&#45;&gt;Node34 -->
<g id="edge40" class="edge">
<title>Node1&#45;&gt;Node34</title>
<path fill="none" stroke="#63b8ff" d="M546.04,-472.8C606.07,-438.09 828.86,-309.25 902.9,-266.44"/>
<polygon fill="#63b8ff" stroke="#63b8ff" points="905.04,-269.24 911.94,-261.21 901.54,-263.18 905.04,-269.24"/>
</g>
<!-- Node40 -->
<g id="node31" class="node">
<title>Node40</title>
<g id="a_node31"><a xlink:href="../../d7/d01/ThermoPhase_8h.html" target="_top" xlink:title="Header file for class ThermoPhase, the base class for phases with thermodynamic properties,...">
<polygon fill="white" stroke="#666666" points="675,-371 521,-371 521,-352 675,-352 675,-371"/>
<text text-anchor="middle" x="598" y="-359" font-family="Helvetica,sans-Serif" font-size="10.00">cantera/thermo/ThermoPhase.h</text>
</a>
</g>
</g>
<!-- Node1&#45;&gt;Node40 -->
<g id="edge49" class="edge">
<title>Node1&#45;&gt;Node40</title>
<path fill="none" stroke="#63b8ff" d="M535.82,-472.94C546.73,-453.57 573.5,-406.02 588.1,-380.08"/>
<polygon fill="#63b8ff" stroke="#63b8ff" points="591.19,-381.73 593.04,-371.3 585.09,-378.3 591.19,-381.73"/>
</g>
<!-- Node3 -->
<g id="node3" class="node">
<title>Node3</title>
<g id="a_node3"><a xlink:href="../../d6/dd6/Arrhenius_8h.html" target="_top" xlink:title="Header for reaction rates that involve Arrhenius&#45;type kinetics.">
<polygon fill="white" stroke="#666666" points="332,-371 266,-371 266,-352 332,-352 332,-371"/>
<text text-anchor="middle" x="299" y="-359" font-family="Helvetica,sans-Serif" font-size="10.00">Arrhenius.h</text>
</a>
</g>
</g>
<!-- Node2&#45;&gt;Node3 -->
<g id="edge2" class="edge">
<title>Node2&#45;&gt;Node3</title>
<path fill="none" stroke="#63b8ff" d="M339.93,-406.84C332.09,-398.35 322.09,-387.52 313.94,-378.69"/>
<polygon fill="#63b8ff" stroke="#63b8ff" points="316.45,-376.24 307.09,-371.27 311.3,-380.99 316.45,-376.24"/>
</g>
<!-- Node4 -->
<g id="node4" class="node">
<title>Node4</title>
<g id="a_node4"><a xlink:href="../../d9/ddc/ct__defs_8h.html" target="_top" xlink:title="This file contains definitions of constants, types and terms that are used in internal routines and a...">
<polygon fill="white" stroke="#666666" points="555,-74 439,-74 439,-55 555,-55 555,-74"/>
<text text-anchor="middle" x="497" y="-62" font-family="Helvetica,sans-Serif" font-size="10.00">cantera/base/ct_defs.h</text>
</a>
</g>
</g>
<!-- Node3&#45;&gt;Node4 -->
<g id="edge3" class="edge">
<title>Node3&#45;&gt;Node4</title>
<path fill="none" stroke="#63b8ff" d="M265.86,-355.73C188.01,-343.61 0,-308.52 0,-252.5 0,-252.5 0,-252.5 0,-190 0,-137.47 39.16,-131.7 87,-110 146.34,-83.09 328.53,-71.95 428.9,-67.76"/>
<polygon fill="#63b8ff" stroke="#63b8ff" points="429.1,-71.25 438.95,-67.35 428.81,-64.26 429.1,-71.25"/>
</g>
<!-- Node15 -->
<g id="node15" class="node">
<title>Node15</title>
<g id="a_node15"><a xlink:href="../../da/d58/Units_8h.html" target="_top" xlink:title="Header for unit conversion utilities, which are used to translate user input from input files (See In...">
<polygon fill="white" stroke="#666666" points="509.5,-134.5 402.5,-134.5 402.5,-115.5 509.5,-115.5 509.5,-134.5"/>
<text text-anchor="middle" x="456" y="-122.5" font-family="Helvetica,sans-Serif" font-size="10.00">cantera/base/Units.h</text>
</a>
</g>
</g>
<!-- Node3&#45;&gt;Node15 -->
<g id="edge14" class="edge">
<title>Node3&#45;&gt;Node15</title>
<path fill="none" stroke="#63b8ff" d="M301.97,-351.72C309.06,-331.42 328.22,-280.09 353,-242 378.77,-202.39 417.6,-162.59 439.48,-141.46"/>
<polygon fill="#63b8ff" stroke="#63b8ff" points="441.9,-143.99 446.72,-134.56 437.07,-138.93 441.9,-143.99"/>
</g>
<!-- Node16 -->
<g id="node16" class="node">
<title>Node16</title>
<g id="a_node16"><a xlink:href="../../d6/d4a/ReactionData_8h.html" target="_top" xlink:title=" ">
<polygon fill="white" stroke="#666666" points="194,-206 66,-206 66,-176 194,-176 194,-206"/>
<text text-anchor="start" x="74" y="-194" font-family="Helvetica,sans-Serif" font-size="10.00">cantera/kinetics/Reaction</text>
<text text-anchor="middle" x="130" y="-183" font-family="Helvetica,sans-Serif" font-size="10.00">Data.h</text>
</a>
</g>
</g>
<!-- Node3&#45;&gt;Node16 -->
<g id="edge16" class="edge">
<title>Node3&#45;&gt;Node16</title>
<path fill="none" stroke="#63b8ff" d="M265.89,-352.21C224.88,-339.96 156.82,-312.7 127,-261 119.27,-247.59 120.1,-230.16 122.82,-216.17"/>
<polygon fill="#63b8ff" stroke="#63b8ff" points="126.26,-216.81 125.16,-206.27 119.45,-215.2 126.26,-216.81"/>
</g>
<!-- Node22 -->
<g id="node18" class="node">
<title>Node22</title>
<g id="a_node18"><a xlink:href="../../d8/db0/ReactionRate_8h.html" target="_top" xlink:title=" ">
<polygon fill="white" stroke="#666666" points="446.5,-261 361.5,-261 361.5,-242 446.5,-242 446.5,-261"/>
<text text-anchor="middle" x="404" y="-249" font-family="Helvetica,sans-Serif" font-size="10.00">ReactionRate.h</text>
</a>
</g>
</g>
<!-- Node3&#45;&gt;Node22 -->
<g id="edge20" class="edge">
<title>Node3&#45;&gt;Node22</title>
<path fill="none" stroke="#63b8ff" d="M308.05,-351.72C317.21,-342.81 331.71,-328.57 344,-316 359.48,-300.16 376.82,-281.73 388.86,-268.82"/>
<polygon fill="#63b8ff" stroke="#63b8ff" points="391.69,-270.92 395.94,-261.22 386.57,-266.15 391.69,-270.92"/>
</g>
<!-- Node30 -->
<g id="node22" class="node">
<title>Node30</title>
<g id="a_node22"><a xlink:href="../../d6/d42/MultiRate_8h.html" target="_top" xlink:title=" ">
<polygon fill="white" stroke="#666666" points="301.5,-316 234.5,-316 234.5,-297 301.5,-297 301.5,-316"/>
<text text-anchor="middle" x="268" y="-304" font-family="Helvetica,sans-Serif" font-size="10.00">MultiRate.h</text>
</a>
</g>
</g>
<!-- Node3&#45;&gt;Node30 -->
<g id="edge31" class="edge">
<title>Node3&#45;&gt;Node30</title>
<path fill="none" stroke="#63b8ff" d="M293.88,-351.75C289.64,-344.49 283.47,-333.95 278.22,-324.98"/>
<polygon fill="#63b8ff" stroke="#63b8ff" points="281.09,-322.95 273.02,-316.09 275.05,-326.49 281.09,-322.95"/>
</g>
<!-- Node5 -->
<g id="node5" class="node">
<title>Node5</title>
<g id="a_node5"><a xlink:href="../../db/d16/config_8h_source.html" target="_top" xlink:title=" ">
<polygon fill="white" stroke="#666666" points="948.5,-19 897.5,-19 897.5,0 948.5,0 948.5,-19"/>
<text text-anchor="middle" x="923" y="-7" font-family="Helvetica,sans-Serif" font-size="10.00">config.h</text>
</a>
</g>
</g>
<!-- Node4&#45;&gt;Node5 -->
<g id="edge4" class="edge">
<title>Node4&#45;&gt;Node5</title>
<path fill="none" stroke="#63b8ff" d="M555.34,-56.24C644.82,-45.11 813.32,-24.15 886.99,-14.98"/>
<polygon fill="#63b8ff" stroke="#63b8ff" points="887.66,-18.42 897.15,-13.72 886.79,-11.48 887.66,-18.42"/>
</g>
<!-- Node6 -->
<g id="node6" class="node">
<title>Node6</title>
<g id="a_node6"><a xlink:title=" ">
<polygon fill="#e0e0e0" stroke="#999999" points="589,-19 545,-19 545,0 589,0 589,-19"/>
<text text-anchor="middle" x="567" y="-7" font-family="Helvetica,sans-Serif" font-size="10.00">cmath</text>
</a>
</g>
</g>
<!-- Node4&#45;&gt;Node6 -->
<g id="edge5" class="edge">
<title>Node4&#45;&gt;Node6</title>
<path fill="none" stroke="#63b8ff" d="M508.25,-54.98C518.8,-47 534.8,-34.88 547.44,-25.31"/>
<polygon fill="#63b8ff" stroke="#63b8ff" points="549.69,-28 555.55,-19.17 545.46,-22.42 549.69,-28"/>
</g>
<!-- Node7 -->
<g id="node7" class="node">
<title>Node7</title>
<g id="a_node7"><a xlink:title=" ">
<polygon fill="#e0e0e0" stroke="#999999" points="652.5,-19 607.5,-19 607.5,0 652.5,0 652.5,-19"/>
<text text-anchor="middle" x="630" y="-7" font-family="Helvetica,sans-Serif" font-size="10.00">cstdlib</text>
</a>
</g>
</g>
<!-- Node4&#45;&gt;Node7 -->
<g id="edge6" class="edge">
<title>Node4&#45;&gt;Node7</title>
<path fill="none" stroke="#63b8ff" d="M518.37,-54.98C540.15,-46.3 574.16,-32.75 598.92,-22.88"/>
<polygon fill="#63b8ff" stroke="#63b8ff" points="600.25,-26.12 608.24,-19.17 597.66,-19.62 600.25,-26.12"/>
</g>
<!-- Node8 -->
<g id="node8" class="node">
<title>Node8</title>
<g id="a_node8"><a xlink:title=" ">
<polygon fill="#e0e0e0" stroke="#999999" points="715,-19 671,-19 671,0 715,0 715,-19"/>
<text text-anchor="middle" x="693" y="-7" font-family="Helvetica,sans-Serif" font-size="10.00">vector</text>
</a>
</g>
</g>
<!-- Node4&#45;&gt;Node8 -->
<g id="edge7" class="edge">
<title>Node4&#45;&gt;Node8</title>
<path fill="none" stroke="#63b8ff" d="M528.95,-54.93C560.25,-46.52 609.56,-33.24 661.3,-19.18"/>
<polygon fill="#63b8ff" stroke="#63b8ff" points="662.26,-22.55 670.99,-16.55 660.42,-15.79 662.26,-22.55"/>
</g>
<!-- Node9 -->
<g id="node9" class="node">
<title>Node9</title>
<g id="a_node9"><a xlink:title=" ">
<polygon fill="#e0e0e0" stroke="#999999" points="768.5,-19 733.5,-19 733.5,0 768.5,0 768.5,-19"/>
<text text-anchor="middle" x="751" y="-7" font-family="Helvetica,sans-Serif" font-size="10.00">map</text>
</a>
</g>
</g>
<!-- Node4&#45;&gt;Node9 -->
<g id="edge8" class="edge">
<title>Node4&#45;&gt;Node9</title>
<path fill="none" stroke="#63b8ff" d="M549.21,-54.97C593.2,-47.4 657.95,-35.36 723.3,-18.93"/>
<polygon fill="#63b8ff" stroke="#63b8ff" points="724.54,-22.22 733.36,-16.36 722.81,-15.44 724.54,-22.22"/>
</g>
<!-- Node10 -->
<g id="node10" class="node">
<title>Node10</title>
<g id="a_node10"><a xlink:title=" ">
<polygon fill="#e0e0e0" stroke="#999999" points="245,-19 215,-19 215,0 245,0 245,-19"/>
<text text-anchor="middle" x="230" y="-7" font-family="Helvetica,sans-Serif" font-size="10.00">set</text>
</a>
</g>
</g>
<!-- Node4&#45;&gt;Node10 -->
<g id="edge9" class="edge">
<title>Node4&#45;&gt;Node10</title>
<path fill="none" stroke="#63b8ff" d="M438.78,-55.24C389.44,-47.65 317.01,-35.15 255,-19 254.9,-18.97 254.8,-18.95 254.7,-18.92"/>
<polygon fill="#63b8ff" stroke="#63b8ff" points="255.81,-15.6 245.23,-16.07 253.8,-22.3 255.81,-15.6"/>
</g>
<!-- Node11 -->
<g id="node11" class="node">
<title>Node11</title>
<g id="a_node11"><a xlink:title=" ">
<polygon fill="#e0e0e0" stroke="#999999" points="304.5,-19 263.5,-19 263.5,0 304.5,0 304.5,-19"/>
<text text-anchor="middle" x="284" y="-7" font-family="Helvetica,sans-Serif" font-size="10.00">string</text>
</a>
</g>
</g>
<!-- Node4&#45;&gt;Node11 -->
<g id="edge10" class="edge">
<title>Node4&#45;&gt;Node11</title>
<path fill="none" stroke="#63b8ff" d="M460.09,-54.96C425.09,-46.75 370.78,-33.79 314.43,-19.03"/>
<polygon fill="#63b8ff" stroke="#63b8ff" points="315.19,-15.61 304.63,-16.45 313.41,-22.38 315.19,-15.61"/>
</g>
<!-- Node12 -->
<g id="node12" class="node">
<title>Node12</title>
<g id="a_node12"><a xlink:title=" ">
<polygon fill="#e0e0e0" stroke="#999999" points="379,-19 323,-19 323,0 379,0 379,-19"/>
<text text-anchor="middle" x="351" y="-7" font-family="Helvetica,sans-Serif" font-size="10.00">algorithm</text>
</a>
</g>
</g>
<!-- Node4&#45;&gt;Node12 -->
<g id="edge11" class="edge">
<title>Node4&#45;&gt;Node12</title>
<path fill="none" stroke="#63b8ff" d="M473.54,-54.98C449.42,-46.23 411.63,-32.51 384.4,-22.62"/>
<polygon fill="#63b8ff" stroke="#63b8ff" points="385.48,-19.29 374.88,-19.17 383.09,-25.87 385.48,-19.29"/>
</g>
<!-- Node13 -->
<g id="node13" class="node">
<title>Node13</title>
<g id="a_node13"><a xlink:title=" ">
<polygon fill="#e0e0e0" stroke="#999999" points="449,-19 397,-19 397,0 449,0 449,-19"/>
<text text-anchor="middle" x="423" y="-7" font-family="Helvetica,sans-Serif" font-size="10.00">memory</text>
</a>
</g>
</g>
<!-- Node4&#45;&gt;Node13 -->
<g id="edge12" class="edge">
<title>Node4&#45;&gt;Node13</title>
<path fill="none" stroke="#63b8ff" d="M485.11,-54.98C473.85,-46.92 456.71,-34.65 443.29,-25.03"/>
<polygon fill="#63b8ff" stroke="#63b8ff" points="445.27,-22.15 435.11,-19.17 441.2,-27.84 445.27,-22.15"/>
</g>
<!-- Node14 -->
<g id="node14" class="node">
<title>Node14</title>
<g id="a_node14"><a xlink:title=" ">
<polygon fill="#e0e0e0" stroke="#999999" points="526.5,-19 467.5,-19 467.5,0 526.5,0 526.5,-19"/>
<text text-anchor="middle" x="497" y="-7" font-family="Helvetica,sans-Serif" font-size="10.00">functional</text>
</a>
</g>
</g>
<!-- Node4&#45;&gt;Node14 -->
<g id="edge13" class="edge">
<title>Node4&#45;&gt;Node14</title>
<path fill="none" stroke="#63b8ff" d="M497,-54.75C497,-47.8 497,-37.85 497,-29.13"/>
<polygon fill="#63b8ff" stroke="#63b8ff" points="500.5,-29.09 497,-19.09 493.5,-29.09 500.5,-29.09"/>
</g>
<!-- Node15&#45;&gt;Node4 -->
<g id="edge15" class="edge">
<title>Node15&#45;&gt;Node4</title>
<path fill="none" stroke="#63b8ff" d="M462.05,-115.37C468.11,-106.73 477.59,-93.2 485.14,-82.42"/>
<polygon fill="#63b8ff" stroke="#63b8ff" points="488.05,-84.37 490.93,-74.17 482.32,-80.35 488.05,-84.37"/>
</g>
<!-- Node16&#45;&gt;Node4 -->
<g id="edge17" class="edge">
<title>Node16&#45;&gt;Node4</title>
<path fill="none" stroke="#63b8ff" d="M145.91,-175.94C167.47,-157.71 207.88,-126.32 248,-110 306.44,-86.23 377.71,-75.12 429.01,-69.95"/>
<polygon fill="#63b8ff" stroke="#63b8ff" points="429.37,-73.44 438.99,-69 428.7,-66.47 429.37,-73.44"/>
</g>
<!-- Node17 -->
<g id="node17" class="node">
<title>Node17</title>
<g id="a_node17"><a xlink:href="../../db/d98/ctexceptions_8h.html" target="_top" xlink:title="Definitions for the classes that are thrown when Cantera experiences an error condition (also contain...">
<polygon fill="#fff0f0" stroke="red" points="706,-134.5 566,-134.5 566,-115.5 706,-115.5 706,-134.5"/>
<text text-anchor="middle" x="636" y="-122.5" font-family="Helvetica,sans-Serif" font-size="10.00">cantera/base/ctexceptions.h</text>
</a>
</g>
</g>
<!-- Node16&#45;&gt;Node17 -->
<g id="edge18" class="edge">
<title>Node16&#45;&gt;Node17</title>
<path fill="none" stroke="#63b8ff" d="M194.13,-177.57C197.46,-177.02 200.77,-176.49 204,-176 343.32,-154.89 379.04,-156.37 519,-140 530.83,-138.62 543.32,-137.14 555.57,-135.68"/>
<polygon fill="#63b8ff" stroke="#63b8ff" points="556.27,-139.12 565.79,-134.46 555.44,-132.17 556.27,-139.12"/>
</g>
<!-- Node17&#45;&gt;Node4 -->
<g id="edge19" class="edge">
<title>Node17&#45;&gt;Node4</title>
<path fill="none" stroke="#63b8ff" d="M615.79,-115.49C592.32,-105.62 553.39,-89.23 526.54,-77.93"/>
<polygon fill="#63b8ff" stroke="#63b8ff" points="527.81,-74.67 517.24,-74.02 525.1,-81.12 527.81,-74.67"/>
</g>
<!-- Node22&#45;&gt;Node15 -->
<g id="edge27" class="edge">
<title>Node22&#45;&gt;Node15</title>
<path fill="none" stroke="#63b8ff" d="M406.64,-241.63C410.95,-227.5 420.01,-199.14 430,-176 434.78,-164.93 440.98,-152.94 446.13,-143.47"/>
<polygon fill="#63b8ff" stroke="#63b8ff" points="449.22,-145.11 451.01,-134.67 443.1,-141.72 449.22,-145.11"/>
</g>
<!-- Node22&#45;&gt;Node17 -->
<g id="edge30" class="edge">
<title>Node22&#45;&gt;Node17</title>
<path fill="none" stroke="#63b8ff" d="M419.31,-241.87C444.26,-227.84 495.31,-199.31 539,-176 562.99,-163.2 590.57,-149.04 610.17,-139.06"/>
<polygon fill="#63b8ff" stroke="#63b8ff" points="611.77,-142.18 619.1,-134.53 608.6,-135.93 611.77,-142.18"/>
</g>
<!-- Node23 -->
<g id="node19" class="node">
<title>Node23</title>
<g id="a_node19"><a xlink:href="../../dd/d16/MultiRateBase_8h.html" target="_top" xlink:title=" ">
<polygon fill="white" stroke="#666666" points="301.5,-200.5 212.5,-200.5 212.5,-181.5 301.5,-181.5 301.5,-200.5"/>
<text text-anchor="middle" x="257" y="-188.5" font-family="Helvetica,sans-Serif" font-size="10.00">MultiRateBase.h</text>
</a>
</g>
</g>
<!-- Node22&#45;&gt;Node23 -->
<g id="edge21" class="edge">
<title>Node22&#45;&gt;Node23</title>
<path fill="none" stroke="#63b8ff" d="M382.62,-241.99C357.69,-232.07 316.28,-215.59 287.86,-204.28"/>
<polygon fill="#63b8ff" stroke="#63b8ff" points="288.99,-200.96 278.4,-200.52 286.4,-207.47 288.99,-200.96"/>
</g>
<!-- Node24 -->
<g id="node20" class="node">
<title>Node24</title>
<g id="a_node20"><a xlink:href="../../dd/d2a/AnyMap_8h.html" target="_top" xlink:title=" ">
<polygon fill="#fff0f0" stroke="red" points="668,-200.5 548,-200.5 548,-181.5 668,-181.5 668,-200.5"/>
<text text-anchor="middle" x="608" y="-188.5" font-family="Helvetica,sans-Serif" font-size="10.00">cantera/base/AnyMap.h</text>
</a>
</g>
</g>
<!-- Node22&#45;&gt;Node24 -->
<g id="edge23" class="edge">
<title>Node22&#45;&gt;Node24</title>
<path fill="none" stroke="#63b8ff" d="M433.66,-241.99C469.24,-231.79 529.02,-214.65 568.48,-203.33"/>
<polygon fill="#63b8ff" stroke="#63b8ff" points="569.65,-206.64 578.3,-200.52 567.72,-199.91 569.65,-206.64"/>
</g>
<!-- Node29 -->
<g id="node21" class="node">
<title>Node29</title>
<g id="a_node21"><a xlink:href="../../d2/d49/global_8h.html" target="_top" xlink:title="This file contains definitions for utility functions and text for modules, inputfiles,...">
<polygon fill="#fff0f0" stroke="red" points="384,-134.5 274,-134.5 274,-115.5 384,-115.5 384,-134.5"/>
<text text-anchor="middle" x="329" y="-122.5" font-family="Helvetica,sans-Serif" font-size="10.00">cantera/base/global.h</text>
</a>
</g>
</g>
<!-- Node22&#45;&gt;Node29 -->
<g id="edge28" class="edge">
<title>Node22&#45;&gt;Node29</title>
<path fill="none" stroke="#63b8ff" d="M398.84,-241.94C386.64,-221.69 355.79,-170.47 339.48,-143.4"/>
<polygon fill="#63b8ff" stroke="#63b8ff" points="342.35,-141.38 334.19,-134.62 336.35,-144.99 342.35,-141.38"/>
</g>
<!-- Node23&#45;&gt;Node4 -->
<g id="edge22" class="edge">
<title>Node23&#45;&gt;Node4</title>
<path fill="none" stroke="#63b8ff" d="M254.86,-181.21C251.46,-164.89 246.92,-129.78 265,-110 286.61,-86.35 368.23,-75 428.58,-69.74"/>
<polygon fill="#63b8ff" stroke="#63b8ff" points="429.15,-73.2 438.83,-68.88 428.57,-66.22 429.15,-73.2"/>
</g>
<!-- Node24&#45;&gt;Node4 -->
<g id="edge24" class="edge">
<title>Node24&#45;&gt;Node4</title>
<path fill="none" stroke="#63b8ff" d="M598.65,-181.46C588.17,-171.74 570.83,-155.25 557,-140 539.65,-120.87 521.24,-97.5 509.46,-82.09"/>
<polygon fill="#63b8ff" stroke="#63b8ff" points="512.18,-79.88 503.35,-74.03 506.61,-84.11 512.18,-79.88"/>
</g>
<!-- Node24&#45;&gt;Node15 -->
<g id="edge26" class="edge">
<title>Node24&#45;&gt;Node15</title>
<path fill="none" stroke="#63b8ff" d="M587.5,-181.37C561.44,-170.39 516.22,-151.36 486.21,-138.72"/>
<polygon fill="#63b8ff" stroke="#63b8ff" points="487.23,-135.35 476.66,-134.7 484.52,-141.81 487.23,-135.35"/>
</g>
<!-- Node24&#45;&gt;Node17 -->
<g id="edge25" class="edge">
<title>Node24&#45;&gt;Node17</title>
<path fill="none" stroke="#63b8ff" d="M611.78,-181.37C615.93,-171.88 622.72,-156.36 628.05,-144.16"/>
<polygon fill="#63b8ff" stroke="#63b8ff" points="631.3,-145.47 632.1,-134.91 624.89,-142.66 631.3,-145.47"/>
</g>
<!-- Node29&#45;&gt;Node4 -->
<g id="edge29" class="edge">
<title>Node29&#45;&gt;Node4</title>
<path fill="none" stroke="#63b8ff" d="M353.43,-115.49C382.29,-105.44 430.5,-88.66 463,-77.34"/>
<polygon fill="#63b8ff" stroke="#63b8ff" points="464.25,-80.61 472.54,-74.02 461.95,-74 464.25,-80.61"/>
</g>
<!-- Node30&#45;&gt;Node22 -->
<g id="edge32" class="edge">
<title>Node30&#45;&gt;Node22</title>
<path fill="none" stroke="#63b8ff" d="M289.85,-296.98C312.12,-288.3 346.9,-274.75 372.22,-264.88"/>
<polygon fill="#63b8ff" stroke="#63b8ff" points="373.71,-268.06 381.75,-261.17 371.16,-261.54 373.71,-268.06"/>
</g>
<!-- Node30&#45;&gt;Node23 -->
<g id="edge33" class="edge">
<title>Node30&#45;&gt;Node23</title>
<path fill="none" stroke="#63b8ff" d="M267.17,-296.97C265.41,-278.73 261.22,-235.57 258.81,-210.64"/>
<polygon fill="#63b8ff" stroke="#63b8ff" points="262.28,-210.25 257.84,-200.63 255.32,-210.92 262.28,-210.25"/>
</g>
<!-- Node31 -->
<g id="node23" class="node">
<title>Node31</title>
<g id="a_node23"><a xlink:href="../../de/df0/utilities_8h.html" target="_top" xlink:title="Various templated functions that carry out common vector operations (see Templated Utility Functions)...">
<polygon fill="#fff0f0" stroke="red" points="251.5,-261 136.5,-261 136.5,-242 251.5,-242 251.5,-261"/>
<text text-anchor="middle" x="194" y="-249" font-family="Helvetica,sans-Serif" font-size="10.00">cantera/base/utilities.h</text>
</a>
</g>
</g>
<!-- Node30&#45;&gt;Node31 -->
<g id="edge34" class="edge">
<title>Node30&#45;&gt;Node31</title>
<path fill="none" stroke="#63b8ff" d="M256.11,-296.98C244.85,-288.92 227.71,-276.65 214.29,-267.03"/>
<polygon fill="#63b8ff" stroke="#63b8ff" points="216.27,-264.15 206.11,-261.17 212.2,-269.84 216.27,-264.15"/>
</g>
<!-- Node31&#45;&gt;Node4 -->
<g id="edge35" class="edge">
<title>Node31&#45;&gt;Node4</title>
<path fill="none" stroke="#63b8ff" d="M138.35,-241.91C91.24,-231.99 34.65,-212.16 57,-176 91.48,-120.2 126.41,-129.61 189,-110 268.97,-84.95 365.11,-73.92 428.46,-69.11"/>
<polygon fill="#63b8ff" stroke="#63b8ff" points="429.01,-72.58 438.73,-68.37 428.5,-65.6 429.01,-72.58"/>
</g>
<!-- Node33&#45;&gt;Node15 -->
<g id="edge38" class="edge">
<title>Node33&#45;&gt;Node15</title>
<path fill="none" stroke="#63b8ff" d="M463.61,-296.84C462.39,-269.3 458.55,-183.26 456.84,-144.84"/>
<polygon fill="#63b8ff" stroke="#63b8ff" points="460.32,-144.41 456.38,-134.57 453.33,-144.72 460.32,-144.41"/>
</g>
<!-- Node33&#45;&gt;Node22 -->
<g id="edge39" class="edge">
<title>Node33&#45;&gt;Node22</title>
<path fill="none" stroke="#63b8ff" d="M454.36,-296.98C445.49,-289.15 432.13,-277.34 421.39,-267.86"/>
<polygon fill="#63b8ff" stroke="#63b8ff" points="423.63,-265.17 413.82,-261.17 418.99,-270.41 423.63,-265.17"/>
</g>
<!-- Node33&#45;&gt;Node24 -->
<g id="edge37" class="edge">
<title>Node33&#45;&gt;Node24</title>
<path fill="none" stroke="#63b8ff" d="M474.82,-296.97C499.11,-277.82 558.22,-231.23 588.87,-207.08"/>
<polygon fill="#63b8ff" stroke="#63b8ff" points="591.36,-209.57 597.05,-200.63 587.03,-204.07 591.36,-209.57"/>
</g>
<!-- Node35 -->
<g id="node26" class="node">
<title>Node35</title>
<g id="a_node26"><a xlink:href="../../dd/dfd/StoichManager_8h.html" target="_top" xlink:title=" ">
<polygon fill="white" stroke="#666666" points="1044.5,-200.5 955.5,-200.5 955.5,-181.5 1044.5,-181.5 1044.5,-200.5"/>
<text text-anchor="middle" x="1000" y="-188.5" font-family="Helvetica,sans-Serif" font-size="10.00">StoichManager.h</text>
</a>
</g>
</g>
<!-- Node34&#45;&gt;Node35 -->
<g id="edge41" class="edge">
<title>Node34&#45;&gt;Node35</title>
<path fill="none" stroke="#63b8ff" d="M937.77,-241.87C949.2,-232.71 967.48,-218.06 981.28,-207.01"/>
<polygon fill="#63b8ff" stroke="#63b8ff" points="983.57,-209.65 989.18,-200.67 979.19,-204.19 983.57,-209.65"/>
</g>
<!-- Node38 -->
<g id="node29" class="node">
<title>Node38</title>
<g id="a_node29"><a xlink:href="../../d6/df6/ValueCache_8h.html" target="_top" xlink:title=" ">
<polygon fill="white" stroke="#666666" points="1051.5,-134.5 914.5,-134.5 914.5,-115.5 1051.5,-115.5 1051.5,-134.5"/>
<text text-anchor="middle" x="983" y="-122.5" font-family="Helvetica,sans-Serif" font-size="10.00">cantera/base/ValueCache.h</text>
</a>
</g>
</g>
<!-- Node34&#45;&gt;Node38 -->
<g id="edge46" class="edge">
<title>Node34&#45;&gt;Node38</title>
<path fill="none" stroke="#63b8ff" d="M928.27,-241.88C930.6,-227.63 936.32,-198.5 947,-176 952.7,-163.99 961.35,-151.86 968.74,-142.55"/>
<polygon fill="#63b8ff" stroke="#63b8ff" points="971.65,-144.53 975.31,-134.59 966.25,-140.08 971.65,-144.53"/>
</g>
<!-- Node35&#45;&gt;Node17 -->
<g id="edge45" class="edge">
<title>Node35&#45;&gt;Node17</title>
<path fill="none" stroke="#63b8ff" d="M955.37,-182.15C889.73,-170.61 767.11,-149.05 694.4,-136.27"/>
<polygon fill="#63b8ff" stroke="#63b8ff" points="694.93,-132.81 684.48,-134.52 693.72,-139.7 694.93,-132.81"/>
</g>
<!-- Node36 -->
<g id="node27" class="node">
<title>Node36</title>
<g id="a_node27"><a xlink:href="../../d9/d42/eigen__sparse_8h_source.html" target="_top" xlink:title=" ">
<polygon fill="white" stroke="#666666" points="1188,-140 1070,-140 1070,-110 1188,-110 1188,-140"/>
<text text-anchor="start" x="1078" y="-128" font-family="Helvetica,sans-Serif" font-size="10.00">cantera/numerics/eigen</text>
<text text-anchor="middle" x="1129" y="-117" font-family="Helvetica,sans-Serif" font-size="10.00">_sparse.h</text>
</a>
</g>
</g>
<!-- Node35&#45;&gt;Node36 -->
<g id="edge42" class="edge">
<title>Node35&#45;&gt;Node36</title>
<path fill="none" stroke="#63b8ff" d="M1017.4,-181.37C1036.3,-171.99 1067.08,-156.72 1091.53,-144.59"/>
<polygon fill="#63b8ff" stroke="#63b8ff" points="1093.15,-147.7 1100.55,-140.12 1090.03,-141.42 1093.15,-147.7"/>
</g>
<!-- Node36&#45;&gt;Node5 -->
<g id="edge43" class="edge">
<title>Node36&#45;&gt;Node5</title>
<path fill="none" stroke="#63b8ff" d="M1105.96,-109.77C1082.56,-95.48 1045.14,-73.03 1012,-55 991.51,-43.86 967.88,-32.09 950.12,-23.46"/>
<polygon fill="#63b8ff" stroke="#63b8ff" points="951.44,-20.21 940.92,-19.01 948.4,-26.51 951.44,-20.21"/>
</g>
<!-- Node37 -->
<g id="node28" class="node">
<title>Node37</title>
<g id="a_node28"><a xlink:title=" ">
<polygon fill="#e0e0e0" stroke="#999999" points="1192.5,-74 1065.5,-74 1065.5,-55 1192.5,-55 1192.5,-74"/>
<text text-anchor="middle" x="1129" y="-62" font-family="Helvetica,sans-Serif" font-size="10.00">cantera/ext/Eigen/Sparse</text>
</a>
</g>
</g>
<!-- Node36&#45;&gt;Node37 -->
<g id="edge44" class="edge">
<title>Node36&#45;&gt;Node37</title>
<path fill="none" stroke="#63b8ff" d="M1129,-109.84C1129,-102.21 1129,-92.7 1129,-84.45"/>
<polygon fill="#63b8ff" stroke="#63b8ff" points="1132.5,-84.27 1129,-74.27 1125.5,-84.27 1132.5,-84.27"/>
</g>
<!-- Node38&#45;&gt;Node4 -->
<g id="edge47" class="edge">
<title>Node38&#45;&gt;Node4</title>
<path fill="none" stroke="#63b8ff" d="M938.54,-115.47C927.6,-113.53 915.89,-111.57 905,-110 785.97,-92.85 646.54,-78.97 565.36,-71.5"/>
<polygon fill="#63b8ff" stroke="#63b8ff" points="565.54,-68.01 555.26,-70.58 564.9,-74.98 565.54,-68.01"/>
</g>
<!-- Node39 -->
<g id="node30" class="node">
<title>Node39</title>
<g id="a_node30"><a xlink:title=" ">
<polygon fill="#e0e0e0" stroke="#999999" points="1003,-74 963,-74 963,-55 1003,-55 1003,-74"/>
<text text-anchor="middle" x="983" y="-62" font-family="Helvetica,sans-Serif" font-size="10.00">limits</text>
</a>
</g>
</g>
<!-- Node38&#45;&gt;Node39 -->
<g id="edge48" class="edge">
<title>Node38&#45;&gt;Node39</title>
<path fill="none" stroke="#63b8ff" d="M983,-115.37C983,-107.25 983,-94.81 983,-84.39"/>
<polygon fill="#63b8ff" stroke="#63b8ff" points="986.5,-84.17 983,-74.17 979.5,-84.17 986.5,-84.17"/>
</g>
<!-- Node40&#45;&gt;Node15 -->
<g id="edge60" class="edge">
<title>Node40&#45;&gt;Node15</title>
<path fill="none" stroke="#63b8ff" d="M592.78,-351.88C572.04,-317.62 495.23,-190.78 466.73,-143.72"/>
<polygon fill="#63b8ff" stroke="#63b8ff" points="469.6,-141.69 461.42,-134.95 463.61,-145.32 469.6,-141.69"/>
</g>
<!-- Node40&#45;&gt;Node24 -->
<g id="edge61" class="edge">
<title>Node40&#45;&gt;Node24</title>
<path fill="none" stroke="#63b8ff" d="M598.51,-351.91C600.05,-325.89 604.71,-247.47 606.87,-211.01"/>
<polygon fill="#63b8ff" stroke="#63b8ff" points="610.38,-210.96 607.48,-200.77 603.39,-210.55 610.38,-210.96"/>
</g>
<!-- Node41 -->
<g id="node32" class="node">
<title>Node41</title>
<g id="a_node32"><a xlink:href="../../da/d84/Phase_8h.html" target="_top" xlink:title="Header file for class Phase.">
<polygon fill="white" stroke="#666666" points="846.5,-200.5 793.5,-200.5 793.5,-181.5 846.5,-181.5 846.5,-200.5"/>
<text text-anchor="middle" x="820" y="-188.5" font-family="Helvetica,sans-Serif" font-size="10.00">Phase.h</text>
</a>
</g>
</g>
<!-- Node40&#45;&gt;Node41 -->
<g id="edge50" class="edge">
<title>Node40&#45;&gt;Node41</title>
<path fill="none" stroke="#63b8ff" d="M674.27,-351.97C702.36,-345.7 732.93,-334.83 756,-316 789.98,-288.27 807.91,-237.74 815.49,-210.53"/>
<polygon fill="#63b8ff" stroke="#63b8ff" points="818.91,-211.29 818.05,-200.73 812.14,-209.52 818.91,-211.29"/>
</g>
<!-- Node43 -->
<g id="node34" class="node">
<title>Node43</title>
<g id="a_node34"><a xlink:href="../../d6/d7a/MultiSpeciesThermo_8h.html" target="_top" xlink:title="Header for a general species thermodynamic property manager for a phase (see MultiSpeciesThermo).">
<polygon fill="white" stroke="#666666" points="747,-316 633,-316 633,-297 747,-297 747,-316"/>
<text text-anchor="middle" x="690" y="-304" font-family="Helvetica,sans-Serif" font-size="10.00">MultiSpeciesThermo.h</text>
</a>
</g>
</g>
<!-- Node40&#45;&gt;Node43 -->
<g id="edge55" class="edge">
<title>Node40&#45;&gt;Node43</title>
<path fill="none" stroke="#63b8ff" d="M612.78,-351.98C627.18,-343.69 649.31,-330.94 666.19,-321.22"/>
<polygon fill="#63b8ff" stroke="#63b8ff" points="668.03,-324.19 674.95,-316.17 664.54,-318.13 668.03,-324.19"/>
</g>
<!-- Node41&#45;&gt;Node17 -->
<g id="edge51" class="edge">
<title>Node41&#45;&gt;Node17</title>
<path fill="none" stroke="#63b8ff" d="M795.18,-181.37C763,-170.17 706.68,-150.58 670.38,-137.96"/>
<polygon fill="#63b8ff" stroke="#63b8ff" points="671.31,-134.58 660.72,-134.6 669.01,-141.19 671.31,-134.58"/>
</g>
<!-- Node41&#45;&gt;Node38 -->
<g id="edge54" class="edge">
<title>Node41&#45;&gt;Node38</title>
<path fill="none" stroke="#63b8ff" d="M841.98,-181.37C870.25,-170.27 919.54,-150.92 951.71,-138.28"/>
<polygon fill="#63b8ff" stroke="#63b8ff" points="953.08,-141.51 961.11,-134.6 950.52,-134.99 953.08,-141.51"/>
</g>
<!-- Node42 -->
<g id="node33" class="node">
<title>Node42</title>
<g id="a_node33"><a xlink:href="../../d9/dda/Elements_8h.html" target="_top" xlink:title="Contains the getElementWeight function and the definitions of element constraint types.">
<polygon fill="white" stroke="#666666" points="896,-134.5 762,-134.5 762,-115.5 896,-115.5 896,-134.5"/>
<text text-anchor="middle" x="829" y="-122.5" font-family="Helvetica,sans-Serif" font-size="10.00">cantera/thermo/Elements.h</text>
</a>
</g>
</g>
<!-- Node41&#45;&gt;Node42 -->
<g id="edge52" class="edge">
<title>Node41&#45;&gt;Node42</title>
<path fill="none" stroke="#63b8ff" d="M821.21,-181.37C822.52,-172.07 824.64,-156.98 826.34,-144.9"/>
<polygon fill="#63b8ff" stroke="#63b8ff" points="829.82,-145.3 827.75,-134.91 822.89,-144.32 829.82,-145.3"/>
</g>
<!-- Node42&#45;&gt;Node4 -->
<g id="edge53" class="edge">
<title>Node42&#45;&gt;Node4</title>
<path fill="none" stroke="#63b8ff" d="M780.72,-115.49C720.98,-104.97 619.31,-87.05 555.28,-75.77"/>
<polygon fill="#63b8ff" stroke="#63b8ff" points="555.79,-72.31 545.33,-74.02 554.57,-79.2 555.79,-72.31"/>
</g>
<!-- Node44 -->
<g id="node35" class="node">
<title>Node44</title>
<g id="a_node35"><a xlink:href="../../d4/d87/SpeciesThermoInterpType_8h.html" target="_top" xlink:title="Pure Virtual Base class for individual species reference state thermodynamic managers and text for th...">
<polygon fill="white" stroke="#666666" points="765.5,-261 626.5,-261 626.5,-242 765.5,-242 765.5,-261"/>
<text text-anchor="middle" x="696" y="-249" font-family="Helvetica,sans-Serif" font-size="10.00">SpeciesThermoInterpType.h</text>
</a>
</g>
</g>
<!-- Node43&#45;&gt;Node44 -->
<g id="edge56" class="edge">
<title>Node43&#45;&gt;Node44</title>
<path fill="none" stroke="#63b8ff" d="M690.99,-296.75C691.78,-289.8 692.9,-279.85 693.89,-271.13"/>
<polygon fill="#63b8ff" stroke="#63b8ff" points="697.38,-271.42 695.03,-261.09 690.42,-270.63 697.38,-271.42"/>
</g>
<!-- Node44&#45;&gt;Node4 -->
<g id="edge57" class="edge">
<title>Node44&#45;&gt;Node4</title>
<path fill="none" stroke="#63b8ff" d="M701.17,-241.72C714.6,-217.62 747.38,-149.66 715,-110 696.27,-87.07 621.81,-75.64 565.07,-70.17"/>
<polygon fill="#63b8ff" stroke="#63b8ff" points="565.33,-66.68 555.06,-69.24 564.69,-73.65 565.33,-66.68"/>
</g>
<!-- Node44&#45;&gt;Node17 -->
<g id="edge58" class="edge">
<title>Node44&#45;&gt;Node17</title>
<path fill="none" stroke="#63b8ff" d="M695.03,-241.8C693.16,-227.44 688.21,-198.15 677,-176 670.65,-163.45 660.7,-151.21 652.18,-141.98"/>
<polygon fill="#63b8ff" stroke="#63b8ff" points="654.66,-139.5 645.2,-134.71 649.61,-144.35 654.66,-139.5"/>
</g>
<!-- Node44&#45;&gt;Node24 -->
<g id="edge59" class="edge">
<title>Node44&#45;&gt;Node24</title>
<path fill="none" stroke="#63b8ff" d="M683.02,-241.87C668.98,-232.54 646.37,-217.51 629.64,-206.38"/>
<polygon fill="#63b8ff" stroke="#63b8ff" points="631.3,-203.29 621.04,-200.67 627.43,-209.12 631.3,-203.29"/>
</g>
</g>
</svg>
