<?xml version="1.0" encoding="UTF-8" standalone="no"?>
<!DOCTYPE svg PUBLIC "-//W3C//DTD SVG 1.1//EN"
 "http://www.w3.org/Graphics/SVG/1.1/DTD/svg11.dtd">
<!-- Generated by graphviz version 2.50.0 (0)
 -->
<!-- Title: FactoryBase.h Pages: 1 -->
<svg width="4470pt" height="140pt"
 viewBox="0.00 0.00 4469.50 140.00" xmlns="http://www.w3.org/2000/svg" xmlns:xlink="http://www.w3.org/1999/xlink">
<g id="graph0" class="graph" transform="scale(1 1) rotate(0) translate(4 136)">
<title>FactoryBase.h</title>
<polygon fill="white" stroke="transparent" points="-4,4 -4,-136 4465.5,-136 4465.5,4 -4,4"/>
<!-- Node1 -->
<g id="node1" class="node">
<title>Node1</title>
<g id="a_node1"><a xlink:title="File contains the FactoryBase class declarations.">
<polygon fill="#bfbfbf" stroke="black" points="807,-112.5 807,-131.5 887,-131.5 887,-112.5 807,-112.5"/>
<text text-anchor="middle" x="847" y="-119.5" font-family="Helvetica,sans-Serif" font-size="10.00">FactoryBase.h</text>
</a>
</g>
</g>
<!-- Node2 -->
<g id="node2" class="node">
<title>Node2</title>
<g id="a_node2"><a xlink:href="../../d1/dbb/FalloffFactory_8h.html" target="_top" xlink:title="Parameterizations for reaction falloff functions.">
<polygon fill="white" stroke="black" points="107.5,-56.5 107.5,-75.5 190.5,-75.5 190.5,-56.5 107.5,-56.5"/>
<text text-anchor="middle" x="149" y="-63.5" font-family="Helvetica,sans-Serif" font-size="10.00">FalloffFactory.h</text>
</a>
</g>
</g>
<!-- Node1&#45;&gt;Node2 -->
<g id="edge1" class="edge">
<title>Node1&#45;&gt;Node2</title>
<path fill="none" stroke="midnightblue" d="M796.67,-119.3C687.6,-115.23 421.41,-103.16 200,-76 196.97,-75.63 193.84,-75.2 190.69,-74.73"/>
<polygon fill="midnightblue" stroke="midnightblue" points="796.61,-122.8 806.73,-119.67 796.87,-115.81 796.61,-122.8"/>
</g>
<!-- Node5 -->
<g id="node5" class="node">
<title>Node5</title>
<g id="a_node5"><a xlink:href="../../d5/d6c/FlowDeviceFactory_8h.html" target="_top" xlink:title=" ">
<polygon fill="white" stroke="black" points="569,-56.5 569,-75.5 677,-75.5 677,-56.5 569,-56.5"/>
<text text-anchor="middle" x="623" y="-63.5" font-family="Helvetica,sans-Serif" font-size="10.00">FlowDeviceFactory.h</text>
</a>
</g>
</g>
<!-- Node1&#45;&gt;Node5 -->
<g id="edge4" class="edge">
<title>Node1&#45;&gt;Node5</title>
<path fill="none" stroke="midnightblue" d="M801.74,-110.09C759.42,-99.89 697.09,-84.86 658.33,-75.52"/>
<polygon fill="midnightblue" stroke="midnightblue" points="800.96,-113.5 811.51,-112.44 802.61,-106.7 800.96,-113.5"/>
</g>
<!-- Node8 -->
<g id="node8" class="node">
<title>Node8</title>
<g id="a_node8"><a xlink:href="../../df/d76/KineticsFactory_8h.html" target="_top" xlink:title=" ">
<polygon fill="white" stroke="black" points="3936,-56.5 3936,-75.5 4028,-75.5 4028,-56.5 3936,-56.5"/>
<text text-anchor="middle" x="3982" y="-63.5" font-family="Helvetica,sans-Serif" font-size="10.00">KineticsFactory.h</text>
</a>
</g>
</g>
<!-- Node1&#45;&gt;Node8 -->
<g id="edge7" class="edge">
<title>Node1&#45;&gt;Node8</title>
<path fill="none" stroke="midnightblue" d="M897.38,-120.13C1268.92,-113.73 3579.57,-73.93 3935.89,-67.79"/>
<polygon fill="midnightblue" stroke="midnightblue" points="897.15,-116.64 887.21,-120.31 897.27,-123.63 897.15,-116.64"/>
</g>
<!-- Node13 -->
<g id="node13" class="node">
<title>Node13</title>
<g id="a_node13"><a xlink:href="../../db/d8c/PDSSFactory_8h.html" target="_top" xlink:title=" ">
<polygon fill="white" stroke="black" points="4046,-56.5 4046,-75.5 4130,-75.5 4130,-56.5 4046,-56.5"/>
<text text-anchor="middle" x="4088" y="-63.5" font-family="Helvetica,sans-Serif" font-size="10.00">PDSSFactory.h</text>
</a>
</g>
</g>
<!-- Node1&#45;&gt;Node13 -->
<g id="edge12" class="edge">
<title>Node1&#45;&gt;Node13</title>
<path fill="none" stroke="midnightblue" d="M897.42,-120.78C1279.43,-119.03 3711.96,-106.77 4037,-76 4039.86,-75.73 4042.81,-75.38 4045.77,-74.99"/>
<polygon fill="midnightblue" stroke="midnightblue" points="897.21,-117.28 887.23,-120.82 897.24,-124.28 897.21,-117.28"/>
</g>
<!-- Node16 -->
<g id="node16" class="node">
<title>Node16</title>
<g id="a_node16"><a xlink:href="../../da/d4a/ReactionFactory_8h.html" target="_top" xlink:title="Factory class for reaction functions.">
<polygon fill="white" stroke="black" points="209.5,-56.5 209.5,-75.5 304.5,-75.5 304.5,-56.5 209.5,-56.5"/>
<text text-anchor="middle" x="257" y="-63.5" font-family="Helvetica,sans-Serif" font-size="10.00">ReactionFactory.h</text>
</a>
</g>
</g>
<!-- Node1&#45;&gt;Node16 -->
<g id="edge15" class="edge">
<title>Node1&#45;&gt;Node16</title>
<path fill="none" stroke="midnightblue" d="M796.87,-117.67C703.08,-111.23 494.78,-95.93 320,-76 315.06,-75.44 309.91,-74.79 304.78,-74.12"/>
<polygon fill="midnightblue" stroke="midnightblue" points="796.71,-121.17 806.93,-118.36 797.19,-114.18 796.71,-121.17"/>
</g>
<!-- Node18 -->
<g id="node18" class="node">
<title>Node18</title>
<g id="a_node18"><a xlink:href="../../de/d47/ReactionRateFactory_8h.html" target="_top" xlink:title="Factory class for reaction rate objects.">
<polygon fill="white" stroke="black" points="329,-56.5 329,-75.5 445,-75.5 445,-56.5 329,-56.5"/>
<text text-anchor="middle" x="387" y="-63.5" font-family="Helvetica,sans-Serif" font-size="10.00">ReactionRateFactory.h</text>
</a>
</g>
</g>
<!-- Node1&#45;&gt;Node18 -->
<g id="edge18" class="edge">
<title>Node1&#45;&gt;Node18</title>
<path fill="none" stroke="midnightblue" d="M796.96,-115.13C711.09,-105.04 536.11,-84.5 445.03,-73.81"/>
<polygon fill="midnightblue" stroke="midnightblue" points="796.64,-118.61 806.98,-116.3 797.46,-111.66 796.64,-118.61"/>
</g>
<!-- Node20 -->
<g id="node20" class="node">
<title>Node20</title>
<g id="a_node20"><a xlink:href="../../d8/d7e/ReactorFactory_8h.html" target="_top" xlink:title=" ">
<polygon fill="white" stroke="black" points="695.5,-56.5 695.5,-75.5 786.5,-75.5 786.5,-56.5 695.5,-56.5"/>
<text text-anchor="middle" x="741" y="-63.5" font-family="Helvetica,sans-Serif" font-size="10.00">ReactorFactory.h</text>
</a>
</g>
</g>
<!-- Node1&#45;&gt;Node20 -->
<g id="edge22" class="edge">
<title>Node1&#45;&gt;Node20</title>
<path fill="none" stroke="midnightblue" d="M820.94,-107.73C801.32,-97.73 774.97,-84.31 757.99,-75.65"/>
<polygon fill="midnightblue" stroke="midnightblue" points="819.47,-110.9 829.97,-112.32 822.65,-104.67 819.47,-110.9"/>
</g>
<!-- Node22 -->
<g id="node22" class="node">
<title>Node22</title>
<g id="a_node22"><a xlink:href="../../dc/d8e/ThermoFactory_8h.html" target="_top" xlink:title="Headers for the factory class that can create known ThermoPhase objects (see Thermodynamic Properties...">
<polygon fill="white" stroke="black" points="2648.5,-56.5 2648.5,-75.5 2737.5,-75.5 2737.5,-56.5 2648.5,-56.5"/>
<text text-anchor="middle" x="2693" y="-63.5" font-family="Helvetica,sans-Serif" font-size="10.00">ThermoFactory.h</text>
</a>
</g>
</g>
<!-- Node1&#45;&gt;Node22 -->
<g id="edge25" class="edge">
<title>Node1&#45;&gt;Node22</title>
<path fill="none" stroke="midnightblue" d="M897.39,-119.53C1162.97,-111.76 2397.46,-75.65 2648.41,-68.3"/>
<polygon fill="midnightblue" stroke="midnightblue" points="897.17,-116.03 887.27,-119.82 897.37,-123.03 897.17,-116.03"/>
</g>
<!-- Node43 -->
<g id="node43" class="node">
<title>Node43</title>
<g id="a_node43"><a xlink:href="../../d3/da4/TransportFactory_8h.html" target="_top" xlink:title="Header file defining class TransportFactory (see TransportFactory)">
<polygon fill="white" stroke="black" points="1083,-56.5 1083,-75.5 1181,-75.5 1181,-56.5 1083,-56.5"/>
<text text-anchor="middle" x="1132" y="-63.5" font-family="Helvetica,sans-Serif" font-size="10.00">TransportFactory.h</text>
</a>
</g>
</g>
<!-- Node1&#45;&gt;Node43 -->
<g id="edge49" class="edge">
<title>Node1&#45;&gt;Node43</title>
<path fill="none" stroke="midnightblue" d="M897.2,-111.49C950.86,-101.32 1035.15,-85.35 1086.8,-75.56"/>
<polygon fill="midnightblue" stroke="midnightblue" points="896.4,-108.08 887.23,-113.38 897.71,-114.95 896.4,-108.08"/>
</g>
<!-- Node48 -->
<g id="node48" class="node">
<title>Node48</title>
<g id="a_node48"><a xlink:href="../../d1/d07/WallFactory_8h.html" target="_top" xlink:title=" ">
<polygon fill="white" stroke="black" points="809.5,-56.5 809.5,-75.5 884.5,-75.5 884.5,-56.5 809.5,-56.5"/>
<text text-anchor="middle" x="847" y="-63.5" font-family="Helvetica,sans-Serif" font-size="10.00">WallFactory.h</text>
</a>
</g>
</g>
<!-- Node1&#45;&gt;Node48 -->
<g id="edge55" class="edge">
<title>Node1&#45;&gt;Node48</title>
<path fill="none" stroke="midnightblue" d="M847,-101.8C847,-92.91 847,-82.78 847,-75.75"/>
<polygon fill="midnightblue" stroke="midnightblue" points="843.5,-102.08 847,-112.08 850.5,-102.08 843.5,-102.08"/>
</g>
<!-- Node50 -->
<g id="node50" class="node">
<title>Node50</title>
<g id="a_node50"><a xlink:href="../../db/d7d/global_8cpp.html" target="_top" xlink:title=" ">
<polygon fill="white" stroke="black" points="4148.5,-56.5 4148.5,-75.5 4209.5,-75.5 4209.5,-56.5 4148.5,-56.5"/>
<text text-anchor="middle" x="4179" y="-63.5" font-family="Helvetica,sans-Serif" font-size="10.00">global.cpp</text>
</a>
</g>
</g>
<!-- Node1&#45;&gt;Node50 -->
<g id="edge58" class="edge">
<title>Node1&#45;&gt;Node50</title>
<path fill="none" stroke="midnightblue" d="M897.22,-120.94C1285.55,-120.43 3803.87,-115.56 4139,-76 4141.97,-75.65 4145.04,-75.17 4148.1,-74.62"/>
<polygon fill="midnightblue" stroke="midnightblue" points="897.13,-117.44 887.13,-120.96 897.13,-124.44 897.13,-117.44"/>
</g>
<!-- Node3 -->
<g id="node3" class="node">
<title>Node3</title>
<g id="a_node3"><a xlink:href="../../d1/d1d/FalloffFactory_8cpp.html" target="_top" xlink:title=" ">
<polygon fill="white" stroke="black" points="0,-0.5 0,-19.5 94,-19.5 94,-0.5 0,-0.5"/>
<text text-anchor="middle" x="47" y="-7.5" font-family="Helvetica,sans-Serif" font-size="10.00">FalloffFactory.cpp</text>
</a>
</g>
</g>
<!-- Node2&#45;&gt;Node3 -->
<g id="edge2" class="edge">
<title>Node2&#45;&gt;Node3</title>
<path fill="none" stroke="midnightblue" d="M123.67,-51.59C104.81,-41.61 79.62,-28.27 63.35,-19.65"/>
<polygon fill="midnightblue" stroke="midnightblue" points="122.14,-54.74 132.61,-56.32 125.41,-48.55 122.14,-54.74"/>
</g>
<!-- Node4 -->
<g id="node4" class="node">
<title>Node4</title>
<g id="a_node4"><a xlink:href="../../d1/d9f/Reaction_8cpp.html" target="_top" xlink:title=" ">
<polygon fill="white" stroke="black" points="112,-0.5 112,-19.5 186,-19.5 186,-0.5 112,-0.5"/>
<text text-anchor="middle" x="149" y="-7.5" font-family="Helvetica,sans-Serif" font-size="10.00">Reaction.cpp</text>
</a>
</g>
</g>
<!-- Node2&#45;&gt;Node4 -->
<g id="edge3" class="edge">
<title>Node2&#45;&gt;Node4</title>
<path fill="none" stroke="midnightblue" d="M149,-45.8C149,-36.91 149,-26.78 149,-19.75"/>
<polygon fill="midnightblue" stroke="midnightblue" points="145.5,-46.08 149,-56.08 152.5,-46.08 145.5,-46.08"/>
</g>
<!-- Node6 -->
<g id="node6" class="node">
<title>Node6</title>
<g id="a_node6"><a xlink:href="../../d8/d77/FlowDeviceFactory_8cpp.html" target="_top" xlink:title=" ">
<polygon fill="white" stroke="black" points="473.5,-0.5 473.5,-19.5 592.5,-19.5 592.5,-0.5 473.5,-0.5"/>
<text text-anchor="middle" x="533" y="-7.5" font-family="Helvetica,sans-Serif" font-size="10.00">FlowDeviceFactory.cpp</text>
</a>
</g>
</g>
<!-- Node5&#45;&gt;Node6 -->
<g id="edge5" class="edge">
<title>Node5&#45;&gt;Node6</title>
<path fill="none" stroke="midnightblue" d="M599.96,-51.18C583.4,-41.24 561.58,-28.15 547.42,-19.65"/>
<polygon fill="midnightblue" stroke="midnightblue" points="598.16,-54.18 608.54,-56.32 601.77,-48.18 598.16,-54.18"/>
</g>
<!-- Node7 -->
<g id="node7" class="node">
<title>Node7</title>
<g id="a_node7"><a xlink:href="../../dd/d2e/zerodim_8h.html" target="_top" xlink:title=" ">
<polygon fill="white" stroke="black" points="610.5,-0.5 610.5,-19.5 669.5,-19.5 669.5,-0.5 610.5,-0.5"/>
<text text-anchor="middle" x="640" y="-7.5" font-family="Helvetica,sans-Serif" font-size="10.00">zerodim.h</text>
</a>
</g>
</g>
<!-- Node5&#45;&gt;Node7 -->
<g id="edge6" class="edge">
<title>Node5&#45;&gt;Node7</title>
<path fill="none" stroke="midnightblue" d="M628.86,-46.4C631.7,-37.36 634.98,-26.94 637.25,-19.75"/>
<polygon fill="midnightblue" stroke="midnightblue" points="625.47,-45.49 625.81,-56.08 632.15,-47.6 625.47,-45.49"/>
</g>
<!-- Node9 -->
<g id="node9" class="node">
<title>Node9</title>
<g id="a_node9"><a xlink:href="../../de/dbe/Interface_8cpp.html" target="_top" xlink:title=" ">
<polygon fill="white" stroke="black" points="3946,-0.5 3946,-19.5 4020,-19.5 4020,-0.5 3946,-0.5"/>
<text text-anchor="middle" x="3983" y="-7.5" font-family="Helvetica,sans-Serif" font-size="10.00">Interface.cpp</text>
</a>
</g>
</g>
<!-- Node8&#45;&gt;Node9 -->
<g id="edge8" class="edge">
<title>Node8&#45;&gt;Node9</title>
<path fill="none" stroke="midnightblue" d="M3982.36,-45.8C3982.52,-36.91 3982.71,-26.78 3982.84,-19.75"/>
<polygon fill="midnightblue" stroke="midnightblue" points="3978.85,-46.02 3982.17,-56.08 3985.85,-46.15 3978.85,-46.02"/>
</g>
<!-- Node10 -->
<g id="node10" class="node">
<title>Node10</title>
<g id="a_node10"><a xlink:href="../../d7/ddb/Kinetics_8cpp.html" target="_top" xlink:title="Declarations for the base class for kinetics managers (see Kinetics Managers and class Kinetics ).">
<polygon fill="white" stroke="black" points="4156.5,-0.5 4156.5,-19.5 4227.5,-19.5 4227.5,-0.5 4156.5,-0.5"/>
<text text-anchor="middle" x="4192" y="-7.5" font-family="Helvetica,sans-Serif" font-size="10.00">Kinetics.cpp</text>
</a>
</g>
</g>
<!-- Node8&#45;&gt;Node10 -->
<g id="edge9" class="edge">
<title>Node8&#45;&gt;Node10</title>
<path fill="none" stroke="midnightblue" d="M4025.19,-53.89C4064.85,-43.7 4122.77,-28.8 4158.88,-19.52"/>
<polygon fill="midnightblue" stroke="midnightblue" points="4024.09,-50.56 4015.28,-56.44 4025.83,-57.34 4024.09,-50.56"/>
</g>
<!-- Node11 -->
<g id="node11" class="node">
<title>Node11</title>
<g id="a_node11"><a xlink:href="../../d3/df8/KineticsFactory_8cpp.html" target="_top" xlink:title=" ">
<polygon fill="white" stroke="black" points="4246,-0.5 4246,-19.5 4348,-19.5 4348,-0.5 4246,-0.5"/>
<text text-anchor="middle" x="4297" y="-7.5" font-family="Helvetica,sans-Serif" font-size="10.00">KineticsFactory.cpp</text>
</a>
</g>
</g>
<!-- Node8&#45;&gt;Node11 -->
<g id="edge10" class="edge">
<title>Node8&#45;&gt;Node11</title>
<path fill="none" stroke="midnightblue" d="M4038.11,-55.38C4097.55,-45.19 4190.49,-29.26 4247.36,-19.51"/>
<polygon fill="midnightblue" stroke="midnightblue" points="4037.41,-51.95 4028.14,-57.09 4038.59,-58.85 4037.41,-51.95"/>
</g>
<!-- Node12 -->
<g id="node12" class="node">
<title>Node12</title>
<g id="a_node12"><a xlink:href="../../df/d48/Solution_8cpp.html" target="_top" xlink:title="Definition file for class Solution.">
<polygon fill="white" stroke="black" points="2163.5,-0.5 2163.5,-19.5 2234.5,-19.5 2234.5,-0.5 2163.5,-0.5"/>
<text text-anchor="middle" x="2199" y="-7.5" font-family="Helvetica,sans-Serif" font-size="10.00">Solution.cpp</text>
</a>
</g>
</g>
<!-- Node8&#45;&gt;Node12 -->
<g id="edge11" class="edge">
<title>Node8&#45;&gt;Node12</title>
<path fill="none" stroke="midnightblue" d="M3925.3,-64.84C3664.78,-63.9 2580.91,-57.77 2244,-20 2240.99,-19.66 2237.88,-19.23 2234.77,-18.73"/>
<polygon fill="midnightblue" stroke="midnightblue" points="3925.64,-68.34 3935.66,-64.88 3925.67,-61.34 3925.64,-68.34"/>
</g>
<!-- Node14 -->
<g id="node14" class="node">
<title>Node14</title>
<g id="a_node14"><a xlink:href="../../d0/d6d/PDSSFactory_8cpp.html" target="_top" xlink:title=" ">
<polygon fill="white" stroke="black" points="4366.5,-0.5 4366.5,-19.5 4461.5,-19.5 4461.5,-0.5 4366.5,-0.5"/>
<text text-anchor="middle" x="4414" y="-7.5" font-family="Helvetica,sans-Serif" font-size="10.00">PDSSFactory.cpp</text>
</a>
</g>
</g>
<!-- Node13&#45;&gt;Node14 -->
<g id="edge13" class="edge">
<title>Node13&#45;&gt;Node14</title>
<path fill="none" stroke="midnightblue" d="M4140.21,-55.98C4226.19,-41.5 4313.83,-27.21 4366.46,-18.68"/>
<polygon fill="midnightblue" stroke="midnightblue" points="4139.56,-52.54 4130.28,-57.65 4140.72,-59.44 4139.56,-52.54"/>
</g>
<!-- Node15 -->
<g id="node15" class="node">
<title>Node15</title>
<g id="a_node15"><a xlink:href="../../d2/d3a/ThermoFactory_8cpp.html" target="_top" xlink:title="Definitions for the factory class that can create known ThermoPhase objects (see Thermodynamic Proper...">
<polygon fill="white" stroke="black" points="4038,-0.5 4038,-19.5 4138,-19.5 4138,-0.5 4038,-0.5"/>
<text text-anchor="middle" x="4088" y="-7.5" font-family="Helvetica,sans-Serif" font-size="10.00">ThermoFactory.cpp</text>
</a>
</g>
</g>
<!-- Node13&#45;&gt;Node15 -->
<g id="edge14" class="edge">
<title>Node13&#45;&gt;Node15</title>
<path fill="none" stroke="midnightblue" d="M4088,-45.8C4088,-36.91 4088,-26.78 4088,-19.75"/>
<polygon fill="midnightblue" stroke="midnightblue" points="4084.5,-46.08 4088,-56.08 4091.5,-46.08 4084.5,-46.08"/>
</g>
<!-- Node16&#45;&gt;Node4 -->
<g id="edge16" class="edge">
<title>Node16&#45;&gt;Node4</title>
<path fill="none" stroke="midnightblue" d="M230.45,-51.73C210.45,-41.73 183.61,-28.31 166.31,-19.65"/>
<polygon fill="midnightblue" stroke="midnightblue" points="229.14,-54.98 239.65,-56.32 232.27,-48.72 229.14,-54.98"/>
</g>
<!-- Node17 -->
<g id="node17" class="node">
<title>Node17</title>
<g id="a_node17"><a xlink:href="../../d2/dbc/ReactionFactory_8cpp.html" target="_top" xlink:title=" ">
<polygon fill="white" stroke="black" points="204,-0.5 204,-19.5 310,-19.5 310,-0.5 204,-0.5"/>
<text text-anchor="middle" x="257" y="-7.5" font-family="Helvetica,sans-Serif" font-size="10.00">ReactionFactory.cpp</text>
</a>
</g>
</g>
<!-- Node16&#45;&gt;Node17 -->
<g id="edge17" class="edge">
<title>Node16&#45;&gt;Node17</title>
<path fill="none" stroke="midnightblue" d="M257,-45.8C257,-36.91 257,-26.78 257,-19.75"/>
<polygon fill="midnightblue" stroke="midnightblue" points="253.5,-46.08 257,-56.08 260.5,-46.08 253.5,-46.08"/>
</g>
<!-- Node18&#45;&gt;Node4 -->
<g id="edge19" class="edge">
<title>Node18&#45;&gt;Node4</title>
<path fill="none" stroke="midnightblue" d="M339.45,-54.21C294.33,-43.97 227.46,-28.8 186.14,-19.43"/>
<polygon fill="midnightblue" stroke="midnightblue" points="338.76,-57.64 349.29,-56.44 340.31,-50.82 338.76,-57.64"/>
</g>
<!-- Node18&#45;&gt;Node17 -->
<g id="edge20" class="edge">
<title>Node18&#45;&gt;Node17</title>
<path fill="none" stroke="midnightblue" d="M356.91,-52.5C332.54,-42.38 298.86,-28.39 277.5,-19.52"/>
<polygon fill="midnightblue" stroke="midnightblue" points="355.82,-55.84 366.4,-56.44 358.51,-49.38 355.82,-55.84"/>
</g>
<!-- Node19 -->
<g id="node19" class="node">
<title>Node19</title>
<g id="a_node19"><a xlink:href="../../de/db2/ReactionRateFactory_8cpp.html" target="_top" xlink:title=" ">
<polygon fill="white" stroke="black" points="328.5,-0.5 328.5,-19.5 455.5,-19.5 455.5,-0.5 328.5,-0.5"/>
<text text-anchor="middle" x="392" y="-7.5" font-family="Helvetica,sans-Serif" font-size="10.00">ReactionRateFactory.cpp</text>
</a>
</g>
</g>
<!-- Node18&#45;&gt;Node19 -->
<g id="edge21" class="edge">
<title>Node18&#45;&gt;Node19</title>
<path fill="none" stroke="midnightblue" d="M388.75,-46.1C389.58,-37.14 390.53,-26.86 391.19,-19.75"/>
<polygon fill="midnightblue" stroke="midnightblue" points="385.26,-45.8 387.83,-56.08 392.23,-46.45 385.26,-45.8"/>
</g>
<!-- Node20&#45;&gt;Node7 -->
<g id="edge24" class="edge">
<title>Node20&#45;&gt;Node7</title>
<path fill="none" stroke="midnightblue" d="M715.92,-51.59C697.24,-41.61 672.3,-28.27 656.19,-19.65"/>
<polygon fill="midnightblue" stroke="midnightblue" points="714.3,-54.7 724.77,-56.32 717.6,-48.52 714.3,-54.7"/>
</g>
<!-- Node21 -->
<g id="node21" class="node">
<title>Node21</title>
<g id="a_node21"><a xlink:href="../../db/d78/ReactorFactory_8cpp.html" target="_top" xlink:title=" ">
<polygon fill="white" stroke="black" points="687.5,-0.5 687.5,-19.5 788.5,-19.5 788.5,-0.5 687.5,-0.5"/>
<text text-anchor="middle" x="738" y="-7.5" font-family="Helvetica,sans-Serif" font-size="10.00">ReactorFactory.cpp</text>
</a>
</g>
</g>
<!-- Node20&#45;&gt;Node21 -->
<g id="edge23" class="edge">
<title>Node20&#45;&gt;Node21</title>
<path fill="none" stroke="midnightblue" d="M739.93,-45.8C739.44,-36.91 738.88,-26.78 738.49,-19.75"/>
<polygon fill="midnightblue" stroke="midnightblue" points="736.46,-46.29 740.5,-56.08 743.44,-45.9 736.46,-46.29"/>
</g>
<!-- Node22&#45;&gt;Node9 -->
<g id="edge32" class="edge">
<title>Node22&#45;&gt;Node9</title>
<path fill="none" stroke="midnightblue" d="M2747.86,-64.16C2956.63,-60.8 3701.59,-47.12 3937,-20 3939.91,-19.66 3942.91,-19.25 3945.92,-18.77"/>
<polygon fill="midnightblue" stroke="midnightblue" points="2747.69,-60.66 2737.75,-64.32 2747.81,-67.66 2747.69,-60.66"/>
</g>
<!-- Node22&#45;&gt;Node12 -->
<g id="edge41" class="edge">
<title>Node22&#45;&gt;Node12</title>
<path fill="none" stroke="midnightblue" d="M2638.03,-61.23C2553.18,-55.01 2385.31,-41.16 2244,-20 2241.01,-19.55 2237.91,-19.04 2234.81,-18.49"/>
<polygon fill="midnightblue" stroke="midnightblue" points="2637.98,-64.73 2648.21,-61.96 2638.49,-57.75 2637.98,-64.73"/>
</g>
<!-- Node22&#45;&gt;Node15 -->
<g id="edge44" class="edge">
<title>Node22&#45;&gt;Node15</title>
<path fill="none" stroke="midnightblue" d="M2747.65,-65.46C2929.87,-66.5 3533.13,-66.01 4029,-20 4031.89,-19.73 4034.85,-19.41 4037.84,-19.06"/>
<polygon fill="midnightblue" stroke="midnightblue" points="2747.54,-61.96 2737.52,-65.4 2747.5,-68.96 2747.54,-61.96"/>
</g>
<!-- Node23 -->
<g id="node23" class="node">
<title>Node23</title>
<g id="a_node23"><a xlink:href="../../d4/d20/BinarySolutionTabulatedThermo_8cpp.html" target="_top" xlink:title="Implementation file for an binary solution model with tabulated standard state thermodynamic data (se...">
<polygon fill="white" stroke="black" points="2888.5,-0.5 2888.5,-19.5 3061.5,-19.5 3061.5,-0.5 2888.5,-0.5"/>
<text text-anchor="middle" x="2975" y="-7.5" font-family="Helvetica,sans-Serif" font-size="10.00">BinarySolutionTabulatedThermo.cpp</text>
</a>
</g>
</g>
<!-- Node22&#45;&gt;Node23 -->
<g id="edge26" class="edge">
<title>Node22&#45;&gt;Node23</title>
<path fill="none" stroke="midnightblue" d="M2747.64,-54.54C2800.94,-44.33 2881,-29 2930.53,-19.52"/>
<polygon fill="midnightblue" stroke="midnightblue" points="2746.85,-51.13 2737.68,-56.44 2748.16,-58 2746.85,-51.13"/>
</g>
<!-- Node24 -->
<g id="node24" class="node">
<title>Node24</title>
<g id="a_node24"><a xlink:href="../../dc/ddc/DebyeHuckel_8cpp.html" target="_top" xlink:title="Declarations for the DebyeHuckel ThermoPhase object, which models dilute electrolyte solutions (see T...">
<polygon fill="white" stroke="black" points="3079.5,-0.5 3079.5,-19.5 3174.5,-19.5 3174.5,-0.5 3079.5,-0.5"/>
<text text-anchor="middle" x="3127" y="-7.5" font-family="Helvetica,sans-Serif" font-size="10.00">DebyeHuckel.cpp</text>
</a>
</g>
</g>
<!-- Node22&#45;&gt;Node24 -->
<g id="edge27" class="edge">
<title>Node22&#45;&gt;Node24</title>
<path fill="none" stroke="midnightblue" d="M2747.7,-59.13C2821.13,-51.09 2955.57,-35.86 3070,-20 3073.08,-19.57 3076.24,-19.12 3079.43,-18.65"/>
<polygon fill="midnightblue" stroke="midnightblue" points="2747.32,-55.65 2737.76,-60.21 2748.08,-62.61 2747.32,-55.65"/>
</g>
<!-- Node25 -->
<g id="node25" class="node">
<title>Node25</title>
<g id="a_node25"><a xlink:href="../../d0/d0e/HMWSoln_8cpp.html" target="_top" xlink:title="Definitions for the HMWSoln ThermoPhase object, which models concentrated electrolyte solutions (see ...">
<polygon fill="white" stroke="black" points="3193,-0.5 3193,-19.5 3273,-19.5 3273,-0.5 3193,-0.5"/>
<text text-anchor="middle" x="3233" y="-7.5" font-family="Helvetica,sans-Serif" font-size="10.00">HMWSoln.cpp</text>
</a>
</g>
</g>
<!-- Node22&#45;&gt;Node25 -->
<g id="edge28" class="edge">
<title>Node22&#45;&gt;Node25</title>
<path fill="none" stroke="midnightblue" d="M2747.79,-61.52C2838.55,-55.41 3025.68,-41.34 3183,-20 3186.23,-19.56 3189.58,-19.06 3192.93,-18.53"/>
<polygon fill="midnightblue" stroke="midnightblue" points="2747.48,-58.03 2737.74,-62.19 2747.95,-65.02 2747.48,-58.03"/>
</g>
<!-- Node26 -->
<g id="node26" class="node">
<title>Node26</title>
<g id="a_node26"><a xlink:href="../../d7/dd4/IdealGasPhase_8cpp.html" target="_top" xlink:title="ThermoPhase object for the ideal gas equation of state &#45; workhorse for Cantera (see Thermodynamic Pro...">
<polygon fill="white" stroke="black" points="3291,-0.5 3291,-19.5 3393,-19.5 3393,-0.5 3291,-0.5"/>
<text text-anchor="middle" x="3342" y="-7.5" font-family="Helvetica,sans-Serif" font-size="10.00">IdealGasPhase.cpp</text>
</a>
</g>
</g>
<!-- Node22&#45;&gt;Node26 -->
<g id="edge29" class="edge">
<title>Node22&#45;&gt;Node26</title>
<path fill="none" stroke="midnightblue" d="M2748.1,-62.13C2852.49,-56.39 3086.19,-42.14 3282,-20 3284.93,-19.67 3287.94,-19.3 3290.97,-18.91"/>
<polygon fill="midnightblue" stroke="midnightblue" points="2747.6,-58.65 2737.81,-62.69 2747.98,-65.64 2747.6,-58.65"/>
</g>
<!-- Node27 -->
<g id="node27" class="node">
<title>Node27</title>
<g id="a_node27"><a xlink:href="../../d3/d32/IdealMolalSoln_8cpp.html" target="_top" xlink:title="ThermoPhase object for the ideal molal equation of state (see Thermodynamic Properties and class Idea...">
<polygon fill="white" stroke="black" points="3411.5,-0.5 3411.5,-19.5 3510.5,-19.5 3510.5,-0.5 3411.5,-0.5"/>
<text text-anchor="middle" x="3461" y="-7.5" font-family="Helvetica,sans-Serif" font-size="10.00">IdealMolalSoln.cpp</text>
</a>
</g>
</g>
<!-- Node22&#45;&gt;Node27 -->
<g id="edge30" class="edge">
<title>Node22&#45;&gt;Node27</title>
<path fill="none" stroke="midnightblue" d="M2748.26,-63.15C2867.78,-58.78 3159.17,-46.18 3402,-20 3405.09,-19.67 3408.27,-19.29 3411.47,-18.88"/>
<polygon fill="midnightblue" stroke="midnightblue" points="2747.78,-59.66 2737.91,-63.52 2748.03,-66.66 2747.78,-59.66"/>
</g>
<!-- Node28 -->
<g id="node28" class="node">
<title>Node28</title>
<g id="a_node28"><a xlink:href="../../de/d05/IdealSolidSolnPhase_8cpp.html" target="_top" xlink:title="Implementation file for an ideal solid solution model with incompressible thermodynamics (see Thermod...">
<polygon fill="white" stroke="black" points="3528.5,-0.5 3528.5,-19.5 3653.5,-19.5 3653.5,-0.5 3528.5,-0.5"/>
<text text-anchor="middle" x="3591" y="-7.5" font-family="Helvetica,sans-Serif" font-size="10.00">IdealSolidSolnPhase.cpp</text>
</a>
</g>
</g>
<!-- Node22&#45;&gt;Node28 -->
<g id="edge31" class="edge">
<title>Node22&#45;&gt;Node28</title>
<path fill="none" stroke="midnightblue" d="M2748.16,-63.33C2881.04,-59.01 3229.32,-45.96 3519,-20 3522.01,-19.73 3525.09,-19.43 3528.2,-19.11"/>
<polygon fill="midnightblue" stroke="midnightblue" points="2747.73,-59.84 2737.85,-63.66 2747.96,-66.84 2747.73,-59.84"/>
</g>
<!-- Node29 -->
<g id="node29" class="node">
<title>Node29</title>
<g id="a_node29"><a xlink:href="../../db/dcc/IonsFromNeutralVPSSTP_8cpp.html" target="_top" xlink:title="Definitions for the object which treats ionic liquids as made of ions as species even though the ther...">
<polygon fill="white" stroke="black" points="3672,-0.5 3672,-19.5 3818,-19.5 3818,-0.5 3672,-0.5"/>
<text text-anchor="middle" x="3745" y="-7.5" font-family="Helvetica,sans-Serif" font-size="10.00">IonsFromNeutralVPSSTP.cpp</text>
</a>
</g>
</g>
<!-- Node22&#45;&gt;Node29 -->
<g id="edge33" class="edge">
<title>Node22&#45;&gt;Node29</title>
<path fill="none" stroke="midnightblue" d="M2748.17,-63.63C2896.25,-59.69 3314.79,-46.86 3662,-20 3665.18,-19.75 3668.42,-19.48 3671.7,-19.2"/>
<polygon fill="midnightblue" stroke="midnightblue" points="2747.88,-60.13 2737.98,-63.9 2748.07,-67.13 2747.88,-60.13"/>
</g>
<!-- Node30 -->
<g id="node30" class="node">
<title>Node30</title>
<g id="a_node30"><a xlink:href="../../da/d5f/LatticePhase_8cpp.html" target="_top" xlink:title="Definitions for a simple thermodynamics model of a bulk phase derived from ThermoPhase,...">
<polygon fill="white" stroke="black" points="3836,-0.5 3836,-19.5 3928,-19.5 3928,-0.5 3836,-0.5"/>
<text text-anchor="middle" x="3882" y="-7.5" font-family="Helvetica,sans-Serif" font-size="10.00">LatticePhase.cpp</text>
</a>
</g>
</g>
<!-- Node22&#45;&gt;Node30 -->
<g id="edge34" class="edge">
<title>Node22&#45;&gt;Node30</title>
<path fill="none" stroke="midnightblue" d="M2748.05,-65.2C2912.42,-65.29 3413.88,-61.84 3827,-20 3829.89,-19.71 3832.85,-19.36 3835.84,-18.97"/>
<polygon fill="midnightblue" stroke="midnightblue" points="2747.72,-61.7 2737.71,-65.19 2747.71,-68.7 2747.72,-61.7"/>
</g>
<!-- Node31 -->
<g id="node31" class="node">
<title>Node31</title>
<g id="a_node31"><a xlink:href="../../df/dde/LatticeSolidPhase_8cpp.html" target="_top" xlink:title="Definitions for a simple thermodynamics model of a bulk solid phase derived from ThermoPhase,...">
<polygon fill="white" stroke="black" points="1409,-0.5 1409,-19.5 1523,-19.5 1523,-0.5 1409,-0.5"/>
<text text-anchor="middle" x="1466" y="-7.5" font-family="Helvetica,sans-Serif" font-size="10.00">LatticeSolidPhase.cpp</text>
</a>
</g>
</g>
<!-- Node22&#45;&gt;Node31 -->
<g id="edge35" class="edge">
<title>Node22&#45;&gt;Node31</title>
<path fill="none" stroke="midnightblue" d="M2637.86,-64.75C2470.93,-63.61 1956.48,-57.08 1532,-20 1529.12,-19.75 1526.17,-19.46 1523.2,-19.14"/>
<polygon fill="midnightblue" stroke="midnightblue" points="2638.32,-68.26 2648.35,-64.82 2638.37,-61.26 2638.32,-68.26"/>
</g>
<!-- Node32 -->
<g id="node32" class="node">
<title>Node32</title>
<g id="a_node32"><a xlink:href="../../dd/d35/MargulesVPSSTP_8cpp.html" target="_top" xlink:title="Definitions for ThermoPhase object for phases which employ excess Gibbs free energy formulations rela...">
<polygon fill="white" stroke="black" points="1541.5,-0.5 1541.5,-19.5 1654.5,-19.5 1654.5,-0.5 1541.5,-0.5"/>
<text text-anchor="middle" x="1598" y="-7.5" font-family="Helvetica,sans-Serif" font-size="10.00">MargulesVPSSTP.cpp</text>
</a>
</g>
</g>
<!-- Node22&#45;&gt;Node32 -->
<g id="edge36" class="edge">
<title>Node22&#45;&gt;Node32</title>
<path fill="none" stroke="midnightblue" d="M2638.35,-64.42C2484.51,-62.39 2034.81,-53.79 1663,-20 1660.28,-19.75 1657.49,-19.47 1654.68,-19.17"/>
<polygon fill="midnightblue" stroke="midnightblue" points="2638.43,-67.92 2648.48,-64.55 2638.52,-60.92 2638.43,-67.92"/>
</g>
<!-- Node33 -->
<g id="node33" class="node">
<title>Node33</title>
<g id="a_node33"><a xlink:href="../../db/db8/PengRobinson_8cpp.html" target="_top" xlink:title=" ">
<polygon fill="white" stroke="black" points="1672.5,-0.5 1672.5,-19.5 1771.5,-19.5 1771.5,-0.5 1672.5,-0.5"/>
<text text-anchor="middle" x="1722" y="-7.5" font-family="Helvetica,sans-Serif" font-size="10.00">PengRobinson.cpp</text>
</a>
</g>
</g>
<!-- Node22&#45;&gt;Node33 -->
<g id="edge37" class="edge">
<title>Node22&#45;&gt;Node33</title>
<path fill="none" stroke="midnightblue" d="M2638.02,-64.29C2495.79,-62.03 2104.23,-53.05 1780,-20 1777.26,-19.72 1774.46,-19.4 1771.63,-19.05"/>
<polygon fill="midnightblue" stroke="midnightblue" points="2638.17,-67.8 2648.22,-64.45 2638.28,-60.8 2638.17,-67.8"/>
</g>
<!-- Node34 -->
<g id="node34" class="node">
<title>Node34</title>
<g id="a_node34"><a xlink:href="../../de/dd9/Phase_8cpp.html" target="_top" xlink:title="Definition file for class Phase.">
<polygon fill="white" stroke="black" points="1789.5,-0.5 1789.5,-19.5 1852.5,-19.5 1852.5,-0.5 1789.5,-0.5"/>
<text text-anchor="middle" x="1821" y="-7.5" font-family="Helvetica,sans-Serif" font-size="10.00">Phase.cpp</text>
</a>
</g>
</g>
<!-- Node22&#45;&gt;Node34 -->
<g id="edge38" class="edge">
<title>Node22&#45;&gt;Node34</title>
<path fill="none" stroke="midnightblue" d="M2637.79,-65.09C2504.03,-64.64 2152.28,-59.46 1862,-20 1858.97,-19.59 1855.83,-19.07 1852.69,-18.49"/>
<polygon fill="midnightblue" stroke="midnightblue" points="2638.16,-68.59 2648.17,-65.12 2638.18,-61.59 2638.16,-68.59"/>
</g>
<!-- Node35 -->
<g id="node35" class="node">
<title>Node35</title>
<g id="a_node35"><a xlink:href="../../d1/dec/RedlichKisterVPSSTP_8cpp.html" target="_top" xlink:title="Definitions for ThermoPhase object for phases which employ excess Gibbs free energy formulations rela...">
<polygon fill="white" stroke="black" points="1871,-0.5 1871,-19.5 2003,-19.5 2003,-0.5 1871,-0.5"/>
<text text-anchor="middle" x="1937" y="-7.5" font-family="Helvetica,sans-Serif" font-size="10.00">RedlichKisterVPSSTP.cpp</text>
</a>
</g>
</g>
<!-- Node22&#45;&gt;Node35 -->
<g id="edge39" class="edge">
<title>Node22&#45;&gt;Node35</title>
<path fill="none" stroke="midnightblue" d="M2638.29,-62.38C2522.55,-56.62 2244.48,-41.61 2012,-20 2009.13,-19.73 2006.19,-19.45 2003.23,-19.14"/>
<polygon fill="midnightblue" stroke="midnightblue" points="2638.15,-65.88 2648.31,-62.88 2638.5,-58.89 2638.15,-65.88"/>
</g>
<!-- Node36 -->
<g id="node36" class="node">
<title>Node36</title>
<g id="a_node36"><a xlink:href="../../dd/d0d/RedlichKwongMFTP_8cpp.html" target="_top" xlink:title=" ">
<polygon fill="white" stroke="black" points="2021,-0.5 2021,-19.5 2145,-19.5 2145,-0.5 2021,-0.5"/>
<text text-anchor="middle" x="2083" y="-7.5" font-family="Helvetica,sans-Serif" font-size="10.00">RedlichKwongMFTP.cpp</text>
</a>
</g>
</g>
<!-- Node22&#45;&gt;Node36 -->
<g id="edge40" class="edge">
<title>Node22&#45;&gt;Node36</title>
<path fill="none" stroke="midnightblue" d="M2638.01,-61.19C2540.42,-54.25 2330.61,-38.56 2154,-20 2151.16,-19.7 2148.25,-19.38 2145.32,-19.05"/>
<polygon fill="midnightblue" stroke="midnightblue" points="2638,-64.7 2648.22,-61.91 2638.49,-57.71 2638,-64.7"/>
</g>
<!-- Node37 -->
<g id="node37" class="node">
<title>Node37</title>
<g id="a_node37"><a xlink:href="../../d1/ddb/StoichSubstance_8cpp.html" target="_top" xlink:title="Definition file for the StoichSubstance class, which represents a fixed&#45;composition incompressible su...">
<polygon fill="white" stroke="black" points="2253,-0.5 2253,-19.5 2363,-19.5 2363,-0.5 2253,-0.5"/>
<text text-anchor="middle" x="2308" y="-7.5" font-family="Helvetica,sans-Serif" font-size="10.00">StoichSubstance.cpp</text>
</a>
</g>
</g>
<!-- Node22&#45;&gt;Node37 -->
<g id="edge42" class="edge">
<title>Node22&#45;&gt;Node37</title>
<path fill="none" stroke="midnightblue" d="M2638.09,-57.31C2574.18,-48.36 2465.44,-33.12 2372,-20 2369.11,-19.59 2366.15,-19.18 2363.16,-18.76"/>
<polygon fill="midnightblue" stroke="midnightblue" points="2637.95,-60.82 2648.34,-58.75 2638.92,-53.89 2637.95,-60.82"/>
</g>
<!-- Node38 -->
<g id="node38" class="node">
<title>Node38</title>
<g id="a_node38"><a xlink:href="../../d4/d7e/SurfPhase_8cpp.html" target="_top" xlink:title="Definitions for a simple thermodynamic model of a surface phase derived from ThermoPhase,...">
<polygon fill="white" stroke="black" points="2381.5,-0.5 2381.5,-19.5 2462.5,-19.5 2462.5,-0.5 2381.5,-0.5"/>
<text text-anchor="middle" x="2422" y="-7.5" font-family="Helvetica,sans-Serif" font-size="10.00">SurfPhase.cpp</text>
</a>
</g>
</g>
<!-- Node22&#45;&gt;Node38 -->
<g id="edge43" class="edge">
<title>Node22&#45;&gt;Node38</title>
<path fill="none" stroke="midnightblue" d="M2640.02,-54.44C2588,-44.08 2509.77,-28.49 2462.53,-19.08"/>
<polygon fill="midnightblue" stroke="midnightblue" points="2639.57,-57.92 2650.06,-56.44 2640.94,-51.06 2639.57,-57.92"/>
</g>
<!-- Node39 -->
<g id="node39" class="node">
<title>Node39</title>
<g id="a_node39"><a xlink:href="../../df/d7e/ThermoPhase_8cpp.html" target="_top" xlink:title="Definition file for class ThermoPhase, the base class for phases with thermodynamic properties (see c...">
<polygon fill="white" stroke="black" points="2481,-0.5 2481,-19.5 2577,-19.5 2577,-0.5 2481,-0.5"/>
<text text-anchor="middle" x="2529" y="-7.5" font-family="Helvetica,sans-Serif" font-size="10.00">ThermoPhase.cpp</text>
</a>
</g>
</g>
<!-- Node22&#45;&gt;Node39 -->
<g id="edge45" class="edge">
<title>Node22&#45;&gt;Node39</title>
<path fill="none" stroke="midnightblue" d="M2657.48,-53.3C2626.58,-43.13 2582.53,-28.62 2554.86,-19.52"/>
<polygon fill="midnightblue" stroke="midnightblue" points="2656.42,-56.64 2667.01,-56.44 2658.61,-49.99 2656.42,-56.64"/>
</g>
<!-- Node40 -->
<g id="node40" class="node">
<title>Node40</title>
<g id="a_node40"><a xlink:href="../../db/de5/WaterSSTP_8cpp.html" target="_top" xlink:title="Definitions for a ThermoPhase class consisting of pure water (see Thermodynamic Properties and class ...">
<polygon fill="white" stroke="black" points="2595,-0.5 2595,-19.5 2681,-19.5 2681,-0.5 2595,-0.5"/>
<text text-anchor="middle" x="2638" y="-7.5" font-family="Helvetica,sans-Serif" font-size="10.00">WaterSSTP.cpp</text>
</a>
</g>
</g>
<!-- Node22&#45;&gt;Node40 -->
<g id="edge46" class="edge">
<title>Node22&#45;&gt;Node40</title>
<path fill="none" stroke="midnightblue" d="M2676.71,-49C2666.96,-39.43 2654.95,-27.64 2646.91,-19.75"/>
<polygon fill="midnightblue" stroke="midnightblue" points="2674.33,-51.57 2683.92,-56.08 2679.23,-46.58 2674.33,-51.57"/>
</g>
<!-- Node41 -->
<g id="node41" class="node">
<title>Node41</title>
<g id="a_node41"><a xlink:href="../../d8/d22/importKinetics_8cpp.html" target="_top" xlink:title="Declarations of global routines for the importing of kinetics data from XML files (see Input File Han...">
<polygon fill="white" stroke="black" points="2699,-0.5 2699,-19.5 2797,-19.5 2797,-0.5 2699,-0.5"/>
<text text-anchor="middle" x="2748" y="-7.5" font-family="Helvetica,sans-Serif" font-size="10.00">importKinetics.cpp</text>
</a>
</g>
</g>
<!-- Node22&#45;&gt;Node41 -->
<g id="edge47" class="edge">
<title>Node22&#45;&gt;Node41</title>
<path fill="none" stroke="midnightblue" d="M2709.29,-49C2719.04,-39.43 2731.05,-27.64 2739.09,-19.75"/>
<polygon fill="midnightblue" stroke="midnightblue" points="2706.77,-46.58 2702.08,-56.08 2711.67,-51.57 2706.77,-46.58"/>
</g>
<!-- Node42 -->
<g id="node42" class="node">
<title>Node42</title>
<g id="a_node42"><a xlink:href="../../df/d32/thermo_8h.html" target="_top" xlink:title="Support for thermo property calculation from C++ application programs.">
<polygon fill="white" stroke="black" points="2815.5,-0.5 2815.5,-19.5 2870.5,-19.5 2870.5,-0.5 2815.5,-0.5"/>
<text text-anchor="middle" x="2843" y="-7.5" font-family="Helvetica,sans-Serif" font-size="10.00">thermo.h</text>
</a>
</g>
</g>
<!-- Node22&#45;&gt;Node42 -->
<g id="edge48" class="edge">
<title>Node22&#45;&gt;Node42</title>
<path fill="none" stroke="midnightblue" d="M2726.22,-53.04C2754.45,-42.88 2794.26,-28.55 2819.34,-19.52"/>
<polygon fill="midnightblue" stroke="midnightblue" points="2724.99,-49.76 2716.77,-56.44 2727.36,-56.35 2724.99,-49.76"/>
</g>
<!-- Node43&#45;&gt;Node12 -->
<g id="edge51" class="edge">
<title>Node43&#45;&gt;Node12</title>
<path fill="none" stroke="midnightblue" d="M1191.57,-65.56C1349.24,-66.35 1790.34,-64.11 2154,-20 2157.01,-19.64 2160.11,-19.18 2163.22,-18.67"/>
<polygon fill="midnightblue" stroke="midnightblue" points="1191.17,-62.06 1181.15,-65.5 1191.13,-69.06 1191.17,-62.06"/>
</g>
<!-- Node44 -->
<g id="node44" class="node">
<title>Node44</title>
<g id="a_node44"><a xlink:href="../../d2/d89/HighPressureGasTransport_8cpp.html" target="_top" xlink:title="Implementation file for class HighPressureGasTransport.">
<polygon fill="white" stroke="black" points="1119,-0.5 1119,-19.5 1273,-19.5 1273,-0.5 1119,-0.5"/>
<text text-anchor="middle" x="1196" y="-7.5" font-family="Helvetica,sans-Serif" font-size="10.00">HighPressureGasTransport.cpp</text>
</a>
</g>
</g>
<!-- Node43&#45;&gt;Node44 -->
<g id="edge50" class="edge">
<title>Node43&#45;&gt;Node44</title>
<path fill="none" stroke="midnightblue" d="M1149.99,-49.82C1161.46,-40.15 1175.91,-27.95 1185.53,-19.83"/>
<polygon fill="midnightblue" stroke="midnightblue" points="1147.67,-47.2 1142.28,-56.32 1152.18,-52.55 1147.67,-47.2"/>
</g>
<!-- Node45 -->
<g id="node45" class="node">
<title>Node45</title>
<g id="a_node45"><a xlink:href="../../d5/dc6/TransportBase_8cpp.html" target="_top" xlink:title="Mixture&#45;averaged transport properties for ideal gas mixtures.">
<polygon fill="white" stroke="black" points="1291.5,-0.5 1291.5,-19.5 1390.5,-19.5 1390.5,-0.5 1291.5,-0.5"/>
<text text-anchor="middle" x="1341" y="-7.5" font-family="Helvetica,sans-Serif" font-size="10.00">TransportBase.cpp</text>
</a>
</g>
</g>
<!-- Node43&#45;&gt;Node45 -->
<g id="edge52" class="edge">
<title>Node43&#45;&gt;Node45</title>
<path fill="none" stroke="midnightblue" d="M1174.98,-53.89C1214.45,-43.7 1272.1,-28.8 1308.04,-19.52"/>
<polygon fill="midnightblue" stroke="midnightblue" points="1173.92,-50.55 1165.12,-56.44 1175.67,-57.33 1173.92,-50.55"/>
</g>
<!-- Node46 -->
<g id="node46" class="node">
<title>Node46</title>
<g id="a_node46"><a xlink:href="../../d2/d33/TransportFactory_8cpp.html" target="_top" xlink:title="Implementation file for class TransportFactory.">
<polygon fill="white" stroke="black" points="911,-0.5 911,-19.5 1019,-19.5 1019,-0.5 911,-0.5"/>
<text text-anchor="middle" x="965" y="-7.5" font-family="Helvetica,sans-Serif" font-size="10.00">TransportFactory.cpp</text>
</a>
</g>
</g>
<!-- Node43&#45;&gt;Node46 -->
<g id="edge53" class="edge">
<title>Node43&#45;&gt;Node46</title>
<path fill="none" stroke="midnightblue" d="M1095.83,-53.3C1064.36,-43.13 1019.51,-28.62 991.34,-19.52"/>
<polygon fill="midnightblue" stroke="midnightblue" points="1094.95,-56.7 1105.54,-56.44 1097.1,-50.04 1094.95,-56.7"/>
</g>
<!-- Node47 -->
<g id="node47" class="node">
<title>Node47</title>
<g id="a_node47"><a xlink:href="../../d2/d02/transport_8h.html" target="_top" xlink:title="Support for transport property calculation from C++ application programs.">
<polygon fill="white" stroke="black" points="1037.5,-0.5 1037.5,-19.5 1100.5,-19.5 1100.5,-0.5 1037.5,-0.5"/>
<text text-anchor="middle" x="1069" y="-7.5" font-family="Helvetica,sans-Serif" font-size="10.00">transport.h</text>
</a>
</g>
</g>
<!-- Node43&#45;&gt;Node47 -->
<g id="edge54" class="edge">
<title>Node43&#45;&gt;Node47</title>
<path fill="none" stroke="midnightblue" d="M1113.96,-49.54C1102.73,-39.91 1088.68,-27.87 1079.31,-19.83"/>
<polygon fill="midnightblue" stroke="midnightblue" points="1112.01,-52.47 1121.88,-56.32 1116.56,-47.16 1112.01,-52.47"/>
</g>
<!-- Node48&#45;&gt;Node7 -->
<g id="edge57" class="edge">
<title>Node48&#45;&gt;Node7</title>
<path fill="none" stroke="midnightblue" d="M804.41,-53.89C764.2,-43.4 704.94,-27.94 669.63,-18.73"/>
<polygon fill="midnightblue" stroke="midnightblue" points="803.64,-57.31 814.2,-56.44 805.41,-50.53 803.64,-57.31"/>
</g>
<!-- Node49 -->
<g id="node49" class="node">
<title>Node49</title>
<g id="a_node49"><a xlink:href="../../db/d00/WallFactory_8cpp.html" target="_top" xlink:title=" ">
<polygon fill="white" stroke="black" points="807,-0.5 807,-19.5 893,-19.5 893,-0.5 807,-0.5"/>
<text text-anchor="middle" x="850" y="-7.5" font-family="Helvetica,sans-Serif" font-size="10.00">WallFactory.cpp</text>
</a>
</g>
</g>
<!-- Node48&#45;&gt;Node49 -->
<g id="edge56" class="edge">
<title>Node48&#45;&gt;Node49</title>
<path fill="none" stroke="midnightblue" d="M848.07,-45.8C848.56,-36.91 849.12,-26.78 849.51,-19.75"/>
<polygon fill="midnightblue" stroke="midnightblue" points="844.56,-45.9 847.5,-56.08 851.54,-46.29 844.56,-45.9"/>
</g>
</g>
</svg>
