<?xml version="1.0" encoding="UTF-8" standalone="no"?>
<!DOCTYPE svg PUBLIC "-//W3C//DTD SVG 1.1//EN"
 "http://www.w3.org/Graphics/SVG/1.1/DTD/svg11.dtd">
<!-- Generated by graphviz version 2.50.0 (0)
 -->
<!-- Title: ChebyshevReaction2 Pages: 1 -->
<svg width="270pt" height="286pt"
 viewBox="0.00 0.00 269.50 286.00" xmlns="http://www.w3.org/2000/svg" xmlns:xlink="http://www.w3.org/1999/xlink">
<g id="graph0" class="graph" transform="scale(1 1) rotate(0) translate(4 282)">
<title>ChebyshevReaction2</title>
<polygon fill="white" stroke="transparent" points="-4,4 -4,-282 265.5,-282 265.5,4 -4,4"/>
<!-- Node1 -->
<g id="node1" class="node">
<title>Node1</title>
<g id="a_node1"><a xlink:title="A pressure&#45;dependent reaction parameterized by a bi&#45;variate Chebyshev polynomial in temperature and p...">
<polygon fill="#bfbfbf" stroke="black" points="34,-0.5 34,-19.5 144,-19.5 144,-0.5 34,-0.5"/>
<text text-anchor="middle" x="89" y="-7.5" font-family="Helvetica,sans-Serif" font-size="10.00">ChebyshevReaction2</text>
</a>
</g>
</g>
<!-- Node2 -->
<g id="node2" class="node">
<title>Node2</title>
<g id="a_node2"><a xlink:href="../../d5/d66/classCantera_1_1Reaction.html" target="_top" xlink:title="Abstract base class which stores data about a reaction and its rate parameterization so that it can b...">
<polygon fill="white" stroke="black" points="17,-67.5 17,-86.5 73,-86.5 73,-67.5 17,-67.5"/>
<text text-anchor="middle" x="45" y="-74.5" font-family="Helvetica,sans-Serif" font-size="10.00">Reaction</text>
</a>
</g>
</g>
<!-- Node2&#45;&gt;Node1 -->
<g id="edge1" class="edge">
<title>Node2&#45;&gt;Node1</title>
<path fill="none" stroke="midnightblue" d="M56.57,-58.9C65.12,-46.27 76.41,-29.6 83.16,-19.63"/>
<polygon fill="midnightblue" stroke="midnightblue" points="53.64,-56.99 50.93,-67.23 59.44,-60.91 53.64,-56.99"/>
</g>
<!-- Node3 -->
<g id="node3" class="node">
<title>Node3</title>
<g id="a_node3"><a xlink:href="../../db/d74/classCantera_1_1AnyMap.html" target="_top" xlink:title="A map of string keys to values whose type can vary at runtime.">
<polygon fill="white" stroke="black" points="1.5,-201.5 1.5,-220.5 54.5,-220.5 54.5,-201.5 1.5,-201.5"/>
<text text-anchor="middle" x="28" y="-208.5" font-family="Helvetica,sans-Serif" font-size="10.00">AnyMap</text>
</a>
</g>
</g>
<!-- Node3&#45;&gt;Node2 -->
<g id="edge2" class="edge">
<title>Node3&#45;&gt;Node2</title>
<path fill="none" stroke="#9a32cd" stroke-dasharray="5,2" d="M23.32,-191.61C20.08,-176.12 17.01,-153.43 21,-134 24.62,-116.39 34.01,-97.47 39.92,-86.75"/>
<polygon fill="#9a32cd" stroke="#9a32cd" points="19.94,-192.53 25.6,-201.48 26.75,-190.94 19.94,-192.53"/>
<text text-anchor="middle" x="33.5" y="-141.5" font-family="Helvetica,sans-Serif" font-size="10.00"> input</text>
</g>
<!-- Node7 -->
<g id="node7" class="node">
<title>Node7</title>
<g id="a_node7"><a xlink:href="../../d0/d19/classCantera_1_1ReactionRate.html" target="_top" xlink:title="Abstract base class for reaction rate definitions; this base class is used by user&#45;facing APIs to acc...">
<polygon fill="white" stroke="black" points="113.5,-134.5 113.5,-153.5 190.5,-153.5 190.5,-134.5 113.5,-134.5"/>
<text text-anchor="middle" x="152" y="-141.5" font-family="Helvetica,sans-Serif" font-size="10.00">ReactionRate</text>
</a>
</g>
</g>
<!-- Node3&#45;&gt;Node7 -->
<g id="edge7" class="edge">
<title>Node3&#45;&gt;Node7</title>
<path fill="none" stroke="#9a32cd" stroke-dasharray="5,2" d="M53.56,-196.6C78.11,-183.73 114.49,-164.66 135.47,-153.67"/>
<polygon fill="#9a32cd" stroke="#9a32cd" points="51.7,-193.63 44.47,-201.37 54.95,-199.83 51.7,-193.63"/>
<text text-anchor="middle" x="117" y="-175" font-family="Helvetica,sans-Serif" font-size="10.00"> m_input</text>
</g>
<!-- Node4 -->
<g id="node4" class="node">
<title>Node4</title>
<g id="a_node4"><a xlink:href="../../d9/d23/classCantera_1_1AnyBase.html" target="_top" xlink:title="Base class defining common data possessed by both AnyMap and AnyValue objects.">
<polygon fill="white" stroke="black" points="0,-258.5 0,-277.5 56,-277.5 56,-258.5 0,-258.5"/>
<text text-anchor="middle" x="28" y="-265.5" font-family="Helvetica,sans-Serif" font-size="10.00">AnyBase</text>
</a>
</g>
</g>
<!-- Node4&#45;&gt;Node3 -->
<g id="edge3" class="edge">
<title>Node4&#45;&gt;Node3</title>
<path fill="none" stroke="midnightblue" d="M28,-248.12C28,-238.82 28,-228.06 28,-220.71"/>
<polygon fill="midnightblue" stroke="midnightblue" points="24.5,-248.41 28,-258.41 31.5,-248.41 24.5,-248.41"/>
</g>
<!-- Node5 -->
<g id="node5" class="node">
<title>Node5</title>
<g id="a_node5"><a xlink:href="../../db/d63/classCantera_1_1Units.html" target="_top" xlink:title="A representation of the units associated with a dimensional quantity.">
<polygon fill="white" stroke="black" points="55,-134.5 55,-153.5 95,-153.5 95,-134.5 55,-134.5"/>
<text text-anchor="middle" x="75" y="-141.5" font-family="Helvetica,sans-Serif" font-size="10.00">Units</text>
</a>
</g>
</g>
<!-- Node5&#45;&gt;Node2 -->
<g id="edge4" class="edge">
<title>Node5&#45;&gt;Node2</title>
<path fill="none" stroke="#9a32cd" stroke-dasharray="5,2" d="M54.19,-127.64C50.89,-124.19 47.93,-120.28 46,-116 41.77,-106.62 42.32,-94.56 43.4,-86.57"/>
<polygon fill="#9a32cd" stroke="#9a32cd" points="51.93,-130.31 61.71,-134.37 56.6,-125.09 51.93,-130.31"/>
<text text-anchor="middle" x="69" y="-108" font-family="Helvetica,sans-Serif" font-size="10.00"> rate_units</text>
</g>
<!-- Node6 -->
<g id="node6" class="node">
<title>Node6</title>
<g id="a_node6"><a xlink:href="../../d1/db6/classCantera_1_1ChebyshevRate.html" target="_top" xlink:title="Pressure&#45;dependent rate expression where the rate coefficient is expressed as a bivariate Chebyshev p...">
<polygon fill="white" stroke="black" points="118.5,-67.5 118.5,-86.5 205.5,-86.5 205.5,-67.5 118.5,-67.5"/>
<text text-anchor="middle" x="162" y="-74.5" font-family="Helvetica,sans-Serif" font-size="10.00">ChebyshevRate</text>
</a>
</g>
</g>
<!-- Node5&#45;&gt;Node6 -->
<g id="edge9" class="edge">
<title>Node5&#45;&gt;Node6</title>
<path fill="none" stroke="#9a32cd" stroke-dasharray="5,2" d="M88.4,-126.6C94.77,-119.42 102.78,-111.24 111,-105 120.57,-97.73 132.38,-91.34 142.22,-86.61"/>
<polygon fill="#9a32cd" stroke="#9a32cd" points="85.59,-124.5 81.76,-134.38 90.92,-129.04 85.59,-124.5"/>
<text text-anchor="middle" x="141" y="-108" font-family="Helvetica,sans-Serif" font-size="10.00"> m_rate_units</text>
</g>
<!-- Node6&#45;&gt;Node1 -->
<g id="edge5" class="edge">
<title>Node6&#45;&gt;Node1</title>
<path fill="none" stroke="#9a32cd" stroke-dasharray="5,2" d="M144.43,-60.36C130.08,-47.58 110.33,-29.99 98.69,-19.63"/>
<polygon fill="#9a32cd" stroke="#9a32cd" points="142.36,-63.2 152.15,-67.23 147.01,-57.97 142.36,-63.2"/>
<text text-anchor="middle" x="140" y="-41" font-family="Helvetica,sans-Serif" font-size="10.00"> rate</text>
</g>
<!-- Node7&#45;&gt;Node6 -->
<g id="edge6" class="edge">
<title>Node7&#45;&gt;Node6</title>
<path fill="none" stroke="midnightblue" d="M169.14,-126.42C171.54,-123.21 173.64,-119.68 175,-116 178.66,-106.05 173.39,-94.52 168.51,-86.79"/>
<polygon fill="midnightblue" stroke="midnightblue" points="166.36,-124.28 162.42,-134.11 171.63,-128.88 166.36,-124.28"/>
</g>
<!-- Node8 -->
<g id="node8" class="node">
<title>Node8</title>
<g id="a_node8"><a xlink:href="../../d1/dcf/classCantera_1_1Array2D.html" target="_top" xlink:title="A class for 2D arrays stored in column&#45;major (Fortran&#45;compatible) form.">
<polygon fill="white" stroke="black" points="208.5,-134.5 208.5,-153.5 261.5,-153.5 261.5,-134.5 208.5,-134.5"/>
<text text-anchor="middle" x="235" y="-141.5" font-family="Helvetica,sans-Serif" font-size="10.00">Array2D</text>
</a>
</g>
</g>
<!-- Node8&#45;&gt;Node6 -->
<g id="edge8" class="edge">
<title>Node8&#45;&gt;Node6</title>
<path fill="none" stroke="#9a32cd" stroke-dasharray="5,2" d="M217.43,-127.36C203.08,-114.58 183.33,-96.99 171.69,-86.63"/>
<polygon fill="#9a32cd" stroke="#9a32cd" points="215.36,-130.2 225.15,-134.23 220.01,-124.97 215.36,-130.2"/>
<text text-anchor="middle" x="225" y="-108" font-family="Helvetica,sans-Serif" font-size="10.00"> m_coeffs</text>
</g>
</g>
</svg>
