<?xml version="1.0" encoding="UTF-8" standalone="no"?>
<!DOCTYPE svg PUBLIC "-//W3C//DTD SVG 1.1//EN"
 "http://www.w3.org/Graphics/SVG/1.1/DTD/svg11.dtd">
<!-- Generated by graphviz version 2.43.0 (0)
 -->
<!-- Title: InterfaceRateBase Pages: 1 -->
<svg width="288pt" height="159pt"
 viewBox="0.00 0.00 287.50 159.00" xmlns="http://www.w3.org/2000/svg" xmlns:xlink="http://www.w3.org/1999/xlink">
<g id="graph0" class="graph" transform="scale(1 1) rotate(0) translate(4 155)">
<title>InterfaceRateBase</title>
<!-- Node1 -->
<g id="Node000001" class="node">
<title>Node1</title>
<g id="a_Node000001"><a xlink:title="Base class for rate parameterizations that involve interfaces.">
<polygon fill="#999999" stroke="#666666" points="194.5,-151 87.5,-151 87.5,-132 194.5,-132 194.5,-151"/>
<text text-anchor="middle" x="141" y="-139" font-family="Helvetica,sans-Serif" font-size="10.00">InterfaceRateBase</text>
</a>
</g>
</g>
<!-- Node2 -->
<g id="Node000002" class="node">
<title>Node2</title>
<g id="a_Node000002"><a xlink:href="../../d4/df1/classCantera_1_1InterfaceRate.html" target="_top" xlink:title="A class template for interface reaction rate specifications.">
<polygon fill="white" stroke="#666666" points="142,-96 0,-96 0,-66 142,-66 142,-96"/>
<text text-anchor="start" x="8" y="-84" font-family="Helvetica,sans-Serif" font-size="10.00">InterfaceRate&lt; RateType,</text>
<text text-anchor="middle" x="71" y="-73" font-family="Helvetica,sans-Serif" font-size="10.00"> DataType &gt;</text>
</a>
</g>
</g>
<!-- Node1&#45;&gt;Node2 -->
<g id="edge1_Node000001_Node000002" class="edge">
<title>Node1&#45;&gt;Node2</title>
<g id="a_edge1_Node000001_Node000002"><a xlink:title=" ">
<path fill="none" stroke="#63b8ff" d="M122.73,-125.23C111.96,-116.23 98.42,-104.91 87.89,-96.11"/>
<polygon fill="#63b8ff" stroke="#63b8ff" points="120.75,-128.14 130.67,-131.87 125.24,-122.77 120.75,-128.14"/>
</a>
</g>
</g>
<!-- Node3 -->
<g id="Node000003" class="node">
<title>Node3</title>
<g id="a_Node000003"><a xlink:href="../../db/da8/classCantera_1_1StickingCoverage.html" target="_top" xlink:title="Base class for rate parameterizations that implement sticking coefficients.">
<polygon fill="white" stroke="#666666" points="262,-90.5 160,-90.5 160,-71.5 262,-71.5 262,-90.5"/>
<text text-anchor="middle" x="211" y="-78.5" font-family="Helvetica,sans-Serif" font-size="10.00">StickingCoverage</text>
</a>
</g>
</g>
<!-- Node1&#45;&gt;Node3 -->
<g id="edge2_Node000001_Node000003" class="edge">
<title>Node1&#45;&gt;Node3</title>
<g id="a_edge2_Node000001_Node000003"><a xlink:title=" ">
<path fill="none" stroke="#63b8ff" d="M159.28,-125.22C172.45,-114.21 189.76,-99.75 200.63,-90.67"/>
<polygon fill="#63b8ff" stroke="#63b8ff" points="156.76,-122.77 151.33,-131.87 161.25,-128.14 156.76,-122.77"/>
</a>
</g>
</g>
<!-- Node4 -->
<g id="Node000004" class="node">
<title>Node4</title>
<g id="a_Node000004"><a xlink:href="../../d2/d1a/classCantera_1_1StickingRate.html" target="_top" xlink:title="A class template for interface sticking rate specifications.">
<polygon fill="white" stroke="#666666" points="279.5,-30 142.5,-30 142.5,0 279.5,0 279.5,-30"/>
<text text-anchor="start" x="150.5" y="-18" font-family="Helvetica,sans-Serif" font-size="10.00">StickingRate&lt; RateType,</text>
<text text-anchor="middle" x="211" y="-7" font-family="Helvetica,sans-Serif" font-size="10.00"> DataType &gt;</text>
</a>
</g>
</g>
<!-- Node3&#45;&gt;Node4 -->
<g id="edge3_Node000003_Node000004" class="edge">
<title>Node3&#45;&gt;Node4</title>
<g id="a_edge3_Node000003_Node000004"><a xlink:title=" ">
<path fill="none" stroke="#63b8ff" d="M211,-61.35C211,-51.47 211,-39.51 211,-30.36"/>
<polygon fill="#63b8ff" stroke="#63b8ff" points="207.5,-61.37 211,-71.37 214.5,-61.37 207.5,-61.37"/>
</a>
</g>
</g>
</g>
</svg>
