<?xml version="1.0" encoding="UTF-8" standalone="no"?>
<!DOCTYPE svg PUBLIC "-//W3C//DTD SVG 1.1//EN"
 "http://www.w3.org/Graphics/SVG/1.1/DTD/svg11.dtd">
<!-- Generated by graphviz version 2.43.0 (0)
 -->
<!-- Title: ExtensionManagerFactory.cpp Pages: 1 -->
<svg width="496pt" height="313pt"
 viewBox="0.00 0.00 496.00 313.00" xmlns="http://www.w3.org/2000/svg" xmlns:xlink="http://www.w3.org/1999/xlink">
<g id="graph0" class="graph" transform="scale(1 1) rotate(0) translate(4 309)">
<title>ExtensionManagerFactory.cpp</title>
<!-- Node1 -->
<g id="Node000001" class="node">
<title>Node1</title>
<g id="a_Node000001"><a xlink:title=" ">
<polygon fill="#999999" stroke="#666666" points="378,-305 217,-305 217,-286 378,-286 378,-305"/>
<text text-anchor="middle" x="297.5" y="-293" font-family="Helvetica,sans-Serif" font-size="10.00">ExtensionManagerFactory.cpp</text>
</a>
</g>
</g>
<!-- Node2 -->
<g id="Node000002" class="node">
<title>Node2</title>
<g id="a_Node000002"><a xlink:href="../../dd/d4e/ExtensionManagerFactory_8h.html" target="_top" xlink:title=" ">
<polygon fill="white" stroke="#666666" points="384,-250 211,-250 211,-220 384,-220 384,-250"/>
<text text-anchor="start" x="219" y="-238" font-family="Helvetica,sans-Serif" font-size="10.00">cantera/base/ExtensionManager</text>
<text text-anchor="middle" x="297.5" y="-227" font-family="Helvetica,sans-Serif" font-size="10.00">Factory.h</text>
</a>
</g>
</g>
<!-- Node1&#45;&gt;Node2 -->
<g id="edge1_Node000001_Node000002" class="edge">
<title>Node1&#45;&gt;Node2</title>
<g id="a_edge1_Node000001_Node000002"><a xlink:title=" ">
<path fill="none" stroke="#63b8ff" d="M297.5,-285.87C297.5,-279.11 297.5,-269.35 297.5,-260.26"/>
<polygon fill="#63b8ff" stroke="#63b8ff" points="301,-260.11 297.5,-250.11 294,-260.11 301,-260.11"/>
</a>
</g>
</g>
<!-- Node3 -->
<g id="Node000003" class="node">
<title>Node3</title>
<g id="a_Node000003"><a xlink:href="../../d6/dd5/FactoryBase_8h.html" target="_top" xlink:title="File contains the FactoryBase class declarations.">
<polygon fill="white" stroke="#666666" points="281,-184 196,-184 196,-165 281,-165 281,-184"/>
<text text-anchor="middle" x="238.5" y="-172" font-family="Helvetica,sans-Serif" font-size="10.00">FactoryBase.h</text>
</a>
</g>
</g>
<!-- Node2&#45;&gt;Node3 -->
<g id="edge2_Node000002_Node000003" class="edge">
<title>Node2&#45;&gt;Node3</title>
<g id="a_edge2_Node000002_Node000003"><a xlink:title=" ">
<path fill="none" stroke="#63b8ff" d="M283.22,-219.84C274.57,-211.26 263.51,-200.3 254.56,-191.42"/>
<polygon fill="#63b8ff" stroke="#63b8ff" points="256.91,-188.82 247.34,-184.27 251.98,-193.79 256.91,-188.82"/>
</a>
</g>
</g>
<!-- Node24 -->
<g id="Node000024" class="node">
<title>Node24</title>
<g id="a_Node000024"><a xlink:href="../../d8/d0d/ExtensionManager_8h.html" target="_top" xlink:title=" ">
<polygon fill="white" stroke="#666666" points="433.5,-184 317.5,-184 317.5,-165 433.5,-165 433.5,-184"/>
<text text-anchor="middle" x="375.5" y="-172" font-family="Helvetica,sans-Serif" font-size="10.00">ExtensionManager.h</text>
</a>
</g>
</g>
<!-- Node2&#45;&gt;Node24 -->
<g id="edge13_Node000002_Node000024" class="edge">
<title>Node2&#45;&gt;Node24</title>
<g id="a_edge13_Node000002_Node000024"><a xlink:title=" ">
<path fill="none" stroke="#63b8ff" d="M316.38,-219.84C328.28,-210.91 343.62,-199.41 355.7,-190.35"/>
<polygon fill="#63b8ff" stroke="#63b8ff" points="357.91,-193.07 363.81,-184.27 353.71,-187.47 357.91,-193.07"/>
</a>
</g>
</g>
<!-- Node4 -->
<g id="Node000004" class="node">
<title>Node4</title>
<g id="a_Node000004"><a xlink:title=" ">
<polygon fill="#e0e0e0" stroke="#999999" points="159.5,-129 111.5,-129 111.5,-110 159.5,-110 159.5,-129"/>
<text text-anchor="middle" x="135.5" y="-117" font-family="Helvetica,sans-Serif" font-size="10.00">mutex</text>
</a>
</g>
</g>
<!-- Node3&#45;&gt;Node4 -->
<g id="edge3_Node000003_Node000004" class="edge">
<title>Node3&#45;&gt;Node4</title>
<g id="a_edge3_Node000003_Node000004"><a xlink:title=" ">
<path fill="none" stroke="#63b8ff" d="M221.95,-164.98C205.61,-156.57 180.37,-143.59 161.37,-133.81"/>
<polygon fill="#63b8ff" stroke="#63b8ff" points="162.84,-130.63 152.35,-129.17 159.64,-136.86 162.84,-130.63"/>
</a>
</g>
</g>
<!-- Node5 -->
<g id="Node000005" class="node">
<title>Node5</title>
<g id="a_Node000005"><a xlink:title=" ">
<polygon fill="#e0e0e0" stroke="#999999" points="93,-129 0,-129 0,-110 93,-110 93,-129"/>
<text text-anchor="middle" x="46.5" y="-117" font-family="Helvetica,sans-Serif" font-size="10.00">unordered_map</text>
</a>
</g>
</g>
<!-- Node3&#45;&gt;Node5 -->
<g id="edge4_Node000003_Node000005" class="edge">
<title>Node3&#45;&gt;Node5</title>
<g id="a_edge4_Node000003_Node000005"><a xlink:title=" ">
<path fill="none" stroke="#63b8ff" d="M207.65,-164.98C175,-155.97 123.3,-141.7 87.3,-131.76"/>
<polygon fill="#63b8ff" stroke="#63b8ff" points="88.16,-128.37 77.59,-129.08 86.3,-135.12 88.16,-128.37"/>
</a>
</g>
</g>
<!-- Node6 -->
<g id="Node000006" class="node">
<title>Node6</title>
<g id="a_Node000006"><a xlink:href="../../db/d98/ctexceptions_8h.html" target="_top" xlink:title="Definitions for the classes that are thrown when Cantera experiences an error condition (also contain...">
<polygon fill="white" stroke="#666666" points="471.5,-129 317.5,-129 317.5,-110 471.5,-110 471.5,-129"/>
<text text-anchor="middle" x="394.5" y="-117" font-family="Helvetica,sans-Serif" font-size="10.00">cantera/base/ctexceptions.h</text>
</a>
</g>
</g>
<!-- Node3&#45;&gt;Node6 -->
<g id="edge5_Node000003_Node000006" class="edge">
<title>Node3&#45;&gt;Node6</title>
<g id="a_edge5_Node000003_Node000006"><a xlink:title=" ">
<path fill="none" stroke="#63b8ff" d="M263.56,-164.98C289.53,-156.16 330.31,-142.31 359.46,-132.41"/>
<polygon fill="#63b8ff" stroke="#63b8ff" points="360.9,-135.61 369.24,-129.08 358.65,-128.99 360.9,-135.61"/>
</a>
</g>
</g>
<!-- Node23 -->
<g id="Node000023" class="node">
<title>Node23</title>
<g id="a_Node000023"><a xlink:href="../../d2/d49/global_8h.html" target="_top" xlink:title="This file contains definitions for utility functions and text for modules, inputfiles and logging,...">
<polygon fill="white" stroke="#666666" points="299.5,-129 177.5,-129 177.5,-110 299.5,-110 299.5,-129"/>
<text text-anchor="middle" x="238.5" y="-117" font-family="Helvetica,sans-Serif" font-size="10.00">cantera/base/global.h</text>
</a>
</g>
</g>
<!-- Node3&#45;&gt;Node23 -->
<g id="edge10_Node000003_Node000023" class="edge">
<title>Node3&#45;&gt;Node23</title>
<g id="a_edge10_Node000003_Node000023"><a xlink:title=" ">
<path fill="none" stroke="#63b8ff" d="M238.5,-164.75C238.5,-157.8 238.5,-147.85 238.5,-139.13"/>
<polygon fill="#63b8ff" stroke="#63b8ff" points="242,-139.09 238.5,-129.09 235,-139.09 242,-139.09"/>
</a>
</g>
</g>
<!-- Node7 -->
<g id="Node000007" class="node">
<title>Node7</title>
<g id="a_Node000007"><a xlink:href="../../d9/ddc/ct__defs_8h.html" target="_top" xlink:title="This file contains definitions of constants, types and terms that are used in internal routines and a...">
<polygon fill="#fff0f0" stroke="red" points="342,-19 281,-19 281,0 342,0 342,-19"/>
<text text-anchor="middle" x="311.5" y="-7" font-family="Helvetica,sans-Serif" font-size="10.00">ct_defs.h</text>
</a>
</g>
</g>
<!-- Node6&#45;&gt;Node7 -->
<g id="edge6_Node000006_Node000007" class="edge">
<title>Node6&#45;&gt;Node7</title>
<g id="a_edge6_Node000006_Node000007"><a xlink:title=" ">
<path fill="none" stroke="#63b8ff" d="M393.74,-109.9C392.21,-96.9 387.79,-71.96 375.5,-55 366.11,-42.04 351.73,-31.55 338.98,-24.02"/>
<polygon fill="#63b8ff" stroke="#63b8ff" points="340.52,-20.87 330.08,-19.07 337.12,-26.99 340.52,-20.87"/>
</a>
</g>
</g>
<!-- Node18 -->
<g id="Node000018" class="node">
<title>Node18</title>
<g id="a_Node000018"><a xlink:href="../../db/def/fmt_8h.html" target="_top" xlink:title="Wrapper for either system&#45;installed or local headers for fmt.">
<polygon fill="#fff0f0" stroke="red" points="366,-74 257,-74 257,-55 366,-55 366,-74"/>
<text text-anchor="middle" x="311.5" y="-62" font-family="Helvetica,sans-Serif" font-size="10.00">cantera/base/fmt.h</text>
</a>
</g>
</g>
<!-- Node6&#45;&gt;Node18 -->
<g id="edge7_Node000006_Node000018" class="edge">
<title>Node6&#45;&gt;Node18</title>
<g id="a_edge7_Node000006_Node000018"><a xlink:title=" ">
<path fill="none" stroke="#63b8ff" d="M381.16,-109.98C368.41,-101.84 348.95,-89.41 333.83,-79.76"/>
<polygon fill="#63b8ff" stroke="#63b8ff" points="335.39,-76.6 325.08,-74.17 331.62,-82.5 335.39,-76.6"/>
</a>
</g>
</g>
<!-- Node22 -->
<g id="Node000022" class="node">
<title>Node22</title>
<g id="a_Node000022"><a xlink:title=" ">
<polygon fill="#e0e0e0" stroke="#999999" points="488,-74 423,-74 423,-55 488,-55 488,-74"/>
<text text-anchor="middle" x="455.5" y="-62" font-family="Helvetica,sans-Serif" font-size="10.00">exception</text>
</a>
</g>
</g>
<!-- Node6&#45;&gt;Node22 -->
<g id="edge9_Node000006_Node000022" class="edge">
<title>Node6&#45;&gt;Node22</title>
<g id="a_edge9_Node000006_Node000022"><a xlink:title=" ">
<path fill="none" stroke="#63b8ff" d="M404.3,-109.98C413.32,-102.15 426.91,-90.34 437.82,-80.86"/>
<polygon fill="#63b8ff" stroke="#63b8ff" points="440.27,-83.37 445.52,-74.17 435.68,-78.09 440.27,-83.37"/>
</a>
</g>
</g>
<!-- Node18&#45;&gt;Node7 -->
<g id="edge8_Node000018_Node000007" class="edge">
<title>Node18&#45;&gt;Node7</title>
<g id="a_edge8_Node000018_Node000007"><a xlink:title=" ">
<path fill="none" stroke="#63b8ff" d="M311.5,-54.75C311.5,-47.8 311.5,-37.85 311.5,-29.13"/>
<polygon fill="#63b8ff" stroke="#63b8ff" points="315,-29.09 311.5,-19.09 308,-29.09 315,-29.09"/>
</a>
</g>
</g>
<!-- Node23&#45;&gt;Node7 -->
<g id="edge11_Node000023_Node000007" class="edge">
<title>Node23&#45;&gt;Node7</title>
<g id="a_edge11_Node000023_Node000007"><a xlink:title=" ">
<path fill="none" stroke="#63b8ff" d="M237.66,-109.98C236.81,-97.07 236.87,-72.25 247.5,-55 255.72,-41.65 269.61,-31.27 282.36,-23.9"/>
<polygon fill="#63b8ff" stroke="#63b8ff" points="284.19,-26.89 291.34,-19.07 280.87,-20.73 284.19,-26.89"/>
</a>
</g>
</g>
<!-- Node23&#45;&gt;Node18 -->
<g id="edge12_Node000023_Node000018" class="edge">
<title>Node23&#45;&gt;Node18</title>
<g id="a_edge12_Node000023_Node000018"><a xlink:title=" ">
<path fill="none" stroke="#63b8ff" d="M250.23,-109.98C261.23,-102 277.92,-89.88 291.1,-80.31"/>
<polygon fill="#63b8ff" stroke="#63b8ff" points="293.52,-82.88 299.56,-74.17 289.41,-77.21 293.52,-82.88"/>
</a>
</g>
</g>
<!-- Node24&#45;&gt;Node6 -->
<g id="edge14_Node000024_Node000006" class="edge">
<title>Node24&#45;&gt;Node6</title>
<g id="a_edge14_Node000024_Node000006"><a xlink:title=" ">
<path fill="none" stroke="#63b8ff" d="M378.64,-164.75C381.18,-157.65 384.86,-147.4 388.03,-138.56"/>
<polygon fill="#63b8ff" stroke="#63b8ff" points="391.34,-139.68 391.42,-129.09 384.75,-137.32 391.34,-139.68"/>
</a>
</g>
</g>
</g>
</svg>
