<?xml version="1.0" encoding="UTF-8" standalone="no"?>
<!DOCTYPE svg PUBLIC "-//W3C//DTD SVG 1.1//EN"
 "http://www.w3.org/Graphics/SVG/1.1/DTD/svg11.dtd">
<!-- Generated by graphviz version 6.0.1 (0)
 -->
<!-- Title: Wall.cpp Pages: 1 -->
<!--zoomable 522 -->
<svg id="main" version="1.1" xmlns="http://www.w3.org/2000/svg" xmlns:xlink="http://www.w3.org/1999/xlink" xml:space="preserve" onload="init(evt)">
<style type="text/css"><![CDATA[
.edge:hover path { stroke: red; }
.edge:hover polygon { stroke: red; fill: red; }
]]></style>
<script type="text/javascript"><![CDATA[
var edges = document.getElementsByTagName('g');
if (edges && edges.length) {
  for (var i=0;i<edges.length;i++) {
    if (edges[i].id.substr(0,4)=='edge') {
      edges[i].setAttribute('class','edge');
    }
  }
}
]]></script>
        <defs>
                <circle id="rim" cx="0" cy="0" r="7"/>
                <circle id="rim2" cx="0" cy="0" r="3.5"/>
                <g id="zoomPlus">
                        <use xlink:href="#rim" fill="#404040">
                                <set attributeName="fill" to="#808080" begin="zoomplus.mouseover" end="zoomplus.mouseout"/>
                        </use>
                        <path d="M-4,0h8M0,-4v8" fill="none" stroke="white" stroke-width="1.5" pointer-events="none"/>
                </g>
                <g id="zoomMin">
                        <use xlink:href="#rim" fill="#404040">
                                <set attributeName="fill" to="#808080" begin="zoomminus.mouseover" end="zoomminus.mouseout"/>
                        </use>
                        <path d="M-4,0h8" fill="none" stroke="white" stroke-width="1.5" pointer-events="none"/>
                </g>
                <g id="dirArrow">
                        <path fill="none" stroke="white" stroke-width="1.5" d="M0,-3.0v7 M-2.5,-0.5L0,-3.0L2.5,-0.5"/>
                </g>
               <g id="resetDef">
                       <use xlink:href="#rim2" fill="#404040">
                               <set attributeName="fill" to="#808080" begin="reset.mouseover" end="reset.mouseout"/>
                       </use>
               </g>
        </defs>

<script type="text/javascript">
var viewWidth = 855;
var viewHeight = 522;
var sectionId = 'dynsection-0';
</script>
<script xlink:href="../../svgpan.js"/>
<svg id="graph" class="graph">
<g id="viewport">
<title>Wall.cpp</title>
<!-- Node1 -->
<g id="node1" class="node">
<title>Node1</title>
<g id="a_node1"><a xlink:title=" ">
<polygon fill="#999999" stroke="#666666" points="482,-514 428,-514 428,-495 482,-495 482,-514"/>
<text text-anchor="middle" x="455" y="-502" font-family="Helvetica,sans-Serif" font-size="10.00">Wall.cpp</text>
</a>
</g>
</g>
<!-- Node2 -->
<g id="node2" class="node">
<title>Node2</title>
<g id="a_node2"><a xlink:href="../../dd/dc3/stringUtils_8h.html" target="_top" xlink:title="Contains declarations for string manipulation functions within Cantera.">
<polygon fill="white" stroke="#666666" points="781,-404 653,-404 653,-385 781,-385 781,-404"/>
<text text-anchor="middle" x="717" y="-392" font-family="Helvetica,sans-Serif" font-size="10.00">cantera/base/stringUtils.h</text>
</a>
</g>
</g>
<!-- Node1&#45;&gt;Node2 -->
<g id="edge1" class="edge">
<title>Node1&#45;&gt;Node2</title>
<path fill="none" stroke="#63b8ff" d="M475.7,-494.97C497.45,-486.01 532.63,-471.52 563,-459 605.95,-441.3 655.62,-420.81 686.68,-408"/>
<polygon fill="#63b8ff" stroke="#63b8ff" points="688.17,-411.18 696.08,-404.13 685.5,-404.71 688.17,-411.18"/>
</g>
<!-- Node14 -->
<g id="node14" class="node">
<title>Node14</title>
<g id="a_node14"><a xlink:href="../../d2/d9e/Func1_8h.html" target="_top" xlink:title=" ">
<polygon fill="white" stroke="#666666" points="148,-239 18,-239 18,-220 148,-220 148,-239"/>
<text text-anchor="middle" x="83" y="-227" font-family="Helvetica,sans-Serif" font-size="10.00">cantera/numerics/Func1.h</text>
</a>
</g>
</g>
<!-- Node1&#45;&gt;Node14 -->
<g id="edge13" class="edge">
<title>Node1&#45;&gt;Node14</title>
<path fill="none" stroke="#63b8ff" d="M427.72,-501.22C343.94,-493.48 96,-464.73 96,-395.5 96,-395.5 96,-395.5 96,-338.5 96,-306.96 90.47,-270.62 86.62,-249.15"/>
<polygon fill="#63b8ff" stroke="#63b8ff" points="90.03,-248.33 84.75,-239.14 83.15,-249.61 90.03,-248.33"/>
</g>
<!-- Node21 -->
<g id="node21" class="node">
<title>Node21</title>
<g id="a_node21"><a xlink:href="../../da/dcb/Wall_8h.html" target="_top" xlink:title="Header file for base class WallBase.">
<polygon fill="white" stroke="#666666" points="396,-349 288,-349 288,-330 396,-330 396,-349"/>
<text text-anchor="middle" x="342" y="-337" font-family="Helvetica,sans-Serif" font-size="10.00">cantera/zeroD/Wall.h</text>
</a>
</g>
</g>
<!-- Node1&#45;&gt;Node21 -->
<g id="edge23" class="edge">
<title>Node1&#45;&gt;Node21</title>
<path fill="none" stroke="#63b8ff" d="M443.47,-494.9C432.83,-486.55 417.05,-473.11 406,-459 380.63,-426.61 359.9,-382.76 349.42,-358.51"/>
<polygon fill="#63b8ff" stroke="#63b8ff" points="352.57,-356.98 345.45,-349.13 346.12,-359.7 352.57,-356.98"/>
</g>
<!-- Node25 -->
<g id="node25" class="node">
<title>Node25</title>
<g id="a_node25"><a xlink:href="../../d2/de5/SurfPhase_8h.html" target="_top" xlink:title="Header for a simple thermodynamics model of a surface phase derived from ThermoPhase,...">
<polygon fill="white" stroke="#666666" points="553.5,-459 414.5,-459 414.5,-440 553.5,-440 553.5,-459"/>
<text text-anchor="middle" x="484" y="-447" font-family="Helvetica,sans-Serif" font-size="10.00">cantera/thermo/SurfPhase.h</text>
</a>
</g>
</g>
<!-- Node1&#45;&gt;Node25 -->
<g id="edge32" class="edge">
<title>Node1&#45;&gt;Node25</title>
<path fill="none" stroke="#63b8ff" d="M459.79,-494.75C463.76,-487.49 469.53,-476.95 474.43,-467.98"/>
<polygon fill="#63b8ff" stroke="#63b8ff" points="477.57,-469.54 479.3,-459.09 471.43,-466.18 477.57,-469.54"/>
</g>
<!-- Node3 -->
<g id="node3" class="node">
<title>Node3</title>
<g id="a_node3"><a xlink:href="../../d9/ddc/ct__defs_8h.html" target="_top" xlink:title="This file contains definitions of constants, types and terms that are used in internal routines and a...">
<polygon fill="white" stroke="#666666" points="553.5,-74 496.5,-74 496.5,-55 553.5,-55 553.5,-74"/>
<text text-anchor="middle" x="525" y="-62" font-family="Helvetica,sans-Serif" font-size="10.00">ct_defs.h</text>
</a>
</g>
</g>
<!-- Node2&#45;&gt;Node3 -->
<g id="edge2" class="edge">
<title>Node2&#45;&gt;Node3</title>
<path fill="none" stroke="#63b8ff" d="M732.95,-384.83C759.76,-368.96 811,-332.48 811,-285.5 811,-285.5 811,-285.5 811,-173.5 811,-134.06 783.68,-128.8 749,-110 689.82,-77.92 610.62,-68.82 563.98,-66.33"/>
<polygon fill="#63b8ff" stroke="#63b8ff" points="563.84,-62.82 553.69,-65.86 563.52,-69.81 563.84,-62.82"/>
</g>
<!-- Node4 -->
<g id="node4" class="node">
<title>Node4</title>
<g id="a_node4"><a xlink:href="../../db/d16/config_8h_source.html" target="_top" xlink:title=" ">
<polygon fill="white" stroke="#666666" points="274.5,-19 223.5,-19 223.5,0 274.5,0 274.5,-19"/>
<text text-anchor="middle" x="249" y="-7" font-family="Helvetica,sans-Serif" font-size="10.00">config.h</text>
</a>
</g>
</g>
<!-- Node3&#45;&gt;Node4 -->
<g id="edge3" class="edge">
<title>Node3&#45;&gt;Node4</title>
<path fill="none" stroke="#63b8ff" d="M496.33,-58.74C452.8,-51.39 367.2,-36.5 284.4,-18.98"/>
<polygon fill="#63b8ff" stroke="#63b8ff" points="285.09,-15.55 274.58,-16.89 283.63,-22.39 285.09,-15.55"/>
</g>
<!-- Node5 -->
<g id="node5" class="node">
<title>Node5</title>
<g id="a_node5"><a xlink:title=" ">
<polygon fill="#e0e0e0" stroke="#999999" points="337,-19 293,-19 293,0 337,0 337,-19"/>
<text text-anchor="middle" x="315" y="-7" font-family="Helvetica,sans-Serif" font-size="10.00">cmath</text>
</a>
</g>
</g>
<!-- Node3&#45;&gt;Node5 -->
<g id="edge4" class="edge">
<title>Node3&#45;&gt;Node5</title>
<path fill="none" stroke="#63b8ff" d="M496.3,-56.46C461.09,-47.8 399.59,-32.56 347,-19 346.9,-18.97 346.8,-18.95 346.7,-18.92"/>
<polygon fill="#63b8ff" stroke="#63b8ff" points="347.58,-15.54 337.02,-16.4 345.81,-22.31 347.58,-15.54"/>
</g>
<!-- Node6 -->
<g id="node6" class="node">
<title>Node6</title>
<g id="a_node6"><a xlink:title=" ">
<polygon fill="#e0e0e0" stroke="#999999" points="400.5,-19 355.5,-19 355.5,0 400.5,0 400.5,-19"/>
<text text-anchor="middle" x="378" y="-7" font-family="Helvetica,sans-Serif" font-size="10.00">cstdlib</text>
</a>
</g>
</g>
<!-- Node3&#45;&gt;Node6 -->
<g id="edge5" class="edge">
<title>Node3&#45;&gt;Node6</title>
<path fill="none" stroke="#63b8ff" d="M501.38,-54.98C476.66,-46.07 437.69,-32.02 410.17,-22.1"/>
<polygon fill="#63b8ff" stroke="#63b8ff" points="411.19,-18.75 400.59,-18.65 408.81,-25.33 411.19,-18.75"/>
</g>
<!-- Node7 -->
<g id="node7" class="node">
<title>Node7</title>
<g id="a_node7"><a xlink:title=" ">
<polygon fill="#e0e0e0" stroke="#999999" points="463,-19 419,-19 419,0 463,0 463,-19"/>
<text text-anchor="middle" x="441" y="-7" font-family="Helvetica,sans-Serif" font-size="10.00">vector</text>
</a>
</g>
</g>
<!-- Node3&#45;&gt;Node7 -->
<g id="edge6" class="edge">
<title>Node3&#45;&gt;Node7</title>
<path fill="none" stroke="#63b8ff" d="M511.5,-54.98C498.6,-46.84 478.9,-34.41 463.6,-24.76"/>
<polygon fill="#63b8ff" stroke="#63b8ff" points="465.07,-21.55 454.74,-19.17 461.33,-27.47 465.07,-21.55"/>
</g>
<!-- Node8 -->
<g id="node8" class="node">
<title>Node8</title>
<g id="a_node8"><a xlink:title=" ">
<polygon fill="#e0e0e0" stroke="#999999" points="516.5,-19 481.5,-19 481.5,0 516.5,0 516.5,-19"/>
<text text-anchor="middle" x="499" y="-7" font-family="Helvetica,sans-Serif" font-size="10.00">map</text>
</a>
</g>
</g>
<!-- Node3&#45;&gt;Node8 -->
<g id="edge7" class="edge">
<title>Node3&#45;&gt;Node8</title>
<path fill="none" stroke="#63b8ff" d="M520.71,-54.75C517.19,-47.57 512.09,-37.18 507.72,-28.27"/>
<polygon fill="#63b8ff" stroke="#63b8ff" points="510.76,-26.53 503.21,-19.09 504.48,-29.61 510.76,-26.53"/>
</g>
<!-- Node9 -->
<g id="node9" class="node">
<title>Node9</title>
<g id="a_node9"><a xlink:title=" ">
<polygon fill="#e0e0e0" stroke="#999999" points="565,-19 535,-19 535,0 565,0 565,-19"/>
<text text-anchor="middle" x="550" y="-7" font-family="Helvetica,sans-Serif" font-size="10.00">set</text>
</a>
</g>
</g>
<!-- Node3&#45;&gt;Node9 -->
<g id="edge8" class="edge">
<title>Node3&#45;&gt;Node9</title>
<path fill="none" stroke="#63b8ff" d="M529.13,-54.75C532.51,-47.57 537.42,-37.18 541.62,-28.27"/>
<polygon fill="#63b8ff" stroke="#63b8ff" points="544.85,-29.63 545.95,-19.09 538.52,-26.64 544.85,-29.63"/>
</g>
<!-- Node10 -->
<g id="node10" class="node">
<title>Node10</title>
<g id="a_node10"><a xlink:title=" ">
<polygon fill="#e0e0e0" stroke="#999999" points="624.5,-19 583.5,-19 583.5,0 624.5,0 624.5,-19"/>
<text text-anchor="middle" x="604" y="-7" font-family="Helvetica,sans-Serif" font-size="10.00">string</text>
</a>
</g>
</g>
<!-- Node3&#45;&gt;Node10 -->
<g id="edge9" class="edge">
<title>Node3&#45;&gt;Node10</title>
<path fill="none" stroke="#63b8ff" d="M537.69,-54.98C549.83,-46.84 568.36,-34.41 582.75,-24.76"/>
<polygon fill="#63b8ff" stroke="#63b8ff" points="584.72,-27.65 591.08,-19.17 580.82,-21.84 584.72,-27.65"/>
</g>
<!-- Node11 -->
<g id="node11" class="node">
<title>Node11</title>
<g id="a_node11"><a xlink:title=" ">
<polygon fill="#e0e0e0" stroke="#999999" points="699,-19 643,-19 643,0 699,0 699,-19"/>
<text text-anchor="middle" x="671" y="-7" font-family="Helvetica,sans-Serif" font-size="10.00">algorithm</text>
</a>
</g>
</g>
<!-- Node3&#45;&gt;Node11 -->
<g id="edge10" class="edge">
<title>Node3&#45;&gt;Node11</title>
<path fill="none" stroke="#63b8ff" d="M548.46,-54.98C572.58,-46.23 610.37,-32.51 637.6,-22.62"/>
<polygon fill="#63b8ff" stroke="#63b8ff" points="638.91,-25.87 647.12,-19.17 636.52,-19.29 638.91,-25.87"/>
</g>
<!-- Node12 -->
<g id="node12" class="node">
<title>Node12</title>
<g id="a_node12"><a xlink:title=" ">
<polygon fill="#e0e0e0" stroke="#999999" points="769,-19 717,-19 717,0 769,0 769,-19"/>
<text text-anchor="middle" x="743" y="-7" font-family="Helvetica,sans-Serif" font-size="10.00">memory</text>
</a>
</g>
</g>
<!-- Node3&#45;&gt;Node12 -->
<g id="edge11" class="edge">
<title>Node3&#45;&gt;Node12</title>
<path fill="none" stroke="#63b8ff" d="M553.95,-56.46C593.51,-46.84 664.44,-29.6 707.27,-19.19"/>
<polygon fill="#63b8ff" stroke="#63b8ff" points="708.11,-22.59 717,-16.82 706.45,-15.78 708.11,-22.59"/>
</g>
<!-- Node13 -->
<g id="node13" class="node">
<title>Node13</title>
<g id="a_node13"><a xlink:title=" ">
<polygon fill="#e0e0e0" stroke="#999999" points="846.5,-19 787.5,-19 787.5,0 846.5,0 846.5,-19"/>
<text text-anchor="middle" x="817" y="-7" font-family="Helvetica,sans-Serif" font-size="10.00">functional</text>
</a>
</g>
</g>
<!-- Node3&#45;&gt;Node13 -->
<g id="edge12" class="edge">
<title>Node3&#45;&gt;Node13</title>
<path fill="none" stroke="#63b8ff" d="M553.53,-58.87C598.76,-51.44 689.93,-36.14 777.4,-19.05"/>
<polygon fill="#63b8ff" stroke="#63b8ff" points="778.08,-22.48 787.22,-17.12 776.73,-15.61 778.08,-22.48"/>
</g>
<!-- Node14&#45;&gt;Node3 -->
<g id="edge14" class="edge">
<title>Node14&#45;&gt;Node3</title>
<path fill="none" stroke="#63b8ff" d="M81.19,-219.77C77.16,-197.73 70.15,-139.46 101,-110 128.57,-83.68 386.3,-70.9 485.94,-66.92"/>
<polygon fill="#63b8ff" stroke="#63b8ff" points="486.33,-70.4 496.18,-66.52 486.06,-63.41 486.33,-70.4"/>
</g>
<!-- Node15 -->
<g id="node15" class="node">
<title>Node15</title>
<g id="a_node15"><a xlink:href="../../db/d98/ctexceptions_8h.html" target="_top" xlink:title="Definitions for the classes that are thrown when Cantera experiences an error condition (also contain...">
<polygon fill="white" stroke="#666666" points="417,-184 277,-184 277,-165 417,-165 417,-184"/>
<text text-anchor="middle" x="347" y="-172" font-family="Helvetica,sans-Serif" font-size="10.00">cantera/base/ctexceptions.h</text>
</a>
</g>
</g>
<!-- Node14&#45;&gt;Node15 -->
<g id="edge15" class="edge">
<title>Node14&#45;&gt;Node15</title>
<path fill="none" stroke="#63b8ff" d="M125.42,-219.98C171.37,-210.76 244.75,-196.03 294.35,-186.07"/>
<polygon fill="#63b8ff" stroke="#63b8ff" points="295.14,-189.48 304.25,-184.08 293.76,-182.62 295.14,-189.48"/>
</g>
<!-- Node20 -->
<g id="node20" class="node">
<title>Node20</title>
<g id="a_node20"><a xlink:title=" ">
<polygon fill="#e0e0e0" stroke="#999999" points="54,-184 0,-184 0,-165 54,-165 54,-184"/>
<text text-anchor="middle" x="27" y="-172" font-family="Helvetica,sans-Serif" font-size="10.00">iostream</text>
</a>
</g>
</g>
<!-- Node14&#45;&gt;Node20 -->
<g id="edge22" class="edge">
<title>Node14&#45;&gt;Node20</title>
<path fill="none" stroke="#63b8ff" d="M74,-219.98C65.81,-212.23 53.49,-200.58 43.53,-191.14"/>
<polygon fill="#63b8ff" stroke="#63b8ff" points="45.83,-188.5 36.16,-184.17 41.02,-193.59 45.83,-188.5"/>
</g>
<!-- Node15&#45;&gt;Node3 -->
<g id="edge16" class="edge">
<title>Node15&#45;&gt;Node3</title>
<path fill="none" stroke="#63b8ff" d="M330.7,-164.9C309.71,-152.71 277.73,-129.71 294,-110 317.92,-81.03 426.74,-70.72 486.09,-67.21"/>
<polygon fill="#63b8ff" stroke="#63b8ff" points="486.43,-70.69 496.22,-66.65 486.04,-63.7 486.43,-70.69"/>
</g>
<!-- Node16 -->
<g id="node16" class="node">
<title>Node16</title>
<g id="a_node16"><a xlink:href="../../db/def/fmt_8h.html" target="_top" xlink:title="Wrapper for either system&#45;installed or local headers for fmt.">
<polygon fill="white" stroke="#666666" points="208,-129 110,-129 110,-110 208,-110 208,-129"/>
<text text-anchor="middle" x="159" y="-117" font-family="Helvetica,sans-Serif" font-size="10.00">cantera/base/fmt.h</text>
</a>
</g>
</g>
<!-- Node15&#45;&gt;Node16 -->
<g id="edge17" class="edge">
<title>Node15&#45;&gt;Node16</title>
<path fill="none" stroke="#63b8ff" d="M316.79,-164.98C284.96,-156.01 234.64,-141.82 199.4,-131.89"/>
<polygon fill="#63b8ff" stroke="#63b8ff" points="200.02,-128.43 189.44,-129.08 198.12,-135.16 200.02,-128.43"/>
</g>
<!-- Node19 -->
<g id="node19" class="node">
<title>Node19</title>
<g id="a_node19"><a xlink:title=" ">
<polygon fill="#e0e0e0" stroke="#999999" points="361.5,-129 302.5,-129 302.5,-110 361.5,-110 361.5,-129"/>
<text text-anchor="middle" x="332" y="-117" font-family="Helvetica,sans-Serif" font-size="10.00">exception</text>
</a>
</g>
</g>
<!-- Node15&#45;&gt;Node19 -->
<g id="edge21" class="edge">
<title>Node15&#45;&gt;Node19</title>
<path fill="none" stroke="#63b8ff" d="M344.52,-164.75C342.54,-157.72 339.68,-147.62 337.19,-138.84"/>
<polygon fill="#63b8ff" stroke="#63b8ff" points="340.52,-137.76 334.43,-129.09 333.79,-139.66 340.52,-137.76"/>
</g>
<!-- Node16&#45;&gt;Node3 -->
<g id="edge18" class="edge">
<title>Node16&#45;&gt;Node3</title>
<path fill="none" stroke="#63b8ff" d="M208.36,-111.35C282.08,-100.68 419.4,-80.79 486.33,-71.1"/>
<polygon fill="#63b8ff" stroke="#63b8ff" points="487.05,-74.53 496.45,-69.63 486.05,-67.6 487.05,-74.53"/>
</g>
<!-- Node17 -->
<g id="node17" class="node">
<title>Node17</title>
<g id="a_node17"><a xlink:title=" ">
<polygon fill="#e0e0e0" stroke="#999999" points="148,-74 26,-74 26,-55 148,-55 148,-74"/>
<text text-anchor="middle" x="87" y="-62" font-family="Helvetica,sans-Serif" font-size="10.00">cantera/ext/fmt/format.h</text>
</a>
</g>
</g>
<!-- Node16&#45;&gt;Node17 -->
<g id="edge19" class="edge">
<title>Node16&#45;&gt;Node17</title>
<path fill="none" stroke="#63b8ff" d="M147.43,-109.98C136.58,-102 120.12,-89.88 107.12,-80.31"/>
<polygon fill="#63b8ff" stroke="#63b8ff" points="108.91,-77.28 98.78,-74.17 104.76,-82.92 108.91,-77.28"/>
</g>
<!-- Node18 -->
<g id="node18" class="node">
<title>Node18</title>
<g id="a_node18"><a xlink:title=" ">
<polygon fill="#e0e0e0" stroke="#999999" points="295.5,-74 166.5,-74 166.5,-55 295.5,-55 295.5,-74"/>
<text text-anchor="middle" x="231" y="-62" font-family="Helvetica,sans-Serif" font-size="10.00">cantera/ext/fmt/ostream.h</text>
</a>
</g>
</g>
<!-- Node16&#45;&gt;Node18 -->
<g id="edge20" class="edge">
<title>Node16&#45;&gt;Node18</title>
<path fill="none" stroke="#63b8ff" d="M170.57,-109.98C181.42,-102 197.88,-89.88 210.88,-80.31"/>
<polygon fill="#63b8ff" stroke="#63b8ff" points="213.24,-82.92 219.22,-74.17 209.09,-77.28 213.24,-82.92"/>
</g>
<!-- Node21&#45;&gt;Node15 -->
<g id="edge24" class="edge">
<title>Node21&#45;&gt;Node15</title>
<path fill="none" stroke="#63b8ff" d="M342.27,-329.74C343.05,-304.31 345.33,-230.08 346.41,-194.69"/>
<polygon fill="#63b8ff" stroke="#63b8ff" points="349.92,-194.41 346.73,-184.31 342.92,-194.19 349.92,-194.41"/>
</g>
<!-- Node22 -->
<g id="node22" class="node">
<title>Node22</title>
<g id="a_node22"><a xlink:href="../../dd/dc9/ReactorSurface_8h.html" target="_top" xlink:title="Header file for class ReactorSurface.">
<polygon fill="white" stroke="#666666" points="295,-294 137,-294 137,-275 295,-275 295,-294"/>
<text text-anchor="middle" x="216" y="-282" font-family="Helvetica,sans-Serif" font-size="10.00">cantera/zeroD/ReactorSurface.h</text>
</a>
</g>
</g>
<!-- Node21&#45;&gt;Node22 -->
<g id="edge25" class="edge">
<title>Node21&#45;&gt;Node22</title>
<path fill="none" stroke="#63b8ff" d="M321.76,-329.98C301.3,-321.38 269.47,-307.99 246.07,-298.15"/>
<polygon fill="#63b8ff" stroke="#63b8ff" points="247.19,-294.82 236.61,-294.17 244.47,-301.27 247.19,-294.82"/>
</g>
<!-- Node23 -->
<g id="node23" class="node">
<title>Node23</title>
<g id="a_node23"><a xlink:href="../../d6/df1/ReactorBase_8h.html" target="_top" xlink:title=" ">
<polygon fill="white" stroke="#666666" points="326,-239 180,-239 180,-220 326,-220 326,-239"/>
<text text-anchor="middle" x="253" y="-227" font-family="Helvetica,sans-Serif" font-size="10.00">cantera/zeroD/ReactorBase.h</text>
</a>
</g>
</g>
<!-- Node21&#45;&gt;Node23 -->
<g id="edge31" class="edge">
<title>Node21&#45;&gt;Node23</title>
<path fill="none" stroke="#63b8ff" d="M337.86,-329.72C331.59,-316.93 318.83,-292.74 304,-275 294.81,-264.01 282.82,-253.4 272.76,-245.3"/>
<polygon fill="#63b8ff" stroke="#63b8ff" points="274.92,-242.54 264.88,-239.13 270.6,-248.05 274.92,-242.54"/>
</g>
<!-- Node22&#45;&gt;Node23 -->
<g id="edge26" class="edge">
<title>Node22&#45;&gt;Node23</title>
<path fill="none" stroke="#63b8ff" d="M222.11,-274.75C227.28,-267.34 234.85,-256.5 241.19,-247.41"/>
<polygon fill="#63b8ff" stroke="#63b8ff" points="244.15,-249.29 247,-239.09 238.41,-245.29 244.15,-249.29"/>
</g>
<!-- Node23&#45;&gt;Node15 -->
<g id="edge30" class="edge">
<title>Node23&#45;&gt;Node15</title>
<path fill="none" stroke="#63b8ff" d="M268.1,-219.98C282.82,-211.69 305.42,-198.94 322.67,-189.22"/>
<polygon fill="#63b8ff" stroke="#63b8ff" points="324.63,-192.13 331.62,-184.17 321.19,-186.03 324.63,-192.13"/>
</g>
<!-- Node24 -->
<g id="node24" class="node">
<title>Node24</title>
<g id="a_node24"><a xlink:href="../../d2/d49/global_8h.html" target="_top" xlink:title="This file contains definitions for utility functions and text for modules, inputfiles,...">
<polygon fill="white" stroke="#666666" points="259,-184 149,-184 149,-165 259,-165 259,-184"/>
<text text-anchor="middle" x="204" y="-172" font-family="Helvetica,sans-Serif" font-size="10.00">cantera/base/global.h</text>
</a>
</g>
</g>
<!-- Node23&#45;&gt;Node24 -->
<g id="edge27" class="edge">
<title>Node23&#45;&gt;Node24</title>
<path fill="none" stroke="#63b8ff" d="M244.91,-219.75C237.84,-212.11 227.41,-200.82 218.85,-191.56"/>
<polygon fill="#63b8ff" stroke="#63b8ff" points="221.3,-189.06 211.94,-184.09 216.16,-193.81 221.3,-189.06"/>
</g>
<!-- Node24&#45;&gt;Node3 -->
<g id="edge28" class="edge">
<title>Node24&#45;&gt;Node3</title>
<path fill="none" stroke="#63b8ff" d="M212.06,-164.92C225.68,-151 254.71,-123.68 285,-110 351.57,-79.94 437.29,-70.19 486.2,-67.02"/>
<polygon fill="#63b8ff" stroke="#63b8ff" points="486.57,-70.51 496.35,-66.43 486.16,-63.52 486.57,-70.51"/>
</g>
<!-- Node24&#45;&gt;Node16 -->
<g id="edge29" class="edge">
<title>Node24&#45;&gt;Node16</title>
<path fill="none" stroke="#63b8ff" d="M196.57,-164.75C190.15,-157.18 180.69,-146.05 172.88,-136.84"/>
<polygon fill="#63b8ff" stroke="#63b8ff" points="175.43,-134.45 166.29,-129.09 170.1,-138.98 175.43,-134.45"/>
</g>
<!-- Node26 -->
<g id="node26" class="node">
<title>Node26</title>
<g id="a_node26"><a xlink:href="../../d7/d01/ThermoPhase_8h.html" target="_top" xlink:title="Header file for class ThermoPhase, the base class for phases with thermodynamic properties,...">
<polygon fill="white" stroke="#666666" points="542,-404 456,-404 456,-385 542,-385 542,-404"/>
<text text-anchor="middle" x="499" y="-392" font-family="Helvetica,sans-Serif" font-size="10.00">ThermoPhase.h</text>
</a>
</g>
</g>
<!-- Node25&#45;&gt;Node26 -->
<g id="edge33" class="edge">
<title>Node25&#45;&gt;Node26</title>
<path fill="none" stroke="#63b8ff" d="M486.48,-439.75C488.46,-432.72 491.32,-422.62 493.81,-413.84"/>
<polygon fill="#63b8ff" stroke="#63b8ff" points="497.21,-414.66 496.57,-404.09 490.48,-412.76 497.21,-414.66"/>
</g>
<!-- Node27 -->
<g id="node27" class="node">
<title>Node27</title>
<g id="a_node27"><a xlink:href="../../da/d84/Phase_8h.html" target="_top" xlink:title="Header file for class Phase.">
<polygon fill="white" stroke="#666666" points="486.5,-239 433.5,-239 433.5,-220 486.5,-220 486.5,-239"/>
<text text-anchor="middle" x="460" y="-227" font-family="Helvetica,sans-Serif" font-size="10.00">Phase.h</text>
</a>
</g>
</g>
<!-- Node26&#45;&gt;Node27 -->
<g id="edge34" class="edge">
<title>Node26&#45;&gt;Node27</title>
<path fill="none" stroke="#63b8ff" d="M495.96,-384.71C492.93,-375.78 488.29,-361.53 485,-349 475.84,-314.04 467.71,-272.61 463.36,-249.15"/>
<polygon fill="#63b8ff" stroke="#63b8ff" points="466.78,-248.4 461.53,-239.19 459.89,-249.66 466.78,-248.4"/>
</g>
<!-- Node31 -->
<g id="node30" class="node">
<title>Node31</title>
<g id="a_node30"><a xlink:href="../../d6/d7a/MultiSpeciesThermo_8h.html" target="_top" xlink:title="Header for a general species thermodynamic property manager for a phase (see MultiSpeciesThermo).">
<polygon fill="white" stroke="#666666" points="648,-349 534,-349 534,-330 648,-330 648,-349"/>
<text text-anchor="middle" x="591" y="-337" font-family="Helvetica,sans-Serif" font-size="10.00">MultiSpeciesThermo.h</text>
</a>
</g>
</g>
<!-- Node26&#45;&gt;Node31 -->
<g id="edge40" class="edge">
<title>Node26&#45;&gt;Node31</title>
<path fill="none" stroke="#63b8ff" d="M513.78,-384.98C528.18,-376.69 550.31,-363.94 567.19,-354.22"/>
<polygon fill="#63b8ff" stroke="#63b8ff" points="569.03,-357.19 575.95,-349.17 565.54,-351.13 569.03,-357.19"/>
</g>
<!-- Node33 -->
<g id="node32" class="node">
<title>Node33</title>
<g id="a_node32"><a xlink:href="../../dd/d2a/AnyMap_8h.html" target="_top" xlink:title=" ">
<polygon fill="#fff0f0" stroke="red" points="657,-239 537,-239 537,-220 657,-220 657,-239"/>
<text text-anchor="middle" x="597" y="-227" font-family="Helvetica,sans-Serif" font-size="10.00">cantera/base/AnyMap.h</text>
</a>
</g>
</g>
<!-- Node26&#45;&gt;Node33 -->
<g id="edge50" class="edge">
<title>Node26&#45;&gt;Node33</title>
<path fill="none" stroke="#63b8ff" d="M498.1,-384.83C496.38,-363.89 494.74,-309.72 519,-275 529.13,-260.5 545.6,-250.11 560.8,-243.04"/>
<polygon fill="#63b8ff" stroke="#63b8ff" points="562.24,-246.23 570.04,-239.06 559.47,-239.8 562.24,-246.23"/>
</g>
<!-- Node34 -->
<g id="node33" class="node">
<title>Node34</title>
<g id="a_node33"><a xlink:href="../../da/d58/Units_8h.html" target="_top" xlink:title="Header for unit conversion utilities, which are used to translate user input from input files (See In...">
<polygon fill="white" stroke="#666666" points="744.5,-184 637.5,-184 637.5,-165 744.5,-165 744.5,-184"/>
<text text-anchor="middle" x="691" y="-172" font-family="Helvetica,sans-Serif" font-size="10.00">cantera/base/Units.h</text>
</a>
</g>
</g>
<!-- Node26&#45;&gt;Node34 -->
<g id="edge49" class="edge">
<title>Node26&#45;&gt;Node34</title>
<path fill="none" stroke="#63b8ff" d="M542.19,-391.98C577.33,-388.5 626.01,-378.24 657,-349 700.11,-308.32 697.53,-230.29 693.66,-194.41"/>
<polygon fill="#63b8ff" stroke="#63b8ff" points="697.11,-193.83 692.41,-184.34 690.17,-194.69 697.11,-193.83"/>
</g>
<!-- Node27&#45;&gt;Node15 -->
<g id="edge35" class="edge">
<title>Node27&#45;&gt;Node15</title>
<path fill="none" stroke="#63b8ff" d="M441.84,-219.98C423.75,-211.5 395.72,-198.35 374.81,-188.54"/>
<polygon fill="#63b8ff" stroke="#63b8ff" points="376.03,-185.25 365.49,-184.17 373.05,-191.59 376.03,-185.25"/>
</g>
<!-- Node28 -->
<g id="node28" class="node">
<title>Node28</title>
<g id="a_node28"><a xlink:href="../../d9/dda/Elements_8h.html" target="_top" xlink:title="Contains the getElementWeight function and the definitions of element constraint types.">
<polygon fill="white" stroke="#666666" points="669,-129 535,-129 535,-110 669,-110 669,-129"/>
<text text-anchor="middle" x="602" y="-117" font-family="Helvetica,sans-Serif" font-size="10.00">cantera/thermo/Elements.h</text>
</a>
</g>
</g>
<!-- Node27&#45;&gt;Node28 -->
<g id="edge36" class="edge">
<title>Node27&#45;&gt;Node28</title>
<path fill="none" stroke="#63b8ff" d="M471.62,-219.66C495.98,-201.14 552.59,-158.08 582.57,-135.28"/>
<polygon fill="#63b8ff" stroke="#63b8ff" points="584.78,-138 590.62,-129.16 580.54,-132.43 584.78,-138"/>
</g>
<!-- Node29 -->
<g id="node29" class="node">
<title>Node29</title>
<g id="a_node29"><a xlink:href="../../d6/df6/ValueCache_8h.html" target="_top" xlink:title=" ">
<polygon fill="#fff0f0" stroke="red" points="516.5,-129 379.5,-129 379.5,-110 516.5,-110 516.5,-129"/>
<text text-anchor="middle" x="448" y="-117" font-family="Helvetica,sans-Serif" font-size="10.00">cantera/base/ValueCache.h</text>
</a>
</g>
</g>
<!-- Node27&#45;&gt;Node29 -->
<g id="edge38" class="edge">
<title>Node27&#45;&gt;Node29</title>
<path fill="none" stroke="#63b8ff" d="M459.02,-219.66C457.07,-202.17 452.7,-162.8 450.09,-139.27"/>
<polygon fill="#63b8ff" stroke="#63b8ff" points="453.55,-138.71 448.96,-129.16 446.59,-139.48 453.55,-138.71"/>
</g>
<!-- Node28&#45;&gt;Node3 -->
<g id="edge37" class="edge">
<title>Node28&#45;&gt;Node3</title>
<path fill="none" stroke="#63b8ff" d="M589.63,-109.98C577.91,-101.92 560.08,-89.65 546.11,-80.03"/>
<polygon fill="#63b8ff" stroke="#63b8ff" points="547.82,-76.96 537.6,-74.17 543.85,-82.72 547.82,-76.96"/>
</g>
<!-- Node29&#45;&gt;Node3 -->
<g id="edge39" class="edge">
<title>Node29&#45;&gt;Node3</title>
<path fill="none" stroke="#63b8ff" d="M460.37,-109.98C472.09,-101.92 489.92,-89.65 503.89,-80.03"/>
<polygon fill="#63b8ff" stroke="#63b8ff" points="506.15,-82.72 512.4,-74.17 502.18,-76.96 506.15,-82.72"/>
</g>
<!-- Node32 -->
<g id="node31" class="node">
<title>Node32</title>
<g id="a_node31"><a xlink:href="../../d4/d87/SpeciesThermoInterpType_8h.html" target="_top" xlink:title="Pure Virtual Base class for individual species reference state thermodynamic managers and text for th...">
<polygon fill="white" stroke="#666666" points="666.5,-294 527.5,-294 527.5,-275 666.5,-275 666.5,-294"/>
<text text-anchor="middle" x="597" y="-282" font-family="Helvetica,sans-Serif" font-size="10.00">SpeciesThermoInterpType.h</text>
</a>
</g>
</g>
<!-- Node31&#45;&gt;Node32 -->
<g id="edge41" class="edge">
<title>Node31&#45;&gt;Node32</title>
<path fill="none" stroke="#63b8ff" d="M591.99,-329.75C592.78,-322.8 593.9,-312.85 594.89,-304.13"/>
<polygon fill="#63b8ff" stroke="#63b8ff" points="598.38,-304.42 596.03,-294.09 591.42,-303.63 598.38,-304.42"/>
</g>
<!-- Node32&#45;&gt;Node3 -->
<g id="edge42" class="edge">
<title>Node32&#45;&gt;Node3</title>
<path fill="none" stroke="#63b8ff" d="M631.47,-274.94C681.83,-260.27 768.14,-225.87 754,-165 747.84,-138.47 748.42,-126.82 727,-110 702.03,-90.39 615.19,-76.64 563.85,-70.01"/>
<polygon fill="#63b8ff" stroke="#63b8ff" points="564.14,-66.52 553.78,-68.74 563.27,-73.46 564.14,-66.52"/>
</g>
<!-- Node32&#45;&gt;Node15 -->
<g id="edge43" class="edge">
<title>Node32&#45;&gt;Node15</title>
<path fill="none" stroke="#63b8ff" d="M539.42,-275C504.91,-268.37 460.92,-257.17 425,-239 400.81,-226.77 377.27,-206.02 362.49,-191.58"/>
<polygon fill="#63b8ff" stroke="#63b8ff" points="364.78,-188.91 355.24,-184.3 359.82,-193.85 364.78,-188.91"/>
</g>
<!-- Node32&#45;&gt;Node33 -->
<g id="edge44" class="edge">
<title>Node32&#45;&gt;Node33</title>
<path fill="none" stroke="#63b8ff" d="M597,-274.75C597,-267.8 597,-257.85 597,-249.13"/>
<polygon fill="#63b8ff" stroke="#63b8ff" points="600.5,-249.09 597,-239.09 593.5,-249.09 600.5,-249.09"/>
</g>
<!-- Node33&#45;&gt;Node3 -->
<g id="edge45" class="edge">
<title>Node33&#45;&gt;Node3</title>
<path fill="none" stroke="#63b8ff" d="M599.84,-219.95C604.44,-207.01 614.49,-182.16 629,-165 650.14,-140 697.65,-136.18 678,-110 664.26,-91.69 604.36,-78.46 563.71,-71.39"/>
<polygon fill="#63b8ff" stroke="#63b8ff" points="564.27,-67.94 553.83,-69.73 563.11,-74.84 564.27,-67.94"/>
</g>
<!-- Node33&#45;&gt;Node15 -->
<g id="edge46" class="edge">
<title>Node33&#45;&gt;Node15</title>
<path fill="none" stroke="#63b8ff" d="M556.83,-219.98C513.5,-210.8 444.41,-196.15 397.44,-186.19"/>
<polygon fill="#63b8ff" stroke="#63b8ff" points="397.99,-182.73 387.48,-184.08 396.54,-189.58 397.99,-182.73"/>
</g>
<!-- Node33&#45;&gt;Node34 -->
<g id="edge47" class="edge">
<title>Node33&#45;&gt;Node34</title>
<path fill="none" stroke="#63b8ff" d="M612.1,-219.98C626.82,-211.69 649.42,-198.94 666.67,-189.22"/>
<polygon fill="#63b8ff" stroke="#63b8ff" points="668.63,-192.13 675.62,-184.17 665.19,-186.03 668.63,-192.13"/>
</g>
<!-- Node34&#45;&gt;Node3 -->
<g id="edge48" class="edge">
<title>Node34&#45;&gt;Node3</title>
<path fill="none" stroke="#63b8ff" d="M698.31,-164.79C708.42,-151.64 724.03,-126.51 711,-110 693,-87.19 612.65,-74.76 563.63,-69.19"/>
<polygon fill="#63b8ff" stroke="#63b8ff" points="564,-65.71 553.68,-68.1 563.24,-72.67 564,-65.71"/>
</g>
</g>
</svg>
        <g id="navigator" transform="translate(0 0)" fill="#404254">
                <rect fill="#f2f5e9" fill-opacity="0.5" stroke="#606060" stroke-width=".5" x="0" y="0" width="60" height="60"/>
                <use id="zoomplus" xlink:href="#zoomPlus" x="17" y="9" onmousedown="handleZoom(evt,'in')"/>
                <use id="zoomminus" xlink:href="#zoomMin" x="42" y="9" onmousedown="handleZoom(evt,'out')"/>
                <use id="reset" xlink:href="#resetDef" x="30" y="36" onmousedown="handleReset()"/>
                <g id="arrowUp" xlink:href="#dirArrow" transform="translate(30 24)" onmousedown="handlePan(0,-1)">
                  <use xlink:href="#rim" fill="#404040">
                        <set attributeName="fill" to="#808080" begin="arrowUp.mouseover" end="arrowUp.mouseout"/>
                  </use>
                  <path fill="none" stroke="white" stroke-width="1.5" d="M0,-3.0v7 M-2.5,-0.5L0,-3.0L2.5,-0.5"/>
                </g>
                <g id="arrowRight" xlink:href="#dirArrow" transform="rotate(90) translate(36 -43)" onmousedown="handlePan(1,0)">
                  <use xlink:href="#rim" fill="#404040">
                        <set attributeName="fill" to="#808080" begin="arrowRight.mouseover" end="arrowRight.mouseout"/>
                  </use>
                  <path fill="none" stroke="white" stroke-width="1.5" d="M0,-3.0v7 M-2.5,-0.5L0,-3.0L2.5,-0.5"/>
                </g>
                <g id="arrowDown" xlink:href="#dirArrow" transform="rotate(180) translate(-30 -48)" onmousedown="handlePan(0,1)">
                  <use xlink:href="#rim" fill="#404040">
                        <set attributeName="fill" to="#808080" begin="arrowDown.mouseover" end="arrowDown.mouseout"/>
                  </use>
                  <path fill="none" stroke="white" stroke-width="1.5" d="M0,-3.0v7 M-2.5,-0.5L0,-3.0L2.5,-0.5"/>
                </g>
                <g id="arrowLeft" xlink:href="#dirArrow" transform="rotate(270) translate(-36 17)" onmousedown="handlePan(-1,0)">
                  <use xlink:href="#rim" fill="#404040">
                        <set attributeName="fill" to="#808080" begin="arrowLeft.mouseover" end="arrowLeft.mouseout"/>
                  </use>
                  <path fill="none" stroke="white" stroke-width="1.5" d="M0,-3.0v7 M-2.5,-0.5L0,-3.0L2.5,-0.5"/>
                </g>
        </g>
        <svg viewBox="0 0 15 15" width="100%" height="30px" preserveAspectRatio="xMaxYMin meet">
         <g id="arrow_out" transform="scale(0.3 0.3)">
          <a xlink:href="Wall_8cpp__incl_org.svg" target="_base">
           <rect id="button" ry="5" rx="5" y="6" x="6" height="38" width="38"
                fill="#f2f5e9" fill-opacity="0.5" stroke="#606060" stroke-width="1.0"/>
           <path id="arrow"
             d="M 11.500037,31.436501 C 11.940474,20.09759 22.043105,11.32322 32.158766,21.979434 L 37.068811,17.246167 C 37.068811,17.246167 37.088388,32 37.088388,32 L 22.160133,31.978069 C 22.160133,31.978069 26.997745,27.140456 26.997745,27.140456 C 18.528582,18.264221 13.291696,25.230495 11.500037,31.436501 z"
             style="fill:#404040;"/>
          </a>
         </g>
        </svg>
</svg>
