<?xml version="1.0" encoding="UTF-8" standalone="no"?>
<!DOCTYPE svg PUBLIC "-//W3C//DTD SVG 1.1//EN"
 "http://www.w3.org/Graphics/SVG/1.1/DTD/svg11.dtd">
<!-- Generated by graphviz version 6.0.1 (0)
 -->
<!-- Title: WallFactory.cpp Pages: 1 -->
<svg width="458pt" height="357pt"
 viewBox="0.00 0.00 457.50 357.00" xmlns="http://www.w3.org/2000/svg" xmlns:xlink="http://www.w3.org/1999/xlink">
<g id="graph0" class="graph" transform="scale(1 1) rotate(0) translate(4 353)">
<title>WallFactory.cpp</title>
<!-- Node1 -->
<g id="Node000001" class="node">
<title>Node1</title>
<g id="a_Node000001"><a xlink:title=" ">
<polygon fill="#999999" stroke="#666666" points="259,-349 173,-349 173,-330 259,-330 259,-349"/>
<text text-anchor="middle" x="216" y="-337" font-family="Helvetica,sans-Serif" font-size="10.00">WallFactory.cpp</text>
</a>
</g>
</g>
<!-- Node2 -->
<g id="Node000002" class="node">
<title>Node2</title>
<g id="a_Node000002"><a xlink:href="../../d1/d07/WallFactory_8h.html" target="_top" xlink:title=" ">
<polygon fill="white" stroke="#666666" points="237,-294 97,-294 97,-275 237,-275 237,-294"/>
<text text-anchor="middle" x="167" y="-282" font-family="Helvetica,sans-Serif" font-size="10.00">cantera/zeroD/WallFactory.h</text>
</a>
</g>
</g>
<!-- Node1&#45;&gt;Node2 -->
<g id="edge1_Node000001_Node000002" class="edge">
<title>Node1&#45;&gt;Node2</title>
<g id="a_edge1_Node000001_Node000002"><a xlink:title=" ">
<path fill="none" stroke="#63b8ff" d="M207.91,-329.75C200.84,-322.11 190.41,-310.82 181.85,-301.56"/>
<polygon fill="#63b8ff" stroke="#63b8ff" points="184.3,-299.06 174.94,-294.09 179.16,-303.81 184.3,-299.06"/>
</a>
</g>
</g>
<!-- Node24 -->
<g id="Node000024" class="node">
<title>Node24</title>
<g id="a_Node000024"><a xlink:href="../../da/dcb/Wall_8h.html" target="_top" xlink:title="Header file for base class WallBase.">
<polygon fill="white" stroke="#666666" points="319,-239 211,-239 211,-220 319,-220 319,-239"/>
<text text-anchor="middle" x="265" y="-227" font-family="Helvetica,sans-Serif" font-size="10.00">cantera/zeroD/Wall.h</text>
</a>
</g>
</g>
<!-- Node1&#45;&gt;Node24 -->
<g id="edge18_Node000001_Node000024" class="edge">
<title>Node1&#45;&gt;Node24</title>
<g id="a_edge18_Node000001_Node000024"><a xlink:title=" ">
<path fill="none" stroke="#63b8ff" d="M223.05,-329.78C229.75,-321.14 239.7,-307.31 246,-294 252.85,-279.52 257.87,-262.01 261.02,-249.05"/>
<polygon fill="#63b8ff" stroke="#63b8ff" points="264.5,-249.54 263.31,-239.02 257.68,-247.99 264.5,-249.54"/>
</a>
</g>
</g>
<!-- Node3 -->
<g id="Node000003" class="node">
<title>Node3</title>
<g id="a_Node000003"><a xlink:href="../../d6/dd5/FactoryBase_8h.html" target="_top" xlink:title="File contains the FactoryBase class declarations.">
<polygon fill="white" stroke="#666666" points="174,-184 34,-184 34,-165 174,-165 174,-184"/>
<text text-anchor="middle" x="104" y="-172" font-family="Helvetica,sans-Serif" font-size="10.00">cantera/base/FactoryBase.h</text>
</a>
</g>
</g>
<!-- Node2&#45;&gt;Node3 -->
<g id="edge2_Node000002_Node000003" class="edge">
<title>Node2&#45;&gt;Node3</title>
<g id="a_edge2_Node000002_Node000003"><a xlink:title=" ">
<path fill="none" stroke="#63b8ff" d="M161.84,-274.66C151.46,-256.85 127.84,-216.37 114.21,-193.01"/>
<polygon fill="#63b8ff" stroke="#63b8ff" points="117.11,-191.03 109.05,-184.16 111.07,-194.56 117.11,-191.03"/>
</a>
</g>
</g>
<!-- Node2&#45;&gt;Node24 -->
<g id="edge13_Node000002_Node000024" class="edge">
<title>Node2&#45;&gt;Node24</title>
<g id="a_edge13_Node000002_Node000024"><a xlink:title=" ">
<path fill="none" stroke="#63b8ff" d="M182.75,-274.98C198.23,-266.61 222.09,-253.7 240.14,-243.95"/>
<polygon fill="#63b8ff" stroke="#63b8ff" points="241.84,-247.01 248.97,-239.17 238.51,-240.85 241.84,-247.01"/>
</a>
</g>
</g>
<!-- Node4 -->
<g id="Node000004" class="node">
<title>Node4</title>
<g id="a_Node000004"><a xlink:title=" ">
<polygon fill="#e0e0e0" stroke="#999999" points="44,-129 0,-129 0,-110 44,-110 44,-129"/>
<text text-anchor="middle" x="22" y="-117" font-family="Helvetica,sans-Serif" font-size="10.00">mutex</text>
</a>
</g>
</g>
<!-- Node3&#45;&gt;Node4 -->
<g id="edge3_Node000003_Node000004" class="edge">
<title>Node3&#45;&gt;Node4</title>
<g id="a_edge3_Node000003_Node000004"><a xlink:title=" ">
<path fill="none" stroke="#63b8ff" d="M90.83,-164.98C78.23,-156.84 59,-144.41 44.06,-134.76"/>
<polygon fill="#63b8ff" stroke="#63b8ff" points="45.71,-131.66 35.41,-129.17 41.91,-137.54 45.71,-131.66"/>
</a>
</g>
</g>
<!-- Node5 -->
<g id="Node000005" class="node">
<title>Node5</title>
<g id="a_Node000005"><a xlink:title=" ">
<polygon fill="#e0e0e0" stroke="#999999" points="145.5,-129 62.5,-129 62.5,-110 145.5,-110 145.5,-129"/>
<text text-anchor="middle" x="104" y="-117" font-family="Helvetica,sans-Serif" font-size="10.00">unordered_map</text>
</a>
</g>
</g>
<!-- Node3&#45;&gt;Node5 -->
<g id="edge4_Node000003_Node000005" class="edge">
<title>Node3&#45;&gt;Node5</title>
<g id="a_edge4_Node000003_Node000005"><a xlink:title=" ">
<path fill="none" stroke="#63b8ff" d="M104,-164.75C104,-157.8 104,-147.85 104,-139.13"/>
<polygon fill="#63b8ff" stroke="#63b8ff" points="107.5,-139.09 104,-129.09 100.5,-139.09 107.5,-139.09"/>
</a>
</g>
</g>
<!-- Node6 -->
<g id="Node000006" class="node">
<title>Node6</title>
<g id="a_Node000006"><a xlink:href="../../db/d98/ctexceptions_8h.html" target="_top" xlink:title="Definitions for the classes that are thrown when Cantera experiences an error condition (also contain...">
<polygon fill="white" stroke="#666666" points="432,-129 292,-129 292,-110 432,-110 432,-129"/>
<text text-anchor="middle" x="362" y="-117" font-family="Helvetica,sans-Serif" font-size="10.00">cantera/base/ctexceptions.h</text>
</a>
</g>
</g>
<!-- Node3&#45;&gt;Node6 -->
<g id="edge5_Node000003_Node000006" class="edge">
<title>Node3&#45;&gt;Node6</title>
<g id="a_edge5_Node000003_Node000006"><a xlink:title=" ">
<path fill="none" stroke="#63b8ff" d="M145.45,-164.98C190.27,-155.78 261.77,-141.09 310.25,-131.13"/>
<polygon fill="#63b8ff" stroke="#63b8ff" points="311.13,-134.52 320.22,-129.08 309.72,-127.67 311.13,-134.52"/>
</a>
</g>
</g>
<!-- Node23 -->
<g id="Node000023" class="node">
<title>Node23</title>
<g id="a_Node000023"><a xlink:href="../../d2/d49/global_8h.html" target="_top" xlink:title="This file contains definitions for utility functions and text for modules, inputfiles and logging,...">
<polygon fill="white" stroke="#666666" points="274,-129 164,-129 164,-110 274,-110 274,-129"/>
<text text-anchor="middle" x="219" y="-117" font-family="Helvetica,sans-Serif" font-size="10.00">cantera/base/global.h</text>
</a>
</g>
</g>
<!-- Node3&#45;&gt;Node23 -->
<g id="edge10_Node000003_Node000023" class="edge">
<title>Node3&#45;&gt;Node23</title>
<g id="a_edge10_Node000003_Node000023"><a xlink:title=" ">
<path fill="none" stroke="#63b8ff" d="M122.48,-164.98C140.98,-156.46 169.68,-143.23 190.98,-133.41"/>
<polygon fill="#63b8ff" stroke="#63b8ff" points="192.57,-136.53 200.19,-129.17 189.64,-130.18 192.57,-136.53"/>
</a>
</g>
</g>
<!-- Node7 -->
<g id="Node000007" class="node">
<title>Node7</title>
<g id="a_Node000007"><a xlink:href="../../d9/ddc/ct__defs_8h.html" target="_top" xlink:title="This file contains definitions of constants, types and terms that are used in internal routines and a...">
<polygon fill="#fff0f0" stroke="red" points="313.5,-19 256.5,-19 256.5,0 313.5,0 313.5,-19"/>
<text text-anchor="middle" x="285" y="-7" font-family="Helvetica,sans-Serif" font-size="10.00">ct_defs.h</text>
</a>
</g>
</g>
<!-- Node6&#45;&gt;Node7 -->
<g id="edge6_Node000006_Node000007" class="edge">
<title>Node6&#45;&gt;Node7</title>
<g id="a_edge6_Node000006_Node000007"><a xlink:title=" ">
<path fill="none" stroke="#63b8ff" d="M361.13,-109.97C359.48,-97.06 354.89,-72.24 343,-55 334.39,-42.51 321.18,-31.98 309.53,-24.31"/>
<polygon fill="#63b8ff" stroke="#63b8ff" points="311.38,-21.33 301.04,-19.01 307.67,-27.27 311.38,-21.33"/>
</a>
</g>
</g>
<!-- Node18 -->
<g id="Node000018" class="node">
<title>Node18</title>
<g id="a_Node000018"><a xlink:href="../../db/def/fmt_8h.html" target="_top" xlink:title="Wrapper for either system&#45;installed or local headers for fmt.">
<polygon fill="#fff0f0" stroke="red" points="334,-74 236,-74 236,-55 334,-55 334,-74"/>
<text text-anchor="middle" x="285" y="-62" font-family="Helvetica,sans-Serif" font-size="10.00">cantera/base/fmt.h</text>
</a>
</g>
</g>
<!-- Node6&#45;&gt;Node18 -->
<g id="edge7_Node000006_Node000018" class="edge">
<title>Node6&#45;&gt;Node18</title>
<g id="a_edge7_Node000006_Node000018"><a xlink:title=" ">
<path fill="none" stroke="#63b8ff" d="M349.63,-109.98C337.91,-101.92 320.08,-89.65 306.11,-80.03"/>
<polygon fill="#63b8ff" stroke="#63b8ff" points="307.82,-76.96 297.6,-74.17 303.85,-82.72 307.82,-76.96"/>
</a>
</g>
</g>
<!-- Node22 -->
<g id="Node000022" class="node">
<title>Node22</title>
<g id="a_Node000022"><a xlink:title=" ">
<polygon fill="#e0e0e0" stroke="#999999" points="449.5,-74 390.5,-74 390.5,-55 449.5,-55 449.5,-74"/>
<text text-anchor="middle" x="420" y="-62" font-family="Helvetica,sans-Serif" font-size="10.00">exception</text>
</a>
</g>
</g>
<!-- Node6&#45;&gt;Node22 -->
<g id="edge9_Node000006_Node000022" class="edge">
<title>Node6&#45;&gt;Node22</title>
<g id="a_edge9_Node000006_Node000022"><a xlink:title=" ">
<path fill="none" stroke="#63b8ff" d="M371.32,-109.98C379.81,-102.23 392.56,-90.58 402.88,-81.14"/>
<polygon fill="#63b8ff" stroke="#63b8ff" points="405.49,-83.5 410.51,-74.17 400.77,-78.33 405.49,-83.5"/>
</a>
</g>
</g>
<!-- Node18&#45;&gt;Node7 -->
<g id="edge8_Node000018_Node000007" class="edge">
<title>Node18&#45;&gt;Node7</title>
<g id="a_edge8_Node000018_Node000007"><a xlink:title=" ">
<path fill="none" stroke="#63b8ff" d="M285,-54.75C285,-47.8 285,-37.85 285,-29.13"/>
<polygon fill="#63b8ff" stroke="#63b8ff" points="288.5,-29.09 285,-19.09 281.5,-29.09 288.5,-29.09"/>
</a>
</g>
</g>
<!-- Node23&#45;&gt;Node7 -->
<g id="edge11_Node000023_Node000007" class="edge">
<title>Node23&#45;&gt;Node7</title>
<g id="a_edge11_Node000023_Node000007"><a xlink:title=" ">
<path fill="none" stroke="#63b8ff" d="M218.07,-109.62C217.14,-96.69 217.05,-72.35 227,-55 234.4,-42.1 247.17,-31.69 258.85,-24.19"/>
<polygon fill="#63b8ff" stroke="#63b8ff" points="260.68,-27.17 267.46,-19.03 257.08,-21.17 260.68,-27.17"/>
</a>
</g>
</g>
<!-- Node23&#45;&gt;Node18 -->
<g id="edge12_Node000023_Node000018" class="edge">
<title>Node23&#45;&gt;Node18</title>
<g id="a_edge12_Node000023_Node000018"><a xlink:title=" ">
<path fill="none" stroke="#63b8ff" d="M229.6,-109.98C239.46,-102.07 254.35,-90.11 266.22,-80.58"/>
<polygon fill="#63b8ff" stroke="#63b8ff" points="268.6,-83.16 274.2,-74.17 264.21,-77.7 268.6,-83.16"/>
</a>
</g>
</g>
<!-- Node24&#45;&gt;Node6 -->
<g id="edge14_Node000024_Node000006" class="edge">
<title>Node24&#45;&gt;Node6</title>
<g id="a_edge14_Node000024_Node000006"><a xlink:title=" ">
<path fill="none" stroke="#63b8ff" d="M293.34,-219.87C311.31,-212.96 333.62,-201.5 347,-184 356.78,-171.2 360.33,-153.03 361.54,-139.41"/>
<polygon fill="#63b8ff" stroke="#63b8ff" points="365.05,-139.42 362.1,-129.24 358.06,-139.04 365.05,-139.42"/>
</a>
</g>
</g>
<!-- Node25 -->
<g id="Node000025" class="node">
<title>Node25</title>
<g id="a_Node000025"><a xlink:href="../../d6/df1/ReactorBase_8h.html" target="_top" xlink:title=" ">
<polygon fill="white" stroke="#666666" points="338,-184 192,-184 192,-165 338,-165 338,-184"/>
<text text-anchor="middle" x="265" y="-172" font-family="Helvetica,sans-Serif" font-size="10.00">cantera/zeroD/ReactorBase.h</text>
</a>
</g>
</g>
<!-- Node24&#45;&gt;Node25 -->
<g id="edge15_Node000024_Node000025" class="edge">
<title>Node24&#45;&gt;Node25</title>
<g id="a_edge15_Node000024_Node000025"><a xlink:title=" ">
<path fill="none" stroke="#63b8ff" d="M265,-219.75C265,-212.8 265,-202.85 265,-194.13"/>
<polygon fill="#63b8ff" stroke="#63b8ff" points="268.5,-194.09 265,-184.09 261.5,-194.09 268.5,-194.09"/>
</a>
</g>
</g>
<!-- Node25&#45;&gt;Node6 -->
<g id="edge17_Node000025_Node000006" class="edge">
<title>Node25&#45;&gt;Node6</title>
<g id="a_edge17_Node000025_Node000006"><a xlink:title=" ">
<path fill="none" stroke="#63b8ff" d="M280.58,-164.98C295.77,-156.69 319.1,-143.94 336.9,-134.22"/>
<polygon fill="#63b8ff" stroke="#63b8ff" points="339.03,-137.04 346.13,-129.17 335.68,-130.89 339.03,-137.04"/>
</a>
</g>
</g>
<!-- Node25&#45;&gt;Node23 -->
<g id="edge16_Node000025_Node000023" class="edge">
<title>Node25&#45;&gt;Node23</title>
<g id="a_edge16_Node000025_Node000023"><a xlink:title=" ">
<path fill="none" stroke="#63b8ff" d="M257.4,-164.75C250.84,-157.18 241.18,-146.05 233.19,-136.84"/>
<polygon fill="#63b8ff" stroke="#63b8ff" points="235.65,-134.35 226.45,-129.09 230.37,-138.94 235.65,-134.35"/>
</a>
</g>
</g>
</g>
</svg>
