<?xml version="1.0" encoding="UTF-8" standalone="no"?>
<!DOCTYPE svg PUBLIC "-//W3C//DTD SVG 1.1//EN"
 "http://www.w3.org/Graphics/SVG/1.1/DTD/svg11.dtd">
<!-- Generated by graphviz version 6.0.1 (0)
 -->
<!-- Title: PDSS_ConstVol.cpp Pages: 1 -->
<svg width="950pt" height="533pt"
 viewBox="0.00 0.00 949.88 533.00" xmlns="http://www.w3.org/2000/svg" xmlns:xlink="http://www.w3.org/1999/xlink">
<g id="graph0" class="graph" transform="scale(1 1) rotate(0) translate(4 529)">
<title>PDSS_ConstVol.cpp</title>
<!-- Node1 -->
<g id="Node000001" class="node">
<title>Node1</title>
<g id="a_Node000001"><a xlink:title="Implementation of a pressure dependent standard state virtual function.">
<polygon fill="#999999" stroke="#666666" points="525.93,-525 416.93,-525 416.93,-506 525.93,-506 525.93,-525"/>
<text text-anchor="middle" x="471.43" y="-513" font-family="Helvetica,sans-Serif" font-size="10.00">PDSS_ConstVol.cpp</text>
</a>
</g>
</g>
<!-- Node2 -->
<g id="Node000002" class="node">
<title>Node2</title>
<g id="a_Node000002"><a xlink:href="../../d1/d0f/PDSS__ConstVol_8h.html" target="_top" xlink:title="Declarations for the class PDSS_ConstVol (pressure dependent standard state) which handles calculatio...">
<polygon fill="white" stroke="#666666" points="381.93,-470 268.93,-470 268.93,-440 381.93,-440 381.93,-470"/>
<text text-anchor="start" x="276.93" y="-458" font-family="Helvetica,sans-Serif" font-size="10.00">cantera/thermo/PDSS</text>
<text text-anchor="middle" x="325.43" y="-447" font-family="Helvetica,sans-Serif" font-size="10.00">_ConstVol.h</text>
</a>
</g>
</g>
<!-- Node1&#45;&gt;Node2 -->
<g id="edge1_Node000001_Node000002" class="edge">
<title>Node1&#45;&gt;Node2</title>
<g id="a_edge1_Node000001_Node000002"><a xlink:title=" ">
<path fill="none" stroke="#63b8ff" d="M450.2,-505.99C429.28,-497.61 396.67,-484.55 370.04,-473.87"/>
<polygon fill="#63b8ff" stroke="#63b8ff" points="371.11,-470.53 360.53,-470.06 368.51,-477.03 371.11,-470.53"/>
</a>
</g>
</g>
<!-- Node27 -->
<g id="Node000027" class="node">
<title>Node27</title>
<g id="a_Node000027"><a xlink:href="../../df/dfd/VPStandardStateTP_8h.html" target="_top" xlink:title="Header file for a derived class of ThermoPhase that handles variable pressure standard state methods ...">
<polygon fill="white" stroke="#666666" points="539.93,-470 402.93,-470 402.93,-440 539.93,-440 539.93,-470"/>
<text text-anchor="start" x="410.93" y="-458" font-family="Helvetica,sans-Serif" font-size="10.00">cantera/thermo/VPStandard</text>
<text text-anchor="middle" x="471.43" y="-447" font-family="Helvetica,sans-Serif" font-size="10.00">StateTP.h</text>
</a>
</g>
</g>
<!-- Node1&#45;&gt;Node27 -->
<g id="edge27_Node000001_Node000027" class="edge">
<title>Node1&#45;&gt;Node27</title>
<g id="a_edge27_Node000001_Node000027"><a xlink:title=" ">
<path fill="none" stroke="#63b8ff" d="M471.43,-505.87C471.43,-499.11 471.43,-489.35 471.43,-480.26"/>
<polygon fill="#63b8ff" stroke="#63b8ff" points="474.93,-480.11 471.43,-470.11 467.93,-480.11 474.93,-480.11"/>
</a>
</g>
</g>
<!-- Node35 -->
<g id="Node000035" class="node">
<title>Node35</title>
<g id="a_Node000035"><a xlink:href="../../d2/d49/global_8h.html" target="_top" xlink:title="This file contains definitions for utility functions and text for modules, inputfiles and logging,...">
<polygon fill="white" stroke="#666666" points="915.43,-184 805.43,-184 805.43,-165 915.43,-165 915.43,-184"/>
<text text-anchor="middle" x="860.43" y="-172" font-family="Helvetica,sans-Serif" font-size="10.00">cantera/base/global.h</text>
</a>
</g>
</g>
<!-- Node1&#45;&gt;Node35 -->
<g id="edge42_Node000001_Node000035" class="edge">
<title>Node1&#45;&gt;Node35</title>
<g id="a_edge42_Node000001_Node000035"><a xlink:title=" ">
<path fill="none" stroke="#63b8ff" d="M526,-507.05C622.55,-492.33 813.43,-455.62 813.43,-395.5 813.43,-395.5 813.43,-395.5 813.43,-283.5 813.43,-248.92 833.93,-212.9 847.86,-192.43"/>
<polygon fill="#63b8ff" stroke="#63b8ff" points="850.77,-194.37 853.69,-184.18 845.06,-190.32 850.77,-194.37"/>
</a>
</g>
</g>
<!-- Node3 -->
<g id="Node000003" class="node">
<title>Node3</title>
<g id="a_Node000003"><a xlink:href="../../d7/dfa/PDSS_8h.html" target="_top" xlink:title="Declarations for the virtual base class PDSS (pressure dependent standard state) which handles calcul...">
<polygon fill="white" stroke="#666666" points="291.93,-294 238.93,-294 238.93,-275 291.93,-275 291.93,-294"/>
<text text-anchor="middle" x="265.43" y="-282" font-family="Helvetica,sans-Serif" font-size="10.00">PDSS.h</text>
</a>
</g>
</g>
<!-- Node2&#45;&gt;Node3 -->
<g id="edge2_Node000002_Node000003" class="edge">
<title>Node2&#45;&gt;Node3</title>
<g id="a_edge2_Node000002_Node000003"><a xlink:title=" ">
<path fill="none" stroke="#63b8ff" d="M320.41,-439.92C309.59,-409.52 284.02,-337.73 271.95,-303.83"/>
<polygon fill="#63b8ff" stroke="#63b8ff" points="275.2,-302.5 268.54,-294.25 268.6,-304.85 275.2,-302.5"/>
</a>
</g>
</g>
<!-- Node4 -->
<g id="Node000004" class="node">
<title>Node4</title>
<g id="a_Node000004"><a xlink:href="../../d9/ddc/ct__defs_8h.html" target="_top" xlink:title="This file contains definitions of constants, types and terms that are used in internal routines and a...">
<polygon fill="white" stroke="#666666" points="551.43,-74 435.43,-74 435.43,-55 551.43,-55 551.43,-74"/>
<text text-anchor="middle" x="493.43" y="-62" font-family="Helvetica,sans-Serif" font-size="10.00">cantera/base/ct_defs.h</text>
</a>
</g>
</g>
<!-- Node3&#45;&gt;Node4 -->
<g id="edge3_Node000003_Node000004" class="edge">
<title>Node3&#45;&gt;Node4</title>
<g id="a_edge3_Node000003_Node000004"><a xlink:title=" ">
<path fill="none" stroke="#63b8ff" d="M238.81,-282.49C164.4,-278.49 -37.57,-258.93 6.43,-165 22.62,-130.42 37.26,-124.87 72.43,-110 134.27,-83.85 322.32,-72.36 424.9,-67.92"/>
<polygon fill="#63b8ff" stroke="#63b8ff" points="425.31,-71.41 435.15,-67.49 425.02,-64.41 425.31,-71.41"/>
</a>
</g>
</g>
<!-- Node15 -->
<g id="Node000015" class="node">
<title>Node15</title>
<g id="a_Node000015"><a xlink:href="../../dd/d2a/AnyMap_8h.html" target="_top" xlink:title=" ">
<polygon fill="white" stroke="#666666" points="380.43,-239 260.43,-239 260.43,-220 380.43,-220 380.43,-239"/>
<text text-anchor="middle" x="320.43" y="-227" font-family="Helvetica,sans-Serif" font-size="10.00">cantera/base/AnyMap.h</text>
</a>
</g>
</g>
<!-- Node3&#45;&gt;Node15 -->
<g id="edge14_Node000003_Node000015" class="edge">
<title>Node3&#45;&gt;Node15</title>
<g id="a_edge14_Node000003_Node000015"><a xlink:title=" ">
<path fill="none" stroke="#63b8ff" d="M274.51,-274.75C282.52,-267.03 294.38,-255.6 304.05,-246.28"/>
<polygon fill="#63b8ff" stroke="#63b8ff" points="306.74,-248.55 311.51,-239.09 301.88,-243.51 306.74,-248.55"/>
</a>
</g>
</g>
<!-- Node5 -->
<g id="Node000005" class="node">
<title>Node5</title>
<g id="a_Node000005"><a xlink:href="../../db/d16/config_8h_source.html" target="_top" xlink:title=" ">
<polygon fill="white" stroke="#666666" points="243.93,-19 192.93,-19 192.93,0 243.93,0 243.93,-19"/>
<text text-anchor="middle" x="218.43" y="-7" font-family="Helvetica,sans-Serif" font-size="10.00">config.h</text>
</a>
</g>
</g>
<!-- Node4&#45;&gt;Node5 -->
<g id="edge4_Node000004_Node000005" class="edge">
<title>Node4&#45;&gt;Node5</title>
<g id="a_edge4_Node000004_Node000005"><a xlink:title=" ">
<path fill="none" stroke="#63b8ff" d="M442.7,-54.93C396.2,-46.88 325.22,-34.13 254.04,-19.03"/>
<polygon fill="#63b8ff" stroke="#63b8ff" points="254.51,-15.55 244,-16.88 253.05,-22.4 254.51,-15.55"/>
</a>
</g>
</g>
<!-- Node6 -->
<g id="Node000006" class="node">
<title>Node6</title>
<g id="a_Node000006"><a xlink:title=" ">
<polygon fill="#e0e0e0" stroke="#999999" points="306.43,-19 262.43,-19 262.43,0 306.43,0 306.43,-19"/>
<text text-anchor="middle" x="284.43" y="-7" font-family="Helvetica,sans-Serif" font-size="10.00">cmath</text>
</a>
</g>
</g>
<!-- Node4&#45;&gt;Node6 -->
<g id="edge5_Node000004_Node000006" class="edge">
<title>Node4&#45;&gt;Node6</title>
<g id="a_edge5_Node000004_Node000006"><a xlink:title=" ">
<path fill="none" stroke="#63b8ff" d="M458.24,-54.95C424.33,-46.66 371.32,-33.55 316.63,-19.27"/>
<polygon fill="#63b8ff" stroke="#63b8ff" points="317.32,-15.84 306.76,-16.69 315.55,-22.61 317.32,-15.84"/>
</a>
</g>
</g>
<!-- Node7 -->
<g id="Node000007" class="node">
<title>Node7</title>
<g id="a_Node000007"><a xlink:title=" ">
<polygon fill="#e0e0e0" stroke="#999999" points="369.93,-19 324.93,-19 324.93,0 369.93,0 369.93,-19"/>
<text text-anchor="middle" x="347.43" y="-7" font-family="Helvetica,sans-Serif" font-size="10.00">cstdlib</text>
</a>
</g>
</g>
<!-- Node4&#45;&gt;Node7 -->
<g id="edge6_Node000004_Node000007" class="edge">
<title>Node4&#45;&gt;Node7</title>
<g id="a_edge6_Node000004_Node000007"><a xlink:title=" ">
<path fill="none" stroke="#63b8ff" d="M469.97,-54.98C445.56,-46.12 407.16,-32.18 379.85,-22.27"/>
<polygon fill="#63b8ff" stroke="#63b8ff" points="380.94,-18.94 370.34,-18.82 378.55,-25.52 380.94,-18.94"/>
</a>
</g>
</g>
<!-- Node8 -->
<g id="Node000008" class="node">
<title>Node8</title>
<g id="a_Node000008"><a xlink:title=" ">
<polygon fill="#e0e0e0" stroke="#999999" points="432.43,-19 388.43,-19 388.43,0 432.43,0 432.43,-19"/>
<text text-anchor="middle" x="410.43" y="-7" font-family="Helvetica,sans-Serif" font-size="10.00">vector</text>
</a>
</g>
</g>
<!-- Node4&#45;&gt;Node8 -->
<g id="edge7_Node000004_Node000008" class="edge">
<title>Node4&#45;&gt;Node8</title>
<g id="a_edge7_Node000004_Node000008"><a xlink:title=" ">
<path fill="none" stroke="#63b8ff" d="M480.09,-54.98C467.34,-46.84 447.87,-34.41 432.76,-24.76"/>
<polygon fill="#63b8ff" stroke="#63b8ff" points="434.32,-21.6 424,-19.17 430.55,-27.5 434.32,-21.6"/>
</a>
</g>
</g>
<!-- Node9 -->
<g id="Node000009" class="node">
<title>Node9</title>
<g id="a_Node000009"><a xlink:title=" ">
<polygon fill="#e0e0e0" stroke="#999999" points="485.93,-19 450.93,-19 450.93,0 485.93,0 485.93,-19"/>
<text text-anchor="middle" x="468.43" y="-7" font-family="Helvetica,sans-Serif" font-size="10.00">map</text>
</a>
</g>
</g>
<!-- Node4&#45;&gt;Node9 -->
<g id="edge8_Node000004_Node000009" class="edge">
<title>Node4&#45;&gt;Node9</title>
<g id="a_edge8_Node000004_Node000009"><a xlink:title=" ">
<path fill="none" stroke="#63b8ff" d="M489.3,-54.75C485.91,-47.57 481.01,-37.18 476.81,-28.27"/>
<polygon fill="#63b8ff" stroke="#63b8ff" points="479.91,-26.64 472.48,-19.09 473.58,-29.63 479.91,-26.64"/>
</a>
</g>
</g>
<!-- Node10 -->
<g id="Node000010" class="node">
<title>Node10</title>
<g id="a_Node000010"><a xlink:title=" ">
<polygon fill="#e0e0e0" stroke="#999999" points="534.43,-19 504.43,-19 504.43,0 534.43,0 534.43,-19"/>
<text text-anchor="middle" x="519.43" y="-7" font-family="Helvetica,sans-Serif" font-size="10.00">set</text>
</a>
</g>
</g>
<!-- Node4&#45;&gt;Node10 -->
<g id="edge9_Node000004_Node000010" class="edge">
<title>Node4&#45;&gt;Node10</title>
<g id="a_edge9_Node000004_Node000010"><a xlink:title=" ">
<path fill="none" stroke="#63b8ff" d="M497.72,-54.75C501.24,-47.57 506.34,-37.18 510.71,-28.27"/>
<polygon fill="#63b8ff" stroke="#63b8ff" points="513.95,-29.61 515.21,-19.09 507.67,-26.53 513.95,-29.61"/>
</a>
</g>
</g>
<!-- Node11 -->
<g id="Node000011" class="node">
<title>Node11</title>
<g id="a_Node000011"><a xlink:title=" ">
<polygon fill="#e0e0e0" stroke="#999999" points="593.93,-19 552.93,-19 552.93,0 593.93,0 593.93,-19"/>
<text text-anchor="middle" x="573.43" y="-7" font-family="Helvetica,sans-Serif" font-size="10.00">string</text>
</a>
</g>
</g>
<!-- Node4&#45;&gt;Node11 -->
<g id="edge10_Node000004_Node000011" class="edge">
<title>Node4&#45;&gt;Node11</title>
<g id="a_edge10_Node000004_Node000011"><a xlink:title=" ">
<path fill="none" stroke="#63b8ff" d="M506.28,-54.98C518.57,-46.84 537.33,-34.41 551.9,-24.76"/>
<polygon fill="#63b8ff" stroke="#63b8ff" points="553.94,-27.61 560.34,-19.17 550.07,-21.78 553.94,-27.61"/>
</a>
</g>
</g>
<!-- Node12 -->
<g id="Node000012" class="node">
<title>Node12</title>
<g id="a_Node000012"><a xlink:title=" ">
<polygon fill="#e0e0e0" stroke="#999999" points="668.43,-19 612.43,-19 612.43,0 668.43,0 668.43,-19"/>
<text text-anchor="middle" x="640.43" y="-7" font-family="Helvetica,sans-Serif" font-size="10.00">algorithm</text>
</a>
</g>
</g>
<!-- Node4&#45;&gt;Node12 -->
<g id="edge11_Node000004_Node000012" class="edge">
<title>Node4&#45;&gt;Node12</title>
<g id="a_edge11_Node000004_Node000012"><a xlink:title=" ">
<path fill="none" stroke="#63b8ff" d="M517.04,-54.98C541.33,-46.23 579.38,-32.51 606.8,-22.62"/>
<polygon fill="#63b8ff" stroke="#63b8ff" points="608.16,-25.85 616.38,-19.17 605.78,-19.27 608.16,-25.85"/>
</a>
</g>
</g>
<!-- Node13 -->
<g id="Node000013" class="node">
<title>Node13</title>
<g id="a_Node000013"><a xlink:title=" ">
<polygon fill="#e0e0e0" stroke="#999999" points="738.43,-19 686.43,-19 686.43,0 738.43,0 738.43,-19"/>
<text text-anchor="middle" x="712.43" y="-7" font-family="Helvetica,sans-Serif" font-size="10.00">memory</text>
</a>
</g>
</g>
<!-- Node4&#45;&gt;Node13 -->
<g id="edge12_Node000004_Node000013" class="edge">
<title>Node4&#45;&gt;Node13</title>
<g id="a_edge12_Node000004_Node000013"><a xlink:title=" ">
<path fill="none" stroke="#63b8ff" d="M528.7,-54.98C563.72,-46.52 619.19,-33.11 676.16,-19.31"/>
<polygon fill="#63b8ff" stroke="#63b8ff" points="677.16,-22.66 686.05,-16.91 675.51,-15.86 677.16,-22.66"/>
</a>
</g>
</g>
<!-- Node14 -->
<g id="Node000014" class="node">
<title>Node14</title>
<g id="a_Node000014"><a xlink:title=" ">
<polygon fill="#e0e0e0" stroke="#999999" points="815.93,-19 756.93,-19 756.93,0 815.93,0 815.93,-19"/>
<text text-anchor="middle" x="786.43" y="-7" font-family="Helvetica,sans-Serif" font-size="10.00">functional</text>
</a>
</g>
</g>
<!-- Node4&#45;&gt;Node14 -->
<g id="edge13_Node000004_Node000014" class="edge">
<title>Node4&#45;&gt;Node14</title>
<g id="a_edge13_Node000004_Node000014"><a xlink:title=" ">
<path fill="none" stroke="#63b8ff" d="M546.08,-54.92C595.32,-46.76 671.16,-33.81 746.5,-19.11"/>
<polygon fill="#63b8ff" stroke="#63b8ff" points="747.5,-22.48 756.64,-17.12 746.16,-15.61 747.5,-22.48"/>
</a>
</g>
</g>
<!-- Node15&#45;&gt;Node4 -->
<g id="edge15_Node000015_Node000004" class="edge">
<title>Node15&#45;&gt;Node4</title>
<g id="a_edge15_Node000015_Node000004"><a xlink:title=" ">
<path fill="none" stroke="#63b8ff" d="M260.21,-228.67C180.27,-227.47 45.55,-219.98 14.43,-184 8.9,-177.61 9.1,-171.55 14.43,-165 65.41,-102.34 305.06,-77.87 424.87,-69.42"/>
<polygon fill="#63b8ff" stroke="#63b8ff" points="425.3,-72.9 435.04,-68.72 424.82,-65.92 425.3,-72.9"/>
</a>
</g>
</g>
<!-- Node16 -->
<g id="Node000016" class="node">
<title>Node16</title>
<g id="a_Node000016"><a xlink:href="../../db/d98/ctexceptions_8h.html" target="_top" xlink:title="Definitions for the classes that are thrown when Cantera experiences an error condition (also contain...">
<polygon fill="#fff0f0" stroke="red" points="711.43,-184 571.43,-184 571.43,-165 711.43,-165 711.43,-184"/>
<text text-anchor="middle" x="641.43" y="-172" font-family="Helvetica,sans-Serif" font-size="10.00">cantera/base/ctexceptions.h</text>
</a>
</g>
</g>
<!-- Node15&#45;&gt;Node16 -->
<g id="edge16_Node000015_Node000016" class="edge">
<title>Node15&#45;&gt;Node16</title>
<g id="a_edge16_Node000015_Node000016"><a xlink:title=" ">
<path fill="none" stroke="#63b8ff" d="M372,-219.98C428.54,-210.65 519.23,-195.67 579.56,-185.71"/>
<polygon fill="#63b8ff" stroke="#63b8ff" points="580.42,-189.12 589.71,-184.04 579.28,-182.21 580.42,-189.12"/>
</a>
</g>
</g>
<!-- Node22 -->
<g id="Node000022" class="node">
<title>Node22</title>
<g id="a_Node000022"><a xlink:href="../../da/d58/Units_8h.html" target="_top" xlink:title="Header for unit conversion utilities, which are used to translate user input from input files (See In...">
<polygon fill="white" stroke="#666666" points="552.93,-184 445.93,-184 445.93,-165 552.93,-165 552.93,-184"/>
<text text-anchor="middle" x="499.43" y="-172" font-family="Helvetica,sans-Serif" font-size="10.00">cantera/base/Units.h</text>
</a>
</g>
</g>
<!-- Node15&#45;&gt;Node22 -->
<g id="edge20_Node000015_Node000022" class="edge">
<title>Node15&#45;&gt;Node22</title>
<g id="a_edge20_Node000015_Node000022"><a xlink:title=" ">
<path fill="none" stroke="#63b8ff" d="M349.19,-219.98C379.37,-211.05 427,-196.94 460.52,-187.02"/>
<polygon fill="#63b8ff" stroke="#63b8ff" points="461.85,-190.28 470.44,-184.08 459.86,-183.57 461.85,-190.28"/>
</a>
</g>
</g>
<!-- Node23 -->
<g id="Node000023" class="node">
<title>Node23</title>
<g id="a_Node000023"><a xlink:title=" ">
<polygon fill="#e0e0e0" stroke="#999999" points="106.93,-184 23.93,-184 23.93,-165 106.93,-165 106.93,-184"/>
<text text-anchor="middle" x="65.43" y="-172" font-family="Helvetica,sans-Serif" font-size="10.00">unordered_map</text>
</a>
</g>
</g>
<!-- Node15&#45;&gt;Node23 -->
<g id="edge22_Node000015_Node000023" class="edge">
<title>Node15&#45;&gt;Node23</title>
<g id="a_edge22_Node000015_Node000023"><a xlink:title=" ">
<path fill="none" stroke="#63b8ff" d="M279.46,-219.98C235.16,-210.78 164.49,-196.09 116.58,-186.13"/>
<polygon fill="#63b8ff" stroke="#63b8ff" points="117.22,-182.69 106.72,-184.08 115.8,-189.54 117.22,-182.69"/>
</a>
</g>
</g>
<!-- Node24 -->
<g id="Node000024" class="node">
<title>Node24</title>
<g id="a_Node000024"><a xlink:title=" ">
<polygon fill="#e0e0e0" stroke="#999999" points="187.43,-184 125.43,-184 125.43,-165 187.43,-165 187.43,-184"/>
<text text-anchor="middle" x="156.43" y="-172" font-family="Helvetica,sans-Serif" font-size="10.00">filesystem</text>
</a>
</g>
</g>
<!-- Node15&#45;&gt;Node24 -->
<g id="edge23_Node000015_Node000024" class="edge">
<title>Node15&#45;&gt;Node24</title>
<g id="a_edge23_Node000015_Node000024"><a xlink:title=" ">
<path fill="none" stroke="#63b8ff" d="M294.08,-219.98C266.66,-211.13 223.53,-197.19 192.86,-187.28"/>
<polygon fill="#63b8ff" stroke="#63b8ff" points="193.57,-183.83 182.98,-184.08 191.42,-190.49 193.57,-183.83"/>
</a>
</g>
</g>
<!-- Node25 -->
<g id="Node000025" class="node">
<title>Node25</title>
<g id="a_Node000025"><a xlink:title=" ">
<polygon fill="#e0e0e0" stroke="#999999" points="237.43,-184 205.43,-184 205.43,-165 237.43,-165 237.43,-184"/>
<text text-anchor="middle" x="221.43" y="-172" font-family="Helvetica,sans-Serif" font-size="10.00">any</text>
</a>
</g>
</g>
<!-- Node15&#45;&gt;Node25 -->
<g id="edge24_Node000015_Node000025" class="edge">
<title>Node15&#45;&gt;Node25</title>
<g id="a_edge24_Node000015_Node000025"><a xlink:title=" ">
<path fill="none" stroke="#63b8ff" d="M304.52,-219.98C288.88,-211.61 264.77,-198.7 246.54,-188.95"/>
<polygon fill="#63b8ff" stroke="#63b8ff" points="248.09,-185.8 237.62,-184.17 244.79,-191.98 248.09,-185.8"/>
</a>
</g>
</g>
<!-- Node26 -->
<g id="Node000026" class="node">
<title>Node26</title>
<g id="a_Node000026"><a xlink:href="../../da/d4c/AnyMap_8inl_8h.html" target="_top" xlink:title=" ">
<polygon fill="white" stroke="#666666" points="388.93,-184 255.93,-184 255.93,-165 388.93,-165 388.93,-184"/>
<text text-anchor="middle" x="322.43" y="-172" font-family="Helvetica,sans-Serif" font-size="10.00">cantera/base/AnyMap.inl.h</text>
</a>
</g>
</g>
<!-- Node15&#45;&gt;Node26 -->
<g id="edge25_Node000015_Node000026" class="edge">
<title>Node15&#45;&gt;Node26</title>
<g id="a_edge25_Node000015_Node000026"><a xlink:title=" ">
<path fill="none" stroke="#63b8ff" d="M315.59,-219.75C314.36,-212.8 314.3,-202.85 315.24,-194.13"/>
<polygon fill="#63b8ff" stroke="#63b8ff" points="318.73,-194.54 316.97,-184.09 311.83,-193.35 318.73,-194.54"/>
</a>
</g>
</g>
<!-- Node16&#45;&gt;Node4 -->
<g id="edge17_Node000016_Node000004" class="edge">
<title>Node16&#45;&gt;Node4</title>
<g id="a_edge17_Node000016_Node000004"><a xlink:title=" ">
<path fill="none" stroke="#63b8ff" d="M581.01,-164.94C556.82,-158.67 530.47,-147.81 512.43,-129 500.86,-116.94 496.3,-98.14 494.52,-84.12"/>
<polygon fill="#63b8ff" stroke="#63b8ff" points="498,-83.76 493.61,-74.12 491.03,-84.39 498,-83.76"/>
</a>
</g>
</g>
<!-- Node17 -->
<g id="Node000017" class="node">
<title>Node17</title>
<g id="a_Node000017"><a xlink:href="../../db/def/fmt_8h.html" target="_top" xlink:title="Wrapper for either system&#45;installed or local headers for fmt.">
<polygon fill="#fff0f0" stroke="red" points="775.43,-129 677.43,-129 677.43,-110 775.43,-110 775.43,-129"/>
<text text-anchor="middle" x="726.43" y="-117" font-family="Helvetica,sans-Serif" font-size="10.00">cantera/base/fmt.h</text>
</a>
</g>
</g>
<!-- Node16&#45;&gt;Node17 -->
<g id="edge18_Node000016_Node000017" class="edge">
<title>Node16&#45;&gt;Node17</title>
<g id="a_edge18_Node000016_Node000017"><a xlink:title=" ">
<path fill="none" stroke="#63b8ff" d="M655.08,-164.98C668.26,-156.77 688.45,-144.18 704,-134.49"/>
<polygon fill="#63b8ff" stroke="#63b8ff" points="705.89,-137.43 712.52,-129.17 702.18,-131.49 705.89,-137.43"/>
</a>
</g>
</g>
<!-- Node17&#45;&gt;Node4 -->
<g id="edge19_Node000017_Node000004" class="edge">
<title>Node17&#45;&gt;Node4</title>
<g id="a_edge19_Node000017_Node000004"><a xlink:title=" ">
<path fill="none" stroke="#63b8ff" d="M688.99,-109.98C648.77,-100.84 584.75,-86.27 540.99,-76.32"/>
<polygon fill="#63b8ff" stroke="#63b8ff" points="541.68,-72.89 531.16,-74.08 540.13,-79.71 541.68,-72.89"/>
</a>
</g>
</g>
<!-- Node22&#45;&gt;Node4 -->
<g id="edge21_Node000022_Node000004" class="edge">
<title>Node22&#45;&gt;Node4</title>
<g id="a_edge21_Node000022_Node000004"><a xlink:title=" ">
<path fill="none" stroke="#63b8ff" d="M494.11,-164.68C489.19,-155.97 482.23,-142.09 479.43,-129 476.14,-113.65 480.55,-96.24 485.27,-83.54"/>
<polygon fill="#63b8ff" stroke="#63b8ff" points="488.58,-84.7 489.15,-74.12 482.1,-82.04 488.58,-84.7"/>
</a>
</g>
</g>
<!-- Node26&#45;&gt;Node15 -->
<g id="edge26_Node000026_Node000015" class="edge">
<title>Node26&#45;&gt;Node15</title>
<g id="a_edge26_Node000026_Node000015"><a xlink:title=" ">
<path fill="none" stroke="#63b8ff" d="M327.23,-184.09C328.48,-190.99 328.56,-200.93 327.63,-209.66"/>
<polygon fill="#63b8ff" stroke="#63b8ff" points="324.14,-209.3 325.92,-219.75 331.04,-210.47 324.14,-209.3"/>
</a>
</g>
</g>
<!-- Node28 -->
<g id="Node000028" class="node">
<title>Node28</title>
<g id="a_Node000028"><a xlink:href="../../d7/d01/ThermoPhase_8h.html" target="_top" xlink:title="Header file for class ThermoPhase, the base class for phases with thermodynamic properties,...">
<polygon fill="white" stroke="#666666" points="514.43,-404 428.43,-404 428.43,-385 514.43,-385 514.43,-404"/>
<text text-anchor="middle" x="471.43" y="-392" font-family="Helvetica,sans-Serif" font-size="10.00">ThermoPhase.h</text>
</a>
</g>
</g>
<!-- Node27&#45;&gt;Node28 -->
<g id="edge28_Node000027_Node000028" class="edge">
<title>Node27&#45;&gt;Node28</title>
<g id="a_edge28_Node000027_Node000028"><a xlink:title=" ">
<path fill="none" stroke="#63b8ff" d="M471.43,-439.84C471.43,-432.21 471.43,-422.7 471.43,-414.45"/>
<polygon fill="#63b8ff" stroke="#63b8ff" points="474.93,-414.27 471.43,-404.27 467.93,-414.27 474.93,-414.27"/>
</a>
</g>
</g>
<!-- Node28&#45;&gt;Node15 -->
<g id="edge41_Node000028_Node000015" class="edge">
<title>Node28&#45;&gt;Node15</title>
<g id="a_edge41_Node000028_Node000015"><a xlink:title=" ">
<path fill="none" stroke="#63b8ff" d="M428.27,-385C405.52,-378.55 378.62,-367.5 360.43,-349 333.37,-321.49 324.6,-275.07 321.77,-249.25"/>
<polygon fill="#63b8ff" stroke="#63b8ff" points="325.25,-248.91 320.86,-239.27 318.28,-249.55 325.25,-248.91"/>
</a>
</g>
</g>
<!-- Node28&#45;&gt;Node22 -->
<g id="edge40_Node000028_Node000022" class="edge">
<title>Node28&#45;&gt;Node22</title>
<g id="a_edge40_Node000028_Node000022"><a xlink:title=" ">
<path fill="none" stroke="#63b8ff" d="M476.61,-385C481.62,-376.3 488.96,-362.22 492.43,-349 506.74,-294.47 503.88,-227.01 501.29,-194.62"/>
<polygon fill="#63b8ff" stroke="#63b8ff" points="504.75,-194.01 500.39,-184.36 497.78,-194.63 504.75,-194.01"/>
</a>
</g>
</g>
<!-- Node29 -->
<g id="Node000029" class="node">
<title>Node29</title>
<g id="a_Node000029"><a xlink:href="../../da/d84/Phase_8h.html" target="_top" xlink:title="Header file for class Phase.">
<polygon fill="white" stroke="#666666" points="702.93,-239 649.93,-239 649.93,-220 702.93,-220 702.93,-239"/>
<text text-anchor="middle" x="676.43" y="-227" font-family="Helvetica,sans-Serif" font-size="10.00">Phase.h</text>
</a>
</g>
</g>
<!-- Node28&#45;&gt;Node29 -->
<g id="edge29_Node000028_Node000029" class="edge">
<title>Node28&#45;&gt;Node29</title>
<g id="a_edge29_Node000028_Node000029"><a xlink:title=" ">
<path fill="none" stroke="#63b8ff" d="M483.27,-384.76C495.25,-375.87 514.26,-361.65 530.43,-349 576.82,-312.69 630.36,-268.69 657.91,-245.88"/>
<polygon fill="#63b8ff" stroke="#63b8ff" points="660.44,-248.33 665.91,-239.25 655.97,-242.94 660.44,-248.33"/>
</a>
</g>
</g>
<!-- Node33 -->
<g id="Node000033" class="node">
<title>Node33</title>
<g id="a_Node000033"><a xlink:href="../../d6/d7a/MultiSpeciesThermo_8h.html" target="_top" xlink:title="Header for a general species thermodynamic property manager for a phase (see MultiSpeciesThermo).">
<polygon fill="white" stroke="#666666" points="483.43,-349 369.43,-349 369.43,-330 483.43,-330 483.43,-349"/>
<text text-anchor="middle" x="426.43" y="-337" font-family="Helvetica,sans-Serif" font-size="10.00">MultiSpeciesThermo.h</text>
</a>
</g>
</g>
<!-- Node28&#45;&gt;Node33 -->
<g id="edge35_Node000028_Node000033" class="edge">
<title>Node28&#45;&gt;Node33</title>
<g id="a_edge35_Node000028_Node000033"><a xlink:title=" ">
<path fill="none" stroke="#63b8ff" d="M464,-384.75C457.57,-377.18 448.12,-366.05 440.3,-356.84"/>
<polygon fill="#63b8ff" stroke="#63b8ff" points="442.86,-354.45 433.72,-349.09 437.52,-358.98 442.86,-354.45"/>
</a>
</g>
</g>
<!-- Node29&#45;&gt;Node16 -->
<g id="edge30_Node000029_Node000016" class="edge">
<title>Node29&#45;&gt;Node16</title>
<g id="a_edge30_Node000029_Node000016"><a xlink:title=" ">
<path fill="none" stroke="#63b8ff" d="M670.65,-219.75C665.8,-212.42 658.75,-201.73 652.78,-192.7"/>
<polygon fill="#63b8ff" stroke="#63b8ff" points="655.53,-190.5 647.1,-184.09 649.69,-194.36 655.53,-190.5"/>
</a>
</g>
</g>
<!-- Node30 -->
<g id="Node000030" class="node">
<title>Node30</title>
<g id="a_Node000030"><a xlink:href="../../d9/dda/Elements_8h.html" target="_top" xlink:title="Contains the getElementWeight function and the definitions of element constraint types.">
<polygon fill="white" stroke="#666666" points="927.43,-129 793.43,-129 793.43,-110 927.43,-110 927.43,-129"/>
<text text-anchor="middle" x="860.43" y="-117" font-family="Helvetica,sans-Serif" font-size="10.00">cantera/thermo/Elements.h</text>
</a>
</g>
</g>
<!-- Node29&#45;&gt;Node30 -->
<g id="edge31_Node000029_Node000030" class="edge">
<title>Node29&#45;&gt;Node30</title>
<g id="a_edge31_Node000029_Node000030"><a xlink:title=" ">
<path fill="none" stroke="#63b8ff" d="M691.17,-219.84C723.01,-201.16 798.42,-156.9 836.92,-134.3"/>
<polygon fill="#63b8ff" stroke="#63b8ff" points="839.01,-137.13 845.86,-129.05 835.47,-131.09 839.01,-137.13"/>
</a>
</g>
</g>
<!-- Node31 -->
<g id="Node000031" class="node">
<title>Node31</title>
<g id="a_Node000031"><a xlink:href="../../d6/df6/ValueCache_8h.html" target="_top" xlink:title=" ">
<polygon fill="#fff0f0" stroke="red" points="658.93,-129 521.93,-129 521.93,-110 658.93,-110 658.93,-129"/>
<text text-anchor="middle" x="590.43" y="-117" font-family="Helvetica,sans-Serif" font-size="10.00">cantera/base/ValueCache.h</text>
</a>
</g>
</g>
<!-- Node29&#45;&gt;Node31 -->
<g id="edge33_Node000029_Node000031" class="edge">
<title>Node29&#45;&gt;Node31</title>
<g id="a_edge33_Node000029_Node000031"><a xlink:title=" ">
<path fill="none" stroke="#63b8ff" d="M690.06,-219.82C707.61,-207.54 734.31,-184.42 720.43,-165 708.21,-147.9 689.01,-137.3 669.07,-130.75"/>
<polygon fill="#63b8ff" stroke="#63b8ff" points="669.84,-127.33 659.26,-127.85 667.86,-134.04 669.84,-127.33"/>
</a>
</g>
</g>
<!-- Node30&#45;&gt;Node4 -->
<g id="edge32_Node000030_Node000004" class="edge">
<title>Node30&#45;&gt;Node4</title>
<g id="a_edge32_Node000030_Node000004"><a xlink:title=" ">
<path fill="none" stroke="#63b8ff" d="M801.46,-109.98C735.99,-100.53 630.48,-85.29 561.54,-75.34"/>
<polygon fill="#63b8ff" stroke="#63b8ff" points="562.04,-71.87 551.64,-73.91 561.04,-78.8 562.04,-71.87"/>
</a>
</g>
</g>
<!-- Node31&#45;&gt;Node4 -->
<g id="edge34_Node000031_Node000004" class="edge">
<title>Node31&#45;&gt;Node4</title>
<g id="a_edge34_Node000031_Node000004"><a xlink:title=" ">
<path fill="none" stroke="#63b8ff" d="M574.84,-109.98C559.66,-101.69 536.33,-88.94 518.53,-79.22"/>
<polygon fill="#63b8ff" stroke="#63b8ff" points="519.75,-75.89 509.29,-74.17 516.39,-82.04 519.75,-75.89"/>
</a>
</g>
</g>
<!-- Node34 -->
<g id="Node000034" class="node">
<title>Node34</title>
<g id="a_Node000034"><a xlink:href="../../d4/d87/SpeciesThermoInterpType_8h.html" target="_top" xlink:title="Pure Virtual Base class for individual species reference state thermodynamic managers and text for th...">
<polygon fill="white" stroke="#666666" points="487.93,-294 348.93,-294 348.93,-275 487.93,-275 487.93,-294"/>
<text text-anchor="middle" x="418.43" y="-282" font-family="Helvetica,sans-Serif" font-size="10.00">SpeciesThermoInterpType.h</text>
</a>
</g>
</g>
<!-- Node33&#45;&gt;Node34 -->
<g id="edge36_Node000033_Node000034" class="edge">
<title>Node33&#45;&gt;Node34</title>
<g id="a_edge36_Node000033_Node000034"><a xlink:title=" ">
<path fill="none" stroke="#63b8ff" d="M425.11,-329.75C424.06,-322.8 422.55,-312.85 421.24,-304.13"/>
<polygon fill="#63b8ff" stroke="#63b8ff" points="424.68,-303.45 419.72,-294.09 417.75,-304.5 424.68,-303.45"/>
</a>
</g>
</g>
<!-- Node34&#45;&gt;Node4 -->
<g id="edge37_Node000034_Node000004" class="edge">
<title>Node34&#45;&gt;Node4</title>
<g id="a_edge37_Node000034_Node000004"><a xlink:title=" ">
<path fill="none" stroke="#63b8ff" d="M418.65,-274.91C419.41,-255.02 422.66,-204.49 436.43,-165 447.3,-133.82 468.01,-101.28 481.25,-82.22"/>
<polygon fill="#63b8ff" stroke="#63b8ff" points="484.13,-84.2 487.07,-74.02 478.43,-80.15 484.13,-84.2"/>
</a>
</g>
</g>
<!-- Node34&#45;&gt;Node15 -->
<g id="edge39_Node000034_Node000015" class="edge">
<title>Node34&#45;&gt;Node15</title>
<g id="a_edge39_Node000034_Node000015"><a xlink:title=" ">
<path fill="none" stroke="#63b8ff" d="M402.68,-274.98C387.2,-266.61 363.33,-253.7 345.29,-243.95"/>
<polygon fill="#63b8ff" stroke="#63b8ff" points="346.92,-240.85 336.46,-239.17 343.59,-247.01 346.92,-240.85"/>
</a>
</g>
</g>
<!-- Node34&#45;&gt;Node16 -->
<g id="edge38_Node000034_Node000016" class="edge">
<title>Node34&#45;&gt;Node16</title>
<g id="a_edge38_Node000034_Node000016"><a xlink:title=" ">
<path fill="none" stroke="#63b8ff" d="M436.3,-274.84C475.38,-255.92 568.61,-210.77 614.7,-188.45"/>
<polygon fill="#63b8ff" stroke="#63b8ff" points="616.3,-191.56 623.78,-184.05 613.25,-185.26 616.3,-191.56"/>
</a>
</g>
</g>
<!-- Node35&#45;&gt;Node4 -->
<g id="edge43_Node000035_Node000004" class="edge">
<title>Node35&#45;&gt;Node4</title>
<g id="a_edge43_Node000035_Node000004"><a xlink:title=" ">
<path fill="none" stroke="#63b8ff" d="M885,-164.96C914.17,-153.55 956.5,-132.19 936.43,-110 911.8,-82.78 679.79,-71.45 561.74,-67.42"/>
<polygon fill="#63b8ff" stroke="#63b8ff" points="561.82,-63.92 551.71,-67.09 561.59,-70.92 561.82,-63.92"/>
</a>
</g>
</g>
<!-- Node35&#45;&gt;Node17 -->
<g id="edge44_Node000035_Node000017" class="edge">
<title>Node35&#45;&gt;Node17</title>
<g id="a_edge44_Node000035_Node000017"><a xlink:title=" ">
<path fill="none" stroke="#63b8ff" d="M838.9,-164.98C816.95,-156.3 782.68,-142.75 757.74,-132.88"/>
<polygon fill="#63b8ff" stroke="#63b8ff" points="758.93,-129.59 748.35,-129.17 756.36,-136.1 758.93,-129.59"/>
</a>
</g>
</g>
</g>
</svg>
