<?xml version="1.0" encoding="UTF-8" standalone="no"?>
<!DOCTYPE svg PUBLIC "-//W3C//DTD SVG 1.1//EN"
 "http://www.w3.org/Graphics/SVG/1.1/DTD/svg11.dtd">
<!-- Generated by graphviz version 2.43.0 (0)
 -->
<!-- Title: Reactions and Reaction Rates Pages: 1 -->
<svg width="495pt" height="150pt"
 viewBox="0.00 0.00 495.00 150.00" xmlns="http://www.w3.org/2000/svg" xmlns:xlink="http://www.w3.org/1999/xlink">
<g id="graph0" class="graph" transform="scale(1 1) rotate(0) translate(4 146)">
<title>Reactions and Reaction Rates</title>
<polygon fill="white" stroke="transparent" points="-4,4 -4,-146 491,-146 491,4 -4,4"/>
<!-- Node5 -->
<g id="node1" class="node">
<title>Node5</title>
<g id="a_node1"><a xlink:href="../../d2/d1c/group__surfaceGroup.html" target="_top" xlink:title="Classes implementing reaction rates that involve interfaces.">
<polygon fill="white" stroke="black" points="485.5,-142 308.5,-142 308.5,-123 485.5,-123 485.5,-142"/>
<text text-anchor="middle" x="397" y="-130" font-family="Helvetica,sans-Serif" font-size="10.00">Interface Rate Parameterizations</text>
</a>
</g>
</g>
<!-- Node6 -->
<g id="node2" class="node">
<title>Node6</title>
<g id="a_node2"><a xlink:href="../../df/da5/group__otherRateGroup.html" target="_top" xlink:title="Classes implementing other reaction rate parameterizations.">
<polygon fill="white" stroke="black" points="454.5,-104.5 339.5,-104.5 339.5,-74.5 454.5,-74.5 454.5,-104.5"/>
<text text-anchor="start" x="347.5" y="-92.5" font-family="Helvetica,sans-Serif" font-size="10.00">Other Reaction Rate</text>
<text text-anchor="middle" x="397" y="-81.5" font-family="Helvetica,sans-Serif" font-size="10.00"> Parameterizations</text>
</a>
</g>
</g>
<!-- Node2 -->
<g id="node3" class="node">
<title>Node2</title>
<g id="a_node3"><a xlink:href="../../d1/dc2/group__chemkinetics.html" target="_top" xlink:title=" ">
<polygon fill="white" stroke="black" points="104,-77 0,-77 0,-58 104,-58 104,-77"/>
<text text-anchor="middle" x="52" y="-65" font-family="Helvetica,sans-Serif" font-size="10.00">Chemical Kinetics</text>
</a>
</g>
</g>
<!-- Node1 -->
<g id="node5" class="node">
<title>Node1</title>
<g id="a_node5"><a xlink:title="Classes for handling reactions and reaction rates.">
<polygon fill="#bfbfbf" stroke="black" points="271,-82.5 140,-82.5 140,-52.5 271,-52.5 271,-82.5"/>
<text text-anchor="start" x="148" y="-70.5" font-family="Helvetica,sans-Serif" font-size="10.00">Reactions and Reaction</text>
<text text-anchor="middle" x="205.5" y="-59.5" font-family="Helvetica,sans-Serif" font-size="10.00"> Rates</text>
</a>
</g>
</g>
<!-- Node2&#45;&gt;Node1 -->
<g id="edge1" class="edge">
<title>Node2&#45;&gt;Node1</title>
<path fill="none" stroke="black" d="M114.37,-67.5C122.76,-67.5 131.39,-67.5 139.83,-67.5"/>
<polygon fill="black" stroke="black" points="114.29,-64 104.29,-67.5 114.29,-71 114.29,-64"/>
</g>
<!-- Node3 -->
<g id="node4" class="node">
<title>Node3</title>
<g id="a_node4"><a xlink:href="../../d1/d4e/group__arrheniusGroup.html" target="_top" xlink:title="Classes implementing the standard Arrhenius rate parameterization and derived models.">
<polygon fill="white" stroke="black" points="487,-56 307,-56 307,-37 487,-37 487,-56"/>
<text text-anchor="middle" x="397" y="-44" font-family="Helvetica,sans-Serif" font-size="10.00">Arrhenius&#45;type Parameterizations</text>
</a>
</g>
</g>
<!-- Node1&#45;&gt;Node5 -->
<g id="edge4" class="edge">
<title>Node1&#45;&gt;Node5</title>
<path fill="none" stroke="black" d="M243.86,-86.97C262.45,-96.04 285.5,-106.38 307,-113.5 318.1,-117.18 330.22,-120.31 341.84,-122.92"/>
<polygon fill="black" stroke="black" points="245.36,-83.81 234.85,-82.5 242.26,-90.08 245.36,-83.81"/>
</g>
<!-- Node1&#45;&gt;Node6 -->
<g id="edge5" class="edge">
<title>Node1&#45;&gt;Node6</title>
<path fill="none" stroke="black" d="M281.16,-76.17C300.48,-78.41 320.97,-80.79 339.21,-82.91"/>
<polygon fill="black" stroke="black" points="281.52,-72.69 271.19,-75.01 280.71,-79.64 281.52,-72.69"/>
</g>
<!-- Node1&#45;&gt;Node3 -->
<g id="edge2" class="edge">
<title>Node1&#45;&gt;Node3</title>
<path fill="none" stroke="black" d="M281.33,-59.21C290.79,-58.16 300.54,-57.08 310.16,-56.01"/>
<polygon fill="black" stroke="black" points="280.74,-55.75 271.19,-60.33 281.51,-62.71 280.74,-55.75"/>
</g>
<!-- Node4 -->
<g id="node6" class="node">
<title>Node4</title>
<g id="a_node6"><a xlink:href="../../dc/d96/group__falloffGroup.html" target="_top" xlink:title="Classes implementing fall&#45;off in reaction rate constants due to intermolecular energy transfer and de...">
<polygon fill="white" stroke="black" points="465.5,-19 328.5,-19 328.5,0 465.5,0 465.5,-19"/>
<text text-anchor="middle" x="397" y="-7" font-family="Helvetica,sans-Serif" font-size="10.00">Falloff Parameterizations</text>
</a>
</g>
</g>
<!-- Node1&#45;&gt;Node4 -->
<g id="edge3" class="edge">
<title>Node1&#45;&gt;Node4</title>
<path fill="none" stroke="black" d="M249.36,-48.48C266.96,-41.18 287.71,-33.24 307,-27.5 317.88,-24.26 329.68,-21.42 341.02,-19.01"/>
<polygon fill="black" stroke="black" points="247.78,-45.34 239.93,-52.45 250.5,-51.79 247.78,-45.34"/>
</g>
</g>
</svg>
