<?xml version="1.0" encoding="UTF-8" standalone="no"?>
<!DOCTYPE svg PUBLIC "-//W3C//DTD SVG 1.1//EN"
 "http://www.w3.org/Graphics/SVG/1.1/DTD/svg11.dtd">
<!-- Generated by graphviz version 6.0.1 (0)
 -->
<!-- Title: DustyGasTransport Pages: 1 -->
<svg width="262pt" height="302pt"
 viewBox="0.00 0.00 261.50 302.00" xmlns="http://www.w3.org/2000/svg" xmlns:xlink="http://www.w3.org/1999/xlink">
<g id="graph0" class="graph" transform="scale(1 1) rotate(0) translate(4 298)">
<title>DustyGasTransport</title>
<!-- Node1 -->
<g id="node1" class="node">
<title>Node1</title>
<g id="a_node1"><a xlink:title="Class DustyGasTransport implements the Dusty Gas model for transport in porous media.">
<polygon fill="#999999" stroke="#666666" points="219.5,-19 117.5,-19 117.5,0 219.5,0 219.5,-19"/>
<text text-anchor="middle" x="168.5" y="-7" font-family="Helvetica,sans-Serif" font-size="10.00">DustyGasTransport</text>
</a>
</g>
</g>
<!-- Node2 -->
<g id="node2" class="node">
<title>Node2</title>
<g id="a_node2"><a xlink:href="../../d2/dfb/classCantera_1_1Transport.html" target="_top" xlink:title="Base class for transport property managers.">
<polygon fill="white" stroke="#666666" points="156.5,-96 98.5,-96 98.5,-77 156.5,-77 156.5,-96"/>
<text text-anchor="middle" x="127.5" y="-84" font-family="Helvetica,sans-Serif" font-size="10.00">Transport</text>
</a>
</g>
</g>
<!-- Node2&#45;&gt;Node1 -->
<g id="edge1" class="edge">
<title>Node2&#45;&gt;Node1</title>
<path fill="none" stroke="#63b8ff" d="M137.14,-67.86C145.56,-52.47 157.39,-30.82 163.85,-19"/>
<polygon fill="#63b8ff" stroke="#63b8ff" points="133.93,-66.44 132.2,-76.9 140.07,-69.8 133.93,-66.44"/>
</g>
<!-- Node3 -->
<g id="node3" class="node">
<title>Node3</title>
<g id="a_node3"><a xlink:href="../../dc/d38/classCantera_1_1ThermoPhase.html" target="_top" xlink:title="Base class for a phase with thermodynamic properties.">
<polygon fill="white" stroke="#666666" points="166,-162 89,-162 89,-143 166,-143 166,-162"/>
<text text-anchor="middle" x="127.5" y="-150" font-family="Helvetica,sans-Serif" font-size="10.00">ThermoPhase</text>
</a>
</g>
</g>
<!-- Node3&#45;&gt;Node2 -->
<g id="edge2" class="edge">
<title>Node3&#45;&gt;Node2</title>
<path fill="none" stroke="#9a32cd" stroke-dasharray="5,2" d="M127.5,-132.58C127.5,-120.63 127.5,-105.72 127.5,-96.41"/>
<polygon fill="#9a32cd" stroke="#9a32cd" points="124,-132.87 127.5,-142.87 131,-132.87 124,-132.87"/>
<text text-anchor="middle" x="151" y="-117" font-family="Helvetica,sans-Serif" font-size="10.00"> m_thermo</text>
</g>
<!-- Node4 -->
<g id="node4" class="node">
<title>Node4</title>
<g id="a_node4"><a xlink:href="../../d6/d0e/classCantera_1_1Phase.html" target="_top" xlink:title="Class Phase is the base class for phases of matter, managing the species and elements in a phase,...">
<polygon fill="white" stroke="#666666" points="56.5,-228 12.5,-228 12.5,-209 56.5,-209 56.5,-228"/>
<text text-anchor="middle" x="34.5" y="-216" font-family="Helvetica,sans-Serif" font-size="10.00">Phase</text>
</a>
</g>
</g>
<!-- Node4&#45;&gt;Node3 -->
<g id="edge3" class="edge">
<title>Node4&#45;&gt;Node3</title>
<path fill="none" stroke="#63b8ff" d="M55.31,-203.18C73.58,-190.61 99.56,-172.73 114.86,-162.2"/>
<polygon fill="#63b8ff" stroke="#63b8ff" points="53.3,-200.32 47.04,-208.87 57.26,-206.08 53.3,-200.32"/>
</g>
<!-- Node5 -->
<g id="node5" class="node">
<title>Node5</title>
<g id="a_node5"><a xlink:href="../../d8/d89/classCantera_1_1ValueCache.html" target="_top" xlink:title=" ">
<polygon fill="white" stroke="#666666" points="69,-294 0,-294 0,-275 69,-275 69,-294"/>
<text text-anchor="middle" x="34.5" y="-282" font-family="Helvetica,sans-Serif" font-size="10.00">ValueCache</text>
</a>
</g>
</g>
<!-- Node5&#45;&gt;Node4 -->
<g id="edge4" class="edge">
<title>Node5&#45;&gt;Node4</title>
<path fill="none" stroke="#9a32cd" stroke-dasharray="5,2" d="M34.5,-264.58C34.5,-252.63 34.5,-237.72 34.5,-228.41"/>
<polygon fill="#9a32cd" stroke="#9a32cd" points="31,-264.87 34.5,-274.87 38,-264.87 31,-264.87"/>
<text text-anchor="middle" x="56" y="-249" font-family="Helvetica,sans-Serif" font-size="10.00"> m_cache</text>
</g>
<!-- Node6 -->
<g id="node6" class="node">
<title>Node6</title>
<g id="a_node6"><a xlink:href="../../d5/dda/classCantera_1_1MultiSpeciesThermo.html" target="_top" xlink:title="A species thermodynamic property manager for a phase.">
<polygon fill="white" stroke="#666666" points="180.5,-228 74.5,-228 74.5,-209 180.5,-209 180.5,-228"/>
<text text-anchor="middle" x="127.5" y="-216" font-family="Helvetica,sans-Serif" font-size="10.00">MultiSpeciesThermo</text>
</a>
</g>
</g>
<!-- Node6&#45;&gt;Node3 -->
<g id="edge5" class="edge">
<title>Node6&#45;&gt;Node3</title>
<path fill="none" stroke="#9a32cd" stroke-dasharray="5,2" d="M127.5,-198.58C127.5,-186.63 127.5,-171.72 127.5,-162.41"/>
<polygon fill="#9a32cd" stroke="#9a32cd" points="124,-198.87 127.5,-208.87 131,-198.87 124,-198.87"/>
<text text-anchor="middle" x="156.5" y="-183" font-family="Helvetica,sans-Serif" font-size="10.00"> m_spthermo</text>
</g>
<!-- Node7 -->
<g id="node7" class="node">
<title>Node7</title>
<g id="a_node7"><a xlink:href="../../db/d74/classCantera_1_1AnyMap.html" target="_top" xlink:title="A map of string keys to values whose type can vary at runtime.">
<polygon fill="white" stroke="#666666" points="252,-228 199,-228 199,-209 252,-209 252,-228"/>
<text text-anchor="middle" x="225.5" y="-216" font-family="Helvetica,sans-Serif" font-size="10.00">AnyMap</text>
</a>
</g>
</g>
<!-- Node7&#45;&gt;Node3 -->
<g id="edge6" class="edge">
<title>Node7&#45;&gt;Node3</title>
<path fill="none" stroke="#9a32cd" stroke-dasharray="5,2" d="M212.3,-201C205.97,-193.86 197.93,-185.83 189.5,-180 178.62,-172.48 165.26,-166.43 153.74,-162.03"/>
<polygon fill="#9a32cd" stroke="#9a32cd" points="209.74,-203.4 218.87,-208.79 215.09,-198.89 209.74,-203.4"/>
<text text-anchor="middle" x="222.5" y="-183" font-family="Helvetica,sans-Serif" font-size="10.00"> m_input</text>
</g>
<!-- Node8 -->
<g id="node8" class="node">
<title>Node8</title>
<g id="a_node8"><a xlink:href="../../d9/d23/classCantera_1_1AnyBase.html" target="_top" xlink:title="Base class defining common data possessed by both AnyMap and AnyValue objects.">
<polygon fill="white" stroke="#666666" points="253.5,-294 197.5,-294 197.5,-275 253.5,-275 253.5,-294"/>
<text text-anchor="middle" x="225.5" y="-282" font-family="Helvetica,sans-Serif" font-size="10.00">AnyBase</text>
</a>
</g>
</g>
<!-- Node8&#45;&gt;Node7 -->
<g id="edge7" class="edge">
<title>Node8&#45;&gt;Node7</title>
<path fill="none" stroke="#63b8ff" d="M225.5,-264.58C225.5,-252.63 225.5,-237.72 225.5,-228.41"/>
<polygon fill="#63b8ff" stroke="#63b8ff" points="222,-264.87 225.5,-274.87 229,-264.87 222,-264.87"/>
</g>
<!-- Node9 -->
<g id="node9" class="node">
<title>Node9</title>
<g id="a_node9"><a xlink:href="../../dd/d8f/classCantera_1_1DenseMatrix.html" target="_top" xlink:title="A class for full (non&#45;sparse) matrices with Fortran&#45;compatible data storage, which adds matrix operat...">
<polygon fill="white" stroke="#666666" points="246.5,-96 174.5,-96 174.5,-77 246.5,-77 246.5,-96"/>
<text text-anchor="middle" x="210.5" y="-84" font-family="Helvetica,sans-Serif" font-size="10.00">DenseMatrix</text>
</a>
</g>
</g>
<!-- Node9&#45;&gt;Node1 -->
<g id="edge8" class="edge">
<title>Node9&#45;&gt;Node1</title>
<path fill="none" stroke="#9a32cd" stroke-dasharray="5,2" d="M200.62,-67.86C192,-52.47 179.88,-30.82 173.26,-19"/>
<polygon fill="#9a32cd" stroke="#9a32cd" points="197.74,-69.88 205.68,-76.9 203.85,-66.46 197.74,-69.88"/>
<text text-anchor="middle" x="219" y="-51" font-family="Helvetica,sans-Serif" font-size="10.00"> m_d</text>
<text text-anchor="middle" x="219" y="-40" font-family="Helvetica,sans-Serif" font-size="10.00">m_multidiff</text>
</g>
<!-- Node10 -->
<g id="node10" class="node">
<title>Node10</title>
<g id="a_node10"><a xlink:href="../../d1/dcf/classCantera_1_1Array2D.html" target="_top" xlink:title="A class for 2D arrays stored in column&#45;major (Fortran&#45;compatible) form.">
<polygon fill="white" stroke="#666666" points="237,-162 184,-162 184,-143 237,-143 237,-162"/>
<text text-anchor="middle" x="210.5" y="-150" font-family="Helvetica,sans-Serif" font-size="10.00">Array2D</text>
</a>
</g>
</g>
<!-- Node10&#45;&gt;Node9 -->
<g id="edge9" class="edge">
<title>Node10&#45;&gt;Node9</title>
<path fill="none" stroke="#63b8ff" d="M210.5,-132.58C210.5,-120.63 210.5,-105.72 210.5,-96.41"/>
<polygon fill="#63b8ff" stroke="#63b8ff" points="207,-132.87 210.5,-142.87 214,-132.87 207,-132.87"/>
</g>
</g>
</svg>
