<?xml version="1.0" encoding="UTF-8" standalone="no"?>
<!DOCTYPE svg PUBLIC "-//W3C//DTD SVG 1.1//EN"
 "http://www.w3.org/Graphics/SVG/1.1/DTD/svg11.dtd">
<!-- Generated by graphviz version 2.43.0 (0)
 -->
<!-- Title: IonFlow.cpp Pages: 1 -->
<svg width="1400pt" height="431pt"
 viewBox="0.00 0.00 1400.48 431.00" xmlns="http://www.w3.org/2000/svg" xmlns:xlink="http://www.w3.org/1999/xlink">
<g id="graph0" class="graph" transform="scale(1 1) rotate(0) translate(4 427)">
<title>IonFlow.cpp</title>
<polygon fill="white" stroke="transparent" points="-4,4 -4,-427 1396.48,-427 1396.48,4 -4,4"/>
<!-- Node1 -->
<g id="node1" class="node">
<title>Node1</title>
<g id="a_node1"><a xlink:title=" ">
<polygon fill="#bfbfbf" stroke="black" points="998.48,-403.5 998.48,-422.5 1072.48,-422.5 1072.48,-403.5 998.48,-403.5"/>
<text text-anchor="middle" x="1035.48" y="-410.5" font-family="Helvetica,sans-Serif" font-size="10.00">IonFlow.cpp</text>
</a>
</g>
</g>
<!-- Node2 -->
<g id="node2" class="node">
<title>Node2</title>
<g id="a_node2"><a xlink:href="../../d7/d4b/IonFlow_8h.html" target="_top" xlink:title=" ">
<polygon fill="white" stroke="black" points="719.98,-347.5 719.98,-366.5 850.98,-366.5 850.98,-347.5 719.98,-347.5"/>
<text text-anchor="middle" x="785.48" y="-354.5" font-family="Helvetica,sans-Serif" font-size="10.00">cantera/oneD/IonFlow.h</text>
</a>
</g>
</g>
<!-- Node1&#45;&gt;Node2 -->
<g id="edge1" class="edge">
<title>Node1&#45;&gt;Node2</title>
<path fill="none" stroke="midnightblue" d="M998.32,-403.97C954.89,-394.59 882.86,-379.03 834.78,-368.65"/>
<polygon fill="midnightblue" stroke="midnightblue" points="835.42,-365.21 824.91,-366.52 833.94,-372.05 835.42,-365.21"/>
</g>
<!-- Node3 -->
<g id="node3" class="node">
<title>Node3</title>
<g id="a_node3"><a xlink:href="../../d7/d7c/StFlow_8h.html" target="_top" xlink:title=" ">
<polygon fill="white" stroke="black" points="480.48,-291.5 480.48,-310.5 606.48,-310.5 606.48,-291.5 480.48,-291.5"/>
<text text-anchor="middle" x="543.48" y="-298.5" font-family="Helvetica,sans-Serif" font-size="10.00">cantera/oneD/StFlow.h</text>
</a>
</g>
</g>
<!-- Node1&#45;&gt;Node3 -->
<g id="edge31" class="edge">
<title>Node1&#45;&gt;Node3</title>
<path fill="none" stroke="midnightblue" d="M998.38,-409.69C937.45,-405.27 812.74,-393.59 710.48,-367 659.72,-353.8 603.4,-329.8 570.85,-314.95"/>
<polygon fill="midnightblue" stroke="midnightblue" points="572.09,-311.67 561.55,-310.66 569.16,-318.02 572.09,-311.67"/>
</g>
<!-- Node42 -->
<g id="node20" class="node">
<title>Node42</title>
<g id="a_node20"><a xlink:href="../../da/dbc/refine_8h_source.html" target="_top" xlink:title=" ">
<polygon fill="white" stroke="black" points="1030.48,-56.5 1030.48,-75.5 1152.48,-75.5 1152.48,-56.5 1030.48,-56.5"/>
<text text-anchor="middle" x="1091.48" y="-63.5" font-family="Helvetica,sans-Serif" font-size="10.00">cantera/oneD/refine.h</text>
</a>
</g>
</g>
<!-- Node1&#45;&gt;Node42 -->
<g id="edge32" class="edge">
<title>Node1&#45;&gt;Node42</title>
<path fill="none" stroke="midnightblue" d="M1046.57,-403.33C1066.99,-386.29 1108.48,-346.24 1108.48,-302 1108.48,-302 1108.48,-302 1108.48,-188 1108.48,-151.54 1100.82,-109.5 1095.78,-85.8"/>
<polygon fill="midnightblue" stroke="midnightblue" points="1099.13,-84.76 1093.56,-75.75 1092.3,-86.27 1099.13,-84.76"/>
</g>
<!-- Node43 -->
<g id="node21" class="node">
<title>Node43</title>
<g id="a_node21"><a xlink:href="../../d8/d5e/Transport_8h.html" target="_top" xlink:title="Headers for the Transport object, which is the virtual base class for all transport property evaluato...">
<polygon fill="white" stroke="black" points="726.48,-179.5 726.48,-198.5 884.48,-198.5 884.48,-179.5 726.48,-179.5"/>
<text text-anchor="middle" x="805.48" y="-186.5" font-family="Helvetica,sans-Serif" font-size="10.00">cantera/transport/Transport.h</text>
</a>
</g>
</g>
<!-- Node1&#45;&gt;Node43 -->
<g id="edge34" class="edge">
<title>Node1&#45;&gt;Node43</title>
<path fill="none" stroke="midnightblue" d="M1026.46,-403.3C991.83,-369.87 867.04,-249.43 821.91,-205.86"/>
<polygon fill="midnightblue" stroke="midnightblue" points="824.31,-203.31 814.68,-198.88 819.45,-208.35 824.31,-203.31"/>
</g>
<!-- Node44 -->
<g id="node22" class="node">
<title>Node44</title>
<g id="a_node22"><a xlink:href="../../d2/d49/global_8h.html" target="_top" xlink:title="This file contains definitions for utility functions and text for modules, inputfiles and logging,...">
<polygon fill="white" stroke="black" points="836.48,-118 836.48,-137 958.48,-137 958.48,-118 836.48,-118"/>
<text text-anchor="middle" x="897.48" y="-125" font-family="Helvetica,sans-Serif" font-size="10.00">cantera/base/global.h</text>
</a>
</g>
</g>
<!-- Node1&#45;&gt;Node44 -->
<g id="edge48" class="edge">
<title>Node1&#45;&gt;Node44</title>
<path fill="none" stroke="midnightblue" d="M1040.2,-403.46C1049.75,-385.34 1070.48,-341.48 1070.48,-302 1070.48,-302 1070.48,-302 1070.48,-244 1070.48,-213.9 1072.41,-200.63 1051.48,-179 1029.68,-156.48 997.68,-143.99 968.5,-137.08"/>
<polygon fill="midnightblue" stroke="midnightblue" points="969.25,-133.66 958.73,-134.94 967.75,-140.5 969.25,-133.66"/>
</g>
<!-- Node45 -->
<g id="node23" class="node">
<title>Node45</title>
<g id="a_node23"><a xlink:href="../../d1/d96/funcs_8h.html" target="_top" xlink:title="Header for a file containing miscellaneous numerical functions.">
<polygon fill="white" stroke="black" points="902.48,-179.5 902.48,-198.5 1042.48,-198.5 1042.48,-179.5 902.48,-179.5"/>
<text text-anchor="middle" x="972.48" y="-186.5" font-family="Helvetica,sans-Serif" font-size="10.00">cantera/numerics/funcs.h</text>
</a>
</g>
</g>
<!-- Node1&#45;&gt;Node45 -->
<g id="edge40" class="edge">
<title>Node1&#45;&gt;Node45</title>
<path fill="none" stroke="midnightblue" d="M1033.01,-403.3C1023.72,-370.56 990.75,-254.38 977.78,-208.67"/>
<polygon fill="midnightblue" stroke="midnightblue" points="981.1,-207.55 975,-198.88 974.36,-209.46 981.1,-207.55"/>
</g>
<!-- Node46 -->
<g id="node24" class="node">
<title>Node46</title>
<g id="a_node24"><a xlink:href="../../d7/dcd/polyfit_8h.html" target="_top" xlink:title=" ">
<polygon fill="white" stroke="black" points="1136.48,-291.5 1136.48,-310.5 1280.48,-310.5 1280.48,-291.5 1136.48,-291.5"/>
<text text-anchor="middle" x="1208.48" y="-298.5" font-family="Helvetica,sans-Serif" font-size="10.00">cantera/numerics/polyfit.h</text>
</a>
</g>
</g>
<!-- Node1&#45;&gt;Node46 -->
<g id="edge43" class="edge">
<title>Node1&#45;&gt;Node46</title>
<path fill="none" stroke="midnightblue" d="M1054.31,-403.4C1072.29,-394.93 1099.89,-381.23 1122.48,-367 1147.02,-351.54 1173.37,-330.97 1190.34,-317.15"/>
<polygon fill="midnightblue" stroke="midnightblue" points="1192.8,-319.66 1198.3,-310.6 1188.35,-314.25 1192.8,-319.66"/>
</g>
<!-- Node47 -->
<g id="node25" class="node">
<title>Node47</title>
<g id="a_node25"><a xlink:href="../../de/df0/utilities_8h.html" target="_top" xlink:title="Various templated functions that carry out common vector and polynomial operations (see Templated Arr...">
<polygon fill="white" stroke="black" points="1244.48,-347.5 1244.48,-366.5 1372.48,-366.5 1372.48,-347.5 1244.48,-347.5"/>
<text text-anchor="middle" x="1308.48" y="-354.5" font-family="Helvetica,sans-Serif" font-size="10.00">cantera/base/utilities.h</text>
</a>
</g>
</g>
<!-- Node1&#45;&gt;Node47 -->
<g id="edge45" class="edge">
<title>Node1&#45;&gt;Node47</title>
<path fill="none" stroke="midnightblue" d="M1072.58,-404.66C1119.69,-395.34 1201.32,-379.2 1255.11,-368.56"/>
<polygon fill="midnightblue" stroke="midnightblue" points="1256.02,-371.94 1265.15,-366.57 1254.66,-365.08 1256.02,-371.94"/>
</g>
<!-- Node2&#45;&gt;Node3 -->
<g id="edge2" class="edge">
<title>Node2&#45;&gt;Node3</title>
<path fill="none" stroke="midnightblue" d="M747.13,-347.44C705,-338.04 637.27,-322.93 591.61,-312.74"/>
<polygon fill="midnightblue" stroke="midnightblue" points="592.17,-309.28 581.64,-310.52 590.64,-316.11 592.17,-309.28"/>
</g>
<!-- Node4 -->
<g id="node4" class="node">
<title>Node4</title>
<g id="a_node4"><a xlink:href="../../db/dce/Domain1D_8h.html" target="_top" xlink:title=" ">
<polygon fill="white" stroke="black" points="374.98,-235.5 374.98,-254.5 451.98,-254.5 451.98,-235.5 374.98,-235.5"/>
<text text-anchor="middle" x="413.48" y="-242.5" font-family="Helvetica,sans-Serif" font-size="10.00">Domain1D.h</text>
</a>
</g>
</g>
<!-- Node3&#45;&gt;Node4 -->
<g id="edge3" class="edge">
<title>Node3&#45;&gt;Node4</title>
<path fill="none" stroke="midnightblue" d="M522.88,-291.44C501.48,-282.56 467.8,-268.56 443.45,-258.45"/>
<polygon fill="midnightblue" stroke="midnightblue" points="444.56,-255.12 433.98,-254.52 441.87,-261.58 444.56,-255.12"/>
</g>
<!-- Node22 -->
<g id="node8" class="node">
<title>Node22</title>
<g id="a_node8"><a xlink:href="../../df/dd0/Array_8h.html" target="_top" xlink:title="Header file for class Cantera::Array2D.">
<polygon fill="white" stroke="black" points="634.48,-235.5 634.48,-254.5 750.48,-254.5 750.48,-235.5 634.48,-235.5"/>
<text text-anchor="middle" x="692.48" y="-242.5" font-family="Helvetica,sans-Serif" font-size="10.00">cantera/base/Array.h</text>
</a>
</g>
</g>
<!-- Node3&#45;&gt;Node22 -->
<g id="edge8" class="edge">
<title>Node3&#45;&gt;Node22</title>
<path fill="none" stroke="midnightblue" d="M567.09,-291.44C591.94,-282.44 631.25,-268.19 659.23,-258.05"/>
<polygon fill="midnightblue" stroke="midnightblue" points="660.77,-261.21 668.98,-254.52 658.39,-254.63 660.77,-261.21"/>
</g>
<!-- Node24 -->
<g id="node10" class="node">
<title>Node24</title>
<g id="a_node10"><a xlink:href="../../d4/dfa/Solution_8h.html" target="_top" xlink:title=" ">
<polygon fill="white" stroke="black" points="225.98,-235.5 225.98,-254.5 356.98,-254.5 356.98,-235.5 225.98,-235.5"/>
<text text-anchor="middle" x="291.48" y="-242.5" font-family="Helvetica,sans-Serif" font-size="10.00">cantera/base/Solution.h</text>
</a>
</g>
</g>
<!-- Node3&#45;&gt;Node24 -->
<g id="edge11" class="edge">
<title>Node3&#45;&gt;Node24</title>
<path fill="none" stroke="midnightblue" d="M503.55,-291.44C459.59,-282.02 388.85,-266.87 341.3,-256.68"/>
<polygon fill="midnightblue" stroke="midnightblue" points="341.73,-253.19 331.22,-254.52 340.27,-260.03 341.73,-253.19"/>
</g>
<!-- Node31 -->
<g id="node13" class="node">
<title>Node31</title>
<g id="a_node13"><a xlink:href="../../d7/d01/ThermoPhase_8h.html" target="_top" xlink:title="Header file for class ThermoPhase, the base class for phases with thermodynamic properties,...">
<polygon fill="white" stroke="black" points="37.48,-235.5 37.48,-254.5 207.48,-254.5 207.48,-235.5 37.48,-235.5"/>
<text text-anchor="middle" x="122.48" y="-242.5" font-family="Helvetica,sans-Serif" font-size="10.00">cantera/thermo/ThermoPhase.h</text>
</a>
</g>
</g>
<!-- Node3&#45;&gt;Node31 -->
<g id="edge18" class="edge">
<title>Node3&#45;&gt;Node31</title>
<path fill="none" stroke="midnightblue" d="M480.45,-291.92C405.33,-282.28 279.85,-266.19 199.17,-255.84"/>
<polygon fill="midnightblue" stroke="midnightblue" points="199.43,-252.34 189.07,-254.54 198.54,-259.29 199.43,-252.34"/>
</g>
<!-- Node38 -->
<g id="node17" class="node">
<title>Node38</title>
<g id="a_node17"><a xlink:href="../../d5/db4/Kinetics_8h.html" target="_top" xlink:title="Base class for kinetics managers and also contains the kineticsmgr module documentation (see Kinetics...">
<polygon fill="white" stroke="black" points="470.48,-235.5 470.48,-254.5 616.48,-254.5 616.48,-235.5 470.48,-235.5"/>
<text text-anchor="middle" x="543.48" y="-242.5" font-family="Helvetica,sans-Serif" font-size="10.00">cantera/kinetics/Kinetics.h</text>
</a>
</g>
</g>
<!-- Node3&#45;&gt;Node38 -->
<g id="edge26" class="edge">
<title>Node3&#45;&gt;Node38</title>
<path fill="none" stroke="midnightblue" d="M543.48,-291.08C543.48,-284.01 543.48,-273.86 543.48,-264.99"/>
<polygon fill="midnightblue" stroke="midnightblue" points="546.98,-264.75 543.48,-254.75 539.98,-264.75 546.98,-264.75"/>
</g>
<!-- Node5 -->
<g id="node5" class="node">
<title>Node5</title>
<g id="a_node5"><a xlink:href="../../db/d98/ctexceptions_8h.html" target="_top" xlink:title="Definitions for the classes that are thrown when Cantera experiences an error condition (also contain...">
<polygon fill="white" stroke="red" points="438.48,-118 438.48,-137 592.48,-137 592.48,-118 438.48,-118"/>
<text text-anchor="middle" x="515.48" y="-125" font-family="Helvetica,sans-Serif" font-size="10.00">cantera/base/ctexceptions.h</text>
</a>
</g>
</g>
<!-- Node4&#45;&gt;Node5 -->
<g id="edge4" class="edge">
<title>Node4&#45;&gt;Node5</title>
<path fill="none" stroke="midnightblue" d="M421.14,-235.32C438.13,-216.09 479.15,-169.64 501.08,-144.81"/>
<polygon fill="midnightblue" stroke="midnightblue" points="503.73,-147.09 507.72,-137.28 498.48,-142.46 503.73,-147.09"/>
</g>
<!-- Node6 -->
<g id="node6" class="node">
<title>Node6</title>
<g id="a_node6"><a xlink:href="../../d9/ddc/ct__defs_8h.html" target="_top" xlink:title="This file contains definitions of constants, types and terms that are used in internal routines and a...">
<polygon fill="white" stroke="red" points="668.98,-0.5 668.98,-19.5 729.98,-19.5 729.98,-0.5 668.98,-0.5"/>
<text text-anchor="middle" x="699.48" y="-7.5" font-family="Helvetica,sans-Serif" font-size="10.00">ct_defs.h</text>
</a>
</g>
</g>
<!-- Node5&#45;&gt;Node6 -->
<g id="edge5" class="edge">
<title>Node5&#45;&gt;Node6</title>
<path fill="none" stroke="midnightblue" d="M525.08,-117.96C541.16,-103.93 574.88,-75.58 606.48,-56 626.6,-43.53 650.7,-31.95 669.32,-23.67"/>
<polygon fill="midnightblue" stroke="midnightblue" points="670.75,-26.86 678.51,-19.65 667.94,-20.45 670.75,-26.86"/>
</g>
<!-- Node17 -->
<g id="node7" class="node">
<title>Node17</title>
<g id="a_node7"><a xlink:href="../../db/def/fmt_8h.html" target="_top" xlink:title="Wrapper for either system&#45;installed or local headers for fmt.">
<polygon fill="white" stroke="red" points="686.98,-56.5 686.98,-75.5 795.98,-75.5 795.98,-56.5 686.98,-56.5"/>
<text text-anchor="middle" x="741.48" y="-63.5" font-family="Helvetica,sans-Serif" font-size="10.00">cantera/base/fmt.h</text>
</a>
</g>
</g>
<!-- Node5&#45;&gt;Node17 -->
<g id="edge6" class="edge">
<title>Node5&#45;&gt;Node17</title>
<path fill="none" stroke="midnightblue" d="M547.86,-117.98C587.72,-107.48 655.5,-89.64 699.37,-78.09"/>
<polygon fill="midnightblue" stroke="midnightblue" points="700.38,-81.44 709.16,-75.51 698.6,-74.67 700.38,-81.44"/>
</g>
<!-- Node17&#45;&gt;Node6 -->
<g id="edge7" class="edge">
<title>Node17&#45;&gt;Node6</title>
<path fill="none" stroke="midnightblue" d="M734.54,-56.08C728.55,-48.38 719.73,-37.03 712.43,-27.65"/>
<polygon fill="midnightblue" stroke="midnightblue" points="715.19,-25.5 706.28,-19.75 709.66,-29.79 715.19,-25.5"/>
</g>
<!-- Node22&#45;&gt;Node6 -->
<g id="edge9" class="edge">
<title>Node22&#45;&gt;Node6</title>
<path fill="none" stroke="midnightblue" d="M676.14,-235.39C663.52,-227.72 646.98,-215.21 639.48,-199 635.75,-190.93 638.52,-187.84 639.48,-179 645.51,-123.36 643.43,-107 666.48,-56 671.11,-45.76 678.32,-35.55 684.82,-27.46"/>
<polygon fill="midnightblue" stroke="midnightblue" points="687.68,-29.5 691.44,-19.6 682.32,-24.99 687.68,-29.5"/>
</g>
<!-- Node23 -->
<g id="node9" class="node">
<title>Node23</title>
<g id="a_node9"><a xlink:title=" ">
<polygon fill="white" stroke="#bfbfbf" points="648.48,-179.5 648.48,-198.5 708.48,-198.5 708.48,-179.5 648.48,-179.5"/>
<text text-anchor="middle" x="678.48" y="-186.5" font-family="Helvetica,sans-Serif" font-size="10.00">iostream</text>
</a>
</g>
</g>
<!-- Node22&#45;&gt;Node23 -->
<g id="edge10" class="edge">
<title>Node22&#45;&gt;Node23</title>
<path fill="none" stroke="midnightblue" d="M690.17,-235.08C688.31,-227.93 685.64,-217.64 683.32,-208.69"/>
<polygon fill="midnightblue" stroke="midnightblue" points="686.64,-207.55 680.75,-198.75 679.87,-209.31 686.64,-207.55"/>
</g>
<!-- Node24&#45;&gt;Node5 -->
<g id="edge12" class="edge">
<title>Node24&#45;&gt;Node5</title>
<path fill="none" stroke="midnightblue" d="M308.31,-235.32C347.17,-215.29 443.29,-165.72 489.65,-141.82"/>
<polygon fill="midnightblue" stroke="midnightblue" points="491.47,-144.82 498.75,-137.12 488.26,-138.6 491.47,-144.82"/>
</g>
<!-- Node25 -->
<g id="node11" class="node">
<title>Node25</title>
<g id="a_node11"><a xlink:href="../../dd/d2a/AnyMap_8h.html" target="_top" xlink:title=" ">
<polygon fill="white" stroke="red" points="157.98,-179.5 157.98,-198.5 288.98,-198.5 288.98,-179.5 157.98,-179.5"/>
<text text-anchor="middle" x="223.48" y="-186.5" font-family="Helvetica,sans-Serif" font-size="10.00">cantera/base/AnyMap.h</text>
</a>
</g>
</g>
<!-- Node24&#45;&gt;Node25 -->
<g id="edge13" class="edge">
<title>Node24&#45;&gt;Node25</title>
<path fill="none" stroke="midnightblue" d="M280.55,-235.32C270.3,-227.18 254.76,-214.84 242.48,-205.09"/>
<polygon fill="midnightblue" stroke="midnightblue" points="244.61,-202.31 234.6,-198.83 240.26,-207.79 244.61,-202.31"/>
</g>
<!-- Node25&#45;&gt;Node5 -->
<g id="edge15" class="edge">
<title>Node25&#45;&gt;Node5</title>
<path fill="none" stroke="midnightblue" d="M265.31,-179.48C317.68,-168.8 407.35,-150.53 463.91,-139.01"/>
<polygon fill="midnightblue" stroke="midnightblue" points="464.62,-142.44 473.72,-137.01 463.22,-135.58 464.62,-142.44"/>
</g>
<!-- Node25&#45;&gt;Node6 -->
<g id="edge14" class="edge">
<title>Node25&#45;&gt;Node6</title>
<path fill="none" stroke="midnightblue" d="M225.25,-179.42C229,-163.54 239.28,-129.59 261.48,-112 323.52,-62.84 562.26,-28.17 658.71,-15.9"/>
<polygon fill="midnightblue" stroke="midnightblue" points="659.19,-19.36 668.67,-14.64 658.31,-12.42 659.19,-19.36"/>
</g>
<!-- Node26 -->
<g id="node12" class="node">
<title>Node26</title>
<g id="a_node12"><a xlink:href="../../da/d58/Units_8h.html" target="_top" xlink:title="Header for unit conversion utilities, which are used to translate user input from input files (See In...">
<polygon fill="white" stroke="black" points="97.98,-118 97.98,-137 214.98,-137 214.98,-118 97.98,-118"/>
<text text-anchor="middle" x="156.48" y="-125" font-family="Helvetica,sans-Serif" font-size="10.00">cantera/base/Units.h</text>
</a>
</g>
</g>
<!-- Node25&#45;&gt;Node26 -->
<g id="edge16" class="edge">
<title>Node25&#45;&gt;Node26</title>
<path fill="none" stroke="midnightblue" d="M213.88,-179.48C203.43,-170.2 186.51,-155.17 173.74,-143.83"/>
<polygon fill="midnightblue" stroke="midnightblue" points="175.86,-141.03 166.06,-137.01 171.21,-146.27 175.86,-141.03"/>
</g>
<!-- Node26&#45;&gt;Node6 -->
<g id="edge17" class="edge">
<title>Node26&#45;&gt;Node6</title>
<path fill="none" stroke="midnightblue" d="M162.47,-117.65C173.59,-102.06 199.07,-70.01 229.48,-56 305.44,-21 558.94,-13.21 658.67,-11.48"/>
<polygon fill="midnightblue" stroke="midnightblue" points="659.01,-14.98 668.95,-11.32 658.89,-7.98 659.01,-14.98"/>
</g>
<!-- Node31&#45;&gt;Node25 -->
<g id="edge25" class="edge">
<title>Node31&#45;&gt;Node25</title>
<path fill="none" stroke="midnightblue" d="M138.71,-235.32C154.83,-226.7 179.78,-213.36 198.44,-203.39"/>
<polygon fill="midnightblue" stroke="midnightblue" points="200.12,-206.46 207.29,-198.65 196.82,-200.28 200.12,-206.46"/>
</g>
<!-- Node31&#45;&gt;Node26 -->
<g id="edge24" class="edge">
<title>Node31&#45;&gt;Node26</title>
<path fill="none" stroke="midnightblue" d="M73.17,-235.46C32.38,-226.12 -15.7,-208.42 5.48,-179 24.27,-152.9 57.17,-140.09 87.47,-133.89"/>
<polygon fill="midnightblue" stroke="midnightblue" points="88.42,-137.27 97.63,-132.03 87.16,-130.39 88.42,-137.27"/>
</g>
<!-- Node32 -->
<g id="node14" class="node">
<title>Node32</title>
<g id="a_node14"><a xlink:href="../../da/d84/Phase_8h.html" target="_top" xlink:title="Header file for class Phase.">
<polygon fill="white" stroke="red" points="306.98,-179.5 306.98,-198.5 361.98,-198.5 361.98,-179.5 306.98,-179.5"/>
<text text-anchor="middle" x="334.48" y="-186.5" font-family="Helvetica,sans-Serif" font-size="10.00">Phase.h</text>
</a>
</g>
</g>
<!-- Node31&#45;&gt;Node32 -->
<g id="edge19" class="edge">
<title>Node31&#45;&gt;Node32</title>
<path fill="none" stroke="midnightblue" d="M156.07,-235.44C194.41,-225.68 256.97,-209.74 296.9,-199.57"/>
<polygon fill="midnightblue" stroke="midnightblue" points="297.96,-202.91 306.79,-197.05 296.23,-196.13 297.96,-202.91"/>
</g>
<!-- Node36 -->
<g id="node16" class="node">
<title>Node36</title>
<g id="a_node16"><a xlink:href="../../d6/d7a/MultiSpeciesThermo_8h.html" target="_top" xlink:title="Header for a general species thermodynamic property manager for a phase (see MultiSpeciesThermo).">
<polygon fill="white" stroke="red" points="14.98,-179.5 14.98,-198.5 139.98,-198.5 139.98,-179.5 14.98,-179.5"/>
<text text-anchor="middle" x="77.48" y="-186.5" font-family="Helvetica,sans-Serif" font-size="10.00">MultiSpeciesThermo.h</text>
</a>
</g>
</g>
<!-- Node31&#45;&gt;Node36 -->
<g id="edge23" class="edge">
<title>Node31&#45;&gt;Node36</title>
<path fill="none" stroke="midnightblue" d="M115.05,-235.08C108.63,-227.38 99.17,-216.03 91.36,-206.65"/>
<polygon fill="midnightblue" stroke="midnightblue" points="93.86,-204.19 84.77,-198.75 88.48,-208.67 93.86,-204.19"/>
</g>
<!-- Node32&#45;&gt;Node5 -->
<g id="edge20" class="edge">
<title>Node32&#45;&gt;Node5</title>
<path fill="none" stroke="midnightblue" d="M360.41,-179.48C391.73,-169.18 444.57,-151.81 479.73,-140.25"/>
<polygon fill="midnightblue" stroke="midnightblue" points="481.19,-143.46 489.59,-137.01 479,-136.81 481.19,-143.46"/>
</g>
<!-- Node34 -->
<g id="node15" class="node">
<title>Node34</title>
<g id="a_node15"><a xlink:href="../../d6/df6/ValueCache_8h.html" target="_top" xlink:title=" ">
<polygon fill="white" stroke="red" points="270.98,-118 270.98,-137 419.98,-137 419.98,-118 270.98,-118"/>
<text text-anchor="middle" x="345.48" y="-125" font-family="Helvetica,sans-Serif" font-size="10.00">cantera/base/ValueCache.h</text>
</a>
</g>
</g>
<!-- Node32&#45;&gt;Node34 -->
<g id="edge21" class="edge">
<title>Node32&#45;&gt;Node34</title>
<path fill="none" stroke="midnightblue" d="M336.05,-179.48C337.61,-171.08 340.03,-157.98 342.03,-147.16"/>
<polygon fill="midnightblue" stroke="midnightblue" points="345.53,-147.48 343.91,-137.01 338.65,-146.21 345.53,-147.48"/>
</g>
<!-- Node34&#45;&gt;Node6 -->
<g id="edge22" class="edge">
<title>Node34&#45;&gt;Node6</title>
<path fill="none" stroke="midnightblue" d="M371.8,-117.91C434.26,-97.53 591.57,-46.21 663.08,-22.88"/>
<polygon fill="midnightblue" stroke="midnightblue" points="664.57,-26.07 672.99,-19.64 662.39,-19.42 664.57,-26.07"/>
</g>
<!-- Node38&#45;&gt;Node34 -->
<g id="edge30" class="edge">
<title>Node38&#45;&gt;Node34</title>
<path fill="none" stroke="midnightblue" d="M528.6,-235.32C494.47,-215.41 410.35,-166.34 369.08,-142.27"/>
<polygon fill="midnightblue" stroke="midnightblue" points="370.66,-139.14 360.26,-137.12 367.14,-145.19 370.66,-139.14"/>
</g>
<!-- Node39 -->
<g id="node18" class="node">
<title>Node39</title>
<g id="a_node18"><a xlink:href="../../dd/dfd/StoichManager_8h.html" target="_top" xlink:title=" ">
<polygon fill="white" stroke="black" points="494.48,-179.5 494.48,-198.5 592.48,-198.5 592.48,-179.5 494.48,-179.5"/>
<text text-anchor="middle" x="543.48" y="-186.5" font-family="Helvetica,sans-Serif" font-size="10.00">StoichManager.h</text>
</a>
</g>
</g>
<!-- Node38&#45;&gt;Node39 -->
<g id="edge27" class="edge">
<title>Node38&#45;&gt;Node39</title>
<path fill="none" stroke="midnightblue" d="M543.48,-235.08C543.48,-228.01 543.48,-217.86 543.48,-208.99"/>
<polygon fill="midnightblue" stroke="midnightblue" points="546.98,-208.75 543.48,-198.75 539.98,-208.75 546.98,-208.75"/>
</g>
<!-- Node39&#45;&gt;Node5 -->
<g id="edge29" class="edge">
<title>Node39&#45;&gt;Node5</title>
<path fill="none" stroke="midnightblue" d="M539.47,-179.48C535.39,-170.82 528.96,-157.15 523.78,-146.15"/>
<polygon fill="midnightblue" stroke="midnightblue" points="526.91,-144.57 519.48,-137.01 520.57,-147.55 526.91,-144.57"/>
</g>
<!-- Node40 -->
<g id="node19" class="node">
<title>Node40</title>
<g id="a_node19"><a xlink:href="../../d9/d42/eigen__sparse_8h_source.html" target="_top" xlink:title=" ">
<polygon fill="white" stroke="red" points="686.98,-112.5 686.98,-142.5 817.98,-142.5 817.98,-112.5 686.98,-112.5"/>
<text text-anchor="start" x="694.98" y="-130.5" font-family="Helvetica,sans-Serif" font-size="10.00">cantera/numerics/eigen</text>
<text text-anchor="middle" x="752.48" y="-119.5" font-family="Helvetica,sans-Serif" font-size="10.00">_sparse.h</text>
</a>
</g>
</g>
<!-- Node39&#45;&gt;Node40 -->
<g id="edge28" class="edge">
<title>Node39&#45;&gt;Node40</title>
<path fill="none" stroke="midnightblue" d="M573.42,-179.48C604.64,-170.59 654.38,-156.43 693.52,-145.29"/>
<polygon fill="midnightblue" stroke="midnightblue" points="694.56,-148.63 703.22,-142.52 692.65,-141.89 694.56,-148.63"/>
</g>
<!-- Node42&#45;&gt;Node6 -->
<g id="edge33" class="edge">
<title>Node42&#45;&gt;Node6</title>
<path fill="none" stroke="midnightblue" d="M1030.23,-56.56C949.33,-45.42 809.05,-26.09 740.11,-16.6"/>
<polygon fill="midnightblue" stroke="midnightblue" points="740.46,-13.11 730.07,-15.21 739.5,-20.05 740.46,-13.11"/>
</g>
<!-- Node43&#45;&gt;Node5 -->
<g id="edge36" class="edge">
<title>Node43&#45;&gt;Node5</title>
<path fill="none" stroke="midnightblue" d="M763.93,-179.48C712.03,-168.83 623.24,-150.61 567.05,-139.08"/>
<polygon fill="midnightblue" stroke="midnightblue" points="567.45,-135.59 556.95,-137.01 566.04,-142.45 567.45,-135.59"/>
</g>
<!-- Node43&#45;&gt;Node6 -->
<g id="edge35" class="edge">
<title>Node43&#45;&gt;Node6</title>
<path fill="none" stroke="midnightblue" d="M735.31,-179.46C713.16,-173.07 690.96,-162.03 677.48,-143 652.84,-108.22 674.82,-55.49 689.25,-28.41"/>
<polygon fill="midnightblue" stroke="midnightblue" points="692.31,-30.11 694.12,-19.67 686.19,-26.7 692.31,-30.11"/>
</g>
<!-- Node43&#45;&gt;Node44 -->
<g id="edge37" class="edge">
<title>Node43&#45;&gt;Node44</title>
<path fill="none" stroke="midnightblue" d="M818.66,-179.48C833.55,-169.84 858.02,-154.02 875.75,-142.55"/>
<polygon fill="midnightblue" stroke="midnightblue" points="877.83,-145.38 884.32,-137.01 874.02,-139.5 877.83,-145.38"/>
</g>
<!-- Node44&#45;&gt;Node6 -->
<g id="edge38" class="edge">
<title>Node44&#45;&gt;Node6</title>
<path fill="none" stroke="midnightblue" d="M887.73,-117.82C871.39,-103.58 837.05,-74.95 804.48,-56 781.83,-42.83 754.61,-31.27 733.55,-23.17"/>
<polygon fill="midnightblue" stroke="midnightblue" points="734.65,-19.84 724.05,-19.58 732.17,-26.39 734.65,-19.84"/>
</g>
<!-- Node44&#45;&gt;Node17 -->
<g id="edge39" class="edge">
<title>Node44&#45;&gt;Node17</title>
<path fill="none" stroke="midnightblue" d="M875.13,-117.98C848.48,-107.81 803.76,-90.76 773.46,-79.2"/>
<polygon fill="midnightblue" stroke="midnightblue" points="774.38,-75.8 763.79,-75.51 771.88,-82.34 774.38,-75.8"/>
</g>
<!-- Node45&#45;&gt;Node6 -->
<g id="edge41" class="edge">
<title>Node45&#45;&gt;Node6</title>
<path fill="none" stroke="midnightblue" d="M974.67,-179.04C977.85,-163.73 981.93,-132.23 967.48,-112 914.75,-38.19 801.06,-18.28 740.08,-12.94"/>
<polygon fill="midnightblue" stroke="midnightblue" points="740.29,-9.45 730.05,-12.15 739.74,-16.43 740.29,-9.45"/>
</g>
<!-- Node45&#45;&gt;Node40 -->
<g id="edge42" class="edge">
<title>Node45&#45;&gt;Node40</title>
<path fill="none" stroke="midnightblue" d="M940.96,-179.48C907.96,-170.55 855.3,-156.31 814.02,-145.14"/>
<polygon fill="midnightblue" stroke="midnightblue" points="814.89,-141.76 804.33,-142.52 813.07,-148.51 814.89,-141.76"/>
</g>
<!-- Node46&#45;&gt;Node6 -->
<g id="edge44" class="edge">
<title>Node46&#45;&gt;Node6</title>
<path fill="none" stroke="midnightblue" d="M1206.65,-291.49C1202.85,-273.07 1194.48,-228.12 1194.48,-190 1194.48,-190 1194.48,-190 1194.48,-126.5 1194.48,-91.9 1189.73,-75.96 1161.48,-56 1127.44,-31.95 846.75,-17.39 740.25,-12.68"/>
<polygon fill="midnightblue" stroke="midnightblue" points="740.35,-9.18 730.2,-12.24 740.04,-16.17 740.35,-9.18"/>
</g>
<!-- Node47&#45;&gt;Node6 -->
<g id="edge46" class="edge">
<title>Node47&#45;&gt;Node6</title>
<path fill="none" stroke="midnightblue" d="M1308.48,-347.44C1308.48,-328.94 1308.48,-283.81 1308.48,-246 1308.48,-246 1308.48,-246 1308.48,-126.5 1308.48,-63.49 1245.55,-75.01 1185.48,-56 1102.77,-29.83 841.46,-16.74 740.16,-12.54"/>
<polygon fill="midnightblue" stroke="midnightblue" points="740.16,-9.04 730.02,-12.13 739.87,-16.03 740.16,-9.04"/>
</g>
<!-- Node48 -->
<g id="node26" class="node">
<title>Node48</title>
<g id="a_node26"><a xlink:title=" ">
<polygon fill="white" stroke="#bfbfbf" points="1336.48,-291.5 1336.48,-310.5 1392.48,-310.5 1392.48,-291.5 1336.48,-291.5"/>
<text text-anchor="middle" x="1364.48" y="-298.5" font-family="Helvetica,sans-Serif" font-size="10.00">numeric</text>
</a>
</g>
</g>
<!-- Node47&#45;&gt;Node48 -->
<g id="edge47" class="edge">
<title>Node47&#45;&gt;Node48</title>
<path fill="none" stroke="midnightblue" d="M1317.48,-347.32C1325.67,-339.42 1337.98,-327.55 1347.95,-317.94"/>
<polygon fill="midnightblue" stroke="midnightblue" points="1350.55,-320.29 1355.32,-310.83 1345.69,-315.26 1350.55,-320.29"/>
</g>
</g>
</svg>
