<?xml version="1.0" encoding="UTF-8" standalone="no"?>
<!DOCTYPE svg PUBLIC "-//W3C//DTD SVG 1.1//EN"
 "http://www.w3.org/Graphics/SVG/1.1/DTD/svg11.dtd">
<!-- Generated by graphviz version 2.43.0 (0)
 -->
<!-- Title: FalloffRate Pages: 1 -->
<svg width="334pt" height="137pt"
 viewBox="0.00 0.00 334.00 137.00" xmlns="http://www.w3.org/2000/svg" xmlns:xlink="http://www.w3.org/1999/xlink">
<g id="graph0" class="graph" transform="scale(1 1) rotate(0) translate(4 133)">
<title>FalloffRate</title>
<!-- Node1 -->
<g id="Node000001" class="node">
<title>Node1</title>
<g id="a_Node000001"><a xlink:title="Base class for falloff rate calculators.">
<polygon fill="#999999" stroke="#666666" points="208.5,-74 140.5,-74 140.5,-55 208.5,-55 208.5,-74"/>
<text text-anchor="middle" x="174.5" y="-62" font-family="Helvetica,sans-Serif" font-size="10.00">FalloffRate</text>
</a>
</g>
</g>
<!-- Node3 -->
<g id="Node000003" class="node">
<title>Node3</title>
<g id="a_Node000003"><a xlink:href="../../dd/d29/classCantera_1_1LindemannRate.html" target="_top" xlink:title="The Lindemann falloff parameterization.">
<polygon fill="white" stroke="#666666" points="93,-19 0,-19 0,0 93,0 93,-19"/>
<text text-anchor="middle" x="46.5" y="-7" font-family="Helvetica,sans-Serif" font-size="10.00">LindemannRate</text>
</a>
</g>
</g>
<!-- Node1&#45;&gt;Node3 -->
<g id="edge2_Node000001_Node000003" class="edge">
<title>Node1&#45;&gt;Node3</title>
<g id="a_edge2_Node000001_Node000003"><a xlink:title=" ">
<path fill="none" stroke="#63b8ff" d="M144.38,-51.03C120.71,-41.23 88.35,-27.83 67.44,-19.17"/>
<polygon fill="#63b8ff" stroke="#63b8ff" points="143.36,-54.39 153.93,-54.98 146.03,-47.93 143.36,-54.39"/>
</a>
</g>
</g>
<!-- Node4 -->
<g id="Node000004" class="node">
<title>Node4</title>
<g id="a_Node000004"><a xlink:href="../../dd/d86/classCantera_1_1SriRate.html" target="_top" xlink:title="The SRI falloff function.">
<polygon fill="white" stroke="#666666" points="163.5,-19 111.5,-19 111.5,0 163.5,0 163.5,-19"/>
<text text-anchor="middle" x="137.5" y="-7" font-family="Helvetica,sans-Serif" font-size="10.00">SriRate</text>
</a>
</g>
</g>
<!-- Node1&#45;&gt;Node4 -->
<g id="edge3_Node000001_Node000004" class="edge">
<title>Node1&#45;&gt;Node4</title>
<g id="a_edge3_Node000001_Node000004"><a xlink:title=" ">
<path fill="none" stroke="#63b8ff" d="M162.55,-46.39C156.19,-37.27 148.63,-26.45 143.5,-19.09"/>
<polygon fill="#63b8ff" stroke="#63b8ff" points="159.8,-48.55 168.39,-54.75 165.54,-44.55 159.8,-48.55"/>
</a>
</g>
</g>
<!-- Node5 -->
<g id="Node000005" class="node">
<title>Node5</title>
<g id="a_Node000005"><a xlink:href="../../dd/df3/classCantera_1_1TroeRate.html" target="_top" xlink:title="The 3&#45; or 4&#45;parameter Troe falloff parameterization.">
<polygon fill="white" stroke="#666666" points="241,-19 182,-19 182,0 241,0 241,-19"/>
<text text-anchor="middle" x="211.5" y="-7" font-family="Helvetica,sans-Serif" font-size="10.00">TroeRate</text>
</a>
</g>
</g>
<!-- Node1&#45;&gt;Node5 -->
<g id="edge4_Node000001_Node000005" class="edge">
<title>Node1&#45;&gt;Node5</title>
<g id="a_edge4_Node000001_Node000005"><a xlink:title=" ">
<path fill="none" stroke="#63b8ff" d="M186.45,-46.39C192.81,-37.27 200.37,-26.45 205.5,-19.09"/>
<polygon fill="#63b8ff" stroke="#63b8ff" points="183.46,-44.55 180.61,-54.75 189.2,-48.55 183.46,-44.55"/>
</a>
</g>
</g>
<!-- Node6 -->
<g id="Node000006" class="node">
<title>Node6</title>
<g id="a_Node000006"><a xlink:href="../../d0/dd8/classCantera_1_1TsangRate.html" target="_top" xlink:title="The 1&#45; or 2&#45;parameter Tsang falloff parameterization.">
<polygon fill="white" stroke="#666666" points="326,-19 259,-19 259,0 326,0 326,-19"/>
<text text-anchor="middle" x="292.5" y="-7" font-family="Helvetica,sans-Serif" font-size="10.00">TsangRate</text>
</a>
</g>
</g>
<!-- Node1&#45;&gt;Node6 -->
<g id="edge5_Node000001_Node000006" class="edge">
<title>Node1&#45;&gt;Node6</title>
<g id="a_edge5_Node000001_Node000006"><a xlink:title=" ">
<path fill="none" stroke="#63b8ff" d="M202.85,-50.77C224.62,-40.99 254.09,-27.75 273.2,-19.17"/>
<polygon fill="#63b8ff" stroke="#63b8ff" points="201.15,-47.69 193.46,-54.98 204.01,-54.08 201.15,-47.69"/>
</a>
</g>
</g>
<!-- Node2 -->
<g id="Node000002" class="node">
<title>Node2</title>
<g id="a_Node000002"><a xlink:href="../../d0/d19/classCantera_1_1ReactionRate.html" target="_top" xlink:title="Abstract base class for reaction rate definitions; this base class is used by user&#45;facing APIs to acc...">
<polygon fill="white" stroke="#666666" points="215.5,-129 133.5,-129 133.5,-110 215.5,-110 215.5,-129"/>
<text text-anchor="middle" x="174.5" y="-117" font-family="Helvetica,sans-Serif" font-size="10.00">ReactionRate</text>
</a>
</g>
</g>
<!-- Node2&#45;&gt;Node1 -->
<g id="edge1_Node000001_Node000002" class="edge">
<title>Node2&#45;&gt;Node1</title>
<g id="a_edge1_Node000001_Node000002"><a xlink:title=" ">
<path fill="none" stroke="#63b8ff" d="M174.5,-99.66C174.5,-90.93 174.5,-80.99 174.5,-74.09"/>
<polygon fill="#63b8ff" stroke="#63b8ff" points="171,-99.75 174.5,-109.75 178,-99.75 171,-99.75"/>
</a>
</g>
</g>
</g>
</svg>
