<?xml version="1.0" encoding="UTF-8" standalone="no"?>
<!DOCTYPE svg PUBLIC "-//W3C//DTD SVG 1.1//EN"
 "http://www.w3.org/Graphics/SVG/1.1/DTD/svg11.dtd">
<!-- Generated by graphviz version 2.50.0 (0)
 -->
<!-- Title: ThreeBodyReaction2 Pages: 1 -->
<svg width="255pt" height="363pt"
 viewBox="0.00 0.00 254.50 363.00" xmlns="http://www.w3.org/2000/svg" xmlns:xlink="http://www.w3.org/1999/xlink">
<g id="graph0" class="graph" transform="scale(1 1) rotate(0) translate(4 359)">
<title>ThreeBodyReaction2</title>
<polygon fill="white" stroke="transparent" points="-4,4 -4,-359 250.5,-359 250.5,4 -4,4"/>
<!-- Node1 -->
<g id="node1" class="node">
<title>Node1</title>
<g id="a_node1"><a xlink:title="A reaction with a non&#45;reacting third body &quot;M&quot; that acts to add or remove energy from the reacting spe...">
<polygon fill="#bfbfbf" stroke="black" points="110,-0.5 110,-19.5 218,-19.5 218,-0.5 110,-0.5"/>
<text text-anchor="middle" x="164" y="-7.5" font-family="Helvetica,sans-Serif" font-size="10.00">ThreeBodyReaction2</text>
</a>
</g>
</g>
<!-- Node2 -->
<g id="node2" class="node">
<title>Node2</title>
<g id="a_node2"><a xlink:href="../../dc/d2f/classCantera_1_1ElementaryReaction2.html" target="_top" xlink:title="A reaction which follows mass&#45;action kinetics with a modified Arrhenius reaction rate.">
<polygon fill="white" stroke="black" points="57,-67.5 57,-86.5 167,-86.5 167,-67.5 57,-67.5"/>
<text text-anchor="middle" x="112" y="-74.5" font-family="Helvetica,sans-Serif" font-size="10.00">ElementaryReaction2</text>
</a>
</g>
</g>
<!-- Node2&#45;&gt;Node1 -->
<g id="edge1" class="edge">
<title>Node2&#45;&gt;Node1</title>
<path fill="none" stroke="midnightblue" d="M125.38,-59.27C135.52,-46.6 149.04,-29.7 157.1,-19.63"/>
<polygon fill="midnightblue" stroke="midnightblue" points="122.53,-57.24 119.01,-67.23 127.99,-61.61 122.53,-57.24"/>
</g>
<!-- Node3 -->
<g id="node3" class="node">
<title>Node3</title>
<g id="a_node3"><a xlink:href="../../d5/d66/classCantera_1_1Reaction.html" target="_top" xlink:title="Abstract base class which stores data about a reaction and its rate parameterization so that it can b...">
<polygon fill="white" stroke="black" points="46,-134.5 46,-153.5 102,-153.5 102,-134.5 46,-134.5"/>
<text text-anchor="middle" x="74" y="-141.5" font-family="Helvetica,sans-Serif" font-size="10.00">Reaction</text>
</a>
</g>
</g>
<!-- Node3&#45;&gt;Node2 -->
<g id="edge2" class="edge">
<title>Node3&#45;&gt;Node2</title>
<path fill="none" stroke="midnightblue" d="M84.21,-125.53C91.57,-112.95 101.18,-96.51 106.96,-86.63"/>
<polygon fill="midnightblue" stroke="midnightblue" points="81.15,-123.83 79.12,-134.23 87.19,-127.37 81.15,-123.83"/>
</g>
<!-- Node4 -->
<g id="node4" class="node">
<title>Node4</title>
<g id="a_node4"><a xlink:href="../../db/d74/classCantera_1_1AnyMap.html" target="_top" xlink:title="A map of string keys to values whose type can vary at runtime.">
<polygon fill="white" stroke="black" points="2.5,-201.5 2.5,-220.5 55.5,-220.5 55.5,-201.5 2.5,-201.5"/>
<text text-anchor="middle" x="29" y="-208.5" font-family="Helvetica,sans-Serif" font-size="10.00">AnyMap</text>
</a>
</g>
</g>
<!-- Node4&#45;&gt;Node3 -->
<g id="edge3" class="edge">
<title>Node4&#45;&gt;Node3</title>
<path fill="none" stroke="#9a32cd" stroke-dasharray="5,2" d="M34.84,-191.86C37.4,-185.29 40.8,-178.01 45,-172 49.89,-165.01 56.84,-158.45 62.72,-153.56"/>
<polygon fill="#9a32cd" stroke="#9a32cd" points="31.52,-190.73 31.49,-201.33 38.12,-193.06 31.52,-190.73"/>
<text text-anchor="middle" x="57.5" y="-175" font-family="Helvetica,sans-Serif" font-size="10.00"> input</text>
</g>
<!-- Node5 -->
<g id="node5" class="node">
<title>Node5</title>
<g id="a_node5"><a xlink:href="../../d9/d23/classCantera_1_1AnyBase.html" target="_top" xlink:title="Base class defining common data possessed by both AnyMap and AnyValue objects.">
<polygon fill="white" stroke="black" points="0,-268.5 0,-287.5 56,-287.5 56,-268.5 0,-268.5"/>
<text text-anchor="middle" x="28" y="-275.5" font-family="Helvetica,sans-Serif" font-size="10.00">AnyBase</text>
</a>
</g>
</g>
<!-- Node5&#45;&gt;Node4 -->
<g id="edge4" class="edge">
<title>Node5&#45;&gt;Node4</title>
<path fill="none" stroke="midnightblue" d="M28.29,-258.04C28.48,-245.67 28.72,-230.12 28.87,-220.63"/>
<polygon fill="midnightblue" stroke="midnightblue" points="24.79,-258.18 28.13,-268.23 31.79,-258.29 24.79,-258.18"/>
</g>
<!-- Node6 -->
<g id="node6" class="node">
<title>Node6</title>
<g id="a_node6"><a xlink:href="../../db/d63/classCantera_1_1Units.html" target="_top" xlink:title="A representation of the units associated with a dimensional quantity.">
<polygon fill="white" stroke="black" points="80,-335.5 80,-354.5 120,-354.5 120,-335.5 80,-335.5"/>
<text text-anchor="middle" x="100" y="-342.5" font-family="Helvetica,sans-Serif" font-size="10.00">Units</text>
</a>
</g>
</g>
<!-- Node6&#45;&gt;Node3 -->
<g id="edge5" class="edge">
<title>Node6&#45;&gt;Node3</title>
<path fill="none" stroke="#9a32cd" stroke-dasharray="5,2" d="M97.56,-325.3C92.1,-283.51 79.07,-183.83 75.14,-153.74"/>
<polygon fill="#9a32cd" stroke="#9a32cd" points="94.12,-325.99 98.88,-335.45 101.06,-325.08 94.12,-325.99"/>
<text text-anchor="middle" x="111" y="-242" font-family="Helvetica,sans-Serif" font-size="10.00"> rate_units</text>
</g>
<!-- Node9 -->
<g id="node9" class="node">
<title>Node9</title>
<g id="a_node9"><a xlink:href="../../d7/db0/classCantera_1_1ArrheniusBase.html" target="_top" xlink:title="Base class for Arrhenius&#45;type Parameterizations.">
<polygon fill="white" stroke="red" points="112,-268.5 112,-287.5 192,-287.5 192,-268.5 112,-268.5"/>
<text text-anchor="middle" x="152" y="-275.5" font-family="Helvetica,sans-Serif" font-size="10.00">ArrheniusBase</text>
</a>
</g>
</g>
<!-- Node6&#45;&gt;Node9 -->
<g id="edge9" class="edge">
<title>Node6&#45;&gt;Node9</title>
<path fill="none" stroke="#9a32cd" stroke-dasharray="5,2" d="M113.38,-327.27C123.52,-314.6 137.04,-297.7 145.1,-287.63"/>
<polygon fill="#9a32cd" stroke="#9a32cd" points="110.53,-325.24 107.01,-335.23 115.99,-329.61 110.53,-325.24"/>
<text text-anchor="middle" x="160" y="-309" font-family="Helvetica,sans-Serif" font-size="10.00"> m_rate_units</text>
</g>
<!-- Node7 -->
<g id="node7" class="node">
<title>Node7</title>
<g id="a_node7"><a xlink:href="../../d7/d2c/classCantera_1_1Arrhenius2.html" target="_top" xlink:title="Arrhenius reaction rate type depends only on temperature.">
<polygon fill="white" stroke="black" points="120.5,-134.5 120.5,-153.5 183.5,-153.5 183.5,-134.5 120.5,-134.5"/>
<text text-anchor="middle" x="152" y="-141.5" font-family="Helvetica,sans-Serif" font-size="10.00">Arrhenius2</text>
</a>
</g>
</g>
<!-- Node7&#45;&gt;Node2 -->
<g id="edge6" class="edge">
<title>Node7&#45;&gt;Node2</title>
<path fill="none" stroke="#9a32cd" stroke-dasharray="5,2" d="M141.25,-125.53C133.51,-112.95 123.39,-96.51 117.31,-86.63"/>
<polygon fill="#9a32cd" stroke="#9a32cd" points="138.38,-127.55 146.61,-134.23 144.35,-123.88 138.38,-127.55"/>
<text text-anchor="middle" x="145" y="-108" font-family="Helvetica,sans-Serif" font-size="10.00"> rate</text>
</g>
<!-- Node8 -->
<g id="node8" class="node">
<title>Node8</title>
<g id="a_node8"><a xlink:href="../../d8/d2f/classCantera_1_1ArrheniusRate.html" target="_top" xlink:title="Arrhenius reaction rate type depends only on temperature.">
<polygon fill="white" stroke="black" points="112.5,-201.5 112.5,-220.5 191.5,-220.5 191.5,-201.5 112.5,-201.5"/>
<text text-anchor="middle" x="152" y="-208.5" font-family="Helvetica,sans-Serif" font-size="10.00">ArrheniusRate</text>
</a>
</g>
</g>
<!-- Node8&#45;&gt;Node7 -->
<g id="edge7" class="edge">
<title>Node8&#45;&gt;Node7</title>
<path fill="none" stroke="midnightblue" d="M152,-191.04C152,-178.67 152,-163.12 152,-153.63"/>
<polygon fill="midnightblue" stroke="midnightblue" points="148.5,-191.23 152,-201.23 155.5,-191.23 148.5,-191.23"/>
</g>
<!-- Node9&#45;&gt;Node8 -->
<g id="edge8" class="edge">
<title>Node9&#45;&gt;Node8</title>
<path fill="none" stroke="midnightblue" d="M152,-258.04C152,-245.67 152,-230.12 152,-220.63"/>
<polygon fill="midnightblue" stroke="midnightblue" points="148.5,-258.23 152,-268.23 155.5,-258.23 148.5,-258.23"/>
</g>
<!-- Node11 -->
<g id="node10" class="node">
<title>Node11</title>
<g id="a_node10"><a xlink:href="../../de/d5e/classCantera_1_1ThirdBody.html" target="_top" xlink:title="A class for managing third&#45;body efficiencies, including default values.">
<polygon fill="white" stroke="black" points="185.5,-67.5 185.5,-86.5 246.5,-86.5 246.5,-67.5 185.5,-67.5"/>
<text text-anchor="middle" x="216" y="-74.5" font-family="Helvetica,sans-Serif" font-size="10.00">ThirdBody</text>
</a>
</g>
</g>
<!-- Node11&#45;&gt;Node1 -->
<g id="edge10" class="edge">
<title>Node11&#45;&gt;Node1</title>
<path fill="none" stroke="#9a32cd" stroke-dasharray="5,2" d="M202.62,-59.27C192.48,-46.6 178.96,-29.7 170.9,-19.63"/>
<polygon fill="#9a32cd" stroke="#9a32cd" points="200.01,-61.61 208.99,-67.23 205.47,-57.24 200.01,-61.61"/>
<text text-anchor="middle" x="217.5" y="-41" font-family="Helvetica,sans-Serif" font-size="10.00"> third_body</text>
</g>
</g>
</svg>
