<?xml version="1.0" encoding="UTF-8" standalone="no"?>
<!DOCTYPE svg PUBLIC "-//W3C//DTD SVG 1.1//EN"
 "http://www.w3.org/Graphics/SVG/1.1/DTD/svg11.dtd">
<!-- Generated by graphviz version 6.0.1 (0)
 -->
<!-- Title: Surface Problem Solver Pages: 1 -->
<svg width="284pt" height="86pt"
 viewBox="0.00 0.00 284.00 86.00" xmlns="http://www.w3.org/2000/svg" xmlns:xlink="http://www.w3.org/1999/xlink">
<g id="graph0" class="graph" transform="scale(1 1) rotate(0) translate(4 82)">
<title>Surface Problem Solver</title>
<!-- Node3 -->
<g id="Node000003" class="node">
<title>Node3</title>
<g id="a_Node000003"><a xlink:href="../../d9/dcd/group__solvesp__bulkFunc.html" target="_top" xlink:title="Functionality expected from the bulk phase.">
<polygon fill="white" stroke="#666666" points="272,-78 160,-78 160,-48 272,-48 272,-78"/>
<text text-anchor="start" x="168" y="-66" font-family="Helvetica,sans-Serif" font-size="10.00">Surface Problem Bulk</text>
<text text-anchor="middle" x="216" y="-55" font-family="Helvetica,sans-Serif" font-size="10.00"> Phase Mode</text>
</a>
</g>
</g>
<!-- Node2 -->
<g id="Node000002" class="node">
<title>Node2</title>
<g id="a_Node000002"><a xlink:href="../../d4/d6d/group__solvesp__methods.html" target="_top" xlink:title=" ">
<polygon fill="white" stroke="#666666" points="276,-30 156,-30 156,0 276,0 276,-30"/>
<text text-anchor="start" x="164" y="-18" font-family="Helvetica,sans-Serif" font-size="10.00">Surface Problem Solver</text>
<text text-anchor="middle" x="216" y="-7" font-family="Helvetica,sans-Serif" font-size="10.00"> Methods</text>
</a>
</g>
</g>
<!-- Node1 -->
<g id="Node000001" class="node">
<title>Node1</title>
<g id="a_Node000001"><a xlink:title=" ">
<polygon fill="#999999" stroke="#666666" points="120,-48.5 0,-48.5 0,-29.5 120,-29.5 120,-48.5"/>
<text text-anchor="middle" x="60" y="-36.5" font-family="Helvetica,sans-Serif" font-size="10.00">Surface Problem Solver</text>
</a>
</g>
</g>
<!-- Node1&#45;&gt;Node3 -->
<g id="edge2" class="edge">
<title>Node1&#45;&gt;Node3</title>
<path fill="none" stroke="black" d="M130.01,-49.75C140,-51.31 150.18,-52.9 159.85,-54.41"/>
<polygon fill="black" stroke="black" points="130.52,-46.29 120.1,-48.21 129.44,-53.21 130.52,-46.29"/>
</g>
<!-- Node1&#45;&gt;Node2 -->
<g id="edge1" class="edge">
<title>Node1&#45;&gt;Node2</title>
<path fill="none" stroke="black" d="M130.09,-28.23C138.67,-26.9 147.39,-25.54 155.8,-24.23"/>
<polygon fill="black" stroke="black" points="129.44,-24.79 120.1,-29.79 130.52,-31.71 129.44,-24.79"/>
</g>
</g>
</svg>
