<?xml version="1.0" encoding="UTF-8" standalone="no"?>
<!DOCTYPE svg PUBLIC "-//W3C//DTD SVG 1.1//EN"
 "http://www.w3.org/Graphics/SVG/1.1/DTD/svg11.dtd">
<!-- Generated by graphviz version 2.43.0 (0)
 -->
<!-- Title: MultiTransport.cpp Pages: 1 -->
<svg width="1159pt" height="412pt"
 viewBox="0.00 0.00 1159.00 412.00" xmlns="http://www.w3.org/2000/svg" xmlns:xlink="http://www.w3.org/1999/xlink">
<g id="graph0" class="graph" transform="scale(1 1) rotate(0) translate(4 408)">
<title>MultiTransport.cpp</title>
<!-- Node1 -->
<g id="Node000001" class="node">
<title>Node1</title>
<g id="a_Node000001"><a xlink:title="Implementation file for class MultiTransport.">
<polygon fill="#999999" stroke="#666666" points="957.5,-404 850.5,-404 850.5,-385 957.5,-385 957.5,-404"/>
<text text-anchor="middle" x="904" y="-392" font-family="Helvetica,sans-Serif" font-size="10.00">MultiTransport.cpp</text>
</a>
</g>
</g>
<!-- Node2 -->
<g id="Node000002" class="node">
<title>Node2</title>
<g id="a_Node000002"><a xlink:href="../../da/dd1/MultiTransport_8h.html" target="_top" xlink:title="Interface for class MultiTransport.">
<polygon fill="white" stroke="#666666" points="709,-349 527,-349 527,-330 709,-330 709,-349"/>
<text text-anchor="middle" x="618" y="-337" font-family="Helvetica,sans-Serif" font-size="10.00">cantera/transport/MultiTransport.h</text>
</a>
</g>
</g>
<!-- Node1&#45;&gt;Node2 -->
<g id="edge1_Node000001_Node000002" class="edge">
<title>Node1&#45;&gt;Node2</title>
<g id="a_edge1_Node000001_Node000002"><a xlink:title=" ">
<path fill="none" stroke="#63b8ff" d="M858.05,-384.98C808.06,-375.72 728.11,-360.9 674.36,-350.94"/>
<polygon fill="#63b8ff" stroke="#63b8ff" points="674.78,-347.46 664.31,-349.08 673.51,-354.35 674.78,-347.46"/>
</a>
</g>
</g>
<!-- Node31 -->
<g id="Node000031" class="node">
<title>Node31</title>
<g id="a_Node000031"><a xlink:href="../../de/dbd/IdealGasPhase_8h.html" target="_top" xlink:title="ThermoPhase object for the ideal gas equation of state &#45; workhorse for Cantera (see Thermodynamic Pro...">
<polygon fill="white" stroke="#666666" points="924,-349 748,-349 748,-330 924,-330 924,-349"/>
<text text-anchor="middle" x="836" y="-337" font-family="Helvetica,sans-Serif" font-size="10.00">cantera/thermo/IdealGasPhase.h</text>
</a>
</g>
</g>
<!-- Node1&#45;&gt;Node31 -->
<g id="edge17_Node000001_Node000031" class="edge">
<title>Node1&#45;&gt;Node31</title>
<g id="a_edge17_Node000001_Node000031"><a xlink:title=" ">
<path fill="none" stroke="#63b8ff" d="M893.07,-384.98C882.92,-377.07 867.58,-365.11 855.35,-355.58"/>
<polygon fill="#63b8ff" stroke="#63b8ff" points="857.16,-352.56 847.12,-349.17 852.86,-358.08 857.16,-352.56"/>
</a>
</g>
</g>
<!-- Node39 -->
<g id="Node000039" class="node">
<title>Node39</title>
<g id="a_Node000039"><a xlink:href="../../dd/dc3/stringUtils_8h.html" target="_top" xlink:title="Contains declarations for string manipulation functions within Cantera.">
<polygon fill="white" stroke="#666666" points="1039,-239 897,-239 897,-220 1039,-220 1039,-239"/>
<text text-anchor="middle" x="968" y="-227" font-family="Helvetica,sans-Serif" font-size="10.00">cantera/base/stringUtils.h</text>
</a>
</g>
</g>
<!-- Node1&#45;&gt;Node39 -->
<g id="edge32_Node000001_Node000039" class="edge">
<title>Node1&#45;&gt;Node39</title>
<g id="a_edge32_Node000001_Node000039"><a xlink:title=" ">
<path fill="none" stroke="#63b8ff" d="M910.81,-384.74C917.28,-376.08 926.89,-362.23 933,-349 948.6,-315.2 959.13,-272.78 964.3,-248.95"/>
<polygon fill="#63b8ff" stroke="#63b8ff" points="967.73,-249.64 966.35,-239.14 960.88,-248.21 967.73,-249.64"/>
</a>
</g>
</g>
<!-- Node40 -->
<g id="Node000040" class="node">
<title>Node40</title>
<g id="a_Node000040"><a xlink:href="../../de/df0/utilities_8h.html" target="_top" xlink:title="Various templated functions that carry out common vector and polynomial operations (see Templated Arr...">
<polygon fill="white" stroke="#666666" points="1131,-349 1003,-349 1003,-330 1131,-330 1131,-349"/>
<text text-anchor="middle" x="1067" y="-337" font-family="Helvetica,sans-Serif" font-size="10.00">cantera/base/utilities.h</text>
</a>
</g>
</g>
<!-- Node1&#45;&gt;Node40 -->
<g id="edge34_Node000001_Node000040" class="edge">
<title>Node1&#45;&gt;Node40</title>
<g id="a_edge34_Node000001_Node000040"><a xlink:title=" ">
<path fill="none" stroke="#63b8ff" d="M930.19,-384.98C957.44,-376.13 1000.3,-362.19 1030.78,-352.28"/>
<polygon fill="#63b8ff" stroke="#63b8ff" points="1032.18,-355.5 1040.61,-349.08 1030.01,-348.85 1032.18,-355.5"/>
</a>
</g>
</g>
<!-- Node3 -->
<g id="Node000003" class="node">
<title>Node3</title>
<g id="a_Node000003"><a xlink:href="../../d1/d2e/GasTransport_8h.html" target="_top" xlink:title=" ">
<polygon fill="white" stroke="#666666" points="594.5,-239 505.5,-239 505.5,-220 594.5,-220 594.5,-239"/>
<text text-anchor="middle" x="550" y="-227" font-family="Helvetica,sans-Serif" font-size="10.00">GasTransport.h</text>
</a>
</g>
</g>
<!-- Node2&#45;&gt;Node3 -->
<g id="edge2_Node000002_Node000003" class="edge">
<title>Node2&#45;&gt;Node3</title>
<g id="a_edge2_Node000002_Node000003"><a xlink:title=" ">
<path fill="none" stroke="#63b8ff" d="M612.44,-329.66C601.17,-311.77 575.5,-271 560.83,-247.69"/>
<polygon fill="#63b8ff" stroke="#63b8ff" points="563.74,-245.76 555.45,-239.16 557.82,-249.49 563.74,-245.76"/>
</a>
</g>
</g>
<!-- Node4 -->
<g id="Node000004" class="node">
<title>Node4</title>
<g id="a_Node000004"><a xlink:href="../../d8/d5e/Transport_8h.html" target="_top" xlink:title="Headers for the Transport object, which is the virtual base class for all transport property evaluato...">
<polygon fill="white" stroke="#666666" points="590.5,-184 519.5,-184 519.5,-165 590.5,-165 590.5,-184"/>
<text text-anchor="middle" x="555" y="-172" font-family="Helvetica,sans-Serif" font-size="10.00">Transport.h</text>
</a>
</g>
</g>
<!-- Node3&#45;&gt;Node4 -->
<g id="edge3_Node000003_Node000004" class="edge">
<title>Node3&#45;&gt;Node4</title>
<g id="a_edge3_Node000003_Node000004"><a xlink:title=" ">
<path fill="none" stroke="#63b8ff" d="M550.83,-219.75C551.48,-212.8 552.42,-202.85 553.24,-194.13"/>
<polygon fill="#63b8ff" stroke="#63b8ff" points="556.73,-194.37 554.19,-184.09 549.77,-193.72 556.73,-194.37"/>
</a>
</g>
</g>
<!-- Node28 -->
<g id="Node000028" class="node">
<title>Node28</title>
<g id="a_Node000028"><a xlink:href="../../d1/df7/DenseMatrix_8h.html" target="_top" xlink:title="Headers for the DenseMatrix object, which deals with dense rectangular matrices and description of th...">
<polygon fill="white" stroke="#666666" points="176,-129 0,-129 0,-110 176,-110 176,-129"/>
<text text-anchor="middle" x="88" y="-117" font-family="Helvetica,sans-Serif" font-size="10.00">cantera/numerics/DenseMatrix.h</text>
</a>
</g>
</g>
<!-- Node3&#45;&gt;Node28 -->
<g id="edge12_Node000003_Node000028" class="edge">
<title>Node3&#45;&gt;Node28</title>
<g id="a_edge12_Node000003_Node000028"><a xlink:title=" ">
<path fill="none" stroke="#63b8ff" d="M513.36,-219.94C430.05,-200.46 226.51,-152.88 134.51,-131.37"/>
<polygon fill="#63b8ff" stroke="#63b8ff" points="135.18,-127.93 124.64,-129.07 133.58,-134.75 135.18,-127.93"/>
</a>
</g>
</g>
<!-- Node5 -->
<g id="Node000005" class="node">
<title>Node5</title>
<g id="a_Node000005"><a xlink:href="../../d9/ddc/ct__defs_8h.html" target="_top" xlink:title="This file contains definitions of constants, types and terms that are used in internal routines and a...">
<polygon fill="#fff0f0" stroke="red" points="706.5,-19 579.5,-19 579.5,0 706.5,0 706.5,-19"/>
<text text-anchor="middle" x="643" y="-7" font-family="Helvetica,sans-Serif" font-size="10.00">cantera/base/ct_defs.h</text>
</a>
</g>
</g>
<!-- Node4&#45;&gt;Node5 -->
<g id="edge4_Node000004_Node000005" class="edge">
<title>Node4&#45;&gt;Node5</title>
<g id="a_edge4_Node000004_Node000005"><a xlink:title=" ">
<path fill="none" stroke="#63b8ff" d="M519.36,-172.71C417.1,-169.3 135.49,-151.13 222,-55 244.76,-29.71 454.84,-17.72 569.36,-13.03"/>
<polygon fill="#63b8ff" stroke="#63b8ff" points="569.61,-16.52 579.46,-12.62 569.33,-9.53 569.61,-16.52"/>
</a>
</g>
</g>
<!-- Node16 -->
<g id="Node000016" class="node">
<title>Node16</title>
<g id="a_Node000016"><a xlink:href="../../db/d98/ctexceptions_8h.html" target="_top" xlink:title="Definitions for the classes that are thrown when Cantera experiences an error condition (also contain...">
<polygon fill="#fff0f0" stroke="red" points="720,-74 566,-74 566,-55 720,-55 720,-74"/>
<text text-anchor="middle" x="643" y="-62" font-family="Helvetica,sans-Serif" font-size="10.00">cantera/base/ctexceptions.h</text>
</a>
</g>
</g>
<!-- Node4&#45;&gt;Node16 -->
<g id="edge5_Node000004_Node000016" class="edge">
<title>Node4&#45;&gt;Node16</title>
<g id="a_edge5_Node000004_Node000016"><a xlink:title=" ">
<path fill="none" stroke="#63b8ff" d="M562.2,-164.66C576.91,-146.61 610.59,-105.28 629.49,-82.08"/>
<polygon fill="#63b8ff" stroke="#63b8ff" points="632.34,-84.12 635.95,-74.16 626.91,-79.7 632.34,-84.12"/>
</a>
</g>
</g>
<!-- Node22 -->
<g id="Node000022" class="node">
<title>Node22</title>
<g id="a_Node000022"><a xlink:href="../../dd/d2a/AnyMap_8h.html" target="_top" xlink:title=" ">
<polygon fill="#fff0f0" stroke="red" points="802.5,-129 671.5,-129 671.5,-110 802.5,-110 802.5,-129"/>
<text text-anchor="middle" x="737" y="-117" font-family="Helvetica,sans-Serif" font-size="10.00">cantera/base/AnyMap.h</text>
</a>
</g>
</g>
<!-- Node4&#45;&gt;Node22 -->
<g id="edge7_Node000004_Node000022" class="edge">
<title>Node4&#45;&gt;Node22</title>
<g id="a_edge7_Node000004_Node000022"><a xlink:title=" ">
<path fill="none" stroke="#63b8ff" d="M584.24,-164.98C615.06,-156.01 663.78,-141.82 697.89,-131.89"/>
<polygon fill="#63b8ff" stroke="#63b8ff" points="698.91,-135.24 707.53,-129.08 696.95,-128.52 698.91,-135.24"/>
</a>
</g>
</g>
<!-- Node16&#45;&gt;Node5 -->
<g id="edge6_Node000016_Node000005" class="edge">
<title>Node16&#45;&gt;Node5</title>
<g id="a_edge6_Node000016_Node000005"><a xlink:title=" ">
<path fill="none" stroke="#63b8ff" d="M643,-54.75C643,-47.8 643,-37.85 643,-29.13"/>
<polygon fill="#63b8ff" stroke="#63b8ff" points="646.5,-29.09 643,-19.09 639.5,-29.09 646.5,-29.09"/>
</a>
</g>
</g>
<!-- Node22&#45;&gt;Node5 -->
<g id="edge8_Node000022_Node000005" class="edge">
<title>Node22&#45;&gt;Node5</title>
<g id="a_edge8_Node000022_Node000005"><a xlink:title=" ">
<path fill="none" stroke="#63b8ff" d="M738.28,-109.81C739.73,-96.68 740.57,-71.58 729,-55 718.46,-39.9 701.21,-29.58 684.9,-22.71"/>
<polygon fill="#63b8ff" stroke="#63b8ff" points="686.06,-19.4 675.47,-19.05 683.53,-25.93 686.06,-19.4"/>
</a>
</g>
</g>
<!-- Node22&#45;&gt;Node16 -->
<g id="edge9_Node000022_Node000016" class="edge">
<title>Node22&#45;&gt;Node16</title>
<g id="a_edge9_Node000022_Node000016"><a xlink:title=" ">
<path fill="none" stroke="#63b8ff" d="M721.9,-109.98C707.18,-101.69 684.58,-88.94 667.33,-79.22"/>
<polygon fill="#63b8ff" stroke="#63b8ff" points="668.81,-76.03 658.38,-74.17 665.37,-82.13 668.81,-76.03"/>
</a>
</g>
</g>
<!-- Node23 -->
<g id="Node000023" class="node">
<title>Node23</title>
<g id="a_Node000023"><a xlink:href="../../da/d58/Units_8h.html" target="_top" xlink:title="Header for unit conversion utilities, which are used to translate user input from input files (See In...">
<polygon fill="white" stroke="#666666" points="893.5,-74 776.5,-74 776.5,-55 893.5,-55 893.5,-74"/>
<text text-anchor="middle" x="835" y="-62" font-family="Helvetica,sans-Serif" font-size="10.00">cantera/base/Units.h</text>
</a>
</g>
</g>
<!-- Node22&#45;&gt;Node23 -->
<g id="edge10_Node000022_Node000023" class="edge">
<title>Node22&#45;&gt;Node23</title>
<g id="a_edge10_Node000022_Node000023"><a xlink:title=" ">
<path fill="none" stroke="#63b8ff" d="M752.75,-109.98C768.23,-101.61 792.09,-88.7 810.14,-78.95"/>
<polygon fill="#63b8ff" stroke="#63b8ff" points="811.84,-82.01 818.97,-74.17 808.51,-75.85 811.84,-82.01"/>
</a>
</g>
</g>
<!-- Node23&#45;&gt;Node5 -->
<g id="edge11_Node000023_Node000005" class="edge">
<title>Node23&#45;&gt;Node5</title>
<g id="a_edge11_Node000023_Node000005"><a xlink:title=" ">
<path fill="none" stroke="#63b8ff" d="M804.15,-54.98C771.5,-45.97 719.8,-31.7 683.8,-21.76"/>
<polygon fill="#63b8ff" stroke="#63b8ff" points="684.66,-18.37 674.09,-19.08 682.8,-25.12 684.66,-18.37"/>
</a>
</g>
</g>
<!-- Node28&#45;&gt;Node5 -->
<g id="edge13_Node000028_Node000005" class="edge">
<title>Node28&#45;&gt;Node5</title>
<g id="a_edge13_Node000028_Node000005"><a xlink:title=" ">
<path fill="none" stroke="#63b8ff" d="M98.19,-109.88C115.66,-95.64 153.06,-67.54 190,-55 258.3,-31.81 459.54,-19.06 569.39,-13.66"/>
<polygon fill="#63b8ff" stroke="#63b8ff" points="569.59,-17.15 579.41,-13.17 569.25,-10.16 569.59,-17.15"/>
</a>
</g>
</g>
<!-- Node28&#45;&gt;Node16 -->
<g id="edge14_Node000028_Node000016" class="edge">
<title>Node28&#45;&gt;Node16</title>
<g id="a_edge14_Node000028_Node000016"><a xlink:title=" ">
<path fill="none" stroke="#63b8ff" d="M176.42,-110.16C268.32,-101.48 416.63,-87.42 555.68,-74.03"/>
<polygon fill="#63b8ff" stroke="#63b8ff" points="556.06,-77.51 565.68,-73.06 555.39,-70.54 556.06,-77.51"/>
</a>
</g>
</g>
<!-- Node29 -->
<g id="Node000029" class="node">
<title>Node29</title>
<g id="a_Node000029"><a xlink:href="../../df/dd0/Array_8h.html" target="_top" xlink:title="Header file for class Cantera::Array2D.">
<polygon fill="#fff0f0" stroke="red" points="138,-74 22,-74 22,-55 138,-55 138,-74"/>
<text text-anchor="middle" x="80" y="-62" font-family="Helvetica,sans-Serif" font-size="10.00">cantera/base/Array.h</text>
</a>
</g>
</g>
<!-- Node28&#45;&gt;Node29 -->
<g id="edge15_Node000028_Node000029" class="edge">
<title>Node28&#45;&gt;Node29</title>
<g id="a_edge15_Node000028_Node000029"><a xlink:title=" ">
<path fill="none" stroke="#63b8ff" d="M86.68,-109.75C85.63,-102.8 84.13,-92.85 82.81,-84.13"/>
<polygon fill="#63b8ff" stroke="#63b8ff" points="86.25,-83.45 81.3,-74.09 79.33,-84.5 86.25,-83.45"/>
</a>
</g>
</g>
<!-- Node29&#45;&gt;Node5 -->
<g id="edge16_Node000029_Node000005" class="edge">
<title>Node29&#45;&gt;Node5</title>
<g id="a_edge16_Node000029_Node000005"><a xlink:title=" ">
<path fill="none" stroke="#63b8ff" d="M138.14,-56.5C142.83,-55.98 147.49,-55.47 152,-55 299.85,-39.58 473.07,-24.6 569.19,-16.56"/>
<polygon fill="#63b8ff" stroke="#63b8ff" points="569.71,-20.03 579.39,-15.71 569.13,-13.05 569.71,-20.03"/>
</a>
</g>
</g>
<!-- Node32 -->
<g id="Node000032" class="node">
<title>Node32</title>
<g id="a_Node000032"><a xlink:href="../../d7/d01/ThermoPhase_8h.html" target="_top" xlink:title="Header file for class ThermoPhase, the base class for phases with thermodynamic properties,...">
<polygon fill="white" stroke="#666666" points="877,-294 785,-294 785,-275 877,-275 877,-294"/>
<text text-anchor="middle" x="831" y="-282" font-family="Helvetica,sans-Serif" font-size="10.00">ThermoPhase.h</text>
</a>
</g>
</g>
<!-- Node31&#45;&gt;Node32 -->
<g id="edge18_Node000031_Node000032" class="edge">
<title>Node31&#45;&gt;Node32</title>
<g id="a_edge18_Node000031_Node000032"><a xlink:title=" ">
<path fill="none" stroke="#63b8ff" d="M835.17,-329.75C834.52,-322.8 833.58,-312.85 832.76,-304.13"/>
<polygon fill="#63b8ff" stroke="#63b8ff" points="836.23,-303.72 831.81,-294.09 829.27,-304.37 836.23,-303.72"/>
</a>
</g>
</g>
<!-- Node32&#45;&gt;Node22 -->
<g id="edge31_Node000032_Node000022" class="edge">
<title>Node32&#45;&gt;Node22</title>
<g id="a_edge31_Node000032_Node000022"><a xlink:title=" ">
<path fill="none" stroke="#63b8ff" d="M831.95,-274.86C833.79,-254 835.78,-199.98 812,-165 802.36,-150.83 786.58,-140.49 771.98,-133.36"/>
<polygon fill="#63b8ff" stroke="#63b8ff" points="773.18,-130.06 762.63,-129.14 770.3,-136.44 773.18,-130.06"/>
</a>
</g>
</g>
<!-- Node32&#45;&gt;Node23 -->
<g id="edge30_Node000032_Node000023" class="edge">
<title>Node32&#45;&gt;Node23</title>
<g id="a_edge30_Node000032_Node000023"><a xlink:title=" ">
<path fill="none" stroke="#63b8ff" d="M834.86,-274.85C838.56,-266.04 843.89,-251.87 846,-239 855.14,-183.29 845.05,-116.38 838.95,-84.36"/>
<polygon fill="#63b8ff" stroke="#63b8ff" points="842.32,-83.36 836.93,-74.23 835.46,-84.73 842.32,-83.36"/>
</a>
</g>
</g>
<!-- Node33 -->
<g id="Node000033" class="node">
<title>Node33</title>
<g id="a_Node000033"><a xlink:href="../../da/d84/Phase_8h.html" target="_top" xlink:title="Header file for class Phase.">
<polygon fill="white" stroke="#666666" points="525.5,-129 470.5,-129 470.5,-110 525.5,-110 525.5,-129"/>
<text text-anchor="middle" x="498" y="-117" font-family="Helvetica,sans-Serif" font-size="10.00">Phase.h</text>
</a>
</g>
</g>
<!-- Node32&#45;&gt;Node33 -->
<g id="edge19_Node000032_Node000033" class="edge">
<title>Node32&#45;&gt;Node33</title>
<g id="a_edge19_Node000032_Node000033"><a xlink:title=" ">
<path fill="none" stroke="#63b8ff" d="M784.98,-278.98C749.19,-273.74 699.5,-262.59 662,-239 625.44,-216 633.64,-190.8 599,-165 579.85,-150.74 555.42,-139.81 535.37,-132.36"/>
<polygon fill="#63b8ff" stroke="#63b8ff" points="536.53,-129.06 525.93,-128.98 534.17,-135.65 536.53,-129.06"/>
</a>
</g>
</g>
<!-- Node37 -->
<g id="Node000037" class="node">
<title>Node37</title>
<g id="a_Node000037"><a xlink:href="../../d6/d7a/MultiSpeciesThermo_8h.html" target="_top" xlink:title="Header for a general species thermodynamic property manager for a phase (see MultiSpeciesThermo).">
<polygon fill="white" stroke="#666666" points="796.5,-239 671.5,-239 671.5,-220 796.5,-220 796.5,-239"/>
<text text-anchor="middle" x="734" y="-227" font-family="Helvetica,sans-Serif" font-size="10.00">MultiSpeciesThermo.h</text>
</a>
</g>
</g>
<!-- Node32&#45;&gt;Node37 -->
<g id="edge25_Node000032_Node000037" class="edge">
<title>Node32&#45;&gt;Node37</title>
<g id="a_edge25_Node000032_Node000037"><a xlink:title=" ">
<path fill="none" stroke="#63b8ff" d="M815.42,-274.98C800.23,-266.69 776.9,-253.94 759.1,-244.22"/>
<polygon fill="#63b8ff" stroke="#63b8ff" points="760.32,-240.89 749.87,-239.17 756.97,-247.04 760.32,-240.89"/>
</a>
</g>
</g>
<!-- Node33&#45;&gt;Node16 -->
<g id="edge20_Node000033_Node000016" class="edge">
<title>Node33&#45;&gt;Node16</title>
<g id="a_edge20_Node000033_Node000016"><a xlink:title=" ">
<path fill="none" stroke="#63b8ff" d="M521.3,-109.98C545.25,-101.23 582.78,-87.51 609.83,-77.62"/>
<polygon fill="#63b8ff" stroke="#63b8ff" points="611.09,-80.89 619.28,-74.17 608.69,-74.32 611.09,-80.89"/>
</a>
</g>
</g>
<!-- Node34 -->
<g id="Node000034" class="node">
<title>Node34</title>
<g id="a_Node000034"><a xlink:href="../../d9/dda/Elements_8h.html" target="_top" xlink:title="Contains the getElementWeight function and the definitions of element constraint types.">
<polygon fill="white" stroke="#666666" points="380.5,-74 231.5,-74 231.5,-55 380.5,-55 380.5,-74"/>
<text text-anchor="middle" x="306" y="-62" font-family="Helvetica,sans-Serif" font-size="10.00">cantera/thermo/Elements.h</text>
</a>
</g>
</g>
<!-- Node33&#45;&gt;Node34 -->
<g id="edge21_Node000033_Node000034" class="edge">
<title>Node33&#45;&gt;Node34</title>
<g id="a_edge21_Node000033_Node000034"><a xlink:title=" ">
<path fill="none" stroke="#63b8ff" d="M470.49,-110.91C438.17,-101.98 384.24,-87.1 346.99,-76.81"/>
<polygon fill="#63b8ff" stroke="#63b8ff" points="347.53,-73.33 336.96,-74.05 345.66,-80.08 347.53,-73.33"/>
</a>
</g>
</g>
<!-- Node35 -->
<g id="Node000035" class="node">
<title>Node35</title>
<g id="a_Node000035"><a xlink:href="../../d6/df6/ValueCache_8h.html" target="_top" xlink:title=" ">
<polygon fill="#fff0f0" stroke="red" points="547.5,-74 398.5,-74 398.5,-55 547.5,-55 547.5,-74"/>
<text text-anchor="middle" x="473" y="-62" font-family="Helvetica,sans-Serif" font-size="10.00">cantera/base/ValueCache.h</text>
</a>
</g>
</g>
<!-- Node33&#45;&gt;Node35 -->
<g id="edge23_Node000033_Node000035" class="edge">
<title>Node33&#45;&gt;Node35</title>
<g id="a_edge23_Node000033_Node000035"><a xlink:title=" ">
<path fill="none" stroke="#63b8ff" d="M493.87,-109.75C490.49,-102.57 485.58,-92.18 481.38,-83.27"/>
<polygon fill="#63b8ff" stroke="#63b8ff" points="484.48,-81.64 477.05,-74.09 478.15,-84.63 484.48,-81.64"/>
</a>
</g>
</g>
<!-- Node34&#45;&gt;Node5 -->
<g id="edge22_Node000034_Node000005" class="edge">
<title>Node34&#45;&gt;Node5</title>
<g id="a_edge22_Node000034_Node000005"><a xlink:title=" ">
<path fill="none" stroke="#63b8ff" d="M360.14,-54.98C419.63,-45.63 515.11,-30.61 578.44,-20.65"/>
<polygon fill="#63b8ff" stroke="#63b8ff" points="579.38,-24.05 588.71,-19.04 578.29,-17.13 579.38,-24.05"/>
</a>
</g>
</g>
<!-- Node35&#45;&gt;Node5 -->
<g id="edge24_Node000035_Node000005" class="edge">
<title>Node35&#45;&gt;Node5</title>
<g id="a_edge24_Node000035_Node000005"><a xlink:title=" ">
<path fill="none" stroke="#63b8ff" d="M500.31,-54.98C528.85,-46.09 573.83,-32.07 605.64,-22.15"/>
<polygon fill="#63b8ff" stroke="#63b8ff" points="606.97,-25.4 615.47,-19.08 604.88,-18.72 606.97,-25.4"/>
</a>
</g>
</g>
<!-- Node38 -->
<g id="Node000038" class="node">
<title>Node38</title>
<g id="a_Node000038"><a xlink:href="../../d4/d87/SpeciesThermoInterpType_8h.html" target="_top" xlink:title="Pure Virtual Base class for individual species reference state thermodynamic managers and text for th...">
<polygon fill="white" stroke="#666666" points="803,-184 651,-184 651,-165 803,-165 803,-184"/>
<text text-anchor="middle" x="727" y="-172" font-family="Helvetica,sans-Serif" font-size="10.00">SpeciesThermoInterpType.h</text>
</a>
</g>
</g>
<!-- Node37&#45;&gt;Node38 -->
<g id="edge26_Node000037_Node000038" class="edge">
<title>Node37&#45;&gt;Node38</title>
<g id="a_edge26_Node000037_Node000038"><a xlink:title=" ">
<path fill="none" stroke="#63b8ff" d="M732.84,-219.75C731.93,-212.8 730.61,-202.85 729.46,-194.13"/>
<polygon fill="#63b8ff" stroke="#63b8ff" points="732.91,-193.54 728.13,-184.09 725.97,-194.46 732.91,-193.54"/>
</a>
</g>
</g>
<!-- Node38&#45;&gt;Node5 -->
<g id="edge27_Node000038_Node000005" class="edge">
<title>Node38&#45;&gt;Node5</title>
<g id="a_edge27_Node000038_Node000005"><a xlink:title=" ">
<path fill="none" stroke="#63b8ff" d="M763.35,-164.96C826.89,-148.38 947.28,-108.73 902,-55 878.68,-27.33 784.84,-16.87 716.81,-12.91"/>
<polygon fill="#63b8ff" stroke="#63b8ff" points="716.73,-9.4 706.55,-12.35 716.35,-16.39 716.73,-9.4"/>
</a>
</g>
</g>
<!-- Node38&#45;&gt;Node16 -->
<g id="edge28_Node000038_Node000016" class="edge">
<title>Node38&#45;&gt;Node16</title>
<g id="a_edge28_Node000038_Node000016"><a xlink:title=" ">
<path fill="none" stroke="#63b8ff" d="M708.13,-165C693.53,-157.5 673.85,-145.24 662,-129 652.35,-115.78 647.56,-97.66 645.21,-84.16"/>
<polygon fill="#63b8ff" stroke="#63b8ff" points="648.65,-83.5 643.75,-74.11 641.72,-84.51 648.65,-83.5"/>
</a>
</g>
</g>
<!-- Node38&#45;&gt;Node22 -->
<g id="edge29_Node000038_Node000022" class="edge">
<title>Node38&#45;&gt;Node22</title>
<g id="a_edge29_Node000038_Node000022"><a xlink:title=" ">
<path fill="none" stroke="#63b8ff" d="M728.65,-164.75C729.96,-157.8 731.84,-147.85 733.48,-139.13"/>
<polygon fill="#63b8ff" stroke="#63b8ff" points="736.96,-139.56 735.38,-129.09 730.09,-138.27 736.96,-139.56"/>
</a>
</g>
</g>
<!-- Node39&#45;&gt;Node5 -->
<g id="edge33_Node000039_Node000005" class="edge">
<title>Node39&#45;&gt;Node5</title>
<g id="a_edge33_Node000039_Node000005"><a xlink:title=" ">
<path fill="none" stroke="#63b8ff" d="M968.63,-219.63C970.14,-190.89 970.65,-99.66 921,-55 891.69,-28.64 788.93,-17.83 716.93,-13.44"/>
<polygon fill="#63b8ff" stroke="#63b8ff" points="716.72,-9.92 706.54,-12.84 716.32,-16.91 716.72,-9.92"/>
</a>
</g>
</g>
<!-- Node40&#45;&gt;Node5 -->
<g id="edge35_Node000040_Node000005" class="edge">
<title>Node40&#45;&gt;Node5</title>
<g id="a_edge35_Node000040_Node000005"><a xlink:title=" ">
<path fill="none" stroke="#63b8ff" d="M1067,-329.82C1067,-311.48 1067,-267.44 1067,-230.5 1067,-230.5 1067,-230.5 1067,-118.5 1067,-47.11 838.42,-22.33 716.92,-14.2"/>
<polygon fill="#63b8ff" stroke="#63b8ff" points="717.14,-10.71 706.94,-13.56 716.69,-17.69 717.14,-10.71"/>
</a>
</g>
</g>
<!-- Node41 -->
<g id="Node000041" class="node">
<title>Node41</title>
<g id="a_Node000041"><a xlink:title=" ">
<polygon fill="#e0e0e0" stroke="#999999" points="1151,-294 1095,-294 1095,-275 1151,-275 1151,-294"/>
<text text-anchor="middle" x="1123" y="-282" font-family="Helvetica,sans-Serif" font-size="10.00">numeric</text>
</a>
</g>
</g>
<!-- Node40&#45;&gt;Node41 -->
<g id="edge36_Node000040_Node000041" class="edge">
<title>Node40&#45;&gt;Node41</title>
<g id="a_edge36_Node000040_Node000041"><a xlink:title=" ">
<path fill="none" stroke="#63b8ff" d="M1076,-329.98C1084.19,-322.23 1096.51,-310.58 1106.47,-301.14"/>
<polygon fill="#63b8ff" stroke="#63b8ff" points="1108.98,-303.59 1113.84,-294.17 1104.17,-298.5 1108.98,-303.59"/>
</a>
</g>
</g>
</g>
</svg>
