<?xml version="1.0" encoding="UTF-8" standalone="no"?>
<!DOCTYPE svg PUBLIC "-//W3C//DTD SVG 1.1//EN"
 "http://www.w3.org/Graphics/SVG/1.1/DTD/svg11.dtd">
<!-- Generated by graphviz version 6.0.1 (0)
 -->
<!-- Title: MultiSpeciesThermo.h Pages: 1 -->
<svg width="4638pt" height="203pt"
 viewBox="0.00 0.00 4637.88 203.00" xmlns="http://www.w3.org/2000/svg" xmlns:xlink="http://www.w3.org/1999/xlink">
<g id="graph0" class="graph" transform="scale(1 1) rotate(0) translate(4 199)">
<title>MultiSpeciesThermo.h</title>
<!-- Node1 -->
<g id="node1" class="node">
<title>Node1</title>
<g id="a_node1"><a xlink:title="Header for a general species thermodynamic property manager for a phase (see MultiSpeciesThermo).">
<polygon fill="#999999" stroke="#666666" points="4361.38,-195 4247.38,-195 4247.38,-176 4361.38,-176 4361.38,-195"/>
<text text-anchor="middle" x="4304.38" y="-183" font-family="Helvetica,sans-Serif" font-size="10.00">MultiSpeciesThermo.h</text>
</a>
</g>
</g>
<!-- Node2 -->
<g id="node2" class="node">
<title>Node2</title>
<g id="a_node2"><a xlink:href="../../d4/d20/BinarySolutionTabulatedThermo_8cpp.html" target="_top" xlink:title="Implementation file for an binary solution model with tabulated standard state thermodynamic data (se...">
<polygon fill="white" stroke="#666666" points="4486.88,-24.5 4313.88,-24.5 4313.88,-5.5 4486.88,-5.5 4486.88,-24.5"/>
<text text-anchor="middle" x="4400.38" y="-12.5" font-family="Helvetica,sans-Serif" font-size="10.00">BinarySolutionTabulatedThermo.cpp</text>
</a>
</g>
</g>
<!-- Node1&#45;&gt;Node2 -->
<g id="edge1" class="edge">
<title>Node1&#45;&gt;Node2</title>
<path fill="none" stroke="#63b8ff" d="M4314.27,-167.13C4334.56,-131.53 4380.22,-51.38 4395.38,-24.77"/>
<polygon fill="#63b8ff" stroke="#63b8ff" points="4311.18,-165.49 4309.27,-175.91 4317.26,-168.96 4311.18,-165.49"/>
</g>
<!-- Node3 -->
<g id="node3" class="node">
<title>Node3</title>
<g id="a_node3"><a xlink:href="../../df/dde/LatticeSolidPhase_8cpp.html" target="_top" xlink:title="Definitions for a simple thermodynamics model of a bulk solid phase derived from ThermoPhase,...">
<polygon fill="white" stroke="#666666" points="4181.38,-24.5 4067.38,-24.5 4067.38,-5.5 4181.38,-5.5 4181.38,-24.5"/>
<text text-anchor="middle" x="4124.38" y="-12.5" font-family="Helvetica,sans-Serif" font-size="10.00">LatticeSolidPhase.cpp</text>
</a>
</g>
</g>
<!-- Node1&#45;&gt;Node3 -->
<g id="edge2" class="edge">
<title>Node1&#45;&gt;Node3</title>
<path fill="none" stroke="#63b8ff" d="M4296.69,-166.44C4285.11,-141.12 4261.05,-94.91 4228.38,-66 4206.02,-46.22 4174.46,-32.53 4151.98,-24.54"/>
<polygon fill="#63b8ff" stroke="#63b8ff" points="4293.62,-168.18 4300.87,-175.91 4300.03,-165.35 4293.62,-168.18"/>
</g>
<!-- Node4 -->
<g id="node4" class="node">
<title>Node4</title>
<g id="a_node4"><a xlink:href="../../dd/de9/MultiSpeciesThermo_8cpp.html" target="_top" xlink:title="Declarations for a thermodynamic property manager for multiple species in a phase (see Species Refere...">
<polygon fill="white" stroke="#666666" points="4476.88,-140 4351.88,-140 4351.88,-121 4476.88,-121 4476.88,-140"/>
<text text-anchor="middle" x="4414.38" y="-128" font-family="Helvetica,sans-Serif" font-size="10.00">MultiSpeciesThermo.cpp</text>
</a>
</g>
</g>
<!-- Node1&#45;&gt;Node4 -->
<g id="edge3" class="edge">
<title>Node1&#45;&gt;Node4</title>
<path fill="none" stroke="#63b8ff" d="M4331.08,-171.63C4351.35,-161.87 4378.65,-148.71 4396.39,-140.17"/>
<polygon fill="#63b8ff" stroke="#63b8ff" points="4329.54,-168.49 4322.05,-175.98 4332.58,-174.8 4329.54,-168.49"/>
</g>
<!-- Node5 -->
<g id="node5" class="node">
<title>Node5</title>
<g id="a_node5"><a xlink:href="../../da/d47/SpeciesThermoFactory_8cpp.html" target="_top" xlink:title="Definitions for factory functions to build instances of classes that manage the standard&#45;state thermo...">
<polygon fill="white" stroke="#666666" points="4629.88,-140 4494.88,-140 4494.88,-121 4629.88,-121 4629.88,-140"/>
<text text-anchor="middle" x="4562.38" y="-128" font-family="Helvetica,sans-Serif" font-size="10.00">SpeciesThermoFactory.cpp</text>
</a>
</g>
</g>
<!-- Node1&#45;&gt;Node5 -->
<g id="edge4" class="edge">
<title>Node1&#45;&gt;Node5</title>
<path fill="none" stroke="#63b8ff" d="M4355.78,-173.94C4404.14,-164.01 4475.66,-149.31 4520.6,-140.08"/>
<polygon fill="#63b8ff" stroke="#63b8ff" points="4354.92,-170.54 4345.83,-175.98 4356.33,-177.4 4354.92,-170.54"/>
</g>
<!-- Node6 -->
<g id="node6" class="node">
<title>Node6</title>
<g id="a_node6"><a xlink:href="../../d2/d3a/ThermoFactory_8cpp.html" target="_top" xlink:title="Definitions for the factory class that can create known ThermoPhase objects (see Thermodynamic Proper...">
<polygon fill="white" stroke="#666666" points="3805.38,-24.5 3705.38,-24.5 3705.38,-5.5 3805.38,-5.5 3805.38,-24.5"/>
<text text-anchor="middle" x="3755.38" y="-12.5" font-family="Helvetica,sans-Serif" font-size="10.00">ThermoFactory.cpp</text>
</a>
</g>
</g>
<!-- Node1&#45;&gt;Node6 -->
<g id="edge5" class="edge">
<title>Node1&#45;&gt;Node6</title>
<path fill="none" stroke="#63b8ff" d="M4280.43,-171.04C4235.56,-146.41 4135.13,-94.02 4044.38,-66 3962.77,-40.8 3864.02,-27.16 3805.64,-20.74"/>
<polygon fill="#63b8ff" stroke="#63b8ff" points="4278.95,-174.22 4289.39,-176 4282.33,-168.09 4278.95,-174.22"/>
</g>
<!-- Node7 -->
<g id="node7" class="node">
<title>Node7</title>
<g id="a_node7"><a xlink:href="../../d7/d01/ThermoPhase_8h.html" target="_top" xlink:title="Header file for class ThermoPhase, the base class for phases with thermodynamic properties,...">
<polygon fill="#fff0f0" stroke="red" points="2052.38,-140 1966.38,-140 1966.38,-121 2052.38,-121 2052.38,-140"/>
<text text-anchor="middle" x="2009.38" y="-128" font-family="Helvetica,sans-Serif" font-size="10.00">ThermoPhase.h</text>
</a>
</g>
</g>
<!-- Node1&#45;&gt;Node7 -->
<g id="edge6" class="edge">
<title>Node1&#45;&gt;Node7</title>
<path fill="none" stroke="#63b8ff" d="M4237.31,-182.95C3893.35,-175.01 2332.7,-138.97 2052.52,-132.5"/>
<polygon fill="#63b8ff" stroke="#63b8ff" points="4237.29,-186.45 4247.36,-183.18 4237.45,-179.45 4237.29,-186.45"/>
</g>
<!-- Node8 -->
<g id="node8" class="node">
<title>Node8</title>
<g id="a_node8"><a xlink:href="../../d8/d14/Arrhenius_8cpp.html" target="_top" xlink:title=" ">
<polygon fill="white" stroke="#666666" points="102.88,-85 25.88,-85 25.88,-66 102.88,-66 102.88,-85"/>
<text text-anchor="middle" x="64.38" y="-73" font-family="Helvetica,sans-Serif" font-size="10.00">Arrhenius.cpp</text>
</a>
</g>
</g>
<!-- Node7&#45;&gt;Node8 -->
<g id="edge7" class="edge">
<title>Node7&#45;&gt;Node8</title>
<path fill="none" stroke="#63b8ff" d="M1956.07,-129.34C1687.89,-128.39 484.39,-122.08 112.38,-85 109.35,-84.7 106.22,-84.31 103.08,-83.87"/>
<polygon fill="#63b8ff" stroke="#63b8ff" points="1956.31,-132.84 1966.32,-129.38 1956.33,-125.84 1956.31,-132.84"/>
</g>
<!-- Node9 -->
<g id="node9" class="node">
<title>Node9</title>
<g id="a_node9"><a xlink:href="../../d4/d81/BlowersMaselRate_8cpp.html" target="_top" xlink:title=" ">
<polygon fill="white" stroke="#666666" points="239.38,-85 121.38,-85 121.38,-66 239.38,-66 239.38,-85"/>
<text text-anchor="middle" x="180.38" y="-73" font-family="Helvetica,sans-Serif" font-size="10.00">BlowersMaselRate.cpp</text>
</a>
</g>
</g>
<!-- Node7&#45;&gt;Node9 -->
<g id="edge8" class="edge">
<title>Node7&#45;&gt;Node9</title>
<path fill="none" stroke="#63b8ff" d="M1955.83,-128.86C1699.11,-125.7 592.61,-110.8 248.38,-85 245.53,-84.79 242.62,-84.54 239.68,-84.26"/>
<polygon fill="#63b8ff" stroke="#63b8ff" points="1955.97,-132.37 1966.01,-128.99 1956.06,-125.37 1955.97,-132.37"/>
</g>
<!-- Node10 -->
<g id="node10" class="node">
<title>Node10</title>
<g id="a_node10"><a xlink:href="../../df/d7d/BulkKinetics_8cpp_source.html" target="_top" xlink:title=" ">
<polygon fill="white" stroke="#666666" points="347.38,-85 257.38,-85 257.38,-66 347.38,-66 347.38,-85"/>
<text text-anchor="middle" x="302.38" y="-73" font-family="Helvetica,sans-Serif" font-size="10.00">BulkKinetics.cpp</text>
</a>
</g>
</g>
<!-- Node7&#45;&gt;Node10 -->
<g id="edge9" class="edge">
<title>Node7&#45;&gt;Node10</title>
<path fill="none" stroke="#63b8ff" d="M1955.93,-128.99C1709.08,-126.5 677.67,-114.49 356.38,-85 353.45,-84.73 350.44,-84.4 347.41,-84.03"/>
<polygon fill="#63b8ff" stroke="#63b8ff" points="1956.04,-132.49 1966.08,-129.09 1956.11,-125.49 1956.04,-132.49"/>
</g>
<!-- Node11 -->
<g id="node11" class="node">
<title>Node11</title>
<g id="a_node11"><a xlink:href="../../df/df5/ChebyshevRate_8cpp.html" target="_top" xlink:title=" ">
<polygon fill="white" stroke="#666666" points="471.38,-85 365.38,-85 365.38,-66 471.38,-66 471.38,-85"/>
<text text-anchor="middle" x="418.38" y="-73" font-family="Helvetica,sans-Serif" font-size="10.00">ChebyshevRate.cpp</text>
</a>
</g>
</g>
<!-- Node7&#45;&gt;Node11 -->
<g id="edge10" class="edge">
<title>Node7&#45;&gt;Node11</title>
<path fill="none" stroke="#63b8ff" d="M1955.82,-128.71C1720.39,-125.13 776.06,-109.5 480.38,-85 477.46,-84.76 474.46,-84.47 471.44,-84.15"/>
<polygon fill="#63b8ff" stroke="#63b8ff" points="1956.12,-132.22 1966.17,-128.87 1956.22,-125.22 1956.12,-132.22"/>
</g>
<!-- Node12 -->
<g id="node12" class="node">
<title>Node12</title>
<g id="a_node12"><a xlink:href="../../df/df0/ChemEquil_8cpp.html" target="_top" xlink:title="Chemical equilibrium.">
<polygon fill="white" stroke="#666666" points="572.88,-85 489.88,-85 489.88,-66 572.88,-66 572.88,-85"/>
<text text-anchor="middle" x="531.38" y="-73" font-family="Helvetica,sans-Serif" font-size="10.00">ChemEquil.cpp</text>
</a>
</g>
</g>
<!-- Node7&#45;&gt;Node12 -->
<g id="edge11" class="edge">
<title>Node7&#45;&gt;Node12</title>
<path fill="none" stroke="#63b8ff" d="M1956.06,-128.82C1730.74,-125.79 855.76,-112.47 581.38,-85 578.66,-84.73 575.87,-84.4 573.06,-84.03"/>
<polygon fill="#63b8ff" stroke="#63b8ff" points="1956.24,-132.32 1966.29,-128.96 1956.34,-125.32 1956.24,-132.32"/>
</g>
<!-- Node13 -->
<g id="node13" class="node">
<title>Node13</title>
<g id="a_node13"><a xlink:href="../../d9/de2/DustyGasTransport_8cpp.html" target="_top" xlink:title="Implementation file for class DustyGasTransport.">
<polygon fill="white" stroke="#666666" points="711.88,-85 590.88,-85 590.88,-66 711.88,-66 711.88,-85"/>
<text text-anchor="middle" x="651.38" y="-73" font-family="Helvetica,sans-Serif" font-size="10.00">DustyGasTransport.cpp</text>
</a>
</g>
</g>
<!-- Node7&#45;&gt;Node13 -->
<g id="edge12" class="edge">
<title>Node7&#45;&gt;Node13</title>
<path fill="none" stroke="#63b8ff" d="M1956.18,-129.31C1779.98,-128.31 1199.54,-122.22 721.38,-85 718.33,-84.76 715.21,-84.49 712.05,-84.19"/>
<polygon fill="#63b8ff" stroke="#63b8ff" points="1956.2,-132.81 1966.22,-129.36 1956.24,-125.81 1956.2,-132.81"/>
</g>
<!-- Node14 -->
<g id="node14" class="node">
<title>Node14</title>
<g id="a_node14"><a xlink:href="../../d7/d8a/Falloff_8cpp.html" target="_top" xlink:title="Definitions for member functions of classes derived from Falloff.">
<polygon fill="white" stroke="#666666" points="792.38,-85 730.38,-85 730.38,-66 792.38,-66 792.38,-85"/>
<text text-anchor="middle" x="761.38" y="-73" font-family="Helvetica,sans-Serif" font-size="10.00">Falloff.cpp</text>
</a>
</g>
</g>
<!-- Node7&#45;&gt;Node14 -->
<g id="edge13" class="edge">
<title>Node7&#45;&gt;Node14</title>
<path fill="none" stroke="#63b8ff" d="M1956.13,-128.76C1753.41,-125.76 1029.77,-113.26 801.38,-85 798.56,-84.65 795.65,-84.2 792.74,-83.7"/>
<polygon fill="#63b8ff" stroke="#63b8ff" points="1956.18,-132.26 1966.23,-128.91 1956.28,-125.26 1956.18,-132.26"/>
</g>
<!-- Node15 -->
<g id="node15" class="node">
<title>Node15</title>
<g id="a_node15"><a xlink:href="../../dc/d8f/FlowDevice_8cpp.html" target="_top" xlink:title=" ">
<polygon fill="white" stroke="#666666" points="897.88,-85 810.88,-85 810.88,-66 897.88,-66 897.88,-85"/>
<text text-anchor="middle" x="854.38" y="-73" font-family="Helvetica,sans-Serif" font-size="10.00">FlowDevice.cpp</text>
</a>
</g>
</g>
<!-- Node7&#45;&gt;Node15 -->
<g id="edge14" class="edge">
<title>Node7&#45;&gt;Node15</title>
<path fill="none" stroke="#63b8ff" d="M1955.68,-129.32C1796.27,-128.34 1311.95,-122.28 912.38,-85 907.72,-84.57 902.86,-84.01 898.03,-83.4"/>
<polygon fill="#63b8ff" stroke="#63b8ff" points="1956.13,-132.82 1966.15,-129.37 1956.17,-125.82 1956.13,-132.82"/>
</g>
<!-- Node16 -->
<g id="node16" class="node">
<title>Node16</title>
<g id="a_node16"><a xlink:href="../../dd/d8f/FlowReactor_8cpp.html" target="_top" xlink:title="A steady&#45;state, ideal&#45;gas, adiabatic, constant&#45;area (cylindrical), frictionless plug flow reactor.">
<polygon fill="white" stroke="#666666" points="1019.38,-24.5 929.38,-24.5 929.38,-5.5 1019.38,-5.5 1019.38,-24.5"/>
<text text-anchor="middle" x="974.38" y="-12.5" font-family="Helvetica,sans-Serif" font-size="10.00">FlowReactor.cpp</text>
</a>
</g>
</g>
<!-- Node7&#45;&gt;Node16 -->
<g id="edge15" class="edge">
<title>Node7&#45;&gt;Node16</title>
<path fill="none" stroke="#63b8ff" d="M1956.1,-129.57C1789.36,-129.34 1279.17,-125.3 1119.38,-85 1067.75,-71.98 1012.45,-39.98 987.69,-24.57"/>
<polygon fill="#63b8ff" stroke="#63b8ff" points="1956.11,-133.07 1966.12,-129.58 1956.12,-126.07 1956.11,-133.07"/>
</g>
<!-- Node17 -->
<g id="node17" class="node">
<title>Node17</title>
<g id="a_node17"><a xlink:href="../../d5/de4/GasTransport_8cpp.html" target="_top" xlink:title=" ">
<polygon fill="white" stroke="#666666" points="1348.88,-85 1253.88,-85 1253.88,-66 1348.88,-66 1348.88,-85"/>
<text text-anchor="middle" x="1301.38" y="-73" font-family="Helvetica,sans-Serif" font-size="10.00">GasTransport.cpp</text>
</a>
</g>
</g>
<!-- Node7&#45;&gt;Node17 -->
<g id="edge16" class="edge">
<title>Node7&#45;&gt;Node17</title>
<path fill="none" stroke="#63b8ff" d="M1955.86,-127.34C1844.31,-122.52 1578.9,-109.33 1357.38,-85 1354.64,-84.7 1351.84,-84.36 1349,-84"/>
<polygon fill="#63b8ff" stroke="#63b8ff" points="1956.03,-130.85 1966.17,-127.78 1956.32,-123.86 1956.03,-130.85"/>
</g>
<!-- Node18 -->
<g id="node18" class="node">
<title>Node18</title>
<g id="a_node18"><a xlink:href="../../db/dbf/IdealGasConstPressureMoleReactor_8cpp.html" target="_top" xlink:title="A constant pressure zero&#45;dimensional reactor with moles as the state.">
<polygon fill="white" stroke="#666666" points="1179.38,-30 1037.38,-30 1037.38,0 1179.38,0 1179.38,-30"/>
<text text-anchor="start" x="1045.38" y="-18" font-family="Helvetica,sans-Serif" font-size="10.00">IdealGasConstPressureMole</text>
<text text-anchor="middle" x="1108.38" y="-7" font-family="Helvetica,sans-Serif" font-size="10.00">Reactor.cpp</text>
</a>
</g>
</g>
<!-- Node7&#45;&gt;Node18 -->
<g id="edge17" class="edge">
<title>Node7&#45;&gt;Node18</title>
<path fill="none" stroke="#63b8ff" d="M1955.89,-129.97C1776.94,-131.09 1206.62,-130.99 1139.38,-85 1121.06,-72.47 1113.42,-46.41 1110.34,-30.15"/>
<polygon fill="#63b8ff" stroke="#63b8ff" points="1956.14,-133.46 1966.11,-129.9 1956.09,-126.46 1956.14,-133.46"/>
</g>
<!-- Node19 -->
<g id="node19" class="node">
<title>Node19</title>
<g id="a_node19"><a xlink:href="../../dc/de4/IdealGasConstPressureReactor_8cpp_source.html" target="_top" xlink:title=" ">
<polygon fill="white" stroke="#666666" points="1539.88,-85 1366.88,-85 1366.88,-66 1539.88,-66 1539.88,-85"/>
<text text-anchor="middle" x="1453.38" y="-73" font-family="Helvetica,sans-Serif" font-size="10.00">IdealGasConstPressureReactor.cpp</text>
</a>
</g>
</g>
<!-- Node7&#45;&gt;Node19 -->
<g id="edge18" class="edge">
<title>Node7&#45;&gt;Node19</title>
<path fill="none" stroke="#63b8ff" d="M1956.14,-124.43C1860,-115.26 1656.59,-95.87 1540.12,-84.77"/>
<polygon fill="#63b8ff" stroke="#63b8ff" points="1955.93,-127.92 1966.21,-125.39 1956.59,-120.95 1955.93,-127.92"/>
</g>
<!-- Node20 -->
<g id="node20" class="node">
<title>Node20</title>
<g id="a_node20"><a xlink:href="../../d3/d19/IdealGasMoleReactor_8cpp.html" target="_top" xlink:title="A constant volume zero&#45;dimensional reactor with moles as the state.">
<polygon fill="white" stroke="#666666" points="1326.88,-24.5 1197.88,-24.5 1197.88,-5.5 1326.88,-5.5 1326.88,-24.5"/>
<text text-anchor="middle" x="1262.38" y="-12.5" font-family="Helvetica,sans-Serif" font-size="10.00">IdealGasMoleReactor.cpp</text>
</a>
</g>
</g>
<!-- Node7&#45;&gt;Node20 -->
<g id="edge19" class="edge">
<title>Node7&#45;&gt;Node20</title>
<path fill="none" stroke="#63b8ff" d="M1956.07,-128.74C1772.64,-125.87 1177.23,-114.33 1149.38,-85 1122.47,-56.66 1181.13,-35.53 1223.58,-24.54"/>
<polygon fill="#63b8ff" stroke="#63b8ff" points="1956.23,-132.24 1966.28,-128.9 1956.34,-125.24 1956.23,-132.24"/>
</g>
<!-- Node21 -->
<g id="node21" class="node">
<title>Node21</title>
<g id="a_node21"><a xlink:href="../../de/dbd/IdealGasPhase_8h.html" target="_top" xlink:title="ThermoPhase object for the ideal gas equation of state &#45; workhorse for Cantera (see Thermodynamic Pro...">
<polygon fill="#fff0f0" stroke="red" points="3567.38,-85 3475.38,-85 3475.38,-66 3567.38,-66 3567.38,-85"/>
<text text-anchor="middle" x="3521.38" y="-73" font-family="Helvetica,sans-Serif" font-size="10.00">IdealGasPhase.h</text>
</a>
</g>
</g>
<!-- Node7&#45;&gt;Node21 -->
<g id="edge20" class="edge">
<title>Node7&#45;&gt;Node21</title>
<path fill="none" stroke="#63b8ff" d="M2062.64,-128.73C2290.55,-125.3 3184.93,-110.48 3465.38,-85 3468.61,-84.71 3471.94,-84.35 3475.29,-83.94"/>
<polygon fill="#63b8ff" stroke="#63b8ff" points="2062.55,-125.23 2052.6,-128.88 2062.66,-132.23 2062.55,-125.23"/>
</g>
<!-- Node27 -->
<g id="node22" class="node">
<title>Node27</title>
<g id="a_node22"><a xlink:href="../../d2/d80/IdealGasReactor_8cpp.html" target="_top" xlink:title="A zero&#45;dimensional reactor.">
<polygon fill="white" stroke="#666666" points="1666.38,-85 1558.38,-85 1558.38,-66 1666.38,-66 1666.38,-85"/>
<text text-anchor="middle" x="1612.38" y="-73" font-family="Helvetica,sans-Serif" font-size="10.00">IdealGasReactor.cpp</text>
</a>
</g>
</g>
<!-- Node7&#45;&gt;Node27 -->
<g id="edge22" class="edge">
<title>Node7&#45;&gt;Node27</title>
<path fill="none" stroke="#63b8ff" d="M1955.99,-122.42C1890.05,-113.66 1774.44,-98.28 1675.38,-85 1672.54,-84.62 1669.62,-84.23 1666.68,-83.83"/>
<polygon fill="#63b8ff" stroke="#63b8ff" points="1955.77,-125.92 1966.14,-123.76 1956.69,-118.98 1955.77,-125.92"/>
</g>
<!-- Node28 -->
<g id="node23" class="node">
<title>Node28</title>
<g id="a_node23"><a xlink:href="../../d9/d28/IdealSolidSolnPhase_8h.html" target="_top" xlink:title="Header file for an ideal solid solution model with incompressible thermodynamics (see Thermodynamic P...">
<polygon fill="#fff0f0" stroke="red" points="3812.88,-85 3697.88,-85 3697.88,-66 3812.88,-66 3812.88,-85"/>
<text text-anchor="middle" x="3755.38" y="-73" font-family="Helvetica,sans-Serif" font-size="10.00">IdealSolidSolnPhase.h</text>
</a>
</g>
</g>
<!-- Node7&#45;&gt;Node28 -->
<g id="edge23" class="edge">
<title>Node7&#45;&gt;Node28</title>
<path fill="none" stroke="#63b8ff" d="M2062.83,-128.8C2312.01,-125.44 3361.26,-110.02 3688.38,-85 3691.42,-84.77 3694.53,-84.49 3697.67,-84.19"/>
<polygon fill="#63b8ff" stroke="#63b8ff" points="2062.54,-125.31 2052.59,-128.94 2062.64,-132.3 2062.54,-125.31"/>
</g>
<!-- Node32 -->
<g id="node24" class="node">
<title>Node32</title>
<g id="a_node24"><a xlink:href="../../d8/dc2/InterfaceRate_8cpp.html" target="_top" xlink:title=" ">
<polygon fill="white" stroke="#666666" points="194.88,-24.5 99.88,-24.5 99.88,-5.5 194.88,-5.5 194.88,-24.5"/>
<text text-anchor="middle" x="147.38" y="-12.5" font-family="Helvetica,sans-Serif" font-size="10.00">InterfaceRate.cpp</text>
</a>
</g>
</g>
<!-- Node7&#45;&gt;Node32 -->
<g id="edge25" class="edge">
<title>Node7&#45;&gt;Node32</title>
<path fill="none" stroke="#63b8ff" d="M1955.86,-129.33C1641.09,-128.22 43.42,-120.83 8.38,-85 -23.55,-52.35 47.74,-32.69 99.56,-23.13"/>
<polygon fill="#63b8ff" stroke="#63b8ff" points="1956.07,-132.83 1966.08,-129.37 1956.1,-125.83 1956.07,-132.83"/>
</g>
<!-- Node33 -->
<g id="node25" class="node">
<title>Node33</title>
<g id="a_node25"><a xlink:href="../../d2/dc5/IonGasTransport_8cpp.html" target="_top" xlink:title=" ">
<polygon fill="white" stroke="#666666" points="1792.38,-85 1684.38,-85 1684.38,-66 1792.38,-66 1792.38,-85"/>
<text text-anchor="middle" x="1738.38" y="-73" font-family="Helvetica,sans-Serif" font-size="10.00">IonGasTransport.cpp</text>
</a>
</g>
</g>
<!-- Node7&#45;&gt;Node33 -->
<g id="edge26" class="edge">
<title>Node7&#45;&gt;Node33</title>
<path fill="none" stroke="#63b8ff" d="M1956.3,-119.12C1905.37,-109.16 1829.39,-94.3 1781.92,-85.01"/>
<polygon fill="#63b8ff" stroke="#63b8ff" points="1955.65,-122.56 1966.14,-121.04 1957,-115.69 1955.65,-122.56"/>
</g>
<!-- Node34 -->
<g id="node26" class="node">
<title>Node34</title>
<g id="a_node26"><a xlink:href="../../d7/ddb/Kinetics_8cpp.html" target="_top" xlink:title="Declarations for the base class for kinetics managers (see Kinetics Managers and class Kinetics ).">
<polygon fill="white" stroke="#666666" points="1881.88,-85 1810.88,-85 1810.88,-66 1881.88,-66 1881.88,-85"/>
<text text-anchor="middle" x="1846.38" y="-73" font-family="Helvetica,sans-Serif" font-size="10.00">Kinetics.cpp</text>
</a>
</g>
</g>
<!-- Node7&#45;&gt;Node34 -->
<g id="edge27" class="edge">
<title>Node7&#45;&gt;Node34</title>
<path fill="none" stroke="#63b8ff" d="M1973.39,-117.8C1942.97,-107.91 1900.1,-93.97 1872.77,-85.08"/>
<polygon fill="#63b8ff" stroke="#63b8ff" points="1972.6,-121.22 1983.19,-120.98 1974.76,-114.56 1972.6,-121.22"/>
</g>
<!-- Node35 -->
<g id="node27" class="node">
<title>Node35</title>
<g id="a_node27"><a xlink:href="../../d3/df8/KineticsFactory_8cpp.html" target="_top" xlink:title=" ">
<polygon fill="white" stroke="#666666" points="2002.38,-85 1900.38,-85 1900.38,-66 2002.38,-66 2002.38,-85"/>
<text text-anchor="middle" x="1951.38" y="-73" font-family="Helvetica,sans-Serif" font-size="10.00">KineticsFactory.cpp</text>
</a>
</g>
</g>
<!-- Node7&#45;&gt;Node35 -->
<g id="edge28" class="edge">
<title>Node7&#45;&gt;Node35</title>
<path fill="none" stroke="#63b8ff" d="M1992.47,-114.04C1982.18,-104.64 1969.41,-92.98 1960.87,-85.17"/>
<polygon fill="#63b8ff" stroke="#63b8ff" points="1990.32,-116.82 2000.06,-120.98 1995.04,-111.66 1990.32,-116.82"/>
</g>
<!-- Node36 -->
<g id="node28" class="node">
<title>Node36</title>
<g id="a_node28"><a xlink:href="../../d4/d0d/LatticePhase_8h.html" target="_top" xlink:title="Header for a simple thermodynamics model of a bulk phase derived from ThermoPhase,...">
<polygon fill="#fff0f0" stroke="red" points="3913.38,-85 3831.38,-85 3831.38,-66 3913.38,-66 3913.38,-85"/>
<text text-anchor="middle" x="3872.38" y="-73" font-family="Helvetica,sans-Serif" font-size="10.00">LatticePhase.h</text>
</a>
</g>
</g>
<!-- Node7&#45;&gt;Node36 -->
<g id="edge29" class="edge">
<title>Node7&#45;&gt;Node36</title>
<path fill="none" stroke="#63b8ff" d="M2062.79,-129.2C2323.8,-127.59 3467.02,-118.71 3821.38,-85 3824.6,-84.69 3827.92,-84.31 3831.25,-83.86"/>
<polygon fill="#63b8ff" stroke="#63b8ff" points="2062.42,-125.7 2052.44,-129.27 2062.47,-132.7 2062.42,-125.7"/>
</g>
<!-- Node38 -->
<g id="node29" class="node">
<title>Node38</title>
<g id="a_node29"><a xlink:href="../../da/dd3/LatticeSolidPhase_8h.html" target="_top" xlink:title="Header for a simple thermodynamics model of a bulk solid phase derived from ThermoPhase,...">
<polygon fill="white" stroke="#666666" points="4035.38,-85 3931.38,-85 3931.38,-66 4035.38,-66 4035.38,-85"/>
<text text-anchor="middle" x="3983.38" y="-73" font-family="Helvetica,sans-Serif" font-size="10.00">LatticeSolidPhase.h</text>
</a>
</g>
</g>
<!-- Node7&#45;&gt;Node38 -->
<g id="edge31" class="edge">
<title>Node7&#45;&gt;Node38</title>
<path fill="none" stroke="#63b8ff" d="M2062.67,-129.09C2332.12,-126.9 3546.41,-115.47 3922.38,-85 3925.26,-84.77 3928.21,-84.49 3931.18,-84.18"/>
<polygon fill="#63b8ff" stroke="#63b8ff" points="2062.35,-125.59 2052.38,-129.17 2062.41,-132.59 2062.35,-125.59"/>
</g>
<!-- Node39 -->
<g id="node30" class="node">
<title>Node39</title>
<g id="a_node30"><a xlink:href="../../db/df0/MetalPhase_8h.html" target="_top" xlink:title=" ">
<polygon fill="white" stroke="#666666" points="1235.88,-85 1158.88,-85 1158.88,-66 1235.88,-66 1235.88,-85"/>
<text text-anchor="middle" x="1197.38" y="-73" font-family="Helvetica,sans-Serif" font-size="10.00">MetalPhase.h</text>
</a>
</g>
</g>
<!-- Node7&#45;&gt;Node39 -->
<g id="edge34" class="edge">
<title>Node7&#45;&gt;Node39</title>
<path fill="none" stroke="#63b8ff" d="M1956.02,-128.61C1831.16,-126.05 1510.36,-116.67 1244.38,-85 1241.66,-84.68 1238.87,-84.3 1236.05,-83.88"/>
<polygon fill="#63b8ff" stroke="#63b8ff" points="1956.02,-132.11 1966.08,-128.81 1956.16,-125.11 1956.02,-132.11"/>
</g>
<!-- Node40 -->
<g id="node31" class="node">
<title>Node40</title>
<g id="a_node31"><a xlink:href="../../dd/d16/MixTransport_8cpp.html" target="_top" xlink:title="Mixture&#45;averaged transport properties for ideal gas mixtures.">
<polygon fill="white" stroke="#666666" points="2112.38,-85 2020.38,-85 2020.38,-66 2112.38,-66 2112.38,-85"/>
<text text-anchor="middle" x="2066.38" y="-73" font-family="Helvetica,sans-Serif" font-size="10.00">MixTransport.cpp</text>
</a>
</g>
</g>
<!-- Node7&#45;&gt;Node40 -->
<g id="edge36" class="edge">
<title>Node7&#45;&gt;Node40</title>
<path fill="none" stroke="#63b8ff" d="M2026,-114.04C2036.11,-104.64 2048.66,-92.98 2057.06,-85.17"/>
<polygon fill="#63b8ff" stroke="#63b8ff" points="2023.48,-111.61 2018.54,-120.98 2028.24,-116.74 2023.48,-111.61"/>
</g>
<!-- Node41 -->
<g id="node32" class="node">
<title>Node41</title>
<g id="a_node32"><a xlink:href="../../d1/da4/MixtureFugacityTP_8h.html" target="_top" xlink:title="Header file for a derived class of ThermoPhase that handles non&#45;ideal mixtures based on the fugacity ...">
<polygon fill="#fff0f0" stroke="red" points="2236.38,-85 2130.38,-85 2130.38,-66 2236.38,-66 2236.38,-85"/>
<text text-anchor="middle" x="2183.38" y="-73" font-family="Helvetica,sans-Serif" font-size="10.00">MixtureFugacityTP.h</text>
</a>
</g>
</g>
<!-- Node7&#45;&gt;Node41 -->
<g id="edge37" class="edge">
<title>Node7&#45;&gt;Node41</title>
<path fill="none" stroke="#63b8ff" d="M2046.95,-118.06C2079.47,-108.15 2125.78,-94.04 2155.21,-85.08"/>
<polygon fill="#63b8ff" stroke="#63b8ff" points="2045.88,-114.72 2037.34,-120.98 2047.92,-121.42 2045.88,-114.72"/>
</g>
<!-- Node47 -->
<g id="node33" class="node">
<title>Node47</title>
<g id="a_node33"><a xlink:href="../../df/d2b/MultiPhase_8cpp.html" target="_top" xlink:title="Definitions for the MultiPhase object that is used to set up multiphase equilibrium problems (see Cla...">
<polygon fill="white" stroke="#666666" points="2338.38,-85 2254.38,-85 2254.38,-66 2338.38,-66 2338.38,-85"/>
<text text-anchor="middle" x="2296.38" y="-73" font-family="Helvetica,sans-Serif" font-size="10.00">MultiPhase.cpp</text>
</a>
</g>
</g>
<!-- Node7&#45;&gt;Node47 -->
<g id="edge38" class="edge">
<title>Node7&#45;&gt;Node47</title>
<path fill="none" stroke="#63b8ff" d="M2062.62,-119.67C2117.92,-109.46 2203.33,-93.68 2254.16,-84.3"/>
<polygon fill="#63b8ff" stroke="#63b8ff" points="2061.86,-116.25 2052.66,-121.51 2063.13,-123.13 2061.86,-116.25"/>
</g>
<!-- Node48 -->
<g id="node34" class="node">
<title>Node48</title>
<g id="a_node34"><a xlink:href="../../d8/dcf/PlogRate_8cpp.html" target="_top" xlink:title=" ">
<polygon fill="white" stroke="#666666" points="2432.38,-85 2356.38,-85 2356.38,-66 2432.38,-66 2432.38,-85"/>
<text text-anchor="middle" x="2394.38" y="-73" font-family="Helvetica,sans-Serif" font-size="10.00">PlogRate.cpp</text>
</a>
</g>
</g>
<!-- Node7&#45;&gt;Node48 -->
<g id="edge39" class="edge">
<title>Node7&#45;&gt;Node48</title>
<path fill="none" stroke="#63b8ff" d="M2062.68,-123.28C2129.38,-115.32 2247.05,-100.67 2347.38,-85 2350.25,-84.55 2353.21,-84.07 2356.19,-83.57"/>
<polygon fill="#63b8ff" stroke="#63b8ff" points="2061.94,-119.85 2052.43,-124.5 2062.77,-126.8 2061.94,-119.85"/>
</g>
<!-- Node49 -->
<g id="node35" class="node">
<title>Node49</title>
<g id="a_node35"><a xlink:href="../../dd/d2d/PureFluidPhase_8h.html" target="_top" xlink:title="Header for a ThermoPhase class for a pure fluid phase consisting of gas, liquid, mixed&#45;gas&#45;liquid and...">
<polygon fill="#fff0f0" stroke="red" points="3679.38,-85 3585.38,-85 3585.38,-66 3679.38,-66 3679.38,-85"/>
<text text-anchor="middle" x="3632.38" y="-73" font-family="Helvetica,sans-Serif" font-size="10.00">PureFluidPhase.h</text>
</a>
</g>
</g>
<!-- Node7&#45;&gt;Node49 -->
<g id="edge40" class="edge">
<title>Node7&#45;&gt;Node49</title>
<path fill="none" stroke="#63b8ff" d="M2062.73,-128.86C2301.43,-125.87 3272.89,-112.24 3576.38,-85 3579.32,-84.74 3582.34,-84.42 3585.38,-84.06"/>
<polygon fill="#63b8ff" stroke="#63b8ff" points="2062.53,-125.36 2052.58,-128.99 2062.62,-132.36 2062.53,-125.36"/>
</g>
<!-- Node51 -->
<g id="node36" class="node">
<title>Node51</title>
<g id="a_node36"><a xlink:href="../../d1/d9f/Reaction_8cpp.html" target="_top" xlink:title=" ">
<polygon fill="white" stroke="#666666" points="630.38,-24.5 556.38,-24.5 556.38,-5.5 630.38,-5.5 630.38,-24.5"/>
<text text-anchor="middle" x="593.38" y="-12.5" font-family="Helvetica,sans-Serif" font-size="10.00">Reaction.cpp</text>
</a>
</g>
</g>
<!-- Node7&#45;&gt;Node51 -->
<g id="edge42" class="edge">
<title>Node7&#45;&gt;Node51</title>
<path fill="none" stroke="#63b8ff" d="M1956.07,-129.33C1642.56,-128.19 51.28,-120.69 16.38,-85 10.48,-78.96 10.67,-72.22 16.38,-66 52.87,-26.22 434.17,-17.99 556.11,-16.38"/>
<polygon fill="#63b8ff" stroke="#63b8ff" points="1956.25,-132.83 1966.26,-129.36 1956.27,-125.83 1956.25,-132.83"/>
</g>
<!-- Node52 -->
<g id="node37" class="node">
<title>Node52</title>
<g id="a_node37"><a xlink:href="../../da/d26/ReactionPath_8cpp.html" target="_top" xlink:title="Implementation file for classes used in reaction path analysis.">
<polygon fill="white" stroke="#666666" points="2545.88,-85 2450.88,-85 2450.88,-66 2545.88,-66 2545.88,-85"/>
<text text-anchor="middle" x="2498.38" y="-73" font-family="Helvetica,sans-Serif" font-size="10.00">ReactionPath.cpp</text>
</a>
</g>
</g>
<!-- Node7&#45;&gt;Node52 -->
<g id="edge43" class="edge">
<title>Node7&#45;&gt;Node52</title>
<path fill="none" stroke="#63b8ff" d="M2062.72,-124.79C2144.38,-117.4 2305.26,-102.15 2441.38,-85 2444.46,-84.61 2447.63,-84.19 2450.82,-83.76"/>
<polygon fill="#63b8ff" stroke="#63b8ff" points="2062.33,-121.31 2052.68,-125.7 2062.96,-128.28 2062.33,-121.31"/>
</g>
<!-- Node53 -->
<g id="node38" class="node">
<title>Node53</title>
<g id="a_node38"><a xlink:href="../../de/db2/ReactionRateFactory_8cpp.html" target="_top" xlink:title=" ">
<polygon fill="white" stroke="#666666" points="2690.88,-85 2563.88,-85 2563.88,-66 2690.88,-66 2690.88,-85"/>
<text text-anchor="middle" x="2627.38" y="-73" font-family="Helvetica,sans-Serif" font-size="10.00">ReactionRateFactory.cpp</text>
</a>
</g>
</g>
<!-- Node7&#45;&gt;Node53 -->
<g id="edge44" class="edge">
<title>Node7&#45;&gt;Node53</title>
<path fill="none" stroke="#63b8ff" d="M2062.73,-125.76C2160.37,-118.77 2374.36,-102.82 2554.38,-85 2557.43,-84.7 2560.55,-84.38 2563.69,-84.05"/>
<polygon fill="#63b8ff" stroke="#63b8ff" points="2062.25,-122.28 2052.52,-126.48 2062.75,-129.26 2062.25,-122.28"/>
</g>
<!-- Node54 -->
<g id="node39" class="node">
<title>Node54</title>
<g id="a_node39"><a xlink:href="../../d3/d1d/ReactorBase_8cpp.html" target="_top" xlink:title=" ">
<polygon fill="white" stroke="#666666" points="2801.38,-85 2709.38,-85 2709.38,-66 2801.38,-66 2801.38,-85"/>
<text text-anchor="middle" x="2755.38" y="-73" font-family="Helvetica,sans-Serif" font-size="10.00">ReactorBase.cpp</text>
</a>
</g>
</g>
<!-- Node7&#45;&gt;Node54 -->
<g id="edge45" class="edge">
<title>Node7&#45;&gt;Node54</title>
<path fill="none" stroke="#63b8ff" d="M2062.73,-127.63C2178.78,-123.21 2462.75,-110.54 2699.38,-85 2702.61,-84.65 2705.93,-84.25 2709.28,-83.82"/>
<polygon fill="#63b8ff" stroke="#63b8ff" points="2062.55,-124.13 2052.69,-128.01 2062.81,-131.13 2062.55,-124.13"/>
</g>
<!-- Node55 -->
<g id="node40" class="node">
<title>Node55</title>
<g id="a_node40"><a xlink:href="../../de/d38/SingleSpeciesTP_8h.html" target="_top" xlink:title="Header for the SingleSpeciesTP class, which is a filter class for ThermoPhase, that eases the constru...">
<polygon fill="#fff0f0" stroke="red" points="2917.38,-85 2819.38,-85 2819.38,-66 2917.38,-66 2917.38,-85"/>
<text text-anchor="middle" x="2868.38" y="-73" font-family="Helvetica,sans-Serif" font-size="10.00">SingleSpeciesTP.h</text>
</a>
</g>
</g>
<!-- Node7&#45;&gt;Node55 -->
<g id="edge46" class="edge">
<title>Node7&#45;&gt;Node55</title>
<path fill="none" stroke="#63b8ff" d="M2062.83,-128.19C2191.72,-124.68 2529.69,-113.31 2810.38,-85 2813.32,-84.7 2816.33,-84.37 2819.37,-84"/>
<polygon fill="#63b8ff" stroke="#63b8ff" points="2062.37,-124.7 2052.47,-128.47 2062.56,-131.7 2062.37,-124.7"/>
</g>
<!-- Node62 -->
<g id="node41" class="node">
<title>Node62</title>
<g id="a_node41"><a xlink:href="../../df/d48/Solution_8cpp.html" target="_top" xlink:title="Definition file for class Solution.">
<polygon fill="white" stroke="#666666" points="4048.88,-24.5 3977.88,-24.5 3977.88,-5.5 4048.88,-5.5 4048.88,-24.5"/>
<text text-anchor="middle" x="4013.38" y="-12.5" font-family="Helvetica,sans-Serif" font-size="10.00">Solution.cpp</text>
</a>
</g>
</g>
<!-- Node7&#45;&gt;Node62 -->
<g id="edge47" class="edge">
<title>Node7&#45;&gt;Node62</title>
<path fill="none" stroke="#63b8ff" d="M2062.79,-129.35C2380.45,-128.36 4008.7,-121.47 4044.38,-85 4061.46,-67.54 4037.36,-39.03 4022.9,-24.74"/>
<polygon fill="#63b8ff" stroke="#63b8ff" points="2062.46,-125.85 2052.47,-129.38 2062.48,-132.85 2062.46,-125.85"/>
</g>
<!-- Node63 -->
<g id="node42" class="node">
<title>Node63</title>
<g id="a_node42"><a xlink:href="../../dc/d91/SolutionArray_8cpp.html" target="_top" xlink:title="Definition file for class SolutionArray.">
<polygon fill="white" stroke="#666666" points="911.38,-24.5 819.38,-24.5 819.38,-5.5 911.38,-5.5 911.38,-24.5"/>
<text text-anchor="middle" x="865.38" y="-12.5" font-family="Helvetica,sans-Serif" font-size="10.00">SolutionArray.cpp</text>
</a>
</g>
</g>
<!-- Node7&#45;&gt;Node63 -->
<g id="edge48" class="edge">
<title>Node7&#45;&gt;Node63</title>
<path fill="none" stroke="#63b8ff" d="M1956.23,-129.32C1754.08,-128.36 1039.69,-122.31 945.38,-85 912.98,-72.18 884.6,-40.38 872.13,-24.84"/>
<polygon fill="#63b8ff" stroke="#63b8ff" points="1956.29,-132.82 1966.31,-129.37 1956.32,-125.82 1956.29,-132.82"/>
</g>
<!-- Node64 -->
<g id="node43" class="node">
<title>Node64</title>
<g id="a_node43"><a xlink:href="../../d7/d17/Species_8cpp_source.html" target="_top" xlink:title=" ">
<polygon fill="white" stroke="#666666" points="3006.88,-85 2935.88,-85 2935.88,-66 3006.88,-66 3006.88,-85"/>
<text text-anchor="middle" x="2971.38" y="-73" font-family="Helvetica,sans-Serif" font-size="10.00">Species.cpp</text>
</a>
</g>
</g>
<!-- Node7&#45;&gt;Node64 -->
<g id="edge49" class="edge">
<title>Node7&#45;&gt;Node64</title>
<path fill="none" stroke="#63b8ff" d="M2062.65,-129.48C2203.94,-128.88 2599.77,-123.58 2926.38,-85 2929.38,-84.65 2932.48,-84.21 2935.59,-83.72"/>
<polygon fill="#63b8ff" stroke="#63b8ff" points="2062.51,-125.98 2052.52,-129.52 2062.54,-132.98 2062.51,-125.98"/>
</g>
<!-- Node65 -->
<g id="node44" class="node">
<title>Node65</title>
<g id="a_node44"><a xlink:href="../../d7/d7c/StFlow_8h.html" target="_top" xlink:title=" ">
<polygon fill="#fff0f0" stroke="red" points="3079.38,-85 3025.38,-85 3025.38,-66 3079.38,-66 3079.38,-85"/>
<text text-anchor="middle" x="3052.38" y="-73" font-family="Helvetica,sans-Serif" font-size="10.00">StFlow.h</text>
</a>
</g>
</g>
<!-- Node7&#45;&gt;Node65 -->
<g id="edge50" class="edge">
<title>Node7&#45;&gt;Node65</title>
<path fill="none" stroke="#63b8ff" d="M2062.46,-128.42C2242.43,-124.58 2828.56,-110.38 3015.38,-85 3018.52,-84.57 3021.78,-84.01 3025,-83.37"/>
<polygon fill="#63b8ff" stroke="#63b8ff" points="2062.37,-124.93 2052.45,-128.64 2062.52,-131.92 2062.37,-124.93"/>
</g>
<!-- Node75 -->
<g id="node45" class="node">
<title>Node75</title>
<g id="a_node45"><a xlink:href="../../d2/de5/SurfPhase_8h.html" target="_top" xlink:title="Header for a simple thermodynamics model of a surface phase derived from ThermoPhase,...">
<polygon fill="#fff0f0" stroke="red" points="1025.88,-85 954.88,-85 954.88,-66 1025.88,-66 1025.88,-85"/>
<text text-anchor="middle" x="990.38" y="-73" font-family="Helvetica,sans-Serif" font-size="10.00">SurfPhase.h</text>
</a>
</g>
</g>
<!-- Node7&#45;&gt;Node75 -->
<g id="edge51" class="edge">
<title>Node7&#45;&gt;Node75</title>
<path fill="none" stroke="#63b8ff" d="M1956.19,-129.34C1809.72,-128.41 1388.26,-122.42 1040.38,-85 1035.74,-84.5 1030.88,-83.84 1026.09,-83.12"/>
<polygon fill="#63b8ff" stroke="#63b8ff" points="1956.24,-132.84 1966.26,-129.4 1956.28,-125.84 1956.24,-132.84"/>
</g>
<!-- Node95 -->
<g id="node46" class="node">
<title>Node95</title>
<g id="a_node46"><a xlink:href="../../dc/d8e/ThermoFactory_8h.html" target="_top" xlink:title="Headers for the factory class that can create known ThermoPhase objects (see Thermodynamic Properties...">
<polygon fill="#fff0f0" stroke="red" points="4218.88,-85 4129.88,-85 4129.88,-66 4218.88,-66 4218.88,-85"/>
<text text-anchor="middle" x="4174.38" y="-73" font-family="Helvetica,sans-Serif" font-size="10.00">ThermoFactory.h</text>
</a>
</g>
</g>
<!-- Node7&#45;&gt;Node95 -->
<g id="edge59" class="edge">
<title>Node7&#45;&gt;Node95</title>
<path fill="none" stroke="#63b8ff" d="M2062.78,-129.64C2299.35,-130.01 3276.66,-128.65 4077.38,-85 4094.43,-84.07 4113.12,-82.55 4129.51,-81.05"/>
<polygon fill="#63b8ff" stroke="#63b8ff" points="2062.72,-126.14 2052.72,-129.63 2062.71,-133.14 2062.72,-126.14"/>
</g>
<!-- Node103 -->
<g id="node47" class="node">
<title>Node103</title>
<g id="a_node47"><a xlink:href="../../df/d7e/ThermoPhase_8cpp.html" target="_top" xlink:title="Definition file for class ThermoPhase, the base class for phases with thermodynamic properties (see c...">
<polygon fill="white" stroke="#666666" points="4295.38,-24.5 4199.38,-24.5 4199.38,-5.5 4295.38,-5.5 4295.38,-24.5"/>
<text text-anchor="middle" x="4247.38" y="-12.5" font-family="Helvetica,sans-Serif" font-size="10.00">ThermoPhase.cpp</text>
</a>
</g>
</g>
<!-- Node7&#45;&gt;Node103 -->
<g id="edge65" class="edge">
<title>Node7&#45;&gt;Node103</title>
<path fill="none" stroke="#63b8ff" d="M2063.15,-129.3C2397.96,-127.98 4184.28,-119.3 4228.38,-85 4247.01,-70.51 4248.45,-39.52 4247.96,-24.5"/>
<polygon fill="#63b8ff" stroke="#63b8ff" points="2062.75,-125.81 2052.76,-129.34 2062.78,-132.81 2062.75,-125.81"/>
</g>
<!-- Node105 -->
<g id="node48" class="node">
<title>Node105</title>
<g id="a_node48"><a xlink:href="../../da/dac/Transport_8cpp.html" target="_top" xlink:title="Mixture&#45;averaged transport properties for ideal gas mixtures.">
<polygon fill="white" stroke="#666666" points="3174.88,-85 3097.88,-85 3097.88,-66 3174.88,-66 3174.88,-85"/>
<text text-anchor="middle" x="3136.38" y="-73" font-family="Helvetica,sans-Serif" font-size="10.00">Transport.cpp</text>
</a>
</g>
</g>
<!-- Node7&#45;&gt;Node105 -->
<g id="edge66" class="edge">
<title>Node7&#45;&gt;Node105</title>
<path fill="none" stroke="#63b8ff" d="M2062.8,-129.82C2220.32,-130.24 2696.42,-127.59 3088.38,-85 3091.41,-84.67 3094.54,-84.27 3097.67,-83.81"/>
<polygon fill="#63b8ff" stroke="#63b8ff" points="2062.46,-126.32 2052.45,-129.79 2062.44,-133.32 2062.46,-126.32"/>
</g>
<!-- Node106 -->
<g id="node49" class="node">
<title>Node106</title>
<g id="a_node49"><a xlink:href="../../de/d71/TwoTempPlasmaRate_8cpp.html" target="_top" xlink:title=" ">
<polygon fill="white" stroke="#666666" points="3323.88,-85 3192.88,-85 3192.88,-66 3323.88,-66 3323.88,-85"/>
<text text-anchor="middle" x="3258.38" y="-73" font-family="Helvetica,sans-Serif" font-size="10.00">TwoTempPlasmaRate.cpp</text>
</a>
</g>
</g>
<!-- Node7&#45;&gt;Node106 -->
<g id="edge67" class="edge">
<title>Node7&#45;&gt;Node106</title>
<path fill="none" stroke="#63b8ff" d="M2063.07,-128.9C2229.58,-126.72 2752.01,-117.57 3183.38,-85 3186.39,-84.77 3189.46,-84.52 3192.56,-84.24"/>
<polygon fill="#63b8ff" stroke="#63b8ff" points="2062.58,-125.4 2052.62,-129.03 2062.67,-132.4 2062.58,-125.4"/>
</g>
<!-- Node107 -->
<g id="node50" class="node">
<title>Node107</title>
<g id="a_node50"><a xlink:href="../../db/d48/UnityLewisTransport_8h.html" target="_top" xlink:title="Headers for the UnityLewisTransport object, which models transport properties in ideal gas solutions ...">
<polygon fill="#fff0f0" stroke="red" points="3456.88,-85 3341.88,-85 3341.88,-66 3456.88,-66 3456.88,-85"/>
<text text-anchor="middle" x="3399.38" y="-73" font-family="Helvetica,sans-Serif" font-size="10.00">UnityLewisTransport.h</text>
</a>
</g>
</g>
<!-- Node7&#45;&gt;Node107 -->
<g id="edge68" class="edge">
<title>Node7&#45;&gt;Node107</title>
<path fill="none" stroke="#63b8ff" d="M2062.8,-129.48C2242.32,-129.01 2840.2,-124.41 3332.38,-85 3335.42,-84.76 3338.53,-84.48 3341.67,-84.17"/>
<polygon fill="#63b8ff" stroke="#63b8ff" points="2062.57,-125.98 2052.58,-129.5 2062.58,-132.98 2062.57,-125.98"/>
</g>
<!-- Node21&#45;&gt;Node6 -->
<g id="edge21" class="edge">
<title>Node21&#45;&gt;Node6</title>
<path fill="none" stroke="#63b8ff" d="M3565.23,-63.54C3610.46,-52.23 3680.05,-34.83 3721.31,-24.52"/>
<polygon fill="#63b8ff" stroke="#63b8ff" points="3564.26,-60.17 3555.41,-65.99 3565.96,-66.96 3564.26,-60.17"/>
</g>
<!-- Node28&#45;&gt;Node6 -->
<g id="edge24" class="edge">
<title>Node28&#45;&gt;Node6</title>
<path fill="none" stroke="#63b8ff" d="M3755.38,-55.66C3755.38,-45.24 3755.38,-32.8 3755.38,-24.67"/>
<polygon fill="#63b8ff" stroke="#63b8ff" points="3751.88,-55.87 3755.38,-65.87 3758.88,-55.87 3751.88,-55.87"/>
</g>
<!-- Node36&#45;&gt;Node6 -->
<g id="edge30" class="edge">
<title>Node36&#45;&gt;Node6</title>
<path fill="none" stroke="#63b8ff" d="M3846.34,-61.48C3823.8,-50.21 3791.83,-34.23 3772.41,-24.52"/>
<polygon fill="#63b8ff" stroke="#63b8ff" points="3844.86,-64.65 3855.37,-65.99 3847.99,-58.39 3844.86,-64.65"/>
</g>
<!-- Node38&#45;&gt;Node3 -->
<g id="edge32" class="edge">
<title>Node38&#45;&gt;Node3</title>
<path fill="none" stroke="#63b8ff" d="M4013.31,-62.08C4040.55,-50.78 4080.03,-34.4 4103.85,-24.52"/>
<polygon fill="#63b8ff" stroke="#63b8ff" points="4011.78,-58.93 4003.88,-65.99 4014.46,-65.39 4011.78,-58.93"/>
</g>
<!-- Node38&#45;&gt;Node6 -->
<g id="edge33" class="edge">
<title>Node38&#45;&gt;Node6</title>
<path fill="none" stroke="#63b8ff" d="M3940.38,-63.47C3896.3,-52.16 3828.7,-34.81 3788.57,-24.52"/>
<polygon fill="#63b8ff" stroke="#63b8ff" points="3939.67,-66.9 3950.23,-65.99 3941.41,-60.12 3939.67,-66.9"/>
</g>
<!-- Node39&#45;&gt;Node6 -->
<g id="edge35" class="edge">
<title>Node39&#45;&gt;Node6</title>
<path fill="none" stroke="#63b8ff" d="M1246.29,-66C1768.54,-15.88 3397.7,-15.53 3705.09,-15.91"/>
<polygon fill="#63b8ff" stroke="#63b8ff" points="1245.65,-62.55 1236.04,-67.01 1246.33,-69.51 1245.65,-62.55"/>
</g>
<!-- Node49&#45;&gt;Node6 -->
<g id="edge41" class="edge">
<title>Node49&#45;&gt;Node6</title>
<path fill="none" stroke="#63b8ff" d="M3659.43,-61.63C3683.16,-50.35 3716.97,-34.27 3737.47,-24.52"/>
<polygon fill="#63b8ff" stroke="#63b8ff" points="3657.79,-58.54 3650.27,-65.99 3660.8,-64.86 3657.79,-58.54"/>
</g>
<!-- Node75&#45;&gt;Node6 -->
<g id="edge58" class="edge">
<title>Node75&#45;&gt;Node6</title>
<path fill="none" stroke="#63b8ff" d="M1036.35,-71.63C1068.09,-69.74 1111.28,-67.38 1149.38,-66 2179.87,-28.58 3440.65,-18.16 3705.24,-16.32"/>
<polygon fill="#63b8ff" stroke="#63b8ff" points="1035.82,-68.15 1026.04,-72.24 1036.24,-75.14 1035.82,-68.15"/>
</g>
<!-- Node75&#45;&gt;Node16 -->
<g id="edge52" class="edge">
<title>Node75&#45;&gt;Node16</title>
<path fill="none" stroke="#63b8ff" d="M985.32,-55.99C982.45,-45.51 979,-32.89 976.75,-24.67"/>
<polygon fill="#63b8ff" stroke="#63b8ff" points="982.01,-57.15 988.02,-65.87 988.76,-55.3 982.01,-57.15"/>
</g>
<!-- Node75&#45;&gt;Node18 -->
<g id="edge53" class="edge">
<title>Node75&#45;&gt;Node18</title>
<path fill="none" stroke="#63b8ff" d="M1016.68,-61.46C1035.41,-52.18 1060.56,-39.71 1079.78,-30.18"/>
<polygon fill="#63b8ff" stroke="#63b8ff" points="1014.94,-58.42 1007.54,-65.99 1018.05,-64.69 1014.94,-58.42"/>
</g>
<!-- Node75&#45;&gt;Node20 -->
<g id="edge54" class="edge">
<title>Node75&#45;&gt;Node20</title>
<path fill="none" stroke="#63b8ff" d="M1035.95,-64.7C1088.26,-53.45 1173.21,-35.18 1222.84,-24.5"/>
<polygon fill="#63b8ff" stroke="#63b8ff" points="1034.98,-61.33 1025.94,-66.85 1036.45,-68.17 1034.98,-61.33"/>
</g>
<!-- Node75&#45;&gt;Node32 -->
<g id="edge55" class="edge">
<title>Node75&#45;&gt;Node32</title>
<path fill="none" stroke="#63b8ff" d="M944.7,-69.58C932.28,-68.33 918.82,-67.04 906.38,-66 637.59,-43.55 314.55,-25.1 194.94,-18.55"/>
<polygon fill="#63b8ff" stroke="#63b8ff" points="944.54,-73.09 954.85,-70.63 945.26,-66.12 944.54,-73.09"/>
</g>
<!-- Node75&#45;&gt;Node51 -->
<g id="edge56" class="edge">
<title>Node75&#45;&gt;Node51</title>
<path fill="none" stroke="#63b8ff" d="M944.62,-67.76C865.2,-56.05 703.38,-32.21 630.46,-21.46"/>
<polygon fill="#63b8ff" stroke="#63b8ff" points="944.4,-71.26 954.8,-69.26 945.42,-64.34 944.4,-71.26"/>
</g>
<!-- Node75&#45;&gt;Node63 -->
<g id="edge57" class="edge">
<title>Node75&#45;&gt;Node63</title>
<path fill="none" stroke="#63b8ff" d="M962.89,-61.63C938.78,-50.35 904.42,-34.27 883.58,-24.52"/>
<polygon fill="#63b8ff" stroke="#63b8ff" points="961.66,-64.92 972.2,-65.99 964.63,-58.58 961.66,-64.92"/>
</g>
<!-- Node95&#45;&gt;Node2 -->
<g id="edge60" class="edge">
<title>Node95&#45;&gt;Node2</title>
<path fill="none" stroke="#63b8ff" d="M4217,-63.47C4260.7,-52.16 4327.71,-34.81 4367.48,-24.52"/>
<polygon fill="#63b8ff" stroke="#63b8ff" points="4216.05,-60.1 4207.24,-65.99 4217.8,-66.88 4216.05,-60.1"/>
</g>
<!-- Node95&#45;&gt;Node3 -->
<g id="edge61" class="edge">
<title>Node95&#45;&gt;Node3</title>
<path fill="none" stroke="#63b8ff" d="M4160.24,-57.95C4150.98,-47.12 4139.26,-33.41 4131.79,-24.67"/>
<polygon fill="#63b8ff" stroke="#63b8ff" points="4157.84,-60.54 4167,-65.87 4163.17,-55.99 4157.84,-60.54"/>
</g>
<!-- Node95&#45;&gt;Node6 -->
<g id="edge63" class="edge">
<title>Node95&#45;&gt;Node6</title>
<path fill="none" stroke="#63b8ff" d="M4119.31,-66.56C4117.99,-66.37 4116.68,-66.18 4115.38,-66 4004.79,-50.35 3875.03,-32.44 3805.48,-22.88"/>
<polygon fill="#63b8ff" stroke="#63b8ff" points="4119.21,-70.08 4129.61,-68.03 4120.2,-63.15 4119.21,-70.08"/>
</g>
<!-- Node95&#45;&gt;Node62 -->
<g id="edge62" class="edge">
<title>Node95&#45;&gt;Node62</title>
<path fill="none" stroke="#63b8ff" d="M4141.42,-62.52C4110.29,-51.21 4064.38,-34.53 4036.82,-24.52"/>
<polygon fill="#63b8ff" stroke="#63b8ff" points="4140.38,-65.87 4150.97,-65.99 4142.77,-59.29 4140.38,-65.87"/>
</g>
<!-- Node95&#45;&gt;Node103 -->
<g id="edge64" class="edge">
<title>Node95&#45;&gt;Node103</title>
<path fill="none" stroke="#63b8ff" d="M4193.05,-59.54C4206.84,-48.49 4225.12,-33.84 4236.56,-24.67"/>
<polygon fill="#63b8ff" stroke="#63b8ff" points="4190.77,-56.88 4185.15,-65.87 4195.14,-62.35 4190.77,-56.88"/>
</g>
</g>
</svg>
