<?xml version="1.0" encoding="UTF-8" standalone="no"?>
<!DOCTYPE svg PUBLIC "-//W3C//DTD SVG 1.1//EN"
 "http://www.w3.org/Graphics/SVG/1.1/DTD/svg11.dtd">
<!-- Generated by graphviz version 2.43.0 (0)
 -->
<!-- Title: TransportFactory.h Pages: 1 -->
<svg width="854pt" height="308pt"
 viewBox="0.00 0.00 854.00 308.00" xmlns="http://www.w3.org/2000/svg" xmlns:xlink="http://www.w3.org/1999/xlink">
<g id="graph0" class="graph" transform="scale(1 1) rotate(0) translate(4 304)">
<title>TransportFactory.h</title>
<polygon fill="white" stroke="transparent" points="-4,4 -4,-304 850,-304 850,4 -4,4"/>
<!-- Node1 -->
<g id="node1" class="node">
<title>Node1</title>
<g id="a_node1"><a xlink:title="Header file defining class TransportFactory (see TransportFactory)">
<polygon fill="#bfbfbf" stroke="black" points="401.5,-280.5 401.5,-299.5 505.5,-299.5 505.5,-280.5 401.5,-280.5"/>
<text text-anchor="middle" x="453.5" y="-287.5" font-family="Helvetica,sans-Serif" font-size="10.00">TransportFactory.h</text>
</a>
</g>
</g>
<!-- Node2 -->
<g id="node2" class="node">
<title>Node2</title>
<g id="a_node2"><a xlink:href="../../d8/d5e/Transport_8h.html" target="_top" xlink:title="Headers for the Transport object, which is the virtual base class for all transport property evaluato...">
<polygon fill="white" stroke="black" points="354,-224.5 354,-243.5 425,-243.5 425,-224.5 354,-224.5"/>
<text text-anchor="middle" x="389.5" y="-231.5" font-family="Helvetica,sans-Serif" font-size="10.00">Transport.h</text>
</a>
</g>
</g>
<!-- Node1&#45;&gt;Node2 -->
<g id="edge1" class="edge">
<title>Node1&#45;&gt;Node2</title>
<path fill="none" stroke="midnightblue" d="M443.22,-280.32C433.66,-272.26 419.22,-260.08 407.72,-250.37"/>
<polygon fill="midnightblue" stroke="midnightblue" points="409.87,-247.61 399.97,-243.83 405.36,-252.96 409.87,-247.61"/>
</g>
<!-- Node21 -->
<g id="node21" class="node">
<title>Node21</title>
<g id="a_node21"><a xlink:href="../../d6/dd5/FactoryBase_8h.html" target="_top" xlink:title="File contains the FactoryBase class declarations.">
<polygon fill="white" stroke="black" points="456,-224.5 456,-243.5 607,-243.5 607,-224.5 456,-224.5"/>
<text text-anchor="middle" x="531.5" y="-231.5" font-family="Helvetica,sans-Serif" font-size="10.00">cantera/base/FactoryBase.h</text>
</a>
</g>
</g>
<!-- Node1&#45;&gt;Node21 -->
<g id="edge24" class="edge">
<title>Node1&#45;&gt;Node21</title>
<path fill="none" stroke="midnightblue" d="M466.03,-280.32C478.09,-271.98 496.53,-259.21 510.77,-249.35"/>
<polygon fill="midnightblue" stroke="midnightblue" points="512.77,-252.22 519,-243.65 508.78,-246.47 512.77,-252.22"/>
</g>
<!-- Node3 -->
<g id="node3" class="node">
<title>Node3</title>
<g id="a_node3"><a xlink:href="../../d9/ddc/ct__defs_8h.html" target="_top" xlink:title="This file contains definitions of constants, types and terms that are used in internal routines and a...">
<polygon fill="white" stroke="black" points="252,-56.5 252,-75.5 379,-75.5 379,-56.5 252,-56.5"/>
<text text-anchor="middle" x="315.5" y="-63.5" font-family="Helvetica,sans-Serif" font-size="10.00">cantera/base/ct_defs.h</text>
</a>
</g>
</g>
<!-- Node2&#45;&gt;Node3 -->
<g id="edge2" class="edge">
<title>Node2&#45;&gt;Node3</title>
<path fill="none" stroke="midnightblue" d="M353.94,-227.07C331.31,-221.25 303.66,-209.9 289.5,-188 268.59,-155.66 289.7,-109.3 304.24,-84.4"/>
<polygon fill="midnightblue" stroke="midnightblue" points="307.33,-86.06 309.57,-75.7 301.36,-82.4 307.33,-86.06"/>
</g>
<!-- Node14 -->
<g id="node14" class="node">
<title>Node14</title>
<g id="a_node14"><a xlink:href="../../db/d98/ctexceptions_8h.html" target="_top" xlink:title="Definitions for the classes that are thrown when Cantera experiences an error condition (also contain...">
<polygon fill="white" stroke="black" points="298.5,-168.5 298.5,-187.5 452.5,-187.5 452.5,-168.5 298.5,-168.5"/>
<text text-anchor="middle" x="375.5" y="-175.5" font-family="Helvetica,sans-Serif" font-size="10.00">cantera/base/ctexceptions.h</text>
</a>
</g>
</g>
<!-- Node2&#45;&gt;Node14 -->
<g id="edge13" class="edge">
<title>Node2&#45;&gt;Node14</title>
<path fill="none" stroke="midnightblue" d="M387.19,-224.08C385.33,-216.93 382.66,-206.64 380.35,-197.69"/>
<polygon fill="midnightblue" stroke="midnightblue" points="383.67,-196.55 377.77,-187.75 376.89,-198.31 383.67,-196.55"/>
</g>
<!-- Node20 -->
<g id="node20" class="node">
<title>Node20</title>
<g id="a_node20"><a xlink:href="../../d2/d49/global_8h.html" target="_top" xlink:title="This file contains definitions for utility functions and text for modules, inputfiles and logging,...">
<polygon fill="white" stroke="black" points="470.5,-168.5 470.5,-187.5 592.5,-187.5 592.5,-168.5 470.5,-168.5"/>
<text text-anchor="middle" x="531.5" y="-175.5" font-family="Helvetica,sans-Serif" font-size="10.00">cantera/base/global.h</text>
</a>
</g>
</g>
<!-- Node2&#45;&gt;Node20 -->
<g id="edge21" class="edge">
<title>Node2&#45;&gt;Node20</title>
<path fill="none" stroke="midnightblue" d="M412,-224.44C435.58,-215.48 472.82,-201.31 499.46,-191.18"/>
<polygon fill="midnightblue" stroke="midnightblue" points="501,-194.34 509.1,-187.52 498.51,-187.8 501,-194.34"/>
</g>
<!-- Node4 -->
<g id="node4" class="node">
<title>Node4</title>
<g id="a_node4"><a xlink:href="../../db/d16/config_8h_source.html" target="_top" xlink:title=" ">
<polygon fill="white" stroke="black" points="0,-0.5 0,-19.5 55,-19.5 55,-0.5 0,-0.5"/>
<text text-anchor="middle" x="27.5" y="-7.5" font-family="Helvetica,sans-Serif" font-size="10.00">config.h</text>
</a>
</g>
</g>
<!-- Node3&#45;&gt;Node4 -->
<g id="edge3" class="edge">
<title>Node3&#45;&gt;Node4</title>
<path fill="none" stroke="midnightblue" d="M261.71,-56.49C212.74,-48.49 138.25,-35.71 65.19,-20.26"/>
<polygon fill="midnightblue" stroke="midnightblue" points="65.87,-16.83 55.36,-18.17 64.41,-23.68 65.87,-16.83"/>
</g>
<!-- Node5 -->
<g id="node5" class="node">
<title>Node5</title>
<g id="a_node5"><a xlink:title=" ">
<polygon fill="white" stroke="#bfbfbf" points="73,-0.5 73,-19.5 120,-19.5 120,-0.5 73,-0.5"/>
<text text-anchor="middle" x="96.5" y="-7.5" font-family="Helvetica,sans-Serif" font-size="10.00">cmath</text>
</a>
</g>
</g>
<!-- Node3&#45;&gt;Node5 -->
<g id="edge4" class="edge">
<title>Node3&#45;&gt;Node5</title>
<path fill="none" stroke="midnightblue" d="M278.14,-56.45C242.39,-48.17 186.71,-35.02 130.07,-20.35"/>
<polygon fill="midnightblue" stroke="midnightblue" points="130.8,-16.92 120.24,-17.78 129.03,-23.69 130.8,-16.92"/>
</g>
<!-- Node6 -->
<g id="node6" class="node">
<title>Node6</title>
<g id="a_node6"><a xlink:title=" ">
<polygon fill="white" stroke="#bfbfbf" points="138,-0.5 138,-19.5 187,-19.5 187,-0.5 138,-0.5"/>
<text text-anchor="middle" x="162.5" y="-7.5" font-family="Helvetica,sans-Serif" font-size="10.00">cstdlib</text>
</a>
</g>
</g>
<!-- Node3&#45;&gt;Node6 -->
<g id="edge5" class="edge">
<title>Node3&#45;&gt;Node6</title>
<path fill="none" stroke="midnightblue" d="M291.26,-56.44C265.63,-47.4 225.01,-33.06 196.26,-22.92"/>
<polygon fill="midnightblue" stroke="midnightblue" points="197.22,-19.54 186.63,-19.52 194.89,-26.15 197.22,-19.54"/>
</g>
<!-- Node7 -->
<g id="node7" class="node">
<title>Node7</title>
<g id="a_node7"><a xlink:title=" ">
<polygon fill="white" stroke="#bfbfbf" points="205,-0.5 205,-19.5 252,-19.5 252,-0.5 205,-0.5"/>
<text text-anchor="middle" x="228.5" y="-7.5" font-family="Helvetica,sans-Serif" font-size="10.00">vector</text>
</a>
</g>
</g>
<!-- Node3&#45;&gt;Node7 -->
<g id="edge6" class="edge">
<title>Node3&#45;&gt;Node7</title>
<path fill="none" stroke="midnightblue" d="M301.52,-56.32C287.95,-47.9 267.12,-34.97 251.18,-25.07"/>
<polygon fill="midnightblue" stroke="midnightblue" points="252.79,-21.95 242.44,-19.65 249.09,-27.9 252.79,-21.95"/>
</g>
<!-- Node8 -->
<g id="node8" class="node">
<title>Node8</title>
<g id="a_node8"><a xlink:title=" ">
<polygon fill="white" stroke="#bfbfbf" points="270.5,-0.5 270.5,-19.5 308.5,-19.5 308.5,-0.5 270.5,-0.5"/>
<text text-anchor="middle" x="289.5" y="-7.5" font-family="Helvetica,sans-Serif" font-size="10.00">map</text>
</a>
</g>
</g>
<!-- Node3&#45;&gt;Node8 -->
<g id="edge7" class="edge">
<title>Node3&#45;&gt;Node8</title>
<path fill="none" stroke="midnightblue" d="M311.21,-56.08C307.65,-48.69 302.48,-37.95 298.08,-28.81"/>
<polygon fill="midnightblue" stroke="midnightblue" points="301.21,-27.24 293.71,-19.75 294.9,-30.28 301.21,-27.24"/>
</g>
<!-- Node9 -->
<g id="node9" class="node">
<title>Node9</title>
<g id="a_node9"><a xlink:title=" ">
<polygon fill="white" stroke="#bfbfbf" points="326.5,-0.5 326.5,-19.5 358.5,-19.5 358.5,-0.5 326.5,-0.5"/>
<text text-anchor="middle" x="342.5" y="-7.5" font-family="Helvetica,sans-Serif" font-size="10.00">set</text>
</a>
</g>
</g>
<!-- Node3&#45;&gt;Node9 -->
<g id="edge8" class="edge">
<title>Node3&#45;&gt;Node9</title>
<path fill="none" stroke="midnightblue" d="M319.96,-56.08C323.65,-48.69 329.02,-37.95 333.59,-28.81"/>
<polygon fill="midnightblue" stroke="midnightblue" points="336.78,-30.26 338.12,-19.75 330.52,-27.13 336.78,-30.26"/>
</g>
<!-- Node10 -->
<g id="node10" class="node">
<title>Node10</title>
<g id="a_node10"><a xlink:title=" ">
<polygon fill="white" stroke="#bfbfbf" points="376.5,-0.5 376.5,-19.5 420.5,-19.5 420.5,-0.5 376.5,-0.5"/>
<text text-anchor="middle" x="398.5" y="-7.5" font-family="Helvetica,sans-Serif" font-size="10.00">string</text>
</a>
</g>
</g>
<!-- Node3&#45;&gt;Node10 -->
<g id="edge9" class="edge">
<title>Node3&#45;&gt;Node10</title>
<path fill="none" stroke="midnightblue" d="M328.84,-56.32C341.66,-47.98 361.28,-35.21 376.44,-25.35"/>
<polygon fill="midnightblue" stroke="midnightblue" points="378.72,-28.04 385.2,-19.65 374.91,-22.17 378.72,-28.04"/>
</g>
<!-- Node11 -->
<g id="node11" class="node">
<title>Node11</title>
<g id="a_node11"><a xlink:title=" ">
<polygon fill="white" stroke="#bfbfbf" points="438.5,-0.5 438.5,-19.5 502.5,-19.5 502.5,-0.5 438.5,-0.5"/>
<text text-anchor="middle" x="470.5" y="-7.5" font-family="Helvetica,sans-Serif" font-size="10.00">algorithm</text>
</a>
</g>
</g>
<!-- Node3&#45;&gt;Node11 -->
<g id="edge10" class="edge">
<title>Node3&#45;&gt;Node11</title>
<path fill="none" stroke="midnightblue" d="M340.06,-56.44C366.02,-47.4 407.17,-33.06 436.3,-22.92"/>
<polygon fill="midnightblue" stroke="midnightblue" points="437.76,-26.11 446.05,-19.52 435.46,-19.5 437.76,-26.11"/>
</g>
<!-- Node12 -->
<g id="node12" class="node">
<title>Node12</title>
<g id="a_node12"><a xlink:title=" ">
<polygon fill="white" stroke="#bfbfbf" points="520.5,-0.5 520.5,-19.5 578.5,-19.5 578.5,-0.5 520.5,-0.5"/>
<text text-anchor="middle" x="549.5" y="-7.5" font-family="Helvetica,sans-Serif" font-size="10.00">memory</text>
</a>
</g>
</g>
<!-- Node3&#45;&gt;Node12 -->
<g id="edge11" class="edge">
<title>Node3&#45;&gt;Node12</title>
<path fill="none" stroke="midnightblue" d="M353.09,-56.45C390.56,-47.91 450,-34.31 510.71,-20.17"/>
<polygon fill="midnightblue" stroke="midnightblue" points="511.51,-23.58 520.46,-17.9 509.93,-16.76 511.51,-23.58"/>
</g>
<!-- Node13 -->
<g id="node13" class="node">
<title>Node13</title>
<g id="a_node13"><a xlink:title=" ">
<polygon fill="white" stroke="#bfbfbf" points="597,-0.5 597,-19.5 662,-19.5 662,-0.5 597,-0.5"/>
<text text-anchor="middle" x="629.5" y="-7.5" font-family="Helvetica,sans-Serif" font-size="10.00">functional</text>
</a>
</g>
</g>
<!-- Node3&#45;&gt;Node13 -->
<g id="edge12" class="edge">
<title>Node3&#45;&gt;Node13</title>
<path fill="none" stroke="midnightblue" d="M371.9,-56.46C424.85,-48.27 506.51,-35.17 587.15,-19.99"/>
<polygon fill="midnightblue" stroke="midnightblue" points="587.8,-23.43 596.97,-18.13 586.49,-16.55 587.8,-23.43"/>
</g>
<!-- Node14&#45;&gt;Node3 -->
<g id="edge14" class="edge">
<title>Node14&#45;&gt;Node3</title>
<path fill="none" stroke="midnightblue" d="M365.31,-168.35C356.03,-159.94 342.57,-146.38 334.5,-132 326.41,-117.58 321.47,-99.39 318.67,-85.92"/>
<polygon fill="midnightblue" stroke="midnightblue" points="322.07,-85.09 316.79,-75.91 315.19,-86.38 322.07,-85.09"/>
</g>
<!-- Node15 -->
<g id="node15" class="node">
<title>Node15</title>
<g id="a_node15"><a xlink:href="../../db/def/fmt_8h.html" target="_top" xlink:title="Wrapper for either system&#45;installed or local headers for fmt.">
<polygon fill="white" stroke="black" points="475,-112.5 475,-131.5 584,-131.5 584,-112.5 475,-112.5"/>
<text text-anchor="middle" x="529.5" y="-119.5" font-family="Helvetica,sans-Serif" font-size="10.00">cantera/base/fmt.h</text>
</a>
</g>
</g>
<!-- Node14&#45;&gt;Node15 -->
<g id="edge15" class="edge">
<title>Node14&#45;&gt;Node15</title>
<path fill="none" stroke="midnightblue" d="M399.9,-168.44C425.7,-159.4 466.58,-145.06 495.52,-134.92"/>
<polygon fill="midnightblue" stroke="midnightblue" points="496.93,-138.13 505.21,-131.52 494.62,-131.52 496.93,-138.13"/>
</g>
<!-- Node19 -->
<g id="node19" class="node">
<title>Node19</title>
<g id="a_node19"><a xlink:title=" ">
<polygon fill="white" stroke="#bfbfbf" points="344,-112.5 344,-131.5 409,-131.5 409,-112.5 344,-112.5"/>
<text text-anchor="middle" x="376.5" y="-119.5" font-family="Helvetica,sans-Serif" font-size="10.00">exception</text>
</a>
</g>
</g>
<!-- Node14&#45;&gt;Node19 -->
<g id="edge20" class="edge">
<title>Node14&#45;&gt;Node19</title>
<path fill="none" stroke="midnightblue" d="M375.67,-168.08C375.8,-161.01 375.98,-150.86 376.15,-141.99"/>
<polygon fill="midnightblue" stroke="midnightblue" points="379.65,-141.81 376.34,-131.75 372.65,-141.68 379.65,-141.81"/>
</g>
<!-- Node15&#45;&gt;Node3 -->
<g id="edge16" class="edge">
<title>Node15&#45;&gt;Node3</title>
<path fill="none" stroke="midnightblue" d="M495.59,-112.44C458.65,-103.12 399.45,-88.18 359.08,-78"/>
<polygon fill="midnightblue" stroke="midnightblue" points="359.8,-74.57 349.25,-75.52 358.09,-81.36 359.8,-74.57"/>
</g>
<!-- Node16 -->
<g id="node16" class="node">
<title>Node16</title>
<g id="a_node16"><a xlink:title=" ">
<polygon fill="white" stroke="#bfbfbf" points="397,-56.5 397,-75.5 534,-75.5 534,-56.5 397,-56.5"/>
<text text-anchor="middle" x="465.5" y="-63.5" font-family="Helvetica,sans-Serif" font-size="10.00">cantera/ext/fmt/format.h</text>
</a>
</g>
</g>
<!-- Node15&#45;&gt;Node16 -->
<g id="edge17" class="edge">
<title>Node15&#45;&gt;Node16</title>
<path fill="none" stroke="midnightblue" d="M519.22,-112.32C509.66,-104.26 495.22,-92.08 483.72,-82.37"/>
<polygon fill="midnightblue" stroke="midnightblue" points="485.87,-79.61 475.97,-75.83 481.36,-84.96 485.87,-79.61"/>
</g>
<!-- Node17 -->
<g id="node17" class="node">
<title>Node17</title>
<g id="a_node17"><a xlink:title=" ">
<polygon fill="white" stroke="#bfbfbf" points="552.5,-56.5 552.5,-75.5 682.5,-75.5 682.5,-56.5 552.5,-56.5"/>
<text text-anchor="middle" x="617.5" y="-63.5" font-family="Helvetica,sans-Serif" font-size="10.00">cantera/ext/fmt/printf.h</text>
</a>
</g>
</g>
<!-- Node15&#45;&gt;Node17 -->
<g id="edge18" class="edge">
<title>Node15&#45;&gt;Node17</title>
<path fill="none" stroke="midnightblue" d="M543.64,-112.32C557.37,-103.9 578.44,-90.97 594.56,-81.07"/>
<polygon fill="midnightblue" stroke="midnightblue" points="596.7,-83.87 603.4,-75.65 593.04,-77.9 596.7,-83.87"/>
</g>
<!-- Node18 -->
<g id="node18" class="node">
<title>Node18</title>
<g id="a_node18"><a xlink:title=" ">
<polygon fill="white" stroke="#bfbfbf" points="701,-56.5 701,-75.5 846,-75.5 846,-56.5 701,-56.5"/>
<text text-anchor="middle" x="773.5" y="-63.5" font-family="Helvetica,sans-Serif" font-size="10.00">cantera/ext/fmt/ostream.h</text>
</a>
</g>
</g>
<!-- Node15&#45;&gt;Node18 -->
<g id="edge19" class="edge">
<title>Node15&#45;&gt;Node18</title>
<path fill="none" stroke="midnightblue" d="M568.16,-112.44C610.64,-103.04 678.93,-87.93 724.97,-77.74"/>
<polygon fill="midnightblue" stroke="midnightblue" points="726.01,-81.09 735.02,-75.52 724.5,-74.26 726.01,-81.09"/>
</g>
<!-- Node20&#45;&gt;Node3 -->
<g id="edge22" class="edge">
<title>Node20&#45;&gt;Node3</title>
<path fill="none" stroke="midnightblue" d="M517.36,-168.31C496.06,-155.37 454.32,-130.56 417.5,-112 393.88,-100.1 366.42,-88.08 345.94,-79.46"/>
<polygon fill="midnightblue" stroke="midnightblue" points="347.07,-76.14 336.5,-75.52 344.38,-82.6 347.07,-76.14"/>
</g>
<!-- Node20&#45;&gt;Node15 -->
<g id="edge23" class="edge">
<title>Node20&#45;&gt;Node15</title>
<path fill="none" stroke="midnightblue" d="M531.17,-168.08C530.91,-161.01 530.53,-150.86 530.2,-141.99"/>
<polygon fill="midnightblue" stroke="midnightblue" points="533.69,-141.61 529.82,-131.75 526.7,-141.87 533.69,-141.61"/>
</g>
<!-- Node21&#45;&gt;Node14 -->
<g id="edge27" class="edge">
<title>Node21&#45;&gt;Node14</title>
<path fill="none" stroke="midnightblue" d="M506.78,-224.44C480.65,-215.4 439.24,-201.06 409.92,-190.92"/>
<polygon fill="midnightblue" stroke="midnightblue" points="410.7,-187.48 400.1,-187.52 408.41,-194.1 410.7,-187.48"/>
</g>
<!-- Node21&#45;&gt;Node20 -->
<g id="edge28" class="edge">
<title>Node21&#45;&gt;Node20</title>
<path fill="none" stroke="midnightblue" d="M531.5,-224.08C531.5,-217.01 531.5,-206.86 531.5,-197.99"/>
<polygon fill="midnightblue" stroke="midnightblue" points="535,-197.75 531.5,-187.75 528,-197.75 535,-197.75"/>
</g>
<!-- Node22 -->
<g id="node22" class="node">
<title>Node22</title>
<g id="a_node22"><a xlink:title=" ">
<polygon fill="white" stroke="#bfbfbf" points="722.5,-168.5 722.5,-187.5 770.5,-187.5 770.5,-168.5 722.5,-168.5"/>
<text text-anchor="middle" x="746.5" y="-175.5" font-family="Helvetica,sans-Serif" font-size="10.00">mutex</text>
</a>
</g>
</g>
<!-- Node21&#45;&gt;Node22 -->
<g id="edge25" class="edge">
<title>Node21&#45;&gt;Node22</title>
<path fill="none" stroke="midnightblue" d="M567.14,-224.46C601.86,-216.07 656.41,-202.74 712.6,-188.19"/>
<polygon fill="midnightblue" stroke="midnightblue" points="713.57,-191.56 722.37,-185.65 711.81,-184.78 713.57,-191.56"/>
</g>
<!-- Node23 -->
<g id="node23" class="node">
<title>Node23</title>
<g id="a_node23"><a xlink:title=" ">
<polygon fill="white" stroke="#bfbfbf" points="611,-168.5 611,-187.5 704,-187.5 704,-168.5 611,-168.5"/>
<text text-anchor="middle" x="657.5" y="-175.5" font-family="Helvetica,sans-Serif" font-size="10.00">unordered_map</text>
</a>
</g>
</g>
<!-- Node21&#45;&gt;Node23 -->
<g id="edge26" class="edge">
<title>Node21&#45;&gt;Node23</title>
<path fill="none" stroke="midnightblue" d="M551.47,-224.44C572.11,-215.6 604.56,-201.69 628.13,-191.59"/>
<polygon fill="midnightblue" stroke="midnightblue" points="629.82,-194.67 637.63,-187.52 627.06,-188.24 629.82,-194.67"/>
</g>
</g>
</svg>
