<?xml version="1.0" encoding="UTF-8" standalone="no"?>
<!DOCTYPE svg PUBLIC "-//W3C//DTD SVG 1.1//EN"
 "http://www.w3.org/Graphics/SVG/1.1/DTD/svg11.dtd">
<!-- Generated by graphviz version 2.50.0 (0)
 -->
<!-- Title: Empty1D Pages: 1 -->
<svg width="489pt" height="434pt"
 viewBox="0.00 0.00 488.54 434.00" xmlns="http://www.w3.org/2000/svg" xmlns:xlink="http://www.w3.org/1999/xlink">
<g id="graph0" class="graph" transform="scale(1 1) rotate(0) translate(4 430)">
<title>Empty1D</title>
<polygon fill="white" stroke="transparent" points="-4,4 -4,-430 484.54,-430 484.54,4 -4,4"/>
<!-- Node1 -->
<g id="node1" class="node">
<title>Node1</title>
<g id="a_node1"><a xlink:title="A terminator that does nothing.">
<polygon fill="#bfbfbf" stroke="black" points="197.54,-0.5 197.54,-19.5 255.54,-19.5 255.54,-0.5 197.54,-0.5"/>
<text text-anchor="middle" x="226.54" y="-7.5" font-family="Helvetica,sans-Serif" font-size="10.00">Empty1D</text>
</a>
</g>
</g>
<!-- Node2 -->
<g id="node2" class="node">
<title>Node2</title>
<g id="a_node2"><a xlink:href="../../d0/de4/classCantera_1_1Boundary1D.html" target="_top" xlink:title="The base class for boundaries between one&#45;dimensional spatial domains.">
<polygon fill="white" stroke="black" points="191.04,-57.5 191.04,-76.5 262.04,-76.5 262.04,-57.5 191.04,-57.5"/>
<text text-anchor="middle" x="226.54" y="-64.5" font-family="Helvetica,sans-Serif" font-size="10.00">Boundary1D</text>
</a>
</g>
</g>
<!-- Node2&#45;&gt;Node1 -->
<g id="edge1" class="edge">
<title>Node2&#45;&gt;Node1</title>
<path fill="none" stroke="midnightblue" d="M226.54,-47.12C226.54,-37.82 226.54,-27.06 226.54,-19.71"/>
<polygon fill="midnightblue" stroke="midnightblue" points="223.04,-47.41 226.54,-57.41 230.04,-47.41 223.04,-47.41"/>
</g>
<!-- Node3 -->
<g id="node3" class="node">
<title>Node3</title>
<g id="a_node3"><a xlink:href="../../d9/dfd/classCantera_1_1Domain1D.html" target="_top" xlink:title="Base class for one&#45;dimensional domains.">
<polygon fill="white" stroke="black" points="348.04,-225.5 348.04,-244.5 411.04,-244.5 411.04,-225.5 348.04,-225.5"/>
<text text-anchor="middle" x="379.54" y="-232.5" font-family="Helvetica,sans-Serif" font-size="10.00">Domain1D</text>
</a>
</g>
</g>
<!-- Node3&#45;&gt;Node2 -->
<g id="edge2" class="edge">
<title>Node3&#45;&gt;Node2</title>
<path fill="none" stroke="midnightblue" d="M377.16,-214.96C374.98,-202.41 370.93,-185.97 363.54,-173 339.43,-130.67 326.54,-122.8 286.54,-95 275.66,-87.44 262.32,-81.19 250.99,-76.61"/>
<polygon fill="midnightblue" stroke="midnightblue" points="373.75,-215.8 378.68,-225.18 380.67,-214.77 373.75,-215.8"/>
</g>
<!-- Node3&#45;&gt;Node3 -->
<g id="edge6" class="edge">
<title>Node3&#45;&gt;Node3</title>
<path fill="none" stroke="#9a32cd" stroke-dasharray="5,2" d="M421.69,-241.87C426.17,-240.54 429.04,-238.25 429.04,-235 429.04,-229.67 421.3,-226.92 411.44,-226.76"/>
<polygon fill="#9a32cd" stroke="#9a32cd" points="420.89,-238.44 411.44,-243.24 421.82,-245.38 420.89,-238.44"/>
<text text-anchor="middle" x="445.54" y="-238" font-family="Helvetica,sans-Serif" font-size="10.00"> m_left</text>
<text text-anchor="middle" x="445.54" y="-227" font-family="Helvetica,sans-Serif" font-size="10.00">m_right</text>
</g>
<!-- Node6 -->
<g id="node6" class="node">
<title>Node6</title>
<g id="a_node6"><a xlink:href="../../d9/d1a/classCantera_1_1StFlow.html" target="_top" xlink:title="This class represents 1D flow domains that satisfy the one&#45;dimensional similarity solution for chemic...">
<polygon fill="white" stroke="black" points="203.04,-135.5 203.04,-154.5 250.04,-154.5 250.04,-135.5 203.04,-135.5"/>
<text text-anchor="middle" x="226.54" y="-142.5" font-family="Helvetica,sans-Serif" font-size="10.00">StFlow</text>
</a>
</g>
</g>
<!-- Node3&#45;&gt;Node6 -->
<g id="edge8" class="edge">
<title>Node3&#45;&gt;Node6</title>
<path fill="none" stroke="midnightblue" d="M370.63,-216.4C362.73,-202.56 349.91,-183.86 333.54,-173 308.16,-156.16 273.03,-149.82 250.05,-147.44"/>
<polygon fill="midnightblue" stroke="midnightblue" points="367.68,-218.3 375.5,-225.44 373.84,-214.98 367.68,-218.3"/>
</g>
<!-- Node4 -->
<g id="node4" class="node">
<title>Node4</title>
<g id="a_node4"><a xlink:href="../../d5/d41/classCantera_1_1OneDim.html" target="_top" xlink:title="Container class for multiple&#45;domain 1D problems.">
<polygon fill="white" stroke="black" points="356.04,-315.5 356.04,-334.5 409.04,-334.5 409.04,-315.5 356.04,-315.5"/>
<text text-anchor="middle" x="382.54" y="-322.5" font-family="Helvetica,sans-Serif" font-size="10.00">OneDim</text>
</a>
</g>
</g>
<!-- Node4&#45;&gt;Node3 -->
<g id="edge3" class="edge">
<title>Node4&#45;&gt;Node3</title>
<path fill="none" stroke="#9a32cd" stroke-dasharray="5,2" d="M381.9,-305.24C381.27,-286.57 380.32,-258.74 379.84,-244.72"/>
<polygon fill="#9a32cd" stroke="#9a32cd" points="378.4,-305.37 382.24,-315.24 385.4,-305.13 378.4,-305.37"/>
<text text-anchor="middle" x="410.04" y="-278" font-family="Helvetica,sans-Serif" font-size="10.00"> m_container</text>
</g>
<!-- Node5 -->
<g id="node5" class="node">
<title>Node5</title>
<g id="a_node5"><a xlink:href="../../d2/d3f/classCantera_1_1Func1.html" target="_top" xlink:title="Base class for &#39;functor&#39; classes that evaluate a function of one variable.">
<polygon fill="white" stroke="black" points="360.54,-400 360.54,-419 404.54,-419 404.54,-400 360.54,-400"/>
<text text-anchor="middle" x="382.54" y="-407" font-family="Helvetica,sans-Serif" font-size="10.00">Func1</text>
</a>
</g>
</g>
<!-- Node5&#45;&gt;Node4 -->
<g id="edge4" class="edge">
<title>Node5&#45;&gt;Node4</title>
<path fill="none" stroke="#9a32cd" stroke-dasharray="5,2" d="M382.54,-389.93C382.54,-372.63 382.54,-347.61 382.54,-334.6"/>
<polygon fill="#9a32cd" stroke="#9a32cd" points="379.04,-389.98 382.54,-399.98 386.04,-389.98 379.04,-389.98"/>
<text text-anchor="middle" x="431.54" y="-367" font-family="Helvetica,sans-Serif" font-size="10.00"> m_interrupt</text>
<text text-anchor="middle" x="431.54" y="-356" font-family="Helvetica,sans-Serif" font-size="10.00">m_time_step_callback</text>
</g>
<!-- Node5&#45;&gt;Node5 -->
<g id="edge5" class="edge">
<title>Node5&#45;&gt;Node5</title>
<path fill="none" stroke="#9a32cd" stroke-dasharray="5,2" d="M414.95,-416.88C419.5,-415.68 422.54,-413.22 422.54,-409.5 422.54,-403.4 414.34,-400.68 404.75,-401.35"/>
<polygon fill="#9a32cd" stroke="#9a32cd" points="414.46,-413.41 404.75,-417.65 414.99,-420.39 414.46,-413.41"/>
<text text-anchor="middle" x="443.04" y="-418" font-family="Helvetica,sans-Serif" font-size="10.00"> m_f1</text>
<text text-anchor="middle" x="443.04" y="-407" font-family="Helvetica,sans-Serif" font-size="10.00">m_f2</text>
<text text-anchor="middle" x="443.04" y="-396" font-family="Helvetica,sans-Serif" font-size="10.00">m_parent</text>
</g>
<!-- Node6&#45;&gt;Node2 -->
<g id="edge7" class="edge">
<title>Node6&#45;&gt;Node2</title>
<path fill="none" stroke="#9a32cd" stroke-dasharray="5,2" d="M226.54,-125.22C226.54,-109.7 226.54,-88.36 226.54,-76.62"/>
<polygon fill="#9a32cd" stroke="#9a32cd" points="223.04,-125.28 226.54,-135.28 230.04,-125.28 223.04,-125.28"/>
<text text-anchor="middle" x="254.54" y="-109" font-family="Helvetica,sans-Serif" font-size="10.00"> m_flow_left</text>
<text text-anchor="middle" x="254.54" y="-98" font-family="Helvetica,sans-Serif" font-size="10.00">m_flow_right</text>
</g>
<!-- Node7 -->
<g id="node7" class="node">
<title>Node7</title>
<g id="a_node7"><a xlink:href="../../d1/dcf/classCantera_1_1Array2D.html" target="_top" xlink:title="A class for 2D arrays stored in column&#45;major (Fortran&#45;compatible) form.">
<polygon fill="white" stroke="black" points="206.04,-225.5 206.04,-244.5 259.04,-244.5 259.04,-225.5 206.04,-225.5"/>
<text text-anchor="middle" x="232.54" y="-232.5" font-family="Helvetica,sans-Serif" font-size="10.00">Array2D</text>
</a>
</g>
</g>
<!-- Node7&#45;&gt;Node6 -->
<g id="edge9" class="edge">
<title>Node7&#45;&gt;Node6</title>
<path fill="none" stroke="#9a32cd" stroke-dasharray="5,2" d="M228.79,-215.36C228.28,-212.25 227.84,-209.04 227.54,-206 225.77,-187.75 225.96,-166.23 226.26,-154.57"/>
<polygon fill="#9a32cd" stroke="#9a32cd" points="225.35,-216.02 230.6,-225.22 232.23,-214.75 225.35,-216.02"/>
<text text-anchor="middle" x="255.04" y="-198" font-family="Helvetica,sans-Serif" font-size="10.00"> m_dthermal</text>
<text text-anchor="middle" x="255.04" y="-187" font-family="Helvetica,sans-Serif" font-size="10.00">m_flux</text>
<text text-anchor="middle" x="255.04" y="-176" font-family="Helvetica,sans-Serif" font-size="10.00">m_wdot</text>
</g>
<!-- Node8 -->
<g id="node8" class="node">
<title>Node8</title>
<g id="a_node8"><a xlink:href="../../d7/dfa/classCantera_1_1IdealGasPhase.html" target="_top" xlink:title="Class IdealGasPhase represents low&#45;density gases that obey the ideal gas equation of state.">
<polygon fill="white" stroke="black" points="105.04,-225.5 105.04,-244.5 188.04,-244.5 188.04,-225.5 105.04,-225.5"/>
<text text-anchor="middle" x="146.54" y="-232.5" font-family="Helvetica,sans-Serif" font-size="10.00">IdealGasPhase</text>
</a>
</g>
</g>
<!-- Node8&#45;&gt;Node6 -->
<g id="edge10" class="edge">
<title>Node8&#45;&gt;Node6</title>
<path fill="none" stroke="#9a32cd" stroke-dasharray="5,2" d="M151.95,-215.25C156.51,-202.14 164.14,-184.91 175.54,-173 183.16,-165.04 193.65,-158.94 203.14,-154.56"/>
<polygon fill="#9a32cd" stroke="#9a32cd" points="148.52,-214.5 148.83,-225.09 155.19,-216.62 148.52,-214.5"/>
<text text-anchor="middle" x="199.04" y="-187" font-family="Helvetica,sans-Serif" font-size="10.00"> m_thermo</text>
</g>
<!-- Node9 -->
<g id="node9" class="node">
<title>Node9</title>
<g id="a_node9"><a xlink:href="../../dc/d38/classCantera_1_1ThermoPhase.html" target="_top" xlink:title="Base class for a phase with thermodynamic properties.">
<polygon fill="white" stroke="red" points="19.04,-315.5 19.04,-334.5 96.04,-334.5 96.04,-315.5 19.04,-315.5"/>
<text text-anchor="middle" x="57.54" y="-322.5" font-family="Helvetica,sans-Serif" font-size="10.00">ThermoPhase</text>
</a>
</g>
</g>
<!-- Node9&#45;&gt;Node2 -->
<g id="edge17" class="edge">
<title>Node9&#45;&gt;Node2</title>
<path fill="none" stroke="#9a32cd" stroke-dasharray="5,2" d="M43.55,-307.2C21.04,-278.04 -18,-216.93 9.54,-173 49.45,-109.35 140.08,-83.34 190.68,-73.47"/>
<polygon fill="#9a32cd" stroke="#9a32cd" points="40.93,-309.54 49.91,-315.18 46.41,-305.18 40.93,-309.54"/>
<text text-anchor="middle" x="41.54" y="-192.5" font-family="Helvetica,sans-Serif" font-size="10.00"> m_phase_left</text>
<text text-anchor="middle" x="41.54" y="-181.5" font-family="Helvetica,sans-Serif" font-size="10.00">m_phase_right</text>
</g>
<!-- Node9&#45;&gt;Node8 -->
<g id="edge11" class="edge">
<title>Node9&#45;&gt;Node8</title>
<path fill="none" stroke="midnightblue" d="M88.83,-310.77C95.79,-306.96 102.8,-302.35 108.54,-297 124.97,-281.69 137.08,-257.75 142.83,-244.89"/>
<polygon fill="midnightblue" stroke="midnightblue" points="86.85,-307.85 79.5,-315.48 90,-314.1 86.85,-307.85"/>
</g>
<!-- Node18 -->
<g id="node13" class="node">
<title>Node18</title>
<g id="a_node13"><a xlink:href="../../d2/dfb/classCantera_1_1Transport.html" target="_top" xlink:title="Base class for transport property managers.">
<polygon fill="white" stroke="black" points="28.54,-225.5 28.54,-244.5 86.54,-244.5 86.54,-225.5 28.54,-225.5"/>
<text text-anchor="middle" x="57.54" y="-232.5" font-family="Helvetica,sans-Serif" font-size="10.00">Transport</text>
</a>
</g>
</g>
<!-- Node9&#45;&gt;Node18 -->
<g id="edge16" class="edge">
<title>Node9&#45;&gt;Node18</title>
<path fill="none" stroke="#9a32cd" stroke-dasharray="5,2" d="M57.54,-304.98C57.54,-286.31 57.54,-258.67 57.54,-244.72"/>
<polygon fill="#9a32cd" stroke="#9a32cd" points="54.04,-305.24 57.54,-315.24 61.04,-305.24 54.04,-305.24"/>
<text text-anchor="middle" x="81.04" y="-278" font-family="Helvetica,sans-Serif" font-size="10.00"> m_thermo</text>
</g>
<!-- Node16 -->
<g id="node10" class="node">
<title>Node16</title>
<g id="a_node10"><a xlink:href="../../d4/dc4/classCantera_1_1Kinetics.html" target="_top" xlink:title="Public interface for kinetics managers.">
<polygon fill="white" stroke="black" points="277.54,-225.5 277.54,-244.5 329.54,-244.5 329.54,-225.5 277.54,-225.5"/>
<text text-anchor="middle" x="303.54" y="-232.5" font-family="Helvetica,sans-Serif" font-size="10.00">Kinetics</text>
</a>
</g>
</g>
<!-- Node16&#45;&gt;Node6 -->
<g id="edge12" class="edge">
<title>Node16&#45;&gt;Node6</title>
<path fill="none" stroke="#9a32cd" stroke-dasharray="5,2" d="M301.05,-215.61C298.43,-202.4 293.12,-184.9 282.54,-173 274.01,-163.4 261.31,-156.89 250.16,-152.67"/>
<polygon fill="#9a32cd" stroke="#9a32cd" points="297.6,-216.18 302.69,-225.48 304.51,-215.04 297.6,-216.18"/>
<text text-anchor="middle" x="314.54" y="-187" font-family="Helvetica,sans-Serif" font-size="10.00"> m_kin</text>
</g>
<!-- Node11 -->
<g id="node11" class="node">
<title>Node11</title>
<g id="a_node11"><a xlink:href="../../d8/d89/classCantera_1_1ValueCache.html" target="_top" xlink:title=" ">
<polygon fill="white" stroke="black" points="269.04,-315.5 269.04,-334.5 338.04,-334.5 338.04,-315.5 269.04,-315.5"/>
<text text-anchor="middle" x="303.54" y="-322.5" font-family="Helvetica,sans-Serif" font-size="10.00">ValueCache</text>
</a>
</g>
</g>
<!-- Node11&#45;&gt;Node16 -->
<g id="edge13" class="edge">
<title>Node11&#45;&gt;Node16</title>
<path fill="none" stroke="#9a32cd" stroke-dasharray="5,2" d="M303.54,-304.98C303.54,-286.31 303.54,-258.67 303.54,-244.72"/>
<polygon fill="#9a32cd" stroke="#9a32cd" points="300.04,-305.24 303.54,-315.24 307.04,-305.24 300.04,-305.24"/>
<text text-anchor="middle" x="325.04" y="-278" font-family="Helvetica,sans-Serif" font-size="10.00"> m_cache</text>
</g>
<!-- Node17 -->
<g id="node12" class="node">
<title>Node17</title>
<g id="a_node12"><a xlink:href="../../dc/d68/classCantera_1_1StoichManagerN.html" target="_top" xlink:title=" ">
<polygon fill="white" stroke="black" points="147.04,-315.5 147.04,-334.5 236.04,-334.5 236.04,-315.5 147.04,-315.5"/>
<text text-anchor="middle" x="191.54" y="-322.5" font-family="Helvetica,sans-Serif" font-size="10.00">StoichManagerN</text>
</a>
</g>
</g>
<!-- Node17&#45;&gt;Node16 -->
<g id="edge14" class="edge">
<title>Node17&#45;&gt;Node16</title>
<path fill="none" stroke="#9a32cd" stroke-dasharray="5,2" d="M192.97,-305.04C194.94,-291.86 199.59,-274.8 210.54,-264 213,-261.57 250.48,-250.76 277.1,-243.31"/>
<polygon fill="#9a32cd" stroke="#9a32cd" points="189.45,-305.04 191.84,-315.36 196.41,-305.8 189.45,-305.04"/>
<text text-anchor="middle" x="255.04" y="-289" font-family="Helvetica,sans-Serif" font-size="10.00"> m_productStoich</text>
<text text-anchor="middle" x="255.04" y="-278" font-family="Helvetica,sans-Serif" font-size="10.00">m_reactantStoich</text>
<text text-anchor="middle" x="255.04" y="-267" font-family="Helvetica,sans-Serif" font-size="10.00">m_revProductStoich</text>
</g>
<!-- Node18&#45;&gt;Node6 -->
<g id="edge15" class="edge">
<title>Node18&#45;&gt;Node6</title>
<path fill="none" stroke="#9a32cd" stroke-dasharray="5,2" d="M68.64,-217.17C78.72,-203.23 94.83,-183.99 113.54,-173 141.54,-156.55 179.02,-150.11 202.97,-147.6"/>
<polygon fill="#9a32cd" stroke="#9a32cd" points="65.74,-215.21 62.93,-225.42 71.5,-219.19 65.74,-215.21"/>
<text text-anchor="middle" x="133.04" y="-187" font-family="Helvetica,sans-Serif" font-size="10.00"> m_trans</text>
</g>
</g>
</svg>
