<?xml version="1.0" encoding="UTF-8" standalone="no"?>
<!DOCTYPE svg PUBLIC "-//W3C//DTD SVG 1.1//EN"
 "http://www.w3.org/Graphics/SVG/1.1/DTD/svg11.dtd">
<!-- Generated by graphviz version 2.50.0 (0)
 -->
<!-- Title: Gaussian Pages: 1 -->
<svg width="118pt" height="98pt"
 viewBox="0.00 0.00 118.00 98.00" xmlns="http://www.w3.org/2000/svg" xmlns:xlink="http://www.w3.org/1999/xlink">
<g id="graph0" class="graph" transform="scale(1 1) rotate(0) translate(4 94)">
<title>Gaussian</title>
<polygon fill="white" stroke="transparent" points="-4,4 -4,-94 114,-94 114,4 -4,4"/>
<!-- Node1 -->
<g id="node1" class="node">
<title>Node1</title>
<g id="a_node1"><a xlink:title="A Gaussian.">
<polygon fill="#bfbfbf" stroke="black" points="0,-0.5 0,-19.5 58,-19.5 58,-0.5 0,-0.5"/>
<text text-anchor="middle" x="29" y="-7.5" font-family="Helvetica,sans-Serif" font-size="10.00">Gaussian</text>
</a>
</g>
</g>
<!-- Node2 -->
<g id="node2" class="node">
<title>Node2</title>
<g id="a_node2"><a xlink:href="../../d2/d3f/classCantera_1_1Func1.html" target="_top" xlink:title="Base class for &#39;functor&#39; classes that evaluate a function of one variable.">
<polygon fill="white" stroke="black" points="7,-64 7,-83 51,-83 51,-64 7,-64"/>
<text text-anchor="middle" x="29" y="-71" font-family="Helvetica,sans-Serif" font-size="10.00">Func1</text>
</a>
</g>
</g>
<!-- Node2&#45;&gt;Node1 -->
<g id="edge1" class="edge">
<title>Node2&#45;&gt;Node1</title>
<path fill="none" stroke="midnightblue" d="M29,-53.82C29,-42.55 29,-28.72 29,-19.88"/>
<polygon fill="midnightblue" stroke="midnightblue" points="25.5,-53.95 29,-63.95 32.5,-53.95 25.5,-53.95"/>
</g>
<!-- Node2&#45;&gt;Node2 -->
<g id="edge2" class="edge">
<title>Node2&#45;&gt;Node2</title>
<path fill="none" stroke="#9a32cd" stroke-dasharray="5,2" d="M61.4,-79.21C65.95,-78.28 69,-76.37 69,-73.5 69,-68.79 60.8,-66.69 51.21,-67.2"/>
<polygon fill="#9a32cd" stroke="#9a32cd" points="60.99,-75.72 51.21,-79.8 61.4,-82.71 60.99,-75.72"/>
<text text-anchor="middle" x="89.5" y="-82" font-family="Helvetica,sans-Serif" font-size="10.00"> m_f1</text>
<text text-anchor="middle" x="89.5" y="-71" font-family="Helvetica,sans-Serif" font-size="10.00">m_f2</text>
<text text-anchor="middle" x="89.5" y="-60" font-family="Helvetica,sans-Serif" font-size="10.00">m_parent</text>
</g>
</g>
</svg>
