<?xml version="1.0" encoding="UTF-8" standalone="no"?>
<!DOCTYPE svg PUBLIC "-//W3C//DTD SVG 1.1//EN"
 "http://www.w3.org/Graphics/SVG/1.1/DTD/svg11.dtd">
<!-- Generated by graphviz version 2.43.0 (0)
 -->
<!-- Title: PureFluidPhase.cpp Pages: 1 -->
<!--zoomable 478 -->

<svg id="main" version="1.1" xmlns="http://www.w3.org/2000/svg" xmlns:xlink="http://www.w3.org/1999/xlink" xml:space="preserve" onload="init(evt)">
<style type="text/css"><![CDATA[
.node, .edge {opacity: 0.7;}
.node.selected, .edge.selected {opacity: 1;}
.edge:hover path { stroke: red; }
.edge:hover polygon { stroke: red; fill: red; }
]]></style>

<defs>
  <circle id="rim" cx="0" cy="0" r="7"/>
  <circle id="rim2" cx="0" cy="0" r="3.5"/>
  <g id="zoomPlus">
    <use xlink:href="#rim" fill="#404040"><set attributeName="fill" to="#808080" begin="zoomplus.mouseover" end="zoomplus.mouseout"/></use>
    <path d="M-4,0h8M0,-4v8" fill="none" stroke="white" stroke-width="1.5" pointer-events="none"/>
  </g>
  <g id="zoomMin">
    <use xlink:href="#rim" fill="#404040"><set attributeName="fill" to="#808080" begin="zoomminus.mouseover" end="zoomminus.mouseout"/></use>
    <path d="M-4,0h8" fill="none" stroke="white" stroke-width="1.5" pointer-events="none"/>
  </g>
  <g id="arrowUp" transform="translate(30 24)">
    <use xlink:href="#rim"/>
    <path pointer-events="none" fill="none" stroke="white" stroke-width="1.5" d="M0,-3.0v7 M-2.5,-0.5L0,-3.0L2.5,-0.5"/>
  </g>
  <g id="arrowRight" transform="rotate(90) translate(36 -43)">
    <use xlink:href="#rim"/>
    <path pointer-events="none" fill="none" stroke="white" stroke-width="1.5" d="M0,-3.0v7 M-2.5,-0.5L0,-3.0L2.5,-0.5"/>
  </g>
  <g id="arrowDown" transform="rotate(180) translate(-30 -48)">
    <use xlink:href="#rim"/>
    <path pointer-events="none" fill="none" stroke="white" stroke-width="1.5" d="M0,-3.0v7 M-2.5,-0.5L0,-3.0L2.5,-0.5"/>
  </g>
  <g id="arrowLeft" transform="rotate(270) translate(-36 17)">
    <use xlink:href="#rim"/>
    <path pointer-events="none" fill="none" stroke="white" stroke-width="1.5" d="M0,-3.0v7 M-2.5,-0.5L0,-3.0L2.5,-0.5"/>
  </g>
  <g id="resetDef">
    <use xlink:href="#rim2" fill="#404040"><set attributeName="fill" to="#808080" begin="reset.mouseover" end="reset.mouseout"/></use>
  </g>
</defs>
<script type="application/ecmascript">
var viewWidth = 856;
var viewHeight = 478;
var sectionId = 'dynsection-0';
</script>
<script type="application/ecmascript" xlink:href="../../svg.min.js"/>
<svg id="graph" class="graph">
<g id="viewport">
<title>PureFluidPhase.cpp</title>
<!-- Node1 -->
<g id="Node000001" class="node">
<title>Node1</title>
<g id="a_Node000001"><a xlink:title="Definitions for a ThermoPhase object for a pure fluid phase consisting of gas, liquid,...">
<polygon fill="#999999" stroke="#666666" points="695.5,-470 583.5,-470 583.5,-451 695.5,-451 695.5,-470"/>
<text text-anchor="middle" x="639.5" y="-458" font-family="Helvetica,sans-Serif" font-size="10.00">PureFluidPhase.cpp</text>
</a>
</g>
</g>
<!-- Node2 -->
<g id="Node000002" class="node">
<title>Node2</title>
<g id="a_Node000002"><a xlink:href="../../dd/d2d/PureFluidPhase_8h.html" target="_top" xlink:title="Header for a ThermoPhase class for a pure fluid phase consisting of gas, liquid, mixed&#45;gas&#45;liquid and...">
<polygon fill="white" stroke="#666666" points="487.5,-415 347.5,-415 347.5,-385 487.5,-385 487.5,-415"/>
<text text-anchor="start" x="355.5" y="-403" font-family="Helvetica,sans-Serif" font-size="10.00">cantera/thermo/PureFluid</text>
<text text-anchor="middle" x="417.5" y="-392" font-family="Helvetica,sans-Serif" font-size="10.00">Phase.h</text>
</a>
</g>
</g>
<!-- Node1&#45;&gt;Node2 -->
<g id="edge1_Node000001_Node000002" class="edge">
<title>Node1&#45;&gt;Node2</title>
<g id="a_edge1_Node000001_Node000002"><a xlink:title=" ">
<path fill="none" stroke="#63b8ff" d="M607.22,-450.99C574.15,-442.28 521.89,-428.51 480.58,-417.62"/>
<polygon fill="#63b8ff" stroke="#63b8ff" points="481.43,-414.23 470.87,-415.06 479.65,-421 481.43,-414.23"/>
</a>
</g>
</g>
<!-- Node33 -->
<g id="Node000033" class="node">
<title>Node33</title>
<g id="a_Node000033"><a xlink:href="../../d5/d68/Sub_8h.html" target="_top" xlink:title=" ">
<polygon fill="white" stroke="#666666" points="629.5,-349 527.5,-349 527.5,-330 629.5,-330 629.5,-349"/>
<text text-anchor="middle" x="578.5" y="-337" font-family="Helvetica,sans-Serif" font-size="10.00">cantera/tpx/Sub.h</text>
</a>
</g>
</g>
<!-- Node1&#45;&gt;Node33 -->
<g id="edge25_Node000001_Node000033" class="edge">
<title>Node1&#45;&gt;Node33</title>
<g id="a_edge25_Node000001_Node000033"><a xlink:title=" ">
<path fill="none" stroke="#63b8ff" d="M638.7,-450.71C637.08,-436.22 632.47,-406.75 620.5,-385 614.52,-374.14 605.27,-363.93 596.96,-356.04"/>
<polygon fill="#63b8ff" stroke="#63b8ff" points="599.2,-353.34 589.43,-349.24 594.51,-358.54 599.2,-353.34"/>
</a>
</g>
</g>
<!-- Node34 -->
<g id="Node000034" class="node">
<title>Node34</title>
<g id="a_Node000034"><a xlink:href="../../d5/d60/utils_8h.html" target="_top" xlink:title=" ">
<polygon fill="white" stroke="#666666" points="611,-409.5 506,-409.5 506,-390.5 611,-390.5 611,-409.5"/>
<text text-anchor="middle" x="558.5" y="-397.5" font-family="Helvetica,sans-Serif" font-size="10.00">cantera/tpx/utils.h</text>
</a>
</g>
</g>
<!-- Node1&#45;&gt;Node34 -->
<g id="edge26_Node000001_Node000034" class="edge">
<title>Node1&#45;&gt;Node34</title>
<g id="a_edge26_Node000001_Node000034"><a xlink:title=" ">
<path fill="none" stroke="#63b8ff" d="M627.55,-450.87C614.75,-441.62 594.2,-426.78 578.85,-415.69"/>
<polygon fill="#63b8ff" stroke="#63b8ff" points="580.66,-412.68 570.5,-409.67 576.56,-418.36 580.66,-412.68"/>
</a>
</g>
</g>
<!-- Node35 -->
<g id="Node000035" class="node">
<title>Node35</title>
<g id="a_Node000035"><a xlink:href="../../dd/dc3/stringUtils_8h.html" target="_top" xlink:title="Contains declarations for string manipulation functions within Cantera.">
<polygon fill="white" stroke="#666666" points="847.5,-294 705.5,-294 705.5,-275 847.5,-275 847.5,-294"/>
<text text-anchor="middle" x="776.5" y="-282" font-family="Helvetica,sans-Serif" font-size="10.00">cantera/base/stringUtils.h</text>
</a>
</g>
</g>
<!-- Node1&#45;&gt;Node35 -->
<g id="edge28_Node000001_Node000035" class="edge">
<title>Node1&#45;&gt;Node35</title>
<g id="a_edge28_Node000001_Node000035"><a xlink:title=" ">
<path fill="none" stroke="#63b8ff" d="M651.5,-450.8C662.62,-442.39 679.25,-428.91 691.5,-415 723.5,-378.65 752.55,-329.35 766.95,-303.32"/>
<polygon fill="#63b8ff" stroke="#63b8ff" points="770.18,-304.72 771.89,-294.26 764.03,-301.37 770.18,-304.72"/>
</a>
</g>
</g>
<!-- Node36 -->
<g id="Node000036" class="node">
<title>Node36</title>
<g id="a_Node000036"><a xlink:href="../../d2/d49/global_8h.html" target="_top" xlink:title="This file contains definitions for utility functions and text for modules, inputfiles and logging,...">
<polygon fill="white" stroke="#666666" points="741.5,-129 619.5,-129 619.5,-110 741.5,-110 741.5,-129"/>
<text text-anchor="middle" x="680.5" y="-117" font-family="Helvetica,sans-Serif" font-size="10.00">cantera/base/global.h</text>
</a>
</g>
</g>
<!-- Node1&#45;&gt;Node36 -->
<g id="edge30_Node000001_Node000036" class="edge">
<title>Node1&#45;&gt;Node36</title>
<g id="a_edge30_Node000001_Node000036"><a xlink:title=" ">
<path fill="none" stroke="#63b8ff" d="M644.31,-450.85C654.54,-431.63 677.5,-383.66 677.5,-340.5 677.5,-340.5 677.5,-340.5 677.5,-228.5 677.5,-197.18 678.78,-160.77 679.66,-139.23"/>
<polygon fill="#63b8ff" stroke="#63b8ff" points="683.16,-139.32 680.1,-129.18 676.17,-139.02 683.16,-139.32"/>
</a>
</g>
</g>
<!-- Node3 -->
<g id="Node000003" class="node">
<title>Node3</title>
<g id="a_Node000003"><a xlink:href="../../d7/d01/ThermoPhase_8h.html" target="_top" xlink:title="Header file for class ThermoPhase, the base class for phases with thermodynamic properties,...">
<polygon fill="white" stroke="#666666" points="428.5,-349 336.5,-349 336.5,-330 428.5,-330 428.5,-349"/>
<text text-anchor="middle" x="382.5" y="-337" font-family="Helvetica,sans-Serif" font-size="10.00">ThermoPhase.h</text>
</a>
</g>
</g>
<!-- Node2&#45;&gt;Node3 -->
<g id="edge2_Node000002_Node000003" class="edge">
<title>Node2&#45;&gt;Node3</title>
<g id="a_edge2_Node000002_Node000003"><a xlink:title=" ">
<path fill="none" stroke="#63b8ff" d="M409.03,-384.84C404.21,-376.78 398.13,-366.62 393,-358.06"/>
<polygon fill="#63b8ff" stroke="#63b8ff" points="395.88,-356.05 387.74,-349.27 389.88,-359.64 395.88,-356.05"/>
</a>
</g>
</g>
<!-- Node2&#45;&gt;Node33 -->
<g id="edge23_Node000002_Node000033" class="edge">
<title>Node2&#45;&gt;Node33</title>
<g id="a_edge23_Node000002_Node000033"><a xlink:title=" ">
<path fill="none" stroke="#63b8ff" d="M456.06,-384.99C483.29,-375.1 519.38,-361.98 545.32,-352.56"/>
<polygon fill="#63b8ff" stroke="#63b8ff" points="546.52,-355.84 554.72,-349.14 544.13,-349.26 546.52,-355.84"/>
</a>
</g>
</g>
<!-- Node4 -->
<g id="Node000004" class="node">
<title>Node4</title>
<g id="a_Node000004"><a xlink:href="../../da/d84/Phase_8h.html" target="_top" xlink:title="Header file for class Phase.">
<polygon fill="white" stroke="#666666" points="251,-184 196,-184 196,-165 251,-165 251,-184"/>
<text text-anchor="middle" x="223.5" y="-172" font-family="Helvetica,sans-Serif" font-size="10.00">Phase.h</text>
</a>
</g>
</g>
<!-- Node3&#45;&gt;Node4 -->
<g id="edge3_Node000003_Node000004" class="edge">
<title>Node3&#45;&gt;Node4</title>
<g id="a_edge3_Node000003_Node000004"><a xlink:title=" ">
<path fill="none" stroke="#63b8ff" d="M347.3,-329.9C325.81,-323.15 299,-311.83 280.5,-294 251.29,-265.85 235.17,-219.68 228.04,-194.07"/>
<polygon fill="#63b8ff" stroke="#63b8ff" points="231.37,-192.97 225.45,-184.18 224.59,-194.74 231.37,-192.97"/>
</a>
</g>
</g>
<!-- Node25 -->
<g id="Node000025" class="node">
<title>Node25</title>
<g id="a_Node000025"><a xlink:href="../../d6/d7a/MultiSpeciesThermo_8h.html" target="_top" xlink:title="Header for a general species thermodynamic property manager for a phase (see MultiSpeciesThermo).">
<polygon fill="white" stroke="#666666" points="543,-294 418,-294 418,-275 543,-275 543,-294"/>
<text text-anchor="middle" x="480.5" y="-282" font-family="Helvetica,sans-Serif" font-size="10.00">MultiSpeciesThermo.h</text>
</a>
</g>
</g>
<!-- Node3&#45;&gt;Node25 -->
<g id="edge12_Node000003_Node000025" class="edge">
<title>Node3&#45;&gt;Node25</title>
<g id="a_edge12_Node000003_Node000025"><a xlink:title=" ">
<path fill="none" stroke="#63b8ff" d="M398.25,-329.98C413.73,-321.61 437.59,-308.7 455.64,-298.95"/>
<polygon fill="#63b8ff" stroke="#63b8ff" points="457.34,-302.01 464.47,-294.17 454.01,-295.85 457.34,-302.01"/>
</a>
</g>
</g>
<!-- Node27 -->
<g id="Node000027" class="node">
<title>Node27</title>
<g id="a_Node000027"><a xlink:href="../../dd/d2a/AnyMap_8h.html" target="_top" xlink:title=" ">
<polygon fill="#fff0f0" stroke="red" points="454,-184 323,-184 323,-165 454,-165 454,-184"/>
<text text-anchor="middle" x="388.5" y="-172" font-family="Helvetica,sans-Serif" font-size="10.00">cantera/base/AnyMap.h</text>
</a>
</g>
</g>
<!-- Node3&#45;&gt;Node27 -->
<g id="edge22_Node000003_Node000027" class="edge">
<title>Node3&#45;&gt;Node27</title>
<g id="a_edge22_Node000003_Node000027"><a xlink:title=" ">
<path fill="none" stroke="#63b8ff" d="M382.82,-329.74C383.76,-304.31 386.49,-230.08 387.79,-194.69"/>
<polygon fill="#63b8ff" stroke="#63b8ff" points="391.31,-194.43 388.18,-184.31 384.31,-194.17 391.31,-194.43"/>
</a>
</g>
</g>
<!-- Node28 -->
<g id="Node000028" class="node">
<title>Node28</title>
<g id="a_Node000028"><a xlink:href="../../da/d58/Units_8h.html" target="_top" xlink:title="Header for unit conversion utilities, which are used to translate user input from input files (See In...">
<polygon fill="white" stroke="#666666" points="353,-129 236,-129 236,-110 353,-110 353,-129"/>
<text text-anchor="middle" x="294.5" y="-117" font-family="Helvetica,sans-Serif" font-size="10.00">cantera/base/Units.h</text>
</a>
</g>
</g>
<!-- Node3&#45;&gt;Node28 -->
<g id="edge21_Node000003_Node000028" class="edge">
<title>Node3&#45;&gt;Node28</title>
<g id="a_edge21_Node000003_Node000028"><a xlink:title=" ">
<path fill="none" stroke="#63b8ff" d="M378.21,-329.95C366.71,-306.84 334.66,-241.01 313.5,-184 307.99,-169.15 302.91,-151.91 299.39,-139.14"/>
<polygon fill="#63b8ff" stroke="#63b8ff" points="302.71,-137.99 296.73,-129.24 295.95,-139.81 302.71,-137.99"/>
</a>
</g>
</g>
<!-- Node5 -->
<g id="Node000005" class="node">
<title>Node5</title>
<g id="a_Node000005"><a xlink:href="../../db/d98/ctexceptions_8h.html" target="_top" xlink:title="Definitions for the classes that are thrown when Cantera experiences an error condition (also contain...">
<polygon fill="#fff0f0" stroke="red" points="563.5,-129 409.5,-129 409.5,-110 563.5,-110 563.5,-129"/>
<text text-anchor="middle" x="486.5" y="-117" font-family="Helvetica,sans-Serif" font-size="10.00">cantera/base/ctexceptions.h</text>
</a>
</g>
</g>
<!-- Node4&#45;&gt;Node5 -->
<g id="edge4_Node000004_Node000005" class="edge">
<title>Node4&#45;&gt;Node5</title>
<g id="a_edge4_Node000004_Node000005"><a xlink:title=" ">
<path fill="none" stroke="#63b8ff" d="M251.15,-167.93C294.48,-159.2 379.11,-142.14 434.2,-131.04"/>
<polygon fill="#63b8ff" stroke="#63b8ff" points="435.01,-134.45 444.12,-129.04 433.63,-127.58 435.01,-134.45"/>
</a>
</g>
</g>
<!-- Node22 -->
<g id="Node000022" class="node">
<title>Node22</title>
<g id="a_Node000022"><a xlink:href="../../d9/dda/Elements_8h.html" target="_top" xlink:title="Contains the getElementWeight function and the definitions of element constraint types.">
<polygon fill="white" stroke="#666666" points="316,-74 167,-74 167,-55 316,-55 316,-74"/>
<text text-anchor="middle" x="241.5" y="-62" font-family="Helvetica,sans-Serif" font-size="10.00">cantera/thermo/Elements.h</text>
</a>
</g>
</g>
<!-- Node4&#45;&gt;Node22 -->
<g id="edge8_Node000004_Node000022" class="edge">
<title>Node4&#45;&gt;Node22</title>
<g id="a_edge8_Node000004_Node000022"><a xlink:title=" ">
<path fill="none" stroke="#63b8ff" d="M223.15,-164.78C222.83,-152.46 222.86,-129.31 226.5,-110 228.18,-101.09 231.23,-91.52 234.15,-83.54"/>
<polygon fill="#63b8ff" stroke="#63b8ff" points="237.43,-84.76 237.77,-74.17 230.9,-82.24 237.43,-84.76"/>
</a>
</g>
</g>
<!-- Node23 -->
<g id="Node000023" class="node">
<title>Node23</title>
<g id="a_Node000023"><a xlink:href="../../d6/df6/ValueCache_8h.html" target="_top" xlink:title=" ">
<polygon fill="#fff0f0" stroke="red" points="149,-74 0,-74 0,-55 149,-55 149,-74"/>
<text text-anchor="middle" x="74.5" y="-62" font-family="Helvetica,sans-Serif" font-size="10.00">cantera/base/ValueCache.h</text>
</a>
</g>
</g>
<!-- Node4&#45;&gt;Node23 -->
<g id="edge10_Node000004_Node000023" class="edge">
<title>Node4&#45;&gt;Node23</title>
<g id="a_edge10_Node000004_Node000023"><a xlink:title=" ">
<path fill="none" stroke="#63b8ff" d="M211.56,-164.84C186.17,-146.44 126.56,-103.23 94.97,-80.34"/>
<polygon fill="#63b8ff" stroke="#63b8ff" points="96.65,-77.23 86.5,-74.2 92.54,-82.9 96.65,-77.23"/>
</a>
</g>
</g>
<!-- Node6 -->
<g id="Node000006" class="node">
<title>Node6</title>
<g id="a_Node000006"><a xlink:href="../../d9/ddc/ct__defs_8h.html" target="_top" xlink:title="This file contains definitions of constants, types and terms that are used in internal routines and a...">
<polygon fill="#fff0f0" stroke="red" points="517,-19 456,-19 456,0 517,0 517,-19"/>
<text text-anchor="middle" x="486.5" y="-7" font-family="Helvetica,sans-Serif" font-size="10.00">ct_defs.h</text>
</a>
</g>
</g>
<!-- Node5&#45;&gt;Node6 -->
<g id="edge5_Node000005_Node000006" class="edge">
<title>Node5&#45;&gt;Node6</title>
<g id="a_edge5_Node000005_Node000006"><a xlink:title=" ">
<path fill="none" stroke="#63b8ff" d="M486.5,-109.66C486.5,-92.17 486.5,-52.8 486.5,-29.27"/>
<polygon fill="#63b8ff" stroke="#63b8ff" points="490,-29.16 486.5,-19.16 483,-29.16 490,-29.16"/>
</a>
</g>
</g>
<!-- Node17 -->
<g id="Node000017" class="node">
<title>Node17</title>
<g id="a_Node000017"><a xlink:href="../../db/def/fmt_8h.html" target="_top" xlink:title="Wrapper for either system&#45;installed or local headers for fmt.">
<polygon fill="#fff0f0" stroke="red" points="684,-74 575,-74 575,-55 684,-55 684,-74"/>
<text text-anchor="middle" x="629.5" y="-62" font-family="Helvetica,sans-Serif" font-size="10.00">cantera/base/fmt.h</text>
</a>
</g>
</g>
<!-- Node5&#45;&gt;Node17 -->
<g id="edge6_Node000005_Node000017" class="edge">
<title>Node5&#45;&gt;Node17</title>
<g id="a_edge6_Node000005_Node000017"><a xlink:title=" ">
<path fill="none" stroke="#63b8ff" d="M509.48,-109.98C533,-101.27 569.79,-87.63 596.44,-77.75"/>
<polygon fill="#63b8ff" stroke="#63b8ff" points="597.95,-80.93 606.11,-74.17 595.51,-74.36 597.95,-80.93"/>
</a>
</g>
</g>
<!-- Node17&#45;&gt;Node6 -->
<g id="edge7_Node000017_Node000006" class="edge">
<title>Node17&#45;&gt;Node6</title>
<g id="a_edge7_Node000017_Node000006"><a xlink:title=" ">
<path fill="none" stroke="#63b8ff" d="M606.52,-54.98C583,-46.27 546.21,-32.63 519.56,-22.75"/>
<polygon fill="#63b8ff" stroke="#63b8ff" points="520.49,-19.36 509.89,-19.17 518.05,-25.93 520.49,-19.36"/>
</a>
</g>
</g>
<!-- Node22&#45;&gt;Node6 -->
<g id="edge9_Node000022_Node000006" class="edge">
<title>Node22&#45;&gt;Node6</title>
<g id="a_edge9_Node000022_Node000006"><a xlink:title=" ">
<path fill="none" stroke="#63b8ff" d="M280.86,-54.98C326.14,-45.19 400.09,-29.19 445.88,-19.29"/>
<polygon fill="#63b8ff" stroke="#63b8ff" points="446.73,-22.68 455.77,-17.15 445.25,-15.84 446.73,-22.68"/>
</a>
</g>
</g>
<!-- Node23&#45;&gt;Node6 -->
<g id="edge11_Node000023_Node000006" class="edge">
<title>Node23&#45;&gt;Node6</title>
<g id="a_edge11_Node000023_Node000006"><a xlink:title=" ">
<path fill="none" stroke="#63b8ff" d="M140.69,-54.98C226.87,-43.9 374.86,-24.86 446,-15.71"/>
<polygon fill="#63b8ff" stroke="#63b8ff" points="446.45,-19.18 455.92,-14.43 445.55,-12.24 446.45,-19.18"/>
</a>
</g>
</g>
<!-- Node26 -->
<g id="Node000026" class="node">
<title>Node26</title>
<g id="a_Node000026"><a xlink:href="../../d4/d87/SpeciesThermoInterpType_8h.html" target="_top" xlink:title="Pure Virtual Base class for individual species reference state thermodynamic managers and text for th...">
<polygon fill="white" stroke="#666666" points="562.5,-239 410.5,-239 410.5,-220 562.5,-220 562.5,-239"/>
<text text-anchor="middle" x="486.5" y="-227" font-family="Helvetica,sans-Serif" font-size="10.00">SpeciesThermoInterpType.h</text>
</a>
</g>
</g>
<!-- Node25&#45;&gt;Node26 -->
<g id="edge13_Node000025_Node000026" class="edge">
<title>Node25&#45;&gt;Node26</title>
<g id="a_edge13_Node000025_Node000026"><a xlink:title=" ">
<path fill="none" stroke="#63b8ff" d="M481.49,-274.75C482.28,-267.8 483.4,-257.85 484.39,-249.13"/>
<polygon fill="#63b8ff" stroke="#63b8ff" points="487.88,-249.42 485.53,-239.09 480.92,-248.63 487.88,-249.42"/>
</a>
</g>
</g>
<!-- Node26&#45;&gt;Node5 -->
<g id="edge15_Node000026_Node000005" class="edge">
<title>Node26&#45;&gt;Node5</title>
<g id="a_edge15_Node000026_Node000005"><a xlink:title=" ">
<path fill="none" stroke="#63b8ff" d="M486.5,-219.66C486.5,-202.17 486.5,-162.8 486.5,-139.27"/>
<polygon fill="#63b8ff" stroke="#63b8ff" points="490,-139.16 486.5,-129.16 483,-139.16 490,-139.16"/>
</a>
</g>
</g>
<!-- Node26&#45;&gt;Node6 -->
<g id="edge14_Node000026_Node000006" class="edge">
<title>Node26&#45;&gt;Node6</title>
<g id="a_edge14_Node000026_Node000006"><a xlink:title=" ">
<path fill="none" stroke="#63b8ff" d="M498,-219.93C517.74,-204.4 557.44,-169.44 572.5,-129 588.4,-86.29 539.84,-45.27 509.32,-24.53"/>
<polygon fill="#63b8ff" stroke="#63b8ff" points="511.16,-21.56 500.88,-19 507.32,-27.41 511.16,-21.56"/>
</a>
</g>
</g>
<!-- Node26&#45;&gt;Node27 -->
<g id="edge16_Node000026_Node000027" class="edge">
<title>Node26&#45;&gt;Node27</title>
<g id="a_edge16_Node000026_Node000027"><a xlink:title=" ">
<path fill="none" stroke="#63b8ff" d="M470.75,-219.98C455.27,-211.61 431.41,-198.7 413.36,-188.95"/>
<polygon fill="#63b8ff" stroke="#63b8ff" points="414.99,-185.85 404.53,-184.17 411.66,-192.01 414.99,-185.85"/>
</a>
</g>
</g>
<!-- Node27&#45;&gt;Node5 -->
<g id="edge18_Node000027_Node000005" class="edge">
<title>Node27&#45;&gt;Node5</title>
<g id="a_edge18_Node000027_Node000005"><a xlink:title=" ">
<path fill="none" stroke="#63b8ff" d="M404.25,-164.98C419.73,-156.61 443.59,-143.7 461.64,-133.95"/>
<polygon fill="#63b8ff" stroke="#63b8ff" points="463.34,-137.01 470.47,-129.17 460.01,-130.85 463.34,-137.01"/>
</a>
</g>
</g>
<!-- Node27&#45;&gt;Node6 -->
<g id="edge17_Node000027_Node000006" class="edge">
<title>Node27&#45;&gt;Node6</title>
<g id="a_edge17_Node000027_Node000006"><a xlink:title=" ">
<path fill="none" stroke="#63b8ff" d="M388.72,-164.84C389.35,-152.19 391.72,-128.19 400.5,-110 417.08,-75.66 448.62,-43.78 468.55,-25.77"/>
<polygon fill="#63b8ff" stroke="#63b8ff" points="470.88,-28.38 476.06,-19.14 466.25,-23.13 470.88,-28.38"/>
</a>
</g>
</g>
<!-- Node27&#45;&gt;Node28 -->
<g id="edge19_Node000027_Node000028" class="edge">
<title>Node27&#45;&gt;Node28</title>
<g id="a_edge19_Node000027_Node000028"><a xlink:title=" ">
<path fill="none" stroke="#63b8ff" d="M373.4,-164.98C358.68,-156.69 336.08,-143.94 318.83,-134.22"/>
<polygon fill="#63b8ff" stroke="#63b8ff" points="320.31,-131.03 309.88,-129.17 316.87,-137.13 320.31,-131.03"/>
</a>
</g>
</g>
<!-- Node28&#45;&gt;Node6 -->
<g id="edge20_Node000028_Node000006" class="edge">
<title>Node28&#45;&gt;Node6</title>
<g id="a_edge20_Node000028_Node000006"><a xlink:title=" ">
<path fill="none" stroke="#63b8ff" d="M302.69,-109.57C315.42,-96.13 341.23,-70.64 367.5,-55 392.05,-40.39 422.21,-29.17 446.03,-21.66"/>
<polygon fill="#63b8ff" stroke="#63b8ff" points="447.27,-24.94 455.81,-18.66 445.22,-18.24 447.27,-24.94"/>
</a>
</g>
</g>
<!-- Node33&#45;&gt;Node5 -->
<g id="edge24_Node000033_Node000005" class="edge">
<title>Node33&#45;&gt;Node5</title>
<g id="a_edge24_Node000033_Node000005"><a xlink:title=" ">
<path fill="none" stroke="#63b8ff" d="M579.81,-329.76C582.47,-309.56 586.98,-258.42 571.5,-220 557.4,-184.99 525.81,-153.52 505.36,-135.74"/>
<polygon fill="#63b8ff" stroke="#63b8ff" points="507.52,-132.98 497.62,-129.19 503,-138.32 507.52,-132.98"/>
</a>
</g>
</g>
<!-- Node34&#45;&gt;Node33 -->
<g id="edge27_Node000034_Node000033" class="edge">
<title>Node34&#45;&gt;Node33</title>
<g id="a_edge27_Node000034_Node000033"><a xlink:title=" ">
<path fill="none" stroke="#63b8ff" d="M561.45,-390.37C564.29,-382.07 568.66,-369.28 572.27,-358.72"/>
<polygon fill="#63b8ff" stroke="#63b8ff" points="575.61,-359.76 575.54,-349.17 568.99,-357.5 575.61,-359.76"/>
</a>
</g>
</g>
<!-- Node35&#45;&gt;Node6 -->
<g id="edge29_Node000035_Node000006" class="edge">
<title>Node35&#45;&gt;Node6</title>
<g id="a_edge29_Node000035_Node000006"><a xlink:title=" ">
<path fill="none" stroke="#63b8ff" d="M775.83,-274.83C774.46,-256.5 771.5,-212.48 771.5,-175.5 771.5,-175.5 771.5,-175.5 771.5,-118.5 771.5,-79.06 744.17,-73.81 709.5,-55 651.43,-23.49 573.99,-14.16 527.32,-11.48"/>
<polygon fill="#63b8ff" stroke="#63b8ff" points="527.44,-7.98 517.28,-10.98 527.09,-14.97 527.44,-7.98"/>
</a>
</g>
</g>
<!-- Node36&#45;&gt;Node6 -->
<g id="edge31_Node000036_Node000006" class="edge">
<title>Node36&#45;&gt;Node6</title>
<g id="a_edge31_Node000036_Node000006"><a xlink:title=" ">
<path fill="none" stroke="#63b8ff" d="M686.36,-109.64C694.37,-96.31 706.37,-70.93 693.5,-55 672.99,-29.62 581.35,-18.04 527.12,-13.32"/>
<polygon fill="#63b8ff" stroke="#63b8ff" points="527.38,-9.83 517.13,-12.5 526.81,-16.81 527.38,-9.83"/>
</a>
</g>
</g>
<!-- Node36&#45;&gt;Node17 -->
<g id="edge32_Node000036_Node000017" class="edge">
<title>Node36&#45;&gt;Node17</title>
<g id="a_edge32_Node000036_Node000017"><a xlink:title=" ">
<path fill="none" stroke="#63b8ff" d="M672.08,-109.75C664.73,-102.11 653.87,-90.82 644.96,-81.56"/>
<polygon fill="#63b8ff" stroke="#63b8ff" points="647.22,-78.87 637.76,-74.09 642.18,-83.72 647.22,-78.87"/>
</a>
</g>
</g>
</g>
</svg>

<g id="navigator" transform="translate(0 0)" fill="#404254">
  <rect fill="#f2f5e9" fill-opacity="0.5" stroke="#606060" stroke-width=".5" x="0" y="0" width="60" height="60"/>
  <use id="zoomplus" xlink:href="#zoomPlus" x="17" y="9" onmousedown="handleZoom(evt,'in')"/>
  <use id="zoomminus" xlink:href="#zoomMin" x="42" y="9" onmousedown="handleZoom(evt,'out')"/>
  <use id="reset" xlink:href="#resetDef" x="30" y="36" onmousedown="handleReset()"/>
   <use id="arrowup" xlink:href="#arrowUp" x="0" y="0" onmousedown="handlePan(0,-1)"/>
  <use id="arrowright" xlink:href="#arrowRight" x="0" y="0" onmousedown="handlePan(1,0)"/>
  <use id="arrowdown" xlink:href="#arrowDown" x="0" y="0" onmousedown="handlePan(0,1)"/>
  <use id="arrowleft" xlink:href="#arrowLeft" x="0" y="0" onmousedown="handlePan(-1,0)"/>
</g>
<svg viewBox="0 0 15 15" width="100%" height="30px" preserveAspectRatio="xMaxYMin meet">
 <g id="arrow_out" transform="scale(0.3 0.3)">
  <a xlink:href="PureFluidPhase_8cpp__incl_org.svg" target="_base">
   <rect id="button" ry="5" rx="5" y="6" x="6" height="38" width="38"
        fill="#f2f5e9" fill-opacity="0.5" stroke="#606060" stroke-width="1.0"/>
   <path id="arrow"
     d="M 11.500037,31.436501 C 11.940474,20.09759 22.043105,11.32322 32.158766,21.979434 L 37.068811,17.246167 C 37.068811,17.246167 37.088388,32 37.088388,32 L 22.160133,31.978069 C 22.160133,31.978069 26.997745,27.140456 26.997745,27.140456 C 18.528582,18.264221 13.291696,25.230495 11.500037,31.436501 z"
     style="fill:#404040;"/>
  </a>
 </g>
</svg>

<style type='text/css'>
<![CDATA[
[data-mouse-over-selected='false'] { opacity: 0.7; }
[data-mouse-over-selected='true']  { opacity: 1.0; }
]]>
</style>
<script type="application/ecmascript"><![CDATA[
document.addEventListener('DOMContentLoaded', (event) => {
  highlightEdges();
  highlightAdjacentNodes();
});
]]></script>
</svg>
