<?xml version="1.0" encoding="UTF-8" standalone="no"?>
<!DOCTYPE svg PUBLIC "-//W3C//DTD SVG 1.1//EN"
 "http://www.w3.org/Graphics/SVG/1.1/DTD/svg11.dtd">
<!-- Generated by graphviz version 2.50.0 (0)
 -->
<!-- Title: CVodesIntegrator.h Pages: 1 -->
<svg width="541pt" height="375pt"
 viewBox="0.00 0.00 541.00 375.00" xmlns="http://www.w3.org/2000/svg" xmlns:xlink="http://www.w3.org/1999/xlink">
<g id="graph0" class="graph" transform="scale(1 1) rotate(0) translate(4 371)">
<title>CVodesIntegrator.h</title>
<polygon fill="white" stroke="transparent" points="-4,4 -4,-371 537,-371 537,4 -4,4"/>
<!-- Node1 -->
<g id="node1" class="node">
<title>Node1</title>
<g id="a_node1"><a xlink:title=" ">
<polygon fill="#bfbfbf" stroke="black" points="201.5,-347.5 201.5,-366.5 302.5,-366.5 302.5,-347.5 201.5,-347.5"/>
<text text-anchor="middle" x="252" y="-354.5" font-family="Helvetica,sans-Serif" font-size="10.00">CVodesIntegrator.h</text>
</a>
</g>
</g>
<!-- Node2 -->
<g id="node2" class="node">
<title>Node2</title>
<g id="a_node2"><a xlink:href="../../d8/d97/Integrator_8h.html" target="_top" xlink:title=" ">
<polygon fill="white" stroke="black" points="130.5,-291.5 130.5,-310.5 273.5,-310.5 273.5,-291.5 130.5,-291.5"/>
<text text-anchor="middle" x="202" y="-298.5" font-family="Helvetica,sans-Serif" font-size="10.00">cantera/numerics/Integrator.h</text>
</a>
</g>
</g>
<!-- Node1&#45;&gt;Node2 -->
<g id="edge1" class="edge">
<title>Node1&#45;&gt;Node2</title>
<path fill="none" stroke="midnightblue" d="M243.74,-347.08C236.54,-339.3 225.89,-327.8 217.15,-318.37"/>
<polygon fill="midnightblue" stroke="midnightblue" points="219.47,-315.71 210.1,-310.75 214.33,-320.47 219.47,-315.71"/>
</g>
<!-- Node13 -->
<g id="node13" class="node">
<title>Node13</title>
<g id="a_node13"><a xlink:href="../../db/d98/ctexceptions_8h.html" target="_top" xlink:title="Definitions for the classes that are thrown when Cantera experiences an error condition (also contain...">
<polygon fill="white" stroke="black" points="0,-168.5 0,-187.5 140,-187.5 140,-168.5 0,-168.5"/>
<text text-anchor="middle" x="70" y="-175.5" font-family="Helvetica,sans-Serif" font-size="10.00">cantera/base/ctexceptions.h</text>
</a>
</g>
</g>
<!-- Node1&#45;&gt;Node13 -->
<g id="edge22" class="edge">
<title>Node1&#45;&gt;Node13</title>
<path fill="none" stroke="midnightblue" d="M201.21,-349.09C174.39,-343.07 142.65,-331.85 121,-311 88.8,-280 76.61,-226.39 72.25,-197.97"/>
<polygon fill="midnightblue" stroke="midnightblue" points="75.68,-197.22 70.86,-187.78 68.75,-198.16 75.68,-197.22"/>
</g>
<!-- Node19 -->
<g id="node17" class="node">
<title>Node19</title>
<g id="a_node17"><a xlink:href="../../d4/ddd/SundialsContext_8h.html" target="_top" xlink:title=" ">
<polygon fill="white" stroke="black" points="286,-224.5 286,-254.5 418,-254.5 418,-224.5 286,-224.5"/>
<text text-anchor="start" x="294" y="-242.5" font-family="Helvetica,sans-Serif" font-size="10.00">cantera/numerics/Sundials</text>
<text text-anchor="middle" x="352" y="-231.5" font-family="Helvetica,sans-Serif" font-size="10.00">Context.h</text>
</a>
</g>
</g>
<!-- Node1&#45;&gt;Node19 -->
<g id="edge20" class="edge">
<title>Node1&#45;&gt;Node19</title>
<path fill="none" stroke="midnightblue" d="M259.52,-347.32C275.01,-329.42 310.9,-287.97 333.14,-262.28"/>
<polygon fill="midnightblue" stroke="midnightblue" points="335.94,-264.4 339.84,-254.55 330.65,-259.81 335.94,-264.4"/>
</g>
<!-- Node20 -->
<g id="node18" class="node">
<title>Node20</title>
<g id="a_node18"><a xlink:title=" ">
<polygon fill="white" stroke="#bfbfbf" points="330.5,-291.5 330.5,-310.5 467.5,-310.5 467.5,-291.5 330.5,-291.5"/>
<text text-anchor="middle" x="399" y="-298.5" font-family="Helvetica,sans-Serif" font-size="10.00">sundials/sundials_nvector.h</text>
</a>
</g>
</g>
<!-- Node1&#45;&gt;Node20 -->
<g id="edge23" class="edge">
<title>Node1&#45;&gt;Node20</title>
<path fill="none" stroke="midnightblue" d="M275.29,-347.44C299.81,-338.44 338.6,-324.19 366.2,-314.05"/>
<polygon fill="midnightblue" stroke="midnightblue" points="367.64,-317.25 375.82,-310.52 365.22,-310.68 367.64,-317.25"/>
</g>
<!-- Node3 -->
<g id="node3" class="node">
<title>Node3</title>
<g id="a_node3"><a xlink:href="../../da/d37/FuncEval_8h.html" target="_top" xlink:title=" ">
<polygon fill="white" stroke="black" points="140,-230 140,-249 206,-249 206,-230 140,-230"/>
<text text-anchor="middle" x="173" y="-237" font-family="Helvetica,sans-Serif" font-size="10.00">FuncEval.h</text>
</a>
</g>
</g>
<!-- Node2&#45;&gt;Node3 -->
<g id="edge2" class="edge">
<title>Node2&#45;&gt;Node3</title>
<path fill="none" stroke="midnightblue" d="M197.85,-291.48C193.62,-282.82 186.96,-269.15 181.6,-258.15"/>
<polygon fill="midnightblue" stroke="midnightblue" points="184.67,-256.46 177.15,-249.01 178.38,-259.53 184.67,-256.46"/>
</g>
<!-- Node18 -->
<g id="node16" class="node">
<title>Node18</title>
<g id="a_node16"><a xlink:href="../../d2/d49/global_8h.html" target="_top" xlink:title="This file contains definitions for utility functions and text for modules, inputfiles,...">
<polygon fill="white" stroke="black" points="196,-168.5 196,-187.5 306,-187.5 306,-168.5 196,-168.5"/>
<text text-anchor="middle" x="251" y="-175.5" font-family="Helvetica,sans-Serif" font-size="10.00">cantera/base/global.h</text>
</a>
</g>
</g>
<!-- Node2&#45;&gt;Node18 -->
<g id="edge19" class="edge">
<title>Node2&#45;&gt;Node18</title>
<path fill="none" stroke="midnightblue" d="M205.52,-291.3C213.47,-271.68 232.92,-223.64 243.63,-197.19"/>
<polygon fill="midnightblue" stroke="midnightblue" points="247,-198.21 247.51,-187.62 240.51,-195.58 247,-198.21"/>
</g>
<!-- Node4 -->
<g id="node4" class="node">
<title>Node4</title>
<g id="a_node4"><a xlink:href="../../d9/ddc/ct__defs_8h.html" target="_top" xlink:title="This file contains definitions of constants, types and terms that are used in internal routines and a...">
<polygon fill="white" stroke="black" points="225,-56.5 225,-75.5 341,-75.5 341,-56.5 225,-56.5"/>
<text text-anchor="middle" x="283" y="-63.5" font-family="Helvetica,sans-Serif" font-size="10.00">cantera/base/ct_defs.h</text>
</a>
</g>
</g>
<!-- Node3&#45;&gt;Node4 -->
<g id="edge3" class="edge">
<title>Node3&#45;&gt;Node4</title>
<path fill="none" stroke="midnightblue" d="M171.31,-229.82C167.52,-207.79 160.63,-148.83 187,-112 198.3,-96.21 216.58,-85.8 234.18,-79.01"/>
<polygon fill="midnightblue" stroke="midnightblue" points="235.57,-82.23 243.83,-75.59 233.24,-75.63 235.57,-82.23"/>
</g>
<!-- Node3&#45;&gt;Node13 -->
<g id="edge12" class="edge">
<title>Node3&#45;&gt;Node13</title>
<path fill="none" stroke="midnightblue" d="M158.24,-229.98C141.34,-220.21 113.42,-204.08 93.51,-192.58"/>
<polygon fill="midnightblue" stroke="midnightblue" points="95.14,-189.48 84.73,-187.51 91.64,-195.54 95.14,-189.48"/>
</g>
<!-- Node3&#45;&gt;Node18 -->
<g id="edge16" class="edge">
<title>Node3&#45;&gt;Node18</title>
<path fill="none" stroke="midnightblue" d="M184.18,-229.98C196.57,-220.52 216.79,-205.1 231.75,-193.69"/>
<polygon fill="midnightblue" stroke="midnightblue" points="234.02,-196.36 239.85,-187.51 229.77,-190.79 234.02,-196.36"/>
</g>
<!-- Node5 -->
<g id="node5" class="node">
<title>Node5</title>
<g id="a_node5"><a xlink:href="../../db/d16/config_8h_source.html" target="_top" xlink:title=" ">
<polygon fill="white" stroke="black" points="36.5,-0.5 36.5,-19.5 87.5,-19.5 87.5,-0.5 36.5,-0.5"/>
<text text-anchor="middle" x="62" y="-7.5" font-family="Helvetica,sans-Serif" font-size="10.00">config.h</text>
</a>
</g>
</g>
<!-- Node4&#45;&gt;Node5 -->
<g id="edge4" class="edge">
<title>Node4&#45;&gt;Node5</title>
<path fill="none" stroke="midnightblue" d="M246.96,-56.44C211.44,-47.97 155.37,-34.5 97.31,-20.05"/>
<polygon fill="midnightblue" stroke="midnightblue" points="98.15,-16.65 87.6,-17.63 96.46,-23.45 98.15,-16.65"/>
</g>
<!-- Node6 -->
<g id="node6" class="node">
<title>Node6</title>
<g id="a_node6"><a xlink:title=" ">
<polygon fill="white" stroke="#bfbfbf" points="106,-0.5 106,-19.5 150,-19.5 150,-0.5 106,-0.5"/>
<text text-anchor="middle" x="128" y="-7.5" font-family="Helvetica,sans-Serif" font-size="10.00">cmath</text>
</a>
</g>
</g>
<!-- Node4&#45;&gt;Node6 -->
<g id="edge5" class="edge">
<title>Node4&#45;&gt;Node6</title>
<path fill="none" stroke="midnightblue" d="M258.44,-56.44C231.87,-47.19 189.39,-32.39 160.17,-22.21"/>
<polygon fill="midnightblue" stroke="midnightblue" points="161.03,-18.8 150.43,-18.82 158.72,-25.41 161.03,-18.8"/>
</g>
<!-- Node7 -->
<g id="node7" class="node">
<title>Node7</title>
<g id="a_node7"><a xlink:title=" ">
<polygon fill="white" stroke="#bfbfbf" points="168.5,-0.5 168.5,-19.5 213.5,-19.5 213.5,-0.5 168.5,-0.5"/>
<text text-anchor="middle" x="191" y="-7.5" font-family="Helvetica,sans-Serif" font-size="10.00">cstdlib</text>
</a>
</g>
</g>
<!-- Node4&#45;&gt;Node7 -->
<g id="edge6" class="edge">
<title>Node4&#45;&gt;Node7</title>
<path fill="none" stroke="midnightblue" d="M268.22,-56.32C253.73,-47.82 231.43,-34.73 214.51,-24.8"/>
<polygon fill="midnightblue" stroke="midnightblue" points="216.14,-21.7 205.74,-19.65 212.6,-27.74 216.14,-21.7"/>
</g>
<!-- Node8 -->
<g id="node8" class="node">
<title>Node8</title>
<g id="a_node8"><a xlink:title=" ">
<polygon fill="white" stroke="#bfbfbf" points="232,-0.5 232,-19.5 276,-19.5 276,-0.5 232,-0.5"/>
<text text-anchor="middle" x="254" y="-7.5" font-family="Helvetica,sans-Serif" font-size="10.00">vector</text>
</a>
</g>
</g>
<!-- Node4&#45;&gt;Node8 -->
<g id="edge7" class="edge">
<title>Node4&#45;&gt;Node8</title>
<path fill="none" stroke="midnightblue" d="M278.21,-56.08C274.24,-48.69 268.47,-37.95 263.57,-28.81"/>
<polygon fill="midnightblue" stroke="midnightblue" points="266.51,-26.91 258.7,-19.75 260.35,-30.22 266.51,-26.91"/>
</g>
<!-- Node9 -->
<g id="node9" class="node">
<title>Node9</title>
<g id="a_node9"><a xlink:title=" ">
<polygon fill="white" stroke="#bfbfbf" points="294.5,-0.5 294.5,-19.5 329.5,-19.5 329.5,-0.5 294.5,-0.5"/>
<text text-anchor="middle" x="312" y="-7.5" font-family="Helvetica,sans-Serif" font-size="10.00">map</text>
</a>
</g>
</g>
<!-- Node4&#45;&gt;Node9 -->
<g id="edge8" class="edge">
<title>Node4&#45;&gt;Node9</title>
<path fill="none" stroke="midnightblue" d="M287.79,-56.08C291.76,-48.69 297.53,-37.95 302.43,-28.81"/>
<polygon fill="midnightblue" stroke="midnightblue" points="305.65,-30.22 307.3,-19.75 299.49,-26.91 305.65,-30.22"/>
</g>
<!-- Node10 -->
<g id="node10" class="node">
<title>Node10</title>
<g id="a_node10"><a xlink:title=" ">
<polygon fill="white" stroke="#bfbfbf" points="347.5,-0.5 347.5,-19.5 388.5,-19.5 388.5,-0.5 347.5,-0.5"/>
<text text-anchor="middle" x="368" y="-7.5" font-family="Helvetica,sans-Serif" font-size="10.00">string</text>
</a>
</g>
</g>
<!-- Node4&#45;&gt;Node10 -->
<g id="edge9" class="edge">
<title>Node4&#45;&gt;Node10</title>
<path fill="none" stroke="midnightblue" d="M296.66,-56.32C309.92,-47.9 330.27,-34.97 345.85,-25.07"/>
<polygon fill="midnightblue" stroke="midnightblue" points="347.81,-27.97 354.38,-19.65 344.06,-22.06 347.81,-27.97"/>
</g>
<!-- Node11 -->
<g id="node11" class="node">
<title>Node11</title>
<g id="a_node11"><a xlink:title=" ">
<polygon fill="white" stroke="#bfbfbf" points="407,-0.5 407,-19.5 463,-19.5 463,-0.5 407,-0.5"/>
<text text-anchor="middle" x="435" y="-7.5" font-family="Helvetica,sans-Serif" font-size="10.00">algorithm</text>
</a>
</g>
</g>
<!-- Node4&#45;&gt;Node11 -->
<g id="edge10" class="edge">
<title>Node4&#45;&gt;Node11</title>
<path fill="none" stroke="midnightblue" d="M307.08,-56.44C332.54,-47.4 372.89,-33.06 401.46,-22.92"/>
<polygon fill="midnightblue" stroke="midnightblue" points="402.78,-26.16 411.03,-19.52 400.43,-19.57 402.78,-26.16"/>
</g>
<!-- Node12 -->
<g id="node12" class="node">
<title>Node12</title>
<g id="a_node12"><a xlink:title=" ">
<polygon fill="white" stroke="#bfbfbf" points="481,-0.5 481,-19.5 533,-19.5 533,-0.5 481,-0.5"/>
<text text-anchor="middle" x="507" y="-7.5" font-family="Helvetica,sans-Serif" font-size="10.00">memory</text>
</a>
</g>
</g>
<!-- Node4&#45;&gt;Node12 -->
<g id="edge11" class="edge">
<title>Node4&#45;&gt;Node12</title>
<path fill="none" stroke="midnightblue" d="M319.63,-56.48C355.73,-48.04 412.71,-34.6 470.91,-20.24"/>
<polygon fill="midnightblue" stroke="midnightblue" points="471.77,-23.63 480.64,-17.83 470.09,-16.84 471.77,-23.63"/>
</g>
<!-- Node14 -->
<g id="node14" class="node">
<title>Node14</title>
<g id="a_node14"><a xlink:href="../../db/def/fmt_8h.html" target="_top" xlink:title="Wrapper for either system&#45;installed or local headers for fmt.">
<polygon fill="white" stroke="red" points="196,-112.5 196,-131.5 294,-131.5 294,-112.5 196,-112.5"/>
<text text-anchor="middle" x="245" y="-119.5" font-family="Helvetica,sans-Serif" font-size="10.00">cantera/base/fmt.h</text>
</a>
</g>
</g>
<!-- Node13&#45;&gt;Node14 -->
<g id="edge13" class="edge">
<title>Node13&#45;&gt;Node14</title>
<path fill="none" stroke="midnightblue" d="M97.73,-168.44C127.43,-159.28 174.72,-144.69 207.67,-134.52"/>
<polygon fill="midnightblue" stroke="midnightblue" points="208.88,-137.81 217.4,-131.52 206.81,-131.12 208.88,-137.81"/>
</g>
<!-- Node17 -->
<g id="node15" class="node">
<title>Node17</title>
<g id="a_node15"><a xlink:title=" ">
<polygon fill="white" stroke="#bfbfbf" points="40.5,-112.5 40.5,-131.5 99.5,-131.5 99.5,-112.5 40.5,-112.5"/>
<text text-anchor="middle" x="70" y="-119.5" font-family="Helvetica,sans-Serif" font-size="10.00">exception</text>
</a>
</g>
</g>
<!-- Node13&#45;&gt;Node17 -->
<g id="edge15" class="edge">
<title>Node13&#45;&gt;Node17</title>
<path fill="none" stroke="midnightblue" d="M70,-168.08C70,-161.01 70,-150.86 70,-141.99"/>
<polygon fill="midnightblue" stroke="midnightblue" points="73.5,-141.75 70,-131.75 66.5,-141.75 73.5,-141.75"/>
</g>
<!-- Node14&#45;&gt;Node4 -->
<g id="edge14" class="edge">
<title>Node14&#45;&gt;Node4</title>
<path fill="none" stroke="midnightblue" d="M251.27,-112.08C256.64,-104.46 264.52,-93.26 271.08,-83.94"/>
<polygon fill="midnightblue" stroke="midnightblue" points="273.95,-85.94 276.84,-75.75 268.22,-81.91 273.95,-85.94"/>
</g>
<!-- Node18&#45;&gt;Node4 -->
<g id="edge17" class="edge">
<title>Node18&#45;&gt;Node4</title>
<path fill="none" stroke="midnightblue" d="M266.78,-168.47C279.2,-160.77 295.61,-148.18 303,-132 310.11,-116.45 302.77,-97.68 295.06,-84.32"/>
<polygon fill="midnightblue" stroke="midnightblue" points="297.89,-82.25 289.58,-75.67 291.97,-85.99 297.89,-82.25"/>
</g>
<!-- Node18&#45;&gt;Node14 -->
<g id="edge18" class="edge">
<title>Node18&#45;&gt;Node14</title>
<path fill="none" stroke="midnightblue" d="M250.01,-168.08C249.21,-160.93 248.07,-150.64 247.08,-141.69"/>
<polygon fill="midnightblue" stroke="midnightblue" points="250.56,-141.3 245.97,-131.75 243.6,-142.08 250.56,-141.3"/>
</g>
<!-- Node19&#45;&gt;Node4 -->
<g id="edge21" class="edge">
<title>Node19&#45;&gt;Node4</title>
<path fill="none" stroke="midnightblue" d="M350.25,-224.15C346.87,-199.95 338.03,-149.94 319,-112 313.74,-101.51 305.74,-91.19 298.62,-83.08"/>
<polygon fill="midnightblue" stroke="midnightblue" points="301.02,-80.52 291.67,-75.52 295.86,-85.25 301.02,-80.52"/>
</g>
</g>
</svg>
