<?xml version="1.0" encoding="UTF-8" standalone="no"?>
<!DOCTYPE svg PUBLIC "-//W3C//DTD SVG 1.1//EN"
 "http://www.w3.org/Graphics/SVG/1.1/DTD/svg11.dtd">
<!-- Generated by graphviz version 2.50.0 (0)
 -->
<!-- Title: ImplicitSurfChem.cpp Pages: 1 -->
<!--zoomable 442 -->
<svg id="main" version="1.1" xmlns="http://www.w3.org/2000/svg" xmlns:xlink="http://www.w3.org/1999/xlink" xml:space="preserve" onload="init(evt)">
<style type="text/css"><![CDATA[
.edge:hover path { stroke: red; }
.edge:hover polygon { stroke: red; fill: red; }
]]></style>
<script type="text/javascript"><![CDATA[
var edges = document.getElementsByTagName('g');
if (edges && edges.length) {
  for (var i=0;i<edges.length;i++) {
    if (edges[i].id.substr(0,4)=='edge') {
      edges[i].setAttribute('class','edge');
    }
  }
}
]]></script>
        <defs>
                <circle id="rim" cx="0" cy="0" r="7"/>
                <circle id="rim2" cx="0" cy="0" r="3.5"/>
                <g id="zoomPlus">
                        <use xlink:href="#rim" fill="#404040">
                                <set attributeName="fill" to="#808080" begin="zoomplus.mouseover" end="zoomplus.mouseout"/>
                        </use>
                        <path d="M-4,0h8M0,-4v8" fill="none" stroke="white" stroke-width="1.5" pointer-events="none"/>
                </g>
                <g id="zoomMin">
                        <use xlink:href="#rim" fill="#404040">
                                <set attributeName="fill" to="#808080" begin="zoomminus.mouseover" end="zoomminus.mouseout"/>
                        </use>
                        <path d="M-4,0h8" fill="none" stroke="white" stroke-width="1.5" pointer-events="none"/>
                </g>
                <g id="dirArrow">
                        <path fill="none" stroke="white" stroke-width="1.5" d="M0,-3.0v7 M-2.5,-0.5L0,-3.0L2.5,-0.5"/>
                </g>
               <g id="resetDef">
                       <use xlink:href="#rim2" fill="#404040">
                               <set attributeName="fill" to="#808080" begin="reset.mouseover" end="reset.mouseout"/>
                       </use>
               </g>
        </defs>

<script type="text/javascript">
var viewWidth = 963;
var viewHeight = 442;
var sectionId = 'dynsection-0';
</script>
<script xlink:href="../../svgpan.js"/>
<svg id="graph" class="graph">
<g id="viewport">
<title>ImplicitSurfChem.cpp</title>
<polygon fill="white" stroke="transparent" points="-4,4 -4,-438 958.51,-438 958.51,4 -4,4"/>
<!-- Node1 -->
<g id="node1" class="node">
<title>Node1</title>
<g id="a_node1"><a xlink:title="Definitions for the implicit integration of surface site density equations (see Kinetics Managers and...">
<polygon fill="#bfbfbf" stroke="black" points="262.51,-414.5 262.51,-433.5 373.51,-433.5 373.51,-414.5 262.51,-414.5"/>
<text text-anchor="middle" x="318.01" y="-421.5" font-family="Helvetica,sans-Serif" font-size="10.00">ImplicitSurfChem.cpp</text>
</a>
</g>
</g>
<!-- Node2 -->
<g id="node2" class="node">
<title>Node2</title>
<g id="a_node2"><a xlink:href="../../da/d1f/ImplicitSurfChem_8h.html" target="_top" xlink:title="Declarations for the implicit integration of surface site density equations (see Kinetics Managers an...">
<polygon fill="white" stroke="black" points="167.01,-347.5 167.01,-377.5 287.01,-377.5 287.01,-347.5 167.01,-347.5"/>
<text text-anchor="start" x="175.01" y="-365.5" font-family="Helvetica,sans-Serif" font-size="10.00">cantera/kinetics/Implicit</text>
<text text-anchor="middle" x="227.01" y="-354.5" font-family="Helvetica,sans-Serif" font-size="10.00">SurfChem.h</text>
</a>
</g>
</g>
<!-- Node1&#45;&gt;Node2 -->
<g id="edge1" class="edge">
<title>Node1&#45;&gt;Node2</title>
<path fill="none" stroke="midnightblue" d="M304.98,-414.48C292.54,-406.34 273.34,-393.79 257.11,-383.18"/>
<polygon fill="midnightblue" stroke="midnightblue" points="258.75,-380.07 248.46,-377.52 254.92,-385.92 258.75,-380.07"/>
</g>
<!-- Node47 -->
<g id="node15" class="node">
<title>Node47</title>
<g id="a_node15"><a xlink:href="../../d2/d25/solveSP_8h.html" target="_top" xlink:title="Header file for implicit surface problem solver (see Chemical Kinetics and class solveSP).">
<polygon fill="white" stroke="black" points="252.01,-291.5 252.01,-310.5 384.01,-310.5 384.01,-291.5 252.01,-291.5"/>
<text text-anchor="middle" x="318.01" y="-298.5" font-family="Helvetica,sans-Serif" font-size="10.00">cantera/kinetics/solveSP.h</text>
</a>
</g>
</g>
<!-- Node1&#45;&gt;Node47 -->
<g id="edge27" class="edge">
<title>Node1&#45;&gt;Node47</title>
<path fill="none" stroke="midnightblue" d="M318.01,-414.3C318.01,-394.85 318.01,-347.49 318.01,-320.9"/>
<polygon fill="midnightblue" stroke="midnightblue" points="321.51,-320.62 318.01,-310.62 314.51,-320.62 321.51,-320.62"/>
</g>
<!-- Node49 -->
<g id="node17" class="node">
<title>Node49</title>
<g id="a_node17"><a xlink:href="../../d2/de5/SurfPhase_8h.html" target="_top" xlink:title="Header for a simple thermodynamics model of a surface phase derived from ThermoPhase,...">
<polygon fill="white" stroke="black" points="500.51,-353 500.51,-372 639.51,-372 639.51,-353 500.51,-353"/>
<text text-anchor="middle" x="570.01" y="-360" font-family="Helvetica,sans-Serif" font-size="10.00">cantera/thermo/SurfPhase.h</text>
</a>
</g>
</g>
<!-- Node1&#45;&gt;Node49 -->
<g id="edge28" class="edge">
<title>Node1&#45;&gt;Node49</title>
<path fill="none" stroke="midnightblue" d="M354.12,-414.48C398.84,-403.92 475.1,-385.91 523.98,-374.37"/>
<polygon fill="midnightblue" stroke="midnightblue" points="525.05,-377.71 533.98,-372.01 523.44,-370.9 525.05,-377.71"/>
</g>
<!-- Node3 -->
<g id="node3" class="node">
<title>Node3</title>
<g id="a_node3"><a xlink:href="../../d8/d97/Integrator_8h.html" target="_top" xlink:title=" ">
<polygon fill="white" stroke="black" points="21.51,-168.5 21.51,-187.5 164.51,-187.5 164.51,-168.5 21.51,-168.5"/>
<text text-anchor="middle" x="93.01" y="-175.5" font-family="Helvetica,sans-Serif" font-size="10.00">cantera/numerics/Integrator.h</text>
</a>
</g>
</g>
<!-- Node2&#45;&gt;Node3 -->
<g id="edge2" class="edge">
<title>Node2&#45;&gt;Node3</title>
<path fill="none" stroke="midnightblue" d="M216.72,-347.48C192.53,-314.54 132.11,-232.25 105.7,-196.28"/>
<polygon fill="midnightblue" stroke="midnightblue" points="108.23,-193.81 99.49,-187.82 102.59,-197.95 108.23,-193.81"/>
</g>
<!-- Node20 -->
<g id="node8" class="node">
<title>Node20</title>
<g id="a_node8"><a xlink:href="../../d7/d0d/InterfaceKinetics_8h.html" target="_top" xlink:title=" ">
<polygon fill="white" stroke="black" points="162.51,-224.5 162.51,-254.5 289.51,-254.5 289.51,-224.5 162.51,-224.5"/>
<text text-anchor="start" x="170.51" y="-242.5" font-family="Helvetica,sans-Serif" font-size="10.00">cantera/kinetics/Interface</text>
<text text-anchor="middle" x="226.01" y="-231.5" font-family="Helvetica,sans-Serif" font-size="10.00">Kinetics.h</text>
</a>
</g>
</g>
<!-- Node2&#45;&gt;Node20 -->
<g id="edge9" class="edge">
<title>Node2&#45;&gt;Node20</title>
<path fill="none" stroke="midnightblue" d="M226.9,-347.14C226.73,-326.86 226.42,-289.53 226.22,-264.86"/>
<polygon fill="midnightblue" stroke="midnightblue" points="229.72,-264.81 226.13,-254.84 222.72,-264.87 229.72,-264.81"/>
</g>
<!-- Node2&#45;&gt;Node47 -->
<g id="edge21" class="edge">
<title>Node2&#45;&gt;Node47</title>
<path fill="none" stroke="midnightblue" d="M248.58,-347.4C262.89,-338.04 281.63,-325.79 296.03,-316.38"/>
<polygon fill="midnightblue" stroke="midnightblue" points="298.32,-319.06 304.77,-310.66 294.49,-313.2 298.32,-319.06"/>
</g>
<!-- Node4 -->
<g id="node4" class="node">
<title>Node4</title>
<g id="a_node4"><a xlink:href="../../da/d37/FuncEval_8h.html" target="_top" xlink:title=" ">
<polygon fill="white" stroke="black" points="63.01,-112.5 63.01,-131.5 129.01,-131.5 129.01,-112.5 63.01,-112.5"/>
<text text-anchor="middle" x="96.01" y="-119.5" font-family="Helvetica,sans-Serif" font-size="10.00">FuncEval.h</text>
</a>
</g>
</g>
<!-- Node3&#45;&gt;Node4 -->
<g id="edge3" class="edge">
<title>Node3&#45;&gt;Node4</title>
<path fill="none" stroke="midnightblue" d="M93.51,-168.08C93.9,-161.01 94.47,-150.86 94.96,-141.99"/>
<polygon fill="midnightblue" stroke="midnightblue" points="98.47,-141.93 95.53,-131.75 91.48,-141.54 98.47,-141.93"/>
</g>
<!-- Node19 -->
<g id="node7" class="node">
<title>Node19</title>
<g id="a_node7"><a xlink:href="../../d2/d49/global_8h.html" target="_top" xlink:title="This file contains definitions for utility functions and text for modules, inputfiles,...">
<polygon fill="white" stroke="red" points="15.01,-56.5 15.01,-75.5 125.01,-75.5 125.01,-56.5 15.01,-56.5"/>
<text text-anchor="middle" x="70.01" y="-63.5" font-family="Helvetica,sans-Serif" font-size="10.00">cantera/base/global.h</text>
</a>
</g>
</g>
<!-- Node3&#45;&gt;Node19 -->
<g id="edge8" class="edge">
<title>Node3&#45;&gt;Node19</title>
<path fill="none" stroke="midnightblue" d="M82.02,-168.37C72.56,-160.17 59.58,-146.92 54.01,-132 48.19,-116.38 53.91,-97.86 60.08,-84.59"/>
<polygon fill="midnightblue" stroke="midnightblue" points="63.24,-86.1 64.69,-75.6 57.01,-82.9 63.24,-86.1"/>
</g>
<!-- Node5 -->
<g id="node5" class="node">
<title>Node5</title>
<g id="a_node5"><a xlink:href="../../d9/ddc/ct__defs_8h.html" target="_top" xlink:title="This file contains definitions of constants, types and terms that are used in internal routines and a...">
<polygon fill="white" stroke="red" points="474.01,-0.5 474.01,-19.5 590.01,-19.5 590.01,-0.5 474.01,-0.5"/>
<text text-anchor="middle" x="532.01" y="-7.5" font-family="Helvetica,sans-Serif" font-size="10.00">cantera/base/ct_defs.h</text>
</a>
</g>
</g>
<!-- Node4&#45;&gt;Node5 -->
<g id="edge4" class="edge">
<title>Node4&#45;&gt;Node5</title>
<path fill="none" stroke="midnightblue" d="M66.06,-112.49C31.93,-101.37 -16.41,-80.42 6.01,-56 36.37,-22.94 328.27,-14.12 463.67,-11.81"/>
<polygon fill="midnightblue" stroke="midnightblue" points="463.98,-15.3 473.92,-11.64 463.87,-8.31 463.98,-15.3"/>
</g>
<!-- Node14 -->
<g id="node6" class="node">
<title>Node14</title>
<g id="a_node6"><a xlink:href="../../db/d98/ctexceptions_8h.html" target="_top" xlink:title="Definitions for the classes that are thrown when Cantera experiences an error condition (also contain...">
<polygon fill="white" stroke="red" points="305.01,-56.5 305.01,-75.5 445.01,-75.5 445.01,-56.5 305.01,-56.5"/>
<text text-anchor="middle" x="375.01" y="-63.5" font-family="Helvetica,sans-Serif" font-size="10.00">cantera/base/ctexceptions.h</text>
</a>
</g>
</g>
<!-- Node4&#45;&gt;Node14 -->
<g id="edge5" class="edge">
<title>Node4&#45;&gt;Node14</title>
<path fill="none" stroke="midnightblue" d="M129.16,-114.17C132.82,-113.43 136.5,-112.7 140.01,-112 201.32,-99.86 271.74,-86.45 319.38,-77.45"/>
<polygon fill="midnightblue" stroke="midnightblue" points="320.31,-80.84 329.49,-75.54 319.02,-73.96 320.31,-80.84"/>
</g>
<!-- Node4&#45;&gt;Node19 -->
<g id="edge6" class="edge">
<title>Node4&#45;&gt;Node19</title>
<path fill="none" stroke="midnightblue" d="M91.72,-112.08C88.16,-104.69 82.99,-93.95 78.59,-84.81"/>
<polygon fill="midnightblue" stroke="midnightblue" points="81.72,-83.24 74.23,-75.75 75.41,-86.28 81.72,-83.24"/>
</g>
<!-- Node19&#45;&gt;Node5 -->
<g id="edge7" class="edge">
<title>Node19&#45;&gt;Node5</title>
<path fill="none" stroke="midnightblue" d="M125.16,-57.15C128.15,-56.75 131.12,-56.37 134.01,-56 249.55,-41.35 384.26,-26.61 463.61,-18.16"/>
<polygon fill="midnightblue" stroke="midnightblue" points="464.38,-21.6 473.95,-17.07 463.64,-14.64 464.38,-21.6"/>
</g>
<!-- Node21 -->
<g id="node9" class="node">
<title>Node21</title>
<g id="a_node9"><a xlink:href="../../d5/db4/Kinetics_8h.html" target="_top" xlink:title="Base class for kinetics managers and also contains the kineticsmgr module documentation (see Kinetics...">
<polygon fill="white" stroke="black" points="428.01,-168.5 428.01,-187.5 488.01,-187.5 488.01,-168.5 428.01,-168.5"/>
<text text-anchor="middle" x="458.01" y="-175.5" font-family="Helvetica,sans-Serif" font-size="10.00">Kinetics.h</text>
</a>
</g>
</g>
<!-- Node20&#45;&gt;Node21 -->
<g id="edge10" class="edge">
<title>Node20&#45;&gt;Node21</title>
<path fill="none" stroke="midnightblue" d="M280.7,-224.47C322.7,-213.7 379.75,-199.07 417.67,-189.35"/>
<polygon fill="midnightblue" stroke="midnightblue" points="419.01,-192.62 427.83,-186.74 417.27,-185.84 419.01,-192.62"/>
</g>
<!-- Node27 -->
<g id="node12" class="node">
<title>Node27</title>
<g id="a_node12"><a xlink:href="../../d4/d81/RateCoeffMgr_8h.html" target="_top" xlink:title=" ">
<polygon fill="white" stroke="black" points="183.01,-168.5 183.01,-187.5 269.01,-187.5 269.01,-168.5 183.01,-168.5"/>
<text text-anchor="middle" x="226.01" y="-175.5" font-family="Helvetica,sans-Serif" font-size="10.00">RateCoeffMgr.h</text>
</a>
</g>
</g>
<!-- Node20&#45;&gt;Node27 -->
<g id="edge15" class="edge">
<title>Node20&#45;&gt;Node27</title>
<path fill="none" stroke="midnightblue" d="M226.01,-224.4C226.01,-216.47 226.01,-206.46 226.01,-197.86"/>
<polygon fill="midnightblue" stroke="midnightblue" points="229.51,-197.66 226.01,-187.66 222.51,-197.66 229.51,-197.66"/>
</g>
<!-- Node22 -->
<g id="node10" class="node">
<title>Node22</title>
<g id="a_node10"><a xlink:href="../../dd/dfd/StoichManager_8h.html" target="_top" xlink:title=" ">
<polygon fill="white" stroke="red" points="413.51,-112.5 413.51,-131.5 502.51,-131.5 502.51,-112.5 413.51,-112.5"/>
<text text-anchor="middle" x="458.01" y="-119.5" font-family="Helvetica,sans-Serif" font-size="10.00">StoichManager.h</text>
</a>
</g>
</g>
<!-- Node21&#45;&gt;Node22 -->
<g id="edge11" class="edge">
<title>Node21&#45;&gt;Node22</title>
<path fill="none" stroke="midnightblue" d="M458.01,-168.08C458.01,-161.01 458.01,-150.86 458.01,-141.99"/>
<polygon fill="midnightblue" stroke="midnightblue" points="461.51,-141.75 458.01,-131.75 454.51,-141.75 461.51,-141.75"/>
</g>
<!-- Node25 -->
<g id="node11" class="node">
<title>Node25</title>
<g id="a_node11"><a xlink:href="../../d6/df6/ValueCache_8h.html" target="_top" xlink:title=" ">
<polygon fill="white" stroke="red" points="463.51,-56.5 463.51,-75.5 600.51,-75.5 600.51,-56.5 463.51,-56.5"/>
<text text-anchor="middle" x="532.01" y="-63.5" font-family="Helvetica,sans-Serif" font-size="10.00">cantera/base/ValueCache.h</text>
</a>
</g>
</g>
<!-- Node21&#45;&gt;Node25 -->
<g id="edge13" class="edge">
<title>Node21&#45;&gt;Node25</title>
<path fill="none" stroke="midnightblue" d="M472.42,-168.4C484.63,-160.41 501.74,-147.44 512.01,-132 521.32,-118.02 526.46,-99.52 529.19,-85.83"/>
<polygon fill="midnightblue" stroke="midnightblue" points="532.69,-86.12 530.95,-75.67 525.79,-84.92 532.69,-86.12"/>
</g>
<!-- Node22&#45;&gt;Node14 -->
<g id="edge12" class="edge">
<title>Node22&#45;&gt;Node14</title>
<path fill="none" stroke="midnightblue" d="M444.68,-112.32C431.85,-103.98 412.23,-91.21 397.07,-81.35"/>
<polygon fill="midnightblue" stroke="midnightblue" points="398.61,-78.17 388.32,-75.65 394.79,-84.04 398.61,-78.17"/>
</g>
<!-- Node25&#45;&gt;Node5 -->
<g id="edge14" class="edge">
<title>Node25&#45;&gt;Node5</title>
<path fill="none" stroke="midnightblue" d="M532.01,-56.08C532.01,-49.01 532.01,-38.86 532.01,-29.99"/>
<polygon fill="midnightblue" stroke="midnightblue" points="535.51,-29.75 532.01,-19.75 528.51,-29.75 535.51,-29.75"/>
</g>
<!-- Node28 -->
<g id="node13" class="node">
<title>Node28</title>
<g id="a_node13"><a xlink:href="../../da/d70/RxnRates_8h.html" target="_top" xlink:title=" ">
<polygon fill="white" stroke="red" points="149.51,-112.5 149.51,-131.5 218.51,-131.5 218.51,-112.5 149.51,-112.5"/>
<text text-anchor="middle" x="184.01" y="-119.5" font-family="Helvetica,sans-Serif" font-size="10.00">RxnRates.h</text>
</a>
</g>
</g>
<!-- Node27&#45;&gt;Node28 -->
<g id="edge16" class="edge">
<title>Node27&#45;&gt;Node28</title>
<path fill="none" stroke="midnightblue" d="M219.08,-168.08C213.09,-160.38 204.26,-149.03 196.97,-139.65"/>
<polygon fill="midnightblue" stroke="midnightblue" points="199.72,-137.5 190.82,-131.75 194.2,-141.79 199.72,-137.5"/>
</g>
<!-- Node28&#45;&gt;Node14 -->
<g id="edge19" class="edge">
<title>Node28&#45;&gt;Node14</title>
<path fill="none" stroke="midnightblue" d="M214.28,-112.44C246.97,-103.2 299.2,-88.44 335.2,-78.26"/>
<polygon fill="midnightblue" stroke="midnightblue" points="336.22,-81.61 344.89,-75.52 334.32,-74.87 336.22,-81.61"/>
</g>
<!-- Node28&#45;&gt;Node19 -->
<g id="edge20" class="edge">
<title>Node28&#45;&gt;Node19</title>
<path fill="none" stroke="midnightblue" d="M165.95,-112.44C147.44,-103.68 118.43,-89.94 97.16,-79.86"/>
<polygon fill="midnightblue" stroke="midnightblue" points="98.53,-76.63 87.99,-75.52 95.53,-82.96 98.53,-76.63"/>
</g>
<!-- Node45 -->
<g id="node14" class="node">
<title>Node45</title>
<g id="a_node14"><a xlink:href="../../df/dd0/Array_8h.html" target="_top" xlink:title="Header file for class Cantera::Array2D.">
<polygon fill="white" stroke="red" points="143.01,-56.5 143.01,-75.5 249.01,-75.5 249.01,-56.5 143.01,-56.5"/>
<text text-anchor="middle" x="196.01" y="-63.5" font-family="Helvetica,sans-Serif" font-size="10.00">cantera/base/Array.h</text>
</a>
</g>
</g>
<!-- Node28&#45;&gt;Node45 -->
<g id="edge17" class="edge">
<title>Node28&#45;&gt;Node45</title>
<path fill="none" stroke="midnightblue" d="M186,-112.08C187.59,-104.93 189.87,-94.64 191.86,-85.69"/>
<polygon fill="midnightblue" stroke="midnightblue" points="195.32,-86.27 194.07,-75.75 188.48,-84.75 195.32,-86.27"/>
</g>
<!-- Node45&#45;&gt;Node5 -->
<g id="edge18" class="edge">
<title>Node45&#45;&gt;Node5</title>
<path fill="none" stroke="midnightblue" d="M249.25,-56.44C308.97,-46.85 405.76,-31.29 469.15,-21.1"/>
<polygon fill="midnightblue" stroke="midnightblue" points="469.71,-24.56 479.02,-19.52 468.59,-17.65 469.71,-24.56"/>
</g>
<!-- Node47&#45;&gt;Node20 -->
<g id="edge22" class="edge">
<title>Node47&#45;&gt;Node20</title>
<path fill="none" stroke="midnightblue" d="M304.83,-291.48C292.26,-283.34 272.85,-270.79 256.44,-260.18"/>
<polygon fill="midnightblue" stroke="midnightblue" points="257.99,-257.01 247.7,-254.52 254.19,-262.89 257.99,-257.01"/>
</g>
<!-- Node48 -->
<g id="node16" class="node">
<title>Node48</title>
<g id="a_node16"><a xlink:href="../../d1/df7/DenseMatrix_8h.html" target="_top" xlink:title="Headers for the DenseMatrix object, which deals with dense rectangular matrices and description of th...">
<polygon fill="white" stroke="black" points="237.01,-112.5 237.01,-131.5 395.01,-131.5 395.01,-112.5 237.01,-112.5"/>
<text text-anchor="middle" x="316.01" y="-119.5" font-family="Helvetica,sans-Serif" font-size="10.00">cantera/numerics/DenseMatrix.h</text>
</a>
</g>
</g>
<!-- Node47&#45;&gt;Node48 -->
<g id="edge23" class="edge">
<title>Node47&#45;&gt;Node48</title>
<path fill="none" stroke="midnightblue" d="M317.92,-291.46C317.61,-264.43 316.66,-180.24 316.23,-142.11"/>
<polygon fill="midnightblue" stroke="midnightblue" points="319.73,-141.83 316.11,-131.87 312.73,-141.91 319.73,-141.83"/>
</g>
<!-- Node48&#45;&gt;Node5 -->
<g id="edge24" class="edge">
<title>Node48&#45;&gt;Node5</title>
<path fill="none" stroke="midnightblue" d="M308.87,-112.44C298.56,-98.99 282.17,-72.74 296.01,-56 316.98,-30.66 401.69,-19.46 463.64,-14.6"/>
<polygon fill="midnightblue" stroke="midnightblue" points="464.05,-18.08 473.76,-13.84 463.53,-11.1 464.05,-18.08"/>
</g>
<!-- Node48&#45;&gt;Node14 -->
<g id="edge25" class="edge">
<title>Node48&#45;&gt;Node14</title>
<path fill="none" stroke="midnightblue" d="M325.49,-112.32C334.22,-104.34 347.36,-92.31 357.91,-82.65"/>
<polygon fill="midnightblue" stroke="midnightblue" points="360.35,-85.17 365.36,-75.83 355.62,-80 360.35,-85.17"/>
</g>
<!-- Node48&#45;&gt;Node45 -->
<g id="edge26" class="edge">
<title>Node48&#45;&gt;Node45</title>
<path fill="none" stroke="midnightblue" d="M297,-112.44C277.43,-103.64 246.71,-89.81 224.29,-79.72"/>
<polygon fill="midnightblue" stroke="midnightblue" points="225.5,-76.43 214.94,-75.52 222.62,-82.81 225.5,-76.43"/>
</g>
<!-- Node50 -->
<g id="node18" class="node">
<title>Node50</title>
<g id="a_node18"><a xlink:href="../../d7/d01/ThermoPhase_8h.html" target="_top" xlink:title="Header file for class ThermoPhase, the base class for phases with thermodynamic properties,...">
<polygon fill="white" stroke="black" points="679.01,-291.5 679.01,-310.5 765.01,-310.5 765.01,-291.5 679.01,-291.5"/>
<text text-anchor="middle" x="722.01" y="-298.5" font-family="Helvetica,sans-Serif" font-size="10.00">ThermoPhase.h</text>
</a>
</g>
</g>
<!-- Node49&#45;&gt;Node50 -->
<g id="edge29" class="edge">
<title>Node49&#45;&gt;Node50</title>
<path fill="none" stroke="midnightblue" d="M591.79,-352.98C617.75,-342.81 661.33,-325.76 690.85,-314.2"/>
<polygon fill="midnightblue" stroke="midnightblue" points="692.24,-317.41 700.28,-310.51 689.69,-310.9 692.24,-317.41"/>
</g>
<!-- Node51 -->
<g id="node19" class="node">
<title>Node51</title>
<g id="a_node19"><a xlink:href="../../da/d84/Phase_8h.html" target="_top" xlink:title="Header file for class Phase.">
<polygon fill="white" stroke="black" points="597.51,-112.5 597.51,-131.5 650.51,-131.5 650.51,-112.5 597.51,-112.5"/>
<text text-anchor="middle" x="624.01" y="-119.5" font-family="Helvetica,sans-Serif" font-size="10.00">Phase.h</text>
</a>
</g>
</g>
<!-- Node50&#45;&gt;Node51 -->
<g id="edge30" class="edge">
<title>Node50&#45;&gt;Node51</title>
<path fill="none" stroke="midnightblue" d="M702.31,-291.44C687.38,-283.95 667.53,-271.65 656.01,-255 631.84,-220.04 625.84,-168.87 624.41,-141.65"/>
<polygon fill="midnightblue" stroke="midnightblue" points="627.91,-141.43 624.04,-131.57 620.91,-141.69 627.91,-141.43"/>
</g>
<!-- Node53 -->
<g id="node21" class="node">
<title>Node53</title>
<g id="a_node21"><a xlink:href="../../d6/d7a/MultiSpeciesThermo_8h.html" target="_top" xlink:title="Header for a general species thermodynamic property manager for a phase (see MultiSpeciesThermo).">
<polygon fill="white" stroke="black" points="665.01,-230 665.01,-249 779.01,-249 779.01,-230 665.01,-230"/>
<text text-anchor="middle" x="722.01" y="-237" font-family="Helvetica,sans-Serif" font-size="10.00">MultiSpeciesThermo.h</text>
</a>
</g>
</g>
<!-- Node50&#45;&gt;Node53 -->
<g id="edge35" class="edge">
<title>Node50&#45;&gt;Node53</title>
<path fill="none" stroke="midnightblue" d="M722.01,-291.48C722.01,-283.08 722.01,-269.98 722.01,-259.16"/>
<polygon fill="midnightblue" stroke="midnightblue" points="725.51,-259.01 722.01,-249.01 718.51,-259.01 725.51,-259.01"/>
</g>
<!-- Node35 -->
<g id="node23" class="node">
<title>Node35</title>
<g id="a_node23"><a xlink:href="../../dd/d2a/AnyMap_8h.html" target="_top" xlink:title=" ">
<polygon fill="white" stroke="red" points="760.01,-112.5 760.01,-131.5 880.01,-131.5 880.01,-112.5 760.01,-112.5"/>
<text text-anchor="middle" x="820.01" y="-119.5" font-family="Helvetica,sans-Serif" font-size="10.00">cantera/base/AnyMap.h</text>
</a>
</g>
</g>
<!-- Node50&#45;&gt;Node35 -->
<g id="edge45" class="edge">
<title>Node50&#45;&gt;Node35</title>
<path fill="none" stroke="midnightblue" d="M741.72,-291.44C756.65,-283.95 776.5,-271.65 788.01,-255 812.19,-220.04 818.19,-168.87 819.62,-141.65"/>
<polygon fill="midnightblue" stroke="midnightblue" points="823.12,-141.69 819.99,-131.57 816.12,-141.43 823.12,-141.69"/>
</g>
<!-- Node31 -->
<g id="node24" class="node">
<title>Node31</title>
<g id="a_node24"><a xlink:href="../../da/d58/Units_8h.html" target="_top" xlink:title="Header for unit conversion utilities, which are used to translate user input from input files (See In...">
<polygon fill="white" stroke="black" points="847.51,-56.5 847.51,-75.5 954.51,-75.5 954.51,-56.5 847.51,-56.5"/>
<text text-anchor="middle" x="901.01" y="-63.5" font-family="Helvetica,sans-Serif" font-size="10.00">cantera/base/Units.h</text>
</a>
</g>
</g>
<!-- Node50&#45;&gt;Node31 -->
<g id="edge44" class="edge">
<title>Node50&#45;&gt;Node31</title>
<path fill="none" stroke="midnightblue" d="M746.2,-291.44C764.9,-283.96 790.61,-271.66 809.01,-255 857.36,-211.23 864.85,-192.57 889.01,-132 894.93,-117.16 897.96,-99.24 899.5,-85.97"/>
<polygon fill="midnightblue" stroke="midnightblue" points="903.01,-86 900.49,-75.71 896.04,-85.33 903.01,-86"/>
</g>
<!-- Node51&#45;&gt;Node14 -->
<g id="edge31" class="edge">
<title>Node51&#45;&gt;Node14</title>
<path fill="none" stroke="midnightblue" d="M597.11,-115.08C592.41,-114.05 587.57,-112.99 583.01,-112 528.82,-100.19 466.66,-86.76 424.51,-77.66"/>
<polygon fill="midnightblue" stroke="midnightblue" points="425.02,-74.19 414.51,-75.51 423.55,-81.04 425.02,-74.19"/>
</g>
<!-- Node51&#45;&gt;Node25 -->
<g id="edge34" class="edge">
<title>Node51&#45;&gt;Node25</title>
<path fill="none" stroke="midnightblue" d="M609.23,-112.32C594.75,-103.82 572.44,-90.73 555.52,-80.8"/>
<polygon fill="midnightblue" stroke="midnightblue" points="557.15,-77.7 546.76,-75.65 553.61,-83.74 557.15,-77.7"/>
</g>
<!-- Node52 -->
<g id="node20" class="node">
<title>Node52</title>
<g id="a_node20"><a xlink:href="../../d9/dda/Elements_8h.html" target="_top" xlink:title="Contains the getElementWeight function and the definitions of element constraint types.">
<polygon fill="white" stroke="black" points="619.01,-56.5 619.01,-75.5 753.01,-75.5 753.01,-56.5 619.01,-56.5"/>
<text text-anchor="middle" x="686.01" y="-63.5" font-family="Helvetica,sans-Serif" font-size="10.00">cantera/thermo/Elements.h</text>
</a>
</g>
</g>
<!-- Node51&#45;&gt;Node52 -->
<g id="edge32" class="edge">
<title>Node51&#45;&gt;Node52</title>
<path fill="none" stroke="midnightblue" d="M633.98,-112.32C643.14,-104.34 656.95,-92.31 668.04,-82.65"/>
<polygon fill="midnightblue" stroke="midnightblue" points="670.63,-85.04 675.87,-75.83 666.03,-79.76 670.63,-85.04"/>
</g>
<!-- Node52&#45;&gt;Node5 -->
<g id="edge33" class="edge">
<title>Node52&#45;&gt;Node5</title>
<path fill="none" stroke="midnightblue" d="M661.61,-56.44C635.82,-47.4 594.94,-33.06 566,-22.92"/>
<polygon fill="midnightblue" stroke="midnightblue" points="566.9,-19.52 556.3,-19.52 564.58,-26.13 566.9,-19.52"/>
</g>
<!-- Node54 -->
<g id="node22" class="node">
<title>Node54</title>
<g id="a_node22"><a xlink:href="../../d4/d87/SpeciesThermoInterpType_8h.html" target="_top" xlink:title="Pure Virtual Base class for individual species reference state thermodynamic managers and text for th...">
<polygon fill="white" stroke="black" points="652.51,-168.5 652.51,-187.5 791.51,-187.5 791.51,-168.5 652.51,-168.5"/>
<text text-anchor="middle" x="722.01" y="-175.5" font-family="Helvetica,sans-Serif" font-size="10.00">SpeciesThermoInterpType.h</text>
</a>
</g>
</g>
<!-- Node53&#45;&gt;Node54 -->
<g id="edge36" class="edge">
<title>Node53&#45;&gt;Node54</title>
<path fill="none" stroke="midnightblue" d="M722.01,-229.98C722.01,-221.58 722.01,-208.48 722.01,-197.66"/>
<polygon fill="midnightblue" stroke="midnightblue" points="725.51,-197.51 722.01,-187.51 718.51,-197.51 725.51,-197.51"/>
</g>
<!-- Node54&#45;&gt;Node5 -->
<g id="edge37" class="edge">
<title>Node54&#45;&gt;Node5</title>
<path fill="none" stroke="midnightblue" d="M725.99,-168.22C735.38,-147.29 758.43,-94.8 762.01,-76 763.68,-67.27 767.66,-62.86 762.01,-56 741.81,-31.47 660.63,-20.12 600.4,-15"/>
<polygon fill="midnightblue" stroke="midnightblue" points="600.43,-11.49 590.18,-14.17 599.86,-18.47 600.43,-11.49"/>
</g>
<!-- Node54&#45;&gt;Node14 -->
<g id="edge38" class="edge">
<title>Node54&#45;&gt;Node14</title>
<path fill="none" stroke="midnightblue" d="M695.07,-168.46C633.45,-148.93 482.15,-100.96 411.93,-78.7"/>
<polygon fill="midnightblue" stroke="midnightblue" points="412.77,-75.3 402.18,-75.61 410.65,-81.97 412.77,-75.3"/>
</g>
<!-- Node54&#45;&gt;Node35 -->
<g id="edge39" class="edge">
<title>Node54&#45;&gt;Node35</title>
<path fill="none" stroke="midnightblue" d="M737.76,-168.32C753.33,-159.74 777.39,-146.49 795.47,-136.52"/>
<polygon fill="midnightblue" stroke="midnightblue" points="797.24,-139.55 804.31,-131.65 793.86,-133.42 797.24,-139.55"/>
</g>
<!-- Node35&#45;&gt;Node5 -->
<g id="edge40" class="edge">
<title>Node35&#45;&gt;Node5</title>
<path fill="none" stroke="midnightblue" d="M819.33,-112.28C817.72,-98.11 812.41,-70.25 795.01,-56 765.96,-32.19 668.17,-20.49 600.39,-15.11"/>
<polygon fill="midnightblue" stroke="midnightblue" points="600.44,-11.6 590.21,-14.33 599.91,-18.58 600.44,-11.6"/>
</g>
<!-- Node35&#45;&gt;Node14 -->
<g id="edge41" class="edge">
<title>Node35&#45;&gt;Node14</title>
<path fill="none" stroke="midnightblue" d="M760,-113.72C681.27,-104.16 542.86,-87.37 455.21,-76.73"/>
<polygon fill="midnightblue" stroke="midnightblue" points="455.4,-73.23 445.05,-75.5 454.55,-80.18 455.4,-73.23"/>
</g>
<!-- Node35&#45;&gt;Node31 -->
<g id="edge42" class="edge">
<title>Node35&#45;&gt;Node31</title>
<path fill="none" stroke="midnightblue" d="M833.03,-112.32C845.55,-103.98 864.7,-91.21 879.49,-81.35"/>
<polygon fill="midnightblue" stroke="midnightblue" points="881.65,-84.11 888.03,-75.65 877.77,-78.29 881.65,-84.11"/>
</g>
<!-- Node31&#45;&gt;Node5 -->
<g id="edge43" class="edge">
<title>Node31&#45;&gt;Node5</title>
<path fill="none" stroke="midnightblue" d="M847.36,-57.15C782.11,-47.6 671.87,-31.47 600.54,-21.03"/>
<polygon fill="midnightblue" stroke="midnightblue" points="600.71,-17.52 590.3,-19.53 599.69,-24.44 600.71,-17.52"/>
</g>
</g>
</svg>
        <g id="navigator" transform="translate(0 0)" fill="#404254">
                <rect fill="#f2f5e9" fill-opacity="0.5" stroke="#606060" stroke-width=".5" x="0" y="0" width="60" height="60"/>
                <use id="zoomplus" xlink:href="#zoomPlus" x="17" y="9" onmousedown="handleZoom(evt,'in')"/>
                <use id="zoomminus" xlink:href="#zoomMin" x="42" y="9" onmousedown="handleZoom(evt,'out')"/>
                <use id="reset" xlink:href="#resetDef" x="30" y="36" onmousedown="handleReset()"/>
                <g id="arrowUp" xlink:href="#dirArrow" transform="translate(30 24)" onmousedown="handlePan(0,-1)">
                  <use xlink:href="#rim" fill="#404040">
                        <set attributeName="fill" to="#808080" begin="arrowUp.mouseover" end="arrowUp.mouseout"/>
                  </use>
                  <path fill="none" stroke="white" stroke-width="1.5" d="M0,-3.0v7 M-2.5,-0.5L0,-3.0L2.5,-0.5"/>
                </g>
                <g id="arrowRight" xlink:href="#dirArrow" transform="rotate(90) translate(36 -43)" onmousedown="handlePan(1,0)">
                  <use xlink:href="#rim" fill="#404040">
                        <set attributeName="fill" to="#808080" begin="arrowRight.mouseover" end="arrowRight.mouseout"/>
                  </use>
                  <path fill="none" stroke="white" stroke-width="1.5" d="M0,-3.0v7 M-2.5,-0.5L0,-3.0L2.5,-0.5"/>
                </g>
                <g id="arrowDown" xlink:href="#dirArrow" transform="rotate(180) translate(-30 -48)" onmousedown="handlePan(0,1)">
                  <use xlink:href="#rim" fill="#404040">
                        <set attributeName="fill" to="#808080" begin="arrowDown.mouseover" end="arrowDown.mouseout"/>
                  </use>
                  <path fill="none" stroke="white" stroke-width="1.5" d="M0,-3.0v7 M-2.5,-0.5L0,-3.0L2.5,-0.5"/>
                </g>
                <g id="arrowLeft" xlink:href="#dirArrow" transform="rotate(270) translate(-36 17)" onmousedown="handlePan(-1,0)">
                  <use xlink:href="#rim" fill="#404040">
                        <set attributeName="fill" to="#808080" begin="arrowLeft.mouseover" end="arrowLeft.mouseout"/>
                  </use>
                  <path fill="none" stroke="white" stroke-width="1.5" d="M0,-3.0v7 M-2.5,-0.5L0,-3.0L2.5,-0.5"/>
                </g>
        </g>
        <svg viewBox="0 0 15 15" width="100%" height="30px" preserveAspectRatio="xMaxYMin meet">
         <g id="arrow_out" transform="scale(0.3 0.3)">
          <a xlink:href="ImplicitSurfChem_8cpp__incl_org.svg" target="_base">
           <rect id="button" ry="5" rx="5" y="6" x="6" height="38" width="38"
                fill="#f2f5e9" fill-opacity="0.5" stroke="#606060" stroke-width="1.0"/>
           <path id="arrow"
             d="M 11.500037,31.436501 C 11.940474,20.09759 22.043105,11.32322 32.158766,21.979434 L 37.068811,17.246167 C 37.068811,17.246167 37.088388,32 37.088388,32 L 22.160133,31.978069 C 22.160133,31.978069 26.997745,27.140456 26.997745,27.140456 C 18.528582,18.264221 13.291696,25.230495 11.500037,31.436501 z"
             style="fill:#404040;"/>
          </a>
         </g>
        </svg>
</svg>
