<?xml version="1.0" encoding="UTF-8" standalone="no"?>
<!DOCTYPE svg PUBLIC "-//W3C//DTD SVG 1.1//EN"
 "http://www.w3.org/Graphics/SVG/1.1/DTD/svg11.dtd">
<!-- Generated by graphviz version 2.43.0 (0)
 -->
<!-- Title: ConnectorFactory.cpp Pages: 1 -->
<!--zoomable 357 -->

<svg id="main" version="1.1" xmlns="http://www.w3.org/2000/svg" xmlns:xlink="http://www.w3.org/1999/xlink" xml:space="preserve" onload="init(evt)">
<style type="text/css"><![CDATA[
.node, .edge {opacity: 0.7;}
.node.selected, .edge.selected {opacity: 1;}
.edge:hover path { stroke: red; }
.edge:hover polygon { stroke: red; fill: red; }
]]></style>

<defs>
  <circle id="rim" cx="0" cy="0" r="7"/>
  <circle id="rim2" cx="0" cy="0" r="3.5"/>
  <g id="zoomPlus">
    <use xlink:href="#rim" fill="#404040"><set attributeName="fill" to="#808080" begin="zoomplus.mouseover" end="zoomplus.mouseout"/></use>
    <path d="M-4,0h8M0,-4v8" fill="none" stroke="white" stroke-width="1.5" pointer-events="none"/>
  </g>
  <g id="zoomMin">
    <use xlink:href="#rim" fill="#404040"><set attributeName="fill" to="#808080" begin="zoomminus.mouseover" end="zoomminus.mouseout"/></use>
    <path d="M-4,0h8" fill="none" stroke="white" stroke-width="1.5" pointer-events="none"/>
  </g>
  <g id="arrowUp" transform="translate(30 24)">
    <use xlink:href="#rim"/>
    <path pointer-events="none" fill="none" stroke="white" stroke-width="1.5" d="M0,-3.0v7 M-2.5,-0.5L0,-3.0L2.5,-0.5"/>
  </g>
  <g id="arrowRight" transform="rotate(90) translate(36 -43)">
    <use xlink:href="#rim"/>
    <path pointer-events="none" fill="none" stroke="white" stroke-width="1.5" d="M0,-3.0v7 M-2.5,-0.5L0,-3.0L2.5,-0.5"/>
  </g>
  <g id="arrowDown" transform="rotate(180) translate(-30 -48)">
    <use xlink:href="#rim"/>
    <path pointer-events="none" fill="none" stroke="white" stroke-width="1.5" d="M0,-3.0v7 M-2.5,-0.5L0,-3.0L2.5,-0.5"/>
  </g>
  <g id="arrowLeft" transform="rotate(270) translate(-36 17)">
    <use xlink:href="#rim"/>
    <path pointer-events="none" fill="none" stroke="white" stroke-width="1.5" d="M0,-3.0v7 M-2.5,-0.5L0,-3.0L2.5,-0.5"/>
  </g>
  <g id="resetDef">
    <use xlink:href="#rim2" fill="#404040"><set attributeName="fill" to="#808080" begin="reset.mouseover" end="reset.mouseout"/></use>
  </g>
</defs>
<script type="application/ecmascript">
var viewWidth = 688;
var viewHeight = 357;
var sectionId = 'dynsection-0';
</script>
<script type="application/ecmascript" xlink:href="../../svg.min.js"/>
<svg id="graph" class="graph">
<g id="viewport">
<title>ConnectorFactory.cpp</title>
<!-- Node1 -->
<g id="Node000001" class="node">
<title>Node1</title>
<g id="a_Node000001"><a xlink:title=" ">
<polygon fill="#999999" stroke="#666666" points="457,-349 337,-349 337,-330 457,-330 457,-349"/>
<text text-anchor="middle" x="397" y="-337" font-family="Helvetica,sans-Serif" font-size="10.00">ConnectorFactory.cpp</text>
</a>
</g>
</g>
<!-- Node2 -->
<g id="Node000002" class="node">
<title>Node2</title>
<g id="a_Node000002"><a xlink:href="../../d5/d93/ConnectorFactory_8h.html" target="_top" xlink:title=" ">
<polygon fill="white" stroke="#666666" points="180,-239 0,-239 0,-220 180,-220 180,-239"/>
<text text-anchor="middle" x="90" y="-227" font-family="Helvetica,sans-Serif" font-size="10.00">cantera/zeroD/ConnectorFactory.h</text>
</a>
</g>
</g>
<!-- Node1&#45;&gt;Node2 -->
<g id="edge1_Node000001_Node000002" class="edge">
<title>Node1&#45;&gt;Node2</title>
<g id="a_edge1_Node000001_Node000002"><a xlink:title=" ">
<path fill="none" stroke="#63b8ff" d="M372.65,-329.94C318.25,-310.79 186.68,-264.51 124.13,-242.51"/>
<polygon fill="#63b8ff" stroke="#63b8ff" points="124.94,-239.08 114.35,-239.07 122.62,-245.69 124.94,-239.08"/>
</a>
</g>
</g>
<!-- Node25 -->
<g id="Node000025" class="node">
<title>Node25</title>
<g id="a_Node000025"><a xlink:href="../../d5/dff/FlowDevice_8h.html" target="_top" xlink:title=" ">
<polygon fill="white" stroke="#666666" points="644,-239 490,-239 490,-220 644,-220 644,-239"/>
<text text-anchor="middle" x="567" y="-227" font-family="Helvetica,sans-Serif" font-size="10.00">cantera/zeroD/FlowDevice.h</text>
</a>
</g>
</g>
<!-- Node1&#45;&gt;Node25 -->
<g id="edge16_Node000001_Node000025" class="edge">
<title>Node1&#45;&gt;Node25</title>
<g id="a_edge16_Node000001_Node000025"><a xlink:title=" ">
<path fill="none" stroke="#63b8ff" d="M457.26,-334.22C488.1,-329.01 524.08,-317.82 548,-294 559.84,-282.21 564.36,-263.37 566.06,-249.27"/>
<polygon fill="#63b8ff" stroke="#63b8ff" points="569.55,-249.45 566.9,-239.2 562.58,-248.87 569.55,-249.45"/>
</a>
</g>
</g>
<!-- Node26 -->
<g id="Node000026" class="node">
<title>Node26</title>
<g id="a_Node000026"><a xlink:href="../../de/d80/flowControllers_8h.html" target="_top" xlink:title="Some flow devices derived from class FlowDevice.">
<polygon fill="white" stroke="#666666" points="539,-294 369,-294 369,-275 539,-275 539,-294"/>
<text text-anchor="middle" x="454" y="-282" font-family="Helvetica,sans-Serif" font-size="10.00">cantera/zeroD/flowControllers.h</text>
</a>
</g>
</g>
<!-- Node1&#45;&gt;Node26 -->
<g id="edge21_Node000001_Node000026" class="edge">
<title>Node1&#45;&gt;Node26</title>
<g id="a_edge21_Node000001_Node000026"><a xlink:title=" ">
<path fill="none" stroke="#63b8ff" d="M406.16,-329.98C414.5,-322.23 427.03,-310.58 437.18,-301.14"/>
<polygon fill="#63b8ff" stroke="#63b8ff" points="439.74,-303.54 444.68,-294.17 434.97,-298.42 439.74,-303.54"/>
</a>
</g>
</g>
<!-- Node27 -->
<g id="Node000027" class="node">
<title>Node27</title>
<g id="a_Node000027"><a xlink:href="../../da/dcb/Wall_8h.html" target="_top" xlink:title="Header file for base class WallBase.">
<polygon fill="white" stroke="#666666" points="403,-239 285,-239 285,-220 403,-220 403,-239"/>
<text text-anchor="middle" x="344" y="-227" font-family="Helvetica,sans-Serif" font-size="10.00">cantera/zeroD/Wall.h</text>
</a>
</g>
</g>
<!-- Node1&#45;&gt;Node27 -->
<g id="edge24_Node000001_Node000027" class="edge">
<title>Node1&#45;&gt;Node27</title>
<g id="a_edge24_Node000001_Node000027"><a xlink:title=" ">
<path fill="none" stroke="#63b8ff" d="M387.72,-329.83C379.29,-321.44 367.1,-307.97 360,-294 352.83,-279.89 348.73,-262.35 346.47,-249.28"/>
<polygon fill="#63b8ff" stroke="#63b8ff" points="349.9,-248.51 344.94,-239.14 342.98,-249.55 349.9,-248.51"/>
</a>
</g>
</g>
<!-- Node3 -->
<g id="Node000003" class="node">
<title>Node3</title>
<g id="a_Node000003"><a xlink:href="../../d6/dd5/FactoryBase_8h.html" target="_top" xlink:title="File contains the FactoryBase class declarations.">
<polygon fill="white" stroke="#666666" points="172.5,-184 21.5,-184 21.5,-165 172.5,-165 172.5,-184"/>
<text text-anchor="middle" x="97" y="-172" font-family="Helvetica,sans-Serif" font-size="10.00">cantera/base/FactoryBase.h</text>
</a>
</g>
</g>
<!-- Node2&#45;&gt;Node3 -->
<g id="edge2_Node000002_Node000003" class="edge">
<title>Node2&#45;&gt;Node3</title>
<g id="a_edge2_Node000002_Node000003"><a xlink:title=" ">
<path fill="none" stroke="#63b8ff" d="M91.16,-219.75C92.07,-212.8 93.39,-202.85 94.54,-194.13"/>
<polygon fill="#63b8ff" stroke="#63b8ff" points="98.03,-194.46 95.87,-184.09 91.09,-193.54 98.03,-194.46"/>
</a>
</g>
</g>
<!-- Node24 -->
<g id="Node000024" class="node">
<title>Node24</title>
<g id="a_Node000024"><a xlink:href="../../da/d19/ConnectorNode_8h.html" target="_top" xlink:title=" ">
<polygon fill="white" stroke="#666666" points="653,-184 481,-184 481,-165 653,-165 653,-184"/>
<text text-anchor="middle" x="567" y="-172" font-family="Helvetica,sans-Serif" font-size="10.00">cantera/zeroD/ConnectorNode.h</text>
</a>
</g>
</g>
<!-- Node2&#45;&gt;Node24 -->
<g id="edge13_Node000002_Node000024" class="edge">
<title>Node2&#45;&gt;Node24</title>
<g id="a_edge13_Node000002_Node000024"><a xlink:title=" ">
<path fill="none" stroke="#63b8ff" d="M166.64,-219.98C252.22,-210.48 390.45,-195.12 480.02,-185.16"/>
<polygon fill="#63b8ff" stroke="#63b8ff" points="480.6,-188.62 490.16,-184.04 479.83,-181.66 480.6,-188.62"/>
</a>
</g>
</g>
<!-- Node4 -->
<g id="Node000004" class="node">
<title>Node4</title>
<g id="a_Node000004"><a xlink:title=" ">
<polygon fill="#e0e0e0" stroke="#999999" points="59,-129 11,-129 11,-110 59,-110 59,-129"/>
<text text-anchor="middle" x="35" y="-117" font-family="Helvetica,sans-Serif" font-size="10.00">mutex</text>
</a>
</g>
</g>
<!-- Node3&#45;&gt;Node4 -->
<g id="edge3_Node000003_Node000004" class="edge">
<title>Node3&#45;&gt;Node4</title>
<g id="a_edge3_Node000003_Node000004"><a xlink:title=" ">
<path fill="none" stroke="#63b8ff" d="M87.04,-164.98C77.87,-157.15 64.06,-145.34 52.97,-135.86"/>
<polygon fill="#63b8ff" stroke="#63b8ff" points="55.02,-133.01 45.14,-129.17 50.47,-138.33 55.02,-133.01"/>
</a>
</g>
</g>
<!-- Node5 -->
<g id="Node000005" class="node">
<title>Node5</title>
<g id="a_Node000005"><a xlink:title=" ">
<polygon fill="#e0e0e0" stroke="#999999" points="170.5,-129 77.5,-129 77.5,-110 170.5,-110 170.5,-129"/>
<text text-anchor="middle" x="124" y="-117" font-family="Helvetica,sans-Serif" font-size="10.00">unordered_map</text>
</a>
</g>
</g>
<!-- Node3&#45;&gt;Node5 -->
<g id="edge4_Node000003_Node000005" class="edge">
<title>Node3&#45;&gt;Node5</title>
<g id="a_edge4_Node000003_Node000005"><a xlink:title=" ">
<path fill="none" stroke="#63b8ff" d="M101.46,-164.75C105.12,-157.57 110.41,-147.18 114.95,-138.27"/>
<polygon fill="#63b8ff" stroke="#63b8ff" points="118.2,-139.59 119.62,-129.09 111.97,-136.41 118.2,-139.59"/>
</a>
</g>
</g>
<!-- Node6 -->
<g id="Node000006" class="node">
<title>Node6</title>
<g id="a_Node000006"><a xlink:href="../../db/d98/ctexceptions_8h.html" target="_top" xlink:title="Definitions for the classes that are thrown when Cantera experiences an error condition (also contain...">
<polygon fill="white" stroke="#666666" points="384,-129 230,-129 230,-110 384,-110 384,-129"/>
<text text-anchor="middle" x="307" y="-117" font-family="Helvetica,sans-Serif" font-size="10.00">cantera/base/ctexceptions.h</text>
</a>
</g>
</g>
<!-- Node3&#45;&gt;Node6 -->
<g id="edge5_Node000003_Node000006" class="edge">
<title>Node3&#45;&gt;Node6</title>
<g id="a_edge5_Node000003_Node000006"><a xlink:title=" ">
<path fill="none" stroke="#63b8ff" d="M130.74,-164.98C166.68,-155.91 223.72,-141.52 263.13,-131.57"/>
<polygon fill="#63b8ff" stroke="#63b8ff" points="264.16,-134.92 273,-129.08 262.44,-128.14 264.16,-134.92"/>
</a>
</g>
</g>
<!-- Node23 -->
<g id="Node000023" class="node">
<title>Node23</title>
<g id="a_Node000023"><a xlink:href="../../d2/d49/global_8h.html" target="_top" xlink:title="This file contains definitions for utility functions and text for modules, inputfiles and logging,...">
<polygon fill="white" stroke="#666666" points="534,-129 412,-129 412,-110 534,-110 534,-129"/>
<text text-anchor="middle" x="473" y="-117" font-family="Helvetica,sans-Serif" font-size="10.00">cantera/base/global.h</text>
</a>
</g>
</g>
<!-- Node3&#45;&gt;Node23 -->
<g id="edge10_Node000003_Node000023" class="edge">
<title>Node3&#45;&gt;Node23</title>
<g id="a_edge10_Node000003_Node000023"><a xlink:title=" ">
<path fill="none" stroke="#63b8ff" d="M157.41,-164.98C224.19,-155.57 331.63,-140.43 402.28,-130.47"/>
<polygon fill="#63b8ff" stroke="#63b8ff" points="403.01,-133.9 412.43,-129.04 402.04,-126.97 403.01,-133.9"/>
</a>
</g>
</g>
<!-- Node7 -->
<g id="Node000007" class="node">
<title>Node7</title>
<g id="a_Node000007"><a xlink:href="../../d9/ddc/ct__defs_8h.html" target="_top" xlink:title="This file contains definitions of constants, types and terms that are used in internal routines and a...">
<polygon fill="#fff0f0" stroke="red" points="559.5,-19 498.5,-19 498.5,0 559.5,0 559.5,-19"/>
<text text-anchor="middle" x="529" y="-7" font-family="Helvetica,sans-Serif" font-size="10.00">ct_defs.h</text>
</a>
</g>
</g>
<!-- Node6&#45;&gt;Node7 -->
<g id="edge6_Node000006_Node000007" class="edge">
<title>Node6&#45;&gt;Node7</title>
<g id="a_edge6_Node000006_Node000007"><a xlink:title=" ">
<path fill="none" stroke="#63b8ff" d="M314.92,-109.82C327.74,-96.24 354.42,-70 382,-55 415.67,-36.68 457.88,-24.9 488.42,-18.1"/>
<polygon fill="#63b8ff" stroke="#63b8ff" points="489.26,-21.5 498.3,-15.98 487.79,-14.65 489.26,-21.5"/>
</a>
</g>
</g>
<!-- Node18 -->
<g id="Node000018" class="node">
<title>Node18</title>
<g id="a_Node000018"><a xlink:href="../../db/def/fmt_8h.html" target="_top" xlink:title="Wrapper for either system&#45;installed or local headers for fmt.">
<polygon fill="#fff0f0" stroke="red" points="500.5,-74 391.5,-74 391.5,-55 500.5,-55 500.5,-74"/>
<text text-anchor="middle" x="446" y="-62" font-family="Helvetica,sans-Serif" font-size="10.00">cantera/base/fmt.h</text>
</a>
</g>
</g>
<!-- Node6&#45;&gt;Node18 -->
<g id="edge7_Node000006_Node000018" class="edge">
<title>Node6&#45;&gt;Node18</title>
<g id="a_edge7_Node000006_Node000018"><a xlink:title=" ">
<path fill="none" stroke="#63b8ff" d="M329.33,-109.98C352.2,-101.27 387.96,-87.63 413.86,-77.75"/>
<polygon fill="#63b8ff" stroke="#63b8ff" points="415.16,-81 423.26,-74.17 412.67,-74.46 415.16,-81"/>
</a>
</g>
</g>
<!-- Node22 -->
<g id="Node000022" class="node">
<title>Node22</title>
<g id="a_Node000022"><a xlink:title=" ">
<polygon fill="#e0e0e0" stroke="#999999" points="334.5,-74 269.5,-74 269.5,-55 334.5,-55 334.5,-74"/>
<text text-anchor="middle" x="302" y="-62" font-family="Helvetica,sans-Serif" font-size="10.00">exception</text>
</a>
</g>
</g>
<!-- Node6&#45;&gt;Node22 -->
<g id="edge9_Node000006_Node000022" class="edge">
<title>Node6&#45;&gt;Node22</title>
<g id="a_edge9_Node000006_Node000022"><a xlink:title=" ">
<path fill="none" stroke="#63b8ff" d="M306.17,-109.75C305.52,-102.8 304.58,-92.85 303.76,-84.13"/>
<polygon fill="#63b8ff" stroke="#63b8ff" points="307.23,-83.72 302.81,-74.09 300.27,-84.37 307.23,-83.72"/>
</a>
</g>
</g>
<!-- Node18&#45;&gt;Node7 -->
<g id="edge8_Node000018_Node000007" class="edge">
<title>Node18&#45;&gt;Node7</title>
<g id="a_edge8_Node000018_Node000007"><a xlink:title=" ">
<path fill="none" stroke="#63b8ff" d="M459.34,-54.98C472.09,-46.84 491.55,-34.41 506.67,-24.76"/>
<polygon fill="#63b8ff" stroke="#63b8ff" points="508.88,-27.5 515.42,-19.17 505.11,-21.6 508.88,-27.5"/>
</a>
</g>
</g>
<!-- Node23&#45;&gt;Node7 -->
<g id="edge11_Node000023_Node000007" class="edge">
<title>Node23&#45;&gt;Node7</title>
<g id="a_edge11_Node000023_Node000007"><a xlink:title=" ">
<path fill="none" stroke="#63b8ff" d="M481.83,-109.69C489.9,-101.2 501.67,-87.66 509,-74 516.61,-59.82 521.86,-42.29 525.06,-29.24"/>
<polygon fill="#63b8ff" stroke="#63b8ff" points="528.56,-29.65 527.36,-19.12 521.73,-28.1 528.56,-29.65"/>
</a>
</g>
</g>
<!-- Node23&#45;&gt;Node18 -->
<g id="edge12_Node000023_Node000018" class="edge">
<title>Node23&#45;&gt;Node18</title>
<g id="a_edge12_Node000023_Node000018"><a xlink:title=" ">
<path fill="none" stroke="#63b8ff" d="M468.54,-109.75C464.88,-102.57 459.59,-92.18 455.05,-83.27"/>
<polygon fill="#63b8ff" stroke="#63b8ff" points="458.03,-81.41 450.38,-74.09 451.8,-84.59 458.03,-81.41"/>
</a>
</g>
</g>
<!-- Node24&#45;&gt;Node7 -->
<g id="edge14_Node000024_Node000007" class="edge">
<title>Node24&#45;&gt;Node7</title>
<g id="a_edge14_Node000024_Node000007"><a xlink:title=" ">
<path fill="none" stroke="#63b8ff" d="M564.96,-164.74C559,-139.2 541.57,-64.43 533.37,-29.23"/>
<polygon fill="#63b8ff" stroke="#63b8ff" points="536.73,-28.25 531.05,-19.31 529.92,-29.84 536.73,-28.25"/>
</a>
</g>
</g>
<!-- Node24&#45;&gt;Node23 -->
<g id="edge15_Node000024_Node000023" class="edge">
<title>Node24&#45;&gt;Node23</title>
<g id="a_edge15_Node000024_Node000023"><a xlink:title=" ">
<path fill="none" stroke="#63b8ff" d="M551.9,-164.98C537.18,-156.69 514.58,-143.94 497.33,-134.22"/>
<polygon fill="#63b8ff" stroke="#63b8ff" points="498.81,-131.03 488.38,-129.17 495.37,-137.13 498.81,-131.03"/>
</a>
</g>
</g>
<!-- Node25&#45;&gt;Node6 -->
<g id="edge19_Node000025_Node000006" class="edge">
<title>Node25&#45;&gt;Node6</title>
<g id="a_edge19_Node000025_Node000006"><a xlink:title=" ">
<path fill="none" stroke="#63b8ff" d="M548.37,-219.94C529.16,-211.08 498.39,-196.78 472,-184 455,-175.77 451.39,-172.36 434,-165 404.37,-152.46 369.86,-140.53 344.31,-132.19"/>
<polygon fill="#63b8ff" stroke="#63b8ff" points="345.22,-128.81 334.63,-129.06 343.07,-135.47 345.22,-128.81"/>
</a>
</g>
</g>
<!-- Node25&#45;&gt;Node7 -->
<g id="edge17_Node000025_Node000007" class="edge">
<title>Node25&#45;&gt;Node7</title>
<g id="a_edge17_Node000025_Node000007"><a xlink:title=" ">
<path fill="none" stroke="#63b8ff" d="M617.95,-219.96C652.58,-211.37 690.09,-194.95 678,-165 652.26,-101.24 586.22,-49.13 551.35,-25"/>
<polygon fill="#63b8ff" stroke="#63b8ff" points="553.04,-21.92 542.8,-19.21 549.12,-27.72 553.04,-21.92"/>
</a>
</g>
</g>
<!-- Node25&#45;&gt;Node23 -->
<g id="edge18_Node000025_Node000023" class="edge">
<title>Node25&#45;&gt;Node23</title>
<g id="a_edge18_Node000025_Node000023"><a xlink:title=" ">
<path fill="none" stroke="#63b8ff" d="M601.87,-219.95C636.71,-209.74 682.38,-190.74 662,-165 647.25,-146.37 591.43,-134.77 544.25,-128.1"/>
<polygon fill="#63b8ff" stroke="#63b8ff" points="544.71,-124.63 534.33,-126.75 543.77,-131.56 544.71,-124.63"/>
</a>
</g>
</g>
<!-- Node25&#45;&gt;Node24 -->
<g id="edge20_Node000025_Node000024" class="edge">
<title>Node25&#45;&gt;Node24</title>
<g id="a_edge20_Node000025_Node000024"><a xlink:title=" ">
<path fill="none" stroke="#63b8ff" d="M567,-219.75C567,-212.8 567,-202.85 567,-194.13"/>
<polygon fill="#63b8ff" stroke="#63b8ff" points="570.5,-194.09 567,-184.09 563.5,-194.09 570.5,-194.09"/>
</a>
</g>
</g>
<!-- Node26&#45;&gt;Node6 -->
<g id="edge23_Node000026_Node000006" class="edge">
<title>Node26&#45;&gt;Node6</title>
<g id="a_edge23_Node000026_Node000006"><a xlink:title=" ">
<path fill="none" stroke="#63b8ff" d="M368.55,-277.75C336.59,-271.85 301.82,-260.51 276,-239 249.33,-216.78 235.91,-196.26 251,-165 257.22,-152.12 269.18,-141.82 280.46,-134.38"/>
<polygon fill="#63b8ff" stroke="#63b8ff" points="282.51,-137.23 289.23,-129.04 278.87,-131.25 282.51,-137.23"/>
</a>
</g>
</g>
<!-- Node26&#45;&gt;Node25 -->
<g id="edge22_Node000026_Node000025" class="edge">
<title>Node26&#45;&gt;Node25</title>
<g id="a_edge22_Node000026_Node000025"><a xlink:title=" ">
<path fill="none" stroke="#63b8ff" d="M472.16,-274.98C490.25,-266.5 518.28,-253.35 539.19,-243.54"/>
<polygon fill="#63b8ff" stroke="#63b8ff" points="540.95,-246.59 548.51,-239.17 537.97,-240.25 540.95,-246.59"/>
</a>
</g>
</g>
<!-- Node27&#45;&gt;Node6 -->
<g id="edge25_Node000027_Node000006" class="edge">
<title>Node27&#45;&gt;Node6</title>
<g id="a_edge25_Node000027_Node000006"><a xlink:title=" ">
<path fill="none" stroke="#63b8ff" d="M308.95,-219.88C290.35,-213.33 269.1,-202.24 258,-184 247.15,-166.17 265.8,-147.45 283.13,-135"/>
<polygon fill="#63b8ff" stroke="#63b8ff" points="285.56,-137.58 291.9,-129.09 281.65,-131.77 285.56,-137.58"/>
</a>
</g>
</g>
<!-- Node27&#45;&gt;Node24 -->
<g id="edge29_Node000027_Node000024" class="edge">
<title>Node27&#45;&gt;Node24</title>
<g id="a_edge29_Node000027_Node000024"><a xlink:title=" ">
<path fill="none" stroke="#63b8ff" d="M379.83,-219.98C418.16,-210.87 479.08,-196.4 520.95,-186.45"/>
<polygon fill="#63b8ff" stroke="#63b8ff" points="521.97,-189.8 530.89,-184.08 520.35,-182.99 521.97,-189.8"/>
</a>
</g>
</g>
<!-- Node28 -->
<g id="Node000028" class="node">
<title>Node28</title>
<g id="a_Node000028"><a xlink:href="../../d6/df1/ReactorBase_8h.html" target="_top" xlink:title=" ">
<polygon fill="white" stroke="#666666" points="425,-184 267,-184 267,-165 425,-165 425,-184"/>
<text text-anchor="middle" x="346" y="-172" font-family="Helvetica,sans-Serif" font-size="10.00">cantera/zeroD/ReactorBase.h</text>
</a>
</g>
</g>
<!-- Node27&#45;&gt;Node28 -->
<g id="edge26_Node000027_Node000028" class="edge">
<title>Node27&#45;&gt;Node28</title>
<g id="a_edge26_Node000027_Node000028"><a xlink:title=" ">
<path fill="none" stroke="#63b8ff" d="M344.33,-219.75C344.59,-212.8 344.97,-202.85 345.3,-194.13"/>
<polygon fill="#63b8ff" stroke="#63b8ff" points="348.8,-194.21 345.68,-184.09 341.8,-193.95 348.8,-194.21"/>
</a>
</g>
</g>
<!-- Node28&#45;&gt;Node6 -->
<g id="edge28_Node000028_Node000006" class="edge">
<title>Node28&#45;&gt;Node6</title>
<g id="a_edge28_Node000028_Node000006"><a xlink:title=" ">
<path fill="none" stroke="#63b8ff" d="M339.56,-164.75C334.11,-157.34 326.14,-146.5 319.44,-137.41"/>
<polygon fill="#63b8ff" stroke="#63b8ff" points="322.07,-135.07 313.32,-129.09 316.43,-139.22 322.07,-135.07"/>
</a>
</g>
</g>
<!-- Node28&#45;&gt;Node23 -->
<g id="edge27_Node000028_Node000023" class="edge">
<title>Node28&#45;&gt;Node23</title>
<g id="a_edge27_Node000028_Node000023"><a xlink:title=" ">
<path fill="none" stroke="#63b8ff" d="M366.4,-164.98C387.02,-156.38 419.11,-142.99 442.69,-133.15"/>
<polygon fill="#63b8ff" stroke="#63b8ff" points="444.34,-136.25 452.22,-129.17 441.65,-129.79 444.34,-136.25"/>
</a>
</g>
</g>
</g>
</svg>

<g id="navigator" transform="translate(0 0)" fill="#404254">
  <rect fill="#f2f5e9" fill-opacity="0.5" stroke="#606060" stroke-width=".5" x="0" y="0" width="60" height="60"/>
  <use id="zoomplus" xlink:href="#zoomPlus" x="17" y="9" onmousedown="handleZoom(evt,'in')"/>
  <use id="zoomminus" xlink:href="#zoomMin" x="42" y="9" onmousedown="handleZoom(evt,'out')"/>
  <use id="reset" xlink:href="#resetDef" x="30" y="36" onmousedown="handleReset()"/>
   <use id="arrowup" xlink:href="#arrowUp" x="0" y="0" onmousedown="handlePan(0,-1)"/>
  <use id="arrowright" xlink:href="#arrowRight" x="0" y="0" onmousedown="handlePan(1,0)"/>
  <use id="arrowdown" xlink:href="#arrowDown" x="0" y="0" onmousedown="handlePan(0,1)"/>
  <use id="arrowleft" xlink:href="#arrowLeft" x="0" y="0" onmousedown="handlePan(-1,0)"/>
</g>
<svg viewBox="0 0 15 15" width="100%" height="30px" preserveAspectRatio="xMaxYMin meet">
 <g id="arrow_out" transform="scale(0.3 0.3)">
  <a xlink:href="ConnectorFactory_8cpp__incl_org.svg" target="_base">
   <rect id="button" ry="5" rx="5" y="6" x="6" height="38" width="38"
        fill="#f2f5e9" fill-opacity="0.5" stroke="#606060" stroke-width="1.0"/>
   <path id="arrow"
     d="M 11.500037,31.436501 C 11.940474,20.09759 22.043105,11.32322 32.158766,21.979434 L 37.068811,17.246167 C 37.068811,17.246167 37.088388,32 37.088388,32 L 22.160133,31.978069 C 22.160133,31.978069 26.997745,27.140456 26.997745,27.140456 C 18.528582,18.264221 13.291696,25.230495 11.500037,31.436501 z"
     style="fill:#404040;"/>
  </a>
 </g>
</svg>

<style type='text/css'>
<![CDATA[
[data-mouse-over-selected='false'] { opacity: 0.7; }
[data-mouse-over-selected='true']  { opacity: 1.0; }
]]>
</style>
<script type="application/ecmascript"><![CDATA[
document.addEventListener('DOMContentLoaded', (event) => {
  highlightEdges();
  highlightAdjacentNodes();
});
]]></script>
</svg>
