<?xml version="1.0" encoding="UTF-8" standalone="no"?>
<!DOCTYPE svg PUBLIC "-//W3C//DTD SVG 1.1//EN"
 "http://www.w3.org/Graphics/SVG/1.1/DTD/svg11.dtd">
<!-- Generated by graphviz version 2.50.0 (0)
 -->
<!-- Title: DustyGasTransport Pages: 1 -->
<svg width="322pt" height="309pt"
 viewBox="0.00 0.00 321.50 309.00" xmlns="http://www.w3.org/2000/svg" xmlns:xlink="http://www.w3.org/1999/xlink">
<g id="graph0" class="graph" transform="scale(1 1) rotate(0) translate(4 305)">
<title>DustyGasTransport</title>
<polygon fill="white" stroke="transparent" points="-4,4 -4,-305 317.5,-305 317.5,4 -4,4"/>
<!-- Node1 -->
<g id="node1" class="node">
<title>Node1</title>
<g id="a_node1"><a xlink:title="Class DustyGasTransport implements the Dusty Gas model for transport in porous media.">
<polygon fill="#bfbfbf" stroke="black" points="177.5,-0.5 177.5,-19.5 279.5,-19.5 279.5,-0.5 177.5,-0.5"/>
<text text-anchor="middle" x="228.5" y="-7.5" font-family="Helvetica,sans-Serif" font-size="10.00">DustyGasTransport</text>
</a>
</g>
</g>
<!-- Node2 -->
<g id="node2" class="node">
<title>Node2</title>
<g id="a_node2"><a xlink:href="../../d2/dfb/classCantera_1_1Transport.html" target="_top" xlink:title="Base class for transport property managers.">
<polygon fill="white" stroke="black" points="158.5,-78.5 158.5,-97.5 216.5,-97.5 216.5,-78.5 158.5,-78.5"/>
<text text-anchor="middle" x="187.5" y="-85.5" font-family="Helvetica,sans-Serif" font-size="10.00">Transport</text>
</a>
</g>
</g>
<!-- Node2&#45;&gt;Node1 -->
<g id="edge1" class="edge">
<title>Node2&#45;&gt;Node1</title>
<path fill="none" stroke="midnightblue" d="M197.14,-69.12C205.56,-53.53 217.39,-31.59 223.85,-19.62"/>
<polygon fill="midnightblue" stroke="midnightblue" points="193.87,-67.82 192.2,-78.28 200.03,-71.14 193.87,-67.82"/>
</g>
<!-- Node3 -->
<g id="node3" class="node">
<title>Node3</title>
<g id="a_node3"><a xlink:href="../../dc/d38/classCantera_1_1ThermoPhase.html" target="_top" xlink:title="Base class for a phase with thermodynamic properties.">
<polygon fill="white" stroke="black" points="149,-145.5 149,-164.5 226,-164.5 226,-145.5 149,-145.5"/>
<text text-anchor="middle" x="187.5" y="-152.5" font-family="Helvetica,sans-Serif" font-size="10.00">ThermoPhase</text>
</a>
</g>
</g>
<!-- Node3&#45;&gt;Node2 -->
<g id="edge2" class="edge">
<title>Node3&#45;&gt;Node2</title>
<path fill="none" stroke="#9a32cd" stroke-dasharray="5,2" d="M187.5,-135.04C187.5,-122.67 187.5,-107.12 187.5,-97.63"/>
<polygon fill="#9a32cd" stroke="#9a32cd" points="184,-135.23 187.5,-145.23 191,-135.23 184,-135.23"/>
<text text-anchor="middle" x="211" y="-119" font-family="Helvetica,sans-Serif" font-size="10.00"> m_thermo</text>
</g>
<!-- Node4 -->
<g id="node4" class="node">
<title>Node4</title>
<g id="a_node4"><a xlink:href="../../d6/d0e/classCantera_1_1Phase.html" target="_top" xlink:title="Class Phase is the base class for phases of matter, managing the species and elements in a phase,...">
<polygon fill="white" stroke="black" points="72.5,-212.5 72.5,-231.5 116.5,-231.5 116.5,-212.5 72.5,-212.5"/>
<text text-anchor="middle" x="94.5" y="-219.5" font-family="Helvetica,sans-Serif" font-size="10.00">Phase</text>
</a>
</g>
</g>
<!-- Node4&#45;&gt;Node3 -->
<g id="edge3" class="edge">
<title>Node4&#45;&gt;Node3</title>
<path fill="none" stroke="midnightblue" d="M115.36,-206.42C133.75,-193.57 159.91,-175.28 175.16,-164.63"/>
<polygon fill="midnightblue" stroke="midnightblue" points="113.23,-203.64 107.04,-212.23 117.24,-209.37 113.23,-203.64"/>
</g>
<!-- Node5 -->
<g id="node5" class="node">
<title>Node5</title>
<g id="a_node5"><a xlink:href="../../d8/d89/classCantera_1_1ValueCache.html" target="_top" xlink:title=" ">
<polygon fill="white" stroke="black" points="0,-280.5 0,-299.5 69,-299.5 69,-280.5 0,-280.5"/>
<text text-anchor="middle" x="34.5" y="-287.5" font-family="Helvetica,sans-Serif" font-size="10.00">ValueCache</text>
</a>
</g>
</g>
<!-- Node5&#45;&gt;Node4 -->
<g id="edge4" class="edge">
<title>Node5&#45;&gt;Node4</title>
<path fill="none" stroke="#9a32cd" stroke-dasharray="5,2" d="M43.42,-271.45C47.48,-264.37 52.68,-256.38 58.5,-250 64.92,-242.96 73.4,-236.5 80.51,-231.66"/>
<polygon fill="#9a32cd" stroke="#9a32cd" points="40.31,-269.85 38.64,-280.31 46.47,-273.17 40.31,-269.85"/>
<text text-anchor="middle" x="80" y="-253" font-family="Helvetica,sans-Serif" font-size="10.00"> m_cache</text>
</g>
<!-- Node6 -->
<g id="node6" class="node">
<title>Node6</title>
<g id="a_node6"><a xlink:href="../../d1/d98/classCantera_1_1XML__Node.html" target="_top" xlink:title="Class XML_Node is a tree&#45;based representation of the contents of an XML file.">
<polygon fill="white" stroke="black" points="87,-280.5 87,-299.5 152,-299.5 152,-280.5 87,-280.5"/>
<text text-anchor="middle" x="119.5" y="-287.5" font-family="Helvetica,sans-Serif" font-size="10.00">XML_Node</text>
</a>
</g>
</g>
<!-- Node6&#45;&gt;Node4 -->
<g id="edge5" class="edge">
<title>Node6&#45;&gt;Node4</title>
<path fill="none" stroke="#9a32cd" stroke-dasharray="5,2" d="M112.61,-270.81C107.8,-258.12 101.61,-241.76 97.85,-231.84"/>
<polygon fill="#9a32cd" stroke="#9a32cd" points="109.42,-272.26 116.23,-280.37 115.96,-269.78 109.42,-272.26"/>
<text text-anchor="middle" x="125" y="-253" font-family="Helvetica,sans-Serif" font-size="10.00"> m_xml</text>
</g>
<!-- Node6&#45;&gt;Node6 -->
<g id="edge6" class="edge">
<title>Node6&#45;&gt;Node6</title>
<path fill="none" stroke="#9a32cd" stroke-dasharray="5,2" d="M162.14,-295.38C166.91,-294.37 170,-292.57 170,-290 170,-285.88 162.1,-283.76 152.04,-283.63"/>
<polygon fill="#9a32cd" stroke="#9a32cd" points="161.66,-291.91 152.04,-296.37 162.34,-298.88 161.66,-291.91"/>
<text text-anchor="middle" x="192" y="-293" font-family="Helvetica,sans-Serif" font-size="10.00"> m_parent</text>
<text text-anchor="middle" x="192" y="-282" font-family="Helvetica,sans-Serif" font-size="10.00">m_root</text>
</g>
<!-- Node7 -->
<g id="node7" class="node">
<title>Node7</title>
<g id="a_node7"><a xlink:href="../../d5/dda/classCantera_1_1MultiSpeciesThermo.html" target="_top" xlink:title="A species thermodynamic property manager for a phase.">
<polygon fill="white" stroke="black" points="134.5,-212.5 134.5,-231.5 240.5,-231.5 240.5,-212.5 134.5,-212.5"/>
<text text-anchor="middle" x="187.5" y="-219.5" font-family="Helvetica,sans-Serif" font-size="10.00">MultiSpeciesThermo</text>
</a>
</g>
</g>
<!-- Node7&#45;&gt;Node3 -->
<g id="edge7" class="edge">
<title>Node7&#45;&gt;Node3</title>
<path fill="none" stroke="#9a32cd" stroke-dasharray="5,2" d="M187.5,-202.04C187.5,-189.67 187.5,-174.12 187.5,-164.63"/>
<polygon fill="#9a32cd" stroke="#9a32cd" points="184,-202.23 187.5,-212.23 191,-202.23 184,-202.23"/>
<text text-anchor="middle" x="216.5" y="-186" font-family="Helvetica,sans-Serif" font-size="10.00"> m_spthermo</text>
</g>
<!-- Node8 -->
<g id="node8" class="node">
<title>Node8</title>
<g id="a_node8"><a xlink:href="../../db/d74/classCantera_1_1AnyMap.html" target="_top" xlink:title="A map of string keys to values whose type can vary at runtime.">
<polygon fill="white" stroke="black" points="259,-212.5 259,-231.5 312,-231.5 312,-212.5 259,-212.5"/>
<text text-anchor="middle" x="285.5" y="-219.5" font-family="Helvetica,sans-Serif" font-size="10.00">AnyMap</text>
</a>
</g>
</g>
<!-- Node8&#45;&gt;Node3 -->
<g id="edge8" class="edge">
<title>Node8&#45;&gt;Node3</title>
<path fill="none" stroke="#9a32cd" stroke-dasharray="5,2" d="M272.55,-204.58C266.19,-197.28 258.06,-189 249.5,-183 238.54,-175.32 225.05,-169.12 213.45,-164.61"/>
<polygon fill="#9a32cd" stroke="#9a32cd" points="270.05,-207.04 279.13,-212.5 275.44,-202.57 270.05,-207.04"/>
<text text-anchor="middle" x="281.5" y="-186" font-family="Helvetica,sans-Serif" font-size="10.00"> m_input</text>
</g>
<!-- Node9 -->
<g id="node9" class="node">
<title>Node9</title>
<g id="a_node9"><a xlink:href="../../d9/d23/classCantera_1_1AnyBase.html" target="_top" xlink:title="Base class defining common data possessed by both AnyMap and AnyValue objects.">
<polygon fill="white" stroke="black" points="257.5,-280.5 257.5,-299.5 313.5,-299.5 313.5,-280.5 257.5,-280.5"/>
<text text-anchor="middle" x="285.5" y="-287.5" font-family="Helvetica,sans-Serif" font-size="10.00">AnyBase</text>
</a>
</g>
</g>
<!-- Node9&#45;&gt;Node8 -->
<g id="edge9" class="edge">
<title>Node9&#45;&gt;Node8</title>
<path fill="none" stroke="midnightblue" d="M285.5,-270.04C285.5,-257.47 285.5,-241.56 285.5,-231.84"/>
<polygon fill="midnightblue" stroke="midnightblue" points="282,-270.37 285.5,-280.37 289,-270.37 282,-270.37"/>
</g>
<!-- Node10 -->
<g id="node10" class="node">
<title>Node10</title>
<g id="a_node10"><a xlink:href="../../dd/d8f/classCantera_1_1DenseMatrix.html" target="_top" xlink:title="A class for full (non&#45;sparse) matrices with Fortran&#45;compatible data storage, which adds matrix operat...">
<polygon fill="white" stroke="black" points="234.5,-78.5 234.5,-97.5 306.5,-97.5 306.5,-78.5 234.5,-78.5"/>
<text text-anchor="middle" x="270.5" y="-85.5" font-family="Helvetica,sans-Serif" font-size="10.00">DenseMatrix</text>
</a>
</g>
</g>
<!-- Node10&#45;&gt;Node1 -->
<g id="edge10" class="edge">
<title>Node10&#45;&gt;Node1</title>
<path fill="none" stroke="#9a32cd" stroke-dasharray="5,2" d="M260.62,-69.12C252,-53.53 239.88,-31.59 233.26,-19.62"/>
<polygon fill="#9a32cd" stroke="#9a32cd" points="257.78,-71.22 265.68,-78.28 263.91,-67.84 257.78,-71.22"/>
<text text-anchor="middle" x="279" y="-52" font-family="Helvetica,sans-Serif" font-size="10.00"> m_d</text>
<text text-anchor="middle" x="279" y="-41" font-family="Helvetica,sans-Serif" font-size="10.00">m_multidiff</text>
</g>
<!-- Node11 -->
<g id="node11" class="node">
<title>Node11</title>
<g id="a_node11"><a xlink:href="../../d1/dcf/classCantera_1_1Array2D.html" target="_top" xlink:title="A class for 2D arrays stored in column&#45;major (Fortran&#45;compatible) form.">
<polygon fill="white" stroke="black" points="244,-145.5 244,-164.5 297,-164.5 297,-145.5 244,-145.5"/>
<text text-anchor="middle" x="270.5" y="-152.5" font-family="Helvetica,sans-Serif" font-size="10.00">Array2D</text>
</a>
</g>
</g>
<!-- Node11&#45;&gt;Node10 -->
<g id="edge11" class="edge">
<title>Node11&#45;&gt;Node10</title>
<path fill="none" stroke="midnightblue" d="M270.5,-135.04C270.5,-122.67 270.5,-107.12 270.5,-97.63"/>
<polygon fill="midnightblue" stroke="midnightblue" points="267,-135.23 270.5,-145.23 274,-135.23 267,-135.23"/>
</g>
</g>
</svg>
