<?xml version="1.0" encoding="UTF-8" standalone="no"?>
<!DOCTYPE svg PUBLIC "-//W3C//DTD SVG 1.1//EN"
 "http://www.w3.org/Graphics/SVG/1.1/DTD/svg11.dtd">
<!-- Generated by graphviz version 2.50.0 (0)
 -->
<!-- Title: base Pages: 1 -->
<svg width="94pt" height="239pt"
 viewBox="0.00 0.00 94.00 239.00" xmlns="http://www.w3.org/2000/svg" xmlns:xlink="http://www.w3.org/1999/xlink">
<g id="graph0" class="graph" transform="scale(1 1) rotate(0) translate(4 235)">
<title>base</title>
<polygon fill="white" stroke="transparent" points="-4,4 -4,-235 90,-235 90,4 -4,4"/>
<g id="clust1" class="cluster">
<title>clusterdir_6fbe91f1050ba110875dc8b0702a61ee</title>
<g id="a_clust1"><a xlink:href="dir_6fbe91f1050ba110875dc8b0702a61ee.html" target="_top" xlink:title="cantera">
<polygon fill="#ddddee" stroke="black" points="8,-8 8,-223 78,-223 78,-8 8,-8"/>
<text text-anchor="middle" x="43" y="-211" font-family="Helvetica,sans-Serif" font-size="10.00">cantera</text>
</a>
</g>
</g>
<!-- dir_28819bef72f6570b005694d295d15d08 -->
<g id="node1" class="node">
<title>dir_28819bef72f6570b005694d295d15d08</title>
<g id="a_node1"><a xlink:href="dir_28819bef72f6570b005694d295d15d08.html" target="_top" xlink:title="kinetics">
<polygon fill="none" stroke="black" points="70,-196 16,-196 16,-160 70,-160 70,-196"/>
<text text-anchor="middle" x="43" y="-175.5" font-family="Helvetica,sans-Serif" font-size="10.00">kinetics</text>
</a>
</g>
</g>
<!-- dir_a54d9e5dfc2a2dbb65ec20bef473969d -->
<g id="node3" class="node">
<title>dir_a54d9e5dfc2a2dbb65ec20bef473969d</title>
<g id="a_node3"><a xlink:href="dir_a54d9e5dfc2a2dbb65ec20bef473969d.html" target="_top" xlink:title="base">
<polygon fill="#eeeeff" stroke="black" points="70,-124 16,-124 16,-88 70,-88 70,-124"/>
<text text-anchor="middle" x="43" y="-103.5" font-family="Helvetica,sans-Serif" font-size="10.00">base</text>
</a>
</g>
</g>
<!-- dir_28819bef72f6570b005694d295d15d08&#45;&gt;dir_a54d9e5dfc2a2dbb65ec20bef473969d -->
<g id="edge1" class="edge">
<title>dir_28819bef72f6570b005694d295d15d08&#45;&gt;dir_a54d9e5dfc2a2dbb65ec20bef473969d</title>
<path fill="none" stroke="black" d="M37.08,-159.7C36.29,-151.98 36.06,-142.71 36.4,-134.11"/>
<polygon fill="black" stroke="black" points="39.9,-134.32 37.1,-124.1 32.92,-133.84 39.9,-134.32"/>
<g id="a_edge1&#45;headlabel"><a xlink:href="dir_000008_000004.html" target="_top" xlink:title="29">
<text text-anchor="middle" x="42.48" y="-135.61" font-family="Helvetica,sans-Serif" font-size="10.00">29</text>
</a>
</g>
</g>
<!-- dir_3cc50e07c07b6e5dfebd896073e0298f -->
<g id="node2" class="node">
<title>dir_3cc50e07c07b6e5dfebd896073e0298f</title>
<g id="a_node2"><a xlink:href="dir_3cc50e07c07b6e5dfebd896073e0298f.html" target="_top" xlink:title="thermo">
<polygon fill="none" stroke="black" points="70,-52 16,-52 16,-16 70,-16 70,-52"/>
<text text-anchor="middle" x="43" y="-31.5" font-family="Helvetica,sans-Serif" font-size="10.00">thermo</text>
</a>
</g>
</g>
<!-- dir_3cc50e07c07b6e5dfebd896073e0298f&#45;&gt;dir_a54d9e5dfc2a2dbb65ec20bef473969d -->
<g id="edge2" class="edge">
<title>dir_3cc50e07c07b6e5dfebd896073e0298f&#45;&gt;dir_a54d9e5dfc2a2dbb65ec20bef473969d</title>
<path fill="none" stroke="black" d="M48.9,-52.1C49.7,-59.79 49.94,-69.05 49.6,-77.67"/>
<polygon fill="black" stroke="black" points="46.11,-77.48 48.92,-87.7 53.09,-77.96 46.11,-77.48"/>
<g id="a_edge2&#45;headlabel"><a xlink:href="dir_000012_000004.html" target="_top" xlink:title="25">
<text text-anchor="middle" x="43.52" y="-71.2" font-family="Helvetica,sans-Serif" font-size="10.00">25</text>
</a>
</g>
</g>
<!-- dir_a54d9e5dfc2a2dbb65ec20bef473969d&#45;&gt;dir_28819bef72f6570b005694d295d15d08 -->
<g id="edge3" class="edge">
<title>dir_a54d9e5dfc2a2dbb65ec20bef473969d&#45;&gt;dir_28819bef72f6570b005694d295d15d08</title>
<path fill="none" stroke="black" d="M48.9,-124.1C49.7,-131.79 49.94,-141.05 49.6,-149.67"/>
<polygon fill="black" stroke="black" points="46.11,-149.48 48.92,-159.7 53.09,-149.96 46.11,-149.48"/>
<g id="a_edge3&#45;headlabel"><a xlink:href="dir_000004_000008.html" target="_top" xlink:title="1">
<text text-anchor="middle" x="43.52" y="-143.2" font-family="Helvetica,sans-Serif" font-size="10.00">1</text>
</a>
</g>
</g>
<!-- dir_a54d9e5dfc2a2dbb65ec20bef473969d&#45;&gt;dir_3cc50e07c07b6e5dfebd896073e0298f -->
<g id="edge4" class="edge">
<title>dir_a54d9e5dfc2a2dbb65ec20bef473969d&#45;&gt;dir_3cc50e07c07b6e5dfebd896073e0298f</title>
<path fill="none" stroke="black" d="M37.08,-87.7C36.29,-79.98 36.06,-70.71 36.4,-62.11"/>
<polygon fill="black" stroke="black" points="39.9,-62.32 37.1,-52.1 32.92,-61.84 39.9,-62.32"/>
<g id="a_edge4&#45;headlabel"><a xlink:href="dir_000004_000012.html" target="_top" xlink:title="1">
<text text-anchor="middle" x="42.48" y="-63.61" font-family="Helvetica,sans-Serif" font-size="10.00">1</text>
</a>
</g>
</g>
</g>
</svg>
