<?xml version="1.0" encoding="UTF-8" standalone="no"?>
<!DOCTYPE svg PUBLIC "-//W3C//DTD SVG 1.1//EN"
 "http://www.w3.org/Graphics/SVG/1.1/DTD/svg11.dtd">
<!-- Generated by graphviz version 6.0.1 (0)
 -->
<!-- Title: GasKinetics.h Pages: 1 -->
<svg width="812pt" height="368pt"
 viewBox="0.00 0.00 811.69 368.00" xmlns="http://www.w3.org/2000/svg" xmlns:xlink="http://www.w3.org/1999/xlink">
<g id="graph0" class="graph" transform="scale(1 1) rotate(0) translate(4 364)">
<title>GasKinetics.h</title>
<!-- Node1 -->
<g id="Node000001" class="node">
<title>Node1</title>
<g id="a_Node000001"><a xlink:title=" ">
<polygon fill="#999999" stroke="#666666" points="402.19,-360 324.19,-360 324.19,-341 402.19,-341 402.19,-360"/>
<text text-anchor="middle" x="363.19" y="-348" font-family="Helvetica,sans-Serif" font-size="10.00">GasKinetics.h</text>
</a>
</g>
</g>
<!-- Node2 -->
<g id="Node000002" class="node">
<title>Node2</title>
<g id="a_Node000002"><a xlink:href="../../d2/d78/BulkKinetics_8h.html" target="_top" xlink:title=" ">
<polygon fill="white" stroke="#666666" points="369.19,-305 289.19,-305 289.19,-286 369.19,-286 369.19,-305"/>
<text text-anchor="middle" x="329.19" y="-293" font-family="Helvetica,sans-Serif" font-size="10.00">BulkKinetics.h</text>
</a>
</g>
</g>
<!-- Node1&#45;&gt;Node2 -->
<g id="edge1_Node000001_Node000002" class="edge">
<title>Node1&#45;&gt;Node2</title>
<g id="a_edge1_Node000001_Node000002"><a xlink:title=" ">
<path fill="none" stroke="#63b8ff" d="M357.58,-340.75C352.88,-333.42 346.02,-322.73 340.22,-313.7"/>
<polygon fill="#63b8ff" stroke="#63b8ff" points="343.05,-311.62 334.7,-305.09 337.16,-315.4 343.05,-311.62"/>
</a>
</g>
</g>
<!-- Node39 -->
<g id="Node000039" class="node">
<title>Node39</title>
<g id="a_Node000039"><a xlink:href="../../d8/d5d/Reaction_8h.html" target="_top" xlink:title=" ">
<polygon fill="white" stroke="#666666" points="610.19,-250 546.19,-250 546.19,-231 610.19,-231 610.19,-250"/>
<text text-anchor="middle" x="578.19" y="-238" font-family="Helvetica,sans-Serif" font-size="10.00">Reaction.h</text>
</a>
</g>
</g>
<!-- Node1&#45;&gt;Node39 -->
<g id="edge29_Node000001_Node000039" class="edge">
<title>Node1&#45;&gt;Node39</title>
<g id="a_edge29_Node000001_Node000039"><a xlink:title=" ">
<path fill="none" stroke="#63b8ff" d="M380.42,-340.84C418.02,-321.96 507.61,-276.96 552.14,-254.59"/>
<polygon fill="#63b8ff" stroke="#63b8ff" points="553.81,-257.66 561.18,-250.05 550.67,-251.41 553.81,-257.66"/>
</a>
</g>
</g>
<!-- Node3 -->
<g id="Node000003" class="node">
<title>Node3</title>
<g id="a_Node000003"><a xlink:href="../../d5/db4/Kinetics_8h.html" target="_top" xlink:title="Base class for kinetics managers and also contains the kineticsmgr module documentation (see Kinetics...">
<polygon fill="white" stroke="#666666" points="263.19,-195 203.19,-195 203.19,-176 263.19,-176 263.19,-195"/>
<text text-anchor="middle" x="233.19" y="-183" font-family="Helvetica,sans-Serif" font-size="10.00">Kinetics.h</text>
</a>
</g>
</g>
<!-- Node2&#45;&gt;Node3 -->
<g id="edge2_Node000002_Node000003" class="edge">
<title>Node2&#45;&gt;Node3</title>
<g id="a_edge2_Node000002_Node000003"><a xlink:title=" ">
<path fill="none" stroke="#63b8ff" d="M321.34,-285.66C305.22,-267.54 268.23,-225.91 247.66,-202.77"/>
<polygon fill="#63b8ff" stroke="#63b8ff" points="250.15,-200.31 240.89,-195.16 244.92,-204.96 250.15,-200.31"/>
</a>
</g>
</g>
<!-- Node26 -->
<g id="Node000026" class="node">
<title>Node26</title>
<g id="a_Node000026"><a xlink:href="../../d6/d42/MultiRate_8h.html" target="_top" xlink:title=" ">
<polygon fill="white" stroke="#666666" points="415.69,-250 348.69,-250 348.69,-231 415.69,-231 415.69,-250"/>
<text text-anchor="middle" x="382.19" y="-238" font-family="Helvetica,sans-Serif" font-size="10.00">MultiRate.h</text>
</a>
</g>
</g>
<!-- Node2&#45;&gt;Node26 -->
<g id="edge10_Node000002_Node000026" class="edge">
<title>Node2&#45;&gt;Node26</title>
<g id="a_edge10_Node000002_Node000026"><a xlink:title=" ">
<path fill="none" stroke="#63b8ff" d="M337.95,-285.75C345.66,-278.03 357.1,-266.6 366.41,-257.28"/>
<polygon fill="#63b8ff" stroke="#63b8ff" points="369.01,-259.64 373.6,-250.09 364.06,-254.69 369.01,-259.64"/>
</a>
</g>
</g>
<!-- Node38 -->
<g id="Node000038" class="node">
<title>Node38</title>
<g id="a_Node000038"><a xlink:href="../../d9/d77/ThirdBodyCalc_8h.html" target="_top" xlink:title=" ">
<polygon fill="white" stroke="#666666" points="159.69,-250 70.69,-250 70.69,-231 159.69,-231 159.69,-250"/>
<text text-anchor="middle" x="115.19" y="-238" font-family="Helvetica,sans-Serif" font-size="10.00">ThirdBodyCalc.h</text>
</a>
</g>
</g>
<!-- Node2&#45;&gt;Node38 -->
<g id="edge27_Node000002_Node000038" class="edge">
<title>Node2&#45;&gt;Node38</title>
<g id="a_edge27_Node000002_Node000038"><a xlink:title=" ">
<path fill="none" stroke="#63b8ff" d="M294.81,-285.98C258.1,-276.89 199.81,-262.46 159.64,-252.51"/>
<polygon fill="#63b8ff" stroke="#63b8ff" points="160.39,-249.09 149.85,-250.08 158.71,-255.88 160.39,-249.09"/>
</a>
</g>
</g>
<!-- Node4 -->
<g id="Node000004" class="node">
<title>Node4</title>
<g id="a_Node000004"><a xlink:href="../../dd/dfd/StoichManager_8h.html" target="_top" xlink:title=" ">
<polygon fill="white" stroke="#666666" points="295.69,-140 206.69,-140 206.69,-121 295.69,-121 295.69,-140"/>
<text text-anchor="middle" x="251.19" y="-128" font-family="Helvetica,sans-Serif" font-size="10.00">StoichManager.h</text>
</a>
</g>
</g>
<!-- Node3&#45;&gt;Node4 -->
<g id="edge3_Node000003_Node000004" class="edge">
<title>Node3&#45;&gt;Node4</title>
<g id="a_edge3_Node000003_Node000004"><a xlink:title=" ">
<path fill="none" stroke="#63b8ff" d="M236.17,-175.75C238.55,-168.72 241.98,-158.62 244.96,-149.84"/>
<polygon fill="#63b8ff" stroke="#63b8ff" points="248.37,-150.68 248.28,-140.09 241.75,-148.43 248.37,-150.68"/>
</a>
</g>
</g>
<!-- Node24 -->
<g id="Node000024" class="node">
<title>Node24</title>
<g id="a_Node000024"><a xlink:href="../../d6/df6/ValueCache_8h.html" target="_top" xlink:title=" ">
<polygon fill="white" stroke="#666666" points="149.69,-140 12.69,-140 12.69,-121 149.69,-121 149.69,-140"/>
<text text-anchor="middle" x="81.19" y="-128" font-family="Helvetica,sans-Serif" font-size="10.00">cantera/base/ValueCache.h</text>
</a>
</g>
</g>
<!-- Node3&#45;&gt;Node24 -->
<g id="edge7_Node000003_Node000024" class="edge">
<title>Node3&#45;&gt;Node24</title>
<g id="a_edge7_Node000003_Node000024"><a xlink:title=" ">
<path fill="none" stroke="#63b8ff" d="M208.77,-175.98C183.47,-167.16 143.74,-153.31 115.34,-143.41"/>
<polygon fill="#63b8ff" stroke="#63b8ff" points="116.4,-140.07 105.81,-140.08 114.1,-146.68 116.4,-140.07"/>
</a>
</g>
</g>
<!-- Node5 -->
<g id="Node000005" class="node">
<title>Node5</title>
<g id="a_Node000005"><a xlink:href="../../d9/d42/eigen__sparse_8h_source.html" target="_top" xlink:title=" ">
<polygon fill="#fff0f0" stroke="red" points="316.19,-85 198.19,-85 198.19,-55 316.19,-55 316.19,-85"/>
<text text-anchor="start" x="206.19" y="-73" font-family="Helvetica,sans-Serif" font-size="10.00">cantera/numerics/eigen</text>
<text text-anchor="middle" x="257.19" y="-62" font-family="Helvetica,sans-Serif" font-size="10.00">_sparse.h</text>
</a>
</g>
</g>
<!-- Node4&#45;&gt;Node5 -->
<g id="edge4_Node000004_Node000005" class="edge">
<title>Node4&#45;&gt;Node5</title>
<g id="a_edge4_Node000004_Node000005"><a xlink:title=" ">
<path fill="none" stroke="#63b8ff" d="M252.08,-120.87C252.77,-114.11 253.77,-104.35 254.7,-95.26"/>
<polygon fill="#63b8ff" stroke="#63b8ff" points="258.21,-95.42 255.75,-85.11 251.24,-94.71 258.21,-95.42"/>
</a>
</g>
</g>
<!-- Node8 -->
<g id="Node000008" class="node">
<title>Node8</title>
<g id="a_Node000008"><a xlink:href="../../db/d98/ctexceptions_8h.html" target="_top" xlink:title="Definitions for the classes that are thrown when Cantera experiences an error condition (also contain...">
<polygon fill="#fff0f0" stroke="red" points="640.19,-79.5 500.19,-79.5 500.19,-60.5 640.19,-60.5 640.19,-79.5"/>
<text text-anchor="middle" x="570.19" y="-67.5" font-family="Helvetica,sans-Serif" font-size="10.00">cantera/base/ctexceptions.h</text>
</a>
</g>
</g>
<!-- Node4&#45;&gt;Node8 -->
<g id="edge5_Node000004_Node000008" class="edge">
<title>Node4&#45;&gt;Node8</title>
<g id="a_edge5_Node000004_Node000008"><a xlink:title=" ">
<path fill="none" stroke="#63b8ff" d="M295.88,-121.3C352.9,-110.85 451.54,-92.76 513.7,-81.36"/>
<polygon fill="#63b8ff" stroke="#63b8ff" points="514.53,-84.77 523.73,-79.52 513.27,-77.88 514.53,-84.77"/>
</a>
</g>
</g>
<!-- Node9 -->
<g id="Node000009" class="node">
<title>Node9</title>
<g id="a_Node000009"><a xlink:href="../../d9/ddc/ct__defs_8h.html" target="_top" xlink:title="This file contains definitions of constants, types and terms that are used in internal routines and a...">
<polygon fill="#fff0f0" stroke="red" points="413.69,-19 356.69,-19 356.69,0 413.69,0 413.69,-19"/>
<text text-anchor="middle" x="385.19" y="-7" font-family="Helvetica,sans-Serif" font-size="10.00">ct_defs.h</text>
</a>
</g>
</g>
<!-- Node8&#45;&gt;Node9 -->
<g id="edge6_Node000008_Node000009" class="edge">
<title>Node8&#45;&gt;Node9</title>
<g id="a_edge6_Node000008_Node000009"><a xlink:title=" ">
<path fill="none" stroke="#63b8ff" d="M543.29,-60.49C511.23,-50.36 457.51,-33.37 421.71,-22.05"/>
<polygon fill="#63b8ff" stroke="#63b8ff" points="422.72,-18.69 412.13,-19.02 420.61,-25.37 422.72,-18.69"/>
</a>
</g>
</g>
<!-- Node24&#45;&gt;Node9 -->
<g id="edge8_Node000024_Node000009" class="edge">
<title>Node24&#45;&gt;Node9</title>
<g id="a_edge8_Node000024_Node000009"><a xlink:title=" ">
<path fill="none" stroke="#63b8ff" d="M87.07,-120.95C98.44,-105.15 125.05,-71.49 156.19,-55 217.42,-22.58 299.07,-13.62 346.51,-11.24"/>
<polygon fill="#63b8ff" stroke="#63b8ff" points="346.83,-14.73 356.67,-10.8 346.53,-7.73 346.83,-14.73"/>
</a>
</g>
</g>
<!-- Node25 -->
<g id="Node000025" class="node">
<title>Node25</title>
<g id="a_Node000025"><a xlink:title=" ">
<polygon fill="#e0e0e0" stroke="#999999" points="101.19,-79.5 61.19,-79.5 61.19,-60.5 101.19,-60.5 101.19,-79.5"/>
<text text-anchor="middle" x="81.19" y="-67.5" font-family="Helvetica,sans-Serif" font-size="10.00">limits</text>
</a>
</g>
</g>
<!-- Node24&#45;&gt;Node25 -->
<g id="edge9_Node000024_Node000025" class="edge">
<title>Node24&#45;&gt;Node25</title>
<g id="a_edge9_Node000024_Node000025"><a xlink:title=" ">
<path fill="none" stroke="#63b8ff" d="M81.19,-120.87C81.19,-112.75 81.19,-100.31 81.19,-89.89"/>
<polygon fill="#63b8ff" stroke="#63b8ff" points="84.69,-89.67 81.19,-79.67 77.69,-89.67 84.69,-89.67"/>
</a>
</g>
</g>
<!-- Node27 -->
<g id="Node000027" class="node">
<title>Node27</title>
<g id="a_Node000027"><a xlink:href="../../d8/db0/ReactionRate_8h.html" target="_top" xlink:title=" ">
<polygon fill="white" stroke="#666666" points="580.69,-195 495.69,-195 495.69,-176 580.69,-176 580.69,-195"/>
<text text-anchor="middle" x="538.19" y="-183" font-family="Helvetica,sans-Serif" font-size="10.00">ReactionRate.h</text>
</a>
</g>
</g>
<!-- Node26&#45;&gt;Node27 -->
<g id="edge11_Node000026_Node000027" class="edge">
<title>Node26&#45;&gt;Node27</title>
<g id="a_edge11_Node000026_Node000027"><a xlink:title=" ">
<path fill="none" stroke="#63b8ff" d="M407.26,-230.98C433.22,-222.16 474,-208.31 503.15,-198.41"/>
<polygon fill="#63b8ff" stroke="#63b8ff" points="504.59,-201.61 512.93,-195.08 502.34,-194.99 504.59,-201.61"/>
</a>
</g>
</g>
<!-- Node28 -->
<g id="Node000028" class="node">
<title>Node28</title>
<g id="a_Node000028"><a xlink:href="../../dd/d16/MultiRateBase_8h.html" target="_top" xlink:title=" ">
<polygon fill="white" stroke="#666666" points="471.69,-140 382.69,-140 382.69,-121 471.69,-121 471.69,-140"/>
<text text-anchor="middle" x="427.19" y="-128" font-family="Helvetica,sans-Serif" font-size="10.00">MultiRateBase.h</text>
</a>
</g>
</g>
<!-- Node26&#45;&gt;Node28 -->
<g id="edge23_Node000026_Node000028" class="edge">
<title>Node26&#45;&gt;Node28</title>
<g id="a_edge23_Node000026_Node000028"><a xlink:title=" ">
<path fill="none" stroke="#63b8ff" d="M387.44,-230.86C392.65,-222.06 400.63,-207.9 406.19,-195 412.52,-180.32 418.12,-163.06 421.94,-150.25"/>
<polygon fill="#63b8ff" stroke="#63b8ff" points="425.4,-150.89 424.81,-140.31 418.67,-148.94 425.4,-150.89"/>
</a>
</g>
</g>
<!-- Node36 -->
<g id="Node000036" class="node">
<title>Node36</title>
<g id="a_Node000036"><a xlink:href="../../de/df0/utilities_8h.html" target="_top" xlink:title="Various templated functions that carry out common vector and polynomial operations (see Templated Arr...">
<polygon fill="white" stroke="#666666" points="396.69,-195 281.69,-195 281.69,-176 396.69,-176 396.69,-195"/>
<text text-anchor="middle" x="339.19" y="-183" font-family="Helvetica,sans-Serif" font-size="10.00">cantera/base/utilities.h</text>
</a>
</g>
</g>
<!-- Node26&#45;&gt;Node36 -->
<g id="edge24_Node000026_Node000036" class="edge">
<title>Node26&#45;&gt;Node36</title>
<g id="a_edge24_Node000026_Node000036"><a xlink:title=" ">
<path fill="none" stroke="#63b8ff" d="M375.09,-230.75C369.02,-223.26 360.11,-212.28 352.68,-203.13"/>
<polygon fill="#63b8ff" stroke="#63b8ff" points="355.18,-200.65 346.16,-195.09 349.74,-205.06 355.18,-200.65"/>
</a>
</g>
</g>
<!-- Node27&#45;&gt;Node8 -->
<g id="edge22_Node000027_Node000008" class="edge">
<title>Node27&#45;&gt;Node8</title>
<g id="a_edge22_Node000027_Node000008"><a xlink:title=" ">
<path fill="none" stroke="#63b8ff" d="M540.6,-175.97C545.76,-157.65 558.02,-114.18 565.03,-89.31"/>
<polygon fill="#63b8ff" stroke="#63b8ff" points="568.42,-90.2 567.76,-79.63 561.68,-88.3 568.42,-90.2"/>
</a>
</g>
</g>
<!-- Node27&#45;&gt;Node28 -->
<g id="edge12_Node000027_Node000028" class="edge">
<title>Node27&#45;&gt;Node28</title>
<g id="a_edge12_Node000027_Node000028"><a xlink:title=" ">
<path fill="none" stroke="#63b8ff" d="M520.36,-175.98C502.58,-167.5 475.05,-154.35 454.51,-144.54"/>
<polygon fill="#63b8ff" stroke="#63b8ff" points="455.88,-141.32 445.35,-140.17 452.87,-147.64 455.88,-141.32"/>
</a>
</g>
</g>
<!-- Node29 -->
<g id="Node000029" class="node">
<title>Node29</title>
<g id="a_Node000029"><a xlink:href="../../dd/d2a/AnyMap_8h.html" target="_top" xlink:title=" ">
<polygon fill="#fff0f0" stroke="red" points="686.19,-140 566.19,-140 566.19,-121 686.19,-121 686.19,-140"/>
<text text-anchor="middle" x="626.19" y="-128" font-family="Helvetica,sans-Serif" font-size="10.00">cantera/base/AnyMap.h</text>
</a>
</g>
</g>
<!-- Node27&#45;&gt;Node29 -->
<g id="edge14_Node000027_Node000029" class="edge">
<title>Node27&#45;&gt;Node29</title>
<g id="a_edge14_Node000027_Node000029"><a xlink:title=" ">
<path fill="none" stroke="#63b8ff" d="M552.33,-175.98C565.98,-167.77 586.88,-155.18 602.97,-145.49"/>
<polygon fill="#63b8ff" stroke="#63b8ff" points="605.04,-148.33 611.8,-140.17 601.43,-142.33 605.04,-148.33"/>
</a>
</g>
</g>
<!-- Node30 -->
<g id="Node000030" class="node">
<title>Node30</title>
<g id="a_Node000030"><a xlink:href="../../da/d58/Units_8h.html" target="_top" xlink:title="Header for unit conversion utilities, which are used to translate user input from input files (See In...">
<polygon fill="white" stroke="#666666" points="803.69,-79.5 696.69,-79.5 696.69,-60.5 803.69,-60.5 803.69,-79.5"/>
<text text-anchor="middle" x="750.19" y="-67.5" font-family="Helvetica,sans-Serif" font-size="10.00">cantera/base/Units.h</text>
</a>
</g>
</g>
<!-- Node27&#45;&gt;Node30 -->
<g id="edge19_Node000027_Node000030" class="edge">
<title>Node27&#45;&gt;Node30</title>
<g id="a_edge19_Node000027_Node000030"><a xlink:title=" ">
<path fill="none" stroke="#63b8ff" d="M580.83,-179.66C614.22,-174.24 660.64,-162.99 695.19,-140 715.05,-126.79 731.1,-104.13 740.62,-88.4"/>
<polygon fill="#63b8ff" stroke="#63b8ff" points="743.71,-90.05 745.69,-79.64 737.65,-86.55 743.71,-90.05"/>
</a>
</g>
</g>
<!-- Node35 -->
<g id="Node000035" class="node">
<title>Node35</title>
<g id="a_Node000035"><a xlink:href="../../d2/d49/global_8h.html" target="_top" xlink:title="This file contains definitions for utility functions and text for modules, inputfiles and logging,...">
<polygon fill="#fff0f0" stroke="red" points="482.19,-79.5 372.19,-79.5 372.19,-60.5 482.19,-60.5 482.19,-79.5"/>
<text text-anchor="middle" x="427.19" y="-67.5" font-family="Helvetica,sans-Serif" font-size="10.00">cantera/base/global.h</text>
</a>
</g>
</g>
<!-- Node27&#45;&gt;Node35 -->
<g id="edge20_Node000027_Node000035" class="edge">
<title>Node27&#45;&gt;Node35</title>
<g id="a_edge20_Node000027_Node000035"><a xlink:title=" ">
<path fill="none" stroke="#63b8ff" d="M530.7,-175.64C520.02,-163.15 499.69,-139.79 481.19,-121 469.34,-108.96 455.31,-96.01 444.53,-86.31"/>
<polygon fill="#63b8ff" stroke="#63b8ff" points="446.8,-83.64 437.01,-79.59 442.13,-88.86 446.8,-83.64"/>
</a>
</g>
</g>
<!-- Node28&#45;&gt;Node9 -->
<g id="edge13_Node000028_Node000009" class="edge">
<title>Node28&#45;&gt;Node9</title>
<g id="a_edge13_Node000028_Node000009"><a xlink:title=" ">
<path fill="none" stroke="#63b8ff" d="M405.4,-120.87C390.55,-113.69 372.03,-101.91 363.19,-85 353.57,-66.59 363.49,-43.36 372.92,-27.78"/>
<polygon fill="#63b8ff" stroke="#63b8ff" points="376.01,-29.46 378.55,-19.18 370.15,-25.63 376.01,-29.46"/>
</a>
</g>
</g>
<!-- Node29&#45;&gt;Node8 -->
<g id="edge16_Node000029_Node000008" class="edge">
<title>Node29&#45;&gt;Node8</title>
<g id="a_edge16_Node000029_Node000008"><a xlink:title=" ">
<path fill="none" stroke="#63b8ff" d="M617.93,-120.87C609.41,-111.97 595.93,-97.89 585.46,-86.95"/>
<polygon fill="#63b8ff" stroke="#63b8ff" points="587.93,-84.47 578.49,-79.67 582.88,-89.31 587.93,-84.47"/>
</a>
</g>
</g>
<!-- Node29&#45;&gt;Node9 -->
<g id="edge15_Node000029_Node000009" class="edge">
<title>Node29&#45;&gt;Node9</title>
<g id="a_edge15_Node000029_Node000009"><a xlink:title=" ">
<path fill="none" stroke="#63b8ff" d="M633.68,-120.64C645.52,-105.5 665.62,-74.43 649.19,-55 620.78,-21.39 489.94,-13.16 423.76,-11.14"/>
<polygon fill="#63b8ff" stroke="#63b8ff" points="423.81,-7.64 413.72,-10.87 423.62,-14.64 423.81,-7.64"/>
</a>
</g>
</g>
<!-- Node29&#45;&gt;Node30 -->
<g id="edge17_Node000029_Node000030" class="edge">
<title>Node29&#45;&gt;Node30</title>
<g id="a_edge17_Node000029_Node000030"><a xlink:title=" ">
<path fill="none" stroke="#63b8ff" d="M644.22,-120.99C664.89,-111.25 698.97,-95.16 722.89,-83.88"/>
<polygon fill="#63b8ff" stroke="#63b8ff" points="724.59,-86.95 732.14,-79.52 721.6,-80.62 724.59,-86.95"/>
</a>
</g>
</g>
<!-- Node30&#45;&gt;Node9 -->
<g id="edge18_Node000030_Node000009" class="edge">
<title>Node30&#45;&gt;Node9</title>
<g id="a_edge18_Node000030_Node000009"><a xlink:title=" ">
<path fill="none" stroke="#63b8ff" d="M710.71,-60.49C701.38,-58.59 691.45,-56.65 682.19,-55 589.89,-38.6 480.73,-23.28 423.93,-15.62"/>
<polygon fill="#63b8ff" stroke="#63b8ff" points="424.33,-12.14 413.95,-14.28 423.39,-19.08 424.33,-12.14"/>
</a>
</g>
</g>
<!-- Node35&#45;&gt;Node9 -->
<g id="edge21_Node000035_Node000009" class="edge">
<title>Node35&#45;&gt;Node9</title>
<g id="a_edge21_Node000035_Node000009"><a xlink:title=" ">
<path fill="none" stroke="#63b8ff" d="M421,-60.37C414.79,-51.73 405.08,-38.2 397.34,-27.42"/>
<polygon fill="#63b8ff" stroke="#63b8ff" points="400.09,-25.25 391.42,-19.17 394.41,-29.33 400.09,-25.25"/>
</a>
</g>
</g>
<!-- Node36&#45;&gt;Node9 -->
<g id="edge25_Node000036_Node000009" class="edge">
<title>Node36&#45;&gt;Node9</title>
<g id="a_edge25_Node000036_Node000009"><a xlink:title=" ">
<path fill="none" stroke="#63b8ff" d="M295.68,-175.97C259.21,-167.93 211.09,-154.89 198.19,-140 173.33,-111.28 165.49,-84.69 189.19,-55 208.49,-30.83 295.06,-18.79 346.47,-13.68"/>
<polygon fill="#63b8ff" stroke="#63b8ff" points="346.94,-17.15 356.56,-12.72 346.28,-10.18 346.94,-17.15"/>
</a>
</g>
</g>
<!-- Node37 -->
<g id="Node000037" class="node">
<title>Node37</title>
<g id="a_Node000037"><a xlink:title=" ">
<polygon fill="#e0e0e0" stroke="#999999" points="364.69,-140 313.69,-140 313.69,-121 364.69,-121 364.69,-140"/>
<text text-anchor="middle" x="339.19" y="-128" font-family="Helvetica,sans-Serif" font-size="10.00">numeric</text>
</a>
</g>
</g>
<!-- Node36&#45;&gt;Node37 -->
<g id="edge26_Node000036_Node000037" class="edge">
<title>Node36&#45;&gt;Node37</title>
<g id="a_edge26_Node000036_Node000037"><a xlink:title=" ">
<path fill="none" stroke="#63b8ff" d="M339.19,-175.75C339.19,-168.8 339.19,-158.85 339.19,-150.13"/>
<polygon fill="#63b8ff" stroke="#63b8ff" points="342.69,-150.09 339.19,-140.09 335.69,-150.09 342.69,-150.09"/>
</a>
</g>
</g>
<!-- Node38&#45;&gt;Node9 -->
<g id="edge28_Node000038_Node000009" class="edge">
<title>Node38&#45;&gt;Node9</title>
<g id="a_edge28_Node000038_Node000009"><a xlink:title=" ">
<path fill="none" stroke="#63b8ff" d="M98.68,-230.91C72.62,-216.31 22.91,-183.89 3.19,-140 -14.4,-100.83 46.42,-58.4 52.19,-55 101.33,-26.05 269.7,-15.36 346.48,-11.93"/>
<polygon fill="#63b8ff" stroke="#63b8ff" points="346.84,-15.42 356.68,-11.49 346.54,-8.42 346.84,-15.42"/>
</a>
</g>
</g>
<!-- Node39&#45;&gt;Node27 -->
<g id="edge32_Node000039_Node000027" class="edge">
<title>Node39&#45;&gt;Node27</title>
<g id="a_edge32_Node000039_Node000027"><a xlink:title=" ">
<path fill="none" stroke="#63b8ff" d="M571.59,-230.75C565.94,-223.26 557.65,-212.28 550.74,-203.13"/>
<polygon fill="#63b8ff" stroke="#63b8ff" points="553.49,-200.96 544.68,-195.09 547.91,-205.18 553.49,-200.96"/>
</a>
</g>
</g>
<!-- Node39&#45;&gt;Node29 -->
<g id="edge30_Node000039_Node000029" class="edge">
<title>Node39&#45;&gt;Node29</title>
<g id="a_edge30_Node000039_Node000029"><a xlink:title=" ">
<path fill="none" stroke="#63b8ff" d="M582.12,-230.66C590,-212.93 607.87,-172.73 618.27,-149.32"/>
<polygon fill="#63b8ff" stroke="#63b8ff" points="621.48,-150.72 622.35,-140.16 615.09,-147.87 621.48,-150.72"/>
</a>
</g>
</g>
<!-- Node39&#45;&gt;Node30 -->
<g id="edge31_Node000039_Node000030" class="edge">
<title>Node39&#45;&gt;Node30</title>
<g id="a_edge31_Node000039_Node000030"><a xlink:title=" ">
<path fill="none" stroke="#63b8ff" d="M595.92,-230.82C624.9,-215.85 682.74,-182.65 718.19,-140 730.69,-124.97 739.44,-104.24 744.59,-89.44"/>
<polygon fill="#63b8ff" stroke="#63b8ff" points="747.94,-90.46 747.71,-79.87 741.28,-88.29 747.94,-90.46"/>
</a>
</g>
</g>
</g>
</svg>
