<?xml version="1.0" encoding="UTF-8" standalone="no"?>
<!DOCTYPE svg PUBLIC "-//W3C//DTD SVG 1.1//EN"
 "http://www.w3.org/Graphics/SVG/1.1/DTD/svg11.dtd">
<!-- Generated by graphviz version 6.0.1 (0)
 -->
<!-- Title: KineticsFactory.h Pages: 1 -->
<svg width="459pt" height="82pt"
 viewBox="0.00 0.00 458.50 82.00" xmlns="http://www.w3.org/2000/svg" xmlns:xlink="http://www.w3.org/1999/xlink">
<g id="graph0" class="graph" transform="scale(1 1) rotate(0) translate(4 78)">
<title>KineticsFactory.h</title>
<!-- Node1 -->
<g id="Node000001" class="node">
<title>Node1</title>
<g id="a_Node000001"><a xlink:title=" ">
<polygon fill="#999999" stroke="#666666" points="279,-74 187,-74 187,-55 279,-55 279,-74"/>
<text text-anchor="middle" x="233" y="-62" font-family="Helvetica,sans-Serif" font-size="10.00">KineticsFactory.h</text>
</a>
</g>
</g>
<!-- Node2 -->
<g id="Node000002" class="node">
<title>Node2</title>
<g id="a_Node000002"><a xlink:href="../../de/dbe/Interface_8cpp.html" target="_top" xlink:title=" ">
<polygon fill="white" stroke="#666666" points="74,-19 0,-19 0,0 74,0 74,-19"/>
<text text-anchor="middle" x="37" y="-7" font-family="Helvetica,sans-Serif" font-size="10.00">Interface.cpp</text>
</a>
</g>
</g>
<!-- Node1&#45;&gt;Node2 -->
<g id="edge1_Node000001_Node000002" class="edge">
<title>Node1&#45;&gt;Node2</title>
<g id="a_edge1_Node000001_Node000002"><a xlink:title=" ">
<path fill="none" stroke="#63b8ff" d="M191.62,-52.31C154.95,-42.39 102.17,-28.12 68.74,-19.08"/>
<polygon fill="#63b8ff" stroke="#63b8ff" points="190.94,-55.75 201.51,-54.98 192.77,-49 190.94,-55.75"/>
</a>
</g>
</g>
<!-- Node3 -->
<g id="Node000003" class="node">
<title>Node3</title>
<g id="a_Node000003"><a xlink:href="../../d7/ddb/Kinetics_8cpp.html" target="_top" xlink:title="Declarations for the base class for kinetics managers (see Kinetics Managers and class Kinetics ).">
<polygon fill="white" stroke="#666666" points="163.5,-19 92.5,-19 92.5,0 163.5,0 163.5,-19"/>
<text text-anchor="middle" x="128" y="-7" font-family="Helvetica,sans-Serif" font-size="10.00">Kinetics.cpp</text>
</a>
</g>
</g>
<!-- Node1&#45;&gt;Node3 -->
<g id="edge2_Node000001_Node000003" class="edge">
<title>Node1&#45;&gt;Node3</title>
<g id="a_edge2_Node000001_Node000003"><a xlink:title=" ">
<path fill="none" stroke="#63b8ff" d="M206.98,-50.37C187.7,-40.63 161.95,-27.64 145.18,-19.17"/>
<polygon fill="#63b8ff" stroke="#63b8ff" points="205.63,-53.6 216.13,-54.98 208.78,-47.35 205.63,-53.6"/>
</a>
</g>
</g>
<!-- Node4 -->
<g id="Node000004" class="node">
<title>Node4</title>
<g id="a_Node000004"><a xlink:href="../../d3/df8/KineticsFactory_8cpp.html" target="_top" xlink:title=" ">
<polygon fill="white" stroke="#666666" points="284,-19 182,-19 182,0 284,0 284,-19"/>
<text text-anchor="middle" x="233" y="-7" font-family="Helvetica,sans-Serif" font-size="10.00">KineticsFactory.cpp</text>
</a>
</g>
</g>
<!-- Node1&#45;&gt;Node4 -->
<g id="edge3_Node000001_Node000004" class="edge">
<title>Node1&#45;&gt;Node4</title>
<g id="a_edge3_Node000001_Node000004"><a xlink:title=" ">
<path fill="none" stroke="#63b8ff" d="M233,-44.66C233,-35.93 233,-25.99 233,-19.09"/>
<polygon fill="#63b8ff" stroke="#63b8ff" points="229.5,-44.75 233,-54.75 236.5,-44.75 229.5,-44.75"/>
</a>
</g>
</g>
<!-- Node5 -->
<g id="Node000005" class="node">
<title>Node5</title>
<g id="a_Node000005"><a xlink:href="../../df/d48/Solution_8cpp.html" target="_top" xlink:title="Definition file for class Solution.">
<polygon fill="white" stroke="#666666" points="373.5,-19 302.5,-19 302.5,0 373.5,0 373.5,-19"/>
<text text-anchor="middle" x="338" y="-7" font-family="Helvetica,sans-Serif" font-size="10.00">Solution.cpp</text>
</a>
</g>
</g>
<!-- Node1&#45;&gt;Node5 -->
<g id="edge4_Node000001_Node000005" class="edge">
<title>Node1&#45;&gt;Node5</title>
<g id="a_edge4_Node000001_Node000005"><a xlink:title=" ">
<path fill="none" stroke="#63b8ff" d="M259.02,-50.37C278.3,-40.63 304.05,-27.64 320.82,-19.17"/>
<polygon fill="#63b8ff" stroke="#63b8ff" points="257.22,-47.35 249.87,-54.98 260.37,-53.6 257.22,-47.35"/>
</a>
</g>
</g>
<!-- Node6 -->
<g id="Node000006" class="node">
<title>Node6</title>
<g id="a_Node000006"><a xlink:href="../../d3/d85/kinetics_8h.html" target="_top" xlink:title="Support for chemical kinetics calculation from C++ application programs.">
<polygon fill="white" stroke="#666666" points="450.5,-19 391.5,-19 391.5,0 450.5,0 450.5,-19"/>
<text text-anchor="middle" x="421" y="-7" font-family="Helvetica,sans-Serif" font-size="10.00">kinetics.h</text>
</a>
</g>
</g>
<!-- Node1&#45;&gt;Node6 -->
<g id="edge5_Node000001_Node000006" class="edge">
<title>Node1&#45;&gt;Node6</title>
<g id="a_edge5_Node000001_Node000006"><a xlink:title=" ">
<path fill="none" stroke="#63b8ff" d="M273.23,-52.16C308.73,-42.15 359.64,-27.8 391.49,-18.82"/>
<polygon fill="#63b8ff" stroke="#63b8ff" points="271.88,-48.9 263.21,-54.98 273.78,-55.64 271.88,-48.9"/>
</a>
</g>
</g>
</g>
</svg>
