<?xml version="1.0" encoding="UTF-8" standalone="no"?>
<!DOCTYPE svg PUBLIC "-//W3C//DTD SVG 1.1//EN"
 "http://www.w3.org/Graphics/SVG/1.1/DTD/svg11.dtd">
<!-- Generated by graphviz version 2.50.0 (0)
 -->
<!-- Title: ArrheniusBase Pages: 1 -->
<svg width="335pt" height="196pt"
 viewBox="0.00 0.00 335.00 196.00" xmlns="http://www.w3.org/2000/svg" xmlns:xlink="http://www.w3.org/1999/xlink">
<g id="graph0" class="graph" transform="scale(1 1) rotate(0) translate(4 192)">
<title>ArrheniusBase</title>
<polygon fill="white" stroke="transparent" points="-4,4 -4,-192 331,-192 331,4 -4,4"/>
<!-- Node1 -->
<g id="node1" class="node">
<title>Node1</title>
<g id="a_node1"><a xlink:title="Base class for Arrhenius&#45;type Parameterizations.">
<polygon fill="#bfbfbf" stroke="black" points="106.5,-112.5 106.5,-131.5 186.5,-131.5 186.5,-112.5 106.5,-112.5"/>
<text text-anchor="middle" x="146.5" y="-119.5" font-family="Helvetica,sans-Serif" font-size="10.00">ArrheniusBase</text>
</a>
</g>
</g>
<!-- Node3 -->
<g id="node3" class="node">
<title>Node3</title>
<g id="a_node3"><a xlink:href="../../d8/d2f/classCantera_1_1ArrheniusRate.html" target="_top" xlink:title="Arrhenius reaction rate type depends only on temperature.">
<polygon fill="white" stroke="black" points="0,-56.5 0,-75.5 79,-75.5 79,-56.5 0,-56.5"/>
<text text-anchor="middle" x="39.5" y="-63.5" font-family="Helvetica,sans-Serif" font-size="10.00">ArrheniusRate</text>
</a>
</g>
</g>
<!-- Node1&#45;&gt;Node3 -->
<g id="edge2" class="edge">
<title>Node1&#45;&gt;Node3</title>
<path fill="none" stroke="midnightblue" d="M120.2,-107.73C100.39,-97.73 73.79,-84.31 56.65,-75.65"/>
<polygon fill="midnightblue" stroke="midnightblue" points="118.8,-110.94 129.31,-112.32 121.96,-104.69 118.8,-110.94"/>
</g>
<!-- Node5 -->
<g id="node5" class="node">
<title>Node5</title>
<g id="a_node5"><a xlink:href="../../d2/da3/classCantera_1_1BlowersMaselRate.html" target="_top" xlink:title="Blowers Masel reaction rate type depends on the enthalpy of reaction.">
<polygon fill="white" stroke="black" points="97,-56.5 97,-75.5 196,-75.5 196,-56.5 97,-56.5"/>
<text text-anchor="middle" x="146.5" y="-63.5" font-family="Helvetica,sans-Serif" font-size="10.00">BlowersMaselRate</text>
</a>
</g>
</g>
<!-- Node1&#45;&gt;Node5 -->
<g id="edge4" class="edge">
<title>Node1&#45;&gt;Node5</title>
<path fill="none" stroke="midnightblue" d="M146.5,-101.8C146.5,-92.91 146.5,-82.78 146.5,-75.75"/>
<polygon fill="midnightblue" stroke="midnightblue" points="143,-102.08 146.5,-112.08 150,-102.08 143,-102.08"/>
</g>
<!-- Node6 -->
<g id="node6" class="node">
<title>Node6</title>
<g id="a_node6"><a xlink:href="../../d9/daa/classCantera_1_1TwoTempPlasmaRate.html" target="_top" xlink:title="Two temperature plasma reaction rate type depends on both gas temperature and electron temperature.">
<polygon fill="white" stroke="black" points="214,-56.5 214,-75.5 327,-75.5 327,-56.5 214,-56.5"/>
<text text-anchor="middle" x="270.5" y="-63.5" font-family="Helvetica,sans-Serif" font-size="10.00">TwoTempPlasmaRate</text>
</a>
</g>
</g>
<!-- Node1&#45;&gt;Node6 -->
<g id="edge5" class="edge">
<title>Node1&#45;&gt;Node6</title>
<path fill="none" stroke="midnightblue" d="M175.51,-108.37C198.73,-98.26 230.66,-84.35 250.94,-75.52"/>
<polygon fill="midnightblue" stroke="midnightblue" points="173.92,-105.24 166.15,-112.44 176.71,-111.66 173.92,-105.24"/>
</g>
<!-- Node2 -->
<g id="node2" class="node">
<title>Node2</title>
<g id="a_node2"><a xlink:href="../../d0/d19/classCantera_1_1ReactionRate.html" target="_top" xlink:title="Abstract base class for reaction rate definitions; this base class is used by user&#45;facing APIs to acc...">
<polygon fill="white" stroke="black" points="108,-168.5 108,-187.5 185,-187.5 185,-168.5 108,-168.5"/>
<text text-anchor="middle" x="146.5" y="-175.5" font-family="Helvetica,sans-Serif" font-size="10.00">ReactionRate</text>
</a>
</g>
</g>
<!-- Node2&#45;&gt;Node1 -->
<g id="edge1" class="edge">
<title>Node2&#45;&gt;Node1</title>
<path fill="none" stroke="midnightblue" d="M146.5,-157.8C146.5,-148.91 146.5,-138.78 146.5,-131.75"/>
<polygon fill="midnightblue" stroke="midnightblue" points="143,-158.08 146.5,-168.08 150,-158.08 143,-158.08"/>
</g>
<!-- Node4 -->
<g id="node4" class="node">
<title>Node4</title>
<g id="a_node4"><a xlink:href="../../d7/d2c/classCantera_1_1Arrhenius2.html" target="_top" xlink:title="Arrhenius reaction rate type depends only on temperature.">
<polygon fill="white" stroke="black" points="8,-0.5 8,-19.5 71,-19.5 71,-0.5 8,-0.5"/>
<text text-anchor="middle" x="39.5" y="-7.5" font-family="Helvetica,sans-Serif" font-size="10.00">Arrhenius2</text>
</a>
</g>
</g>
<!-- Node3&#45;&gt;Node4 -->
<g id="edge3" class="edge">
<title>Node3&#45;&gt;Node4</title>
<path fill="none" stroke="midnightblue" d="M39.5,-45.8C39.5,-36.91 39.5,-26.78 39.5,-19.75"/>
<polygon fill="midnightblue" stroke="midnightblue" points="36,-46.08 39.5,-56.08 43,-46.08 36,-46.08"/>
</g>
</g>
</svg>
