<?xml version="1.0" encoding="UTF-8" standalone="no"?>
<!DOCTYPE svg PUBLIC "-//W3C//DTD SVG 1.1//EN"
 "http://www.w3.org/Graphics/SVG/1.1/DTD/svg11.dtd">
<!-- Generated by graphviz version 6.0.1 (0)
 -->
<!-- Title: transport.h Pages: 1 -->
<!--zoomable 357 -->

<svg id="main" version="1.1" xmlns="http://www.w3.org/2000/svg" xmlns:xlink="http://www.w3.org/1999/xlink" xml:space="preserve" onload="init(evt)">
<style type="text/css"><![CDATA[
.node, .edge {opacity: 0.7;}
.node.selected, .edge.selected {opacity: 1;}
.edge:hover path { stroke: red; }
.edge:hover polygon { stroke: red; fill: red; }
]]></style>

<defs>
  <circle id="rim" cx="0" cy="0" r="7"/>
  <circle id="rim2" cx="0" cy="0" r="3.5"/>
  <g id="zoomPlus">
    <use xlink:href="#rim" fill="#404040"><set attributeName="fill" to="#808080" begin="zoomplus.mouseover" end="zoomplus.mouseout"/></use>
    <path d="M-4,0h8M0,-4v8" fill="none" stroke="white" stroke-width="1.5" pointer-events="none"/>
  </g>
  <g id="zoomMin">
    <use xlink:href="#rim" fill="#404040"><set attributeName="fill" to="#808080" begin="zoomminus.mouseover" end="zoomminus.mouseout"/></use>
    <path d="M-4,0h8" fill="none" stroke="white" stroke-width="1.5" pointer-events="none"/>
  </g>
  <g id="arrowUp" transform="translate(30 24)">
    <use xlink:href="#rim"/>
    <path pointer-events="none" fill="none" stroke="white" stroke-width="1.5" d="M0,-3.0v7 M-2.5,-0.5L0,-3.0L2.5,-0.5"/>
  </g>
  <g id="arrowRight" transform="rotate(90) translate(36 -43)">
    <use xlink:href="#rim"/>
    <path pointer-events="none" fill="none" stroke="white" stroke-width="1.5" d="M0,-3.0v7 M-2.5,-0.5L0,-3.0L2.5,-0.5"/>
  </g>
  <g id="arrowDown" transform="rotate(180) translate(-30 -48)">
    <use xlink:href="#rim"/>
    <path pointer-events="none" fill="none" stroke="white" stroke-width="1.5" d="M0,-3.0v7 M-2.5,-0.5L0,-3.0L2.5,-0.5"/>
  </g>
  <g id="arrowLeft" transform="rotate(270) translate(-36 17)">
    <use xlink:href="#rim"/>
    <path pointer-events="none" fill="none" stroke="white" stroke-width="1.5" d="M0,-3.0v7 M-2.5,-0.5L0,-3.0L2.5,-0.5"/>
  </g>
  <g id="resetDef">
    <use xlink:href="#rim2" fill="#404040"><set attributeName="fill" to="#808080" begin="reset.mouseover" end="reset.mouseout"/></use>
  </g>
</defs>
<script type="application/ecmascript">
var viewWidth = 676;
var viewHeight = 357;
var sectionId = 'dynsection-0';
</script>
<script type="application/ecmascript" xlink:href="../../svg.min.js"/>
<svg id="graph" class="graph">
<g id="viewport">
<title>transport.h</title>
<!-- Node1 -->
<g id="Node000001" class="node">
<title>Node1</title>
<g id="a_Node000001"><a xlink:title="Support for transport property calculation from C++ application programs.">
<polygon fill="#999999" stroke="#666666" points="393,-349 330,-349 330,-330 393,-330 393,-349"/>
<text text-anchor="middle" x="361.5" y="-337" font-family="Helvetica,sans-Serif" font-size="10.00">transport.h</text>
</a>
</g>
</g>
<!-- Node2 -->
<g id="Node000002" class="node">
<title>Node2</title>
<g id="a_Node000002"><a xlink:href="../../d3/da4/TransportFactory_8h.html" target="_top" xlink:title="Header file defining class TransportFactory (see TransportFactory)">
<polygon fill="white" stroke="#666666" points="431,-294 292,-294 292,-275 431,-275 431,-294"/>
<text text-anchor="middle" x="361.5" y="-282" font-family="Helvetica,sans-Serif" font-size="10.00">transport/TransportFactory.h</text>
</a>
</g>
</g>
<!-- Node1&#45;&gt;Node2 -->
<g id="edge1_Node000001_Node000002" class="edge">
<title>Node1&#45;&gt;Node2</title>
<g id="a_edge1_Node000001_Node000002"><a xlink:title=" ">
<path fill="none" stroke="#63b8ff" d="M361.5,-329.75C361.5,-322.8 361.5,-312.85 361.5,-304.13"/>
<polygon fill="#63b8ff" stroke="#63b8ff" points="365,-304.09 361.5,-294.09 358,-304.09 365,-304.09"/>
</a>
</g>
</g>
<!-- Node3 -->
<g id="Node000003" class="node">
<title>Node3</title>
<g id="a_Node000003"><a xlink:href="../../d8/d5e/Transport_8h.html" target="_top" xlink:title="Headers for the Transport object, which is the virtual base class for all transport property evaluato...">
<polygon fill="white" stroke="#666666" points="334.5,-239 268.5,-239 268.5,-220 334.5,-220 334.5,-239"/>
<text text-anchor="middle" x="301.5" y="-227" font-family="Helvetica,sans-Serif" font-size="10.00">Transport.h</text>
</a>
</g>
</g>
<!-- Node2&#45;&gt;Node3 -->
<g id="edge2_Node000002_Node000003" class="edge">
<title>Node2&#45;&gt;Node3</title>
<g id="a_edge2_Node000002_Node000003"><a xlink:title=" ">
<path fill="none" stroke="#63b8ff" d="M351.86,-274.98C342.99,-267.15 329.63,-255.34 318.89,-245.86"/>
<polygon fill="#63b8ff" stroke="#63b8ff" points="321.13,-243.17 311.32,-239.17 316.49,-248.41 321.13,-243.17"/>
</a>
</g>
</g>
<!-- Node22 -->
<g id="Node000022" class="node">
<title>Node22</title>
<g id="a_Node000022"><a xlink:href="../../d6/dd5/FactoryBase_8h.html" target="_top" xlink:title="File contains the FactoryBase class declarations.">
<polygon fill="white" stroke="#666666" points="503.5,-239 363.5,-239 363.5,-220 503.5,-220 503.5,-239"/>
<text text-anchor="middle" x="433.5" y="-227" font-family="Helvetica,sans-Serif" font-size="10.00">cantera/base/FactoryBase.h</text>
</a>
</g>
</g>
<!-- Node2&#45;&gt;Node22 -->
<g id="edge22_Node000002_Node000022" class="edge">
<title>Node2&#45;&gt;Node22</title>
<g id="a_edge22_Node000002_Node000022"><a xlink:title=" ">
<path fill="none" stroke="#63b8ff" d="M373.07,-274.98C383.92,-267 400.38,-254.88 413.38,-245.31"/>
<polygon fill="#63b8ff" stroke="#63b8ff" points="415.74,-247.92 421.72,-239.17 411.59,-242.28 415.74,-247.92"/>
</a>
</g>
</g>
<!-- Node4 -->
<g id="Node000004" class="node">
<title>Node4</title>
<g id="a_Node000004"><a xlink:href="../../d9/ddc/ct__defs_8h.html" target="_top" xlink:title="This file contains definitions of constants, types and terms that are used in internal routines and a...">
<polygon fill="white" stroke="#666666" points="358.5,-74 242.5,-74 242.5,-55 358.5,-55 358.5,-74"/>
<text text-anchor="middle" x="300.5" y="-62" font-family="Helvetica,sans-Serif" font-size="10.00">cantera/base/ct_defs.h</text>
</a>
</g>
</g>
<!-- Node3&#45;&gt;Node4 -->
<g id="edge3_Node000003_Node000004" class="edge">
<title>Node3&#45;&gt;Node4</title>
<g id="a_edge3_Node000003_Node000004"><a xlink:title=" ">
<path fill="none" stroke="#63b8ff" d="M273.85,-219.98C256.92,-213.17 236.61,-201.76 226.5,-184 204.85,-145.99 250.43,-102.72 279.26,-80.47"/>
<polygon fill="#63b8ff" stroke="#63b8ff" points="281.65,-83.05 287.58,-74.27 277.47,-77.44 281.65,-83.05"/>
</a>
</g>
</g>
<!-- Node15 -->
<g id="Node000015" class="node">
<title>Node15</title>
<g id="a_Node000015"><a xlink:href="../../db/d98/ctexceptions_8h.html" target="_top" xlink:title="Definitions for the classes that are thrown when Cantera experiences an error condition (also contain...">
<polygon fill="white" stroke="#666666" points="503.5,-184 363.5,-184 363.5,-165 503.5,-165 503.5,-184"/>
<text text-anchor="middle" x="433.5" y="-172" font-family="Helvetica,sans-Serif" font-size="10.00">cantera/base/ctexceptions.h</text>
</a>
</g>
</g>
<!-- Node3&#45;&gt;Node15 -->
<g id="edge14_Node000003_Node000015" class="edge">
<title>Node3&#45;&gt;Node15</title>
<g id="a_edge14_Node000003_Node000015"><a xlink:title=" ">
<path fill="none" stroke="#63b8ff" d="M322.71,-219.98C344.23,-211.34 377.78,-197.87 402.33,-188.02"/>
<polygon fill="#63b8ff" stroke="#63b8ff" points="403.93,-191.14 411.91,-184.17 401.32,-184.65 403.93,-191.14"/>
</a>
</g>
</g>
<!-- Node21 -->
<g id="Node000021" class="node">
<title>Node21</title>
<g id="a_Node000021"><a xlink:href="../../d2/d49/global_8h.html" target="_top" xlink:title="This file contains definitions for utility functions and text for modules, inputfiles and logging,...">
<polygon fill="white" stroke="#666666" points="345.5,-184 235.5,-184 235.5,-165 345.5,-165 345.5,-184"/>
<text text-anchor="middle" x="290.5" y="-172" font-family="Helvetica,sans-Serif" font-size="10.00">cantera/base/global.h</text>
</a>
</g>
</g>
<!-- Node3&#45;&gt;Node21 -->
<g id="edge19_Node000003_Node000021" class="edge">
<title>Node3&#45;&gt;Node21</title>
<g id="a_edge19_Node000003_Node000021"><a xlink:title=" ">
<path fill="none" stroke="#63b8ff" d="M299.68,-219.75C298.24,-212.8 296.18,-202.85 294.37,-194.13"/>
<polygon fill="#63b8ff" stroke="#63b8ff" points="297.74,-193.17 292.28,-184.09 290.89,-194.59 297.74,-193.17"/>
</a>
</g>
</g>
<!-- Node5 -->
<g id="Node000005" class="node">
<title>Node5</title>
<g id="a_Node000005"><a xlink:href="../../db/d16/config_8h_source.html" target="_top" xlink:title=" ">
<polygon fill="white" stroke="#666666" points="51,-19 0,-19 0,0 51,0 51,-19"/>
<text text-anchor="middle" x="25.5" y="-7" font-family="Helvetica,sans-Serif" font-size="10.00">config.h</text>
</a>
</g>
</g>
<!-- Node4&#45;&gt;Node5 -->
<g id="edge4_Node000004_Node000005" class="edge">
<title>Node4&#45;&gt;Node5</title>
<g id="a_edge4_Node000004_Node000005"><a xlink:title=" ">
<path fill="none" stroke="#63b8ff" d="M249.77,-54.93C203.27,-46.88 132.29,-34.13 61.12,-19.03"/>
<polygon fill="#63b8ff" stroke="#63b8ff" points="61.59,-15.55 51.08,-16.88 60.12,-22.4 61.59,-15.55"/>
</a>
</g>
</g>
<!-- Node6 -->
<g id="Node000006" class="node">
<title>Node6</title>
<g id="a_Node000006"><a xlink:title=" ">
<polygon fill="#e0e0e0" stroke="#999999" points="113.5,-19 69.5,-19 69.5,0 113.5,0 113.5,-19"/>
<text text-anchor="middle" x="91.5" y="-7" font-family="Helvetica,sans-Serif" font-size="10.00">cmath</text>
</a>
</g>
</g>
<!-- Node4&#45;&gt;Node6 -->
<g id="edge5_Node000004_Node000006" class="edge">
<title>Node4&#45;&gt;Node6</title>
<g id="a_edge5_Node000004_Node000006"><a xlink:title=" ">
<path fill="none" stroke="#63b8ff" d="M265.32,-54.95C231.4,-46.66 178.39,-33.55 123.7,-19.27"/>
<polygon fill="#63b8ff" stroke="#63b8ff" points="124.4,-15.84 113.83,-16.69 122.62,-22.61 124.4,-15.84"/>
</a>
</g>
</g>
<!-- Node7 -->
<g id="Node000007" class="node">
<title>Node7</title>
<g id="a_Node000007"><a xlink:title=" ">
<polygon fill="#e0e0e0" stroke="#999999" points="177,-19 132,-19 132,0 177,0 177,-19"/>
<text text-anchor="middle" x="154.5" y="-7" font-family="Helvetica,sans-Serif" font-size="10.00">cstdlib</text>
</a>
</g>
</g>
<!-- Node4&#45;&gt;Node7 -->
<g id="edge6_Node000004_Node000007" class="edge">
<title>Node4&#45;&gt;Node7</title>
<g id="a_edge6_Node000004_Node000007"><a xlink:title=" ">
<path fill="none" stroke="#63b8ff" d="M277.04,-54.98C252.63,-46.12 214.23,-32.18 186.93,-22.27"/>
<polygon fill="#63b8ff" stroke="#63b8ff" points="188.01,-18.94 177.42,-18.82 185.62,-25.52 188.01,-18.94"/>
</a>
</g>
</g>
<!-- Node8 -->
<g id="Node000008" class="node">
<title>Node8</title>
<g id="a_Node000008"><a xlink:title=" ">
<polygon fill="#e0e0e0" stroke="#999999" points="239.5,-19 195.5,-19 195.5,0 239.5,0 239.5,-19"/>
<text text-anchor="middle" x="217.5" y="-7" font-family="Helvetica,sans-Serif" font-size="10.00">vector</text>
</a>
</g>
</g>
<!-- Node4&#45;&gt;Node8 -->
<g id="edge7_Node000004_Node000008" class="edge">
<title>Node4&#45;&gt;Node8</title>
<g id="a_edge7_Node000004_Node000008"><a xlink:title=" ">
<path fill="none" stroke="#63b8ff" d="M287.16,-54.98C274.41,-46.84 254.95,-34.41 239.83,-24.76"/>
<polygon fill="#63b8ff" stroke="#63b8ff" points="241.39,-21.6 231.08,-19.17 237.62,-27.5 241.39,-21.6"/>
</a>
</g>
</g>
<!-- Node9 -->
<g id="Node000009" class="node">
<title>Node9</title>
<g id="a_Node000009"><a xlink:title=" ">
<polygon fill="#e0e0e0" stroke="#999999" points="293,-19 258,-19 258,0 293,0 293,-19"/>
<text text-anchor="middle" x="275.5" y="-7" font-family="Helvetica,sans-Serif" font-size="10.00">map</text>
</a>
</g>
</g>
<!-- Node4&#45;&gt;Node9 -->
<g id="edge8_Node000004_Node000009" class="edge">
<title>Node4&#45;&gt;Node9</title>
<g id="a_edge8_Node000004_Node000009"><a xlink:title=" ">
<path fill="none" stroke="#63b8ff" d="M296.37,-54.75C292.99,-47.57 288.08,-37.18 283.88,-28.27"/>
<polygon fill="#63b8ff" stroke="#63b8ff" points="286.98,-26.64 279.55,-19.09 280.65,-29.63 286.98,-26.64"/>
</a>
</g>
</g>
<!-- Node10 -->
<g id="Node000010" class="node">
<title>Node10</title>
<g id="a_Node000010"><a xlink:title=" ">
<polygon fill="#e0e0e0" stroke="#999999" points="341.5,-19 311.5,-19 311.5,0 341.5,0 341.5,-19"/>
<text text-anchor="middle" x="326.5" y="-7" font-family="Helvetica,sans-Serif" font-size="10.00">set</text>
</a>
</g>
</g>
<!-- Node4&#45;&gt;Node10 -->
<g id="edge9_Node000004_Node000010" class="edge">
<title>Node4&#45;&gt;Node10</title>
<g id="a_edge9_Node000004_Node000010"><a xlink:title=" ">
<path fill="none" stroke="#63b8ff" d="M304.79,-54.75C308.31,-47.57 313.41,-37.18 317.78,-28.27"/>
<polygon fill="#63b8ff" stroke="#63b8ff" points="321.02,-29.61 322.29,-19.09 314.74,-26.53 321.02,-29.61"/>
</a>
</g>
</g>
<!-- Node11 -->
<g id="Node000011" class="node">
<title>Node11</title>
<g id="a_Node000011"><a xlink:title=" ">
<polygon fill="#e0e0e0" stroke="#999999" points="401,-19 360,-19 360,0 401,0 401,-19"/>
<text text-anchor="middle" x="380.5" y="-7" font-family="Helvetica,sans-Serif" font-size="10.00">string</text>
</a>
</g>
</g>
<!-- Node4&#45;&gt;Node11 -->
<g id="edge10_Node000004_Node000011" class="edge">
<title>Node4&#45;&gt;Node11</title>
<g id="a_edge10_Node000004_Node000011"><a xlink:title=" ">
<path fill="none" stroke="#63b8ff" d="M313.35,-54.98C325.64,-46.84 344.41,-34.41 358.98,-24.76"/>
<polygon fill="#63b8ff" stroke="#63b8ff" points="361.01,-27.61 367.41,-19.17 357.14,-21.78 361.01,-27.61"/>
</a>
</g>
</g>
<!-- Node12 -->
<g id="Node000012" class="node">
<title>Node12</title>
<g id="a_Node000012"><a xlink:title=" ">
<polygon fill="#e0e0e0" stroke="#999999" points="475.5,-19 419.5,-19 419.5,0 475.5,0 475.5,-19"/>
<text text-anchor="middle" x="447.5" y="-7" font-family="Helvetica,sans-Serif" font-size="10.00">algorithm</text>
</a>
</g>
</g>
<!-- Node4&#45;&gt;Node12 -->
<g id="edge11_Node000004_Node000012" class="edge">
<title>Node4&#45;&gt;Node12</title>
<g id="a_edge11_Node000004_Node000012"><a xlink:title=" ">
<path fill="none" stroke="#63b8ff" d="M324.12,-54.98C348.4,-46.23 386.45,-32.51 413.87,-22.62"/>
<polygon fill="#63b8ff" stroke="#63b8ff" points="415.23,-25.85 423.45,-19.17 412.86,-19.27 415.23,-25.85"/>
</a>
</g>
</g>
<!-- Node13 -->
<g id="Node000013" class="node">
<title>Node13</title>
<g id="a_Node000013"><a xlink:title=" ">
<polygon fill="#e0e0e0" stroke="#999999" points="545.5,-19 493.5,-19 493.5,0 545.5,0 545.5,-19"/>
<text text-anchor="middle" x="519.5" y="-7" font-family="Helvetica,sans-Serif" font-size="10.00">memory</text>
</a>
</g>
</g>
<!-- Node4&#45;&gt;Node13 -->
<g id="edge12_Node000004_Node000013" class="edge">
<title>Node4&#45;&gt;Node13</title>
<g id="a_edge12_Node000004_Node000013"><a xlink:title=" ">
<path fill="none" stroke="#63b8ff" d="M335.78,-54.98C370.79,-46.52 426.27,-33.11 483.23,-19.31"/>
<polygon fill="#63b8ff" stroke="#63b8ff" points="484.23,-22.66 493.13,-16.91 482.58,-15.86 484.23,-22.66"/>
</a>
</g>
</g>
<!-- Node14 -->
<g id="Node000014" class="node">
<title>Node14</title>
<g id="a_Node000014"><a xlink:title=" ">
<polygon fill="#e0e0e0" stroke="#999999" points="623,-19 564,-19 564,0 623,0 623,-19"/>
<text text-anchor="middle" x="593.5" y="-7" font-family="Helvetica,sans-Serif" font-size="10.00">functional</text>
</a>
</g>
</g>
<!-- Node4&#45;&gt;Node14 -->
<g id="edge13_Node000004_Node000014" class="edge">
<title>Node4&#45;&gt;Node14</title>
<g id="a_edge13_Node000004_Node000014"><a xlink:title=" ">
<path fill="none" stroke="#63b8ff" d="M353.15,-54.92C402.4,-46.76 478.23,-33.81 553.57,-19.11"/>
<polygon fill="#63b8ff" stroke="#63b8ff" points="554.58,-22.48 563.72,-17.12 553.23,-15.61 554.58,-22.48"/>
</a>
</g>
</g>
<!-- Node15&#45;&gt;Node4 -->
<g id="edge15_Node000015_Node000004" class="edge">
<title>Node15&#45;&gt;Node4</title>
<g id="a_edge15_Node000015_Node000004"><a xlink:title=" ">
<path fill="none" stroke="#63b8ff" d="M430.64,-165C425.76,-151.67 414.68,-125.77 397.5,-110 381.46,-95.28 359.71,-84.69 340.86,-77.55"/>
<polygon fill="#63b8ff" stroke="#63b8ff" points="341.92,-74.21 331.32,-74.13 339.55,-80.8 341.92,-74.21"/>
</a>
</g>
</g>
<!-- Node16 -->
<g id="Node000016" class="node">
<title>Node16</title>
<g id="a_Node000016"><a xlink:href="../../db/def/fmt_8h.html" target="_top" xlink:title="Wrapper for either system&#45;installed or local headers for fmt.">
<polygon fill="#fff0f0" stroke="red" points="388.5,-129 290.5,-129 290.5,-110 388.5,-110 388.5,-129"/>
<text text-anchor="middle" x="339.5" y="-117" font-family="Helvetica,sans-Serif" font-size="10.00">cantera/base/fmt.h</text>
</a>
</g>
</g>
<!-- Node15&#45;&gt;Node16 -->
<g id="edge16_Node000015_Node000016" class="edge">
<title>Node15&#45;&gt;Node16</title>
<g id="a_edge16_Node000015_Node000016"><a xlink:title=" ">
<path fill="none" stroke="#63b8ff" d="M418.4,-164.98C403.68,-156.69 381.08,-143.94 363.83,-134.22"/>
<polygon fill="#63b8ff" stroke="#63b8ff" points="365.31,-131.03 354.88,-129.17 361.87,-137.13 365.31,-131.03"/>
</a>
</g>
</g>
<!-- Node20 -->
<g id="Node000020" class="node">
<title>Node20</title>
<g id="a_Node000020"><a xlink:title=" ">
<polygon fill="#e0e0e0" stroke="#999999" points="504,-129 445,-129 445,-110 504,-110 504,-129"/>
<text text-anchor="middle" x="474.5" y="-117" font-family="Helvetica,sans-Serif" font-size="10.00">exception</text>
</a>
</g>
</g>
<!-- Node15&#45;&gt;Node20 -->
<g id="edge18_Node000015_Node000020" class="edge">
<title>Node15&#45;&gt;Node20</title>
<g id="a_edge18_Node000015_Node000020"><a xlink:title=" ">
<path fill="none" stroke="#63b8ff" d="M440.27,-164.75C446.06,-157.26 454.56,-146.28 461.64,-137.13"/>
<polygon fill="#63b8ff" stroke="#63b8ff" points="464.51,-139.14 467.86,-129.09 458.97,-134.86 464.51,-139.14"/>
</a>
</g>
</g>
<!-- Node16&#45;&gt;Node4 -->
<g id="edge17_Node000016_Node000004" class="edge">
<title>Node16&#45;&gt;Node4</title>
<g id="a_edge17_Node000016_Node000004"><a xlink:title=" ">
<path fill="none" stroke="#63b8ff" d="M333.06,-109.75C327.61,-102.34 319.64,-91.5 312.94,-82.41"/>
<polygon fill="#63b8ff" stroke="#63b8ff" points="315.57,-80.07 306.82,-74.09 309.93,-84.22 315.57,-80.07"/>
</a>
</g>
</g>
<!-- Node21&#45;&gt;Node4 -->
<g id="edge20_Node000021_Node000004" class="edge">
<title>Node21&#45;&gt;Node4</title>
<g id="a_edge20_Node000021_Node000004"><a xlink:title=" ">
<path fill="none" stroke="#63b8ff" d="M287.4,-164.82C283.43,-152.53 277.53,-129.42 281.5,-110 283.39,-100.74 287.29,-91.03 291.07,-83.04"/>
<polygon fill="#63b8ff" stroke="#63b8ff" points="294.24,-84.53 295.62,-74.02 287.99,-81.37 294.24,-84.53"/>
</a>
</g>
</g>
<!-- Node21&#45;&gt;Node16 -->
<g id="edge21_Node000021_Node000016" class="edge">
<title>Node21&#45;&gt;Node16</title>
<g id="a_edge21_Node000021_Node000016"><a xlink:title=" ">
<path fill="none" stroke="#63b8ff" d="M298.59,-164.75C305.66,-157.11 316.09,-145.82 324.65,-136.56"/>
<polygon fill="#63b8ff" stroke="#63b8ff" points="327.34,-138.81 331.56,-129.09 322.2,-134.06 327.34,-138.81"/>
</a>
</g>
</g>
<!-- Node22&#45;&gt;Node15 -->
<g id="edge25_Node000022_Node000015" class="edge">
<title>Node22&#45;&gt;Node15</title>
<g id="a_edge25_Node000022_Node000015"><a xlink:title=" ">
<path fill="none" stroke="#63b8ff" d="M433.5,-219.75C433.5,-212.8 433.5,-202.85 433.5,-194.13"/>
<polygon fill="#63b8ff" stroke="#63b8ff" points="437,-194.09 433.5,-184.09 430,-194.09 437,-194.09"/>
</a>
</g>
</g>
<!-- Node22&#45;&gt;Node21 -->
<g id="edge26_Node000022_Node000021" class="edge">
<title>Node22&#45;&gt;Node21</title>
<g id="a_edge26_Node000022_Node000021"><a xlink:title=" ">
<path fill="none" stroke="#63b8ff" d="M410.52,-219.98C387,-211.27 350.21,-197.63 323.56,-187.75"/>
<polygon fill="#63b8ff" stroke="#63b8ff" points="324.49,-184.36 313.89,-184.17 322.05,-190.93 324.49,-184.36"/>
</a>
</g>
</g>
<!-- Node23 -->
<g id="Node000023" class="node">
<title>Node23</title>
<g id="a_Node000023"><a xlink:title=" ">
<polygon fill="#e0e0e0" stroke="#999999" points="667.5,-184 623.5,-184 623.5,-165 667.5,-165 667.5,-184"/>
<text text-anchor="middle" x="645.5" y="-172" font-family="Helvetica,sans-Serif" font-size="10.00">mutex</text>
</a>
</g>
</g>
<!-- Node22&#45;&gt;Node23 -->
<g id="edge23_Node000022_Node000023" class="edge">
<title>Node22&#45;&gt;Node23</title>
<g id="a_edge23_Node000022_Node000023"><a xlink:title=" ">
<path fill="none" stroke="#63b8ff" d="M469.29,-220C503.78,-211.74 557.69,-198.66 613.16,-184.3"/>
<polygon fill="#63b8ff" stroke="#63b8ff" points="614.37,-187.6 623.17,-181.7 612.61,-180.83 614.37,-187.6"/>
</a>
</g>
</g>
<!-- Node24 -->
<g id="Node000024" class="node">
<title>Node24</title>
<g id="a_Node000024"><a xlink:title=" ">
<polygon fill="#e0e0e0" stroke="#999999" points="605,-184 522,-184 522,-165 605,-165 605,-184"/>
<text text-anchor="middle" x="563.5" y="-172" font-family="Helvetica,sans-Serif" font-size="10.00">unordered_map</text>
</a>
</g>
</g>
<!-- Node22&#45;&gt;Node24 -->
<g id="edge24_Node000022_Node000024" class="edge">
<title>Node22&#45;&gt;Node24</title>
<g id="a_edge24_Node000022_Node000024"><a xlink:title=" ">
<path fill="none" stroke="#63b8ff" d="M454.39,-219.98C475.58,-211.34 508.63,-197.87 532.8,-188.02"/>
<polygon fill="#63b8ff" stroke="#63b8ff" points="534.29,-191.19 542.23,-184.17 531.65,-184.7 534.29,-191.19"/>
</a>
</g>
</g>
</g>
</svg>

<g id="navigator" transform="translate(0 0)" fill="#404254">
  <rect fill="#f2f5e9" fill-opacity="0.5" stroke="#606060" stroke-width=".5" x="0" y="0" width="60" height="60"/>
  <use id="zoomplus" xlink:href="#zoomPlus" x="17" y="9" onmousedown="handleZoom(evt,'in')"/>
  <use id="zoomminus" xlink:href="#zoomMin" x="42" y="9" onmousedown="handleZoom(evt,'out')"/>
  <use id="reset" xlink:href="#resetDef" x="30" y="36" onmousedown="handleReset()"/>
   <use id="arrowup" xlink:href="#arrowUp" x="0" y="0" onmousedown="handlePan(0,-1)"/>
  <use id="arrowright" xlink:href="#arrowRight" x="0" y="0" onmousedown="handlePan(1,0)"/>
  <use id="arrowdown" xlink:href="#arrowDown" x="0" y="0" onmousedown="handlePan(0,1)"/>
  <use id="arrowleft" xlink:href="#arrowLeft" x="0" y="0" onmousedown="handlePan(-1,0)"/>
</g>
<svg viewBox="0 0 15 15" width="100%" height="30px" preserveAspectRatio="xMaxYMin meet">
 <g id="arrow_out" transform="scale(0.3 0.3)">
  <a xlink:href="transport_8h__incl_org.svg" target="_base">
   <rect id="button" ry="5" rx="5" y="6" x="6" height="38" width="38"
        fill="#f2f5e9" fill-opacity="0.5" stroke="#606060" stroke-width="1.0"/>
   <path id="arrow"
     d="M 11.500037,31.436501 C 11.940474,20.09759 22.043105,11.32322 32.158766,21.979434 L 37.068811,17.246167 C 37.068811,17.246167 37.088388,32 37.088388,32 L 22.160133,31.978069 C 22.160133,31.978069 26.997745,27.140456 26.997745,27.140456 C 18.528582,18.264221 13.291696,25.230495 11.500037,31.436501 z"
     style="fill:#404040;"/>
  </a>
 </g>
</svg>

<style type='text/css'>
<![CDATA[
[data-mouse-over-selected='false'] { opacity: 0.7; }
[data-mouse-over-selected='true']  { opacity: 1.0; }
]]>
</style>
<script type="application/ecmascript"><![CDATA[
document.addEventListener('DOMContentLoaded', (event) => {
  highlightEdges();
  highlightAdjacentNodes();
});
]]></script>
</svg>
