<?xml version="1.0" encoding="UTF-8" standalone="no"?>
<!DOCTYPE svg PUBLIC "-//W3C//DTD SVG 1.1//EN"
 "http://www.w3.org/Graphics/SVG/1.1/DTD/svg11.dtd">
<!-- Generated by graphviz version 2.43.0 (0)
 -->
<!-- Title: transport.h Pages: 1 -->
<!--zoomable 364 -->
<svg id="main" version="1.1" xmlns="http://www.w3.org/2000/svg" xmlns:xlink="http://www.w3.org/1999/xlink" xml:space="preserve" onload="init(evt)">
<style type="text/css"><![CDATA[
.edge:hover path { stroke: red; }
.edge:hover polygon { stroke: red; fill: red; }
]]></style>
<script type="text/javascript"><![CDATA[
var edges = document.getElementsByTagName('g');
if (edges && edges.length) {
  for (var i=0;i<edges.length;i++) {
    if (edges[i].id.substr(0,4)=='edge') {
      edges[i].setAttribute('class','edge');
    }
  }
}
]]></script>
        <defs>
                <circle id="rim" cx="0" cy="0" r="7"/>
                <circle id="rim2" cx="0" cy="0" r="3.5"/>
                <g id="zoomPlus">
                        <use xlink:href="#rim" fill="#404040">
                                <set attributeName="fill" to="#808080" begin="zoomplus.mouseover" end="zoomplus.mouseout"/>
                        </use>
                        <path d="M-4,0h8M0,-4v8" fill="none" stroke="white" stroke-width="1.5" pointer-events="none"/>
                </g>
                <g id="zoomMin">
                        <use xlink:href="#rim" fill="#404040">
                                <set attributeName="fill" to="#808080" begin="zoomminus.mouseover" end="zoomminus.mouseout"/>
                        </use>
                        <path d="M-4,0h8" fill="none" stroke="white" stroke-width="1.5" pointer-events="none"/>
                </g>
                <g id="dirArrow">
                        <path fill="none" stroke="white" stroke-width="1.5" d="M0,-3.0v7 M-2.5,-0.5L0,-3.0L2.5,-0.5"/>
                </g>
               <g id="resetDef">
                       <use xlink:href="#rim2" fill="#404040">
                               <set attributeName="fill" to="#808080" begin="reset.mouseover" end="reset.mouseout"/>
                       </use>
               </g>
        </defs>

<script type="text/javascript">
var viewWidth = 725;
var viewHeight = 364;
var sectionId = 'dynsection-0';
</script>
<script xlink:href="../../svgpan.js"/>
<svg id="graph" class="graph">
<g id="viewport">
<title>transport.h</title>
<polygon fill="white" stroke="transparent" points="-4,4 -4,-360 720.5,-360 720.5,4 -4,4"/>
<!-- Node1 -->
<g id="node1" class="node">
<title>Node1</title>
<g id="a_node1"><a xlink:title="Support for transport property calculation from C++ application programs.">
<polygon fill="#bfbfbf" stroke="black" points="348.5,-336.5 348.5,-355.5 418.5,-355.5 418.5,-336.5 348.5,-336.5"/>
<text text-anchor="middle" x="383.5" y="-343.5" font-family="Helvetica,sans-Serif" font-size="10.00">transport.h</text>
</a>
</g>
</g>
<!-- Node2 -->
<g id="node2" class="node">
<title>Node2</title>
<g id="a_node2"><a xlink:href="../../d3/da4/TransportFactory_8h.html" target="_top" xlink:title="Header file defining class TransportFactory (see TransportFactory)">
<polygon fill="white" stroke="black" points="307.5,-280.5 307.5,-299.5 459.5,-299.5 459.5,-280.5 307.5,-280.5"/>
<text text-anchor="middle" x="383.5" y="-287.5" font-family="Helvetica,sans-Serif" font-size="10.00">transport/TransportFactory.h</text>
</a>
</g>
</g>
<!-- Node1&#45;&gt;Node2 -->
<g id="edge1" class="edge">
<title>Node1&#45;&gt;Node2</title>
<path fill="none" stroke="midnightblue" d="M383.5,-336.08C383.5,-329.01 383.5,-318.86 383.5,-309.99"/>
<polygon fill="midnightblue" stroke="midnightblue" points="387,-309.75 383.5,-299.75 380,-309.75 387,-309.75"/>
</g>
<!-- Node3 -->
<g id="node3" class="node">
<title>Node3</title>
<g id="a_node3"><a xlink:href="../../d8/d5e/Transport_8h.html" target="_top" xlink:title="Headers for the Transport object, which is the virtual base class for all transport property evaluato...">
<polygon fill="white" stroke="black" points="284,-224.5 284,-243.5 355,-243.5 355,-224.5 284,-224.5"/>
<text text-anchor="middle" x="319.5" y="-231.5" font-family="Helvetica,sans-Serif" font-size="10.00">Transport.h</text>
</a>
</g>
</g>
<!-- Node2&#45;&gt;Node3 -->
<g id="edge2" class="edge">
<title>Node2&#45;&gt;Node3</title>
<path fill="none" stroke="midnightblue" d="M373.22,-280.32C363.66,-272.26 349.22,-260.08 337.72,-250.37"/>
<polygon fill="midnightblue" stroke="midnightblue" points="339.87,-247.61 329.97,-243.83 335.36,-252.96 339.87,-247.61"/>
</g>
<!-- Node22 -->
<g id="node19" class="node">
<title>Node22</title>
<g id="a_node19"><a xlink:href="../../d6/dd5/FactoryBase_8h.html" target="_top" xlink:title="File contains the FactoryBase class declarations.">
<polygon fill="white" stroke="black" points="386,-224.5 386,-243.5 537,-243.5 537,-224.5 386,-224.5"/>
<text text-anchor="middle" x="461.5" y="-231.5" font-family="Helvetica,sans-Serif" font-size="10.00">cantera/base/FactoryBase.h</text>
</a>
</g>
</g>
<!-- Node2&#45;&gt;Node22 -->
<g id="edge22" class="edge">
<title>Node2&#45;&gt;Node22</title>
<path fill="none" stroke="midnightblue" d="M396.03,-280.32C408.09,-271.98 426.53,-259.21 440.77,-249.35"/>
<polygon fill="midnightblue" stroke="midnightblue" points="442.77,-252.22 449,-243.65 438.78,-246.47 442.77,-252.22"/>
</g>
<!-- Node4 -->
<g id="node4" class="node">
<title>Node4</title>
<g id="a_node4"><a xlink:href="../../d9/ddc/ct__defs_8h.html" target="_top" xlink:title="This file contains definitions of constants, types and terms that are used in internal routines and a...">
<polygon fill="white" stroke="black" points="252,-56.5 252,-75.5 379,-75.5 379,-56.5 252,-56.5"/>
<text text-anchor="middle" x="315.5" y="-63.5" font-family="Helvetica,sans-Serif" font-size="10.00">cantera/base/ct_defs.h</text>
</a>
</g>
</g>
<!-- Node3&#45;&gt;Node4 -->
<g id="edge3" class="edge">
<title>Node3&#45;&gt;Node4</title>
<path fill="none" stroke="midnightblue" d="M286.51,-224.44C268.04,-217.77 246.55,-206.45 235.5,-188 211.95,-148.67 262.34,-104.09 293.42,-81.62"/>
<polygon fill="midnightblue" stroke="midnightblue" points="295.79,-84.23 301.98,-75.63 291.78,-78.5 295.79,-84.23"/>
</g>
<!-- Node15 -->
<g id="node15" class="node">
<title>Node15</title>
<g id="a_node15"><a xlink:href="../../db/d98/ctexceptions_8h.html" target="_top" xlink:title="Definitions for the classes that are thrown when Cantera experiences an error condition (also contain...">
<polygon fill="white" stroke="black" points="384.5,-168.5 384.5,-187.5 538.5,-187.5 538.5,-168.5 384.5,-168.5"/>
<text text-anchor="middle" x="461.5" y="-175.5" font-family="Helvetica,sans-Serif" font-size="10.00">cantera/base/ctexceptions.h</text>
</a>
</g>
</g>
<!-- Node3&#45;&gt;Node15 -->
<g id="edge14" class="edge">
<title>Node3&#45;&gt;Node15</title>
<path fill="none" stroke="midnightblue" d="M342,-224.44C365.58,-215.48 402.82,-201.31 429.46,-191.18"/>
<polygon fill="midnightblue" stroke="midnightblue" points="431,-194.34 439.1,-187.52 428.51,-187.8 431,-194.34"/>
</g>
<!-- Node21 -->
<g id="node18" class="node">
<title>Node21</title>
<g id="a_node18"><a xlink:href="../../d2/d49/global_8h.html" target="_top" xlink:title="This file contains definitions for utility functions and text for modules, inputfiles and logging,...">
<polygon fill="white" stroke="black" points="244.5,-168.5 244.5,-187.5 366.5,-187.5 366.5,-168.5 244.5,-168.5"/>
<text text-anchor="middle" x="305.5" y="-175.5" font-family="Helvetica,sans-Serif" font-size="10.00">cantera/base/global.h</text>
</a>
</g>
</g>
<!-- Node3&#45;&gt;Node21 -->
<g id="edge19" class="edge">
<title>Node3&#45;&gt;Node21</title>
<path fill="none" stroke="midnightblue" d="M317.19,-224.08C315.33,-216.93 312.66,-206.64 310.35,-197.69"/>
<polygon fill="midnightblue" stroke="midnightblue" points="313.67,-196.55 307.77,-187.75 306.89,-198.31 313.67,-196.55"/>
</g>
<!-- Node5 -->
<g id="node5" class="node">
<title>Node5</title>
<g id="a_node5"><a xlink:href="../../db/d16/config_8h_source.html" target="_top" xlink:title=" ">
<polygon fill="white" stroke="black" points="0,-0.5 0,-19.5 55,-19.5 55,-0.5 0,-0.5"/>
<text text-anchor="middle" x="27.5" y="-7.5" font-family="Helvetica,sans-Serif" font-size="10.00">config.h</text>
</a>
</g>
</g>
<!-- Node4&#45;&gt;Node5 -->
<g id="edge4" class="edge">
<title>Node4&#45;&gt;Node5</title>
<path fill="none" stroke="midnightblue" d="M261.71,-56.49C212.74,-48.49 138.25,-35.71 65.19,-20.26"/>
<polygon fill="midnightblue" stroke="midnightblue" points="65.87,-16.83 55.36,-18.17 64.41,-23.68 65.87,-16.83"/>
</g>
<!-- Node6 -->
<g id="node6" class="node">
<title>Node6</title>
<g id="a_node6"><a xlink:title=" ">
<polygon fill="white" stroke="#bfbfbf" points="73,-0.5 73,-19.5 120,-19.5 120,-0.5 73,-0.5"/>
<text text-anchor="middle" x="96.5" y="-7.5" font-family="Helvetica,sans-Serif" font-size="10.00">cmath</text>
</a>
</g>
</g>
<!-- Node4&#45;&gt;Node6 -->
<g id="edge5" class="edge">
<title>Node4&#45;&gt;Node6</title>
<path fill="none" stroke="midnightblue" d="M278.14,-56.45C242.39,-48.17 186.71,-35.02 130.07,-20.35"/>
<polygon fill="midnightblue" stroke="midnightblue" points="130.8,-16.92 120.24,-17.78 129.03,-23.69 130.8,-16.92"/>
</g>
<!-- Node7 -->
<g id="node7" class="node">
<title>Node7</title>
<g id="a_node7"><a xlink:title=" ">
<polygon fill="white" stroke="#bfbfbf" points="138,-0.5 138,-19.5 187,-19.5 187,-0.5 138,-0.5"/>
<text text-anchor="middle" x="162.5" y="-7.5" font-family="Helvetica,sans-Serif" font-size="10.00">cstdlib</text>
</a>
</g>
</g>
<!-- Node4&#45;&gt;Node7 -->
<g id="edge6" class="edge">
<title>Node4&#45;&gt;Node7</title>
<path fill="none" stroke="midnightblue" d="M291.26,-56.44C265.63,-47.4 225.01,-33.06 196.26,-22.92"/>
<polygon fill="midnightblue" stroke="midnightblue" points="197.22,-19.54 186.63,-19.52 194.89,-26.15 197.22,-19.54"/>
</g>
<!-- Node8 -->
<g id="node8" class="node">
<title>Node8</title>
<g id="a_node8"><a xlink:title=" ">
<polygon fill="white" stroke="#bfbfbf" points="205,-0.5 205,-19.5 252,-19.5 252,-0.5 205,-0.5"/>
<text text-anchor="middle" x="228.5" y="-7.5" font-family="Helvetica,sans-Serif" font-size="10.00">vector</text>
</a>
</g>
</g>
<!-- Node4&#45;&gt;Node8 -->
<g id="edge7" class="edge">
<title>Node4&#45;&gt;Node8</title>
<path fill="none" stroke="midnightblue" d="M301.52,-56.32C287.95,-47.9 267.12,-34.97 251.18,-25.07"/>
<polygon fill="midnightblue" stroke="midnightblue" points="252.79,-21.95 242.44,-19.65 249.09,-27.9 252.79,-21.95"/>
</g>
<!-- Node9 -->
<g id="node9" class="node">
<title>Node9</title>
<g id="a_node9"><a xlink:title=" ">
<polygon fill="white" stroke="#bfbfbf" points="270.5,-0.5 270.5,-19.5 308.5,-19.5 308.5,-0.5 270.5,-0.5"/>
<text text-anchor="middle" x="289.5" y="-7.5" font-family="Helvetica,sans-Serif" font-size="10.00">map</text>
</a>
</g>
</g>
<!-- Node4&#45;&gt;Node9 -->
<g id="edge8" class="edge">
<title>Node4&#45;&gt;Node9</title>
<path fill="none" stroke="midnightblue" d="M311.21,-56.08C307.65,-48.69 302.48,-37.95 298.08,-28.81"/>
<polygon fill="midnightblue" stroke="midnightblue" points="301.21,-27.24 293.71,-19.75 294.9,-30.28 301.21,-27.24"/>
</g>
<!-- Node10 -->
<g id="node10" class="node">
<title>Node10</title>
<g id="a_node10"><a xlink:title=" ">
<polygon fill="white" stroke="#bfbfbf" points="326.5,-0.5 326.5,-19.5 358.5,-19.5 358.5,-0.5 326.5,-0.5"/>
<text text-anchor="middle" x="342.5" y="-7.5" font-family="Helvetica,sans-Serif" font-size="10.00">set</text>
</a>
</g>
</g>
<!-- Node4&#45;&gt;Node10 -->
<g id="edge9" class="edge">
<title>Node4&#45;&gt;Node10</title>
<path fill="none" stroke="midnightblue" d="M319.96,-56.08C323.65,-48.69 329.02,-37.95 333.59,-28.81"/>
<polygon fill="midnightblue" stroke="midnightblue" points="336.78,-30.26 338.12,-19.75 330.52,-27.13 336.78,-30.26"/>
</g>
<!-- Node11 -->
<g id="node11" class="node">
<title>Node11</title>
<g id="a_node11"><a xlink:title=" ">
<polygon fill="white" stroke="#bfbfbf" points="376.5,-0.5 376.5,-19.5 420.5,-19.5 420.5,-0.5 376.5,-0.5"/>
<text text-anchor="middle" x="398.5" y="-7.5" font-family="Helvetica,sans-Serif" font-size="10.00">string</text>
</a>
</g>
</g>
<!-- Node4&#45;&gt;Node11 -->
<g id="edge10" class="edge">
<title>Node4&#45;&gt;Node11</title>
<path fill="none" stroke="midnightblue" d="M328.84,-56.32C341.66,-47.98 361.28,-35.21 376.44,-25.35"/>
<polygon fill="midnightblue" stroke="midnightblue" points="378.72,-28.04 385.2,-19.65 374.91,-22.17 378.72,-28.04"/>
</g>
<!-- Node12 -->
<g id="node12" class="node">
<title>Node12</title>
<g id="a_node12"><a xlink:title=" ">
<polygon fill="white" stroke="#bfbfbf" points="438.5,-0.5 438.5,-19.5 502.5,-19.5 502.5,-0.5 438.5,-0.5"/>
<text text-anchor="middle" x="470.5" y="-7.5" font-family="Helvetica,sans-Serif" font-size="10.00">algorithm</text>
</a>
</g>
</g>
<!-- Node4&#45;&gt;Node12 -->
<g id="edge11" class="edge">
<title>Node4&#45;&gt;Node12</title>
<path fill="none" stroke="midnightblue" d="M340.06,-56.44C366.02,-47.4 407.17,-33.06 436.3,-22.92"/>
<polygon fill="midnightblue" stroke="midnightblue" points="437.76,-26.11 446.05,-19.52 435.46,-19.5 437.76,-26.11"/>
</g>
<!-- Node13 -->
<g id="node13" class="node">
<title>Node13</title>
<g id="a_node13"><a xlink:title=" ">
<polygon fill="white" stroke="#bfbfbf" points="520.5,-0.5 520.5,-19.5 578.5,-19.5 578.5,-0.5 520.5,-0.5"/>
<text text-anchor="middle" x="549.5" y="-7.5" font-family="Helvetica,sans-Serif" font-size="10.00">memory</text>
</a>
</g>
</g>
<!-- Node4&#45;&gt;Node13 -->
<g id="edge12" class="edge">
<title>Node4&#45;&gt;Node13</title>
<path fill="none" stroke="midnightblue" d="M353.09,-56.45C390.56,-47.91 450,-34.31 510.71,-20.17"/>
<polygon fill="midnightblue" stroke="midnightblue" points="511.51,-23.58 520.46,-17.9 509.93,-16.76 511.51,-23.58"/>
</g>
<!-- Node14 -->
<g id="node14" class="node">
<title>Node14</title>
<g id="a_node14"><a xlink:title=" ">
<polygon fill="white" stroke="#bfbfbf" points="597,-0.5 597,-19.5 662,-19.5 662,-0.5 597,-0.5"/>
<text text-anchor="middle" x="629.5" y="-7.5" font-family="Helvetica,sans-Serif" font-size="10.00">functional</text>
</a>
</g>
</g>
<!-- Node4&#45;&gt;Node14 -->
<g id="edge13" class="edge">
<title>Node4&#45;&gt;Node14</title>
<path fill="none" stroke="midnightblue" d="M371.9,-56.46C424.85,-48.27 506.51,-35.17 587.15,-19.99"/>
<polygon fill="midnightblue" stroke="midnightblue" points="587.8,-23.43 596.97,-18.13 586.49,-16.55 587.8,-23.43"/>
</g>
<!-- Node15&#45;&gt;Node4 -->
<g id="edge15" class="edge">
<title>Node15&#45;&gt;Node4</title>
<path fill="none" stroke="midnightblue" d="M458.03,-168.25C452.18,-154.54 439.17,-127.94 420.5,-112 402.61,-96.73 378.76,-85.95 358.31,-78.78"/>
<polygon fill="midnightblue" stroke="midnightblue" points="359.18,-75.38 348.59,-75.54 356.97,-82.02 359.18,-75.38"/>
</g>
<!-- Node16 -->
<g id="node16" class="node">
<title>Node16</title>
<g id="a_node16"><a xlink:href="../../db/def/fmt_8h.html" target="_top" xlink:title="Wrapper for either system&#45;installed or local headers for fmt.">
<polygon fill="white" stroke="red" points="303,-112.5 303,-131.5 412,-131.5 412,-112.5 303,-112.5"/>
<text text-anchor="middle" x="357.5" y="-119.5" font-family="Helvetica,sans-Serif" font-size="10.00">cantera/base/fmt.h</text>
</a>
</g>
</g>
<!-- Node15&#45;&gt;Node16 -->
<g id="edge16" class="edge">
<title>Node15&#45;&gt;Node16</title>
<path fill="none" stroke="midnightblue" d="M444.79,-168.32C428.19,-159.7 402.5,-146.36 383.28,-136.39"/>
<polygon fill="midnightblue" stroke="midnightblue" points="384.66,-133.16 374.17,-131.65 381.43,-139.37 384.66,-133.16"/>
</g>
<!-- Node20 -->
<g id="node17" class="node">
<title>Node20</title>
<g id="a_node17"><a xlink:title=" ">
<polygon fill="white" stroke="#bfbfbf" points="469,-112.5 469,-131.5 534,-131.5 534,-112.5 469,-112.5"/>
<text text-anchor="middle" x="501.5" y="-119.5" font-family="Helvetica,sans-Serif" font-size="10.00">exception</text>
</a>
</g>
</g>
<!-- Node15&#45;&gt;Node20 -->
<g id="edge18" class="edge">
<title>Node15&#45;&gt;Node20</title>
<path fill="none" stroke="midnightblue" d="M468.11,-168.08C473.76,-160.46 482.04,-149.26 488.95,-139.94"/>
<polygon fill="midnightblue" stroke="midnightblue" points="491.88,-141.87 495.02,-131.75 486.25,-137.7 491.88,-141.87"/>
</g>
<!-- Node16&#45;&gt;Node4 -->
<g id="edge17" class="edge">
<title>Node16&#45;&gt;Node4</title>
<path fill="none" stroke="midnightblue" d="M350.56,-112.08C344.57,-104.38 335.75,-93.03 328.45,-83.65"/>
<polygon fill="midnightblue" stroke="midnightblue" points="331.21,-81.5 322.31,-75.75 325.68,-85.79 331.21,-81.5"/>
</g>
<!-- Node21&#45;&gt;Node4 -->
<g id="edge20" class="edge">
<title>Node21&#45;&gt;Node4</title>
<path fill="none" stroke="midnightblue" d="M301.55,-168.12C296.5,-155.55 288.9,-131.9 293.5,-112 295.73,-102.36 300.32,-92.41 304.74,-84.31"/>
<polygon fill="midnightblue" stroke="midnightblue" points="307.85,-85.92 309.86,-75.52 301.8,-82.4 307.85,-85.92"/>
</g>
<!-- Node21&#45;&gt;Node16 -->
<g id="edge21" class="edge">
<title>Node21&#45;&gt;Node16</title>
<path fill="none" stroke="midnightblue" d="M314.09,-168.08C321.66,-160.22 332.88,-148.57 342.01,-139.08"/>
<polygon fill="midnightblue" stroke="midnightblue" points="344.66,-141.38 349.07,-131.75 339.62,-136.53 344.66,-141.38"/>
</g>
<!-- Node22&#45;&gt;Node15 -->
<g id="edge25" class="edge">
<title>Node22&#45;&gt;Node15</title>
<path fill="none" stroke="midnightblue" d="M461.5,-224.08C461.5,-217.01 461.5,-206.86 461.5,-197.99"/>
<polygon fill="midnightblue" stroke="midnightblue" points="465,-197.75 461.5,-187.75 458,-197.75 465,-197.75"/>
</g>
<!-- Node22&#45;&gt;Node21 -->
<g id="edge26" class="edge">
<title>Node22&#45;&gt;Node21</title>
<path fill="none" stroke="midnightblue" d="M436.78,-224.44C410.65,-215.4 369.24,-201.06 339.92,-190.92"/>
<polygon fill="midnightblue" stroke="midnightblue" points="340.7,-187.48 330.1,-187.52 338.41,-194.1 340.7,-187.48"/>
</g>
<!-- Node23 -->
<g id="node20" class="node">
<title>Node23</title>
<g id="a_node20"><a xlink:title=" ">
<polygon fill="white" stroke="#bfbfbf" points="668.5,-168.5 668.5,-187.5 716.5,-187.5 716.5,-168.5 668.5,-168.5"/>
<text text-anchor="middle" x="692.5" y="-175.5" font-family="Helvetica,sans-Serif" font-size="10.00">mutex</text>
</a>
</g>
</g>
<!-- Node22&#45;&gt;Node23 -->
<g id="edge23" class="edge">
<title>Node22&#45;&gt;Node23</title>
<path fill="none" stroke="midnightblue" d="M501.44,-224.45C539.4,-216.2 598.33,-203.1 658.35,-188.21"/>
<polygon fill="midnightblue" stroke="midnightblue" points="659.53,-191.52 668.38,-185.71 657.83,-184.73 659.53,-191.52"/>
</g>
<!-- Node24 -->
<g id="node21" class="node">
<title>Node24</title>
<g id="a_node21"><a xlink:title=" ">
<polygon fill="white" stroke="#bfbfbf" points="557,-168.5 557,-187.5 650,-187.5 650,-168.5 557,-168.5"/>
<text text-anchor="middle" x="603.5" y="-175.5" font-family="Helvetica,sans-Serif" font-size="10.00">unordered_map</text>
</a>
</g>
</g>
<!-- Node22&#45;&gt;Node24 -->
<g id="edge24" class="edge">
<title>Node22&#45;&gt;Node24</title>
<path fill="none" stroke="midnightblue" d="M484,-224.44C507.58,-215.48 544.82,-201.31 571.46,-191.18"/>
<polygon fill="midnightblue" stroke="midnightblue" points="573,-194.34 581.1,-187.52 570.51,-187.8 573,-194.34"/>
</g>
</g>
</svg>
        <g id="navigator" transform="translate(0 0)" fill="#404254">
                <rect fill="#f2f5e9" fill-opacity="0.5" stroke="#606060" stroke-width=".5" x="0" y="0" width="60" height="60"/>
                <use id="zoomplus" xlink:href="#zoomPlus" x="17" y="9" onmousedown="handleZoom(evt,'in')"/>
                <use id="zoomminus" xlink:href="#zoomMin" x="42" y="9" onmousedown="handleZoom(evt,'out')"/>
                <use id="reset" xlink:href="#resetDef" x="30" y="36" onmousedown="handleReset()"/>
                <g id="arrowUp" xlink:href="#dirArrow" transform="translate(30 24)" onmousedown="handlePan(0,-1)">
                  <use xlink:href="#rim" fill="#404040">
                        <set attributeName="fill" to="#808080" begin="arrowUp.mouseover" end="arrowUp.mouseout"/>
                  </use>
                  <path fill="none" stroke="white" stroke-width="1.5" d="M0,-3.0v7 M-2.5,-0.5L0,-3.0L2.5,-0.5"/>
                </g>
                <g id="arrowRight" xlink:href="#dirArrow" transform="rotate(90) translate(36 -43)" onmousedown="handlePan(1,0)">
                  <use xlink:href="#rim" fill="#404040">
                        <set attributeName="fill" to="#808080" begin="arrowRight.mouseover" end="arrowRight.mouseout"/>
                  </use>
                  <path fill="none" stroke="white" stroke-width="1.5" d="M0,-3.0v7 M-2.5,-0.5L0,-3.0L2.5,-0.5"/>
                </g>
                <g id="arrowDown" xlink:href="#dirArrow" transform="rotate(180) translate(-30 -48)" onmousedown="handlePan(0,1)">
                  <use xlink:href="#rim" fill="#404040">
                        <set attributeName="fill" to="#808080" begin="arrowDown.mouseover" end="arrowDown.mouseout"/>
                  </use>
                  <path fill="none" stroke="white" stroke-width="1.5" d="M0,-3.0v7 M-2.5,-0.5L0,-3.0L2.5,-0.5"/>
                </g>
                <g id="arrowLeft" xlink:href="#dirArrow" transform="rotate(270) translate(-36 17)" onmousedown="handlePan(-1,0)">
                  <use xlink:href="#rim" fill="#404040">
                        <set attributeName="fill" to="#808080" begin="arrowLeft.mouseover" end="arrowLeft.mouseout"/>
                  </use>
                  <path fill="none" stroke="white" stroke-width="1.5" d="M0,-3.0v7 M-2.5,-0.5L0,-3.0L2.5,-0.5"/>
                </g>
        </g>
        <svg viewBox="0 0 15 15" width="100%" height="30px" preserveAspectRatio="xMaxYMin meet">
         <g id="arrow_out" transform="scale(0.3 0.3)">
          <a xlink:href="transport_8h__incl_org.svg" target="_base">
           <rect id="button" ry="5" rx="5" y="6" x="6" height="38" width="38"
                fill="#f2f5e9" fill-opacity="0.5" stroke="#606060" stroke-width="1.0"/>
           <path id="arrow"
             d="M 11.500037,31.436501 C 11.940474,20.09759 22.043105,11.32322 32.158766,21.979434 L 37.068811,17.246167 C 37.068811,17.246167 37.088388,32 37.088388,32 L 22.160133,31.978069 C 22.160133,31.978069 26.997745,27.140456 26.997745,27.140456 C 18.528582,18.264221 13.291696,25.230495 11.500037,31.436501 z"
             style="fill:#404040;"/>
          </a>
         </g>
        </svg>
</svg>
