<?xml version="1.0" encoding="UTF-8" standalone="no"?>
<!DOCTYPE svg PUBLIC "-//W3C//DTD SVG 1.1//EN"
 "http://www.w3.org/Graphics/SVG/1.1/DTD/svg11.dtd">
<!-- Generated by graphviz version 2.43.0 (0)
 -->
<!-- Title: IdealGasPhase.h Pages: 1 -->
<svg width="579pt" height="140pt"
 viewBox="0.00 0.00 578.50 140.00" xmlns="http://www.w3.org/2000/svg" xmlns:xlink="http://www.w3.org/1999/xlink">
<g id="graph0" class="graph" transform="scale(1 1) rotate(0) translate(4 136)">
<title>IdealGasPhase.h</title>
<polygon fill="white" stroke="transparent" points="-4,4 -4,-136 574.5,-136 574.5,4 -4,4"/>
<!-- Node1 -->
<g id="node1" class="node">
<title>Node1</title>
<g id="a_node1"><a xlink:title="ThermoPhase object for the ideal gas equation of state &#45; workhorse for Cantera (see Thermodynamic Pro...">
<polygon fill="#bfbfbf" stroke="black" points="199.5,-112.5 199.5,-131.5 297.5,-131.5 297.5,-112.5 199.5,-112.5"/>
<text text-anchor="middle" x="248.5" y="-119.5" font-family="Helvetica,sans-Serif" font-size="10.00">IdealGasPhase.h</text>
</a>
</g>
</g>
<!-- Node2 -->
<g id="node2" class="node">
<title>Node2</title>
<g id="a_node2"><a xlink:href="../../d7/dd4/IdealGasPhase_8cpp.html" target="_top" xlink:title="ThermoPhase object for the ideal gas equation of state &#45; workhorse for Cantera (see Thermodynamic Pro...">
<polygon fill="white" stroke="black" points="0,-56.5 0,-75.5 109,-75.5 109,-56.5 0,-56.5"/>
<text text-anchor="middle" x="54.5" y="-63.5" font-family="Helvetica,sans-Serif" font-size="10.00">IdealGasPhase.cpp</text>
</a>
</g>
</g>
<!-- Node1&#45;&gt;Node2 -->
<g id="edge1" class="edge">
<title>Node1&#45;&gt;Node2</title>
<path fill="none" stroke="midnightblue" d="M207.9,-109.7C171.28,-99.51 118.24,-84.74 85.1,-75.52"/>
<polygon fill="midnightblue" stroke="midnightblue" points="207.19,-113.13 217.76,-112.44 209.06,-106.39 207.19,-113.13"/>
</g>
<!-- Node3 -->
<g id="node3" class="node">
<title>Node3</title>
<g id="a_node3"><a xlink:href="../../d2/d3a/ThermoFactory_8cpp.html" target="_top" xlink:title="Definitions for the factory class that can create known ThermoPhase objects (see Thermodynamic Proper...">
<polygon fill="white" stroke="black" points="213.5,-0.5 213.5,-19.5 321.5,-19.5 321.5,-0.5 213.5,-0.5"/>
<text text-anchor="middle" x="267.5" y="-7.5" font-family="Helvetica,sans-Serif" font-size="10.00">ThermoFactory.cpp</text>
</a>
</g>
</g>
<!-- Node1&#45;&gt;Node3 -->
<g id="edge2" class="edge">
<title>Node1&#45;&gt;Node3</title>
<path fill="none" stroke="midnightblue" d="M205.8,-109.31C174.51,-98.46 140.11,-80.33 156.5,-56 169.4,-36.86 191.98,-25.85 213.42,-19.53"/>
<polygon fill="midnightblue" stroke="midnightblue" points="204.76,-112.65 215.36,-112.44 206.94,-106 204.76,-112.65"/>
</g>
<!-- Node4 -->
<g id="node4" class="node">
<title>Node4</title>
<g id="a_node4"><a xlink:href="../../d2/d89/HighPressureGasTransport_8cpp.html" target="_top" xlink:title="Implementation file for class HighPressureGasTransport.">
<polygon fill="white" stroke="black" points="166,-56.5 166,-75.5 331,-75.5 331,-56.5 166,-56.5"/>
<text text-anchor="middle" x="248.5" y="-63.5" font-family="Helvetica,sans-Serif" font-size="10.00">HighPressureGasTransport.cpp</text>
</a>
</g>
</g>
<!-- Node1&#45;&gt;Node4 -->
<g id="edge3" class="edge">
<title>Node1&#45;&gt;Node4</title>
<path fill="none" stroke="midnightblue" d="M248.5,-101.8C248.5,-92.91 248.5,-82.78 248.5,-75.75"/>
<polygon fill="midnightblue" stroke="midnightblue" points="245,-102.08 248.5,-112.08 252,-102.08 245,-102.08"/>
</g>
<!-- Node5 -->
<g id="node5" class="node">
<title>Node5</title>
<g id="a_node5"><a xlink:href="../../d2/d60/MultiTransport_8cpp.html" target="_top" xlink:title="Implementation file for class MultiTransport.">
<polygon fill="white" stroke="black" points="349,-56.5 349,-75.5 456,-75.5 456,-56.5 349,-56.5"/>
<text text-anchor="middle" x="402.5" y="-63.5" font-family="Helvetica,sans-Serif" font-size="10.00">MultiTransport.cpp</text>
</a>
</g>
</g>
<!-- Node1&#45;&gt;Node5 -->
<g id="edge4" class="edge">
<title>Node1&#45;&gt;Node5</title>
<path fill="none" stroke="midnightblue" d="M282.61,-109.04C311.59,-98.88 352.46,-84.55 378.21,-75.52"/>
<polygon fill="midnightblue" stroke="midnightblue" points="281.18,-105.83 272.9,-112.44 283.5,-112.44 281.18,-105.83"/>
</g>
<!-- Node6 -->
<g id="node6" class="node">
<title>Node6</title>
<g id="a_node6"><a xlink:href="../../d6/ded/PlasmaPhase_8h.html" target="_top" xlink:title="Header file for class PlasmaPhase.">
<polygon fill="white" stroke="black" points="474,-56.5 474,-75.5 565,-75.5 565,-56.5 474,-56.5"/>
<text text-anchor="middle" x="519.5" y="-63.5" font-family="Helvetica,sans-Serif" font-size="10.00">PlasmaPhase.h</text>
</a>
</g>
</g>
<!-- Node1&#45;&gt;Node6 -->
<g id="edge5" class="edge">
<title>Node1&#45;&gt;Node6</title>
<path fill="none" stroke="midnightblue" d="M301.33,-110.47C352.54,-100.27 429.27,-84.98 476.76,-75.52"/>
<polygon fill="midnightblue" stroke="midnightblue" points="300.56,-107.06 291.44,-112.44 301.93,-113.92 300.56,-107.06"/>
</g>
<!-- Node6&#45;&gt;Node3 -->
<g id="edge7" class="edge">
<title>Node6&#45;&gt;Node3</title>
<path fill="none" stroke="midnightblue" d="M469.78,-54.35C422.16,-44.14 351.22,-28.94 307.24,-19.52"/>
<polygon fill="midnightblue" stroke="midnightblue" points="469.06,-57.77 479.57,-56.44 470.53,-50.93 469.06,-57.77"/>
</g>
<!-- Node7 -->
<g id="node7" class="node">
<title>Node7</title>
<g id="a_node7"><a xlink:href="../../da/dc4/PlasmaPhase_8cpp.html" target="_top" xlink:title=" ">
<polygon fill="white" stroke="black" points="468.5,-0.5 468.5,-19.5 570.5,-19.5 570.5,-0.5 468.5,-0.5"/>
<text text-anchor="middle" x="519.5" y="-7.5" font-family="Helvetica,sans-Serif" font-size="10.00">PlasmaPhase.cpp</text>
</a>
</g>
</g>
<!-- Node6&#45;&gt;Node7 -->
<g id="edge6" class="edge">
<title>Node6&#45;&gt;Node7</title>
<path fill="none" stroke="midnightblue" d="M519.5,-45.8C519.5,-36.91 519.5,-26.78 519.5,-19.75"/>
<polygon fill="midnightblue" stroke="midnightblue" points="516,-46.08 519.5,-56.08 523,-46.08 516,-46.08"/>
</g>
</g>
</svg>
