<?xml version="1.0" encoding="UTF-8" standalone="no"?>
<!DOCTYPE svg PUBLIC "-//W3C//DTD SVG 1.1//EN"
 "http://www.w3.org/Graphics/SVG/1.1/DTD/svg11.dtd">
<!-- Generated by graphviz version 2.43.0 (0)
 -->
<!-- Title: SingleSpeciesTP.h Pages: 1 -->
<!--zoomable 412 -->

<svg id="main" version="1.1" xmlns="http://www.w3.org/2000/svg" xmlns:xlink="http://www.w3.org/1999/xlink" xml:space="preserve" onload="init(evt)">
<style type="text/css"><![CDATA[
.node, .edge {opacity: 0.7;}
.node.selected, .edge.selected {opacity: 1;}
.edge:hover path { stroke: red; }
.edge:hover polygon { stroke: red; fill: red; }
]]></style>

<defs>
  <circle id="rim" cx="0" cy="0" r="7"/>
  <circle id="rim2" cx="0" cy="0" r="3.5"/>
  <g id="zoomPlus">
    <use xlink:href="#rim" fill="#404040"><set attributeName="fill" to="#808080" begin="zoomplus.mouseover" end="zoomplus.mouseout"/></use>
    <path d="M-4,0h8M0,-4v8" fill="none" stroke="white" stroke-width="1.5" pointer-events="none"/>
  </g>
  <g id="zoomMin">
    <use xlink:href="#rim" fill="#404040"><set attributeName="fill" to="#808080" begin="zoomminus.mouseover" end="zoomminus.mouseout"/></use>
    <path d="M-4,0h8" fill="none" stroke="white" stroke-width="1.5" pointer-events="none"/>
  </g>
  <g id="arrowUp" transform="translate(30 24)">
    <use xlink:href="#rim"/>
    <path pointer-events="none" fill="none" stroke="white" stroke-width="1.5" d="M0,-3.0v7 M-2.5,-0.5L0,-3.0L2.5,-0.5"/>
  </g>
  <g id="arrowRight" transform="rotate(90) translate(36 -43)">
    <use xlink:href="#rim"/>
    <path pointer-events="none" fill="none" stroke="white" stroke-width="1.5" d="M0,-3.0v7 M-2.5,-0.5L0,-3.0L2.5,-0.5"/>
  </g>
  <g id="arrowDown" transform="rotate(180) translate(-30 -48)">
    <use xlink:href="#rim"/>
    <path pointer-events="none" fill="none" stroke="white" stroke-width="1.5" d="M0,-3.0v7 M-2.5,-0.5L0,-3.0L2.5,-0.5"/>
  </g>
  <g id="arrowLeft" transform="rotate(270) translate(-36 17)">
    <use xlink:href="#rim"/>
    <path pointer-events="none" fill="none" stroke="white" stroke-width="1.5" d="M0,-3.0v7 M-2.5,-0.5L0,-3.0L2.5,-0.5"/>
  </g>
  <g id="resetDef">
    <use xlink:href="#rim2" fill="#404040"><set attributeName="fill" to="#808080" begin="reset.mouseover" end="reset.mouseout"/></use>
  </g>
</defs>
<script type="application/ecmascript">
var viewWidth = 709;
var viewHeight = 412;
var sectionId = 'dynsection-0';
</script>
<script type="application/ecmascript" xlink:href="../../svg.min.js"/>
<svg id="graph" class="graph">
<g id="viewport">
<title>SingleSpeciesTP.h</title>
<!-- Node1 -->
<g id="Node000001" class="node">
<title>Node1</title>
<g id="a_Node000001"><a xlink:title="Header for the SingleSpeciesTP class, which is a filter class for ThermoPhase, that eases the constru...">
<polygon fill="#999999" stroke="#666666" points="247.73,-404 143.73,-404 143.73,-385 247.73,-385 247.73,-404"/>
<text text-anchor="middle" x="195.73" y="-392" font-family="Helvetica,sans-Serif" font-size="10.00">SingleSpeciesTP.h</text>
</a>
</g>
</g>
<!-- Node2 -->
<g id="Node000002" class="node">
<title>Node2</title>
<g id="a_Node000002"><a xlink:href="../../d7/d01/ThermoPhase_8h.html" target="_top" xlink:title="Header file for class ThermoPhase, the base class for phases with thermodynamic properties,...">
<polygon fill="white" stroke="#666666" points="241.73,-349 149.73,-349 149.73,-330 241.73,-330 241.73,-349"/>
<text text-anchor="middle" x="195.73" y="-337" font-family="Helvetica,sans-Serif" font-size="10.00">ThermoPhase.h</text>
</a>
</g>
</g>
<!-- Node1&#45;&gt;Node2 -->
<g id="edge1_Node000001_Node000002" class="edge">
<title>Node1&#45;&gt;Node2</title>
<g id="a_edge1_Node000001_Node000002"><a xlink:title=" ">
<path fill="none" stroke="#63b8ff" d="M195.73,-384.75C195.73,-377.8 195.73,-367.85 195.73,-359.13"/>
<polygon fill="#63b8ff" stroke="#63b8ff" points="199.23,-359.09 195.73,-349.09 192.23,-359.09 199.23,-359.09"/>
</a>
</g>
</g>
<!-- Node3 -->
<g id="Node000003" class="node">
<title>Node3</title>
<g id="a_Node000003"><a xlink:href="../../da/d84/Phase_8h.html" target="_top" xlink:title="Header file for class Phase.">
<polygon fill="white" stroke="#666666" points="482.23,-184 427.23,-184 427.23,-165 482.23,-165 482.23,-184"/>
<text text-anchor="middle" x="454.73" y="-172" font-family="Helvetica,sans-Serif" font-size="10.00">Phase.h</text>
</a>
</g>
</g>
<!-- Node2&#45;&gt;Node3 -->
<g id="edge2_Node000002_Node000003" class="edge">
<title>Node2&#45;&gt;Node3</title>
<g id="a_edge2_Node000002_Node000003"><a xlink:title=" ">
<path fill="none" stroke="#63b8ff" d="M211.37,-329.86C241.51,-313.1 309.53,-274.64 364.73,-239 389.36,-223.1 416.76,-203.48 434.79,-190.29"/>
<polygon fill="#63b8ff" stroke="#63b8ff" points="437.31,-192.77 443.29,-184.03 433.16,-187.14 437.31,-192.77"/>
</a>
</g>
</g>
<!-- Node24 -->
<g id="Node000024" class="node">
<title>Node24</title>
<g id="a_Node000024"><a xlink:href="../../d6/d7a/MultiSpeciesThermo_8h.html" target="_top" xlink:title="Header for a general species thermodynamic property manager for a phase (see MultiSpeciesThermo).">
<polygon fill="white" stroke="#666666" points="160.23,-294 35.23,-294 35.23,-275 160.23,-275 160.23,-294"/>
<text text-anchor="middle" x="97.73" y="-282" font-family="Helvetica,sans-Serif" font-size="10.00">MultiSpeciesThermo.h</text>
</a>
</g>
</g>
<!-- Node2&#45;&gt;Node24 -->
<g id="edge13_Node000002_Node000024" class="edge">
<title>Node2&#45;&gt;Node24</title>
<g id="a_edge13_Node000002_Node000024"><a xlink:title=" ">
<path fill="none" stroke="#63b8ff" d="M179.99,-329.98C164.51,-321.61 140.64,-308.7 122.6,-298.95"/>
<polygon fill="#63b8ff" stroke="#63b8ff" points="124.23,-295.85 113.77,-294.17 120.9,-302.01 124.23,-295.85"/>
</a>
</g>
</g>
<!-- Node26 -->
<g id="Node000026" class="node">
<title>Node26</title>
<g id="a_Node000026"><a xlink:href="../../dd/d2a/AnyMap_8h.html" target="_top" xlink:title=" ">
<polygon fill="#fff0f0" stroke="red" points="260.23,-184 129.23,-184 129.23,-165 260.23,-165 260.23,-184"/>
<text text-anchor="middle" x="194.73" y="-172" font-family="Helvetica,sans-Serif" font-size="10.00">cantera/base/AnyMap.h</text>
</a>
</g>
</g>
<!-- Node2&#45;&gt;Node26 -->
<g id="edge23_Node000002_Node000026" class="edge">
<title>Node2&#45;&gt;Node26</title>
<g id="a_edge23_Node000002_Node000026"><a xlink:title=" ">
<path fill="none" stroke="#63b8ff" d="M195.68,-329.74C195.52,-304.31 195.07,-230.08 194.85,-194.69"/>
<polygon fill="#63b8ff" stroke="#63b8ff" points="198.35,-194.29 194.79,-184.31 191.35,-194.33 198.35,-194.29"/>
</a>
</g>
</g>
<!-- Node27 -->
<g id="Node000027" class="node">
<title>Node27</title>
<g id="a_Node000027"><a xlink:href="../../da/d58/Units_8h.html" target="_top" xlink:title="Header for unit conversion utilities, which are used to translate user input from input files (See In...">
<polygon fill="white" stroke="#666666" points="163.23,-129 46.23,-129 46.23,-110 163.23,-110 163.23,-129"/>
<text text-anchor="middle" x="104.73" y="-117" font-family="Helvetica,sans-Serif" font-size="10.00">cantera/base/Units.h</text>
</a>
</g>
</g>
<!-- Node2&#45;&gt;Node27 -->
<g id="edge22_Node000002_Node000027" class="edge">
<title>Node2&#45;&gt;Node27</title>
<g id="a_edge22_Node000002_Node000027"><a xlink:title=" ">
<path fill="none" stroke="#63b8ff" d="M149.7,-337.92C111.9,-335.03 59.31,-325.1 25.73,-294 0.82,-270.93 -6.14,-251.42 6.73,-220 21.98,-182.8 58.59,-152.04 82.49,-134.99"/>
<polygon fill="#63b8ff" stroke="#63b8ff" points="84.72,-137.71 90.96,-129.14 80.74,-131.95 84.72,-137.71"/>
</a>
</g>
</g>
<!-- Node32 -->
<g id="Node000032" class="node">
<title>Node32</title>
<g id="a_Node000032"><a xlink:href="../../d4/dfa/Solution_8h.html" target="_top" xlink:title=" ">
<polygon fill="white" stroke="#666666" points="355.23,-239 224.23,-239 224.23,-220 355.23,-220 355.23,-239"/>
<text text-anchor="middle" x="289.73" y="-227" font-family="Helvetica,sans-Serif" font-size="10.00">cantera/base/Solution.h</text>
</a>
</g>
</g>
<!-- Node2&#45;&gt;Node32 -->
<g id="edge24_Node000002_Node000032" class="edge">
<title>Node2&#45;&gt;Node32</title>
<g id="a_edge24_Node000002_Node000032"><a xlink:title=" ">
<path fill="none" stroke="#63b8ff" d="M203.43,-329.66C219.2,-311.54 255.43,-269.91 275.57,-246.77"/>
<polygon fill="#63b8ff" stroke="#63b8ff" points="278.27,-249 282.2,-239.16 272.99,-244.4 278.27,-249"/>
</a>
</g>
</g>
<!-- Node4 -->
<g id="Node000004" class="node">
<title>Node4</title>
<g id="a_Node000004"><a xlink:href="../../db/d98/ctexceptions_8h.html" target="_top" xlink:title="Definitions for the classes that are thrown when Cantera experiences an error condition (also contain...">
<polygon fill="white" stroke="#666666" points="373.73,-129 219.73,-129 219.73,-110 373.73,-110 373.73,-129"/>
<text text-anchor="middle" x="296.73" y="-117" font-family="Helvetica,sans-Serif" font-size="10.00">cantera/base/ctexceptions.h</text>
</a>
</g>
</g>
<!-- Node3&#45;&gt;Node4 -->
<g id="edge3_Node000003_Node000004" class="edge">
<title>Node3&#45;&gt;Node4</title>
<g id="a_edge3_Node000003_Node000004"><a xlink:title=" ">
<path fill="none" stroke="#63b8ff" d="M429.35,-164.98C402.94,-156.13 361.39,-142.19 331.84,-132.28"/>
<polygon fill="#63b8ff" stroke="#63b8ff" points="332.91,-128.94 322.32,-129.08 330.69,-135.58 332.91,-128.94"/>
</a>
</g>
</g>
<!-- Node21 -->
<g id="Node000021" class="node">
<title>Node21</title>
<g id="a_Node000021"><a xlink:href="../../d9/dda/Elements_8h.html" target="_top" xlink:title="Contains the getElementWeight function and the definitions of element constraint types.">
<polygon fill="white" stroke="#666666" points="701.23,-74 552.23,-74 552.23,-55 701.23,-55 701.23,-74"/>
<text text-anchor="middle" x="626.73" y="-62" font-family="Helvetica,sans-Serif" font-size="10.00">cantera/thermo/Elements.h</text>
</a>
</g>
</g>
<!-- Node3&#45;&gt;Node21 -->
<g id="edge8_Node000003_Node000021" class="edge">
<title>Node3&#45;&gt;Node21</title>
<g id="a_edge8_Node000003_Node000021"><a xlink:title=" ">
<path fill="none" stroke="#63b8ff" d="M481.65,-164.9C503.43,-157.27 534.39,-144.87 558.73,-129 579.32,-115.58 599.46,-95.68 612.4,-81.75"/>
<polygon fill="#63b8ff" stroke="#63b8ff" points="615.01,-84.08 619.15,-74.33 609.83,-79.37 615.01,-84.08"/>
</a>
</g>
</g>
<!-- Node22 -->
<g id="Node000022" class="node">
<title>Node22</title>
<g id="a_Node000022"><a xlink:href="../../d6/df6/ValueCache_8h.html" target="_top" xlink:title=" ">
<polygon fill="white" stroke="#666666" points="549.23,-129 400.23,-129 400.23,-110 549.23,-110 549.23,-129"/>
<text text-anchor="middle" x="474.73" y="-117" font-family="Helvetica,sans-Serif" font-size="10.00">cantera/base/ValueCache.h</text>
</a>
</g>
</g>
<!-- Node3&#45;&gt;Node22 -->
<g id="edge10_Node000003_Node000022" class="edge">
<title>Node3&#45;&gt;Node22</title>
<g id="a_edge10_Node000003_Node000022"><a xlink:title=" ">
<path fill="none" stroke="#63b8ff" d="M458.04,-164.75C460.72,-157.65 464.58,-147.4 467.92,-138.56"/>
<polygon fill="#63b8ff" stroke="#63b8ff" points="471.24,-139.68 471.49,-129.09 464.69,-137.21 471.24,-139.68"/>
</a>
</g>
</g>
<!-- Node5 -->
<g id="Node000005" class="node">
<title>Node5</title>
<g id="a_Node000005"><a xlink:href="../../d9/ddc/ct__defs_8h.html" target="_top" xlink:title="This file contains definitions of constants, types and terms that are used in internal routines and a...">
<polygon fill="#fff0f0" stroke="red" points="327.23,-19 266.23,-19 266.23,0 327.23,0 327.23,-19"/>
<text text-anchor="middle" x="296.73" y="-7" font-family="Helvetica,sans-Serif" font-size="10.00">ct_defs.h</text>
</a>
</g>
</g>
<!-- Node4&#45;&gt;Node5 -->
<g id="edge4_Node000004_Node000005" class="edge">
<title>Node4&#45;&gt;Node5</title>
<g id="a_edge4_Node000004_Node000005"><a xlink:title=" ">
<path fill="none" stroke="#63b8ff" d="M296.73,-109.66C296.73,-92.17 296.73,-52.8 296.73,-29.27"/>
<polygon fill="#63b8ff" stroke="#63b8ff" points="300.23,-29.16 296.73,-19.16 293.23,-29.16 300.23,-29.16"/>
</a>
</g>
</g>
<!-- Node16 -->
<g id="Node000016" class="node">
<title>Node16</title>
<g id="a_Node000016"><a xlink:href="../../db/def/fmt_8h.html" target="_top" xlink:title="Wrapper for either system&#45;installed or local headers for fmt.">
<polygon fill="#fff0f0" stroke="red" points="434.23,-74 325.23,-74 325.23,-55 434.23,-55 434.23,-74"/>
<text text-anchor="middle" x="379.73" y="-62" font-family="Helvetica,sans-Serif" font-size="10.00">cantera/base/fmt.h</text>
</a>
</g>
</g>
<!-- Node4&#45;&gt;Node16 -->
<g id="edge5_Node000004_Node000016" class="edge">
<title>Node4&#45;&gt;Node16</title>
<g id="a_edge5_Node000004_Node000016"><a xlink:title=" ">
<path fill="none" stroke="#63b8ff" d="M310.07,-109.98C322.82,-101.84 342.29,-89.41 357.41,-79.76"/>
<polygon fill="#63b8ff" stroke="#63b8ff" points="359.61,-82.5 366.16,-74.17 355.84,-76.6 359.61,-82.5"/>
</a>
</g>
</g>
<!-- Node20 -->
<g id="Node000020" class="node">
<title>Node20</title>
<g id="a_Node000020"><a xlink:title=" ">
<polygon fill="#e0e0e0" stroke="#999999" points="268.23,-74 203.23,-74 203.23,-55 268.23,-55 268.23,-74"/>
<text text-anchor="middle" x="235.73" y="-62" font-family="Helvetica,sans-Serif" font-size="10.00">exception</text>
</a>
</g>
</g>
<!-- Node4&#45;&gt;Node20 -->
<g id="edge7_Node000004_Node000020" class="edge">
<title>Node4&#45;&gt;Node20</title>
<g id="a_edge7_Node000004_Node000020"><a xlink:title=" ">
<path fill="none" stroke="#63b8ff" d="M286.93,-109.98C277.92,-102.15 264.33,-90.34 253.42,-80.86"/>
<polygon fill="#63b8ff" stroke="#63b8ff" points="255.56,-78.09 245.71,-74.17 250.97,-83.37 255.56,-78.09"/>
</a>
</g>
</g>
<!-- Node16&#45;&gt;Node5 -->
<g id="edge6_Node000016_Node000005" class="edge">
<title>Node16&#45;&gt;Node5</title>
<g id="a_edge6_Node000016_Node000005"><a xlink:title=" ">
<path fill="none" stroke="#63b8ff" d="M366.4,-54.98C353.65,-46.84 334.18,-34.41 319.06,-24.76"/>
<polygon fill="#63b8ff" stroke="#63b8ff" points="320.62,-21.6 310.31,-19.17 316.86,-27.5 320.62,-21.6"/>
</a>
</g>
</g>
<!-- Node21&#45;&gt;Node5 -->
<g id="edge9_Node000021_Node000005" class="edge">
<title>Node21&#45;&gt;Node5</title>
<g id="a_edge9_Node000021_Node000005"><a xlink:title=" ">
<path fill="none" stroke="#63b8ff" d="M573.71,-54.98C507.89,-44.41 397.03,-26.61 337.48,-17.04"/>
<polygon fill="#63b8ff" stroke="#63b8ff" points="337.76,-13.54 327.33,-15.41 336.65,-20.46 337.76,-13.54"/>
</a>
</g>
</g>
<!-- Node22&#45;&gt;Node5 -->
<g id="edge11_Node000022_Node000005" class="edge">
<title>Node22&#45;&gt;Node5</title>
<g id="a_edge11_Node000022_Node000005"><a xlink:title=" ">
<path fill="none" stroke="#63b8ff" d="M484.98,-109.57C498.66,-96.58 519.63,-72.16 505.73,-55 484.96,-29.33 392,-17.84 337.31,-13.23"/>
<polygon fill="#63b8ff" stroke="#63b8ff" points="337.49,-9.73 327.24,-12.42 336.93,-16.71 337.49,-9.73"/>
</a>
</g>
</g>
<!-- Node23 -->
<g id="Node000023" class="node">
<title>Node23</title>
<g id="a_Node000023"><a xlink:title=" ">
<polygon fill="#e0e0e0" stroke="#999999" points="496.73,-74 452.73,-74 452.73,-55 496.73,-55 496.73,-74"/>
<text text-anchor="middle" x="474.73" y="-62" font-family="Helvetica,sans-Serif" font-size="10.00">limits</text>
</a>
</g>
</g>
<!-- Node22&#45;&gt;Node23 -->
<g id="edge12_Node000022_Node000023" class="edge">
<title>Node22&#45;&gt;Node23</title>
<g id="a_edge12_Node000022_Node000023"><a xlink:title=" ">
<path fill="none" stroke="#63b8ff" d="M474.73,-109.75C474.73,-102.8 474.73,-92.85 474.73,-84.13"/>
<polygon fill="#63b8ff" stroke="#63b8ff" points="478.23,-84.09 474.73,-74.09 471.23,-84.09 478.23,-84.09"/>
</a>
</g>
</g>
<!-- Node25 -->
<g id="Node000025" class="node">
<title>Node25</title>
<g id="a_Node000025"><a xlink:href="../../d4/d87/SpeciesThermoInterpType_8h.html" target="_top" xlink:title="Pure Virtual Base class for individual species reference state thermodynamic managers and text for th...">
<polygon fill="white" stroke="#666666" points="167.73,-239 15.73,-239 15.73,-220 167.73,-220 167.73,-239"/>
<text text-anchor="middle" x="91.73" y="-227" font-family="Helvetica,sans-Serif" font-size="10.00">SpeciesThermoInterpType.h</text>
</a>
</g>
</g>
<!-- Node24&#45;&gt;Node25 -->
<g id="edge14_Node000024_Node000025" class="edge">
<title>Node24&#45;&gt;Node25</title>
<g id="a_edge14_Node000024_Node000025"><a xlink:title=" ">
<path fill="none" stroke="#63b8ff" d="M96.74,-274.75C95.96,-267.8 94.83,-257.85 93.84,-249.13"/>
<polygon fill="#63b8ff" stroke="#63b8ff" points="97.31,-248.63 92.71,-239.09 90.35,-249.42 97.31,-248.63"/>
</a>
</g>
</g>
<!-- Node25&#45;&gt;Node4 -->
<g id="edge16_Node000025_Node000004" class="edge">
<title>Node25&#45;&gt;Node4</title>
<g id="a_edge16_Node000025_Node000004"><a xlink:title=" ">
<path fill="none" stroke="#63b8ff" d="M93.11,-219.65C95.74,-205.85 102.79,-179.3 119.73,-165 144.75,-143.89 178.41,-132.57 209.65,-126.58"/>
<polygon fill="#63b8ff" stroke="#63b8ff" points="210.45,-129.99 219.7,-124.81 209.24,-123.09 210.45,-129.99"/>
</a>
</g>
</g>
<!-- Node25&#45;&gt;Node5 -->
<g id="edge15_Node000025_Node000005" class="edge">
<title>Node25&#45;&gt;Node5</title>
<g id="a_edge15_Node000025_Node000005"><a xlink:title=" ">
<path fill="none" stroke="#63b8ff" d="M82.01,-219.88C60.71,-199.93 13.62,-149.29 36.73,-110 81.45,-34 194.49,-15.79 255.75,-11.6"/>
<polygon fill="#63b8ff" stroke="#63b8ff" points="256.06,-15.09 265.84,-11.01 255.65,-8.1 256.06,-15.09"/>
</a>
</g>
</g>
<!-- Node25&#45;&gt;Node26 -->
<g id="edge17_Node000025_Node000026" class="edge">
<title>Node25&#45;&gt;Node26</title>
<g id="a_edge17_Node000025_Node000026"><a xlink:title=" ">
<path fill="none" stroke="#63b8ff" d="M108.28,-219.98C124.63,-211.57 149.87,-198.59 168.86,-188.81"/>
<polygon fill="#63b8ff" stroke="#63b8ff" points="170.59,-191.86 177.88,-184.17 167.39,-185.63 170.59,-191.86"/>
</a>
</g>
</g>
<!-- Node26&#45;&gt;Node4 -->
<g id="edge19_Node000026_Node000004" class="edge">
<title>Node26&#45;&gt;Node4</title>
<g id="a_edge19_Node000026_Node000004"><a xlink:title=" ">
<path fill="none" stroke="#63b8ff" d="M211.12,-164.98C227.31,-156.57 252.3,-143.59 271.12,-133.81"/>
<polygon fill="#63b8ff" stroke="#63b8ff" points="272.79,-136.89 280.05,-129.17 269.56,-130.68 272.79,-136.89"/>
</a>
</g>
</g>
<!-- Node26&#45;&gt;Node5 -->
<g id="edge18_Node000026_Node000005" class="edge">
<title>Node26&#45;&gt;Node5</title>
<g id="a_edge18_Node000026_Node000005"><a xlink:title=" ">
<path fill="none" stroke="#63b8ff" d="M191.67,-164.85C184.86,-143.96 170.79,-89.9 193.73,-55 207.56,-33.97 233.67,-22.83 256.14,-16.96"/>
<polygon fill="#63b8ff" stroke="#63b8ff" points="257.21,-20.3 266.15,-14.61 255.62,-13.48 257.21,-20.3"/>
</a>
</g>
</g>
<!-- Node26&#45;&gt;Node27 -->
<g id="edge20_Node000026_Node000027" class="edge">
<title>Node26&#45;&gt;Node27</title>
<g id="a_edge20_Node000026_Node000027"><a xlink:title=" ">
<path fill="none" stroke="#63b8ff" d="M180.27,-164.98C166.32,-156.77 144.94,-144.18 128.48,-134.49"/>
<polygon fill="#63b8ff" stroke="#63b8ff" points="129.85,-131.23 119.46,-129.17 126.3,-137.26 129.85,-131.23"/>
</a>
</g>
</g>
<!-- Node27&#45;&gt;Node5 -->
<g id="edge21_Node000027_Node000005" class="edge">
<title>Node27&#45;&gt;Node5</title>
<g id="a_edge21_Node000027_Node000005"><a xlink:title=" ">
<path fill="none" stroke="#63b8ff" d="M110.17,-109.79C119.1,-96.17 138.14,-69.87 160.73,-55 189.75,-35.9 227.64,-24.39 256.06,-17.88"/>
<polygon fill="#63b8ff" stroke="#63b8ff" points="257.04,-21.24 266.07,-15.7 255.55,-14.4 257.04,-21.24"/>
</a>
</g>
</g>
<!-- Node32&#45;&gt;Node4 -->
<g id="edge25_Node000032_Node000004" class="edge">
<title>Node32&#45;&gt;Node4</title>
<g id="a_edge25_Node000032_Node000004"><a xlink:title=" ">
<path fill="none" stroke="#63b8ff" d="M290.31,-219.66C291.44,-202.17 293.99,-162.8 295.52,-139.27"/>
<polygon fill="#63b8ff" stroke="#63b8ff" points="299.02,-139.36 296.17,-129.16 292.03,-138.91 299.02,-139.36"/>
</a>
</g>
</g>
<!-- Node32&#45;&gt;Node26 -->
<g id="edge26_Node000032_Node000026" class="edge">
<title>Node32&#45;&gt;Node26</title>
<g id="a_edge26_Node000032_Node000026"><a xlink:title=" ">
<path fill="none" stroke="#63b8ff" d="M274.47,-219.98C259.6,-211.69 236.75,-198.94 219.32,-189.22"/>
<polygon fill="#63b8ff" stroke="#63b8ff" points="220.71,-185.99 210.28,-184.17 217.3,-192.1 220.71,-185.99"/>
</a>
</g>
</g>
</g>
</svg>

<g id="navigator" transform="translate(0 0)" fill="#404254">
  <rect fill="#f2f5e9" fill-opacity="0.5" stroke="#606060" stroke-width=".5" x="0" y="0" width="60" height="60"/>
  <use id="zoomplus" xlink:href="#zoomPlus" x="17" y="9" onmousedown="handleZoom(evt,'in')"/>
  <use id="zoomminus" xlink:href="#zoomMin" x="42" y="9" onmousedown="handleZoom(evt,'out')"/>
  <use id="reset" xlink:href="#resetDef" x="30" y="36" onmousedown="handleReset()"/>
   <use id="arrowup" xlink:href="#arrowUp" x="0" y="0" onmousedown="handlePan(0,-1)"/>
  <use id="arrowright" xlink:href="#arrowRight" x="0" y="0" onmousedown="handlePan(1,0)"/>
  <use id="arrowdown" xlink:href="#arrowDown" x="0" y="0" onmousedown="handlePan(0,1)"/>
  <use id="arrowleft" xlink:href="#arrowLeft" x="0" y="0" onmousedown="handlePan(-1,0)"/>
</g>
<svg viewBox="0 0 15 15" width="100%" height="30px" preserveAspectRatio="xMaxYMin meet">
 <g id="arrow_out" transform="scale(0.3 0.3)">
  <a xlink:href="SingleSpeciesTP_8h__incl_org.svg" target="_base">
   <rect id="button" ry="5" rx="5" y="6" x="6" height="38" width="38"
        fill="#f2f5e9" fill-opacity="0.5" stroke="#606060" stroke-width="1.0"/>
   <path id="arrow"
     d="M 11.500037,31.436501 C 11.940474,20.09759 22.043105,11.32322 32.158766,21.979434 L 37.068811,17.246167 C 37.068811,17.246167 37.088388,32 37.088388,32 L 22.160133,31.978069 C 22.160133,31.978069 26.997745,27.140456 26.997745,27.140456 C 18.528582,18.264221 13.291696,25.230495 11.500037,31.436501 z"
     style="fill:#404040;"/>
  </a>
 </g>
</svg>

<style type='text/css'>
<![CDATA[
[data-mouse-over-selected='false'] { opacity: 0.7; }
[data-mouse-over-selected='true']  { opacity: 1.0; }
]]>
</style>
<script type="application/ecmascript"><![CDATA[
document.addEventListener('DOMContentLoaded', (event) => {
  highlightEdges();
  highlightAdjacentNodes();
});
]]></script>
</svg>
