<?xml version="1.0" encoding="UTF-8" standalone="no"?>
<!DOCTYPE svg PUBLIC "-//W3C//DTD SVG 1.1//EN"
 "http://www.w3.org/Graphics/SVG/1.1/DTD/svg11.dtd">
<!-- Generated by graphviz version 2.43.0 (0)
 -->
<!-- Title: PlogRate.cpp Pages: 1 -->
<svg width="1144pt" height="478pt"
 viewBox="0.00 0.00 1143.50 478.00" xmlns="http://www.w3.org/2000/svg" xmlns:xlink="http://www.w3.org/1999/xlink">
<g id="graph0" class="graph" transform="scale(1 1) rotate(0) translate(4 474)">
<title>PlogRate.cpp</title>
<!-- Node1 -->
<g id="Node000001" class="node">
<title>Node1</title>
<g id="a_Node000001"><a xlink:title=" ">
<polygon fill="#999999" stroke="#666666" points="450,-470 370,-470 370,-451 450,-451 450,-470"/>
<text text-anchor="middle" x="410" y="-458" font-family="Helvetica,sans-Serif" font-size="10.00">PlogRate.cpp</text>
</a>
</g>
</g>
<!-- Node2 -->
<g id="Node000002" class="node">
<title>Node2</title>
<g id="a_Node000002"><a xlink:href="../../dd/d3a/PlogRate_8h.html" target="_top" xlink:title=" ">
<polygon fill="white" stroke="#666666" points="434,-415 284,-415 284,-396 434,-396 434,-415"/>
<text text-anchor="middle" x="359" y="-403" font-family="Helvetica,sans-Serif" font-size="10.00">cantera/kinetics/PlogRate.h</text>
</a>
</g>
</g>
<!-- Node1&#45;&gt;Node2 -->
<g id="edge1_Node000001_Node000002" class="edge">
<title>Node1&#45;&gt;Node2</title>
<g id="a_edge1_Node000001_Node000002"><a xlink:title=" ">
<path fill="none" stroke="#63b8ff" d="M401.58,-450.75C394.23,-443.11 383.37,-431.82 374.46,-422.56"/>
<polygon fill="#63b8ff" stroke="#63b8ff" points="376.72,-419.87 367.26,-415.09 371.68,-424.72 376.72,-419.87"/>
</a>
</g>
</g>
<!-- Node34 -->
<g id="Node000034" class="node">
<title>Node34</title>
<g id="a_Node000034"><a xlink:href="../../d7/d01/ThermoPhase_8h.html" target="_top" xlink:title="Header file for class ThermoPhase, the base class for phases with thermodynamic properties,...">
<polygon fill="white" stroke="#666666" points="670,-360 500,-360 500,-341 670,-341 670,-360"/>
<text text-anchor="middle" x="585" y="-348" font-family="Helvetica,sans-Serif" font-size="10.00">cantera/thermo/ThermoPhase.h</text>
</a>
</g>
</g>
<!-- Node1&#45;&gt;Node34 -->
<g id="edge36_Node000001_Node000034" class="edge">
<title>Node1&#45;&gt;Node34</title>
<g id="a_edge36_Node000001_Node000034"><a xlink:title=" ">
<path fill="none" stroke="#63b8ff" d="M424.03,-450.84C454.23,-432.2 525.67,-388.11 562.37,-365.46"/>
<polygon fill="#63b8ff" stroke="#63b8ff" points="564.24,-368.43 570.91,-360.2 560.56,-362.47 564.24,-368.43"/>
</a>
</g>
</g>
<!-- Node3 -->
<g id="Node000003" class="node">
<title>Node3</title>
<g id="a_Node000003"><a xlink:href="../../d6/dd6/Arrhenius_8h.html" target="_top" xlink:title="Header for reaction rates that involve Arrhenius&#45;type kinetics.">
<polygon fill="white" stroke="#666666" points="384.5,-360 231.5,-360 231.5,-341 384.5,-341 384.5,-360"/>
<text text-anchor="middle" x="308" y="-348" font-family="Helvetica,sans-Serif" font-size="10.00">cantera/kinetics/Arrhenius.h</text>
</a>
</g>
</g>
<!-- Node2&#45;&gt;Node3 -->
<g id="edge2_Node000002_Node000003" class="edge">
<title>Node2&#45;&gt;Node3</title>
<g id="a_edge2_Node000002_Node000003"><a xlink:title=" ">
<path fill="none" stroke="#63b8ff" d="M350.58,-395.75C343.23,-388.11 332.37,-376.82 323.46,-367.56"/>
<polygon fill="#63b8ff" stroke="#63b8ff" points="325.72,-364.87 316.26,-360.09 320.68,-369.72 325.72,-364.87"/>
</a>
</g>
</g>
<!-- Node4 -->
<g id="Node000004" class="node">
<title>Node4</title>
<g id="a_Node000004"><a xlink:href="../../d9/ddc/ct__defs_8h.html" target="_top" xlink:title="This file contains definitions of constants, types and terms that are used in internal routines and a...">
<polygon fill="white" stroke="#666666" points="558.5,-74 431.5,-74 431.5,-55 558.5,-55 558.5,-74"/>
<text text-anchor="middle" x="495" y="-62" font-family="Helvetica,sans-Serif" font-size="10.00">cantera/base/ct_defs.h</text>
</a>
</g>
</g>
<!-- Node3&#45;&gt;Node4 -->
<g id="edge3_Node000003_Node000004" class="edge">
<title>Node3&#45;&gt;Node4</title>
<g id="a_edge3_Node000003_Node000004"><a xlink:title=" ">
<path fill="none" stroke="#63b8ff" d="M248.25,-340.99C158.68,-326.53 0,-293.56 0,-241.5 0,-241.5 0,-241.5 0,-179 0,-93.63 283.25,-72.47 421.22,-67.23"/>
<polygon fill="#63b8ff" stroke="#63b8ff" points="421.43,-70.72 431.3,-66.86 421.18,-63.73 421.43,-70.72"/>
</a>
</g>
</g>
<!-- Node15 -->
<g id="Node000015" class="node">
<title>Node15</title>
<g id="a_Node000015"><a xlink:href="../../da/d58/Units_8h.html" target="_top" xlink:title="Header for unit conversion utilities, which are used to translate user input from input files (See In...">
<polygon fill="white" stroke="#666666" points="553.5,-129 436.5,-129 436.5,-110 553.5,-110 553.5,-129"/>
<text text-anchor="middle" x="495" y="-117" font-family="Helvetica,sans-Serif" font-size="10.00">cantera/base/Units.h</text>
</a>
</g>
</g>
<!-- Node3&#45;&gt;Node15 -->
<g id="edge14_Node000003_Node000015" class="edge">
<title>Node3&#45;&gt;Node15</title>
<g id="a_edge14_Node000003_Node000015"><a xlink:title=" ">
<path fill="none" stroke="#63b8ff" d="M308.9,-340.7C312.44,-307.64 326.45,-191.35 351,-165 370.37,-144.2 399.23,-133.04 426.04,-127.09"/>
<polygon fill="#63b8ff" stroke="#63b8ff" points="427.07,-130.45 436.19,-125.05 425.69,-123.59 427.07,-130.45"/>
</a>
</g>
</g>
<!-- Node16 -->
<g id="Node000016" class="node">
<title>Node16</title>
<g id="a_Node000016"><a xlink:href="../../d6/d4a/ReactionData_8h.html" target="_top" xlink:title=" ">
<polygon fill="white" stroke="#666666" points="500,-195 360,-195 360,-165 500,-165 500,-195"/>
<text text-anchor="start" x="368" y="-183" font-family="Helvetica,sans-Serif" font-size="10.00">cantera/kinetics/Reaction</text>
<text text-anchor="middle" x="430" y="-172" font-family="Helvetica,sans-Serif" font-size="10.00">Data.h</text>
</a>
</g>
</g>
<!-- Node3&#45;&gt;Node16 -->
<g id="edge16_Node000003_Node000016" class="edge">
<title>Node3&#45;&gt;Node16</title>
<g id="a_edge16_Node000003_Node000016"><a xlink:title=" ">
<path fill="none" stroke="#63b8ff" d="M315.87,-340.87C323.77,-332.08 336.15,-317.93 346,-305 372.11,-270.74 399.6,-228.89 415.75,-203.63"/>
<polygon fill="#63b8ff" stroke="#63b8ff" points="418.75,-205.43 421.17,-195.11 412.85,-201.67 418.75,-205.43"/>
</a>
</g>
</g>
<!-- Node23 -->
<g id="Node000023" class="node">
<title>Node23</title>
<g id="a_Node000023"><a xlink:href="../../d8/db0/ReactionRate_8h.html" target="_top" xlink:title=" ">
<polygon fill="white" stroke="#666666" points="303.5,-250 212.5,-250 212.5,-231 303.5,-231 303.5,-250"/>
<text text-anchor="middle" x="258" y="-238" font-family="Helvetica,sans-Serif" font-size="10.00">ReactionRate.h</text>
</a>
</g>
</g>
<!-- Node3&#45;&gt;Node23 -->
<g id="edge20_Node000003_Node000023" class="edge">
<title>Node3&#45;&gt;Node23</title>
<g id="a_edge20_Node000003_Node000023"><a xlink:title=" ">
<path fill="none" stroke="#63b8ff" d="M303.91,-340.66C295.7,-322.93 277.09,-282.73 266.25,-259.32"/>
<polygon fill="#63b8ff" stroke="#63b8ff" points="269.39,-257.76 262.01,-250.16 263.03,-260.7 269.39,-257.76"/>
</a>
</g>
</g>
<!-- Node31 -->
<g id="Node000031" class="node">
<title>Node31</title>
<g id="a_Node000031"><a xlink:href="../../d6/d42/MultiRate_8h.html" target="_top" xlink:title=" ">
<polygon fill="white" stroke="#666666" points="232.5,-305 159.5,-305 159.5,-286 232.5,-286 232.5,-305"/>
<text text-anchor="middle" x="196" y="-293" font-family="Helvetica,sans-Serif" font-size="10.00">MultiRate.h</text>
</a>
</g>
</g>
<!-- Node3&#45;&gt;Node31 -->
<g id="edge31_Node000003_Node000031" class="edge">
<title>Node3&#45;&gt;Node31</title>
<g id="a_edge31_Node000003_Node000031"><a xlink:title=" ">
<path fill="none" stroke="#63b8ff" d="M290.01,-340.98C272.07,-332.5 244.28,-319.35 223.57,-309.54"/>
<polygon fill="#63b8ff" stroke="#63b8ff" points="224.86,-306.28 214.32,-305.17 221.86,-312.61 224.86,-306.28"/>
</a>
</g>
</g>
<!-- Node5 -->
<g id="Node000005" class="node">
<title>Node5</title>
<g id="a_Node000005"><a xlink:href="../../db/d16/config_8h_source.html" target="_top" xlink:title=" ">
<polygon fill="white" stroke="#666666" points="234.5,-19 179.5,-19 179.5,0 234.5,0 234.5,-19"/>
<text text-anchor="middle" x="207" y="-7" font-family="Helvetica,sans-Serif" font-size="10.00">config.h</text>
</a>
</g>
</g>
<!-- Node4&#45;&gt;Node5 -->
<g id="edge4_Node000004_Node000005" class="edge">
<title>Node4&#45;&gt;Node5</title>
<g id="a_edge4_Node000004_Node000005"><a xlink:title=" ">
<path fill="none" stroke="#63b8ff" d="M442.45,-54.98C393.76,-46.9 319.06,-34.05 244.84,-19.08"/>
<polygon fill="#63b8ff" stroke="#63b8ff" points="245.34,-15.62 234.85,-17.06 243.95,-22.48 245.34,-15.62"/>
</a>
</g>
</g>
<!-- Node6 -->
<g id="Node000006" class="node">
<title>Node6</title>
<g id="a_Node000006"><a xlink:title=" ">
<polygon fill="#e0e0e0" stroke="#999999" points="299.5,-19 252.5,-19 252.5,0 299.5,0 299.5,-19"/>
<text text-anchor="middle" x="276" y="-7" font-family="Helvetica,sans-Serif" font-size="10.00">cmath</text>
</a>
</g>
</g>
<!-- Node4&#45;&gt;Node6 -->
<g id="edge5_Node000004_Node000006" class="edge">
<title>Node4&#45;&gt;Node6</title>
<g id="a_edge5_Node000004_Node000006"><a xlink:title=" ">
<path fill="none" stroke="#63b8ff" d="M458.6,-54.99C423.12,-46.65 367.4,-33.43 309.79,-19.16"/>
<polygon fill="#63b8ff" stroke="#63b8ff" points="310.33,-15.69 299.78,-16.68 308.64,-22.48 310.33,-15.69"/>
</a>
</g>
</g>
<!-- Node7 -->
<g id="Node000007" class="node">
<title>Node7</title>
<g id="a_Node000007"><a xlink:title=" ">
<polygon fill="#e0e0e0" stroke="#999999" points="366.5,-19 317.5,-19 317.5,0 366.5,0 366.5,-19"/>
<text text-anchor="middle" x="342" y="-7" font-family="Helvetica,sans-Serif" font-size="10.00">cstdlib</text>
</a>
</g>
</g>
<!-- Node4&#45;&gt;Node7 -->
<g id="edge6_Node000004_Node000007" class="edge">
<title>Node4&#45;&gt;Node7</title>
<g id="a_edge6_Node000004_Node000007"><a xlink:title=" ">
<path fill="none" stroke="#63b8ff" d="M470.42,-54.98C444.88,-46.14 404.72,-32.23 376.11,-22.32"/>
<polygon fill="#63b8ff" stroke="#63b8ff" points="377.12,-18.96 366.52,-18.99 374.82,-25.57 377.12,-18.96"/>
</a>
</g>
</g>
<!-- Node8 -->
<g id="Node000008" class="node">
<title>Node8</title>
<g id="a_Node000008"><a xlink:title=" ">
<polygon fill="#e0e0e0" stroke="#999999" points="431.5,-19 384.5,-19 384.5,0 431.5,0 431.5,-19"/>
<text text-anchor="middle" x="408" y="-7" font-family="Helvetica,sans-Serif" font-size="10.00">vector</text>
</a>
</g>
</g>
<!-- Node4&#45;&gt;Node8 -->
<g id="edge7_Node000004_Node000008" class="edge">
<title>Node4&#45;&gt;Node8</title>
<g id="a_edge7_Node000004_Node000008"><a xlink:title=" ">
<path fill="none" stroke="#63b8ff" d="M481.02,-54.98C467.53,-46.77 446.87,-34.18 430.96,-24.49"/>
<polygon fill="#63b8ff" stroke="#63b8ff" points="432.59,-21.38 422.23,-19.17 428.95,-27.36 432.59,-21.38"/>
</a>
</g>
</g>
<!-- Node9 -->
<g id="Node000009" class="node">
<title>Node9</title>
<g id="a_Node000009"><a xlink:title=" ">
<polygon fill="#e0e0e0" stroke="#999999" points="488,-19 450,-19 450,0 488,0 488,-19"/>
<text text-anchor="middle" x="469" y="-7" font-family="Helvetica,sans-Serif" font-size="10.00">map</text>
</a>
</g>
</g>
<!-- Node4&#45;&gt;Node9 -->
<g id="edge8_Node000004_Node000009" class="edge">
<title>Node4&#45;&gt;Node9</title>
<g id="a_edge8_Node000004_Node000009"><a xlink:title=" ">
<path fill="none" stroke="#63b8ff" d="M490.71,-54.75C487.19,-47.57 482.09,-37.18 477.72,-28.27"/>
<polygon fill="#63b8ff" stroke="#63b8ff" points="480.76,-26.53 473.21,-19.09 474.48,-29.61 480.76,-26.53"/>
</a>
</g>
</g>
<!-- Node10 -->
<g id="Node000010" class="node">
<title>Node10</title>
<g id="a_Node000010"><a xlink:title=" ">
<polygon fill="#e0e0e0" stroke="#999999" points="538,-19 506,-19 506,0 538,0 538,-19"/>
<text text-anchor="middle" x="522" y="-7" font-family="Helvetica,sans-Serif" font-size="10.00">set</text>
</a>
</g>
</g>
<!-- Node4&#45;&gt;Node10 -->
<g id="edge9_Node000004_Node000010" class="edge">
<title>Node4&#45;&gt;Node10</title>
<g id="a_edge9_Node000004_Node000010"><a xlink:title=" ">
<path fill="none" stroke="#63b8ff" d="M499.46,-54.75C503.12,-47.57 508.41,-37.18 512.95,-28.27"/>
<polygon fill="#63b8ff" stroke="#63b8ff" points="516.2,-29.59 517.62,-19.09 509.97,-26.41 516.2,-29.59"/>
</a>
</g>
</g>
<!-- Node11 -->
<g id="Node000011" class="node">
<title>Node11</title>
<g id="a_Node000011"><a xlink:title=" ">
<polygon fill="#e0e0e0" stroke="#999999" points="600,-19 556,-19 556,0 600,0 600,-19"/>
<text text-anchor="middle" x="578" y="-7" font-family="Helvetica,sans-Serif" font-size="10.00">string</text>
</a>
</g>
</g>
<!-- Node4&#45;&gt;Node11 -->
<g id="edge10_Node000004_Node000011" class="edge">
<title>Node4&#45;&gt;Node11</title>
<g id="a_edge10_Node000004_Node000011"><a xlink:title=" ">
<path fill="none" stroke="#63b8ff" d="M508.34,-54.98C521.09,-46.84 540.55,-34.41 555.67,-24.76"/>
<polygon fill="#63b8ff" stroke="#63b8ff" points="557.88,-27.5 564.42,-19.17 554.11,-21.6 557.88,-27.5"/>
</a>
</g>
</g>
<!-- Node12 -->
<g id="Node000012" class="node">
<title>Node12</title>
<g id="a_Node000012"><a xlink:title=" ">
<polygon fill="#e0e0e0" stroke="#999999" points="682,-19 618,-19 618,0 682,0 682,-19"/>
<text text-anchor="middle" x="650" y="-7" font-family="Helvetica,sans-Serif" font-size="10.00">algorithm</text>
</a>
</g>
</g>
<!-- Node4&#45;&gt;Node12 -->
<g id="edge11_Node000004_Node000012" class="edge">
<title>Node4&#45;&gt;Node12</title>
<g id="a_edge11_Node000004_Node000012"><a xlink:title=" ">
<path fill="none" stroke="#63b8ff" d="M519.9,-54.98C545.7,-46.16 586.22,-32.31 615.18,-22.41"/>
<polygon fill="#63b8ff" stroke="#63b8ff" points="616.57,-25.63 624.9,-19.08 614.31,-19.01 616.57,-25.63"/>
</a>
</g>
</g>
<!-- Node13 -->
<g id="Node000013" class="node">
<title>Node13</title>
<g id="a_Node000013"><a xlink:title=" ">
<polygon fill="#e0e0e0" stroke="#999999" points="758,-19 700,-19 700,0 758,0 758,-19"/>
<text text-anchor="middle" x="729" y="-7" font-family="Helvetica,sans-Serif" font-size="10.00">memory</text>
</a>
</g>
</g>
<!-- Node4&#45;&gt;Node13 -->
<g id="edge12_Node000004_Node000013" class="edge">
<title>Node4&#45;&gt;Node13</title>
<g id="a_edge12_Node000004_Node000013"><a xlink:title=" ">
<path fill="none" stroke="#63b8ff" d="M532.6,-54.98C575.77,-45.21 646.27,-29.24 690.02,-19.33"/>
<polygon fill="#63b8ff" stroke="#63b8ff" points="691.02,-22.69 700,-17.07 689.47,-15.86 691.02,-22.69"/>
</a>
</g>
</g>
<!-- Node14 -->
<g id="Node000014" class="node">
<title>Node14</title>
<g id="a_Node000014"><a xlink:title=" ">
<polygon fill="#e0e0e0" stroke="#999999" points="841.5,-19 776.5,-19 776.5,0 841.5,0 841.5,-19"/>
<text text-anchor="middle" x="809" y="-7" font-family="Helvetica,sans-Serif" font-size="10.00">functional</text>
</a>
</g>
</g>
<!-- Node4&#45;&gt;Node14 -->
<g id="edge13_Node000004_Node000014" class="edge">
<title>Node4&#45;&gt;Node14</title>
<g id="a_edge13_Node000004_Node000014"><a xlink:title=" ">
<path fill="none" stroke="#63b8ff" d="M550.85,-54.99C603.75,-46.79 685.69,-33.72 766.6,-19.01"/>
<polygon fill="#63b8ff" stroke="#63b8ff" points="767.26,-22.45 776.46,-17.21 766,-15.56 767.26,-22.45"/>
</a>
</g>
</g>
<!-- Node15&#45;&gt;Node4 -->
<g id="edge15_Node000015_Node000004" class="edge">
<title>Node15&#45;&gt;Node4</title>
<g id="a_edge15_Node000015_Node000004"><a xlink:title=" ">
<path fill="none" stroke="#63b8ff" d="M495,-109.75C495,-102.8 495,-92.85 495,-84.13"/>
<polygon fill="#63b8ff" stroke="#63b8ff" points="498.5,-84.09 495,-74.09 491.5,-84.09 498.5,-84.09"/>
</a>
</g>
</g>
<!-- Node16&#45;&gt;Node4 -->
<g id="edge17_Node000016_Node000004" class="edge">
<title>Node16&#45;&gt;Node4</title>
<g id="a_edge17_Node000016_Node000004"><a xlink:title=" ">
<path fill="none" stroke="#63b8ff" d="M425.68,-164.84C422.06,-150.2 418.82,-127.11 428,-110 435.51,-96 449.57,-85.66 462.88,-78.48"/>
<polygon fill="#63b8ff" stroke="#63b8ff" points="464.48,-81.6 471.89,-74.02 461.37,-75.33 464.48,-81.6"/>
</a>
</g>
</g>
<!-- Node17 -->
<g id="Node000017" class="node">
<title>Node17</title>
<g id="a_Node000017"><a xlink:href="../../db/d98/ctexceptions_8h.html" target="_top" xlink:title="Definitions for the classes that are thrown when Cantera experiences an error condition (also contain...">
<polygon fill="#fff0f0" stroke="red" points="764,-129 610,-129 610,-110 764,-110 764,-129"/>
<text text-anchor="middle" x="687" y="-117" font-family="Helvetica,sans-Serif" font-size="10.00">cantera/base/ctexceptions.h</text>
</a>
</g>
</g>
<!-- Node16&#45;&gt;Node17 -->
<g id="edge18_Node000016_Node000017" class="edge">
<title>Node16&#45;&gt;Node17</title>
<g id="a_edge18_Node000016_Node000017"><a xlink:title=" ">
<path fill="none" stroke="#63b8ff" d="M491.56,-164.99C536.97,-154.65 597.85,-140.79 639.52,-131.31"/>
<polygon fill="#63b8ff" stroke="#63b8ff" points="640.45,-134.69 649.42,-129.05 638.9,-127.86 640.45,-134.69"/>
</a>
</g>
</g>
<!-- Node17&#45;&gt;Node4 -->
<g id="edge19_Node000017_Node000004" class="edge">
<title>Node17&#45;&gt;Node4</title>
<g id="a_edge19_Node000017_Node000004"><a xlink:title=" ">
<path fill="none" stroke="#63b8ff" d="M656.15,-109.98C623.5,-100.97 571.8,-86.7 535.8,-76.76"/>
<polygon fill="#63b8ff" stroke="#63b8ff" points="536.66,-73.37 526.09,-74.08 534.8,-80.12 536.66,-73.37"/>
</a>
</g>
</g>
<!-- Node23&#45;&gt;Node15 -->
<g id="edge27_Node000023_Node000015" class="edge">
<title>Node23&#45;&gt;Node15</title>
<g id="a_edge27_Node000023_Node000015"><a xlink:title=" ">
<path fill="none" stroke="#63b8ff" d="M257.87,-230.9C258.13,-215.33 261.05,-182.44 280,-165 301.12,-145.56 371.82,-133.59 426.44,-127.03"/>
<polygon fill="#63b8ff" stroke="#63b8ff" points="426.91,-130.5 436.44,-125.87 426.1,-123.55 426.91,-130.5"/>
</a>
</g>
</g>
<!-- Node23&#45;&gt;Node17 -->
<g id="edge30_Node000023_Node000017" class="edge">
<title>Node23&#45;&gt;Node17</title>
<g id="a_edge30_Node000023_Node000017"><a xlink:title=" ">
<path fill="none" stroke="#63b8ff" d="M265.68,-230.78C280.42,-214.7 314.47,-180.6 351,-165 394.42,-146.46 515.44,-133.68 599.7,-126.72"/>
<polygon fill="#63b8ff" stroke="#63b8ff" points="600.11,-130.2 609.79,-125.9 599.54,-123.22 600.11,-130.2"/>
</a>
</g>
</g>
<!-- Node24 -->
<g id="Node000024" class="node">
<title>Node24</title>
<g id="a_Node000024"><a xlink:href="../../dd/d16/MultiRateBase_8h.html" target="_top" xlink:title=" ">
<polygon fill="white" stroke="#666666" points="189.5,-189.5 92.5,-189.5 92.5,-170.5 189.5,-170.5 189.5,-189.5"/>
<text text-anchor="middle" x="141" y="-177.5" font-family="Helvetica,sans-Serif" font-size="10.00">MultiRateBase.h</text>
</a>
</g>
</g>
<!-- Node23&#45;&gt;Node24 -->
<g id="edge21_Node000023_Node000024" class="edge">
<title>Node23&#45;&gt;Node24</title>
<g id="a_edge21_Node000023_Node000024"><a xlink:title=" ">
<path fill="none" stroke="#63b8ff" d="M240.99,-230.99C221.58,-221.29 189.61,-205.31 167.06,-194.03"/>
<polygon fill="#63b8ff" stroke="#63b8ff" points="168.54,-190.86 158.03,-189.52 165.41,-197.12 168.54,-190.86"/>
</a>
</g>
</g>
<!-- Node25 -->
<g id="Node000025" class="node">
<title>Node25</title>
<g id="a_Node000025"><a xlink:href="../../dd/d2a/AnyMap_8h.html" target="_top" xlink:title=" ">
<polygon fill="#fff0f0" stroke="red" points="687.5,-189.5 556.5,-189.5 556.5,-170.5 687.5,-170.5 687.5,-189.5"/>
<text text-anchor="middle" x="622" y="-177.5" font-family="Helvetica,sans-Serif" font-size="10.00">cantera/base/AnyMap.h</text>
</a>
</g>
</g>
<!-- Node23&#45;&gt;Node25 -->
<g id="edge23_Node000023_Node000025" class="edge">
<title>Node23&#45;&gt;Node25</title>
<g id="a_edge23_Node000023_Node000025"><a xlink:title=" ">
<path fill="none" stroke="#63b8ff" d="M303.73,-232.15C368.29,-221.77 486.37,-202.8 559.13,-191.1"/>
<polygon fill="#63b8ff" stroke="#63b8ff" points="559.77,-194.55 569.09,-189.5 558.66,-187.63 559.77,-194.55"/>
</a>
</g>
</g>
<!-- Node30 -->
<g id="Node000030" class="node">
<title>Node30</title>
<g id="a_Node000030"><a xlink:href="../../d2/d49/global_8h.html" target="_top" xlink:title="This file contains definitions for utility functions and text for modules, inputfiles and logging,...">
<polygon fill="#fff0f0" stroke="red" points="336,-129 214,-129 214,-110 336,-110 336,-129"/>
<text text-anchor="middle" x="275" y="-117" font-family="Helvetica,sans-Serif" font-size="10.00">cantera/base/global.h</text>
</a>
</g>
</g>
<!-- Node23&#45;&gt;Node30 -->
<g id="edge28_Node000023_Node000030" class="edge">
<title>Node23&#45;&gt;Node30</title>
<g id="a_edge28_Node000023_Node000030"><a xlink:title=" ">
<path fill="none" stroke="#63b8ff" d="M253.1,-230.62C245.97,-216.49 234.37,-188.11 242,-165 245.46,-154.54 252.43,-144.53 259.08,-136.66"/>
<polygon fill="#63b8ff" stroke="#63b8ff" points="261.86,-138.8 265.98,-129.04 256.67,-134.1 261.86,-138.8"/>
</a>
</g>
</g>
<!-- Node24&#45;&gt;Node4 -->
<g id="edge22_Node000024_Node000004" class="edge">
<title>Node24&#45;&gt;Node4</title>
<g id="a_edge22_Node000024_Node000004"><a xlink:title=" ">
<path fill="none" stroke="#63b8ff" d="M146.4,-170.03C156.07,-154.86 177.86,-124.39 205,-110 241.48,-90.65 348.06,-77.96 421.33,-71.26"/>
<polygon fill="#63b8ff" stroke="#63b8ff" points="421.79,-74.73 431.43,-70.35 421.16,-67.76 421.79,-74.73"/>
</a>
</g>
</g>
<!-- Node25&#45;&gt;Node4 -->
<g id="edge24_Node000025_Node000004" class="edge">
<title>Node25&#45;&gt;Node4</title>
<g id="a_edge24_Node000025_Node000004"><a xlink:title=" ">
<path fill="none" stroke="#63b8ff" d="M615.79,-170.24C605.73,-156.42 584.78,-129.15 563,-110 549.66,-98.26 532.99,-87.31 519.49,-79.2"/>
<polygon fill="#63b8ff" stroke="#63b8ff" points="521.13,-76.11 510.73,-74.07 517.59,-82.15 521.13,-76.11"/>
</a>
</g>
</g>
<!-- Node25&#45;&gt;Node15 -->
<g id="edge26_Node000025_Node000015" class="edge">
<title>Node25&#45;&gt;Node15</title>
<g id="a_edge26_Node000025_Node000015"><a xlink:title=" ">
<path fill="none" stroke="#63b8ff" d="M603.53,-170.49C582.28,-160.7 547.15,-144.52 522.63,-133.23"/>
<polygon fill="#63b8ff" stroke="#63b8ff" points="524.04,-130.02 513.49,-129.02 521.11,-136.38 524.04,-130.02"/>
</a>
</g>
</g>
<!-- Node25&#45;&gt;Node17 -->
<g id="edge25_Node000025_Node000017" class="edge">
<title>Node25&#45;&gt;Node17</title>
<g id="a_edge25_Node000025_Node000017"><a xlink:title=" ">
<path fill="none" stroke="#63b8ff" d="M631.59,-170.37C641.58,-161.38 657.43,-147.11 669.63,-136.14"/>
<polygon fill="#63b8ff" stroke="#63b8ff" points="672.28,-138.46 677.37,-129.17 667.6,-133.26 672.28,-138.46"/>
</a>
</g>
</g>
<!-- Node30&#45;&gt;Node4 -->
<g id="edge29_Node000030_Node000004" class="edge">
<title>Node30&#45;&gt;Node4</title>
<g id="a_edge29_Node000030_Node000004"><a xlink:title=" ">
<path fill="none" stroke="#63b8ff" d="M310.35,-109.98C348.16,-100.87 408.26,-86.4 449.57,-76.45"/>
<polygon fill="#63b8ff" stroke="#63b8ff" points="450.47,-79.83 459.38,-74.08 448.83,-73.02 450.47,-79.83"/>
</a>
</g>
</g>
<!-- Node31&#45;&gt;Node23 -->
<g id="edge32_Node000031_Node000023" class="edge">
<title>Node31&#45;&gt;Node23</title>
<g id="a_edge32_Node000031_Node000023"><a xlink:title=" ">
<path fill="none" stroke="#63b8ff" d="M205.96,-285.98C215.13,-278.15 228.94,-266.34 240.03,-256.86"/>
<polygon fill="#63b8ff" stroke="#63b8ff" points="242.53,-259.33 247.86,-250.17 237.98,-254.01 242.53,-259.33"/>
</a>
</g>
</g>
<!-- Node31&#45;&gt;Node24 -->
<g id="edge33_Node000031_Node000024" class="edge">
<title>Node31&#45;&gt;Node24</title>
<g id="a_edge33_Node000031_Node000024"><a xlink:title=" ">
<path fill="none" stroke="#63b8ff" d="M191.87,-285.97C182.91,-267.48 161.55,-223.4 149.55,-198.64"/>
<polygon fill="#63b8ff" stroke="#63b8ff" points="152.69,-197.1 145.18,-189.63 146.39,-200.16 152.69,-197.1"/>
</a>
</g>
</g>
<!-- Node32 -->
<g id="Node000032" class="node">
<title>Node32</title>
<g id="a_Node000032"><a xlink:href="../../de/df0/utilities_8h.html" target="_top" xlink:title="Various templated functions that carry out common vector and polynomial operations (see Templated Arr...">
<polygon fill="#fff0f0" stroke="red" points="156,-250 28,-250 28,-231 156,-231 156,-250"/>
<text text-anchor="middle" x="92" y="-238" font-family="Helvetica,sans-Serif" font-size="10.00">cantera/base/utilities.h</text>
</a>
</g>
</g>
<!-- Node31&#45;&gt;Node32 -->
<g id="edge34_Node000031_Node000032" class="edge">
<title>Node31&#45;&gt;Node32</title>
<g id="a_edge34_Node000031_Node000032"><a xlink:title=" ">
<path fill="none" stroke="#63b8ff" d="M179.29,-285.98C162.79,-277.57 137.3,-264.59 118.12,-254.81"/>
<polygon fill="#63b8ff" stroke="#63b8ff" points="119.51,-251.59 109.01,-250.17 116.33,-257.83 119.51,-251.59"/>
</a>
</g>
</g>
<!-- Node32&#45;&gt;Node4 -->
<g id="edge35_Node000032_Node000004" class="edge">
<title>Node32&#45;&gt;Node4</title>
<g id="a_edge35_Node000032_Node000004"><a xlink:title=" ">
<path fill="none" stroke="#63b8ff" d="M87.85,-230.56C81.69,-215.84 72.06,-186.05 84,-165 107.5,-123.56 131.07,-125.83 176,-110 256.73,-81.56 354.96,-71.22 420.9,-67.5"/>
<polygon fill="#63b8ff" stroke="#63b8ff" points="421.4,-70.98 431.2,-66.96 421.03,-63.99 421.4,-70.98"/>
</a>
</g>
</g>
<!-- Node34&#45;&gt;Node15 -->
<g id="edge49_Node000034_Node000015" class="edge">
<title>Node34&#45;&gt;Node15</title>
<g id="a_edge49_Node000034_Node000015"><a xlink:title=" ">
<path fill="none" stroke="#63b8ff" d="M580.08,-340.8C575.17,-331.94 567.58,-317.75 562,-305 535.97,-245.54 511.58,-172.43 500.81,-138.89"/>
<polygon fill="#63b8ff" stroke="#63b8ff" points="504.06,-137.58 497.69,-129.11 497.39,-139.7 504.06,-137.58"/>
</a>
</g>
</g>
<!-- Node34&#45;&gt;Node25 -->
<g id="edge50_Node000034_Node000025" class="edge">
<title>Node34&#45;&gt;Node25</title>
<g id="a_edge50_Node000034_Node000025"><a xlink:title=" ">
<path fill="none" stroke="#63b8ff" d="M581.25,-340.76C573.17,-320.57 556.08,-269.43 572,-231 577.78,-217.04 589.56,-204.94 600.24,-196.15"/>
<polygon fill="#63b8ff" stroke="#63b8ff" points="602.65,-198.71 608.43,-189.83 598.37,-193.17 602.65,-198.71"/>
</a>
</g>
</g>
<!-- Node35 -->
<g id="Node000035" class="node">
<title>Node35</title>
<g id="a_Node000035"><a xlink:href="../../da/d84/Phase_8h.html" target="_top" xlink:title="Header file for class Phase.">
<polygon fill="white" stroke="#666666" points="936.5,-189.5 881.5,-189.5 881.5,-170.5 936.5,-170.5 936.5,-189.5"/>
<text text-anchor="middle" x="909" y="-177.5" font-family="Helvetica,sans-Serif" font-size="10.00">Phase.h</text>
</a>
</g>
</g>
<!-- Node34&#45;&gt;Node35 -->
<g id="edge37_Node000034_Node000035" class="edge">
<title>Node34&#45;&gt;Node35</title>
<g id="a_edge37_Node000034_Node000035"><a xlink:title=" ">
<path fill="none" stroke="#63b8ff" d="M670.25,-345.55C719.09,-340.53 780.34,-329.4 830,-305 862.76,-288.9 872.04,-281.19 891,-250 900.34,-234.64 904.87,-214.51 907.05,-199.96"/>
<polygon fill="#63b8ff" stroke="#63b8ff" points="910.57,-200.04 908.34,-189.68 903.62,-199.17 910.57,-200.04"/>
</a>
</g>
</g>
<!-- Node39 -->
<g id="Node000039" class="node">
<title>Node39</title>
<g id="a_Node000039"><a xlink:href="../../d6/d7a/MultiSpeciesThermo_8h.html" target="_top" xlink:title="Header for a general species thermodynamic property manager for a phase (see MultiSpeciesThermo).">
<polygon fill="white" stroke="#666666" points="820.5,-305 695.5,-305 695.5,-286 820.5,-286 820.5,-305"/>
<text text-anchor="middle" x="758" y="-293" font-family="Helvetica,sans-Serif" font-size="10.00">MultiSpeciesThermo.h</text>
</a>
</g>
</g>
<!-- Node34&#45;&gt;Node39 -->
<g id="edge44_Node000034_Node000039" class="edge">
<title>Node34&#45;&gt;Node39</title>
<g id="a_edge44_Node000034_Node000039"><a xlink:title=" ">
<path fill="none" stroke="#63b8ff" d="M612.8,-340.98C641.97,-332.05 688,-317.94 720.4,-308.02"/>
<polygon fill="#63b8ff" stroke="#63b8ff" points="721.45,-311.36 729.99,-305.08 719.4,-304.66 721.45,-311.36"/>
</a>
</g>
</g>
<!-- Node41 -->
<g id="Node000041" class="node">
<title>Node41</title>
<g id="a_Node000041"><a xlink:href="../../d4/dfa/Solution_8h.html" target="_top" xlink:title=" ">
<polygon fill="white" stroke="#666666" points="711.5,-250 580.5,-250 580.5,-231 711.5,-231 711.5,-250"/>
<text text-anchor="middle" x="646" y="-238" font-family="Helvetica,sans-Serif" font-size="10.00">cantera/base/Solution.h</text>
</a>
</g>
</g>
<!-- Node34&#45;&gt;Node41 -->
<g id="edge51_Node000034_Node000041" class="edge">
<title>Node34&#45;&gt;Node41</title>
<g id="a_edge51_Node000034_Node000041"><a xlink:title=" ">
<path fill="none" stroke="#63b8ff" d="M589.99,-340.66C600.05,-322.85 622.92,-282.37 636.11,-259.01"/>
<polygon fill="#63b8ff" stroke="#63b8ff" points="639.24,-260.59 641.11,-250.16 633.14,-257.14 639.24,-260.59"/>
</a>
</g>
</g>
<!-- Node35&#45;&gt;Node17 -->
<g id="edge38_Node000035_Node000017" class="edge">
<title>Node35&#45;&gt;Node17</title>
<g id="a_edge38_Node000035_Node000017"><a xlink:title=" ">
<path fill="none" stroke="#63b8ff" d="M881.33,-171.71C843.08,-161.63 773.71,-143.35 729.03,-131.58"/>
<polygon fill="#63b8ff" stroke="#63b8ff" points="729.9,-128.19 719.34,-129.02 728.12,-134.96 729.9,-128.19"/>
</a>
</g>
</g>
<!-- Node36 -->
<g id="Node000036" class="node">
<title>Node36</title>
<g id="a_Node000036"><a xlink:href="../../d9/dda/Elements_8h.html" target="_top" xlink:title="Contains the getElementWeight function and the definitions of element constraint types.">
<polygon fill="white" stroke="#666666" points="968.5,-129 819.5,-129 819.5,-110 968.5,-110 968.5,-129"/>
<text text-anchor="middle" x="894" y="-117" font-family="Helvetica,sans-Serif" font-size="10.00">cantera/thermo/Elements.h</text>
</a>
</g>
</g>
<!-- Node35&#45;&gt;Node36 -->
<g id="edge39_Node000035_Node000036" class="edge">
<title>Node35&#45;&gt;Node36</title>
<g id="a_edge39_Node000035_Node000036"><a xlink:title=" ">
<path fill="none" stroke="#63b8ff" d="M906.79,-170.37C904.68,-162.16 901.45,-149.54 898.76,-139.05"/>
<polygon fill="#63b8ff" stroke="#63b8ff" points="902.1,-137.98 896.22,-129.17 895.32,-139.72 902.1,-137.98"/>
</a>
</g>
</g>
<!-- Node37 -->
<g id="Node000037" class="node">
<title>Node37</title>
<g id="a_Node000037"><a xlink:href="../../d6/df6/ValueCache_8h.html" target="_top" xlink:title=" ">
<polygon fill="white" stroke="#666666" points="1135.5,-129 986.5,-129 986.5,-110 1135.5,-110 1135.5,-129"/>
<text text-anchor="middle" x="1061" y="-117" font-family="Helvetica,sans-Serif" font-size="10.00">cantera/base/ValueCache.h</text>
</a>
</g>
</g>
<!-- Node35&#45;&gt;Node37 -->
<g id="edge41_Node000035_Node000037" class="edge">
<title>Node35&#45;&gt;Node37</title>
<g id="a_edge41_Node000035_Node000037"><a xlink:title=" ">
<path fill="none" stroke="#63b8ff" d="M931.1,-170.49C956.99,-160.53 1000.08,-143.95 1029.47,-132.63"/>
<polygon fill="#63b8ff" stroke="#63b8ff" points="1030.8,-135.88 1038.87,-129.02 1028.28,-129.34 1030.8,-135.88"/>
</a>
</g>
</g>
<!-- Node36&#45;&gt;Node4 -->
<g id="edge40_Node000036_Node000004" class="edge">
<title>Node36&#45;&gt;Node4</title>
<g id="a_edge40_Node000036_Node000004"><a xlink:title=" ">
<path fill="none" stroke="#63b8ff" d="M829.89,-109.98C758.68,-100.52 643.87,-85.27 568.92,-75.32"/>
<polygon fill="#63b8ff" stroke="#63b8ff" points="568.99,-71.8 558.62,-73.95 568.07,-78.74 568.99,-71.8"/>
</a>
</g>
</g>
<!-- Node37&#45;&gt;Node4 -->
<g id="edge42_Node000037_Node000004" class="edge">
<title>Node37&#45;&gt;Node4</title>
<g id="a_edge42_Node000037_Node000004"><a xlink:title=" ">
<path fill="none" stroke="#63b8ff" d="M986.35,-110.82C983.53,-110.54 980.74,-110.27 978,-110 833.05,-95.9 663.5,-80.54 568.75,-72.06"/>
<polygon fill="#63b8ff" stroke="#63b8ff" points="568.97,-68.57 558.7,-71.16 568.35,-75.54 568.97,-68.57"/>
</a>
</g>
</g>
<!-- Node38 -->
<g id="Node000038" class="node">
<title>Node38</title>
<g id="a_Node000038"><a xlink:title=" ">
<polygon fill="#e0e0e0" stroke="#999999" points="1083,-74 1039,-74 1039,-55 1083,-55 1083,-74"/>
<text text-anchor="middle" x="1061" y="-62" font-family="Helvetica,sans-Serif" font-size="10.00">limits</text>
</a>
</g>
</g>
<!-- Node37&#45;&gt;Node38 -->
<g id="edge43_Node000037_Node000038" class="edge">
<title>Node37&#45;&gt;Node38</title>
<g id="a_edge43_Node000037_Node000038"><a xlink:title=" ">
<path fill="none" stroke="#63b8ff" d="M1061,-109.75C1061,-102.8 1061,-92.85 1061,-84.13"/>
<polygon fill="#63b8ff" stroke="#63b8ff" points="1064.5,-84.09 1061,-74.09 1057.5,-84.09 1064.5,-84.09"/>
</a>
</g>
</g>
<!-- Node40 -->
<g id="Node000040" class="node">
<title>Node40</title>
<g id="a_Node000040"><a xlink:href="../../d4/d87/SpeciesThermoInterpType_8h.html" target="_top" xlink:title="Pure Virtual Base class for individual species reference state thermodynamic managers and text for th...">
<polygon fill="white" stroke="#666666" points="882,-250 730,-250 730,-231 882,-231 882,-250"/>
<text text-anchor="middle" x="806" y="-238" font-family="Helvetica,sans-Serif" font-size="10.00">SpeciesThermoInterpType.h</text>
</a>
</g>
</g>
<!-- Node39&#45;&gt;Node40 -->
<g id="edge45_Node000039_Node000040" class="edge">
<title>Node39&#45;&gt;Node40</title>
<g id="a_edge45_Node000039_Node000040"><a xlink:title=" ">
<path fill="none" stroke="#63b8ff" d="M765.93,-285.75C772.85,-278.11 783.07,-266.82 791.45,-257.56"/>
<polygon fill="#63b8ff" stroke="#63b8ff" points="794.1,-259.85 798.22,-250.09 788.91,-255.15 794.1,-259.85"/>
</a>
</g>
</g>
<!-- Node40&#45;&gt;Node4 -->
<g id="edge46_Node000040_Node000004" class="edge">
<title>Node40&#45;&gt;Node4</title>
<g id="a_edge46_Node000040_Node000004"><a xlink:title=" ">
<path fill="none" stroke="#63b8ff" d="M806.71,-230.98C808.15,-207.69 808.64,-142.54 773,-110 743.89,-83.42 641.08,-72.67 569.01,-68.35"/>
<polygon fill="#63b8ff" stroke="#63b8ff" points="568.79,-64.83 558.61,-67.76 568.4,-71.82 568.79,-64.83"/>
</a>
</g>
</g>
<!-- Node40&#45;&gt;Node17 -->
<g id="edge47_Node000040_Node000017" class="edge">
<title>Node40&#45;&gt;Node17</title>
<g id="a_edge47_Node000040_Node000017"><a xlink:title=" ">
<path fill="none" stroke="#63b8ff" d="M797.44,-230.94C777.64,-211.14 728.41,-161.91 702.9,-136.4"/>
<polygon fill="#63b8ff" stroke="#63b8ff" points="705.35,-133.9 695.8,-129.3 700.4,-138.85 705.35,-133.9"/>
</a>
</g>
</g>
<!-- Node40&#45;&gt;Node25 -->
<g id="edge48_Node000040_Node000025" class="edge">
<title>Node40&#45;&gt;Node25</title>
<g id="a_edge48_Node000040_Node000025"><a xlink:title=" ">
<path fill="none" stroke="#63b8ff" d="M779.24,-230.99C747.36,-220.86 693.93,-203.87 658.32,-192.55"/>
<polygon fill="#63b8ff" stroke="#63b8ff" points="659.38,-189.21 648.79,-189.52 657.26,-195.88 659.38,-189.21"/>
</a>
</g>
</g>
<!-- Node41&#45;&gt;Node17 -->
<g id="edge52_Node000041_Node000017" class="edge">
<title>Node41&#45;&gt;Node17</title>
<g id="a_edge52_Node000041_Node000017"><a xlink:title=" ">
<path fill="none" stroke="#63b8ff" d="M661.73,-230.88C673.88,-223.23 689.8,-210.83 697,-195 705.16,-177.05 700.2,-154.33 694.77,-138.73"/>
<polygon fill="#63b8ff" stroke="#63b8ff" points="697.96,-137.27 691.09,-129.21 691.43,-139.8 697.96,-137.27"/>
</a>
</g>
</g>
<!-- Node41&#45;&gt;Node25 -->
<g id="edge53_Node000041_Node000025" class="edge">
<title>Node41&#45;&gt;Node25</title>
<g id="a_edge53_Node000041_Node000025"><a xlink:title=" ">
<path fill="none" stroke="#63b8ff" d="M642.46,-230.87C639.06,-222.57 633.81,-209.78 629.48,-199.22"/>
<polygon fill="#63b8ff" stroke="#63b8ff" points="632.59,-197.59 625.56,-189.67 626.11,-200.25 632.59,-197.59"/>
</a>
</g>
</g>
</g>
</svg>
