<?xml version="1.0" encoding="UTF-8" standalone="no"?>
<!DOCTYPE svg PUBLIC "-//W3C//DTD SVG 1.1//EN"
 "http://www.w3.org/Graphics/SVG/1.1/DTD/svg11.dtd">
<!-- Generated by graphviz version 2.43.0 (0)
 -->
<!-- Title: PengRobinson.cpp Pages: 1 -->
<svg width="1234pt" height="412pt"
 viewBox="0.00 0.00 1234.00 412.00" xmlns="http://www.w3.org/2000/svg" xmlns:xlink="http://www.w3.org/1999/xlink">
<g id="graph0" class="graph" transform="scale(1 1) rotate(0) translate(4 408)">
<title>PengRobinson.cpp</title>
<!-- Node1 -->
<g id="Node000001" class="node">
<title>Node1</title>
<g id="a_Node000001"><a xlink:title=" ">
<polygon fill="#999999" stroke="#666666" points="793,-404 687,-404 687,-385 793,-385 793,-404"/>
<text text-anchor="middle" x="740" y="-392" font-family="Helvetica,sans-Serif" font-size="10.00">PengRobinson.cpp</text>
</a>
</g>
</g>
<!-- Node2 -->
<g id="Node000002" class="node">
<title>Node2</title>
<g id="a_Node000002"><a xlink:href="../../de/d01/PengRobinson_8h.html" target="_top" xlink:title=" ">
<polygon fill="white" stroke="#666666" points="342.5,-349 169.5,-349 169.5,-330 342.5,-330 342.5,-349"/>
<text text-anchor="middle" x="256" y="-337" font-family="Helvetica,sans-Serif" font-size="10.00">cantera/thermo/PengRobinson.h</text>
</a>
</g>
</g>
<!-- Node1&#45;&gt;Node2 -->
<g id="edge1_Node000001_Node000002" class="edge">
<title>Node1&#45;&gt;Node2</title>
<g id="a_edge1_Node000001_Node000002"><a xlink:title=" ">
<path fill="none" stroke="#63b8ff" d="M686.82,-387.68C604.2,-378.63 444.13,-361.1 344.08,-350.14"/>
<polygon fill="#63b8ff" stroke="#63b8ff" points="344.31,-346.65 333.99,-349.04 343.55,-353.61 344.31,-346.65"/>
</a>
</g>
</g>
<!-- Node36 -->
<g id="Node000036" class="node">
<title>Node36</title>
<g id="a_Node000036"><a xlink:href="../../dc/d8e/ThermoFactory_8h.html" target="_top" xlink:title="Headers for the factory class that can create known ThermoPhase objects (see Thermodynamic Properties...">
<polygon fill="white" stroke="#666666" points="613.5,-294 438.5,-294 438.5,-275 613.5,-275 613.5,-294"/>
<text text-anchor="middle" x="526" y="-282" font-family="Helvetica,sans-Serif" font-size="10.00">cantera/thermo/ThermoFactory.h</text>
</a>
</g>
</g>
<!-- Node1&#45;&gt;Node36 -->
<g id="edge20_Node000001_Node000036" class="edge">
<title>Node1&#45;&gt;Node36</title>
<g id="a_edge20_Node000001_Node000036"><a xlink:title=" ">
<path fill="none" stroke="#63b8ff" d="M722.37,-384.88C704.2,-375.96 675.07,-361.62 650,-349 616.05,-331.92 577.06,-311.88 552,-298.95"/>
<polygon fill="#63b8ff" stroke="#63b8ff" points="553.3,-295.68 542.81,-294.2 550.09,-301.9 553.3,-295.68"/>
</a>
</g>
</g>
<!-- Node40 -->
<g id="Node000040" class="node">
<title>Node40</title>
<g id="a_Node000040"><a xlink:href="../../d7/dd9/Species_8h.html" target="_top" xlink:title="Declaration for class Cantera::Species.">
<polygon fill="white" stroke="#666666" points="711.5,-239 570.5,-239 570.5,-220 711.5,-220 711.5,-239"/>
<text text-anchor="middle" x="641" y="-227" font-family="Helvetica,sans-Serif" font-size="10.00">cantera/thermo/Species.h</text>
</a>
</g>
</g>
<!-- Node1&#45;&gt;Node40 -->
<g id="edge29_Node000001_Node000040" class="edge">
<title>Node1&#45;&gt;Node40</title>
<g id="a_edge29_Node000001_Node000040"><a xlink:title=" ">
<path fill="none" stroke="#63b8ff" d="M734.68,-384.74C718.96,-358.87 672.57,-282.48 651.56,-247.88"/>
<polygon fill="#63b8ff" stroke="#63b8ff" points="654.53,-246.04 646.35,-239.31 648.55,-249.67 654.53,-246.04"/>
</a>
</g>
</g>
<!-- Node41 -->
<g id="Node000041" class="node">
<title>Node41</title>
<g id="a_Node000041"><a xlink:href="../../dd/dc3/stringUtils_8h.html" target="_top" xlink:title="Contains declarations for string manipulation functions within Cantera.">
<polygon fill="white" stroke="#666666" points="842,-74 700,-74 700,-55 842,-55 842,-74"/>
<text text-anchor="middle" x="771" y="-62" font-family="Helvetica,sans-Serif" font-size="10.00">cantera/base/stringUtils.h</text>
</a>
</g>
</g>
<!-- Node1&#45;&gt;Node41 -->
<g id="edge32_Node000001_Node000041" class="edge">
<title>Node1&#45;&gt;Node41</title>
<g id="a_edge32_Node000001_Node000041"><a xlink:title=" ">
<path fill="none" stroke="#63b8ff" d="M740,-384.82C740,-366.48 740,-322.44 740,-285.5 740,-285.5 740,-285.5 740,-173.5 740,-140.79 753.3,-104.6 762.48,-83.52"/>
<polygon fill="#63b8ff" stroke="#63b8ff" points="765.75,-84.77 766.69,-74.22 759.37,-81.88 765.75,-84.77"/>
</a>
</g>
</g>
<!-- Node42 -->
<g id="Node000042" class="node">
<title>Node42</title>
<g id="a_Node000042"><a xlink:href="../../de/df0/utilities_8h.html" target="_top" xlink:title="Various templated functions that carry out common vector and polynomial operations (see Templated Arr...">
<polygon fill="white" stroke="#666666" points="896,-349 768,-349 768,-330 896,-330 896,-349"/>
<text text-anchor="middle" x="832" y="-337" font-family="Helvetica,sans-Serif" font-size="10.00">cantera/base/utilities.h</text>
</a>
</g>
</g>
<!-- Node1&#45;&gt;Node42 -->
<g id="edge34_Node000001_Node000042" class="edge">
<title>Node1&#45;&gt;Node42</title>
<g id="a_edge34_Node000001_Node000042"><a xlink:title=" ">
<path fill="none" stroke="#63b8ff" d="M754.78,-384.98C769.18,-376.69 791.31,-363.94 808.19,-354.22"/>
<polygon fill="#63b8ff" stroke="#63b8ff" points="810.03,-357.19 816.95,-349.17 806.54,-351.13 810.03,-357.19"/>
</a>
</g>
</g>
<!-- Node44 -->
<g id="Node000044" class="node">
<title>Node44</title>
<g id="a_Node000044"><a xlink:title=" ">
<polygon fill="#e0e0e0" stroke="#999999" points="1060,-349 914,-349 914,-330 1060,-330 1060,-349"/>
<text text-anchor="middle" x="987" y="-337" font-family="Helvetica,sans-Serif" font-size="10.00">boost/algorithm/string.hpp</text>
</a>
</g>
</g>
<!-- Node1&#45;&gt;Node44 -->
<g id="edge37_Node000001_Node000044" class="edge">
<title>Node1&#45;&gt;Node44</title>
<g id="a_edge37_Node000001_Node000044"><a xlink:title=" ">
<path fill="none" stroke="#63b8ff" d="M779.68,-384.98C822.5,-375.8 890.76,-361.15 937.16,-351.19"/>
<polygon fill="#63b8ff" stroke="#63b8ff" points="937.96,-354.6 947,-349.08 936.49,-347.76 937.96,-354.6"/>
</a>
</g>
</g>
<!-- Node45 -->
<g id="Node000045" class="node">
<title>Node45</title>
<g id="a_Node000045"><a xlink:title=" ">
<polygon fill="#e0e0e0" stroke="#999999" points="1226,-349 1078,-349 1078,-330 1226,-330 1226,-349"/>
<text text-anchor="middle" x="1152" y="-337" font-family="Helvetica,sans-Serif" font-size="10.00">boost/math/tools/roots.hpp</text>
</a>
</g>
</g>
<!-- Node1&#45;&gt;Node45 -->
<g id="edge38_Node000001_Node000045" class="edge">
<title>Node1&#45;&gt;Node45</title>
<g id="a_edge38_Node000001_Node000045"><a xlink:title=" ">
<path fill="none" stroke="#63b8ff" d="M793.02,-386.68C864.89,-377.43 993.69,-360.87 1075.88,-350.29"/>
<polygon fill="#63b8ff" stroke="#63b8ff" points="1076.45,-353.75 1085.92,-349 1075.55,-346.81 1076.45,-353.75"/>
</a>
</g>
</g>
<!-- Node3 -->
<g id="Node000003" class="node">
<title>Node3</title>
<g id="a_Node000003"><a xlink:href="../../d1/da4/MixtureFugacityTP_8h.html" target="_top" xlink:title="Header file for a derived class of ThermoPhase that handles non&#45;ideal mixtures based on the fugacity ...">
<polygon fill="white" stroke="#666666" points="313.5,-294 198.5,-294 198.5,-275 313.5,-275 313.5,-294"/>
<text text-anchor="middle" x="256" y="-282" font-family="Helvetica,sans-Serif" font-size="10.00">MixtureFugacityTP.h</text>
</a>
</g>
</g>
<!-- Node2&#45;&gt;Node3 -->
<g id="edge2_Node000002_Node000003" class="edge">
<title>Node2&#45;&gt;Node3</title>
<g id="a_edge2_Node000002_Node000003"><a xlink:title=" ">
<path fill="none" stroke="#63b8ff" d="M256,-329.75C256,-322.8 256,-312.85 256,-304.13"/>
<polygon fill="#63b8ff" stroke="#63b8ff" points="259.5,-304.09 256,-294.09 252.5,-304.09 259.5,-304.09"/>
</a>
</g>
</g>
<!-- Node34 -->
<g id="Node000034" class="node">
<title>Node34</title>
<g id="a_Node000034"><a xlink:href="../../df/dd0/Array_8h.html" target="_top" xlink:title="Header file for class Cantera::Array2D.">
<polygon fill="white" stroke="#666666" points="156,-294 40,-294 40,-275 156,-275 156,-294"/>
<text text-anchor="middle" x="98" y="-282" font-family="Helvetica,sans-Serif" font-size="10.00">cantera/base/Array.h</text>
</a>
</g>
</g>
<!-- Node2&#45;&gt;Node34 -->
<g id="edge17_Node000002_Node000034" class="edge">
<title>Node2&#45;&gt;Node34</title>
<g id="a_edge17_Node000002_Node000034"><a xlink:title=" ">
<path fill="none" stroke="#63b8ff" d="M230.61,-329.98C204.2,-321.13 162.65,-307.19 133.11,-297.28"/>
<polygon fill="#63b8ff" stroke="#63b8ff" points="134.18,-293.94 123.58,-294.08 131.95,-300.58 134.18,-293.94"/>
</a>
</g>
</g>
<!-- Node4 -->
<g id="Node000004" class="node">
<title>Node4</title>
<g id="a_Node000004"><a xlink:href="../../d7/d01/ThermoPhase_8h.html" target="_top" xlink:title="Header file for class ThermoPhase, the base class for phases with thermodynamic properties,...">
<polygon fill="white" stroke="#666666" points="302,-239 210,-239 210,-220 302,-220 302,-239"/>
<text text-anchor="middle" x="256" y="-227" font-family="Helvetica,sans-Serif" font-size="10.00">ThermoPhase.h</text>
</a>
</g>
</g>
<!-- Node3&#45;&gt;Node4 -->
<g id="edge3_Node000003_Node000004" class="edge">
<title>Node3&#45;&gt;Node4</title>
<g id="a_edge3_Node000003_Node000004"><a xlink:title=" ">
<path fill="none" stroke="#63b8ff" d="M256,-274.75C256,-267.8 256,-257.85 256,-249.13"/>
<polygon fill="#63b8ff" stroke="#63b8ff" points="259.5,-249.09 256,-239.09 252.5,-249.09 259.5,-249.09"/>
</a>
</g>
</g>
<!-- Node5 -->
<g id="Node000005" class="node">
<title>Node5</title>
<g id="a_Node000005"><a xlink:href="../../da/d84/Phase_8h.html" target="_top" xlink:title="Header file for class Phase.">
<polygon fill="#fff0f0" stroke="red" points="283.5,-184 228.5,-184 228.5,-165 283.5,-165 283.5,-184"/>
<text text-anchor="middle" x="256" y="-172" font-family="Helvetica,sans-Serif" font-size="10.00">Phase.h</text>
</a>
</g>
</g>
<!-- Node4&#45;&gt;Node5 -->
<g id="edge4_Node000004_Node000005" class="edge">
<title>Node4&#45;&gt;Node5</title>
<g id="a_edge4_Node000004_Node000005"><a xlink:title=" ">
<path fill="none" stroke="#63b8ff" d="M256,-219.75C256,-212.8 256,-202.85 256,-194.13"/>
<polygon fill="#63b8ff" stroke="#63b8ff" points="259.5,-194.09 256,-184.09 252.5,-194.09 259.5,-194.09"/>
</a>
</g>
</g>
<!-- Node26 -->
<g id="Node000026" class="node">
<title>Node26</title>
<g id="a_Node000026"><a xlink:href="../../d6/d7a/MultiSpeciesThermo_8h.html" target="_top" xlink:title="Header for a general species thermodynamic property manager for a phase (see MultiSpeciesThermo).">
<polygon fill="#fff0f0" stroke="red" points="210.5,-184 85.5,-184 85.5,-165 210.5,-165 210.5,-184"/>
<text text-anchor="middle" x="148" y="-172" font-family="Helvetica,sans-Serif" font-size="10.00">MultiSpeciesThermo.h</text>
</a>
</g>
</g>
<!-- Node4&#45;&gt;Node26 -->
<g id="edge9_Node000004_Node000026" class="edge">
<title>Node4&#45;&gt;Node26</title>
<g id="a_edge9_Node000004_Node000026"><a xlink:title=" ">
<path fill="none" stroke="#63b8ff" d="M238.65,-219.98C221.43,-211.54 194.8,-198.47 174.85,-188.68"/>
<polygon fill="#63b8ff" stroke="#63b8ff" points="176.19,-185.43 165.67,-184.17 173.1,-191.72 176.19,-185.43"/>
</a>
</g>
</g>
<!-- Node29 -->
<g id="Node000029" class="node">
<title>Node29</title>
<g id="a_Node000029"><a xlink:href="../../da/d58/Units_8h.html" target="_top" xlink:title="Header for unit conversion utilities, which are used to translate user input from input files (See In...">
<polygon fill="white" stroke="#666666" points="145.5,-129 28.5,-129 28.5,-110 145.5,-110 145.5,-129"/>
<text text-anchor="middle" x="87" y="-117" font-family="Helvetica,sans-Serif" font-size="10.00">cantera/base/Units.h</text>
</a>
</g>
</g>
<!-- Node4&#45;&gt;Node29 -->
<g id="edge10_Node000004_Node000029" class="edge">
<title>Node4&#45;&gt;Node29</title>
<g id="a_edge10_Node000004_Node000029"><a xlink:title=" ">
<path fill="none" stroke="#63b8ff" d="M209.71,-223.5C161.99,-217.28 92.32,-204.85 76,-184 65.9,-171.1 70.96,-152.18 77.13,-138.34"/>
<polygon fill="#63b8ff" stroke="#63b8ff" points="80.3,-139.84 81.63,-129.33 74.03,-136.72 80.3,-139.84"/>
</a>
</g>
</g>
<!-- Node28 -->
<g id="Node000028" class="node">
<title>Node28</title>
<g id="a_Node000028"><a xlink:href="../../dd/d2a/AnyMap_8h.html" target="_top" xlink:title=" ">
<polygon fill="#fff0f0" stroke="red" points="432.5,-184 301.5,-184 301.5,-165 432.5,-165 432.5,-184"/>
<text text-anchor="middle" x="367" y="-172" font-family="Helvetica,sans-Serif" font-size="10.00">cantera/base/AnyMap.h</text>
</a>
</g>
</g>
<!-- Node4&#45;&gt;Node28 -->
<g id="edge12_Node000004_Node000028" class="edge">
<title>Node4&#45;&gt;Node28</title>
<g id="a_edge12_Node000004_Node000028"><a xlink:title=" ">
<path fill="none" stroke="#63b8ff" d="M273.83,-219.98C291.61,-211.5 319.15,-198.35 339.68,-188.54"/>
<polygon fill="#63b8ff" stroke="#63b8ff" points="341.33,-191.64 348.84,-184.17 338.31,-185.32 341.33,-191.64"/>
</a>
</g>
</g>
<!-- Node6 -->
<g id="Node000006" class="node">
<title>Node6</title>
<g id="a_Node000006"><a xlink:href="../../db/d98/ctexceptions_8h.html" target="_top" xlink:title="Definitions for the classes that are thrown when Cantera experiences an error condition (also contain...">
<polygon fill="#fff0f0" stroke="red" points="356,-129 202,-129 202,-110 356,-110 356,-129"/>
<text text-anchor="middle" x="279" y="-117" font-family="Helvetica,sans-Serif" font-size="10.00">cantera/base/ctexceptions.h</text>
</a>
</g>
</g>
<!-- Node5&#45;&gt;Node6 -->
<g id="edge5_Node000005_Node000006" class="edge">
<title>Node5&#45;&gt;Node6</title>
<g id="a_edge5_Node000005_Node000006"><a xlink:title=" ">
<path fill="none" stroke="#63b8ff" d="M259.8,-164.75C262.91,-157.57 267.42,-147.18 271.29,-138.27"/>
<polygon fill="#63b8ff" stroke="#63b8ff" points="274.5,-139.66 275.27,-129.09 268.08,-136.87 274.5,-139.66"/>
</a>
</g>
</g>
<!-- Node7 -->
<g id="Node000007" class="node">
<title>Node7</title>
<g id="a_Node000007"><a xlink:href="../../d9/ddc/ct__defs_8h.html" target="_top" xlink:title="This file contains definitions of constants, types and terms that are used in internal routines and a...">
<polygon fill="#fff0f0" stroke="red" points="518.5,-19 457.5,-19 457.5,0 518.5,0 518.5,-19"/>
<text text-anchor="middle" x="488" y="-7" font-family="Helvetica,sans-Serif" font-size="10.00">ct_defs.h</text>
</a>
</g>
</g>
<!-- Node6&#45;&gt;Node7 -->
<g id="edge6_Node000006_Node000007" class="edge">
<title>Node6&#45;&gt;Node7</title>
<g id="a_edge6_Node000006_Node000007"><a xlink:title=" ">
<path fill="none" stroke="#63b8ff" d="M295.75,-109.84C332.22,-91 419.02,-46.14 462.4,-23.73"/>
<polygon fill="#63b8ff" stroke="#63b8ff" points="464.18,-26.75 471.46,-19.05 460.97,-20.53 464.18,-26.75"/>
</a>
</g>
</g>
<!-- Node18 -->
<g id="Node000018" class="node">
<title>Node18</title>
<g id="a_Node000018"><a xlink:href="../../db/def/fmt_8h.html" target="_top" xlink:title="Wrapper for either system&#45;installed or local headers for fmt.">
<polygon fill="#fff0f0" stroke="red" points="542.5,-74 433.5,-74 433.5,-55 542.5,-55 542.5,-74"/>
<text text-anchor="middle" x="488" y="-62" font-family="Helvetica,sans-Serif" font-size="10.00">cantera/base/fmt.h</text>
</a>
</g>
</g>
<!-- Node6&#45;&gt;Node18 -->
<g id="edge7_Node000006_Node000018" class="edge">
<title>Node6&#45;&gt;Node18</title>
<g id="a_edge7_Node000006_Node000018"><a xlink:title=" ">
<path fill="none" stroke="#63b8ff" d="M312.58,-109.98C348.35,-100.91 405.12,-86.52 444.34,-76.57"/>
<polygon fill="#63b8ff" stroke="#63b8ff" points="445.32,-79.93 454.16,-74.08 443.6,-73.15 445.32,-79.93"/>
</a>
</g>
</g>
<!-- Node18&#45;&gt;Node7 -->
<g id="edge8_Node000018_Node000007" class="edge">
<title>Node18&#45;&gt;Node7</title>
<g id="a_edge8_Node000018_Node000007"><a xlink:title=" ">
<path fill="none" stroke="#63b8ff" d="M488,-54.75C488,-47.8 488,-37.85 488,-29.13"/>
<polygon fill="#63b8ff" stroke="#63b8ff" points="491.5,-29.09 488,-19.09 484.5,-29.09 491.5,-29.09"/>
</a>
</g>
</g>
<!-- Node29&#45;&gt;Node7 -->
<g id="edge11_Node000029_Node000007" class="edge">
<title>Node29&#45;&gt;Node7</title>
<g id="a_edge11_Node000029_Node000007"><a xlink:title=" ">
<path fill="none" stroke="#63b8ff" d="M94.01,-109.75C105.9,-95.57 131.54,-67.89 160,-55 210.49,-32.12 371.17,-18.45 447.27,-13.11"/>
<polygon fill="#63b8ff" stroke="#63b8ff" points="447.7,-16.59 457.43,-12.41 447.21,-9.6 447.7,-16.59"/>
</a>
</g>
</g>
<!-- Node28&#45;&gt;Node6 -->
<g id="edge14_Node000028_Node000006" class="edge">
<title>Node28&#45;&gt;Node6</title>
<g id="a_edge14_Node000028_Node000006"><a xlink:title=" ">
<path fill="none" stroke="#63b8ff" d="M352.86,-164.98C339.21,-156.77 318.31,-144.18 302.22,-134.49"/>
<polygon fill="#63b8ff" stroke="#63b8ff" points="303.77,-131.33 293.4,-129.17 300.16,-137.33 303.77,-131.33"/>
</a>
</g>
</g>
<!-- Node28&#45;&gt;Node7 -->
<g id="edge13_Node000028_Node000007" class="edge">
<title>Node28&#45;&gt;Node7</title>
<g id="a_edge13_Node000028_Node000007"><a xlink:title=" ">
<path fill="none" stroke="#63b8ff" d="M301.37,-165.14C257.9,-158.1 206.48,-146.36 193,-129 187.82,-122.33 188.07,-116.86 193,-110 251.65,-28.32 380.86,-12.81 447.1,-10.43"/>
<polygon fill="#63b8ff" stroke="#63b8ff" points="447.26,-13.93 457.16,-10.15 447.07,-6.93 447.26,-13.93"/>
</a>
</g>
</g>
<!-- Node28&#45;&gt;Node29 -->
<g id="edge15_Node000028_Node000029" class="edge">
<title>Node28&#45;&gt;Node29</title>
<g id="a_edge15_Node000028_Node000029"><a xlink:title=" ">
<path fill="none" stroke="#63b8ff" d="M322.01,-164.98C273.07,-155.72 194.8,-140.9 142.18,-130.94"/>
<polygon fill="#63b8ff" stroke="#63b8ff" points="142.82,-127.5 132.34,-129.08 141.51,-134.38 142.82,-127.5"/>
</a>
</g>
</g>
<!-- Node30 -->
<g id="Node000030" class="node">
<title>Node30</title>
<g id="a_Node000030"><a xlink:title=" ">
<polygon fill="#e0e0e0" stroke="#999999" points="467.5,-129 374.5,-129 374.5,-110 467.5,-110 467.5,-129"/>
<text text-anchor="middle" x="421" y="-117" font-family="Helvetica,sans-Serif" font-size="10.00">unordered_map</text>
</a>
</g>
</g>
<!-- Node28&#45;&gt;Node30 -->
<g id="edge16_Node000028_Node000030" class="edge">
<title>Node28&#45;&gt;Node30</title>
<g id="a_edge16_Node000028_Node000030"><a xlink:title=" ">
<path fill="none" stroke="#63b8ff" d="M375.92,-164.75C383.78,-157.03 395.43,-145.6 404.92,-136.28"/>
<polygon fill="#63b8ff" stroke="#63b8ff" points="407.56,-138.59 412.25,-129.09 402.66,-133.6 407.56,-138.59"/>
</a>
</g>
</g>
<!-- Node34&#45;&gt;Node7 -->
<g id="edge18_Node000034_Node000007" class="edge">
<title>Node34&#45;&gt;Node7</title>
<g id="a_edge18_Node000034_Node000007"><a xlink:title=" ">
<path fill="none" stroke="#63b8ff" d="M80.93,-274.76C52.85,-259.03 0,-223.1 0,-175.5 0,-175.5 0,-175.5 0,-118.5 0,-27.11 330.39,-13 447.47,-10.86"/>
<polygon fill="#63b8ff" stroke="#63b8ff" points="447.53,-14.36 457.47,-10.7 447.42,-7.36 447.53,-14.36"/>
</a>
</g>
</g>
<!-- Node35 -->
<g id="Node000035" class="node">
<title>Node35</title>
<g id="a_Node000035"><a xlink:title=" ">
<polygon fill="#e0e0e0" stroke="#999999" points="128,-239 68,-239 68,-220 128,-220 128,-239"/>
<text text-anchor="middle" x="98" y="-227" font-family="Helvetica,sans-Serif" font-size="10.00">iostream</text>
</a>
</g>
</g>
<!-- Node34&#45;&gt;Node35 -->
<g id="edge19_Node000034_Node000035" class="edge">
<title>Node34&#45;&gt;Node35</title>
<g id="a_edge19_Node000034_Node000035"><a xlink:title=" ">
<path fill="none" stroke="#63b8ff" d="M98,-274.75C98,-267.8 98,-257.85 98,-249.13"/>
<polygon fill="#63b8ff" stroke="#63b8ff" points="101.5,-249.09 98,-239.09 94.5,-249.09 101.5,-249.09"/>
</a>
</g>
</g>
<!-- Node36&#45;&gt;Node4 -->
<g id="edge21_Node000036_Node000004" class="edge">
<title>Node36&#45;&gt;Node4</title>
<g id="a_edge21_Node000036_Node000004"><a xlink:title=" ">
<path fill="none" stroke="#63b8ff" d="M482.62,-274.98C435.62,-265.76 360.57,-251.03 309.84,-241.07"/>
<polygon fill="#63b8ff" stroke="#63b8ff" points="310.21,-237.57 299.72,-239.08 308.86,-244.44 310.21,-237.57"/>
</a>
</g>
</g>
<!-- Node37 -->
<g id="Node000037" class="node">
<title>Node37</title>
<g id="a_Node000037"><a xlink:href="../../d6/dd5/FactoryBase_8h.html" target="_top" xlink:title="File contains the FactoryBase class declarations.">
<polygon fill="white" stroke="#666666" points="601.5,-184 450.5,-184 450.5,-165 601.5,-165 601.5,-184"/>
<text text-anchor="middle" x="526" y="-172" font-family="Helvetica,sans-Serif" font-size="10.00">cantera/base/FactoryBase.h</text>
</a>
</g>
</g>
<!-- Node36&#45;&gt;Node37 -->
<g id="edge22_Node000036_Node000037" class="edge">
<title>Node36&#45;&gt;Node37</title>
<g id="a_edge22_Node000036_Node000037"><a xlink:title=" ">
<path fill="none" stroke="#63b8ff" d="M526,-274.66C526,-257.17 526,-217.8 526,-194.27"/>
<polygon fill="#63b8ff" stroke="#63b8ff" points="529.5,-194.16 526,-184.16 522.5,-194.16 529.5,-194.16"/>
</a>
</g>
</g>
<!-- Node37&#45;&gt;Node6 -->
<g id="edge25_Node000037_Node000006" class="edge">
<title>Node37&#45;&gt;Node6</title>
<g id="a_edge25_Node000037_Node000006"><a xlink:title=" ">
<path fill="none" stroke="#63b8ff" d="M486.32,-164.98C443.5,-155.8 375.24,-141.15 328.84,-131.19"/>
<polygon fill="#63b8ff" stroke="#63b8ff" points="329.51,-127.76 319,-129.08 328.04,-134.6 329.51,-127.76"/>
</a>
</g>
</g>
<!-- Node37&#45;&gt;Node30 -->
<g id="edge24_Node000037_Node000030" class="edge">
<title>Node37&#45;&gt;Node30</title>
<g id="a_edge24_Node000037_Node000030"><a xlink:title=" ">
<path fill="none" stroke="#63b8ff" d="M509.13,-164.98C492.39,-156.54 466.5,-143.47 447.11,-133.68"/>
<polygon fill="#63b8ff" stroke="#63b8ff" points="448.68,-130.55 438.18,-129.17 445.53,-136.8 448.68,-130.55"/>
</a>
</g>
</g>
<!-- Node38 -->
<g id="Node000038" class="node">
<title>Node38</title>
<g id="a_Node000038"><a xlink:title=" ">
<polygon fill="#e0e0e0" stroke="#999999" points="534,-129 486,-129 486,-110 534,-110 534,-129"/>
<text text-anchor="middle" x="510" y="-117" font-family="Helvetica,sans-Serif" font-size="10.00">mutex</text>
</a>
</g>
</g>
<!-- Node37&#45;&gt;Node38 -->
<g id="edge23_Node000037_Node000038" class="edge">
<title>Node37&#45;&gt;Node38</title>
<g id="a_edge23_Node000037_Node000038"><a xlink:title=" ">
<path fill="none" stroke="#63b8ff" d="M523.36,-164.75C521.24,-157.72 518.19,-147.62 515.54,-138.84"/>
<polygon fill="#63b8ff" stroke="#63b8ff" points="518.83,-137.65 512.59,-129.09 512.13,-139.67 518.83,-137.65"/>
</a>
</g>
</g>
<!-- Node39 -->
<g id="Node000039" class="node">
<title>Node39</title>
<g id="a_Node000039"><a xlink:href="../../d2/d49/global_8h.html" target="_top" xlink:title="This file contains definitions for utility functions and text for modules, inputfiles and logging,...">
<polygon fill="white" stroke="#666666" points="674,-129 552,-129 552,-110 674,-110 674,-129"/>
<text text-anchor="middle" x="613" y="-117" font-family="Helvetica,sans-Serif" font-size="10.00">cantera/base/global.h</text>
</a>
</g>
</g>
<!-- Node37&#45;&gt;Node39 -->
<g id="edge26_Node000037_Node000039" class="edge">
<title>Node37&#45;&gt;Node39</title>
<g id="a_edge26_Node000037_Node000039"><a xlink:title=" ">
<path fill="none" stroke="#63b8ff" d="M539.98,-164.98C553.47,-156.77 574.13,-144.18 590.04,-134.49"/>
<polygon fill="#63b8ff" stroke="#63b8ff" points="592.05,-137.36 598.77,-129.17 588.41,-131.38 592.05,-137.36"/>
</a>
</g>
</g>
<!-- Node39&#45;&gt;Node7 -->
<g id="edge27_Node000039_Node000007" class="edge">
<title>Node39&#45;&gt;Node7</title>
<g id="a_edge27_Node000039_Node000007"><a xlink:title=" ">
<path fill="none" stroke="#63b8ff" d="M605.43,-109.79C594.18,-97.08 572.1,-73 551,-55 538.05,-43.95 522.42,-32.9 509.97,-24.58"/>
<polygon fill="#63b8ff" stroke="#63b8ff" points="511.83,-21.61 501.55,-19.03 507.98,-27.46 511.83,-21.61"/>
</a>
</g>
</g>
<!-- Node39&#45;&gt;Node18 -->
<g id="edge28_Node000039_Node000018" class="edge">
<title>Node39&#45;&gt;Node18</title>
<g id="a_edge28_Node000039_Node000018"><a xlink:title=" ">
<path fill="none" stroke="#63b8ff" d="M592.92,-109.98C572.63,-101.38 541.04,-87.99 517.83,-78.15"/>
<polygon fill="#63b8ff" stroke="#63b8ff" points="519.02,-74.85 508.45,-74.17 516.29,-81.3 519.02,-74.85"/>
</a>
</g>
</g>
<!-- Node40&#45;&gt;Node7 -->
<g id="edge30_Node000040_Node000007" class="edge">
<title>Node40&#45;&gt;Node7</title>
<g id="a_edge30_Node000040_Node000007"><a xlink:title=" ">
<path fill="none" stroke="#63b8ff" d="M648.89,-219.93C666.56,-199.64 706.03,-147.6 683,-110 649.44,-55.19 575.14,-29.38 528.56,-18.17"/>
<polygon fill="#63b8ff" stroke="#63b8ff" points="529.31,-14.75 518.78,-15.93 527.75,-21.57 529.31,-14.75"/>
</a>
</g>
</g>
<!-- Node40&#45;&gt;Node28 -->
<g id="edge31_Node000040_Node000028" class="edge">
<title>Node40&#45;&gt;Node28</title>
<g id="a_edge31_Node000040_Node000028"><a xlink:title=" ">
<path fill="none" stroke="#63b8ff" d="M596.98,-219.98C549.18,-210.74 472.8,-195.97 421.32,-186.01"/>
<polygon fill="#63b8ff" stroke="#63b8ff" points="421.85,-182.54 411.37,-184.08 420.52,-189.42 421.85,-182.54"/>
</a>
</g>
</g>
<!-- Node41&#45;&gt;Node7 -->
<g id="edge33_Node000041_Node000007" class="edge">
<title>Node41&#45;&gt;Node7</title>
<g id="a_edge33_Node000041_Node000007"><a xlink:title=" ">
<path fill="none" stroke="#63b8ff" d="M725.53,-54.98C671.04,-44.78 580.58,-27.84 528.43,-18.07"/>
<polygon fill="#63b8ff" stroke="#63b8ff" points="529,-14.62 518.53,-16.22 527.71,-21.5 529,-14.62"/>
</a>
</g>
</g>
<!-- Node42&#45;&gt;Node7 -->
<g id="edge35_Node000042_Node000007" class="edge">
<title>Node42&#45;&gt;Node7</title>
<g id="a_edge35_Node000042_Node000007"><a xlink:title=" ">
<path fill="none" stroke="#63b8ff" d="M837.28,-329.9C847.73,-312.07 870,-269.46 870,-230.5 870,-230.5 870,-230.5 870,-118.5 870,-89.04 873.51,-74 851,-55 803.13,-14.6 613.41,-10.04 528.94,-10.07"/>
<polygon fill="#63b8ff" stroke="#63b8ff" points="528.69,-6.57 518.7,-10.1 528.71,-13.57 528.69,-6.57"/>
</a>
</g>
</g>
<!-- Node43 -->
<g id="Node000043" class="node">
<title>Node43</title>
<g id="a_Node000043"><a xlink:title=" ">
<polygon fill="#e0e0e0" stroke="#999999" points="842,-294 786,-294 786,-275 842,-275 842,-294"/>
<text text-anchor="middle" x="814" y="-282" font-family="Helvetica,sans-Serif" font-size="10.00">numeric</text>
</a>
</g>
</g>
<!-- Node42&#45;&gt;Node43 -->
<g id="edge36_Node000042_Node000043" class="edge">
<title>Node42&#45;&gt;Node43</title>
<g id="a_edge36_Node000042_Node000043"><a xlink:title=" ">
<path fill="none" stroke="#63b8ff" d="M829.03,-329.75C826.64,-322.72 823.21,-312.62 820.23,-303.84"/>
<polygon fill="#63b8ff" stroke="#63b8ff" points="823.45,-302.43 816.92,-294.09 816.82,-304.68 823.45,-302.43"/>
</a>
</g>
</g>
</g>
</svg>
