<?xml version="1.0" encoding="UTF-8" standalone="no"?>
<!DOCTYPE svg PUBLIC "-//W3C//DTD SVG 1.1//EN"
 "http://www.w3.org/Graphics/SVG/1.1/DTD/svg11.dtd">
<!-- Generated by graphviz version 6.0.1 (0)
 -->
<!-- Title: MargulesVPSSTP.cpp Pages: 1 -->
<svg width="743pt" height="302pt"
 viewBox="0.00 0.00 743.42 302.00" xmlns="http://www.w3.org/2000/svg" xmlns:xlink="http://www.w3.org/1999/xlink">
<g id="graph0" class="graph" transform="scale(1 1) rotate(0) translate(4 298)">
<title>MargulesVPSSTP.cpp</title>
<!-- Node1 -->
<g id="Node000001" class="node">
<title>Node1</title>
<g id="a_Node000001"><a xlink:title="Definitions for ThermoPhase object for phases which employ excess Gibbs free energy formulations rela...">
<polygon fill="#999999" stroke="#666666" points="442.5,-294 329.5,-294 329.5,-275 442.5,-275 442.5,-294"/>
<text text-anchor="middle" x="386" y="-282" font-family="Helvetica,sans-Serif" font-size="10.00">MargulesVPSSTP.cpp</text>
</a>
</g>
</g>
<!-- Node2 -->
<g id="Node000002" class="node">
<title>Node2</title>
<g id="a_Node000002"><a xlink:href="../../d9/db4/MargulesVPSSTP_8h.html" target="_top" xlink:title="(see Thermodynamic Properties and class MargulesVPSSTP).">
<polygon fill="white" stroke="#666666" points="279.5,-239 108.5,-239 108.5,-220 279.5,-220 279.5,-239"/>
<text text-anchor="middle" x="194" y="-227" font-family="Helvetica,sans-Serif" font-size="10.00">cantera/thermo/MargulesVPSSTP.h</text>
</a>
</g>
</g>
<!-- Node1&#45;&gt;Node2 -->
<g id="edge1_Node000001_Node000002" class="edge">
<title>Node1&#45;&gt;Node2</title>
<g id="a_edge1_Node000001_Node000002"><a xlink:title=" ">
<path fill="none" stroke="#63b8ff" d="M355.15,-274.98C322.5,-265.97 270.8,-251.7 234.8,-241.76"/>
<polygon fill="#63b8ff" stroke="#63b8ff" points="235.66,-238.37 225.09,-239.08 233.8,-245.12 235.66,-238.37"/>
</a>
</g>
</g>
<!-- Node37 -->
<g id="Node000037" class="node">
<title>Node37</title>
<g id="a_Node000037"><a xlink:href="../../dc/d8e/ThermoFactory_8h.html" target="_top" xlink:title="Headers for the factory class that can create known ThermoPhase objects (see Thermodynamic Properties...">
<polygon fill="white" stroke="#666666" points="465,-239 307,-239 307,-220 465,-220 465,-239"/>
<text text-anchor="middle" x="386" y="-227" font-family="Helvetica,sans-Serif" font-size="10.00">cantera/thermo/ThermoFactory.h</text>
</a>
</g>
</g>
<!-- Node1&#45;&gt;Node37 -->
<g id="edge8_Node000001_Node000037" class="edge">
<title>Node1&#45;&gt;Node37</title>
<g id="a_edge8_Node000001_Node000037"><a xlink:title=" ">
<path fill="none" stroke="#63b8ff" d="M386,-274.75C386,-267.8 386,-257.85 386,-249.13"/>
<polygon fill="#63b8ff" stroke="#63b8ff" points="389.5,-249.09 386,-239.09 382.5,-249.09 389.5,-249.09"/>
</a>
</g>
</g>
<!-- Node41 -->
<g id="Node000041" class="node">
<title>Node41</title>
<g id="a_Node000041"><a xlink:href="../../dd/dc3/stringUtils_8h.html" target="_top" xlink:title="Contains declarations for string manipulation functions within Cantera.">
<polygon fill="white" stroke="#666666" points="714,-184 586,-184 586,-165 714,-165 714,-184"/>
<text text-anchor="middle" x="650" y="-172" font-family="Helvetica,sans-Serif" font-size="10.00">cantera/base/stringUtils.h</text>
</a>
</g>
</g>
<!-- Node1&#45;&gt;Node41 -->
<g id="edge20_Node000001_Node000041" class="edge">
<title>Node1&#45;&gt;Node41</title>
<g id="a_edge20_Node000001_Node000041"><a xlink:title=" ">
<path fill="none" stroke="#63b8ff" d="M407.16,-274.84C453.81,-255.76 565.64,-210.01 619.71,-187.89"/>
<polygon fill="#63b8ff" stroke="#63b8ff" points="621.18,-191.07 629.11,-184.05 618.53,-184.59 621.18,-191.07"/>
</a>
</g>
</g>
<!-- Node3 -->
<g id="Node000003" class="node">
<title>Node3</title>
<g id="a_Node000003"><a xlink:href="../../d6/d88/GibbsExcessVPSSTP_8h.html" target="_top" xlink:title="Header for intermediate ThermoPhase object for phases which employ Gibbs excess free energy based for...">
<polygon fill="white" stroke="#666666" points="236,-184 114,-184 114,-165 236,-165 236,-184"/>
<text text-anchor="middle" x="175" y="-172" font-family="Helvetica,sans-Serif" font-size="10.00">GibbsExcessVPSSTP.h</text>
</a>
</g>
</g>
<!-- Node2&#45;&gt;Node3 -->
<g id="edge2_Node000002_Node000003" class="edge">
<title>Node2&#45;&gt;Node3</title>
<g id="a_edge2_Node000002_Node000003"><a xlink:title=" ">
<path fill="none" stroke="#63b8ff" d="M190.86,-219.75C188.32,-212.65 184.64,-202.4 181.47,-193.56"/>
<polygon fill="#63b8ff" stroke="#63b8ff" points="184.75,-192.32 178.08,-184.09 178.16,-194.68 184.75,-192.32"/>
</a>
</g>
</g>
<!-- Node4 -->
<g id="Node000004" class="node">
<title>Node4</title>
<g id="a_Node000004"><a xlink:href="../../df/dfd/VPStandardStateTP_8h.html" target="_top" xlink:title="Header file for a derived class of ThermoPhase that handles variable pressure standard state methods ...">
<polygon fill="white" stroke="#666666" points="236,-129 124,-129 124,-110 236,-110 236,-129"/>
<text text-anchor="middle" x="180" y="-117" font-family="Helvetica,sans-Serif" font-size="10.00">VPStandardStateTP.h</text>
</a>
</g>
</g>
<!-- Node3&#45;&gt;Node4 -->
<g id="edge3_Node000003_Node000004" class="edge">
<title>Node3&#45;&gt;Node4</title>
<g id="a_edge3_Node000003_Node000004"><a xlink:title=" ">
<path fill="none" stroke="#63b8ff" d="M175.83,-164.75C176.48,-157.8 177.42,-147.85 178.24,-139.13"/>
<polygon fill="#63b8ff" stroke="#63b8ff" points="181.73,-139.37 179.19,-129.09 174.77,-138.72 181.73,-139.37"/>
</a>
</g>
</g>
<!-- Node35 -->
<g id="Node000035" class="node">
<title>Node35</title>
<g id="a_Node000035"><a xlink:href="../../df/dd0/Array_8h.html" target="_top" xlink:title="Header file for class Cantera::Array2D.">
<polygon fill="white" stroke="#666666" points="106,-129 0,-129 0,-110 106,-110 106,-129"/>
<text text-anchor="middle" x="53" y="-117" font-family="Helvetica,sans-Serif" font-size="10.00">cantera/base/Array.h</text>
</a>
</g>
</g>
<!-- Node3&#45;&gt;Node35 -->
<g id="edge5_Node000003_Node000035" class="edge">
<title>Node3&#45;&gt;Node35</title>
<g id="a_edge5_Node000003_Node000035"><a xlink:title=" ">
<path fill="none" stroke="#63b8ff" d="M155.4,-164.98C135.68,-156.42 105.05,-143.11 82.42,-133.28"/>
<polygon fill="#63b8ff" stroke="#63b8ff" points="83.52,-129.94 72.96,-129.17 80.74,-136.37 83.52,-129.94"/>
</a>
</g>
</g>
<!-- Node5 -->
<g id="Node000005" class="node">
<title>Node5</title>
<g id="a_Node000005"><a xlink:href="../../d7/d01/ThermoPhase_8h.html" target="_top" xlink:title="Header file for class ThermoPhase, the base class for phases with thermodynamic properties,...">
<polygon fill="#fff0f0" stroke="red" points="273,-74 187,-74 187,-55 273,-55 273,-74"/>
<text text-anchor="middle" x="230" y="-62" font-family="Helvetica,sans-Serif" font-size="10.00">ThermoPhase.h</text>
</a>
</g>
</g>
<!-- Node4&#45;&gt;Node5 -->
<g id="edge4_Node000004_Node000005" class="edge">
<title>Node4&#45;&gt;Node5</title>
<g id="a_edge4_Node000004_Node000005"><a xlink:title=" ">
<path fill="none" stroke="#63b8ff" d="M188.26,-109.75C195.46,-102.11 206.11,-90.82 214.85,-81.56"/>
<polygon fill="#63b8ff" stroke="#63b8ff" points="217.58,-83.76 221.9,-74.09 212.49,-78.96 217.58,-83.76"/>
</a>
</g>
</g>
<!-- Node8 -->
<g id="Node000008" class="node">
<title>Node8</title>
<g id="a_Node000008"><a xlink:href="../../d9/ddc/ct__defs_8h.html" target="_top" xlink:title="This file contains definitions of constants, types and terms that are used in internal routines and a...">
<polygon fill="#fff0f0" stroke="red" points="625.5,-19 568.5,-19 568.5,0 625.5,0 625.5,-19"/>
<text text-anchor="middle" x="597" y="-7" font-family="Helvetica,sans-Serif" font-size="10.00">ct_defs.h</text>
</a>
</g>
</g>
<!-- Node35&#45;&gt;Node8 -->
<g id="edge6_Node000035_Node000008" class="edge">
<title>Node35&#45;&gt;Node8</title>
<g id="a_edge6_Node000035_Node000008"><a xlink:title=" ">
<path fill="none" stroke="#63b8ff" d="M52.76,-109.88C52.89,-95.9 55.39,-68.5 72,-55 109.52,-24.52 443.08,-14.03 558.16,-11.31"/>
<polygon fill="#63b8ff" stroke="#63b8ff" points="558.37,-14.8 568.29,-11.07 558.21,-7.8 558.37,-14.8"/>
</a>
</g>
</g>
<!-- Node36 -->
<g id="Node000036" class="node">
<title>Node36</title>
<g id="a_Node000036"><a xlink:title=" ">
<polygon fill="#e0e0e0" stroke="#999999" points="135,-74 81,-74 81,-55 135,-55 135,-74"/>
<text text-anchor="middle" x="108" y="-62" font-family="Helvetica,sans-Serif" font-size="10.00">iostream</text>
</a>
</g>
</g>
<!-- Node35&#45;&gt;Node36 -->
<g id="edge7_Node000035_Node000036" class="edge">
<title>Node35&#45;&gt;Node36</title>
<g id="a_edge7_Node000035_Node000036"><a xlink:title=" ">
<path fill="none" stroke="#63b8ff" d="M62.08,-109.75C70.09,-102.03 81.96,-90.6 91.62,-81.28"/>
<polygon fill="#63b8ff" stroke="#63b8ff" points="94.31,-83.55 99.09,-74.09 89.46,-78.51 94.31,-83.55"/>
</a>
</g>
</g>
<!-- Node37&#45;&gt;Node5 -->
<g id="edge9_Node000037_Node000005" class="edge">
<title>Node37&#45;&gt;Node5</title>
<g id="a_edge9_Node000037_Node000005"><a xlink:title=" ">
<path fill="none" stroke="#63b8ff" d="M369.19,-219.95C354.43,-211.92 332.88,-198.95 317,-184 283.84,-152.79 254.64,-107.52 239.99,-82.95"/>
<polygon fill="#63b8ff" stroke="#63b8ff" points="242.86,-80.93 234.79,-74.07 236.82,-84.47 242.86,-80.93"/>
</a>
</g>
</g>
<!-- Node38 -->
<g id="Node000038" class="node">
<title>Node38</title>
<g id="a_Node000038"><a xlink:href="../../d6/dd5/FactoryBase_8h.html" target="_top" xlink:title="File contains the FactoryBase class declarations.">
<polygon fill="white" stroke="#666666" points="466,-184 326,-184 326,-165 466,-165 466,-184"/>
<text text-anchor="middle" x="396" y="-172" font-family="Helvetica,sans-Serif" font-size="10.00">cantera/base/FactoryBase.h</text>
</a>
</g>
</g>
<!-- Node37&#45;&gt;Node38 -->
<g id="edge10_Node000037_Node000038" class="edge">
<title>Node37&#45;&gt;Node38</title>
<g id="a_edge10_Node000037_Node000038"><a xlink:title=" ">
<path fill="none" stroke="#63b8ff" d="M387.65,-219.75C388.96,-212.8 390.84,-202.85 392.48,-194.13"/>
<polygon fill="#63b8ff" stroke="#63b8ff" points="395.96,-194.56 394.38,-184.09 389.09,-193.27 395.96,-194.56"/>
</a>
</g>
</g>
<!-- Node39 -->
<g id="Node000039" class="node">
<title>Node39</title>
<g id="a_Node000039"><a xlink:title=" ">
<polygon fill="#e0e0e0" stroke="#999999" points="336,-129 292,-129 292,-110 336,-110 336,-129"/>
<text text-anchor="middle" x="314" y="-117" font-family="Helvetica,sans-Serif" font-size="10.00">mutex</text>
</a>
</g>
</g>
<!-- Node38&#45;&gt;Node39 -->
<g id="edge11_Node000038_Node000039" class="edge">
<title>Node38&#45;&gt;Node39</title>
<g id="a_edge11_Node000038_Node000039"><a xlink:title=" ">
<path fill="none" stroke="#63b8ff" d="M382.83,-164.98C370.23,-156.84 351,-144.41 336.06,-134.76"/>
<polygon fill="#63b8ff" stroke="#63b8ff" points="337.71,-131.66 327.41,-129.17 333.91,-137.54 337.71,-131.66"/>
</a>
</g>
</g>
<!-- Node31 -->
<g id="Node000031" class="node">
<title>Node31</title>
<g id="a_Node000031"><a xlink:title=" ">
<polygon fill="#e0e0e0" stroke="#999999" points="437.5,-129 354.5,-129 354.5,-110 437.5,-110 437.5,-129"/>
<text text-anchor="middle" x="396" y="-117" font-family="Helvetica,sans-Serif" font-size="10.00">unordered_map</text>
</a>
</g>
</g>
<!-- Node38&#45;&gt;Node31 -->
<g id="edge12_Node000038_Node000031" class="edge">
<title>Node38&#45;&gt;Node31</title>
<g id="a_edge12_Node000038_Node000031"><a xlink:title=" ">
<path fill="none" stroke="#63b8ff" d="M396,-164.75C396,-157.8 396,-147.85 396,-139.13"/>
<polygon fill="#63b8ff" stroke="#63b8ff" points="399.5,-139.09 396,-129.09 392.5,-139.09 399.5,-139.09"/>
</a>
</g>
</g>
<!-- Node7 -->
<g id="Node000007" class="node">
<title>Node7</title>
<g id="a_Node000007"><a xlink:href="../../db/d98/ctexceptions_8h.html" target="_top" xlink:title="Definitions for the classes that are thrown when Cantera experiences an error condition (also contain...">
<polygon fill="#fff0f0" stroke="red" points="596,-129 456,-129 456,-110 596,-110 596,-129"/>
<text text-anchor="middle" x="526" y="-117" font-family="Helvetica,sans-Serif" font-size="10.00">cantera/base/ctexceptions.h</text>
</a>
</g>
</g>
<!-- Node38&#45;&gt;Node7 -->
<g id="edge13_Node000038_Node000007" class="edge">
<title>Node38&#45;&gt;Node7</title>
<g id="a_edge13_Node000038_Node000007"><a xlink:title=" ">
<path fill="none" stroke="#63b8ff" d="M416.89,-164.98C438.08,-156.34 471.13,-142.87 495.3,-133.02"/>
<polygon fill="#63b8ff" stroke="#63b8ff" points="496.79,-136.19 504.73,-129.17 494.15,-129.7 496.79,-136.19"/>
</a>
</g>
</g>
<!-- Node40 -->
<g id="Node000040" class="node">
<title>Node40</title>
<g id="a_Node000040"><a xlink:href="../../d2/d49/global_8h.html" target="_top" xlink:title="This file contains definitions for utility functions and text for modules, inputfiles and logging,...">
<polygon fill="white" stroke="#666666" points="724,-129 614,-129 614,-110 724,-110 724,-129"/>
<text text-anchor="middle" x="669" y="-117" font-family="Helvetica,sans-Serif" font-size="10.00">cantera/base/global.h</text>
</a>
</g>
</g>
<!-- Node38&#45;&gt;Node40 -->
<g id="edge17_Node000038_Node000040" class="edge">
<title>Node38&#45;&gt;Node40</title>
<g id="a_edge17_Node000038_Node000040"><a xlink:title=" ">
<path fill="none" stroke="#63b8ff" d="M439.86,-164.98C487.48,-155.74 563.58,-140.97 614.88,-131.01"/>
<polygon fill="#63b8ff" stroke="#63b8ff" points="615.64,-134.42 624.79,-129.08 614.31,-127.55 615.64,-134.42"/>
</a>
</g>
</g>
<!-- Node7&#45;&gt;Node8 -->
<g id="edge14_Node000007_Node000008" class="edge">
<title>Node7&#45;&gt;Node8</title>
<g id="a_edge14_Node000007_Node000008"><a xlink:title=" ">
<path fill="none" stroke="#63b8ff" d="M525.92,-109.57C526.19,-96.59 528.26,-72.17 539,-55 546.94,-42.31 559.87,-31.87 571.52,-24.3"/>
<polygon fill="#63b8ff" stroke="#63b8ff" points="573.35,-27.28 580.06,-19.08 569.7,-21.3 573.35,-27.28"/>
</a>
</g>
</g>
<!-- Node19 -->
<g id="Node000019" class="node">
<title>Node19</title>
<g id="a_Node000019"><a xlink:href="../../db/def/fmt_8h.html" target="_top" xlink:title="Wrapper for either system&#45;installed or local headers for fmt.">
<polygon fill="#fff0f0" stroke="red" points="646,-74 548,-74 548,-55 646,-55 646,-74"/>
<text text-anchor="middle" x="597" y="-62" font-family="Helvetica,sans-Serif" font-size="10.00">cantera/base/fmt.h</text>
</a>
</g>
</g>
<!-- Node7&#45;&gt;Node19 -->
<g id="edge15_Node000007_Node000019" class="edge">
<title>Node7&#45;&gt;Node19</title>
<g id="a_edge15_Node000007_Node000019"><a xlink:title=" ">
<path fill="none" stroke="#63b8ff" d="M537.41,-109.98C548.11,-102 564.34,-89.88 577.16,-80.31"/>
<polygon fill="#63b8ff" stroke="#63b8ff" points="579.47,-82.96 585.39,-74.17 575.28,-77.35 579.47,-82.96"/>
</a>
</g>
</g>
<!-- Node19&#45;&gt;Node8 -->
<g id="edge16_Node000019_Node000008" class="edge">
<title>Node19&#45;&gt;Node8</title>
<g id="a_edge16_Node000019_Node000008"><a xlink:title=" ">
<path fill="none" stroke="#63b8ff" d="M597,-54.75C597,-47.8 597,-37.85 597,-29.13"/>
<polygon fill="#63b8ff" stroke="#63b8ff" points="600.5,-29.09 597,-19.09 593.5,-29.09 600.5,-29.09"/>
</a>
</g>
</g>
<!-- Node40&#45;&gt;Node8 -->
<g id="edge18_Node000040_Node000008" class="edge">
<title>Node40&#45;&gt;Node8</title>
<g id="a_edge18_Node000040_Node000008"><a xlink:title=" ">
<path fill="none" stroke="#63b8ff" d="M668.93,-110C668.45,-97.12 666.03,-72.33 655,-55 646.96,-42.37 634.02,-31.93 622.4,-24.35"/>
<polygon fill="#63b8ff" stroke="#63b8ff" points="624.23,-21.36 613.87,-19.12 620.57,-27.33 624.23,-21.36"/>
</a>
</g>
</g>
<!-- Node40&#45;&gt;Node19 -->
<g id="edge19_Node000040_Node000019" class="edge">
<title>Node40&#45;&gt;Node19</title>
<g id="a_edge19_Node000040_Node000019"><a xlink:title=" ">
<path fill="none" stroke="#63b8ff" d="M657.43,-109.98C646.58,-102 630.12,-89.88 617.12,-80.31"/>
<polygon fill="#63b8ff" stroke="#63b8ff" points="618.91,-77.28 608.78,-74.17 614.76,-82.92 618.91,-77.28"/>
</a>
</g>
</g>
<!-- Node41&#45;&gt;Node8 -->
<g id="edge21_Node000041_Node000008" class="edge">
<title>Node41&#45;&gt;Node8</title>
<g id="a_edge21_Node000041_Node000008"><a xlink:title=" ">
<path fill="none" stroke="#63b8ff" d="M680.19,-164.97C708.54,-155.15 744.95,-136.85 733,-110 713.63,-66.45 663.83,-38.03 630.18,-23.13"/>
<polygon fill="#63b8ff" stroke="#63b8ff" points="631.31,-19.8 620.73,-19.1 628.56,-26.24 631.31,-19.8"/>
</a>
</g>
</g>
</g>
</svg>
