<?xml version="1.0" encoding="UTF-8" standalone="no"?>
<!DOCTYPE svg PUBLIC "-//W3C//DTD SVG 1.1//EN"
 "http://www.w3.org/Graphics/SVG/1.1/DTD/svg11.dtd">
<!-- Generated by graphviz version 6.0.1 (0)
 -->
<!-- Title: IdasIntegrator.cpp Pages: 1 -->
<!--zoomable 335 -->
<svg id="main" version="1.1" xmlns="http://www.w3.org/2000/svg" xmlns:xlink="http://www.w3.org/1999/xlink" xml:space="preserve" onload="init(evt)">
<style type="text/css"><![CDATA[
.edge:hover path { stroke: red; }
.edge:hover polygon { stroke: red; fill: red; }
]]></style>
<script type="text/javascript"><![CDATA[
var edges = document.getElementsByTagName('g');
if (edges && edges.length) {
  for (var i=0;i<edges.length;i++) {
    if (edges[i].id.substr(0,4)=='edge') {
      edges[i].setAttribute('class','edge');
    }
  }
}
]]></script>
        <defs>
                <circle id="rim" cx="0" cy="0" r="7"/>
                <circle id="rim2" cx="0" cy="0" r="3.5"/>
                <g id="zoomPlus">
                        <use xlink:href="#rim" fill="#404040">
                                <set attributeName="fill" to="#808080" begin="zoomplus.mouseover" end="zoomplus.mouseout"/>
                        </use>
                        <path d="M-4,0h8M0,-4v8" fill="none" stroke="white" stroke-width="1.5" pointer-events="none"/>
                </g>
                <g id="zoomMin">
                        <use xlink:href="#rim" fill="#404040">
                                <set attributeName="fill" to="#808080" begin="zoomminus.mouseover" end="zoomminus.mouseout"/>
                        </use>
                        <path d="M-4,0h8" fill="none" stroke="white" stroke-width="1.5" pointer-events="none"/>
                </g>
                <g id="dirArrow">
                        <path fill="none" stroke="white" stroke-width="1.5" d="M0,-3.0v7 M-2.5,-0.5L0,-3.0L2.5,-0.5"/>
                </g>
               <g id="resetDef">
                       <use xlink:href="#rim2" fill="#404040">
                               <set attributeName="fill" to="#808080" begin="reset.mouseover" end="reset.mouseout"/>
                       </use>
               </g>
        </defs>

<script type="text/javascript">
var viewWidth = 2466;
var viewHeight = 335;
var sectionId = 'dynsection-0';
</script>
<script xlink:href="../../svgpan.js"/>
<svg id="graph" class="graph">
<g id="viewport">
<title>IdasIntegrator.cpp</title>
<!-- Node1 -->
<g id="node1" class="node">
<title>Node1</title>
<g id="a_node1"><a xlink:title=" ">
<polygon fill="#999999" stroke="#666666" points="641.2,-327 546.2,-327 546.2,-308 641.2,-308 641.2,-327"/>
<text text-anchor="middle" x="593.7" y="-315" font-family="Helvetica,sans-Serif" font-size="10.00">IdasIntegrator.cpp</text>
</a>
</g>
</g>
<!-- Node2 -->
<g id="node2" class="node">
<title>Node2</title>
<g id="a_node2"><a xlink:href="../../d0/dbd/IdasIntegrator_8h.html" target="_top" xlink:title="Header file for class IdasIntegrator.">
<polygon fill="white" stroke="#666666" points="674.7,-266.5 512.7,-266.5 512.7,-247.5 674.7,-247.5 674.7,-266.5"/>
<text text-anchor="middle" x="593.7" y="-254.5" font-family="Helvetica,sans-Serif" font-size="10.00">cantera/numerics/IdasIntegrator.h</text>
</a>
</g>
</g>
<!-- Node1&#45;&gt;Node2 -->
<g id="edge1" class="edge">
<title>Node1&#45;&gt;Node2</title>
<path fill="none" stroke="#63b8ff" d="M593.7,-307.87C593.7,-299.75 593.7,-287.31 593.7,-276.89"/>
<polygon fill="#63b8ff" stroke="#63b8ff" points="597.2,-276.67 593.7,-266.67 590.2,-276.67 597.2,-276.67"/>
</g>
<!-- Node31 -->
<g id="node17" class="node">
<title>Node31</title>
<g id="a_node17"><a xlink:href="../../dd/dc3/stringUtils_8h.html" target="_top" xlink:title="Contains declarations for string manipulation functions within Cantera.">
<polygon fill="white" stroke="#666666" points="238.7,-266.5 110.7,-266.5 110.7,-247.5 238.7,-247.5 238.7,-266.5"/>
<text text-anchor="middle" x="174.7" y="-254.5" font-family="Helvetica,sans-Serif" font-size="10.00">cantera/base/stringUtils.h</text>
</a>
</g>
</g>
<!-- Node1&#45;&gt;Node31 -->
<g id="edge26" class="edge">
<title>Node1&#45;&gt;Node31</title>
<path fill="none" stroke="#63b8ff" d="M546.04,-309.85C472.67,-299.6 331.57,-279.9 246,-267.95"/>
<polygon fill="#63b8ff" stroke="#63b8ff" points="246.23,-264.45 235.85,-266.54 245.27,-271.39 246.23,-264.45"/>
</g>
<!-- Node32 -->
<g id="node18" class="node">
<title>Node32</title>
<g id="a_node18"><a xlink:href="../../d4/de6/sundials__headers_8h_source.html" target="_top" xlink:title=" ">
<polygon fill="white" stroke="#666666" points="1624.2,-272 1493.2,-272 1493.2,-242 1624.2,-242 1624.2,-272"/>
<text text-anchor="start" x="1501.2" y="-260" font-family="Helvetica,sans-Serif" font-size="10.00">cantera/numerics/sundials</text>
<text text-anchor="middle" x="1558.7" y="-249" font-family="Helvetica,sans-Serif" font-size="10.00">_headers.h</text>
</a>
</g>
</g>
<!-- Node1&#45;&gt;Node32 -->
<g id="edge28" class="edge">
<title>Node1&#45;&gt;Node32</title>
<path fill="none" stroke="#63b8ff" d="M641.22,-313.62C796.84,-304.19 1292.02,-274.17 1482.77,-262.6"/>
<polygon fill="#63b8ff" stroke="#63b8ff" points="1483.22,-266.08 1492.99,-261.98 1482.79,-259.1 1483.22,-266.08"/>
</g>
<!-- Node3 -->
<g id="node3" class="node">
<title>Node3</title>
<g id="a_node3"><a xlink:href="../../d8/d97/Integrator_8h.html" target="_top" xlink:title=" ">
<polygon fill="white" stroke="#666666" points="715.2,-200.5 572.2,-200.5 572.2,-181.5 715.2,-181.5 715.2,-200.5"/>
<text text-anchor="middle" x="643.7" y="-188.5" font-family="Helvetica,sans-Serif" font-size="10.00">cantera/numerics/Integrator.h</text>
</a>
</g>
</g>
<!-- Node2&#45;&gt;Node3 -->
<g id="edge2" class="edge">
<title>Node2&#45;&gt;Node3</title>
<path fill="none" stroke="#63b8ff" d="M600.44,-247.37C608.08,-237.59 620.71,-221.42 630.36,-209.08"/>
<polygon fill="#63b8ff" stroke="#63b8ff" points="633.34,-210.94 636.74,-200.91 627.83,-206.63 633.34,-210.94"/>
</g>
<!-- Node16 -->
<g id="node6" class="node">
<title>Node16</title>
<g id="a_node6"><a xlink:href="../../db/d98/ctexceptions_8h.html" target="_top" xlink:title="Definitions for the classes that are thrown when Cantera experiences an error condition (also contain...">
<polygon fill="#fff0f0" stroke="red" points="721.7,-74 581.7,-74 581.7,-55 721.7,-55 721.7,-74"/>
<text text-anchor="middle" x="651.7" y="-62" font-family="Helvetica,sans-Serif" font-size="10.00">cantera/base/ctexceptions.h</text>
</a>
</g>
</g>
<!-- Node2&#45;&gt;Node16 -->
<g id="edge22" class="edge">
<title>Node2&#45;&gt;Node16</title>
<path fill="none" stroke="#63b8ff" d="M586.06,-247.16C578.44,-237.71 567.23,-221.91 562.7,-206 550.83,-164.33 554.01,-144.89 579.7,-110 589.85,-96.22 605.67,-85.76 619.9,-78.46"/>
<polygon fill="#63b8ff" stroke="#63b8ff" points="621.44,-81.6 628.94,-74.12 618.41,-75.29 621.44,-81.6"/>
</g>
<!-- Node29 -->
<g id="node15" class="node">
<title>Node29</title>
<g id="a_node15"><a xlink:title=" ">
<polygon fill="#e0e0e0" stroke="#999999" points="870.2,-200.5 733.2,-200.5 733.2,-181.5 870.2,-181.5 870.2,-200.5"/>
<text text-anchor="middle" x="801.7" y="-188.5" font-family="Helvetica,sans-Serif" font-size="10.00">sundials/sundials_nvector.h</text>
</a>
</g>
</g>
<!-- Node2&#45;&gt;Node29 -->
<g id="edge23" class="edge">
<title>Node2&#45;&gt;Node29</title>
<path fill="none" stroke="#63b8ff" d="M621.75,-247.37C658.53,-236.05 723.16,-216.16 764.14,-203.56"/>
<polygon fill="#63b8ff" stroke="#63b8ff" points="765.23,-206.88 773.76,-200.6 763.17,-200.19 765.23,-206.88"/>
</g>
<!-- Node30 -->
<g id="node16" class="node">
<title>Node30</title>
<g id="a_node16"><a xlink:href="../../d4/ddd/SundialsContext_8h.html" target="_top" xlink:title=" ">
<polygon fill="white" stroke="#666666" points="204.7,-140 72.7,-140 72.7,-110 204.7,-110 204.7,-140"/>
<text text-anchor="start" x="80.7" y="-128" font-family="Helvetica,sans-Serif" font-size="10.00">cantera/numerics/Sundials</text>
<text text-anchor="middle" x="138.7" y="-117" font-family="Helvetica,sans-Serif" font-size="10.00">Context.h</text>
</a>
</g>
</g>
<!-- Node2&#45;&gt;Node30 -->
<g id="edge24" class="edge">
<title>Node2&#45;&gt;Node30</title>
<path fill="none" stroke="#63b8ff" d="M563.85,-247.47C489.68,-226.28 295.98,-170.94 197.71,-142.86"/>
<polygon fill="#63b8ff" stroke="#63b8ff" points="198.51,-139.45 187.93,-140.07 196.59,-146.18 198.51,-139.45"/>
</g>
<!-- Node4 -->
<g id="node4" class="node">
<title>Node4</title>
<g id="a_node4"><a xlink:href="../../da/d37/FuncEval_8h.html" target="_top" xlink:title=" ">
<polygon fill="white" stroke="#666666" points="782.7,-134.5 716.7,-134.5 716.7,-115.5 782.7,-115.5 782.7,-134.5"/>
<text text-anchor="middle" x="749.7" y="-122.5" font-family="Helvetica,sans-Serif" font-size="10.00">FuncEval.h</text>
</a>
</g>
</g>
<!-- Node3&#45;&gt;Node4 -->
<g id="edge3" class="edge">
<title>Node3&#45;&gt;Node4</title>
<path fill="none" stroke="#63b8ff" d="M657.99,-181.37C675.62,-170.73 705.79,-152.51 726.69,-139.89"/>
<polygon fill="#63b8ff" stroke="#63b8ff" points="728.54,-142.86 735.29,-134.7 724.92,-136.87 728.54,-142.86"/>
</g>
<!-- Node21 -->
<g id="node7" class="node">
<title>Node21</title>
<g id="a_node7"><a xlink:href="../../d2/d49/global_8h.html" target="_top" xlink:title="This file contains definitions for utility functions and text for modules, inputfiles,...">
<polygon fill="#fff0f0" stroke="red" points="887.7,-74 777.7,-74 777.7,-55 887.7,-55 887.7,-74"/>
<text text-anchor="middle" x="832.7" y="-62" font-family="Helvetica,sans-Serif" font-size="10.00">cantera/base/global.h</text>
</a>
</g>
</g>
<!-- Node3&#45;&gt;Node21 -->
<g id="edge11" class="edge">
<title>Node3&#45;&gt;Node21</title>
<path fill="none" stroke="#63b8ff" d="M698.8,-181.46C728.94,-174.48 765.39,-162.02 791.7,-140 809.35,-125.23 820.7,-100.83 826.89,-84"/>
<polygon fill="#63b8ff" stroke="#63b8ff" points="830.31,-84.81 830.22,-74.21 823.68,-82.55 830.31,-84.81"/>
</g>
<!-- Node22 -->
<g id="node8" class="node">
<title>Node22</title>
<g id="a_node8"><a xlink:href="../../d7/ddf/PreconditionerBase_8h.html" target="_top" xlink:title="Declarations for the class PreconditionerBase which is a virtual base class for preconditioning syste...">
<polygon fill="white" stroke="#666666" points="698.7,-134.5 588.7,-134.5 588.7,-115.5 698.7,-115.5 698.7,-134.5"/>
<text text-anchor="middle" x="643.7" y="-122.5" font-family="Helvetica,sans-Serif" font-size="10.00">PreconditionerBase.h</text>
</a>
</g>
</g>
<!-- Node3&#45;&gt;Node22 -->
<g id="edge9" class="edge">
<title>Node3&#45;&gt;Node22</title>
<path fill="none" stroke="#63b8ff" d="M643.7,-181.37C643.7,-172.16 643.7,-157.29 643.7,-145.27"/>
<polygon fill="#63b8ff" stroke="#63b8ff" points="647.2,-144.91 643.7,-134.91 640.2,-144.91 647.2,-144.91"/>
</g>
<!-- Node23 -->
<g id="node9" class="node">
<title>Node23</title>
<g id="a_node9"><a xlink:href="../../dd/d2a/AnyMap_8h.html" target="_top" xlink:title=" ">
<polygon fill="white" stroke="#666666" points="417.7,-134.5 297.7,-134.5 297.7,-115.5 417.7,-115.5 417.7,-134.5"/>
<text text-anchor="middle" x="357.7" y="-122.5" font-family="Helvetica,sans-Serif" font-size="10.00">cantera/base/AnyMap.h</text>
</a>
</g>
</g>
<!-- Node3&#45;&gt;Node23 -->
<g id="edge12" class="edge">
<title>Node3&#45;&gt;Node23</title>
<path fill="none" stroke="#63b8ff" d="M605.42,-181.44C553.84,-169.89 462.01,-149.34 405.81,-136.77"/>
<polygon fill="#63b8ff" stroke="#63b8ff" points="406.27,-133.28 395.75,-134.51 404.74,-140.11 406.27,-133.28"/>
</g>
<!-- Node5 -->
<g id="node5" class="node">
<title>Node5</title>
<g id="a_node5"><a xlink:href="../../d9/ddc/ct__defs_8h.html" target="_top" xlink:title="This file contains definitions of constants, types and terms that are used in internal routines and a...">
<polygon fill="#fff0f0" stroke="red" points="611.7,-19 495.7,-19 495.7,0 611.7,0 611.7,-19"/>
<text text-anchor="middle" x="553.7" y="-7" font-family="Helvetica,sans-Serif" font-size="10.00">cantera/base/ct_defs.h</text>
</a>
</g>
</g>
<!-- Node4&#45;&gt;Node5 -->
<g id="edge4" class="edge">
<title>Node4&#45;&gt;Node5</title>
<path fill="none" stroke="#63b8ff" d="M749.92,-115.44C749.82,-100.89 747.4,-71.33 730.7,-55 715.04,-39.69 664.69,-27.94 621.67,-20.37"/>
<polygon fill="#63b8ff" stroke="#63b8ff" points="622.22,-16.91 611.77,-18.67 621.04,-23.81 622.22,-16.91"/>
</g>
<!-- Node4&#45;&gt;Node16 -->
<g id="edge5" class="edge">
<title>Node4&#45;&gt;Node16</title>
<path fill="none" stroke="#63b8ff" d="M735.24,-115.37C719.39,-105.91 693.73,-90.59 675.02,-79.42"/>
<polygon fill="#63b8ff" stroke="#63b8ff" points="676.6,-76.29 666.22,-74.17 673.01,-82.3 676.6,-76.29"/>
</g>
<!-- Node4&#45;&gt;Node21 -->
<g id="edge7" class="edge">
<title>Node4&#45;&gt;Node21</title>
<path fill="none" stroke="#63b8ff" d="M761.95,-115.37C775.06,-106.12 796.12,-91.28 811.85,-80.19"/>
<polygon fill="#63b8ff" stroke="#63b8ff" points="814.24,-82.79 820.4,-74.17 810.21,-77.07 814.24,-82.79"/>
</g>
<!-- Node16&#45;&gt;Node5 -->
<g id="edge6" class="edge">
<title>Node16&#45;&gt;Node5</title>
<path fill="none" stroke="#63b8ff" d="M635.95,-54.98C620.47,-46.61 596.61,-33.7 578.56,-23.95"/>
<polygon fill="#63b8ff" stroke="#63b8ff" points="580.19,-20.85 569.73,-19.17 576.86,-27.01 580.19,-20.85"/>
</g>
<!-- Node21&#45;&gt;Node5 -->
<g id="edge8" class="edge">
<title>Node21&#45;&gt;Node5</title>
<path fill="none" stroke="#63b8ff" d="M787.87,-54.98C739.21,-45.74 661.43,-30.97 609.01,-21.01"/>
<polygon fill="#63b8ff" stroke="#63b8ff" points="609.35,-17.51 598.88,-19.08 608.05,-24.39 609.35,-17.51"/>
</g>
<!-- Node22&#45;&gt;Node16 -->
<g id="edge10" class="edge">
<title>Node22&#45;&gt;Node16</title>
<path fill="none" stroke="#63b8ff" d="M644.88,-115.37C645.99,-107.25 647.69,-94.81 649.12,-84.39"/>
<polygon fill="#63b8ff" stroke="#63b8ff" points="652.63,-84.55 650.51,-74.17 645.69,-83.6 652.63,-84.55"/>
</g>
<!-- Node23&#45;&gt;Node5 -->
<g id="edge13" class="edge">
<title>Node23&#45;&gt;Node5</title>
<path fill="none" stroke="#63b8ff" d="M417.88,-121.08C455.69,-116.16 502.95,-103.89 533.7,-74 545.73,-62.3 550.55,-43.45 552.47,-29.32"/>
<polygon fill="#63b8ff" stroke="#63b8ff" points="555.96,-29.52 553.46,-19.23 549,-28.83 555.96,-29.52"/>
</g>
<!-- Node23&#45;&gt;Node16 -->
<g id="edge14" class="edge">
<title>Node23&#45;&gt;Node16</title>
<path fill="none" stroke="#63b8ff" d="M400.45,-115.49C453.03,-105.03 542.28,-87.27 599.04,-75.98"/>
<polygon fill="#63b8ff" stroke="#63b8ff" points="599.77,-79.4 608.9,-74.02 598.41,-72.54 599.77,-79.4"/>
</g>
<!-- Node24 -->
<g id="node10" class="node">
<title>Node24</title>
<g id="a_node10"><a xlink:href="../../da/d58/Units_8h.html" target="_top" xlink:title="Header for unit conversion utilities, which are used to translate user input from input files (See In...">
<polygon fill="white" stroke="#666666" points="142.2,-74 35.2,-74 35.2,-55 142.2,-55 142.2,-74"/>
<text text-anchor="middle" x="88.7" y="-62" font-family="Helvetica,sans-Serif" font-size="10.00">cantera/base/Units.h</text>
</a>
</g>
</g>
<!-- Node23&#45;&gt;Node24 -->
<g id="edge15" class="edge">
<title>Node23&#45;&gt;Node24</title>
<path fill="none" stroke="#63b8ff" d="M318.58,-115.49C270.77,-105.1 189.83,-87.49 137.85,-76.19"/>
<polygon fill="#63b8ff" stroke="#63b8ff" points="138.38,-72.72 127.86,-74.02 136.89,-79.56 138.38,-72.72"/>
</g>
<!-- Node25 -->
<g id="node11" class="node">
<title>Node25</title>
<g id="a_node11"><a xlink:title=" ">
<polygon fill="#e0e0e0" stroke="#999999" points="525.2,-74 442.2,-74 442.2,-55 525.2,-55 525.2,-74"/>
<text text-anchor="middle" x="483.7" y="-62" font-family="Helvetica,sans-Serif" font-size="10.00">unordered_map</text>
</a>
</g>
</g>
<!-- Node23&#45;&gt;Node25 -->
<g id="edge17" class="edge">
<title>Node23&#45;&gt;Node25</title>
<path fill="none" stroke="#63b8ff" d="M376.02,-115.49C397.11,-105.7 431.96,-89.52 456.28,-78.23"/>
<polygon fill="#63b8ff" stroke="#63b8ff" points="457.76,-81.4 465.36,-74.02 454.81,-75.05 457.76,-81.4"/>
</g>
<!-- Node26 -->
<g id="node12" class="node">
<title>Node26</title>
<g id="a_node12"><a xlink:title=" ">
<polygon fill="#e0e0e0" stroke="#999999" points="222.7,-74 160.7,-74 160.7,-55 222.7,-55 222.7,-74"/>
<text text-anchor="middle" x="191.7" y="-62" font-family="Helvetica,sans-Serif" font-size="10.00">filesystem</text>
</a>
</g>
</g>
<!-- Node23&#45;&gt;Node26 -->
<g id="edge18" class="edge">
<title>Node23&#45;&gt;Node26</title>
<path fill="none" stroke="#63b8ff" d="M333.56,-115.49C305.16,-105.49 257.82,-88.8 225.71,-77.49"/>
<polygon fill="#63b8ff" stroke="#63b8ff" points="226.46,-74.04 215.87,-74.02 224.13,-80.64 226.46,-74.04"/>
</g>
<!-- Node27 -->
<g id="node13" class="node">
<title>Node27</title>
<g id="a_node13"><a xlink:title=" ">
<polygon fill="#e0e0e0" stroke="#999999" points="272.7,-74 240.7,-74 240.7,-55 272.7,-55 272.7,-74"/>
<text text-anchor="middle" x="256.7" y="-62" font-family="Helvetica,sans-Serif" font-size="10.00">any</text>
</a>
</g>
</g>
<!-- Node23&#45;&gt;Node27 -->
<g id="edge19" class="edge">
<title>Node23&#45;&gt;Node27</title>
<path fill="none" stroke="#63b8ff" d="M342.8,-115.37C326.39,-105.86 299.77,-90.45 280.47,-79.27"/>
<polygon fill="#63b8ff" stroke="#63b8ff" points="282.07,-76.15 271.66,-74.17 278.56,-82.21 282.07,-76.15"/>
</g>
<!-- Node28 -->
<g id="node14" class="node">
<title>Node28</title>
<g id="a_node14"><a xlink:href="../../da/d4c/AnyMap_8inl_8h.html" target="_top" xlink:title=" ">
<polygon fill="white" stroke="#666666" points="424.2,-74 291.2,-74 291.2,-55 424.2,-55 424.2,-74"/>
<text text-anchor="middle" x="357.7" y="-62" font-family="Helvetica,sans-Serif" font-size="10.00">cantera/base/AnyMap.inl.h</text>
</a>
</g>
</g>
<!-- Node23&#45;&gt;Node28 -->
<g id="edge20" class="edge">
<title>Node23&#45;&gt;Node28</title>
<path fill="none" stroke="#63b8ff" d="M352.74,-115.37C350.99,-107.25 350.52,-94.81 351.34,-84.39"/>
<polygon fill="#63b8ff" stroke="#63b8ff" points="354.85,-84.55 352.74,-74.17 347.92,-83.6 354.85,-84.55"/>
</g>
<!-- Node24&#45;&gt;Node5 -->
<g id="edge16" class="edge">
<title>Node24&#45;&gt;Node5</title>
<path fill="none" stroke="#63b8ff" d="M142.3,-56.18C145.48,-55.77 148.63,-55.38 151.7,-55 268.83,-40.62 405.42,-25.94 485.45,-17.55"/>
<polygon fill="#63b8ff" stroke="#63b8ff" points="485.82,-21.03 495.4,-16.51 485.09,-14.07 485.82,-21.03"/>
</g>
<!-- Node28&#45;&gt;Node23 -->
<g id="edge21" class="edge">
<title>Node28&#45;&gt;Node23</title>
<path fill="none" stroke="#63b8ff" d="M362.66,-74.17C364.41,-82.3 364.88,-94.74 364.05,-105.16"/>
<polygon fill="#63b8ff" stroke="#63b8ff" points="360.55,-104.99 362.65,-115.37 367.48,-105.94 360.55,-104.99"/>
</g>
<!-- Node30&#45;&gt;Node5 -->
<g id="edge25" class="edge">
<title>Node30&#45;&gt;Node5</title>
<path fill="none" stroke="#63b8ff" d="M79.87,-109.93C41.85,-98.15 3.3,-79.37 25.7,-55 56.19,-21.83 349.19,-13.37 485.1,-11.22"/>
<polygon fill="#63b8ff" stroke="#63b8ff" points="485.44,-14.72 495.39,-11.07 485.34,-7.72 485.44,-14.72"/>
</g>
<!-- Node31&#45;&gt;Node5 -->
<g id="edge27" class="edge">
<title>Node31&#45;&gt;Node5</title>
<path fill="none" stroke="#63b8ff" d="M158.42,-247.4C106.37,-218.88 -48.95,-125.21 15.7,-55 46.9,-21.12 347.42,-13.03 485.24,-11.1"/>
<polygon fill="#63b8ff" stroke="#63b8ff" points="485.33,-14.6 495.28,-10.97 485.23,-7.6 485.33,-14.6"/>
</g>
<!-- Node32&#45;&gt;Node29 -->
<g id="edge31" class="edge">
<title>Node32&#45;&gt;Node29</title>
<path fill="none" stroke="#63b8ff" d="M1492.93,-253.43C1371.41,-248.19 1103.69,-234.27 879.7,-206 871.55,-204.97 862.95,-203.66 854.57,-202.26"/>
<polygon fill="#63b8ff" stroke="#63b8ff" points="854.94,-198.77 844.49,-200.51 853.74,-205.66 854.94,-198.77"/>
</g>
<!-- Node33 -->
<g id="node19" class="node">
<title>Node33</title>
<g id="a_node19"><a xlink:title=" ">
<polygon fill="#e0e0e0" stroke="#999999" points="1982.2,-200.5 1853.2,-200.5 1853.2,-181.5 1982.2,-181.5 1982.2,-200.5"/>
<text text-anchor="middle" x="1917.7" y="-188.5" font-family="Helvetica,sans-Serif" font-size="10.00">sundials/sundials_types.h</text>
</a>
</g>
</g>
<!-- Node32&#45;&gt;Node33 -->
<g id="edge29" class="edge">
<title>Node32&#45;&gt;Node33</title>
<path fill="none" stroke="#63b8ff" d="M1624.35,-244.84C1682.36,-234.9 1769.21,-219.84 1844.7,-206 1850.86,-204.87 1857.32,-203.67 1863.73,-202.45"/>
<polygon fill="#63b8ff" stroke="#63b8ff" points="1864.54,-205.86 1873.71,-200.56 1863.24,-198.98 1864.54,-205.86"/>
</g>
<!-- Node34 -->
<g id="node20" class="node">
<title>Node34</title>
<g id="a_node20"><a xlink:title=" ">
<polygon fill="#e0e0e0" stroke="#999999" points="2127.2,-200.5 2000.2,-200.5 2000.2,-181.5 2127.2,-181.5 2127.2,-200.5"/>
<text text-anchor="middle" x="2063.7" y="-188.5" font-family="Helvetica,sans-Serif" font-size="10.00">sundials/sundials_math.h</text>
</a>
</g>
</g>
<!-- Node32&#45;&gt;Node34 -->
<g id="edge30" class="edge">
<title>Node32&#45;&gt;Node34</title>
<path fill="none" stroke="#63b8ff" d="M1624.57,-249.99C1709.62,-241.86 1862.14,-226.05 1991.7,-206 1998.46,-204.95 2005.56,-203.73 2012.55,-202.45"/>
<polygon fill="#63b8ff" stroke="#63b8ff" points="2013.49,-205.83 2022.67,-200.54 2012.2,-198.95 2013.49,-205.83"/>
</g>
<!-- Node35 -->
<g id="node21" class="node">
<title>Node35</title>
<g id="a_node21"><a xlink:title=" ">
<polygon fill="#e0e0e0" stroke="#999999" points="2266.2,-200.5 2145.2,-200.5 2145.2,-181.5 2266.2,-181.5 2266.2,-200.5"/>
<text text-anchor="middle" x="2205.7" y="-188.5" font-family="Helvetica,sans-Serif" font-size="10.00">nvector/nvector_serial.h</text>
</a>
</g>
</g>
<!-- Node32&#45;&gt;Node35 -->
<g id="edge32" class="edge">
<title>Node32&#45;&gt;Node35</title>
<path fill="none" stroke="#63b8ff" d="M1624.42,-252.76C1731.96,-246.9 1952.02,-232.63 2136.7,-206 2143.45,-205.03 2150.53,-203.81 2157.48,-202.51"/>
<polygon fill="#63b8ff" stroke="#63b8ff" points="2158.37,-205.9 2167.51,-200.56 2157.03,-199.03 2158.37,-205.9"/>
</g>
<!-- Node36 -->
<g id="node22" class="node">
<title>Node36</title>
<g id="a_node22"><a xlink:title=" ">
<polygon fill="#e0e0e0" stroke="#999999" points="2375.2,-200.5 2284.2,-200.5 2284.2,-181.5 2375.2,-181.5 2375.2,-200.5"/>
<text text-anchor="middle" x="2329.7" y="-188.5" font-family="Helvetica,sans-Serif" font-size="10.00">cvodes/cvodes.h</text>
</a>
</g>
</g>
<!-- Node32&#45;&gt;Node36 -->
<g id="edge33" class="edge">
<title>Node32&#45;&gt;Node36</title>
<path fill="none" stroke="#63b8ff" d="M1624.41,-255.45C1751.19,-253.5 2038.01,-244.76 2275.7,-206 2280.58,-205.2 2285.66,-204.17 2290.67,-203.02"/>
<polygon fill="#63b8ff" stroke="#63b8ff" points="2291.88,-206.33 2300.76,-200.55 2290.22,-199.53 2291.88,-206.33"/>
</g>
<!-- Node37 -->
<g id="node23" class="node">
<title>Node37</title>
<g id="a_node23"><a xlink:title=" ">
<polygon fill="#e0e0e0" stroke="#999999" points="2457.7,-200.5 2393.7,-200.5 2393.7,-181.5 2457.7,-181.5 2457.7,-200.5"/>
<text text-anchor="middle" x="2425.7" y="-188.5" font-family="Helvetica,sans-Serif" font-size="10.00">idas/idas.h</text>
</a>
</g>
</g>
<!-- Node32&#45;&gt;Node37 -->
<g id="edge34" class="edge">
<title>Node32&#45;&gt;Node37</title>
<path fill="none" stroke="#63b8ff" d="M1624.3,-254.3C1793.14,-249.56 2239.52,-234.64 2384.7,-206 2387.95,-205.36 2391.29,-204.53 2394.6,-203.58"/>
<polygon fill="#63b8ff" stroke="#63b8ff" points="2395.81,-206.87 2404.29,-200.52 2393.7,-200.2 2395.81,-206.87"/>
</g>
<!-- Node38 -->
<g id="node24" class="node">
<title>Node38</title>
<g id="a_node24"><a xlink:title=" ">
<polygon fill="#e0e0e0" stroke="#999999" points="984.7,-206 888.7,-206 888.7,-176 984.7,-176 984.7,-206"/>
<text text-anchor="start" x="896.7" y="-194" font-family="Helvetica,sans-Serif" font-size="10.00">sunlinsol/sunlinsol</text>
<text text-anchor="middle" x="936.7" y="-183" font-family="Helvetica,sans-Serif" font-size="10.00">_dense.h</text>
</a>
</g>
</g>
<!-- Node32&#45;&gt;Node38 -->
<g id="edge35" class="edge">
<title>Node32&#45;&gt;Node38</title>
<path fill="none" stroke="#63b8ff" d="M1493.04,-253.44C1389.14,-248.68 1180.43,-236.21 994.74,-206"/>
<polygon fill="#63b8ff" stroke="#63b8ff" points="995.23,-202.53 984.79,-204.36 994.09,-209.44 995.23,-202.53"/>
</g>
<!-- Node39 -->
<g id="node25" class="node">
<title>Node39</title>
<g id="a_node25"><a xlink:title=" ">
<polygon fill="#e0e0e0" stroke="#999999" points="1098.7,-206 1002.7,-206 1002.7,-176 1098.7,-176 1098.7,-206"/>
<text text-anchor="start" x="1010.7" y="-194" font-family="Helvetica,sans-Serif" font-size="10.00">sunlinsol/sunlinsol</text>
<text text-anchor="middle" x="1050.7" y="-183" font-family="Helvetica,sans-Serif" font-size="10.00">_band.h</text>
</a>
</g>
</g>
<!-- Node32&#45;&gt;Node39 -->
<g id="edge36" class="edge">
<title>Node32&#45;&gt;Node39</title>
<path fill="none" stroke="#63b8ff" d="M1492.96,-251.41C1406.88,-244.81 1251.15,-230.8 1109.02,-206.08"/>
<polygon fill="#63b8ff" stroke="#63b8ff" points="1109.26,-202.57 1098.81,-204.28 1108.05,-209.47 1109.26,-202.57"/>
</g>
<!-- Node40 -->
<g id="node26" class="node">
<title>Node40</title>
<g id="a_node26"><a xlink:title=" ">
<polygon fill="#e0e0e0" stroke="#999999" points="1212.7,-206 1116.7,-206 1116.7,-176 1212.7,-176 1212.7,-206"/>
<text text-anchor="start" x="1124.7" y="-194" font-family="Helvetica,sans-Serif" font-size="10.00">sunlinsol/sunlinsol</text>
<text text-anchor="middle" x="1164.7" y="-183" font-family="Helvetica,sans-Serif" font-size="10.00">_spgmr.h</text>
</a>
</g>
</g>
<!-- Node32&#45;&gt;Node40 -->
<g id="edge37" class="edge">
<title>Node32&#45;&gt;Node40</title>
<path fill="none" stroke="#63b8ff" d="M1493.15,-248.12C1427.21,-239.78 1322.45,-225.39 1222.77,-206.1"/>
<polygon fill="#63b8ff" stroke="#63b8ff" points="1223.32,-202.64 1212.83,-204.16 1221.97,-209.51 1223.32,-202.64"/>
</g>
<!-- Node41 -->
<g id="node27" class="node">
<title>Node41</title>
<g id="a_node27"><a xlink:title=" ">
<polygon fill="#e0e0e0" stroke="#999999" points="1350.7,-200.5 1230.7,-200.5 1230.7,-181.5 1350.7,-181.5 1350.7,-200.5"/>
<text text-anchor="middle" x="1290.7" y="-188.5" font-family="Helvetica,sans-Serif" font-size="10.00">cvodes/cvodes_direct.h</text>
</a>
</g>
</g>
<!-- Node32&#45;&gt;Node41 -->
<g id="edge38" class="edge">
<title>Node32&#45;&gt;Node41</title>
<path fill="none" stroke="#63b8ff" d="M1499.89,-241.95C1450.61,-230.19 1381.27,-213.63 1336.17,-202.86"/>
<polygon fill="#63b8ff" stroke="#63b8ff" points="1336.9,-199.44 1326.37,-200.52 1335.28,-206.24 1336.9,-199.44"/>
</g>
<!-- Node42 -->
<g id="node28" class="node">
<title>Node42</title>
<g id="a_node28"><a xlink:title=" ">
<polygon fill="#e0e0e0" stroke="#999999" points="1482.7,-200.5 1368.7,-200.5 1368.7,-181.5 1482.7,-181.5 1482.7,-200.5"/>
<text text-anchor="middle" x="1425.7" y="-188.5" font-family="Helvetica,sans-Serif" font-size="10.00">cvodes/cvodes_diag.h</text>
</a>
</g>
</g>
<!-- Node32&#45;&gt;Node42 -->
<g id="edge39" class="edge">
<title>Node32&#45;&gt;Node42</title>
<path fill="none" stroke="#63b8ff" d="M1529.51,-241.95C1506.6,-230.93 1474.95,-215.7 1452.63,-204.96"/>
<polygon fill="#63b8ff" stroke="#63b8ff" points="1453.93,-201.7 1443.4,-200.52 1450.89,-208.01 1453.93,-201.7"/>
</g>
<!-- Node43 -->
<g id="node29" class="node">
<title>Node43</title>
<g id="a_node29"><a xlink:title=" ">
<polygon fill="#e0e0e0" stroke="#999999" points="1616.7,-200.5 1500.7,-200.5 1500.7,-181.5 1616.7,-181.5 1616.7,-200.5"/>
<text text-anchor="middle" x="1558.7" y="-188.5" font-family="Helvetica,sans-Serif" font-size="10.00">cvodes/cvodes_spils.h</text>
</a>
</g>
</g>
<!-- Node32&#45;&gt;Node43 -->
<g id="edge40" class="edge">
<title>Node32&#45;&gt;Node43</title>
<path fill="none" stroke="#63b8ff" d="M1558.7,-241.8C1558.7,-232.7 1558.7,-220.79 1558.7,-210.9"/>
<polygon fill="#63b8ff" stroke="#63b8ff" points="1562.2,-210.84 1558.7,-200.84 1555.2,-210.84 1562.2,-210.84"/>
</g>
<!-- Node44 -->
<g id="node30" class="node">
<title>Node44</title>
<g id="a_node30"><a xlink:title=" ">
<polygon fill="#e0e0e0" stroke="#999999" points="1728.2,-200.5 1635.2,-200.5 1635.2,-181.5 1728.2,-181.5 1728.2,-200.5"/>
<text text-anchor="middle" x="1681.7" y="-188.5" font-family="Helvetica,sans-Serif" font-size="10.00">idas/idas_direct.h</text>
</a>
</g>
</g>
<!-- Node32&#45;&gt;Node44 -->
<g id="edge41" class="edge">
<title>Node32&#45;&gt;Node44</title>
<path fill="none" stroke="#63b8ff" d="M1585.69,-241.95C1606.69,-231.03 1635.63,-215.97 1656.23,-205.25"/>
<polygon fill="#63b8ff" stroke="#63b8ff" points="1658.07,-208.24 1665.33,-200.52 1654.84,-202.03 1658.07,-208.24"/>
</g>
<!-- Node45 -->
<g id="node31" class="node">
<title>Node45</title>
<g id="a_node31"><a xlink:title=" ">
<polygon fill="#e0e0e0" stroke="#999999" points="1835.2,-200.5 1746.2,-200.5 1746.2,-181.5 1835.2,-181.5 1835.2,-200.5"/>
<text text-anchor="middle" x="1790.7" y="-188.5" font-family="Helvetica,sans-Serif" font-size="10.00">idas/idas_spils.h</text>
</a>
</g>
</g>
<!-- Node32&#45;&gt;Node45 -->
<g id="edge42" class="edge">
<title>Node32&#45;&gt;Node45</title>
<path fill="none" stroke="#63b8ff" d="M1609.61,-241.95C1651.73,-230.34 1710.78,-214.05 1749.85,-203.27"/>
<polygon fill="#63b8ff" stroke="#63b8ff" points="1751.11,-206.55 1759.82,-200.52 1749.25,-199.8 1751.11,-206.55"/>
</g>
</g>
</svg>
        <g id="navigator" transform="translate(0 0)" fill="#404254">
                <rect fill="#f2f5e9" fill-opacity="0.5" stroke="#606060" stroke-width=".5" x="0" y="0" width="60" height="60"/>
                <use id="zoomplus" xlink:href="#zoomPlus" x="17" y="9" onmousedown="handleZoom(evt,'in')"/>
                <use id="zoomminus" xlink:href="#zoomMin" x="42" y="9" onmousedown="handleZoom(evt,'out')"/>
                <use id="reset" xlink:href="#resetDef" x="30" y="36" onmousedown="handleReset()"/>
                <g id="arrowUp" xlink:href="#dirArrow" transform="translate(30 24)" onmousedown="handlePan(0,-1)">
                  <use xlink:href="#rim" fill="#404040">
                        <set attributeName="fill" to="#808080" begin="arrowUp.mouseover" end="arrowUp.mouseout"/>
                  </use>
                  <path fill="none" stroke="white" stroke-width="1.5" d="M0,-3.0v7 M-2.5,-0.5L0,-3.0L2.5,-0.5"/>
                </g>
                <g id="arrowRight" xlink:href="#dirArrow" transform="rotate(90) translate(36 -43)" onmousedown="handlePan(1,0)">
                  <use xlink:href="#rim" fill="#404040">
                        <set attributeName="fill" to="#808080" begin="arrowRight.mouseover" end="arrowRight.mouseout"/>
                  </use>
                  <path fill="none" stroke="white" stroke-width="1.5" d="M0,-3.0v7 M-2.5,-0.5L0,-3.0L2.5,-0.5"/>
                </g>
                <g id="arrowDown" xlink:href="#dirArrow" transform="rotate(180) translate(-30 -48)" onmousedown="handlePan(0,1)">
                  <use xlink:href="#rim" fill="#404040">
                        <set attributeName="fill" to="#808080" begin="arrowDown.mouseover" end="arrowDown.mouseout"/>
                  </use>
                  <path fill="none" stroke="white" stroke-width="1.5" d="M0,-3.0v7 M-2.5,-0.5L0,-3.0L2.5,-0.5"/>
                </g>
                <g id="arrowLeft" xlink:href="#dirArrow" transform="rotate(270) translate(-36 17)" onmousedown="handlePan(-1,0)">
                  <use xlink:href="#rim" fill="#404040">
                        <set attributeName="fill" to="#808080" begin="arrowLeft.mouseover" end="arrowLeft.mouseout"/>
                  </use>
                  <path fill="none" stroke="white" stroke-width="1.5" d="M0,-3.0v7 M-2.5,-0.5L0,-3.0L2.5,-0.5"/>
                </g>
        </g>
        <svg viewBox="0 0 15 15" width="100%" height="30px" preserveAspectRatio="xMaxYMin meet">
         <g id="arrow_out" transform="scale(0.3 0.3)">
          <a xlink:href="IdasIntegrator_8cpp__incl_org.svg" target="_base">
           <rect id="button" ry="5" rx="5" y="6" x="6" height="38" width="38"
                fill="#f2f5e9" fill-opacity="0.5" stroke="#606060" stroke-width="1.0"/>
           <path id="arrow"
             d="M 11.500037,31.436501 C 11.940474,20.09759 22.043105,11.32322 32.158766,21.979434 L 37.068811,17.246167 C 37.068811,17.246167 37.088388,32 37.088388,32 L 22.160133,31.978069 C 22.160133,31.978069 26.997745,27.140456 26.997745,27.140456 C 18.528582,18.264221 13.291696,25.230495 11.500037,31.436501 z"
             style="fill:#404040;"/>
          </a>
         </g>
        </svg>
</svg>
