<?xml version="1.0" encoding="UTF-8" standalone="no"?>
<!DOCTYPE svg PUBLIC "-//W3C//DTD SVG 1.1//EN"
 "http://www.w3.org/Graphics/SVG/1.1/DTD/svg11.dtd">
<!-- Generated by graphviz version 2.50.0 (0)
 -->
<!-- Title: Wall.h Pages: 1 -->
<svg width="711pt" height="140pt"
 viewBox="0.00 0.00 710.50 140.00" xmlns="http://www.w3.org/2000/svg" xmlns:xlink="http://www.w3.org/1999/xlink">
<g id="graph0" class="graph" transform="scale(1 1) rotate(0) translate(4 136)">
<title>Wall.h</title>
<polygon fill="white" stroke="transparent" points="-4,4 -4,-136 706.5,-136 706.5,4 -4,4"/>
<!-- Node1 -->
<g id="node1" class="node">
<title>Node1</title>
<g id="a_node1"><a xlink:title="Header file for base class WallBase.">
<polygon fill="#bfbfbf" stroke="black" points="431,-112.5 431,-131.5 475,-131.5 475,-112.5 431,-112.5"/>
<text text-anchor="middle" x="453" y="-119.5" font-family="Helvetica,sans-Serif" font-size="10.00">Wall.h</text>
</a>
</g>
</g>
<!-- Node2 -->
<g id="node2" class="node">
<title>Node2</title>
<g id="a_node2"><a xlink:href="../../d7/de6/ConstPressureReactor_8cpp.html" target="_top" xlink:title="A constant pressure zero&#45;dimensional reactor.">
<polygon fill="white" stroke="black" points="0,-56.5 0,-75.5 134,-75.5 134,-56.5 0,-56.5"/>
<text text-anchor="middle" x="67" y="-63.5" font-family="Helvetica,sans-Serif" font-size="10.00">ConstPressureReactor.cpp</text>
</a>
</g>
</g>
<!-- Node1&#45;&gt;Node2 -->
<g id="edge1" class="edge">
<title>Node1&#45;&gt;Node2</title>
<path fill="none" stroke="midnightblue" d="M420.89,-116.51C356.53,-107.5 210.81,-87.12 127.82,-75.51"/>
<polygon fill="midnightblue" stroke="midnightblue" points="420.47,-119.98 430.86,-117.9 421.44,-113.05 420.47,-119.98"/>
</g>
<!-- Node3 -->
<g id="node3" class="node">
<title>Node3</title>
<g id="a_node3"><a xlink:href="../../d2/d80/IdealGasReactor_8cpp.html" target="_top" xlink:title="A zero&#45;dimensional reactor.">
<polygon fill="white" stroke="black" points="152,-56.5 152,-75.5 260,-75.5 260,-56.5 152,-56.5"/>
<text text-anchor="middle" x="206" y="-63.5" font-family="Helvetica,sans-Serif" font-size="10.00">IdealGasReactor.cpp</text>
</a>
</g>
</g>
<!-- Node1&#45;&gt;Node3 -->
<g id="edge2" class="edge">
<title>Node1&#45;&gt;Node3</title>
<path fill="none" stroke="midnightblue" d="M420.79,-113.96C375.61,-104.08 293.53,-86.14 244.97,-75.52"/>
<polygon fill="midnightblue" stroke="midnightblue" points="420.13,-117.4 430.64,-116.11 421.62,-110.56 420.13,-117.4"/>
</g>
<!-- Node4 -->
<g id="node4" class="node">
<title>Node4</title>
<g id="a_node4"><a xlink:href="../../d3/d68/Reactor_8cpp.html" target="_top" xlink:title="A zero&#45;dimensional reactor.">
<polygon fill="white" stroke="black" points="278.5,-56.5 278.5,-75.5 347.5,-75.5 347.5,-56.5 278.5,-56.5"/>
<text text-anchor="middle" x="313" y="-63.5" font-family="Helvetica,sans-Serif" font-size="10.00">Reactor.cpp</text>
</a>
</g>
</g>
<!-- Node1&#45;&gt;Node4 -->
<g id="edge3" class="edge">
<title>Node1&#45;&gt;Node4</title>
<path fill="none" stroke="midnightblue" d="M421.3,-108.77C395,-98.63 358.28,-84.47 335.08,-75.52"/>
<polygon fill="midnightblue" stroke="midnightblue" points="420.23,-112.11 430.82,-112.44 422.75,-105.58 420.23,-112.11"/>
</g>
<!-- Node5 -->
<g id="node5" class="node">
<title>Node5</title>
<g id="a_node5"><a xlink:href="../../d0/d1c/ReactorNet_8cpp.html" target="_top" xlink:title=" ">
<polygon fill="white" stroke="black" points="366,-56.5 366,-75.5 452,-75.5 452,-56.5 366,-56.5"/>
<text text-anchor="middle" x="409" y="-63.5" font-family="Helvetica,sans-Serif" font-size="10.00">ReactorNet.cpp</text>
</a>
</g>
</g>
<!-- Node1&#45;&gt;Node5 -->
<g id="edge4" class="edge">
<title>Node1&#45;&gt;Node5</title>
<path fill="none" stroke="midnightblue" d="M439.27,-104.14C431.6,-94.74 422.37,-83.4 416.13,-75.75"/>
<polygon fill="midnightblue" stroke="midnightblue" points="436.7,-106.54 445.73,-112.08 442.13,-102.12 436.7,-106.54"/>
</g>
<!-- Node6 -->
<g id="node6" class="node">
<title>Node6</title>
<g id="a_node6"><a xlink:href="../../de/ddf/Wall_8cpp.html" target="_top" xlink:title=" ">
<polygon fill="white" stroke="black" points="470,-56.5 470,-75.5 524,-75.5 524,-56.5 470,-56.5"/>
<text text-anchor="middle" x="497" y="-63.5" font-family="Helvetica,sans-Serif" font-size="10.00">Wall.cpp</text>
</a>
</g>
</g>
<!-- Node1&#45;&gt;Node6 -->
<g id="edge5" class="edge">
<title>Node1&#45;&gt;Node6</title>
<path fill="none" stroke="midnightblue" d="M466.73,-104.14C474.4,-94.74 483.63,-83.4 489.87,-75.75"/>
<polygon fill="midnightblue" stroke="midnightblue" points="463.87,-102.12 460.27,-112.08 469.3,-106.54 463.87,-102.12"/>
</g>
<!-- Node7 -->
<g id="node7" class="node">
<title>Node7</title>
<g id="a_node7"><a xlink:href="../../db/d00/WallFactory_8cpp.html" target="_top" xlink:title=" ">
<polygon fill="white" stroke="black" points="529,-0.5 529,-19.5 615,-19.5 615,-0.5 529,-0.5"/>
<text text-anchor="middle" x="572" y="-7.5" font-family="Helvetica,sans-Serif" font-size="10.00">WallFactory.cpp</text>
</a>
</g>
</g>
<!-- Node1&#45;&gt;Node7 -->
<g id="edge6" class="edge">
<title>Node1&#45;&gt;Node7</title>
<path fill="none" stroke="midnightblue" d="M484.46,-108.01C500.32,-100.36 519.09,-89.52 533,-76 550.36,-59.12 562.91,-32.93 568.6,-19.53"/>
<polygon fill="midnightblue" stroke="midnightblue" points="482.64,-104.99 475.03,-112.35 485.57,-111.35 482.64,-104.99"/>
</g>
<!-- Node8 -->
<g id="node8" class="node">
<title>Node8</title>
<g id="a_node8"><a xlink:href="../../d1/d07/WallFactory_8h.html" target="_top" xlink:title=" ">
<polygon fill="white" stroke="black" points="580.5,-56.5 580.5,-75.5 655.5,-75.5 655.5,-56.5 580.5,-56.5"/>
<text text-anchor="middle" x="618" y="-63.5" font-family="Helvetica,sans-Serif" font-size="10.00">WallFactory.h</text>
</a>
</g>
</g>
<!-- Node1&#45;&gt;Node8 -->
<g id="edge7" class="edge">
<title>Node1&#45;&gt;Node8</title>
<path fill="none" stroke="midnightblue" d="M485.16,-110.47C516.26,-100.3 562.82,-85.06 591.75,-75.59"/>
<polygon fill="midnightblue" stroke="midnightblue" points="483.67,-107.28 475.25,-113.72 485.85,-113.93 483.67,-107.28"/>
</g>
<!-- Node9 -->
<g id="node9" class="node">
<title>Node9</title>
<g id="a_node9"><a xlink:href="../../dd/d2e/zerodim_8h.html" target="_top" xlink:title=" ">
<polygon fill="white" stroke="black" points="643.5,-0.5 643.5,-19.5 702.5,-19.5 702.5,-0.5 643.5,-0.5"/>
<text text-anchor="middle" x="673" y="-7.5" font-family="Helvetica,sans-Serif" font-size="10.00">zerodim.h</text>
</a>
</g>
</g>
<!-- Node1&#45;&gt;Node9 -->
<g id="edge10" class="edge">
<title>Node1&#45;&gt;Node9</title>
<path fill="none" stroke="midnightblue" d="M485.63,-118.61C538.94,-114 641.21,-101.95 665,-76 679.14,-60.58 677.09,-33.75 674.81,-19.87"/>
<polygon fill="midnightblue" stroke="midnightblue" points="485.02,-115.15 475.35,-119.46 485.6,-122.13 485.02,-115.15"/>
</g>
<!-- Node8&#45;&gt;Node7 -->
<g id="edge8" class="edge">
<title>Node8&#45;&gt;Node7</title>
<path fill="none" stroke="midnightblue" d="M603.89,-48.43C595.82,-38.97 586.04,-27.48 579.45,-19.75"/>
<polygon fill="midnightblue" stroke="midnightblue" points="601.25,-50.74 610.4,-56.08 606.58,-46.2 601.25,-50.74"/>
</g>
<!-- Node8&#45;&gt;Node9 -->
<g id="edge9" class="edge">
<title>Node8&#45;&gt;Node9</title>
<path fill="none" stroke="midnightblue" d="M634.29,-49C644.04,-39.43 656.05,-27.64 664.09,-19.75"/>
<polygon fill="midnightblue" stroke="midnightblue" points="631.77,-46.58 627.08,-56.08 636.67,-51.57 631.77,-46.58"/>
</g>
</g>
</svg>
