<?xml version="1.0" encoding="UTF-8" standalone="no"?>
<!DOCTYPE svg PUBLIC "-//W3C//DTD SVG 1.1//EN"
 "http://www.w3.org/Graphics/SVG/1.1/DTD/svg11.dtd">
<!-- Generated by graphviz version 6.0.1 (0)
 -->
<!-- Title: speciesThermoTypes.h Pages: 1 -->
<svg width="1084pt" height="192pt"
 viewBox="0.00 0.00 1083.73 192.00" xmlns="http://www.w3.org/2000/svg" xmlns:xlink="http://www.w3.org/1999/xlink">
<g id="graph0" class="graph" transform="scale(1 1) rotate(0) translate(4 188)">
<title>speciesThermoTypes.h</title>
<!-- Node1 -->
<g id="Node000001" class="node">
<title>Node1</title>
<g id="a_Node000001"><a xlink:title="Contains const definitions for types of species reference&#45;state thermodynamics managers (see Species ...">
<polygon fill="#999999" stroke="#666666" points="697.73,-184 579.73,-184 579.73,-165 697.73,-165 697.73,-184"/>
<text text-anchor="middle" x="638.73" y="-172" font-family="Helvetica,sans-Serif" font-size="10.00">speciesThermoTypes.h</text>
</a>
</g>
</g>
<!-- Node2 -->
<g id="Node000002" class="node">
<title>Node2</title>
<g id="a_Node000002"><a xlink:href="../../dc/d69/ConstCpPoly_8h.html" target="_top" xlink:title="Headers for the SpeciesThermoInterpType object that employs a constant heat capacity assumption (see ...">
<polygon fill="white" stroke="#666666" points="233.73,-129 151.73,-129 151.73,-110 233.73,-110 233.73,-129"/>
<text text-anchor="middle" x="192.73" y="-117" font-family="Helvetica,sans-Serif" font-size="10.00">ConstCpPoly.h</text>
</a>
</g>
</g>
<!-- Node1&#45;&gt;Node2 -->
<g id="edge1_Node000001_Node000002" class="edge">
<title>Node1&#45;&gt;Node2</title>
<g id="a_edge1_Node000001_Node000002"><a xlink:title=" ">
<path fill="none" stroke="#63b8ff" d="M569.47,-166.46C491.24,-158.32 360.16,-144.08 247.73,-129 243.22,-128.4 238.52,-127.73 233.85,-127.04"/>
<polygon fill="#63b8ff" stroke="#63b8ff" points="569.37,-169.97 579.68,-167.52 570.09,-163.01 569.37,-169.97"/>
</a>
</g>
</g>
<!-- Node4 -->
<g id="Node000004" class="node">
<title>Node4</title>
<g id="a_Node000004"><a xlink:href="../../da/d47/SpeciesThermoFactory_8cpp.html" target="_top" xlink:title="Definitions for factory functions to build instances of classes that manage the standard&#45;state thermo...">
<polygon fill="white" stroke="#666666" points="348.23,-19 213.23,-19 213.23,0 348.23,0 348.23,-19"/>
<text text-anchor="middle" x="280.73" y="-7" font-family="Helvetica,sans-Serif" font-size="10.00">SpeciesThermoFactory.cpp</text>
</a>
</g>
</g>
<!-- Node1&#45;&gt;Node4 -->
<g id="edge18_Node000001_Node000004" class="edge">
<title>Node1&#45;&gt;Node4</title>
<g id="a_edge18_Node000001_Node000004"><a xlink:title=" ">
<path fill="none" stroke="#63b8ff" d="M569.43,-167.51C519.18,-161.61 450.23,-150.26 392.73,-129 347.33,-112.21 328.36,-112.27 298.73,-74 285.96,-57.51 282.25,-32.37 281.17,-19.22"/>
<polygon fill="#63b8ff" stroke="#63b8ff" points="569.21,-171.01 579.54,-168.65 570,-164.05 569.21,-171.01"/>
</a>
</g>
</g>
<!-- Node5 -->
<g id="Node000005" class="node">
<title>Node5</title>
<g id="a_Node000005"><a xlink:href="../../d0/dbd/Mu0Poly_8h.html" target="_top" xlink:title="Header for a single&#45;species standard state object derived from SpeciesThermoInterpType based on a pie...">
<polygon fill="white" stroke="#666666" points="80.73,-129 18.73,-129 18.73,-110 80.73,-110 80.73,-129"/>
<text text-anchor="middle" x="49.73" y="-117" font-family="Helvetica,sans-Serif" font-size="10.00">Mu0Poly.h</text>
</a>
</g>
</g>
<!-- Node1&#45;&gt;Node5 -->
<g id="edge4_Node000001_Node000005" class="edge">
<title>Node1&#45;&gt;Node5</title>
<g id="a_edge4_Node000001_Node000005"><a xlink:title=" ">
<path fill="none" stroke="#63b8ff" d="M569.4,-167.32C473.51,-158.76 294.97,-142.79 142.73,-129 122.22,-127.14 99.17,-125.04 81.15,-123.39"/>
<polygon fill="#63b8ff" stroke="#63b8ff" points="569.28,-170.82 579.55,-168.22 569.9,-163.85 569.28,-170.82"/>
</a>
</g>
</g>
<!-- Node7 -->
<g id="Node000007" class="node">
<title>Node7</title>
<g id="a_Node000007"><a xlink:href="../../df/df1/Nasa9Poly1_8h.html" target="_top" xlink:title="Header for a single&#45;species standard state object derived from SpeciesThermoInterpType based on the N...">
<polygon fill="white" stroke="#666666" points="479.73,-129 401.73,-129 401.73,-110 479.73,-110 479.73,-129"/>
<text text-anchor="middle" x="440.73" y="-117" font-family="Helvetica,sans-Serif" font-size="10.00">Nasa9Poly1.h</text>
</a>
</g>
</g>
<!-- Node1&#45;&gt;Node7 -->
<g id="edge7_Node000001_Node000007" class="edge">
<title>Node1&#45;&gt;Node7</title>
<g id="a_edge7_Node000001_Node000007"><a xlink:title=" ">
<path fill="none" stroke="#63b8ff" d="M596.92,-162.31C559.88,-152.39 506.56,-138.12 472.79,-129.08"/>
<polygon fill="#63b8ff" stroke="#63b8ff" points="596.35,-165.78 606.91,-164.98 598.16,-159.02 596.35,-165.78"/>
</a>
</g>
</g>
<!-- Node10 -->
<g id="Node000010" class="node">
<title>Node10</title>
<g id="a_Node000010"><a xlink:href="../../d2/d49/Nasa9PolyMultiTempRegion_8cpp.html" target="_top" xlink:title="Definitions for a single&#45;species standard state object derived from SpeciesThermoInterpType based on ...">
<polygon fill="white" stroke="#666666" points="589.23,-19 430.23,-19 430.23,0 589.23,0 589.23,-19"/>
<text text-anchor="middle" x="509.73" y="-7" font-family="Helvetica,sans-Serif" font-size="10.00">Nasa9PolyMultiTempRegion.cpp</text>
</a>
</g>
</g>
<!-- Node1&#45;&gt;Node10 -->
<g id="edge13_Node000001_Node000010" class="edge">
<title>Node1&#45;&gt;Node10</title>
<g id="a_edge13_Node000001_Node000010"><a xlink:title=" ">
<path fill="none" stroke="#63b8ff" d="M660.72,-158.55C669.98,-150.91 679.74,-140.75 684.73,-129 697.56,-98.72 704.91,-80.96 684.73,-55 671.3,-37.74 620.55,-26.08 577.13,-19.03"/>
<polygon fill="#63b8ff" stroke="#63b8ff" points="658.33,-155.97 652.51,-164.82 662.58,-161.53 658.33,-155.97"/>
</a>
</g>
</g>
<!-- Node11 -->
<g id="Node000011" class="node">
<title>Node11</title>
<g id="a_Node000011"><a xlink:href="../../d2/d2a/NasaPoly1_8h.html" target="_top" xlink:title="Header for a single&#45;species standard state object derived from SpeciesThermoInterpType based on the N...">
<polygon fill="white" stroke="#666666" points="675.23,-129 602.23,-129 602.23,-110 675.23,-110 675.23,-129"/>
<text text-anchor="middle" x="638.73" y="-117" font-family="Helvetica,sans-Serif" font-size="10.00">NasaPoly1.h</text>
</a>
</g>
</g>
<!-- Node1&#45;&gt;Node11 -->
<g id="edge14_Node000001_Node000011" class="edge">
<title>Node1&#45;&gt;Node11</title>
<g id="a_edge14_Node000001_Node000011"><a xlink:title=" ">
<path fill="none" stroke="#63b8ff" d="M638.73,-154.66C638.73,-145.93 638.73,-135.99 638.73,-129.09"/>
<polygon fill="#63b8ff" stroke="#63b8ff" points="635.23,-154.75 638.73,-164.75 642.23,-154.75 635.23,-154.75"/>
</a>
</g>
</g>
<!-- Node14 -->
<g id="Node000014" class="node">
<title>Node14</title>
<g id="a_Node000014"><a xlink:href="../../d2/d3a/ThermoFactory_8cpp.html" target="_top" xlink:title="Definitions for the factory class that can create known ThermoPhase objects (see Thermodynamic Proper...">
<polygon fill="white" stroke="#666666" points="831.73,-129 731.73,-129 731.73,-110 831.73,-110 831.73,-129"/>
<text text-anchor="middle" x="781.73" y="-117" font-family="Helvetica,sans-Serif" font-size="10.00">ThermoFactory.cpp</text>
</a>
</g>
</g>
<!-- Node1&#45;&gt;Node14 -->
<g id="edge19_Node000001_Node000014" class="edge">
<title>Node1&#45;&gt;Node14</title>
<g id="a_edge19_Node000001_Node000014"><a xlink:title=" ">
<path fill="none" stroke="#63b8ff" d="M671.32,-161.42C697.85,-151.59 734.65,-137.95 758.33,-129.17"/>
<polygon fill="#63b8ff" stroke="#63b8ff" points="669.86,-158.23 661.7,-164.98 672.29,-164.79 669.86,-158.23"/>
</a>
</g>
</g>
<!-- Node15 -->
<g id="Node000015" class="node">
<title>Node15</title>
<g id="a_Node000015"><a xlink:href="../../dc/d00/vcs__MultiPhaseEquil_8cpp.html" target="_top" xlink:title="Driver routine for the VCSnonideal equilibrium solver package.">
<polygon fill="white" stroke="#666666" points="977.23,-129 850.23,-129 850.23,-110 977.23,-110 977.23,-129"/>
<text text-anchor="middle" x="913.73" y="-117" font-family="Helvetica,sans-Serif" font-size="10.00">vcs_MultiPhaseEquil.cpp</text>
</a>
</g>
</g>
<!-- Node1&#45;&gt;Node15 -->
<g id="edge20_Node000001_Node000015" class="edge">
<title>Node1&#45;&gt;Node15</title>
<g id="a_edge20_Node000001_Node000015"><a xlink:title=" ">
<path fill="none" stroke="#63b8ff" d="M692.87,-163.07C744.42,-153.13 821.09,-138.35 869.2,-129.08"/>
<polygon fill="#63b8ff" stroke="#63b8ff" points="692.07,-159.66 682.91,-164.98 693.39,-166.53 692.07,-159.66"/>
</a>
</g>
</g>
<!-- Node16 -->
<g id="Node000016" class="node">
<title>Node16</title>
<g id="a_Node000016"><a xlink:href="../../dc/d88/vcs__solve_8cpp.html" target="_top" xlink:title=" ">
<polygon fill="white" stroke="#666666" points="1075.73,-129 995.73,-129 995.73,-110 1075.73,-110 1075.73,-129"/>
<text text-anchor="middle" x="1035.73" y="-117" font-family="Helvetica,sans-Serif" font-size="10.00">vcs_solve.cpp</text>
</a>
</g>
</g>
<!-- Node1&#45;&gt;Node16 -->
<g id="edge21_Node000001_Node000016" class="edge">
<title>Node1&#45;&gt;Node16</title>
<g id="a_edge21_Node000001_Node000016"><a xlink:title=" ">
<path fill="none" stroke="#63b8ff" d="M708.02,-165.56C778.34,-157.29 890.28,-143.52 986.73,-129 989.63,-128.56 992.62,-128.09 995.64,-127.6"/>
<polygon fill="#63b8ff" stroke="#63b8ff" points="707.47,-162.1 697.95,-166.74 708.29,-169.05 707.47,-162.1"/>
</a>
</g>
</g>
<!-- Node3 -->
<g id="Node000003" class="node">
<title>Node3</title>
<g id="a_Node000003"><a xlink:href="../../df/d8c/ConstCpPoly_8cpp.html" target="_top" xlink:title="Declarations for the SpeciesThermoInterpType &#160;object that employs a constant heat capacity assumption...">
<polygon fill="white" stroke="#666666" points="195.73,-74 103.73,-74 103.73,-55 195.73,-55 195.73,-74"/>
<text text-anchor="middle" x="149.73" y="-62" font-family="Helvetica,sans-Serif" font-size="10.00">ConstCpPoly.cpp</text>
</a>
</g>
</g>
<!-- Node2&#45;&gt;Node3 -->
<g id="edge2_Node000002_Node000003" class="edge">
<title>Node2&#45;&gt;Node3</title>
<g id="a_edge2_Node000002_Node000003"><a xlink:title=" ">
<path fill="none" stroke="#63b8ff" d="M179.3,-101.96C171.81,-92.72 162.79,-81.6 156.69,-74.09"/>
<polygon fill="#63b8ff" stroke="#63b8ff" points="176.61,-104.19 185.63,-109.75 182.04,-99.78 176.61,-104.19"/>
</a>
</g>
</g>
<!-- Node2&#45;&gt;Node4 -->
<g id="edge3_Node000002_Node000004" class="edge">
<title>Node2&#45;&gt;Node4</title>
<g id="a_edge3_Node000002_Node000004"><a xlink:title=" ">
<path fill="none" stroke="#63b8ff" d="M206.42,-101.69C225.42,-78.37 259.09,-37.05 273.67,-19.16"/>
<polygon fill="#63b8ff" stroke="#63b8ff" points="203.53,-99.7 199.93,-109.66 208.96,-104.12 203.53,-99.7"/>
</a>
</g>
</g>
<!-- Node5&#45;&gt;Node4 -->
<g id="edge6_Node000005_Node000004" class="edge">
<title>Node5&#45;&gt;Node4</title>
<g id="a_edge6_Node000005_Node000004"><a xlink:title=" ">
<path fill="none" stroke="#63b8ff" d="M27.79,-104.01C10.43,-90.78 -8.83,-70.91 4.73,-55 30.96,-24.19 140.12,-14.64 213.04,-11.72"/>
<polygon fill="#63b8ff" stroke="#63b8ff" points="25.85,-106.93 36.01,-109.93 29.94,-101.25 25.85,-106.93"/>
</a>
</g>
</g>
<!-- Node6 -->
<g id="Node000006" class="node">
<title>Node6</title>
<g id="a_Node000006"><a xlink:href="../../df/d58/Mu0Poly_8cpp.html" target="_top" xlink:title="Definitions for a single&#45;species standard state object derived from SpeciesThermoInterpType based on ...">
<polygon fill="white" stroke="#666666" points="85.73,-74 13.73,-74 13.73,-55 85.73,-55 85.73,-74"/>
<text text-anchor="middle" x="49.73" y="-62" font-family="Helvetica,sans-Serif" font-size="10.00">Mu0Poly.cpp</text>
</a>
</g>
</g>
<!-- Node5&#45;&gt;Node6 -->
<g id="edge5_Node000005_Node000006" class="edge">
<title>Node5&#45;&gt;Node6</title>
<g id="a_edge5_Node000005_Node000006"><a xlink:title=" ">
<path fill="none" stroke="#63b8ff" d="M49.73,-99.66C49.73,-90.93 49.73,-80.99 49.73,-74.09"/>
<polygon fill="#63b8ff" stroke="#63b8ff" points="46.23,-99.75 49.73,-109.75 53.23,-99.75 46.23,-99.75"/>
</a>
</g>
</g>
<!-- Node7&#45;&gt;Node4 -->
<g id="edge12_Node000007_Node000004" class="edge">
<title>Node7&#45;&gt;Node4</title>
<g id="a_edge12_Node000007_Node000004"><a xlink:title=" ">
<path fill="none" stroke="#63b8ff" d="M391.6,-108.74C367.63,-102.07 339.56,-91.22 318.73,-74 300.5,-58.94 288.84,-32.73 283.73,-19.17"/>
<polygon fill="#63b8ff" stroke="#63b8ff" points="391.02,-112.21 401.58,-111.35 392.79,-105.43 391.02,-112.21"/>
</a>
</g>
</g>
<!-- Node8 -->
<g id="Node000008" class="node">
<title>Node8</title>
<g id="a_Node000008"><a xlink:href="../../d8/dee/Nasa9Poly1_8cpp.html" target="_top" xlink:title="Definitions for a single&#45;species standard state object derived from SpeciesThermoInterpType based on ...">
<polygon fill="white" stroke="#666666" points="417.23,-74 328.23,-74 328.23,-55 417.23,-55 417.23,-74"/>
<text text-anchor="middle" x="372.73" y="-62" font-family="Helvetica,sans-Serif" font-size="10.00">Nasa9Poly1.cpp</text>
</a>
</g>
</g>
<!-- Node7&#45;&gt;Node8 -->
<g id="edge8_Node000007_Node000008" class="edge">
<title>Node7&#45;&gt;Node8</title>
<g id="a_edge8_Node000007_Node000008"><a xlink:title=" ">
<path fill="none" stroke="#63b8ff" d="M421.61,-103.6C409.43,-94.11 394.07,-82.13 383.85,-74.17"/>
<polygon fill="#63b8ff" stroke="#63b8ff" points="419.76,-106.6 429.8,-109.98 424.06,-101.08 419.76,-106.6"/>
</a>
</g>
</g>
<!-- Node9 -->
<g id="Node000009" class="node">
<title>Node9</title>
<g id="a_Node000009"><a xlink:href="../../d4/d07/Nasa9PolyMultiTempRegion_8h.html" target="_top" xlink:title="Header for a single&#45;species standard state object derived from SpeciesThermoInterpType based on the N...">
<polygon fill="white" stroke="#666666" points="584.23,-74 435.23,-74 435.23,-55 584.23,-55 584.23,-74"/>
<text text-anchor="middle" x="509.73" y="-62" font-family="Helvetica,sans-Serif" font-size="10.00">Nasa9PolyMultiTempRegion.h</text>
</a>
</g>
</g>
<!-- Node7&#45;&gt;Node9 -->
<g id="edge9_Node000007_Node000009" class="edge">
<title>Node7&#45;&gt;Node9</title>
<g id="a_edge9_Node000007_Node000009"><a xlink:title=" ">
<path fill="none" stroke="#63b8ff" d="M459.76,-103.88C472.18,-94.34 487.97,-82.21 498.44,-74.17"/>
<polygon fill="#63b8ff" stroke="#63b8ff" points="457.61,-101.12 451.81,-109.98 461.87,-106.67 457.61,-101.12"/>
</a>
</g>
</g>
<!-- Node9&#45;&gt;Node4 -->
<g id="edge11_Node000009_Node000004" class="edge">
<title>Node9&#45;&gt;Node4</title>
<g id="a_edge11_Node000009_Node000004"><a xlink:title=" ">
<path fill="none" stroke="#63b8ff" d="M463.02,-52.69C420.12,-42.76 357.37,-28.24 317.81,-19.08"/>
<polygon fill="#63b8ff" stroke="#63b8ff" points="462.4,-56.14 472.93,-54.98 463.98,-49.32 462.4,-56.14"/>
</a>
</g>
</g>
<!-- Node9&#45;&gt;Node10 -->
<g id="edge10_Node000009_Node000010" class="edge">
<title>Node9&#45;&gt;Node10</title>
<g id="a_edge10_Node000009_Node000010"><a xlink:title=" ">
<path fill="none" stroke="#63b8ff" d="M509.73,-44.66C509.73,-35.93 509.73,-25.99 509.73,-19.09"/>
<polygon fill="#63b8ff" stroke="#63b8ff" points="506.23,-44.75 509.73,-54.75 513.23,-44.75 506.23,-44.75"/>
</a>
</g>
</g>
<!-- Node12 -->
<g id="Node000012" class="node">
<title>Node12</title>
<g id="a_Node000012"><a xlink:href="../../dc/d53/NasaPoly2_8h.html" target="_top" xlink:title="Header for a single&#45;species standard state object derived from SpeciesThermoInterpType based on the N...">
<polygon fill="white" stroke="#666666" points="675.23,-74 602.23,-74 602.23,-55 675.23,-55 675.23,-74"/>
<text text-anchor="middle" x="638.73" y="-62" font-family="Helvetica,sans-Serif" font-size="10.00">NasaPoly2.h</text>
</a>
</g>
</g>
<!-- Node11&#45;&gt;Node12 -->
<g id="edge15_Node000011_Node000012" class="edge">
<title>Node11&#45;&gt;Node12</title>
<g id="a_edge15_Node000011_Node000012"><a xlink:title=" ">
<path fill="none" stroke="#63b8ff" d="M638.73,-99.66C638.73,-90.93 638.73,-80.99 638.73,-74.09"/>
<polygon fill="#63b8ff" stroke="#63b8ff" points="635.23,-99.75 638.73,-109.75 642.23,-99.75 635.23,-99.75"/>
</a>
</g>
</g>
<!-- Node12&#45;&gt;Node4 -->
<g id="edge17_Node000012_Node000004" class="edge">
<title>Node12&#45;&gt;Node4</title>
<g id="a_edge17_Node000012_Node000004"><a xlink:title=" ">
<path fill="none" stroke="#63b8ff" d="M592.12,-54.96C500.8,-40.13 406.96,-27.15 345.98,-19.01"/>
<polygon fill="#63b8ff" stroke="#63b8ff" points="591.66,-58.43 602.09,-56.59 592.79,-51.52 591.66,-58.43"/>
</a>
</g>
</g>
<!-- Node13 -->
<g id="Node000013" class="node">
<title>Node13</title>
<g id="a_Node000013"><a xlink:href="../../d6/de1/NasaPoly2_8cpp_source.html" target="_top" xlink:title=" ">
<polygon fill="white" stroke="#666666" points="690.23,-19 607.23,-19 607.23,0 690.23,0 690.23,-19"/>
<text text-anchor="middle" x="648.73" y="-7" font-family="Helvetica,sans-Serif" font-size="10.00">NasaPoly2.cpp</text>
</a>
</g>
</g>
<!-- Node12&#45;&gt;Node13 -->
<g id="edge16_Node000012_Node000013" class="edge">
<title>Node12&#45;&gt;Node13</title>
<g id="a_edge16_Node000012_Node000013"><a xlink:title=" ">
<path fill="none" stroke="#63b8ff" d="M642.28,-44.66C643.93,-35.93 645.8,-25.99 647.11,-19.09"/>
<polygon fill="#63b8ff" stroke="#63b8ff" points="638.79,-44.27 640.38,-54.75 645.67,-45.57 638.79,-44.27"/>
</a>
</g>
</g>
</g>
</svg>
