<?xml version="1.0" encoding="UTF-8" standalone="no"?>
<!DOCTYPE svg PUBLIC "-//W3C//DTD SVG 1.1//EN"
 "http://www.w3.org/Graphics/SVG/1.1/DTD/svg11.dtd">
<!-- Generated by graphviz version 2.43.0 (0)
 -->
<!-- Title: CoverageDependentSurfPhase.cpp Pages: 1 -->
<svg width="1020pt" height="423pt"
 viewBox="0.00 0.00 1019.50 423.00" xmlns="http://www.w3.org/2000/svg" xmlns:xlink="http://www.w3.org/1999/xlink">
<g id="graph0" class="graph" transform="scale(1 1) rotate(0) translate(4 419)">
<title>CoverageDependentSurfPhase.cpp</title>
<!-- Node1 -->
<g id="Node000001" class="node">
<title>Node1</title>
<g id="a_Node000001"><a xlink:title="Definitions for a thermodynamics model of a coverage&#45;dependent surface phase derived from SurfPhase,...">
<polygon fill="#999999" stroke="#666666" points="698,-415 513,-415 513,-396 698,-396 698,-415"/>
<text text-anchor="middle" x="605.5" y="-403" font-family="Helvetica,sans-Serif" font-size="10.00">CoverageDependentSurfPhase.cpp</text>
</a>
</g>
</g>
<!-- Node2 -->
<g id="Node000002" class="node">
<title>Node2</title>
<g id="a_Node000002"><a xlink:href="../../db/dda/CoverageDependentSurfPhase_8h.html" target="_top" xlink:title="Header for a thermodynamics model of a coverage&#45;dependent surface phase derived from SurfPhase,...">
<polygon fill="white" stroke="#666666" points="558.5,-360 364.5,-360 364.5,-330 558.5,-330 558.5,-360"/>
<text text-anchor="start" x="372.5" y="-348" font-family="Helvetica,sans-Serif" font-size="10.00">cantera/thermo/CoverageDependent</text>
<text text-anchor="middle" x="461.5" y="-337" font-family="Helvetica,sans-Serif" font-size="10.00">SurfPhase.h</text>
</a>
</g>
</g>
<!-- Node1&#45;&gt;Node2 -->
<g id="edge1_Node000001_Node000002" class="edge">
<title>Node1&#45;&gt;Node2</title>
<g id="a_edge1_Node000001_Node000002"><a xlink:title=" ">
<path fill="none" stroke="#63b8ff" d="M584.56,-395.99C563.93,-387.61 531.77,-374.55 505.5,-363.87"/>
<polygon fill="#63b8ff" stroke="#63b8ff" points="506.7,-360.59 496.12,-360.06 504.07,-367.07 506.7,-360.59"/>
</a>
</g>
</g>
<!-- Node3 -->
<g id="Node000003" class="node">
<title>Node3</title>
<g id="a_Node000003"><a xlink:href="../../d2/de5/SurfPhase_8h.html" target="_top" xlink:title="Header for a simple thermodynamics model of a surface phase derived from ThermoPhase,...">
<polygon fill="white" stroke="#666666" points="508.5,-294 434.5,-294 434.5,-275 508.5,-275 508.5,-294"/>
<text text-anchor="middle" x="471.5" y="-282" font-family="Helvetica,sans-Serif" font-size="10.00">SurfPhase.h</text>
</a>
</g>
</g>
<!-- Node1&#45;&gt;Node3 -->
<g id="edge20_Node000001_Node000003" class="edge">
<title>Node1&#45;&gt;Node3</title>
<g id="a_edge20_Node000001_Node000003"><a xlink:title=" ">
<path fill="none" stroke="#63b8ff" d="M603.04,-395.53C598.44,-380.24 587.16,-348.94 567.5,-330 552.06,-315.13 530.76,-304.57 512.14,-297.49"/>
<polygon fill="#63b8ff" stroke="#63b8ff" points="513.29,-294.18 502.69,-294.09 510.92,-300.77 513.29,-294.18"/>
</a>
</g>
</g>
<!-- Node36 -->
<g id="Node000036" class="node">
<title>Node36</title>
<g id="a_Node000036"><a xlink:href="../../dc/d8e/ThermoFactory_8h.html" target="_top" xlink:title="Headers for the factory class that can create known ThermoPhase objects (see Thermodynamic Properties...">
<polygon fill="white" stroke="#666666" points="712,-294 537,-294 537,-275 712,-275 712,-294"/>
<text text-anchor="middle" x="624.5" y="-282" font-family="Helvetica,sans-Serif" font-size="10.00">cantera/thermo/ThermoFactory.h</text>
</a>
</g>
</g>
<!-- Node1&#45;&gt;Node36 -->
<g id="edge21_Node000001_Node000036" class="edge">
<title>Node1&#45;&gt;Node36</title>
<g id="a_edge21_Node000001_Node000036"><a xlink:title=" ">
<path fill="none" stroke="#63b8ff" d="M606.87,-395.94C609.91,-376.91 617.28,-330.69 621.47,-304.47"/>
<polygon fill="#63b8ff" stroke="#63b8ff" points="624.97,-304.73 623.09,-294.3 618.06,-303.62 624.97,-304.73"/>
</a>
</g>
</g>
<!-- Node40 -->
<g id="Node000040" class="node">
<title>Node40</title>
<g id="a_Node000040"><a xlink:href="../../dd/dc3/stringUtils_8h.html" target="_top" xlink:title="Contains declarations for string manipulation functions within Cantera.">
<polygon fill="white" stroke="#666666" points="848.5,-74 706.5,-74 706.5,-55 848.5,-55 848.5,-74"/>
<text text-anchor="middle" x="777.5" y="-62" font-family="Helvetica,sans-Serif" font-size="10.00">cantera/base/stringUtils.h</text>
</a>
</g>
</g>
<!-- Node1&#45;&gt;Node40 -->
<g id="edge30_Node000001_Node000040" class="edge">
<title>Node1&#45;&gt;Node40</title>
<g id="a_edge30_Node000001_Node000040"><a xlink:title=" ">
<path fill="none" stroke="#63b8ff" d="M698.24,-397.33C769.38,-386.16 855.5,-357.72 855.5,-285.5 855.5,-285.5 855.5,-285.5 855.5,-173.5 855.5,-144.04 853.32,-134.18 836.5,-110 827.8,-97.49 814.48,-87.02 802.7,-79.37"/>
<polygon fill="#63b8ff" stroke="#63b8ff" points="804.44,-76.34 794.09,-74.1 800.78,-82.31 804.44,-76.34"/>
</a>
</g>
</g>
<!-- Node41 -->
<g id="Node000041" class="node">
<title>Node41</title>
<g id="a_Node000041"><a xlink:href="../../de/df0/utilities_8h.html" target="_top" xlink:title="Various templated functions that carry out common vector and polynomial operations (see Templated Arr...">
<polygon fill="white" stroke="#666666" points="1011.5,-354.5 883.5,-354.5 883.5,-335.5 1011.5,-335.5 1011.5,-354.5"/>
<text text-anchor="middle" x="947.5" y="-342.5" font-family="Helvetica,sans-Serif" font-size="10.00">cantera/base/utilities.h</text>
</a>
</g>
</g>
<!-- Node1&#45;&gt;Node41 -->
<g id="edge32_Node000001_Node000041" class="edge">
<title>Node1&#45;&gt;Node41</title>
<g id="a_edge32_Node000001_Node000041"><a xlink:title=" ">
<path fill="none" stroke="#63b8ff" d="M657.13,-395.96C710.36,-387.12 795.78,-372.83 869.5,-360 876.24,-358.83 883.3,-357.58 890.31,-356.34"/>
<polygon fill="#63b8ff" stroke="#63b8ff" points="891.26,-359.72 900.49,-354.52 890.03,-352.83 891.26,-359.72"/>
</a>
</g>
</g>
<!-- Node43 -->
<g id="Node000043" class="node">
<title>Node43</title>
<g id="a_Node000043"><a xlink:href="../../d7/dd9/Species_8h.html" target="_top" xlink:title="Declaration for class Cantera::Species.">
<polygon fill="white" stroke="#666666" points="141,-239 0,-239 0,-220 141,-220 141,-239"/>
<text text-anchor="middle" x="70.5" y="-227" font-family="Helvetica,sans-Serif" font-size="10.00">cantera/thermo/Species.h</text>
</a>
</g>
</g>
<!-- Node1&#45;&gt;Node43 -->
<g id="edge35_Node000001_Node000043" class="edge">
<title>Node1&#45;&gt;Node43</title>
<g id="a_edge35_Node000001_Node000043"><a xlink:title=" ">
<path fill="none" stroke="#63b8ff" d="M529.39,-395.99C479.24,-389.16 412.54,-377.73 355.5,-360 254.75,-328.69 142.92,-270.4 94.74,-244.05"/>
<polygon fill="#63b8ff" stroke="#63b8ff" points="96.16,-240.84 85.72,-239.08 92.79,-246.97 96.16,-240.84"/>
</a>
</g>
</g>
<!-- Node2&#45;&gt;Node3 -->
<g id="edge2_Node000002_Node000003" class="edge">
<title>Node2&#45;&gt;Node3</title>
<g id="a_edge2_Node000002_Node000003"><a xlink:title=" ">
<path fill="none" stroke="#63b8ff" d="M463.92,-329.84C465.24,-322.13 466.89,-312.49 468.31,-304.17"/>
<polygon fill="#63b8ff" stroke="#63b8ff" points="471.77,-304.71 470,-294.27 464.87,-303.53 471.77,-304.71"/>
</a>
</g>
</g>
<!-- Node34 -->
<g id="Node000034" class="node">
<title>Node34</title>
<g id="a_Node000034"><a xlink:href="../../df/dd0/Array_8h.html" target="_top" xlink:title="Header file for class Cantera::Array2D.">
<polygon fill="white" stroke="#666666" points="369.5,-294 253.5,-294 253.5,-275 369.5,-275 369.5,-294"/>
<text text-anchor="middle" x="311.5" y="-282" font-family="Helvetica,sans-Serif" font-size="10.00">cantera/base/Array.h</text>
</a>
</g>
</g>
<!-- Node2&#45;&gt;Node34 -->
<g id="edge17_Node000002_Node000034" class="edge">
<title>Node2&#45;&gt;Node34</title>
<g id="a_edge17_Node000002_Node000034"><a xlink:title=" ">
<path fill="none" stroke="#63b8ff" d="M425.57,-329.99C400.43,-320.18 367.17,-307.21 343.05,-297.81"/>
<polygon fill="#63b8ff" stroke="#63b8ff" points="344.24,-294.51 333.65,-294.14 341.7,-301.03 344.24,-294.51"/>
</a>
</g>
</g>
<!-- Node4 -->
<g id="Node000004" class="node">
<title>Node4</title>
<g id="a_Node000004"><a xlink:href="../../d7/d01/ThermoPhase_8h.html" target="_top" xlink:title="Header file for class ThermoPhase, the base class for phases with thermodynamic properties,...">
<polygon fill="white" stroke="#666666" points="517.5,-239 425.5,-239 425.5,-220 517.5,-220 517.5,-239"/>
<text text-anchor="middle" x="471.5" y="-227" font-family="Helvetica,sans-Serif" font-size="10.00">ThermoPhase.h</text>
</a>
</g>
</g>
<!-- Node3&#45;&gt;Node4 -->
<g id="edge3_Node000003_Node000004" class="edge">
<title>Node3&#45;&gt;Node4</title>
<g id="a_edge3_Node000003_Node000004"><a xlink:title=" ">
<path fill="none" stroke="#63b8ff" d="M471.5,-274.75C471.5,-267.8 471.5,-257.85 471.5,-249.13"/>
<polygon fill="#63b8ff" stroke="#63b8ff" points="475,-249.09 471.5,-239.09 468,-249.09 475,-249.09"/>
</a>
</g>
</g>
<!-- Node5 -->
<g id="Node000005" class="node">
<title>Node5</title>
<g id="a_Node000005"><a xlink:href="../../da/d84/Phase_8h.html" target="_top" xlink:title="Header file for class Phase.">
<polygon fill="#fff0f0" stroke="red" points="607,-184 552,-184 552,-165 607,-165 607,-184"/>
<text text-anchor="middle" x="579.5" y="-172" font-family="Helvetica,sans-Serif" font-size="10.00">Phase.h</text>
</a>
</g>
</g>
<!-- Node4&#45;&gt;Node5 -->
<g id="edge4_Node000004_Node000005" class="edge">
<title>Node4&#45;&gt;Node5</title>
<g id="a_edge4_Node000004_Node000005"><a xlink:title=" ">
<path fill="none" stroke="#63b8ff" d="M488.85,-219.98C506.07,-211.54 532.7,-198.47 552.65,-188.68"/>
<polygon fill="#63b8ff" stroke="#63b8ff" points="554.4,-191.72 561.83,-184.17 551.31,-185.43 554.4,-191.72"/>
</a>
</g>
</g>
<!-- Node26 -->
<g id="Node000026" class="node">
<title>Node26</title>
<g id="a_Node000026"><a xlink:href="../../d6/d7a/MultiSpeciesThermo_8h.html" target="_top" xlink:title="Header for a general species thermodynamic property manager for a phase (see MultiSpeciesThermo).">
<polygon fill="#fff0f0" stroke="red" points="534,-184 409,-184 409,-165 534,-165 534,-184"/>
<text text-anchor="middle" x="471.5" y="-172" font-family="Helvetica,sans-Serif" font-size="10.00">MultiSpeciesThermo.h</text>
</a>
</g>
</g>
<!-- Node4&#45;&gt;Node26 -->
<g id="edge9_Node000004_Node000026" class="edge">
<title>Node4&#45;&gt;Node26</title>
<g id="a_edge9_Node000004_Node000026"><a xlink:title=" ">
<path fill="none" stroke="#63b8ff" d="M471.5,-219.75C471.5,-212.8 471.5,-202.85 471.5,-194.13"/>
<polygon fill="#63b8ff" stroke="#63b8ff" points="475,-194.09 471.5,-184.09 468,-194.09 475,-194.09"/>
</a>
</g>
</g>
<!-- Node29 -->
<g id="Node000029" class="node">
<title>Node29</title>
<g id="a_Node000029"><a xlink:href="../../da/d58/Units_8h.html" target="_top" xlink:title="Header for unit conversion utilities, which are used to translate user input from input files (See In...">
<polygon fill="white" stroke="#666666" points="299,-129 182,-129 182,-110 299,-110 299,-129"/>
<text text-anchor="middle" x="240.5" y="-117" font-family="Helvetica,sans-Serif" font-size="10.00">cantera/base/Units.h</text>
</a>
</g>
</g>
<!-- Node4&#45;&gt;Node29 -->
<g id="edge10_Node000004_Node000029" class="edge">
<title>Node4&#45;&gt;Node29</title>
<g id="a_edge10_Node000004_Node000029"><a xlink:title=" ">
<path fill="none" stroke="#63b8ff" d="M425.25,-225.29C367.69,-220.31 274.06,-208.58 250.5,-184 239.29,-172.3 237.58,-153.45 238.2,-139.32"/>
<polygon fill="#63b8ff" stroke="#63b8ff" points="241.7,-139.49 239.06,-129.23 234.72,-138.89 241.7,-139.49"/>
</a>
</g>
</g>
<!-- Node28 -->
<g id="Node000028" class="node">
<title>Node28</title>
<g id="a_Node000028"><a xlink:href="../../dd/d2a/AnyMap_8h.html" target="_top" xlink:title=" ">
<polygon fill="#fff0f0" stroke="red" points="391,-184 260,-184 260,-165 391,-165 391,-184"/>
<text text-anchor="middle" x="325.5" y="-172" font-family="Helvetica,sans-Serif" font-size="10.00">cantera/base/AnyMap.h</text>
</a>
</g>
</g>
<!-- Node4&#45;&gt;Node28 -->
<g id="edge12_Node000004_Node000028" class="edge">
<title>Node4&#45;&gt;Node28</title>
<g id="a_edge12_Node000004_Node000028"><a xlink:title=" ">
<path fill="none" stroke="#63b8ff" d="M448.04,-219.98C423.92,-211.23 386.13,-197.51 358.9,-187.62"/>
<polygon fill="#63b8ff" stroke="#63b8ff" points="359.98,-184.29 349.38,-184.17 357.59,-190.87 359.98,-184.29"/>
</a>
</g>
</g>
<!-- Node6 -->
<g id="Node000006" class="node">
<title>Node6</title>
<g id="a_Node000006"><a xlink:href="../../db/d98/ctexceptions_8h.html" target="_top" xlink:title="Definitions for the classes that are thrown when Cantera experiences an error condition (also contain...">
<polygon fill="#fff0f0" stroke="red" points="621.5,-129 467.5,-129 467.5,-110 621.5,-110 621.5,-129"/>
<text text-anchor="middle" x="544.5" y="-117" font-family="Helvetica,sans-Serif" font-size="10.00">cantera/base/ctexceptions.h</text>
</a>
</g>
</g>
<!-- Node5&#45;&gt;Node6 -->
<g id="edge5_Node000005_Node000006" class="edge">
<title>Node5&#45;&gt;Node6</title>
<g id="a_edge5_Node000005_Node000006"><a xlink:title=" ">
<path fill="none" stroke="#63b8ff" d="M573.72,-164.75C568.88,-157.42 561.82,-146.73 555.86,-137.7"/>
<polygon fill="#63b8ff" stroke="#63b8ff" points="558.6,-135.5 550.17,-129.09 552.76,-139.36 558.6,-135.5"/>
</a>
</g>
</g>
<!-- Node7 -->
<g id="Node000007" class="node">
<title>Node7</title>
<g id="a_Node000007"><a xlink:href="../../d9/ddc/ct__defs_8h.html" target="_top" xlink:title="This file contains definitions of constants, types and terms that are used in internal routines and a...">
<polygon fill="#fff0f0" stroke="red" points="500,-19 439,-19 439,0 500,0 500,-19"/>
<text text-anchor="middle" x="469.5" y="-7" font-family="Helvetica,sans-Serif" font-size="10.00">ct_defs.h</text>
</a>
</g>
</g>
<!-- Node6&#45;&gt;Node7 -->
<g id="edge6_Node000006_Node000007" class="edge">
<title>Node6&#45;&gt;Node7</title>
<g id="a_edge6_Node000006_Node000007"><a xlink:title=" ">
<path fill="none" stroke="#63b8ff" d="M529.02,-109.86C516.37,-102.05 498.94,-89.43 488.5,-74 479.33,-60.45 474.48,-42.36 471.99,-28.96"/>
<polygon fill="#63b8ff" stroke="#63b8ff" points="475.43,-28.33 470.4,-19 468.52,-29.43 475.43,-28.33"/>
</a>
</g>
</g>
<!-- Node18 -->
<g id="Node000018" class="node">
<title>Node18</title>
<g id="a_Node000018"><a xlink:href="../../db/def/fmt_8h.html" target="_top" xlink:title="Wrapper for either system&#45;installed or local headers for fmt.">
<polygon fill="#fff0f0" stroke="red" points="607,-74 498,-74 498,-55 607,-55 607,-74"/>
<text text-anchor="middle" x="552.5" y="-62" font-family="Helvetica,sans-Serif" font-size="10.00">cantera/base/fmt.h</text>
</a>
</g>
</g>
<!-- Node6&#45;&gt;Node18 -->
<g id="edge7_Node000006_Node000018" class="edge">
<title>Node6&#45;&gt;Node18</title>
<g id="a_edge7_Node000006_Node000018"><a xlink:title=" ">
<path fill="none" stroke="#63b8ff" d="M545.82,-109.75C546.87,-102.8 548.37,-92.85 549.69,-84.13"/>
<polygon fill="#63b8ff" stroke="#63b8ff" points="553.17,-84.5 551.2,-74.09 546.25,-83.45 553.17,-84.5"/>
</a>
</g>
</g>
<!-- Node18&#45;&gt;Node7 -->
<g id="edge8_Node000018_Node000007" class="edge">
<title>Node18&#45;&gt;Node7</title>
<g id="a_edge8_Node000018_Node000007"><a xlink:title=" ">
<path fill="none" stroke="#63b8ff" d="M539.16,-54.98C526.41,-46.84 506.95,-34.41 491.83,-24.76"/>
<polygon fill="#63b8ff" stroke="#63b8ff" points="493.39,-21.6 483.08,-19.17 489.62,-27.5 493.39,-21.6"/>
</a>
</g>
</g>
<!-- Node29&#45;&gt;Node7 -->
<g id="edge11_Node000029_Node000007" class="edge">
<title>Node29&#45;&gt;Node7</title>
<g id="a_edge11_Node000029_Node000007"><a xlink:title=" ">
<path fill="none" stroke="#63b8ff" d="M248.13,-109.75C260.51,-96.09 286.33,-69.73 313.5,-55 350.03,-35.19 396.26,-23.44 428.89,-17.03"/>
<polygon fill="#63b8ff" stroke="#63b8ff" points="429.79,-20.42 438.97,-15.13 428.5,-13.54 429.79,-20.42"/>
</a>
</g>
</g>
<!-- Node28&#45;&gt;Node6 -->
<g id="edge14_Node000028_Node000006" class="edge">
<title>Node28&#45;&gt;Node6</title>
<g id="a_edge14_Node000028_Node000006"><a xlink:title=" ">
<path fill="none" stroke="#63b8ff" d="M360.69,-164.98C398.33,-155.87 458.16,-141.4 499.27,-131.45"/>
<polygon fill="#63b8ff" stroke="#63b8ff" points="500.14,-134.84 509.04,-129.08 498.5,-128.03 500.14,-134.84"/>
</a>
</g>
</g>
<!-- Node28&#45;&gt;Node7 -->
<g id="edge13_Node000028_Node000007" class="edge">
<title>Node28&#45;&gt;Node7</title>
<g id="a_edge13_Node000028_Node000007"><a xlink:title=" ">
<path fill="none" stroke="#63b8ff" d="M326.81,-164.58C329.06,-151.6 334.61,-127.19 346.5,-110 372.75,-72.05 417.52,-41.05 445.2,-24.23"/>
<polygon fill="#63b8ff" stroke="#63b8ff" points="447.06,-27.19 453.88,-19.08 443.49,-21.18 447.06,-27.19"/>
</a>
</g>
</g>
<!-- Node28&#45;&gt;Node29 -->
<g id="edge15_Node000028_Node000029" class="edge">
<title>Node28&#45;&gt;Node29</title>
<g id="a_edge15_Node000028_Node000029"><a xlink:title=" ">
<path fill="none" stroke="#63b8ff" d="M311.84,-164.98C298.66,-156.77 278.47,-144.18 262.93,-134.49"/>
<polygon fill="#63b8ff" stroke="#63b8ff" points="264.74,-131.49 254.41,-129.17 261.04,-137.43 264.74,-131.49"/>
</a>
</g>
</g>
<!-- Node30 -->
<g id="Node000030" class="node">
<title>Node30</title>
<g id="a_Node000030"><a xlink:title=" ">
<polygon fill="#e0e0e0" stroke="#999999" points="449,-129 356,-129 356,-110 449,-110 449,-129"/>
<text text-anchor="middle" x="402.5" y="-117" font-family="Helvetica,sans-Serif" font-size="10.00">unordered_map</text>
</a>
</g>
</g>
<!-- Node28&#45;&gt;Node30 -->
<g id="edge16_Node000028_Node000030" class="edge">
<title>Node28&#45;&gt;Node30</title>
<g id="a_edge16_Node000028_Node000030"><a xlink:title=" ">
<path fill="none" stroke="#63b8ff" d="M337.87,-164.98C349.59,-156.92 367.42,-144.65 381.39,-135.03"/>
<polygon fill="#63b8ff" stroke="#63b8ff" points="383.65,-137.72 389.9,-129.17 379.68,-131.96 383.65,-137.72"/>
</a>
</g>
</g>
<!-- Node34&#45;&gt;Node7 -->
<g id="edge18_Node000034_Node000007" class="edge">
<title>Node34&#45;&gt;Node7</title>
<g id="a_edge18_Node000034_Node000007"><a xlink:title=" ">
<path fill="none" stroke="#63b8ff" d="M294.54,-274.86C248.96,-250.46 130.07,-178.38 172.5,-110 200.09,-65.54 354.04,-31.69 428.78,-17.63"/>
<polygon fill="#63b8ff" stroke="#63b8ff" points="429.58,-21.04 438.78,-15.78 428.31,-14.16 429.58,-21.04"/>
</a>
</g>
</g>
<!-- Node35 -->
<g id="Node000035" class="node">
<title>Node35</title>
<g id="a_Node000035"><a xlink:title=" ">
<polygon fill="#e0e0e0" stroke="#999999" points="341.5,-239 281.5,-239 281.5,-220 341.5,-220 341.5,-239"/>
<text text-anchor="middle" x="311.5" y="-227" font-family="Helvetica,sans-Serif" font-size="10.00">iostream</text>
</a>
</g>
</g>
<!-- Node34&#45;&gt;Node35 -->
<g id="edge19_Node000034_Node000035" class="edge">
<title>Node34&#45;&gt;Node35</title>
<g id="a_edge19_Node000034_Node000035"><a xlink:title=" ">
<path fill="none" stroke="#63b8ff" d="M311.5,-274.75C311.5,-267.8 311.5,-257.85 311.5,-249.13"/>
<polygon fill="#63b8ff" stroke="#63b8ff" points="315,-249.09 311.5,-239.09 308,-249.09 315,-249.09"/>
</a>
</g>
</g>
<!-- Node36&#45;&gt;Node4 -->
<g id="edge22_Node000036_Node000004" class="edge">
<title>Node36&#45;&gt;Node4</title>
<g id="a_edge22_Node000036_Node000004"><a xlink:title=" ">
<path fill="none" stroke="#63b8ff" d="M599.92,-274.98C574.45,-266.16 534.46,-252.31 505.87,-242.41"/>
<polygon fill="#63b8ff" stroke="#63b8ff" points="506.87,-239.05 496.27,-239.08 504.58,-245.66 506.87,-239.05"/>
</a>
</g>
</g>
<!-- Node37 -->
<g id="Node000037" class="node">
<title>Node37</title>
<g id="a_Node000037"><a xlink:href="../../d6/dd5/FactoryBase_8h.html" target="_top" xlink:title="File contains the FactoryBase class declarations.">
<polygon fill="white" stroke="#666666" points="776,-184 625,-184 625,-165 776,-165 776,-184"/>
<text text-anchor="middle" x="700.5" y="-172" font-family="Helvetica,sans-Serif" font-size="10.00">cantera/base/FactoryBase.h</text>
</a>
</g>
</g>
<!-- Node36&#45;&gt;Node37 -->
<g id="edge23_Node000036_Node000037" class="edge">
<title>Node36&#45;&gt;Node37</title>
<g id="a_edge23_Node000036_Node000037"><a xlink:title=" ">
<path fill="none" stroke="#63b8ff" d="M630.72,-274.66C643.36,-256.69 672.25,-215.64 688.62,-192.38"/>
<polygon fill="#63b8ff" stroke="#63b8ff" points="691.51,-194.35 694.41,-184.16 685.79,-190.32 691.51,-194.35"/>
</a>
</g>
</g>
<!-- Node37&#45;&gt;Node6 -->
<g id="edge26_Node000037_Node000006" class="edge">
<title>Node37&#45;&gt;Node6</title>
<g id="a_edge26_Node000037_Node000006"><a xlink:title=" ">
<path fill="none" stroke="#63b8ff" d="M675.44,-164.98C649.47,-156.16 608.69,-142.31 579.54,-132.41"/>
<polygon fill="#63b8ff" stroke="#63b8ff" points="580.35,-128.99 569.76,-129.08 578.1,-135.61 580.35,-128.99"/>
</a>
</g>
</g>
<!-- Node37&#45;&gt;Node30 -->
<g id="edge25_Node000037_Node000030" class="edge">
<title>Node37&#45;&gt;Node30</title>
<g id="a_edge25_Node000037_Node000030"><a xlink:title=" ">
<path fill="none" stroke="#63b8ff" d="M652.62,-164.98C599.96,-155.62 515.39,-140.58 459.39,-130.62"/>
<polygon fill="#63b8ff" stroke="#63b8ff" points="459.74,-127.12 449.28,-128.82 458.51,-134.02 459.74,-127.12"/>
</a>
</g>
</g>
<!-- Node38 -->
<g id="Node000038" class="node">
<title>Node38</title>
<g id="a_Node000038"><a xlink:title=" ">
<polygon fill="#e0e0e0" stroke="#999999" points="827.5,-129 779.5,-129 779.5,-110 827.5,-110 827.5,-129"/>
<text text-anchor="middle" x="803.5" y="-117" font-family="Helvetica,sans-Serif" font-size="10.00">mutex</text>
</a>
</g>
</g>
<!-- Node37&#45;&gt;Node38 -->
<g id="edge24_Node000037_Node000038" class="edge">
<title>Node37&#45;&gt;Node38</title>
<g id="a_edge24_Node000037_Node000038"><a xlink:title=" ">
<path fill="none" stroke="#63b8ff" d="M717.05,-164.98C733.39,-156.57 758.63,-143.59 777.63,-133.81"/>
<polygon fill="#63b8ff" stroke="#63b8ff" points="779.36,-136.86 786.65,-129.17 776.16,-130.63 779.36,-136.86"/>
</a>
</g>
</g>
<!-- Node39 -->
<g id="Node000039" class="node">
<title>Node39</title>
<g id="a_Node000039"><a xlink:href="../../d2/d49/global_8h.html" target="_top" xlink:title="This file contains definitions for utility functions and text for modules, inputfiles and logging,...">
<polygon fill="white" stroke="#666666" points="761.5,-129 639.5,-129 639.5,-110 761.5,-110 761.5,-129"/>
<text text-anchor="middle" x="700.5" y="-117" font-family="Helvetica,sans-Serif" font-size="10.00">cantera/base/global.h</text>
</a>
</g>
</g>
<!-- Node37&#45;&gt;Node39 -->
<g id="edge27_Node000037_Node000039" class="edge">
<title>Node37&#45;&gt;Node39</title>
<g id="a_edge27_Node000037_Node000039"><a xlink:title=" ">
<path fill="none" stroke="#63b8ff" d="M700.5,-164.75C700.5,-157.8 700.5,-147.85 700.5,-139.13"/>
<polygon fill="#63b8ff" stroke="#63b8ff" points="704,-139.09 700.5,-129.09 697,-139.09 704,-139.09"/>
</a>
</g>
</g>
<!-- Node39&#45;&gt;Node7 -->
<g id="edge28_Node000039_Node000007" class="edge">
<title>Node39&#45;&gt;Node7</title>
<g id="a_edge28_Node000039_Node000007"><a xlink:title=" ">
<path fill="none" stroke="#63b8ff" d="M691.29,-109.89C676.42,-96.42 645.74,-70.31 615.5,-55 581.62,-37.85 539.92,-25.95 509.78,-18.81"/>
<polygon fill="#63b8ff" stroke="#63b8ff" points="510.55,-15.39 500.02,-16.56 508.98,-22.22 510.55,-15.39"/>
</a>
</g>
</g>
<!-- Node39&#45;&gt;Node18 -->
<g id="edge29_Node000039_Node000018" class="edge">
<title>Node39&#45;&gt;Node18</title>
<g id="a_edge29_Node000039_Node000018"><a xlink:title=" ">
<path fill="none" stroke="#63b8ff" d="M676.72,-109.98C652.27,-101.23 613.97,-87.51 586.35,-77.62"/>
<polygon fill="#63b8ff" stroke="#63b8ff" points="587.31,-74.25 576.71,-74.17 584.95,-80.84 587.31,-74.25"/>
</a>
</g>
</g>
<!-- Node40&#45;&gt;Node7 -->
<g id="edge31_Node000040_Node000007" class="edge">
<title>Node40&#45;&gt;Node7</title>
<g id="a_edge31_Node000040_Node000007"><a xlink:title=" ">
<path fill="none" stroke="#63b8ff" d="M728.01,-54.98C667.5,-44.57 566.23,-27.14 510.08,-17.48"/>
<polygon fill="#63b8ff" stroke="#63b8ff" points="510.59,-14.02 500.14,-15.77 509.41,-20.92 510.59,-14.02"/>
</a>
</g>
</g>
<!-- Node41&#45;&gt;Node7 -->
<g id="edge33_Node000041_Node000007" class="edge">
<title>Node41&#45;&gt;Node7</title>
<g id="a_edge33_Node000041_Node000007"><a xlink:title=" ">
<path fill="none" stroke="#63b8ff" d="M939.99,-335.27C925.15,-317.08 893.5,-273.27 893.5,-230.5 893.5,-230.5 893.5,-230.5 893.5,-118.5 893.5,-86.06 884.55,-72.9 857.5,-55 801.26,-17.78 598.17,-11.54 510.39,-10.6"/>
<polygon fill="#63b8ff" stroke="#63b8ff" points="510.3,-7.1 500.27,-10.51 510.24,-14.1 510.3,-7.1"/>
</a>
</g>
</g>
<!-- Node42 -->
<g id="Node000042" class="node">
<title>Node42</title>
<g id="a_Node000042"><a xlink:title=" ">
<polygon fill="#e0e0e0" stroke="#999999" points="977.5,-294 921.5,-294 921.5,-275 977.5,-275 977.5,-294"/>
<text text-anchor="middle" x="949.5" y="-282" font-family="Helvetica,sans-Serif" font-size="10.00">numeric</text>
</a>
</g>
</g>
<!-- Node41&#45;&gt;Node42 -->
<g id="edge34_Node000041_Node000042" class="edge">
<title>Node41&#45;&gt;Node42</title>
<g id="a_edge34_Node000041_Node000042"><a xlink:title=" ">
<path fill="none" stroke="#63b8ff" d="M947.8,-335.37C948.07,-327.25 948.5,-314.81 948.85,-304.39"/>
<polygon fill="#63b8ff" stroke="#63b8ff" points="952.36,-304.28 949.2,-294.17 945.36,-304.04 952.36,-304.28"/>
</a>
</g>
</g>
<!-- Node43&#45;&gt;Node7 -->
<g id="edge36_Node000043_Node000007" class="edge">
<title>Node43&#45;&gt;Node7</title>
<g id="a_edge36_Node000043_Node000007"><a xlink:title=" ">
<path fill="none" stroke="#63b8ff" d="M71.02,-219.88C73.24,-191.12 84.58,-97.9 139.5,-55 183.66,-20.5 350.21,-12.73 428.44,-10.99"/>
<polygon fill="#63b8ff" stroke="#63b8ff" points="428.94,-14.49 438.87,-10.79 428.8,-7.49 428.94,-14.49"/>
</a>
</g>
</g>
<!-- Node43&#45;&gt;Node28 -->
<g id="edge37_Node000043_Node000028" class="edge">
<title>Node43&#45;&gt;Node28</title>
<g id="a_edge37_Node000043_Node000028"><a xlink:title=" ">
<path fill="none" stroke="#63b8ff" d="M111.47,-219.98C155.76,-210.78 226.44,-196.09 274.35,-186.13"/>
<polygon fill="#63b8ff" stroke="#63b8ff" points="275.13,-189.54 284.21,-184.08 273.71,-182.69 275.13,-189.54"/>
</a>
</g>
</g>
</g>
</svg>
