<?xml version="1.0" encoding="UTF-8" standalone="no"?>
<!DOCTYPE svg PUBLIC "-//W3C//DTD SVG 1.1//EN"
 "http://www.w3.org/Graphics/SVG/1.1/DTD/svg11.dtd">
<!-- Generated by graphviz version 2.43.0 (0)
 -->
<!-- Title: MolalityVPSSTP.h Pages: 1 -->
<svg width="753pt" height="140pt"
 viewBox="0.00 0.00 753.00 140.00" xmlns="http://www.w3.org/2000/svg" xmlns:xlink="http://www.w3.org/1999/xlink">
<g id="graph0" class="graph" transform="scale(1 1) rotate(0) translate(4 136)">
<title>MolalityVPSSTP.h</title>
<polygon fill="white" stroke="transparent" points="-4,4 -4,-136 749,-136 749,4 -4,4"/>
<!-- Node1 -->
<g id="node1" class="node">
<title>Node1</title>
<g id="a_node1"><a xlink:title="Header for intermediate ThermoPhase object for phases which employ molality based activity coefficien...">
<polygon fill="#bfbfbf" stroke="black" points="258,-112.5 258,-131.5 359,-131.5 359,-112.5 258,-112.5"/>
<text text-anchor="middle" x="308.5" y="-119.5" font-family="Helvetica,sans-Serif" font-size="10.00">MolalityVPSSTP.h</text>
</a>
</g>
</g>
<!-- Node2 -->
<g id="node2" class="node">
<title>Node2</title>
<g id="a_node2"><a xlink:href="../../d1/dd3/MultiPhaseEquil_8cpp.html" target="_top" xlink:title=" ">
<polygon fill="white" stroke="black" points="0,-56.5 0,-75.5 115,-75.5 115,-56.5 0,-56.5"/>
<text text-anchor="middle" x="57.5" y="-63.5" font-family="Helvetica,sans-Serif" font-size="10.00">MultiPhaseEquil.cpp</text>
</a>
</g>
</g>
<!-- Node1&#45;&gt;Node2 -->
<g id="edge1" class="edge">
<title>Node1&#45;&gt;Node2</title>
<path fill="none" stroke="midnightblue" d="M258.68,-110.28C211.25,-100.08 140.8,-84.92 97.09,-75.52"/>
<polygon fill="midnightblue" stroke="midnightblue" points="258.22,-113.76 268.73,-112.44 259.69,-106.92 258.22,-113.76"/>
</g>
<!-- Node3 -->
<g id="node3" class="node">
<title>Node3</title>
<g id="a_node3"><a xlink:href="../../db/dd7/MolalityVPSSTP_8cpp.html" target="_top" xlink:title="Definitions for intermediate ThermoPhase object for phases which employ molality based activity coeff...">
<polygon fill="white" stroke="black" points="133.5,-56.5 133.5,-75.5 245.5,-75.5 245.5,-56.5 133.5,-56.5"/>
<text text-anchor="middle" x="189.5" y="-63.5" font-family="Helvetica,sans-Serif" font-size="10.00">MolalityVPSSTP.cpp</text>
</a>
</g>
</g>
<!-- Node1&#45;&gt;Node3 -->
<g id="edge2" class="edge">
<title>Node1&#45;&gt;Node3</title>
<path fill="none" stroke="midnightblue" d="M280.36,-108.23C258.1,-98.13 227.64,-84.31 208.27,-75.52"/>
<polygon fill="midnightblue" stroke="midnightblue" points="279.09,-111.5 289.64,-112.44 281.98,-105.12 279.09,-111.5"/>
</g>
<!-- Node4 -->
<g id="node4" class="node">
<title>Node4</title>
<g id="a_node4"><a xlink:href="../../de/dd9/DebyeHuckel_8h.html" target="_top" xlink:title="Headers for the DebyeHuckel ThermoPhase object, which models dilute electrolyte solutions (see Thermo...">
<polygon fill="white" stroke="black" points="263.5,-56.5 263.5,-75.5 353.5,-75.5 353.5,-56.5 263.5,-56.5"/>
<text text-anchor="middle" x="308.5" y="-63.5" font-family="Helvetica,sans-Serif" font-size="10.00">DebyeHuckel.h</text>
</a>
</g>
</g>
<!-- Node1&#45;&gt;Node4 -->
<g id="edge3" class="edge">
<title>Node1&#45;&gt;Node4</title>
<path fill="none" stroke="midnightblue" d="M308.5,-101.8C308.5,-92.91 308.5,-82.78 308.5,-75.75"/>
<polygon fill="midnightblue" stroke="midnightblue" points="305,-102.08 308.5,-112.08 312,-102.08 305,-102.08"/>
</g>
<!-- Node7 -->
<g id="node7" class="node">
<title>Node7</title>
<g id="a_node7"><a xlink:href="../../d0/d16/HMWSoln_8h.html" target="_top" xlink:title="Headers for the HMWSoln ThermoPhase object, which models concentrated electrolyte solutions (see Ther...">
<polygon fill="white" stroke="black" points="372,-56.5 372,-75.5 445,-75.5 445,-56.5 372,-56.5"/>
<text text-anchor="middle" x="408.5" y="-63.5" font-family="Helvetica,sans-Serif" font-size="10.00">HMWSoln.h</text>
</a>
</g>
</g>
<!-- Node1&#45;&gt;Node7 -->
<g id="edge6" class="edge">
<title>Node1&#45;&gt;Node7</title>
<path fill="none" stroke="midnightblue" d="M333.59,-107.45C352.05,-97.48 376.6,-84.23 392.47,-75.65"/>
<polygon fill="midnightblue" stroke="midnightblue" points="331.7,-104.49 324.57,-112.32 335.03,-110.65 331.7,-104.49"/>
</g>
<!-- Node9 -->
<g id="node9" class="node">
<title>Node9</title>
<g id="a_node9"><a xlink:href="../../d5/db6/IdealMolalSoln_8h.html" target="_top" xlink:title="ThermoPhase object for the ideal molal equation of state (see Thermodynamic Properties and class Idea...">
<polygon fill="white" stroke="black" points="475.5,-56.5 475.5,-75.5 573.5,-75.5 573.5,-56.5 475.5,-56.5"/>
<text text-anchor="middle" x="524.5" y="-63.5" font-family="Helvetica,sans-Serif" font-size="10.00">IdealMolalSoln.h</text>
</a>
</g>
</g>
<!-- Node1&#45;&gt;Node9 -->
<g id="edge9" class="edge">
<title>Node1&#45;&gt;Node9</title>
<path fill="none" stroke="midnightblue" d="M352.66,-109.96C393.46,-99.76 453.21,-84.82 490.43,-75.52"/>
<polygon fill="midnightblue" stroke="midnightblue" points="351.58,-106.62 342.73,-112.44 353.28,-113.41 351.58,-106.62"/>
</g>
<!-- Node5 -->
<g id="node5" class="node">
<title>Node5</title>
<g id="a_node5"><a xlink:href="../../dc/ddc/DebyeHuckel_8cpp.html" target="_top" xlink:title="Declarations for the DebyeHuckel ThermoPhase object, which models dilute electrolyte solutions (see T...">
<polygon fill="white" stroke="black" points="133,-0.5 133,-19.5 234,-19.5 234,-0.5 133,-0.5"/>
<text text-anchor="middle" x="183.5" y="-7.5" font-family="Helvetica,sans-Serif" font-size="10.00">DebyeHuckel.cpp</text>
</a>
</g>
</g>
<!-- Node4&#45;&gt;Node5 -->
<g id="edge4" class="edge">
<title>Node4&#45;&gt;Node5</title>
<path fill="none" stroke="midnightblue" d="M279.26,-52.37C255.85,-42.26 223.66,-28.35 203.21,-19.52"/>
<polygon fill="midnightblue" stroke="midnightblue" points="278.13,-55.69 288.69,-56.44 280.9,-49.26 278.13,-55.69"/>
</g>
<!-- Node6 -->
<g id="node6" class="node">
<title>Node6</title>
<g id="a_node6"><a xlink:href="../../d2/d3a/ThermoFactory_8cpp.html" target="_top" xlink:title="Definitions for the factory class that can create known ThermoPhase objects (see Thermodynamic Proper...">
<polygon fill="white" stroke="black" points="354.5,-0.5 354.5,-19.5 462.5,-19.5 462.5,-0.5 354.5,-0.5"/>
<text text-anchor="middle" x="408.5" y="-7.5" font-family="Helvetica,sans-Serif" font-size="10.00">ThermoFactory.cpp</text>
</a>
</g>
</g>
<!-- Node4&#45;&gt;Node6 -->
<g id="edge5" class="edge">
<title>Node4&#45;&gt;Node6</title>
<path fill="none" stroke="midnightblue" d="M333.59,-51.45C352.05,-41.48 376.6,-28.23 392.47,-19.65"/>
<polygon fill="midnightblue" stroke="midnightblue" points="331.7,-48.49 324.57,-56.32 335.03,-54.65 331.7,-48.49"/>
</g>
<!-- Node7&#45;&gt;Node6 -->
<g id="edge8" class="edge">
<title>Node7&#45;&gt;Node6</title>
<path fill="none" stroke="midnightblue" d="M408.5,-45.8C408.5,-36.91 408.5,-26.78 408.5,-19.75"/>
<polygon fill="midnightblue" stroke="midnightblue" points="405,-46.08 408.5,-56.08 412,-46.08 405,-46.08"/>
</g>
<!-- Node8 -->
<g id="node8" class="node">
<title>Node8</title>
<g id="a_node8"><a xlink:href="../../d0/d0e/HMWSoln_8cpp.html" target="_top" xlink:title="Definitions for the HMWSoln ThermoPhase object, which models concentrated electrolyte solutions (see ...">
<polygon fill="white" stroke="black" points="252.5,-0.5 252.5,-19.5 336.5,-19.5 336.5,-0.5 252.5,-0.5"/>
<text text-anchor="middle" x="294.5" y="-7.5" font-family="Helvetica,sans-Serif" font-size="10.00">HMWSoln.cpp</text>
</a>
</g>
</g>
<!-- Node7&#45;&gt;Node8 -->
<g id="edge7" class="edge">
<title>Node7&#45;&gt;Node8</title>
<path fill="none" stroke="midnightblue" d="M381.26,-52.1C359.96,-42.01 330.96,-28.27 312.48,-19.52"/>
<polygon fill="midnightblue" stroke="midnightblue" points="379.9,-55.33 390.44,-56.44 382.9,-49 379.9,-55.33"/>
</g>
<!-- Node9&#45;&gt;Node6 -->
<g id="edge12" class="edge">
<title>Node9&#45;&gt;Node6</title>
<path fill="none" stroke="midnightblue" d="M496.78,-52.1C475.11,-42.01 445.6,-28.27 426.79,-19.52"/>
<polygon fill="midnightblue" stroke="midnightblue" points="495.58,-55.4 506.12,-56.44 498.53,-49.05 495.58,-55.4"/>
</g>
<!-- Node10 -->
<g id="node10" class="node">
<title>Node10</title>
<g id="a_node10"><a xlink:href="../../dc/d00/vcs__MultiPhaseEquil_8cpp.html" target="_top" xlink:title="Driver routine for the VCSnonideal equilibrium solver package.">
<polygon fill="white" stroke="black" points="608,-0.5 608,-19.5 745,-19.5 745,-0.5 608,-0.5"/>
<text text-anchor="middle" x="676.5" y="-7.5" font-family="Helvetica,sans-Serif" font-size="10.00">vcs_MultiPhaseEquil.cpp</text>
</a>
</g>
</g>
<!-- Node9&#45;&gt;Node10 -->
<g id="edge10" class="edge">
<title>Node9&#45;&gt;Node10</title>
<path fill="none" stroke="midnightblue" d="M558.17,-53.04C586.77,-42.88 627.11,-28.55 652.53,-19.52"/>
<polygon fill="midnightblue" stroke="midnightblue" points="556.84,-49.8 548.58,-56.44 559.18,-56.39 556.84,-49.8"/>
</g>
<!-- Node11 -->
<g id="node11" class="node">
<title>Node11</title>
<g id="a_node11"><a xlink:href="../../d3/d32/IdealMolalSoln_8cpp.html" target="_top" xlink:title="ThermoPhase object for the ideal molal equation of state (see Thermodynamic Properties and class Idea...">
<polygon fill="white" stroke="black" points="481,-0.5 481,-19.5 590,-19.5 590,-0.5 481,-0.5"/>
<text text-anchor="middle" x="535.5" y="-7.5" font-family="Helvetica,sans-Serif" font-size="10.00">IdealMolalSoln.cpp</text>
</a>
</g>
</g>
<!-- Node9&#45;&gt;Node11 -->
<g id="edge11" class="edge">
<title>Node9&#45;&gt;Node11</title>
<path fill="none" stroke="midnightblue" d="M528.35,-46.1C530.18,-37.14 532.27,-26.86 533.72,-19.75"/>
<polygon fill="midnightblue" stroke="midnightblue" points="524.88,-45.59 526.32,-56.08 531.74,-46.98 524.88,-45.59"/>
</g>
</g>
</svg>
