<?xml version="1.0" encoding="UTF-8" standalone="no"?>
<!DOCTYPE svg PUBLIC "-//W3C//DTD SVG 1.1//EN"
 "http://www.w3.org/Graphics/SVG/1.1/DTD/svg11.dtd">
<!-- Generated by graphviz version 6.0.1 (0)
 -->
<!-- Title: Boundary1D.cpp Pages: 1 -->
<svg width="1290pt" height="533pt"
 viewBox="0.00 0.00 1290.31 533.00" xmlns="http://www.w3.org/2000/svg" xmlns:xlink="http://www.w3.org/1999/xlink">
<g id="graph0" class="graph" transform="scale(1 1) rotate(0) translate(4 529)">
<title>Boundary1D.cpp</title>
<!-- Node1 -->
<g id="node1" class="node">
<title>Node1</title>
<g id="a_node1"><a xlink:title=" ">
<polygon fill="#999999" stroke="#666666" points="876.81,-525 787.81,-525 787.81,-506 876.81,-506 876.81,-525"/>
<text text-anchor="middle" x="832.31" y="-513" font-family="Helvetica,sans-Serif" font-size="10.00">Boundary1D.cpp</text>
</a>
</g>
</g>
<!-- Node2 -->
<g id="node2" class="node">
<title>Node2</title>
<g id="a_node2"><a xlink:href="../../db/df6/SolutionArray_8h.html" target="_top" xlink:title=" ">
<polygon fill="white" stroke="#666666" points="1111.81,-294 970.81,-294 970.81,-275 1111.81,-275 1111.81,-294"/>
<text text-anchor="middle" x="1041.31" y="-282" font-family="Helvetica,sans-Serif" font-size="10.00">cantera/base/SolutionArray.h</text>
</a>
</g>
</g>
<!-- Node1&#45;&gt;Node2 -->
<g id="edge1" class="edge">
<title>Node1&#45;&gt;Node2</title>
<path fill="none" stroke="#63b8ff" d="M838.15,-505.77C856.9,-478.12 918.03,-390.72 981.31,-330 992.94,-318.84 1007.42,-308.02 1019.25,-299.85"/>
<polygon fill="#63b8ff" stroke="#63b8ff" points="1021.35,-302.65 1027.68,-294.15 1017.43,-296.85 1021.35,-302.65"/>
</g>
<!-- Node26 -->
<g id="node26" class="node">
<title>Node26</title>
<g id="a_node26"><a xlink:href="../../dc/d7c/Boundary1D_8h.html" target="_top" xlink:title="Boundary objects for one&#45;dimensional simulations.">
<polygon fill="white" stroke="#666666" points="802.31,-470 662.31,-470 662.31,-451 802.31,-451 802.31,-470"/>
<text text-anchor="middle" x="732.31" y="-458" font-family="Helvetica,sans-Serif" font-size="10.00">cantera/oneD/Boundary1D.h</text>
</a>
</g>
</g>
<!-- Node1&#45;&gt;Node26 -->
<g id="edge31" class="edge">
<title>Node1&#45;&gt;Node26</title>
<path fill="none" stroke="#63b8ff" d="M816.24,-505.98C800.44,-497.61 776.09,-484.7 757.68,-474.95"/>
<polygon fill="#63b8ff" stroke="#63b8ff" points="759.14,-471.76 748.67,-470.17 755.86,-477.95 759.14,-471.76"/>
</g>
<!-- Node46 -->
<g id="node40" class="node">
<title>Node46</title>
<g id="a_node40"><a xlink:href="../../d7/d7c/StFlow_8h.html" target="_top" xlink:title=" ">
<polygon fill="white" stroke="#666666" points="567.31,-349 513.31,-349 513.31,-330 567.31,-330 567.31,-349"/>
<text text-anchor="middle" x="540.31" y="-337" font-family="Helvetica,sans-Serif" font-size="10.00">StFlow.h</text>
</a>
</g>
</g>
<!-- Node1&#45;&gt;Node46 -->
<g id="edge78" class="edge">
<title>Node1&#45;&gt;Node46</title>
<path fill="none" stroke="#63b8ff" d="M787.62,-507.3C708.2,-493.45 547.93,-460.41 517.31,-415 505.42,-397.36 516.79,-373.3 527.35,-357.35"/>
<polygon fill="#63b8ff" stroke="#63b8ff" points="530.34,-359.19 533.29,-349.01 524.64,-355.13 530.34,-359.19"/>
</g>
<!-- Node50 -->
<g id="node44" class="node">
<title>Node50</title>
<g id="a_node44"><a xlink:href="../../de/da1/OneDim_8h.html" target="_top" xlink:title=" ">
<polygon fill="white" stroke="#666666" points="1082.31,-409.5 960.31,-409.5 960.31,-390.5 1082.31,-390.5 1082.31,-409.5"/>
<text text-anchor="middle" x="1021.31" y="-397.5" font-family="Helvetica,sans-Serif" font-size="10.00">cantera/oneD/OneDim.h</text>
</a>
</g>
</g>
<!-- Node1&#45;&gt;Node50 -->
<g id="edge69" class="edge">
<title>Node1&#45;&gt;Node50</title>
<path fill="none" stroke="#63b8ff" d="M863.28,-505.86C887.07,-498.42 920.17,-486.31 946.31,-470 969.86,-455.3 992.72,-432.69 1006.89,-417.4"/>
<polygon fill="#63b8ff" stroke="#63b8ff" points="1009.7,-419.51 1013.81,-409.75 1004.51,-414.81 1009.7,-419.51"/>
</g>
<!-- Node3 -->
<g id="node3" class="node">
<title>Node3</title>
<g id="a_node3"><a xlink:href="../../d2/d49/global_8h.html" target="_top" xlink:title="This file contains definitions for utility functions and text for modules, inputfiles,...">
<polygon fill="white" stroke="#666666" points="1156.31,-184 1046.31,-184 1046.31,-165 1156.31,-165 1156.31,-184"/>
<text text-anchor="middle" x="1101.31" y="-172" font-family="Helvetica,sans-Serif" font-size="10.00">cantera/base/global.h</text>
</a>
</g>
</g>
<!-- Node2&#45;&gt;Node3 -->
<g id="edge2" class="edge">
<title>Node2&#45;&gt;Node3</title>
<path fill="none" stroke="#63b8ff" d="M1061.83,-275C1076.33,-267.77 1094.66,-255.86 1103.31,-239 1110.39,-225.2 1109.09,-207.4 1106.48,-194.16"/>
<polygon fill="#63b8ff" stroke="#63b8ff" points="1109.85,-193.21 1104.13,-184.3 1103.04,-194.84 1109.85,-193.21"/>
</g>
<!-- Node18 -->
<g id="node18" class="node">
<title>Node18</title>
<g id="a_node18"><a xlink:href="../../dd/d2a/AnyMap_8h.html" target="_top" xlink:title=" ">
<polygon fill="white" stroke="#666666" points="479.31,-239 359.31,-239 359.31,-220 479.31,-220 479.31,-239"/>
<text text-anchor="middle" x="419.31" y="-227" font-family="Helvetica,sans-Serif" font-size="10.00">cantera/base/AnyMap.h</text>
</a>
</g>
</g>
<!-- Node2&#45;&gt;Node18 -->
<g id="edge18" class="edge">
<title>Node2&#45;&gt;Node18</title>
<path fill="none" stroke="#63b8ff" d="M970.51,-278.76C867.2,-271.64 668.8,-257.15 489.64,-239.1"/>
<polygon fill="#63b8ff" stroke="#63b8ff" points="489.8,-235.59 479.5,-238.07 489.1,-242.56 489.8,-235.59"/>
</g>
<!-- Node4 -->
<g id="node4" class="node">
<title>Node4</title>
<g id="a_node4"><a xlink:href="../../d9/ddc/ct__defs_8h.html" target="_top" xlink:title="This file contains definitions of constants, types and terms that are used in internal routines and a...">
<polygon fill="white" stroke="#666666" points="816.81,-74 759.81,-74 759.81,-55 816.81,-55 816.81,-74"/>
<text text-anchor="middle" x="788.31" y="-62" font-family="Helvetica,sans-Serif" font-size="10.00">ct_defs.h</text>
</a>
</g>
</g>
<!-- Node3&#45;&gt;Node4 -->
<g id="edge3" class="edge">
<title>Node3&#45;&gt;Node4</title>
<path fill="none" stroke="#63b8ff" d="M1094.73,-164.88C1083.56,-150.9 1059.41,-123.5 1032.31,-110 965.38,-76.66 876.98,-68.08 827.03,-66"/>
<polygon fill="#63b8ff" stroke="#63b8ff" points="827.1,-62.5 816.98,-65.65 826.85,-69.5 827.1,-62.5"/>
</g>
<!-- Node15 -->
<g id="node15" class="node">
<title>Node15</title>
<g id="a_node15"><a xlink:href="../../db/def/fmt_8h.html" target="_top" xlink:title="Wrapper for either system&#45;installed or local headers for fmt.">
<polygon fill="white" stroke="#666666" points="1182.31,-129 1084.31,-129 1084.31,-110 1182.31,-110 1182.31,-129"/>
<text text-anchor="middle" x="1133.31" y="-117" font-family="Helvetica,sans-Serif" font-size="10.00">cantera/base/fmt.h</text>
</a>
</g>
</g>
<!-- Node3&#45;&gt;Node15 -->
<g id="edge14" class="edge">
<title>Node3&#45;&gt;Node15</title>
<path fill="none" stroke="#63b8ff" d="M1106.59,-164.75C1111.02,-157.42 1117.47,-146.73 1122.93,-137.7"/>
<polygon fill="#63b8ff" stroke="#63b8ff" points="1125.95,-139.46 1128.12,-129.09 1119.96,-135.84 1125.95,-139.46"/>
</g>
<!-- Node5 -->
<g id="node5" class="node">
<title>Node5</title>
<g id="a_node5"><a xlink:href="../../db/d16/config_8h_source.html" target="_top" xlink:title=" ">
<polygon fill="white" stroke="#666666" points="538.81,-19 487.81,-19 487.81,0 538.81,0 538.81,-19"/>
<text text-anchor="middle" x="513.31" y="-7" font-family="Helvetica,sans-Serif" font-size="10.00">config.h</text>
</a>
</g>
</g>
<!-- Node4&#45;&gt;Node5 -->
<g id="edge4" class="edge">
<title>Node4&#45;&gt;Node5</title>
<path fill="none" stroke="#63b8ff" d="M759.76,-58.73C716.41,-51.37 631.16,-36.46 548.67,-18.97"/>
<polygon fill="#63b8ff" stroke="#63b8ff" points="549.4,-15.55 538.89,-16.88 547.93,-22.39 549.4,-15.55"/>
</g>
<!-- Node6 -->
<g id="node6" class="node">
<title>Node6</title>
<g id="a_node6"><a xlink:title=" ">
<polygon fill="#e0e0e0" stroke="#999999" points="601.31,-19 557.31,-19 557.31,0 601.31,0 601.31,-19"/>
<text text-anchor="middle" x="579.31" y="-7" font-family="Helvetica,sans-Serif" font-size="10.00">cmath</text>
</a>
</g>
</g>
<!-- Node4&#45;&gt;Node6 -->
<g id="edge5" class="edge">
<title>Node4&#45;&gt;Node6</title>
<path fill="none" stroke="#63b8ff" d="M759.59,-56.53C726.22,-48.39 669.26,-34.35 611.32,-19.22"/>
<polygon fill="#63b8ff" stroke="#63b8ff" points="612.2,-15.84 601.64,-16.69 610.43,-22.61 612.2,-15.84"/>
</g>
<!-- Node7 -->
<g id="node7" class="node">
<title>Node7</title>
<g id="a_node7"><a xlink:title=" ">
<polygon fill="#e0e0e0" stroke="#999999" points="664.81,-19 619.81,-19 619.81,0 664.81,0 664.81,-19"/>
<text text-anchor="middle" x="642.31" y="-7" font-family="Helvetica,sans-Serif" font-size="10.00">cstdlib</text>
</a>
</g>
</g>
<!-- Node4&#45;&gt;Node7 -->
<g id="edge6" class="edge">
<title>Node4&#45;&gt;Node7</title>
<path fill="none" stroke="#63b8ff" d="M764.85,-54.98C740.44,-46.12 702.04,-32.18 674.74,-22.27"/>
<polygon fill="#63b8ff" stroke="#63b8ff" points="675.82,-18.94 665.23,-18.82 673.43,-25.52 675.82,-18.94"/>
</g>
<!-- Node8 -->
<g id="node8" class="node">
<title>Node8</title>
<g id="a_node8"><a xlink:title=" ">
<polygon fill="#e0e0e0" stroke="#999999" points="727.31,-19 683.31,-19 683.31,0 727.31,0 727.31,-19"/>
<text text-anchor="middle" x="705.31" y="-7" font-family="Helvetica,sans-Serif" font-size="10.00">vector</text>
</a>
</g>
</g>
<!-- Node4&#45;&gt;Node8 -->
<g id="edge7" class="edge">
<title>Node4&#45;&gt;Node8</title>
<path fill="none" stroke="#63b8ff" d="M774.97,-54.98C762.22,-46.84 742.76,-34.41 727.64,-24.76"/>
<polygon fill="#63b8ff" stroke="#63b8ff" points="729.2,-21.6 718.89,-19.17 725.43,-27.5 729.2,-21.6"/>
</g>
<!-- Node9 -->
<g id="node9" class="node">
<title>Node9</title>
<g id="a_node9"><a xlink:title=" ">
<polygon fill="#e0e0e0" stroke="#999999" points="780.81,-19 745.81,-19 745.81,0 780.81,0 780.81,-19"/>
<text text-anchor="middle" x="763.31" y="-7" font-family="Helvetica,sans-Serif" font-size="10.00">map</text>
</a>
</g>
</g>
<!-- Node4&#45;&gt;Node9 -->
<g id="edge8" class="edge">
<title>Node4&#45;&gt;Node9</title>
<path fill="none" stroke="#63b8ff" d="M784.18,-54.75C780.79,-47.57 775.89,-37.18 771.69,-28.27"/>
<polygon fill="#63b8ff" stroke="#63b8ff" points="774.79,-26.64 767.36,-19.09 768.46,-29.63 774.79,-26.64"/>
</g>
<!-- Node10 -->
<g id="node10" class="node">
<title>Node10</title>
<g id="a_node10"><a xlink:title=" ">
<polygon fill="#e0e0e0" stroke="#999999" points="829.31,-19 799.31,-19 799.31,0 829.31,0 829.31,-19"/>
<text text-anchor="middle" x="814.31" y="-7" font-family="Helvetica,sans-Serif" font-size="10.00">set</text>
</a>
</g>
</g>
<!-- Node4&#45;&gt;Node10 -->
<g id="edge9" class="edge">
<title>Node4&#45;&gt;Node10</title>
<path fill="none" stroke="#63b8ff" d="M792.6,-54.75C796.12,-47.57 801.22,-37.18 805.59,-28.27"/>
<polygon fill="#63b8ff" stroke="#63b8ff" points="808.83,-29.61 810.1,-19.09 802.55,-26.53 808.83,-29.61"/>
</g>
<!-- Node11 -->
<g id="node11" class="node">
<title>Node11</title>
<g id="a_node11"><a xlink:title=" ">
<polygon fill="#e0e0e0" stroke="#999999" points="888.81,-19 847.81,-19 847.81,0 888.81,0 888.81,-19"/>
<text text-anchor="middle" x="868.31" y="-7" font-family="Helvetica,sans-Serif" font-size="10.00">string</text>
</a>
</g>
</g>
<!-- Node4&#45;&gt;Node11 -->
<g id="edge10" class="edge">
<title>Node4&#45;&gt;Node11</title>
<path fill="none" stroke="#63b8ff" d="M801.16,-54.98C813.45,-46.84 832.21,-34.41 846.79,-24.76"/>
<polygon fill="#63b8ff" stroke="#63b8ff" points="848.82,-27.61 855.22,-19.17 844.95,-21.78 848.82,-27.61"/>
</g>
<!-- Node12 -->
<g id="node12" class="node">
<title>Node12</title>
<g id="a_node12"><a xlink:title=" ">
<polygon fill="#e0e0e0" stroke="#999999" points="963.31,-19 907.31,-19 907.31,0 963.31,0 963.31,-19"/>
<text text-anchor="middle" x="935.31" y="-7" font-family="Helvetica,sans-Serif" font-size="10.00">algorithm</text>
</a>
</g>
</g>
<!-- Node4&#45;&gt;Node12 -->
<g id="edge11" class="edge">
<title>Node4&#45;&gt;Node12</title>
<path fill="none" stroke="#63b8ff" d="M811.93,-54.98C836.21,-46.23 874.26,-32.51 901.68,-22.62"/>
<polygon fill="#63b8ff" stroke="#63b8ff" points="903.04,-25.85 911.26,-19.17 900.67,-19.27 903.04,-25.85"/>
</g>
<!-- Node13 -->
<g id="node13" class="node">
<title>Node13</title>
<g id="a_node13"><a xlink:title=" ">
<polygon fill="#e0e0e0" stroke="#999999" points="1033.31,-19 981.31,-19 981.31,0 1033.31,0 1033.31,-19"/>
<text text-anchor="middle" x="1007.31" y="-7" font-family="Helvetica,sans-Serif" font-size="10.00">memory</text>
</a>
</g>
</g>
<!-- Node4&#45;&gt;Node13 -->
<g id="edge12" class="edge">
<title>Node4&#45;&gt;Node13</title>
<path fill="none" stroke="#63b8ff" d="M816.99,-56.57C851.29,-48.29 910.68,-33.93 970.88,-19.34"/>
<polygon fill="#63b8ff" stroke="#63b8ff" points="972.04,-22.66 980.94,-16.91 970.39,-15.86 972.04,-22.66"/>
</g>
<!-- Node14 -->
<g id="node14" class="node">
<title>Node14</title>
<g id="a_node14"><a xlink:title=" ">
<polygon fill="#e0e0e0" stroke="#999999" points="1110.81,-19 1051.81,-19 1051.81,0 1110.81,0 1110.81,-19"/>
<text text-anchor="middle" x="1081.31" y="-7" font-family="Helvetica,sans-Serif" font-size="10.00">functional</text>
</a>
</g>
</g>
<!-- Node4&#45;&gt;Node14 -->
<g id="edge13" class="edge">
<title>Node4&#45;&gt;Node14</title>
<path fill="none" stroke="#63b8ff" d="M816.95,-58.88C862.36,-51.46 953.89,-36.17 1041.67,-19.06"/>
<polygon fill="#63b8ff" stroke="#63b8ff" points="1042.38,-22.48 1051.52,-17.12 1041.04,-15.61 1042.38,-22.48"/>
</g>
<!-- Node15&#45;&gt;Node4 -->
<g id="edge15" class="edge">
<title>Node15&#45;&gt;Node4</title>
<path fill="none" stroke="#63b8ff" d="M1084.24,-110.96C1014.99,-100.32 889.99,-81.12 826.92,-71.43"/>
<polygon fill="#63b8ff" stroke="#63b8ff" points="827.4,-67.96 816.99,-69.91 826.34,-74.88 827.4,-67.96"/>
</g>
<!-- Node16 -->
<g id="node16" class="node">
<title>Node16</title>
<g id="a_node16"><a xlink:title=" ">
<polygon fill="#e0e0e0" stroke="#999999" points="1122.31,-74 1000.31,-74 1000.31,-55 1122.31,-55 1122.31,-74"/>
<text text-anchor="middle" x="1061.31" y="-62" font-family="Helvetica,sans-Serif" font-size="10.00">cantera/ext/fmt/format.h</text>
</a>
</g>
</g>
<!-- Node15&#45;&gt;Node16 -->
<g id="edge16" class="edge">
<title>Node15&#45;&gt;Node16</title>
<path fill="none" stroke="#63b8ff" d="M1121.74,-109.98C1110.89,-102 1094.43,-89.88 1081.43,-80.31"/>
<polygon fill="#63b8ff" stroke="#63b8ff" points="1083.22,-77.28 1073.09,-74.17 1079.07,-82.92 1083.22,-77.28"/>
</g>
<!-- Node17 -->
<g id="node17" class="node">
<title>Node17</title>
<g id="a_node17"><a xlink:title=" ">
<polygon fill="#e0e0e0" stroke="#999999" points="1269.81,-74 1140.81,-74 1140.81,-55 1269.81,-55 1269.81,-74"/>
<text text-anchor="middle" x="1205.31" y="-62" font-family="Helvetica,sans-Serif" font-size="10.00">cantera/ext/fmt/ostream.h</text>
</a>
</g>
</g>
<!-- Node15&#45;&gt;Node17 -->
<g id="edge17" class="edge">
<title>Node15&#45;&gt;Node17</title>
<path fill="none" stroke="#63b8ff" d="M1144.88,-109.98C1155.73,-102 1172.19,-89.88 1185.19,-80.31"/>
<polygon fill="#63b8ff" stroke="#63b8ff" points="1187.55,-82.92 1193.53,-74.17 1183.4,-77.28 1187.55,-82.92"/>
</g>
<!-- Node18&#45;&gt;Node4 -->
<g id="edge19" class="edge">
<title>Node18&#45;&gt;Node4</title>
<path fill="none" stroke="#63b8ff" d="M359.17,-221.8C289.41,-213.41 182.36,-198.4 170.31,-184 164.89,-177.52 164.83,-171.43 170.31,-165 245.63,-76.58 626.08,-66.45 749.55,-65.51"/>
<polygon fill="#63b8ff" stroke="#63b8ff" points="749.7,-69.01 759.68,-65.45 749.66,-62.01 749.7,-69.01"/>
</g>
<!-- Node19 -->
<g id="node19" class="node">
<title>Node19</title>
<g id="a_node19"><a xlink:href="../../db/d98/ctexceptions_8h.html" target="_top" xlink:title="Definitions for the classes that are thrown when Cantera experiences an error condition (also contain...">
<polygon fill="white" stroke="#666666" points="858.31,-184 718.31,-184 718.31,-165 858.31,-165 858.31,-184"/>
<text text-anchor="middle" x="788.31" y="-172" font-family="Helvetica,sans-Serif" font-size="10.00">cantera/base/ctexceptions.h</text>
</a>
</g>
</g>
<!-- Node18&#45;&gt;Node19 -->
<g id="edge20" class="edge">
<title>Node18&#45;&gt;Node19</title>
<path fill="none" stroke="#63b8ff" d="M478.59,-219.98C544.13,-210.57 649.57,-195.43 718.91,-185.47"/>
<polygon fill="#63b8ff" stroke="#63b8ff" points="719.46,-188.92 728.86,-184.04 718.47,-182 719.46,-188.92"/>
</g>
<!-- Node21 -->
<g id="node21" class="node">
<title>Node21</title>
<g id="a_node21"><a xlink:href="../../da/d58/Units_8h.html" target="_top" xlink:title="Header for unit conversion utilities, which are used to translate user input from input files (See In...">
<polygon fill="white" stroke="#666666" points="122.81,-184 15.81,-184 15.81,-165 122.81,-165 122.81,-184"/>
<text text-anchor="middle" x="69.31" y="-172" font-family="Helvetica,sans-Serif" font-size="10.00">cantera/base/Units.h</text>
</a>
</g>
</g>
<!-- Node18&#45;&gt;Node21 -->
<g id="edge24" class="edge">
<title>Node18&#45;&gt;Node21</title>
<path fill="none" stroke="#63b8ff" d="M363.07,-219.98C300.25,-210.47 198.77,-195.1 133.05,-185.15"/>
<polygon fill="#63b8ff" stroke="#63b8ff" points="133.23,-181.64 122.82,-183.6 132.18,-188.56 133.23,-181.64"/>
</g>
<!-- Node22 -->
<g id="node22" class="node">
<title>Node22</title>
<g id="a_node22"><a xlink:title=" ">
<polygon fill="#e0e0e0" stroke="#999999" points="413.81,-184 330.81,-184 330.81,-165 413.81,-165 413.81,-184"/>
<text text-anchor="middle" x="372.31" y="-172" font-family="Helvetica,sans-Serif" font-size="10.00">unordered_map</text>
</a>
</g>
</g>
<!-- Node18&#45;&gt;Node22 -->
<g id="edge26" class="edge">
<title>Node18&#45;&gt;Node22</title>
<path fill="none" stroke="#63b8ff" d="M411.55,-219.75C404.84,-212.18 394.97,-201.05 386.8,-191.84"/>
<polygon fill="#63b8ff" stroke="#63b8ff" points="389.18,-189.25 379.93,-184.09 383.94,-193.89 389.18,-189.25"/>
</g>
<!-- Node23 -->
<g id="node23" class="node">
<title>Node23</title>
<g id="a_node23"><a xlink:title=" ">
<polygon fill="#e0e0e0" stroke="#999999" points="494.31,-184 432.31,-184 432.31,-165 494.31,-165 494.31,-184"/>
<text text-anchor="middle" x="463.31" y="-172" font-family="Helvetica,sans-Serif" font-size="10.00">filesystem</text>
</a>
</g>
</g>
<!-- Node18&#45;&gt;Node23 -->
<g id="edge27" class="edge">
<title>Node18&#45;&gt;Node23</title>
<path fill="none" stroke="#63b8ff" d="M426.57,-219.75C432.85,-212.18 442.1,-201.05 449.74,-191.84"/>
<polygon fill="#63b8ff" stroke="#63b8ff" points="452.48,-194.02 456.18,-184.09 447.1,-189.55 452.48,-194.02"/>
</g>
<!-- Node24 -->
<g id="node24" class="node">
<title>Node24</title>
<g id="a_node24"><a xlink:title=" ">
<polygon fill="#e0e0e0" stroke="#999999" points="544.31,-184 512.31,-184 512.31,-165 544.31,-165 544.31,-184"/>
<text text-anchor="middle" x="528.31" y="-172" font-family="Helvetica,sans-Serif" font-size="10.00">any</text>
</a>
</g>
</g>
<!-- Node18&#45;&gt;Node24 -->
<g id="edge28" class="edge">
<title>Node18&#45;&gt;Node24</title>
<path fill="none" stroke="#63b8ff" d="M436.82,-219.98C454.8,-211.24 482.94,-197.56 503.26,-187.68"/>
<polygon fill="#63b8ff" stroke="#63b8ff" points="504.8,-190.82 512.26,-183.3 501.74,-184.53 504.8,-190.82"/>
</g>
<!-- Node25 -->
<g id="node25" class="node">
<title>Node25</title>
<g id="a_node25"><a xlink:href="../../da/d4c/AnyMap_8inl_8h.html" target="_top" xlink:title=" ">
<polygon fill="white" stroke="#666666" points="312.81,-184 179.81,-184 179.81,-165 312.81,-165 312.81,-184"/>
<text text-anchor="middle" x="246.31" y="-172" font-family="Helvetica,sans-Serif" font-size="10.00">cantera/base/AnyMap.inl.h</text>
</a>
</g>
</g>
<!-- Node18&#45;&gt;Node25 -->
<g id="edge29" class="edge">
<title>Node18&#45;&gt;Node25</title>
<path fill="none" stroke="#63b8ff" d="M386.4,-219.98C355.52,-211.13 309.83,-197.19 279.02,-187.28"/>
<polygon fill="#63b8ff" stroke="#63b8ff" points="279.78,-183.84 269.19,-184.08 277.62,-190.5 279.78,-183.84"/>
</g>
<!-- Node19&#45;&gt;Node4 -->
<g id="edge21" class="edge">
<title>Node19&#45;&gt;Node4</title>
<path fill="none" stroke="#63b8ff" d="M777.6,-164.93C768.37,-156.8 755.72,-143.68 750.31,-129 743.83,-111.43 757.04,-93.28 769.63,-80.91"/>
<polygon fill="#63b8ff" stroke="#63b8ff" points="772.17,-83.33 777.2,-74.01 767.45,-78.16 772.17,-83.33"/>
</g>
<!-- Node19&#45;&gt;Node15 -->
<g id="edge22" class="edge">
<title>Node19&#45;&gt;Node15</title>
<path fill="none" stroke="#63b8ff" d="M843.74,-164.98C906.84,-155.29 1009.51,-139.52 1074.13,-129.59"/>
<polygon fill="#63b8ff" stroke="#63b8ff" points="1074.81,-133.03 1084.16,-128.05 1073.75,-126.11 1074.81,-133.03"/>
</g>
<!-- Node20 -->
<g id="node20" class="node">
<title>Node20</title>
<g id="a_node20"><a xlink:title=" ">
<polygon fill="#e0e0e0" stroke="#999999" points="817.81,-129 758.81,-129 758.81,-110 817.81,-110 817.81,-129"/>
<text text-anchor="middle" x="788.31" y="-117" font-family="Helvetica,sans-Serif" font-size="10.00">exception</text>
</a>
</g>
</g>
<!-- Node19&#45;&gt;Node20 -->
<g id="edge23" class="edge">
<title>Node19&#45;&gt;Node20</title>
<path fill="none" stroke="#63b8ff" d="M788.31,-164.75C788.31,-157.8 788.31,-147.85 788.31,-139.13"/>
<polygon fill="#63b8ff" stroke="#63b8ff" points="791.81,-139.09 788.31,-129.09 784.81,-139.09 791.81,-139.09"/>
</g>
<!-- Node21&#45;&gt;Node4 -->
<g id="edge25" class="edge">
<title>Node21&#45;&gt;Node4</title>
<path fill="none" stroke="#63b8ff" d="M75.26,-165C85.84,-150.67 109.45,-122.1 137.31,-110 193.39,-85.64 617.92,-70.72 749.53,-66.64"/>
<polygon fill="#63b8ff" stroke="#63b8ff" points="749.67,-70.14 759.56,-66.33 749.46,-63.14 749.67,-70.14"/>
</g>
<!-- Node25&#45;&gt;Node18 -->
<g id="edge30" class="edge">
<title>Node25&#45;&gt;Node18</title>
<path fill="none" stroke="#63b8ff" d="M279.45,-184.08C310.4,-192.97 356.1,-206.91 386.82,-216.8"/>
<polygon fill="#63b8ff" stroke="#63b8ff" points="386.04,-220.22 396.63,-219.98 388.2,-213.57 386.04,-220.22"/>
</g>
<!-- Node27 -->
<g id="node27" class="node">
<title>Node27</title>
<g id="a_node27"><a xlink:href="../../db/dce/Domain1D_8h.html" target="_top" xlink:title=" ">
<polygon fill="white" stroke="#666666" points="767.81,-294 696.81,-294 696.81,-275 767.81,-275 767.81,-294"/>
<text text-anchor="middle" x="732.31" y="-282" font-family="Helvetica,sans-Serif" font-size="10.00">Domain1D.h</text>
</a>
</g>
</g>
<!-- Node26&#45;&gt;Node27 -->
<g id="edge32" class="edge">
<title>Node26&#45;&gt;Node27</title>
<path fill="none" stroke="#63b8ff" d="M732.31,-450.63C732.31,-423.64 732.31,-342.03 732.31,-304.61"/>
<polygon fill="#63b8ff" stroke="#63b8ff" points="735.81,-304.14 732.31,-294.14 728.81,-304.14 735.81,-304.14"/>
</g>
<!-- Node28 -->
<g id="node28" class="node">
<title>Node28</title>
<g id="a_node28"><a xlink:href="../../d2/de5/SurfPhase_8h.html" target="_top" xlink:title="Header for a simple thermodynamics model of a surface phase derived from ThermoPhase,...">
<polygon fill="white" stroke="#666666" points="665.81,-409.5 526.81,-409.5 526.81,-390.5 665.81,-390.5 665.81,-409.5"/>
<text text-anchor="middle" x="596.31" y="-397.5" font-family="Helvetica,sans-Serif" font-size="10.00">cantera/thermo/SurfPhase.h</text>
</a>
</g>
</g>
<!-- Node26&#45;&gt;Node28 -->
<g id="edge34" class="edge">
<title>Node26&#45;&gt;Node28</title>
<path fill="none" stroke="#63b8ff" d="M712.53,-450.99C689.67,-441.16 651.82,-424.88 625.55,-413.58"/>
<polygon fill="#63b8ff" stroke="#63b8ff" points="626.68,-410.25 616.11,-409.52 623.91,-416.68 626.68,-410.25"/>
</g>
<!-- Node36 -->
<g id="node33" class="node">
<title>Node36</title>
<g id="a_node33"><a xlink:href="../../d7/d0d/InterfaceKinetics_8h.html" target="_top" xlink:title=" ">
<polygon fill="white" stroke="#666666" points="887.81,-415 760.81,-415 760.81,-385 887.81,-385 887.81,-415"/>
<text text-anchor="start" x="768.81" y="-403" font-family="Helvetica,sans-Serif" font-size="10.00">cantera/kinetics/Interface</text>
<text text-anchor="middle" x="824.31" y="-392" font-family="Helvetica,sans-Serif" font-size="10.00">Kinetics.h</text>
</a>
</g>
</g>
<!-- Node26&#45;&gt;Node36 -->
<g id="edge43" class="edge">
<title>Node26&#45;&gt;Node36</title>
<path fill="none" stroke="#63b8ff" d="M745.88,-450.87C758.37,-442.93 777.33,-430.87 793.49,-420.6"/>
<polygon fill="#63b8ff" stroke="#63b8ff" points="795.55,-423.43 802.11,-415.11 791.79,-417.53 795.55,-423.43"/>
</g>
<!-- Node26&#45;&gt;Node46 -->
<g id="edge59" class="edge">
<title>Node26&#45;&gt;Node46</title>
<path fill="none" stroke="#63b8ff" d="M727.8,-450.78C719.37,-435.3 699.75,-402.97 674.31,-385 645.15,-364.41 605.81,-352.84 577.3,-346.7"/>
<polygon fill="#63b8ff" stroke="#63b8ff" points="577.82,-343.23 567.33,-344.67 576.43,-350.09 577.82,-343.23"/>
</g>
<!-- Node27&#45;&gt;Node19 -->
<g id="edge33" class="edge">
<title>Node27&#45;&gt;Node19</title>
<path fill="none" stroke="#63b8ff" d="M736.89,-274.66C746.08,-256.93 766.93,-216.73 779.07,-193.32"/>
<polygon fill="#63b8ff" stroke="#63b8ff" points="782.32,-194.65 783.82,-184.16 776.11,-191.42 782.32,-194.65"/>
</g>
<!-- Node29 -->
<g id="node29" class="node">
<title>Node29</title>
<g id="a_node29"><a xlink:href="../../d7/d01/ThermoPhase_8h.html" target="_top" xlink:title="Header file for class ThermoPhase, the base class for phases with thermodynamic properties,...">
<polygon fill="white" stroke="#666666" points="462.31,-294 376.31,-294 376.31,-275 462.31,-275 462.31,-294"/>
<text text-anchor="middle" x="419.31" y="-282" font-family="Helvetica,sans-Serif" font-size="10.00">ThermoPhase.h</text>
</a>
</g>
</g>
<!-- Node28&#45;&gt;Node29 -->
<g id="edge35" class="edge">
<title>Node28&#45;&gt;Node29</title>
<path fill="none" stroke="#63b8ff" d="M578.93,-390.5C560.11,-381.08 529.41,-365.08 504.31,-349 480.4,-333.69 454.47,-313.79 437.62,-300.39"/>
<polygon fill="#63b8ff" stroke="#63b8ff" points="439.68,-297.56 429.69,-294.03 435.3,-303.02 439.68,-297.56"/>
</g>
<!-- Node29&#45;&gt;Node18 -->
<g id="edge42" class="edge">
<title>Node29&#45;&gt;Node18</title>
<path fill="none" stroke="#63b8ff" d="M419.31,-274.75C419.31,-267.8 419.31,-257.85 419.31,-249.13"/>
<polygon fill="#63b8ff" stroke="#63b8ff" points="422.81,-249.09 419.31,-239.09 415.81,-249.09 422.81,-249.09"/>
</g>
<!-- Node29&#45;&gt;Node21 -->
<g id="edge41" class="edge">
<title>Node29&#45;&gt;Node21</title>
<path fill="none" stroke="#63b8ff" d="M399.74,-275C379.2,-266.06 345.97,-251.58 317.31,-239 298.18,-230.6 294.17,-226.47 274.31,-220 227.76,-204.84 173.58,-193.33 132.61,-185.82"/>
<polygon fill="#63b8ff" stroke="#63b8ff" points="133.22,-182.37 122.76,-184.04 131.98,-189.26 133.22,-182.37"/>
</g>
<!-- Node30 -->
<g id="node30" class="node">
<title>Node30</title>
<g id="a_node30"><a xlink:href="../../da/d84/Phase_8h.html" target="_top" xlink:title="Header file for class Phase.">
<polygon fill="#fff0f0" stroke="red" points="550.81,-239 497.81,-239 497.81,-220 550.81,-220 550.81,-239"/>
<text text-anchor="middle" x="524.31" y="-227" font-family="Helvetica,sans-Serif" font-size="10.00">Phase.h</text>
</a>
</g>
</g>
<!-- Node29&#45;&gt;Node30 -->
<g id="edge36" class="edge">
<title>Node29&#45;&gt;Node30</title>
<path fill="none" stroke="#63b8ff" d="M436.18,-274.98C452.92,-266.54 478.81,-253.47 498.2,-243.68"/>
<polygon fill="#63b8ff" stroke="#63b8ff" points="499.78,-246.8 507.13,-239.17 496.63,-240.55 499.78,-246.8"/>
</g>
<!-- Node34 -->
<g id="node32" class="node">
<title>Node34</title>
<g id="a_node32"><a xlink:href="../../d6/d7a/MultiSpeciesThermo_8h.html" target="_top" xlink:title="Header for a general species thermodynamic property manager for a phase (see MultiSpeciesThermo).">
<polygon fill="#fff0f0" stroke="red" points="265.31,-239 151.31,-239 151.31,-220 265.31,-220 265.31,-239"/>
<text text-anchor="middle" x="208.31" y="-227" font-family="Helvetica,sans-Serif" font-size="10.00">MultiSpeciesThermo.h</text>
</a>
</g>
</g>
<!-- Node29&#45;&gt;Node34 -->
<g id="edge40" class="edge">
<title>Node29&#45;&gt;Node34</title>
<path fill="none" stroke="#63b8ff" d="M385.41,-274.98C349.29,-265.91 291.98,-251.52 252.39,-241.57"/>
<polygon fill="#63b8ff" stroke="#63b8ff" points="253.03,-238.12 242.47,-239.08 251.32,-244.91 253.03,-238.12"/>
</g>
<!-- Node30&#45;&gt;Node19 -->
<g id="edge37" class="edge">
<title>Node30&#45;&gt;Node19</title>
<path fill="none" stroke="#63b8ff" d="M551.08,-223.13C594.27,-214.46 680.12,-197.22 735.83,-186.04"/>
<polygon fill="#63b8ff" stroke="#63b8ff" points="736.75,-189.42 745.87,-184.02 735.37,-182.56 736.75,-189.42"/>
</g>
<!-- Node32 -->
<g id="node31" class="node">
<title>Node32</title>
<g id="a_node31"><a xlink:href="../../d6/df6/ValueCache_8h.html" target="_top" xlink:title=" ">
<polygon fill="#fff0f0" stroke="red" points="699.81,-184 562.81,-184 562.81,-165 699.81,-165 699.81,-184"/>
<text text-anchor="middle" x="631.31" y="-172" font-family="Helvetica,sans-Serif" font-size="10.00">cantera/base/ValueCache.h</text>
</a>
</g>
</g>
<!-- Node30&#45;&gt;Node32 -->
<g id="edge38" class="edge">
<title>Node30&#45;&gt;Node32</title>
<path fill="none" stroke="#63b8ff" d="M541.5,-219.98C558.56,-211.54 584.94,-198.47 604.7,-188.68"/>
<polygon fill="#63b8ff" stroke="#63b8ff" points="606.4,-191.75 613.8,-184.17 603.29,-185.47 606.4,-191.75"/>
</g>
<!-- Node32&#45;&gt;Node4 -->
<g id="edge39" class="edge">
<title>Node32&#45;&gt;Node4</title>
<path fill="none" stroke="#63b8ff" d="M643.89,-164.84C670.76,-146.36 734,-102.86 767.16,-80.05"/>
<polygon fill="#63b8ff" stroke="#63b8ff" points="769.41,-82.75 775.67,-74.2 765.44,-76.98 769.41,-82.75"/>
</g>
<!-- Node37 -->
<g id="node34" class="node">
<title>Node37</title>
<g id="a_node34"><a xlink:href="../../d5/db4/Kinetics_8h.html" target="_top" xlink:title="Base class for kinetics managers and also contains the kineticsmgr module documentation (see Kinetics...">
<polygon fill="white" stroke="#666666" points="678.31,-294 618.31,-294 618.31,-275 678.31,-275 678.31,-294"/>
<text text-anchor="middle" x="648.31" y="-282" font-family="Helvetica,sans-Serif" font-size="10.00">Kinetics.h</text>
</a>
</g>
</g>
<!-- Node36&#45;&gt;Node37 -->
<g id="edge44" class="edge">
<title>Node36&#45;&gt;Node37</title>
<path fill="none" stroke="#63b8ff" d="M802.37,-384.85C768.68,-363.13 704.54,-321.77 670.62,-299.89"/>
<polygon fill="#63b8ff" stroke="#63b8ff" points="672.21,-296.75 661.91,-294.27 668.42,-302.63 672.21,-296.75"/>
</g>
<!-- Node41 -->
<g id="node36" class="node">
<title>Node41</title>
<g id="a_node36"><a xlink:href="../../d6/d42/MultiRate_8h.html" target="_top" xlink:title=" ">
<polygon fill="white" stroke="#666666" points="903.81,-349 836.81,-349 836.81,-330 903.81,-330 903.81,-349"/>
<text text-anchor="middle" x="870.31" y="-337" font-family="Helvetica,sans-Serif" font-size="10.00">MultiRate.h</text>
</a>
</g>
</g>
<!-- Node36&#45;&gt;Node41 -->
<g id="edge48" class="edge">
<title>Node36&#45;&gt;Node41</title>
<path fill="none" stroke="#63b8ff" d="M835.44,-384.84C841.98,-376.52 850.29,-365.96 857.15,-357.23"/>
<polygon fill="#63b8ff" stroke="#63b8ff" points="859.99,-359.29 863.42,-349.27 854.48,-354.96 859.99,-359.29"/>
</g>
<!-- Node37&#45;&gt;Node32 -->
<g id="edge47" class="edge">
<title>Node37&#45;&gt;Node32</title>
<path fill="none" stroke="#63b8ff" d="M645.43,-274.74C642.63,-265.84 638.49,-251.62 636.31,-239 633.74,-224.15 632.49,-207.11 631.88,-194.43"/>
<polygon fill="#63b8ff" stroke="#63b8ff" points="635.37,-194.05 631.49,-184.19 628.38,-194.32 635.37,-194.05"/>
</g>
<!-- Node38 -->
<g id="node35" class="node">
<title>Node38</title>
<g id="a_node35"><a xlink:href="../../dd/dfd/StoichManager_8h.html" target="_top" xlink:title=" ">
<polygon fill="#fff0f0" stroke="red" points="734.81,-239 645.81,-239 645.81,-220 734.81,-220 734.81,-239"/>
<text text-anchor="middle" x="690.31" y="-227" font-family="Helvetica,sans-Serif" font-size="10.00">StoichManager.h</text>
</a>
</g>
</g>
<!-- Node37&#45;&gt;Node38 -->
<g id="edge45" class="edge">
<title>Node37&#45;&gt;Node38</title>
<path fill="none" stroke="#63b8ff" d="M655.24,-274.75C661.18,-267.26 669.88,-256.28 677.13,-247.13"/>
<polygon fill="#63b8ff" stroke="#63b8ff" points="680.03,-249.1 683.5,-239.09 674.55,-244.75 680.03,-249.1"/>
</g>
<!-- Node38&#45;&gt;Node19 -->
<g id="edge46" class="edge">
<title>Node38&#45;&gt;Node19</title>
<path fill="none" stroke="#63b8ff" d="M706.05,-219.98C721.53,-211.61 745.4,-198.7 763.45,-188.95"/>
<polygon fill="#63b8ff" stroke="#63b8ff" points="765.15,-192.01 772.28,-184.17 761.82,-185.85 765.15,-192.01"/>
</g>
<!-- Node42 -->
<g id="node37" class="node">
<title>Node42</title>
<g id="a_node37"><a xlink:href="../../d8/db0/ReactionRate_8h.html" target="_top" xlink:title=" ">
<polygon fill="white" stroke="#666666" points="870.81,-294 785.81,-294 785.81,-275 870.81,-275 870.81,-294"/>
<text text-anchor="middle" x="828.31" y="-282" font-family="Helvetica,sans-Serif" font-size="10.00">ReactionRate.h</text>
</a>
</g>
</g>
<!-- Node41&#45;&gt;Node42 -->
<g id="edge49" class="edge">
<title>Node41&#45;&gt;Node42</title>
<path fill="none" stroke="#63b8ff" d="M863.37,-329.75C857.44,-322.26 848.74,-311.28 841.48,-302.13"/>
<polygon fill="#63b8ff" stroke="#63b8ff" points="844.07,-299.75 835.11,-294.09 838.58,-304.1 844.07,-299.75"/>
</g>
<!-- Node43 -->
<g id="node38" class="node">
<title>Node43</title>
<g id="a_node38"><a xlink:href="../../dd/d16/MultiRateBase_8h.html" target="_top" xlink:title=" ">
<polygon fill="white" stroke="#666666" points="918.81,-239 829.81,-239 829.81,-220 918.81,-220 918.81,-239"/>
<text text-anchor="middle" x="874.31" y="-227" font-family="Helvetica,sans-Serif" font-size="10.00">MultiRateBase.h</text>
</a>
</g>
</g>
<!-- Node41&#45;&gt;Node43 -->
<g id="edge56" class="edge">
<title>Node41&#45;&gt;Node43</title>
<path fill="none" stroke="#63b8ff" d="M872.88,-329.73C875.35,-320.83 878.91,-306.59 880.31,-294 881.97,-279 880.16,-261.98 878.11,-249.33"/>
<polygon fill="#63b8ff" stroke="#63b8ff" points="881.49,-248.34 876.25,-239.14 874.6,-249.6 881.49,-248.34"/>
</g>
<!-- Node44 -->
<g id="node39" class="node">
<title>Node44</title>
<g id="a_node39"><a xlink:href="../../de/df0/utilities_8h.html" target="_top" xlink:title="Various templated functions that carry out common vector operations (see Templated Utility Functions)...">
<polygon fill="#fff0f0" stroke="red" points="989.81,-129 874.81,-129 874.81,-110 989.81,-110 989.81,-129"/>
<text text-anchor="middle" x="932.31" y="-117" font-family="Helvetica,sans-Serif" font-size="10.00">cantera/base/utilities.h</text>
</a>
</g>
</g>
<!-- Node41&#45;&gt;Node44 -->
<g id="edge57" class="edge">
<title>Node41&#45;&gt;Node44</title>
<path fill="none" stroke="#63b8ff" d="M877.38,-329.87C890.36,-313.41 917.67,-275.89 928.31,-239 938.16,-204.84 936.54,-162.82 934.44,-139.11"/>
<polygon fill="#63b8ff" stroke="#63b8ff" points="937.91,-138.65 933.42,-129.05 930.95,-139.36 937.91,-138.65"/>
</g>
<!-- Node42&#45;&gt;Node3 -->
<g id="edge54" class="edge">
<title>Node42&#45;&gt;Node3</title>
<path fill="none" stroke="#63b8ff" d="M871.03,-280.25C931.89,-274.87 1039.6,-262.31 1070.31,-239 1084.79,-228.01 1092.9,-208.46 1097.15,-193.94"/>
<polygon fill="#63b8ff" stroke="#63b8ff" points="1100.6,-194.61 1099.7,-184.05 1093.82,-192.86 1100.6,-194.61"/>
</g>
<!-- Node42&#45;&gt;Node18 -->
<g id="edge52" class="edge">
<title>Node42&#45;&gt;Node18</title>
<path fill="none" stroke="#63b8ff" d="M785.75,-276.27C782.9,-275.83 780.06,-275.4 777.31,-275 763.26,-272.96 589.6,-251.49 489.42,-239.14"/>
<polygon fill="#63b8ff" stroke="#63b8ff" points="489.72,-235.65 479.37,-237.9 488.86,-242.6 489.72,-235.65"/>
</g>
<!-- Node42&#45;&gt;Node19 -->
<g id="edge55" class="edge">
<title>Node42&#45;&gt;Node19</title>
<path fill="none" stroke="#63b8ff" d="M825.04,-274.66C818.5,-257.01 803.71,-217.09 795.03,-193.64"/>
<polygon fill="#63b8ff" stroke="#63b8ff" points="798.27,-192.32 791.52,-184.16 791.71,-194.75 798.27,-192.32"/>
</g>
<!-- Node42&#45;&gt;Node21 -->
<g id="edge53" class="edge">
<title>Node42&#45;&gt;Node21</title>
<path fill="none" stroke="#63b8ff" d="M785.77,-276.15C782.91,-275.73 780.07,-275.35 777.31,-275 588.33,-251.33 534.17,-288.66 350.31,-239 331.31,-233.87 329.03,-226.06 310.31,-220 278.12,-209.58 192.9,-194.93 132.97,-185.33"/>
<polygon fill="#63b8ff" stroke="#63b8ff" points="133.27,-181.83 122.84,-183.72 132.17,-188.75 133.27,-181.83"/>
</g>
<!-- Node42&#45;&gt;Node43 -->
<g id="edge50" class="edge">
<title>Node42&#45;&gt;Node43</title>
<path fill="none" stroke="#63b8ff" d="M835.9,-274.75C842.47,-267.18 852.13,-256.05 860.12,-246.84"/>
<polygon fill="#63b8ff" stroke="#63b8ff" points="862.94,-248.94 866.85,-239.09 857.66,-244.35 862.94,-248.94"/>
</g>
<!-- Node43&#45;&gt;Node4 -->
<g id="edge51" class="edge">
<title>Node43&#45;&gt;Node4</title>
<path fill="none" stroke="#63b8ff" d="M874.73,-219.96C875.05,-207.45 874.51,-183.62 867.31,-165 854.07,-130.8 824.71,-99.06 805.75,-81"/>
<polygon fill="#63b8ff" stroke="#63b8ff" points="808.05,-78.37 798.34,-74.14 803.29,-83.5 808.05,-78.37"/>
</g>
<!-- Node44&#45;&gt;Node4 -->
<g id="edge58" class="edge">
<title>Node44&#45;&gt;Node4</title>
<path fill="none" stroke="#63b8ff" d="M909.17,-109.98C885.49,-101.27 848.44,-87.63 821.6,-77.75"/>
<polygon fill="#63b8ff" stroke="#63b8ff" points="822.46,-74.34 811.87,-74.17 820.04,-80.91 822.46,-74.34"/>
</g>
<!-- Node46&#45;&gt;Node27 -->
<g id="edge60" class="edge">
<title>Node46&#45;&gt;Node27</title>
<path fill="none" stroke="#63b8ff" d="M567.41,-331.02C599.63,-322.12 653.73,-307.19 691.14,-296.87"/>
<polygon fill="#63b8ff" stroke="#63b8ff" points="692.5,-300.12 701.21,-294.08 690.64,-293.37 692.5,-300.12"/>
</g>
<!-- Node46&#45;&gt;Node29 -->
<g id="edge67" class="edge">
<title>Node46&#45;&gt;Node29</title>
<path fill="none" stroke="#63b8ff" d="M520.87,-329.98C501.31,-321.42 470.93,-308.11 448.48,-298.28"/>
<polygon fill="#63b8ff" stroke="#63b8ff" points="449.67,-294.98 439.1,-294.17 446.86,-301.39 449.67,-294.98"/>
</g>
<!-- Node46&#45;&gt;Node37 -->
<g id="edge68" class="edge">
<title>Node46&#45;&gt;Node37</title>
<path fill="none" stroke="#63b8ff" d="M557.66,-329.98C574.88,-321.54 601.51,-308.47 621.45,-298.68"/>
<polygon fill="#63b8ff" stroke="#63b8ff" points="623.21,-301.72 630.64,-294.17 620.12,-295.43 623.21,-301.72"/>
</g>
<!-- Node47 -->
<g id="node41" class="node">
<title>Node47</title>
<g id="a_node41"><a xlink:href="../../df/dd0/Array_8h.html" target="_top" xlink:title="Header file for class Cantera::Array2D.">
<polygon fill="white" stroke="#666666" points="127.31,-294 21.31,-294 21.31,-275 127.31,-275 127.31,-294"/>
<text text-anchor="middle" x="74.31" y="-282" font-family="Helvetica,sans-Serif" font-size="10.00">cantera/base/Array.h</text>
</a>
</g>
</g>
<!-- Node46&#45;&gt;Node47 -->
<g id="edge61" class="edge">
<title>Node46&#45;&gt;Node47</title>
<path fill="none" stroke="#63b8ff" d="M513.24,-335.42C440.68,-327.17 240.34,-304.38 137.31,-292.67"/>
<polygon fill="#63b8ff" stroke="#63b8ff" points="137.68,-289.19 127.35,-291.53 136.89,-296.14 137.68,-289.19"/>
</g>
<!-- Node49 -->
<g id="node43" class="node">
<title>Node49</title>
<g id="a_node43"><a xlink:href="../../d4/dfa/Solution_8h.html" target="_top" xlink:title=" ">
<polygon fill="white" stroke="#666666" points="599.81,-294 480.81,-294 480.81,-275 599.81,-275 599.81,-294"/>
<text text-anchor="middle" x="540.31" y="-282" font-family="Helvetica,sans-Serif" font-size="10.00">cantera/base/Solution.h</text>
</a>
</g>
</g>
<!-- Node46&#45;&gt;Node49 -->
<g id="edge64" class="edge">
<title>Node46&#45;&gt;Node49</title>
<path fill="none" stroke="#63b8ff" d="M540.31,-329.75C540.31,-322.8 540.31,-312.85 540.31,-304.13"/>
<polygon fill="#63b8ff" stroke="#63b8ff" points="543.81,-304.09 540.31,-294.09 536.81,-304.09 543.81,-304.09"/>
</g>
<!-- Node47&#45;&gt;Node4 -->
<g id="edge62" class="edge">
<title>Node47&#45;&gt;Node4</title>
<path fill="none" stroke="#63b8ff" d="M62.5,-274.83C37.25,-255.19 -17.84,-205.84 6.31,-165 32.12,-121.34 57.62,-124.21 106.31,-110 228.19,-74.42 622.92,-67.23 749.12,-65.83"/>
<polygon fill="#63b8ff" stroke="#63b8ff" points="749.5,-69.32 759.46,-65.72 749.43,-62.32 749.5,-69.32"/>
</g>
<!-- Node48 -->
<g id="node42" class="node">
<title>Node48</title>
<g id="a_node42"><a xlink:title=" ">
<polygon fill="#e0e0e0" stroke="#999999" points="101.31,-239 47.31,-239 47.31,-220 101.31,-220 101.31,-239"/>
<text text-anchor="middle" x="74.31" y="-227" font-family="Helvetica,sans-Serif" font-size="10.00">iostream</text>
</a>
</g>
</g>
<!-- Node47&#45;&gt;Node48 -->
<g id="edge63" class="edge">
<title>Node47&#45;&gt;Node48</title>
<path fill="none" stroke="#63b8ff" d="M74.31,-274.75C74.31,-267.8 74.31,-257.85 74.31,-249.13"/>
<polygon fill="#63b8ff" stroke="#63b8ff" points="77.81,-249.09 74.31,-239.09 70.81,-249.09 77.81,-249.09"/>
</g>
<!-- Node49&#45;&gt;Node18 -->
<g id="edge66" class="edge">
<title>Node49&#45;&gt;Node18</title>
<path fill="none" stroke="#63b8ff" d="M520.87,-274.98C501.31,-266.42 470.93,-253.11 448.48,-243.28"/>
<polygon fill="#63b8ff" stroke="#63b8ff" points="449.67,-239.98 439.1,-239.17 446.86,-246.39 449.67,-239.98"/>
</g>
<!-- Node49&#45;&gt;Node19 -->
<g id="edge65" class="edge">
<title>Node49&#45;&gt;Node19</title>
<path fill="none" stroke="#63b8ff" d="M550.9,-274.93C567.96,-261.51 602.96,-235.48 636.31,-220 668.58,-205.02 707.05,-193.82 737.22,-186.4"/>
<polygon fill="#63b8ff" stroke="#63b8ff" points="738.2,-189.76 747.11,-184.03 736.57,-182.95 738.2,-189.76"/>
</g>
<!-- Node50&#45;&gt;Node27 -->
<g id="edge70" class="edge">
<title>Node50&#45;&gt;Node27</title>
<path fill="none" stroke="#63b8ff" d="M969.78,-390.47C929.99,-382.75 874.16,-369.42 828.31,-349 799.31,-336.09 769.34,-314.75 750.77,-300.42"/>
<polygon fill="#63b8ff" stroke="#63b8ff" points="752.87,-297.62 742.85,-294.19 748.55,-303.13 752.87,-297.62"/>
</g>
<!-- Node51 -->
<g id="node45" class="node">
<title>Node51</title>
<g id="a_node45"><a xlink:href="../../d5/d60/MultiJac_8h.html" target="_top" xlink:title=" ">
<polygon fill="white" stroke="#666666" points="1052.31,-349 990.31,-349 990.31,-330 1052.31,-330 1052.31,-349"/>
<text text-anchor="middle" x="1021.31" y="-337" font-family="Helvetica,sans-Serif" font-size="10.00">MultiJac.h</text>
</a>
</g>
</g>
<!-- Node50&#45;&gt;Node51 -->
<g id="edge71" class="edge">
<title>Node50&#45;&gt;Node51</title>
<path fill="none" stroke="#63b8ff" d="M1016.35,-390.37C1014.6,-382.25 1014.13,-369.81 1014.95,-359.39"/>
<polygon fill="#63b8ff" stroke="#63b8ff" points="1018.46,-359.55 1016.35,-349.17 1011.52,-358.6 1018.46,-359.55"/>
</g>
<!-- Node51&#45;&gt;Node50 -->
<g id="edge77" class="edge">
<title>Node51&#45;&gt;Node50</title>
<path fill="none" stroke="#63b8ff" d="M1026.27,-349.17C1028.02,-357.3 1028.49,-369.74 1027.66,-380.16"/>
<polygon fill="#63b8ff" stroke="#63b8ff" points="1024.15,-379.99 1026.26,-390.37 1031.09,-380.94 1024.15,-379.99"/>
</g>
<!-- Node52 -->
<g id="node46" class="node">
<title>Node52</title>
<g id="a_node46"><a xlink:href="../../de/d7e/BandMatrix_8h.html" target="_top" xlink:title="Declarations for the class BandMatrix which is a child class of GeneralMatrix for banded matrices han...">
<polygon fill="white" stroke="#666666" points="1282.31,-294 1130.31,-294 1130.31,-275 1282.31,-275 1282.31,-294"/>
<text text-anchor="middle" x="1206.31" y="-282" font-family="Helvetica,sans-Serif" font-size="10.00">cantera/numerics/BandMatrix.h</text>
</a>
</g>
</g>
<!-- Node51&#45;&gt;Node52 -->
<g id="edge72" class="edge">
<title>Node51&#45;&gt;Node52</title>
<path fill="none" stroke="#63b8ff" d="M1051.03,-329.98C1082.36,-321.01 1131.88,-306.82 1166.55,-296.89"/>
<polygon fill="#63b8ff" stroke="#63b8ff" points="1167.7,-300.2 1176.35,-294.08 1165.77,-293.47 1167.7,-300.2"/>
</g>
<!-- Node53 -->
<g id="node47" class="node">
<title>Node53</title>
<g id="a_node47"><a xlink:href="../../da/d15/GeneralMatrix_8h.html" target="_top" xlink:title="Declarations for the class GeneralMatrix which is a virtual base class for matrices handled by solver...">
<polygon fill="white" stroke="#666666" points="1061.31,-239 975.31,-239 975.31,-220 1061.31,-220 1061.31,-239"/>
<text text-anchor="middle" x="1018.31" y="-227" font-family="Helvetica,sans-Serif" font-size="10.00">GeneralMatrix.h</text>
</a>
</g>
</g>
<!-- Node52&#45;&gt;Node53 -->
<g id="edge73" class="edge">
<title>Node52&#45;&gt;Node53</title>
<path fill="none" stroke="#63b8ff" d="M1176.1,-274.98C1144.27,-266.01 1093.94,-251.82 1058.71,-241.89"/>
<polygon fill="#63b8ff" stroke="#63b8ff" points="1059.33,-238.43 1048.75,-239.08 1057.43,-245.16 1059.33,-238.43"/>
</g>
<!-- Node53&#45;&gt;Node3 -->
<g id="edge76" class="edge">
<title>Node53&#45;&gt;Node3</title>
<path fill="none" stroke="#63b8ff" d="M1031.64,-219.98C1044.39,-211.84 1063.86,-199.41 1078.98,-189.76"/>
<polygon fill="#63b8ff" stroke="#63b8ff" points="1081.19,-192.5 1087.73,-184.17 1077.42,-186.6 1081.19,-192.5"/>
</g>
<!-- Node53&#45;&gt;Node4 -->
<g id="edge74" class="edge">
<title>Node53&#45;&gt;Node4</title>
<path fill="none" stroke="#63b8ff" d="M1019.85,-219.95C1023.23,-198.31 1028.76,-140.93 999.31,-110 976.08,-85.61 881.3,-73.52 827,-68.49"/>
<polygon fill="#63b8ff" stroke="#63b8ff" points="827.31,-65.01 817.03,-67.61 826.68,-71.98 827.31,-65.01"/>
</g>
<!-- Node53&#45;&gt;Node19 -->
<g id="edge75" class="edge">
<title>Node53&#45;&gt;Node19</title>
<path fill="none" stroke="#63b8ff" d="M981.36,-219.98C941.74,-210.86 878.72,-196.33 835.53,-186.38"/>
<polygon fill="#63b8ff" stroke="#63b8ff" points="836.08,-182.92 825.55,-184.08 834.51,-189.74 836.08,-182.92"/>
</g>
</g>
</svg>
