<?xml version="1.0" encoding="UTF-8" standalone="no"?>
<!DOCTYPE svg PUBLIC "-//W3C//DTD SVG 1.1//EN"
 "http://www.w3.org/Graphics/SVG/1.1/DTD/svg11.dtd">
<!-- Generated by graphviz version 2.50.0 (0)
 -->
<!-- Title: PDSS Pages: 1 -->
<svg width="630pt" height="140pt"
 viewBox="0.00 0.00 629.50 140.00" xmlns="http://www.w3.org/2000/svg" xmlns:xlink="http://www.w3.org/1999/xlink">
<g id="graph0" class="graph" transform="scale(1 1) rotate(0) translate(4 136)">
<title>PDSS</title>
<polygon fill="white" stroke="transparent" points="-4,4 -4,-136 625.5,-136 625.5,4 -4,4"/>
<!-- Node1 -->
<g id="node1" class="node">
<title>Node1</title>
<g id="a_node1"><a xlink:title="Virtual base class for a species with a pressure dependent standard state.">
<polygon fill="#bfbfbf" stroke="black" points="214,-112.5 214,-131.5 258,-131.5 258,-112.5 214,-112.5"/>
<text text-anchor="middle" x="236" y="-119.5" font-family="Helvetica,sans-Serif" font-size="10.00">PDSS</text>
</a>
</g>
</g>
<!-- Node2 -->
<g id="node2" class="node">
<title>Node2</title>
<g id="a_node2"><a xlink:href="../../d5/d6a/classCantera_1_1PDSS__Molar.html" target="_top" xlink:title="Base class for PDSS classes which compute molar properties directly.">
<polygon fill="white" stroke="black" points="95,-56.5 95,-75.5 169,-75.5 169,-56.5 95,-56.5"/>
<text text-anchor="middle" x="132" y="-63.5" font-family="Helvetica,sans-Serif" font-size="10.00">PDSS_Molar</text>
</a>
</g>
</g>
<!-- Node1&#45;&gt;Node2 -->
<g id="edge1" class="edge">
<title>Node1&#45;&gt;Node2</title>
<path fill="none" stroke="midnightblue" d="M210.17,-107.59C190.94,-97.61 165.26,-84.27 148.67,-75.65"/>
<polygon fill="midnightblue" stroke="midnightblue" points="208.8,-110.82 219.29,-112.32 212.03,-104.61 208.8,-110.82"/>
</g>
<!-- Node5 -->
<g id="node5" class="node">
<title>Node5</title>
<g id="a_node5"><a xlink:href="../../df/d4c/classCantera_1_1PDSS__Nondimensional.html" target="_top" xlink:title="Base class for PDSS classes which compute nondimensional properties directly.">
<polygon fill="white" stroke="black" points="281.5,-56.5 281.5,-75.5 400.5,-75.5 400.5,-56.5 281.5,-56.5"/>
<text text-anchor="middle" x="341" y="-63.5" font-family="Helvetica,sans-Serif" font-size="10.00">PDSS_Nondimensional</text>
</a>
</g>
</g>
<!-- Node1&#45;&gt;Node5 -->
<g id="edge4" class="edge">
<title>Node1&#45;&gt;Node5</title>
<path fill="none" stroke="midnightblue" d="M261.81,-107.73C281.25,-97.73 307.35,-84.31 324.17,-75.65"/>
<polygon fill="midnightblue" stroke="midnightblue" points="260.16,-104.64 252.87,-112.32 263.36,-110.86 260.16,-104.64"/>
</g>
<!-- Node3 -->
<g id="node3" class="node">
<title>Node3</title>
<g id="a_node3"><a xlink:href="../../d9/d18/classCantera_1_1PDSS__HKFT.html" target="_top" xlink:title="Class for pressure dependent standard states corresponding to ionic solutes in electrolyte water.">
<polygon fill="white" stroke="black" points="0,-0.5 0,-19.5 76,-19.5 76,-0.5 0,-0.5"/>
<text text-anchor="middle" x="38" y="-7.5" font-family="Helvetica,sans-Serif" font-size="10.00">PDSS_HKFT</text>
</a>
</g>
</g>
<!-- Node2&#45;&gt;Node3 -->
<g id="edge2" class="edge">
<title>Node2&#45;&gt;Node3</title>
<path fill="none" stroke="midnightblue" d="M107.94,-51.18C90.64,-41.24 67.85,-28.15 53.07,-19.65"/>
<polygon fill="midnightblue" stroke="midnightblue" points="106.48,-54.38 116.9,-56.32 109.97,-48.31 106.48,-54.38"/>
</g>
<!-- Node4 -->
<g id="node4" class="node">
<title>Node4</title>
<g id="a_node4"><a xlink:href="../../de/d64/classCantera_1_1PDSS__Water.html" target="_top" xlink:title="Class for the liquid water pressure dependent standard state.">
<polygon fill="white" stroke="black" points="94.5,-0.5 94.5,-19.5 169.5,-19.5 169.5,-0.5 94.5,-0.5"/>
<text text-anchor="middle" x="132" y="-7.5" font-family="Helvetica,sans-Serif" font-size="10.00">PDSS_Water</text>
</a>
</g>
</g>
<!-- Node2&#45;&gt;Node4 -->
<g id="edge3" class="edge">
<title>Node2&#45;&gt;Node4</title>
<path fill="none" stroke="midnightblue" d="M132,-45.8C132,-36.91 132,-26.78 132,-19.75"/>
<polygon fill="midnightblue" stroke="midnightblue" points="128.5,-46.08 132,-56.08 135.5,-46.08 128.5,-46.08"/>
</g>
<!-- Node6 -->
<g id="node6" class="node">
<title>Node6</title>
<g id="a_node6"><a xlink:href="../../da/d33/classCantera_1_1PDSS__ConstVol.html" target="_top" xlink:title="Class for pressure dependent standard states that use a constant volume model.">
<polygon fill="white" stroke="black" points="188,-0.5 188,-19.5 278,-19.5 278,-0.5 188,-0.5"/>
<text text-anchor="middle" x="233" y="-7.5" font-family="Helvetica,sans-Serif" font-size="10.00">PDSS_ConstVol</text>
</a>
</g>
</g>
<!-- Node5&#45;&gt;Node6 -->
<g id="edge5" class="edge">
<title>Node5&#45;&gt;Node6</title>
<path fill="none" stroke="midnightblue" d="M314.45,-51.73C294.45,-41.73 267.61,-28.31 250.31,-19.65"/>
<polygon fill="midnightblue" stroke="midnightblue" points="313.14,-54.98 323.65,-56.32 316.27,-48.72 313.14,-54.98"/>
</g>
<!-- Node7 -->
<g id="node7" class="node">
<title>Node7</title>
<g id="a_node7"><a xlink:href="../../df/d31/classCantera_1_1PDSS__IdealGas.html" target="_top" xlink:title="Derived class for pressure dependent standard states of an ideal gas species.">
<polygon fill="white" stroke="black" points="296.5,-0.5 296.5,-19.5 385.5,-19.5 385.5,-0.5 296.5,-0.5"/>
<text text-anchor="middle" x="341" y="-7.5" font-family="Helvetica,sans-Serif" font-size="10.00">PDSS_IdealGas</text>
</a>
</g>
</g>
<!-- Node5&#45;&gt;Node7 -->
<g id="edge6" class="edge">
<title>Node5&#45;&gt;Node7</title>
<path fill="none" stroke="midnightblue" d="M341,-45.8C341,-36.91 341,-26.78 341,-19.75"/>
<polygon fill="midnightblue" stroke="midnightblue" points="337.5,-46.08 341,-56.08 344.5,-46.08 337.5,-46.08"/>
</g>
<!-- Node8 -->
<g id="node8" class="node">
<title>Node8</title>
<g id="a_node8"><a xlink:href="../../d5/df4/classCantera_1_1PDSS__IonsFromNeutral.html" target="_top" xlink:title="Derived class for pressure dependent standard states of an ideal gas species.">
<polygon fill="white" stroke="black" points="404,-0.5 404,-19.5 526,-19.5 526,-0.5 404,-0.5"/>
<text text-anchor="middle" x="465" y="-7.5" font-family="Helvetica,sans-Serif" font-size="10.00">PDSS_IonsFromNeutral</text>
</a>
</g>
</g>
<!-- Node5&#45;&gt;Node8 -->
<g id="edge7" class="edge">
<title>Node5&#45;&gt;Node8</title>
<path fill="none" stroke="midnightblue" d="M370.01,-52.37C393.23,-42.26 425.16,-28.35 445.44,-19.52"/>
<polygon fill="midnightblue" stroke="midnightblue" points="368.42,-49.24 360.65,-56.44 371.21,-55.66 368.42,-49.24"/>
</g>
<!-- Node9 -->
<g id="node9" class="node">
<title>Node9</title>
<g id="a_node9"><a xlink:href="../../d0/d2f/classCantera_1_1PDSS__SSVol.html" target="_top" xlink:title="Class for pressure dependent standard states that uses a standard state volume model of some sort.">
<polygon fill="white" stroke="black" points="544.5,-0.5 544.5,-19.5 621.5,-19.5 621.5,-0.5 544.5,-0.5"/>
<text text-anchor="middle" x="583" y="-7.5" font-family="Helvetica,sans-Serif" font-size="10.00">PDSS_SSVol</text>
</a>
</g>
</g>
<!-- Node5&#45;&gt;Node9 -->
<g id="edge8" class="edge">
<title>Node5&#45;&gt;Node9</title>
<path fill="none" stroke="midnightblue" d="M389.32,-54.22C435.05,-44.01 502.78,-28.9 544.83,-19.52"/>
<polygon fill="midnightblue" stroke="midnightblue" points="388.34,-50.85 379.35,-56.44 389.87,-57.68 388.34,-50.85"/>
</g>
</g>
</svg>
