<?xml version="1.0" encoding="UTF-8" standalone="no"?>
<!DOCTYPE svg PUBLIC "-//W3C//DTD SVG 1.1//EN"
 "http://www.w3.org/Graphics/SVG/1.1/DTD/svg11.dtd">
<!-- Generated by graphviz version 2.50.0 (0)
 -->
<!-- Title: WaterSSTP.h Pages: 1 -->
<svg width="332pt" height="84pt"
 viewBox="0.00 0.00 332.00 84.00" xmlns="http://www.w3.org/2000/svg" xmlns:xlink="http://www.w3.org/1999/xlink">
<g id="graph0" class="graph" transform="scale(1 1) rotate(0) translate(4 80)">
<title>WaterSSTP.h</title>
<polygon fill="white" stroke="transparent" points="-4,4 -4,-80 328,-80 328,4 -4,4"/>
<!-- Node1 -->
<g id="node1" class="node">
<title>Node1</title>
<g id="a_node1"><a xlink:title="Declares a ThermoPhase class consisting of pure water (see Thermodynamic Properties and class WaterSS...">
<polygon fill="#bfbfbf" stroke="black" points="123.5,-56.5 123.5,-75.5 198.5,-75.5 198.5,-56.5 123.5,-56.5"/>
<text text-anchor="middle" x="161" y="-63.5" font-family="Helvetica,sans-Serif" font-size="10.00">WaterSSTP.h</text>
</a>
</g>
</g>
<!-- Node2 -->
<g id="node2" class="node">
<title>Node2</title>
<g id="a_node2"><a xlink:href="../../d2/d3a/ThermoFactory_8cpp.html" target="_top" xlink:title="Definitions for the factory class that can create known ThermoPhase objects (see Thermodynamic Proper...">
<polygon fill="white" stroke="black" points="0,-0.5 0,-19.5 100,-19.5 100,-0.5 0,-0.5"/>
<text text-anchor="middle" x="50" y="-7.5" font-family="Helvetica,sans-Serif" font-size="10.00">ThermoFactory.cpp</text>
</a>
</g>
</g>
<!-- Node1&#45;&gt;Node2 -->
<g id="edge1" class="edge">
<title>Node1&#45;&gt;Node2</title>
<path fill="none" stroke="midnightblue" d="M133.99,-51.86C113.41,-41.85 85.66,-28.35 67.79,-19.65"/>
<polygon fill="midnightblue" stroke="midnightblue" points="132.64,-55.1 143.17,-56.32 135.7,-48.8 132.64,-55.1"/>
</g>
<!-- Node3 -->
<g id="node3" class="node">
<title>Node3</title>
<g id="a_node3"><a xlink:href="../../db/de5/WaterSSTP_8cpp.html" target="_top" xlink:title="Definitions for a ThermoPhase class consisting of pure water (see Thermodynamic Properties and class ...">
<polygon fill="white" stroke="black" points="118,-0.5 118,-19.5 204,-19.5 204,-0.5 118,-0.5"/>
<text text-anchor="middle" x="161" y="-7.5" font-family="Helvetica,sans-Serif" font-size="10.00">WaterSSTP.cpp</text>
</a>
</g>
</g>
<!-- Node1&#45;&gt;Node3 -->
<g id="edge2" class="edge">
<title>Node1&#45;&gt;Node3</title>
<path fill="none" stroke="midnightblue" d="M161,-45.8C161,-36.91 161,-26.78 161,-19.75"/>
<polygon fill="midnightblue" stroke="midnightblue" points="157.5,-46.08 161,-56.08 164.5,-46.08 157.5,-46.08"/>
</g>
<!-- Node4 -->
<g id="node4" class="node">
<title>Node4</title>
<g id="a_node4"><a xlink:href="../../d7/d8a/WaterTransport_8cpp.html" target="_top" xlink:title=" ">
<polygon fill="white" stroke="black" points="222,-0.5 222,-19.5 324,-19.5 324,-0.5 222,-0.5"/>
<text text-anchor="middle" x="273" y="-7.5" font-family="Helvetica,sans-Serif" font-size="10.00">WaterTransport.cpp</text>
</a>
</g>
</g>
<!-- Node1&#45;&gt;Node4 -->
<g id="edge3" class="edge">
<title>Node1&#45;&gt;Node4</title>
<path fill="none" stroke="midnightblue" d="M188.25,-51.86C209.02,-41.85 237.02,-28.35 255.05,-19.65"/>
<polygon fill="midnightblue" stroke="midnightblue" points="186.48,-48.83 178.99,-56.32 189.52,-55.13 186.48,-48.83"/>
</g>
</g>
</svg>
