<?xml version="1.0" encoding="UTF-8" standalone="no"?>
<!DOCTYPE svg PUBLIC "-//W3C//DTD SVG 1.1//EN"
 "http://www.w3.org/Graphics/SVG/1.1/DTD/svg11.dtd">
<!-- Generated by graphviz version 2.50.0 (0)
 -->
<!-- Title: polyfit.h Pages: 1 -->
<svg width="593pt" height="84pt"
 viewBox="0.00 0.00 592.50 84.00" xmlns="http://www.w3.org/2000/svg" xmlns:xlink="http://www.w3.org/1999/xlink">
<g id="graph0" class="graph" transform="scale(1 1) rotate(0) translate(4 80)">
<title>polyfit.h</title>
<polygon fill="white" stroke="transparent" points="-4,4 -4,-80 588.5,-80 588.5,4 -4,4"/>
<!-- Node1 -->
<g id="node1" class="node">
<title>Node1</title>
<g id="a_node1"><a xlink:title=" ">
<polygon fill="#bfbfbf" stroke="black" points="289,-56.5 289,-75.5 340,-75.5 340,-56.5 289,-56.5"/>
<text text-anchor="middle" x="314.5" y="-63.5" font-family="Helvetica,sans-Serif" font-size="10.00">polyfit.h</text>
</a>
</g>
</g>
<!-- Node2 -->
<g id="node2" class="node">
<title>Node2</title>
<g id="a_node2"><a xlink:href="../../d5/de4/GasTransport_8cpp.html" target="_top" xlink:title=" ">
<polygon fill="white" stroke="black" points="0,-0.5 0,-19.5 95,-19.5 95,-0.5 0,-0.5"/>
<text text-anchor="middle" x="47.5" y="-7.5" font-family="Helvetica,sans-Serif" font-size="10.00">GasTransport.cpp</text>
</a>
</g>
</g>
<!-- Node1&#45;&gt;Node2 -->
<g id="edge1" class="edge">
<title>Node1&#45;&gt;Node2</title>
<path fill="none" stroke="midnightblue" d="M279.07,-57.83C230.09,-47.93 141.82,-30.08 89.55,-19.5"/>
<polygon fill="midnightblue" stroke="midnightblue" points="278.4,-61.27 288.9,-59.82 279.79,-54.41 278.4,-61.27"/>
</g>
<!-- Node3 -->
<g id="node3" class="node">
<title>Node3</title>
<g id="a_node3"><a xlink:href="../../d4/d57/IonFlow_8cpp.html" target="_top" xlink:title=" ">
<polygon fill="white" stroke="black" points="113.5,-0.5 113.5,-19.5 181.5,-19.5 181.5,-0.5 113.5,-0.5"/>
<text text-anchor="middle" x="147.5" y="-7.5" font-family="Helvetica,sans-Serif" font-size="10.00">IonFlow.cpp</text>
</a>
</g>
</g>
<!-- Node1&#45;&gt;Node3 -->
<g id="edge2" class="edge">
<title>Node1&#45;&gt;Node3</title>
<path fill="none" stroke="midnightblue" d="M279.07,-53.54C247.56,-43.35 202.19,-28.69 173.81,-19.51"/>
<polygon fill="midnightblue" stroke="midnightblue" points="278.18,-56.93 288.77,-56.68 280.33,-50.27 278.18,-56.93"/>
</g>
<!-- Node4 -->
<g id="node4" class="node">
<title>Node4</title>
<g id="a_node4"><a xlink:href="../../d2/dc5/IonGasTransport_8cpp.html" target="_top" xlink:title=" ">
<polygon fill="white" stroke="black" points="199.5,-0.5 199.5,-19.5 307.5,-19.5 307.5,-0.5 199.5,-0.5"/>
<text text-anchor="middle" x="253.5" y="-7.5" font-family="Helvetica,sans-Serif" font-size="10.00">IonGasTransport.cpp</text>
</a>
</g>
</g>
<!-- Node1&#45;&gt;Node4 -->
<g id="edge3" class="edge">
<title>Node1&#45;&gt;Node4</title>
<path fill="none" stroke="midnightblue" d="M297.03,-49.54C286.16,-39.91 272.56,-27.87 263.48,-19.83"/>
<polygon fill="midnightblue" stroke="midnightblue" points="294.89,-52.32 304.7,-56.32 299.53,-47.07 294.89,-52.32"/>
</g>
<!-- Node5 -->
<g id="node5" class="node">
<title>Node5</title>
<g id="a_node5"><a xlink:href="../../df/d27/MMCollisionInt_8cpp.html" target="_top" xlink:title=" ">
<polygon fill="white" stroke="black" points="326,-0.5 326,-19.5 427,-19.5 427,-0.5 326,-0.5"/>
<text text-anchor="middle" x="376.5" y="-7.5" font-family="Helvetica,sans-Serif" font-size="10.00">MMCollisionInt.cpp</text>
</a>
</g>
</g>
<!-- Node1&#45;&gt;Node5 -->
<g id="edge4" class="edge">
<title>Node1&#45;&gt;Node5</title>
<path fill="none" stroke="midnightblue" d="M332.25,-49.54C343.31,-39.91 357.13,-27.87 366.36,-19.83"/>
<polygon fill="midnightblue" stroke="midnightblue" points="329.7,-47.12 324.46,-56.32 334.3,-52.4 329.7,-47.12"/>
</g>
<!-- Node6 -->
<g id="node6" class="node">
<title>Node6</title>
<g id="a_node6"><a xlink:href="../../d9/dc7/funcs_8cpp.html" target="_top" xlink:title="file containing miscellaneous numerical functions.">
<polygon fill="white" stroke="black" points="445,-0.5 445,-19.5 504,-19.5 504,-0.5 445,-0.5"/>
<text text-anchor="middle" x="474.5" y="-7.5" font-family="Helvetica,sans-Serif" font-size="10.00">funcs.cpp</text>
</a>
</g>
</g>
<!-- Node1&#45;&gt;Node6 -->
<g id="edge5" class="edge">
<title>Node1&#45;&gt;Node6</title>
<path fill="none" stroke="midnightblue" d="M349.55,-53.17C379.67,-43 422.4,-28.59 449.27,-19.52"/>
<polygon fill="midnightblue" stroke="midnightblue" points="348.21,-49.93 339.85,-56.44 350.45,-56.56 348.21,-49.93"/>
</g>
<!-- Node7 -->
<g id="node7" class="node">
<title>Node7</title>
<g id="a_node7"><a xlink:href="../../d0/de1/polyfit_8cpp.html" target="_top" xlink:title=" ">
<polygon fill="white" stroke="black" points="522.5,-0.5 522.5,-19.5 584.5,-19.5 584.5,-0.5 522.5,-0.5"/>
<text text-anchor="middle" x="553.5" y="-7.5" font-family="Helvetica,sans-Serif" font-size="10.00">polyfit.cpp</text>
</a>
</g>
</g>
<!-- Node1&#45;&gt;Node7 -->
<g id="edge6" class="edge">
<title>Node1&#45;&gt;Node7</title>
<path fill="none" stroke="midnightblue" d="M350.06,-56.97C396.79,-46.41 478.12,-28.03 522.48,-18.01"/>
<polygon fill="midnightblue" stroke="midnightblue" points="349.06,-53.6 340.08,-59.22 350.6,-60.43 349.06,-53.6"/>
</g>
</g>
</svg>
