<?xml version="1.0" encoding="UTF-8" standalone="no"?>
<!DOCTYPE svg PUBLIC "-//W3C//DTD SVG 1.1//EN"
 "http://www.w3.org/Graphics/SVG/1.1/DTD/svg11.dtd">
<!-- Generated by graphviz version 6.0.1 (0)
 -->
<!-- Title: core.h Pages: 1 -->
<!--zoomable 533 -->

<svg id="main" version="1.1" xmlns="http://www.w3.org/2000/svg" xmlns:xlink="http://www.w3.org/1999/xlink" xml:space="preserve" onload="init(evt)">
<style type="text/css"><![CDATA[
.node, .edge {opacity: 0.7;}
.node.selected, .edge.selected {opacity: 1;}
.edge:hover path { stroke: red; }
.edge:hover polygon { stroke: red; fill: red; }
]]></style>

<defs>
  <circle id="rim" cx="0" cy="0" r="7"/>
  <circle id="rim2" cx="0" cy="0" r="3.5"/>
  <g id="zoomPlus">
    <use xlink:href="#rim" fill="#404040"><set attributeName="fill" to="#808080" begin="zoomplus.mouseover" end="zoomplus.mouseout"/></use>
    <path d="M-4,0h8M0,-4v8" fill="none" stroke="white" stroke-width="1.5" pointer-events="none"/>
  </g>
  <g id="zoomMin">
    <use xlink:href="#rim" fill="#404040"><set attributeName="fill" to="#808080" begin="zoomminus.mouseover" end="zoomminus.mouseout"/></use>
    <path d="M-4,0h8" fill="none" stroke="white" stroke-width="1.5" pointer-events="none"/>
  </g>
  <g id="arrowUp" transform="translate(30 24)">
    <use xlink:href="#rim"/>
    <path pointer-events="none" fill="none" stroke="white" stroke-width="1.5" d="M0,-3.0v7 M-2.5,-0.5L0,-3.0L2.5,-0.5"/>
  </g>
  <g id="arrowRight" transform="rotate(90) translate(36 -43)">
    <use xlink:href="#rim"/>
    <path pointer-events="none" fill="none" stroke="white" stroke-width="1.5" d="M0,-3.0v7 M-2.5,-0.5L0,-3.0L2.5,-0.5"/>
  </g>
  <g id="arrowDown" transform="rotate(180) translate(-30 -48)">
    <use xlink:href="#rim"/>
    <path pointer-events="none" fill="none" stroke="white" stroke-width="1.5" d="M0,-3.0v7 M-2.5,-0.5L0,-3.0L2.5,-0.5"/>
  </g>
  <g id="arrowLeft" transform="rotate(270) translate(-36 17)">
    <use xlink:href="#rim"/>
    <path pointer-events="none" fill="none" stroke="white" stroke-width="1.5" d="M0,-3.0v7 M-2.5,-0.5L0,-3.0L2.5,-0.5"/>
  </g>
  <g id="resetDef">
    <use xlink:href="#rim2" fill="#404040"><set attributeName="fill" to="#808080" begin="reset.mouseover" end="reset.mouseout"/></use>
  </g>
</defs>
<script type="application/ecmascript">
var viewWidth = 1417;
var viewHeight = 533;
var sectionId = 'dynsection-0';
</script>
<script type="application/ecmascript" xlink:href="../../svg.min.js"/>
<svg id="graph" class="graph">
<g id="viewport">
<title>core.h</title>
<!-- Node1 -->
<g id="Node000001" class="node">
<title>Node1</title>
<g id="a_Node000001"><a xlink:title="Support for Cantera core calculations from C++ application programs.">
<polygon fill="#999999" stroke="#666666" points="793.5,-525 749.5,-525 749.5,-506 793.5,-506 793.5,-525"/>
<text text-anchor="middle" x="771.5" y="-513" font-family="Helvetica,sans-Serif" font-size="10.00">core.h</text>
</a>
</g>
</g>
<!-- Node2 -->
<g id="Node000002" class="node">
<title>Node2</title>
<g id="a_Node000002"><a xlink:href="../../d4/dfa/Solution_8h.html" target="_top" xlink:title=" ">
<polygon fill="white" stroke="#666666" points="743,-409.5 624,-409.5 624,-390.5 743,-390.5 743,-409.5"/>
<text text-anchor="middle" x="683.5" y="-397.5" font-family="Helvetica,sans-Serif" font-size="10.00">cantera/base/Solution.h</text>
</a>
</g>
</g>
<!-- Node1&#45;&gt;Node2 -->
<g id="edge1_Node000001_Node000002" class="edge">
<title>Node1&#45;&gt;Node2</title>
<g id="a_edge1_Node000001_Node000002"><a xlink:title=" ">
<path fill="none" stroke="#63b8ff" d="M764.89,-505.97C750.36,-487.24 715.46,-442.22 696.42,-417.66"/>
<polygon fill="#63b8ff" stroke="#63b8ff" points="699.08,-415.39 690.19,-409.63 693.55,-419.68 699.08,-415.39"/>
</a>
</g>
</g>
<!-- Node26 -->
<g id="Node000026" class="node">
<title>Node26</title>
<g id="a_Node000026"><a xlink:href="../../d7/d91/Interface_8h.html" target="_top" xlink:title=" ">
<polygon fill="white" stroke="#666666" points="626.5,-470 504.5,-470 504.5,-451 626.5,-451 626.5,-470"/>
<text text-anchor="middle" x="565.5" y="-458" font-family="Helvetica,sans-Serif" font-size="10.00">cantera/base/Interface.h</text>
</a>
</g>
</g>
<!-- Node1&#45;&gt;Node26 -->
<g id="edge30_Node000001_Node000026" class="edge">
<title>Node1&#45;&gt;Node26</title>
<g id="a_edge30_Node000001_Node000026"><a xlink:title=" ">
<path fill="none" stroke="#63b8ff" d="M749.45,-508.83C715.92,-500.2 651.45,-483.61 608.45,-472.55"/>
<polygon fill="#63b8ff" stroke="#63b8ff" points="609.1,-469.1 598.55,-470 607.36,-475.88 609.1,-469.1"/>
</a>
</g>
</g>
<!-- Node28 -->
<g id="Node000028" class="node">
<title>Node28</title>
<g id="a_Node000028"><a xlink:href="../../d7/d01/ThermoPhase_8h.html" target="_top" xlink:title="Header file for class ThermoPhase, the base class for phases with thermodynamic properties,...">
<polygon fill="white" stroke="#666666" points="604.5,-294 518.5,-294 518.5,-275 604.5,-275 604.5,-294"/>
<text text-anchor="middle" x="561.5" y="-282" font-family="Helvetica,sans-Serif" font-size="10.00">ThermoPhase.h</text>
</a>
</g>
</g>
<!-- Node1&#45;&gt;Node28 -->
<g id="edge59_Node000001_Node000028" class="edge">
<title>Node1&#45;&gt;Node28</title>
<g id="a_edge59_Node000001_Node000028"><a xlink:title=" ">
<path fill="none" stroke="#63b8ff" d="M772.63,-505.97C775.1,-483.74 778.76,-423.12 751.5,-385 717.17,-336.99 652.51,-310.29 608.24,-296.91"/>
<polygon fill="#63b8ff" stroke="#63b8ff" points="609.15,-293.53 598.57,-294.1 607.19,-300.25 609.15,-293.53"/>
</a>
</g>
</g>
<!-- Node36 -->
<g id="Node000036" class="node">
<title>Node36</title>
<g id="a_Node000036"><a xlink:href="../../d5/db4/Kinetics_8h.html" target="_top" xlink:title="Base class for kinetics managers and also contains the kineticsmgr module documentation (see Kinetics...">
<polygon fill="white" stroke="#666666" points="859.5,-349 799.5,-349 799.5,-330 859.5,-330 859.5,-349"/>
<text text-anchor="middle" x="829.5" y="-337" font-family="Helvetica,sans-Serif" font-size="10.00">Kinetics.h</text>
</a>
</g>
</g>
<!-- Node1&#45;&gt;Node36 -->
<g id="edge60_Node000001_Node000036" class="edge">
<title>Node1&#45;&gt;Node36</title>
<g id="a_edge60_Node000001_Node000036"><a xlink:title=" ">
<path fill="none" stroke="#63b8ff" d="M774.46,-505.63C783.53,-478.4 811.13,-395.61 823.45,-358.65"/>
<polygon fill="#63b8ff" stroke="#63b8ff" points="826.78,-359.74 826.62,-349.14 820.14,-357.52 826.78,-359.74"/>
</a>
</g>
</g>
<!-- Node46 -->
<g id="Node000046" class="node">
<title>Node46</title>
<g id="a_Node000046"><a xlink:href="../../d8/d5e/Transport_8h.html" target="_top" xlink:title="Headers for the Transport object, which is the virtual base class for all transport property evaluato...">
<polygon fill="white" stroke="#666666" points="1148,-239 1005,-239 1005,-220 1148,-220 1148,-239"/>
<text text-anchor="middle" x="1076.5" y="-227" font-family="Helvetica,sans-Serif" font-size="10.00">cantera/transport/Transport.h</text>
</a>
</g>
</g>
<!-- Node1&#45;&gt;Node46 -->
<g id="edge61_Node000001_Node000046" class="edge">
<title>Node1&#45;&gt;Node46</title>
<g id="a_edge61_Node000001_Node000046"><a xlink:title=" ">
<path fill="none" stroke="#63b8ff" d="M793.55,-514.97C857,-515.07 1035.5,-506.02 1035.5,-401 1035.5,-401 1035.5,-401 1035.5,-338.5 1035.5,-304.57 1053.41,-268.31 1065.56,-247.62"/>
<polygon fill="#63b8ff" stroke="#63b8ff" points="1068.57,-249.4 1070.8,-239.04 1062.6,-245.75 1068.57,-249.4"/>
</a>
</g>
</g>
<!-- Node3 -->
<g id="Node000003" class="node">
<title>Node3</title>
<g id="a_Node000003"><a xlink:href="../../db/d98/ctexceptions_8h.html" target="_top" xlink:title="Definitions for the classes that are thrown when Cantera experiences an error condition (also contain...">
<polygon fill="white" stroke="#666666" points="1014.5,-184 874.5,-184 874.5,-165 1014.5,-165 1014.5,-184"/>
<text text-anchor="middle" x="944.5" y="-172" font-family="Helvetica,sans-Serif" font-size="10.00">cantera/base/ctexceptions.h</text>
</a>
</g>
</g>
<!-- Node2&#45;&gt;Node3 -->
<g id="edge2_Node000002_Node000003" class="edge">
<title>Node2&#45;&gt;Node3</title>
<g id="a_edge2_Node000002_Node000003"><a xlink:title=" ">
<path fill="none" stroke="#63b8ff" d="M743.06,-396.18C808.3,-389.36 908.71,-366.89 946.5,-294 963.09,-262 956.04,-218.31 949.93,-193.91"/>
<polygon fill="#63b8ff" stroke="#63b8ff" points="953.29,-192.9 947.28,-184.17 946.53,-194.74 953.29,-192.9"/>
</a>
</g>
</g>
<!-- Node20 -->
<g id="Node000020" class="node">
<title>Node20</title>
<g id="a_Node000020"><a xlink:href="../../dd/d2a/AnyMap_8h.html" target="_top" xlink:title=" ">
<polygon fill="white" stroke="#666666" points="512.5,-239 392.5,-239 392.5,-220 512.5,-220 512.5,-239"/>
<text text-anchor="middle" x="452.5" y="-227" font-family="Helvetica,sans-Serif" font-size="10.00">cantera/base/AnyMap.h</text>
</a>
</g>
</g>
<!-- Node2&#45;&gt;Node20 -->
<g id="edge20_Node000002_Node000020" class="edge">
<title>Node2&#45;&gt;Node20</title>
<g id="a_edge20_Node000002_Node000020"><a xlink:title=" ">
<path fill="none" stroke="#63b8ff" d="M665.59,-390.44C632.73,-374.26 561.43,-336.95 509.5,-294 492.46,-279.9 475.91,-260.65 465.07,-247.05"/>
<polygon fill="#63b8ff" stroke="#63b8ff" points="467.74,-244.78 458.83,-239.04 462.21,-249.08 467.74,-244.78"/>
</a>
</g>
</g>
<!-- Node4 -->
<g id="Node000004" class="node">
<title>Node4</title>
<g id="a_Node000004"><a xlink:href="../../d9/ddc/ct__defs_8h.html" target="_top" xlink:title="This file contains definitions of constants, types and terms that are used in internal routines and a...">
<polygon fill="white" stroke="#666666" points="816,-74 759,-74 759,-55 816,-55 816,-74"/>
<text text-anchor="middle" x="787.5" y="-62" font-family="Helvetica,sans-Serif" font-size="10.00">ct_defs.h</text>
</a>
</g>
</g>
<!-- Node3&#45;&gt;Node4 -->
<g id="edge3_Node000003_Node000004" class="edge">
<title>Node3&#45;&gt;Node4</title>
<g id="a_edge3_Node000003_Node000004"><a xlink:title=" ">
<path fill="none" stroke="#63b8ff" d="M931.92,-164.84C905.05,-146.36 841.81,-102.86 808.64,-80.05"/>
<polygon fill="#63b8ff" stroke="#63b8ff" points="810.37,-76.98 800.14,-74.2 806.4,-82.75 810.37,-76.98"/>
</a>
</g>
</g>
<!-- Node15 -->
<g id="Node000015" class="node">
<title>Node15</title>
<g id="a_Node000015"><a xlink:href="../../db/def/fmt_8h.html" target="_top" xlink:title="Wrapper for either system&#45;installed or local headers for fmt.">
<polygon fill="white" stroke="#666666" points="1252.5,-129 1154.5,-129 1154.5,-110 1252.5,-110 1252.5,-129"/>
<text text-anchor="middle" x="1203.5" y="-117" font-family="Helvetica,sans-Serif" font-size="10.00">cantera/base/fmt.h</text>
</a>
</g>
</g>
<!-- Node3&#45;&gt;Node15 -->
<g id="edge14_Node000003_Node000015" class="edge">
<title>Node3&#45;&gt;Node15</title>
<g id="a_edge14_Node000003_Node000015"><a xlink:title=" ">
<path fill="none" stroke="#63b8ff" d="M986.11,-164.98C1031.1,-155.78 1102.89,-141.09 1151.55,-131.13"/>
<polygon fill="#63b8ff" stroke="#63b8ff" points="1152.47,-134.52 1161.56,-129.08 1151.06,-127.66 1152.47,-134.52"/>
</a>
</g>
</g>
<!-- Node19 -->
<g id="Node000019" class="node">
<title>Node19</title>
<g id="a_Node000019"><a xlink:title=" ">
<polygon fill="#e0e0e0" stroke="#999999" points="974,-129 915,-129 915,-110 974,-110 974,-129"/>
<text text-anchor="middle" x="944.5" y="-117" font-family="Helvetica,sans-Serif" font-size="10.00">exception</text>
</a>
</g>
</g>
<!-- Node3&#45;&gt;Node19 -->
<g id="edge19_Node000003_Node000019" class="edge">
<title>Node3&#45;&gt;Node19</title>
<g id="a_edge19_Node000003_Node000019"><a xlink:title=" ">
<path fill="none" stroke="#63b8ff" d="M944.5,-164.75C944.5,-157.8 944.5,-147.85 944.5,-139.13"/>
<polygon fill="#63b8ff" stroke="#63b8ff" points="948,-139.09 944.5,-129.09 941,-139.09 948,-139.09"/>
</a>
</g>
</g>
<!-- Node5 -->
<g id="Node000005" class="node">
<title>Node5</title>
<g id="a_Node000005"><a xlink:href="../../db/d16/config_8h_source.html" target="_top" xlink:title=" ">
<polygon fill="white" stroke="#666666" points="538,-19 487,-19 487,0 538,0 538,-19"/>
<text text-anchor="middle" x="512.5" y="-7" font-family="Helvetica,sans-Serif" font-size="10.00">config.h</text>
</a>
</g>
</g>
<!-- Node4&#45;&gt;Node5 -->
<g id="edge4_Node000004_Node000005" class="edge">
<title>Node4&#45;&gt;Node5</title>
<g id="a_edge4_Node000004_Node000005"><a xlink:title=" ">
<path fill="none" stroke="#63b8ff" d="M758.95,-58.73C715.6,-51.37 630.36,-36.46 547.86,-18.97"/>
<polygon fill="#63b8ff" stroke="#63b8ff" points="548.59,-15.55 538.08,-16.88 547.13,-22.39 548.59,-15.55"/>
</a>
</g>
</g>
<!-- Node6 -->
<g id="Node000006" class="node">
<title>Node6</title>
<g id="a_Node000006"><a xlink:title=" ">
<polygon fill="#e0e0e0" stroke="#999999" points="600.5,-19 556.5,-19 556.5,0 600.5,0 600.5,-19"/>
<text text-anchor="middle" x="578.5" y="-7" font-family="Helvetica,sans-Serif" font-size="10.00">cmath</text>
</a>
</g>
</g>
<!-- Node4&#45;&gt;Node6 -->
<g id="edge5_Node000004_Node000006" class="edge">
<title>Node4&#45;&gt;Node6</title>
<g id="a_edge5_Node000004_Node000006"><a xlink:title=" ">
<path fill="none" stroke="#63b8ff" d="M758.78,-56.53C725.41,-48.39 668.45,-34.35 610.52,-19.22"/>
<polygon fill="#63b8ff" stroke="#63b8ff" points="611.4,-15.84 600.83,-16.69 609.62,-22.61 611.4,-15.84"/>
</a>
</g>
</g>
<!-- Node7 -->
<g id="Node000007" class="node">
<title>Node7</title>
<g id="a_Node000007"><a xlink:title=" ">
<polygon fill="#e0e0e0" stroke="#999999" points="664,-19 619,-19 619,0 664,0 664,-19"/>
<text text-anchor="middle" x="641.5" y="-7" font-family="Helvetica,sans-Serif" font-size="10.00">cstdlib</text>
</a>
</g>
</g>
<!-- Node4&#45;&gt;Node7 -->
<g id="edge6_Node000004_Node000007" class="edge">
<title>Node4&#45;&gt;Node7</title>
<g id="a_edge6_Node000004_Node000007"><a xlink:title=" ">
<path fill="none" stroke="#63b8ff" d="M764.04,-54.98C739.63,-46.12 701.23,-32.18 673.93,-22.27"/>
<polygon fill="#63b8ff" stroke="#63b8ff" points="675.01,-18.94 664.42,-18.82 672.62,-25.52 675.01,-18.94"/>
</a>
</g>
</g>
<!-- Node8 -->
<g id="Node000008" class="node">
<title>Node8</title>
<g id="a_Node000008"><a xlink:title=" ">
<polygon fill="#e0e0e0" stroke="#999999" points="726.5,-19 682.5,-19 682.5,0 726.5,0 726.5,-19"/>
<text text-anchor="middle" x="704.5" y="-7" font-family="Helvetica,sans-Serif" font-size="10.00">vector</text>
</a>
</g>
</g>
<!-- Node4&#45;&gt;Node8 -->
<g id="edge7_Node000004_Node000008" class="edge">
<title>Node4&#45;&gt;Node8</title>
<g id="a_edge7_Node000004_Node000008"><a xlink:title=" ">
<path fill="none" stroke="#63b8ff" d="M774.16,-54.98C761.41,-46.84 741.95,-34.41 726.83,-24.76"/>
<polygon fill="#63b8ff" stroke="#63b8ff" points="728.39,-21.6 718.08,-19.17 724.62,-27.5 728.39,-21.6"/>
</a>
</g>
</g>
<!-- Node9 -->
<g id="Node000009" class="node">
<title>Node9</title>
<g id="a_Node000009"><a xlink:title=" ">
<polygon fill="#e0e0e0" stroke="#999999" points="780,-19 745,-19 745,0 780,0 780,-19"/>
<text text-anchor="middle" x="762.5" y="-7" font-family="Helvetica,sans-Serif" font-size="10.00">map</text>
</a>
</g>
</g>
<!-- Node4&#45;&gt;Node9 -->
<g id="edge8_Node000004_Node000009" class="edge">
<title>Node4&#45;&gt;Node9</title>
<g id="a_edge8_Node000004_Node000009"><a xlink:title=" ">
<path fill="none" stroke="#63b8ff" d="M783.37,-54.75C779.99,-47.57 775.08,-37.18 770.88,-28.27"/>
<polygon fill="#63b8ff" stroke="#63b8ff" points="773.98,-26.64 766.55,-19.09 767.65,-29.63 773.98,-26.64"/>
</a>
</g>
</g>
<!-- Node10 -->
<g id="Node000010" class="node">
<title>Node10</title>
<g id="a_Node000010"><a xlink:title=" ">
<polygon fill="#e0e0e0" stroke="#999999" points="828.5,-19 798.5,-19 798.5,0 828.5,0 828.5,-19"/>
<text text-anchor="middle" x="813.5" y="-7" font-family="Helvetica,sans-Serif" font-size="10.00">set</text>
</a>
</g>
</g>
<!-- Node4&#45;&gt;Node10 -->
<g id="edge9_Node000004_Node000010" class="edge">
<title>Node4&#45;&gt;Node10</title>
<g id="a_edge9_Node000004_Node000010"><a xlink:title=" ">
<path fill="none" stroke="#63b8ff" d="M791.79,-54.75C795.31,-47.57 800.41,-37.18 804.78,-28.27"/>
<polygon fill="#63b8ff" stroke="#63b8ff" points="808.02,-29.61 809.29,-19.09 801.74,-26.53 808.02,-29.61"/>
</a>
</g>
</g>
<!-- Node11 -->
<g id="Node000011" class="node">
<title>Node11</title>
<g id="a_Node000011"><a xlink:title=" ">
<polygon fill="#e0e0e0" stroke="#999999" points="888,-19 847,-19 847,0 888,0 888,-19"/>
<text text-anchor="middle" x="867.5" y="-7" font-family="Helvetica,sans-Serif" font-size="10.00">string</text>
</a>
</g>
</g>
<!-- Node4&#45;&gt;Node11 -->
<g id="edge10_Node000004_Node000011" class="edge">
<title>Node4&#45;&gt;Node11</title>
<g id="a_edge10_Node000004_Node000011"><a xlink:title=" ">
<path fill="none" stroke="#63b8ff" d="M800.35,-54.98C812.64,-46.84 831.41,-34.41 845.98,-24.76"/>
<polygon fill="#63b8ff" stroke="#63b8ff" points="848.01,-27.61 854.41,-19.17 844.14,-21.78 848.01,-27.61"/>
</a>
</g>
</g>
<!-- Node12 -->
<g id="Node000012" class="node">
<title>Node12</title>
<g id="a_Node000012"><a xlink:title=" ">
<polygon fill="#e0e0e0" stroke="#999999" points="962.5,-19 906.5,-19 906.5,0 962.5,0 962.5,-19"/>
<text text-anchor="middle" x="934.5" y="-7" font-family="Helvetica,sans-Serif" font-size="10.00">algorithm</text>
</a>
</g>
</g>
<!-- Node4&#45;&gt;Node12 -->
<g id="edge11_Node000004_Node000012" class="edge">
<title>Node4&#45;&gt;Node12</title>
<g id="a_edge11_Node000004_Node000012"><a xlink:title=" ">
<path fill="none" stroke="#63b8ff" d="M811.12,-54.98C835.4,-46.23 873.45,-32.51 900.87,-22.62"/>
<polygon fill="#63b8ff" stroke="#63b8ff" points="902.23,-25.85 910.45,-19.17 899.86,-19.27 902.23,-25.85"/>
</a>
</g>
</g>
<!-- Node13 -->
<g id="Node000013" class="node">
<title>Node13</title>
<g id="a_Node000013"><a xlink:title=" ">
<polygon fill="#e0e0e0" stroke="#999999" points="1032.5,-19 980.5,-19 980.5,0 1032.5,0 1032.5,-19"/>
<text text-anchor="middle" x="1006.5" y="-7" font-family="Helvetica,sans-Serif" font-size="10.00">memory</text>
</a>
</g>
</g>
<!-- Node4&#45;&gt;Node13 -->
<g id="edge12_Node000004_Node000013" class="edge">
<title>Node4&#45;&gt;Node13</title>
<g id="a_edge12_Node000004_Node000013"><a xlink:title=" ">
<path fill="none" stroke="#63b8ff" d="M816.19,-56.57C850.48,-48.29 909.87,-33.93 970.07,-19.34"/>
<polygon fill="#63b8ff" stroke="#63b8ff" points="971.23,-22.66 980.13,-16.91 969.58,-15.86 971.23,-22.66"/>
</a>
</g>
</g>
<!-- Node14 -->
<g id="Node000014" class="node">
<title>Node14</title>
<g id="a_Node000014"><a xlink:title=" ">
<polygon fill="#e0e0e0" stroke="#999999" points="1110,-19 1051,-19 1051,0 1110,0 1110,-19"/>
<text text-anchor="middle" x="1080.5" y="-7" font-family="Helvetica,sans-Serif" font-size="10.00">functional</text>
</a>
</g>
</g>
<!-- Node4&#45;&gt;Node14 -->
<g id="edge13_Node000004_Node000014" class="edge">
<title>Node4&#45;&gt;Node14</title>
<g id="a_edge13_Node000004_Node000014"><a xlink:title=" ">
<path fill="none" stroke="#63b8ff" d="M816.14,-58.88C861.55,-51.46 953.08,-36.17 1040.86,-19.06"/>
<polygon fill="#63b8ff" stroke="#63b8ff" points="1041.58,-22.48 1050.72,-17.12 1040.23,-15.61 1041.58,-22.48"/>
</a>
</g>
</g>
<!-- Node15&#45;&gt;Node4 -->
<g id="edge15_Node000015_Node000004" class="edge">
<title>Node15&#45;&gt;Node4</title>
<g id="a_edge15_Node000015_Node000004"><a xlink:title=" ">
<path fill="none" stroke="#63b8ff" d="M1154.32,-111.82C1149.65,-111.2 1144.99,-110.59 1140.5,-110 1026.49,-95.12 891.65,-78.35 826.55,-70.31"/>
<polygon fill="#63b8ff" stroke="#63b8ff" points="826.69,-66.8 816.34,-69.05 825.83,-73.75 826.69,-66.8"/>
</a>
</g>
</g>
<!-- Node16 -->
<g id="Node000016" class="node">
<title>Node16</title>
<g id="a_Node000016"><a xlink:title=" ">
<polygon fill="#e0e0e0" stroke="#999999" points="1408.5,-74 1286.5,-74 1286.5,-55 1408.5,-55 1408.5,-74"/>
<text text-anchor="middle" x="1347.5" y="-62" font-family="Helvetica,sans-Serif" font-size="10.00">cantera/ext/fmt/format.h</text>
</a>
</g>
</g>
<!-- Node15&#45;&gt;Node16 -->
<g id="edge16_Node000015_Node000016" class="edge">
<title>Node15&#45;&gt;Node16</title>
<g id="a_edge16_Node000015_Node000016"><a xlink:title=" ">
<path fill="none" stroke="#63b8ff" d="M1226.64,-109.98C1250.32,-101.27 1287.37,-87.63 1314.21,-77.75"/>
<polygon fill="#63b8ff" stroke="#63b8ff" points="1315.77,-80.91 1323.94,-74.17 1313.35,-74.34 1315.77,-80.91"/>
</a>
</g>
</g>
<!-- Node17 -->
<g id="Node000017" class="node">
<title>Node17</title>
<g id="a_Node000017"><a xlink:title=" ">
<polygon fill="#e0e0e0" stroke="#999999" points="1120.5,-74 1004.5,-74 1004.5,-55 1120.5,-55 1120.5,-74"/>
<text text-anchor="middle" x="1062.5" y="-62" font-family="Helvetica,sans-Serif" font-size="10.00">cantera/ext/fmt/printf.h</text>
</a>
</g>
</g>
<!-- Node15&#45;&gt;Node17 -->
<g id="edge17_Node000015_Node000017" class="edge">
<title>Node15&#45;&gt;Node17</title>
<g id="a_edge17_Node000015_Node000017"><a xlink:title=" ">
<path fill="none" stroke="#63b8ff" d="M1180.85,-109.98C1157.65,-101.27 1121.38,-87.63 1095.1,-77.75"/>
<polygon fill="#63b8ff" stroke="#63b8ff" points="1096.16,-74.41 1085.57,-74.17 1093.7,-80.97 1096.16,-74.41"/>
</a>
</g>
</g>
<!-- Node18 -->
<g id="Node000018" class="node">
<title>Node18</title>
<g id="a_Node000018"><a xlink:title=" ">
<polygon fill="#e0e0e0" stroke="#999999" points="1268,-74 1139,-74 1139,-55 1268,-55 1268,-74"/>
<text text-anchor="middle" x="1203.5" y="-62" font-family="Helvetica,sans-Serif" font-size="10.00">cantera/ext/fmt/ostream.h</text>
</a>
</g>
</g>
<!-- Node15&#45;&gt;Node18 -->
<g id="edge18_Node000015_Node000018" class="edge">
<title>Node15&#45;&gt;Node18</title>
<g id="a_edge18_Node000015_Node000018"><a xlink:title=" ">
<path fill="none" stroke="#63b8ff" d="M1203.5,-109.75C1203.5,-102.8 1203.5,-92.85 1203.5,-84.13"/>
<polygon fill="#63b8ff" stroke="#63b8ff" points="1207,-84.09 1203.5,-74.09 1200,-84.09 1207,-84.09"/>
</a>
</g>
</g>
<!-- Node20&#45;&gt;Node3 -->
<g id="edge22_Node000020_Node000003" class="edge">
<title>Node20&#45;&gt;Node3</title>
<g id="a_edge22_Node000020_Node000003"><a xlink:title=" ">
<path fill="none" stroke="#63b8ff" d="M512.67,-221.55C517.35,-221.02 522,-220.5 526.5,-220 543.02,-218.17 747.74,-196.41 864.41,-184.01"/>
<polygon fill="#63b8ff" stroke="#63b8ff" points="864.81,-187.49 874.38,-182.95 864.07,-180.53 864.81,-187.49"/>
</a>
</g>
</g>
<!-- Node20&#45;&gt;Node4 -->
<g id="edge21_Node000020_Node000004" class="edge">
<title>Node20&#45;&gt;Node4</title>
<g id="a_edge21_Node000020_Node000004"><a xlink:title=" ">
<path fill="none" stroke="#63b8ff" d="M395.43,-219.92C351.92,-210.93 303.11,-193.97 326.5,-165 379.65,-99.16 647.47,-74.78 748.69,-67.82"/>
<polygon fill="#63b8ff" stroke="#63b8ff" points="749.04,-71.31 758.79,-67.15 748.58,-64.32 749.04,-71.31"/>
</a>
</g>
</g>
<!-- Node21 -->
<g id="Node000021" class="node">
<title>Node21</title>
<g id="a_Node000021"><a xlink:href="../../da/d58/Units_8h.html" target="_top" xlink:title="Header for unit conversion utilities, which are used to translate user input from input files (See In...">
<polygon fill="white" stroke="#666666" points="279,-184 172,-184 172,-165 279,-165 279,-184"/>
<text text-anchor="middle" x="225.5" y="-172" font-family="Helvetica,sans-Serif" font-size="10.00">cantera/base/Units.h</text>
</a>
</g>
</g>
<!-- Node20&#45;&gt;Node21 -->
<g id="edge23_Node000020_Node000021" class="edge">
<title>Node20&#45;&gt;Node21</title>
<g id="a_edge23_Node000020_Node000021"><a xlink:title=" ">
<path fill="none" stroke="#63b8ff" d="M416.03,-219.98C376.93,-210.86 314.73,-196.33 272.11,-186.38"/>
<polygon fill="#63b8ff" stroke="#63b8ff" points="272.79,-182.95 262.26,-184.08 271.2,-189.76 272.79,-182.95"/>
</a>
</g>
</g>
<!-- Node22 -->
<g id="Node000022" class="node">
<title>Node22</title>
<g id="a_Node000022"><a xlink:title=" ">
<polygon fill="#e0e0e0" stroke="#999999" points="620,-184 537,-184 537,-165 620,-165 620,-184"/>
<text text-anchor="middle" x="578.5" y="-172" font-family="Helvetica,sans-Serif" font-size="10.00">unordered_map</text>
</a>
</g>
</g>
<!-- Node20&#45;&gt;Node22 -->
<g id="edge25_Node000020_Node000022" class="edge">
<title>Node20&#45;&gt;Node22</title>
<g id="a_edge25_Node000020_Node000022"><a xlink:title=" ">
<path fill="none" stroke="#63b8ff" d="M472.74,-219.98C493.2,-211.38 525.03,-197.99 548.43,-188.15"/>
<polygon fill="#63b8ff" stroke="#63b8ff" points="550.03,-191.27 557.89,-184.17 547.31,-184.82 550.03,-191.27"/>
</a>
</g>
</g>
<!-- Node23 -->
<g id="Node000023" class="node">
<title>Node23</title>
<g id="a_Node000023"><a xlink:title=" ">
<polygon fill="#e0e0e0" stroke="#999999" points="700.5,-184 638.5,-184 638.5,-165 700.5,-165 700.5,-184"/>
<text text-anchor="middle" x="669.5" y="-172" font-family="Helvetica,sans-Serif" font-size="10.00">filesystem</text>
</a>
</g>
</g>
<!-- Node20&#45;&gt;Node23 -->
<g id="edge26_Node000020_Node000023" class="edge">
<title>Node20&#45;&gt;Node23</title>
<g id="a_edge26_Node000020_Node000023"><a xlink:title=" ">
<path fill="none" stroke="#63b8ff" d="M487.36,-219.98C525.8,-210.6 587.58,-195.51 628.36,-185.55"/>
<polygon fill="#63b8ff" stroke="#63b8ff" points="629.36,-188.91 638.24,-183.13 627.7,-182.11 629.36,-188.91"/>
</a>
</g>
</g>
<!-- Node24 -->
<g id="Node000024" class="node">
<title>Node24</title>
<g id="a_Node000024"><a xlink:title=" ">
<polygon fill="#e0e0e0" stroke="#999999" points="367.5,-184 335.5,-184 335.5,-165 367.5,-165 367.5,-184"/>
<text text-anchor="middle" x="351.5" y="-172" font-family="Helvetica,sans-Serif" font-size="10.00">any</text>
</a>
</g>
</g>
<!-- Node20&#45;&gt;Node24 -->
<g id="edge27_Node000020_Node000024" class="edge">
<title>Node20&#45;&gt;Node24</title>
<g id="a_edge27_Node000020_Node000024"><a xlink:title=" ">
<path fill="none" stroke="#63b8ff" d="M436.27,-219.98C420.22,-211.56 395.43,-198.55 376.79,-188.77"/>
<polygon fill="#63b8ff" stroke="#63b8ff" points="378.17,-185.54 367.69,-183.99 374.92,-191.74 378.17,-185.54"/>
</a>
</g>
</g>
<!-- Node25 -->
<g id="Node000025" class="node">
<title>Node25</title>
<g id="a_Node000025"><a xlink:href="../../da/d4c/AnyMap_8inl_8h.html" target="_top" xlink:title=" ">
<polygon fill="white" stroke="#666666" points="519,-184 386,-184 386,-165 519,-165 519,-184"/>
<text text-anchor="middle" x="452.5" y="-172" font-family="Helvetica,sans-Serif" font-size="10.00">cantera/base/AnyMap.inl.h</text>
</a>
</g>
</g>
<!-- Node20&#45;&gt;Node25 -->
<g id="edge28_Node000020_Node000025" class="edge">
<title>Node20&#45;&gt;Node25</title>
<g id="a_edge28_Node000020_Node000025"><a xlink:title=" ">
<path fill="none" stroke="#63b8ff" d="M447.33,-219.75C445.84,-212.8 445.4,-202.85 446.02,-194.13"/>
<polygon fill="#63b8ff" stroke="#63b8ff" points="449.51,-194.47 447.37,-184.09 442.57,-193.53 449.51,-194.47"/>
</a>
</g>
</g>
<!-- Node21&#45;&gt;Node4 -->
<g id="edge24_Node000021_Node000004" class="edge">
<title>Node21&#45;&gt;Node4</title>
<g id="a_edge24_Node000021_Node000004"><a xlink:title=" ">
<path fill="none" stroke="#63b8ff" d="M231.82,-164.6C242.6,-150.23 266.07,-122.26 293.5,-110 374.74,-73.67 646.81,-67 748.61,-65.77"/>
<polygon fill="#63b8ff" stroke="#63b8ff" points="748.8,-69.27 758.76,-65.66 748.73,-62.27 748.8,-69.27"/>
</a>
</g>
</g>
<!-- Node25&#45;&gt;Node20 -->
<g id="edge29_Node000025_Node000020" class="edge">
<title>Node25&#45;&gt;Node20</title>
<g id="a_edge29_Node000025_Node000020"><a xlink:title=" ">
<path fill="none" stroke="#63b8ff" d="M457.63,-184.09C459.14,-190.99 459.59,-200.93 458.99,-209.66"/>
<polygon fill="#63b8ff" stroke="#63b8ff" points="455.5,-209.38 457.67,-219.75 462.44,-210.29 455.5,-209.38"/>
</a>
</g>
</g>
<!-- Node26&#45;&gt;Node2 -->
<g id="edge31_Node000026_Node000002" class="edge">
<title>Node26&#45;&gt;Node2</title>
<g id="a_edge31_Node000026_Node000002"><a xlink:title=" ">
<path fill="none" stroke="#63b8ff" d="M582.66,-450.99C602.23,-441.29 634.47,-425.31 657.22,-414.03"/>
<polygon fill="#63b8ff" stroke="#63b8ff" points="658.92,-417.09 666.32,-409.52 655.81,-410.82 658.92,-417.09"/>
</a>
</g>
</g>
<!-- Node27 -->
<g id="Node000027" class="node">
<title>Node27</title>
<g id="a_Node000027"><a xlink:href="../../d2/de5/SurfPhase_8h.html" target="_top" xlink:title="Header for a simple thermodynamics model of a surface phase derived from ThermoPhase,...">
<polygon fill="white" stroke="#666666" points="606,-409.5 467,-409.5 467,-390.5 606,-390.5 606,-409.5"/>
<text text-anchor="middle" x="536.5" y="-397.5" font-family="Helvetica,sans-Serif" font-size="10.00">cantera/thermo/SurfPhase.h</text>
</a>
</g>
</g>
<!-- Node26&#45;&gt;Node27 -->
<g id="edge32_Node000026_Node000027" class="edge">
<title>Node26&#45;&gt;Node27</title>
<g id="a_edge32_Node000026_Node000027"><a xlink:title=" ">
<path fill="none" stroke="#63b8ff" d="M561.22,-450.87C557.07,-442.49 550.63,-429.51 545.37,-418.89"/>
<polygon fill="#63b8ff" stroke="#63b8ff" points="548.37,-417.07 540.8,-409.67 542.1,-420.18 548.37,-417.07"/>
</a>
</g>
</g>
<!-- Node35 -->
<g id="Node000035" class="node">
<title>Node35</title>
<g id="a_Node000035"><a xlink:href="../../d7/d0d/InterfaceKinetics_8h.html" target="_top" xlink:title=" ">
<polygon fill="white" stroke="#666666" points="449,-415 322,-415 322,-385 449,-385 449,-415"/>
<text text-anchor="start" x="330" y="-403" font-family="Helvetica,sans-Serif" font-size="10.00">cantera/kinetics/Interface</text>
<text text-anchor="middle" x="385.5" y="-392" font-family="Helvetica,sans-Serif" font-size="10.00">Kinetics.h</text>
</a>
</g>
</g>
<!-- Node26&#45;&gt;Node35 -->
<g id="edge41_Node000026_Node000035" class="edge">
<title>Node26&#45;&gt;Node35</title>
<g id="a_edge41_Node000026_Node000035"><a xlink:title=" ">
<path fill="none" stroke="#63b8ff" d="M539.33,-450.99C512.97,-442.43 471.57,-428.97 438.35,-418.18"/>
<polygon fill="#63b8ff" stroke="#63b8ff" points="439.37,-414.83 428.77,-415.06 437.2,-421.48 439.37,-414.83"/>
</a>
</g>
</g>
<!-- Node27&#45;&gt;Node28 -->
<g id="edge33_Node000027_Node000028" class="edge">
<title>Node27&#45;&gt;Node28</title>
<g id="a_edge33_Node000027_Node000028"><a xlink:title=" ">
<path fill="none" stroke="#63b8ff" d="M538.38,-390.47C542.4,-372.23 551.9,-329.07 557.39,-304.14"/>
<polygon fill="#63b8ff" stroke="#63b8ff" points="560.87,-304.65 559.6,-294.13 554.03,-303.14 560.87,-304.65"/>
</a>
</g>
</g>
<!-- Node28&#45;&gt;Node20 -->
<g id="edge40_Node000028_Node000020" class="edge">
<title>Node28&#45;&gt;Node20</title>
<g id="a_edge40_Node000028_Node000020"><a xlink:title=" ">
<path fill="none" stroke="#63b8ff" d="M543.99,-274.98C526.53,-266.5 499.49,-253.35 479.33,-243.54"/>
<polygon fill="#63b8ff" stroke="#63b8ff" points="480.86,-240.4 470.33,-239.17 477.79,-246.69 480.86,-240.4"/>
</a>
</g>
</g>
<!-- Node28&#45;&gt;Node21 -->
<g id="edge39_Node000028_Node000021" class="edge">
<title>Node28&#45;&gt;Node21</title>
<g id="a_edge39_Node000028_Node000021"><a xlink:title=" ">
<path fill="none" stroke="#63b8ff" d="M520.76,-274.99C484.39,-266.99 429.86,-254.03 383.5,-239 337.32,-224.02 285.37,-202.13 254.05,-188.36"/>
<polygon fill="#63b8ff" stroke="#63b8ff" points="255.2,-185.04 244.64,-184.19 252.37,-191.44 255.2,-185.04"/>
</a>
</g>
</g>
<!-- Node29 -->
<g id="Node000029" class="node">
<title>Node29</title>
<g id="a_Node000029"><a xlink:href="../../da/d84/Phase_8h.html" target="_top" xlink:title="Header file for class Phase.">
<polygon fill="#fff0f0" stroke="red" points="622,-239 569,-239 569,-220 622,-220 622,-239"/>
<text text-anchor="middle" x="595.5" y="-227" font-family="Helvetica,sans-Serif" font-size="10.00">Phase.h</text>
</a>
</g>
</g>
<!-- Node28&#45;&gt;Node29 -->
<g id="edge34_Node000028_Node000029" class="edge">
<title>Node28&#45;&gt;Node29</title>
<g id="a_edge34_Node000028_Node000029"><a xlink:title=" ">
<path fill="none" stroke="#63b8ff" d="M567.11,-274.75C571.82,-267.42 578.67,-256.73 584.47,-247.7"/>
<polygon fill="#63b8ff" stroke="#63b8ff" points="587.54,-249.4 589.99,-239.09 581.64,-245.62 587.54,-249.4"/>
</a>
</g>
</g>
<!-- Node33 -->
<g id="Node000033" class="node">
<title>Node33</title>
<g id="a_Node000033"><a xlink:href="../../d6/d7a/MultiSpeciesThermo_8h.html" target="_top" xlink:title="Header for a general species thermodynamic property manager for a phase (see MultiSpeciesThermo).">
<polygon fill="#fff0f0" stroke="red" points="792.5,-239 678.5,-239 678.5,-220 792.5,-220 792.5,-239"/>
<text text-anchor="middle" x="735.5" y="-227" font-family="Helvetica,sans-Serif" font-size="10.00">MultiSpeciesThermo.h</text>
</a>
</g>
</g>
<!-- Node28&#45;&gt;Node33 -->
<g id="edge38_Node000028_Node000033" class="edge">
<title>Node28&#45;&gt;Node33</title>
<g id="a_edge38_Node000028_Node000033"><a xlink:title=" ">
<path fill="none" stroke="#63b8ff" d="M589.46,-274.98C618.8,-266.05 665.1,-251.94 697.69,-242.02"/>
<polygon fill="#63b8ff" stroke="#63b8ff" points="698.78,-245.34 707.32,-239.08 696.74,-238.65 698.78,-245.34"/>
</a>
</g>
</g>
<!-- Node29&#45;&gt;Node3 -->
<g id="edge35_Node000029_Node000003" class="edge">
<title>Node29&#45;&gt;Node3</title>
<g id="a_edge35_Node000029_Node000003"><a xlink:title=" ">
<path fill="none" stroke="#63b8ff" d="M622.36,-222.69C627.06,-221.74 631.92,-220.81 636.5,-220 714.76,-206.25 804.74,-193.61 867.16,-185.35"/>
<polygon fill="#63b8ff" stroke="#63b8ff" points="867.86,-188.78 877.32,-184.01 866.95,-181.84 867.86,-188.78"/>
</a>
</g>
</g>
<!-- Node31 -->
<g id="Node000031" class="node">
<title>Node31</title>
<g id="a_Node000031"><a xlink:href="../../d6/df6/ValueCache_8h.html" target="_top" xlink:title=" ">
<polygon fill="#fff0f0" stroke="red" points="856,-184 719,-184 719,-165 856,-165 856,-184"/>
<text text-anchor="middle" x="787.5" y="-172" font-family="Helvetica,sans-Serif" font-size="10.00">cantera/base/ValueCache.h</text>
</a>
</g>
</g>
<!-- Node29&#45;&gt;Node31 -->
<g id="edge36_Node000029_Node000031" class="edge">
<title>Node29&#45;&gt;Node31</title>
<g id="a_edge36_Node000029_Node000031"><a xlink:title=" ">
<path fill="none" stroke="#63b8ff" d="M622.2,-221.13C654.41,-212.24 708.91,-197.19 746.47,-186.83"/>
<polygon fill="#63b8ff" stroke="#63b8ff" points="747.88,-190.07 756.59,-184.03 746.01,-183.32 747.88,-190.07"/>
</a>
</g>
</g>
<!-- Node31&#45;&gt;Node4 -->
<g id="edge37_Node000031_Node000004" class="edge">
<title>Node31&#45;&gt;Node4</title>
<g id="a_edge37_Node000031_Node000004"><a xlink:title=" ">
<path fill="none" stroke="#63b8ff" d="M787.5,-164.66C787.5,-147.17 787.5,-107.8 787.5,-84.27"/>
<polygon fill="#63b8ff" stroke="#63b8ff" points="791,-84.16 787.5,-74.16 784,-84.16 791,-84.16"/>
</a>
</g>
</g>
<!-- Node35&#45;&gt;Node36 -->
<g id="edge42_Node000035_Node000036" class="edge">
<title>Node35&#45;&gt;Node36</title>
<g id="a_edge42_Node000035_Node000036"><a xlink:title=" ">
<path fill="none" stroke="#63b8ff" d="M449.06,-386.38C451.91,-385.9 454.73,-385.43 457.5,-385 577.36,-366.2 720.04,-351.17 788.66,-344.4"/>
<polygon fill="#63b8ff" stroke="#63b8ff" points="789.41,-347.84 799.02,-343.39 788.72,-340.88 789.41,-347.84"/>
</a>
</g>
</g>
<!-- Node40 -->
<g id="Node000040" class="node">
<title>Node40</title>
<g id="a_Node000040"><a xlink:href="../../d6/d42/MultiRate_8h.html" target="_top" xlink:title=" ">
<polygon fill="white" stroke="#666666" points="350,-349 283,-349 283,-330 350,-330 350,-349"/>
<text text-anchor="middle" x="316.5" y="-337" font-family="Helvetica,sans-Serif" font-size="10.00">MultiRate.h</text>
</a>
</g>
</g>
<!-- Node35&#45;&gt;Node40 -->
<g id="edge46_Node000035_Node000040" class="edge">
<title>Node35&#45;&gt;Node40</title>
<g id="a_edge46_Node000035_Node000040"><a xlink:title=" ">
<path fill="none" stroke="#63b8ff" d="M368.8,-384.84C358.47,-376.09 345.22,-364.85 334.64,-355.88"/>
<polygon fill="#63b8ff" stroke="#63b8ff" points="336.73,-353.06 326.84,-349.27 332.2,-358.4 336.73,-353.06"/>
</a>
</g>
</g>
<!-- Node36&#45;&gt;Node31 -->
<g id="edge45_Node000036_Node000031" class="edge">
<title>Node36&#45;&gt;Node31</title>
<g id="a_edge45_Node000036_Node000031"><a xlink:title=" ">
<path fill="none" stroke="#63b8ff" d="M827.68,-329.82C823.5,-310.16 812.71,-260.76 801.5,-220 799.14,-211.41 796.22,-201.99 793.66,-194.03"/>
<polygon fill="#63b8ff" stroke="#63b8ff" points="796.92,-192.72 790.48,-184.31 790.26,-194.9 796.92,-192.72"/>
</a>
</g>
</g>
<!-- Node37 -->
<g id="Node000037" class="node">
<title>Node37</title>
<g id="a_Node000037"><a xlink:href="../../dd/dfd/StoichManager_8h.html" target="_top" xlink:title=" ">
<polygon fill="#fff0f0" stroke="red" points="938,-294 849,-294 849,-275 938,-275 938,-294"/>
<text text-anchor="middle" x="893.5" y="-282" font-family="Helvetica,sans-Serif" font-size="10.00">StoichManager.h</text>
</a>
</g>
</g>
<!-- Node36&#45;&gt;Node37 -->
<g id="edge43_Node000036_Node000037" class="edge">
<title>Node36&#45;&gt;Node37</title>
<g id="a_edge43_Node000036_Node000037"><a xlink:title=" ">
<path fill="none" stroke="#63b8ff" d="M839.78,-329.98C849.34,-322.07 863.78,-310.11 875.28,-300.58"/>
<polygon fill="#63b8ff" stroke="#63b8ff" points="877.56,-303.24 883.03,-294.17 873.1,-297.85 877.56,-303.24"/>
</a>
</g>
</g>
<!-- Node37&#45;&gt;Node3 -->
<g id="edge44_Node000037_Node000003" class="edge">
<title>Node37&#45;&gt;Node3</title>
<g id="a_edge44_Node000037_Node000003"><a xlink:title=" ">
<path fill="none" stroke="#63b8ff" d="M897.67,-274.66C906.05,-256.93 925.03,-216.73 936.09,-193.32"/>
<polygon fill="#63b8ff" stroke="#63b8ff" points="939.31,-194.7 940.41,-184.16 932.98,-191.71 939.31,-194.7"/>
</a>
</g>
</g>
<!-- Node41 -->
<g id="Node000041" class="node">
<title>Node41</title>
<g id="a_Node000041"><a xlink:href="../../d8/db0/ReactionRate_8h.html" target="_top" xlink:title=" ">
<polygon fill="white" stroke="#666666" points="396,-294 311,-294 311,-275 396,-275 396,-294"/>
<text text-anchor="middle" x="353.5" y="-282" font-family="Helvetica,sans-Serif" font-size="10.00">ReactionRate.h</text>
</a>
</g>
</g>
<!-- Node40&#45;&gt;Node41 -->
<g id="edge47_Node000040_Node000041" class="edge">
<title>Node40&#45;&gt;Node41</title>
<g id="a_edge47_Node000040_Node000041"><a xlink:title=" ">
<path fill="none" stroke="#63b8ff" d="M322.61,-329.75C327.78,-322.34 335.35,-311.5 341.69,-302.41"/>
<polygon fill="#63b8ff" stroke="#63b8ff" points="344.65,-304.29 347.5,-294.09 338.91,-300.29 344.65,-304.29"/>
</a>
</g>
</g>
<!-- Node42 -->
<g id="Node000042" class="node">
<title>Node42</title>
<g id="a_Node000042"><a xlink:href="../../dd/d16/MultiRateBase_8h.html" target="_top" xlink:title=" ">
<polygon fill="white" stroke="#666666" points="298,-239 209,-239 209,-220 298,-220 298,-239"/>
<text text-anchor="middle" x="253.5" y="-227" font-family="Helvetica,sans-Serif" font-size="10.00">MultiRateBase.h</text>
</a>
</g>
</g>
<!-- Node40&#45;&gt;Node42 -->
<g id="edge56_Node000040_Node000042" class="edge">
<title>Node40&#45;&gt;Node42</title>
<g id="a_edge56_Node000040_Node000042"><a xlink:title=" ">
<path fill="none" stroke="#63b8ff" d="M311.34,-329.66C300.96,-311.85 277.34,-271.37 263.71,-248.01"/>
<polygon fill="#63b8ff" stroke="#63b8ff" points="266.61,-246.03 258.55,-239.16 260.57,-249.56 266.61,-246.03"/>
</a>
</g>
</g>
<!-- Node44 -->
<g id="Node000044" class="node">
<title>Node44</title>
<g id="a_Node000044"><a xlink:href="../../de/df0/utilities_8h.html" target="_top" xlink:title="Various templated functions that carry out common vector and polynomial operations (see Templated Arr...">
<polygon fill="#fff0f0" stroke="red" points="115,-129 0,-129 0,-110 115,-110 115,-129"/>
<text text-anchor="middle" x="57.5" y="-117" font-family="Helvetica,sans-Serif" font-size="10.00">cantera/base/utilities.h</text>
</a>
</g>
</g>
<!-- Node40&#45;&gt;Node44 -->
<g id="edge57_Node000040_Node000044" class="edge">
<title>Node40&#45;&gt;Node44</title>
<g id="a_edge57_Node000040_Node000044"><a xlink:title=" ">
<path fill="none" stroke="#63b8ff" d="M306.35,-329.95C267.27,-297.06 126.25,-178.36 75.69,-135.81"/>
<polygon fill="#63b8ff" stroke="#63b8ff" points="77.77,-132.99 67.86,-129.22 73.26,-138.34 77.77,-132.99"/>
</a>
</g>
</g>
<!-- Node41&#45;&gt;Node3 -->
<g id="edge55_Node000041_Node000003" class="edge">
<title>Node41&#45;&gt;Node3</title>
<g id="a_edge55_Node000041_Node000003"><a xlink:title=" ">
<path fill="none" stroke="#63b8ff" d="M395.32,-274.93C429.77,-267.28 479.59,-254.84 521.5,-239 539.16,-232.33 541.4,-225.39 559.5,-220 573.9,-215.71 755.74,-195.73 864.28,-184.05"/>
<polygon fill="#63b8ff" stroke="#63b8ff" points="864.66,-187.53 874.22,-182.99 863.91,-180.57 864.66,-187.53"/>
</a>
</g>
</g>
<!-- Node41&#45;&gt;Node20 -->
<g id="edge50_Node000041_Node000020" class="edge">
<title>Node41&#45;&gt;Node20</title>
<g id="a_edge50_Node000041_Node000020"><a xlink:title=" ">
<path fill="none" stroke="#63b8ff" d="M369.41,-274.98C385.05,-266.61 409.16,-253.7 427.38,-243.95"/>
<polygon fill="#63b8ff" stroke="#63b8ff" points="429.14,-246.98 436.3,-239.17 425.84,-240.8 429.14,-246.98"/>
</a>
</g>
</g>
<!-- Node41&#45;&gt;Node21 -->
<g id="edge51_Node000041_Node000021" class="edge">
<title>Node41&#45;&gt;Node21</title>
<g id="a_edge51_Node000041_Node000021"><a xlink:title=" ">
<path fill="none" stroke="#63b8ff" d="M348.7,-274.77C341.12,-261.59 325.3,-236.42 306.5,-220 291.59,-206.98 272.23,-196.17 256.18,-188.47"/>
<polygon fill="#63b8ff" stroke="#63b8ff" points="257.23,-185.1 246.69,-184.08 254.3,-191.45 257.23,-185.1"/>
</a>
</g>
</g>
<!-- Node41&#45;&gt;Node42 -->
<g id="edge48_Node000041_Node000042" class="edge">
<title>Node41&#45;&gt;Node42</title>
<g id="a_edge48_Node000041_Node000042"><a xlink:title=" ">
<path fill="none" stroke="#63b8ff" d="M337.43,-274.98C321.64,-266.61 297.28,-253.7 278.87,-243.95"/>
<polygon fill="#63b8ff" stroke="#63b8ff" points="280.33,-240.76 269.86,-239.17 277.06,-246.95 280.33,-240.76"/>
</a>
</g>
</g>
<!-- Node43 -->
<g id="Node000043" class="node">
<title>Node43</title>
<g id="a_Node000043"><a xlink:href="../../d2/d49/global_8h.html" target="_top" xlink:title="This file contains definitions for utility functions and text for modules, inputfiles and logging,...">
<polygon fill="white" stroke="#666666" points="1142.5,-184 1032.5,-184 1032.5,-165 1142.5,-165 1142.5,-184"/>
<text text-anchor="middle" x="1087.5" y="-172" font-family="Helvetica,sans-Serif" font-size="10.00">cantera/base/global.h</text>
</a>
</g>
</g>
<!-- Node41&#45;&gt;Node43 -->
<g id="edge52_Node000041_Node000043" class="edge">
<title>Node41&#45;&gt;Node43</title>
<g id="a_edge52_Node000041_Node000043"><a xlink:title=" ">
<path fill="none" stroke="#63b8ff" d="M396.16,-280.55C451.34,-275.86 549.93,-264.48 630.5,-239 648.88,-233.19 650.96,-225.28 669.5,-220 818.48,-177.59 864.55,-201.39 1022.3,-184.08"/>
<polygon fill="#63b8ff" stroke="#63b8ff" points="1022.81,-187.54 1032.36,-182.93 1022.02,-180.58 1022.81,-187.54"/>
</a>
</g>
</g>
<!-- Node42&#45;&gt;Node4 -->
<g id="edge49_Node000042_Node000004" class="edge">
<title>Node42&#45;&gt;Node4</title>
<g id="a_edge49_Node000042_Node000004"><a xlink:title=" ">
<path fill="none" stroke="#63b8ff" d="M219.28,-219.97C187.28,-210.16 146.62,-191.86 162.5,-165 188.32,-121.34 213.95,-124.68 262.5,-110 353.6,-82.45 643.52,-70.28 748.81,-66.7"/>
<polygon fill="#63b8ff" stroke="#63b8ff" points="749.11,-70.19 758.99,-66.36 748.88,-63.19 749.11,-70.19"/>
</a>
</g>
</g>
<!-- Node43&#45;&gt;Node4 -->
<g id="edge53_Node000043_Node000004" class="edge">
<title>Node43&#45;&gt;Node4</title>
<g id="a_edge53_Node000043_Node000004"><a xlink:title=" ">
<path fill="none" stroke="#63b8ff" d="M1076.18,-164.96C1057.6,-151.35 1019.04,-124.77 982.5,-110 930.38,-88.93 866.19,-76.71 826.04,-70.58"/>
<polygon fill="#63b8ff" stroke="#63b8ff" points="826.53,-67.11 816.13,-69.11 825.51,-74.04 826.53,-67.11"/>
</a>
</g>
</g>
<!-- Node43&#45;&gt;Node15 -->
<g id="edge54_Node000043_Node000015" class="edge">
<title>Node43&#45;&gt;Node15</title>
<g id="a_edge54_Node000043_Node000015"><a xlink:title=" ">
<path fill="none" stroke="#63b8ff" d="M1106.14,-164.98C1124.8,-156.46 1153.75,-143.23 1175.24,-133.41"/>
<polygon fill="#63b8ff" stroke="#63b8ff" points="1176.88,-136.51 1184.52,-129.17 1173.97,-130.14 1176.88,-136.51"/>
</a>
</g>
</g>
<!-- Node44&#45;&gt;Node4 -->
<g id="edge58_Node000044_Node000004" class="edge">
<title>Node44&#45;&gt;Node4</title>
<g id="a_edge58_Node000044_Node000004"><a xlink:title=" ">
<path fill="none" stroke="#63b8ff" d="M115.24,-111.43C120.06,-110.91 124.86,-110.43 129.5,-110 364.31,-88.21 647.2,-72.68 748.82,-67.44"/>
<polygon fill="#63b8ff" stroke="#63b8ff" points="749.11,-70.93 758.92,-66.92 748.75,-63.94 749.11,-70.93"/>
</a>
</g>
</g>
<!-- Node46&#45;&gt;Node3 -->
<g id="edge63_Node000046_Node000003" class="edge">
<title>Node46&#45;&gt;Node3</title>
<g id="a_edge63_Node000046_Node000003"><a xlink:title=" ">
<path fill="none" stroke="#63b8ff" d="M1055.29,-219.98C1033.77,-211.34 1000.22,-197.87 975.67,-188.02"/>
<polygon fill="#63b8ff" stroke="#63b8ff" points="976.68,-184.65 966.09,-184.17 974.07,-191.14 976.68,-184.65"/>
</a>
</g>
</g>
<!-- Node46&#45;&gt;Node4 -->
<g id="edge62_Node000046_Node000004" class="edge">
<title>Node46&#45;&gt;Node4</title>
<g id="a_edge62_Node000046_Node000004"><a xlink:title=" ">
<path fill="none" stroke="#63b8ff" d="M1101.7,-219.96C1129.32,-209.16 1167.71,-189.05 1151.5,-165 1114.8,-110.57 912.52,-80.39 826.37,-69.84"/>
<polygon fill="#63b8ff" stroke="#63b8ff" points="826.56,-66.34 816.22,-68.62 825.73,-73.29 826.56,-66.34"/>
</a>
</g>
</g>
<!-- Node46&#45;&gt;Node43 -->
<g id="edge64_Node000046_Node000043" class="edge">
<title>Node46&#45;&gt;Node43</title>
<g id="a_edge64_Node000046_Node000043"><a xlink:title=" ">
<path fill="none" stroke="#63b8ff" d="M1078.32,-219.75C1079.76,-212.8 1081.82,-202.85 1083.63,-194.13"/>
<polygon fill="#63b8ff" stroke="#63b8ff" points="1087.11,-194.59 1085.72,-184.09 1080.26,-193.17 1087.11,-194.59"/>
</a>
</g>
</g>
</g>
</svg>

<g id="navigator" transform="translate(0 0)" fill="#404254">
  <rect fill="#f2f5e9" fill-opacity="0.5" stroke="#606060" stroke-width=".5" x="0" y="0" width="60" height="60"/>
  <use id="zoomplus" xlink:href="#zoomPlus" x="17" y="9" onmousedown="handleZoom(evt,'in')"/>
  <use id="zoomminus" xlink:href="#zoomMin" x="42" y="9" onmousedown="handleZoom(evt,'out')"/>
  <use id="reset" xlink:href="#resetDef" x="30" y="36" onmousedown="handleReset()"/>
   <use id="arrowup" xlink:href="#arrowUp" x="0" y="0" onmousedown="handlePan(0,-1)"/>
  <use id="arrowright" xlink:href="#arrowRight" x="0" y="0" onmousedown="handlePan(1,0)"/>
  <use id="arrowdown" xlink:href="#arrowDown" x="0" y="0" onmousedown="handlePan(0,1)"/>
  <use id="arrowleft" xlink:href="#arrowLeft" x="0" y="0" onmousedown="handlePan(-1,0)"/>
</g>
<svg viewBox="0 0 15 15" width="100%" height="30px" preserveAspectRatio="xMaxYMin meet">
 <g id="arrow_out" transform="scale(0.3 0.3)">
  <a xlink:href="core_8h__incl_org.svg" target="_base">
   <rect id="button" ry="5" rx="5" y="6" x="6" height="38" width="38"
        fill="#f2f5e9" fill-opacity="0.5" stroke="#606060" stroke-width="1.0"/>
   <path id="arrow"
     d="M 11.500037,31.436501 C 11.940474,20.09759 22.043105,11.32322 32.158766,21.979434 L 37.068811,17.246167 C 37.068811,17.246167 37.088388,32 37.088388,32 L 22.160133,31.978069 C 22.160133,31.978069 26.997745,27.140456 26.997745,27.140456 C 18.528582,18.264221 13.291696,25.230495 11.500037,31.436501 z"
     style="fill:#404040;"/>
  </a>
 </g>
</svg>

<style type='text/css'>
<![CDATA[
[data-mouse-over-selected='false'] { opacity: 0.7; }
[data-mouse-over-selected='true']  { opacity: 1.0; }
]]>
</style>
<script type="application/ecmascript"><![CDATA[
document.addEventListener('DOMContentLoaded', (event) => {
  highlightEdges();
  highlightAdjacentNodes();
});
]]></script>
</svg>
