<?xml version="1.0" encoding="UTF-8" standalone="no"?>
<!DOCTYPE svg PUBLIC "-//W3C//DTD SVG 1.1//EN"
 "http://www.w3.org/Graphics/SVG/1.1/DTD/svg11.dtd">
<!-- Generated by graphviz version 6.0.1 (0)
 -->
<!-- Title: Functor Objects Pages: 1 -->
<svg width="235pt" height="175pt"
 viewBox="0.00 0.00 235.00 175.00" xmlns="http://www.w3.org/2000/svg" xmlns:xlink="http://www.w3.org/1999/xlink">
<g id="graph0" class="graph" transform="scale(1 1) rotate(0) translate(4 171)">
<title>Functor Objects</title>
<!-- Node1 -->
<g id="node1" class="node">
<title>Node1</title>
<g id="a_node1"><a xlink:title="Functors implement functions of a single variable .">
<polygon fill="#999999" stroke="#666666" points="86,-93 0,-93 0,-74 86,-74 86,-93"/>
<text text-anchor="middle" x="43" y="-81" font-family="Helvetica,sans-Serif" font-size="10.00">Functor Objects</text>
</a>
</g>
</g>
<!-- Node3 -->
<g id="node2" class="node">
<title>Node3</title>
<g id="a_node2"><a xlink:href="../../d8/d56/group__func1advanced.html" target="_top" xlink:title="Advanced functors implement expressions that require multiple parameters.">
<polygon fill="white" stroke="#666666" points="225,-167 124,-167 124,-148 225,-148 225,-167"/>
<text text-anchor="middle" x="174.5" y="-155" font-family="Helvetica,sans-Serif" font-size="10.00">Advanced Functors</text>
</a>
</g>
</g>
<!-- Node1&#45;&gt;Node3 -->
<g id="edge2" class="edge">
<title>Node1&#45;&gt;Node3</title>
<path fill="none" stroke="black" d="M63.3,-99.76C78.5,-111.95 100.61,-128.38 122,-139.5 128.13,-142.69 134.96,-145.52 141.58,-147.95"/>
<polygon fill="black" stroke="black" points="65.17,-96.77 55.21,-93.15 60.74,-102.19 65.17,-96.77"/>
</g>
<!-- Node4 -->
<g id="node3" class="node">
<title>Node4</title>
<g id="a_node3"><a xlink:href="../../da/d18/group__func1compound.html" target="_top" xlink:title="Compound functors implement expressions that are composed of other functors.">
<polygon fill="white" stroke="#666666" points="227,-130 122,-130 122,-111 227,-111 227,-130"/>
<text text-anchor="middle" x="174.5" y="-118" font-family="Helvetica,sans-Serif" font-size="10.00">Compound Functors</text>
</a>
</g>
</g>
<!-- Node1&#45;&gt;Node4 -->
<g id="edge3" class="edge">
<title>Node1&#45;&gt;Node4</title>
<path fill="none" stroke="black" d="M87.14,-95.83C104.29,-100.73 123.73,-106.28 139.81,-110.88"/>
<polygon fill="black" stroke="black" points="87.93,-92.41 77.35,-93.03 86,-99.14 87.93,-92.41"/>
</g>
<!-- Node6 -->
<g id="node4" class="node">
<title>Node6</title>
<g id="a_node4"><a xlink:href="../../d9/d3d/group__func1helper.html" target="_top" xlink:title="Helper functions detect simplifications that can be made to compound expressions.">
<polygon fill="white" stroke="#666666" points="220,-93 129,-93 129,-74 220,-74 220,-93"/>
<text text-anchor="middle" x="174.5" y="-81" font-family="Helvetica,sans-Serif" font-size="10.00">Helper Functions</text>
</a>
</g>
</g>
<!-- Node1&#45;&gt;Node6 -->
<g id="edge5" class="edge">
<title>Node1&#45;&gt;Node6</title>
<path fill="none" stroke="black" d="M96.26,-83.5C107.11,-83.5 118.45,-83.5 128.99,-83.5"/>
<polygon fill="black" stroke="black" points="96.04,-80 86.04,-83.5 96.04,-87 96.04,-80"/>
</g>
<!-- Node5 -->
<g id="node5" class="node">
<title>Node5</title>
<g id="a_node5"><a xlink:href="../../d0/da8/group__func1modified.html" target="_top" xlink:title="Modified functors implement expressions that involve one functor and a single parameter.">
<polygon fill="white" stroke="#666666" points="222,-56 127,-56 127,-37 222,-37 222,-56"/>
<text text-anchor="middle" x="174.5" y="-44" font-family="Helvetica,sans-Serif" font-size="10.00">Modified Functors</text>
</a>
</g>
</g>
<!-- Node1&#45;&gt;Node5 -->
<g id="edge4" class="edge">
<title>Node1&#45;&gt;Node5</title>
<path fill="none" stroke="black" d="M87.14,-71.17C104.29,-66.27 123.73,-60.72 139.81,-56.12"/>
<polygon fill="black" stroke="black" points="86,-67.86 77.35,-73.97 87.93,-74.59 86,-67.86"/>
</g>
<!-- Node2 -->
<g id="node6" class="node">
<title>Node2</title>
<g id="a_node6"><a xlink:href="../../d8/d14/group__func1simple.html" target="_top" xlink:title="Simple functors implement standard mathematical expressions with a single parameter.">
<polygon fill="white" stroke="#666666" points="218.5,-19 130.5,-19 130.5,0 218.5,0 218.5,-19"/>
<text text-anchor="middle" x="174.5" y="-7" font-family="Helvetica,sans-Serif" font-size="10.00">Simple Functors</text>
</a>
</g>
</g>
<!-- Node1&#45;&gt;Node2 -->
<g id="edge1" class="edge">
<title>Node1&#45;&gt;Node2</title>
<path fill="none" stroke="black" d="M63.67,-67.45C78.91,-55.56 100.91,-39.58 122,-28.5 128.75,-24.95 136.31,-21.77 143.51,-19.06"/>
<polygon fill="black" stroke="black" points="61.19,-64.94 55.53,-73.9 65.54,-70.43 61.19,-64.94"/>
</g>
</g>
</svg>
