<?xml version="1.0" encoding="UTF-8" standalone="no"?>
<!DOCTYPE svg PUBLIC "-//W3C//DTD SVG 1.1//EN"
 "http://www.w3.org/Graphics/SVG/1.1/DTD/svg11.dtd">
<!-- Generated by graphviz version 6.0.1 (0)
 -->
<!-- Title: Functor Objects Pages: 1 -->
<svg width="368pt" height="175pt"
 viewBox="0.00 0.00 368.00 175.00" xmlns="http://www.w3.org/2000/svg" xmlns:xlink="http://www.w3.org/1999/xlink">

<svg id="main" version="1.1" xmlns="http://www.w3.org/2000/svg" xmlns:xlink="http://www.w3.org/1999/xlink" xml:space="preserve" onload="init(evt)">
<style type="text/css"><![CDATA[
.node, .edge {opacity: 0.7;}
.node.selected, .edge.selected {opacity: 1;}
.edge:hover path { stroke: red; }
.edge:hover polygon { stroke: red; fill: red; }
]]></style>
<script type="application/ecmascript" xlink:href="../../svg.min.js"/>
<svg id="graph" class="graph">
<g id="graph0" class="graph" transform="scale(1 1) rotate(0) translate(4 171)">
<title>Functor Objects</title>
<!-- Node1 -->
<g id="Node000001" class="node">
<title>Node1</title>
<g id="a_Node000001"><a xlink:title="Functors implement functions of a single variable .">
<polygon fill="#999999" stroke="#666666" points="219,-93 133,-93 133,-74 219,-74 219,-93"/>
<text text-anchor="middle" x="176" y="-81" font-family="Helvetica,sans-Serif" font-size="10.00">Functor Objects</text>
</a>
</g>
</g>
<!-- Node4 -->
<g id="Node000004" class="node">
<title>Node4</title>
<g id="a_Node000004"><a xlink:href="../../d8/d56/group__func1advanced.html" target="_top" xlink:title="Advanced functors implement expressions that require multiple parameters.">
<polygon fill="white" stroke="#666666" points="358,-167 257,-167 257,-148 358,-148 358,-167"/>
<text text-anchor="middle" x="307.5" y="-155" font-family="Helvetica,sans-Serif" font-size="10.00">Advanced Functors</text>
</a>
</g>
</g>
<!-- Node1&#45;&gt;Node4 -->
<g id="edge3" class="edge">
<title>Node1&#45;&gt;Node4</title>
<path fill="none" stroke="black" d="M196.3,-99.76C211.5,-111.95 233.61,-128.38 255,-139.5 261.13,-142.69 267.96,-145.52 274.58,-147.95"/>
<polygon fill="black" stroke="black" points="198.17,-96.77 188.21,-93.15 193.74,-102.19 198.17,-96.77"/>
</g>
<!-- Node5 -->
<g id="Node000005" class="node">
<title>Node5</title>
<g id="a_Node000005"><a xlink:href="../../da/d18/group__func1compound.html" target="_top" xlink:title="Compound functors implement expressions that are composed of other functors.">
<polygon fill="white" stroke="#666666" points="360,-130 255,-130 255,-111 360,-111 360,-130"/>
<text text-anchor="middle" x="307.5" y="-118" font-family="Helvetica,sans-Serif" font-size="10.00">Compound Functors</text>
</a>
</g>
</g>
<!-- Node1&#45;&gt;Node5 -->
<g id="edge4" class="edge">
<title>Node1&#45;&gt;Node5</title>
<path fill="none" stroke="black" d="M220.14,-95.83C237.29,-100.73 256.73,-106.28 272.81,-110.88"/>
<polygon fill="black" stroke="black" points="220.93,-92.41 210.35,-93.03 219,-99.14 220.93,-92.41"/>
</g>
<!-- Node7 -->
<g id="Node000007" class="node">
<title>Node7</title>
<g id="a_Node000007"><a xlink:href="../../d9/d3d/group__func1helper.html" target="_top" xlink:title="Helper functions detect simplifications that can be made to compound expressions.">
<polygon fill="white" stroke="#666666" points="353,-93 262,-93 262,-74 353,-74 353,-93"/>
<text text-anchor="middle" x="307.5" y="-81" font-family="Helvetica,sans-Serif" font-size="10.00">Helper Functions</text>
</a>
</g>
</g>
<!-- Node1&#45;&gt;Node7 -->
<g id="edge6" class="edge">
<title>Node1&#45;&gt;Node7</title>
<path fill="none" stroke="black" d="M229.26,-83.5C240.11,-83.5 251.45,-83.5 261.99,-83.5"/>
<polygon fill="black" stroke="black" points="229.04,-80 219.04,-83.5 229.04,-87 229.04,-80"/>
</g>
<!-- Node6 -->
<g id="Node000006" class="node">
<title>Node6</title>
<g id="a_Node000006"><a xlink:href="../../d0/da8/group__func1modified.html" target="_top" xlink:title="Modified functors implement expressions that involve one functor and a single parameter.">
<polygon fill="white" stroke="#666666" points="355,-56 260,-56 260,-37 355,-37 355,-56"/>
<text text-anchor="middle" x="307.5" y="-44" font-family="Helvetica,sans-Serif" font-size="10.00">Modified Functors</text>
</a>
</g>
</g>
<!-- Node1&#45;&gt;Node6 -->
<g id="edge5" class="edge">
<title>Node1&#45;&gt;Node6</title>
<path fill="none" stroke="black" d="M220.14,-71.17C237.29,-66.27 256.73,-60.72 272.81,-56.12"/>
<polygon fill="black" stroke="black" points="219,-67.86 210.35,-73.97 220.93,-74.59 219,-67.86"/>
</g>
<!-- Node3 -->
<g id="Node000003" class="node">
<title>Node3</title>
<g id="a_Node000003"><a xlink:href="../../d8/d14/group__func1simple.html" target="_top" xlink:title="Simple functors implement standard mathematical expressions with a single parameter.">
<polygon fill="white" stroke="#666666" points="351.5,-19 263.5,-19 263.5,0 351.5,0 351.5,-19"/>
<text text-anchor="middle" x="307.5" y="-7" font-family="Helvetica,sans-Serif" font-size="10.00">Simple Functors</text>
</a>
</g>
</g>
<!-- Node1&#45;&gt;Node3 -->
<g id="edge2" class="edge">
<title>Node1&#45;&gt;Node3</title>
<path fill="none" stroke="black" d="M196.3,-67.24C211.5,-55.05 233.61,-38.62 255,-27.5 261.13,-24.31 267.96,-21.48 274.58,-19.05"/>
<polygon fill="black" stroke="black" points="193.74,-64.81 188.21,-73.85 198.17,-70.23 193.74,-64.81"/>
</g>
<!-- Node2 -->
<g id="Node000002" class="node">
<title>Node2</title>
<g id="a_Node000002"><a xlink:href="../../dc/db9/group__numerics.html" target="_top" xlink:title=" ">
<polygon fill="white" stroke="#666666" points="97,-93 0,-93 0,-74 97,-74 97,-93"/>
<text text-anchor="middle" x="48.5" y="-81" font-family="Helvetica,sans-Serif" font-size="10.00">Numerical Utilities</text>
</a>
</g>
</g>
<!-- Node2&#45;&gt;Node1 -->
<g id="edge1" class="edge">
<title>Node2&#45;&gt;Node1</title>
<path fill="none" stroke="black" d="M107.54,-83.5C116.01,-83.5 124.59,-83.5 132.67,-83.5"/>
<polygon fill="black" stroke="black" points="107.3,-80 97.3,-83.5 107.3,-87 107.3,-80"/>
</g>
</g>
</svg>
</svg>

<style type='text/css'>
<![CDATA[
[data-mouse-over-selected='false'] { opacity: 0.7; }
[data-mouse-over-selected='true']  { opacity: 1.0; }
]]>
</style>
<script type="application/ecmascript"><![CDATA[
document.addEventListener('DOMContentLoaded', (event) => {
  highlightEdges();
  highlightAdjacentNodes();
});
]]></script>
</svg>
