<?xml version="1.0" encoding="UTF-8" standalone="no"?>
<!DOCTYPE svg PUBLIC "-//W3C//DTD SVG 1.1//EN"
 "http://www.w3.org/Graphics/SVG/1.1/DTD/svg11.dtd">
<!-- Generated by graphviz version 2.43.0 (0)
 -->
<!-- Title: stringUtils.cpp Pages: 1 -->
<svg width="871pt" height="252pt"
 viewBox="0.00 0.00 870.50 252.00" xmlns="http://www.w3.org/2000/svg" xmlns:xlink="http://www.w3.org/1999/xlink">
<g id="graph0" class="graph" transform="scale(1 1) rotate(0) translate(4 248)">
<title>stringUtils.cpp</title>
<polygon fill="white" stroke="transparent" points="-4,4 -4,-248 866.5,-248 866.5,4 -4,4"/>
<!-- Node1 -->
<g id="node1" class="node">
<title>Node1</title>
<g id="a_node1"><a xlink:title="Contains definitions for string manipulation functions within Cantera.">
<polygon fill="#bfbfbf" stroke="black" points="348,-224.5 348,-243.5 435,-243.5 435,-224.5 348,-224.5"/>
<text text-anchor="middle" x="391.5" y="-231.5" font-family="Helvetica,sans-Serif" font-size="10.00">stringUtils.cpp</text>
</a>
</g>
</g>
<!-- Node2 -->
<g id="node2" class="node">
<title>Node2</title>
<g id="a_node2"><a xlink:href="../../d9/ddc/ct__defs_8h.html" target="_top" xlink:title="This file contains definitions of constants, types and terms that are used in internal routines and a...">
<polygon fill="white" stroke="black" points="252,-56.5 252,-75.5 379,-75.5 379,-56.5 252,-56.5"/>
<text text-anchor="middle" x="315.5" y="-63.5" font-family="Helvetica,sans-Serif" font-size="10.00">cantera/base/ct_defs.h</text>
</a>
</g>
</g>
<!-- Node1&#45;&gt;Node2 -->
<g id="edge1" class="edge">
<title>Node1&#45;&gt;Node2</title>
<path fill="none" stroke="midnightblue" d="M362.73,-224.47C325.04,-211.52 260.79,-182.84 235.5,-132 223.72,-108.31 252.23,-90.3 278.42,-79.32"/>
<polygon fill="midnightblue" stroke="midnightblue" points="279.86,-82.51 287.88,-75.59 277.3,-76 279.86,-82.51"/>
</g>
<!-- Node13 -->
<g id="node13" class="node">
<title>Node13</title>
<g id="a_node13"><a xlink:href="../../dd/dc3/stringUtils_8h.html" target="_top" xlink:title="Contains declarations for string manipulation functions within Cantera.">
<polygon fill="white" stroke="black" points="244.5,-112.5 244.5,-131.5 386.5,-131.5 386.5,-112.5 244.5,-112.5"/>
<text text-anchor="middle" x="315.5" y="-119.5" font-family="Helvetica,sans-Serif" font-size="10.00">cantera/base/stringUtils.h</text>
</a>
</g>
</g>
<!-- Node1&#45;&gt;Node13 -->
<g id="edge12" class="edge">
<title>Node1&#45;&gt;Node13</title>
<path fill="none" stroke="midnightblue" d="M368.21,-224.46C352.23,-217.29 332.07,-205.41 321.5,-188 313.14,-174.23 312.21,-155.7 313.04,-141.95"/>
<polygon fill="midnightblue" stroke="midnightblue" points="316.55,-142.02 314.03,-131.73 309.59,-141.35 316.55,-142.02"/>
</g>
<!-- Node14 -->
<g id="node14" class="node">
<title>Node14</title>
<g id="a_node14"><a xlink:href="../../db/d98/ctexceptions_8h.html" target="_top" xlink:title="Definitions for the classes that are thrown when Cantera experiences an error condition (also contain...">
<polygon fill="white" stroke="black" points="470.5,-168.5 470.5,-187.5 624.5,-187.5 624.5,-168.5 470.5,-168.5"/>
<text text-anchor="middle" x="547.5" y="-175.5" font-family="Helvetica,sans-Serif" font-size="10.00">cantera/base/ctexceptions.h</text>
</a>
</g>
</g>
<!-- Node1&#45;&gt;Node14 -->
<g id="edge14" class="edge">
<title>Node1&#45;&gt;Node14</title>
<path fill="none" stroke="midnightblue" d="M416.22,-224.44C442.35,-215.4 483.76,-201.06 513.08,-190.92"/>
<polygon fill="midnightblue" stroke="midnightblue" points="514.59,-194.1 522.9,-187.52 512.3,-187.48 514.59,-194.1"/>
</g>
<!-- Node20 -->
<g id="node20" class="node">
<title>Node20</title>
<g id="a_node20"><a xlink:href="../../de/df0/utilities_8h.html" target="_top" xlink:title="Various templated functions that carry out common vector and polynomial operations (see Templated Arr...">
<polygon fill="white" stroke="black" points="60.5,-168.5 60.5,-187.5 188.5,-187.5 188.5,-168.5 60.5,-168.5"/>
<text text-anchor="middle" x="124.5" y="-175.5" font-family="Helvetica,sans-Serif" font-size="10.00">cantera/base/utilities.h</text>
</a>
</g>
</g>
<!-- Node1&#45;&gt;Node20 -->
<g id="edge22" class="edge">
<title>Node1&#45;&gt;Node20</title>
<path fill="none" stroke="midnightblue" d="M349.19,-224.44C302.42,-214.98 227.04,-199.74 176.65,-189.55"/>
<polygon fill="midnightblue" stroke="midnightblue" points="177.1,-186.07 166.61,-187.52 175.72,-192.93 177.1,-186.07"/>
</g>
<!-- Node22 -->
<g id="node22" class="node">
<title>Node22</title>
<g id="a_node22"><a xlink:href="../../d2/d49/global_8h.html" target="_top" xlink:title="This file contains definitions for utility functions and text for modules, inputfiles and logging,...">
<polygon fill="white" stroke="black" points="330.5,-168.5 330.5,-187.5 452.5,-187.5 452.5,-168.5 330.5,-168.5"/>
<text text-anchor="middle" x="391.5" y="-175.5" font-family="Helvetica,sans-Serif" font-size="10.00">cantera/base/global.h</text>
</a>
</g>
</g>
<!-- Node1&#45;&gt;Node22 -->
<g id="edge25" class="edge">
<title>Node1&#45;&gt;Node22</title>
<path fill="none" stroke="midnightblue" d="M391.5,-224.08C391.5,-217.01 391.5,-206.86 391.5,-197.99"/>
<polygon fill="midnightblue" stroke="midnightblue" points="395,-197.75 391.5,-187.75 388,-197.75 395,-197.75"/>
</g>
<!-- Node23 -->
<g id="node23" class="node">
<title>Node23</title>
<g id="a_node23"><a xlink:title=" ">
<polygon fill="white" stroke="#bfbfbf" points="642.5,-168.5 642.5,-187.5 788.5,-187.5 788.5,-168.5 642.5,-168.5"/>
<text text-anchor="middle" x="715.5" y="-175.5" font-family="Helvetica,sans-Serif" font-size="10.00">boost/algorithm/string.hpp</text>
</a>
</g>
</g>
<!-- Node1&#45;&gt;Node23 -->
<g id="edge28" class="edge">
<title>Node1&#45;&gt;Node23</title>
<path fill="none" stroke="midnightblue" d="M435.2,-225.72C491.68,-216.3 590.35,-199.86 654.28,-189.2"/>
<polygon fill="midnightblue" stroke="midnightblue" points="654.95,-192.64 664.24,-187.54 653.8,-185.74 654.95,-192.64"/>
</g>
<!-- Node24 -->
<g id="node24" class="node">
<title>Node24</title>
<g id="a_node24"><a xlink:title=" ">
<polygon fill="white" stroke="#bfbfbf" points="806.5,-168.5 806.5,-187.5 862.5,-187.5 862.5,-168.5 806.5,-168.5"/>
<text text-anchor="middle" x="834.5" y="-175.5" font-family="Helvetica,sans-Serif" font-size="10.00">sstream</text>
</a>
</g>
</g>
<!-- Node1&#45;&gt;Node24 -->
<g id="edge29" class="edge">
<title>Node1&#45;&gt;Node24</title>
<path fill="none" stroke="midnightblue" d="M435.02,-230.02C507.88,-224.62 659.24,-211.71 796.44,-187.98"/>
<polygon fill="midnightblue" stroke="midnightblue" points="797.05,-191.43 806.3,-186.25 795.84,-184.53 797.05,-191.43"/>
</g>
<!-- Node3 -->
<g id="node3" class="node">
<title>Node3</title>
<g id="a_node3"><a xlink:href="../../db/d16/config_8h_source.html" target="_top" xlink:title=" ">
<polygon fill="white" stroke="black" points="0,-0.5 0,-19.5 55,-19.5 55,-0.5 0,-0.5"/>
<text text-anchor="middle" x="27.5" y="-7.5" font-family="Helvetica,sans-Serif" font-size="10.00">config.h</text>
</a>
</g>
</g>
<!-- Node2&#45;&gt;Node3 -->
<g id="edge2" class="edge">
<title>Node2&#45;&gt;Node3</title>
<path fill="none" stroke="midnightblue" d="M261.71,-56.49C212.74,-48.49 138.25,-35.71 65.19,-20.26"/>
<polygon fill="midnightblue" stroke="midnightblue" points="65.87,-16.83 55.36,-18.17 64.41,-23.68 65.87,-16.83"/>
</g>
<!-- Node4 -->
<g id="node4" class="node">
<title>Node4</title>
<g id="a_node4"><a xlink:title=" ">
<polygon fill="white" stroke="#bfbfbf" points="73,-0.5 73,-19.5 120,-19.5 120,-0.5 73,-0.5"/>
<text text-anchor="middle" x="96.5" y="-7.5" font-family="Helvetica,sans-Serif" font-size="10.00">cmath</text>
</a>
</g>
</g>
<!-- Node2&#45;&gt;Node4 -->
<g id="edge3" class="edge">
<title>Node2&#45;&gt;Node4</title>
<path fill="none" stroke="midnightblue" d="M278.72,-56.43C243.2,-48.08 187.64,-34.84 130.25,-20.14"/>
<polygon fill="midnightblue" stroke="midnightblue" points="130.83,-16.67 120.27,-17.57 129.08,-23.45 130.83,-16.67"/>
</g>
<!-- Node5 -->
<g id="node5" class="node">
<title>Node5</title>
<g id="a_node5"><a xlink:title=" ">
<polygon fill="white" stroke="#bfbfbf" points="138,-0.5 138,-19.5 187,-19.5 187,-0.5 138,-0.5"/>
<text text-anchor="middle" x="162.5" y="-7.5" font-family="Helvetica,sans-Serif" font-size="10.00">cstdlib</text>
</a>
</g>
</g>
<!-- Node2&#45;&gt;Node5 -->
<g id="edge4" class="edge">
<title>Node2&#45;&gt;Node5</title>
<path fill="none" stroke="midnightblue" d="M291.26,-56.44C265.63,-47.4 225.01,-33.06 196.26,-22.92"/>
<polygon fill="midnightblue" stroke="midnightblue" points="197.22,-19.54 186.63,-19.52 194.89,-26.15 197.22,-19.54"/>
</g>
<!-- Node6 -->
<g id="node6" class="node">
<title>Node6</title>
<g id="a_node6"><a xlink:title=" ">
<polygon fill="white" stroke="#bfbfbf" points="205,-0.5 205,-19.5 252,-19.5 252,-0.5 205,-0.5"/>
<text text-anchor="middle" x="228.5" y="-7.5" font-family="Helvetica,sans-Serif" font-size="10.00">vector</text>
</a>
</g>
</g>
<!-- Node2&#45;&gt;Node6 -->
<g id="edge5" class="edge">
<title>Node2&#45;&gt;Node6</title>
<path fill="none" stroke="midnightblue" d="M301.52,-56.32C287.95,-47.9 267.12,-34.97 251.18,-25.07"/>
<polygon fill="midnightblue" stroke="midnightblue" points="252.79,-21.95 242.44,-19.65 249.09,-27.9 252.79,-21.95"/>
</g>
<!-- Node7 -->
<g id="node7" class="node">
<title>Node7</title>
<g id="a_node7"><a xlink:title=" ">
<polygon fill="white" stroke="#bfbfbf" points="270.5,-0.5 270.5,-19.5 308.5,-19.5 308.5,-0.5 270.5,-0.5"/>
<text text-anchor="middle" x="289.5" y="-7.5" font-family="Helvetica,sans-Serif" font-size="10.00">map</text>
</a>
</g>
</g>
<!-- Node2&#45;&gt;Node7 -->
<g id="edge6" class="edge">
<title>Node2&#45;&gt;Node7</title>
<path fill="none" stroke="midnightblue" d="M311.21,-56.08C307.65,-48.69 302.48,-37.95 298.08,-28.81"/>
<polygon fill="midnightblue" stroke="midnightblue" points="301.21,-27.24 293.71,-19.75 294.9,-30.28 301.21,-27.24"/>
</g>
<!-- Node8 -->
<g id="node8" class="node">
<title>Node8</title>
<g id="a_node8"><a xlink:title=" ">
<polygon fill="white" stroke="#bfbfbf" points="326.5,-0.5 326.5,-19.5 358.5,-19.5 358.5,-0.5 326.5,-0.5"/>
<text text-anchor="middle" x="342.5" y="-7.5" font-family="Helvetica,sans-Serif" font-size="10.00">set</text>
</a>
</g>
</g>
<!-- Node2&#45;&gt;Node8 -->
<g id="edge7" class="edge">
<title>Node2&#45;&gt;Node8</title>
<path fill="none" stroke="midnightblue" d="M319.96,-56.08C323.65,-48.69 329.02,-37.95 333.59,-28.81"/>
<polygon fill="midnightblue" stroke="midnightblue" points="336.78,-30.26 338.12,-19.75 330.52,-27.13 336.78,-30.26"/>
</g>
<!-- Node9 -->
<g id="node9" class="node">
<title>Node9</title>
<g id="a_node9"><a xlink:title=" ">
<polygon fill="white" stroke="#bfbfbf" points="376.5,-0.5 376.5,-19.5 420.5,-19.5 420.5,-0.5 376.5,-0.5"/>
<text text-anchor="middle" x="398.5" y="-7.5" font-family="Helvetica,sans-Serif" font-size="10.00">string</text>
</a>
</g>
</g>
<!-- Node2&#45;&gt;Node9 -->
<g id="edge8" class="edge">
<title>Node2&#45;&gt;Node9</title>
<path fill="none" stroke="midnightblue" d="M328.84,-56.32C341.66,-47.98 361.28,-35.21 376.44,-25.35"/>
<polygon fill="midnightblue" stroke="midnightblue" points="378.72,-28.04 385.2,-19.65 374.91,-22.17 378.72,-28.04"/>
</g>
<!-- Node10 -->
<g id="node10" class="node">
<title>Node10</title>
<g id="a_node10"><a xlink:title=" ">
<polygon fill="white" stroke="#bfbfbf" points="438.5,-0.5 438.5,-19.5 502.5,-19.5 502.5,-0.5 438.5,-0.5"/>
<text text-anchor="middle" x="470.5" y="-7.5" font-family="Helvetica,sans-Serif" font-size="10.00">algorithm</text>
</a>
</g>
</g>
<!-- Node2&#45;&gt;Node10 -->
<g id="edge9" class="edge">
<title>Node2&#45;&gt;Node10</title>
<path fill="none" stroke="midnightblue" d="M340.06,-56.44C366.02,-47.4 407.17,-33.06 436.3,-22.92"/>
<polygon fill="midnightblue" stroke="midnightblue" points="437.76,-26.11 446.05,-19.52 435.46,-19.5 437.76,-26.11"/>
</g>
<!-- Node11 -->
<g id="node11" class="node">
<title>Node11</title>
<g id="a_node11"><a xlink:title=" ">
<polygon fill="white" stroke="#bfbfbf" points="520.5,-0.5 520.5,-19.5 578.5,-19.5 578.5,-0.5 520.5,-0.5"/>
<text text-anchor="middle" x="549.5" y="-7.5" font-family="Helvetica,sans-Serif" font-size="10.00">memory</text>
</a>
</g>
</g>
<!-- Node2&#45;&gt;Node11 -->
<g id="edge10" class="edge">
<title>Node2&#45;&gt;Node11</title>
<path fill="none" stroke="midnightblue" d="M353.09,-56.45C390.56,-47.91 450,-34.31 510.71,-20.17"/>
<polygon fill="midnightblue" stroke="midnightblue" points="511.51,-23.58 520.46,-17.9 509.93,-16.76 511.51,-23.58"/>
</g>
<!-- Node12 -->
<g id="node12" class="node">
<title>Node12</title>
<g id="a_node12"><a xlink:title=" ">
<polygon fill="white" stroke="#bfbfbf" points="597,-0.5 597,-19.5 662,-19.5 662,-0.5 597,-0.5"/>
<text text-anchor="middle" x="629.5" y="-7.5" font-family="Helvetica,sans-Serif" font-size="10.00">functional</text>
</a>
</g>
</g>
<!-- Node2&#45;&gt;Node12 -->
<g id="edge11" class="edge">
<title>Node2&#45;&gt;Node12</title>
<path fill="none" stroke="midnightblue" d="M371.9,-56.46C424.85,-48.27 506.51,-35.17 587.15,-19.99"/>
<polygon fill="midnightblue" stroke="midnightblue" points="587.8,-23.43 596.97,-18.13 586.49,-16.55 587.8,-23.43"/>
</g>
<!-- Node13&#45;&gt;Node2 -->
<g id="edge13" class="edge">
<title>Node13&#45;&gt;Node2</title>
<path fill="none" stroke="midnightblue" d="M315.5,-112.08C315.5,-105.01 315.5,-94.86 315.5,-85.99"/>
<polygon fill="midnightblue" stroke="midnightblue" points="319,-85.75 315.5,-75.75 312,-85.75 319,-85.75"/>
</g>
<!-- Node14&#45;&gt;Node2 -->
<g id="edge15" class="edge">
<title>Node14&#45;&gt;Node2</title>
<path fill="none" stroke="midnightblue" d="M529.48,-168.34C503.46,-155.83 453.84,-132.04 411.5,-112 388.44,-101.09 362.22,-88.8 343.01,-79.83"/>
<polygon fill="midnightblue" stroke="midnightblue" points="344.46,-76.65 333.92,-75.59 341.5,-82.99 344.46,-76.65"/>
</g>
<!-- Node15 -->
<g id="node15" class="node">
<title>Node15</title>
<g id="a_node15"><a xlink:href="../../db/def/fmt_8h.html" target="_top" xlink:title="Wrapper for either system&#45;installed or local headers for fmt.">
<polygon fill="white" stroke="black" points="481,-112.5 481,-131.5 590,-131.5 590,-112.5 481,-112.5"/>
<text text-anchor="middle" x="535.5" y="-119.5" font-family="Helvetica,sans-Serif" font-size="10.00">cantera/base/fmt.h</text>
</a>
</g>
</g>
<!-- Node14&#45;&gt;Node15 -->
<g id="edge16" class="edge">
<title>Node14&#45;&gt;Node15</title>
<path fill="none" stroke="midnightblue" d="M545.52,-168.08C543.93,-160.93 541.64,-150.64 539.65,-141.69"/>
<polygon fill="midnightblue" stroke="midnightblue" points="543.03,-140.75 537.44,-131.75 536.2,-142.27 543.03,-140.75"/>
</g>
<!-- Node19 -->
<g id="node19" class="node">
<title>Node19</title>
<g id="a_node19"><a xlink:title=" ">
<polygon fill="white" stroke="#bfbfbf" points="608,-112.5 608,-131.5 673,-131.5 673,-112.5 608,-112.5"/>
<text text-anchor="middle" x="640.5" y="-119.5" font-family="Helvetica,sans-Serif" font-size="10.00">exception</text>
</a>
</g>
</g>
<!-- Node14&#45;&gt;Node19 -->
<g id="edge21" class="edge">
<title>Node14&#45;&gt;Node19</title>
<path fill="none" stroke="midnightblue" d="M562.44,-168.32C577.09,-159.82 599.63,-146.73 616.74,-136.8"/>
<polygon fill="midnightblue" stroke="midnightblue" points="618.7,-139.7 625.6,-131.65 615.19,-133.65 618.7,-139.7"/>
</g>
<!-- Node15&#45;&gt;Node2 -->
<g id="edge17" class="edge">
<title>Node15&#45;&gt;Node2</title>
<path fill="none" stroke="midnightblue" d="M500.64,-112.44C462.58,-103.1 401.54,-88.12 360.04,-77.93"/>
<polygon fill="midnightblue" stroke="midnightblue" points="360.74,-74.5 350.2,-75.52 359.07,-81.3 360.74,-74.5"/>
</g>
<!-- Node16 -->
<g id="node16" class="node">
<title>Node16</title>
<g id="a_node16"><a xlink:title=" ">
<polygon fill="white" stroke="#bfbfbf" points="397,-56.5 397,-75.5 534,-75.5 534,-56.5 397,-56.5"/>
<text text-anchor="middle" x="465.5" y="-63.5" font-family="Helvetica,sans-Serif" font-size="10.00">cantera/ext/fmt/format.h</text>
</a>
</g>
</g>
<!-- Node15&#45;&gt;Node16 -->
<g id="edge18" class="edge">
<title>Node15&#45;&gt;Node16</title>
<path fill="none" stroke="midnightblue" d="M524.25,-112.32C513.7,-104.18 497.7,-91.84 485.06,-82.09"/>
<polygon fill="midnightblue" stroke="midnightblue" points="487.01,-79.17 476.95,-75.83 482.73,-84.71 487.01,-79.17"/>
</g>
<!-- Node17 -->
<g id="node17" class="node">
<title>Node17</title>
<g id="a_node17"><a xlink:title=" ">
<polygon fill="white" stroke="#bfbfbf" points="552.5,-56.5 552.5,-75.5 682.5,-75.5 682.5,-56.5 552.5,-56.5"/>
<text text-anchor="middle" x="617.5" y="-63.5" font-family="Helvetica,sans-Serif" font-size="10.00">cantera/ext/fmt/printf.h</text>
</a>
</g>
</g>
<!-- Node15&#45;&gt;Node17 -->
<g id="edge19" class="edge">
<title>Node15&#45;&gt;Node17</title>
<path fill="none" stroke="midnightblue" d="M548.67,-112.32C561.35,-103.98 580.73,-91.21 595.71,-81.35"/>
<polygon fill="midnightblue" stroke="midnightblue" points="597.93,-84.08 604.36,-75.65 594.08,-78.23 597.93,-84.08"/>
</g>
<!-- Node18 -->
<g id="node18" class="node">
<title>Node18</title>
<g id="a_node18"><a xlink:title=" ">
<polygon fill="white" stroke="#bfbfbf" points="701,-56.5 701,-75.5 846,-75.5 846,-56.5 701,-56.5"/>
<text text-anchor="middle" x="773.5" y="-63.5" font-family="Helvetica,sans-Serif" font-size="10.00">cantera/ext/fmt/ostream.h</text>
</a>
</g>
</g>
<!-- Node15&#45;&gt;Node18 -->
<g id="edge20" class="edge">
<title>Node15&#45;&gt;Node18</title>
<path fill="none" stroke="midnightblue" d="M573.21,-112.44C614.64,-103.04 681.26,-87.93 726.17,-77.74"/>
<polygon fill="midnightblue" stroke="midnightblue" points="726.99,-81.14 735.96,-75.52 725.44,-74.32 726.99,-81.14"/>
</g>
<!-- Node20&#45;&gt;Node2 -->
<g id="edge23" class="edge">
<title>Node20&#45;&gt;Node2</title>
<path fill="none" stroke="midnightblue" d="M132.93,-168.4C146.53,-154.91 174.63,-128.59 202.5,-112 226.05,-97.98 254.77,-86.61 277.36,-78.81"/>
<polygon fill="midnightblue" stroke="midnightblue" points="278.59,-82.09 286.95,-75.58 276.36,-75.45 278.59,-82.09"/>
</g>
<!-- Node21 -->
<g id="node21" class="node">
<title>Node21</title>
<g id="a_node21"><a xlink:title=" ">
<polygon fill="white" stroke="#bfbfbf" points="94.5,-112.5 94.5,-131.5 150.5,-131.5 150.5,-112.5 94.5,-112.5"/>
<text text-anchor="middle" x="122.5" y="-119.5" font-family="Helvetica,sans-Serif" font-size="10.00">numeric</text>
</a>
</g>
</g>
<!-- Node20&#45;&gt;Node21 -->
<g id="edge24" class="edge">
<title>Node20&#45;&gt;Node21</title>
<path fill="none" stroke="midnightblue" d="M124.17,-168.08C123.91,-161.01 123.53,-150.86 123.2,-141.99"/>
<polygon fill="midnightblue" stroke="midnightblue" points="126.69,-141.61 122.82,-131.75 119.7,-141.87 126.69,-141.61"/>
</g>
<!-- Node22&#45;&gt;Node2 -->
<g id="edge26" class="edge">
<title>Node22&#45;&gt;Node2</title>
<path fill="none" stroke="midnightblue" d="M394.91,-168.3C399.48,-155.12 405.89,-129.76 395.5,-112 386.64,-96.85 370.59,-86.41 355.19,-79.42"/>
<polygon fill="midnightblue" stroke="midnightblue" points="356.33,-76.11 345.75,-75.51 353.65,-82.57 356.33,-76.11"/>
</g>
<!-- Node22&#45;&gt;Node15 -->
<g id="edge27" class="edge">
<title>Node22&#45;&gt;Node15</title>
<path fill="none" stroke="midnightblue" d="M414.32,-168.44C438.33,-159.44 476.33,-145.19 503.37,-135.05"/>
<polygon fill="midnightblue" stroke="midnightblue" points="504.66,-138.3 512.79,-131.52 502.2,-131.75 504.66,-138.3"/>
</g>
</g>
</svg>
