<?xml version="1.0" encoding="UTF-8" standalone="no"?>
<!DOCTYPE svg PUBLIC "-//W3C//DTD SVG 1.1//EN"
 "http://www.w3.org/Graphics/SVG/1.1/DTD/svg11.dtd">
<!-- Generated by graphviz version 6.0.1 (0)
 -->
<!-- Title: stringUtils.cpp Pages: 1 -->
<svg width="813pt" height="247pt"
 viewBox="0.00 0.00 812.50 247.00" xmlns="http://www.w3.org/2000/svg" xmlns:xlink="http://www.w3.org/1999/xlink">
<g id="graph0" class="graph" transform="scale(1 1) rotate(0) translate(4 243)">
<title>stringUtils.cpp</title>
<!-- Node1 -->
<g id="Node000001" class="node">
<title>Node1</title>
<g id="a_Node000001"><a xlink:title="Contains definitions for string manipulation functions within Cantera.">
<polygon fill="#999999" stroke="#666666" points="413.5,-239 333.5,-239 333.5,-220 413.5,-220 413.5,-239"/>
<text text-anchor="middle" x="373.5" y="-227" font-family="Helvetica,sans-Serif" font-size="10.00">stringUtils.cpp</text>
</a>
</g>
</g>
<!-- Node2 -->
<g id="Node000002" class="node">
<title>Node2</title>
<g id="a_Node000002"><a xlink:href="../../d9/ddc/ct__defs_8h.html" target="_top" xlink:title="This file contains definitions of constants, types and terms that are used in internal routines and a...">
<polygon fill="white" stroke="#666666" points="358.5,-74 242.5,-74 242.5,-55 358.5,-55 358.5,-74"/>
<text text-anchor="middle" x="300.5" y="-62" font-family="Helvetica,sans-Serif" font-size="10.00">cantera/base/ct_defs.h</text>
</a>
</g>
</g>
<!-- Node1&#45;&gt;Node2 -->
<g id="edge1_Node000001_Node000002" class="edge">
<title>Node1&#45;&gt;Node2</title>
<g id="a_edge1_Node000001_Node000002"><a xlink:title=" ">
<path fill="none" stroke="#63b8ff" d="M347.45,-219.98C312.29,-206.87 251.3,-177.97 227.5,-129 216.67,-106.73 242.53,-89.05 266.41,-78.06"/>
<polygon fill="#63b8ff" stroke="#63b8ff" points="267.92,-81.22 275.72,-74.04 265.15,-74.79 267.92,-81.22"/>
</a>
</g>
</g>
<!-- Node13 -->
<g id="Node000013" class="node">
<title>Node13</title>
<g id="a_Node000013"><a xlink:href="../../dd/dc3/stringUtils_8h.html" target="_top" xlink:title="Contains declarations for string manipulation functions within Cantera.">
<polygon fill="white" stroke="#666666" points="364.5,-129 236.5,-129 236.5,-110 364.5,-110 364.5,-129"/>
<text text-anchor="middle" x="300.5" y="-117" font-family="Helvetica,sans-Serif" font-size="10.00">cantera/base/stringUtils.h</text>
</a>
</g>
</g>
<!-- Node1&#45;&gt;Node13 -->
<g id="edge12_Node000001_Node000013" class="edge">
<title>Node1&#45;&gt;Node13</title>
<g id="a_edge12_Node000001_Node000013"><a xlink:title=" ">
<path fill="none" stroke="#63b8ff" d="M353.34,-219.93C338.69,-212.6 319.72,-200.59 309.5,-184 301.28,-170.65 299.38,-152.79 299.33,-139.4"/>
<polygon fill="#63b8ff" stroke="#63b8ff" points="302.84,-139.13 299.66,-129.02 295.85,-138.91 302.84,-139.13"/>
</a>
</g>
</g>
<!-- Node14 -->
<g id="Node000014" class="node">
<title>Node14</title>
<g id="a_Node000014"><a xlink:href="../../db/d98/ctexceptions_8h.html" target="_top" xlink:title="Definitions for the classes that are thrown when Cantera experiences an error condition (also contain...">
<polygon fill="white" stroke="#666666" points="586.5,-184 446.5,-184 446.5,-165 586.5,-165 586.5,-184"/>
<text text-anchor="middle" x="516.5" y="-172" font-family="Helvetica,sans-Serif" font-size="10.00">cantera/base/ctexceptions.h</text>
</a>
</g>
</g>
<!-- Node1&#45;&gt;Node14 -->
<g id="edge14_Node000001_Node000014" class="edge">
<title>Node1&#45;&gt;Node14</title>
<g id="a_edge14_Node000001_Node000014"><a xlink:title=" ">
<path fill="none" stroke="#63b8ff" d="M396.48,-219.98C420,-211.27 456.79,-197.63 483.44,-187.75"/>
<polygon fill="#63b8ff" stroke="#63b8ff" points="484.95,-190.93 493.11,-184.17 482.51,-184.36 484.95,-190.93"/>
</a>
</g>
</g>
<!-- Node20 -->
<g id="Node000020" class="node">
<title>Node20</title>
<g id="a_Node000020"><a xlink:href="../../de/df0/utilities_8h.html" target="_top" xlink:title="Various templated functions that carry out common vector and polynomial operations (see Templated Arr...">
<polygon fill="white" stroke="#666666" points="180,-184 65,-184 65,-165 180,-165 180,-184"/>
<text text-anchor="middle" x="122.5" y="-172" font-family="Helvetica,sans-Serif" font-size="10.00">cantera/base/utilities.h</text>
</a>
</g>
</g>
<!-- Node1&#45;&gt;Node20 -->
<g id="edge22_Node000001_Node000020" class="edge">
<title>Node1&#45;&gt;Node20</title>
<g id="a_edge22_Node000001_Node000020"><a xlink:title=" ">
<path fill="none" stroke="#63b8ff" d="M333.45,-220.04C289.87,-210.84 220.1,-196.11 172.84,-186.13"/>
<polygon fill="#63b8ff" stroke="#63b8ff" points="173.33,-182.66 162.82,-184.01 171.88,-189.5 173.33,-182.66"/>
</a>
</g>
</g>
<!-- Node22 -->
<g id="Node000022" class="node">
<title>Node22</title>
<g id="a_Node000022"><a xlink:href="../../d2/d49/global_8h.html" target="_top" xlink:title="This file contains definitions for utility functions and text for modules, inputfiles and logging,...">
<polygon fill="white" stroke="#666666" points="428.5,-184 318.5,-184 318.5,-165 428.5,-165 428.5,-184"/>
<text text-anchor="middle" x="373.5" y="-172" font-family="Helvetica,sans-Serif" font-size="10.00">cantera/base/global.h</text>
</a>
</g>
</g>
<!-- Node1&#45;&gt;Node22 -->
<g id="edge25_Node000001_Node000022" class="edge">
<title>Node1&#45;&gt;Node22</title>
<g id="a_edge25_Node000001_Node000022"><a xlink:title=" ">
<path fill="none" stroke="#63b8ff" d="M373.5,-219.75C373.5,-212.8 373.5,-202.85 373.5,-194.13"/>
<polygon fill="#63b8ff" stroke="#63b8ff" points="377,-194.09 373.5,-184.09 370,-194.09 377,-194.09"/>
</a>
</g>
</g>
<!-- Node23 -->
<g id="Node000023" class="node">
<title>Node23</title>
<g id="a_Node000023"><a xlink:title=" ">
<polygon fill="#e0e0e0" stroke="#999999" points="734,-184 605,-184 605,-165 734,-165 734,-184"/>
<text text-anchor="middle" x="669.5" y="-172" font-family="Helvetica,sans-Serif" font-size="10.00">boost/algorithm/string.hpp</text>
</a>
</g>
</g>
<!-- Node1&#45;&gt;Node23 -->
<g id="edge28_Node000001_Node000023" class="edge">
<title>Node1&#45;&gt;Node23</title>
<g id="a_edge28_Node000001_Node000023"><a xlink:title=" ">
<path fill="none" stroke="#63b8ff" d="M413.73,-221.3C464.88,-212.14 553.53,-196.27 611.85,-185.82"/>
<polygon fill="#63b8ff" stroke="#63b8ff" points="612.79,-189.21 622.02,-184 611.56,-182.32 612.79,-189.21"/>
</a>
</g>
</g>
<!-- Node24 -->
<g id="Node000024" class="node">
<title>Node24</title>
<g id="a_Node000024"><a xlink:title=" ">
<polygon fill="#e0e0e0" stroke="#999999" points="804.5,-184 752.5,-184 752.5,-165 804.5,-165 804.5,-184"/>
<text text-anchor="middle" x="778.5" y="-172" font-family="Helvetica,sans-Serif" font-size="10.00">sstream</text>
</a>
</g>
</g>
<!-- Node1&#45;&gt;Node24 -->
<g id="edge29_Node000001_Node000024" class="edge">
<title>Node1&#45;&gt;Node24</title>
<g id="a_edge29_Node000001_Node000024"><a xlink:title=" ">
<path fill="none" stroke="#63b8ff" d="M413.7,-225.24C480.1,-219.51 616.98,-206.26 742.06,-184.06"/>
<polygon fill="#63b8ff" stroke="#63b8ff" points="742.98,-187.46 752.2,-182.24 741.74,-180.57 742.98,-187.46"/>
</a>
</g>
</g>
<!-- Node3 -->
<g id="Node000003" class="node">
<title>Node3</title>
<g id="a_Node000003"><a xlink:href="../../db/d16/config_8h_source.html" target="_top" xlink:title=" ">
<polygon fill="white" stroke="#666666" points="51,-19 0,-19 0,0 51,0 51,-19"/>
<text text-anchor="middle" x="25.5" y="-7" font-family="Helvetica,sans-Serif" font-size="10.00">config.h</text>
</a>
</g>
</g>
<!-- Node2&#45;&gt;Node3 -->
<g id="edge2_Node000002_Node000003" class="edge">
<title>Node2&#45;&gt;Node3</title>
<g id="a_edge2_Node000002_Node000003"><a xlink:title=" ">
<path fill="none" stroke="#63b8ff" d="M249.77,-54.93C203.27,-46.88 132.29,-34.13 61.12,-19.03"/>
<polygon fill="#63b8ff" stroke="#63b8ff" points="61.59,-15.55 51.08,-16.88 60.12,-22.4 61.59,-15.55"/>
</a>
</g>
</g>
<!-- Node4 -->
<g id="Node000004" class="node">
<title>Node4</title>
<g id="a_Node000004"><a xlink:title=" ">
<polygon fill="#e0e0e0" stroke="#999999" points="113.5,-19 69.5,-19 69.5,0 113.5,0 113.5,-19"/>
<text text-anchor="middle" x="91.5" y="-7" font-family="Helvetica,sans-Serif" font-size="10.00">cmath</text>
</a>
</g>
</g>
<!-- Node2&#45;&gt;Node4 -->
<g id="edge3_Node000002_Node000004" class="edge">
<title>Node2&#45;&gt;Node4</title>
<g id="a_edge3_Node000002_Node000004"><a xlink:title=" ">
<path fill="none" stroke="#63b8ff" d="M265.87,-54.94C230.16,-46.08 172.89,-31.77 123.5,-19 123.4,-18.97 123.3,-18.95 123.2,-18.92"/>
<polygon fill="#63b8ff" stroke="#63b8ff" points="124.08,-15.54 113.52,-16.39 122.31,-22.31 124.08,-15.54"/>
</a>
</g>
</g>
<!-- Node5 -->
<g id="Node000005" class="node">
<title>Node5</title>
<g id="a_Node000005"><a xlink:title=" ">
<polygon fill="#e0e0e0" stroke="#999999" points="177,-19 132,-19 132,0 177,0 177,-19"/>
<text text-anchor="middle" x="154.5" y="-7" font-family="Helvetica,sans-Serif" font-size="10.00">cstdlib</text>
</a>
</g>
</g>
<!-- Node2&#45;&gt;Node5 -->
<g id="edge4_Node000002_Node000005" class="edge">
<title>Node2&#45;&gt;Node5</title>
<g id="a_edge4_Node000002_Node000005"><a xlink:title=" ">
<path fill="none" stroke="#63b8ff" d="M277.04,-54.98C252.63,-46.12 214.23,-32.18 186.93,-22.27"/>
<polygon fill="#63b8ff" stroke="#63b8ff" points="188.01,-18.94 177.42,-18.82 185.62,-25.52 188.01,-18.94"/>
</a>
</g>
</g>
<!-- Node6 -->
<g id="Node000006" class="node">
<title>Node6</title>
<g id="a_Node000006"><a xlink:title=" ">
<polygon fill="#e0e0e0" stroke="#999999" points="239.5,-19 195.5,-19 195.5,0 239.5,0 239.5,-19"/>
<text text-anchor="middle" x="217.5" y="-7" font-family="Helvetica,sans-Serif" font-size="10.00">vector</text>
</a>
</g>
</g>
<!-- Node2&#45;&gt;Node6 -->
<g id="edge5_Node000002_Node000006" class="edge">
<title>Node2&#45;&gt;Node6</title>
<g id="a_edge5_Node000002_Node000006"><a xlink:title=" ">
<path fill="none" stroke="#63b8ff" d="M287.16,-54.98C274.41,-46.84 254.95,-34.41 239.83,-24.76"/>
<polygon fill="#63b8ff" stroke="#63b8ff" points="241.39,-21.6 231.08,-19.17 237.62,-27.5 241.39,-21.6"/>
</a>
</g>
</g>
<!-- Node7 -->
<g id="Node000007" class="node">
<title>Node7</title>
<g id="a_Node000007"><a xlink:title=" ">
<polygon fill="#e0e0e0" stroke="#999999" points="293,-19 258,-19 258,0 293,0 293,-19"/>
<text text-anchor="middle" x="275.5" y="-7" font-family="Helvetica,sans-Serif" font-size="10.00">map</text>
</a>
</g>
</g>
<!-- Node2&#45;&gt;Node7 -->
<g id="edge6_Node000002_Node000007" class="edge">
<title>Node2&#45;&gt;Node7</title>
<g id="a_edge6_Node000002_Node000007"><a xlink:title=" ">
<path fill="none" stroke="#63b8ff" d="M296.37,-54.75C292.99,-47.57 288.08,-37.18 283.88,-28.27"/>
<polygon fill="#63b8ff" stroke="#63b8ff" points="286.98,-26.64 279.55,-19.09 280.65,-29.63 286.98,-26.64"/>
</a>
</g>
</g>
<!-- Node8 -->
<g id="Node000008" class="node">
<title>Node8</title>
<g id="a_Node000008"><a xlink:title=" ">
<polygon fill="#e0e0e0" stroke="#999999" points="341.5,-19 311.5,-19 311.5,0 341.5,0 341.5,-19"/>
<text text-anchor="middle" x="326.5" y="-7" font-family="Helvetica,sans-Serif" font-size="10.00">set</text>
</a>
</g>
</g>
<!-- Node2&#45;&gt;Node8 -->
<g id="edge7_Node000002_Node000008" class="edge">
<title>Node2&#45;&gt;Node8</title>
<g id="a_edge7_Node000002_Node000008"><a xlink:title=" ">
<path fill="none" stroke="#63b8ff" d="M304.79,-54.75C308.31,-47.57 313.41,-37.18 317.78,-28.27"/>
<polygon fill="#63b8ff" stroke="#63b8ff" points="321.02,-29.61 322.29,-19.09 314.74,-26.53 321.02,-29.61"/>
</a>
</g>
</g>
<!-- Node9 -->
<g id="Node000009" class="node">
<title>Node9</title>
<g id="a_Node000009"><a xlink:title=" ">
<polygon fill="#e0e0e0" stroke="#999999" points="401,-19 360,-19 360,0 401,0 401,-19"/>
<text text-anchor="middle" x="380.5" y="-7" font-family="Helvetica,sans-Serif" font-size="10.00">string</text>
</a>
</g>
</g>
<!-- Node2&#45;&gt;Node9 -->
<g id="edge8_Node000002_Node000009" class="edge">
<title>Node2&#45;&gt;Node9</title>
<g id="a_edge8_Node000002_Node000009"><a xlink:title=" ">
<path fill="none" stroke="#63b8ff" d="M313.35,-54.98C325.64,-46.84 344.41,-34.41 358.98,-24.76"/>
<polygon fill="#63b8ff" stroke="#63b8ff" points="361.01,-27.61 367.41,-19.17 357.14,-21.78 361.01,-27.61"/>
</a>
</g>
</g>
<!-- Node10 -->
<g id="Node000010" class="node">
<title>Node10</title>
<g id="a_Node000010"><a xlink:title=" ">
<polygon fill="#e0e0e0" stroke="#999999" points="475.5,-19 419.5,-19 419.5,0 475.5,0 475.5,-19"/>
<text text-anchor="middle" x="447.5" y="-7" font-family="Helvetica,sans-Serif" font-size="10.00">algorithm</text>
</a>
</g>
</g>
<!-- Node2&#45;&gt;Node10 -->
<g id="edge9_Node000002_Node000010" class="edge">
<title>Node2&#45;&gt;Node10</title>
<g id="a_edge9_Node000002_Node000010"><a xlink:title=" ">
<path fill="none" stroke="#63b8ff" d="M324.12,-54.98C348.4,-46.23 386.45,-32.51 413.87,-22.62"/>
<polygon fill="#63b8ff" stroke="#63b8ff" points="415.23,-25.85 423.45,-19.17 412.86,-19.27 415.23,-25.85"/>
</a>
</g>
</g>
<!-- Node11 -->
<g id="Node000011" class="node">
<title>Node11</title>
<g id="a_Node000011"><a xlink:title=" ">
<polygon fill="#e0e0e0" stroke="#999999" points="545.5,-19 493.5,-19 493.5,0 545.5,0 545.5,-19"/>
<text text-anchor="middle" x="519.5" y="-7" font-family="Helvetica,sans-Serif" font-size="10.00">memory</text>
</a>
</g>
</g>
<!-- Node2&#45;&gt;Node11 -->
<g id="edge10_Node000002_Node000011" class="edge">
<title>Node2&#45;&gt;Node11</title>
<g id="a_edge10_Node000002_Node000011"><a xlink:title=" ">
<path fill="none" stroke="#63b8ff" d="M335.78,-54.98C370.79,-46.52 426.27,-33.11 483.23,-19.31"/>
<polygon fill="#63b8ff" stroke="#63b8ff" points="484.23,-22.66 493.13,-16.91 482.58,-15.86 484.23,-22.66"/>
</a>
</g>
</g>
<!-- Node12 -->
<g id="Node000012" class="node">
<title>Node12</title>
<g id="a_Node000012"><a xlink:title=" ">
<polygon fill="#e0e0e0" stroke="#999999" points="623,-19 564,-19 564,0 623,0 623,-19"/>
<text text-anchor="middle" x="593.5" y="-7" font-family="Helvetica,sans-Serif" font-size="10.00">functional</text>
</a>
</g>
</g>
<!-- Node2&#45;&gt;Node12 -->
<g id="edge11_Node000002_Node000012" class="edge">
<title>Node2&#45;&gt;Node12</title>
<g id="a_edge11_Node000002_Node000012"><a xlink:title=" ">
<path fill="none" stroke="#63b8ff" d="M353.15,-54.92C402.4,-46.76 478.23,-33.81 553.57,-19.11"/>
<polygon fill="#63b8ff" stroke="#63b8ff" points="554.58,-22.48 563.72,-17.12 553.23,-15.61 554.58,-22.48"/>
</a>
</g>
</g>
<!-- Node13&#45;&gt;Node2 -->
<g id="edge13_Node000013_Node000002" class="edge">
<title>Node13&#45;&gt;Node2</title>
<g id="a_edge13_Node000013_Node000002"><a xlink:title=" ">
<path fill="none" stroke="#63b8ff" d="M300.5,-109.75C300.5,-102.8 300.5,-92.85 300.5,-84.13"/>
<polygon fill="#63b8ff" stroke="#63b8ff" points="304,-84.09 300.5,-74.09 297,-84.09 304,-84.09"/>
</a>
</g>
</g>
<!-- Node14&#45;&gt;Node2 -->
<g id="edge15_Node000014_Node000002" class="edge">
<title>Node14&#45;&gt;Node2</title>
<g id="a_edge15_Node000014_Node000002"><a xlink:title=" ">
<path fill="none" stroke="#63b8ff" d="M499.19,-164.84C461.42,-145.96 371.41,-100.96 326.67,-78.59"/>
<polygon fill="#63b8ff" stroke="#63b8ff" points="328.1,-75.39 317.59,-74.05 324.97,-81.65 328.1,-75.39"/>
</a>
</g>
</g>
<!-- Node15 -->
<g id="Node000015" class="node">
<title>Node15</title>
<g id="a_Node000015"><a xlink:href="../../db/def/fmt_8h.html" target="_top" xlink:title="Wrapper for either system&#45;installed or local headers for fmt.">
<polygon fill="white" stroke="#666666" points="556.5,-129 458.5,-129 458.5,-110 556.5,-110 556.5,-129"/>
<text text-anchor="middle" x="507.5" y="-117" font-family="Helvetica,sans-Serif" font-size="10.00">cantera/base/fmt.h</text>
</a>
</g>
</g>
<!-- Node14&#45;&gt;Node15 -->
<g id="edge16_Node000014_Node000015" class="edge">
<title>Node14&#45;&gt;Node15</title>
<g id="a_edge16_Node000014_Node000015"><a xlink:title=" ">
<path fill="none" stroke="#63b8ff" d="M515.01,-164.75C513.83,-157.8 512.14,-147.85 510.66,-139.13"/>
<polygon fill="#63b8ff" stroke="#63b8ff" points="514.08,-138.36 508.96,-129.09 507.18,-139.53 514.08,-138.36"/>
</a>
</g>
</g>
<!-- Node19 -->
<g id="Node000019" class="node">
<title>Node19</title>
<g id="a_Node000019"><a xlink:title=" ">
<polygon fill="#e0e0e0" stroke="#999999" points="634,-129 575,-129 575,-110 634,-110 634,-129"/>
<text text-anchor="middle" x="604.5" y="-117" font-family="Helvetica,sans-Serif" font-size="10.00">exception</text>
</a>
</g>
</g>
<!-- Node14&#45;&gt;Node19 -->
<g id="edge21_Node000014_Node000019" class="edge">
<title>Node14&#45;&gt;Node19</title>
<g id="a_edge21_Node000014_Node000019"><a xlink:title=" ">
<path fill="none" stroke="#63b8ff" d="M530.64,-164.98C544.29,-156.77 565.19,-144.18 581.28,-134.49"/>
<polygon fill="#63b8ff" stroke="#63b8ff" points="583.34,-137.33 590.1,-129.17 579.73,-131.33 583.34,-137.33"/>
</a>
</g>
</g>
<!-- Node15&#45;&gt;Node2 -->
<g id="edge17_Node000015_Node000002" class="edge">
<title>Node15&#45;&gt;Node2</title>
<g id="a_edge17_Node000015_Node000002"><a xlink:title=" ">
<path fill="none" stroke="#63b8ff" d="M474.24,-109.98C438.89,-100.93 382.83,-86.58 343.99,-76.64"/>
<polygon fill="#63b8ff" stroke="#63b8ff" points="344.57,-73.17 334.02,-74.08 342.84,-79.95 344.57,-73.17"/>
</a>
</g>
</g>
<!-- Node16 -->
<g id="Node000016" class="node">
<title>Node16</title>
<g id="a_Node000016"><a xlink:title=" ">
<polygon fill="#e0e0e0" stroke="#999999" points="498.5,-74 376.5,-74 376.5,-55 498.5,-55 498.5,-74"/>
<text text-anchor="middle" x="437.5" y="-62" font-family="Helvetica,sans-Serif" font-size="10.00">cantera/ext/fmt/format.h</text>
</a>
</g>
</g>
<!-- Node15&#45;&gt;Node16 -->
<g id="edge18_Node000015_Node000016" class="edge">
<title>Node15&#45;&gt;Node16</title>
<g id="a_edge18_Node000015_Node000016"><a xlink:title=" ">
<path fill="none" stroke="#63b8ff" d="M496.25,-109.98C485.7,-102 469.7,-89.88 457.06,-80.31"/>
<polygon fill="#63b8ff" stroke="#63b8ff" points="459.04,-77.42 448.95,-74.17 454.81,-83 459.04,-77.42"/>
</a>
</g>
</g>
<!-- Node17 -->
<g id="Node000017" class="node">
<title>Node17</title>
<g id="a_Node000017"><a xlink:title=" ">
<polygon fill="#e0e0e0" stroke="#999999" points="632.5,-74 516.5,-74 516.5,-55 632.5,-55 632.5,-74"/>
<text text-anchor="middle" x="574.5" y="-62" font-family="Helvetica,sans-Serif" font-size="10.00">cantera/ext/fmt/printf.h</text>
</a>
</g>
</g>
<!-- Node15&#45;&gt;Node17 -->
<g id="edge19_Node000015_Node000017" class="edge">
<title>Node15&#45;&gt;Node17</title>
<g id="a_edge19_Node000015_Node000017"><a xlink:title=" ">
<path fill="none" stroke="#63b8ff" d="M518.26,-109.98C528.27,-102.07 543.39,-90.11 555.43,-80.58"/>
<polygon fill="#63b8ff" stroke="#63b8ff" points="557.87,-83.12 563.54,-74.17 553.53,-77.63 557.87,-83.12"/>
</a>
</g>
</g>
<!-- Node18 -->
<g id="Node000018" class="node">
<title>Node18</title>
<g id="a_Node000018"><a xlink:title=" ">
<polygon fill="#e0e0e0" stroke="#999999" points="780,-74 651,-74 651,-55 780,-55 780,-74"/>
<text text-anchor="middle" x="715.5" y="-62" font-family="Helvetica,sans-Serif" font-size="10.00">cantera/ext/fmt/ostream.h</text>
</a>
</g>
</g>
<!-- Node15&#45;&gt;Node18 -->
<g id="edge20_Node000015_Node000018" class="edge">
<title>Node15&#45;&gt;Node18</title>
<g id="a_edge20_Node000015_Node000018"><a xlink:title=" ">
<path fill="none" stroke="#63b8ff" d="M540.92,-109.98C576.44,-100.93 632.77,-86.58 671.8,-76.64"/>
<polygon fill="#63b8ff" stroke="#63b8ff" points="672.99,-79.94 681.82,-74.08 671.26,-73.16 672.99,-79.94"/>
</a>
</g>
</g>
<!-- Node20&#45;&gt;Node2 -->
<g id="edge23_Node000020_Node000002" class="edge">
<title>Node20&#45;&gt;Node2</title>
<g id="a_edge23_Node000020_Node000002"><a xlink:title=" ">
<path fill="none" stroke="#63b8ff" d="M130.63,-164.69C143.25,-151.41 168.8,-126.12 194.5,-110 216.25,-96.36 242.9,-85.19 264.04,-77.46"/>
<polygon fill="#63b8ff" stroke="#63b8ff" points="265.38,-80.69 273.63,-74.04 263.04,-74.1 265.38,-80.69"/>
</a>
</g>
</g>
<!-- Node21 -->
<g id="Node000021" class="node">
<title>Node21</title>
<g id="a_Node000021"><a xlink:title=" ">
<polygon fill="#e0e0e0" stroke="#999999" points="142,-129 91,-129 91,-110 142,-110 142,-129"/>
<text text-anchor="middle" x="116.5" y="-117" font-family="Helvetica,sans-Serif" font-size="10.00">numeric</text>
</a>
</g>
</g>
<!-- Node20&#45;&gt;Node21 -->
<g id="edge24_Node000020_Node000021" class="edge">
<title>Node20&#45;&gt;Node21</title>
<g id="a_edge24_Node000020_Node000021"><a xlink:title=" ">
<path fill="none" stroke="#63b8ff" d="M121.51,-164.75C120.72,-157.8 119.6,-147.85 118.61,-139.13"/>
<polygon fill="#63b8ff" stroke="#63b8ff" points="122.08,-138.63 117.47,-129.09 115.12,-139.42 122.08,-138.63"/>
</a>
</g>
</g>
<!-- Node22&#45;&gt;Node2 -->
<g id="edge26_Node000022_Node000002" class="edge">
<title>Node22&#45;&gt;Node2</title>
<g id="a_edge26_Node000022_Node000002"><a xlink:title=" ">
<path fill="none" stroke="#63b8ff" d="M376.07,-164.61C379.27,-151.67 383.22,-127.3 373.5,-110 365.39,-95.56 350.49,-85.26 336.25,-78.22"/>
<polygon fill="#63b8ff" stroke="#63b8ff" points="337.62,-75 327.07,-74.06 334.73,-81.38 337.62,-75"/>
</a>
</g>
</g>
<!-- Node22&#45;&gt;Node15 -->
<g id="edge27_Node000022_Node000015" class="edge">
<title>Node22&#45;&gt;Node15</title>
<g id="a_edge27_Node000022_Node000015"><a xlink:title=" ">
<path fill="none" stroke="#63b8ff" d="M395.03,-164.98C416.97,-156.3 451.24,-142.75 476.19,-132.88"/>
<polygon fill="#63b8ff" stroke="#63b8ff" points="477.57,-136.1 485.58,-129.17 474.99,-129.59 477.57,-136.1"/>
</a>
</g>
</g>
</g>
</svg>
