<?xml version="1.0" encoding="UTF-8" standalone="no"?>
<!DOCTYPE svg PUBLIC "-//W3C//DTD SVG 1.1//EN"
 "http://www.w3.org/Graphics/SVG/1.1/DTD/svg11.dtd">
<!-- Generated by graphviz version 6.0.1 (0)
 -->
<!-- Title: GasTransport.cpp Pages: 1 -->
<svg width="1638pt" height="478pt"
 viewBox="0.00 0.00 1638.00 478.00" xmlns="http://www.w3.org/2000/svg" xmlns:xlink="http://www.w3.org/1999/xlink">
<g id="graph0" class="graph" transform="scale(1 1) rotate(0) translate(4 474)">
<title>GasTransport.cpp</title>
<!-- Node1 -->
<g id="Node000001" class="node">
<title>Node1</title>
<g id="a_Node000001"><a xlink:title=" ">
<polygon fill="#999999" stroke="#666666" points="450.5,-470 355.5,-470 355.5,-451 450.5,-451 450.5,-470"/>
<text text-anchor="middle" x="403" y="-458" font-family="Helvetica,sans-Serif" font-size="10.00">GasTransport.cpp</text>
</a>
</g>
</g>
<!-- Node2 -->
<g id="Node000002" class="node">
<title>Node2</title>
<g id="a_Node000002"><a xlink:href="../../d1/d2e/GasTransport_8h.html" target="_top" xlink:title=" ">
<polygon fill="white" stroke="#666666" points="483.5,-299.5 322.5,-299.5 322.5,-280.5 483.5,-280.5 483.5,-299.5"/>
<text text-anchor="middle" x="403" y="-287.5" font-family="Helvetica,sans-Serif" font-size="10.00">cantera/transport/GasTransport.h</text>
</a>
</g>
</g>
<!-- Node1&#45;&gt;Node2 -->
<g id="edge1_Node000001_Node000002" class="edge">
<title>Node1&#45;&gt;Node2</title>
<g id="a_edge1_Node000001_Node000002"><a xlink:title=" ">
<path fill="none" stroke="#63b8ff" d="M403,-450.91C403,-424.89 403,-346.47 403,-310.01"/>
<polygon fill="#63b8ff" stroke="#63b8ff" points="406.5,-309.77 403,-299.77 399.5,-309.77 406.5,-309.77"/>
</a>
</g>
</g>
<!-- Node21 -->
<g id="Node000021" class="node">
<title>Node21</title>
<g id="a_Node000021"><a xlink:href="../../d2/d49/global_8h.html" target="_top" xlink:title="This file contains definitions for utility functions and text for modules, inputfiles and logging,...">
<polygon fill="white" stroke="#666666" points="337,-184 227,-184 227,-165 337,-165 337,-184"/>
<text text-anchor="middle" x="282" y="-172" font-family="Helvetica,sans-Serif" font-size="10.00">cantera/base/global.h</text>
</a>
</g>
</g>
<!-- Node1&#45;&gt;Node21 -->
<g id="edge67_Node000001_Node000021" class="edge">
<title>Node1&#45;&gt;Node21</title>
<g id="a_edge67_Node000001_Node000021"><a xlink:title=" ">
<path fill="none" stroke="#63b8ff" d="M396.76,-450.91C380.57,-428.23 336.79,-364.36 313,-305 297.86,-267.23 288.88,-220.17 284.75,-194.45"/>
<polygon fill="#63b8ff" stroke="#63b8ff" points="288.16,-193.61 283.19,-184.25 281.24,-194.67 288.16,-193.61"/>
</a>
</g>
</g>
<!-- Node25 -->
<g id="Node000025" class="node">
<title>Node25</title>
<g id="a_Node000025"><a xlink:href="../../df/df6/MMCollisionInt_8h.html" target="_top" xlink:title="Monchick and Mason collision integrals.">
<polygon fill="white" stroke="#666666" points="90,-360 0,-360 0,-341 90,-341 90,-360"/>
<text text-anchor="middle" x="45" y="-348" font-family="Helvetica,sans-Serif" font-size="10.00">MMCollisionInt.h</text>
</a>
</g>
</g>
<!-- Node1&#45;&gt;Node25 -->
<g id="edge28_Node000001_Node000025" class="edge">
<title>Node1&#45;&gt;Node25</title>
<g id="a_edge28_Node000001_Node000025"><a xlink:title=" ">
<path fill="none" stroke="#63b8ff" d="M355.43,-457.54C278.43,-453.59 130.68,-442.58 87,-415 70.27,-404.44 58.75,-384.52 52.06,-369.8"/>
<polygon fill="#63b8ff" stroke="#63b8ff" points="55.13,-368.07 48.04,-360.2 48.68,-370.78 55.13,-368.07"/>
</a>
</g>
</g>
<!-- Node26 -->
<g id="Node000026" class="node">
<title>Node26</title>
<g id="a_Node000026"><a xlink:href="../../dd/dc3/stringUtils_8h.html" target="_top" xlink:title="Contains declarations for string manipulation functions within Cantera.">
<polygon fill="white" stroke="#666666" points="224,-415 96,-415 96,-396 224,-396 224,-415"/>
<text text-anchor="middle" x="160" y="-403" font-family="Helvetica,sans-Serif" font-size="10.00">cantera/base/stringUtils.h</text>
</a>
</g>
</g>
<!-- Node1&#45;&gt;Node26 -->
<g id="edge30_Node000001_Node000026" class="edge">
<title>Node1&#45;&gt;Node26</title>
<g id="a_edge30_Node000001_Node000026"><a xlink:title=" ">
<path fill="none" stroke="#63b8ff" d="M363.96,-450.98C321.92,-441.82 254.96,-427.21 209.32,-417.26"/>
<polygon fill="#63b8ff" stroke="#63b8ff" points="209.86,-413.79 199.35,-415.08 208.37,-420.63 209.86,-413.79"/>
</a>
</g>
</g>
<!-- Node27 -->
<g id="Node000027" class="node">
<title>Node27</title>
<g id="a_Node000027"><a xlink:href="../../d7/dcd/polyfit_8h.html" target="_top" xlink:title=" ">
<polygon fill="white" stroke="#666666" points="275.5,-360 146.5,-360 146.5,-341 275.5,-341 275.5,-360"/>
<text text-anchor="middle" x="211" y="-348" font-family="Helvetica,sans-Serif" font-size="10.00">cantera/numerics/polyfit.h</text>
</a>
</g>
</g>
<!-- Node1&#45;&gt;Node27 -->
<g id="edge32_Node000001_Node000027" class="edge">
<title>Node1&#45;&gt;Node27</title>
<g id="a_edge32_Node000001_Node000027"><a xlink:title=" ">
<path fill="none" stroke="#63b8ff" d="M374.52,-450.94C350.99,-443.26 317.17,-430.78 290,-415 266.63,-401.43 242.87,-381.29 227.6,-367.35"/>
<polygon fill="#63b8ff" stroke="#63b8ff" points="229.75,-364.57 220.04,-360.32 224.98,-369.69 229.75,-364.57"/>
</a>
</g>
</g>
<!-- Node28 -->
<g id="Node000028" class="node">
<title>Node28</title>
<g id="a_Node000028"><a xlink:href="../../df/de9/TransportData_8h.html" target="_top" xlink:title=" ">
<polygon fill="white" stroke="#666666" points="647,-305 513,-305 513,-275 647,-275 647,-305"/>
<text text-anchor="start" x="521" y="-293" font-family="Helvetica,sans-Serif" font-size="10.00">cantera/transport/Transport</text>
<text text-anchor="middle" x="580" y="-282" font-family="Helvetica,sans-Serif" font-size="10.00">Data.h</text>
</a>
</g>
</g>
<!-- Node1&#45;&gt;Node28 -->
<g id="edge34_Node000001_Node000028" class="edge">
<title>Node1&#45;&gt;Node28</title>
<g id="a_edge34_Node000001_Node000028"><a xlink:title=" ">
<path fill="none" stroke="#63b8ff" d="M412.02,-450.91C438.83,-425.39 518.62,-349.44 557.79,-312.14"/>
<polygon fill="#63b8ff" stroke="#63b8ff" points="560.23,-314.65 565.06,-305.22 555.4,-309.58 560.23,-314.65"/>
</a>
</g>
</g>
<!-- Node35 -->
<g id="Node000035" class="node">
<title>Node35</title>
<g id="a_Node000035"><a xlink:href="../../d7/d01/ThermoPhase_8h.html" target="_top" xlink:title="Header file for class ThermoPhase, the base class for phases with thermodynamic properties,...">
<polygon fill="white" stroke="#666666" points="983,-415 829,-415 829,-396 983,-396 983,-415"/>
<text text-anchor="middle" x="906" y="-403" font-family="Helvetica,sans-Serif" font-size="10.00">cantera/thermo/ThermoPhase.h</text>
</a>
</g>
</g>
<!-- Node1&#45;&gt;Node35 -->
<g id="edge46_Node000001_Node000035" class="edge">
<title>Node1&#45;&gt;Node35</title>
<g id="a_edge46_Node000001_Node000035"><a xlink:title=" ">
<path fill="none" stroke="#63b8ff" d="M450.77,-454.47C535.23,-445.57 712.03,-426.94 818.74,-415.69"/>
<polygon fill="#63b8ff" stroke="#63b8ff" points="819.26,-419.16 828.84,-414.63 818.53,-412.2 819.26,-419.16"/>
</a>
</g>
</g>
<!-- Node42 -->
<g id="Node000042" class="node">
<title>Node42</title>
<g id="a_Node000042"><a xlink:href="../../d7/dd9/Species_8h.html" target="_top" xlink:title="Declaration for class Cantera::Species.">
<polygon fill="white" stroke="#666666" points="1630,-299.5 1502,-299.5 1502,-280.5 1630,-280.5 1630,-299.5"/>
<text text-anchor="middle" x="1566" y="-287.5" font-family="Helvetica,sans-Serif" font-size="10.00">cantera/thermo/Species.h</text>
</a>
</g>
</g>
<!-- Node1&#45;&gt;Node42 -->
<g id="edge61_Node000001_Node000042" class="edge">
<title>Node1&#45;&gt;Node42</title>
<g id="a_edge61_Node000001_Node000042"><a xlink:title=" ">
<path fill="none" stroke="#63b8ff" d="M450.83,-459.07C661.21,-457.02 1495.85,-446.87 1541,-415 1573.8,-391.85 1572.5,-338.53 1569.08,-309.93"/>
<polygon fill="#63b8ff" stroke="#63b8ff" points="1572.49,-309.08 1567.63,-299.66 1565.56,-310.06 1572.49,-309.08"/>
</a>
</g>
</g>
<!-- Node43 -->
<g id="Node000043" class="node">
<title>Node43</title>
<g id="a_Node000043"><a xlink:href="../../de/df0/utilities_8h.html" target="_top" xlink:title="Various templated functions that carry out common vector and polynomial operations (see Templated Arr...">
<polygon fill="white" stroke="#666666" points="1531.5,-415 1416.5,-415 1416.5,-396 1531.5,-396 1531.5,-415"/>
<text text-anchor="middle" x="1474" y="-403" font-family="Helvetica,sans-Serif" font-size="10.00">cantera/base/utilities.h</text>
</a>
</g>
</g>
<!-- Node1&#45;&gt;Node43 -->
<g id="edge64_Node000001_Node000043" class="edge">
<title>Node1&#45;&gt;Node43</title>
<g id="a_edge64_Node000001_Node000043"><a xlink:title=" ">
<path fill="none" stroke="#63b8ff" d="M450.75,-457.14C622.12,-448.66 1206.55,-419.74 1406.37,-409.85"/>
<polygon fill="#63b8ff" stroke="#63b8ff" points="1406.62,-413.34 1416.44,-409.35 1406.28,-406.35 1406.62,-413.34"/>
</a>
</g>
</g>
<!-- Node3 -->
<g id="Node000003" class="node">
<title>Node3</title>
<g id="a_Node000003"><a xlink:href="../../d8/d5e/Transport_8h.html" target="_top" xlink:title="Headers for the Transport object, which is the virtual base class for all transport property evaluato...">
<polygon fill="white" stroke="#666666" points="376,-239 310,-239 310,-220 376,-220 376,-239"/>
<text text-anchor="middle" x="343" y="-227" font-family="Helvetica,sans-Serif" font-size="10.00">Transport.h</text>
</a>
</g>
</g>
<!-- Node2&#45;&gt;Node3 -->
<g id="edge2_Node000002_Node000003" class="edge">
<title>Node2&#45;&gt;Node3</title>
<g id="a_edge2_Node000002_Node000003"><a xlink:title=" ">
<path fill="none" stroke="#63b8ff" d="M394.15,-280.37C385.02,-271.47 370.58,-257.39 359.36,-246.45"/>
<polygon fill="#63b8ff" stroke="#63b8ff" points="361.49,-243.64 351.89,-239.17 356.61,-248.65 361.49,-243.64"/>
</a>
</g>
</g>
<!-- Node22 -->
<g id="Node000022" class="node">
<title>Node22</title>
<g id="a_Node000022"><a xlink:href="../../d1/df7/DenseMatrix_8h.html" target="_top" xlink:title="Headers for the DenseMatrix object, which deals with dense rectangular matrices and description of th...">
<polygon fill="white" stroke="#666666" points="552,-239 394,-239 394,-220 552,-220 552,-239"/>
<text text-anchor="middle" x="473" y="-227" font-family="Helvetica,sans-Serif" font-size="10.00">cantera/numerics/DenseMatrix.h</text>
</a>
</g>
</g>
<!-- Node2&#45;&gt;Node22 -->
<g id="edge22_Node000002_Node000022" class="edge">
<title>Node2&#45;&gt;Node22</title>
<g id="a_edge22_Node000002_Node000022"><a xlink:title=" ">
<path fill="none" stroke="#63b8ff" d="M413.33,-280.37C424.19,-271.3 441.49,-256.84 454.67,-245.82"/>
<polygon fill="#63b8ff" stroke="#63b8ff" points="457.2,-248.27 462.63,-239.17 452.71,-242.89 457.2,-248.27"/>
</a>
</g>
</g>
<!-- Node4 -->
<g id="Node000004" class="node">
<title>Node4</title>
<g id="a_Node000004"><a xlink:href="../../d9/ddc/ct__defs_8h.html" target="_top" xlink:title="This file contains definitions of constants, types and terms that are used in internal routines and a...">
<polygon fill="white" stroke="#666666" points="592,-74 476,-74 476,-55 592,-55 592,-74"/>
<text text-anchor="middle" x="534" y="-62" font-family="Helvetica,sans-Serif" font-size="10.00">cantera/base/ct_defs.h</text>
</a>
</g>
</g>
<!-- Node3&#45;&gt;Node4 -->
<g id="edge3_Node000003_Node000004" class="edge">
<title>Node3&#45;&gt;Node4</title>
<g id="a_edge3_Node000003_Node000004"><a xlink:title=" ">
<path fill="none" stroke="#63b8ff" d="M309.88,-226.84C280.33,-223.4 238.65,-213.27 218,-184 201.69,-160.88 227.96,-121.39 243,-110 277.05,-84.22 390.68,-73.14 465.46,-68.54"/>
<polygon fill="#63b8ff" stroke="#63b8ff" points="465.97,-72.02 475.75,-67.94 465.56,-65.03 465.97,-72.02"/>
</a>
</g>
</g>
<!-- Node15 -->
<g id="Node000015" class="node">
<title>Node15</title>
<g id="a_Node000015"><a xlink:href="../../db/d98/ctexceptions_8h.html" target="_top" xlink:title="Definitions for the classes that are thrown when Cantera experiences an error condition (also contain...">
<polygon fill="white" stroke="#666666" points="700,-184 560,-184 560,-165 700,-165 700,-184"/>
<text text-anchor="middle" x="630" y="-172" font-family="Helvetica,sans-Serif" font-size="10.00">cantera/base/ctexceptions.h</text>
</a>
</g>
</g>
<!-- Node3&#45;&gt;Node15 -->
<g id="edge14_Node000003_Node000015" class="edge">
<title>Node3&#45;&gt;Node15</title>
<g id="a_edge14_Node000003_Node000015"><a xlink:title=" ">
<path fill="none" stroke="#63b8ff" d="M376,-221.76C379.04,-221.15 382.08,-220.56 385,-220 448.55,-207.8 521.55,-194.65 571.22,-185.84"/>
<polygon fill="#63b8ff" stroke="#63b8ff" points="571.9,-189.27 581.14,-184.08 570.68,-182.38 571.9,-189.27"/>
</a>
</g>
</g>
<!-- Node3&#45;&gt;Node21 -->
<g id="edge19_Node000003_Node000021" class="edge">
<title>Node3&#45;&gt;Node21</title>
<g id="a_edge19_Node000003_Node000021"><a xlink:title=" ">
<path fill="none" stroke="#63b8ff" d="M333.2,-219.98C324.18,-212.15 310.59,-200.34 299.68,-190.86"/>
<polygon fill="#63b8ff" stroke="#63b8ff" points="301.82,-188.09 291.98,-184.17 297.23,-193.37 301.82,-188.09"/>
</a>
</g>
</g>
<!-- Node5 -->
<g id="Node000005" class="node">
<title>Node5</title>
<g id="a_Node000005"><a xlink:href="../../db/d16/config_8h_source.html" target="_top" xlink:title=" ">
<polygon fill="white" stroke="#666666" points="284.5,-19 233.5,-19 233.5,0 284.5,0 284.5,-19"/>
<text text-anchor="middle" x="259" y="-7" font-family="Helvetica,sans-Serif" font-size="10.00">config.h</text>
</a>
</g>
</g>
<!-- Node4&#45;&gt;Node5 -->
<g id="edge4_Node000004_Node000005" class="edge">
<title>Node4&#45;&gt;Node5</title>
<g id="a_edge4_Node000004_Node000005"><a xlink:title=" ">
<path fill="none" stroke="#63b8ff" d="M483.27,-54.93C436.77,-46.88 365.79,-34.13 294.62,-19.03"/>
<polygon fill="#63b8ff" stroke="#63b8ff" points="295.09,-15.55 284.58,-16.88 293.62,-22.4 295.09,-15.55"/>
</a>
</g>
</g>
<!-- Node6 -->
<g id="Node000006" class="node">
<title>Node6</title>
<g id="a_Node000006"><a xlink:title=" ">
<polygon fill="#e0e0e0" stroke="#999999" points="347,-19 303,-19 303,0 347,0 347,-19"/>
<text text-anchor="middle" x="325" y="-7" font-family="Helvetica,sans-Serif" font-size="10.00">cmath</text>
</a>
</g>
</g>
<!-- Node4&#45;&gt;Node6 -->
<g id="edge5_Node000004_Node000006" class="edge">
<title>Node4&#45;&gt;Node6</title>
<g id="a_edge5_Node000004_Node000006"><a xlink:title=" ">
<path fill="none" stroke="#63b8ff" d="M498.82,-54.95C464.9,-46.66 411.89,-33.55 357.2,-19.27"/>
<polygon fill="#63b8ff" stroke="#63b8ff" points="357.9,-15.84 347.33,-16.69 356.12,-22.61 357.9,-15.84"/>
</a>
</g>
</g>
<!-- Node7 -->
<g id="Node000007" class="node">
<title>Node7</title>
<g id="a_Node000007"><a xlink:title=" ">
<polygon fill="#e0e0e0" stroke="#999999" points="410.5,-19 365.5,-19 365.5,0 410.5,0 410.5,-19"/>
<text text-anchor="middle" x="388" y="-7" font-family="Helvetica,sans-Serif" font-size="10.00">cstdlib</text>
</a>
</g>
</g>
<!-- Node4&#45;&gt;Node7 -->
<g id="edge6_Node000004_Node000007" class="edge">
<title>Node4&#45;&gt;Node7</title>
<g id="a_edge6_Node000004_Node000007"><a xlink:title=" ">
<path fill="none" stroke="#63b8ff" d="M510.54,-54.98C486.13,-46.12 447.73,-32.18 420.43,-22.27"/>
<polygon fill="#63b8ff" stroke="#63b8ff" points="421.51,-18.94 410.92,-18.82 419.12,-25.52 421.51,-18.94"/>
</a>
</g>
</g>
<!-- Node8 -->
<g id="Node000008" class="node">
<title>Node8</title>
<g id="a_Node000008"><a xlink:title=" ">
<polygon fill="#e0e0e0" stroke="#999999" points="473,-19 429,-19 429,0 473,0 473,-19"/>
<text text-anchor="middle" x="451" y="-7" font-family="Helvetica,sans-Serif" font-size="10.00">vector</text>
</a>
</g>
</g>
<!-- Node4&#45;&gt;Node8 -->
<g id="edge7_Node000004_Node000008" class="edge">
<title>Node4&#45;&gt;Node8</title>
<g id="a_edge7_Node000004_Node000008"><a xlink:title=" ">
<path fill="none" stroke="#63b8ff" d="M520.66,-54.98C507.91,-46.84 488.45,-34.41 473.33,-24.76"/>
<polygon fill="#63b8ff" stroke="#63b8ff" points="474.89,-21.6 464.58,-19.17 471.12,-27.5 474.89,-21.6"/>
</a>
</g>
</g>
<!-- Node9 -->
<g id="Node000009" class="node">
<title>Node9</title>
<g id="a_Node000009"><a xlink:title=" ">
<polygon fill="#e0e0e0" stroke="#999999" points="526.5,-19 491.5,-19 491.5,0 526.5,0 526.5,-19"/>
<text text-anchor="middle" x="509" y="-7" font-family="Helvetica,sans-Serif" font-size="10.00">map</text>
</a>
</g>
</g>
<!-- Node4&#45;&gt;Node9 -->
<g id="edge8_Node000004_Node000009" class="edge">
<title>Node4&#45;&gt;Node9</title>
<g id="a_edge8_Node000004_Node000009"><a xlink:title=" ">
<path fill="none" stroke="#63b8ff" d="M529.87,-54.75C526.49,-47.57 521.58,-37.18 517.38,-28.27"/>
<polygon fill="#63b8ff" stroke="#63b8ff" points="520.48,-26.64 513.05,-19.09 514.15,-29.63 520.48,-26.64"/>
</a>
</g>
</g>
<!-- Node10 -->
<g id="Node000010" class="node">
<title>Node10</title>
<g id="a_Node000010"><a xlink:title=" ">
<polygon fill="#e0e0e0" stroke="#999999" points="575,-19 545,-19 545,0 575,0 575,-19"/>
<text text-anchor="middle" x="560" y="-7" font-family="Helvetica,sans-Serif" font-size="10.00">set</text>
</a>
</g>
</g>
<!-- Node4&#45;&gt;Node10 -->
<g id="edge9_Node000004_Node000010" class="edge">
<title>Node4&#45;&gt;Node10</title>
<g id="a_edge9_Node000004_Node000010"><a xlink:title=" ">
<path fill="none" stroke="#63b8ff" d="M538.29,-54.75C541.81,-47.57 546.91,-37.18 551.28,-28.27"/>
<polygon fill="#63b8ff" stroke="#63b8ff" points="554.52,-29.61 555.79,-19.09 548.24,-26.53 554.52,-29.61"/>
</a>
</g>
</g>
<!-- Node11 -->
<g id="Node000011" class="node">
<title>Node11</title>
<g id="a_Node000011"><a xlink:title=" ">
<polygon fill="#e0e0e0" stroke="#999999" points="634.5,-19 593.5,-19 593.5,0 634.5,0 634.5,-19"/>
<text text-anchor="middle" x="614" y="-7" font-family="Helvetica,sans-Serif" font-size="10.00">string</text>
</a>
</g>
</g>
<!-- Node4&#45;&gt;Node11 -->
<g id="edge10_Node000004_Node000011" class="edge">
<title>Node4&#45;&gt;Node11</title>
<g id="a_edge10_Node000004_Node000011"><a xlink:title=" ">
<path fill="none" stroke="#63b8ff" d="M546.85,-54.98C559.14,-46.84 577.91,-34.41 592.48,-24.76"/>
<polygon fill="#63b8ff" stroke="#63b8ff" points="594.51,-27.61 600.91,-19.17 590.64,-21.78 594.51,-27.61"/>
</a>
</g>
</g>
<!-- Node12 -->
<g id="Node000012" class="node">
<title>Node12</title>
<g id="a_Node000012"><a xlink:title=" ">
<polygon fill="#e0e0e0" stroke="#999999" points="709,-19 653,-19 653,0 709,0 709,-19"/>
<text text-anchor="middle" x="681" y="-7" font-family="Helvetica,sans-Serif" font-size="10.00">algorithm</text>
</a>
</g>
</g>
<!-- Node4&#45;&gt;Node12 -->
<g id="edge11_Node000004_Node000012" class="edge">
<title>Node4&#45;&gt;Node12</title>
<g id="a_edge11_Node000004_Node000012"><a xlink:title=" ">
<path fill="none" stroke="#63b8ff" d="M557.62,-54.98C581.9,-46.23 619.95,-32.51 647.37,-22.62"/>
<polygon fill="#63b8ff" stroke="#63b8ff" points="648.73,-25.85 656.95,-19.17 646.36,-19.27 648.73,-25.85"/>
</a>
</g>
</g>
<!-- Node13 -->
<g id="Node000013" class="node">
<title>Node13</title>
<g id="a_Node000013"><a xlink:title=" ">
<polygon fill="#e0e0e0" stroke="#999999" points="779,-19 727,-19 727,0 779,0 779,-19"/>
<text text-anchor="middle" x="753" y="-7" font-family="Helvetica,sans-Serif" font-size="10.00">memory</text>
</a>
</g>
</g>
<!-- Node4&#45;&gt;Node13 -->
<g id="edge12_Node000004_Node000013" class="edge">
<title>Node4&#45;&gt;Node13</title>
<g id="a_edge12_Node000004_Node000013"><a xlink:title=" ">
<path fill="none" stroke="#63b8ff" d="M569.28,-54.98C604.29,-46.52 659.77,-33.11 716.73,-19.31"/>
<polygon fill="#63b8ff" stroke="#63b8ff" points="717.73,-22.66 726.63,-16.91 716.08,-15.86 717.73,-22.66"/>
</a>
</g>
</g>
<!-- Node14 -->
<g id="Node000014" class="node">
<title>Node14</title>
<g id="a_Node000014"><a xlink:title=" ">
<polygon fill="#e0e0e0" stroke="#999999" points="856.5,-19 797.5,-19 797.5,0 856.5,0 856.5,-19"/>
<text text-anchor="middle" x="827" y="-7" font-family="Helvetica,sans-Serif" font-size="10.00">functional</text>
</a>
</g>
</g>
<!-- Node4&#45;&gt;Node14 -->
<g id="edge13_Node000004_Node000014" class="edge">
<title>Node4&#45;&gt;Node14</title>
<g id="a_edge13_Node000004_Node000014"><a xlink:title=" ">
<path fill="none" stroke="#63b8ff" d="M586.65,-54.92C635.9,-46.76 711.73,-33.81 787.07,-19.11"/>
<polygon fill="#63b8ff" stroke="#63b8ff" points="788.08,-22.48 797.22,-17.12 786.73,-15.61 788.08,-22.48"/>
</a>
</g>
</g>
<!-- Node15&#45;&gt;Node4 -->
<g id="edge15_Node000015_Node000004" class="edge">
<title>Node15&#45;&gt;Node4</title>
<g id="a_edge15_Node000015_Node000004"><a xlink:title=" ">
<path fill="none" stroke="#63b8ff" d="M622.14,-164.66C606.03,-146.54 569.03,-104.91 548.46,-81.77"/>
<polygon fill="#63b8ff" stroke="#63b8ff" points="550.96,-79.31 541.7,-74.16 545.72,-83.96 550.96,-79.31"/>
</a>
</g>
</g>
<!-- Node16 -->
<g id="Node000016" class="node">
<title>Node16</title>
<g id="a_Node000016"><a xlink:href="../../db/def/fmt_8h.html" target="_top" xlink:title="Wrapper for either system&#45;installed or local headers for fmt.">
<polygon fill="#fff0f0" stroke="red" points="468,-129 370,-129 370,-110 468,-110 468,-129"/>
<text text-anchor="middle" x="419" y="-117" font-family="Helvetica,sans-Serif" font-size="10.00">cantera/base/fmt.h</text>
</a>
</g>
</g>
<!-- Node15&#45;&gt;Node16 -->
<g id="edge16_Node000015_Node000016" class="edge">
<title>Node15&#45;&gt;Node16</title>
<g id="a_edge16_Node000015_Node000016"><a xlink:title=" ">
<path fill="none" stroke="#63b8ff" d="M596.1,-164.98C559.98,-155.91 502.68,-141.52 463.08,-131.57"/>
<polygon fill="#63b8ff" stroke="#63b8ff" points="463.72,-128.12 453.17,-129.08 462.01,-134.91 463.72,-128.12"/>
</a>
</g>
</g>
<!-- Node20 -->
<g id="Node000020" class="node">
<title>Node20</title>
<g id="a_Node000020"><a xlink:title=" ">
<polygon fill="#e0e0e0" stroke="#999999" points="659.5,-129 600.5,-129 600.5,-110 659.5,-110 659.5,-129"/>
<text text-anchor="middle" x="630" y="-117" font-family="Helvetica,sans-Serif" font-size="10.00">exception</text>
</a>
</g>
</g>
<!-- Node15&#45;&gt;Node20 -->
<g id="edge18_Node000015_Node000020" class="edge">
<title>Node15&#45;&gt;Node20</title>
<g id="a_edge18_Node000015_Node000020"><a xlink:title=" ">
<path fill="none" stroke="#63b8ff" d="M630,-164.75C630,-157.8 630,-147.85 630,-139.13"/>
<polygon fill="#63b8ff" stroke="#63b8ff" points="633.5,-139.09 630,-129.09 626.5,-139.09 633.5,-139.09"/>
</a>
</g>
</g>
<!-- Node16&#45;&gt;Node4 -->
<g id="edge17_Node000016_Node000004" class="edge">
<title>Node16&#45;&gt;Node4</title>
<g id="a_edge17_Node000016_Node000004"><a xlink:title=" ">
<path fill="none" stroke="#63b8ff" d="M437.48,-109.98C455.98,-101.46 484.68,-88.23 505.98,-78.41"/>
<polygon fill="#63b8ff" stroke="#63b8ff" points="507.57,-81.53 515.19,-74.17 504.64,-75.18 507.57,-81.53"/>
</a>
</g>
</g>
<!-- Node21&#45;&gt;Node4 -->
<g id="edge20_Node000021_Node000004" class="edge">
<title>Node21&#45;&gt;Node4</title>
<g id="a_edge20_Node000021_Node000004"><a xlink:title=" ">
<path fill="none" stroke="#63b8ff" d="M272.09,-164.9C258.28,-151.91 236.49,-126.97 251,-110 278.05,-78.36 390.7,-69.07 465.46,-66.43"/>
<polygon fill="#63b8ff" stroke="#63b8ff" points="465.86,-69.92 475.75,-66.1 465.64,-62.93 465.86,-69.92"/>
</a>
</g>
</g>
<!-- Node21&#45;&gt;Node16 -->
<g id="edge21_Node000021_Node000016" class="edge">
<title>Node21&#45;&gt;Node16</title>
<g id="a_edge21_Node000021_Node000016"><a xlink:title=" ">
<path fill="none" stroke="#63b8ff" d="M304.01,-164.98C326.45,-156.3 361.48,-142.75 386.99,-132.88"/>
<polygon fill="#63b8ff" stroke="#63b8ff" points="388.52,-136.04 396.59,-129.17 386,-129.51 388.52,-136.04"/>
</a>
</g>
</g>
<!-- Node22&#45;&gt;Node4 -->
<g id="edge23_Node000022_Node000004" class="edge">
<title>Node22&#45;&gt;Node4</title>
<g id="a_edge23_Node000022_Node000004"><a xlink:title=" ">
<path fill="none" stroke="#63b8ff" d="M476.28,-219.74C485.88,-194.09 514.06,-118.78 527.16,-83.78"/>
<polygon fill="#63b8ff" stroke="#63b8ff" points="530.48,-84.9 530.7,-74.31 523.92,-82.45 530.48,-84.9"/>
</a>
</g>
</g>
<!-- Node22&#45;&gt;Node15 -->
<g id="edge24_Node000022_Node000015" class="edge">
<title>Node22&#45;&gt;Node15</title>
<g id="a_edge24_Node000022_Node000015"><a xlink:title=" ">
<path fill="none" stroke="#63b8ff" d="M498.22,-219.98C524.36,-211.16 565.4,-197.31 594.73,-187.41"/>
<polygon fill="#63b8ff" stroke="#63b8ff" points="596.22,-190.6 604.58,-184.08 593.98,-183.96 596.22,-190.6"/>
</a>
</g>
</g>
<!-- Node23 -->
<g id="Node000023" class="node">
<title>Node23</title>
<g id="a_Node000023"><a xlink:href="../../df/dd0/Array_8h.html" target="_top" xlink:title="Header file for class Cantera::Array2D.">
<polygon fill="white" stroke="#666666" points="461,-184 355,-184 355,-165 461,-165 461,-184"/>
<text text-anchor="middle" x="408" y="-172" font-family="Helvetica,sans-Serif" font-size="10.00">cantera/base/Array.h</text>
</a>
</g>
</g>
<!-- Node22&#45;&gt;Node23 -->
<g id="edge25_Node000022_Node000023" class="edge">
<title>Node22&#45;&gt;Node23</title>
<g id="a_edge25_Node000022_Node000023"><a xlink:title=" ">
<path fill="none" stroke="#63b8ff" d="M462.56,-219.98C452.85,-212.07 438.18,-200.11 426.5,-190.58"/>
<polygon fill="#63b8ff" stroke="#63b8ff" points="428.6,-187.78 418.63,-184.17 424.17,-193.2 428.6,-187.78"/>
</a>
</g>
</g>
<!-- Node23&#45;&gt;Node4 -->
<g id="edge26_Node000023_Node000004" class="edge">
<title>Node23&#45;&gt;Node4</title>
<g id="a_edge26_Node000023_Node000004"><a xlink:title=" ">
<path fill="none" stroke="#63b8ff" d="M393.72,-164.99C374.93,-152.72 345.96,-129.4 361,-110 374.06,-93.15 422.99,-81.57 465.49,-74.45"/>
<polygon fill="#63b8ff" stroke="#63b8ff" points="466.25,-77.87 475.57,-72.82 465.14,-70.96 466.25,-77.87"/>
</a>
</g>
</g>
<!-- Node24 -->
<g id="Node000024" class="node">
<title>Node24</title>
<g id="a_Node000024"><a xlink:title=" ">
<polygon fill="#e0e0e0" stroke="#999999" points="314,-129 260,-129 260,-110 314,-110 314,-129"/>
<text text-anchor="middle" x="287" y="-117" font-family="Helvetica,sans-Serif" font-size="10.00">iostream</text>
</a>
</g>
</g>
<!-- Node23&#45;&gt;Node24 -->
<g id="edge27_Node000023_Node000024" class="edge">
<title>Node23&#45;&gt;Node24</title>
<g id="a_edge27_Node000023_Node000024"><a xlink:title=" ">
<path fill="none" stroke="#63b8ff" d="M388.56,-164.98C369.01,-156.42 338.62,-143.11 316.18,-133.28"/>
<polygon fill="#63b8ff" stroke="#63b8ff" points="317.36,-129.98 306.79,-129.17 314.55,-136.39 317.36,-129.98"/>
</a>
</g>
</g>
<!-- Node25&#45;&gt;Node4 -->
<g id="edge29_Node000025_Node000004" class="edge">
<title>Node25&#45;&gt;Node4</title>
<g id="a_edge29_Node000025_Node000004"><a xlink:title=" ">
<path fill="none" stroke="#63b8ff" d="M47.08,-340.9C51.62,-321.39 62,-272.24 62,-230.5 62,-230.5 62,-230.5 62,-173.5 62,-139.66 75.06,-127.54 104,-110 163.17,-74.15 360.13,-66.86 465.73,-65.58"/>
<polygon fill="#63b8ff" stroke="#63b8ff" points="466,-69.08 475.96,-65.47 465.93,-62.08 466,-69.08"/>
</a>
</g>
</g>
<!-- Node26&#45;&gt;Node4 -->
<g id="edge31_Node000026_Node000004" class="edge">
<title>Node26&#45;&gt;Node4</title>
<g id="a_edge31_Node000026_Node000004"><a xlink:title=" ">
<path fill="none" stroke="#63b8ff" d="M154.34,-395.79C142.87,-377.29 118,-332.39 118,-291 118,-291 118,-291 118,-173.5 118,-134.06 144.68,-127.55 180,-110 228.69,-85.8 377.07,-73.87 465.52,-68.75"/>
<polygon fill="#63b8ff" stroke="#63b8ff" points="465.94,-72.24 475.73,-68.18 465.55,-65.25 465.94,-72.24"/>
</a>
</g>
</g>
<!-- Node27&#45;&gt;Node4 -->
<g id="edge33_Node000027_Node000004" class="edge">
<title>Node27&#45;&gt;Node4</title>
<g id="a_edge33_Node000027_Node000004"><a xlink:title=" ">
<path fill="none" stroke="#63b8ff" d="M203.81,-340.88C188.9,-322.11 156,-275.56 156,-230.5 156,-230.5 156,-230.5 156,-173.5 156,-132.47 186.06,-127.86 223,-110 264.59,-89.89 387.31,-76.91 465.58,-70.43"/>
<polygon fill="#63b8ff" stroke="#63b8ff" points="466.16,-73.89 475.84,-69.59 465.59,-66.92 466.16,-73.89"/>
</a>
</g>
</g>
<!-- Node28&#45;&gt;Node4 -->
<g id="edge35_Node000028_Node000004" class="edge">
<title>Node28&#45;&gt;Node4</title>
<g id="a_edge35_Node000028_Node000004"><a xlink:title=" ">
<path fill="none" stroke="#63b8ff" d="M576.15,-274.99C572.32,-261.05 566.27,-239.04 561,-220 556.57,-204 554.41,-200.25 551,-184 543.67,-149.04 538.52,-107.61 535.93,-84.15"/>
<polygon fill="#63b8ff" stroke="#63b8ff" points="539.4,-83.76 534.86,-74.19 532.44,-84.51 539.4,-83.76"/>
</a>
</g>
</g>
<!-- Node29 -->
<g id="Node000029" class="node">
<title>Node29</title>
<g id="a_Node000029"><a xlink:href="../../dd/d2a/AnyMap_8h.html" target="_top" xlink:title=" ">
<polygon fill="white" stroke="#666666" points="1188,-239 1068,-239 1068,-220 1188,-220 1188,-239"/>
<text text-anchor="middle" x="1128" y="-227" font-family="Helvetica,sans-Serif" font-size="10.00">cantera/base/AnyMap.h</text>
</a>
</g>
</g>
<!-- Node28&#45;&gt;Node29 -->
<g id="edge36_Node000028_Node000029" class="edge">
<title>Node28&#45;&gt;Node29</title>
<g id="a_edge36_Node000028_Node000029"><a xlink:title=" ">
<path fill="none" stroke="#63b8ff" d="M647.2,-281.83C751.58,-270.68 951.69,-249.32 1057.85,-237.99"/>
<polygon fill="#63b8ff" stroke="#63b8ff" points="1058.25,-241.47 1067.82,-236.92 1057.5,-234.51 1058.25,-241.47"/>
</a>
</g>
</g>
<!-- Node29&#45;&gt;Node4 -->
<g id="edge37_Node000029_Node000004" class="edge">
<title>Node29&#45;&gt;Node4</title>
<g id="a_edge37_Node000029_Node000004"><a xlink:title=" ">
<path fill="none" stroke="#63b8ff" d="M1120.93,-219.9C1101.08,-196.55 1041.97,-132.19 976,-110 908.55,-87.31 708.65,-74.21 602.31,-68.66"/>
<polygon fill="#63b8ff" stroke="#63b8ff" points="602.49,-65.17 592.32,-68.15 602.13,-72.16 602.49,-65.17"/>
</a>
</g>
</g>
<!-- Node29&#45;&gt;Node15 -->
<g id="edge38_Node000029_Node000015" class="edge">
<title>Node29&#45;&gt;Node15</title>
<g id="a_edge38_Node000029_Node000015"><a xlink:title=" ">
<path fill="none" stroke="#63b8ff" d="M1067.98,-222.15C988.61,-213.75 844.11,-198.44 710.24,-184.13"/>
<polygon fill="#63b8ff" stroke="#63b8ff" points="710.53,-180.64 700.21,-183.06 709.78,-187.6 710.53,-180.64"/>
</a>
</g>
</g>
<!-- Node30 -->
<g id="Node000030" class="node">
<title>Node30</title>
<g id="a_Node000030"><a xlink:href="../../da/d58/Units_8h.html" target="_top" xlink:title="Header for unit conversion utilities, which are used to translate user input from input files (See In...">
<polygon fill="white" stroke="#666666" points="1057.5,-184 950.5,-184 950.5,-165 1057.5,-165 1057.5,-184"/>
<text text-anchor="middle" x="1004" y="-172" font-family="Helvetica,sans-Serif" font-size="10.00">cantera/base/Units.h</text>
</a>
</g>
</g>
<!-- Node29&#45;&gt;Node30 -->
<g id="edge39_Node000029_Node000030" class="edge">
<title>Node29&#45;&gt;Node30</title>
<g id="a_edge39_Node000029_Node000030"><a xlink:title=" ">
<path fill="none" stroke="#63b8ff" d="M1108.08,-219.98C1087.95,-211.38 1056.62,-197.99 1033.59,-188.15"/>
<polygon fill="#63b8ff" stroke="#63b8ff" points="1034.86,-184.88 1024.29,-184.17 1032.1,-191.32 1034.86,-184.88"/>
</a>
</g>
</g>
<!-- Node31 -->
<g id="Node000031" class="node">
<title>Node31</title>
<g id="a_Node000031"><a xlink:title=" ">
<polygon fill="#e0e0e0" stroke="#999999" points="1197.5,-184 1114.5,-184 1114.5,-165 1197.5,-165 1197.5,-184"/>
<text text-anchor="middle" x="1156" y="-172" font-family="Helvetica,sans-Serif" font-size="10.00">unordered_map</text>
</a>
</g>
</g>
<!-- Node29&#45;&gt;Node31 -->
<g id="edge41_Node000029_Node000031" class="edge">
<title>Node29&#45;&gt;Node31</title>
<g id="a_edge41_Node000029_Node000031"><a xlink:title=" ">
<path fill="none" stroke="#63b8ff" d="M1132.62,-219.75C1136.46,-212.49 1142.02,-201.95 1146.76,-192.98"/>
<polygon fill="#63b8ff" stroke="#63b8ff" points="1149.89,-194.57 1151.46,-184.09 1143.7,-191.3 1149.89,-194.57"/>
</a>
</g>
</g>
<!-- Node32 -->
<g id="Node000032" class="node">
<title>Node32</title>
<g id="a_Node000032"><a xlink:title=" ">
<polygon fill="#e0e0e0" stroke="#999999" points="1278,-184 1216,-184 1216,-165 1278,-165 1278,-184"/>
<text text-anchor="middle" x="1247" y="-172" font-family="Helvetica,sans-Serif" font-size="10.00">filesystem</text>
</a>
</g>
</g>
<!-- Node29&#45;&gt;Node32 -->
<g id="edge42_Node000029_Node000032" class="edge">
<title>Node29&#45;&gt;Node32</title>
<g id="a_edge42_Node000029_Node000032"><a xlink:title=" ">
<path fill="none" stroke="#63b8ff" d="M1147.12,-219.98C1166.35,-211.42 1196.23,-198.11 1218.31,-188.28"/>
<polygon fill="#63b8ff" stroke="#63b8ff" points="1219.82,-191.44 1227.53,-184.17 1216.97,-185.04 1219.82,-191.44"/>
</a>
</g>
</g>
<!-- Node33 -->
<g id="Node000033" class="node">
<title>Node33</title>
<g id="a_Node000033"><a xlink:title=" ">
<polygon fill="#e0e0e0" stroke="#999999" points="1328,-184 1296,-184 1296,-165 1328,-165 1328,-184"/>
<text text-anchor="middle" x="1312" y="-172" font-family="Helvetica,sans-Serif" font-size="10.00">any</text>
</a>
</g>
</g>
<!-- Node29&#45;&gt;Node33 -->
<g id="edge43_Node000029_Node000033" class="edge">
<title>Node29&#45;&gt;Node33</title>
<g id="a_edge43_Node000029_Node000033"><a xlink:title=" ">
<path fill="none" stroke="#63b8ff" d="M1160.43,-219.98C1190.66,-211.92 1237.19,-199.2 1286.1,-184.16"/>
<polygon fill="#63b8ff" stroke="#63b8ff" points="1287.39,-187.42 1295.9,-181.12 1285.32,-180.73 1287.39,-187.42"/>
</a>
</g>
</g>
<!-- Node34 -->
<g id="Node000034" class="node">
<title>Node34</title>
<g id="a_Node000034"><a xlink:href="../../da/d4c/AnyMap_8inl_8h.html" target="_top" xlink:title=" ">
<polygon fill="white" stroke="#666666" points="1479.5,-184 1346.5,-184 1346.5,-165 1479.5,-165 1479.5,-184"/>
<text text-anchor="middle" x="1413" y="-172" font-family="Helvetica,sans-Serif" font-size="10.00">cantera/base/AnyMap.inl.h</text>
</a>
</g>
</g>
<!-- Node29&#45;&gt;Node34 -->
<g id="edge44_Node000029_Node000034" class="edge">
<title>Node29&#45;&gt;Node34</title>
<g id="a_edge44_Node000029_Node000034"><a xlink:title=" ">
<path fill="none" stroke="#63b8ff" d="M1168.68,-219.98C1216.55,-210.7 1296.32,-195.84 1351.68,-185.88"/>
<polygon fill="#63b8ff" stroke="#63b8ff" points="1352.5,-189.29 1361.72,-184.08 1351.26,-182.4 1352.5,-189.29"/>
</a>
</g>
</g>
<!-- Node30&#45;&gt;Node4 -->
<g id="edge40_Node000030_Node000004" class="edge">
<title>Node30&#45;&gt;Node4</title>
<g id="a_edge40_Node000030_Node000004"><a xlink:title=" ">
<path fill="none" stroke="#63b8ff" d="M999.43,-164.67C991.52,-150.4 973.8,-122.58 950,-110 891.33,-78.98 704.48,-69.57 602.32,-66.73"/>
<polygon fill="#63b8ff" stroke="#63b8ff" points="602.19,-63.22 592.1,-66.46 602,-70.22 602.19,-63.22"/>
</a>
</g>
</g>
<!-- Node34&#45;&gt;Node29 -->
<g id="edge45_Node000034_Node000029" class="edge">
<title>Node34&#45;&gt;Node29</title>
<g id="a_edge45_Node000034_Node000029"><a xlink:title=" ">
<path fill="none" stroke="#63b8ff" d="M1371.98,-184.08C1323.96,-193.39 1244.16,-208.25 1188.92,-218.19"/>
<polygon fill="#63b8ff" stroke="#63b8ff" points="1188.13,-214.77 1178.91,-219.98 1189.37,-221.66 1188.13,-214.77"/>
</a>
</g>
</g>
<!-- Node35&#45;&gt;Node29 -->
<g id="edge60_Node000035_Node000029" class="edge">
<title>Node35&#45;&gt;Node29</title>
<g id="a_edge60_Node000035_Node000029"><a xlink:title=" ">
<path fill="none" stroke="#63b8ff" d="M939.49,-395.89C962.94,-388.79 994.2,-377.08 1018,-360 1062.19,-328.29 1099.78,-275.09 1117.36,-247.8"/>
<polygon fill="#63b8ff" stroke="#63b8ff" points="1120.53,-249.33 1122.91,-239 1114.61,-245.6 1120.53,-249.33"/>
</a>
</g>
</g>
<!-- Node35&#45;&gt;Node30 -->
<g id="edge59_Node000035_Node000030" class="edge">
<title>Node35&#45;&gt;Node30</title>
<g id="a_edge59_Node000035_Node000030"><a xlink:title=" ">
<path fill="none" stroke="#63b8ff" d="M926.43,-395.86C941.34,-388.49 960.83,-376.47 972,-360 1007.1,-308.28 1007.52,-230.18 1005.56,-194.5"/>
<polygon fill="#63b8ff" stroke="#63b8ff" points="1009.03,-193.86 1004.85,-184.12 1002.04,-194.34 1009.03,-193.86"/>
</a>
</g>
</g>
<!-- Node36 -->
<g id="Node000036" class="node">
<title>Node36</title>
<g id="a_Node000036"><a xlink:href="../../da/d84/Phase_8h.html" target="_top" xlink:title="Header file for class Phase.">
<polygon fill="white" stroke="#666666" points="819.5,-239 766.5,-239 766.5,-220 819.5,-220 819.5,-239"/>
<text text-anchor="middle" x="793" y="-227" font-family="Helvetica,sans-Serif" font-size="10.00">Phase.h</text>
</a>
</g>
</g>
<!-- Node35&#45;&gt;Node36 -->
<g id="edge47_Node000035_Node000036" class="edge">
<title>Node35&#45;&gt;Node36</title>
<g id="a_edge47_Node000035_Node000036"><a xlink:title=" ">
<path fill="none" stroke="#63b8ff" d="M887.09,-395.88C872.41,-388.31 852.5,-376.01 840,-360 813.6,-326.18 801.12,-276.18 796.02,-249.27"/>
<polygon fill="#63b8ff" stroke="#63b8ff" points="799.44,-248.51 794.26,-239.27 792.54,-249.72 799.44,-248.51"/>
</a>
</g>
</g>
<!-- Node40 -->
<g id="Node000040" class="node">
<title>Node40</title>
<g id="a_Node000040"><a xlink:href="../../d6/d7a/MultiSpeciesThermo_8h.html" target="_top" xlink:title="Header for a general species thermodynamic property manager for a phase (see MultiSpeciesThermo).">
<polygon fill="white" stroke="#666666" points="963,-360 849,-360 849,-341 963,-341 963,-360"/>
<text text-anchor="middle" x="906" y="-348" font-family="Helvetica,sans-Serif" font-size="10.00">MultiSpeciesThermo.h</text>
</a>
</g>
</g>
<!-- Node35&#45;&gt;Node40 -->
<g id="edge54_Node000035_Node000040" class="edge">
<title>Node35&#45;&gt;Node40</title>
<g id="a_edge54_Node000035_Node000040"><a xlink:title=" ">
<path fill="none" stroke="#63b8ff" d="M906,-395.75C906,-388.8 906,-378.85 906,-370.13"/>
<polygon fill="#63b8ff" stroke="#63b8ff" points="909.5,-370.09 906,-360.09 902.5,-370.09 909.5,-370.09"/>
</a>
</g>
</g>
<!-- Node36&#45;&gt;Node15 -->
<g id="edge48_Node000036_Node000015" class="edge">
<title>Node36&#45;&gt;Node15</title>
<g id="a_edge48_Node000036_Node000015"><a xlink:title=" ">
<path fill="none" stroke="#63b8ff" d="M766.81,-219.98C739.56,-211.13 696.7,-197.19 666.22,-187.28"/>
<polygon fill="#63b8ff" stroke="#63b8ff" points="666.99,-183.85 656.39,-184.08 664.82,-190.5 666.99,-183.85"/>
</a>
</g>
</g>
<!-- Node37 -->
<g id="Node000037" class="node">
<title>Node37</title>
<g id="a_Node000037"><a xlink:href="../../d9/dda/Elements_8h.html" target="_top" xlink:title="Contains the getElementWeight function and the definitions of element constraint types.">
<polygon fill="white" stroke="#666666" points="908,-129 774,-129 774,-110 908,-110 908,-129"/>
<text text-anchor="middle" x="841" y="-117" font-family="Helvetica,sans-Serif" font-size="10.00">cantera/thermo/Elements.h</text>
</a>
</g>
</g>
<!-- Node36&#45;&gt;Node37 -->
<g id="edge49_Node000036_Node000037" class="edge">
<title>Node36&#45;&gt;Node37</title>
<g id="a_edge49_Node000036_Node000037"><a xlink:title=" ">
<path fill="none" stroke="#63b8ff" d="M818.51,-219.9C834.69,-212.96 854.35,-201.44 864,-184 872.3,-169 863.61,-150.41 854.64,-137.23"/>
<polygon fill="#63b8ff" stroke="#63b8ff" points="857.35,-135.02 848.58,-129.08 851.74,-139.2 857.35,-135.02"/>
</a>
</g>
</g>
<!-- Node38 -->
<g id="Node000038" class="node">
<title>Node38</title>
<g id="a_Node000038"><a xlink:href="../../d6/df6/ValueCache_8h.html" target="_top" xlink:title=" ">
<polygon fill="white" stroke="#666666" points="855.5,-184 718.5,-184 718.5,-165 855.5,-165 855.5,-184"/>
<text text-anchor="middle" x="787" y="-172" font-family="Helvetica,sans-Serif" font-size="10.00">cantera/base/ValueCache.h</text>
</a>
</g>
</g>
<!-- Node36&#45;&gt;Node38 -->
<g id="edge51_Node000036_Node000038" class="edge">
<title>Node36&#45;&gt;Node38</title>
<g id="a_edge51_Node000036_Node000038"><a xlink:title=" ">
<path fill="none" stroke="#63b8ff" d="M792.01,-219.75C791.22,-212.8 790.1,-202.85 789.11,-194.13"/>
<polygon fill="#63b8ff" stroke="#63b8ff" points="792.58,-193.63 787.97,-184.09 785.62,-194.42 792.58,-193.63"/>
</a>
</g>
</g>
<!-- Node37&#45;&gt;Node4 -->
<g id="edge50_Node000037_Node000004" class="edge">
<title>Node37&#45;&gt;Node4</title>
<g id="a_edge50_Node000037_Node000004"><a xlink:title=" ">
<path fill="none" stroke="#63b8ff" d="M791.68,-109.98C737.71,-100.67 651.22,-85.74 593.52,-75.78"/>
<polygon fill="#63b8ff" stroke="#63b8ff" points="593.91,-72.29 583.46,-74.04 592.72,-79.19 593.91,-72.29"/>
</a>
</g>
</g>
<!-- Node38&#45;&gt;Node4 -->
<g id="edge52_Node000038_Node000004" class="edge">
<title>Node38&#45;&gt;Node4</title>
<g id="a_edge52_Node000038_Node000004"><a xlink:title=" ">
<path fill="none" stroke="#63b8ff" d="M771.43,-164.76C744.09,-149.5 688.44,-118.77 668,-110 637.34,-96.84 601.4,-85.1 574.47,-76.98"/>
<polygon fill="#63b8ff" stroke="#63b8ff" points="575.2,-73.55 564.61,-74.05 573.2,-80.26 575.2,-73.55"/>
</a>
</g>
</g>
<!-- Node39 -->
<g id="Node000039" class="node">
<title>Node39</title>
<g id="a_Node000039"><a xlink:title=" ">
<polygon fill="#e0e0e0" stroke="#999999" points="756,-129 716,-129 716,-110 756,-110 756,-129"/>
<text text-anchor="middle" x="736" y="-117" font-family="Helvetica,sans-Serif" font-size="10.00">limits</text>
</a>
</g>
</g>
<!-- Node38&#45;&gt;Node39 -->
<g id="edge53_Node000038_Node000039" class="edge">
<title>Node38&#45;&gt;Node39</title>
<g id="a_edge53_Node000038_Node000039"><a xlink:title=" ">
<path fill="none" stroke="#63b8ff" d="M778.58,-164.75C771.23,-157.11 760.37,-145.82 751.46,-136.56"/>
<polygon fill="#63b8ff" stroke="#63b8ff" points="753.72,-133.87 744.26,-129.09 748.68,-138.72 753.72,-133.87"/>
</a>
</g>
</g>
<!-- Node41 -->
<g id="Node000041" class="node">
<title>Node41</title>
<g id="a_Node000041"><a xlink:href="../../d4/d87/SpeciesThermoInterpType_8h.html" target="_top" xlink:title="Pure Virtual Base class for individual species reference state thermodynamic managers and text for th...">
<polygon fill="white" stroke="#666666" points="975.5,-299.5 836.5,-299.5 836.5,-280.5 975.5,-280.5 975.5,-299.5"/>
<text text-anchor="middle" x="906" y="-287.5" font-family="Helvetica,sans-Serif" font-size="10.00">SpeciesThermoInterpType.h</text>
</a>
</g>
</g>
<!-- Node40&#45;&gt;Node41 -->
<g id="edge55_Node000040_Node000041" class="edge">
<title>Node40&#45;&gt;Node41</title>
<g id="a_edge55_Node000040_Node000041"><a xlink:title=" ">
<path fill="none" stroke="#63b8ff" d="M906,-340.87C906,-332.75 906,-320.31 906,-309.89"/>
<polygon fill="#63b8ff" stroke="#63b8ff" points="909.5,-309.67 906,-299.67 902.5,-309.67 909.5,-309.67"/>
</a>
</g>
</g>
<!-- Node41&#45;&gt;Node4 -->
<g id="edge56_Node000041_Node000004" class="edge">
<title>Node41&#45;&gt;Node4</title>
<g id="a_edge56_Node000041_Node000004"><a xlink:title=" ">
<path fill="none" stroke="#63b8ff" d="M910.37,-280.14C923.85,-251.41 961.31,-159.76 917,-110 896.48,-86.96 706.88,-74.03 602.37,-68.59"/>
<polygon fill="#63b8ff" stroke="#63b8ff" points="602.39,-65.09 592.22,-68.07 602.03,-72.08 602.39,-65.09"/>
</a>
</g>
</g>
<!-- Node41&#45;&gt;Node15 -->
<g id="edge57_Node000041_Node000015" class="edge">
<title>Node41&#45;&gt;Node15</title>
<g id="a_edge57_Node000041_Node000015"><a xlink:title=" ">
<path fill="none" stroke="#63b8ff" d="M876.43,-280.42C846.04,-271.28 797.57,-255.85 757,-239 720.26,-223.74 679.37,-202.48 654.17,-188.86"/>
<polygon fill="#63b8ff" stroke="#63b8ff" points="655.77,-185.75 645.31,-184.04 652.42,-191.89 655.77,-185.75"/>
</a>
</g>
</g>
<!-- Node41&#45;&gt;Node29 -->
<g id="edge58_Node000041_Node000029" class="edge">
<title>Node41&#45;&gt;Node29</title>
<g id="a_edge58_Node000041_Node000029"><a xlink:title=" ">
<path fill="none" stroke="#63b8ff" d="M938.28,-280.49C977.25,-270.23 1042.88,-252.93 1085.82,-241.62"/>
<polygon fill="#63b8ff" stroke="#63b8ff" points="1086.9,-244.95 1095.68,-239.02 1085.12,-238.18 1086.9,-244.95"/>
</a>
</g>
</g>
<!-- Node42&#45;&gt;Node4 -->
<g id="edge62_Node000042_Node000004" class="edge">
<title>Node42&#45;&gt;Node4</title>
<g id="a_edge62_Node000042_Node000004"><a xlink:title=" ">
<path fill="none" stroke="#63b8ff" d="M1567.03,-280.47C1570.02,-251.14 1575.43,-153.86 1522,-110 1486.5,-80.86 820.08,-69.34 602.25,-66.35"/>
<polygon fill="#63b8ff" stroke="#63b8ff" points="602.27,-62.85 592.22,-66.21 602.18,-69.85 602.27,-62.85"/>
</a>
</g>
</g>
<!-- Node42&#45;&gt;Node29 -->
<g id="edge63_Node000042_Node000029" class="edge">
<title>Node42&#45;&gt;Node29</title>
<g id="a_edge63_Node000042_Node000029"><a xlink:title=" ">
<path fill="none" stroke="#63b8ff" d="M1502.31,-280.49C1421.37,-269.68 1282.12,-251.09 1198.2,-239.88"/>
<polygon fill="#63b8ff" stroke="#63b8ff" points="1198.62,-236.4 1188.24,-238.55 1197.69,-243.34 1198.62,-236.4"/>
</a>
</g>
</g>
<!-- Node43&#45;&gt;Node4 -->
<g id="edge65_Node000043_Node000004" class="edge">
<title>Node43&#45;&gt;Node4</title>
<g id="a_edge65_Node000043_Node000004"><a xlink:title=" ">
<path fill="none" stroke="#63b8ff" d="M1475.25,-395.86C1481.09,-355.01 1504.63,-182.53 1489,-165 1430.09,-98.93 811.45,-74 602.5,-67.42"/>
<polygon fill="#63b8ff" stroke="#63b8ff" points="602.38,-63.92 592.27,-67.11 602.16,-70.92 602.38,-63.92"/>
</a>
</g>
</g>
<!-- Node44 -->
<g id="Node000044" class="node">
<title>Node44</title>
<g id="a_Node000044"><a xlink:title=" ">
<polygon fill="#e0e0e0" stroke="#999999" points="1553.5,-360 1502.5,-360 1502.5,-341 1553.5,-341 1553.5,-360"/>
<text text-anchor="middle" x="1528" y="-348" font-family="Helvetica,sans-Serif" font-size="10.00">numeric</text>
</a>
</g>
</g>
<!-- Node43&#45;&gt;Node44 -->
<g id="edge66_Node000043_Node000044" class="edge">
<title>Node43&#45;&gt;Node44</title>
<g id="a_edge66_Node000043_Node000044"><a xlink:title=" ">
<path fill="none" stroke="#63b8ff" d="M1482.92,-395.75C1490.78,-388.03 1502.43,-376.6 1511.92,-367.28"/>
<polygon fill="#63b8ff" stroke="#63b8ff" points="1514.56,-369.59 1519.25,-360.09 1509.66,-364.6 1514.56,-369.59"/>
</a>
</g>
</g>
</g>
</svg>
