<?xml version="1.0" encoding="UTF-8" standalone="no"?>
<!DOCTYPE svg PUBLIC "-//W3C//DTD SVG 1.1//EN"
 "http://www.w3.org/Graphics/SVG/1.1/DTD/svg11.dtd">
<!-- Generated by graphviz version 2.50.0 (0)
 -->
<!-- Title: PlogRate.cpp Pages: 1 -->
<!--zoomable 610 -->
<svg id="main" version="1.1" xmlns="http://www.w3.org/2000/svg" xmlns:xlink="http://www.w3.org/1999/xlink" xml:space="preserve" onload="init(evt)">
<style type="text/css"><![CDATA[
.edge:hover path { stroke: red; }
.edge:hover polygon { stroke: red; fill: red; }
]]></style>
<script type="text/javascript"><![CDATA[
var edges = document.getElementsByTagName('g');
if (edges && edges.length) {
  for (var i=0;i<edges.length;i++) {
    if (edges[i].id.substr(0,4)=='edge') {
      edges[i].setAttribute('class','edge');
    }
  }
}
]]></script>
        <defs>
                <circle id="rim" cx="0" cy="0" r="7"/>
                <circle id="rim2" cx="0" cy="0" r="3.5"/>
                <g id="zoomPlus">
                        <use xlink:href="#rim" fill="#404040">
                                <set attributeName="fill" to="#808080" begin="zoomplus.mouseover" end="zoomplus.mouseout"/>
                        </use>
                        <path d="M-4,0h8M0,-4v8" fill="none" stroke="white" stroke-width="1.5" pointer-events="none"/>
                </g>
                <g id="zoomMin">
                        <use xlink:href="#rim" fill="#404040">
                                <set attributeName="fill" to="#808080" begin="zoomminus.mouseover" end="zoomminus.mouseout"/>
                        </use>
                        <path d="M-4,0h8" fill="none" stroke="white" stroke-width="1.5" pointer-events="none"/>
                </g>
                <g id="dirArrow">
                        <path fill="none" stroke="white" stroke-width="1.5" d="M0,-3.0v7 M-2.5,-0.5L0,-3.0L2.5,-0.5"/>
                </g>
               <g id="resetDef">
                       <use xlink:href="#rim2" fill="#404040">
                               <set attributeName="fill" to="#808080" begin="reset.mouseover" end="reset.mouseout"/>
                       </use>
               </g>
        </defs>

<script type="text/javascript">
var viewWidth = 1001;
var viewHeight = 610;
var sectionId = 'dynsection-0';
</script>
<script xlink:href="../../svgpan.js"/>
<svg id="graph" class="graph">
<g id="viewport">
<title>PlogRate.cpp</title>
<polygon fill="white" stroke="transparent" points="-4,4 -4,-606 997.48,-606 997.48,4 -4,4"/>
<!-- Node1 -->
<g id="node1" class="node">
<title>Node1</title>
<g id="a_node1"><a xlink:title=" ">
<polygon fill="#bfbfbf" stroke="black" points="338.48,-582.5 338.48,-601.5 414.48,-601.5 414.48,-582.5 338.48,-582.5"/>
<text text-anchor="middle" x="376.48" y="-589.5" font-family="Helvetica,sans-Serif" font-size="10.00">PlogRate.cpp</text>
</a>
</g>
</g>
<!-- Node2 -->
<g id="node2" class="node">
<title>Node2</title>
<g id="a_node2"><a xlink:href="../../dd/d3a/PlogRate_8h.html" target="_top" xlink:title=" ">
<polygon fill="white" stroke="black" points="307.98,-470.5 307.98,-489.5 444.98,-489.5 444.98,-470.5 307.98,-470.5"/>
<text text-anchor="middle" x="376.48" y="-477.5" font-family="Helvetica,sans-Serif" font-size="10.00">cantera/kinetics/PlogRate.h</text>
</a>
</g>
</g>
<!-- Node1&#45;&gt;Node2 -->
<g id="edge1" class="edge">
<title>Node1&#45;&gt;Node2</title>
<path fill="none" stroke="midnightblue" d="M376.48,-582.37C376.48,-564.62 376.48,-523.67 376.48,-499.6"/>
<polygon fill="midnightblue" stroke="midnightblue" points="379.98,-499.59 376.48,-489.59 372.98,-499.59 379.98,-499.59"/>
</g>
<!-- Node31 -->
<g id="node22" class="node">
<title>Node31</title>
<g id="a_node22"><a xlink:href="../../da/d70/RxnRates_8h.html" target="_top" xlink:title=" ">
<polygon fill="white" stroke="black" points="610.98,-526.5 610.98,-545.5 751.98,-545.5 751.98,-526.5 610.98,-526.5"/>
<text text-anchor="middle" x="681.48" y="-533.5" font-family="Helvetica,sans-Serif" font-size="10.00">cantera/kinetics/RxnRates.h</text>
</a>
</g>
</g>
<!-- Node1&#45;&gt;Node31 -->
<g id="edge33" class="edge">
<title>Node1&#45;&gt;Node31</title>
<path fill="none" stroke="midnightblue" d="M414.49,-584.27C466.98,-574.98 562.12,-558.13 623.51,-547.26"/>
<polygon fill="midnightblue" stroke="midnightblue" points="624.2,-550.7 633.43,-545.51 622.98,-543.8 624.2,-550.7"/>
</g>
<!-- Node36 -->
<g id="node27" class="node">
<title>Node36</title>
<g id="a_node27"><a xlink:href="../../d7/d01/ThermoPhase_8h.html" target="_top" xlink:title="Header file for class ThermoPhase, the base class for phases with thermodynamic properties,...">
<polygon fill="white" stroke="black" points="202.48,-414.5 202.48,-433.5 356.48,-433.5 356.48,-414.5 202.48,-414.5"/>
<text text-anchor="middle" x="279.48" y="-421.5" font-family="Helvetica,sans-Serif" font-size="10.00">cantera/thermo/ThermoPhase.h</text>
</a>
</g>
</g>
<!-- Node1&#45;&gt;Node36 -->
<g id="edge46" class="edge">
<title>Node1&#45;&gt;Node36</title>
<path fill="none" stroke="midnightblue" d="M367.91,-582.33C352.01,-565.77 317.78,-527.91 298.48,-490 290.98,-475.27 285.99,-457.11 283.01,-443.73"/>
<polygon fill="midnightblue" stroke="midnightblue" points="286.41,-442.89 280.97,-433.8 279.55,-444.3 286.41,-442.89"/>
</g>
<!-- Node3 -->
<g id="node3" class="node">
<title>Node3</title>
<g id="a_node3"><a xlink:href="../../d6/dd6/Arrhenius_8h.html" target="_top" xlink:title="Header for reaction rates that involve Arrhenius&#45;type kinetics.">
<polygon fill="white" stroke="black" points="531.48,-414.5 531.48,-433.5 669.48,-433.5 669.48,-414.5 531.48,-414.5"/>
<text text-anchor="middle" x="600.48" y="-421.5" font-family="Helvetica,sans-Serif" font-size="10.00">cantera/kinetics/Arrhenius.h</text>
</a>
</g>
</g>
<!-- Node2&#45;&gt;Node3 -->
<g id="edge2" class="edge">
<title>Node2&#45;&gt;Node3</title>
<path fill="none" stroke="midnightblue" d="M411.97,-470.44C450.8,-461.08 513.14,-446.06 555.4,-435.87"/>
<polygon fill="midnightblue" stroke="midnightblue" points="556.25,-439.26 565.15,-433.52 554.61,-432.46 556.25,-439.26"/>
</g>
<!-- Node4 -->
<g id="node4" class="node">
<title>Node4</title>
<g id="a_node4"><a xlink:href="../../d9/ddc/ct__defs_8h.html" target="_top" xlink:title="This file contains definitions of constants, types and terms that are used in internal routines and a...">
<polygon fill="white" stroke="black" points="559.48,-56.5 559.48,-75.5 675.48,-75.5 675.48,-56.5 559.48,-56.5"/>
<text text-anchor="middle" x="617.48" y="-63.5" font-family="Helvetica,sans-Serif" font-size="10.00">cantera/base/ct_defs.h</text>
</a>
</g>
</g>
<!-- Node3&#45;&gt;Node4 -->
<g id="edge3" class="edge">
<title>Node3&#45;&gt;Node4</title>
<path fill="none" stroke="midnightblue" d="M606.04,-414.47C617.49,-396.33 643.37,-352.24 652.48,-311 670.91,-227.55 639.29,-125.82 624.49,-85.11"/>
<polygon fill="midnightblue" stroke="midnightblue" points="627.68,-83.65 620.9,-75.51 621.13,-86.1 627.68,-83.65"/>
</g>
<!-- Node13 -->
<g id="node13" class="node">
<title>Node13</title>
<g id="a_node13"><a xlink:href="../../da/d58/Units_8h.html" target="_top" xlink:title="Header for unit conversion utilities, which are used to translate user input from input files (See In...">
<polygon fill="white" stroke="black" points="481.98,-168.5 481.98,-187.5 588.98,-187.5 588.98,-168.5 481.98,-168.5"/>
<text text-anchor="middle" x="535.48" y="-175.5" font-family="Helvetica,sans-Serif" font-size="10.00">cantera/base/Units.h</text>
</a>
</g>
</g>
<!-- Node3&#45;&gt;Node13 -->
<g id="edge12" class="edge">
<title>Node3&#45;&gt;Node13</title>
<path fill="none" stroke="midnightblue" d="M589.64,-414.27C562.46,-391.55 491.91,-327.34 468.48,-255 464.24,-241.89 462,-236.16 468.48,-224 476.03,-209.83 490.24,-199.33 503.64,-192.06"/>
<polygon fill="midnightblue" stroke="midnightblue" points="505.31,-195.13 512.69,-187.53 502.18,-188.87 505.31,-195.13"/>
</g>
<!-- Node14 -->
<g id="node14" class="node">
<title>Node14</title>
<g id="a_node14"><a xlink:href="../../d6/d4a/ReactionData_8h.html" target="_top" xlink:title=" ">
<polygon fill="white" stroke="black" points="477.48,-224.5 477.48,-254.5 605.48,-254.5 605.48,-224.5 477.48,-224.5"/>
<text text-anchor="start" x="485.48" y="-242.5" font-family="Helvetica,sans-Serif" font-size="10.00">cantera/kinetics/Reaction</text>
<text text-anchor="middle" x="541.48" y="-231.5" font-family="Helvetica,sans-Serif" font-size="10.00">Data.h</text>
</a>
</g>
</g>
<!-- Node3&#45;&gt;Node14 -->
<g id="edge14" class="edge">
<title>Node3&#45;&gt;Node14</title>
<path fill="none" stroke="midnightblue" d="M595.39,-414.36C584.86,-396.02 560.71,-351.56 549.48,-311 545.3,-295.92 543.3,-278.44 542.35,-264.67"/>
<polygon fill="midnightblue" stroke="midnightblue" points="545.83,-264.31 541.78,-254.52 538.84,-264.7 545.83,-264.31"/>
</g>
<!-- Node20 -->
<g id="node17" class="node">
<title>Node20</title>
<g id="a_node17"><a xlink:href="../../d8/db0/ReactionRate_8h.html" target="_top" xlink:title=" ">
<polygon fill="white" stroke="black" points="557.98,-291.5 557.98,-310.5 642.98,-310.5 642.98,-291.5 557.98,-291.5"/>
<text text-anchor="middle" x="600.48" y="-298.5" font-family="Helvetica,sans-Serif" font-size="10.00">ReactionRate.h</text>
</a>
</g>
</g>
<!-- Node3&#45;&gt;Node20 -->
<g id="edge19" class="edge">
<title>Node3&#45;&gt;Node20</title>
<path fill="none" stroke="midnightblue" d="M600.48,-414.3C600.48,-394.85 600.48,-347.49 600.48,-320.9"/>
<polygon fill="midnightblue" stroke="midnightblue" points="603.98,-320.62 600.48,-310.62 596.98,-320.62 603.98,-320.62"/>
</g>
<!-- Node28 -->
<g id="node20" class="node">
<title>Node28</title>
<g id="a_node20"><a xlink:href="../../d6/d42/MultiRate_8h.html" target="_top" xlink:title=" ">
<polygon fill="white" stroke="black" points="699.98,-353 699.98,-372 766.98,-372 766.98,-353 699.98,-353"/>
<text text-anchor="middle" x="733.48" y="-360" font-family="Helvetica,sans-Serif" font-size="10.00">MultiRate.h</text>
</a>
</g>
</g>
<!-- Node3&#45;&gt;Node28 -->
<g id="edge28" class="edge">
<title>Node3&#45;&gt;Node28</title>
<path fill="none" stroke="midnightblue" d="M619.54,-414.48C641.96,-404.45 679.39,-387.7 705.19,-376.15"/>
<polygon fill="midnightblue" stroke="midnightblue" points="706.76,-379.29 714.46,-372.01 703.9,-372.9 706.76,-379.29"/>
</g>
<!-- Node5 -->
<g id="node5" class="node">
<title>Node5</title>
<g id="a_node5"><a xlink:href="../../db/d16/config_8h_source.html" target="_top" xlink:title=" ">
<polygon fill="white" stroke="black" points="370.98,-0.5 370.98,-19.5 421.98,-19.5 421.98,-0.5 370.98,-0.5"/>
<text text-anchor="middle" x="396.48" y="-7.5" font-family="Helvetica,sans-Serif" font-size="10.00">config.h</text>
</a>
</g>
</g>
<!-- Node4&#45;&gt;Node5 -->
<g id="edge4" class="edge">
<title>Node4&#45;&gt;Node5</title>
<path fill="none" stroke="midnightblue" d="M581.44,-56.44C545.92,-47.97 489.85,-34.5 431.79,-20.05"/>
<polygon fill="midnightblue" stroke="midnightblue" points="432.63,-16.65 422.08,-17.63 430.94,-23.45 432.63,-16.65"/>
</g>
<!-- Node6 -->
<g id="node6" class="node">
<title>Node6</title>
<g id="a_node6"><a xlink:title=" ">
<polygon fill="white" stroke="#bfbfbf" points="440.48,-0.5 440.48,-19.5 484.48,-19.5 484.48,-0.5 440.48,-0.5"/>
<text text-anchor="middle" x="462.48" y="-7.5" font-family="Helvetica,sans-Serif" font-size="10.00">cmath</text>
</a>
</g>
</g>
<!-- Node4&#45;&gt;Node6 -->
<g id="edge5" class="edge">
<title>Node4&#45;&gt;Node6</title>
<path fill="none" stroke="midnightblue" d="M592.92,-56.44C566.35,-47.19 523.87,-32.39 494.65,-22.21"/>
<polygon fill="midnightblue" stroke="midnightblue" points="495.51,-18.8 484.91,-18.82 493.2,-25.41 495.51,-18.8"/>
</g>
<!-- Node7 -->
<g id="node7" class="node">
<title>Node7</title>
<g id="a_node7"><a xlink:title=" ">
<polygon fill="white" stroke="#bfbfbf" points="502.98,-0.5 502.98,-19.5 547.98,-19.5 547.98,-0.5 502.98,-0.5"/>
<text text-anchor="middle" x="525.48" y="-7.5" font-family="Helvetica,sans-Serif" font-size="10.00">cstdlib</text>
</a>
</g>
</g>
<!-- Node4&#45;&gt;Node7 -->
<g id="edge6" class="edge">
<title>Node4&#45;&gt;Node7</title>
<path fill="none" stroke="midnightblue" d="M602.7,-56.32C588.21,-47.82 565.91,-34.73 548.99,-24.8"/>
<polygon fill="midnightblue" stroke="midnightblue" points="550.62,-21.7 540.23,-19.65 547.08,-27.74 550.62,-21.7"/>
</g>
<!-- Node8 -->
<g id="node8" class="node">
<title>Node8</title>
<g id="a_node8"><a xlink:title=" ">
<polygon fill="white" stroke="#bfbfbf" points="566.48,-0.5 566.48,-19.5 610.48,-19.5 610.48,-0.5 566.48,-0.5"/>
<text text-anchor="middle" x="588.48" y="-7.5" font-family="Helvetica,sans-Serif" font-size="10.00">vector</text>
</a>
</g>
</g>
<!-- Node4&#45;&gt;Node8 -->
<g id="edge7" class="edge">
<title>Node4&#45;&gt;Node8</title>
<path fill="none" stroke="midnightblue" d="M612.69,-56.08C608.72,-48.69 602.96,-37.95 598.05,-28.81"/>
<polygon fill="midnightblue" stroke="midnightblue" points="601,-26.91 593.18,-19.75 594.83,-30.22 601,-26.91"/>
</g>
<!-- Node9 -->
<g id="node9" class="node">
<title>Node9</title>
<g id="a_node9"><a xlink:title=" ">
<polygon fill="white" stroke="#bfbfbf" points="628.98,-0.5 628.98,-19.5 663.98,-19.5 663.98,-0.5 628.98,-0.5"/>
<text text-anchor="middle" x="646.48" y="-7.5" font-family="Helvetica,sans-Serif" font-size="10.00">map</text>
</a>
</g>
</g>
<!-- Node4&#45;&gt;Node9 -->
<g id="edge8" class="edge">
<title>Node4&#45;&gt;Node9</title>
<path fill="none" stroke="midnightblue" d="M622.27,-56.08C626.24,-48.69 632.01,-37.95 636.92,-28.81"/>
<polygon fill="midnightblue" stroke="midnightblue" points="640.13,-30.22 641.78,-19.75 633.97,-26.91 640.13,-30.22"/>
</g>
<!-- Node10 -->
<g id="node10" class="node">
<title>Node10</title>
<g id="a_node10"><a xlink:title=" ">
<polygon fill="white" stroke="#bfbfbf" points="681.98,-0.5 681.98,-19.5 722.98,-19.5 722.98,-0.5 681.98,-0.5"/>
<text text-anchor="middle" x="702.48" y="-7.5" font-family="Helvetica,sans-Serif" font-size="10.00">string</text>
</a>
</g>
</g>
<!-- Node4&#45;&gt;Node10 -->
<g id="edge9" class="edge">
<title>Node4&#45;&gt;Node10</title>
<path fill="none" stroke="midnightblue" d="M631.14,-56.32C644.4,-47.9 664.75,-34.97 680.33,-25.07"/>
<polygon fill="midnightblue" stroke="midnightblue" points="682.29,-27.97 688.86,-19.65 678.54,-22.06 682.29,-27.97"/>
</g>
<!-- Node11 -->
<g id="node11" class="node">
<title>Node11</title>
<g id="a_node11"><a xlink:title=" ">
<polygon fill="white" stroke="#bfbfbf" points="741.48,-0.5 741.48,-19.5 797.48,-19.5 797.48,-0.5 741.48,-0.5"/>
<text text-anchor="middle" x="769.48" y="-7.5" font-family="Helvetica,sans-Serif" font-size="10.00">algorithm</text>
</a>
</g>
</g>
<!-- Node4&#45;&gt;Node11 -->
<g id="edge10" class="edge">
<title>Node4&#45;&gt;Node11</title>
<path fill="none" stroke="midnightblue" d="M641.57,-56.44C667.03,-47.4 707.37,-33.06 735.94,-22.92"/>
<polygon fill="midnightblue" stroke="midnightblue" points="737.26,-26.16 745.51,-19.52 734.91,-19.57 737.26,-26.16"/>
</g>
<!-- Node12 -->
<g id="node12" class="node">
<title>Node12</title>
<g id="a_node12"><a xlink:title=" ">
<polygon fill="white" stroke="#bfbfbf" points="815.48,-0.5 815.48,-19.5 867.48,-19.5 867.48,-0.5 815.48,-0.5"/>
<text text-anchor="middle" x="841.48" y="-7.5" font-family="Helvetica,sans-Serif" font-size="10.00">memory</text>
</a>
</g>
</g>
<!-- Node4&#45;&gt;Node12 -->
<g id="edge11" class="edge">
<title>Node4&#45;&gt;Node12</title>
<path fill="none" stroke="midnightblue" d="M654.11,-56.48C690.21,-48.04 747.2,-34.6 805.39,-20.24"/>
<polygon fill="midnightblue" stroke="midnightblue" points="806.25,-23.63 815.12,-17.83 804.57,-16.84 806.25,-23.63"/>
</g>
<!-- Node13&#45;&gt;Node4 -->
<g id="edge13" class="edge">
<title>Node13&#45;&gt;Node4</title>
<path fill="none" stroke="midnightblue" d="M519.5,-168.43C498.87,-156.24 467.33,-133.03 482.48,-112 497.98,-90.5 524.19,-79.12 549.41,-73.15"/>
<polygon fill="midnightblue" stroke="midnightblue" points="550.32,-76.54 559.38,-71.05 548.87,-69.69 550.32,-76.54"/>
</g>
<!-- Node14&#45;&gt;Node4 -->
<g id="edge15" class="edge">
<title>Node14&#45;&gt;Node4</title>
<path fill="none" stroke="midnightblue" d="M563.89,-224.38C576.11,-215.47 590.36,-202.84 598.48,-188 616.37,-155.31 618.67,-110.67 618.34,-85.77"/>
<polygon fill="midnightblue" stroke="midnightblue" points="621.83,-85.43 618.04,-75.54 614.84,-85.64 621.83,-85.43"/>
</g>
<!-- Node15 -->
<g id="node15" class="node">
<title>Node15</title>
<g id="a_node15"><a xlink:href="../../db/d98/ctexceptions_8h.html" target="_top" xlink:title="Definitions for the classes that are thrown when Cantera experiences an error condition (also contain...">
<polygon fill="white" stroke="red" points="323.48,-168.5 323.48,-187.5 463.48,-187.5 463.48,-168.5 323.48,-168.5"/>
<text text-anchor="middle" x="393.48" y="-175.5" font-family="Helvetica,sans-Serif" font-size="10.00">cantera/base/ctexceptions.h</text>
</a>
</g>
</g>
<!-- Node14&#45;&gt;Node15 -->
<g id="edge16" class="edge">
<title>Node14&#45;&gt;Node15</title>
<path fill="none" stroke="midnightblue" d="M506.41,-224.4C481.46,-214.37 448.27,-201.03 424.34,-191.4"/>
<polygon fill="midnightblue" stroke="midnightblue" points="425.6,-188.14 415.02,-187.66 422.99,-194.64 425.6,-188.14"/>
</g>
<!-- Node16 -->
<g id="node16" class="node">
<title>Node16</title>
<g id="a_node16"><a xlink:href="../../db/def/fmt_8h.html" target="_top" xlink:title="Wrapper for either system&#45;installed or local headers for fmt.">
<polygon fill="white" stroke="red" points="491.48,-112.5 491.48,-131.5 589.48,-131.5 589.48,-112.5 491.48,-112.5"/>
<text text-anchor="middle" x="540.48" y="-119.5" font-family="Helvetica,sans-Serif" font-size="10.00">cantera/base/fmt.h</text>
</a>
</g>
</g>
<!-- Node15&#45;&gt;Node16 -->
<g id="edge17" class="edge">
<title>Node15&#45;&gt;Node16</title>
<path fill="none" stroke="midnightblue" d="M416.77,-168.44C441.29,-159.44 480.08,-145.19 507.68,-135.05"/>
<polygon fill="midnightblue" stroke="midnightblue" points="509.12,-138.25 517.3,-131.52 506.7,-131.68 509.12,-138.25"/>
</g>
<!-- Node16&#45;&gt;Node4 -->
<g id="edge18" class="edge">
<title>Node16&#45;&gt;Node4</title>
<path fill="none" stroke="midnightblue" d="M552.85,-112.32C564.64,-104.06 582.61,-91.45 596.62,-81.63"/>
<polygon fill="midnightblue" stroke="midnightblue" points="598.96,-84.26 605.14,-75.65 594.94,-78.53 598.96,-84.26"/>
</g>
<!-- Node20&#45;&gt;Node13 -->
<g id="edge26" class="edge">
<title>Node20&#45;&gt;Node13</title>
<path fill="none" stroke="midnightblue" d="M605.6,-291.38C613.66,-276.57 627.16,-245.81 614.48,-224 605.74,-208.97 589.9,-198.54 574.69,-191.54"/>
<polygon fill="midnightblue" stroke="midnightblue" points="575.94,-188.27 565.36,-187.61 573.22,-194.72 575.94,-188.27"/>
</g>
<!-- Node20&#45;&gt;Node15 -->
<g id="edge27" class="edge">
<title>Node20&#45;&gt;Node15</title>
<path fill="none" stroke="midnightblue" d="M560.24,-291.45C532.93,-284.45 496.78,-272.76 468.48,-255 442.94,-238.98 419.58,-212.64 405.94,-195.56"/>
<polygon fill="midnightblue" stroke="midnightblue" points="408.63,-193.32 399.73,-187.57 403.11,-197.61 408.63,-193.32"/>
</g>
<!-- Node21 -->
<g id="node18" class="node">
<title>Node21</title>
<g id="a_node18"><a xlink:href="../../dd/d16/MultiRateBase_8h.html" target="_top" xlink:title=" ">
<polygon fill="white" stroke="black" points="699.98,-230 699.98,-249 788.98,-249 788.98,-230 699.98,-230"/>
<text text-anchor="middle" x="744.48" y="-237" font-family="Helvetica,sans-Serif" font-size="10.00">MultiRateBase.h</text>
</a>
</g>
</g>
<!-- Node20&#45;&gt;Node21 -->
<g id="edge20" class="edge">
<title>Node20&#45;&gt;Node21</title>
<path fill="none" stroke="midnightblue" d="M621.11,-291.48C645.6,-281.36 686.63,-264.4 714.59,-252.85"/>
<polygon fill="midnightblue" stroke="midnightblue" points="715.98,-256.06 723.89,-249.01 713.31,-249.59 715.98,-256.06"/>
</g>
<!-- Node22 -->
<g id="node19" class="node">
<title>Node22</title>
<g id="a_node19"><a xlink:href="../../dd/d2a/AnyMap_8h.html" target="_top" xlink:title=" ">
<polygon fill="white" stroke="red" points="187.48,-230 187.48,-249 307.48,-249 307.48,-230 187.48,-230"/>
<text text-anchor="middle" x="247.48" y="-237" font-family="Helvetica,sans-Serif" font-size="10.00">cantera/base/AnyMap.h</text>
</a>
</g>
</g>
<!-- Node20&#45;&gt;Node22 -->
<g id="edge22" class="edge">
<title>Node20&#45;&gt;Node22</title>
<path fill="none" stroke="midnightblue" d="M557.9,-292.82C495.68,-282.34 379.59,-262.77 308.36,-250.76"/>
<polygon fill="midnightblue" stroke="midnightblue" points="308.63,-247.26 298.19,-249.05 307.47,-254.16 308.63,-247.26"/>
</g>
<!-- Node21&#45;&gt;Node4 -->
<g id="edge21" class="edge">
<title>Node21&#45;&gt;Node4</title>
<path fill="none" stroke="midnightblue" d="M738.68,-229.64C732.16,-219.63 721.34,-202.78 712.48,-188 692.53,-154.71 694.07,-142.03 669.48,-112 660.26,-100.74 648.04,-90 637.75,-81.84"/>
<polygon fill="midnightblue" stroke="midnightblue" points="639.75,-78.96 629.68,-75.64 635.48,-84.51 639.75,-78.96"/>
</g>
<!-- Node22&#45;&gt;Node4 -->
<g id="edge23" class="edge">
<title>Node22&#45;&gt;Node4</title>
<path fill="none" stroke="midnightblue" d="M216.49,-229.87C196.08,-222.39 170.91,-209.34 158.48,-188 136.55,-150.34 200.41,-116.62 209.48,-112 267.27,-82.57 449.11,-72.24 549.4,-68.73"/>
<polygon fill="midnightblue" stroke="midnightblue" points="549.56,-72.23 559.44,-68.39 549.33,-65.23 549.56,-72.23"/>
</g>
<!-- Node22&#45;&gt;Node13 -->
<g id="edge25" class="edge">
<title>Node22&#45;&gt;Node13</title>
<path fill="none" stroke="midnightblue" d="M288.74,-229.98C340.29,-219.33 428.47,-201.11 484.27,-189.58"/>
<polygon fill="midnightblue" stroke="midnightblue" points="485.21,-192.96 494.29,-187.51 483.79,-186.1 485.21,-192.96"/>
</g>
<!-- Node22&#45;&gt;Node15 -->
<g id="edge24" class="edge">
<title>Node22&#45;&gt;Node15</title>
<path fill="none" stroke="midnightblue" d="M268.4,-229.98C293.23,-219.86 334.82,-202.9 363.18,-191.35"/>
<polygon fill="midnightblue" stroke="midnightblue" points="364.66,-194.52 372.6,-187.51 362.02,-188.04 364.66,-194.52"/>
</g>
<!-- Node28&#45;&gt;Node20 -->
<g id="edge29" class="edge">
<title>Node28&#45;&gt;Node20</title>
<path fill="none" stroke="midnightblue" d="M714.43,-352.98C692.01,-342.95 654.58,-326.2 628.77,-314.65"/>
<polygon fill="midnightblue" stroke="midnightblue" points="630.06,-311.4 619.5,-310.51 627.2,-317.79 630.06,-311.4"/>
</g>
<!-- Node28&#45;&gt;Node21 -->
<g id="edge30" class="edge">
<title>Node28&#45;&gt;Node21</title>
<path fill="none" stroke="midnightblue" d="M734.27,-352.8C736.04,-333.35 740.35,-285.99 742.76,-259.4"/>
<polygon fill="midnightblue" stroke="midnightblue" points="746.28,-259.4 743.7,-249.12 739.31,-258.77 746.28,-259.4"/>
</g>
<!-- Node29 -->
<g id="node21" class="node">
<title>Node29</title>
<g id="a_node21"><a xlink:href="../../de/df0/utilities_8h.html" target="_top" xlink:title="Various templated functions that carry out common vector operations (see Templated Utility Functions)...">
<polygon fill="white" stroke="red" points="759.98,-112.5 759.98,-131.5 874.98,-131.5 874.98,-112.5 759.98,-112.5"/>
<text text-anchor="middle" x="817.48" y="-119.5" font-family="Helvetica,sans-Serif" font-size="10.00">cantera/base/utilities.h</text>
</a>
</g>
</g>
<!-- Node28&#45;&gt;Node29 -->
<g id="edge31" class="edge">
<title>Node28&#45;&gt;Node29</title>
<path fill="none" stroke="midnightblue" d="M741.24,-352.96C762.31,-329.09 820.4,-258.82 840.48,-188 845.16,-171.5 837.4,-153.12 829.66,-140.12"/>
<polygon fill="midnightblue" stroke="midnightblue" points="832.58,-138.2 824.2,-131.72 826.71,-142.01 832.58,-138.2"/>
</g>
<!-- Node29&#45;&gt;Node4 -->
<g id="edge32" class="edge">
<title>Node29&#45;&gt;Node4</title>
<path fill="none" stroke="midnightblue" d="M785.79,-112.44C751.41,-103.16 696.4,-88.31 658.69,-78.13"/>
<polygon fill="midnightblue" stroke="midnightblue" points="659.59,-74.74 649.02,-75.52 657.77,-81.5 659.59,-74.74"/>
</g>
<!-- Node31&#45;&gt;Node2 -->
<g id="edge37" class="edge">
<title>Node31&#45;&gt;Node2</title>
<path fill="none" stroke="midnightblue" d="M633.15,-526.44C579.28,-516.9 492.17,-501.48 434.62,-491.29"/>
<polygon fill="midnightblue" stroke="midnightblue" points="435.04,-487.81 424.58,-489.52 433.82,-494.71 435.04,-487.81"/>
</g>
<!-- Node31&#45;&gt;Node3 -->
<g id="edge36" class="edge">
<title>Node31&#45;&gt;Node3</title>
<path fill="none" stroke="midnightblue" d="M675.12,-526.37C661.7,-508.14 630.25,-465.43 612.76,-441.68"/>
<polygon fill="midnightblue" stroke="midnightblue" points="615.56,-439.57 606.81,-433.59 609.92,-443.72 615.56,-439.57"/>
</g>
<!-- Node31&#45;&gt;Node15 -->
<g id="edge42" class="edge">
<title>Node31&#45;&gt;Node15</title>
<path fill="none" stroke="midnightblue" d="M661.22,-526.46C628.41,-511.78 563.23,-478.94 522.48,-434 454.74,-359.31 413.25,-242.49 399.03,-197.51"/>
<polygon fill="midnightblue" stroke="midnightblue" points="402.36,-196.44 396.07,-187.91 395.67,-198.5 402.36,-196.44"/>
</g>
<!-- Node31&#45;&gt;Node28 -->
<g id="edge38" class="edge">
<title>Node31&#45;&gt;Node28</title>
<path fill="none" stroke="midnightblue" d="M684.13,-526.26C692.23,-499.54 716.8,-418.52 727.91,-381.86"/>
<polygon fill="midnightblue" stroke="midnightblue" points="731.35,-382.6 730.9,-372.02 724.65,-380.57 731.35,-382.6"/>
</g>
<!-- Node32 -->
<g id="node23" class="node">
<title>Node32</title>
<g id="a_node23"><a xlink:href="../../df/de6/reaction__defs_8h.html" target="_top" xlink:title="This file defines some constants used to specify reaction types.">
<polygon fill="white" stroke="black" points="841.98,-347.5 841.98,-377.5 964.98,-377.5 964.98,-347.5 841.98,-347.5"/>
<text text-anchor="start" x="849.98" y="-365.5" font-family="Helvetica,sans-Serif" font-size="10.00">cantera/kinetics/reaction</text>
<text text-anchor="middle" x="903.48" y="-354.5" font-family="Helvetica,sans-Serif" font-size="10.00">_defs.h</text>
</a>
</g>
</g>
<!-- Node31&#45;&gt;Node32 -->
<g id="edge34" class="edge">
<title>Node31&#45;&gt;Node32</title>
<path fill="none" stroke="midnightblue" d="M742.62,-526.45C770.73,-520.08 803.15,-509.05 827.48,-490 861.97,-462.99 884.3,-415.62 895.32,-387.14"/>
<polygon fill="midnightblue" stroke="midnightblue" points="898.67,-388.17 898.87,-377.58 892.11,-385.74 898.67,-388.17"/>
</g>
<!-- Node33 -->
<g id="node24" class="node">
<title>Node33</title>
<g id="a_node24"><a xlink:href="../../df/dd0/Array_8h.html" target="_top" xlink:title="Header file for class Cantera::Array2D.">
<polygon fill="white" stroke="black" points="882.48,-470.5 882.48,-489.5 988.48,-489.5 988.48,-470.5 882.48,-470.5"/>
<text text-anchor="middle" x="935.48" y="-477.5" font-family="Helvetica,sans-Serif" font-size="10.00">cantera/base/Array.h</text>
</a>
</g>
</g>
<!-- Node31&#45;&gt;Node33 -->
<g id="edge39" class="edge">
<title>Node31&#45;&gt;Node33</title>
<path fill="none" stroke="midnightblue" d="M721.73,-526.44C766.13,-517 837.63,-501.8 885.57,-491.61"/>
<polygon fill="midnightblue" stroke="midnightblue" points="886.37,-495.02 895.42,-489.52 884.91,-488.17 886.37,-495.02"/>
</g>
<!-- Node35 -->
<g id="node26" class="node">
<title>Node35</title>
<g id="a_node26"><a xlink:href="../../d2/d49/global_8h.html" target="_top" xlink:title="This file contains definitions for utility functions and text for modules, inputfiles,...">
<polygon fill="white" stroke="black" points="721.48,-168.5 721.48,-187.5 831.48,-187.5 831.48,-168.5 721.48,-168.5"/>
<text text-anchor="middle" x="776.48" y="-175.5" font-family="Helvetica,sans-Serif" font-size="10.00">cantera/base/global.h</text>
</a>
</g>
</g>
<!-- Node31&#45;&gt;Node35 -->
<g id="edge43" class="edge">
<title>Node31&#45;&gt;Node35</title>
<path fill="none" stroke="midnightblue" d="M688.35,-526.42C706.14,-503.73 753.89,-439.62 776.48,-378 800.28,-313.09 814.07,-291.36 798.48,-224 796.25,-214.36 791.66,-204.41 787.24,-196.31"/>
<polygon fill="midnightblue" stroke="midnightblue" points="790.18,-194.4 782.12,-187.52 784.13,-197.92 790.18,-194.4"/>
</g>
<!-- Node32&#45;&gt;Node4 -->
<g id="edge35" class="edge">
<title>Node32&#45;&gt;Node4</title>
<path fill="none" stroke="midnightblue" d="M903.48,-347.34C903.48,-324.75 903.48,-279.15 903.48,-240.5 903.48,-240.5 903.48,-240.5 903.48,-177 903.48,-146.9 906.98,-132 884.48,-112 855.83,-86.53 755.28,-75.25 686.09,-70.41"/>
<polygon fill="midnightblue" stroke="midnightblue" points="685.91,-66.89 675.7,-69.72 685.44,-73.88 685.91,-66.89"/>
</g>
<!-- Node33&#45;&gt;Node4 -->
<g id="edge40" class="edge">
<title>Node33&#45;&gt;Node4</title>
<path fill="none" stroke="midnightblue" d="M944.01,-470.4C952.09,-461.83 964.06,-447.96 971.48,-434 986.89,-405.02 993.48,-396.32 993.48,-363.5 993.48,-363.5 993.48,-363.5 993.48,-177 993.48,-128.38 950.35,-130.74 905.48,-112 834.3,-82.27 745.78,-71.99 685.8,-68.54"/>
<polygon fill="midnightblue" stroke="midnightblue" points="685.86,-65.04 675.69,-68.01 685.49,-72.03 685.86,-65.04"/>
</g>
<!-- Node34 -->
<g id="node25" class="node">
<title>Node34</title>
<g id="a_node25"><a xlink:title=" ">
<polygon fill="white" stroke="#bfbfbf" points="908.48,-414.5 908.48,-433.5 962.48,-433.5 962.48,-414.5 908.48,-414.5"/>
<text text-anchor="middle" x="935.48" y="-421.5" font-family="Helvetica,sans-Serif" font-size="10.00">iostream</text>
</a>
</g>
</g>
<!-- Node33&#45;&gt;Node34 -->
<g id="edge41" class="edge">
<title>Node33&#45;&gt;Node34</title>
<path fill="none" stroke="midnightblue" d="M935.48,-470.08C935.48,-463.01 935.48,-452.86 935.48,-443.99"/>
<polygon fill="midnightblue" stroke="midnightblue" points="938.98,-443.75 935.48,-433.75 931.98,-443.75 938.98,-443.75"/>
</g>
<!-- Node35&#45;&gt;Node4 -->
<g id="edge44" class="edge">
<title>Node35&#45;&gt;Node4</title>
<path fill="none" stroke="midnightblue" d="M768.67,-168.15C756.55,-154.77 732.04,-129.15 707.48,-112 688.99,-99.09 666.26,-87.76 648.27,-79.69"/>
<polygon fill="midnightblue" stroke="midnightblue" points="649.39,-76.36 638.82,-75.56 646.58,-82.77 649.39,-76.36"/>
</g>
<!-- Node35&#45;&gt;Node16 -->
<g id="edge45" class="edge">
<title>Node35&#45;&gt;Node16</title>
<path fill="none" stroke="midnightblue" d="M739.09,-168.44C698.09,-159.06 632.23,-143.99 587.7,-133.8"/>
<polygon fill="midnightblue" stroke="midnightblue" points="588.23,-130.34 577.7,-131.52 586.67,-137.16 588.23,-130.34"/>
</g>
<!-- Node36&#45;&gt;Node13 -->
<g id="edge59" class="edge">
<title>Node36&#45;&gt;Node13</title>
<path fill="none" stroke="midnightblue" d="M285.88,-414.2C307.68,-384.66 381.92,-287.37 459.48,-224 474.62,-211.63 493.54,-200.41 508.71,-192.28"/>
<polygon fill="midnightblue" stroke="midnightblue" points="510.37,-195.36 517.61,-187.62 507.13,-189.16 510.37,-195.36"/>
</g>
<!-- Node36&#45;&gt;Node22 -->
<g id="edge60" class="edge">
<title>Node36&#45;&gt;Node22</title>
<path fill="none" stroke="midnightblue" d="M280.59,-414.46C283.06,-393.14 287.88,-336.1 275.48,-291 272.21,-279.11 265.62,-266.99 259.65,-257.6"/>
<polygon fill="midnightblue" stroke="midnightblue" points="262.52,-255.59 254.04,-249.24 256.71,-259.49 262.52,-255.59"/>
</g>
<!-- Node37 -->
<g id="node28" class="node">
<title>Node37</title>
<g id="a_node28"><a xlink:href="../../da/d84/Phase_8h.html" target="_top" xlink:title="Header file for class Phase.">
<polygon fill="white" stroke="black" points="74.98,-230 74.98,-249 127.98,-249 127.98,-230 74.98,-230"/>
<text text-anchor="middle" x="101.48" y="-237" font-family="Helvetica,sans-Serif" font-size="10.00">Phase.h</text>
</a>
</g>
</g>
<!-- Node36&#45;&gt;Node37 -->
<g id="edge47" class="edge">
<title>Node36&#45;&gt;Node37</title>
<path fill="none" stroke="midnightblue" d="M207.82,-414.48C182.64,-408.14 156.03,-397.12 137.48,-378 105.93,-345.47 101.12,-288.87 100.92,-259.46"/>
<polygon fill="midnightblue" stroke="midnightblue" points="104.42,-259.34 101.03,-249.3 97.42,-259.26 104.42,-259.34"/>
</g>
<!-- Node41 -->
<g id="node32" class="node">
<title>Node41</title>
<g id="a_node32"><a xlink:href="../../d6/d7a/MultiSpeciesThermo_8h.html" target="_top" xlink:title="Header for a general species thermodynamic property manager for a phase (see MultiSpeciesThermo).">
<polygon fill="white" stroke="black" points="146.48,-353 146.48,-372 260.48,-372 260.48,-353 146.48,-353"/>
<text text-anchor="middle" x="203.48" y="-360" font-family="Helvetica,sans-Serif" font-size="10.00">MultiSpeciesThermo.h</text>
</a>
</g>
</g>
<!-- Node36&#45;&gt;Node41 -->
<g id="edge54" class="edge">
<title>Node36&#45;&gt;Node41</title>
<path fill="none" stroke="midnightblue" d="M268.59,-414.48C256.51,-405.02 236.81,-389.6 222.24,-378.19"/>
<polygon fill="midnightblue" stroke="midnightblue" points="224.38,-375.42 214.35,-372.01 220.07,-380.93 224.38,-375.42"/>
</g>
<!-- Node37&#45;&gt;Node15 -->
<g id="edge48" class="edge">
<title>Node37&#45;&gt;Node15</title>
<path fill="none" stroke="midnightblue" d="M125.51,-229.91C131.94,-227.8 138.93,-225.66 145.48,-224 204.8,-208.92 273.33,-196.89 323.29,-189.07"/>
<polygon fill="midnightblue" stroke="midnightblue" points="324,-192.5 333.35,-187.52 322.93,-185.59 324,-192.5"/>
</g>
<!-- Node38 -->
<g id="node29" class="node">
<title>Node38</title>
<g id="a_node29"><a xlink:href="../../d9/dda/Elements_8h.html" target="_top" xlink:title="Contains the getElementWeight function and the definitions of element constraint types.">
<polygon fill="white" stroke="black" points="28.48,-112.5 28.48,-131.5 162.48,-131.5 162.48,-112.5 28.48,-112.5"/>
<text text-anchor="middle" x="95.48" y="-119.5" font-family="Helvetica,sans-Serif" font-size="10.00">cantera/thermo/Elements.h</text>
</a>
</g>
</g>
<!-- Node37&#45;&gt;Node38 -->
<g id="edge49" class="edge">
<title>Node37&#45;&gt;Node38</title>
<path fill="none" stroke="midnightblue" d="M101.03,-229.82C100.07,-211.26 97.78,-167.34 96.47,-141.97"/>
<polygon fill="midnightblue" stroke="midnightblue" points="99.95,-141.59 95.94,-131.78 92.96,-141.95 99.95,-141.59"/>
</g>
<!-- Node39 -->
<g id="node30" class="node">
<title>Node39</title>
<g id="a_node30"><a xlink:href="../../d6/df6/ValueCache_8h.html" target="_top" xlink:title=" ">
<polygon fill="white" stroke="black" points="167.98,-168.5 167.98,-187.5 304.98,-187.5 304.98,-168.5 167.98,-168.5"/>
<text text-anchor="middle" x="236.48" y="-175.5" font-family="Helvetica,sans-Serif" font-size="10.00">cantera/base/ValueCache.h</text>
</a>
</g>
</g>
<!-- Node37&#45;&gt;Node39 -->
<g id="edge51" class="edge">
<title>Node37&#45;&gt;Node39</title>
<path fill="none" stroke="midnightblue" d="M120.82,-229.98C143.58,-219.95 181.57,-203.2 207.77,-191.65"/>
<polygon fill="midnightblue" stroke="midnightblue" points="209.44,-194.74 217.17,-187.51 206.61,-188.34 209.44,-194.74"/>
</g>
<!-- Node38&#45;&gt;Node4 -->
<g id="edge50" class="edge">
<title>Node38&#45;&gt;Node4</title>
<path fill="none" stroke="midnightblue" d="M162.66,-113.49C167.34,-112.98 171.98,-112.48 176.48,-112 308.43,-97.94 462.69,-82.4 549.35,-73.76"/>
<polygon fill="midnightblue" stroke="midnightblue" points="549.72,-77.24 559.32,-72.77 549.02,-70.28 549.72,-77.24"/>
</g>
<!-- Node39&#45;&gt;Node4 -->
<g id="edge52" class="edge">
<title>Node39&#45;&gt;Node4</title>
<path fill="none" stroke="midnightblue" d="M266.06,-168.46C334.08,-148.82 501.62,-100.45 578.18,-78.35"/>
<polygon fill="midnightblue" stroke="midnightblue" points="579.28,-81.67 587.92,-75.53 577.34,-74.95 579.28,-81.67"/>
</g>
<!-- Node40 -->
<g id="node31" class="node">
<title>Node40</title>
<g id="a_node31"><a xlink:title=" ">
<polygon fill="white" stroke="#bfbfbf" points="218.48,-112.5 218.48,-131.5 258.48,-131.5 258.48,-112.5 218.48,-112.5"/>
<text text-anchor="middle" x="238.48" y="-119.5" font-family="Helvetica,sans-Serif" font-size="10.00">limits</text>
</a>
</g>
</g>
<!-- Node39&#45;&gt;Node40 -->
<g id="edge53" class="edge">
<title>Node39&#45;&gt;Node40</title>
<path fill="none" stroke="midnightblue" d="M236.81,-168.08C237.07,-161.01 237.45,-150.86 237.78,-141.99"/>
<polygon fill="midnightblue" stroke="midnightblue" points="241.28,-141.87 238.16,-131.75 234.29,-141.61 241.28,-141.87"/>
</g>
<!-- Node42 -->
<g id="node33" class="node">
<title>Node42</title>
<g id="a_node33"><a xlink:href="../../d4/d87/SpeciesThermoInterpType_8h.html" target="_top" xlink:title="Pure Virtual Base class for individual species reference state thermodynamic managers and text for th...">
<polygon fill="white" stroke="black" points="127.98,-291.5 127.98,-310.5 266.98,-310.5 266.98,-291.5 127.98,-291.5"/>
<text text-anchor="middle" x="197.48" y="-298.5" font-family="Helvetica,sans-Serif" font-size="10.00">SpeciesThermoInterpType.h</text>
</a>
</g>
</g>
<!-- Node41&#45;&gt;Node42 -->
<g id="edge55" class="edge">
<title>Node41&#45;&gt;Node42</title>
<path fill="none" stroke="midnightblue" d="M202.62,-352.98C201.77,-344.58 200.45,-331.48 199.36,-320.66"/>
<polygon fill="midnightblue" stroke="midnightblue" points="202.82,-320.11 198.34,-310.51 195.86,-320.81 202.82,-320.11"/>
</g>
<!-- Node42&#45;&gt;Node4 -->
<g id="edge56" class="edge">
<title>Node42&#45;&gt;Node4</title>
<path fill="none" stroke="midnightblue" d="M138.64,-291.49C113.38,-285.16 85.2,-274.14 65.48,-255 17.59,-208.49 -25.92,-160.95 19.48,-112 54.85,-73.87 399.37,-67.85 548.85,-67.04"/>
<polygon fill="midnightblue" stroke="midnightblue" points="549.29,-70.54 559.27,-66.99 549.26,-63.54 549.29,-70.54"/>
</g>
<!-- Node42&#45;&gt;Node15 -->
<g id="edge57" class="edge">
<title>Node42&#45;&gt;Node15</title>
<path fill="none" stroke="midnightblue" d="M191.09,-291.45C180.55,-276.21 162.19,-244.06 178.48,-224 187.81,-212.51 264.92,-198.4 324.15,-189.08"/>
<polygon fill="midnightblue" stroke="midnightblue" points="324.89,-192.51 334.23,-187.51 323.81,-185.59 324.89,-192.51"/>
</g>
<!-- Node42&#45;&gt;Node22 -->
<g id="edge58" class="edge">
<title>Node42&#45;&gt;Node22</title>
<path fill="none" stroke="midnightblue" d="M204.64,-291.48C212.22,-282.46 224.35,-268.02 233.77,-256.81"/>
<polygon fill="midnightblue" stroke="midnightblue" points="236.58,-258.92 240.33,-249.01 231.22,-254.41 236.58,-258.92"/>
</g>
</g>
</svg>
        <g id="navigator" transform="translate(0 0)" fill="#404254">
                <rect fill="#f2f5e9" fill-opacity="0.5" stroke="#606060" stroke-width=".5" x="0" y="0" width="60" height="60"/>
                <use id="zoomplus" xlink:href="#zoomPlus" x="17" y="9" onmousedown="handleZoom(evt,'in')"/>
                <use id="zoomminus" xlink:href="#zoomMin" x="42" y="9" onmousedown="handleZoom(evt,'out')"/>
                <use id="reset" xlink:href="#resetDef" x="30" y="36" onmousedown="handleReset()"/>
                <g id="arrowUp" xlink:href="#dirArrow" transform="translate(30 24)" onmousedown="handlePan(0,-1)">
                  <use xlink:href="#rim" fill="#404040">
                        <set attributeName="fill" to="#808080" begin="arrowUp.mouseover" end="arrowUp.mouseout"/>
                  </use>
                  <path fill="none" stroke="white" stroke-width="1.5" d="M0,-3.0v7 M-2.5,-0.5L0,-3.0L2.5,-0.5"/>
                </g>
                <g id="arrowRight" xlink:href="#dirArrow" transform="rotate(90) translate(36 -43)" onmousedown="handlePan(1,0)">
                  <use xlink:href="#rim" fill="#404040">
                        <set attributeName="fill" to="#808080" begin="arrowRight.mouseover" end="arrowRight.mouseout"/>
                  </use>
                  <path fill="none" stroke="white" stroke-width="1.5" d="M0,-3.0v7 M-2.5,-0.5L0,-3.0L2.5,-0.5"/>
                </g>
                <g id="arrowDown" xlink:href="#dirArrow" transform="rotate(180) translate(-30 -48)" onmousedown="handlePan(0,1)">
                  <use xlink:href="#rim" fill="#404040">
                        <set attributeName="fill" to="#808080" begin="arrowDown.mouseover" end="arrowDown.mouseout"/>
                  </use>
                  <path fill="none" stroke="white" stroke-width="1.5" d="M0,-3.0v7 M-2.5,-0.5L0,-3.0L2.5,-0.5"/>
                </g>
                <g id="arrowLeft" xlink:href="#dirArrow" transform="rotate(270) translate(-36 17)" onmousedown="handlePan(-1,0)">
                  <use xlink:href="#rim" fill="#404040">
                        <set attributeName="fill" to="#808080" begin="arrowLeft.mouseover" end="arrowLeft.mouseout"/>
                  </use>
                  <path fill="none" stroke="white" stroke-width="1.5" d="M0,-3.0v7 M-2.5,-0.5L0,-3.0L2.5,-0.5"/>
                </g>
        </g>
        <svg viewBox="0 0 15 15" width="100%" height="30px" preserveAspectRatio="xMaxYMin meet">
         <g id="arrow_out" transform="scale(0.3 0.3)">
          <a xlink:href="PlogRate_8cpp__incl_org.svg" target="_base">
           <rect id="button" ry="5" rx="5" y="6" x="6" height="38" width="38"
                fill="#f2f5e9" fill-opacity="0.5" stroke="#606060" stroke-width="1.0"/>
           <path id="arrow"
             d="M 11.500037,31.436501 C 11.940474,20.09759 22.043105,11.32322 32.158766,21.979434 L 37.068811,17.246167 C 37.068811,17.246167 37.088388,32 37.088388,32 L 22.160133,31.978069 C 22.160133,31.978069 26.997745,27.140456 26.997745,27.140456 C 18.528582,18.264221 13.291696,25.230495 11.500037,31.436501 z"
             style="fill:#404040;"/>
          </a>
         </g>
        </svg>
</svg>
