<?xml version="1.0" encoding="UTF-8" standalone="no"?>
<!DOCTYPE svg PUBLIC "-//W3C//DTD SVG 1.1//EN"
 "http://www.w3.org/Graphics/SVG/1.1/DTD/svg11.dtd">
<!-- Generated by graphviz version 6.0.1 (0)
 -->
<!-- Title: MultiRateBase.h Pages: 1 -->
<svg width="2846pt" height="412pt"
 viewBox="0.00 0.00 2846.03 412.00" xmlns="http://www.w3.org/2000/svg" xmlns:xlink="http://www.w3.org/1999/xlink">
<g id="graph0" class="graph" transform="scale(1 1) rotate(0) translate(4 408)">
<title>MultiRateBase.h</title>
<!-- Node1 -->
<g id="node1" class="node">
<title>Node1</title>
<g id="a_node1"><a xlink:title=" ">
<polygon fill="#999999" stroke="#666666" points="1375.03,-404 1286.03,-404 1286.03,-385 1375.03,-385 1375.03,-404"/>
<text text-anchor="middle" x="1330.53" y="-392" font-family="Helvetica,sans-Serif" font-size="10.00">MultiRateBase.h</text>
</a>
</g>
</g>
<!-- Node2 -->
<g id="node2" class="node">
<title>Node2</title>
<g id="a_node2"><a xlink:href="../../d6/d42/MultiRate_8h.html" target="_top" xlink:title=" ">
<polygon fill="white" stroke="#666666" points="1254.03,-294 1187.03,-294 1187.03,-275 1254.03,-275 1254.03,-294"/>
<text text-anchor="middle" x="1220.53" y="-282" font-family="Helvetica,sans-Serif" font-size="10.00">MultiRate.h</text>
</a>
</g>
</g>
<!-- Node1&#45;&gt;Node2 -->
<g id="edge1" class="edge">
<title>Node1&#45;&gt;Node2</title>
<path fill="none" stroke="#63b8ff" d="M1314.34,-377.61C1290.77,-354.47 1247.81,-312.29 1229.34,-294.16"/>
<polygon fill="#63b8ff" stroke="#63b8ff" points="1311.94,-380.15 1321.52,-384.66 1316.84,-375.16 1311.94,-380.15"/>
</g>
<!-- Node44 -->
<g id="node43" class="node">
<title>Node44</title>
<g id="a_node43"><a xlink:href="../../d8/db0/ReactionRate_8h.html" target="_top" xlink:title=" ">
<polygon fill="white" stroke="#666666" points="1423.03,-349 1338.03,-349 1338.03,-330 1423.03,-330 1423.03,-349"/>
<text text-anchor="middle" x="1380.53" y="-337" font-family="Helvetica,sans-Serif" font-size="10.00">ReactionRate.h</text>
</a>
</g>
</g>
<!-- Node1&#45;&gt;Node44 -->
<g id="edge60" class="edge">
<title>Node1&#45;&gt;Node44</title>
<path fill="none" stroke="#63b8ff" d="M1345.87,-377.24C1354.63,-367.95 1365.26,-356.68 1372.42,-349.09"/>
<polygon fill="#63b8ff" stroke="#63b8ff" points="1343.1,-375.07 1338.78,-384.75 1348.19,-379.88 1343.1,-375.07"/>
</g>
<!-- Node3 -->
<g id="node3" class="node">
<title>Node3</title>
<g id="a_node3"><a xlink:href="../../d6/dd6/Arrhenius_8h.html" target="_top" xlink:title="Header for reaction rates that involve Arrhenius&#45;type kinetics.">
<polygon fill="white" stroke="#666666" points="1633.53,-239 1567.53,-239 1567.53,-220 1633.53,-220 1633.53,-239"/>
<text text-anchor="middle" x="1600.53" y="-227" font-family="Helvetica,sans-Serif" font-size="10.00">Arrhenius.h</text>
</a>
</g>
</g>
<!-- Node2&#45;&gt;Node3 -->
<g id="edge2" class="edge">
<title>Node2&#45;&gt;Node3</title>
<path fill="none" stroke="#63b8ff" d="M1264.56,-277.36C1341.54,-266.62 1498.91,-244.67 1567.42,-235.12"/>
<polygon fill="#63b8ff" stroke="#63b8ff" points="1263.67,-273.95 1254.25,-278.8 1264.64,-280.88 1263.67,-273.95"/>
</g>
<!-- Node7 -->
<g id="node7" class="node">
<title>Node7</title>
<g id="a_node7"><a xlink:href="../../df/d45/InterfaceRate_8h.html" target="_top" xlink:title="Header for reaction rates that occur at interfaces.">
<polygon fill="white" stroke="#666666" points="1808.53,-129 1724.53,-129 1724.53,-110 1808.53,-110 1808.53,-129"/>
<text text-anchor="middle" x="1766.53" y="-117" font-family="Helvetica,sans-Serif" font-size="10.00">InterfaceRate.h</text>
</a>
</g>
</g>
<!-- Node2&#45;&gt;Node7 -->
<g id="edge59" class="edge">
<title>Node2&#45;&gt;Node7</title>
<path fill="none" stroke="#63b8ff" d="M1264.86,-280.58C1411.52,-270.46 1874,-234.72 1915.53,-184 1920.87,-177.47 1920.57,-171.77 1915.53,-165 1902.66,-147.73 1847.99,-134.71 1808.6,-127.34"/>
<polygon fill="#63b8ff" stroke="#63b8ff" points="1264.2,-277.12 1254.46,-281.29 1264.67,-284.1 1264.2,-277.12"/>
</g>
<!-- Node10 -->
<g id="node10" class="node">
<title>Node10</title>
<g id="a_node10"><a xlink:href="../../de/d8f/Custom_8h.html" target="_top" xlink:title=" ">
<polygon fill="white" stroke="#666666" points="1145.03,-184 1086.03,-184 1086.03,-165 1145.03,-165 1145.03,-184"/>
<text text-anchor="middle" x="1115.53" y="-172" font-family="Helvetica,sans-Serif" font-size="10.00">Custom.h</text>
</a>
</g>
</g>
<!-- Node2&#45;&gt;Node10 -->
<g id="edge34" class="edge">
<title>Node2&#45;&gt;Node10</title>
<path fill="none" stroke="#63b8ff" d="M1204.78,-267.3C1182.22,-244.1 1141.49,-202.21 1123.94,-184.16"/>
<polygon fill="#63b8ff" stroke="#63b8ff" points="1202.45,-269.93 1211.93,-274.66 1207.47,-265.05 1202.45,-269.93"/>
</g>
<!-- Node12 -->
<g id="node12" class="node">
<title>Node12</title>
<g id="a_node12"><a xlink:href="../../de/d72/Falloff_8h_source.html" target="_top" xlink:title=" ">
<polygon fill="white" stroke="#666666" points="1215.53,-184 1163.53,-184 1163.53,-165 1215.53,-165 1215.53,-184"/>
<text text-anchor="middle" x="1189.53" y="-172" font-family="Helvetica,sans-Serif" font-size="10.00">Falloff.h</text>
</a>
</g>
</g>
<!-- Node2&#45;&gt;Node12 -->
<g id="edge35" class="edge">
<title>Node2&#45;&gt;Node12</title>
<path fill="none" stroke="#63b8ff" d="M1215.16,-264.8C1208.38,-241.2 1197.01,-201.58 1192.01,-184.16"/>
<polygon fill="#63b8ff" stroke="#63b8ff" points="1211.87,-266.02 1217.99,-274.66 1218.59,-264.08 1211.87,-266.02"/>
</g>
<!-- Node21 -->
<g id="node21" class="node">
<title>Node21</title>
<g id="a_node21"><a xlink:href="../../d2/d78/BulkKinetics_8h.html" target="_top" xlink:title=" ">
<polygon fill="white" stroke="#666666" points="1067.53,-184 987.53,-184 987.53,-165 1067.53,-165 1067.53,-184"/>
<text text-anchor="middle" x="1027.53" y="-172" font-family="Helvetica,sans-Serif" font-size="10.00">BulkKinetics.h</text>
</a>
</g>
</g>
<!-- Node2&#45;&gt;Node21 -->
<g id="edge26" class="edge">
<title>Node2&#45;&gt;Node21</title>
<path fill="none" stroke="#63b8ff" d="M1196.15,-269.86C1155.77,-247.26 1076.16,-202.71 1042.8,-184.05"/>
<polygon fill="#63b8ff" stroke="#63b8ff" points="1194.62,-273.02 1205.06,-274.84 1198.04,-266.91 1194.62,-273.02"/>
</g>
<!-- Node25 -->
<g id="node25" class="node">
<title>Node25</title>
<g id="a_node25"><a xlink:href="../../d2/d05/ChebyshevRate_8h.html" target="_top" xlink:title=" ">
<polygon fill="white" stroke="#666666" points="1372.03,-239 1277.03,-239 1277.03,-220 1372.03,-220 1372.03,-239"/>
<text text-anchor="middle" x="1324.53" y="-227" font-family="Helvetica,sans-Serif" font-size="10.00">ChebyshevRate.h</text>
</a>
</g>
</g>
<!-- Node2&#45;&gt;Node25 -->
<g id="edge31" class="edge">
<title>Node2&#45;&gt;Node25</title>
<path fill="none" stroke="#63b8ff" d="M1246.3,-270.37C1265.4,-260.63 1290.9,-247.64 1307.51,-239.17"/>
<polygon fill="#63b8ff" stroke="#63b8ff" points="1244.56,-267.33 1237.24,-274.98 1247.73,-273.56 1244.56,-267.33"/>
</g>
<!-- Node27 -->
<g id="node27" class="node">
<title>Node27</title>
<g id="a_node27"><a xlink:href="../../d7/d0d/InterfaceKinetics_8h.html" target="_top" xlink:title=" ">
<polygon fill="white" stroke="#666666" points="705.53,-184 607.53,-184 607.53,-165 705.53,-165 705.53,-184"/>
<text text-anchor="middle" x="656.53" y="-172" font-family="Helvetica,sans-Serif" font-size="10.00">InterfaceKinetics.h</text>
</a>
</g>
</g>
<!-- Node2&#45;&gt;Node27 -->
<g id="edge36" class="edge">
<title>Node2&#45;&gt;Node27</title>
<path fill="none" stroke="#63b8ff" d="M1177.02,-275.17C1072.35,-255.13 807.28,-204.37 701.31,-184.08"/>
<polygon fill="#63b8ff" stroke="#63b8ff" points="1176.45,-278.62 1186.93,-277.07 1177.77,-271.75 1176.45,-278.62"/>
</g>
<!-- Node4 -->
<g id="node4" class="node">
<title>Node4</title>
<g id="a_node4"><a xlink:href="../../d8/d14/Arrhenius_8cpp.html" target="_top" xlink:title=" ">
<polygon fill="white" stroke="#666666" points="1767.03,-184 1690.03,-184 1690.03,-165 1767.03,-165 1767.03,-184"/>
<text text-anchor="middle" x="1728.53" y="-172" font-family="Helvetica,sans-Serif" font-size="10.00">Arrhenius.cpp</text>
</a>
</g>
</g>
<!-- Node3&#45;&gt;Node4 -->
<g id="edge3" class="edge">
<title>Node3&#45;&gt;Node4</title>
<path fill="none" stroke="#63b8ff" d="M1630.64,-216.03C1654.31,-206.23 1686.67,-192.83 1707.59,-184.17"/>
<polygon fill="#63b8ff" stroke="#63b8ff" points="1628.99,-212.93 1621.09,-219.98 1631.67,-219.39 1628.99,-212.93"/>
</g>
<!-- Node5 -->
<g id="node5" class="node">
<title>Node5</title>
<g id="a_node5"><a xlink:href="../../da/dab/BlowersMaselRate_8h.html" target="_top" xlink:title="Header for Blowers&#45;Masel reaction rates.">
<polygon fill="white" stroke="#666666" points="2070.03,-184 1963.03,-184 1963.03,-165 2070.03,-165 2070.03,-184"/>
<text text-anchor="middle" x="2016.53" y="-172" font-family="Helvetica,sans-Serif" font-size="10.00">BlowersMaselRate.h</text>
</a>
</g>
</g>
<!-- Node3&#45;&gt;Node5 -->
<g id="edge4" class="edge">
<title>Node3&#45;&gt;Node5</title>
<path fill="none" stroke="#63b8ff" d="M1644.12,-222.95C1720.78,-213.18 1879.47,-192.96 1962.78,-182.35"/>
<polygon fill="#63b8ff" stroke="#63b8ff" points="1643.34,-219.52 1633.87,-224.25 1644.23,-226.46 1643.34,-219.52"/>
</g>
<!-- Node9 -->
<g id="node9" class="node">
<title>Node9</title>
<g id="a_node9"><a xlink:href="../../de/db2/ReactionRateFactory_8cpp.html" target="_top" xlink:title=" ">
<polygon fill="white" stroke="#666666" points="1479.03,-74 1352.03,-74 1352.03,-55 1479.03,-55 1479.03,-74"/>
<text text-anchor="middle" x="1415.53" y="-62" font-family="Helvetica,sans-Serif" font-size="10.00">ReactionRateFactory.cpp</text>
</a>
</g>
</g>
<!-- Node3&#45;&gt;Node9 -->
<g id="edge22" class="edge">
<title>Node3&#45;&gt;Node9</title>
<path fill="none" stroke="#63b8ff" d="M1582.75,-212.88C1566.98,-199.39 1543.02,-179.8 1520.53,-165 1492.29,-146.42 1477.97,-152.34 1453.53,-129 1436.61,-112.85 1424.54,-87.57 1418.98,-74.3"/>
<polygon fill="#63b8ff" stroke="#63b8ff" points="1580.76,-215.78 1590.61,-219.67 1585.34,-210.48 1580.76,-215.78"/>
</g>
<!-- Node3&#45;&gt;Node10 -->
<g id="edge9" class="edge">
<title>Node3&#45;&gt;Node10</title>
<path fill="none" stroke="#63b8ff" d="M1557.17,-225.84C1477.21,-220.56 1301.27,-207.23 1154.53,-184 1151.51,-183.52 1148.39,-182.96 1145.27,-182.35"/>
<polygon fill="#63b8ff" stroke="#63b8ff" points="1557.14,-229.34 1567.35,-226.5 1557.6,-222.36 1557.14,-229.34"/>
</g>
<!-- Node3&#45;&gt;Node12 -->
<g id="edge12" class="edge">
<title>Node3&#45;&gt;Node12</title>
<path fill="none" stroke="#63b8ff" d="M1557.12,-222.9C1471.83,-211.9 1284.72,-187.78 1215.74,-178.88"/>
<polygon fill="#63b8ff" stroke="#63b8ff" points="1556.87,-226.4 1567.24,-224.21 1557.77,-219.46 1556.87,-226.4"/>
</g>
<!-- Node14 -->
<g id="node14" class="node">
<title>Node14</title>
<g id="a_node14"><a xlink:href="../../d1/d9f/Reaction_8cpp.html" target="_top" xlink:title=" ">
<polygon fill="white" stroke="#666666" points="1630.53,-129 1556.53,-129 1556.53,-110 1630.53,-110 1630.53,-129"/>
<text text-anchor="middle" x="1593.53" y="-117" font-family="Helvetica,sans-Serif" font-size="10.00">Reaction.cpp</text>
</a>
</g>
</g>
<!-- Node3&#45;&gt;Node14 -->
<g id="edge19" class="edge">
<title>Node3&#45;&gt;Node14</title>
<path fill="none" stroke="#63b8ff" d="M1621.37,-213.25C1635.52,-200.89 1650.35,-182.68 1642.53,-165 1635.64,-149.45 1620.34,-137.01 1608.65,-129.27"/>
<polygon fill="#63b8ff" stroke="#63b8ff" points="1618.85,-210.79 1613.29,-219.8 1623.26,-216.22 1618.85,-210.79"/>
</g>
<!-- Node15 -->
<g id="node15" class="node">
<title>Node15</title>
<g id="a_node15"><a xlink:href="../../dd/d3a/PlogRate_8h.html" target="_top" xlink:title=" ">
<polygon fill="white" stroke="#666666" points="1633.03,-184 1568.03,-184 1568.03,-165 1633.03,-165 1633.03,-184"/>
<text text-anchor="middle" x="1600.53" y="-172" font-family="Helvetica,sans-Serif" font-size="10.00">PlogRate.h</text>
</a>
</g>
</g>
<!-- Node3&#45;&gt;Node15 -->
<g id="edge16" class="edge">
<title>Node3&#45;&gt;Node15</title>
<path fill="none" stroke="#63b8ff" d="M1600.53,-209.66C1600.53,-200.93 1600.53,-190.99 1600.53,-184.09"/>
<polygon fill="#63b8ff" stroke="#63b8ff" points="1597.03,-209.75 1600.53,-219.75 1604.03,-209.75 1597.03,-209.75"/>
</g>
<!-- Node17 -->
<g id="node17" class="node">
<title>Node17</title>
<g id="a_node17"><a xlink:href="../../df/da5/ReactionRateDelegator_8h.html" target="_top" xlink:title=" ">
<polygon fill="white" stroke="#666666" points="2214.53,-184 2088.53,-184 2088.53,-165 2214.53,-165 2214.53,-184"/>
<text text-anchor="middle" x="2151.53" y="-172" font-family="Helvetica,sans-Serif" font-size="10.00">ReactionRateDelegator.h</text>
</a>
</g>
</g>
<!-- Node3&#45;&gt;Node17 -->
<g id="edge20" class="edge">
<title>Node3&#45;&gt;Node17</title>
<path fill="none" stroke="#63b8ff" d="M1643.84,-224.84C1727.91,-217.65 1919.03,-200.93 2079.53,-184 2082.4,-183.7 2085.35,-183.38 2088.32,-183.05"/>
<polygon fill="#63b8ff" stroke="#63b8ff" points="1643.32,-221.37 1633.66,-225.71 1643.92,-228.35 1643.32,-221.37"/>
</g>
<!-- Node19 -->
<g id="node19" class="node">
<title>Node19</title>
<g id="a_node19"><a xlink:href="../../d6/d27/TwoTempPlasmaRate_8h.html" target="_top" xlink:title="Header for plasma reaction rates parameterized by two temperatures (gas and electron).">
<polygon fill="white" stroke="#666666" points="1906.03,-184 1785.03,-184 1785.03,-165 1906.03,-165 1906.03,-184"/>
<text text-anchor="middle" x="1845.53" y="-172" font-family="Helvetica,sans-Serif" font-size="10.00">TwoTempPlasmaRate.h</text>
</a>
</g>
</g>
<!-- Node3&#45;&gt;Node19 -->
<g id="edge23" class="edge">
<title>Node3&#45;&gt;Node19</title>
<path fill="none" stroke="#63b8ff" d="M1643.51,-219.2C1689.45,-209.26 1761.63,-193.65 1806.13,-184.02"/>
<polygon fill="#63b8ff" stroke="#63b8ff" points="1642.6,-215.82 1633.57,-221.35 1644.08,-222.66 1642.6,-215.82"/>
</g>
<!-- Node6 -->
<g id="node6" class="node">
<title>Node6</title>
<g id="a_node6"><a xlink:href="../../d4/d81/BlowersMaselRate_8cpp.html" target="_top" xlink:title=" ">
<polygon fill="white" stroke="#666666" points="2094.53,-129 1976.53,-129 1976.53,-110 2094.53,-110 2094.53,-129"/>
<text text-anchor="middle" x="2035.53" y="-117" font-family="Helvetica,sans-Serif" font-size="10.00">BlowersMaselRate.cpp</text>
</a>
</g>
</g>
<!-- Node5&#45;&gt;Node6 -->
<g id="edge5" class="edge">
<title>Node5&#45;&gt;Node6</title>
<path fill="none" stroke="#63b8ff" d="M2023.07,-155.24C2026.25,-146.37 2029.92,-136.14 2032.45,-129.09"/>
<polygon fill="#63b8ff" stroke="#63b8ff" points="2019.74,-154.15 2019.66,-164.75 2026.33,-156.52 2019.74,-154.15"/>
</g>
<!-- Node5&#45;&gt;Node7 -->
<g id="edge6" class="edge">
<title>Node5&#45;&gt;Node7</title>
<path fill="none" stroke="#63b8ff" d="M1966.42,-162.88C1919.57,-152.94 1850.47,-138.3 1807.01,-129.08"/>
<polygon fill="#63b8ff" stroke="#63b8ff" points="1965.85,-166.33 1976.36,-164.98 1967.3,-159.49 1965.85,-166.33"/>
</g>
<!-- Node8 -->
<g id="node8" class="node">
<title>Node8</title>
<g id="a_node8"><a xlink:href="../../d8/dc2/InterfaceRate_8cpp.html" target="_top" xlink:title=" ">
<polygon fill="white" stroke="#666666" points="2162.03,-74 2067.03,-74 2067.03,-55 2162.03,-55 2162.03,-74"/>
<text text-anchor="middle" x="2114.53" y="-62" font-family="Helvetica,sans-Serif" font-size="10.00">InterfaceRate.cpp</text>
</a>
</g>
</g>
<!-- Node7&#45;&gt;Node8 -->
<g id="edge7" class="edge">
<title>Node7&#45;&gt;Node8</title>
<path fill="none" stroke="#63b8ff" d="M1818.79,-109.98C1913,-95.24 2010.29,-80.79 2066.82,-72.48"/>
<polygon fill="#63b8ff" stroke="#63b8ff" points="1818.14,-106.54 1808.8,-111.54 1819.23,-113.45 1818.14,-106.54"/>
</g>
<!-- Node7&#45;&gt;Node9 -->
<g id="edge8" class="edge">
<title>Node7&#45;&gt;Node9</title>
<path fill="none" stroke="#63b8ff" d="M1714.34,-110.58C1713.06,-110.38 1711.78,-110.19 1710.53,-110 1627.56,-97.45 1531.47,-82.96 1472.08,-74.02"/>
<polygon fill="#63b8ff" stroke="#63b8ff" points="1713.92,-114.05 1724.33,-112.09 1714.97,-107.13 1713.92,-114.05"/>
</g>
<!-- Node10&#45;&gt;Node9 -->
<g id="edge11" class="edge">
<title>Node10&#45;&gt;Node9</title>
<path fill="none" stroke="#63b8ff" d="M1108.95,-155.33C1105.15,-141.29 1102.96,-122.24 1113.53,-110 1143.66,-75.1 1272.35,-67.09 1351.69,-65.53"/>
<polygon fill="#63b8ff" stroke="#63b8ff" points="1105.63,-156.43 1111.99,-164.9 1112.3,-154.31 1105.63,-156.43"/>
</g>
<!-- Node11 -->
<g id="node11" class="node">
<title>Node11</title>
<g id="a_node11"><a xlink:href="../../d5/dc4/Custom_8cpp.html" target="_top" xlink:title=" ">
<polygon fill="white" stroke="#666666" points="970.53,-129 900.53,-129 900.53,-110 970.53,-110 970.53,-129"/>
<text text-anchor="middle" x="935.53" y="-117" font-family="Helvetica,sans-Serif" font-size="10.00">Custom.cpp</text>
</a>
</g>
</g>
<!-- Node10&#45;&gt;Node11 -->
<g id="edge10" class="edge">
<title>Node10&#45;&gt;Node11</title>
<path fill="none" stroke="#63b8ff" d="M1076.66,-162.06C1043.02,-152.15 995.11,-138.04 964.67,-129.08"/>
<polygon fill="#63b8ff" stroke="#63b8ff" points="1076.02,-165.52 1086.61,-164.98 1078,-158.8 1076.02,-165.52"/>
</g>
<!-- Node12&#45;&gt;Node9 -->
<g id="edge15" class="edge">
<title>Node12&#45;&gt;Node9</title>
<path fill="none" stroke="#63b8ff" d="M1223.39,-161.36C1245.87,-152.98 1275.84,-141.19 1301.53,-129 1338.57,-111.42 1380.22,-86.95 1401.44,-74.13"/>
<polygon fill="#63b8ff" stroke="#63b8ff" points="1222.12,-158.1 1213.95,-164.84 1224.54,-164.66 1222.12,-158.1"/>
</g>
<!-- Node13 -->
<g id="node13" class="node">
<title>Node13</title>
<g id="a_node13"><a xlink:href="../../d7/d8a/Falloff_8cpp.html" target="_top" xlink:title="Definitions for member functions of classes derived from Falloff.">
<polygon fill="white" stroke="#666666" points="1292.53,-129 1230.53,-129 1230.53,-110 1292.53,-110 1292.53,-129"/>
<text text-anchor="middle" x="1261.53" y="-117" font-family="Helvetica,sans-Serif" font-size="10.00">Falloff.cpp</text>
</a>
</g>
</g>
<!-- Node12&#45;&gt;Node13 -->
<g id="edge13" class="edge">
<title>Node12&#45;&gt;Node13</title>
<path fill="none" stroke="#63b8ff" d="M1209.39,-158.88C1222.35,-149.34 1238.82,-137.21 1249.75,-129.17"/>
<polygon fill="#63b8ff" stroke="#63b8ff" points="1207.07,-156.24 1201.09,-164.98 1211.22,-161.88 1207.07,-156.24"/>
</g>
<!-- Node12&#45;&gt;Node14 -->
<g id="edge14" class="edge">
<title>Node12&#45;&gt;Node14</title>
<path fill="none" stroke="#63b8ff" d="M1226.11,-169.23C1304.4,-160.05 1486.04,-138.49 1547.53,-129 1550.42,-128.55 1553.4,-128.07 1556.4,-127.55"/>
<polygon fill="#63b8ff" stroke="#63b8ff" points="1225.3,-165.8 1215.77,-170.44 1226.11,-172.75 1225.3,-165.8"/>
</g>
<!-- Node15&#45;&gt;Node9 -->
<g id="edge18" class="edge">
<title>Node15&#45;&gt;Node9</title>
<path fill="none" stroke="#63b8ff" d="M1620.82,-158.07C1635.94,-144.7 1651.99,-125.19 1639.53,-110 1619.56,-85.67 1538.22,-74.41 1479.3,-69.36"/>
<polygon fill="#63b8ff" stroke="#63b8ff" points="1618.17,-155.72 1612.7,-164.79 1622.64,-161.11 1618.17,-155.72"/>
</g>
<!-- Node16 -->
<g id="node16" class="node">
<title>Node16</title>
<g id="a_node16"><a xlink:href="../../d8/dcf/PlogRate_8cpp.html" target="_top" xlink:title=" ">
<polygon fill="white" stroke="#666666" points="1538.53,-129 1462.53,-129 1462.53,-110 1538.53,-110 1538.53,-129"/>
<text text-anchor="middle" x="1500.53" y="-117" font-family="Helvetica,sans-Serif" font-size="10.00">PlogRate.cpp</text>
</a>
</g>
</g>
<!-- Node15&#45;&gt;Node16 -->
<g id="edge17" class="edge">
<title>Node15&#45;&gt;Node16</title>
<path fill="none" stroke="#63b8ff" d="M1575.49,-160.23C1557.16,-150.51 1532.79,-137.6 1516.88,-129.17"/>
<polygon fill="#63b8ff" stroke="#63b8ff" points="1573.98,-163.39 1584.46,-164.98 1577.26,-157.21 1573.98,-163.39"/>
</g>
<!-- Node18 -->
<g id="node18" class="node">
<title>Node18</title>
<g id="a_node18"><a xlink:href="../../dd/d06/ReactionRateDelegator_8cpp.html" target="_top" xlink:title=" ">
<polygon fill="white" stroke="#666666" points="2250.03,-129 2113.03,-129 2113.03,-110 2250.03,-110 2250.03,-129"/>
<text text-anchor="middle" x="2181.53" y="-117" font-family="Helvetica,sans-Serif" font-size="10.00">ReactionRateDelegator.cpp</text>
</a>
</g>
</g>
<!-- Node17&#45;&gt;Node18 -->
<g id="edge21" class="edge">
<title>Node17&#45;&gt;Node18</title>
<path fill="none" stroke="#63b8ff" d="M2161.54,-155.82C2166.63,-146.82 2172.59,-136.29 2176.66,-129.09"/>
<polygon fill="#63b8ff" stroke="#63b8ff" points="2158.36,-154.32 2156.48,-164.75 2164.45,-157.77 2158.36,-154.32"/>
</g>
<!-- Node19&#45;&gt;Node9 -->
<g id="edge24" class="edge">
<title>Node19&#45;&gt;Node9</title>
<path fill="none" stroke="#63b8ff" d="M1811.2,-161.74C1760.75,-144.5 1670.88,-113.97 1655.53,-110 1594.39,-94.2 1523.12,-81.72 1474.22,-74.04"/>
<polygon fill="#63b8ff" stroke="#63b8ff" points="1810.14,-165.08 1820.73,-165 1812.4,-158.45 1810.14,-165.08"/>
</g>
<!-- Node20 -->
<g id="node20" class="node">
<title>Node20</title>
<g id="a_node20"><a xlink:href="../../de/d71/TwoTempPlasmaRate_8cpp.html" target="_top" xlink:title=" ">
<polygon fill="white" stroke="#666666" points="1958.03,-129 1827.03,-129 1827.03,-110 1958.03,-110 1958.03,-129"/>
<text text-anchor="middle" x="1892.53" y="-117" font-family="Helvetica,sans-Serif" font-size="10.00">TwoTempPlasmaRate.cpp</text>
</a>
</g>
</g>
<!-- Node19&#45;&gt;Node20 -->
<g id="edge25" class="edge">
<title>Node19&#45;&gt;Node20</title>
<path fill="none" stroke="#63b8ff" d="M1859.95,-157.24C1868.18,-147.95 1878.18,-136.68 1884.91,-129.09"/>
<polygon fill="#63b8ff" stroke="#63b8ff" points="1857.3,-154.94 1853.29,-164.75 1862.54,-159.59 1857.3,-154.94"/>
</g>
<!-- Node22 -->
<g id="node22" class="node">
<title>Node22</title>
<g id="a_node22"><a xlink:href="../../df/d7d/BulkKinetics_8cpp_source.html" target="_top" xlink:title=" ">
<polygon fill="white" stroke="#666666" points="1212.53,-129 1122.53,-129 1122.53,-110 1212.53,-110 1212.53,-129"/>
<text text-anchor="middle" x="1167.53" y="-117" font-family="Helvetica,sans-Serif" font-size="10.00">BulkKinetics.cpp</text>
</a>
</g>
</g>
<!-- Node21&#45;&gt;Node22 -->
<g id="edge27" class="edge">
<title>Node21&#45;&gt;Node22</title>
<path fill="none" stroke="#63b8ff" d="M1059.43,-161.42C1085.41,-151.59 1121.44,-137.95 1144.62,-129.17"/>
<polygon fill="#63b8ff" stroke="#63b8ff" points="1058.13,-158.17 1050.02,-164.98 1060.61,-164.72 1058.13,-158.17"/>
</g>
<!-- Node23 -->
<g id="node23" class="node">
<title>Node23</title>
<g id="a_node23"><a xlink:href="../../db/dac/GasKinetics_8h.html" target="_top" xlink:title=" ">
<polygon fill="white" stroke="#666666" points="1066.53,-129 988.53,-129 988.53,-110 1066.53,-110 1066.53,-129"/>
<text text-anchor="middle" x="1027.53" y="-117" font-family="Helvetica,sans-Serif" font-size="10.00">GasKinetics.h</text>
</a>
</g>
</g>
<!-- Node21&#45;&gt;Node23 -->
<g id="edge28" class="edge">
<title>Node21&#45;&gt;Node23</title>
<path fill="none" stroke="#63b8ff" d="M1027.53,-154.66C1027.53,-145.93 1027.53,-135.99 1027.53,-129.09"/>
<polygon fill="#63b8ff" stroke="#63b8ff" points="1024.03,-154.75 1027.53,-164.75 1031.03,-154.75 1024.03,-154.75"/>
</g>
<!-- Node24 -->
<g id="node24" class="node">
<title>Node24</title>
<g id="a_node24"><a xlink:href="../../d3/df8/KineticsFactory_8cpp.html" target="_top" xlink:title=" ">
<polygon fill="white" stroke="#666666" points="888.53,-74 786.53,-74 786.53,-55 888.53,-55 888.53,-74"/>
<text text-anchor="middle" x="837.53" y="-62" font-family="Helvetica,sans-Serif" font-size="10.00">KineticsFactory.cpp</text>
</a>
</g>
</g>
<!-- Node21&#45;&gt;Node24 -->
<g id="edge30" class="edge">
<title>Node21&#45;&gt;Node24</title>
<path fill="none" stroke="#63b8ff" d="M977.41,-164.07C950.35,-157.33 917.32,-146.31 891.53,-129 869.42,-114.16 851.19,-87.85 842.69,-74.22"/>
<polygon fill="#63b8ff" stroke="#63b8ff" points="976.92,-167.55 987.46,-166.45 978.53,-160.74 976.92,-167.55"/>
</g>
<!-- Node23&#45;&gt;Node24 -->
<g id="edge29" class="edge">
<title>Node23&#45;&gt;Node24</title>
<path fill="none" stroke="#63b8ff" d="M986.96,-107.18C951.42,-97.27 900.56,-83.08 868.29,-74.08"/>
<polygon fill="#63b8ff" stroke="#63b8ff" points="986.43,-110.67 997,-109.98 988.31,-103.93 986.43,-110.67"/>
</g>
<!-- Node25&#45;&gt;Node9 -->
<g id="edge33" class="edge">
<title>Node25&#45;&gt;Node9</title>
<path fill="none" stroke="#63b8ff" d="M1295.84,-215.33C1274.27,-203.48 1250.38,-184.91 1262.53,-165 1280.75,-135.14 1302.96,-147.7 1332.53,-129 1360.28,-111.44 1390.28,-86.97 1405.47,-74.14"/>
<polygon fill="#63b8ff" stroke="#63b8ff" points="1294.33,-218.49 1304.82,-219.98 1297.55,-212.27 1294.33,-218.49"/>
</g>
<!-- Node26 -->
<g id="node26" class="node">
<title>Node26</title>
<g id="a_node26"><a xlink:href="../../df/df5/ChebyshevRate_8cpp.html" target="_top" xlink:title=" ">
<polygon fill="white" stroke="#666666" points="1377.53,-184 1271.53,-184 1271.53,-165 1377.53,-165 1377.53,-184"/>
<text text-anchor="middle" x="1324.53" y="-172" font-family="Helvetica,sans-Serif" font-size="10.00">ChebyshevRate.cpp</text>
</a>
</g>
</g>
<!-- Node25&#45;&gt;Node26 -->
<g id="edge32" class="edge">
<title>Node25&#45;&gt;Node26</title>
<path fill="none" stroke="#63b8ff" d="M1324.53,-209.66C1324.53,-200.93 1324.53,-190.99 1324.53,-184.09"/>
<polygon fill="#63b8ff" stroke="#63b8ff" points="1321.03,-209.75 1324.53,-219.75 1328.03,-209.75 1321.03,-209.75"/>
</g>
<!-- Node27&#45;&gt;Node24 -->
<g id="edge54" class="edge">
<title>Node27&#45;&gt;Node24</title>
<path fill="none" stroke="#63b8ff" d="M676.71,-159.05C695.66,-145.72 724.98,-125.67 751.53,-110 774.4,-96.5 801.8,-82.71 819.42,-74.13"/>
<polygon fill="#63b8ff" stroke="#63b8ff" points="674.68,-156.2 668.54,-164.83 678.73,-161.91 674.68,-156.2"/>
</g>
<!-- Node28 -->
<g id="node28" class="node">
<title>Node28</title>
<g id="a_node28"><a xlink:href="../../dc/d7c/Boundary1D_8h.html" target="_top" xlink:title="Boundary objects for one&#45;dimensional simulations.">
<polygon fill="white" stroke="#666666" points="155.03,-129 76.03,-129 76.03,-110 155.03,-110 155.03,-129"/>
<text text-anchor="middle" x="115.53" y="-117" font-family="Helvetica,sans-Serif" font-size="10.00">Boundary1D.h</text>
</a>
</g>
</g>
<!-- Node27&#45;&gt;Node28 -->
<g id="edge37" class="edge">
<title>Node27&#45;&gt;Node28</title>
<path fill="none" stroke="#63b8ff" d="M597.04,-167.67C485.88,-156.78 249.38,-133.61 155.31,-124.4"/>
<polygon fill="#63b8ff" stroke="#63b8ff" points="596.79,-171.16 607.08,-168.66 597.47,-164.2 596.79,-171.16"/>
</g>
<!-- Node32 -->
<g id="node32" class="node">
<title>Node32</title>
<g id="a_node32"><a xlink:href="../../d9/d4b/EdgeKinetics_8h.html" target="_top" xlink:title=" ">
<polygon fill="white" stroke="#666666" points="844.03,-129 761.03,-129 761.03,-110 844.03,-110 844.03,-129"/>
<text text-anchor="middle" x="802.53" y="-117" font-family="Helvetica,sans-Serif" font-size="10.00">EdgeKinetics.h</text>
</a>
</g>
</g>
<!-- Node27&#45;&gt;Node32 -->
<g id="edge41" class="edge">
<title>Node27&#45;&gt;Node32</title>
<path fill="none" stroke="#63b8ff" d="M689.44,-161.55C716.56,-151.71 754.36,-137.98 778.64,-129.17"/>
<polygon fill="#63b8ff" stroke="#63b8ff" points="688.19,-158.28 679.98,-164.98 690.58,-164.86 688.19,-158.28"/>
</g>
<!-- Node33 -->
<g id="node33" class="node">
<title>Node33</title>
<g id="a_node33"><a xlink:href="../../dd/d8f/FlowReactor_8cpp.html" target="_top" xlink:title="A steady&#45;state, ideal&#45;gas, adiabatic, constant&#45;area (cylindrical), frictionless plug flow reactor.">
<polygon fill="white" stroke="#666666" points="628.53,-129 538.53,-129 538.53,-110 628.53,-110 628.53,-129"/>
<text text-anchor="middle" x="583.53" y="-117" font-family="Helvetica,sans-Serif" font-size="10.00">FlowReactor.cpp</text>
</a>
</g>
</g>
<!-- Node27&#45;&gt;Node33 -->
<g id="edge43" class="edge">
<title>Node27&#45;&gt;Node33</title>
<path fill="none" stroke="#63b8ff" d="M636.38,-158.88C623.25,-149.34 606.54,-137.21 595.47,-129.17"/>
<polygon fill="#63b8ff" stroke="#63b8ff" points="634.65,-161.94 644.8,-164.98 638.76,-156.28 634.65,-161.94"/>
</g>
<!-- Node34 -->
<g id="node34" class="node">
<title>Node34</title>
<g id="a_node34"><a xlink:href="../../da/d1f/ImplicitSurfChem_8h.html" target="_top" xlink:title="Declarations for the implicit integration of surface site density equations (see Kinetics Managers an...">
<polygon fill="white" stroke="#666666" points="662.03,-74 561.03,-74 561.03,-55 662.03,-55 662.03,-74"/>
<text text-anchor="middle" x="611.53" y="-62" font-family="Helvetica,sans-Serif" font-size="10.00">ImplicitSurfChem.h</text>
</a>
</g>
</g>
<!-- Node27&#45;&gt;Node34 -->
<g id="edge44" class="edge">
<title>Node27&#45;&gt;Node34</title>
<path fill="none" stroke="#63b8ff" d="M652.15,-154.66C648.86,-141.8 643.84,-124.53 637.53,-110 631.82,-96.87 623.09,-82.77 617.35,-74.04"/>
<polygon fill="#63b8ff" stroke="#63b8ff" points="648.81,-155.75 654.58,-164.64 655.61,-154.09 648.81,-155.75"/>
</g>
<!-- Node36 -->
<g id="node36" class="node">
<title>Node36</title>
<g id="a_node36"><a xlink:href="../../d3/db3/InterfaceKinetics_8cpp.html" target="_top" xlink:title=" ">
<polygon fill="white" stroke="#666666" points="766.03,-19 657.03,-19 657.03,0 766.03,0 766.03,-19"/>
<text text-anchor="middle" x="711.53" y="-7" font-family="Helvetica,sans-Serif" font-size="10.00">InterfaceKinetics.cpp</text>
</a>
</g>
</g>
<!-- Node27&#45;&gt;Node36 -->
<g id="edge53" class="edge">
<title>Node27&#45;&gt;Node36</title>
<path fill="none" stroke="#63b8ff" d="M662.83,-154.83C674.69,-119.67 699.92,-44.9 708.55,-19.31"/>
<polygon fill="#63b8ff" stroke="#63b8ff" points="659.36,-154.14 659.48,-164.74 666,-156.38 659.36,-154.14"/>
</g>
<!-- Node38 -->
<g id="node38" class="node">
<title>Node38</title>
<g id="a_node38"><a xlink:href="../../d7/d91/Interface_8h.html" target="_top" xlink:title=" ">
<polygon fill="white" stroke="#666666" points="413.03,-129 350.03,-129 350.03,-110 413.03,-110 413.03,-129"/>
<text text-anchor="middle" x="381.53" y="-117" font-family="Helvetica,sans-Serif" font-size="10.00">Interface.h</text>
</a>
</g>
</g>
<!-- Node27&#45;&gt;Node38 -->
<g id="edge48" class="edge">
<title>Node27&#45;&gt;Node38</title>
<path fill="none" stroke="#63b8ff" d="M602.52,-163.09C546.07,-152.21 459.41,-135.51 413.17,-126.6"/>
<polygon fill="#63b8ff" stroke="#63b8ff" points="601.86,-166.53 612.34,-164.98 603.19,-159.66 601.86,-166.53"/>
</g>
<!-- Node43 -->
<g id="node42" class="node">
<title>Node43</title>
<g id="a_node42"><a xlink:href="../../d2/d25/solveSP_8h.html" target="_top" xlink:title="Header file for implicit surface problem solver (see Chemical Kinetics and class solveSP).">
<polygon fill="white" stroke="#666666" points="520.53,-129 460.53,-129 460.53,-110 520.53,-110 520.53,-129"/>
<text text-anchor="middle" x="490.53" y="-117" font-family="Helvetica,sans-Serif" font-size="10.00">solveSP.h</text>
</a>
</g>
</g>
<!-- Node27&#45;&gt;Node43 -->
<g id="edge55" class="edge">
<title>Node27&#45;&gt;Node43</title>
<path fill="none" stroke="#63b8ff" d="M620.28,-161.93C589.28,-152.03 545.36,-138.01 517.41,-129.08"/>
<polygon fill="#63b8ff" stroke="#63b8ff" points="619.26,-165.28 629.85,-164.98 621.39,-158.61 619.26,-165.28"/>
</g>
<!-- Node29 -->
<g id="node29" class="node">
<title>Node29</title>
<g id="a_node29"><a xlink:href="../../de/d16/Boundary1D_8cpp.html" target="_top" xlink:title=" ">
<polygon fill="white" stroke="#666666" points="104.03,-74 15.03,-74 15.03,-55 104.03,-55 104.03,-74"/>
<text text-anchor="middle" x="59.53" y="-62" font-family="Helvetica,sans-Serif" font-size="10.00">Boundary1D.cpp</text>
</a>
</g>
</g>
<!-- Node28&#45;&gt;Node29 -->
<g id="edge38" class="edge">
<title>Node28&#45;&gt;Node29</title>
<path fill="none" stroke="#63b8ff" d="M99.2,-103.04C89.26,-93.64 76.94,-81.98 68.69,-74.17"/>
<polygon fill="#63b8ff" stroke="#63b8ff" points="96.86,-105.65 106.53,-109.98 101.67,-100.57 96.86,-105.65"/>
</g>
<!-- Node30 -->
<g id="node30" class="node">
<title>Node30</title>
<g id="a_node30"><a xlink:href="../../d9/db4/DomainFactory_8cpp.html" target="_top" xlink:title=" ">
<polygon fill="white" stroke="#666666" points="223.03,-74 122.03,-74 122.03,-55 223.03,-55 223.03,-74"/>
<text text-anchor="middle" x="172.53" y="-62" font-family="Helvetica,sans-Serif" font-size="10.00">DomainFactory.cpp</text>
</a>
</g>
</g>
<!-- Node28&#45;&gt;Node30 -->
<g id="edge39" class="edge">
<title>Node28&#45;&gt;Node30</title>
<path fill="none" stroke="#63b8ff" d="M132.15,-103.04C142.26,-93.64 154.8,-81.98 163.2,-74.17"/>
<polygon fill="#63b8ff" stroke="#63b8ff" points="129.62,-100.61 124.68,-109.98 134.39,-105.74 129.62,-100.61"/>
</g>
<!-- Node31 -->
<g id="node31" class="node">
<title>Node31</title>
<g id="a_node31"><a xlink:href="../../d4/d07/onedim_8h.html" target="_top" xlink:title=" ">
<polygon fill="white" stroke="#666666" points="197.53,-19 141.53,-19 141.53,0 197.53,0 197.53,-19"/>
<text text-anchor="middle" x="169.53" y="-7" font-family="Helvetica,sans-Serif" font-size="10.00">onedim.h</text>
</a>
</g>
</g>
<!-- Node28&#45;&gt;Node31 -->
<g id="edge40" class="edge">
<title>Node28&#45;&gt;Node31</title>
<path fill="none" stroke="#63b8ff" d="M65.67,-108.74C27.72,-99 -14.83,-81.61 5.53,-55 21.97,-33.5 99.1,-19.96 141.47,-14.01"/>
<polygon fill="#63b8ff" stroke="#63b8ff" points="65.15,-112.22 75.69,-111.17 66.8,-105.41 65.15,-112.22"/>
</g>
<!-- Node32&#45;&gt;Node24 -->
<g id="edge42" class="edge">
<title>Node32&#45;&gt;Node24</title>
<path fill="none" stroke="#63b8ff" d="M813.83,-101.39C819.85,-92.27 826.99,-81.45 831.85,-74.09"/>
<polygon fill="#63b8ff" stroke="#63b8ff" points="810.9,-99.47 808.31,-109.75 816.74,-103.33 810.9,-99.47"/>
</g>
<!-- Node35 -->
<g id="node35" class="node">
<title>Node35</title>
<g id="a_node35"><a xlink:href="../../d7/d3f/ImplicitSurfChem_8cpp.html" target="_top" xlink:title="Definitions for the implicit integration of surface site density equations (see Kinetics Managers and...">
<polygon fill="white" stroke="#666666" points="550.03,-19 439.03,-19 439.03,0 550.03,0 550.03,-19"/>
<text text-anchor="middle" x="494.53" y="-7" font-family="Helvetica,sans-Serif" font-size="10.00">ImplicitSurfChem.cpp</text>
</a>
</g>
</g>
<!-- Node34&#45;&gt;Node35 -->
<g id="edge45" class="edge">
<title>Node34&#45;&gt;Node35</title>
<path fill="none" stroke="#63b8ff" d="M583.41,-50.77C561.83,-40.99 532.61,-27.75 513.67,-19.17"/>
<polygon fill="#63b8ff" stroke="#63b8ff" points="582.17,-54.05 592.73,-54.98 585.06,-47.67 582.17,-54.05"/>
</g>
<!-- Node34&#45;&gt;Node36 -->
<g id="edge46" class="edge">
<title>Node34&#45;&gt;Node36</title>
<path fill="none" stroke="#63b8ff" d="M636.56,-50.23C654.9,-40.51 679.26,-27.6 695.17,-19.17"/>
<polygon fill="#63b8ff" stroke="#63b8ff" points="634.79,-47.21 627.59,-54.98 638.07,-53.39 634.79,-47.21"/>
</g>
<!-- Node37 -->
<g id="node37" class="node">
<title>Node37</title>
<g id="a_node37"><a xlink:href="../../d3/dc9/solveSP_8cpp_source.html" target="_top" xlink:title=" ">
<polygon fill="white" stroke="#666666" points="639.03,-19 568.03,-19 568.03,0 639.03,0 639.03,-19"/>
<text text-anchor="middle" x="603.53" y="-7" font-family="Helvetica,sans-Serif" font-size="10.00">solveSP.cpp</text>
</a>
</g>
</g>
<!-- Node34&#45;&gt;Node37 -->
<g id="edge47" class="edge">
<title>Node34&#45;&gt;Node37</title>
<path fill="none" stroke="#63b8ff" d="M608.68,-44.66C607.36,-35.93 605.86,-25.99 604.82,-19.09"/>
<polygon fill="#63b8ff" stroke="#63b8ff" points="605.25,-45.38 610.2,-54.75 612.17,-44.34 605.25,-45.38"/>
</g>
<!-- Node39 -->
<g id="node39" class="node">
<title>Node39</title>
<g id="a_node39"><a xlink:href="../../de/dbe/Interface_8cpp.html" target="_top" xlink:title=" ">
<polygon fill="white" stroke="#666666" points="466.53,-74 392.53,-74 392.53,-55 466.53,-55 466.53,-74"/>
<text text-anchor="middle" x="429.53" y="-62" font-family="Helvetica,sans-Serif" font-size="10.00">Interface.cpp</text>
</a>
</g>
</g>
<!-- Node38&#45;&gt;Node39 -->
<g id="edge49" class="edge">
<title>Node38&#45;&gt;Node39</title>
<path fill="none" stroke="#63b8ff" d="M396.25,-102.24C404.67,-92.95 414.87,-81.68 421.75,-74.09"/>
<polygon fill="#63b8ff" stroke="#63b8ff" points="393.57,-99.99 389.45,-109.75 398.76,-104.69 393.57,-99.99"/>
</g>
<!-- Node40 -->
<g id="node40" class="node">
<title>Node40</title>
<g id="a_node40"><a xlink:href="../../df/d48/Solution_8cpp.html" target="_top" xlink:title="Definition file for class Solution.">
<polygon fill="white" stroke="#666666" points="312.03,-74 241.03,-74 241.03,-55 312.03,-55 312.03,-74"/>
<text text-anchor="middle" x="276.53" y="-62" font-family="Helvetica,sans-Serif" font-size="10.00">Solution.cpp</text>
</a>
</g>
</g>
<!-- Node38&#45;&gt;Node40 -->
<g id="edge50" class="edge">
<title>Node38&#45;&gt;Node40</title>
<path fill="none" stroke="#63b8ff" d="M355.51,-105.37C336.22,-95.63 310.48,-82.64 293.7,-74.17"/>
<polygon fill="#63b8ff" stroke="#63b8ff" points="354.15,-108.6 364.66,-109.98 357.31,-102.35 354.15,-108.6"/>
</g>
<!-- Node41 -->
<g id="node41" class="node">
<title>Node41</title>
<g id="a_node41"><a xlink:href="../../d5/dc4/core_8h.html" target="_top" xlink:title="Support for Cantera core calculations from C++ application programs.">
<polygon fill="#fff0f0" stroke="red" points="374.53,-74 330.53,-74 330.53,-55 374.53,-55 374.53,-74"/>
<text text-anchor="middle" x="352.53" y="-62" font-family="Helvetica,sans-Serif" font-size="10.00">core.h</text>
</a>
</g>
</g>
<!-- Node38&#45;&gt;Node41 -->
<g id="edge51" class="edge">
<title>Node38&#45;&gt;Node41</title>
<path fill="none" stroke="#63b8ff" d="M371.85,-100.82C366.93,-91.82 361.17,-81.29 357.23,-74.09"/>
<polygon fill="#63b8ff" stroke="#63b8ff" points="368.87,-102.66 376.74,-109.75 375.01,-99.3 368.87,-102.66"/>
</g>
<!-- Node41&#45;&gt;Node31 -->
<g id="edge52" class="edge">
<title>Node41&#45;&gt;Node31</title>
<path fill="none" stroke="#63b8ff" d="M320.81,-54.31C286.08,-44.25 230.91,-28.28 197.67,-18.65"/>
<polygon fill="#63b8ff" stroke="#63b8ff" points="319.87,-57.69 330.45,-57.11 321.82,-50.96 319.87,-57.69"/>
</g>
<!-- Node43&#45;&gt;Node34 -->
<g id="edge57" class="edge">
<title>Node43&#45;&gt;Node34</title>
<path fill="none" stroke="#63b8ff" d="M519.3,-105.9C541.65,-96.11 572.05,-82.79 591.73,-74.17"/>
<polygon fill="#63b8ff" stroke="#63b8ff" points="517.72,-102.77 509.97,-109.98 520.53,-109.18 517.72,-102.77"/>
</g>
<!-- Node43&#45;&gt;Node35 -->
<g id="edge56" class="edge">
<title>Node43&#45;&gt;Node35</title>
<path fill="none" stroke="#63b8ff" d="M491.23,-99.48C492.11,-75.84 493.56,-36.5 494.21,-19.16"/>
<polygon fill="#63b8ff" stroke="#63b8ff" points="487.73,-99.54 490.85,-109.66 494.72,-99.8 487.73,-99.54"/>
</g>
<!-- Node43&#45;&gt;Node37 -->
<g id="edge58" class="edge">
<title>Node43&#45;&gt;Node37</title>
<path fill="none" stroke="#63b8ff" d="M505.64,-101.89C517.73,-88.82 535.3,-70.32 551.53,-55 565.35,-41.95 582.21,-27.83 592.9,-19.07"/>
<polygon fill="#63b8ff" stroke="#63b8ff" points="502.74,-99.88 498.55,-109.61 507.9,-104.61 502.74,-99.88"/>
</g>
<!-- Node44&#45;&gt;Node2 -->
<g id="edge64" class="edge">
<title>Node44&#45;&gt;Node2</title>
<path fill="none" stroke="#63b8ff" d="M1345.2,-326.8C1315.34,-316.91 1273.26,-302.97 1246.43,-294.08"/>
<polygon fill="#63b8ff" stroke="#63b8ff" points="1344.23,-330.16 1354.82,-329.98 1346.43,-323.52 1344.23,-330.16"/>
</g>
<!-- Node44&#45;&gt;Node3 -->
<g id="edge61" class="edge">
<title>Node44&#45;&gt;Node3</title>
<path fill="none" stroke="#63b8ff" d="M1407.16,-325.43C1452.81,-303.02 1544.77,-257.87 1583.12,-239.05"/>
<polygon fill="#63b8ff" stroke="#63b8ff" points="1405.59,-322.3 1398.16,-329.84 1408.68,-328.58 1405.59,-322.3"/>
</g>
<!-- Node44&#45;&gt;Node10 -->
<g id="edge63" class="edge">
<title>Node44&#45;&gt;Node10</title>
<path fill="none" stroke="#63b8ff" d="M1357.96,-324.62C1304.81,-291.93 1172.93,-210.81 1129.58,-184.15"/>
<polygon fill="#63b8ff" stroke="#63b8ff" points="1356.3,-327.71 1366.65,-329.97 1359.97,-321.75 1356.3,-327.71"/>
</g>
<!-- Node44&#45;&gt;Node17 -->
<g id="edge78" class="edge">
<title>Node44&#45;&gt;Node17</title>
<path fill="none" stroke="#63b8ff" d="M1430.72,-327.89C1573.68,-297.66 1981.05,-211.54 2111.09,-184.05"/>
<polygon fill="#63b8ff" stroke="#63b8ff" points="1429.95,-324.47 1420.89,-329.97 1431.4,-331.32 1429.95,-324.47"/>
</g>
<!-- Node44&#45;&gt;Node25 -->
<g id="edge62" class="edge">
<title>Node44&#45;&gt;Node25</title>
<path fill="none" stroke="#63b8ff" d="M1371.33,-320.76C1359.15,-297.28 1338.17,-256.81 1329.02,-239.16"/>
<polygon fill="#63b8ff" stroke="#63b8ff" points="1368.23,-322.4 1375.94,-329.66 1374.45,-319.17 1368.23,-322.4"/>
</g>
<!-- Node45 -->
<g id="node44" class="node">
<title>Node45</title>
<g id="a_node44"><a xlink:href="../../d8/d5d/Reaction_8h.html" target="_top" xlink:title=" ">
<polygon fill="white" stroke="#666666" points="2352.53,-184 2288.53,-184 2288.53,-165 2352.53,-165 2352.53,-184"/>
<text text-anchor="middle" x="2320.53" y="-172" font-family="Helvetica,sans-Serif" font-size="10.00">Reaction.h</text>
</a>
</g>
</g>
<!-- Node44&#45;&gt;Node45 -->
<g id="edge65" class="edge">
<title>Node44&#45;&gt;Node45</title>
<path fill="none" stroke="#63b8ff" d="M1433.21,-330C1487.65,-321.18 1575.08,-306.89 1650.53,-294 1896.21,-252.03 2192.05,-198.74 2288.47,-181.31"/>
<polygon fill="#63b8ff" stroke="#63b8ff" points="1432.42,-326.59 1423.11,-331.64 1433.54,-333.5 1432.42,-326.59"/>
</g>
<!-- Node51 -->
<g id="node50" class="node">
<title>Node51</title>
<g id="a_node50"><a xlink:href="../../de/d47/ReactionRateFactory_8h.html" target="_top" xlink:title="Factory class for reaction rate objects.">
<polygon fill="white" stroke="#666666" points="1511.53,-184 1395.53,-184 1395.53,-165 1511.53,-165 1511.53,-184"/>
<text text-anchor="middle" x="1453.53" y="-172" font-family="Helvetica,sans-Serif" font-size="10.00">ReactionRateFactory.h</text>
</a>
</g>
</g>
<!-- Node44&#45;&gt;Node51 -->
<g id="edge79" class="edge">
<title>Node44&#45;&gt;Node51</title>
<path fill="none" stroke="#63b8ff" d="M1388.68,-320.28C1404.34,-285.32 1438.07,-210.01 1449.58,-184.31"/>
<polygon fill="#63b8ff" stroke="#63b8ff" points="1385.34,-319.18 1384.45,-329.74 1391.73,-322.04 1385.34,-319.18"/>
</g>
<!-- Node45&#45;&gt;Node6 -->
<g id="edge66" class="edge">
<title>Node45&#45;&gt;Node6</title>
<path fill="none" stroke="#63b8ff" d="M2278.36,-165.66C2225.66,-155.86 2135.77,-139.14 2081.39,-129.03"/>
<polygon fill="#63b8ff" stroke="#63b8ff" points="2277.92,-169.14 2288.39,-167.52 2279.2,-162.25 2277.92,-169.14"/>
</g>
<!-- Node45&#45;&gt;Node8 -->
<g id="edge70" class="edge">
<title>Node45&#45;&gt;Node8</title>
<path fill="none" stroke="#63b8ff" d="M2363.05,-170.83C2422.04,-165.61 2517.62,-150.73 2481.53,-110 2460.67,-86.46 2256.62,-72.88 2162.12,-67.81"/>
<polygon fill="#63b8ff" stroke="#63b8ff" points="2362.53,-167.37 2352.86,-171.67 2363.11,-174.34 2362.53,-167.37"/>
</g>
<!-- Node45&#45;&gt;Node14 -->
<g id="edge72" class="edge">
<title>Node45&#45;&gt;Node14</title>
<path fill="none" stroke="#63b8ff" d="M2278.04,-169.62C2261.09,-168.11 2241.39,-166.41 2223.53,-165 2164.5,-160.33 1756.57,-131.86 1630.54,-123.08"/>
<polygon fill="#63b8ff" stroke="#63b8ff" points="2277.93,-173.12 2288.2,-170.53 2278.56,-166.15 2277.93,-173.12"/>
</g>
<!-- Node45&#45;&gt;Node20 -->
<g id="edge76" class="edge">
<title>Node45&#45;&gt;Node20</title>
<path fill="none" stroke="#63b8ff" d="M2278.37,-168.28C2203.62,-159.02 2047.39,-139.68 1958.35,-128.65"/>
<polygon fill="#63b8ff" stroke="#63b8ff" points="2278,-171.76 2288.36,-169.52 2278.86,-164.81 2278,-171.76"/>
</g>
<!-- Node45&#45;&gt;Node22 -->
<g id="edge67" class="edge">
<title>Node45&#45;&gt;Node22</title>
<path fill="none" stroke="#63b8ff" d="M2278.07,-169.3C2261.12,-167.75 2241.41,-166.1 2223.53,-165 1778.75,-137.54 1665.09,-171.72 1221.53,-129 1218.6,-128.72 1215.59,-128.38 1212.56,-128"/>
<polygon fill="#63b8ff" stroke="#63b8ff" points="2277.94,-172.81 2288.22,-170.25 2278.59,-165.84 2277.94,-172.81"/>
</g>
<!-- Node45&#45;&gt;Node23 -->
<g id="edge68" class="edge">
<title>Node45&#45;&gt;Node23</title>
<path fill="none" stroke="#63b8ff" d="M2278.07,-169.27C2261.12,-167.71 2241.41,-166.07 2223.53,-165 1730.82,-135.44 1606.06,-161.29 1113.53,-129 1098.26,-128 1081.5,-126.45 1066.87,-124.94"/>
<polygon fill="#63b8ff" stroke="#63b8ff" points="2277.94,-172.77 2288.23,-170.22 2278.6,-165.8 2277.94,-172.77"/>
</g>
<!-- Node45&#45;&gt;Node36 -->
<g id="edge69" class="edge">
<title>Node45&#45;&gt;Node36</title>
<path fill="none" stroke="#63b8ff" d="M2362.85,-172.26C2427.08,-168.89 2537.77,-156.39 2498.53,-110 2403.35,2.52 2318.19,-69.5 2171.53,-55 1891.09,-27.27 997.17,-14.15 766.34,-11.17"/>
<polygon fill="#63b8ff" stroke="#63b8ff" points="2362.42,-168.78 2352.59,-172.74 2362.75,-175.77 2362.42,-168.78"/>
</g>
<!-- Node46 -->
<g id="node45" class="node">
<title>Node46</title>
<g id="a_node45"><a xlink:href="../../d7/ddb/Kinetics_8cpp.html" target="_top" xlink:title="Declarations for the base class for kinetics managers (see Kinetics Managers and class Kinetics ).">
<polygon fill="white" stroke="#666666" points="2638.03,-129 2567.03,-129 2567.03,-110 2638.03,-110 2638.03,-129"/>
<text text-anchor="middle" x="2602.53" y="-117" font-family="Helvetica,sans-Serif" font-size="10.00">Kinetics.cpp</text>
</a>
</g>
</g>
<!-- Node45&#45;&gt;Node46 -->
<g id="edge71" class="edge">
<title>Node45&#45;&gt;Node46</title>
<path fill="none" stroke="#63b8ff" d="M2362.46,-165.62C2417.96,-155.19 2514.84,-136.98 2566.94,-127.19"/>
<polygon fill="#63b8ff" stroke="#63b8ff" points="2361.78,-162.18 2352.6,-167.47 2363.07,-169.06 2361.78,-162.18"/>
</g>
<!-- Node47 -->
<g id="node46" class="node">
<title>Node47</title>
<g id="a_node46"><a xlink:href="../../da/d26/ReactionPath_8cpp.html" target="_top" xlink:title="Implementation file for classes used in reaction path analysis.">
<polygon fill="white" stroke="#666666" points="2751.03,-129 2656.03,-129 2656.03,-110 2751.03,-110 2751.03,-129"/>
<text text-anchor="middle" x="2703.53" y="-117" font-family="Helvetica,sans-Serif" font-size="10.00">ReactionPath.cpp</text>
</a>
</g>
</g>
<!-- Node45&#45;&gt;Node47 -->
<g id="edge73" class="edge">
<title>Node45&#45;&gt;Node47</title>
<path fill="none" stroke="#63b8ff" d="M2362.8,-167.96C2425.14,-159.74 2545.4,-143.7 2647.53,-129 2650.25,-128.61 2653.05,-128.2 2655.87,-127.78"/>
<polygon fill="#63b8ff" stroke="#63b8ff" points="2362.03,-164.53 2352.58,-169.3 2362.95,-171.47 2362.03,-164.53"/>
</g>
<!-- Node48 -->
<g id="node47" class="node">
<title>Node48</title>
<g id="a_node47"><a xlink:href="../../d3/d68/Reactor_8cpp.html" target="_top" xlink:title="A zero&#45;dimensional reactor.">
<polygon fill="white" stroke="#666666" points="2838.03,-129 2769.03,-129 2769.03,-110 2838.03,-110 2838.03,-129"/>
<text text-anchor="middle" x="2803.53" y="-117" font-family="Helvetica,sans-Serif" font-size="10.00">Reactor.cpp</text>
</a>
</g>
</g>
<!-- Node45&#45;&gt;Node48 -->
<g id="edge74" class="edge">
<title>Node45&#45;&gt;Node48</title>
<path fill="none" stroke="#63b8ff" d="M2362.67,-170.57C2441.2,-164.81 2615.17,-150.67 2760.53,-129 2763.24,-128.6 2766.03,-128.14 2768.84,-127.65"/>
<polygon fill="#63b8ff" stroke="#63b8ff" points="2362.4,-167.08 2352.68,-171.29 2362.9,-174.06 2362.4,-167.08"/>
</g>
<!-- Node49 -->
<g id="node48" class="node">
<title>Node49</title>
<g id="a_node48"><a xlink:href="../../df/ddb/ReactorSurface_8cpp.html" target="_top" xlink:title=" ">
<polygon fill="white" stroke="#666666" points="2372.53,-129 2268.53,-129 2268.53,-110 2372.53,-110 2372.53,-129"/>
<text text-anchor="middle" x="2320.53" y="-117" font-family="Helvetica,sans-Serif" font-size="10.00">ReactorSurface.cpp</text>
</a>
</g>
</g>
<!-- Node45&#45;&gt;Node49 -->
<g id="edge75" class="edge">
<title>Node45&#45;&gt;Node49</title>
<path fill="none" stroke="#63b8ff" d="M2320.53,-154.66C2320.53,-145.93 2320.53,-135.99 2320.53,-129.09"/>
<polygon fill="#63b8ff" stroke="#63b8ff" points="2317.03,-154.75 2320.53,-164.75 2324.03,-154.75 2317.03,-154.75"/>
</g>
<!-- Node50 -->
<g id="node49" class="node">
<title>Node50</title>
<g id="a_node49"><a xlink:href="../../da/d67/YamlWriter_8cpp_source.html" target="_top" xlink:title=" ">
<polygon fill="white" stroke="#666666" points="2472.53,-129 2390.53,-129 2390.53,-110 2472.53,-110 2472.53,-129"/>
<text text-anchor="middle" x="2431.53" y="-117" font-family="Helvetica,sans-Serif" font-size="10.00">YamlWriter.cpp</text>
</a>
</g>
</g>
<!-- Node45&#45;&gt;Node50 -->
<g id="edge77" class="edge">
<title>Node45&#45;&gt;Node50</title>
<path fill="none" stroke="#63b8ff" d="M2347.47,-160.63C2367.92,-150.87 2395.47,-137.71 2413.37,-129.17"/>
<polygon fill="#63b8ff" stroke="#63b8ff" points="2345.88,-157.52 2338.36,-164.98 2348.89,-163.83 2345.88,-157.52"/>
</g>
<!-- Node51&#45;&gt;Node9 -->
<g id="edge81" class="edge">
<title>Node51&#45;&gt;Node9</title>
<path fill="none" stroke="#63b8ff" d="M1437.98,-157.21C1431.4,-149.31 1424.39,-139.32 1420.53,-129 1413.54,-110.36 1413.91,-86.54 1414.74,-74.04"/>
<polygon fill="#63b8ff" stroke="#63b8ff" points="1435.51,-159.7 1444.76,-164.87 1440.75,-155.06 1435.51,-159.7"/>
</g>
<!-- Node51&#45;&gt;Node14 -->
<g id="edge80" class="edge">
<title>Node51&#45;&gt;Node14</title>
<path fill="none" stroke="#63b8ff" d="M1485.43,-161.42C1511.41,-151.59 1547.44,-137.95 1570.62,-129.17"/>
<polygon fill="#63b8ff" stroke="#63b8ff" points="1484.13,-158.17 1476.02,-164.98 1486.61,-164.72 1484.13,-158.17"/>
</g>
</g>
</svg>
