<?xml version="1.0" encoding="UTF-8" standalone="no"?>
<!DOCTYPE svg PUBLIC "-//W3C//DTD SVG 1.1//EN"
 "http://www.w3.org/Graphics/SVG/1.1/DTD/svg11.dtd">
<!-- Generated by graphviz version 6.0.1 (0)
 -->
<!-- Title: WaterProps.h Pages: 1 -->
<svg width="984pt" height="137pt"
 viewBox="0.00 0.00 983.50 137.00" xmlns="http://www.w3.org/2000/svg" xmlns:xlink="http://www.w3.org/1999/xlink">
<g id="graph0" class="graph" transform="scale(1 1) rotate(0) translate(4 133)">
<title>WaterProps.h</title>
<!-- Node1 -->
<g id="node1" class="node">
<title>Node1</title>
<g id="a_node1"><a xlink:title="Header for a class used to house several approximation routines for properties of water.">
<polygon fill="#999999" stroke="#666666" points="548.5,-129 472.5,-129 472.5,-110 548.5,-110 548.5,-129"/>
<text text-anchor="middle" x="510.5" y="-117" font-family="Helvetica,sans-Serif" font-size="10.00">WaterProps.h</text>
</a>
</g>
</g>
<!-- Node2 -->
<g id="node2" class="node">
<title>Node2</title>
<g id="a_node2"><a xlink:href="../../db/df3/PDSS__HKFT_8h.html" target="_top" xlink:title="Declarations for the class PDSS_HKFT (pressure dependent standard state) which handles calculations f...">
<polygon fill="white" stroke="#666666" points="200,-74 117,-74 117,-55 200,-55 200,-74"/>
<text text-anchor="middle" x="158.5" y="-62" font-family="Helvetica,sans-Serif" font-size="10.00">PDSS_HKFT.h</text>
</a>
</g>
</g>
<!-- Node1&#45;&gt;Node2 -->
<g id="edge1" class="edge">
<title>Node1&#45;&gt;Node2</title>
<path fill="none" stroke="#63b8ff" d="M462.27,-111.24C392.8,-100.78 265.74,-81.65 200.15,-71.77"/>
<polygon fill="#63b8ff" stroke="#63b8ff" points="462.09,-114.75 472.5,-112.78 463.13,-107.83 462.09,-114.75"/>
</g>
<!-- Node5 -->
<g id="node5" class="node">
<title>Node5</title>
<g id="a_node5"><a xlink:href="../../d8/d6d/PDSS__Water_8h.html" target="_top" xlink:title="Implementation of a pressure dependent standard state virtual function for a Pure Water Phase (see Sp...">
<polygon fill="white" stroke="#666666" points="446,-74 363,-74 363,-55 446,-55 446,-74"/>
<text text-anchor="middle" x="404.5" y="-62" font-family="Helvetica,sans-Serif" font-size="10.00">PDSS_Water.h</text>
</a>
</g>
</g>
<!-- Node1&#45;&gt;Node5 -->
<g id="edge4" class="edge">
<title>Node1&#45;&gt;Node5</title>
<path fill="none" stroke="#63b8ff" d="M484.5,-105.5C465,-95.75 438.85,-82.68 421.84,-74.17"/>
<polygon fill="#63b8ff" stroke="#63b8ff" points="482.96,-108.64 493.47,-109.98 486.09,-102.38 482.96,-108.64"/>
</g>
<!-- Node9 -->
<g id="node9" class="node">
<title>Node9</title>
<g id="a_node9"><a xlink:href="../../d4/d61/WaterProps_8cpp.html" target="_top" xlink:title=" ">
<polygon fill="white" stroke="#666666" points="633.5,-19 547.5,-19 547.5,0 633.5,0 633.5,-19"/>
<text text-anchor="middle" x="590.5" y="-7" font-family="Helvetica,sans-Serif" font-size="10.00">WaterProps.cpp</text>
</a>
</g>
</g>
<!-- Node1&#45;&gt;Node9 -->
<g id="edge12" class="edge">
<title>Node1&#45;&gt;Node9</title>
<path fill="none" stroke="#63b8ff" d="M523.18,-101.38C540.5,-78.01 570.89,-36.97 584.09,-19.16"/>
<polygon fill="#63b8ff" stroke="#63b8ff" points="520.19,-99.54 517.05,-109.66 525.81,-103.71 520.19,-99.54"/>
</g>
<!-- Node11 -->
<g id="node11" class="node">
<title>Node11</title>
<g id="a_node11"><a xlink:href="../../dd/da3/WaterSSTP_8h.html" target="_top" xlink:title="Declares a ThermoPhase class consisting of pure water (see Thermodynamic Properties and class WaterSS...">
<polygon fill="white" stroke="#666666" points="796,-74 721,-74 721,-55 796,-55 796,-74"/>
<text text-anchor="middle" x="758.5" y="-62" font-family="Helvetica,sans-Serif" font-size="10.00">WaterSSTP.h</text>
</a>
</g>
</g>
<!-- Node1&#45;&gt;Node11 -->
<g id="edge13" class="edge">
<title>Node1&#45;&gt;Node11</title>
<path fill="none" stroke="#63b8ff" d="M558.72,-108.2C606.05,-98.08 677.27,-82.86 720.66,-73.59"/>
<polygon fill="#63b8ff" stroke="#63b8ff" points="557.75,-104.82 548.71,-110.33 559.22,-111.67 557.75,-104.82"/>
</g>
<!-- Node3 -->
<g id="node3" class="node">
<title>Node3</title>
<g id="a_node3"><a xlink:href="../../d0/d6d/PDSSFactory_8cpp.html" target="_top" xlink:title=" ">
<polygon fill="white" stroke="#666666" points="206,-19 111,-19 111,0 206,0 206,-19"/>
<text text-anchor="middle" x="158.5" y="-7" font-family="Helvetica,sans-Serif" font-size="10.00">PDSSFactory.cpp</text>
</a>
</g>
</g>
<!-- Node2&#45;&gt;Node3 -->
<g id="edge2" class="edge">
<title>Node2&#45;&gt;Node3</title>
<path fill="none" stroke="#63b8ff" d="M158.5,-44.66C158.5,-35.93 158.5,-25.99 158.5,-19.09"/>
<polygon fill="#63b8ff" stroke="#63b8ff" points="155,-44.75 158.5,-54.75 162,-44.75 155,-44.75"/>
</g>
<!-- Node4 -->
<g id="node4" class="node">
<title>Node4</title>
<g id="a_node4"><a xlink:href="../../d1/d3f/PDSS__HKFT_8cpp.html" target="_top" xlink:title="Definitions for the class PDSS_HKFT (pressure dependent standard state) which handles calculations fo...">
<polygon fill="white" stroke="#666666" points="93,-19 0,-19 0,0 93,0 93,-19"/>
<text text-anchor="middle" x="46.5" y="-7" font-family="Helvetica,sans-Serif" font-size="10.00">PDSS_HKFT.cpp</text>
</a>
</g>
</g>
<!-- Node2&#45;&gt;Node4 -->
<g id="edge3" class="edge">
<title>Node2&#45;&gt;Node4</title>
<path fill="none" stroke="#63b8ff" d="M131.31,-50.63C110.68,-40.87 82.88,-27.71 64.82,-19.17"/>
<polygon fill="#63b8ff" stroke="#63b8ff" points="129.97,-53.87 140.51,-54.98 132.96,-47.54 129.97,-53.87"/>
</g>
<!-- Node5&#45;&gt;Node3 -->
<g id="edge7" class="edge">
<title>Node5&#45;&gt;Node3</title>
<path fill="none" stroke="#63b8ff" d="M355.2,-52.88C309.09,-42.94 241.1,-28.3 198.33,-19.08"/>
<polygon fill="#63b8ff" stroke="#63b8ff" points="354.46,-56.3 364.98,-54.98 355.94,-49.46 354.46,-56.3"/>
</g>
<!-- Node5&#45;&gt;Node4 -->
<g id="edge8" class="edge">
<title>Node5&#45;&gt;Node4</title>
<path fill="none" stroke="#63b8ff" d="M352.79,-56.03C292.46,-47.28 189.72,-32.29 101.5,-19 98.73,-18.58 95.88,-18.15 93.01,-17.71"/>
<polygon fill="#63b8ff" stroke="#63b8ff" points="352.43,-59.51 362.83,-57.48 353.43,-52.58 352.43,-59.51"/>
</g>
<!-- Node6 -->
<g id="node6" class="node">
<title>Node6</title>
<g id="a_node6"><a xlink:href="../../dc/ddc/DebyeHuckel_8cpp.html" target="_top" xlink:title="Declarations for the DebyeHuckel ThermoPhase object, which models dilute electrolyte solutions (see T...">
<polygon fill="white" stroke="#666666" points="319,-19 224,-19 224,0 319,0 319,-19"/>
<text text-anchor="middle" x="271.5" y="-7" font-family="Helvetica,sans-Serif" font-size="10.00">DebyeHuckel.cpp</text>
</a>
</g>
</g>
<!-- Node5&#45;&gt;Node6 -->
<g id="edge5" class="edge">
<title>Node5&#45;&gt;Node6</title>
<path fill="none" stroke="#63b8ff" d="M373.53,-51.16C348.91,-41.35 315.09,-27.87 293.26,-19.17"/>
<polygon fill="#63b8ff" stroke="#63b8ff" points="372.55,-54.53 383.13,-54.98 375.14,-48.03 372.55,-54.53"/>
</g>
<!-- Node7 -->
<g id="node7" class="node">
<title>Node7</title>
<g id="a_node7"><a xlink:href="../../d0/d0e/HMWSoln_8cpp.html" target="_top" xlink:title="Definitions for the HMWSoln ThermoPhase object, which models concentrated electrolyte solutions (see ...">
<polygon fill="white" stroke="#666666" points="417.5,-19 337.5,-19 337.5,0 417.5,0 417.5,-19"/>
<text text-anchor="middle" x="377.5" y="-7" font-family="Helvetica,sans-Serif" font-size="10.00">HMWSoln.cpp</text>
</a>
</g>
</g>
<!-- Node5&#45;&gt;Node7 -->
<g id="edge6" class="edge">
<title>Node5&#45;&gt;Node7</title>
<path fill="none" stroke="#63b8ff" d="M395.49,-45.82C390.91,-36.82 385.55,-26.29 381.88,-19.09"/>
<polygon fill="#63b8ff" stroke="#63b8ff" points="392.38,-47.43 400.04,-54.75 398.62,-44.25 392.38,-47.43"/>
</g>
<!-- Node8 -->
<g id="node8" class="node">
<title>Node8</title>
<g id="a_node8"><a xlink:href="../../d2/db8/PDSS__Water_8cpp.html" target="_top" xlink:title=" ">
<polygon fill="white" stroke="#666666" points="529,-19 436,-19 436,0 529,0 529,-19"/>
<text text-anchor="middle" x="482.5" y="-7" font-family="Helvetica,sans-Serif" font-size="10.00">PDSS_Water.cpp</text>
</a>
</g>
</g>
<!-- Node5&#45;&gt;Node8 -->
<g id="edge9" class="edge">
<title>Node5&#45;&gt;Node8</title>
<path fill="none" stroke="#63b8ff" d="M425.62,-49.15C439.71,-39.57 457.79,-27.29 469.74,-19.17"/>
<polygon fill="#63b8ff" stroke="#63b8ff" points="423.34,-46.47 417.03,-54.98 427.27,-52.26 423.34,-46.47"/>
</g>
<!-- Node5&#45;&gt;Node9 -->
<g id="edge10" class="edge">
<title>Node5&#45;&gt;Node9</title>
<path fill="none" stroke="#63b8ff" d="M444.21,-52.18C479,-42.27 528.79,-28.08 560.38,-19.08"/>
<polygon fill="#63b8ff" stroke="#63b8ff" points="443.04,-48.88 434.38,-54.98 444.96,-55.61 443.04,-48.88"/>
</g>
<!-- Node10 -->
<g id="node10" class="node">
<title>Node10</title>
<g id="a_node10"><a xlink:href="../../d7/d8a/WaterTransport_8cpp.html" target="_top" xlink:title=" ">
<polygon fill="white" stroke="#666666" points="753.5,-19 651.5,-19 651.5,0 753.5,0 753.5,-19"/>
<text text-anchor="middle" x="702.5" y="-7" font-family="Helvetica,sans-Serif" font-size="10.00">WaterTransport.cpp</text>
</a>
</g>
</g>
<!-- Node5&#45;&gt;Node10 -->
<g id="edge11" class="edge">
<title>Node5&#45;&gt;Node10</title>
<path fill="none" stroke="#63b8ff" d="M456.29,-54.29C512.14,-44.36 600.34,-28.67 654.63,-19.01"/>
<polygon fill="#63b8ff" stroke="#63b8ff" points="455.48,-50.88 446.25,-56.07 456.71,-57.77 455.48,-50.88"/>
</g>
<!-- Node11&#45;&gt;Node10 -->
<g id="edge16" class="edge">
<title>Node11&#45;&gt;Node10</title>
<path fill="none" stroke="#63b8ff" d="M742.17,-48.04C732.24,-38.64 719.91,-26.98 711.66,-19.17"/>
<polygon fill="#63b8ff" stroke="#63b8ff" points="739.83,-50.65 749.5,-54.98 744.65,-45.57 739.83,-50.65"/>
</g>
<!-- Node12 -->
<g id="node12" class="node">
<title>Node12</title>
<g id="a_node12"><a xlink:href="../../d2/d3a/ThermoFactory_8cpp.html" target="_top" xlink:title="Definitions for the factory class that can create known ThermoPhase objects (see Thermodynamic Proper...">
<polygon fill="white" stroke="#666666" points="975.5,-19 875.5,-19 875.5,0 975.5,0 975.5,-19"/>
<text text-anchor="middle" x="925.5" y="-7" font-family="Helvetica,sans-Serif" font-size="10.00">ThermoFactory.cpp</text>
</a>
</g>
</g>
<!-- Node11&#45;&gt;Node12 -->
<g id="edge14" class="edge">
<title>Node11&#45;&gt;Node12</title>
<path fill="none" stroke="#63b8ff" d="M794.96,-51.93C826.16,-42.03 870.34,-28.01 898.46,-19.08"/>
<polygon fill="#63b8ff" stroke="#63b8ff" points="793.8,-48.62 785.33,-54.98 795.92,-55.3 793.8,-48.62"/>
</g>
<!-- Node13 -->
<g id="node13" class="node">
<title>Node13</title>
<g id="a_node13"><a xlink:href="../../db/de5/WaterSSTP_8cpp.html" target="_top" xlink:title="Definitions for a ThermoPhase class consisting of pure water (see Thermodynamic Properties and class ...">
<polygon fill="white" stroke="#666666" points="857.5,-19 771.5,-19 771.5,0 857.5,0 857.5,-19"/>
<text text-anchor="middle" x="814.5" y="-7" font-family="Helvetica,sans-Serif" font-size="10.00">WaterSSTP.cpp</text>
</a>
</g>
</g>
<!-- Node11&#45;&gt;Node13 -->
<g id="edge15" class="edge">
<title>Node11&#45;&gt;Node13</title>
<path fill="none" stroke="#63b8ff" d="M774.83,-48.04C784.76,-38.64 797.09,-26.98 805.34,-19.17"/>
<polygon fill="#63b8ff" stroke="#63b8ff" points="772.35,-45.57 767.5,-54.98 777.17,-50.65 772.35,-45.57"/>
</g>
</g>
</svg>
