<?xml version="1.0" encoding="UTF-8" standalone="no"?>
<!DOCTYPE svg PUBLIC "-//W3C//DTD SVG 1.1//EN"
 "http://www.w3.org/Graphics/SVG/1.1/DTD/svg11.dtd">
<!-- Generated by graphviz version 2.50.0 (0)
 -->
<!-- Title: SpeciesThermoFactory.h Pages: 1 -->
<svg width="891pt" height="84pt"
 viewBox="0.00 0.00 891.00 84.00" xmlns="http://www.w3.org/2000/svg" xmlns:xlink="http://www.w3.org/1999/xlink">
<g id="graph0" class="graph" transform="scale(1 1) rotate(0) translate(4 80)">
<title>SpeciesThermoFactory.h</title>
<polygon fill="white" stroke="transparent" points="-4,4 -4,-80 887,-80 887,4 -4,4"/>
<!-- Node1 -->
<g id="node1" class="node">
<title>Node1</title>
<g id="a_node1"><a xlink:title="Header for factory functions to build instances of classes that manage the standard&#45;state thermodynam...">
<polygon fill="#bfbfbf" stroke="black" points="440,-56.5 440,-75.5 565,-75.5 565,-56.5 440,-56.5"/>
<text text-anchor="middle" x="502.5" y="-63.5" font-family="Helvetica,sans-Serif" font-size="10.00">SpeciesThermoFactory.h</text>
</a>
</g>
</g>
<!-- Node2 -->
<g id="node2" class="node">
<title>Node2</title>
<g id="a_node2"><a xlink:href="../../d4/d20/BinarySolutionTabulatedThermo_8cpp.html" target="_top" xlink:title="Implementation file for an binary solution model with tabulated standard state thermodynamic data (se...">
<polygon fill="white" stroke="black" points="0,-0.5 0,-19.5 173,-19.5 173,-0.5 0,-0.5"/>
<text text-anchor="middle" x="86.5" y="-7.5" font-family="Helvetica,sans-Serif" font-size="10.00">BinarySolutionTabulatedThermo.cpp</text>
</a>
</g>
</g>
<!-- Node1&#45;&gt;Node2 -->
<g id="edge1" class="edge">
<title>Node1&#45;&gt;Node2</title>
<path fill="none" stroke="midnightblue" d="M429.49,-55.52C351.07,-45.34 227.6,-29.32 152.15,-19.52"/>
<polygon fill="midnightblue" stroke="midnightblue" points="429.4,-59.04 439.77,-56.86 430.3,-52.1 429.4,-59.04"/>
</g>
<!-- Node3 -->
<g id="node3" class="node">
<title>Node3</title>
<g id="a_node3"><a xlink:href="../../df/dde/LatticeSolidPhase_8cpp.html" target="_top" xlink:title="Definitions for a simple thermodynamics model of a bulk solid phase derived from ThermoPhase,...">
<polygon fill="white" stroke="black" points="191.5,-0.5 191.5,-19.5 305.5,-19.5 305.5,-0.5 191.5,-0.5"/>
<text text-anchor="middle" x="248.5" y="-7.5" font-family="Helvetica,sans-Serif" font-size="10.00">LatticeSolidPhase.cpp</text>
</a>
</g>
</g>
<!-- Node1&#45;&gt;Node3 -->
<g id="edge2" class="edge">
<title>Node1&#45;&gt;Node3</title>
<path fill="none" stroke="midnightblue" d="M452.38,-54.35C404.38,-44.14 332.88,-28.94 288.56,-19.52"/>
<polygon fill="midnightblue" stroke="midnightblue" points="451.74,-57.79 462.25,-56.44 453.2,-50.94 451.74,-57.79"/>
</g>
<!-- Node4 -->
<g id="node4" class="node">
<title>Node4</title>
<g id="a_node4"><a xlink:href="../../dd/de9/MultiSpeciesThermo_8cpp.html" target="_top" xlink:title="Declarations for a thermodynamic property manager for multiple species in a phase (see Species Refere...">
<polygon fill="white" stroke="black" points="324,-0.5 324,-19.5 449,-19.5 449,-0.5 324,-0.5"/>
<text text-anchor="middle" x="386.5" y="-7.5" font-family="Helvetica,sans-Serif" font-size="10.00">MultiSpeciesThermo.cpp</text>
</a>
</g>
</g>
<!-- Node1&#45;&gt;Node4 -->
<g id="edge3" class="edge">
<title>Node1&#45;&gt;Node4</title>
<path fill="none" stroke="midnightblue" d="M474.78,-52.1C453.11,-42.01 423.6,-28.27 404.79,-19.52"/>
<polygon fill="midnightblue" stroke="midnightblue" points="473.58,-55.4 484.12,-56.44 476.53,-49.05 473.58,-55.4"/>
</g>
<!-- Node5 -->
<g id="node5" class="node">
<title>Node5</title>
<g id="a_node5"><a xlink:href="../../d7/d17/Species_8cpp_source.html" target="_top" xlink:title=" ">
<polygon fill="white" stroke="black" points="467,-0.5 467,-19.5 538,-19.5 538,-0.5 467,-0.5"/>
<text text-anchor="middle" x="502.5" y="-7.5" font-family="Helvetica,sans-Serif" font-size="10.00">Species.cpp</text>
</a>
</g>
</g>
<!-- Node1&#45;&gt;Node5 -->
<g id="edge4" class="edge">
<title>Node1&#45;&gt;Node5</title>
<path fill="none" stroke="midnightblue" d="M502.5,-45.8C502.5,-36.91 502.5,-26.78 502.5,-19.75"/>
<polygon fill="midnightblue" stroke="midnightblue" points="499,-46.08 502.5,-56.08 506,-46.08 499,-46.08"/>
</g>
<!-- Node6 -->
<g id="node6" class="node">
<title>Node6</title>
<g id="a_node6"><a xlink:href="../../da/d47/SpeciesThermoFactory_8cpp.html" target="_top" xlink:title="Definitions for factory functions to build instances of classes that manage the standard&#45;state thermo...">
<polygon fill="white" stroke="black" points="556,-0.5 556,-19.5 691,-19.5 691,-0.5 556,-0.5"/>
<text text-anchor="middle" x="623.5" y="-7.5" font-family="Helvetica,sans-Serif" font-size="10.00">SpeciesThermoFactory.cpp</text>
</a>
</g>
</g>
<!-- Node1&#45;&gt;Node6 -->
<g id="edge5" class="edge">
<title>Node1&#45;&gt;Node6</title>
<path fill="none" stroke="midnightblue" d="M530.81,-52.37C553.47,-42.26 584.63,-28.35 604.42,-19.52"/>
<polygon fill="midnightblue" stroke="midnightblue" points="529.38,-49.17 521.67,-56.44 532.23,-55.56 529.38,-49.17"/>
</g>
<!-- Node7 -->
<g id="node7" class="node">
<title>Node7</title>
<g id="a_node7"><a xlink:href="../../d2/d3a/ThermoFactory_8cpp.html" target="_top" xlink:title="Definitions for the factory class that can create known ThermoPhase objects (see Thermodynamic Proper...">
<polygon fill="white" stroke="black" points="709.5,-0.5 709.5,-19.5 809.5,-19.5 809.5,-0.5 709.5,-0.5"/>
<text text-anchor="middle" x="759.5" y="-7.5" font-family="Helvetica,sans-Serif" font-size="10.00">ThermoFactory.cpp</text>
</a>
</g>
</g>
<!-- Node1&#45;&gt;Node7 -->
<g id="edge6" class="edge">
<title>Node1&#45;&gt;Node7</title>
<path fill="none" stroke="midnightblue" d="M553.21,-54.35C601.78,-44.14 674.12,-28.94 718.97,-19.52"/>
<polygon fill="midnightblue" stroke="midnightblue" points="552.29,-50.96 543.22,-56.44 553.73,-57.81 552.29,-50.96"/>
</g>
<!-- Node8 -->
<g id="node8" class="node">
<title>Node8</title>
<g id="a_node8"><a xlink:href="../../df/d32/thermo_8h.html" target="_top" xlink:title="Support for thermo property calculation from C++ application programs.">
<polygon fill="white" stroke="black" points="828,-0.5 828,-19.5 883,-19.5 883,-0.5 828,-0.5"/>
<text text-anchor="middle" x="855.5" y="-7.5" font-family="Helvetica,sans-Serif" font-size="10.00">thermo.h</text>
</a>
</g>
</g>
<!-- Node1&#45;&gt;Node8 -->
<g id="edge7" class="edge">
<title>Node1&#45;&gt;Node8</title>
<path fill="none" stroke="midnightblue" d="M575.19,-56.69C639.45,-48.85 735.6,-35.95 818.5,-20 821.49,-19.43 824.59,-18.77 827.68,-18.07"/>
<polygon fill="midnightblue" stroke="midnightblue" points="574.66,-53.22 565.15,-57.9 575.5,-60.17 574.66,-53.22"/>
</g>
</g>
</svg>
