<?xml version="1.0" encoding="UTF-8" standalone="no"?>
<!DOCTYPE svg PUBLIC "-//W3C//DTD SVG 1.1//EN"
 "http://www.w3.org/Graphics/SVG/1.1/DTD/svg11.dtd">
<!-- Generated by graphviz version 6.0.1 (0)
 -->
<!-- Title: DenseMatrix.h Pages: 1 -->
<svg width="689pt" height="247pt"
 viewBox="0.00 0.00 688.50 247.00" xmlns="http://www.w3.org/2000/svg" xmlns:xlink="http://www.w3.org/1999/xlink">
<g id="graph0" class="graph" transform="scale(1 1) rotate(0) translate(4 243)">
<title>DenseMatrix.h</title>
<!-- Node1 -->
<g id="node1" class="node">
<title>Node1</title>
<g id="a_node1"><a xlink:title="Headers for the DenseMatrix object, which deals with dense rectangular matrices and description of th...">
<polygon fill="#999999" stroke="#666666" points="320.5,-239 240.5,-239 240.5,-220 320.5,-220 320.5,-239"/>
<text text-anchor="middle" x="280.5" y="-227" font-family="Helvetica,sans-Serif" font-size="10.00">DenseMatrix.h</text>
</a>
</g>
</g>
<!-- Node2 -->
<g id="node2" class="node">
<title>Node2</title>
<g id="a_node2"><a xlink:href="../../d9/ddc/ct__defs_8h.html" target="_top" xlink:title="This file contains definitions of constants, types and terms that are used in internal routines and a...">
<polygon fill="white" stroke="#666666" points="358.5,-74 242.5,-74 242.5,-55 358.5,-55 358.5,-74"/>
<text text-anchor="middle" x="300.5" y="-62" font-family="Helvetica,sans-Serif" font-size="10.00">cantera/base/ct_defs.h</text>
</a>
</g>
</g>
<!-- Node1&#45;&gt;Node2 -->
<g id="edge1" class="edge">
<title>Node1&#45;&gt;Node2</title>
<path fill="none" stroke="#63b8ff" d="M259.98,-220C245.48,-212.77 227.15,-200.86 218.5,-184 214.64,-176.49 215.94,-173.05 218.5,-165 229.79,-129.57 260.95,-98.23 281.45,-80.58"/>
<polygon fill="#63b8ff" stroke="#63b8ff" points="283.79,-83.19 289.23,-74.1 279.31,-77.81 283.79,-83.19"/>
</g>
<!-- Node13 -->
<g id="node13" class="node">
<title>Node13</title>
<g id="a_node13"><a xlink:href="../../db/d98/ctexceptions_8h.html" target="_top" xlink:title="Definitions for the classes that are thrown when Cantera experiences an error condition (also contain...">
<polygon fill="white" stroke="#666666" points="491.5,-184 351.5,-184 351.5,-165 491.5,-165 491.5,-184"/>
<text text-anchor="middle" x="421.5" y="-172" font-family="Helvetica,sans-Serif" font-size="10.00">cantera/base/ctexceptions.h</text>
</a>
</g>
</g>
<!-- Node1&#45;&gt;Node13 -->
<g id="edge12" class="edge">
<title>Node1&#45;&gt;Node13</title>
<path fill="none" stroke="#63b8ff" d="M303.15,-219.98C326.35,-211.27 362.62,-197.63 388.9,-187.75"/>
<polygon fill="#63b8ff" stroke="#63b8ff" points="390.3,-190.97 398.43,-184.17 387.84,-184.41 390.3,-190.97"/>
</g>
<!-- Node18 -->
<g id="node18" class="node">
<title>Node18</title>
<g id="a_node18"><a xlink:href="../../df/dd0/Array_8h.html" target="_top" xlink:title="Header file for class Cantera::Array2D.">
<polygon fill="white" stroke="#666666" points="333.5,-184 227.5,-184 227.5,-165 333.5,-165 333.5,-184"/>
<text text-anchor="middle" x="280.5" y="-172" font-family="Helvetica,sans-Serif" font-size="10.00">cantera/base/Array.h</text>
</a>
</g>
</g>
<!-- Node1&#45;&gt;Node18 -->
<g id="edge19" class="edge">
<title>Node1&#45;&gt;Node18</title>
<path fill="none" stroke="#63b8ff" d="M280.5,-219.75C280.5,-212.8 280.5,-202.85 280.5,-194.13"/>
<polygon fill="#63b8ff" stroke="#63b8ff" points="284,-194.09 280.5,-184.09 277,-194.09 284,-194.09"/>
</g>
<!-- Node3 -->
<g id="node3" class="node">
<title>Node3</title>
<g id="a_node3"><a xlink:href="../../db/d16/config_8h_source.html" target="_top" xlink:title=" ">
<polygon fill="white" stroke="#666666" points="51,-19 0,-19 0,0 51,0 51,-19"/>
<text text-anchor="middle" x="25.5" y="-7" font-family="Helvetica,sans-Serif" font-size="10.00">config.h</text>
</a>
</g>
</g>
<!-- Node2&#45;&gt;Node3 -->
<g id="edge2" class="edge">
<title>Node2&#45;&gt;Node3</title>
<path fill="none" stroke="#63b8ff" d="M249.77,-54.93C203.27,-46.88 132.29,-34.13 61.12,-19.03"/>
<polygon fill="#63b8ff" stroke="#63b8ff" points="61.59,-15.55 51.08,-16.88 60.12,-22.4 61.59,-15.55"/>
</g>
<!-- Node4 -->
<g id="node4" class="node">
<title>Node4</title>
<g id="a_node4"><a xlink:title=" ">
<polygon fill="#e0e0e0" stroke="#999999" points="113.5,-19 69.5,-19 69.5,0 113.5,0 113.5,-19"/>
<text text-anchor="middle" x="91.5" y="-7" font-family="Helvetica,sans-Serif" font-size="10.00">cmath</text>
</a>
</g>
</g>
<!-- Node2&#45;&gt;Node4 -->
<g id="edge3" class="edge">
<title>Node2&#45;&gt;Node4</title>
<path fill="none" stroke="#63b8ff" d="M265.32,-54.95C231.4,-46.66 178.39,-33.55 123.7,-19.27"/>
<polygon fill="#63b8ff" stroke="#63b8ff" points="124.4,-15.84 113.83,-16.69 122.62,-22.61 124.4,-15.84"/>
</g>
<!-- Node5 -->
<g id="node5" class="node">
<title>Node5</title>
<g id="a_node5"><a xlink:title=" ">
<polygon fill="#e0e0e0" stroke="#999999" points="177,-19 132,-19 132,0 177,0 177,-19"/>
<text text-anchor="middle" x="154.5" y="-7" font-family="Helvetica,sans-Serif" font-size="10.00">cstdlib</text>
</a>
</g>
</g>
<!-- Node2&#45;&gt;Node5 -->
<g id="edge4" class="edge">
<title>Node2&#45;&gt;Node5</title>
<path fill="none" stroke="#63b8ff" d="M277.04,-54.98C252.63,-46.12 214.23,-32.18 186.93,-22.27"/>
<polygon fill="#63b8ff" stroke="#63b8ff" points="188.01,-18.94 177.42,-18.82 185.62,-25.52 188.01,-18.94"/>
</g>
<!-- Node6 -->
<g id="node6" class="node">
<title>Node6</title>
<g id="a_node6"><a xlink:title=" ">
<polygon fill="#e0e0e0" stroke="#999999" points="239.5,-19 195.5,-19 195.5,0 239.5,0 239.5,-19"/>
<text text-anchor="middle" x="217.5" y="-7" font-family="Helvetica,sans-Serif" font-size="10.00">vector</text>
</a>
</g>
</g>
<!-- Node2&#45;&gt;Node6 -->
<g id="edge5" class="edge">
<title>Node2&#45;&gt;Node6</title>
<path fill="none" stroke="#63b8ff" d="M287.16,-54.98C274.41,-46.84 254.95,-34.41 239.83,-24.76"/>
<polygon fill="#63b8ff" stroke="#63b8ff" points="241.39,-21.6 231.08,-19.17 237.62,-27.5 241.39,-21.6"/>
</g>
<!-- Node7 -->
<g id="node7" class="node">
<title>Node7</title>
<g id="a_node7"><a xlink:title=" ">
<polygon fill="#e0e0e0" stroke="#999999" points="293,-19 258,-19 258,0 293,0 293,-19"/>
<text text-anchor="middle" x="275.5" y="-7" font-family="Helvetica,sans-Serif" font-size="10.00">map</text>
</a>
</g>
</g>
<!-- Node2&#45;&gt;Node7 -->
<g id="edge6" class="edge">
<title>Node2&#45;&gt;Node7</title>
<path fill="none" stroke="#63b8ff" d="M296.37,-54.75C292.99,-47.57 288.08,-37.18 283.88,-28.27"/>
<polygon fill="#63b8ff" stroke="#63b8ff" points="286.98,-26.64 279.55,-19.09 280.65,-29.63 286.98,-26.64"/>
</g>
<!-- Node8 -->
<g id="node8" class="node">
<title>Node8</title>
<g id="a_node8"><a xlink:title=" ">
<polygon fill="#e0e0e0" stroke="#999999" points="341.5,-19 311.5,-19 311.5,0 341.5,0 341.5,-19"/>
<text text-anchor="middle" x="326.5" y="-7" font-family="Helvetica,sans-Serif" font-size="10.00">set</text>
</a>
</g>
</g>
<!-- Node2&#45;&gt;Node8 -->
<g id="edge7" class="edge">
<title>Node2&#45;&gt;Node8</title>
<path fill="none" stroke="#63b8ff" d="M304.79,-54.75C308.31,-47.57 313.41,-37.18 317.78,-28.27"/>
<polygon fill="#63b8ff" stroke="#63b8ff" points="321.02,-29.61 322.29,-19.09 314.74,-26.53 321.02,-29.61"/>
</g>
<!-- Node9 -->
<g id="node9" class="node">
<title>Node9</title>
<g id="a_node9"><a xlink:title=" ">
<polygon fill="#e0e0e0" stroke="#999999" points="401,-19 360,-19 360,0 401,0 401,-19"/>
<text text-anchor="middle" x="380.5" y="-7" font-family="Helvetica,sans-Serif" font-size="10.00">string</text>
</a>
</g>
</g>
<!-- Node2&#45;&gt;Node9 -->
<g id="edge8" class="edge">
<title>Node2&#45;&gt;Node9</title>
<path fill="none" stroke="#63b8ff" d="M313.35,-54.98C325.64,-46.84 344.41,-34.41 358.98,-24.76"/>
<polygon fill="#63b8ff" stroke="#63b8ff" points="361.01,-27.61 367.41,-19.17 357.14,-21.78 361.01,-27.61"/>
</g>
<!-- Node10 -->
<g id="node10" class="node">
<title>Node10</title>
<g id="a_node10"><a xlink:title=" ">
<polygon fill="#e0e0e0" stroke="#999999" points="475.5,-19 419.5,-19 419.5,0 475.5,0 475.5,-19"/>
<text text-anchor="middle" x="447.5" y="-7" font-family="Helvetica,sans-Serif" font-size="10.00">algorithm</text>
</a>
</g>
</g>
<!-- Node2&#45;&gt;Node10 -->
<g id="edge9" class="edge">
<title>Node2&#45;&gt;Node10</title>
<path fill="none" stroke="#63b8ff" d="M324.12,-54.98C348.4,-46.23 386.45,-32.51 413.87,-22.62"/>
<polygon fill="#63b8ff" stroke="#63b8ff" points="415.23,-25.85 423.45,-19.17 412.86,-19.27 415.23,-25.85"/>
</g>
<!-- Node11 -->
<g id="node11" class="node">
<title>Node11</title>
<g id="a_node11"><a xlink:title=" ">
<polygon fill="#e0e0e0" stroke="#999999" points="545.5,-19 493.5,-19 493.5,0 545.5,0 545.5,-19"/>
<text text-anchor="middle" x="519.5" y="-7" font-family="Helvetica,sans-Serif" font-size="10.00">memory</text>
</a>
</g>
</g>
<!-- Node2&#45;&gt;Node11 -->
<g id="edge10" class="edge">
<title>Node2&#45;&gt;Node11</title>
<path fill="none" stroke="#63b8ff" d="M335.78,-54.98C370.79,-46.52 426.27,-33.11 483.23,-19.31"/>
<polygon fill="#63b8ff" stroke="#63b8ff" points="484.23,-22.66 493.13,-16.91 482.58,-15.86 484.23,-22.66"/>
</g>
<!-- Node12 -->
<g id="node12" class="node">
<title>Node12</title>
<g id="a_node12"><a xlink:title=" ">
<polygon fill="#e0e0e0" stroke="#999999" points="623,-19 564,-19 564,0 623,0 623,-19"/>
<text text-anchor="middle" x="593.5" y="-7" font-family="Helvetica,sans-Serif" font-size="10.00">functional</text>
</a>
</g>
</g>
<!-- Node2&#45;&gt;Node12 -->
<g id="edge11" class="edge">
<title>Node2&#45;&gt;Node12</title>
<path fill="none" stroke="#63b8ff" d="M353.15,-54.92C402.4,-46.76 478.23,-33.81 553.57,-19.11"/>
<polygon fill="#63b8ff" stroke="#63b8ff" points="554.58,-22.48 563.72,-17.12 553.23,-15.61 554.58,-22.48"/>
</g>
<!-- Node13&#45;&gt;Node2 -->
<g id="edge13" class="edge">
<title>Node13&#45;&gt;Node2</title>
<path fill="none" stroke="#63b8ff" d="M411.6,-164.66C391.02,-146.3 343.43,-103.81 317.72,-80.87"/>
<polygon fill="#63b8ff" stroke="#63b8ff" points="319.99,-78.21 310.2,-74.16 315.33,-83.43 319.99,-78.21"/>
</g>
<!-- Node14 -->
<g id="node14" class="node">
<title>Node14</title>
<g id="a_node14"><a xlink:href="../../db/def/fmt_8h.html" target="_top" xlink:title="Wrapper for either system&#45;installed or local headers for fmt.">
<polygon fill="white" stroke="#666666" points="559.5,-129 461.5,-129 461.5,-110 559.5,-110 559.5,-129"/>
<text text-anchor="middle" x="510.5" y="-117" font-family="Helvetica,sans-Serif" font-size="10.00">cantera/base/fmt.h</text>
</a>
</g>
</g>
<!-- Node13&#45;&gt;Node14 -->
<g id="edge14" class="edge">
<title>Node13&#45;&gt;Node14</title>
<path fill="none" stroke="#63b8ff" d="M435.8,-164.98C449.6,-156.77 470.74,-144.18 487.01,-134.49"/>
<polygon fill="#63b8ff" stroke="#63b8ff" points="489.14,-137.29 495.94,-129.17 485.56,-131.28 489.14,-137.29"/>
</g>
<!-- Node17 -->
<g id="node17" class="node">
<title>Node17</title>
<g id="a_node17"><a xlink:title=" ">
<polygon fill="#e0e0e0" stroke="#999999" points="443,-129 384,-129 384,-110 443,-110 443,-129"/>
<text text-anchor="middle" x="413.5" y="-117" font-family="Helvetica,sans-Serif" font-size="10.00">exception</text>
</a>
</g>
</g>
<!-- Node13&#45;&gt;Node17 -->
<g id="edge18" class="edge">
<title>Node13&#45;&gt;Node17</title>
<path fill="none" stroke="#63b8ff" d="M420.18,-164.75C419.13,-157.8 417.63,-147.85 416.31,-139.13"/>
<polygon fill="#63b8ff" stroke="#63b8ff" points="419.75,-138.45 414.8,-129.09 412.83,-139.5 419.75,-138.45"/>
</g>
<!-- Node14&#45;&gt;Node2 -->
<g id="edge15" class="edge">
<title>Node14&#45;&gt;Node2</title>
<path fill="none" stroke="#63b8ff" d="M476.76,-109.98C440.82,-100.91 383.78,-86.52 344.37,-76.57"/>
<polygon fill="#63b8ff" stroke="#63b8ff" points="345.06,-73.14 334.5,-74.08 343.34,-79.92 345.06,-73.14"/>
</g>
<!-- Node15 -->
<g id="node15" class="node">
<title>Node15</title>
<g id="a_node15"><a xlink:title=" ">
<polygon fill="#e0e0e0" stroke="#999999" points="680.5,-74 558.5,-74 558.5,-55 680.5,-55 680.5,-74"/>
<text text-anchor="middle" x="619.5" y="-62" font-family="Helvetica,sans-Serif" font-size="10.00">cantera/ext/fmt/format.h</text>
</a>
</g>
</g>
<!-- Node14&#45;&gt;Node15 -->
<g id="edge16" class="edge">
<title>Node14&#45;&gt;Node15</title>
<path fill="none" stroke="#63b8ff" d="M528.01,-109.98C545.47,-101.5 572.51,-88.35 592.67,-78.54"/>
<polygon fill="#63b8ff" stroke="#63b8ff" points="594.21,-81.69 601.67,-74.17 591.14,-75.4 594.21,-81.69"/>
</g>
<!-- Node16 -->
<g id="node16" class="node">
<title>Node16</title>
<g id="a_node16"><a xlink:title=" ">
<polygon fill="#e0e0e0" stroke="#999999" points="540,-74 411,-74 411,-55 540,-55 540,-74"/>
<text text-anchor="middle" x="475.5" y="-62" font-family="Helvetica,sans-Serif" font-size="10.00">cantera/ext/fmt/ostream.h</text>
</a>
</g>
</g>
<!-- Node14&#45;&gt;Node16 -->
<g id="edge17" class="edge">
<title>Node14&#45;&gt;Node16</title>
<path fill="none" stroke="#63b8ff" d="M504.72,-109.75C499.88,-102.42 492.82,-91.73 486.86,-82.7"/>
<polygon fill="#63b8ff" stroke="#63b8ff" points="489.6,-80.5 481.17,-74.09 483.76,-84.36 489.6,-80.5"/>
</g>
<!-- Node18&#45;&gt;Node2 -->
<g id="edge20" class="edge">
<title>Node18&#45;&gt;Node2</title>
<path fill="none" stroke="#63b8ff" d="M275.07,-164.72C268.12,-152.33 257.75,-129.08 264.5,-110 268.25,-99.41 275.71,-89.49 282.87,-81.71"/>
<polygon fill="#63b8ff" stroke="#63b8ff" points="285.78,-83.76 290.34,-74.19 280.81,-78.82 285.78,-83.76"/>
</g>
<!-- Node19 -->
<g id="node19" class="node">
<title>Node19</title>
<g id="a_node19"><a xlink:title=" ">
<polygon fill="#e0e0e0" stroke="#999999" points="327.5,-129 273.5,-129 273.5,-110 327.5,-110 327.5,-129"/>
<text text-anchor="middle" x="300.5" y="-117" font-family="Helvetica,sans-Serif" font-size="10.00">iostream</text>
</a>
</g>
</g>
<!-- Node18&#45;&gt;Node19 -->
<g id="edge21" class="edge">
<title>Node18&#45;&gt;Node19</title>
<path fill="none" stroke="#63b8ff" d="M283.8,-164.75C286.48,-157.65 290.35,-147.4 293.69,-138.56"/>
<polygon fill="#63b8ff" stroke="#63b8ff" points="297,-139.68 297.26,-129.09 290.45,-137.21 297,-139.68"/>
</g>
</g>
</svg>
