<?xml version="1.0" encoding="UTF-8" standalone="no"?>
<!DOCTYPE svg PUBLIC "-//W3C//DTD SVG 1.1//EN"
 "http://www.w3.org/Graphics/SVG/1.1/DTD/svg11.dtd">
<!-- Generated by graphviz version 2.50.0 (0)
 -->
<!-- Title: vcs_defs.h Pages: 1 -->
<svg width="497pt" height="196pt"
 viewBox="0.00 0.00 496.50 196.00" xmlns="http://www.w3.org/2000/svg" xmlns:xlink="http://www.w3.org/1999/xlink">
<g id="graph0" class="graph" transform="scale(1 1) rotate(0) translate(4 192)">
<title>vcs_defs.h</title>
<polygon fill="white" stroke="transparent" points="-4,4 -4,-192 492.5,-192 492.5,4 -4,4"/>
<!-- Node1 -->
<g id="node1" class="node">
<title>Node1</title>
<g id="a_node1"><a xlink:title="Defines and definitions within the vcs package.">
<polygon fill="#bfbfbf" stroke="black" points="311.5,-168.5 311.5,-187.5 376.5,-187.5 376.5,-168.5 311.5,-168.5"/>
<text text-anchor="middle" x="344" y="-175.5" font-family="Helvetica,sans-Serif" font-size="10.00">vcs_defs.h</text>
</a>
</g>
</g>
<!-- Node2 -->
<g id="node2" class="node">
<title>Node2</title>
<g id="a_node2"><a xlink:href="../../d4/d51/vcs__solve_8h.html" target="_top" xlink:title="Header file for the internal object that holds the vcs equilibrium problem (see Class VCS_SOLVE and C...">
<polygon fill="white" stroke="black" points="199.5,-112.5 199.5,-131.5 268.5,-131.5 268.5,-112.5 199.5,-112.5"/>
<text text-anchor="middle" x="234" y="-119.5" font-family="Helvetica,sans-Serif" font-size="10.00">vcs_solve.h</text>
</a>
</g>
</g>
<!-- Node1&#45;&gt;Node2 -->
<g id="edge1" class="edge">
<title>Node1&#45;&gt;Node2</title>
<path fill="none" stroke="midnightblue" d="M317.24,-163.86C296.84,-153.85 269.33,-140.35 251.63,-131.65"/>
<polygon fill="midnightblue" stroke="midnightblue" points="315.81,-167.06 326.33,-168.32 318.89,-160.78 315.81,-167.06"/>
</g>
<!-- Node9 -->
<g id="node9" class="node">
<title>Node9</title>
<g id="a_node9"><a xlink:href="../../d0/d1f/vcs__species__thermo_8h.html" target="_top" xlink:title=" ">
<polygon fill="white" stroke="black" points="286.5,-112.5 286.5,-131.5 401.5,-131.5 401.5,-112.5 286.5,-112.5"/>
<text text-anchor="middle" x="344" y="-119.5" font-family="Helvetica,sans-Serif" font-size="10.00">vcs_species_thermo.h</text>
</a>
</g>
</g>
<!-- Node1&#45;&gt;Node9 -->
<g id="edge8" class="edge">
<title>Node1&#45;&gt;Node9</title>
<path fill="none" stroke="midnightblue" d="M344,-157.8C344,-148.91 344,-138.78 344,-131.75"/>
<polygon fill="midnightblue" stroke="midnightblue" points="340.5,-158.08 344,-168.08 347.5,-158.08 340.5,-158.08"/>
</g>
<!-- Node10 -->
<g id="node10" class="node">
<title>Node10</title>
<g id="a_node10"><a xlink:href="../../da/ddf/vcs__util_8cpp.html" target="_top" xlink:title="Internal definitions for utility functions for the VCSnonideal package.">
<polygon fill="white" stroke="black" points="419.5,-112.5 419.5,-131.5 488.5,-131.5 488.5,-112.5 419.5,-112.5"/>
<text text-anchor="middle" x="454" y="-119.5" font-family="Helvetica,sans-Serif" font-size="10.00">vcs_util.cpp</text>
</a>
</g>
</g>
<!-- Node1&#45;&gt;Node10 -->
<g id="edge13" class="edge">
<title>Node1&#45;&gt;Node10</title>
<path fill="none" stroke="midnightblue" d="M370.76,-163.86C391.16,-153.85 418.67,-140.35 436.37,-131.65"/>
<polygon fill="midnightblue" stroke="midnightblue" points="369.11,-160.78 361.67,-168.32 372.19,-167.06 369.11,-160.78"/>
</g>
<!-- Node3 -->
<g id="node3" class="node">
<title>Node3</title>
<g id="a_node3"><a xlink:href="../../d1/dc3/vcs__MultiPhaseEquil_8h.html" target="_top" xlink:title="Interface class for the vcsnonlinear solver.">
<polygon fill="white" stroke="black" points="0,-56.5 0,-75.5 116,-75.5 116,-56.5 0,-56.5"/>
<text text-anchor="middle" x="58" y="-63.5" font-family="Helvetica,sans-Serif" font-size="10.00">vcs_MultiPhaseEquil.h</text>
</a>
</g>
</g>
<!-- Node2&#45;&gt;Node3 -->
<g id="edge2" class="edge">
<title>Node2&#45;&gt;Node3</title>
<path fill="none" stroke="midnightblue" d="M196.31,-109.44C163.13,-99.26 115.57,-84.66 85.76,-75.52"/>
<polygon fill="midnightblue" stroke="midnightblue" points="195.53,-112.86 206.11,-112.44 197.58,-106.16 195.53,-112.86"/>
</g>
<!-- Node6 -->
<g id="node6" class="node">
<title>Node6</title>
<g id="a_node6"><a xlink:href="../../dc/d27/vcs__VolPhase_8cpp.html" target="_top" xlink:title=" ">
<polygon fill="white" stroke="black" points="134,-56.5 134,-75.5 232,-75.5 232,-56.5 134,-56.5"/>
<text text-anchor="middle" x="183" y="-63.5" font-family="Helvetica,sans-Serif" font-size="10.00">vcs_VolPhase.cpp</text>
</a>
</g>
</g>
<!-- Node2&#45;&gt;Node6 -->
<g id="edge5" class="edge">
<title>Node2&#45;&gt;Node6</title>
<path fill="none" stroke="midnightblue" d="M218.62,-104.72C209.63,-95.2 198.64,-83.56 191.26,-75.75"/>
<polygon fill="midnightblue" stroke="midnightblue" points="216.17,-107.22 225.58,-112.08 221.26,-102.41 216.17,-107.22"/>
</g>
<!-- Node7 -->
<g id="node7" class="node">
<title>Node7</title>
<g id="a_node7"><a xlink:href="../../dc/d88/vcs__solve_8cpp.html" target="_top" xlink:title=" ">
<polygon fill="white" stroke="black" points="250,-56.5 250,-75.5 330,-75.5 330,-56.5 250,-56.5"/>
<text text-anchor="middle" x="290" y="-63.5" font-family="Helvetica,sans-Serif" font-size="10.00">vcs_solve.cpp</text>
</a>
</g>
</g>
<!-- Node2&#45;&gt;Node7 -->
<g id="edge6" class="edge">
<title>Node2&#45;&gt;Node7</title>
<path fill="none" stroke="midnightblue" d="M250.33,-105.25C260.26,-95.67 272.59,-83.79 280.84,-75.83"/>
<polygon fill="midnightblue" stroke="midnightblue" points="247.77,-102.86 243,-112.32 252.63,-107.9 247.77,-102.86"/>
</g>
<!-- Node8 -->
<g id="node8" class="node">
<title>Node8</title>
<g id="a_node8"><a xlink:href="../../d7/dec/vcs__solve__TP_8cpp.html" target="_top" xlink:title="Implementation file that contains the main algorithm for finding an equilibrium.">
<polygon fill="white" stroke="black" points="348,-56.5 348,-75.5 444,-75.5 444,-56.5 348,-56.5"/>
<text text-anchor="middle" x="396" y="-63.5" font-family="Helvetica,sans-Serif" font-size="10.00">vcs_solve_TP.cpp</text>
</a>
</g>
</g>
<!-- Node2&#45;&gt;Node8 -->
<g id="edge7" class="edge">
<title>Node2&#45;&gt;Node8</title>
<path fill="none" stroke="midnightblue" d="M269.48,-109.17C299.99,-99 343.24,-84.59 370.45,-75.52"/>
<polygon fill="midnightblue" stroke="midnightblue" points="268.05,-105.96 259.67,-112.44 270.26,-112.6 268.05,-105.96"/>
</g>
<!-- Node4 -->
<g id="node4" class="node">
<title>Node4</title>
<g id="a_node4"><a xlink:href="../../df/d2b/MultiPhase_8cpp.html" target="_top" xlink:title="Definitions for the MultiPhase object that is used to set up multiphase equilibrium problems (see Cla...">
<polygon fill="white" stroke="black" points="16,-0.5 16,-19.5 100,-19.5 100,-0.5 16,-0.5"/>
<text text-anchor="middle" x="58" y="-7.5" font-family="Helvetica,sans-Serif" font-size="10.00">MultiPhase.cpp</text>
</a>
</g>
</g>
<!-- Node3&#45;&gt;Node4 -->
<g id="edge3" class="edge">
<title>Node3&#45;&gt;Node4</title>
<path fill="none" stroke="midnightblue" d="M58,-45.8C58,-36.91 58,-26.78 58,-19.75"/>
<polygon fill="midnightblue" stroke="midnightblue" points="54.5,-46.08 58,-56.08 61.5,-46.08 54.5,-46.08"/>
</g>
<!-- Node5 -->
<g id="node5" class="node">
<title>Node5</title>
<g id="a_node5"><a xlink:href="../../dc/d00/vcs__MultiPhaseEquil_8cpp.html" target="_top" xlink:title="Driver routine for the VCSnonideal equilibrium solver package.">
<polygon fill="white" stroke="black" points="263.5,-0.5 263.5,-19.5 390.5,-19.5 390.5,-0.5 263.5,-0.5"/>
<text text-anchor="middle" x="327" y="-7.5" font-family="Helvetica,sans-Serif" font-size="10.00">vcs_MultiPhaseEquil.cpp</text>
</a>
</g>
</g>
<!-- Node3&#45;&gt;Node5 -->
<g id="edge4" class="edge">
<title>Node3&#45;&gt;Node5</title>
<path fill="none" stroke="midnightblue" d="M110.44,-54.47C161.28,-44.27 237.44,-28.98 284.58,-19.52"/>
<polygon fill="midnightblue" stroke="midnightblue" points="109.74,-51.04 100.62,-56.44 111.12,-57.91 109.74,-51.04"/>
</g>
<!-- Node9&#45;&gt;Node5 -->
<g id="edge9" class="edge">
<title>Node9&#45;&gt;Node5</title>
<path fill="none" stroke="midnightblue" d="M397.84,-109.74C433.82,-99.58 471.45,-82.18 453,-56 438.68,-35.68 414.32,-24.49 390.81,-18.34"/>
<polygon fill="midnightblue" stroke="midnightblue" points="396.55,-106.46 387.78,-112.41 398.34,-113.22 396.55,-106.46"/>
</g>
<!-- Node9&#45;&gt;Node6 -->
<g id="edge10" class="edge">
<title>Node9&#45;&gt;Node6</title>
<path fill="none" stroke="midnightblue" d="M308.74,-109.17C278.42,-99 235.43,-84.59 208.39,-75.52"/>
<polygon fill="midnightblue" stroke="midnightblue" points="307.9,-112.58 318.49,-112.44 310.12,-105.95 307.9,-112.58"/>
</g>
<!-- Node9&#45;&gt;Node7 -->
<g id="edge11" class="edge">
<title>Node9&#45;&gt;Node7</title>
<path fill="none" stroke="midnightblue" d="M328,-105C318.43,-95.43 306.64,-83.64 298.75,-75.75"/>
<polygon fill="midnightblue" stroke="midnightblue" points="325.54,-107.49 335.08,-112.08 330.49,-102.54 325.54,-107.49"/>
</g>
<!-- Node9&#45;&gt;Node8 -->
<g id="edge12" class="edge">
<title>Node9&#45;&gt;Node8</title>
<path fill="none" stroke="midnightblue" d="M359.68,-104.72C368.84,-95.2 380.05,-83.56 387.57,-75.75"/>
<polygon fill="midnightblue" stroke="midnightblue" points="357,-102.45 352.59,-112.08 362.04,-107.31 357,-102.45"/>
</g>
</g>
</svg>
