<?xml version="1.0" encoding="UTF-8" standalone="no"?>
<!DOCTYPE svg PUBLIC "-//W3C//DTD SVG 1.1//EN"
 "http://www.w3.org/Graphics/SVG/1.1/DTD/svg11.dtd">
<!-- Generated by graphviz version 2.50.0 (0)
 -->
<!-- Title: MixTransport.cpp Pages: 1 -->
<!--zoomable 364 -->
<svg id="main" version="1.1" xmlns="http://www.w3.org/2000/svg" xmlns:xlink="http://www.w3.org/1999/xlink" xml:space="preserve" onload="init(evt)">
<style type="text/css"><![CDATA[
.edge:hover path { stroke: red; }
.edge:hover polygon { stroke: red; fill: red; }
]]></style>
<script type="text/javascript"><![CDATA[
var edges = document.getElementsByTagName('g');
if (edges && edges.length) {
  for (var i=0;i<edges.length;i++) {
    if (edges[i].id.substr(0,4)=='edge') {
      edges[i].setAttribute('class','edge');
    }
  }
}
]]></script>
        <defs>
                <circle id="rim" cx="0" cy="0" r="7"/>
                <circle id="rim2" cx="0" cy="0" r="3.5"/>
                <g id="zoomPlus">
                        <use xlink:href="#rim" fill="#404040">
                                <set attributeName="fill" to="#808080" begin="zoomplus.mouseover" end="zoomplus.mouseout"/>
                        </use>
                        <path d="M-4,0h8M0,-4v8" fill="none" stroke="white" stroke-width="1.5" pointer-events="none"/>
                </g>
                <g id="zoomMin">
                        <use xlink:href="#rim" fill="#404040">
                                <set attributeName="fill" to="#808080" begin="zoomminus.mouseover" end="zoomminus.mouseout"/>
                        </use>
                        <path d="M-4,0h8" fill="none" stroke="white" stroke-width="1.5" pointer-events="none"/>
                </g>
                <g id="dirArrow">
                        <path fill="none" stroke="white" stroke-width="1.5" d="M0,-3.0v7 M-2.5,-0.5L0,-3.0L2.5,-0.5"/>
                </g>
               <g id="resetDef">
                       <use xlink:href="#rim2" fill="#404040">
                               <set attributeName="fill" to="#808080" begin="reset.mouseover" end="reset.mouseout"/>
                       </use>
               </g>
        </defs>

<script type="text/javascript">
var viewWidth = 1046;
var viewHeight = 364;
var sectionId = 'dynsection-0';
</script>
<script xlink:href="../../svgpan.js"/>
<svg id="graph" class="graph">
<g id="viewport">
<title>MixTransport.cpp</title>
<polygon fill="white" stroke="transparent" points="-4,4 -4,-360 1042,-360 1042,4 -4,4"/>
<!-- Node1 -->
<g id="node1" class="node">
<title>Node1</title>
<g id="a_node1"><a xlink:title="Mixture&#45;averaged transport properties for ideal gas mixtures.">
<polygon fill="#bfbfbf" stroke="black" points="793.5,-336.5 793.5,-355.5 885.5,-355.5 885.5,-336.5 793.5,-336.5"/>
<text text-anchor="middle" x="839.5" y="-343.5" font-family="Helvetica,sans-Serif" font-size="10.00">MixTransport.cpp</text>
</a>
</g>
</g>
<!-- Node2 -->
<g id="node2" class="node">
<title>Node2</title>
<g id="a_node2"><a xlink:href="../../d5/d57/MixTransport_8h.html" target="_top" xlink:title="Headers for the MixTransport object, which models transport properties in ideal gas solutions using a...">
<polygon fill="white" stroke="black" points="680.5,-224.5 680.5,-243.5 838.5,-243.5 838.5,-224.5 680.5,-224.5"/>
<text text-anchor="middle" x="759.5" y="-231.5" font-family="Helvetica,sans-Serif" font-size="10.00">cantera/transport/MixTransport.h</text>
</a>
</g>
</g>
<!-- Node1&#45;&gt;Node2 -->
<g id="edge1" class="edge">
<title>Node1&#45;&gt;Node2</title>
<path fill="none" stroke="midnightblue" d="M833.22,-336.37C820.02,-318.22 789.17,-275.8 771.86,-251.99"/>
<polygon fill="midnightblue" stroke="midnightblue" points="774.46,-249.62 765.75,-243.59 768.8,-253.74 774.46,-249.62"/>
</g>
<!-- Node22 -->
<g id="node9" class="node">
<title>Node22</title>
<g id="a_node9"><a xlink:href="../../dd/dc3/stringUtils_8h.html" target="_top" xlink:title="Contains declarations for string manipulation functions within Cantera.">
<polygon fill="white" stroke="black" points="802.5,-168.5 802.5,-187.5 930.5,-187.5 930.5,-168.5 802.5,-168.5"/>
<text text-anchor="middle" x="866.5" y="-175.5" font-family="Helvetica,sans-Serif" font-size="10.00">cantera/base/stringUtils.h</text>
</a>
</g>
</g>
<!-- Node1&#45;&gt;Node22 -->
<g id="edge12" class="edge">
<title>Node1&#45;&gt;Node22</title>
<path fill="none" stroke="midnightblue" d="M840.95,-336.08C845.2,-309.95 857.68,-233.21 863.48,-197.58"/>
<polygon fill="midnightblue" stroke="midnightblue" points="866.96,-198 865.11,-187.57 860.05,-196.88 866.96,-198"/>
</g>
<!-- Node23 -->
<g id="node10" class="node">
<title>Node23</title>
<g id="a_node10"><a xlink:href="../../d7/d01/ThermoPhase_8h.html" target="_top" xlink:title="Header file for class ThermoPhase, the base class for phases with thermodynamic properties,...">
<polygon fill="white" stroke="black" points="366.5,-280.5 366.5,-299.5 520.5,-299.5 520.5,-280.5 366.5,-280.5"/>
<text text-anchor="middle" x="443.5" y="-287.5" font-family="Helvetica,sans-Serif" font-size="10.00">cantera/thermo/ThermoPhase.h</text>
</a>
</g>
</g>
<!-- Node1&#45;&gt;Node23 -->
<g id="edge14" class="edge">
<title>Node1&#45;&gt;Node23</title>
<path fill="none" stroke="midnightblue" d="M793.3,-338.7C725.11,-329.4 596.9,-311.92 516.08,-300.9"/>
<polygon fill="midnightblue" stroke="midnightblue" points="516.36,-297.4 505.98,-299.52 515.41,-304.34 516.36,-297.4"/>
</g>
<!-- Node37 -->
<g id="node19" class="node">
<title>Node37</title>
<g id="a_node19"><a xlink:href="../../de/df0/utilities_8h.html" target="_top" xlink:title="Various templated functions that carry out common vector operations (see Templated Utility Functions)...">
<polygon fill="white" stroke="black" points="901,-280.5 901,-299.5 1016,-299.5 1016,-280.5 901,-280.5"/>
<text text-anchor="middle" x="958.5" y="-287.5" font-family="Helvetica,sans-Serif" font-size="10.00">cantera/base/utilities.h</text>
</a>
</g>
</g>
<!-- Node1&#45;&gt;Node37 -->
<g id="edge33" class="edge">
<title>Node1&#45;&gt;Node37</title>
<path fill="none" stroke="midnightblue" d="M858.36,-336.44C877.77,-327.64 908.23,-313.81 930.46,-303.72"/>
<polygon fill="midnightblue" stroke="midnightblue" points="932.07,-306.84 939.73,-299.52 929.18,-300.46 932.07,-306.84"/>
</g>
<!-- Node3 -->
<g id="node3" class="node">
<title>Node3</title>
<g id="a_node3"><a xlink:href="../../d1/d2e/GasTransport_8h.html" target="_top" xlink:title=" ">
<polygon fill="white" stroke="black" points="662.5,-168.5 662.5,-187.5 746.5,-187.5 746.5,-168.5 662.5,-168.5"/>
<text text-anchor="middle" x="704.5" y="-175.5" font-family="Helvetica,sans-Serif" font-size="10.00">GasTransport.h</text>
</a>
</g>
</g>
<!-- Node2&#45;&gt;Node3 -->
<g id="edge2" class="edge">
<title>Node2&#45;&gt;Node3</title>
<path fill="none" stroke="midnightblue" d="M750.42,-224.08C742.33,-216.14 730.3,-204.34 720.59,-194.8"/>
<polygon fill="midnightblue" stroke="midnightblue" points="723,-192.26 713.41,-187.75 718.1,-197.25 723,-192.26"/>
</g>
<!-- Node19 -->
<g id="node7" class="node">
<title>Node19</title>
<g id="a_node7"><a xlink:href="../../d1/df7/DenseMatrix_8h.html" target="_top" xlink:title="Headers for the DenseMatrix object, which deals with dense rectangular matrices and description of th...">
<polygon fill="white" stroke="black" points="715.5,-112.5 715.5,-131.5 873.5,-131.5 873.5,-112.5 715.5,-112.5"/>
<text text-anchor="middle" x="794.5" y="-119.5" font-family="Helvetica,sans-Serif" font-size="10.00">cantera/numerics/DenseMatrix.h</text>
</a>
</g>
</g>
<!-- Node2&#45;&gt;Node19 -->
<g id="edge11" class="edge">
<title>Node2&#45;&gt;Node19</title>
<path fill="none" stroke="midnightblue" d="M762.25,-224.37C767.92,-206.54 781.04,-165.3 788.69,-141.27"/>
<polygon fill="midnightblue" stroke="midnightblue" points="792.07,-142.18 791.77,-131.59 785.4,-140.06 792.07,-142.18"/>
</g>
<!-- Node4 -->
<g id="node4" class="node">
<title>Node4</title>
<g id="a_node4"><a xlink:href="../../da/dbb/TransportBase_8h.html" target="_top" xlink:title="Headers for the Transport object, which is the virtual base class for all transport property evaluato...">
<polygon fill="white" stroke="black" points="608,-112.5 608,-131.5 697,-131.5 697,-112.5 608,-112.5"/>
<text text-anchor="middle" x="652.5" y="-119.5" font-family="Helvetica,sans-Serif" font-size="10.00">TransportBase.h</text>
</a>
</g>
</g>
<!-- Node3&#45;&gt;Node4 -->
<g id="edge3" class="edge">
<title>Node3&#45;&gt;Node4</title>
<path fill="none" stroke="midnightblue" d="M695.91,-168.08C688.34,-160.22 677.12,-148.57 667.99,-139.08"/>
<polygon fill="midnightblue" stroke="midnightblue" points="670.38,-136.53 660.93,-131.75 665.34,-141.38 670.38,-136.53"/>
</g>
<!-- Node3&#45;&gt;Node19 -->
<g id="edge6" class="edge">
<title>Node3&#45;&gt;Node19</title>
<path fill="none" stroke="midnightblue" d="M718.96,-168.32C733,-159.9 754.55,-146.97 771.04,-137.07"/>
<polygon fill="midnightblue" stroke="midnightblue" points="773.3,-139.8 780.08,-131.65 769.7,-133.8 773.3,-139.8"/>
</g>
<!-- Node5 -->
<g id="node5" class="node">
<title>Node5</title>
<g id="a_node5"><a xlink:href="../../d9/ddc/ct__defs_8h.html" target="_top" xlink:title="This file contains definitions of constants, types and terms that are used in internal routines and a...">
<polygon fill="white" stroke="red" points="600.5,-0.5 600.5,-19.5 716.5,-19.5 716.5,-0.5 600.5,-0.5"/>
<text text-anchor="middle" x="658.5" y="-7.5" font-family="Helvetica,sans-Serif" font-size="10.00">cantera/base/ct_defs.h</text>
</a>
</g>
</g>
<!-- Node4&#45;&gt;Node5 -->
<g id="edge4" class="edge">
<title>Node4&#45;&gt;Node5</title>
<path fill="none" stroke="midnightblue" d="M652.97,-112.37C653.94,-94.62 656.17,-53.67 657.49,-29.6"/>
<polygon fill="midnightblue" stroke="midnightblue" points="660.98,-29.77 658.03,-19.59 653.99,-29.39 660.98,-29.77"/>
</g>
<!-- Node14 -->
<g id="node6" class="node">
<title>Node14</title>
<g id="a_node6"><a xlink:href="../../db/d98/ctexceptions_8h.html" target="_top" xlink:title="Definitions for the classes that are thrown when Cantera experiences an error condition (also contain...">
<polygon fill="white" stroke="red" points="471.5,-56.5 471.5,-75.5 611.5,-75.5 611.5,-56.5 471.5,-56.5"/>
<text text-anchor="middle" x="541.5" y="-63.5" font-family="Helvetica,sans-Serif" font-size="10.00">cantera/base/ctexceptions.h</text>
</a>
</g>
</g>
<!-- Node4&#45;&gt;Node14 -->
<g id="edge5" class="edge">
<title>Node4&#45;&gt;Node14</title>
<path fill="none" stroke="midnightblue" d="M634.67,-112.32C616.78,-103.62 589.02,-90.12 568.45,-80.11"/>
<polygon fill="midnightblue" stroke="midnightblue" points="569.81,-76.88 559.29,-75.65 566.75,-83.18 569.81,-76.88"/>
</g>
<!-- Node19&#45;&gt;Node5 -->
<g id="edge7" class="edge">
<title>Node19&#45;&gt;Node5</title>
<path fill="none" stroke="midnightblue" d="M782.37,-112.26C770.13,-103.35 750.76,-89.03 734.5,-76 713.92,-59.51 691.01,-39.71 675.78,-26.33"/>
<polygon fill="midnightblue" stroke="midnightblue" points="677.98,-23.61 668.17,-19.62 673.35,-28.86 677.98,-23.61"/>
</g>
<!-- Node19&#45;&gt;Node14 -->
<g id="edge8" class="edge">
<title>Node19&#45;&gt;Node14</title>
<path fill="none" stroke="midnightblue" d="M754.41,-112.44C710.18,-103 638.96,-87.8 591.22,-77.61"/>
<polygon fill="midnightblue" stroke="midnightblue" points="591.91,-74.18 581.4,-75.52 590.45,-81.03 591.91,-74.18"/>
</g>
<!-- Node20 -->
<g id="node8" class="node">
<title>Node20</title>
<g id="a_node8"><a xlink:href="../../df/dd0/Array_8h.html" target="_top" xlink:title="Header file for class Cantera::Array2D.">
<polygon fill="white" stroke="red" points="743.5,-56.5 743.5,-75.5 849.5,-75.5 849.5,-56.5 743.5,-56.5"/>
<text text-anchor="middle" x="796.5" y="-63.5" font-family="Helvetica,sans-Serif" font-size="10.00">cantera/base/Array.h</text>
</a>
</g>
</g>
<!-- Node19&#45;&gt;Node20 -->
<g id="edge9" class="edge">
<title>Node19&#45;&gt;Node20</title>
<path fill="none" stroke="midnightblue" d="M794.83,-112.08C795.09,-105.01 795.47,-94.86 795.8,-85.99"/>
<polygon fill="midnightblue" stroke="midnightblue" points="799.3,-85.87 796.18,-75.75 792.31,-85.61 799.3,-85.87"/>
</g>
<!-- Node20&#45;&gt;Node5 -->
<g id="edge10" class="edge">
<title>Node20&#45;&gt;Node5</title>
<path fill="none" stroke="midnightblue" d="M774.63,-56.44C751.72,-47.48 715.52,-33.31 689.63,-23.18"/>
<polygon fill="midnightblue" stroke="midnightblue" points="690.85,-19.9 680.26,-19.52 688.3,-26.42 690.85,-19.9"/>
</g>
<!-- Node22&#45;&gt;Node5 -->
<g id="edge13" class="edge">
<title>Node22&#45;&gt;Node5</title>
<path fill="none" stroke="midnightblue" d="M870.61,-168.28C874.56,-159.38 880.24,-145.07 882.5,-132 888.52,-97.09 885.74,-78.65 858.5,-56 838.59,-39.45 776.73,-27.18 727.01,-19.67"/>
<polygon fill="midnightblue" stroke="midnightblue" points="727.33,-16.18 716.93,-18.18 726.31,-23.1 727.33,-16.18"/>
</g>
<!-- Node24 -->
<g id="node11" class="node">
<title>Node24</title>
<g id="a_node11"><a xlink:href="../../da/d84/Phase_8h.html" target="_top" xlink:title="Header file for class Phase.">
<polygon fill="white" stroke="black" points="322,-112.5 322,-131.5 375,-131.5 375,-112.5 322,-112.5"/>
<text text-anchor="middle" x="348.5" y="-119.5" font-family="Helvetica,sans-Serif" font-size="10.00">Phase.h</text>
</a>
</g>
</g>
<!-- Node23&#45;&gt;Node24 -->
<g id="edge15" class="edge">
<title>Node23&#45;&gt;Node24</title>
<path fill="none" stroke="midnightblue" d="M438.39,-280.08C423.31,-253.72 378.76,-175.88 358.61,-140.66"/>
<polygon fill="midnightblue" stroke="midnightblue" points="361.41,-138.51 353.4,-131.57 355.33,-141.99 361.41,-138.51"/>
</g>
<!-- Node28 -->
<g id="node15" class="node">
<title>Node28</title>
<g id="a_node15"><a xlink:href="../../d6/d7a/MultiSpeciesThermo_8h.html" target="_top" xlink:title="Header for a general species thermodynamic property manager for a phase (see MultiSpeciesThermo).">
<polygon fill="white" stroke="black" points="478.5,-224.5 478.5,-243.5 592.5,-243.5 592.5,-224.5 478.5,-224.5"/>
<text text-anchor="middle" x="535.5" y="-231.5" font-family="Helvetica,sans-Serif" font-size="10.00">MultiSpeciesThermo.h</text>
</a>
</g>
</g>
<!-- Node23&#45;&gt;Node28 -->
<g id="edge22" class="edge">
<title>Node23&#45;&gt;Node28</title>
<path fill="none" stroke="midnightblue" d="M458.28,-280.32C472.77,-271.82 495.07,-258.73 511.99,-248.8"/>
<polygon fill="midnightblue" stroke="midnightblue" points="513.9,-251.74 520.76,-243.65 510.36,-245.7 513.9,-251.74"/>
</g>
<!-- Node30 -->
<g id="node17" class="node">
<title>Node30</title>
<g id="a_node17"><a xlink:href="../../dd/d2a/AnyMap_8h.html" target="_top" xlink:title=" ">
<polygon fill="white" stroke="red" points="393.5,-112.5 393.5,-131.5 513.5,-131.5 513.5,-112.5 393.5,-112.5"/>
<text text-anchor="middle" x="453.5" y="-119.5" font-family="Helvetica,sans-Serif" font-size="10.00">cantera/base/AnyMap.h</text>
</a>
</g>
</g>
<!-- Node23&#45;&gt;Node30 -->
<g id="edge32" class="edge">
<title>Node23&#45;&gt;Node30</title>
<path fill="none" stroke="midnightblue" d="M444.04,-280.08C445.61,-253.95 450.23,-177.21 452.38,-141.58"/>
<polygon fill="midnightblue" stroke="midnightblue" points="455.88,-141.76 452.98,-131.57 448.89,-141.34 455.88,-141.76"/>
</g>
<!-- Node31 -->
<g id="node18" class="node">
<title>Node31</title>
<g id="a_node18"><a xlink:href="../../da/d58/Units_8h.html" target="_top" xlink:title="Header for unit conversion utilities, which are used to translate user input from input files (See In...">
<polygon fill="white" stroke="black" points="308,-56.5 308,-75.5 415,-75.5 415,-56.5 308,-56.5"/>
<text text-anchor="middle" x="361.5" y="-63.5" font-family="Helvetica,sans-Serif" font-size="10.00">cantera/base/Units.h</text>
</a>
</g>
</g>
<!-- Node23&#45;&gt;Node31 -->
<g id="edge31" class="edge">
<title>Node23&#45;&gt;Node31</title>
<path fill="none" stroke="midnightblue" d="M432.1,-280.32C404.93,-258.81 336.79,-199.85 312.5,-132 309.5,-123.63 308.92,-120.14 312.5,-112 317.89,-99.73 328.46,-89.34 338.4,-81.65"/>
<polygon fill="midnightblue" stroke="midnightblue" points="340.75,-84.27 346.84,-75.6 336.67,-78.58 340.75,-84.27"/>
</g>
<!-- Node24&#45;&gt;Node14 -->
<g id="edge16" class="edge">
<title>Node24&#45;&gt;Node14</title>
<path fill="none" stroke="midnightblue" d="M375.34,-113.49C408.04,-104.34 463.61,-88.79 501.4,-78.22"/>
<polygon fill="midnightblue" stroke="midnightblue" points="502.39,-81.58 511.08,-75.51 500.51,-74.84 502.39,-81.58"/>
</g>
<!-- Node25 -->
<g id="node12" class="node">
<title>Node25</title>
<g id="a_node12"><a xlink:href="../../d9/dda/Elements_8h.html" target="_top" xlink:title="Contains the getElementWeight function and the definitions of element constraint types.">
<polygon fill="white" stroke="black" points="155.5,-56.5 155.5,-75.5 289.5,-75.5 289.5,-56.5 155.5,-56.5"/>
<text text-anchor="middle" x="222.5" y="-63.5" font-family="Helvetica,sans-Serif" font-size="10.00">cantera/thermo/Elements.h</text>
</a>
</g>
</g>
<!-- Node24&#45;&gt;Node25 -->
<g id="edge17" class="edge">
<title>Node24&#45;&gt;Node25</title>
<path fill="none" stroke="midnightblue" d="M328.53,-112.44C307.89,-103.6 275.44,-89.69 251.87,-79.59"/>
<polygon fill="midnightblue" stroke="midnightblue" points="252.94,-76.24 242.37,-75.52 250.18,-82.67 252.94,-76.24"/>
</g>
<!-- Node26 -->
<g id="node13" class="node">
<title>Node26</title>
<g id="a_node13"><a xlink:href="../../d6/df6/ValueCache_8h.html" target="_top" xlink:title=" ">
<polygon fill="white" stroke="black" points="0,-56.5 0,-75.5 137,-75.5 137,-56.5 0,-56.5"/>
<text text-anchor="middle" x="68.5" y="-63.5" font-family="Helvetica,sans-Serif" font-size="10.00">cantera/base/ValueCache.h</text>
</a>
</g>
</g>
<!-- Node24&#45;&gt;Node26 -->
<g id="edge19" class="edge">
<title>Node24&#45;&gt;Node26</title>
<path fill="none" stroke="midnightblue" d="M321.91,-115.87C276.35,-107.09 182.54,-88.99 122.72,-77.46"/>
<polygon fill="midnightblue" stroke="midnightblue" points="123.18,-73.98 112.69,-75.52 121.85,-80.85 123.18,-73.98"/>
</g>
<!-- Node25&#45;&gt;Node5 -->
<g id="edge18" class="edge">
<title>Node25&#45;&gt;Node5</title>
<path fill="none" stroke="midnightblue" d="M289.67,-56.68C371.3,-46.57 508.28,-29.61 590.35,-19.44"/>
<polygon fill="midnightblue" stroke="midnightblue" points="590.83,-22.91 600.33,-18.2 589.97,-15.96 590.83,-22.91"/>
</g>
<!-- Node26&#45;&gt;Node5 -->
<g id="edge20" class="edge">
<title>Node26&#45;&gt;Node5</title>
<path fill="none" stroke="midnightblue" d="M137.39,-56.95C140.47,-56.62 143.52,-56.3 146.5,-56 305.33,-39.86 492.24,-24.3 590.4,-16.39"/>
<polygon fill="midnightblue" stroke="midnightblue" points="590.79,-19.87 600.48,-15.58 590.23,-12.89 590.79,-19.87"/>
</g>
<!-- Node27 -->
<g id="node14" class="node">
<title>Node27</title>
<g id="a_node14"><a xlink:title=" ">
<polygon fill="white" stroke="#bfbfbf" points="48.5,-0.5 48.5,-19.5 88.5,-19.5 88.5,-0.5 48.5,-0.5"/>
<text text-anchor="middle" x="68.5" y="-7.5" font-family="Helvetica,sans-Serif" font-size="10.00">limits</text>
</a>
</g>
</g>
<!-- Node26&#45;&gt;Node27 -->
<g id="edge21" class="edge">
<title>Node26&#45;&gt;Node27</title>
<path fill="none" stroke="midnightblue" d="M68.5,-56.08C68.5,-49.01 68.5,-38.86 68.5,-29.99"/>
<polygon fill="midnightblue" stroke="midnightblue" points="72,-29.75 68.5,-19.75 65,-29.75 72,-29.75"/>
</g>
<!-- Node29 -->
<g id="node16" class="node">
<title>Node29</title>
<g id="a_node16"><a xlink:href="../../d4/d87/SpeciesThermoInterpType_8h.html" target="_top" xlink:title="Pure Virtual Base class for individual species reference state thermodynamic managers and text for th...">
<polygon fill="white" stroke="black" points="472,-168.5 472,-187.5 611,-187.5 611,-168.5 472,-168.5"/>
<text text-anchor="middle" x="541.5" y="-175.5" font-family="Helvetica,sans-Serif" font-size="10.00">SpeciesThermoInterpType.h</text>
</a>
</g>
</g>
<!-- Node28&#45;&gt;Node29 -->
<g id="edge23" class="edge">
<title>Node28&#45;&gt;Node29</title>
<path fill="none" stroke="midnightblue" d="M536.49,-224.08C537.29,-216.93 538.43,-206.64 539.42,-197.69"/>
<polygon fill="midnightblue" stroke="midnightblue" points="542.9,-198.08 540.53,-187.75 535.94,-197.3 542.9,-198.08"/>
</g>
<!-- Node29&#45;&gt;Node5 -->
<g id="edge24" class="edge">
<title>Node29&#45;&gt;Node5</title>
<path fill="none" stroke="midnightblue" d="M548.89,-168.38C563.38,-151.31 596.24,-111.73 620.5,-76 631.03,-60.49 641.69,-41.95 649.03,-28.65"/>
<polygon fill="midnightblue" stroke="midnightblue" points="652.23,-30.09 653.94,-19.64 646.08,-26.75 652.23,-30.09"/>
</g>
<!-- Node29&#45;&gt;Node14 -->
<g id="edge25" class="edge">
<title>Node29&#45;&gt;Node14</title>
<path fill="none" stroke="midnightblue" d="M541.5,-168.37C541.5,-150.62 541.5,-109.67 541.5,-85.6"/>
<polygon fill="midnightblue" stroke="midnightblue" points="545,-85.59 541.5,-75.59 538,-85.59 545,-85.59"/>
</g>
<!-- Node29&#45;&gt;Node30 -->
<g id="edge26" class="edge">
<title>Node29&#45;&gt;Node30</title>
<path fill="none" stroke="midnightblue" d="M527.36,-168.32C513.63,-159.9 492.56,-146.97 476.44,-137.07"/>
<polygon fill="midnightblue" stroke="midnightblue" points="477.96,-133.9 467.6,-131.65 474.3,-139.87 477.96,-133.9"/>
</g>
<!-- Node30&#45;&gt;Node5 -->
<g id="edge27" class="edge">
<title>Node30&#45;&gt;Node5</title>
<path fill="none" stroke="midnightblue" d="M451.88,-112.14C449.89,-98.28 448.34,-71.46 462.5,-56 479.65,-37.27 540.6,-25.3 590.04,-18.45"/>
<polygon fill="midnightblue" stroke="midnightblue" points="590.62,-21.9 600.07,-17.1 589.7,-14.96 590.62,-21.9"/>
</g>
<!-- Node30&#45;&gt;Node14 -->
<g id="edge28" class="edge">
<title>Node30&#45;&gt;Node14</title>
<path fill="none" stroke="midnightblue" d="M467.64,-112.32C481.37,-103.9 502.44,-90.97 518.56,-81.07"/>
<polygon fill="midnightblue" stroke="midnightblue" points="520.7,-83.87 527.4,-75.65 517.04,-77.9 520.7,-83.87"/>
</g>
<!-- Node30&#45;&gt;Node31 -->
<g id="edge29" class="edge">
<title>Node30&#45;&gt;Node31</title>
<path fill="none" stroke="midnightblue" d="M438.72,-112.32C424.23,-103.82 401.93,-90.73 385.01,-80.8"/>
<polygon fill="midnightblue" stroke="midnightblue" points="386.64,-77.7 376.24,-75.65 383.1,-83.74 386.64,-77.7"/>
</g>
<!-- Node31&#45;&gt;Node5 -->
<g id="edge30" class="edge">
<title>Node31&#45;&gt;Node5</title>
<path fill="none" stroke="midnightblue" d="M408.56,-56.44C460.91,-46.92 545.49,-31.55 601.54,-21.36"/>
<polygon fill="midnightblue" stroke="midnightblue" points="602.45,-24.75 611.66,-19.52 601.19,-17.86 602.45,-24.75"/>
</g>
<!-- Node37&#45;&gt;Node5 -->
<g id="edge34" class="edge">
<title>Node37&#45;&gt;Node5</title>
<path fill="none" stroke="midnightblue" d="M958.5,-280.44C958.5,-261.94 958.5,-216.81 958.5,-179 958.5,-179 958.5,-179 958.5,-121 958.5,-76.55 922.47,-75.45 882.5,-56 833.59,-32.2 772.81,-20.98 726.9,-15.7"/>
<polygon fill="midnightblue" stroke="midnightblue" points="727.07,-12.2 716.75,-14.6 726.32,-19.16 727.07,-12.2"/>
</g>
<!-- Node38 -->
<g id="node20" class="node">
<title>Node38</title>
<g id="a_node20"><a xlink:title=" ">
<polygon fill="white" stroke="#bfbfbf" points="987,-224.5 987,-243.5 1038,-243.5 1038,-224.5 987,-224.5"/>
<text text-anchor="middle" x="1012.5" y="-231.5" font-family="Helvetica,sans-Serif" font-size="10.00">numeric</text>
</a>
</g>
</g>
<!-- Node37&#45;&gt;Node38 -->
<g id="edge35" class="edge">
<title>Node37&#45;&gt;Node38</title>
<path fill="none" stroke="midnightblue" d="M967.42,-280.08C975.28,-272.22 986.93,-260.57 996.42,-251.08"/>
<polygon fill="midnightblue" stroke="midnightblue" points="999.15,-253.3 1003.75,-243.75 994.2,-248.35 999.15,-253.3"/>
</g>
</g>
</svg>
        <g id="navigator" transform="translate(0 0)" fill="#404254">
                <rect fill="#f2f5e9" fill-opacity="0.5" stroke="#606060" stroke-width=".5" x="0" y="0" width="60" height="60"/>
                <use id="zoomplus" xlink:href="#zoomPlus" x="17" y="9" onmousedown="handleZoom(evt,'in')"/>
                <use id="zoomminus" xlink:href="#zoomMin" x="42" y="9" onmousedown="handleZoom(evt,'out')"/>
                <use id="reset" xlink:href="#resetDef" x="30" y="36" onmousedown="handleReset()"/>
                <g id="arrowUp" xlink:href="#dirArrow" transform="translate(30 24)" onmousedown="handlePan(0,-1)">
                  <use xlink:href="#rim" fill="#404040">
                        <set attributeName="fill" to="#808080" begin="arrowUp.mouseover" end="arrowUp.mouseout"/>
                  </use>
                  <path fill="none" stroke="white" stroke-width="1.5" d="M0,-3.0v7 M-2.5,-0.5L0,-3.0L2.5,-0.5"/>
                </g>
                <g id="arrowRight" xlink:href="#dirArrow" transform="rotate(90) translate(36 -43)" onmousedown="handlePan(1,0)">
                  <use xlink:href="#rim" fill="#404040">
                        <set attributeName="fill" to="#808080" begin="arrowRight.mouseover" end="arrowRight.mouseout"/>
                  </use>
                  <path fill="none" stroke="white" stroke-width="1.5" d="M0,-3.0v7 M-2.5,-0.5L0,-3.0L2.5,-0.5"/>
                </g>
                <g id="arrowDown" xlink:href="#dirArrow" transform="rotate(180) translate(-30 -48)" onmousedown="handlePan(0,1)">
                  <use xlink:href="#rim" fill="#404040">
                        <set attributeName="fill" to="#808080" begin="arrowDown.mouseover" end="arrowDown.mouseout"/>
                  </use>
                  <path fill="none" stroke="white" stroke-width="1.5" d="M0,-3.0v7 M-2.5,-0.5L0,-3.0L2.5,-0.5"/>
                </g>
                <g id="arrowLeft" xlink:href="#dirArrow" transform="rotate(270) translate(-36 17)" onmousedown="handlePan(-1,0)">
                  <use xlink:href="#rim" fill="#404040">
                        <set attributeName="fill" to="#808080" begin="arrowLeft.mouseover" end="arrowLeft.mouseout"/>
                  </use>
                  <path fill="none" stroke="white" stroke-width="1.5" d="M0,-3.0v7 M-2.5,-0.5L0,-3.0L2.5,-0.5"/>
                </g>
        </g>
        <svg viewBox="0 0 15 15" width="100%" height="30px" preserveAspectRatio="xMaxYMin meet">
         <g id="arrow_out" transform="scale(0.3 0.3)">
          <a xlink:href="MixTransport_8cpp__incl_org.svg" target="_base">
           <rect id="button" ry="5" rx="5" y="6" x="6" height="38" width="38"
                fill="#f2f5e9" fill-opacity="0.5" stroke="#606060" stroke-width="1.0"/>
           <path id="arrow"
             d="M 11.500037,31.436501 C 11.940474,20.09759 22.043105,11.32322 32.158766,21.979434 L 37.068811,17.246167 C 37.068811,17.246167 37.088388,32 37.088388,32 L 22.160133,31.978069 C 22.160133,31.978069 26.997745,27.140456 26.997745,27.140456 C 18.528582,18.264221 13.291696,25.230495 11.500037,31.436501 z"
             style="fill:#404040;"/>
          </a>
         </g>
        </svg>
</svg>
