<?xml version="1.0" encoding="UTF-8" standalone="no"?>
<!DOCTYPE svg PUBLIC "-//W3C//DTD SVG 1.1//EN"
 "http://www.w3.org/Graphics/SVG/1.1/DTD/svg11.dtd">
<!-- Generated by graphviz version 2.50.0 (0)
 -->
<!-- Title: zerodim.h Pages: 1 -->
<!--zoomable 397 -->
<svg id="main" version="1.1" xmlns="http://www.w3.org/2000/svg" xmlns:xlink="http://www.w3.org/1999/xlink" xml:space="preserve" onload="init(evt)">
<style type="text/css"><![CDATA[
.edge:hover path { stroke: red; }
.edge:hover polygon { stroke: red; fill: red; }
]]></style>
<script type="text/javascript"><![CDATA[
var edges = document.getElementsByTagName('g');
if (edges && edges.length) {
  for (var i=0;i<edges.length;i++) {
    if (edges[i].id.substr(0,4)=='edge') {
      edges[i].setAttribute('class','edge');
    }
  }
}
]]></script>
        <defs>
                <circle id="rim" cx="0" cy="0" r="7"/>
                <circle id="rim2" cx="0" cy="0" r="3.5"/>
                <g id="zoomPlus">
                        <use xlink:href="#rim" fill="#404040">
                                <set attributeName="fill" to="#808080" begin="zoomplus.mouseover" end="zoomplus.mouseout"/>
                        </use>
                        <path d="M-4,0h8M0,-4v8" fill="none" stroke="white" stroke-width="1.5" pointer-events="none"/>
                </g>
                <g id="zoomMin">
                        <use xlink:href="#rim" fill="#404040">
                                <set attributeName="fill" to="#808080" begin="zoomminus.mouseover" end="zoomminus.mouseout"/>
                        </use>
                        <path d="M-4,0h8" fill="none" stroke="white" stroke-width="1.5" pointer-events="none"/>
                </g>
                <g id="dirArrow">
                        <path fill="none" stroke="white" stroke-width="1.5" d="M0,-3.0v7 M-2.5,-0.5L0,-3.0L2.5,-0.5"/>
                </g>
               <g id="resetDef">
                       <use xlink:href="#rim2" fill="#404040">
                               <set attributeName="fill" to="#808080" begin="reset.mouseover" end="reset.mouseout"/>
                       </use>
               </g>
        </defs>

<script type="text/javascript">
var viewWidth = 1288;
var viewHeight = 397;
var sectionId = 'dynsection-0';
</script>
<script xlink:href="../../svgpan.js"/>
<svg id="graph" class="graph">
<g id="viewport">
<title>zerodim.h</title>
<polygon fill="white" stroke="transparent" points="-4,4 -4,-393 1284.01,-393 1284.01,4 -4,4"/>
<!-- Node1 -->
<g id="node1" class="node">
<title>Node1</title>
<g id="a_node1"><a xlink:title=" ">
<polygon fill="#bfbfbf" stroke="black" points="604.1,-369.5 604.1,-388.5 663.1,-388.5 663.1,-369.5 604.1,-369.5"/>
<text text-anchor="middle" x="633.6" y="-376.5" font-family="Helvetica,sans-Serif" font-size="10.00">zerodim.h</text>
</a>
</g>
</g>
<!-- Node2 -->
<g id="node2" class="node">
<title>Node2</title>
<g id="a_node2"><a xlink:href="../../d8/d69/ReactorNet_8h.html" target="_top" xlink:title=" ">
<polygon fill="white" stroke="black" points="22.6,-241 22.6,-260 162.6,-260 162.6,-241 22.6,-241"/>
<text text-anchor="middle" x="92.6" y="-248" font-family="Helvetica,sans-Serif" font-size="10.00">cantera/zeroD/ReactorNet.h</text>
</a>
</g>
</g>
<!-- Node1&#45;&gt;Node2 -->
<g id="edge1" class="edge">
<title>Node1&#45;&gt;Node2</title>
<path fill="none" stroke="midnightblue" d="M603.79,-378.01C490.25,-377.72 89.38,-373.81 51.6,-333 33.69,-313.65 56.42,-284.99 74.5,-267.32"/>
<polygon fill="midnightblue" stroke="midnightblue" points="77.39,-269.42 82.32,-260.05 72.62,-264.3 77.39,-269.42"/>
</g>
<!-- Node3 -->
<g id="node3" class="node">
<title>Node3</title>
<g id="a_node3"><a xlink:href="../../d2/d25/Reactor_8h.html" target="_top" xlink:title=" ">
<polygon fill="white" stroke="black" points="200.1,-174 200.1,-193 259.1,-193 259.1,-174 200.1,-174"/>
<text text-anchor="middle" x="229.6" y="-181" font-family="Helvetica,sans-Serif" font-size="10.00">Reactor.h</text>
</a>
</g>
</g>
<!-- Node1&#45;&gt;Node3 -->
<g id="edge24" class="edge">
<title>Node1&#45;&gt;Node3</title>
<path fill="none" stroke="midnightblue" d="M603.73,-377.54C489.9,-375.53 87.46,-366.11 41.6,-333 4.88,-306.48 -14.55,-270.49 13.6,-235 35.18,-207.8 133.48,-193.87 189.75,-188"/>
<polygon fill="midnightblue" stroke="midnightblue" points="190.14,-191.48 199.74,-187 189.44,-184.52 190.14,-191.48"/>
</g>
<!-- Node21 -->
<g id="node9" class="node">
<title>Node21</title>
<g id="a_node9"><a xlink:href="../../d6/d45/Reservoir_8h.html" target="_top" xlink:title=" ">
<polygon fill="white" stroke="black" points="421.1,-241 421.1,-260 552.1,-260 552.1,-241 421.1,-241"/>
<text text-anchor="middle" x="486.6" y="-248" font-family="Helvetica,sans-Serif" font-size="10.00">cantera/zeroD/Reservoir.h</text>
</a>
</g>
</g>
<!-- Node1&#45;&gt;Node21 -->
<g id="edge11" class="edge">
<title>Node1&#45;&gt;Node21</title>
<path fill="none" stroke="midnightblue" d="M631.34,-369.34C626.91,-353.93 615.72,-321.52 595.6,-302 576.83,-283.78 550.29,-271.29 528.09,-263.29"/>
<polygon fill="midnightblue" stroke="midnightblue" points="529.16,-259.96 518.56,-260.03 526.89,-266.58 529.16,-259.96"/>
</g>
<!-- Node30 -->
<g id="node16" class="node">
<title>Node30</title>
<g id="a_node16"><a xlink:href="../../d7/d40/FlowReactor_8h.html" target="_top" xlink:title=" ">
<polygon fill="white" stroke="black" points="60.6,-308 60.6,-327 204.6,-327 204.6,-308 60.6,-308"/>
<text text-anchor="middle" x="132.6" y="-315" font-family="Helvetica,sans-Serif" font-size="10.00">cantera/zeroD/FlowReactor.h</text>
</a>
</g>
</g>
<!-- Node1&#45;&gt;Node30 -->
<g id="edge25" class="edge">
<title>Node1&#45;&gt;Node30</title>
<path fill="none" stroke="midnightblue" d="M604.09,-375.4C536.01,-369.28 362.72,-352.94 218.6,-333 209.46,-331.73 199.8,-330.25 190.38,-328.72"/>
<polygon fill="midnightblue" stroke="midnightblue" points="190.73,-325.23 180.29,-327.06 189.59,-332.14 190.73,-325.23"/>
</g>
<!-- Node31 -->
<g id="node17" class="node">
<title>Node31</title>
<g id="a_node17"><a xlink:href="../../d5/dd6/ConstPressureReactor_8h.html" target="_top" xlink:title=" ">
<polygon fill="white" stroke="black" points="218.6,-235.5 218.6,-265.5 364.6,-265.5 364.6,-235.5 218.6,-235.5"/>
<text text-anchor="start" x="226.6" y="-253.5" font-family="Helvetica,sans-Serif" font-size="10.00">cantera/zeroD/ConstPressure</text>
<text text-anchor="middle" x="291.6" y="-242.5" font-family="Helvetica,sans-Serif" font-size="10.00">Reactor.h</text>
</a>
</g>
</g>
<!-- Node1&#45;&gt;Node31 -->
<g id="edge27" class="edge">
<title>Node1&#45;&gt;Node31</title>
<path fill="none" stroke="midnightblue" d="M603.9,-376.73C518.18,-372.76 274.95,-359.26 251.6,-333 235.98,-315.43 252.14,-290.67 268.35,-273.06"/>
<polygon fill="midnightblue" stroke="midnightblue" points="271.22,-275.13 275.69,-265.52 266.21,-270.25 271.22,-275.13"/>
</g>
<!-- Node32 -->
<g id="node18" class="node">
<title>Node32</title>
<g id="a_node18"><a xlink:href="../../db/d07/IdealGasReactor_8h.html" target="_top" xlink:title=" ">
<polygon fill="white" stroke="black" points="424.6,-308 424.6,-327 586.6,-327 586.6,-308 424.6,-308"/>
<text text-anchor="middle" x="505.6" y="-315" font-family="Helvetica,sans-Serif" font-size="10.00">cantera/zeroD/IdealGasReactor.h</text>
</a>
</g>
</g>
<!-- Node1&#45;&gt;Node32 -->
<g id="edge29" class="edge">
<title>Node1&#45;&gt;Node32</title>
<path fill="none" stroke="midnightblue" d="M615.26,-369.48C593.78,-359.49 557.98,-342.85 533.16,-331.31"/>
<polygon fill="midnightblue" stroke="midnightblue" points="534.45,-328.05 523.91,-327.01 531.5,-334.4 534.45,-328.05"/>
</g>
<!-- Node33 -->
<g id="node19" class="node">
<title>Node33</title>
<g id="a_node19"><a xlink:href="../../dd/d76/IdealGasConstPressureReactor_8h_source.html" target="_top" xlink:title=" ">
<polygon fill="white" stroke="black" points="260.6,-302.5 260.6,-332.5 406.6,-332.5 406.6,-302.5 260.6,-302.5"/>
<text text-anchor="start" x="268.6" y="-320.5" font-family="Helvetica,sans-Serif" font-size="10.00">cantera/zeroD/IdealGasConst</text>
<text text-anchor="middle" x="333.6" y="-309.5" font-family="Helvetica,sans-Serif" font-size="10.00">PressureReactor.h</text>
</a>
</g>
</g>
<!-- Node1&#45;&gt;Node33 -->
<g id="edge31" class="edge">
<title>Node1&#45;&gt;Node33</title>
<path fill="none" stroke="midnightblue" d="M604.02,-372.13C560.31,-363.46 476.9,-346.92 414.22,-334.49"/>
<polygon fill="midnightblue" stroke="midnightblue" points="414.84,-331.04 404.35,-332.53 413.47,-337.91 414.84,-331.04"/>
</g>
<!-- Node34 -->
<g id="node20" class="node">
<title>Node34</title>
<g id="a_node20"><a xlink:href="../../de/d80/flowControllers_8h.html" target="_top" xlink:title="Some flow devices derived from class FlowDevice.">
<polygon fill="white" stroke="black" points="956.1,-174 956.1,-193 1111.1,-193 1111.1,-174 956.1,-174"/>
<text text-anchor="middle" x="1033.6" y="-181" font-family="Helvetica,sans-Serif" font-size="10.00">cantera/zeroD/flowControllers.h</text>
</a>
</g>
</g>
<!-- Node1&#45;&gt;Node34 -->
<g id="edge33" class="edge">
<title>Node1&#45;&gt;Node34</title>
<path fill="none" stroke="midnightblue" d="M663.32,-377.48C709.89,-375.57 801.85,-367.34 870.6,-333 936.37,-300.15 995.19,-233.02 1020.48,-201.52"/>
<polygon fill="midnightblue" stroke="midnightblue" points="1023.52,-203.33 1026.96,-193.31 1018.02,-198.99 1023.52,-203.33"/>
</g>
<!-- Node36 -->
<g id="node22" class="node">
<title>Node36</title>
<g id="a_node22"><a xlink:href="../../da/dcb/Wall_8h.html" target="_top" xlink:title="Header file for base class WallBase.">
<polygon fill="white" stroke="black" points="593.6,-241 593.6,-260 701.6,-260 701.6,-241 593.6,-241"/>
<text text-anchor="middle" x="647.6" y="-248" font-family="Helvetica,sans-Serif" font-size="10.00">cantera/zeroD/Wall.h</text>
</a>
</g>
</g>
<!-- Node1&#45;&gt;Node36 -->
<g id="edge39" class="edge">
<title>Node1&#45;&gt;Node36</title>
<path fill="none" stroke="midnightblue" d="M634.57,-369.31C636.81,-348.99 642.45,-298.05 645.53,-270.28"/>
<polygon fill="midnightblue" stroke="midnightblue" points="649.01,-270.58 646.63,-260.26 642.06,-269.81 649.01,-270.58"/>
</g>
<!-- Node37 -->
<g id="node23" class="node">
<title>Node37</title>
<g id="a_node23"><a xlink:href="../../dd/dc9/ReactorSurface_8h.html" target="_top" xlink:title="Header file for class ReactorSurface.">
<polygon fill="white" stroke="black" points="568.6,-174 568.6,-193 726.6,-193 726.6,-174 568.6,-174"/>
<text text-anchor="middle" x="647.6" y="-181" font-family="Helvetica,sans-Serif" font-size="10.00">cantera/zeroD/ReactorSurface.h</text>
</a>
</g>
</g>
<!-- Node1&#45;&gt;Node37 -->
<g id="edge44" class="edge">
<title>Node1&#45;&gt;Node37</title>
<path fill="none" stroke="midnightblue" d="M663.42,-375.6C713.04,-370.91 809.16,-358.67 829.6,-333 878.3,-271.86 752.07,-219.03 685.54,-196.34"/>
<polygon fill="midnightblue" stroke="midnightblue" points="686.39,-192.93 675.8,-193.09 684.17,-199.57 686.39,-192.93"/>
</g>
<!-- Node38 -->
<g id="node24" class="node">
<title>Node38</title>
<g id="a_node24"><a xlink:href="../../d8/d7e/ReactorFactory_8h.html" target="_top" xlink:title=" ">
<polygon fill="white" stroke="black" points="783.1,-174 783.1,-193 938.1,-193 938.1,-174 783.1,-174"/>
<text text-anchor="middle" x="860.6" y="-181" font-family="Helvetica,sans-Serif" font-size="10.00">cantera/zeroD/ReactorFactory.h</text>
</a>
</g>
</g>
<!-- Node1&#45;&gt;Node38 -->
<g id="edge45" class="edge">
<title>Node1&#45;&gt;Node38</title>
<path fill="none" stroke="midnightblue" d="M663.49,-376.05C716.69,-371.92 824.52,-360.32 848.6,-333 880.59,-296.71 872.25,-234.18 865.43,-203.13"/>
<polygon fill="midnightblue" stroke="midnightblue" points="868.79,-202.13 863.06,-193.21 861.98,-203.75 868.79,-202.13"/>
</g>
<!-- Node41 -->
<g id="node27" class="node">
<title>Node41</title>
<g id="a_node27"><a xlink:href="../../d5/d6c/FlowDeviceFactory_8h.html" target="_top" xlink:title=" ">
<polygon fill="white" stroke="black" points="1129.1,-168.5 1129.1,-198.5 1262.1,-198.5 1262.1,-168.5 1129.1,-168.5"/>
<text text-anchor="start" x="1137.1" y="-186.5" font-family="Helvetica,sans-Serif" font-size="10.00">cantera/zeroD/FlowDevice</text>
<text text-anchor="middle" x="1195.6" y="-175.5" font-family="Helvetica,sans-Serif" font-size="10.00">Factory.h</text>
</a>
</g>
</g>
<!-- Node1&#45;&gt;Node41 -->
<g id="edge53" class="edge">
<title>Node1&#45;&gt;Node41</title>
<path fill="none" stroke="midnightblue" d="M663.12,-376.19C714.12,-372.39 821.56,-361.46 907.6,-333 1007.37,-300 1114.87,-236.1 1165.71,-203.96"/>
<polygon fill="midnightblue" stroke="midnightblue" points="1167.68,-206.85 1174.24,-198.53 1163.92,-200.95 1167.68,-206.85"/>
</g>
<!-- Node42 -->
<g id="node28" class="node">
<title>Node42</title>
<g id="a_node28"><a xlink:href="../../d1/d07/WallFactory_8h.html" target="_top" xlink:title=" ">
<polygon fill="white" stroke="black" points="680.6,-308 680.6,-327 820.6,-327 820.6,-308 680.6,-308"/>
<text text-anchor="middle" x="750.6" y="-315" font-family="Helvetica,sans-Serif" font-size="10.00">cantera/zeroD/WallFactory.h</text>
</a>
</g>
</g>
<!-- Node1&#45;&gt;Node42 -->
<g id="edge56" class="edge">
<title>Node1&#45;&gt;Node42</title>
<path fill="none" stroke="midnightblue" d="M650.37,-369.48C669.83,-359.58 702.15,-343.14 724.81,-331.62"/>
<polygon fill="midnightblue" stroke="midnightblue" points="726.54,-334.66 733.87,-327.01 723.37,-328.42 726.54,-334.66"/>
</g>
<!-- Node43 -->
<g id="node29" class="node">
<title>Node43</title>
<g id="a_node29"><a xlink:href="../../d2/d9e/Func1_8h.html" target="_top" xlink:title=" ">
<polygon fill="white" stroke="black" points="976.6,-112.5 976.6,-131.5 1106.6,-131.5 1106.6,-112.5 976.6,-112.5"/>
<text text-anchor="middle" x="1041.6" y="-119.5" font-family="Helvetica,sans-Serif" font-size="10.00">cantera/numerics/Func1.h</text>
</a>
</g>
</g>
<!-- Node1&#45;&gt;Node43 -->
<g id="edge59" class="edge">
<title>Node1&#45;&gt;Node43</title>
<path fill="none" stroke="midnightblue" d="M663.36,-376.56C721.35,-373.18 853.1,-362.64 959.6,-333 1104.99,-292.54 1188.58,-325.02 1271.6,-199 1310.65,-139.73 1198.24,-125.58 1117.1,-122.81"/>
<polygon fill="midnightblue" stroke="midnightblue" points="1116.97,-119.31 1106.88,-122.52 1116.77,-126.31 1116.97,-119.31"/>
</g>
<!-- Node2&#45;&gt;Node3 -->
<g id="edge2" class="edge">
<title>Node2&#45;&gt;Node3</title>
<path fill="none" stroke="midnightblue" d="M110.8,-240.87C134.13,-229.8 174.83,-210.49 202,-197.6"/>
<polygon fill="midnightblue" stroke="midnightblue" points="203.8,-200.62 211.34,-193.17 200.8,-194.29 203.8,-200.62"/>
</g>
<!-- Node20 -->
<g id="node8" class="node">
<title>Node20</title>
<g id="a_node8"><a xlink:href="../../da/d37/FuncEval_8h.html" target="_top" xlink:title=" ">
<polygon fill="white" stroke="black" points="334.6,-112.5 334.6,-131.5 478.6,-131.5 478.6,-112.5 334.6,-112.5"/>
<text text-anchor="middle" x="406.6" y="-119.5" font-family="Helvetica,sans-Serif" font-size="10.00">cantera/numerics/FuncEval.h</text>
</a>
</g>
</g>
<!-- Node2&#45;&gt;Node20 -->
<g id="edge7" class="edge">
<title>Node2&#45;&gt;Node20</title>
<path fill="none" stroke="midnightblue" d="M100.36,-240.76C115.89,-223.86 152.67,-186.69 191.6,-168 217.6,-155.52 287.93,-142.08 341.13,-133.17"/>
<polygon fill="midnightblue" stroke="midnightblue" points="341.89,-136.59 351.19,-131.5 340.75,-129.68 341.89,-136.59"/>
</g>
<!-- Node4 -->
<g id="node4" class="node">
<title>Node4</title>
<g id="a_node4"><a xlink:href="../../d6/df1/ReactorBase_8h.html" target="_top" xlink:title=" ">
<polygon fill="white" stroke="black" points="584.6,-112.5 584.6,-131.5 666.6,-131.5 666.6,-112.5 584.6,-112.5"/>
<text text-anchor="middle" x="625.6" y="-119.5" font-family="Helvetica,sans-Serif" font-size="10.00">ReactorBase.h</text>
</a>
</g>
</g>
<!-- Node3&#45;&gt;Node4 -->
<g id="edge3" class="edge">
<title>Node3&#45;&gt;Node4</title>
<path fill="none" stroke="midnightblue" d="M259.19,-176.78C274,-173.98 292.23,-170.66 308.6,-168 402.15,-152.78 511.71,-137.87 574.46,-129.61"/>
<polygon fill="midnightblue" stroke="midnightblue" points="575.03,-133.07 584.49,-128.3 574.12,-126.13 575.03,-133.07"/>
</g>
<!-- Node5 -->
<g id="node5" class="node">
<title>Node5</title>
<g id="a_node5"><a xlink:href="../../d2/d49/global_8h.html" target="_top" xlink:title="This file contains definitions for utility functions and text for modules, inputfiles,...">
<polygon fill="white" stroke="red" points="716.6,-56.5 716.6,-75.5 826.6,-75.5 826.6,-56.5 716.6,-56.5"/>
<text text-anchor="middle" x="771.6" y="-63.5" font-family="Helvetica,sans-Serif" font-size="10.00">cantera/base/global.h</text>
</a>
</g>
</g>
<!-- Node4&#45;&gt;Node5 -->
<g id="edge4" class="edge">
<title>Node4&#45;&gt;Node5</title>
<path fill="none" stroke="midnightblue" d="M648.74,-112.44C673.09,-103.44 711.61,-89.19 739.03,-79.05"/>
<polygon fill="midnightblue" stroke="midnightblue" points="740.41,-82.27 748.58,-75.52 737.98,-75.7 740.41,-82.27"/>
</g>
<!-- Node18 -->
<g id="node7" class="node">
<title>Node18</title>
<g id="a_node7"><a xlink:href="../../db/d98/ctexceptions_8h.html" target="_top" xlink:title="Definitions for the classes that are thrown when Cantera experiences an error condition (also contain...">
<polygon fill="white" stroke="red" points="558.6,-56.5 558.6,-75.5 698.6,-75.5 698.6,-56.5 558.6,-56.5"/>
<text text-anchor="middle" x="628.6" y="-63.5" font-family="Helvetica,sans-Serif" font-size="10.00">cantera/base/ctexceptions.h</text>
</a>
</g>
</g>
<!-- Node4&#45;&gt;Node18 -->
<g id="edge6" class="edge">
<title>Node4&#45;&gt;Node18</title>
<path fill="none" stroke="midnightblue" d="M626.1,-112.08C626.49,-105.01 627.06,-94.86 627.55,-85.99"/>
<polygon fill="midnightblue" stroke="midnightblue" points="631.06,-85.93 628.12,-75.75 624.07,-85.54 631.06,-85.93"/>
</g>
<!-- Node6 -->
<g id="node6" class="node">
<title>Node6</title>
<g id="a_node6"><a xlink:href="../../d9/ddc/ct__defs_8h.html" target="_top" xlink:title="This file contains definitions of constants, types and terms that are used in internal routines and a...">
<polygon fill="white" stroke="red" points="533.1,-0.5 533.1,-19.5 590.1,-19.5 590.1,-0.5 533.1,-0.5"/>
<text text-anchor="middle" x="561.6" y="-7.5" font-family="Helvetica,sans-Serif" font-size="10.00">ct_defs.h</text>
</a>
</g>
</g>
<!-- Node5&#45;&gt;Node6 -->
<g id="edge5" class="edge">
<title>Node5&#45;&gt;Node6</title>
<path fill="none" stroke="midnightblue" d="M738.33,-56.44C700.77,-46.79 639.77,-31.1 600.16,-20.92"/>
<polygon fill="midnightblue" stroke="midnightblue" points="600.89,-17.49 590.34,-18.39 599.15,-24.27 600.89,-17.49"/>
</g>
<!-- Node20&#45;&gt;Node5 -->
<g id="edge10" class="edge">
<title>Node20&#45;&gt;Node5</title>
<path fill="none" stroke="midnightblue" d="M464.44,-112.44C530.21,-102.71 637.37,-86.86 706.15,-76.68"/>
<polygon fill="midnightblue" stroke="midnightblue" points="707.05,-80.09 716.43,-75.16 706.02,-73.16 707.05,-80.09"/>
</g>
<!-- Node20&#45;&gt;Node6 -->
<g id="edge8" class="edge">
<title>Node20&#45;&gt;Node6</title>
<path fill="none" stroke="midnightblue" d="M395.89,-112.43C380.93,-99.43 357.13,-74.3 371.6,-56 390.11,-32.6 472.96,-20.11 522.94,-14.58"/>
<polygon fill="midnightblue" stroke="midnightblue" points="523.5,-18.04 533.07,-13.51 522.76,-11.08 523.5,-18.04"/>
</g>
<!-- Node20&#45;&gt;Node18 -->
<g id="edge9" class="edge">
<title>Node20&#45;&gt;Node18</title>
<path fill="none" stroke="midnightblue" d="M441.78,-112.44C480.18,-103.1 541.78,-88.12 583.66,-77.93"/>
<polygon fill="midnightblue" stroke="midnightblue" points="584.7,-81.28 593.59,-75.52 583.05,-74.48 584.7,-81.28"/>
</g>
<!-- Node21&#45;&gt;Node4 -->
<g id="edge12" class="edge">
<title>Node21&#45;&gt;Node4</title>
<path fill="none" stroke="midnightblue" d="M491.77,-240.78C501.54,-224.85 524.01,-190.62 549.6,-168 564.07,-155.22 582.68,-144.13 597.87,-136.15"/>
<polygon fill="midnightblue" stroke="midnightblue" points="599.49,-139.26 606.81,-131.61 596.31,-133.02 599.49,-139.26"/>
</g>
<!-- Node22 -->
<g id="node10" class="node">
<title>Node22</title>
<g id="a_node10"><a xlink:href="../../d4/dfa/Solution_8h.html" target="_top" xlink:title=" ">
<polygon fill="white" stroke="black" points="317.1,-174 317.1,-193 436.1,-193 436.1,-174 317.1,-174"/>
<text text-anchor="middle" x="376.6" y="-181" font-family="Helvetica,sans-Serif" font-size="10.00">cantera/base/Solution.h</text>
</a>
</g>
</g>
<!-- Node21&#45;&gt;Node22 -->
<g id="edge13" class="edge">
<title>Node21&#45;&gt;Node22</title>
<path fill="none" stroke="midnightblue" d="M471.77,-240.73C453.3,-229.82 421.53,-211.05 399.82,-198.22"/>
<polygon fill="midnightblue" stroke="midnightblue" points="401.59,-195.2 391.2,-193.13 398.03,-201.23 401.59,-195.2"/>
</g>
<!-- Node22&#45;&gt;Node18 -->
<g id="edge14" class="edge">
<title>Node22&#45;&gt;Node18</title>
<path fill="none" stroke="midnightblue" d="M395.48,-173.97C417.58,-163.97 455.29,-146.86 487.6,-132 506.75,-123.19 511.47,-120.84 530.6,-112 554.16,-101.12 580.93,-88.83 600.53,-79.85"/>
<polygon fill="midnightblue" stroke="midnightblue" points="602.17,-82.95 609.8,-75.6 599.25,-76.58 602.17,-82.95"/>
</g>
<!-- Node23 -->
<g id="node11" class="node">
<title>Node23</title>
<g id="a_node11"><a xlink:href="../../dd/d2a/AnyMap_8h.html" target="_top" xlink:title=" ">
<polygon fill="white" stroke="black" points="196.6,-112.5 196.6,-131.5 316.6,-131.5 316.6,-112.5 196.6,-112.5"/>
<text text-anchor="middle" x="256.6" y="-119.5" font-family="Helvetica,sans-Serif" font-size="10.00">cantera/base/AnyMap.h</text>
</a>
</g>
</g>
<!-- Node22&#45;&gt;Node23 -->
<g id="edge15" class="edge">
<title>Node22&#45;&gt;Node23</title>
<path fill="none" stroke="midnightblue" d="M359.41,-173.98C339.36,-164.03 306,-147.49 282.74,-135.96"/>
<polygon fill="midnightblue" stroke="midnightblue" points="284.28,-132.82 273.76,-131.51 281.17,-139.09 284.28,-132.82"/>
</g>
<!-- Node23&#45;&gt;Node6 -->
<g id="edge16" class="edge">
<title>Node23&#45;&gt;Node6</title>
<path fill="none" stroke="midnightblue" d="M196.57,-119.77C123.08,-116.24 13.41,-103.21 56.6,-56 87.9,-21.79 409.78,-13.41 522.71,-11.51"/>
<polygon fill="midnightblue" stroke="midnightblue" points="523.02,-15.01 532.97,-11.35 522.91,-8.01 523.02,-15.01"/>
</g>
<!-- Node23&#45;&gt;Node18 -->
<g id="edge17" class="edge">
<title>Node23&#45;&gt;Node18</title>
<path fill="none" stroke="midnightblue" d="M315.55,-112.44C381.94,-102.81 489.7,-87.16 559.86,-76.98"/>
<polygon fill="midnightblue" stroke="midnightblue" points="560.54,-80.42 569.93,-75.52 559.54,-73.49 560.54,-80.42"/>
</g>
<!-- Node24 -->
<g id="node12" class="node">
<title>Node24</title>
<g id="a_node12"><a xlink:href="../../da/d58/Units_8h.html" target="_top" xlink:title="Header for unit conversion utilities, which are used to translate user input from input files (See In...">
<polygon fill="white" stroke="black" points="65.1,-56.5 65.1,-75.5 172.1,-75.5 172.1,-56.5 65.1,-56.5"/>
<text text-anchor="middle" x="118.6" y="-63.5" font-family="Helvetica,sans-Serif" font-size="10.00">cantera/base/Units.h</text>
</a>
</g>
</g>
<!-- Node23&#45;&gt;Node24 -->
<g id="edge18" class="edge">
<title>Node23&#45;&gt;Node24</title>
<path fill="none" stroke="midnightblue" d="M234.74,-112.44C211.82,-103.48 175.63,-89.31 149.74,-79.18"/>
<polygon fill="midnightblue" stroke="midnightblue" points="150.96,-75.9 140.37,-75.52 148.4,-82.42 150.96,-75.9"/>
</g>
<!-- Node25 -->
<g id="node13" class="node">
<title>Node25</title>
<g id="a_node13"><a xlink:title=" ">
<polygon fill="white" stroke="#bfbfbf" points="380.1,-56.5 380.1,-75.5 463.1,-75.5 463.1,-56.5 380.1,-56.5"/>
<text text-anchor="middle" x="421.6" y="-63.5" font-family="Helvetica,sans-Serif" font-size="10.00">unordered_map</text>
</a>
</g>
</g>
<!-- Node23&#45;&gt;Node25 -->
<g id="edge20" class="edge">
<title>Node23&#45;&gt;Node25</title>
<path fill="none" stroke="midnightblue" d="M282.75,-112.44C310.63,-103.32 354.95,-88.81 386,-78.65"/>
<polygon fill="midnightblue" stroke="midnightblue" points="387.17,-81.95 395.58,-75.52 384.99,-75.3 387.17,-81.95"/>
</g>
<!-- Node26 -->
<g id="node14" class="node">
<title>Node26</title>
<g id="a_node14"><a xlink:title=" ">
<polygon fill="white" stroke="#bfbfbf" points="481.1,-56.5 481.1,-75.5 540.1,-75.5 540.1,-56.5 481.1,-56.5"/>
<text text-anchor="middle" x="510.6" y="-63.5" font-family="Helvetica,sans-Serif" font-size="10.00">functional</text>
</a>
</g>
</g>
<!-- Node23&#45;&gt;Node26 -->
<g id="edge21" class="edge">
<title>Node23&#45;&gt;Node26</title>
<path fill="none" stroke="midnightblue" d="M299.3,-112.46C340.8,-104.08 405.85,-90.74 470.76,-76.37"/>
<polygon fill="midnightblue" stroke="midnightblue" points="471.75,-79.74 480.75,-74.15 470.23,-72.9 471.75,-79.74"/>
</g>
<!-- Node27 -->
<g id="node15" class="node">
<title>Node27</title>
<g id="a_node15"><a xlink:href="../../da/d4c/AnyMap_8inl_8h.html" target="_top" xlink:title=" ">
<polygon fill="white" stroke="red" points="190.1,-56.5 190.1,-75.5 323.1,-75.5 323.1,-56.5 190.1,-56.5"/>
<text text-anchor="middle" x="256.6" y="-63.5" font-family="Helvetica,sans-Serif" font-size="10.00">cantera/base/AnyMap.inl.h</text>
</a>
</g>
</g>
<!-- Node23&#45;&gt;Node27 -->
<g id="edge22" class="edge">
<title>Node23&#45;&gt;Node27</title>
<path fill="none" stroke="midnightblue" d="M251.44,-112.08C249.93,-104.93 249.5,-94.64 250.15,-85.69"/>
<polygon fill="midnightblue" stroke="midnightblue" points="253.62,-86.13 251.47,-75.75 246.68,-85.2 253.62,-86.13"/>
</g>
<!-- Node24&#45;&gt;Node6 -->
<g id="edge19" class="edge">
<title>Node24&#45;&gt;Node6</title>
<path fill="none" stroke="midnightblue" d="M172.21,-57.25C175.39,-56.82 178.54,-56.4 181.6,-56 306.04,-39.75 453.73,-22.98 522.61,-15.3"/>
<polygon fill="midnightblue" stroke="midnightblue" points="523.42,-18.74 532.97,-14.15 522.65,-11.78 523.42,-18.74"/>
</g>
<!-- Node27&#45;&gt;Node23 -->
<g id="edge23" class="edge">
<title>Node27&#45;&gt;Node23</title>
<path fill="none" stroke="midnightblue" d="M261.73,-75.75C263.26,-82.86 263.71,-93.14 263.08,-102.1"/>
<polygon fill="midnightblue" stroke="midnightblue" points="259.6,-101.71 261.77,-112.08 266.54,-102.62 259.6,-101.71"/>
</g>
<!-- Node30&#45;&gt;Node3 -->
<g id="edge26" class="edge">
<title>Node30&#45;&gt;Node3</title>
<path fill="none" stroke="midnightblue" d="M139.33,-308C147.19,-298.03 160.52,-280.95 171.6,-266 187.86,-244.08 206.02,-218.36 217.61,-201.76"/>
<polygon fill="midnightblue" stroke="midnightblue" points="220.77,-203.35 223.62,-193.15 215.03,-199.35 220.77,-203.35"/>
</g>
<!-- Node31&#45;&gt;Node3 -->
<g id="edge28" class="edge">
<title>Node31&#45;&gt;Node3</title>
<path fill="none" stroke="midnightblue" d="M278.15,-235.4C268.39,-225.16 255.16,-211.3 244.98,-200.62"/>
<polygon fill="midnightblue" stroke="midnightblue" points="247.33,-198.01 237.9,-193.19 242.27,-202.85 247.33,-198.01"/>
</g>
<!-- Node32&#45;&gt;Node3 -->
<g id="edge30" class="edge">
<title>Node32&#45;&gt;Node3</title>
<path fill="none" stroke="midnightblue" d="M487.59,-307.89C468.45,-298.48 437.58,-282.53 412.6,-266 394.14,-253.78 392.99,-245.7 373.6,-235 340.16,-216.54 298.7,-202.85 268.87,-194.42"/>
<polygon fill="midnightblue" stroke="midnightblue" points="269.8,-191.04 259.23,-191.76 267.94,-197.79 269.8,-191.04"/>
</g>
<!-- Node33&#45;&gt;Node31 -->
<g id="edge32" class="edge">
<title>Node33&#45;&gt;Node31</title>
<path fill="none" stroke="midnightblue" d="M324.49,-302.4C319.15,-294.13 312.28,-283.51 306.21,-274.1"/>
<polygon fill="midnightblue" stroke="midnightblue" points="309.07,-272.08 300.7,-265.58 303.19,-275.88 309.07,-272.08"/>
</g>
<!-- Node34&#45;&gt;Node18 -->
<g id="edge38" class="edge">
<title>Node34&#45;&gt;Node18</title>
<path fill="none" stroke="midnightblue" d="M1000.65,-173.93C967.7,-164.96 915.84,-149.72 872.6,-132 854.58,-124.61 851.94,-118.59 833.6,-112 789.03,-95.98 736.87,-84.63 696.32,-77.33"/>
<polygon fill="midnightblue" stroke="midnightblue" points="696.73,-73.85 686.27,-75.57 695.51,-80.75 696.73,-73.85"/>
</g>
<!-- Node35 -->
<g id="node21" class="node">
<title>Node35</title>
<g id="a_node21"><a xlink:href="../../d5/dff/FlowDevice_8h.html" target="_top" xlink:title=" ">
<polygon fill="white" stroke="black" points="881.1,-112.5 881.1,-131.5 958.1,-131.5 958.1,-112.5 881.1,-112.5"/>
<text text-anchor="middle" x="919.6" y="-119.5" font-family="Helvetica,sans-Serif" font-size="10.00">FlowDevice.h</text>
</a>
</g>
</g>
<!-- Node34&#45;&gt;Node35 -->
<g id="edge34" class="edge">
<title>Node34&#45;&gt;Node35</title>
<path fill="none" stroke="midnightblue" d="M1017.27,-173.98C998.39,-164.12 967.1,-147.79 945.03,-136.27"/>
<polygon fill="midnightblue" stroke="midnightblue" points="946.39,-133.03 935.91,-131.51 943.15,-139.24 946.39,-133.03"/>
</g>
<!-- Node35&#45;&gt;Node5 -->
<g id="edge36" class="edge">
<title>Node35&#45;&gt;Node5</title>
<path fill="none" stroke="midnightblue" d="M896.15,-112.44C871.47,-103.44 832.42,-89.19 804.63,-79.05"/>
<polygon fill="midnightblue" stroke="midnightblue" points="805.54,-75.66 794.94,-75.52 803.14,-82.23 805.54,-75.66"/>
</g>
<!-- Node35&#45;&gt;Node6 -->
<g id="edge35" class="edge">
<title>Node35&#45;&gt;Node6</title>
<path fill="none" stroke="midnightblue" d="M919.41,-112.24C918.57,-98.02 914.71,-70.08 897.6,-56 853.01,-19.29 679.3,-12.42 600.66,-11.21"/>
<polygon fill="midnightblue" stroke="midnightblue" points="600.26,-7.71 590.22,-11.08 600.17,-14.7 600.26,-7.71"/>
</g>
<!-- Node35&#45;&gt;Node18 -->
<g id="edge37" class="edge">
<title>Node35&#45;&gt;Node18</title>
<path fill="none" stroke="midnightblue" d="M880.96,-113.83C830.64,-104.49 742.33,-88.1 684.65,-77.4"/>
<polygon fill="midnightblue" stroke="midnightblue" points="685.08,-73.92 674.61,-75.54 683.8,-80.8 685.08,-73.92"/>
</g>
<!-- Node36&#45;&gt;Node4 -->
<g id="edge43" class="edge">
<title>Node36&#45;&gt;Node4</title>
<path fill="none" stroke="midnightblue" d="M617.39,-240.94C597.12,-233.44 571.96,-220.34 559.6,-199 552.7,-187.08 553.17,-180.18 559.6,-168 567.03,-153.95 581.02,-143.47 594.22,-136.17"/>
<polygon fill="midnightblue" stroke="midnightblue" points="595.83,-139.28 603.15,-131.62 592.65,-133.04 595.83,-139.28"/>
</g>
<!-- Node36&#45;&gt;Node18 -->
<g id="edge40" class="edge">
<title>Node36&#45;&gt;Node18</title>
<path fill="none" stroke="midnightblue" d="M611.14,-240.94C589.18,-233.71 562.95,-220.9 549.6,-199 523.81,-156.69 576.91,-106.36 608.09,-81.87"/>
<polygon fill="midnightblue" stroke="midnightblue" points="610.39,-84.52 616.22,-75.68 606.14,-78.96 610.39,-84.52"/>
</g>
<!-- Node36&#45;&gt;Node37 -->
<g id="edge41" class="edge">
<title>Node36&#45;&gt;Node37</title>
<path fill="none" stroke="midnightblue" d="M647.6,-240.73C647.6,-231.18 647.6,-215.62 647.6,-203.28"/>
<polygon fill="midnightblue" stroke="midnightblue" points="651.1,-203.13 647.6,-193.13 644.1,-203.13 651.1,-203.13"/>
</g>
<!-- Node37&#45;&gt;Node4 -->
<g id="edge42" class="edge">
<title>Node37&#45;&gt;Node4</title>
<path fill="none" stroke="midnightblue" d="M644.45,-173.98C641.28,-165.4 636.3,-151.93 632.25,-140.98"/>
<polygon fill="midnightblue" stroke="midnightblue" points="635.5,-139.67 628.75,-131.51 628.94,-142.1 635.5,-139.67"/>
</g>
<!-- Node38&#45;&gt;Node4 -->
<g id="edge46" class="edge">
<title>Node38&#45;&gt;Node4</title>
<path fill="none" stroke="midnightblue" d="M826.93,-173.98C785.4,-163.46 714.71,-145.56 669.1,-134.01"/>
<polygon fill="midnightblue" stroke="midnightblue" points="669.76,-130.57 659.21,-131.51 668.05,-137.36 669.76,-130.57"/>
</g>
<!-- Node39 -->
<g id="node25" class="node">
<title>Node39</title>
<g id="a_node25"><a xlink:href="../../d6/dd5/FactoryBase_8h.html" target="_top" xlink:title="File contains the FactoryBase class declarations.">
<polygon fill="white" stroke="black" points="684.6,-112.5 684.6,-131.5 824.6,-131.5 824.6,-112.5 684.6,-112.5"/>
<text text-anchor="middle" x="754.6" y="-119.5" font-family="Helvetica,sans-Serif" font-size="10.00">cantera/base/FactoryBase.h</text>
</a>
</g>
</g>
<!-- Node38&#45;&gt;Node39 -->
<g id="edge47" class="edge">
<title>Node38&#45;&gt;Node39</title>
<path fill="none" stroke="midnightblue" d="M845.42,-173.98C827.94,-164.17 799.02,-147.93 778.52,-136.42"/>
<polygon fill="midnightblue" stroke="midnightblue" points="780.2,-133.35 769.76,-131.51 776.77,-139.46 780.2,-133.35"/>
</g>
<!-- Node39&#45;&gt;Node5 -->
<g id="edge52" class="edge">
<title>Node39&#45;&gt;Node5</title>
<path fill="none" stroke="midnightblue" d="M757.41,-112.08C759.69,-104.85 762.97,-94.41 765.81,-85.4"/>
<polygon fill="midnightblue" stroke="midnightblue" points="769.18,-86.34 768.85,-75.75 762.51,-84.24 769.18,-86.34"/>
</g>
<!-- Node39&#45;&gt;Node18 -->
<g id="edge51" class="edge">
<title>Node39&#45;&gt;Node18</title>
<path fill="none" stroke="midnightblue" d="M734.64,-112.44C713.99,-103.6 681.54,-89.69 657.97,-79.59"/>
<polygon fill="midnightblue" stroke="midnightblue" points="659.05,-76.24 648.48,-75.52 656.29,-82.67 659.05,-76.24"/>
</g>
<!-- Node39&#45;&gt;Node25 -->
<g id="edge49" class="edge">
<title>Node39&#45;&gt;Node25</title>
<path fill="none" stroke="midnightblue" d="M699.44,-112.47C644.73,-103.95 558.22,-90.31 473.41,-76.11"/>
<polygon fill="midnightblue" stroke="midnightblue" points="473.78,-72.63 463.34,-74.42 472.63,-79.53 473.78,-72.63"/>
</g>
<!-- Node39&#45;&gt;Node26 -->
<g id="edge50" class="edge">
<title>Node39&#45;&gt;Node26</title>
<path fill="none" stroke="midnightblue" d="M715.28,-112.5C676,-103.98 613.65,-90.38 550.19,-76.11"/>
<polygon fill="midnightblue" stroke="midnightblue" points="550.93,-72.69 540.41,-73.91 549.39,-79.52 550.93,-72.69"/>
</g>
<!-- Node40 -->
<g id="node26" class="node">
<title>Node40</title>
<g id="a_node26"><a xlink:title=" ">
<polygon fill="white" stroke="#bfbfbf" points="844.6,-56.5 844.6,-75.5 888.6,-75.5 888.6,-56.5 844.6,-56.5"/>
<text text-anchor="middle" x="866.6" y="-63.5" font-family="Helvetica,sans-Serif" font-size="10.00">mutex</text>
</a>
</g>
</g>
<!-- Node39&#45;&gt;Node40 -->
<g id="edge48" class="edge">
<title>Node39&#45;&gt;Node40</title>
<path fill="none" stroke="midnightblue" d="M772.6,-112.32C790.64,-103.62 818.65,-90.12 839.41,-80.11"/>
<polygon fill="midnightblue" stroke="midnightblue" points="841.17,-83.15 848.65,-75.65 838.13,-76.84 841.17,-83.15"/>
</g>
<!-- Node41&#45;&gt;Node35 -->
<g id="edge55" class="edge">
<title>Node41&#45;&gt;Node35</title>
<path fill="none" stroke="midnightblue" d="M1130.54,-168.47C1080.76,-157.74 1013.21,-143.18 968.09,-133.45"/>
<polygon fill="midnightblue" stroke="midnightblue" points="968.77,-130.02 958.26,-131.33 967.3,-136.86 968.77,-130.02"/>
</g>
<!-- Node41&#45;&gt;Node39 -->
<g id="edge54" class="edge">
<title>Node41&#45;&gt;Node39</title>
<path fill="none" stroke="midnightblue" d="M1128.99,-169.38C1126.16,-168.9 1123.35,-168.43 1120.6,-168 1022.61,-152.52 909.15,-139.29 834.85,-131.26"/>
<polygon fill="midnightblue" stroke="midnightblue" points="834.94,-127.75 824.63,-130.16 834.2,-134.71 834.94,-127.75"/>
</g>
<!-- Node42&#45;&gt;Node36 -->
<g id="edge58" class="edge">
<title>Node42&#45;&gt;Node36</title>
<path fill="none" stroke="midnightblue" d="M736.71,-307.73C719.57,-296.92 690.2,-278.38 669.89,-265.57"/>
<polygon fill="midnightblue" stroke="midnightblue" points="671.6,-262.5 661.27,-260.13 667.86,-268.42 671.6,-262.5"/>
</g>
<!-- Node42&#45;&gt;Node39 -->
<g id="edge57" class="edge">
<title>Node42&#45;&gt;Node39</title>
<path fill="none" stroke="midnightblue" d="M750.78,-307.94C751.38,-278.79 753.36,-182.97 754.21,-141.93"/>
<polygon fill="midnightblue" stroke="midnightblue" points="757.71,-141.98 754.42,-131.91 750.71,-141.83 757.71,-141.98"/>
</g>
<!-- Node43&#45;&gt;Node6 -->
<g id="edge60" class="edge">
<title>Node43&#45;&gt;Node6</title>
<path fill="none" stroke="midnightblue" d="M1028.89,-112.35C1007.14,-98.02 960.97,-69.62 917.6,-56 806.18,-21.01 667.03,-13.13 600.52,-11.43"/>
<polygon fill="midnightblue" stroke="midnightblue" points="600.56,-7.93 590.49,-11.2 600.41,-14.92 600.56,-7.93"/>
</g>
<!-- Node43&#45;&gt;Node18 -->
<g id="edge61" class="edge">
<title>Node43&#45;&gt;Node18</title>
<path fill="none" stroke="midnightblue" d="M976.16,-112.44C902.15,-102.77 781.84,-87.04 703.96,-76.85"/>
<polygon fill="midnightblue" stroke="midnightblue" points="704.11,-73.34 693.74,-75.52 703.2,-80.28 704.11,-73.34"/>
</g>
<!-- Node44 -->
<g id="node30" class="node">
<title>Node44</title>
<g id="a_node30"><a xlink:title=" ">
<polygon fill="white" stroke="#bfbfbf" points="1014.6,-56.5 1014.6,-75.5 1068.6,-75.5 1068.6,-56.5 1014.6,-56.5"/>
<text text-anchor="middle" x="1041.6" y="-63.5" font-family="Helvetica,sans-Serif" font-size="10.00">iostream</text>
</a>
</g>
</g>
<!-- Node43&#45;&gt;Node44 -->
<g id="edge62" class="edge">
<title>Node43&#45;&gt;Node44</title>
<path fill="none" stroke="midnightblue" d="M1041.6,-112.08C1041.6,-105.01 1041.6,-94.86 1041.6,-85.99"/>
<polygon fill="midnightblue" stroke="midnightblue" points="1045.1,-85.75 1041.6,-75.75 1038.1,-85.75 1045.1,-85.75"/>
</g>
</g>
</svg>
        <g id="navigator" transform="translate(0 0)" fill="#404254">
                <rect fill="#f2f5e9" fill-opacity="0.5" stroke="#606060" stroke-width=".5" x="0" y="0" width="60" height="60"/>
                <use id="zoomplus" xlink:href="#zoomPlus" x="17" y="9" onmousedown="handleZoom(evt,'in')"/>
                <use id="zoomminus" xlink:href="#zoomMin" x="42" y="9" onmousedown="handleZoom(evt,'out')"/>
                <use id="reset" xlink:href="#resetDef" x="30" y="36" onmousedown="handleReset()"/>
                <g id="arrowUp" xlink:href="#dirArrow" transform="translate(30 24)" onmousedown="handlePan(0,-1)">
                  <use xlink:href="#rim" fill="#404040">
                        <set attributeName="fill" to="#808080" begin="arrowUp.mouseover" end="arrowUp.mouseout"/>
                  </use>
                  <path fill="none" stroke="white" stroke-width="1.5" d="M0,-3.0v7 M-2.5,-0.5L0,-3.0L2.5,-0.5"/>
                </g>
                <g id="arrowRight" xlink:href="#dirArrow" transform="rotate(90) translate(36 -43)" onmousedown="handlePan(1,0)">
                  <use xlink:href="#rim" fill="#404040">
                        <set attributeName="fill" to="#808080" begin="arrowRight.mouseover" end="arrowRight.mouseout"/>
                  </use>
                  <path fill="none" stroke="white" stroke-width="1.5" d="M0,-3.0v7 M-2.5,-0.5L0,-3.0L2.5,-0.5"/>
                </g>
                <g id="arrowDown" xlink:href="#dirArrow" transform="rotate(180) translate(-30 -48)" onmousedown="handlePan(0,1)">
                  <use xlink:href="#rim" fill="#404040">
                        <set attributeName="fill" to="#808080" begin="arrowDown.mouseover" end="arrowDown.mouseout"/>
                  </use>
                  <path fill="none" stroke="white" stroke-width="1.5" d="M0,-3.0v7 M-2.5,-0.5L0,-3.0L2.5,-0.5"/>
                </g>
                <g id="arrowLeft" xlink:href="#dirArrow" transform="rotate(270) translate(-36 17)" onmousedown="handlePan(-1,0)">
                  <use xlink:href="#rim" fill="#404040">
                        <set attributeName="fill" to="#808080" begin="arrowLeft.mouseover" end="arrowLeft.mouseout"/>
                  </use>
                  <path fill="none" stroke="white" stroke-width="1.5" d="M0,-3.0v7 M-2.5,-0.5L0,-3.0L2.5,-0.5"/>
                </g>
        </g>
        <svg viewBox="0 0 15 15" width="100%" height="30px" preserveAspectRatio="xMaxYMin meet">
         <g id="arrow_out" transform="scale(0.3 0.3)">
          <a xlink:href="zerodim_8h__incl_org.svg" target="_base">
           <rect id="button" ry="5" rx="5" y="6" x="6" height="38" width="38"
                fill="#f2f5e9" fill-opacity="0.5" stroke="#606060" stroke-width="1.0"/>
           <path id="arrow"
             d="M 11.500037,31.436501 C 11.940474,20.09759 22.043105,11.32322 32.158766,21.979434 L 37.068811,17.246167 C 37.068811,17.246167 37.088388,32 37.088388,32 L 22.160133,31.978069 C 22.160133,31.978069 26.997745,27.140456 26.997745,27.140456 C 18.528582,18.264221 13.291696,25.230495 11.500037,31.436501 z"
             style="fill:#404040;"/>
          </a>
         </g>
        </svg>
</svg>
