<?xml version="1.0" encoding="UTF-8" standalone="no"?>
<!DOCTYPE svg PUBLIC "-//W3C//DTD SVG 1.1//EN"
 "http://www.w3.org/Graphics/SVG/1.1/DTD/svg11.dtd">
<!-- Generated by graphviz version 6.0.1 (0)
 -->
<!-- Title: IdealSolnGasVPSS.h Pages: 1 -->
<svg width="248pt" height="82pt"
 viewBox="0.00 0.00 247.50 82.00" xmlns="http://www.w3.org/2000/svg" xmlns:xlink="http://www.w3.org/1999/xlink">
<g id="graph0" class="graph" transform="scale(1 1) rotate(0) translate(4 78)">
<title>IdealSolnGasVPSS.h</title>
<!-- Node1 -->
<g id="node1" class="node">
<title>Node1</title>
<g id="a_node1"><a xlink:title="Definition file for a derived class of ThermoPhase that assumes an ideal solution approximation and h...">
<polygon fill="#999999" stroke="#666666" points="179.5,-74 69.5,-74 69.5,-55 179.5,-55 179.5,-74"/>
<text text-anchor="middle" x="124.5" y="-62" font-family="Helvetica,sans-Serif" font-size="10.00">IdealSolnGasVPSS.h</text>
</a>
</g>
</g>
<!-- Node2 -->
<g id="node2" class="node">
<title>Node2</title>
<g id="a_node2"><a xlink:href="../../d6/d7f/IdealSolnGasVPSS_8cpp.html" target="_top" xlink:title="Definition file for a derived class of ThermoPhase that assumes an ideal solution approximation and h...">
<polygon fill="white" stroke="#666666" points="121,-19 0,-19 0,0 121,0 121,-19"/>
<text text-anchor="middle" x="60.5" y="-7" font-family="Helvetica,sans-Serif" font-size="10.00">IdealSolnGasVPSS.cpp</text>
</a>
</g>
</g>
<!-- Node1&#45;&gt;Node2 -->
<g id="edge1" class="edge">
<title>Node1&#45;&gt;Node2</title>
<path fill="none" stroke="#63b8ff" d="M106.51,-48.6C95.04,-39.11 80.59,-27.13 70.97,-19.17"/>
<polygon fill="#63b8ff" stroke="#63b8ff" points="104.28,-51.3 114.22,-54.98 108.75,-45.91 104.28,-51.3"/>
</g>
<!-- Node3 -->
<g id="node3" class="node">
<title>Node3</title>
<g id="a_node3"><a xlink:href="../../d2/d3a/ThermoFactory_8cpp.html" target="_top" xlink:title="Definitions for the factory class that can create known ThermoPhase objects (see Thermodynamic Proper...">
<polygon fill="white" stroke="#666666" points="239.5,-19 139.5,-19 139.5,0 239.5,0 239.5,-19"/>
<text text-anchor="middle" x="189.5" y="-7" font-family="Helvetica,sans-Serif" font-size="10.00">ThermoFactory.cpp</text>
</a>
</g>
</g>
<!-- Node1&#45;&gt;Node3 -->
<g id="edge2" class="edge">
<title>Node1&#45;&gt;Node3</title>
<path fill="none" stroke="#63b8ff" d="M142.77,-48.6C154.42,-39.11 169.1,-27.13 178.87,-19.17"/>
<polygon fill="#63b8ff" stroke="#63b8ff" points="140.48,-45.95 134.94,-54.98 144.91,-51.38 140.48,-45.95"/>
</g>
</g>
</svg>
