<?xml version="1.0" encoding="UTF-8" standalone="no"?>
<!DOCTYPE svg PUBLIC "-//W3C//DTD SVG 1.1//EN"
 "http://www.w3.org/Graphics/SVG/1.1/DTD/svg11.dtd">
<!-- Generated by graphviz version 2.50.0 (0)
 -->
<!-- Title: HighPressureGasTransport.cpp Pages: 1 -->
<!--zoomable 498 -->
<svg id="main" version="1.1" xmlns="http://www.w3.org/2000/svg" xmlns:xlink="http://www.w3.org/1999/xlink" xml:space="preserve" onload="init(evt)">
<style type="text/css"><![CDATA[
.edge:hover path { stroke: red; }
.edge:hover polygon { stroke: red; fill: red; }
]]></style>
<script type="text/javascript"><![CDATA[
var edges = document.getElementsByTagName('g');
if (edges && edges.length) {
  for (var i=0;i<edges.length;i++) {
    if (edges[i].id.substr(0,4)=='edge') {
      edges[i].setAttribute('class','edge');
    }
  }
}
]]></script>
        <defs>
                <circle id="rim" cx="0" cy="0" r="7"/>
                <circle id="rim2" cx="0" cy="0" r="3.5"/>
                <g id="zoomPlus">
                        <use xlink:href="#rim" fill="#404040">
                                <set attributeName="fill" to="#808080" begin="zoomplus.mouseover" end="zoomplus.mouseout"/>
                        </use>
                        <path d="M-4,0h8M0,-4v8" fill="none" stroke="white" stroke-width="1.5" pointer-events="none"/>
                </g>
                <g id="zoomMin">
                        <use xlink:href="#rim" fill="#404040">
                                <set attributeName="fill" to="#808080" begin="zoomminus.mouseover" end="zoomminus.mouseout"/>
                        </use>
                        <path d="M-4,0h8" fill="none" stroke="white" stroke-width="1.5" pointer-events="none"/>
                </g>
                <g id="dirArrow">
                        <path fill="none" stroke="white" stroke-width="1.5" d="M0,-3.0v7 M-2.5,-0.5L0,-3.0L2.5,-0.5"/>
                </g>
               <g id="resetDef">
                       <use xlink:href="#rim2" fill="#404040">
                               <set attributeName="fill" to="#808080" begin="reset.mouseover" end="reset.mouseout"/>
                       </use>
               </g>
        </defs>

<script type="text/javascript">
var viewWidth = 1489;
var viewHeight = 498;
var sectionId = 'dynsection-0';
</script>
<script xlink:href="../../svgpan.js"/>
<svg id="graph" class="graph">
<g id="viewport">
<title>HighPressureGasTransport.cpp</title>
<polygon fill="white" stroke="transparent" points="-4,4 -4,-494 1485,-494 1485,4 -4,4"/>
<!-- Node1 -->
<g id="node1" class="node">
<title>Node1</title>
<g id="a_node1"><a xlink:title="Implementation file for class HighPressureGasTransport.">
<polygon fill="#bfbfbf" stroke="black" points="760,-470.5 760,-489.5 914,-489.5 914,-470.5 760,-470.5"/>
<text text-anchor="middle" x="837" y="-477.5" font-family="Helvetica,sans-Serif" font-size="10.00">HighPressureGasTransport.cpp</text>
</a>
</g>
</g>
<!-- Node2 -->
<g id="node2" class="node">
<title>Node2</title>
<g id="a_node2"><a xlink:href="../../d0/de4/HighPressureGasTransport_8h.html" target="_top" xlink:title="Interface for class HighPressureGasTransport.">
<polygon fill="white" stroke="black" points="389,-347.5 389,-377.5 541,-377.5 541,-347.5 389,-347.5"/>
<text text-anchor="start" x="397" y="-365.5" font-family="Helvetica,sans-Serif" font-size="10.00">cantera/transport/HighPressure</text>
<text text-anchor="middle" x="465" y="-354.5" font-family="Helvetica,sans-Serif" font-size="10.00">GasTransport.h</text>
</a>
</g>
</g>
<!-- Node1&#45;&gt;Node2 -->
<g id="edge1" class="edge">
<title>Node1&#45;&gt;Node2</title>
<path fill="none" stroke="midnightblue" d="M759.85,-474.81C704.98,-469.76 630.42,-458.61 569,-434 539.06,-422 509.01,-400.34 488.96,-384.19"/>
<polygon fill="midnightblue" stroke="midnightblue" points="490.96,-381.3 481.01,-377.64 486.51,-386.7 490.96,-381.3"/>
</g>
<!-- Node22 -->
<g id="node10" class="node">
<title>Node22</title>
<g id="a_node10"><a xlink:href="../../da/dd1/MultiTransport_8h.html" target="_top" xlink:title="Interface for class MultiTransport.">
<polygon fill="white" stroke="black" points="396,-291.5 396,-310.5 560,-310.5 560,-291.5 396,-291.5"/>
<text text-anchor="middle" x="478" y="-298.5" font-family="Helvetica,sans-Serif" font-size="10.00">cantera/transport/MultiTransport.h</text>
</a>
</g>
</g>
<!-- Node1&#45;&gt;Node22 -->
<g id="edge54" class="edge">
<title>Node1&#45;&gt;Node22</title>
<path fill="none" stroke="midnightblue" d="M759.83,-477.12C714.33,-472.83 657.37,-461.67 614,-434 573.53,-408.18 585.2,-379.63 550,-347 536.43,-334.42 518.86,-323.36 504.48,-315.35"/>
<polygon fill="midnightblue" stroke="midnightblue" points="506.02,-312.21 495.56,-310.55 502.7,-318.37 506.02,-312.21"/>
</g>
<!-- Node23 -->
<g id="node11" class="node">
<title>Node23</title>
<g id="a_node11"><a xlink:href="../../df/d55/ctlapack_8h.html" target="_top" xlink:title=" ">
<polygon fill="white" stroke="black" points="1149,-56.5 1149,-75.5 1289,-75.5 1289,-56.5 1149,-56.5"/>
<text text-anchor="middle" x="1219" y="-63.5" font-family="Helvetica,sans-Serif" font-size="10.00">cantera/numerics/ctlapack.h</text>
</a>
</g>
</g>
<!-- Node1&#45;&gt;Node23 -->
<g id="edge16" class="edge">
<title>Node1&#45;&gt;Node23</title>
<path fill="none" stroke="midnightblue" d="M895.3,-470.46C988.58,-455.13 1161,-419.26 1161,-363.5 1161,-363.5 1161,-363.5 1161,-177 1161,-140.16 1186.77,-103.57 1203.95,-83.25"/>
<polygon fill="midnightblue" stroke="midnightblue" points="1206.71,-85.41 1210.69,-75.59 1201.46,-80.79 1206.71,-85.41"/>
</g>
<!-- Node24 -->
<g id="node12" class="node">
<title>Node24</title>
<g id="a_node12"><a xlink:href="../../de/df0/utilities_8h.html" target="_top" xlink:title="Various templated functions that carry out common vector operations (see Templated Utility Functions)...">
<polygon fill="white" stroke="black" points="1259.5,-414.5 1259.5,-433.5 1374.5,-433.5 1374.5,-414.5 1259.5,-414.5"/>
<text text-anchor="middle" x="1317" y="-421.5" font-family="Helvetica,sans-Serif" font-size="10.00">cantera/base/utilities.h</text>
</a>
</g>
</g>
<!-- Node1&#45;&gt;Node24 -->
<g id="edge18" class="edge">
<title>Node1&#45;&gt;Node24</title>
<path fill="none" stroke="midnightblue" d="M912.79,-470.47C1005.39,-460.06 1160.63,-442.59 1249.35,-432.61"/>
<polygon fill="midnightblue" stroke="midnightblue" points="1249.76,-436.09 1259.31,-431.49 1248.98,-429.13 1249.76,-436.09"/>
</g>
<!-- Node26 -->
<g id="node14" class="node">
<title>Node26</title>
<g id="a_node14"><a xlink:href="../../de/dbd/IdealGasPhase_8h.html" target="_top" xlink:title="ThermoPhase object for the ideal gas equation of state &#45; workhorse for Cantera (see Thermodynamic Pro...">
<polygon fill="white" stroke="black" points="757,-414.5 757,-433.5 917,-433.5 917,-414.5 757,-414.5"/>
<text text-anchor="middle" x="837" y="-421.5" font-family="Helvetica,sans-Serif" font-size="10.00">cantera/thermo/IdealGasPhase.h</text>
</a>
</g>
</g>
<!-- Node1&#45;&gt;Node26 -->
<g id="edge21" class="edge">
<title>Node1&#45;&gt;Node26</title>
<path fill="none" stroke="midnightblue" d="M837,-470.08C837,-463.01 837,-452.86 837,-443.99"/>
<polygon fill="midnightblue" stroke="midnightblue" points="840.5,-443.75 837,-433.75 833.5,-443.75 840.5,-443.75"/>
</g>
<!-- Node41 -->
<g id="node25" class="node">
<title>Node41</title>
<g id="a_node25"><a xlink:href="../../d3/da4/TransportFactory_8h.html" target="_top" xlink:title="Header file defining class TransportFactory (see TransportFactory)">
<polygon fill="white" stroke="black" points="434,-224.5 434,-254.5 568,-254.5 568,-224.5 434,-224.5"/>
<text text-anchor="start" x="442" y="-242.5" font-family="Helvetica,sans-Serif" font-size="10.00">cantera/transport/Transport</text>
<text text-anchor="middle" x="501" y="-231.5" font-family="Helvetica,sans-Serif" font-size="10.00">Factory.h</text>
</a>
</g>
</g>
<!-- Node1&#45;&gt;Node41 -->
<g id="edge42" class="edge">
<title>Node1&#45;&gt;Node41</title>
<path fill="none" stroke="midnightblue" d="M817.27,-470.45C798.8,-462.12 770.72,-448.6 748,-434 662.33,-378.96 649.66,-353.14 569,-291 555.84,-280.86 541.06,-269.84 528.65,-260.69"/>
<polygon fill="midnightblue" stroke="midnightblue" points="530.61,-257.79 520.48,-254.69 526.46,-263.43 530.61,-257.79"/>
</g>
<!-- Node45 -->
<g id="node29" class="node">
<title>Node45</title>
<g id="a_node29"><a xlink:href="../../dd/dc3/stringUtils_8h.html" target="_top" xlink:title="Contains declarations for string manipulation functions within Cantera.">
<polygon fill="white" stroke="black" points="1353,-291.5 1353,-310.5 1481,-310.5 1481,-291.5 1353,-291.5"/>
<text text-anchor="middle" x="1417" y="-298.5" font-family="Helvetica,sans-Serif" font-size="10.00">cantera/base/stringUtils.h</text>
</a>
</g>
</g>
<!-- Node1&#45;&gt;Node45 -->
<g id="edge52" class="edge">
<title>Node1&#45;&gt;Node45</title>
<path fill="none" stroke="midnightblue" d="M914.2,-477.13C1056.07,-473.03 1347.17,-461.38 1384,-434 1418.98,-408 1420.68,-350.91 1418.9,-321.05"/>
<polygon fill="midnightblue" stroke="midnightblue" points="1422.36,-320.43 1418.08,-310.74 1415.38,-320.98 1422.36,-320.43"/>
</g>
<!-- Node3 -->
<g id="node3" class="node">
<title>Node3</title>
<g id="a_node3"><a xlink:href="../../d1/d2e/GasTransport_8h.html" target="_top" xlink:title=" ">
<polygon fill="white" stroke="black" points="326,-230 326,-249 410,-249 410,-230 326,-230"/>
<text text-anchor="middle" x="368" y="-237" font-family="Helvetica,sans-Serif" font-size="10.00">GasTransport.h</text>
</a>
</g>
</g>
<!-- Node2&#45;&gt;Node3 -->
<g id="edge2" class="edge">
<title>Node2&#45;&gt;Node3</title>
<path fill="none" stroke="midnightblue" d="M432.39,-347.34C416.55,-338.92 398.5,-326.78 387,-311 375.93,-295.82 371.31,-274.58 369.38,-259.39"/>
<polygon fill="midnightblue" stroke="midnightblue" points="372.84,-258.76 368.37,-249.16 365.87,-259.45 372.84,-258.76"/>
</g>
<!-- Node19 -->
<g id="node8" class="node">
<title>Node19</title>
<g id="a_node8"><a xlink:href="../../d1/df7/DenseMatrix_8h.html" target="_top" xlink:title="Headers for the DenseMatrix object, which deals with dense rectangular matrices and description of th...">
<polygon fill="white" stroke="black" points="147,-168.5 147,-187.5 305,-187.5 305,-168.5 147,-168.5"/>
<text text-anchor="middle" x="226" y="-175.5" font-family="Helvetica,sans-Serif" font-size="10.00">cantera/numerics/DenseMatrix.h</text>
</a>
</g>
</g>
<!-- Node2&#45;&gt;Node19 -->
<g id="edge13" class="edge">
<title>Node2&#45;&gt;Node19</title>
<path fill="none" stroke="midnightblue" d="M435.38,-347.44C416.83,-338.1 392.77,-325.02 373,-311 321.02,-274.14 267.07,-221.26 241.38,-195.03"/>
<polygon fill="midnightblue" stroke="midnightblue" points="243.83,-192.52 234.35,-187.79 238.81,-197.4 243.83,-192.52"/>
</g>
<!-- Node2&#45;&gt;Node22 -->
<g id="edge14" class="edge">
<title>Node2&#45;&gt;Node22</title>
<path fill="none" stroke="midnightblue" d="M468.08,-347.4C469.83,-339.38 472.05,-329.23 473.94,-320.57"/>
<polygon fill="midnightblue" stroke="midnightblue" points="477.39,-321.17 476.11,-310.66 470.55,-319.68 477.39,-321.17"/>
</g>
<!-- Node4 -->
<g id="node4" class="node">
<title>Node4</title>
<g id="a_node4"><a xlink:href="../../da/dbb/TransportBase_8h.html" target="_top" xlink:title="Headers for the Transport object, which is the virtual base class for all transport property evaluato...">
<polygon fill="white" stroke="black" points="323.5,-168.5 323.5,-187.5 412.5,-187.5 412.5,-168.5 323.5,-168.5"/>
<text text-anchor="middle" x="368" y="-175.5" font-family="Helvetica,sans-Serif" font-size="10.00">TransportBase.h</text>
</a>
</g>
</g>
<!-- Node3&#45;&gt;Node4 -->
<g id="edge3" class="edge">
<title>Node3&#45;&gt;Node4</title>
<path fill="none" stroke="midnightblue" d="M368,-229.98C368,-221.58 368,-208.48 368,-197.66"/>
<polygon fill="midnightblue" stroke="midnightblue" points="371.5,-197.51 368,-187.51 364.5,-197.51 371.5,-197.51"/>
</g>
<!-- Node3&#45;&gt;Node19 -->
<g id="edge8" class="edge">
<title>Node3&#45;&gt;Node19</title>
<path fill="none" stroke="midnightblue" d="M347.65,-229.98C323.61,-219.9 283.4,-203.05 255.84,-191.5"/>
<polygon fill="midnightblue" stroke="midnightblue" points="256.88,-188.15 246.31,-187.51 254.18,-194.6 256.88,-188.15"/>
</g>
<!-- Node5 -->
<g id="node5" class="node">
<title>Node5</title>
<g id="a_node5"><a xlink:href="../../d9/ddc/ct__defs_8h.html" target="_top" xlink:title="This file contains definitions of constants, types and terms that are used in internal routines and a...">
<polygon fill="white" stroke="red" points="717,-0.5 717,-19.5 833,-19.5 833,-0.5 717,-0.5"/>
<text text-anchor="middle" x="775" y="-7.5" font-family="Helvetica,sans-Serif" font-size="10.00">cantera/base/ct_defs.h</text>
</a>
</g>
</g>
<!-- Node4&#45;&gt;Node5 -->
<g id="edge4" class="edge">
<title>Node4&#45;&gt;Node5</title>
<path fill="none" stroke="midnightblue" d="M323.42,-168.6C273.73,-158.8 199.22,-142.58 191,-132 185.54,-124.98 185.77,-119.18 191,-112 250.82,-29.91 565.73,-14.37 706.68,-11.55"/>
<polygon fill="midnightblue" stroke="midnightblue" points="707,-15.05 716.93,-11.36 706.87,-8.05 707,-15.05"/>
</g>
<!-- Node14 -->
<g id="node6" class="node">
<title>Node14</title>
<g id="a_node6"><a xlink:href="../../db/d98/ctexceptions_8h.html" target="_top" xlink:title="Definitions for the classes that are thrown when Cantera experiences an error condition (also contain...">
<polygon fill="white" stroke="red" points="390,-112.5 390,-131.5 530,-131.5 530,-112.5 390,-112.5"/>
<text text-anchor="middle" x="460" y="-119.5" font-family="Helvetica,sans-Serif" font-size="10.00">cantera/base/ctexceptions.h</text>
</a>
</g>
</g>
<!-- Node4&#45;&gt;Node14 -->
<g id="edge5" class="edge">
<title>Node4&#45;&gt;Node14</title>
<path fill="none" stroke="midnightblue" d="M382.78,-168.32C397.27,-159.82 419.57,-146.73 436.49,-136.8"/>
<polygon fill="midnightblue" stroke="midnightblue" points="438.4,-139.74 445.26,-131.65 434.86,-133.7 438.4,-139.74"/>
</g>
<!-- Node15 -->
<g id="node7" class="node">
<title>Node15</title>
<g id="a_node7"><a xlink:href="../../db/def/fmt_8h.html" target="_top" xlink:title="Wrapper for either system&#45;installed or local headers for fmt.">
<polygon fill="white" stroke="red" points="411,-56.5 411,-75.5 509,-75.5 509,-56.5 411,-56.5"/>
<text text-anchor="middle" x="460" y="-63.5" font-family="Helvetica,sans-Serif" font-size="10.00">cantera/base/fmt.h</text>
</a>
</g>
</g>
<!-- Node14&#45;&gt;Node15 -->
<g id="edge6" class="edge">
<title>Node14&#45;&gt;Node15</title>
<path fill="none" stroke="midnightblue" d="M460,-112.08C460,-105.01 460,-94.86 460,-85.99"/>
<polygon fill="midnightblue" stroke="midnightblue" points="463.5,-85.75 460,-75.75 456.5,-85.75 463.5,-85.75"/>
</g>
<!-- Node15&#45;&gt;Node5 -->
<g id="edge7" class="edge">
<title>Node15&#45;&gt;Node5</title>
<path fill="none" stroke="midnightblue" d="M509.22,-56.56C564.91,-47.01 655.63,-31.46 715.31,-21.23"/>
<polygon fill="midnightblue" stroke="midnightblue" points="716.08,-24.65 725.35,-19.51 714.9,-17.75 716.08,-24.65"/>
</g>
<!-- Node19&#45;&gt;Node5 -->
<g id="edge9" class="edge">
<title>Node19&#45;&gt;Node5</title>
<path fill="none" stroke="midnightblue" d="M213.22,-168.31C197.34,-156.35 173.42,-133.8 183,-112 197.81,-78.31 210.3,-70.79 244,-56 325.16,-20.37 582.31,-12.87 706.53,-11.35"/>
<polygon fill="midnightblue" stroke="midnightblue" points="706.72,-14.85 716.68,-11.23 706.64,-7.85 706.72,-14.85"/>
</g>
<!-- Node19&#45;&gt;Node14 -->
<g id="edge10" class="edge">
<title>Node19&#45;&gt;Node14</title>
<path fill="none" stroke="midnightblue" d="M263.08,-168.44C303.73,-159.06 369.03,-143.99 413.18,-133.8"/>
<polygon fill="midnightblue" stroke="midnightblue" points="414.14,-137.18 423.1,-131.52 412.56,-130.35 414.14,-137.18"/>
</g>
<!-- Node20 -->
<g id="node9" class="node">
<title>Node20</title>
<g id="a_node9"><a xlink:href="../../df/dd0/Array_8h.html" target="_top" xlink:title="Header file for class Cantera::Array2D.">
<polygon fill="white" stroke="red" points="0,-56.5 0,-75.5 106,-75.5 106,-56.5 0,-56.5"/>
<text text-anchor="middle" x="53" y="-63.5" font-family="Helvetica,sans-Serif" font-size="10.00">cantera/base/Array.h</text>
</a>
</g>
</g>
<!-- Node19&#45;&gt;Node20 -->
<g id="edge11" class="edge">
<title>Node19&#45;&gt;Node20</title>
<path fill="none" stroke="midnightblue" d="M198.48,-168.47C176.23,-160.84 144.65,-148.36 120,-132 99.23,-118.22 79.23,-97.53 66.58,-83.21"/>
<polygon fill="midnightblue" stroke="midnightblue" points="69.21,-80.9 60.02,-75.62 63.91,-85.48 69.21,-80.9"/>
</g>
<!-- Node20&#45;&gt;Node5 -->
<g id="edge12" class="edge">
<title>Node20&#45;&gt;Node5</title>
<path fill="none" stroke="midnightblue" d="M106.36,-57.51C110.97,-56.96 115.56,-56.45 120,-56 333.49,-34.35 587.21,-20.21 706.54,-14.24"/>
<polygon fill="midnightblue" stroke="midnightblue" points="706.81,-17.73 716.62,-13.74 706.46,-10.74 706.81,-17.73"/>
</g>
<!-- Node22&#45;&gt;Node3 -->
<g id="edge15" class="edge">
<title>Node22&#45;&gt;Node3</title>
<path fill="none" stroke="midnightblue" d="M462.24,-291.48C444.02,-281.62 413.83,-265.29 392.53,-253.77"/>
<polygon fill="midnightblue" stroke="midnightblue" points="394.19,-250.69 383.73,-249.01 390.86,-256.85 394.19,-250.69"/>
</g>
<!-- Node23&#45;&gt;Node5 -->
<g id="edge17" class="edge">
<title>Node23&#45;&gt;Node5</title>
<path fill="none" stroke="midnightblue" d="M1148.65,-56.44C1064.96,-46.27 926.22,-29.39 843.4,-19.32"/>
<polygon fill="midnightblue" stroke="midnightblue" points="843.69,-15.83 833.34,-18.1 842.84,-22.78 843.69,-15.83"/>
</g>
<!-- Node24&#45;&gt;Node5 -->
<g id="edge19" class="edge">
<title>Node24&#45;&gt;Node5</title>
<path fill="none" stroke="midnightblue" d="M1317,-414.49C1317,-394.74 1317,-344.22 1317,-302 1317,-302 1317,-302 1317,-121 1317,-90.9 1321.29,-75.07 1298,-56 1263.55,-27.79 976.97,-16.43 843.24,-12.63"/>
<polygon fill="midnightblue" stroke="midnightblue" points="843.2,-9.13 833.1,-12.35 843,-16.12 843.2,-9.13"/>
</g>
<!-- Node25 -->
<g id="node13" class="node">
<title>Node25</title>
<g id="a_node13"><a xlink:title=" ">
<polygon fill="white" stroke="#bfbfbf" points="1345.5,-353 1345.5,-372 1396.5,-372 1396.5,-353 1345.5,-353"/>
<text text-anchor="middle" x="1371" y="-360" font-family="Helvetica,sans-Serif" font-size="10.00">numeric</text>
</a>
</g>
</g>
<!-- Node24&#45;&gt;Node25 -->
<g id="edge20" class="edge">
<title>Node24&#45;&gt;Node25</title>
<path fill="none" stroke="midnightblue" d="M1324.74,-414.48C1333,-405.37 1346.28,-390.74 1356.49,-379.48"/>
<polygon fill="midnightblue" stroke="midnightblue" points="1359.15,-381.77 1363.28,-372.01 1353.97,-377.06 1359.15,-381.77"/>
</g>
<!-- Node27 -->
<g id="node15" class="node">
<title>Node27</title>
<g id="a_node15"><a xlink:href="../../d7/d01/ThermoPhase_8h.html" target="_top" xlink:title="Header file for class ThermoPhase, the base class for phases with thermodynamic properties,...">
<polygon fill="white" stroke="black" points="794,-353 794,-372 880,-372 880,-353 794,-353"/>
<text text-anchor="middle" x="837" y="-360" font-family="Helvetica,sans-Serif" font-size="10.00">ThermoPhase.h</text>
</a>
</g>
</g>
<!-- Node26&#45;&gt;Node27 -->
<g id="edge22" class="edge">
<title>Node26&#45;&gt;Node27</title>
<path fill="none" stroke="midnightblue" d="M837,-414.48C837,-406.08 837,-392.98 837,-382.16"/>
<polygon fill="midnightblue" stroke="midnightblue" points="840.5,-382.01 837,-372.01 833.5,-382.01 840.5,-382.01"/>
</g>
<!-- Node28 -->
<g id="node16" class="node">
<title>Node28</title>
<g id="a_node16"><a xlink:href="../../da/d84/Phase_8h.html" target="_top" xlink:title="Header file for class Phase.">
<polygon fill="white" stroke="black" points="901.5,-168.5 901.5,-187.5 954.5,-187.5 954.5,-168.5 901.5,-168.5"/>
<text text-anchor="middle" x="928" y="-175.5" font-family="Helvetica,sans-Serif" font-size="10.00">Phase.h</text>
</a>
</g>
</g>
<!-- Node27&#45;&gt;Node28 -->
<g id="edge23" class="edge">
<title>Node27&#45;&gt;Node28</title>
<path fill="none" stroke="midnightblue" d="M842.59,-352.72C848.84,-342.77 859.12,-325.98 867,-311 887.98,-271.14 909.34,-222.72 920.37,-197.04"/>
<polygon fill="midnightblue" stroke="midnightblue" points="923.61,-198.37 924.31,-187.8 917.17,-195.63 923.61,-198.37"/>
</g>
<!-- Node32 -->
<g id="node19" class="node">
<title>Node32</title>
<g id="a_node19"><a xlink:href="../../d6/d7a/MultiSpeciesThermo_8h.html" target="_top" xlink:title="Header for a general species thermodynamic property manager for a phase (see MultiSpeciesThermo).">
<polygon fill="white" stroke="black" points="663,-291.5 663,-310.5 777,-310.5 777,-291.5 663,-291.5"/>
<text text-anchor="middle" x="720" y="-298.5" font-family="Helvetica,sans-Serif" font-size="10.00">MultiSpeciesThermo.h</text>
</a>
</g>
</g>
<!-- Node27&#45;&gt;Node32 -->
<g id="edge29" class="edge">
<title>Node27&#45;&gt;Node32</title>
<path fill="none" stroke="midnightblue" d="M820.24,-352.98C800.78,-343.08 768.45,-326.64 745.79,-315.12"/>
<polygon fill="midnightblue" stroke="midnightblue" points="747.23,-311.92 736.73,-310.51 744.06,-318.16 747.23,-311.92"/>
</g>
<!-- Node34 -->
<g id="node21" class="node">
<title>Node34</title>
<g id="a_node21"><a xlink:href="../../dd/d2a/AnyMap_8h.html" target="_top" xlink:title=" ">
<polygon fill="white" stroke="red" points="627,-168.5 627,-187.5 747,-187.5 747,-168.5 627,-168.5"/>
<text text-anchor="middle" x="687" y="-175.5" font-family="Helvetica,sans-Serif" font-size="10.00">cantera/base/AnyMap.h</text>
</a>
</g>
</g>
<!-- Node27&#45;&gt;Node34 -->
<g id="edge41" class="edge">
<title>Node27&#45;&gt;Node34</title>
<path fill="none" stroke="midnightblue" d="M835.87,-352.91C832.33,-329.36 819.49,-262.91 783,-224 768.52,-208.57 747.69,-197.92 729.13,-190.87"/>
<polygon fill="midnightblue" stroke="midnightblue" points="730.27,-187.56 719.67,-187.51 727.92,-194.16 730.27,-187.56"/>
</g>
<!-- Node35 -->
<g id="node22" class="node">
<title>Node35</title>
<g id="a_node22"><a xlink:href="../../da/d58/Units_8h.html" target="_top" xlink:title="Header for unit conversion utilities, which are used to translate user input from input files (See In...">
<polygon fill="white" stroke="black" points="803.5,-112.5 803.5,-131.5 910.5,-131.5 910.5,-112.5 803.5,-112.5"/>
<text text-anchor="middle" x="857" y="-119.5" font-family="Helvetica,sans-Serif" font-size="10.00">cantera/base/Units.h</text>
</a>
</g>
</g>
<!-- Node27&#45;&gt;Node35 -->
<g id="edge40" class="edge">
<title>Node27&#45;&gt;Node35</title>
<path fill="none" stroke="midnightblue" d="M837.74,-352.73C840.65,-318.03 851.39,-189.89 855.44,-141.59"/>
<polygon fill="midnightblue" stroke="midnightblue" points="858.93,-141.86 856.28,-131.6 851.96,-141.27 858.93,-141.86"/>
</g>
<!-- Node28&#45;&gt;Node14 -->
<g id="edge24" class="edge">
<title>Node28&#45;&gt;Node14</title>
<path fill="none" stroke="midnightblue" d="M901.5,-173.94C833.03,-166.04 648.11,-144.71 540.56,-132.29"/>
<polygon fill="midnightblue" stroke="midnightblue" points="540.73,-128.79 530.39,-131.12 539.93,-135.75 540.73,-128.79"/>
</g>
<!-- Node29 -->
<g id="node17" class="node">
<title>Node29</title>
<g id="a_node17"><a xlink:href="../../d9/dda/Elements_8h.html" target="_top" xlink:title="Contains the getElementWeight function and the definitions of element constraint types.">
<polygon fill="white" stroke="black" points="997,-56.5 997,-75.5 1131,-75.5 1131,-56.5 997,-56.5"/>
<text text-anchor="middle" x="1064" y="-63.5" font-family="Helvetica,sans-Serif" font-size="10.00">cantera/thermo/Elements.h</text>
</a>
</g>
</g>
<!-- Node28&#45;&gt;Node29 -->
<g id="edge25" class="edge">
<title>Node28&#45;&gt;Node29</title>
<path fill="none" stroke="midnightblue" d="M938.67,-168.37C961.71,-149.73 1016.36,-105.53 1045.29,-82.13"/>
<polygon fill="midnightblue" stroke="midnightblue" points="1047.8,-84.6 1053.38,-75.59 1043.4,-79.16 1047.8,-84.6"/>
</g>
<!-- Node30 -->
<g id="node18" class="node">
<title>Node30</title>
<g id="a_node18"><a xlink:href="../../d6/df6/ValueCache_8h.html" target="_top" xlink:title=" ">
<polygon fill="white" stroke="red" points="841.5,-56.5 841.5,-75.5 978.5,-75.5 978.5,-56.5 841.5,-56.5"/>
<text text-anchor="middle" x="910" y="-63.5" font-family="Helvetica,sans-Serif" font-size="10.00">cantera/base/ValueCache.h</text>
</a>
</g>
</g>
<!-- Node28&#45;&gt;Node30 -->
<g id="edge27" class="edge">
<title>Node28&#45;&gt;Node30</title>
<path fill="none" stroke="midnightblue" d="M927.18,-168.13C925.96,-155.58 923.44,-131.94 920,-112 918.49,-103.22 916.4,-93.56 914.52,-85.45"/>
<polygon fill="midnightblue" stroke="midnightblue" points="917.89,-84.49 912.16,-75.58 911.08,-86.12 917.89,-84.49"/>
</g>
<!-- Node29&#45;&gt;Node5 -->
<g id="edge26" class="edge">
<title>Node29&#45;&gt;Node5</title>
<path fill="none" stroke="midnightblue" d="M1018.21,-56.44C967.26,-46.92 884.97,-31.55 830.43,-21.36"/>
<polygon fill="midnightblue" stroke="midnightblue" points="831.05,-17.91 820.58,-19.52 829.77,-24.79 831.05,-17.91"/>
</g>
<!-- Node30&#45;&gt;Node5 -->
<g id="edge28" class="edge">
<title>Node30&#45;&gt;Node5</title>
<path fill="none" stroke="midnightblue" d="M888.61,-56.44C866.29,-47.52 831.1,-33.44 805.79,-23.32"/>
<polygon fill="midnightblue" stroke="midnightblue" points="806.88,-19.98 796.29,-19.52 804.28,-26.48 806.88,-19.98"/>
</g>
<!-- Node33 -->
<g id="node20" class="node">
<title>Node33</title>
<g id="a_node20"><a xlink:href="../../d4/d87/SpeciesThermoInterpType_8h.html" target="_top" xlink:title="Pure Virtual Base class for individual species reference state thermodynamic managers and text for th...">
<polygon fill="white" stroke="black" points="634.5,-230 634.5,-249 773.5,-249 773.5,-230 634.5,-230"/>
<text text-anchor="middle" x="704" y="-237" font-family="Helvetica,sans-Serif" font-size="10.00">SpeciesThermoInterpType.h</text>
</a>
</g>
</g>
<!-- Node32&#45;&gt;Node33 -->
<g id="edge30" class="edge">
<title>Node32&#45;&gt;Node33</title>
<path fill="none" stroke="midnightblue" d="M717.71,-291.48C715.43,-282.99 711.85,-269.7 708.93,-258.82"/>
<polygon fill="midnightblue" stroke="midnightblue" points="712.26,-257.76 706.29,-249.01 705.51,-259.57 712.26,-257.76"/>
</g>
<!-- Node33&#45;&gt;Node5 -->
<g id="edge31" class="edge">
<title>Node33&#45;&gt;Node5</title>
<path fill="none" stroke="midnightblue" d="M717.2,-229.82C729.52,-220.92 747.29,-205.87 756,-188 781.68,-135.31 779.74,-63.56 777.01,-29.89"/>
<polygon fill="midnightblue" stroke="midnightblue" points="780.47,-29.3 776.05,-19.67 773.5,-29.95 780.47,-29.3"/>
</g>
<!-- Node33&#45;&gt;Node14 -->
<g id="edge32" class="edge">
<title>Node33&#45;&gt;Node14</title>
<path fill="none" stroke="midnightblue" d="M689.53,-229.89C661.75,-213.42 601.75,-178.19 580,-168 552.55,-155.15 520.33,-143.23 496.19,-134.89"/>
<polygon fill="midnightblue" stroke="midnightblue" points="497.31,-131.57 486.71,-131.66 495.05,-138.2 497.31,-131.57"/>
</g>
<!-- Node33&#45;&gt;Node34 -->
<g id="edge33" class="edge">
<title>Node33&#45;&gt;Node34</title>
<path fill="none" stroke="midnightblue" d="M701.56,-229.98C699.14,-221.49 695.34,-208.2 692.23,-197.32"/>
<polygon fill="midnightblue" stroke="midnightblue" points="695.54,-196.16 689.43,-187.51 688.81,-198.09 695.54,-196.16"/>
</g>
<!-- Node34&#45;&gt;Node5 -->
<g id="edge34" class="edge">
<title>Node34&#45;&gt;Node5</title>
<path fill="none" stroke="midnightblue" d="M693.62,-168.31C700.22,-159.45 710.44,-145.16 718,-132 738.26,-96.75 757.47,-53.12 767.59,-29.06"/>
<polygon fill="midnightblue" stroke="midnightblue" points="770.85,-30.33 771.46,-19.75 764.39,-27.64 770.85,-30.33"/>
</g>
<!-- Node34&#45;&gt;Node14 -->
<g id="edge35" class="edge">
<title>Node34&#45;&gt;Node14</title>
<path fill="none" stroke="midnightblue" d="M651.03,-168.44C611.68,-159.08 548.51,-144.06 505.69,-133.87"/>
<polygon fill="midnightblue" stroke="midnightblue" points="506.34,-130.43 495.8,-131.52 504.72,-137.24 506.34,-130.43"/>
</g>
<!-- Node34&#45;&gt;Node35 -->
<g id="edge36" class="edge">
<title>Node34&#45;&gt;Node35</title>
<path fill="none" stroke="midnightblue" d="M713.94,-168.44C742.66,-159.32 788.33,-144.81 820.32,-134.65"/>
<polygon fill="midnightblue" stroke="midnightblue" points="821.72,-137.88 830.19,-131.52 819.6,-131.21 821.72,-137.88"/>
</g>
<!-- Node36 -->
<g id="node23" class="node">
<title>Node36</title>
<g id="a_node23"><a xlink:title=" ">
<polygon fill="white" stroke="#bfbfbf" points="548.5,-112.5 548.5,-131.5 631.5,-131.5 631.5,-112.5 548.5,-112.5"/>
<text text-anchor="middle" x="590" y="-119.5" font-family="Helvetica,sans-Serif" font-size="10.00">unordered_map</text>
</a>
</g>
</g>
<!-- Node34&#45;&gt;Node36 -->
<g id="edge38" class="edge">
<title>Node34&#45;&gt;Node36</title>
<path fill="none" stroke="midnightblue" d="M671.42,-168.32C656,-159.74 632.19,-146.49 614.29,-136.52"/>
<polygon fill="midnightblue" stroke="midnightblue" points="615.99,-133.46 605.55,-131.65 612.58,-139.58 615.99,-133.46"/>
</g>
<!-- Node37 -->
<g id="node24" class="node">
<title>Node37</title>
<g id="a_node24"><a xlink:title=" ">
<polygon fill="white" stroke="#bfbfbf" points="649.5,-112.5 649.5,-131.5 708.5,-131.5 708.5,-112.5 649.5,-112.5"/>
<text text-anchor="middle" x="679" y="-119.5" font-family="Helvetica,sans-Serif" font-size="10.00">functional</text>
</a>
</g>
</g>
<!-- Node34&#45;&gt;Node37 -->
<g id="edge39" class="edge">
<title>Node34&#45;&gt;Node37</title>
<path fill="none" stroke="midnightblue" d="M685.68,-168.08C684.62,-160.93 683.09,-150.64 681.77,-141.69"/>
<polygon fill="midnightblue" stroke="midnightblue" points="685.22,-141.13 680.3,-131.75 678.3,-142.16 685.22,-141.13"/>
</g>
<!-- Node35&#45;&gt;Node5 -->
<g id="edge37" class="edge">
<title>Node35&#45;&gt;Node5</title>
<path fill="none" stroke="midnightblue" d="M850.57,-112.37C836.97,-94.14 805.14,-51.43 787.43,-27.68"/>
<polygon fill="midnightblue" stroke="midnightblue" points="790.19,-25.52 781.4,-19.59 784.58,-29.7 790.19,-25.52"/>
</g>
<!-- Node41&#45;&gt;Node4 -->
<g id="edge43" class="edge">
<title>Node41&#45;&gt;Node4</title>
<path fill="none" stroke="midnightblue" d="M469.48,-224.4C447.36,-214.51 418.03,-201.38 396.59,-191.79"/>
<polygon fill="midnightblue" stroke="midnightblue" points="397.91,-188.55 387.35,-187.66 395.05,-194.94 397.91,-188.55"/>
</g>
<!-- Node42 -->
<g id="node26" class="node">
<title>Node42</title>
<g id="a_node26"><a xlink:href="../../d6/dd5/FactoryBase_8h.html" target="_top" xlink:title="File contains the FactoryBase class declarations.">
<polygon fill="white" stroke="black" points="431,-168.5 431,-187.5 571,-187.5 571,-168.5 431,-168.5"/>
<text text-anchor="middle" x="501" y="-175.5" font-family="Helvetica,sans-Serif" font-size="10.00">cantera/base/FactoryBase.h</text>
</a>
</g>
</g>
<!-- Node41&#45;&gt;Node42 -->
<g id="edge44" class="edge">
<title>Node41&#45;&gt;Node42</title>
<path fill="none" stroke="midnightblue" d="M501,-224.4C501,-216.47 501,-206.46 501,-197.86"/>
<polygon fill="midnightblue" stroke="midnightblue" points="504.5,-197.66 501,-187.66 497.5,-197.66 504.5,-197.66"/>
</g>
<!-- Node42&#45;&gt;Node14 -->
<g id="edge48" class="edge">
<title>Node42&#45;&gt;Node14</title>
<path fill="none" stroke="midnightblue" d="M494.23,-168.08C488.44,-160.46 479.94,-149.26 472.86,-139.94"/>
<polygon fill="midnightblue" stroke="midnightblue" points="475.48,-137.6 466.64,-131.75 469.9,-141.83 475.48,-137.6"/>
</g>
<!-- Node42&#45;&gt;Node36 -->
<g id="edge46" class="edge">
<title>Node42&#45;&gt;Node36</title>
<path fill="none" stroke="midnightblue" d="M515.3,-168.32C529.18,-159.9 550.49,-146.97 566.8,-137.07"/>
<polygon fill="midnightblue" stroke="midnightblue" points="569,-139.83 575.74,-131.65 565.37,-133.85 569,-139.83"/>
</g>
<!-- Node42&#45;&gt;Node37 -->
<g id="edge47" class="edge">
<title>Node42&#45;&gt;Node37</title>
<path fill="none" stroke="midnightblue" d="M529.2,-168.44C559.41,-159.28 607.51,-144.69 641.03,-134.52"/>
<polygon fill="midnightblue" stroke="midnightblue" points="642.37,-137.77 650.93,-131.52 640.34,-131.07 642.37,-137.77"/>
</g>
<!-- Node43 -->
<g id="node27" class="node">
<title>Node43</title>
<g id="a_node27"><a xlink:title=" ">
<polygon fill="white" stroke="#bfbfbf" points="200,-112.5 200,-131.5 244,-131.5 244,-112.5 200,-112.5"/>
<text text-anchor="middle" x="222" y="-119.5" font-family="Helvetica,sans-Serif" font-size="10.00">mutex</text>
</a>
</g>
</g>
<!-- Node42&#45;&gt;Node43 -->
<g id="edge45" class="edge">
<title>Node42&#45;&gt;Node43</title>
<path fill="none" stroke="midnightblue" d="M444.52,-168.45C396.29,-160.77 324.94,-148.5 254.25,-132.11"/>
<polygon fill="midnightblue" stroke="midnightblue" points="254.81,-128.64 244.28,-129.77 253.21,-135.46 254.81,-128.64"/>
</g>
<!-- Node44 -->
<g id="node28" class="node">
<title>Node44</title>
<g id="a_node28"><a xlink:href="../../d2/d49/global_8h.html" target="_top" xlink:title="This file contains definitions for utility functions and text for modules, inputfiles,...">
<polygon fill="white" stroke="black" points="262,-112.5 262,-131.5 372,-131.5 372,-112.5 262,-112.5"/>
<text text-anchor="middle" x="317" y="-119.5" font-family="Helvetica,sans-Serif" font-size="10.00">cantera/base/global.h</text>
</a>
</g>
</g>
<!-- Node42&#45;&gt;Node44 -->
<g id="edge49" class="edge">
<title>Node42&#45;&gt;Node44</title>
<path fill="none" stroke="midnightblue" d="M471.84,-168.44C440.49,-159.24 390.47,-144.56 355.8,-134.39"/>
<polygon fill="midnightblue" stroke="midnightblue" points="356.6,-130.97 346.02,-131.52 354.63,-137.69 356.6,-130.97"/>
</g>
<!-- Node44&#45;&gt;Node5 -->
<g id="edge50" class="edge">
<title>Node44&#45;&gt;Node5</title>
<path fill="none" stroke="midnightblue" d="M324.96,-112.46C338.97,-98.05 369.65,-69.16 402,-56 455.65,-34.17 614.37,-20.97 706.56,-14.93"/>
<polygon fill="midnightblue" stroke="midnightblue" points="706.89,-18.42 716.64,-14.29 706.44,-11.44 706.89,-18.42"/>
</g>
<!-- Node44&#45;&gt;Node15 -->
<g id="edge51" class="edge">
<title>Node44&#45;&gt;Node15</title>
<path fill="none" stroke="midnightblue" d="M339.66,-112.44C363.4,-103.48 400.91,-89.31 427.74,-79.18"/>
<polygon fill="midnightblue" stroke="midnightblue" points="429.33,-82.32 437.45,-75.52 426.86,-75.77 429.33,-82.32"/>
</g>
<!-- Node45&#45;&gt;Node5 -->
<g id="edge53" class="edge">
<title>Node45&#45;&gt;Node5</title>
<path fill="none" stroke="midnightblue" d="M1413.69,-291.34C1406.48,-271.69 1390,-222.05 1390,-179 1390,-179 1390,-179 1390,-121 1390,-81.98 1366.01,-73.22 1331,-56 1246.93,-14.63 972.27,-10.09 843.19,-10.34"/>
<polygon fill="midnightblue" stroke="midnightblue" points="843.02,-6.84 833.03,-10.37 843.04,-13.84 843.02,-6.84"/>
</g>
</g>
</svg>
        <g id="navigator" transform="translate(0 0)" fill="#404254">
                <rect fill="#f2f5e9" fill-opacity="0.5" stroke="#606060" stroke-width=".5" x="0" y="0" width="60" height="60"/>
                <use id="zoomplus" xlink:href="#zoomPlus" x="17" y="9" onmousedown="handleZoom(evt,'in')"/>
                <use id="zoomminus" xlink:href="#zoomMin" x="42" y="9" onmousedown="handleZoom(evt,'out')"/>
                <use id="reset" xlink:href="#resetDef" x="30" y="36" onmousedown="handleReset()"/>
                <g id="arrowUp" xlink:href="#dirArrow" transform="translate(30 24)" onmousedown="handlePan(0,-1)">
                  <use xlink:href="#rim" fill="#404040">
                        <set attributeName="fill" to="#808080" begin="arrowUp.mouseover" end="arrowUp.mouseout"/>
                  </use>
                  <path fill="none" stroke="white" stroke-width="1.5" d="M0,-3.0v7 M-2.5,-0.5L0,-3.0L2.5,-0.5"/>
                </g>
                <g id="arrowRight" xlink:href="#dirArrow" transform="rotate(90) translate(36 -43)" onmousedown="handlePan(1,0)">
                  <use xlink:href="#rim" fill="#404040">
                        <set attributeName="fill" to="#808080" begin="arrowRight.mouseover" end="arrowRight.mouseout"/>
                  </use>
                  <path fill="none" stroke="white" stroke-width="1.5" d="M0,-3.0v7 M-2.5,-0.5L0,-3.0L2.5,-0.5"/>
                </g>
                <g id="arrowDown" xlink:href="#dirArrow" transform="rotate(180) translate(-30 -48)" onmousedown="handlePan(0,1)">
                  <use xlink:href="#rim" fill="#404040">
                        <set attributeName="fill" to="#808080" begin="arrowDown.mouseover" end="arrowDown.mouseout"/>
                  </use>
                  <path fill="none" stroke="white" stroke-width="1.5" d="M0,-3.0v7 M-2.5,-0.5L0,-3.0L2.5,-0.5"/>
                </g>
                <g id="arrowLeft" xlink:href="#dirArrow" transform="rotate(270) translate(-36 17)" onmousedown="handlePan(-1,0)">
                  <use xlink:href="#rim" fill="#404040">
                        <set attributeName="fill" to="#808080" begin="arrowLeft.mouseover" end="arrowLeft.mouseout"/>
                  </use>
                  <path fill="none" stroke="white" stroke-width="1.5" d="M0,-3.0v7 M-2.5,-0.5L0,-3.0L2.5,-0.5"/>
                </g>
        </g>
        <svg viewBox="0 0 15 15" width="100%" height="30px" preserveAspectRatio="xMaxYMin meet">
         <g id="arrow_out" transform="scale(0.3 0.3)">
          <a xlink:href="HighPressureGasTransport_8cpp__incl_org.svg" target="_base">
           <rect id="button" ry="5" rx="5" y="6" x="6" height="38" width="38"
                fill="#f2f5e9" fill-opacity="0.5" stroke="#606060" stroke-width="1.0"/>
           <path id="arrow"
             d="M 11.500037,31.436501 C 11.940474,20.09759 22.043105,11.32322 32.158766,21.979434 L 37.068811,17.246167 C 37.068811,17.246167 37.088388,32 37.088388,32 L 22.160133,31.978069 C 22.160133,31.978069 26.997745,27.140456 26.997745,27.140456 C 18.528582,18.264221 13.291696,25.230495 11.500037,31.436501 z"
             style="fill:#404040;"/>
          </a>
         </g>
        </svg>
</svg>
