<?xml version="1.0" encoding="UTF-8" standalone="no"?>
<!DOCTYPE svg PUBLIC "-//W3C//DTD SVG 1.1//EN"
 "http://www.w3.org/Graphics/SVG/1.1/DTD/svg11.dtd">
<!-- Generated by graphviz version 2.43.0 (0)
 -->
<!-- Title: Mu0Poly.cpp Pages: 1 -->
<!--zoomable 431 -->
<svg id="main" version="1.1" xmlns="http://www.w3.org/2000/svg" xmlns:xlink="http://www.w3.org/1999/xlink" xml:space="preserve" onload="init(evt)">
<style type="text/css"><![CDATA[
.edge:hover path { stroke: red; }
.edge:hover polygon { stroke: red; fill: red; }
]]></style>
<script type="text/javascript"><![CDATA[
var edges = document.getElementsByTagName('g');
if (edges && edges.length) {
  for (var i=0;i<edges.length;i++) {
    if (edges[i].id.substr(0,4)=='edge') {
      edges[i].setAttribute('class','edge');
    }
  }
}
]]></script>
        <defs>
                <circle id="rim" cx="0" cy="0" r="7"/>
                <circle id="rim2" cx="0" cy="0" r="3.5"/>
                <g id="zoomPlus">
                        <use xlink:href="#rim" fill="#404040">
                                <set attributeName="fill" to="#808080" begin="zoomplus.mouseover" end="zoomplus.mouseout"/>
                        </use>
                        <path d="M-4,0h8M0,-4v8" fill="none" stroke="white" stroke-width="1.5" pointer-events="none"/>
                </g>
                <g id="zoomMin">
                        <use xlink:href="#rim" fill="#404040">
                                <set attributeName="fill" to="#808080" begin="zoomminus.mouseover" end="zoomminus.mouseout"/>
                        </use>
                        <path d="M-4,0h8" fill="none" stroke="white" stroke-width="1.5" pointer-events="none"/>
                </g>
                <g id="dirArrow">
                        <path fill="none" stroke="white" stroke-width="1.5" d="M0,-3.0v7 M-2.5,-0.5L0,-3.0L2.5,-0.5"/>
                </g>
               <g id="resetDef">
                       <use xlink:href="#rim2" fill="#404040">
                               <set attributeName="fill" to="#808080" begin="reset.mouseover" end="reset.mouseout"/>
                       </use>
               </g>
        </defs>

<script type="text/javascript">
var viewWidth = 884;
var viewHeight = 431;
var sectionId = 'dynsection-0';
</script>
<script xlink:href="../../svgpan.js"/>
<svg id="graph" class="graph">
<g id="viewport">
<title>Mu0Poly.cpp</title>
<polygon fill="white" stroke="transparent" points="-4,4 -4,-427 880.49,-427 880.49,4 -4,4"/>
<!-- Node1 -->
<g id="node1" class="node">
<title>Node1</title>
<g id="a_node1"><a xlink:title="Definitions for a single&#45;species standard state object derived from SpeciesThermoInterpType based on ...">
<polygon fill="#bfbfbf" stroke="black" points="524,-403.5 524,-422.5 601,-422.5 601,-403.5 524,-403.5"/>
<text text-anchor="middle" x="562.5" y="-410.5" font-family="Helvetica,sans-Serif" font-size="10.00">Mu0Poly.cpp</text>
</a>
</g>
</g>
<!-- Node2 -->
<g id="node2" class="node">
<title>Node2</title>
<g id="a_node2"><a xlink:href="../../d0/dbd/Mu0Poly_8h.html" target="_top" xlink:title="Header for a single&#45;species standard state object derived from SpeciesThermoInterpType based on a pie...">
<polygon fill="white" stroke="black" points="378.5,-347.5 378.5,-366.5 522.5,-366.5 522.5,-347.5 378.5,-347.5"/>
<text text-anchor="middle" x="450.5" y="-354.5" font-family="Helvetica,sans-Serif" font-size="10.00">cantera/thermo/Mu0Poly.h</text>
</a>
</g>
</g>
<!-- Node1&#45;&gt;Node2 -->
<g id="edge1" class="edge">
<title>Node1&#45;&gt;Node2</title>
<path fill="none" stroke="midnightblue" d="M544.51,-403.32C526.46,-394.62 498.45,-381.12 477.7,-371.11"/>
<polygon fill="midnightblue" stroke="midnightblue" points="478.98,-367.84 468.45,-366.65 475.94,-374.15 478.98,-367.84"/>
</g>
<!-- Node21 -->
<g id="node18" class="node">
<title>Node21</title>
<g id="a_node18"><a xlink:href="../../dd/d2a/AnyMap_8h.html" target="_top" xlink:title=" ">
<polygon fill="white" stroke="black" points="471,-224.5 471,-243.5 602,-243.5 602,-224.5 471,-224.5"/>
<text text-anchor="middle" x="536.5" y="-231.5" font-family="Helvetica,sans-Serif" font-size="10.00">cantera/base/AnyMap.h</text>
</a>
</g>
</g>
<!-- Node1&#45;&gt;Node21 -->
<g id="edge32" class="edge">
<title>Node1&#45;&gt;Node21</title>
<path fill="none" stroke="midnightblue" d="M561.29,-403.35C558.33,-382.25 550.46,-326.48 543.5,-280 542.2,-271.29 540.7,-261.64 539.43,-253.52"/>
<polygon fill="midnightblue" stroke="midnightblue" points="542.88,-252.96 537.87,-243.62 535.97,-254.05 542.88,-252.96"/>
</g>
<!-- Node28 -->
<g id="node25" class="node">
<title>Node28</title>
<g id="a_node25"><a xlink:href="../../dd/dc3/stringUtils_8h.html" target="_top" xlink:title="Contains declarations for string manipulation functions within Cantera.">
<polygon fill="white" stroke="black" points="732.5,-224.5 732.5,-243.5 874.5,-243.5 874.5,-224.5 732.5,-224.5"/>
<text text-anchor="middle" x="803.5" y="-231.5" font-family="Helvetica,sans-Serif" font-size="10.00">cantera/base/stringUtils.h</text>
</a>
</g>
</g>
<!-- Node1&#45;&gt;Node28 -->
<g id="edge30" class="edge">
<title>Node1&#45;&gt;Node28</title>
<path fill="none" stroke="midnightblue" d="M574.12,-403.46C612.45,-375.31 735.14,-285.21 783.57,-249.64"/>
<polygon fill="midnightblue" stroke="midnightblue" points="785.72,-252.4 791.71,-243.66 781.58,-246.76 785.72,-252.4"/>
</g>
<!-- Node3 -->
<g id="node3" class="node">
<title>Node3</title>
<g id="a_node3"><a xlink:href="../../d4/d87/SpeciesThermoInterpType_8h.html" target="_top" xlink:title="Pure Virtual Base class for individual species reference state thermodynamic managers and text for th...">
<polygon fill="white" stroke="black" points="177.5,-280.5 177.5,-310.5 347.5,-310.5 347.5,-280.5 177.5,-280.5"/>
<text text-anchor="start" x="185.5" y="-298.5" font-family="Helvetica,sans-Serif" font-size="10.00">cantera/thermo/SpeciesThermo</text>
<text text-anchor="middle" x="262.5" y="-287.5" font-family="Helvetica,sans-Serif" font-size="10.00">InterpType.h</text>
</a>
</g>
</g>
<!-- Node2&#45;&gt;Node3 -->
<g id="edge2" class="edge">
<title>Node2&#45;&gt;Node3</title>
<path fill="none" stroke="midnightblue" d="M423.56,-347.48C395.72,-338.66 351.5,-324.67 316.43,-313.57"/>
<polygon fill="midnightblue" stroke="midnightblue" points="317.4,-310.2 306.81,-310.52 315.29,-316.88 317.4,-310.2"/>
</g>
<!-- Node27 -->
<g id="node24" class="node">
<title>Node27</title>
<g id="a_node24"><a xlink:href="../../d4/d0c/speciesThermoTypes_8h.html" target="_top" xlink:title="Contains const definitions for types of species reference&#45;state thermodynamics managers (see Species ...">
<polygon fill="white" stroke="black" points="366,-280.5 366,-310.5 535,-310.5 535,-280.5 366,-280.5"/>
<text text-anchor="start" x="374" y="-298.5" font-family="Helvetica,sans-Serif" font-size="10.00">cantera/thermo/speciesThermo</text>
<text text-anchor="middle" x="450.5" y="-287.5" font-family="Helvetica,sans-Serif" font-size="10.00">Types.h</text>
</a>
</g>
</g>
<!-- Node2&#45;&gt;Node27 -->
<g id="edge29" class="edge">
<title>Node2&#45;&gt;Node27</title>
<path fill="none" stroke="midnightblue" d="M450.5,-347.48C450.5,-340.47 450.5,-330.19 450.5,-320.7"/>
<polygon fill="midnightblue" stroke="midnightblue" points="454,-320.52 450.5,-310.52 447,-320.52 454,-320.52"/>
</g>
<!-- Node4 -->
<g id="node4" class="node">
<title>Node4</title>
<g id="a_node4"><a xlink:href="../../d9/ddc/ct__defs_8h.html" target="_top" xlink:title="This file contains definitions of constants, types and terms that are used in internal routines and a...">
<polygon fill="white" stroke="black" points="252,-56.5 252,-75.5 379,-75.5 379,-56.5 252,-56.5"/>
<text text-anchor="middle" x="315.5" y="-63.5" font-family="Helvetica,sans-Serif" font-size="10.00">cantera/base/ct_defs.h</text>
</a>
</g>
</g>
<!-- Node3&#45;&gt;Node4 -->
<g id="edge3" class="edge">
<title>Node3&#45;&gt;Node4</title>
<path fill="none" stroke="midnightblue" d="M243.73,-280.45C203.68,-248.79 116.91,-170.05 160.5,-112 171.85,-96.88 214.3,-85.2 251.91,-77.53"/>
<polygon fill="midnightblue" stroke="midnightblue" points="252.72,-80.94 261.86,-75.57 251.37,-74.07 252.72,-80.94"/>
</g>
<!-- Node15 -->
<g id="node15" class="node">
<title>Node15</title>
<g id="a_node15"><a xlink:href="../../db/d98/ctexceptions_8h.html" target="_top" xlink:title="Definitions for the classes that are thrown when Cantera experiences an error condition (also contain...">
<polygon fill="white" stroke="black" points="185.5,-168.5 185.5,-187.5 339.5,-187.5 339.5,-168.5 185.5,-168.5"/>
<text text-anchor="middle" x="262.5" y="-175.5" font-family="Helvetica,sans-Serif" font-size="10.00">cantera/base/ctexceptions.h</text>
</a>
</g>
</g>
<!-- Node3&#45;&gt;Node15 -->
<g id="edge14" class="edge">
<title>Node3&#45;&gt;Node15</title>
<path fill="none" stroke="midnightblue" d="M262.5,-280.34C262.5,-259.62 262.5,-221.02 262.5,-197.9"/>
<polygon fill="midnightblue" stroke="midnightblue" points="266,-197.67 262.5,-187.67 259,-197.67 266,-197.67"/>
</g>
<!-- Node3&#45;&gt;Node21 -->
<g id="edge19" class="edge">
<title>Node3&#45;&gt;Node21</title>
<path fill="none" stroke="midnightblue" d="M327.09,-280.47C376.11,-269.83 442.5,-255.41 487.28,-245.69"/>
<polygon fill="midnightblue" stroke="midnightblue" points="488.3,-249.05 497.33,-243.51 486.81,-242.21 488.3,-249.05"/>
</g>
<!-- Node5 -->
<g id="node5" class="node">
<title>Node5</title>
<g id="a_node5"><a xlink:href="../../db/d16/config_8h_source.html" target="_top" xlink:title=" ">
<polygon fill="white" stroke="black" points="0,-0.5 0,-19.5 55,-19.5 55,-0.5 0,-0.5"/>
<text text-anchor="middle" x="27.5" y="-7.5" font-family="Helvetica,sans-Serif" font-size="10.00">config.h</text>
</a>
</g>
</g>
<!-- Node4&#45;&gt;Node5 -->
<g id="edge4" class="edge">
<title>Node4&#45;&gt;Node5</title>
<path fill="none" stroke="midnightblue" d="M261.71,-56.49C212.74,-48.49 138.25,-35.71 65.19,-20.26"/>
<polygon fill="midnightblue" stroke="midnightblue" points="65.87,-16.83 55.36,-18.17 64.41,-23.68 65.87,-16.83"/>
</g>
<!-- Node6 -->
<g id="node6" class="node">
<title>Node6</title>
<g id="a_node6"><a xlink:title=" ">
<polygon fill="white" stroke="#bfbfbf" points="73,-0.5 73,-19.5 120,-19.5 120,-0.5 73,-0.5"/>
<text text-anchor="middle" x="96.5" y="-7.5" font-family="Helvetica,sans-Serif" font-size="10.00">cmath</text>
</a>
</g>
</g>
<!-- Node4&#45;&gt;Node6 -->
<g id="edge5" class="edge">
<title>Node4&#45;&gt;Node6</title>
<path fill="none" stroke="midnightblue" d="M278.14,-56.45C242.39,-48.17 186.71,-35.02 130.07,-20.35"/>
<polygon fill="midnightblue" stroke="midnightblue" points="130.8,-16.92 120.24,-17.78 129.03,-23.69 130.8,-16.92"/>
</g>
<!-- Node7 -->
<g id="node7" class="node">
<title>Node7</title>
<g id="a_node7"><a xlink:title=" ">
<polygon fill="white" stroke="#bfbfbf" points="138,-0.5 138,-19.5 187,-19.5 187,-0.5 138,-0.5"/>
<text text-anchor="middle" x="162.5" y="-7.5" font-family="Helvetica,sans-Serif" font-size="10.00">cstdlib</text>
</a>
</g>
</g>
<!-- Node4&#45;&gt;Node7 -->
<g id="edge6" class="edge">
<title>Node4&#45;&gt;Node7</title>
<path fill="none" stroke="midnightblue" d="M291.26,-56.44C265.63,-47.4 225.01,-33.06 196.26,-22.92"/>
<polygon fill="midnightblue" stroke="midnightblue" points="197.22,-19.54 186.63,-19.52 194.89,-26.15 197.22,-19.54"/>
</g>
<!-- Node8 -->
<g id="node8" class="node">
<title>Node8</title>
<g id="a_node8"><a xlink:title=" ">
<polygon fill="white" stroke="#bfbfbf" points="205,-0.5 205,-19.5 252,-19.5 252,-0.5 205,-0.5"/>
<text text-anchor="middle" x="228.5" y="-7.5" font-family="Helvetica,sans-Serif" font-size="10.00">vector</text>
</a>
</g>
</g>
<!-- Node4&#45;&gt;Node8 -->
<g id="edge7" class="edge">
<title>Node4&#45;&gt;Node8</title>
<path fill="none" stroke="midnightblue" d="M301.52,-56.32C287.95,-47.9 267.12,-34.97 251.18,-25.07"/>
<polygon fill="midnightblue" stroke="midnightblue" points="252.79,-21.95 242.44,-19.65 249.09,-27.9 252.79,-21.95"/>
</g>
<!-- Node9 -->
<g id="node9" class="node">
<title>Node9</title>
<g id="a_node9"><a xlink:title=" ">
<polygon fill="white" stroke="#bfbfbf" points="270.5,-0.5 270.5,-19.5 308.5,-19.5 308.5,-0.5 270.5,-0.5"/>
<text text-anchor="middle" x="289.5" y="-7.5" font-family="Helvetica,sans-Serif" font-size="10.00">map</text>
</a>
</g>
</g>
<!-- Node4&#45;&gt;Node9 -->
<g id="edge8" class="edge">
<title>Node4&#45;&gt;Node9</title>
<path fill="none" stroke="midnightblue" d="M311.21,-56.08C307.65,-48.69 302.48,-37.95 298.08,-28.81"/>
<polygon fill="midnightblue" stroke="midnightblue" points="301.21,-27.24 293.71,-19.75 294.9,-30.28 301.21,-27.24"/>
</g>
<!-- Node10 -->
<g id="node10" class="node">
<title>Node10</title>
<g id="a_node10"><a xlink:title=" ">
<polygon fill="white" stroke="#bfbfbf" points="326.5,-0.5 326.5,-19.5 358.5,-19.5 358.5,-0.5 326.5,-0.5"/>
<text text-anchor="middle" x="342.5" y="-7.5" font-family="Helvetica,sans-Serif" font-size="10.00">set</text>
</a>
</g>
</g>
<!-- Node4&#45;&gt;Node10 -->
<g id="edge9" class="edge">
<title>Node4&#45;&gt;Node10</title>
<path fill="none" stroke="midnightblue" d="M319.96,-56.08C323.65,-48.69 329.02,-37.95 333.59,-28.81"/>
<polygon fill="midnightblue" stroke="midnightblue" points="336.78,-30.26 338.12,-19.75 330.52,-27.13 336.78,-30.26"/>
</g>
<!-- Node11 -->
<g id="node11" class="node">
<title>Node11</title>
<g id="a_node11"><a xlink:title=" ">
<polygon fill="white" stroke="#bfbfbf" points="376.5,-0.5 376.5,-19.5 420.5,-19.5 420.5,-0.5 376.5,-0.5"/>
<text text-anchor="middle" x="398.5" y="-7.5" font-family="Helvetica,sans-Serif" font-size="10.00">string</text>
</a>
</g>
</g>
<!-- Node4&#45;&gt;Node11 -->
<g id="edge10" class="edge">
<title>Node4&#45;&gt;Node11</title>
<path fill="none" stroke="midnightblue" d="M328.84,-56.32C341.66,-47.98 361.28,-35.21 376.44,-25.35"/>
<polygon fill="midnightblue" stroke="midnightblue" points="378.72,-28.04 385.2,-19.65 374.91,-22.17 378.72,-28.04"/>
</g>
<!-- Node12 -->
<g id="node12" class="node">
<title>Node12</title>
<g id="a_node12"><a xlink:title=" ">
<polygon fill="white" stroke="#bfbfbf" points="438.5,-0.5 438.5,-19.5 502.5,-19.5 502.5,-0.5 438.5,-0.5"/>
<text text-anchor="middle" x="470.5" y="-7.5" font-family="Helvetica,sans-Serif" font-size="10.00">algorithm</text>
</a>
</g>
</g>
<!-- Node4&#45;&gt;Node12 -->
<g id="edge11" class="edge">
<title>Node4&#45;&gt;Node12</title>
<path fill="none" stroke="midnightblue" d="M340.06,-56.44C366.02,-47.4 407.17,-33.06 436.3,-22.92"/>
<polygon fill="midnightblue" stroke="midnightblue" points="437.76,-26.11 446.05,-19.52 435.46,-19.5 437.76,-26.11"/>
</g>
<!-- Node13 -->
<g id="node13" class="node">
<title>Node13</title>
<g id="a_node13"><a xlink:title=" ">
<polygon fill="white" stroke="#bfbfbf" points="520.5,-0.5 520.5,-19.5 578.5,-19.5 578.5,-0.5 520.5,-0.5"/>
<text text-anchor="middle" x="549.5" y="-7.5" font-family="Helvetica,sans-Serif" font-size="10.00">memory</text>
</a>
</g>
</g>
<!-- Node4&#45;&gt;Node13 -->
<g id="edge12" class="edge">
<title>Node4&#45;&gt;Node13</title>
<path fill="none" stroke="midnightblue" d="M353.09,-56.45C390.56,-47.91 450,-34.31 510.71,-20.17"/>
<polygon fill="midnightblue" stroke="midnightblue" points="511.51,-23.58 520.46,-17.9 509.93,-16.76 511.51,-23.58"/>
</g>
<!-- Node14 -->
<g id="node14" class="node">
<title>Node14</title>
<g id="a_node14"><a xlink:title=" ">
<polygon fill="white" stroke="#bfbfbf" points="597,-0.5 597,-19.5 662,-19.5 662,-0.5 597,-0.5"/>
<text text-anchor="middle" x="629.5" y="-7.5" font-family="Helvetica,sans-Serif" font-size="10.00">functional</text>
</a>
</g>
</g>
<!-- Node4&#45;&gt;Node14 -->
<g id="edge13" class="edge">
<title>Node4&#45;&gt;Node14</title>
<path fill="none" stroke="midnightblue" d="M371.9,-56.46C424.85,-48.27 506.51,-35.17 587.15,-19.99"/>
<polygon fill="midnightblue" stroke="midnightblue" points="587.8,-23.43 596.97,-18.13 586.49,-16.55 587.8,-23.43"/>
</g>
<!-- Node15&#45;&gt;Node4 -->
<g id="edge15" class="edge">
<title>Node15&#45;&gt;Node4</title>
<path fill="none" stroke="midnightblue" d="M228.86,-168.46C194.53,-158.07 148.85,-138.56 168.5,-112 185.6,-88.88 214.36,-77.25 241.92,-71.53"/>
<polygon fill="midnightblue" stroke="midnightblue" points="242.79,-74.93 252,-69.68 241.53,-68.04 242.79,-74.93"/>
</g>
<!-- Node16 -->
<g id="node16" class="node">
<title>Node16</title>
<g id="a_node16"><a xlink:href="../../db/def/fmt_8h.html" target="_top" xlink:title="Wrapper for either system&#45;installed or local headers for fmt.">
<polygon fill="white" stroke="red" points="178,-112.5 178,-131.5 287,-131.5 287,-112.5 178,-112.5"/>
<text text-anchor="middle" x="232.5" y="-119.5" font-family="Helvetica,sans-Serif" font-size="10.00">cantera/base/fmt.h</text>
</a>
</g>
</g>
<!-- Node15&#45;&gt;Node16 -->
<g id="edge16" class="edge">
<title>Node15&#45;&gt;Node16</title>
<path fill="none" stroke="midnightblue" d="M257.55,-168.08C253.4,-160.61 247.35,-149.72 242.23,-140.52"/>
<polygon fill="midnightblue" stroke="midnightblue" points="245.28,-138.79 237.36,-131.75 239.16,-142.19 245.28,-138.79"/>
</g>
<!-- Node20 -->
<g id="node17" class="node">
<title>Node20</title>
<g id="a_node17"><a xlink:title=" ">
<polygon fill="white" stroke="#bfbfbf" points="305,-112.5 305,-131.5 370,-131.5 370,-112.5 305,-112.5"/>
<text text-anchor="middle" x="337.5" y="-119.5" font-family="Helvetica,sans-Serif" font-size="10.00">exception</text>
</a>
</g>
</g>
<!-- Node15&#45;&gt;Node20 -->
<g id="edge18" class="edge">
<title>Node15&#45;&gt;Node20</title>
<path fill="none" stroke="midnightblue" d="M274.55,-168.32C285.96,-160.11 303.33,-147.6 316.93,-137.81"/>
<polygon fill="midnightblue" stroke="midnightblue" points="319.16,-140.52 325.23,-131.83 315.07,-134.84 319.16,-140.52"/>
</g>
<!-- Node16&#45;&gt;Node4 -->
<g id="edge17" class="edge">
<title>Node16&#45;&gt;Node4</title>
<path fill="none" stroke="midnightblue" d="M245.84,-112.32C258.66,-103.98 278.28,-91.21 293.44,-81.35"/>
<polygon fill="midnightblue" stroke="midnightblue" points="295.72,-84.04 302.2,-75.65 291.91,-78.17 295.72,-84.04"/>
</g>
<!-- Node21&#45;&gt;Node4 -->
<g id="edge20" class="edge">
<title>Node21&#45;&gt;Node4</title>
<path fill="none" stroke="midnightblue" d="M514.65,-224.41C496.04,-216.51 469.13,-203.67 448.5,-188 411.93,-160.22 412.92,-142.4 378.5,-112 365.69,-100.69 350.06,-89.51 337.58,-81.13"/>
<polygon fill="midnightblue" stroke="midnightblue" points="339.4,-78.14 329.13,-75.55 335.55,-83.98 339.4,-78.14"/>
</g>
<!-- Node21&#45;&gt;Node15 -->
<g id="edge21" class="edge">
<title>Node21&#45;&gt;Node15</title>
<path fill="none" stroke="midnightblue" d="M493.08,-224.44C444.98,-214.96 367.41,-199.67 315.69,-189.48"/>
<polygon fill="midnightblue" stroke="midnightblue" points="316.2,-186.02 305.71,-187.52 314.85,-192.88 316.2,-186.02"/>
</g>
<!-- Node22 -->
<g id="node19" class="node">
<title>Node22</title>
<g id="a_node19"><a xlink:href="../../da/d58/Units_8h.html" target="_top" xlink:title="Header for unit conversion utilities, which are used to translate user input from input files (See In...">
<polygon fill="white" stroke="black" points="427,-112.5 427,-131.5 544,-131.5 544,-112.5 427,-112.5"/>
<text text-anchor="middle" x="485.5" y="-119.5" font-family="Helvetica,sans-Serif" font-size="10.00">cantera/base/Units.h</text>
</a>
</g>
</g>
<!-- Node21&#45;&gt;Node22 -->
<g id="edge22" class="edge">
<title>Node21&#45;&gt;Node22</title>
<path fill="none" stroke="midnightblue" d="M505.48,-224.44C487.47,-217.69 466.27,-206.3 455.5,-188 446.1,-172.03 457.82,-152.62 469.25,-139.19"/>
<polygon fill="midnightblue" stroke="midnightblue" points="471.96,-141.42 476.14,-131.69 466.8,-136.69 471.96,-141.42"/>
</g>
<!-- Node23 -->
<g id="node20" class="node">
<title>Node23</title>
<g id="a_node20"><a xlink:title=" ">
<polygon fill="white" stroke="#bfbfbf" points="465,-168.5 465,-187.5 558,-187.5 558,-168.5 465,-168.5"/>
<text text-anchor="middle" x="511.5" y="-175.5" font-family="Helvetica,sans-Serif" font-size="10.00">unordered_map</text>
</a>
</g>
</g>
<!-- Node21&#45;&gt;Node23 -->
<g id="edge24" class="edge">
<title>Node21&#45;&gt;Node23</title>
<path fill="none" stroke="midnightblue" d="M532.37,-224.08C528.99,-216.77 524.08,-206.18 519.88,-197.1"/>
<polygon fill="midnightblue" stroke="midnightblue" points="522.93,-195.36 515.55,-187.75 516.58,-198.3 522.93,-195.36"/>
</g>
<!-- Node24 -->
<g id="node21" class="node">
<title>Node24</title>
<g id="a_node21"><a xlink:title=" ">
<polygon fill="white" stroke="#bfbfbf" points="576.5,-168.5 576.5,-187.5 644.5,-187.5 644.5,-168.5 576.5,-168.5"/>
<text text-anchor="middle" x="610.5" y="-175.5" font-family="Helvetica,sans-Serif" font-size="10.00">filesystem</text>
</a>
</g>
</g>
<!-- Node21&#45;&gt;Node24 -->
<g id="edge25" class="edge">
<title>Node21&#45;&gt;Node24</title>
<path fill="none" stroke="midnightblue" d="M548.39,-224.32C559.65,-216.11 576.79,-203.6 590.21,-193.81"/>
<polygon fill="midnightblue" stroke="midnightblue" points="592.38,-196.56 598.39,-187.83 588.25,-190.9 592.38,-196.56"/>
</g>
<!-- Node25 -->
<g id="node22" class="node">
<title>Node25</title>
<g id="a_node22"><a xlink:title=" ">
<polygon fill="white" stroke="#bfbfbf" points="663,-168.5 663,-187.5 698,-187.5 698,-168.5 663,-168.5"/>
<text text-anchor="middle" x="680.5" y="-175.5" font-family="Helvetica,sans-Serif" font-size="10.00">any</text>
</a>
</g>
</g>
<!-- Node21&#45;&gt;Node25 -->
<g id="edge26" class="edge">
<title>Node21&#45;&gt;Node25</title>
<path fill="none" stroke="midnightblue" d="M559.32,-224.44C584.77,-214.9 625.94,-199.46 653.12,-189.27"/>
<polygon fill="midnightblue" stroke="midnightblue" points="654.65,-192.43 662.78,-185.64 652.19,-185.88 654.65,-192.43"/>
</g>
<!-- Node26 -->
<g id="node23" class="node">
<title>Node26</title>
<g id="a_node23"><a xlink:href="../../da/d4c/AnyMap_8inl_8h.html" target="_top" xlink:title=" ">
<polygon fill="white" stroke="black" points="716.5,-168.5 716.5,-187.5 862.5,-187.5 862.5,-168.5 716.5,-168.5"/>
<text text-anchor="middle" x="789.5" y="-175.5" font-family="Helvetica,sans-Serif" font-size="10.00">cantera/base/AnyMap.inl.h</text>
</a>
</g>
</g>
<!-- Node21&#45;&gt;Node26 -->
<g id="edge27" class="edge">
<title>Node21&#45;&gt;Node26</title>
<path fill="none" stroke="midnightblue" d="M571.5,-224.44C613.75,-214.98 685.04,-199.74 734.6,-189.55"/>
<polygon fill="midnightblue" stroke="midnightblue" points="735.42,-192.95 744.52,-187.52 734.02,-186.09 735.42,-192.95"/>
</g>
<!-- Node22&#45;&gt;Node4 -->
<g id="edge23" class="edge">
<title>Node22&#45;&gt;Node4</title>
<path fill="none" stroke="midnightblue" d="M458.56,-112.44C429.84,-103.32 384.17,-88.81 352.18,-78.65"/>
<polygon fill="midnightblue" stroke="midnightblue" points="352.9,-75.21 342.31,-75.52 350.78,-81.88 352.9,-75.21"/>
</g>
<!-- Node26&#45;&gt;Node21 -->
<g id="edge28" class="edge">
<title>Node26&#45;&gt;Node21</title>
<path fill="none" stroke="midnightblue" d="M754.68,-187.52C712.52,-196.96 641.23,-212.2 591.61,-222.41"/>
<polygon fill="midnightblue" stroke="midnightblue" points="590.77,-219.01 581.68,-224.44 592.18,-225.87 590.77,-219.01"/>
</g>
<!-- Node28&#45;&gt;Node4 -->
<g id="edge31" class="edge">
<title>Node28&#45;&gt;Node4</title>
<path fill="none" stroke="midnightblue" d="M824.67,-224.39C850.87,-212.51 889.92,-190.07 871.5,-168 810.92,-95.42 526.42,-74.88 389.5,-69.16"/>
<polygon fill="midnightblue" stroke="midnightblue" points="389.24,-65.65 379.1,-68.74 388.96,-72.64 389.24,-65.65"/>
</g>
</g>
</svg>
        <g id="navigator" transform="translate(0 0)" fill="#404254">
                <rect fill="#f2f5e9" fill-opacity="0.5" stroke="#606060" stroke-width=".5" x="0" y="0" width="60" height="60"/>
                <use id="zoomplus" xlink:href="#zoomPlus" x="17" y="9" onmousedown="handleZoom(evt,'in')"/>
                <use id="zoomminus" xlink:href="#zoomMin" x="42" y="9" onmousedown="handleZoom(evt,'out')"/>
                <use id="reset" xlink:href="#resetDef" x="30" y="36" onmousedown="handleReset()"/>
                <g id="arrowUp" xlink:href="#dirArrow" transform="translate(30 24)" onmousedown="handlePan(0,-1)">
                  <use xlink:href="#rim" fill="#404040">
                        <set attributeName="fill" to="#808080" begin="arrowUp.mouseover" end="arrowUp.mouseout"/>
                  </use>
                  <path fill="none" stroke="white" stroke-width="1.5" d="M0,-3.0v7 M-2.5,-0.5L0,-3.0L2.5,-0.5"/>
                </g>
                <g id="arrowRight" xlink:href="#dirArrow" transform="rotate(90) translate(36 -43)" onmousedown="handlePan(1,0)">
                  <use xlink:href="#rim" fill="#404040">
                        <set attributeName="fill" to="#808080" begin="arrowRight.mouseover" end="arrowRight.mouseout"/>
                  </use>
                  <path fill="none" stroke="white" stroke-width="1.5" d="M0,-3.0v7 M-2.5,-0.5L0,-3.0L2.5,-0.5"/>
                </g>
                <g id="arrowDown" xlink:href="#dirArrow" transform="rotate(180) translate(-30 -48)" onmousedown="handlePan(0,1)">
                  <use xlink:href="#rim" fill="#404040">
                        <set attributeName="fill" to="#808080" begin="arrowDown.mouseover" end="arrowDown.mouseout"/>
                  </use>
                  <path fill="none" stroke="white" stroke-width="1.5" d="M0,-3.0v7 M-2.5,-0.5L0,-3.0L2.5,-0.5"/>
                </g>
                <g id="arrowLeft" xlink:href="#dirArrow" transform="rotate(270) translate(-36 17)" onmousedown="handlePan(-1,0)">
                  <use xlink:href="#rim" fill="#404040">
                        <set attributeName="fill" to="#808080" begin="arrowLeft.mouseover" end="arrowLeft.mouseout"/>
                  </use>
                  <path fill="none" stroke="white" stroke-width="1.5" d="M0,-3.0v7 M-2.5,-0.5L0,-3.0L2.5,-0.5"/>
                </g>
        </g>
        <svg viewBox="0 0 15 15" width="100%" height="30px" preserveAspectRatio="xMaxYMin meet">
         <g id="arrow_out" transform="scale(0.3 0.3)">
          <a xlink:href="Mu0Poly_8cpp__incl_org.svg" target="_base">
           <rect id="button" ry="5" rx="5" y="6" x="6" height="38" width="38"
                fill="#f2f5e9" fill-opacity="0.5" stroke="#606060" stroke-width="1.0"/>
           <path id="arrow"
             d="M 11.500037,31.436501 C 11.940474,20.09759 22.043105,11.32322 32.158766,21.979434 L 37.068811,17.246167 C 37.068811,17.246167 37.088388,32 37.088388,32 L 22.160133,31.978069 C 22.160133,31.978069 26.997745,27.140456 26.997745,27.140456 C 18.528582,18.264221 13.291696,25.230495 11.500037,31.436501 z"
             style="fill:#404040;"/>
          </a>
         </g>
        </svg>
</svg>
