<?xml version="1.0" encoding="UTF-8" standalone="no"?>
<!DOCTYPE svg PUBLIC "-//W3C//DTD SVG 1.1//EN"
 "http://www.w3.org/Graphics/SVG/1.1/DTD/svg11.dtd">
<!-- Generated by graphviz version 6.0.1 (0)
 -->
<!-- Title: InterfaceKinetics.h Pages: 1 -->
<!--zoomable 423 -->

<svg id="main" version="1.1" xmlns="http://www.w3.org/2000/svg" xmlns:xlink="http://www.w3.org/1999/xlink" xml:space="preserve" onload="init(evt)">
<style type="text/css"><![CDATA[
.node, .edge {opacity: 0.7;}
.node.selected, .edge.selected {opacity: 1;}
.edge:hover path { stroke: red; }
.edge:hover polygon { stroke: red; fill: red; }
]]></style>

<defs>
  <circle id="rim" cx="0" cy="0" r="7"/>
  <circle id="rim2" cx="0" cy="0" r="3.5"/>
  <g id="zoomPlus">
    <use xlink:href="#rim" fill="#404040"><set attributeName="fill" to="#808080" begin="zoomplus.mouseover" end="zoomplus.mouseout"/></use>
    <path d="M-4,0h8M0,-4v8" fill="none" stroke="white" stroke-width="1.5" pointer-events="none"/>
  </g>
  <g id="zoomMin">
    <use xlink:href="#rim" fill="#404040"><set attributeName="fill" to="#808080" begin="zoomminus.mouseover" end="zoomminus.mouseout"/></use>
    <path d="M-4,0h8" fill="none" stroke="white" stroke-width="1.5" pointer-events="none"/>
  </g>
  <g id="arrowUp" transform="translate(30 24)">
    <use xlink:href="#rim"/>
    <path pointer-events="none" fill="none" stroke="white" stroke-width="1.5" d="M0,-3.0v7 M-2.5,-0.5L0,-3.0L2.5,-0.5"/>
  </g>
  <g id="arrowRight" transform="rotate(90) translate(36 -43)">
    <use xlink:href="#rim"/>
    <path pointer-events="none" fill="none" stroke="white" stroke-width="1.5" d="M0,-3.0v7 M-2.5,-0.5L0,-3.0L2.5,-0.5"/>
  </g>
  <g id="arrowDown" transform="rotate(180) translate(-30 -48)">
    <use xlink:href="#rim"/>
    <path pointer-events="none" fill="none" stroke="white" stroke-width="1.5" d="M0,-3.0v7 M-2.5,-0.5L0,-3.0L2.5,-0.5"/>
  </g>
  <g id="arrowLeft" transform="rotate(270) translate(-36 17)">
    <use xlink:href="#rim"/>
    <path pointer-events="none" fill="none" stroke="white" stroke-width="1.5" d="M0,-3.0v7 M-2.5,-0.5L0,-3.0L2.5,-0.5"/>
  </g>
  <g id="resetDef">
    <use xlink:href="#rim2" fill="#404040"><set attributeName="fill" to="#808080" begin="reset.mouseover" end="reset.mouseout"/></use>
  </g>
</defs>
<script type="application/ecmascript">
var viewWidth = 1200;
var viewHeight = 423;
var sectionId = 'dynsection-0';
</script>
<script type="application/ecmascript" xlink:href="../../svg.min.js"/>
<svg id="graph" class="graph">
<g id="viewport">
<title>InterfaceKinetics.h</title>
<!-- Node1 -->
<g id="Node000001" class="node">
<title>Node1</title>
<g id="a_Node000001"><a xlink:title=" ">
<polygon fill="#999999" stroke="#666666" points="656,-415 558,-415 558,-396 656,-396 656,-415"/>
<text text-anchor="middle" x="607" y="-403" font-family="Helvetica,sans-Serif" font-size="10.00">InterfaceKinetics.h</text>
</a>
</g>
</g>
<!-- Node2 -->
<g id="Node000002" class="node">
<title>Node2</title>
<g id="a_Node000002"><a xlink:href="../../d5/db4/Kinetics_8h.html" target="_top" xlink:title="Base class for kinetics managers and also contains the kineticsmgr module documentation (see Kinetics...">
<polygon fill="white" stroke="#666666" points="332,-305 272,-305 272,-286 332,-286 332,-305"/>
<text text-anchor="middle" x="302" y="-293" font-family="Helvetica,sans-Serif" font-size="10.00">Kinetics.h</text>
</a>
</g>
</g>
<!-- Node1&#45;&gt;Node2 -->
<g id="edge1_Node000001_Node000002" class="edge">
<title>Node1&#45;&gt;Node2</title>
<g id="a_edge1_Node000001_Node000002"><a xlink:title=" ">
<path fill="none" stroke="#63b8ff" d="M582.81,-395.94C528.76,-376.79 398.05,-330.51 335.91,-308.51"/>
<polygon fill="#63b8ff" stroke="#63b8ff" points="336.79,-305.1 326.19,-305.07 334.45,-311.7 336.79,-305.1"/>
</a>
</g>
</g>
<!-- Node25 -->
<g id="Node000025" class="node">
<title>Node25</title>
<g id="a_Node000025"><a xlink:href="../../d6/d42/MultiRate_8h.html" target="_top" xlink:title=" ">
<polygon fill="white" stroke="#666666" points="815.5,-360 748.5,-360 748.5,-341 815.5,-341 815.5,-360"/>
<text text-anchor="middle" x="782" y="-348" font-family="Helvetica,sans-Serif" font-size="10.00">MultiRate.h</text>
</a>
</g>
</g>
<!-- Node1&#45;&gt;Node25 -->
<g id="edge15_Node000001_Node000025" class="edge">
<title>Node1&#45;&gt;Node25</title>
<g id="a_edge15_Node000001_Node000025"><a xlink:title=" ">
<path fill="none" stroke="#63b8ff" d="M635.12,-395.98C664.62,-387.05 711.19,-372.94 743.97,-363.02"/>
<polygon fill="#63b8ff" stroke="#63b8ff" points="745.11,-366.33 753.66,-360.08 743.08,-359.63 745.11,-366.33"/>
</a>
</g>
</g>
<!-- Node3 -->
<g id="Node000003" class="node">
<title>Node3</title>
<g id="a_Node000003"><a xlink:href="../../dd/dfd/StoichManager_8h.html" target="_top" xlink:title=" ">
<polygon fill="white" stroke="#666666" points="346.5,-250 257.5,-250 257.5,-231 346.5,-231 346.5,-250"/>
<text text-anchor="middle" x="302" y="-238" font-family="Helvetica,sans-Serif" font-size="10.00">StoichManager.h</text>
</a>
</g>
</g>
<!-- Node2&#45;&gt;Node3 -->
<g id="edge2_Node000002_Node000003" class="edge">
<title>Node2&#45;&gt;Node3</title>
<g id="a_edge2_Node000002_Node000003"><a xlink:title=" ">
<path fill="none" stroke="#63b8ff" d="M302,-285.75C302,-278.8 302,-268.85 302,-260.13"/>
<polygon fill="#63b8ff" stroke="#63b8ff" points="305.5,-260.09 302,-250.09 298.5,-260.09 305.5,-260.09"/>
</a>
</g>
</g>
<!-- Node23 -->
<g id="Node000023" class="node">
<title>Node23</title>
<g id="a_Node000023"><a xlink:href="../../d6/df6/ValueCache_8h.html" target="_top" xlink:title=" ">
<polygon fill="white" stroke="#666666" points="239.5,-250 102.5,-250 102.5,-231 239.5,-231 239.5,-250"/>
<text text-anchor="middle" x="171" y="-238" font-family="Helvetica,sans-Serif" font-size="10.00">cantera/base/ValueCache.h</text>
</a>
</g>
</g>
<!-- Node2&#45;&gt;Node23 -->
<g id="edge12_Node000002_Node000023" class="edge">
<title>Node2&#45;&gt;Node23</title>
<g id="a_edge12_Node000002_Node000023"><a xlink:title=" ">
<path fill="none" stroke="#63b8ff" d="M280.95,-285.98C259.59,-277.34 226.3,-263.87 201.94,-254.02"/>
<polygon fill="#63b8ff" stroke="#63b8ff" points="203.01,-250.68 192.43,-250.17 200.39,-257.17 203.01,-250.68"/>
</a>
</g>
</g>
<!-- Node4 -->
<g id="Node000004" class="node">
<title>Node4</title>
<g id="a_Node000004"><a xlink:href="../../d9/d42/eigen__sparse_8h_source.html" target="_top" xlink:title=" ">
<polygon fill="white" stroke="#666666" points="176,-195 58,-195 58,-165 176,-165 176,-195"/>
<text text-anchor="start" x="66" y="-183" font-family="Helvetica,sans-Serif" font-size="10.00">cantera/numerics/eigen</text>
<text text-anchor="middle" x="117" y="-172" font-family="Helvetica,sans-Serif" font-size="10.00">_sparse.h</text>
</a>
</g>
</g>
<!-- Node3&#45;&gt;Node4 -->
<g id="edge3_Node000003_Node000004" class="edge">
<title>Node3&#45;&gt;Node4</title>
<g id="a_edge3_Node000003_Node000004"><a xlink:title=" ">
<path fill="none" stroke="#63b8ff" d="M275.1,-230.99C248.01,-222.43 205.46,-208.97 171.32,-198.18"/>
<polygon fill="#63b8ff" stroke="#63b8ff" points="172.07,-194.74 161.48,-195.06 169.96,-201.42 172.07,-194.74"/>
</a>
</g>
</g>
<!-- Node7 -->
<g id="Node000007" class="node">
<title>Node7</title>
<g id="a_Node000007"><a xlink:href="../../db/d98/ctexceptions_8h.html" target="_top" xlink:title="Definitions for the classes that are thrown when Cantera experiences an error condition (also contain...">
<polygon fill="white" stroke="#666666" points="372,-189.5 232,-189.5 232,-170.5 372,-170.5 372,-189.5"/>
<text text-anchor="middle" x="302" y="-177.5" font-family="Helvetica,sans-Serif" font-size="10.00">cantera/base/ctexceptions.h</text>
</a>
</g>
</g>
<!-- Node3&#45;&gt;Node7 -->
<g id="edge6_Node000003_Node000007" class="edge">
<title>Node3&#45;&gt;Node7</title>
<g id="a_edge6_Node000003_Node000007"><a xlink:title=" ">
<path fill="none" stroke="#63b8ff" d="M302,-230.87C302,-222.75 302,-210.31 302,-199.89"/>
<polygon fill="#63b8ff" stroke="#63b8ff" points="305.5,-199.67 302,-189.67 298.5,-199.67 305.5,-199.67"/>
</a>
</g>
</g>
<!-- Node5 -->
<g id="Node000005" class="node">
<title>Node5</title>
<g id="a_Node000005"><a xlink:href="../../db/d16/config_8h_source.html" target="_top" xlink:title=" ">
<polygon fill="white" stroke="#666666" points="383,-19 273,-19 273,0 383,0 383,-19"/>
<text text-anchor="middle" x="328" y="-7" font-family="Helvetica,sans-Serif" font-size="10.00">cantera/base/config.h</text>
</a>
</g>
</g>
<!-- Node4&#45;&gt;Node5 -->
<g id="edge4_Node000004_Node000005" class="edge">
<title>Node4&#45;&gt;Node5</title>
<g id="a_edge4_Node000004_Node000005"><a xlink:title=" ">
<path fill="none" stroke="#63b8ff" d="M130.76,-164.94C145.07,-150.57 168.36,-127.89 190,-110 229.47,-77.36 278.78,-43.29 306.5,-24.7"/>
<polygon fill="#63b8ff" stroke="#63b8ff" points="308.65,-27.47 315.02,-19.01 304.76,-21.65 308.65,-27.47"/>
</a>
</g>
</g>
<!-- Node6 -->
<g id="Node000006" class="node">
<title>Node6</title>
<g id="a_Node000006"><a xlink:title=" ">
<polygon fill="#e0e0e0" stroke="#999999" points="137.5,-129 10.5,-129 10.5,-110 137.5,-110 137.5,-129"/>
<text text-anchor="middle" x="74" y="-117" font-family="Helvetica,sans-Serif" font-size="10.00">cantera/ext/Eigen/Sparse</text>
</a>
</g>
</g>
<!-- Node4&#45;&gt;Node6 -->
<g id="edge5_Node000004_Node000006" class="edge">
<title>Node4&#45;&gt;Node6</title>
<g id="a_edge5_Node000004_Node000006"><a xlink:title=" ">
<path fill="none" stroke="#63b8ff" d="M106.59,-164.84C100.54,-156.61 92.88,-146.18 86.5,-137.51"/>
<polygon fill="#63b8ff" stroke="#63b8ff" points="89.19,-135.25 80.44,-129.27 83.55,-139.4 89.19,-135.25"/>
</a>
</g>
</g>
<!-- Node8 -->
<g id="Node000008" class="node">
<title>Node8</title>
<g id="a_Node000008"><a xlink:href="../../d9/ddc/ct__defs_8h.html" target="_top" xlink:title="This file contains definitions of constants, types and terms that are used in internal routines and a...">
<polygon fill="#fff0f0" stroke="red" points="518.5,-74 461.5,-74 461.5,-55 518.5,-55 518.5,-74"/>
<text text-anchor="middle" x="490" y="-62" font-family="Helvetica,sans-Serif" font-size="10.00">ct_defs.h</text>
</a>
</g>
</g>
<!-- Node7&#45;&gt;Node8 -->
<g id="edge7_Node000007_Node000008" class="edge">
<title>Node7&#45;&gt;Node8</title>
<g id="a_edge7_Node000007_Node000008"><a xlink:title=" ">
<path fill="none" stroke="#63b8ff" d="M306.33,-170.46C314.11,-155.94 331.84,-126.43 355,-110 383.86,-89.52 422.74,-78.02 451.37,-71.87"/>
<polygon fill="#63b8ff" stroke="#63b8ff" points="452.3,-75.25 461.41,-69.84 450.92,-68.39 452.3,-75.25"/>
</a>
</g>
</g>
<!-- Node18 -->
<g id="Node000018" class="node">
<title>Node18</title>
<g id="a_Node000018"><a xlink:href="../../db/def/fmt_8h.html" target="_top" xlink:title="Wrapper for either system&#45;installed or local headers for fmt.">
<polygon fill="#fff0f0" stroke="red" points="462,-129 364,-129 364,-110 462,-110 462,-129"/>
<text text-anchor="middle" x="413" y="-117" font-family="Helvetica,sans-Serif" font-size="10.00">cantera/base/fmt.h</text>
</a>
</g>
</g>
<!-- Node7&#45;&gt;Node18 -->
<g id="edge9_Node000007_Node000018" class="edge">
<title>Node7&#45;&gt;Node18</title>
<g id="a_edge9_Node000007_Node000018"><a xlink:title=" ">
<path fill="none" stroke="#63b8ff" d="M318.38,-170.37C336.58,-160.78 366.2,-145.17 387.45,-133.97"/>
<polygon fill="#63b8ff" stroke="#63b8ff" points="389.34,-136.93 396.55,-129.17 386.08,-130.73 389.34,-136.93"/>
</a>
</g>
</g>
<!-- Node22 -->
<g id="Node000022" class="node">
<title>Node22</title>
<g id="a_Node000022"><a xlink:title=" ">
<polygon fill="#e0e0e0" stroke="#999999" points="307.5,-129 248.5,-129 248.5,-110 307.5,-110 307.5,-129"/>
<text text-anchor="middle" x="278" y="-117" font-family="Helvetica,sans-Serif" font-size="10.00">exception</text>
</a>
</g>
</g>
<!-- Node7&#45;&gt;Node22 -->
<g id="edge11_Node000007_Node000022" class="edge">
<title>Node7&#45;&gt;Node22</title>
<g id="a_edge11_Node000007_Node000022"><a xlink:title=" ">
<path fill="none" stroke="#63b8ff" d="M298.46,-170.37C295.06,-162.07 289.81,-149.28 285.48,-138.72"/>
<polygon fill="#63b8ff" stroke="#63b8ff" points="288.59,-137.09 281.56,-129.17 282.11,-139.75 288.59,-137.09"/>
</a>
</g>
</g>
<!-- Node8&#45;&gt;Node5 -->
<g id="edge8_Node000008_Node000005" class="edge">
<title>Node8&#45;&gt;Node5</title>
<g id="a_edge8_Node000008_Node000005"><a xlink:title=" ">
<path fill="none" stroke="#63b8ff" d="M463.97,-54.98C436.89,-46.13 394.29,-32.19 363.99,-22.28"/>
<polygon fill="#63b8ff" stroke="#63b8ff" points="364.82,-18.87 354.23,-19.08 362.65,-25.52 364.82,-18.87"/>
</a>
</g>
</g>
<!-- Node18&#45;&gt;Node8 -->
<g id="edge10_Node000018_Node000008" class="edge">
<title>Node18&#45;&gt;Node8</title>
<g id="a_edge10_Node000018_Node000008"><a xlink:title=" ">
<path fill="none" stroke="#63b8ff" d="M425.37,-109.98C437.09,-101.92 454.92,-89.65 468.89,-80.03"/>
<polygon fill="#63b8ff" stroke="#63b8ff" points="471.15,-82.72 477.4,-74.17 467.18,-76.96 471.15,-82.72"/>
</a>
</g>
</g>
<!-- Node23&#45;&gt;Node8 -->
<g id="edge13_Node000023_Node000008" class="edge">
<title>Node23&#45;&gt;Node8</title>
<g id="a_edge13_Node000023_Node000008"><a xlink:title=" ">
<path fill="none" stroke="#63b8ff" d="M174.48,-230.75C185.17,-204.27 218.16,-125.88 240,-110 273.12,-85.92 389.8,-73.36 451.34,-68.27"/>
<polygon fill="#63b8ff" stroke="#63b8ff" points="451.75,-71.75 461.44,-67.47 451.19,-64.77 451.75,-71.75"/>
</a>
</g>
</g>
<!-- Node24 -->
<g id="Node000024" class="node">
<title>Node24</title>
<g id="a_Node000024"><a xlink:title=" ">
<polygon fill="#e0e0e0" stroke="#999999" points="40,-189.5 0,-189.5 0,-170.5 40,-170.5 40,-189.5"/>
<text text-anchor="middle" x="20" y="-177.5" font-family="Helvetica,sans-Serif" font-size="10.00">limits</text>
</a>
</g>
</g>
<!-- Node23&#45;&gt;Node24 -->
<g id="edge14_Node000023_Node000024" class="edge">
<title>Node23&#45;&gt;Node24</title>
<g id="a_edge14_Node000023_Node000024"><a xlink:title=" ">
<path fill="none" stroke="#63b8ff" d="M145,-230.86C120.1,-222.39 81.61,-208.78 49,-195 48.14,-194.64 47.28,-194.26 46.4,-193.88"/>
<polygon fill="#63b8ff" stroke="#63b8ff" points="47.59,-190.58 37.04,-189.58 44.67,-196.94 47.59,-190.58"/>
</a>
</g>
</g>
<!-- Node26 -->
<g id="Node000026" class="node">
<title>Node26</title>
<g id="a_Node000026"><a xlink:href="../../d8/db0/ReactionRate_8h.html" target="_top" xlink:title=" ">
<polygon fill="white" stroke="#666666" points="766.5,-305 681.5,-305 681.5,-286 766.5,-286 766.5,-305"/>
<text text-anchor="middle" x="724" y="-293" font-family="Helvetica,sans-Serif" font-size="10.00">ReactionRate.h</text>
</a>
</g>
</g>
<!-- Node25&#45;&gt;Node26 -->
<g id="edge16_Node000025_Node000026" class="edge">
<title>Node25&#45;&gt;Node26</title>
<g id="a_edge16_Node000025_Node000026"><a xlink:title=" ">
<path fill="none" stroke="#63b8ff" d="M772.68,-340.98C764.19,-333.23 751.44,-321.58 741.12,-312.14"/>
<polygon fill="#63b8ff" stroke="#63b8ff" points="743.23,-309.33 733.49,-305.17 738.51,-314.5 743.23,-309.33"/>
</a>
</g>
</g>
<!-- Node27 -->
<g id="Node000027" class="node">
<title>Node27</title>
<g id="a_Node000027"><a xlink:href="../../dd/d16/MultiRateBase_8h.html" target="_top" xlink:title=" ">
<polygon fill="white" stroke="#666666" points="907.5,-250 818.5,-250 818.5,-231 907.5,-231 907.5,-250"/>
<text text-anchor="middle" x="863" y="-238" font-family="Helvetica,sans-Serif" font-size="10.00">MultiRateBase.h</text>
</a>
</g>
</g>
<!-- Node25&#45;&gt;Node27 -->
<g id="edge34_Node000025_Node000027" class="edge">
<title>Node25&#45;&gt;Node27</title>
<g id="a_edge34_Node000025_Node000027"><a xlink:title=" ">
<path fill="none" stroke="#63b8ff" d="M788.63,-340.66C802.1,-322.69 832.89,-281.64 850.34,-258.38"/>
<polygon fill="#63b8ff" stroke="#63b8ff" points="853.31,-260.26 856.51,-250.16 847.71,-256.06 853.31,-260.26"/>
</a>
</g>
</g>
<!-- Node35 -->
<g id="Node000035" class="node">
<title>Node35</title>
<g id="a_Node000035"><a xlink:href="../../de/df0/utilities_8h.html" target="_top" xlink:title="Various templated functions that carry out common vector and polynomial operations (see Templated Arr...">
<polygon fill="white" stroke="#666666" points="1169.5,-305 1054.5,-305 1054.5,-286 1169.5,-286 1169.5,-305"/>
<text text-anchor="middle" x="1112" y="-293" font-family="Helvetica,sans-Serif" font-size="10.00">cantera/base/utilities.h</text>
</a>
</g>
</g>
<!-- Node25&#45;&gt;Node35 -->
<g id="edge35_Node000025_Node000035" class="edge">
<title>Node25&#45;&gt;Node35</title>
<g id="a_edge35_Node000025_Node000035"><a xlink:title=" ">
<path fill="none" stroke="#63b8ff" d="M815.76,-344.08C870.56,-335.28 979.71,-317.75 1049.12,-306.6"/>
<polygon fill="#63b8ff" stroke="#63b8ff" points="1049.75,-310.04 1059.06,-305 1048.64,-303.13 1049.75,-310.04"/>
</a>
</g>
</g>
<!-- Node26&#45;&gt;Node7 -->
<g id="edge33_Node000026_Node000007" class="edge">
<title>Node26&#45;&gt;Node7</title>
<g id="a_edge33_Node000026_Node000007"><a xlink:title=" ">
<path fill="none" stroke="#63b8ff" d="M692.28,-285.97C617.04,-265.73 427.76,-214.82 343.53,-192.17"/>
<polygon fill="#63b8ff" stroke="#63b8ff" points="344.36,-188.77 333.8,-189.55 342.55,-195.53 344.36,-188.77"/>
</a>
</g>
</g>
<!-- Node26&#45;&gt;Node27 -->
<g id="edge17_Node000026_Node000027" class="edge">
<title>Node26&#45;&gt;Node27</title>
<g id="a_edge17_Node000026_Node000027"><a xlink:title=" ">
<path fill="none" stroke="#63b8ff" d="M746.33,-285.98C769.2,-277.27 804.96,-263.63 830.86,-253.75"/>
<polygon fill="#63b8ff" stroke="#63b8ff" points="832.16,-257 840.26,-250.17 829.67,-250.46 832.16,-257"/>
</a>
</g>
</g>
<!-- Node28 -->
<g id="Node000028" class="node">
<title>Node28</title>
<g id="a_Node000028"><a xlink:href="../../dd/d2a/AnyMap_8h.html" target="_top" xlink:title=" ">
<polygon fill="white" stroke="#666666" points="762,-250 642,-250 642,-231 762,-231 762,-250"/>
<text text-anchor="middle" x="702" y="-238" font-family="Helvetica,sans-Serif" font-size="10.00">cantera/base/AnyMap.h</text>
</a>
</g>
</g>
<!-- Node26&#45;&gt;Node28 -->
<g id="edge19_Node000026_Node000028" class="edge">
<title>Node26&#45;&gt;Node28</title>
<g id="a_edge19_Node000026_Node000028"><a xlink:title=" ">
<path fill="none" stroke="#63b8ff" d="M720.37,-285.75C717.42,-278.65 713.17,-268.4 709.49,-259.56"/>
<polygon fill="#63b8ff" stroke="#63b8ff" points="712.63,-257.98 705.57,-250.09 706.17,-260.67 712.63,-257.98"/>
</a>
</g>
</g>
<!-- Node29 -->
<g id="Node000029" class="node">
<title>Node29</title>
<g id="a_Node000029"><a xlink:href="../../da/d58/Units_8h.html" target="_top" xlink:title="Header for unit conversion utilities, which are used to translate user input from input files (See In...">
<polygon fill="white" stroke="#666666" points="1045.5,-189.5 938.5,-189.5 938.5,-170.5 1045.5,-170.5 1045.5,-189.5"/>
<text text-anchor="middle" x="992" y="-177.5" font-family="Helvetica,sans-Serif" font-size="10.00">cantera/base/Units.h</text>
</a>
</g>
</g>
<!-- Node26&#45;&gt;Node29 -->
<g id="edge29_Node000026_Node000029" class="edge">
<title>Node26&#45;&gt;Node29</title>
<g id="a_edge29_Node000026_Node000029"><a xlink:title=" ">
<path fill="none" stroke="#63b8ff" d="M733.29,-285.8C748.29,-272.2 779.28,-245.92 810,-231 833.64,-219.52 899.08,-202.8 944.68,-191.91"/>
<polygon fill="#63b8ff" stroke="#63b8ff" points="945.73,-195.26 954.66,-189.55 944.12,-188.45 945.73,-195.26"/>
</a>
</g>
</g>
<!-- Node34 -->
<g id="Node000034" class="node">
<title>Node34</title>
<g id="a_Node000034"><a xlink:href="../../d2/d49/global_8h.html" target="_top" xlink:title="This file contains definitions for utility functions and text for modules, inputfiles and logging,...">
<polygon fill="white" stroke="#666666" points="500,-189.5 390,-189.5 390,-170.5 500,-170.5 500,-189.5"/>
<text text-anchor="middle" x="445" y="-177.5" font-family="Helvetica,sans-Serif" font-size="10.00">cantera/base/global.h</text>
</a>
</g>
</g>
<!-- Node26&#45;&gt;Node34 -->
<g id="edge30_Node000026_Node000034" class="edge">
<title>Node26&#45;&gt;Node34</title>
<g id="a_edge30_Node000026_Node000034"><a xlink:title=" ">
<path fill="none" stroke="#63b8ff" d="M703.03,-285.97C654.25,-266.13 533,-216.8 475.79,-193.53"/>
<polygon fill="#63b8ff" stroke="#63b8ff" points="476.8,-190.16 466.21,-189.63 474.16,-196.64 476.8,-190.16"/>
</a>
</g>
</g>
<!-- Node27&#45;&gt;Node8 -->
<g id="edge18_Node000027_Node000008" class="edge">
<title>Node27&#45;&gt;Node8</title>
<g id="a_edge18_Node000027_Node000008"><a xlink:title=" ">
<path fill="none" stroke="#63b8ff" d="M907.53,-237.28C976.7,-232.23 1097.81,-216.01 1055,-165 987.24,-84.27 645.35,-69.02 528.91,-66.16"/>
<polygon fill="#63b8ff" stroke="#63b8ff" points="528.75,-62.65 518.68,-65.92 528.59,-69.65 528.75,-62.65"/>
</a>
</g>
</g>
<!-- Node28&#45;&gt;Node7 -->
<g id="edge21_Node000028_Node000007" class="edge">
<title>Node28&#45;&gt;Node7</title>
<g id="a_edge21_Node000028_Node000007"><a xlink:title=" ">
<path fill="none" stroke="#63b8ff" d="M641.85,-231.85C577.28,-223.47 471.72,-209.32 381,-195 373.63,-193.84 365.89,-192.55 358.26,-191.24"/>
<polygon fill="#63b8ff" stroke="#63b8ff" points="358.77,-187.77 348.32,-189.51 357.57,-194.67 358.77,-187.77"/>
</a>
</g>
</g>
<!-- Node28&#45;&gt;Node8 -->
<g id="edge20_Node000028_Node000008" class="edge">
<title>Node28&#45;&gt;Node8</title>
<g id="a_edge20_Node000028_Node000008"><a xlink:title=" ">
<path fill="none" stroke="#63b8ff" d="M641.72,-234.42C610.33,-228.99 573.15,-217.84 547,-195 513.34,-165.6 498.73,-112.58 493.1,-84.37"/>
<polygon fill="#63b8ff" stroke="#63b8ff" points="496.49,-83.45 491.26,-74.24 489.6,-84.71 496.49,-83.45"/>
</a>
</g>
</g>
<!-- Node28&#45;&gt;Node29 -->
<g id="edge22_Node000028_Node000029" class="edge">
<title>Node28&#45;&gt;Node29</title>
<g id="a_edge22_Node000028_Node000029"><a xlink:title=" ">
<path fill="none" stroke="#63b8ff" d="M747.93,-230.94C794.04,-222.26 867.05,-208.25 930,-195 934.94,-193.96 940.08,-192.85 945.21,-191.72"/>
<polygon fill="#63b8ff" stroke="#63b8ff" points="945.99,-195.13 954.99,-189.54 944.47,-188.3 945.99,-195.13"/>
</a>
</g>
</g>
<!-- Node30 -->
<g id="Node000030" class="node">
<title>Node30</title>
<g id="a_Node000030"><a xlink:title=" ">
<polygon fill="#e0e0e0" stroke="#999999" points="920.5,-189.5 837.5,-189.5 837.5,-170.5 920.5,-170.5 920.5,-189.5"/>
<text text-anchor="middle" x="879" y="-177.5" font-family="Helvetica,sans-Serif" font-size="10.00">unordered_map</text>
</a>
</g>
</g>
<!-- Node28&#45;&gt;Node30 -->
<g id="edge24_Node000028_Node000030" class="edge">
<title>Node28&#45;&gt;Node30</title>
<g id="a_edge24_Node000028_Node000030"><a xlink:title=" ">
<path fill="none" stroke="#63b8ff" d="M727.74,-230.99C758.28,-220.9 809.37,-204.01 843.62,-192.69"/>
<polygon fill="#63b8ff" stroke="#63b8ff" points="844.84,-195.98 853.23,-189.52 842.64,-189.33 844.84,-195.98"/>
</a>
</g>
</g>
<!-- Node31 -->
<g id="Node000031" class="node">
<title>Node31</title>
<g id="a_Node000031"><a xlink:title=" ">
<polygon fill="#e0e0e0" stroke="#999999" points="618,-189.5 556,-189.5 556,-170.5 618,-170.5 618,-189.5"/>
<text text-anchor="middle" x="587" y="-177.5" font-family="Helvetica,sans-Serif" font-size="10.00">filesystem</text>
</a>
</g>
</g>
<!-- Node28&#45;&gt;Node31 -->
<g id="edge25_Node000028_Node000031" class="edge">
<title>Node28&#45;&gt;Node31</title>
<g id="a_edge25_Node000028_Node000031"><a xlink:title=" ">
<path fill="none" stroke="#63b8ff" d="M685.03,-230.87C666.09,-221.23 635.21,-205.53 613.17,-194.31"/>
<polygon fill="#63b8ff" stroke="#63b8ff" points="614.54,-191.08 604.04,-189.67 611.36,-197.32 614.54,-191.08"/>
</a>
</g>
</g>
<!-- Node32 -->
<g id="Node000032" class="node">
<title>Node32</title>
<g id="a_Node000032"><a xlink:title=" ">
<polygon fill="#e0e0e0" stroke="#999999" points="668,-189.5 636,-189.5 636,-170.5 668,-170.5 668,-189.5"/>
<text text-anchor="middle" x="652" y="-177.5" font-family="Helvetica,sans-Serif" font-size="10.00">any</text>
</a>
</g>
</g>
<!-- Node28&#45;&gt;Node32 -->
<g id="edge26_Node000028_Node000032" class="edge">
<title>Node28&#45;&gt;Node32</title>
<g id="a_edge26_Node000028_Node000032"><a xlink:title=" ">
<path fill="none" stroke="#63b8ff" d="M694.62,-230.87C687.09,-222.05 675.21,-208.16 665.91,-197.27"/>
<polygon fill="#63b8ff" stroke="#63b8ff" points="668.57,-195 659.41,-189.67 663.24,-199.54 668.57,-195"/>
</a>
</g>
</g>
<!-- Node33 -->
<g id="Node000033" class="node">
<title>Node33</title>
<g id="a_Node000033"><a xlink:href="../../da/d4c/AnyMap_8inl_8h.html" target="_top" xlink:title=" ">
<polygon fill="white" stroke="#666666" points="819.5,-189.5 686.5,-189.5 686.5,-170.5 819.5,-170.5 819.5,-189.5"/>
<text text-anchor="middle" x="753" y="-177.5" font-family="Helvetica,sans-Serif" font-size="10.00">cantera/base/AnyMap.inl.h</text>
</a>
</g>
</g>
<!-- Node28&#45;&gt;Node33 -->
<g id="edge27_Node000028_Node000033" class="edge">
<title>Node28&#45;&gt;Node33</title>
<g id="a_edge27_Node000028_Node000033"><a xlink:title=" ">
<path fill="none" stroke="#63b8ff" d="M704.57,-230.87C710.41,-221.97 722.3,-207.89 733.01,-196.95"/>
<polygon fill="#63b8ff" stroke="#63b8ff" points="735.76,-199.15 740.48,-189.67 730.88,-194.14 735.76,-199.15"/>
</a>
</g>
</g>
<!-- Node29&#45;&gt;Node8 -->
<g id="edge23_Node000029_Node000008" class="edge">
<title>Node29&#45;&gt;Node8</title>
<g id="a_edge23_Node000029_Node000008"><a xlink:title=" ">
<path fill="none" stroke="#63b8ff" d="M954.27,-170.47C861.41,-149.47 622.56,-95.47 528.7,-74.25"/>
<polygon fill="#63b8ff" stroke="#63b8ff" points="529.29,-70.8 518.77,-72 527.75,-77.62 529.29,-70.8"/>
</a>
</g>
</g>
<!-- Node33&#45;&gt;Node28 -->
<g id="edge28_Node000033_Node000028" class="edge">
<title>Node33&#45;&gt;Node28</title>
<g id="a_edge28_Node000033_Node000028"><a xlink:title=" ">
<path fill="none" stroke="#63b8ff" d="M750.41,-189.67C744.56,-198.58 732.65,-212.67 721.95,-223.59"/>
<polygon fill="#63b8ff" stroke="#63b8ff" points="719.2,-221.38 714.48,-230.87 724.09,-226.4 719.2,-221.38"/>
</a>
</g>
</g>
<!-- Node34&#45;&gt;Node8 -->
<g id="edge31_Node000034_Node000008" class="edge">
<title>Node34&#45;&gt;Node8</title>
<g id="a_edge31_Node000034_Node000008"><a xlink:title=" ">
<path fill="none" stroke="#63b8ff" d="M450.12,-170.39C455.78,-160.61 464.9,-144.05 471,-129 476.95,-114.32 482,-97.06 485.39,-84.25"/>
<polygon fill="#63b8ff" stroke="#63b8ff" points="488.84,-84.86 487.93,-74.31 482.06,-83.13 488.84,-84.86"/>
</a>
</g>
</g>
<!-- Node34&#45;&gt;Node18 -->
<g id="edge32_Node000034_Node000018" class="edge">
<title>Node34&#45;&gt;Node18</title>
<g id="a_edge32_Node000034_Node000018"><a xlink:title=" ">
<path fill="none" stroke="#63b8ff" d="M440.28,-170.37C435.65,-161.9 428.45,-148.74 422.61,-138.07"/>
<polygon fill="#63b8ff" stroke="#63b8ff" points="425.61,-136.26 417.74,-129.17 419.47,-139.62 425.61,-136.26"/>
</a>
</g>
</g>
<!-- Node35&#45;&gt;Node8 -->
<g id="edge36_Node000035_Node000008" class="edge">
<title>Node35&#45;&gt;Node8</title>
<g id="a_edge36_Node000035_Node000008"><a xlink:title=" ">
<path fill="none" stroke="#63b8ff" d="M1111.44,-285.69C1109.61,-263.31 1102.12,-203.33 1073,-165 1045.32,-128.58 1029.33,-124.68 986,-110 901.38,-81.33 630.09,-69.95 528.71,-66.63"/>
<polygon fill="#63b8ff" stroke="#63b8ff" points="528.7,-63.12 518.6,-66.3 528.48,-70.12 528.7,-63.12"/>
</a>
</g>
</g>
<!-- Node36 -->
<g id="Node000036" class="node">
<title>Node36</title>
<g id="a_Node000036"><a xlink:title=" ">
<polygon fill="#e0e0e0" stroke="#999999" points="1191.5,-250 1140.5,-250 1140.5,-231 1191.5,-231 1191.5,-250"/>
<text text-anchor="middle" x="1166" y="-238" font-family="Helvetica,sans-Serif" font-size="10.00">numeric</text>
</a>
</g>
</g>
<!-- Node35&#45;&gt;Node36 -->
<g id="edge37_Node000035_Node000036" class="edge">
<title>Node35&#45;&gt;Node36</title>
<g id="a_edge37_Node000035_Node000036"><a xlink:title=" ">
<path fill="none" stroke="#63b8ff" d="M1120.92,-285.75C1128.78,-278.03 1140.43,-266.6 1149.92,-257.28"/>
<polygon fill="#63b8ff" stroke="#63b8ff" points="1152.56,-259.59 1157.25,-250.09 1147.66,-254.6 1152.56,-259.59"/>
</a>
</g>
</g>
</g>
</svg>

<g id="navigator" transform="translate(0 0)" fill="#404254">
  <rect fill="#f2f5e9" fill-opacity="0.5" stroke="#606060" stroke-width=".5" x="0" y="0" width="60" height="60"/>
  <use id="zoomplus" xlink:href="#zoomPlus" x="17" y="9" onmousedown="handleZoom(evt,'in')"/>
  <use id="zoomminus" xlink:href="#zoomMin" x="42" y="9" onmousedown="handleZoom(evt,'out')"/>
  <use id="reset" xlink:href="#resetDef" x="30" y="36" onmousedown="handleReset()"/>
   <use id="arrowup" xlink:href="#arrowUp" x="0" y="0" onmousedown="handlePan(0,-1)"/>
  <use id="arrowright" xlink:href="#arrowRight" x="0" y="0" onmousedown="handlePan(1,0)"/>
  <use id="arrowdown" xlink:href="#arrowDown" x="0" y="0" onmousedown="handlePan(0,1)"/>
  <use id="arrowleft" xlink:href="#arrowLeft" x="0" y="0" onmousedown="handlePan(-1,0)"/>
</g>
<svg viewBox="0 0 15 15" width="100%" height="30px" preserveAspectRatio="xMaxYMin meet">
 <g id="arrow_out" transform="scale(0.3 0.3)">
  <a xlink:href="InterfaceKinetics_8h__incl_org.svg" target="_base">
   <rect id="button" ry="5" rx="5" y="6" x="6" height="38" width="38"
        fill="#f2f5e9" fill-opacity="0.5" stroke="#606060" stroke-width="1.0"/>
   <path id="arrow"
     d="M 11.500037,31.436501 C 11.940474,20.09759 22.043105,11.32322 32.158766,21.979434 L 37.068811,17.246167 C 37.068811,17.246167 37.088388,32 37.088388,32 L 22.160133,31.978069 C 22.160133,31.978069 26.997745,27.140456 26.997745,27.140456 C 18.528582,18.264221 13.291696,25.230495 11.500037,31.436501 z"
     style="fill:#404040;"/>
  </a>
 </g>
</svg>

<style type='text/css'>
<![CDATA[
[data-mouse-over-selected='false'] { opacity: 0.7; }
[data-mouse-over-selected='true']  { opacity: 1.0; }
]]>
</style>
<script type="application/ecmascript"><![CDATA[
document.addEventListener('DOMContentLoaded', (event) => {
  highlightEdges();
  highlightAdjacentNodes();
});
]]></script>
</svg>
