<?xml version="1.0" encoding="UTF-8" standalone="no"?>
<!DOCTYPE svg PUBLIC "-//W3C//DTD SVG 1.1//EN"
 "http://www.w3.org/Graphics/SVG/1.1/DTD/svg11.dtd">
<!-- Generated by graphviz version 2.43.0 (0)
 -->
<!-- Title: InterfaceKinetics.h Pages: 1 -->
<svg width="1422pt" height="192pt"
 viewBox="0.00 0.00 1422.08 192.00" xmlns="http://www.w3.org/2000/svg" xmlns:xlink="http://www.w3.org/1999/xlink">
<g id="graph0" class="graph" transform="scale(1 1) rotate(0) translate(4 188)">
<title>InterfaceKinetics.h</title>
<!-- Node1 -->
<g id="Node000001" class="node">
<title>Node1</title>
<g id="a_Node000001"><a xlink:title=" ">
<polygon fill="#999999" stroke="#666666" points="998.58,-184 890.58,-184 890.58,-165 998.58,-165 998.58,-184"/>
<text text-anchor="middle" x="944.58" y="-172" font-family="Helvetica,sans-Serif" font-size="10.00">InterfaceKinetics.h</text>
</a>
</g>
</g>
<!-- Node2 -->
<g id="Node000002" class="node">
<title>Node2</title>
<g id="a_Node000002"><a xlink:href="../../dc/d7c/Boundary1D_8h.html" target="_top" xlink:title="Boundary objects for one&#45;dimensional simulations.">
<polygon fill="white" stroke="#666666" points="228.58,-129 142.58,-129 142.58,-110 228.58,-110 228.58,-129"/>
<text text-anchor="middle" x="185.58" y="-117" font-family="Helvetica,sans-Serif" font-size="10.00">Boundary1D.h</text>
</a>
</g>
</g>
<!-- Node1&#45;&gt;Node2 -->
<g id="edge1_Node000001_Node000002" class="edge">
<title>Node1&#45;&gt;Node2</title>
<g id="a_edge1_Node000001_Node000002"><a xlink:title=" ">
<path fill="none" stroke="#63b8ff" d="M880.25,-169.01C729.3,-158.47 355.56,-132.37 228.59,-123.5"/>
<polygon fill="#63b8ff" stroke="#63b8ff" points="880.08,-172.5 890.3,-169.71 880.57,-165.52 880.08,-172.5"/>
</a>
</g>
</g>
<!-- Node7 -->
<g id="Node000007" class="node">
<title>Node7</title>
<g id="a_Node000007"><a xlink:href="../../d9/d4b/EdgeKinetics_8h.html" target="_top" xlink:title=" ">
<polygon fill="white" stroke="#666666" points="741.08,-129 652.08,-129 652.08,-110 741.08,-110 741.08,-129"/>
<text text-anchor="middle" x="696.58" y="-117" font-family="Helvetica,sans-Serif" font-size="10.00">EdgeKinetics.h</text>
</a>
</g>
</g>
<!-- Node1&#45;&gt;Node7 -->
<g id="edge6_Node000001_Node000007" class="edge">
<title>Node1&#45;&gt;Node7</title>
<g id="a_edge6_Node000001_Node000007"><a xlink:title=" ">
<path fill="none" stroke="#63b8ff" d="M894.88,-162.88C848.39,-152.94 779.85,-138.3 736.74,-129.08"/>
<polygon fill="#63b8ff" stroke="#63b8ff" points="894.22,-166.32 904.73,-164.98 895.69,-159.47 894.22,-166.32"/>
</a>
</g>
</g>
<!-- Node8 -->
<g id="Node000008" class="node">
<title>Node8</title>
<g id="a_Node000008"><a xlink:href="../../d3/df8/KineticsFactory_8cpp.html" target="_top" xlink:title=" ">
<polygon fill="white" stroke="#666666" points="808.58,-74 698.58,-74 698.58,-55 808.58,-55 808.58,-74"/>
<text text-anchor="middle" x="753.58" y="-62" font-family="Helvetica,sans-Serif" font-size="10.00">KineticsFactory.cpp</text>
</a>
</g>
</g>
<!-- Node1&#45;&gt;Node8 -->
<g id="edge21_Node000001_Node000008" class="edge">
<title>Node1&#45;&gt;Node8</title>
<g id="a_edge21_Node000001_Node000008"><a xlink:title=" ">
<path fill="none" stroke="#63b8ff" d="M880.23,-166.72C849.84,-160.8 814.61,-149.73 788.58,-129 770.46,-114.57 760.31,-88.08 756.03,-74.32"/>
<polygon fill="#63b8ff" stroke="#63b8ff" points="879.87,-170.21 890.33,-168.53 881.11,-163.32 879.87,-170.21"/>
</a>
</g>
</g>
<!-- Node9 -->
<g id="Node000009" class="node">
<title>Node9</title>
<g id="a_Node000009"><a xlink:href="../../dd/d8f/FlowReactor_8cpp.html" target="_top" xlink:title="A steady&#45;state, ideal&#45;gas, adiabatic, constant&#45;area (cylindrical), frictionless plug flow reactor.">
<polygon fill="white" stroke="#666666" points="895.08,-129 798.08,-129 798.08,-110 895.08,-110 895.08,-129"/>
<text text-anchor="middle" x="846.58" y="-117" font-family="Helvetica,sans-Serif" font-size="10.00">FlowReactor.cpp</text>
</a>
</g>
</g>
<!-- Node1&#45;&gt;Node9 -->
<g id="edge8_Node000001_Node000009" class="edge">
<title>Node1&#45;&gt;Node9</title>
<g id="a_edge8_Node000001_Node000009"><a xlink:title=" ">
<path fill="none" stroke="#63b8ff" d="M919.55,-159.97C901.64,-150.28 878.05,-137.52 862.61,-129.17"/>
<polygon fill="#63b8ff" stroke="#63b8ff" points="918.37,-163.31 928.83,-164.98 921.7,-157.15 918.37,-163.31"/>
</a>
</g>
</g>
<!-- Node10 -->
<g id="Node000010" class="node">
<title>Node10</title>
<g id="a_Node000010"><a xlink:href="../../da/d1f/ImplicitSurfChem_8h.html" target="_top" xlink:title="Declarations for the implicit integration of surface site density equations (see Kinetics Managers an...">
<polygon fill="white" stroke="#666666" points="1013.58,-74 903.58,-74 903.58,-55 1013.58,-55 1013.58,-74"/>
<text text-anchor="middle" x="958.58" y="-62" font-family="Helvetica,sans-Serif" font-size="10.00">ImplicitSurfChem.h</text>
</a>
</g>
</g>
<!-- Node1&#45;&gt;Node10 -->
<g id="edge9_Node000001_Node000010" class="edge">
<title>Node1&#45;&gt;Node10</title>
<g id="a_edge9_Node000001_Node000010"><a xlink:title=" ">
<path fill="none" stroke="#63b8ff" d="M963.93,-157.82C971.94,-150.09 980.34,-140.06 984.58,-129 992.17,-109.2 976.63,-86.24 966.46,-74.08"/>
<polygon fill="#63b8ff" stroke="#63b8ff" points="961.33,-155.45 956.22,-164.73 966,-160.67 961.33,-155.45"/>
</a>
</g>
</g>
<!-- Node12 -->
<g id="Node000012" class="node">
<title>Node12</title>
<g id="a_Node000012"><a xlink:href="../../d3/db3/InterfaceKinetics_8cpp.html" target="_top" xlink:title=" ">
<polygon fill="white" stroke="#666666" points="1126.08,-19 1007.08,-19 1007.08,0 1126.08,0 1126.08,-19"/>
<text text-anchor="middle" x="1066.58" y="-7" font-family="Helvetica,sans-Serif" font-size="10.00">InterfaceKinetics.cpp</text>
</a>
</g>
</g>
<!-- Node1&#45;&gt;Node12 -->
<g id="edge20_Node000001_Node000012" class="edge">
<title>Node1&#45;&gt;Node12</title>
<g id="a_edge20_Node000001_Node000012"><a xlink:title=" ">
<path fill="none" stroke="#63b8ff" d="M966.18,-158.99C977.05,-150.99 989.93,-140.39 999.58,-129 1030.43,-92.57 1054.31,-39.85 1063.01,-19.23"/>
<polygon fill="#63b8ff" stroke="#63b8ff" points="964.12,-156.16 957.99,-164.81 968.17,-161.87 964.12,-156.16"/>
</a>
</g>
</g>
<!-- Node14 -->
<g id="Node000014" class="node">
<title>Node14</title>
<g id="a_Node000014"><a xlink:href="../../d7/d91/Interface_8h.html" target="_top" xlink:title=" ">
<polygon fill="white" stroke="#666666" points="595.08,-129 526.08,-129 526.08,-110 595.08,-110 595.08,-129"/>
<text text-anchor="middle" x="560.58" y="-117" font-family="Helvetica,sans-Serif" font-size="10.00">Interface.h</text>
</a>
</g>
</g>
<!-- Node1&#45;&gt;Node14 -->
<g id="edge13_Node000001_Node000014" class="edge">
<title>Node1&#45;&gt;Node14</title>
<g id="a_edge13_Node000001_Node000014"><a xlink:title=" ">
<path fill="none" stroke="#63b8ff" d="M880.47,-165.75C812.96,-157.41 703.63,-143.4 609.58,-129 604.88,-128.28 599.95,-127.48 595.08,-126.66"/>
<polygon fill="#63b8ff" stroke="#63b8ff" points="880.17,-169.24 890.53,-166.99 881.03,-162.29 880.17,-169.24"/>
</a>
</g>
</g>
<!-- Node19 -->
<g id="Node000019" class="node">
<title>Node19</title>
<g id="a_Node000019"><a xlink:href="../../d5/da4/ctsol_8cpp.html" target="_top" xlink:title="CTSOL &#45; Generated CLib Cantera interface library.">
<polygon fill="white" stroke="#666666" points="678.58,-74 618.58,-74 618.58,-55 678.58,-55 678.58,-74"/>
<text text-anchor="middle" x="648.58" y="-62" font-family="Helvetica,sans-Serif" font-size="10.00">ctsol.cpp</text>
</a>
</g>
</g>
<!-- Node1&#45;&gt;Node19 -->
<g id="edge26_Node000001_Node000019" class="edge">
<title>Node1&#45;&gt;Node19</title>
<g id="a_edge26_Node000001_Node000019"><a xlink:title=" ">
<path fill="none" stroke="#63b8ff" d="M880.01,-173.45C800.6,-171.86 672.62,-163.79 642.58,-129 629.26,-113.58 638.19,-87.52 644.26,-74.08"/>
<polygon fill="#63b8ff" stroke="#63b8ff" points="880.34,-176.96 890.4,-173.63 880.46,-169.96 880.34,-176.96"/>
</a>
</g>
</g>
<!-- Node20 -->
<g id="Node000020" class="node">
<title>Node20</title>
<g id="a_Node000020"><a xlink:href="../../df/ddb/ReactorSurface_8cpp.html" target="_top" xlink:title=" ">
<polygon fill="white" stroke="#666666" points="1181.08,-129 1070.08,-129 1070.08,-110 1181.08,-110 1181.08,-129"/>
<text text-anchor="middle" x="1125.58" y="-117" font-family="Helvetica,sans-Serif" font-size="10.00">ReactorSurface.cpp</text>
</a>
</g>
</g>
<!-- Node1&#45;&gt;Node20 -->
<g id="edge22_Node000001_Node000020" class="edge">
<title>Node1&#45;&gt;Node20</title>
<g id="a_edge22_Node000001_Node000020"><a xlink:title=" ">
<path fill="none" stroke="#63b8ff" d="M983.66,-162.06C1017.49,-152.15 1065.66,-138.04 1096.27,-129.08"/>
<polygon fill="#63b8ff" stroke="#63b8ff" points="982.27,-158.82 973.66,-164.98 984.24,-165.53 982.27,-158.82"/>
</a>
</g>
</g>
<!-- Node21 -->
<g id="Node000021" class="node">
<title>Node21</title>
<g id="a_Node000021"><a xlink:href="../../d4/d71/ct_8cpp.html" target="_top" xlink:title="CT &#45; Generated CLib Cantera interface library.">
<polygon fill="white" stroke="#666666" points="1245.58,-129 1199.58,-129 1199.58,-110 1245.58,-110 1245.58,-129"/>
<text text-anchor="middle" x="1222.58" y="-117" font-family="Helvetica,sans-Serif" font-size="10.00">ct.cpp</text>
</a>
</g>
</g>
<!-- Node1&#45;&gt;Node21 -->
<g id="edge23_Node000001_Node000021" class="edge">
<title>Node1&#45;&gt;Node21</title>
<g id="a_edge23_Node000001_Node000021"><a xlink:title=" ">
<path fill="none" stroke="#63b8ff" d="M1009.05,-163.3C1058.84,-155.07 1129.35,-142.65 1190.58,-129 1193.5,-128.35 1196.55,-127.61 1199.56,-126.85"/>
<polygon fill="#63b8ff" stroke="#63b8ff" points="1008.36,-159.87 999.06,-164.94 1009.5,-166.77 1008.36,-159.87"/>
</a>
</g>
</g>
<!-- Node22 -->
<g id="Node000022" class="node">
<title>Node22</title>
<g id="a_Node000022"><a xlink:href="../../d8/df1/ctkin_8cpp.html" target="_top" xlink:title="CTKIN &#45; Generated CLib Cantera interface library.">
<polygon fill="white" stroke="#666666" points="1325.08,-129 1264.08,-129 1264.08,-110 1325.08,-110 1325.08,-129"/>
<text text-anchor="middle" x="1294.58" y="-117" font-family="Helvetica,sans-Serif" font-size="10.00">ctkin.cpp</text>
</a>
</g>
</g>
<!-- Node1&#45;&gt;Node22 -->
<g id="edge24_Node000001_Node000022" class="edge">
<title>Node1&#45;&gt;Node22</title>
<g id="a_edge24_Node000001_Node000022"><a xlink:title=" ">
<path fill="none" stroke="#63b8ff" d="M1008.95,-165.53C1071.79,-157.46 1170.02,-144.04 1254.58,-129 1257.65,-128.45 1260.85,-127.84 1264.04,-127.21"/>
<polygon fill="#63b8ff" stroke="#63b8ff" points="1008.27,-162.09 998.79,-166.83 1009.16,-169.04 1008.27,-162.09"/>
</a>
</g>
</g>
<!-- Node23 -->
<g id="Node000023" class="node">
<title>Node23</title>
<g id="a_Node000023"><a xlink:href="../../dc/d84/ctrdiag_8cpp.html" target="_top" xlink:title="CTRDIAG &#45; Generated CLib Cantera interface library.">
<polygon fill="white" stroke="#666666" points="1414.08,-129 1343.08,-129 1343.08,-110 1414.08,-110 1414.08,-129"/>
<text text-anchor="middle" x="1378.58" y="-117" font-family="Helvetica,sans-Serif" font-size="10.00">ctrdiag.cpp</text>
</a>
</g>
</g>
<!-- Node1&#45;&gt;Node23 -->
<g id="edge25_Node000001_Node000023" class="edge">
<title>Node1&#45;&gt;Node23</title>
<g id="a_edge25_Node000001_Node000023"><a xlink:title=" ">
<path fill="none" stroke="#63b8ff" d="M1008.78,-167.71C1086.24,-160.37 1220.31,-146.53 1334.58,-129 1337.35,-128.58 1340.21,-128.1 1343.08,-127.6"/>
<polygon fill="#63b8ff" stroke="#63b8ff" points="1008.32,-164.24 998.69,-168.66 1008.98,-171.2 1008.32,-164.24"/>
</a>
</g>
</g>
<!-- Node24 -->
<g id="Node000024" class="node">
<title>Node24</title>
<g id="a_Node000024"><a xlink:href="../../d2/d25/solveSP_8h.html" target="_top" xlink:title="Header file for implicit surface problem solver (see Chemical Kinetics and class solveSP).">
<polygon fill="white" stroke="#666666" points="975.58,-129 913.58,-129 913.58,-110 975.58,-110 975.58,-129"/>
<text text-anchor="middle" x="944.58" y="-117" font-family="Helvetica,sans-Serif" font-size="10.00">solveSP.h</text>
</a>
</g>
</g>
<!-- Node1&#45;&gt;Node24 -->
<g id="edge27_Node000001_Node000024" class="edge">
<title>Node1&#45;&gt;Node24</title>
<g id="a_edge27_Node000001_Node000024"><a xlink:title=" ">
<path fill="none" stroke="#63b8ff" d="M944.58,-154.66C944.58,-145.93 944.58,-135.99 944.58,-129.09"/>
<polygon fill="#63b8ff" stroke="#63b8ff" points="941.08,-154.75 944.58,-164.75 948.08,-154.75 941.08,-154.75"/>
</a>
</g>
</g>
<!-- Node3 -->
<g id="Node000003" class="node">
<title>Node3</title>
<g id="a_Node000003"><a xlink:href="../../de/d16/Boundary1D_8cpp.html" target="_top" xlink:title=" ">
<polygon fill="white" stroke="#666666" points="113.08,-74 16.08,-74 16.08,-55 113.08,-55 113.08,-74"/>
<text text-anchor="middle" x="64.58" y="-62" font-family="Helvetica,sans-Serif" font-size="10.00">Boundary1D.cpp</text>
</a>
</g>
</g>
<!-- Node2&#45;&gt;Node3 -->
<g id="edge2_Node000002_Node000003" class="edge">
<title>Node2&#45;&gt;Node3</title>
<g id="a_edge2_Node000002_Node000003"><a xlink:title=" ">
<path fill="none" stroke="#63b8ff" d="M156.81,-105.9C134.46,-96.11 104.06,-82.79 84.37,-74.17"/>
<polygon fill="#63b8ff" stroke="#63b8ff" points="155.57,-109.18 166.14,-109.98 158.38,-102.77 155.57,-109.18"/>
</a>
</g>
</g>
<!-- Node4 -->
<g id="Node000004" class="node">
<title>Node4</title>
<g id="a_Node000004"><a xlink:href="../../d9/db4/DomainFactory_8cpp.html" target="_top" xlink:title=" ">
<polygon fill="white" stroke="#666666" points="240.08,-74 131.08,-74 131.08,-55 240.08,-55 240.08,-74"/>
<text text-anchor="middle" x="185.58" y="-62" font-family="Helvetica,sans-Serif" font-size="10.00">DomainFactory.cpp</text>
</a>
</g>
</g>
<!-- Node2&#45;&gt;Node4 -->
<g id="edge3_Node000002_Node000004" class="edge">
<title>Node2&#45;&gt;Node4</title>
<g id="a_edge3_Node000002_Node000004"><a xlink:title=" ">
<path fill="none" stroke="#63b8ff" d="M185.58,-99.66C185.58,-90.93 185.58,-80.99 185.58,-74.09"/>
<polygon fill="#63b8ff" stroke="#63b8ff" points="182.08,-99.75 185.58,-109.75 189.08,-99.75 182.08,-99.75"/>
</a>
</g>
</g>
<!-- Node5 -->
<g id="Node000005" class="node">
<title>Node5</title>
<g id="a_Node000005"><a xlink:href="../../d4/d99/ctdomain_8cpp.html" target="_top" xlink:title="CTDOMAIN &#45; Generated CLib Cantera interface library.">
<polygon fill="white" stroke="#666666" points="341.08,-74 258.08,-74 258.08,-55 341.08,-55 341.08,-74"/>
<text text-anchor="middle" x="299.58" y="-62" font-family="Helvetica,sans-Serif" font-size="10.00">ctdomain.cpp</text>
</a>
</g>
</g>
<!-- Node2&#45;&gt;Node5 -->
<g id="edge4_Node000002_Node000005" class="edge">
<title>Node2&#45;&gt;Node5</title>
<g id="a_edge4_Node000002_Node000005"><a xlink:title=" ">
<path fill="none" stroke="#63b8ff" d="M212.97,-105.77C234,-95.99 262.47,-82.75 280.93,-74.17"/>
<polygon fill="#63b8ff" stroke="#63b8ff" points="211.49,-102.6 203.89,-109.98 214.44,-108.94 211.49,-102.6"/>
</a>
</g>
</g>
<!-- Node6 -->
<g id="Node000006" class="node">
<title>Node6</title>
<g id="a_Node000006"><a xlink:href="../../d4/d07/onedim_8h.html" target="_top" xlink:title=" ">
<polygon fill="white" stroke="#666666" points="175.58,-19 113.58,-19 113.58,0 175.58,0 175.58,-19"/>
<text text-anchor="middle" x="144.58" y="-7" font-family="Helvetica,sans-Serif" font-size="10.00">onedim.h</text>
</a>
</g>
</g>
<!-- Node2&#45;&gt;Node6 -->
<g id="edge5_Node000002_Node000006" class="edge">
<title>Node2&#45;&gt;Node6</title>
<g id="a_edge5_Node000002_Node000006"><a xlink:title=" ">
<path fill="none" stroke="#63b8ff" d="M132.48,-112.51C85.48,-105.98 22.01,-93.74 6.58,-74 -23.8,-35.15 63.84,-19.17 113.29,-13.38"/>
<polygon fill="#63b8ff" stroke="#63b8ff" points="132.16,-115.99 142.54,-113.85 133.09,-109.06 132.16,-115.99"/>
</a>
</g>
</g>
<!-- Node7&#45;&gt;Node8 -->
<g id="edge7_Node000007_Node000008" class="edge">
<title>Node7&#45;&gt;Node8</title>
<g id="a_edge7_Node000007_Node000008"><a xlink:title=" ">
<path fill="none" stroke="#63b8ff" d="M713.2,-103.04C723.31,-93.64 735.86,-81.98 744.25,-74.17"/>
<polygon fill="#63b8ff" stroke="#63b8ff" points="710.68,-100.61 705.74,-109.98 715.44,-105.74 710.68,-100.61"/>
</a>
</g>
</g>
<!-- Node11 -->
<g id="Node000011" class="node">
<title>Node11</title>
<g id="a_Node000011"><a xlink:href="../../d7/d3f/ImplicitSurfChem_8cpp.html" target="_top" xlink:title="Definitions for the implicit integration of surface site density equations (see Kinetics Managers and...">
<polygon fill="white" stroke="#666666" points="988.58,-19 866.58,-19 866.58,0 988.58,0 988.58,-19"/>
<text text-anchor="middle" x="927.58" y="-7" font-family="Helvetica,sans-Serif" font-size="10.00">ImplicitSurfChem.cpp</text>
</a>
</g>
</g>
<!-- Node10&#45;&gt;Node11 -->
<g id="edge10_Node000010_Node000011" class="edge">
<title>Node10&#45;&gt;Node11</title>
<g id="a_edge10_Node000010_Node000011"><a xlink:title=" ">
<path fill="none" stroke="#63b8ff" d="M948.4,-46.1C943.1,-37.04 936.86,-26.37 932.6,-19.09"/>
<polygon fill="#63b8ff" stroke="#63b8ff" points="945.39,-47.88 953.46,-54.75 951.43,-44.35 945.39,-47.88"/>
</a>
</g>
</g>
<!-- Node10&#45;&gt;Node12 -->
<g id="edge11_Node000010_Node000012" class="edge">
<title>Node10&#45;&gt;Node12</title>
<g id="a_edge11_Node000010_Node000012"><a xlink:title=" ">
<path fill="none" stroke="#63b8ff" d="M985.07,-50.5C1004.93,-40.75 1031.58,-27.68 1048.91,-19.17"/>
<polygon fill="#63b8ff" stroke="#63b8ff" points="983.37,-47.44 975.93,-54.98 986.45,-53.72 983.37,-47.44"/>
</a>
</g>
</g>
<!-- Node13 -->
<g id="Node000013" class="node">
<title>Node13</title>
<g id="a_Node000013"><a xlink:href="../../d3/dc9/solveSP_8cpp.html" target="_top" xlink:title="Implicit surface site concentration solver.">
<polygon fill="white" stroke="#666666" points="848.58,-19 774.58,-19 774.58,0 848.58,0 848.58,-19"/>
<text text-anchor="middle" x="811.58" y="-7" font-family="Helvetica,sans-Serif" font-size="10.00">solveSP.cpp</text>
</a>
</g>
</g>
<!-- Node10&#45;&gt;Node13 -->
<g id="edge12_Node000010_Node000013" class="edge">
<title>Node10&#45;&gt;Node13</title>
<g id="a_edge12_Node000010_Node000013"><a xlink:title=" ">
<path fill="none" stroke="#63b8ff" d="M925.44,-51.55C898.14,-41.71 860.07,-27.98 835.63,-19.17"/>
<polygon fill="#63b8ff" stroke="#63b8ff" points="924.37,-54.89 934.96,-54.98 926.74,-48.3 924.37,-54.89"/>
</a>
</g>
</g>
<!-- Node15 -->
<g id="Node000015" class="node">
<title>Node15</title>
<g id="a_Node000015"><a xlink:href="../../de/dbe/Interface_8cpp.html" target="_top" xlink:title=" ">
<polygon fill="white" stroke="#666666" points="504.58,-74 424.58,-74 424.58,-55 504.58,-55 504.58,-74"/>
<text text-anchor="middle" x="464.58" y="-62" font-family="Helvetica,sans-Serif" font-size="10.00">Interface.cpp</text>
</a>
</g>
</g>
<!-- Node14&#45;&gt;Node15 -->
<g id="edge14_Node000014_Node000015" class="edge">
<title>Node14&#45;&gt;Node15</title>
<g id="a_edge14_Node000014_Node000015"><a xlink:title=" ">
<path fill="none" stroke="#63b8ff" d="M536.06,-104.97C518.51,-95.28 495.41,-82.52 480.28,-74.17"/>
<polygon fill="#63b8ff" stroke="#63b8ff" points="534.71,-108.22 545.15,-109.98 538.09,-102.09 534.71,-108.22"/>
</a>
</g>
</g>
<!-- Node16 -->
<g id="Node000016" class="node">
<title>Node16</title>
<g id="a_Node000016"><a xlink:href="../../df/d48/Solution_8cpp.html" target="_top" xlink:title="Definition file for class Solution.">
<polygon fill="white" stroke="#666666" points="600.08,-74 523.08,-74 523.08,-55 600.08,-55 600.08,-74"/>
<text text-anchor="middle" x="561.58" y="-62" font-family="Helvetica,sans-Serif" font-size="10.00">Solution.cpp</text>
</a>
</g>
</g>
<!-- Node14&#45;&gt;Node16 -->
<g id="edge15_Node000014_Node000016" class="edge">
<title>Node14&#45;&gt;Node16</title>
<g id="a_edge15_Node000014_Node000016"><a xlink:title=" ">
<path fill="none" stroke="#63b8ff" d="M560.93,-99.66C561.1,-90.93 561.29,-80.99 561.42,-74.09"/>
<polygon fill="#63b8ff" stroke="#63b8ff" points="557.43,-99.68 560.74,-109.75 564.43,-99.82 557.43,-99.68"/>
</a>
</g>
</g>
<!-- Node17 -->
<g id="Node000017" class="node">
<title>Node17</title>
<g id="a_Node000017"><a xlink:href="../../d5/dc4/core_8h.html" target="_top" xlink:title="Support for Cantera core calculations from C++ application programs.">
<polygon fill="white" stroke="#666666" points="406.08,-74 359.08,-74 359.08,-55 406.08,-55 406.08,-74"/>
<text text-anchor="middle" x="382.58" y="-62" font-family="Helvetica,sans-Serif" font-size="10.00">core.h</text>
</a>
</g>
</g>
<!-- Node14&#45;&gt;Node17 -->
<g id="edge16_Node000014_Node000017" class="edge">
<title>Node14&#45;&gt;Node17</title>
<g id="a_edge16_Node000014_Node000017"><a xlink:title=" ">
<path fill="none" stroke="#63b8ff" d="M522.04,-107.03C486.82,-96.54 435.84,-81.36 406.27,-72.55"/>
<polygon fill="#63b8ff" stroke="#63b8ff" points="521.4,-110.49 531.98,-109.98 523.39,-103.78 521.4,-110.49"/>
</a>
</g>
</g>
<!-- Node14&#45;&gt;Node19 -->
<g id="edge19_Node000014_Node000019" class="edge">
<title>Node14&#45;&gt;Node19</title>
<g id="a_edge19_Node000014_Node000019"><a xlink:title=" ">
<path fill="none" stroke="#63b8ff" d="M583.5,-104.7C599.53,-95.04 620.45,-82.44 634.18,-74.17"/>
<polygon fill="#63b8ff" stroke="#63b8ff" points="581.48,-101.83 574.72,-109.98 585.09,-107.82 581.48,-101.83"/>
</a>
</g>
</g>
<!-- Node17&#45;&gt;Node6 -->
<g id="edge17_Node000017_Node000006" class="edge">
<title>Node17&#45;&gt;Node6</title>
<g id="a_edge17_Node000017_Node000006"><a xlink:title=" ">
<path fill="none" stroke="#63b8ff" d="M348.89,-54.91C281.59,-39.05 214.32,-24.86 175.92,-16.91"/>
<polygon fill="#63b8ff" stroke="#63b8ff" points="348.27,-58.36 358.81,-57.26 349.89,-51.55 348.27,-58.36"/>
</a>
</g>
</g>
<!-- Node18 -->
<g id="Node000018" class="node">
<title>Node18</title>
<g id="a_Node000018"><a xlink:href="../../dd/d2e/zerodim_8h.html" target="_top" xlink:title=" ">
<polygon fill="white" stroke="#666666" points="415.08,-19 350.08,-19 350.08,0 415.08,0 415.08,-19"/>
<text text-anchor="middle" x="382.58" y="-7" font-family="Helvetica,sans-Serif" font-size="10.00">zerodim.h</text>
</a>
</g>
</g>
<!-- Node17&#45;&gt;Node18 -->
<g id="edge18_Node000017_Node000018" class="edge">
<title>Node17&#45;&gt;Node18</title>
<g id="a_edge18_Node000017_Node000018"><a xlink:title=" ">
<path fill="none" stroke="#63b8ff" d="M382.58,-44.66C382.58,-35.93 382.58,-25.99 382.58,-19.09"/>
<polygon fill="#63b8ff" stroke="#63b8ff" points="379.08,-44.75 382.58,-54.75 386.08,-44.75 379.08,-44.75"/>
</a>
</g>
</g>
<!-- Node24&#45;&gt;Node10 -->
<g id="edge29_Node000024_Node000010" class="edge">
<title>Node24&#45;&gt;Node10</title>
<g id="a_edge29_Node000024_Node000010"><a xlink:title=" ">
<path fill="none" stroke="#63b8ff" d="M949.48,-99.95C951.8,-91.15 954.47,-81.06 956.31,-74.09"/>
<polygon fill="#63b8ff" stroke="#63b8ff" points="946.06,-99.19 946.89,-109.75 952.83,-100.97 946.06,-99.19"/>
</a>
</g>
</g>
<!-- Node24&#45;&gt;Node11 -->
<g id="edge28_Node000024_Node000011" class="edge">
<title>Node24&#45;&gt;Node11</title>
<g id="a_edge28_Node000024_Node000011"><a xlink:title=" ">
<path fill="none" stroke="#63b8ff" d="M920.93,-104.09C910.81,-96.52 900.08,-86.26 894.58,-74 885.63,-54.05 904.58,-31.52 917.3,-19.38"/>
<polygon fill="#63b8ff" stroke="#63b8ff" points="918.94,-106.97 929.15,-109.8 922.93,-101.22 918.94,-106.97"/>
</a>
</g>
</g>
<!-- Node24&#45;&gt;Node13 -->
<g id="edge30_Node000024_Node000013" class="edge">
<title>Node24&#45;&gt;Node13</title>
<g id="a_edge30_Node000024_Node000013"><a xlink:title=" ">
<path fill="none" stroke="#63b8ff" d="M925,-103.47C913.94,-94.92 899.91,-83.96 887.58,-74 863.77,-54.77 836.33,-31.58 821.81,-19.24"/>
<polygon fill="#63b8ff" stroke="#63b8ff" points="923.08,-106.41 933.14,-109.74 927.35,-100.87 923.08,-106.41"/>
</a>
</g>
</g>
</g>
</svg>
