<?xml version="1.0" encoding="UTF-8" standalone="no"?>
<!DOCTYPE svg PUBLIC "-//W3C//DTD SVG 1.1//EN"
 "http://www.w3.org/Graphics/SVG/1.1/DTD/svg11.dtd">
<!-- Generated by graphviz version 2.43.0 (0)
 -->
<!-- Title: Rate Evaluators Pages: 1 -->
<svg width="363pt" height="27pt"
 viewBox="0.00 0.00 363.00 27.00" xmlns="http://www.w3.org/2000/svg" xmlns:xlink="http://www.w3.org/1999/xlink">
<g id="graph0" class="graph" transform="scale(1 1) rotate(0) translate(4 23)">
<title>Rate Evaluators</title>
<polygon fill="white" stroke="transparent" points="-4,4 -4,-23 359,-23 359,4 -4,4"/>
<!-- Node3 -->
<g id="node1" class="node">
<title>Node3</title>
<g id="a_node1"><a xlink:href="../../d4/dc8/group__Stoichiometry.html" target="_top" xlink:title="The classes defined here implement simple operations that are used by class Kinetics to compute thing...">
<polygon fill="white" stroke="black" points="355,-19 270,-19 270,0 355,0 355,-19"/>
<text text-anchor="middle" x="312.5" y="-7" font-family="Helvetica,sans-Serif" font-size="10.00">Stoichiometry</text>
</a>
</g>
</g>
<!-- Node1 -->
<g id="node2" class="node">
<title>Node1</title>
<g id="a_node2"><a xlink:title="These classes are used to evaluate the rates of reactions.">
<polygon fill="#bfbfbf" stroke="black" points="234,-19 140,-19 140,0 234,0 234,-19"/>
<text text-anchor="middle" x="187" y="-7" font-family="Helvetica,sans-Serif" font-size="10.00">Rate Evaluators</text>
</a>
</g>
</g>
<!-- Node1&#45;&gt;Node3 -->
<g id="edge2" class="edge">
<title>Node1&#45;&gt;Node3</title>
<path fill="none" stroke="black" d="M244.58,-9.5C253.07,-9.5 261.68,-9.5 269.78,-9.5"/>
<polygon fill="black" stroke="black" points="244.34,-6 234.34,-9.5 244.34,-13 244.34,-6"/>
</g>
<!-- Node2 -->
<g id="node3" class="node">
<title>Node2</title>
<g id="a_node3"><a xlink:href="../../d1/dc2/group__chemkinetics.html" target="_top" xlink:title=" ">
<polygon fill="white" stroke="black" points="104,-19 0,-19 0,0 104,0 104,-19"/>
<text text-anchor="middle" x="52" y="-7" font-family="Helvetica,sans-Serif" font-size="10.00">Chemical Kinetics</text>
</a>
</g>
</g>
<!-- Node2&#45;&gt;Node1 -->
<g id="edge1" class="edge">
<title>Node2&#45;&gt;Node1</title>
<path fill="none" stroke="black" d="M114.06,-9.5C122.67,-9.5 131.4,-9.5 139.67,-9.5"/>
<polygon fill="black" stroke="black" points="114.04,-6 104.04,-9.5 114.04,-13 114.04,-6"/>
</g>
</g>
</svg>
