<?xml version="1.0" encoding="UTF-8" standalone="no"?>
<!DOCTYPE svg PUBLIC "-//W3C//DTD SVG 1.1//EN"
 "http://www.w3.org/Graphics/SVG/1.1/DTD/svg11.dtd">
<!-- Generated by graphviz version 6.0.1 (0)
 -->
<!-- Title: WallFactory Pages: 1 -->
<svg width="117pt" height="137pt"
 viewBox="0.00 0.00 117.00 137.00" xmlns="http://www.w3.org/2000/svg" xmlns:xlink="http://www.w3.org/1999/xlink">
<g id="graph0" class="graph" transform="scale(1 1) rotate(0) translate(4 133)">
<title>WallFactory</title>
<!-- Node1 -->
<g id="node1" class="node">
<title>Node1</title>
<g id="a_node1"><a xlink:title="Factory class to create WallBase objects.">
<polygon fill="#999999" stroke="#666666" points="88.5,-19 20.5,-19 20.5,0 88.5,0 88.5,-19"/>
<text text-anchor="middle" x="54.5" y="-7" font-family="Helvetica,sans-Serif" font-size="10.00">WallFactory</text>
</a>
</g>
</g>
<!-- Node2 -->
<g id="node2" class="node">
<title>Node2</title>
<g id="a_node2"><a xlink:href="../../dc/dd4/classCantera_1_1Factory.html" target="_top" xlink:title=" ">
<polygon fill="white" stroke="#666666" points="109,-74 0,-74 0,-55 109,-55 109,-74"/>
<text text-anchor="middle" x="54.5" y="-62" font-family="Helvetica,sans-Serif" font-size="10.00">Factory&lt; WallBase &gt;</text>
</a>
</g>
</g>
<!-- Node2&#45;&gt;Node1 -->
<g id="edge1" class="edge">
<title>Node2&#45;&gt;Node1</title>
<path fill="none" stroke="#63b8ff" d="M54.5,-44.66C54.5,-35.93 54.5,-25.99 54.5,-19.09"/>
<polygon fill="#63b8ff" stroke="#63b8ff" points="51,-44.75 54.5,-54.75 58,-44.75 51,-44.75"/>
</g>
<!-- Node3 -->
<g id="node3" class="node">
<title>Node3</title>
<g id="a_node3"><a xlink:href="../../da/dac/classCantera_1_1FactoryBase.html" target="_top" xlink:title="Base class for factories.">
<polygon fill="white" stroke="#666666" points="90.5,-129 18.5,-129 18.5,-110 90.5,-110 90.5,-129"/>
<text text-anchor="middle" x="54.5" y="-117" font-family="Helvetica,sans-Serif" font-size="10.00">FactoryBase</text>
</a>
</g>
</g>
<!-- Node3&#45;&gt;Node2 -->
<g id="edge2" class="edge">
<title>Node3&#45;&gt;Node2</title>
<path fill="none" stroke="#63b8ff" d="M54.5,-99.66C54.5,-90.93 54.5,-80.99 54.5,-74.09"/>
<polygon fill="#63b8ff" stroke="#63b8ff" points="51,-99.75 54.5,-109.75 58,-99.75 51,-99.75"/>
</g>
</g>
</svg>
