<?xml version="1.0" encoding="UTF-8" standalone="no"?>
<!DOCTYPE svg PUBLIC "-//W3C//DTD SVG 1.1//EN"
 "http://www.w3.org/Graphics/SVG/1.1/DTD/svg11.dtd">
<!-- Generated by graphviz version 2.50.0 (0)
 -->
<!-- Title: Mu0Poly.cpp Pages: 1 -->
<svg width="823pt" height="431pt"
 viewBox="0.00 0.00 822.56 431.00" xmlns="http://www.w3.org/2000/svg" xmlns:xlink="http://www.w3.org/1999/xlink">
<g id="graph0" class="graph" transform="scale(1 1) rotate(0) translate(4 427)">
<title>Mu0Poly.cpp</title>
<polygon fill="white" stroke="transparent" points="-4,4 -4,-427 818.56,-427 818.56,4 -4,4"/>
<!-- Node1 -->
<g id="node1" class="node">
<title>Node1</title>
<g id="a_node1"><a xlink:title="Definitions for a single&#45;species standard state object derived from SpeciesThermoInterpType based on ...">
<polygon fill="#bfbfbf" stroke="black" points="581.56,-403.5 581.56,-422.5 653.56,-422.5 653.56,-403.5 581.56,-403.5"/>
<text text-anchor="middle" x="617.56" y="-410.5" font-family="Helvetica,sans-Serif" font-size="10.00">Mu0Poly.cpp</text>
</a>
</g>
</g>
<!-- Node2 -->
<g id="node2" class="node">
<title>Node2</title>
<g id="a_node2"><a xlink:href="../../d0/dbd/Mu0Poly_8h.html" target="_top" xlink:title="Header for a single&#45;species standard state object derived from SpeciesThermoInterpType based on a pie...">
<polygon fill="white" stroke="black" points="400.56,-347.5 400.56,-366.5 530.56,-366.5 530.56,-347.5 400.56,-347.5"/>
<text text-anchor="middle" x="465.56" y="-354.5" font-family="Helvetica,sans-Serif" font-size="10.00">cantera/thermo/Mu0Poly.h</text>
</a>
</g>
</g>
<!-- Node1&#45;&gt;Node2 -->
<g id="edge1" class="edge">
<title>Node1&#45;&gt;Node2</title>
<path fill="none" stroke="midnightblue" d="M593.48,-403.44C568.02,-394.4 527.67,-380.06 499.1,-369.92"/>
<polygon fill="midnightblue" stroke="midnightblue" points="500.13,-366.57 489.53,-366.52 497.79,-373.16 500.13,-366.57"/>
</g>
<!-- Node18 -->
<g id="node16" class="node">
<title>Node18</title>
<g id="a_node16"><a xlink:href="../../dd/d2a/AnyMap_8h.html" target="_top" xlink:title=" ">
<polygon fill="white" stroke="black" points="275.56,-224.5 275.56,-243.5 395.56,-243.5 395.56,-224.5 275.56,-224.5"/>
<text text-anchor="middle" x="335.56" y="-231.5" font-family="Helvetica,sans-Serif" font-size="10.00">cantera/base/AnyMap.h</text>
</a>
</g>
</g>
<!-- Node1&#45;&gt;Node18 -->
<g id="edge32" class="edge">
<title>Node1&#45;&gt;Node18</title>
<path fill="none" stroke="midnightblue" d="M615.86,-403.25C610.71,-379.33 593,-312.51 550.56,-280 528.13,-262.82 459.62,-250.45 405.9,-243.08"/>
<polygon fill="midnightblue" stroke="midnightblue" points="406.08,-239.57 395.71,-241.71 405.16,-246.51 406.08,-239.57"/>
</g>
<!-- Node26 -->
<g id="node22" class="node">
<title>Node26</title>
<g id="a_node22"><a xlink:href="../../dc/deb/ctml_8h.html" target="_top" xlink:title="CTML (&quot;Cantera Markup Language&quot;) is the variant of XML that Cantera uses to store data.">
<polygon fill="white" stroke="black" points="623.06,-168.5 623.06,-187.5 726.06,-187.5 726.06,-168.5 623.06,-168.5"/>
<text text-anchor="middle" x="674.56" y="-175.5" font-family="Helvetica,sans-Serif" font-size="10.00">cantera/base/ctml.h</text>
</a>
</g>
</g>
<!-- Node1&#45;&gt;Node26 -->
<g id="edge26" class="edge">
<title>Node1&#45;&gt;Node26</title>
<path fill="none" stroke="midnightblue" d="M619.66,-403.43C627.91,-369.68 658.3,-245.47 669.96,-197.8"/>
<polygon fill="midnightblue" stroke="midnightblue" points="673.41,-198.44 672.39,-187.9 666.61,-196.78 673.41,-198.44"/>
</g>
<!-- Node28 -->
<g id="node24" class="node">
<title>Node28</title>
<g id="a_node24"><a xlink:href="../../dd/dc3/stringUtils_8h.html" target="_top" xlink:title="Contains declarations for string manipulation functions within Cantera.">
<polygon fill="white" stroke="black" points="686.56,-224.5 686.56,-243.5 814.56,-243.5 814.56,-224.5 686.56,-224.5"/>
<text text-anchor="middle" x="750.56" y="-231.5" font-family="Helvetica,sans-Serif" font-size="10.00">cantera/base/stringUtils.h</text>
</a>
</g>
</g>
<!-- Node1&#45;&gt;Node28 -->
<g id="edge30" class="edge">
<title>Node1&#45;&gt;Node28</title>
<path fill="none" stroke="midnightblue" d="M628.2,-403.36C638.43,-394.76 654.01,-380.86 665.56,-367 697.15,-329.11 726.56,-278.82 741.08,-252.6"/>
<polygon fill="midnightblue" stroke="midnightblue" points="744.32,-253.97 746.05,-243.52 738.18,-250.61 744.32,-253.97"/>
</g>
<!-- Node3 -->
<g id="node3" class="node">
<title>Node3</title>
<g id="a_node3"><a xlink:href="../../d4/d87/SpeciesThermoInterpType_8h.html" target="_top" xlink:title="Pure Virtual Base class for individual species reference state thermodynamic managers and text for th...">
<polygon fill="white" stroke="black" points="160.06,-280.5 160.06,-310.5 313.06,-310.5 313.06,-280.5 160.06,-280.5"/>
<text text-anchor="start" x="168.06" y="-298.5" font-family="Helvetica,sans-Serif" font-size="10.00">cantera/thermo/SpeciesThermo</text>
<text text-anchor="middle" x="236.56" y="-287.5" font-family="Helvetica,sans-Serif" font-size="10.00">InterpType.h</text>
</a>
</g>
</g>
<!-- Node2&#45;&gt;Node3 -->
<g id="edge2" class="edge">
<title>Node2&#45;&gt;Node3</title>
<path fill="none" stroke="midnightblue" d="M432.75,-347.48C398.33,-338.53 343.36,-324.25 300.35,-313.07"/>
<polygon fill="midnightblue" stroke="midnightblue" points="301.09,-309.65 290.53,-310.52 299.33,-316.43 301.09,-309.65"/>
</g>
<!-- Node25 -->
<g id="node21" class="node">
<title>Node25</title>
<g id="a_node21"><a xlink:href="../../d4/d0c/speciesThermoTypes_8h.html" target="_top" xlink:title="Contains const definitions for types of species reference&#45;state thermodynamics managers (see Species ...">
<polygon fill="white" stroke="black" points="389.56,-280.5 389.56,-310.5 541.56,-310.5 541.56,-280.5 389.56,-280.5"/>
<text text-anchor="start" x="397.56" y="-298.5" font-family="Helvetica,sans-Serif" font-size="10.00">cantera/thermo/speciesThermo</text>
<text text-anchor="middle" x="465.56" y="-287.5" font-family="Helvetica,sans-Serif" font-size="10.00">Types.h</text>
</a>
</g>
</g>
<!-- Node2&#45;&gt;Node25 -->
<g id="edge25" class="edge">
<title>Node2&#45;&gt;Node25</title>
<path fill="none" stroke="midnightblue" d="M465.56,-347.48C465.56,-340.47 465.56,-330.19 465.56,-320.7"/>
<polygon fill="midnightblue" stroke="midnightblue" points="469.06,-320.52 465.56,-310.52 462.06,-320.52 469.06,-320.52"/>
</g>
<!-- Node4 -->
<g id="node4" class="node">
<title>Node4</title>
<g id="a_node4"><a xlink:href="../../d9/ddc/ct__defs_8h.html" target="_top" xlink:title="This file contains definitions of constants, types and terms that are used in internal routines and a...">
<polygon fill="white" stroke="black" points="251.56,-56.5 251.56,-75.5 367.56,-75.5 367.56,-56.5 251.56,-56.5"/>
<text text-anchor="middle" x="309.56" y="-63.5" font-family="Helvetica,sans-Serif" font-size="10.00">cantera/base/ct_defs.h</text>
</a>
</g>
</g>
<!-- Node3&#45;&gt;Node4 -->
<g id="edge3" class="edge">
<title>Node3&#45;&gt;Node4</title>
<path fill="none" stroke="midnightblue" d="M192.71,-280.49C111.5,-252.37 -48.51,-185.42 14.56,-112 43.2,-78.67 163.41,-69.75 241.27,-67.53"/>
<polygon fill="midnightblue" stroke="midnightblue" points="241.58,-71.02 251.48,-67.27 241.4,-64.02 241.58,-71.02"/>
</g>
<!-- Node13 -->
<g id="node13" class="node">
<title>Node13</title>
<g id="a_node13"><a xlink:href="../../db/d98/ctexceptions_8h.html" target="_top" xlink:title="Definitions for the classes that are thrown when Cantera experiences an error condition (also contain...">
<polygon fill="white" stroke="black" points="59.56,-168.5 59.56,-187.5 199.56,-187.5 199.56,-168.5 59.56,-168.5"/>
<text text-anchor="middle" x="129.56" y="-175.5" font-family="Helvetica,sans-Serif" font-size="10.00">cantera/base/ctexceptions.h</text>
</a>
</g>
</g>
<!-- Node3&#45;&gt;Node13 -->
<g id="edge12" class="edge">
<title>Node3&#45;&gt;Node13</title>
<path fill="none" stroke="midnightblue" d="M223.44,-280.34C203.46,-258.77 165.52,-217.81 144.51,-195.13"/>
<polygon fill="midnightblue" stroke="midnightblue" points="146.96,-192.63 137.59,-187.67 141.82,-197.38 146.96,-192.63"/>
</g>
<!-- Node3&#45;&gt;Node18 -->
<g id="edge16" class="edge">
<title>Node3&#45;&gt;Node18</title>
<path fill="none" stroke="midnightblue" d="M260.02,-280.4C275.89,-270.86 296.75,-258.32 312.53,-248.84"/>
<polygon fill="midnightblue" stroke="midnightblue" points="314.39,-251.81 321.16,-243.66 310.78,-245.81 314.39,-251.81"/>
</g>
<!-- Node5 -->
<g id="node5" class="node">
<title>Node5</title>
<g id="a_node5"><a xlink:href="../../db/d16/config_8h_source.html" target="_top" xlink:title=" ">
<polygon fill="white" stroke="black" points="63.06,-0.5 63.06,-19.5 114.06,-19.5 114.06,-0.5 63.06,-0.5"/>
<text text-anchor="middle" x="88.56" y="-7.5" font-family="Helvetica,sans-Serif" font-size="10.00">config.h</text>
</a>
</g>
</g>
<!-- Node4&#45;&gt;Node5 -->
<g id="edge4" class="edge">
<title>Node4&#45;&gt;Node5</title>
<path fill="none" stroke="midnightblue" d="M273.52,-56.44C238,-47.97 181.93,-34.5 123.88,-20.05"/>
<polygon fill="midnightblue" stroke="midnightblue" points="124.72,-16.65 114.17,-17.63 123.02,-23.45 124.72,-16.65"/>
</g>
<!-- Node6 -->
<g id="node6" class="node">
<title>Node6</title>
<g id="a_node6"><a xlink:title=" ">
<polygon fill="white" stroke="#bfbfbf" points="132.56,-0.5 132.56,-19.5 176.56,-19.5 176.56,-0.5 132.56,-0.5"/>
<text text-anchor="middle" x="154.56" y="-7.5" font-family="Helvetica,sans-Serif" font-size="10.00">cmath</text>
</a>
</g>
</g>
<!-- Node4&#45;&gt;Node6 -->
<g id="edge5" class="edge">
<title>Node4&#45;&gt;Node6</title>
<path fill="none" stroke="midnightblue" d="M285,-56.44C258.43,-47.19 215.95,-32.39 186.73,-22.21"/>
<polygon fill="midnightblue" stroke="midnightblue" points="187.59,-18.8 176.99,-18.82 185.29,-25.41 187.59,-18.8"/>
</g>
<!-- Node7 -->
<g id="node7" class="node">
<title>Node7</title>
<g id="a_node7"><a xlink:title=" ">
<polygon fill="white" stroke="#bfbfbf" points="195.06,-0.5 195.06,-19.5 240.06,-19.5 240.06,-0.5 195.06,-0.5"/>
<text text-anchor="middle" x="217.56" y="-7.5" font-family="Helvetica,sans-Serif" font-size="10.00">cstdlib</text>
</a>
</g>
</g>
<!-- Node4&#45;&gt;Node7 -->
<g id="edge6" class="edge">
<title>Node4&#45;&gt;Node7</title>
<path fill="none" stroke="midnightblue" d="M294.78,-56.32C280.3,-47.82 257.99,-34.73 241.07,-24.8"/>
<polygon fill="midnightblue" stroke="midnightblue" points="242.7,-21.7 232.31,-19.65 239.16,-27.74 242.7,-21.7"/>
</g>
<!-- Node8 -->
<g id="node8" class="node">
<title>Node8</title>
<g id="a_node8"><a xlink:title=" ">
<polygon fill="white" stroke="#bfbfbf" points="258.56,-0.5 258.56,-19.5 302.56,-19.5 302.56,-0.5 258.56,-0.5"/>
<text text-anchor="middle" x="280.56" y="-7.5" font-family="Helvetica,sans-Serif" font-size="10.00">vector</text>
</a>
</g>
</g>
<!-- Node4&#45;&gt;Node8 -->
<g id="edge7" class="edge">
<title>Node4&#45;&gt;Node8</title>
<path fill="none" stroke="midnightblue" d="M304.77,-56.08C300.8,-48.69 295.04,-37.95 290.13,-28.81"/>
<polygon fill="midnightblue" stroke="midnightblue" points="293.08,-26.91 285.26,-19.75 286.91,-30.22 293.08,-26.91"/>
</g>
<!-- Node9 -->
<g id="node9" class="node">
<title>Node9</title>
<g id="a_node9"><a xlink:title=" ">
<polygon fill="white" stroke="#bfbfbf" points="321.06,-0.5 321.06,-19.5 356.06,-19.5 356.06,-0.5 321.06,-0.5"/>
<text text-anchor="middle" x="338.56" y="-7.5" font-family="Helvetica,sans-Serif" font-size="10.00">map</text>
</a>
</g>
</g>
<!-- Node4&#45;&gt;Node9 -->
<g id="edge8" class="edge">
<title>Node4&#45;&gt;Node9</title>
<path fill="none" stroke="midnightblue" d="M314.35,-56.08C318.32,-48.69 324.09,-37.95 329,-28.81"/>
<polygon fill="midnightblue" stroke="midnightblue" points="332.22,-30.22 333.86,-19.75 326.05,-26.91 332.22,-30.22"/>
</g>
<!-- Node10 -->
<g id="node10" class="node">
<title>Node10</title>
<g id="a_node10"><a xlink:title=" ">
<polygon fill="white" stroke="#bfbfbf" points="374.06,-0.5 374.06,-19.5 415.06,-19.5 415.06,-0.5 374.06,-0.5"/>
<text text-anchor="middle" x="394.56" y="-7.5" font-family="Helvetica,sans-Serif" font-size="10.00">string</text>
</a>
</g>
</g>
<!-- Node4&#45;&gt;Node10 -->
<g id="edge9" class="edge">
<title>Node4&#45;&gt;Node10</title>
<path fill="none" stroke="midnightblue" d="M323.22,-56.32C336.48,-47.9 356.83,-34.97 372.41,-25.07"/>
<polygon fill="midnightblue" stroke="midnightblue" points="374.38,-27.97 380.94,-19.65 370.62,-22.06 374.38,-27.97"/>
</g>
<!-- Node11 -->
<g id="node11" class="node">
<title>Node11</title>
<g id="a_node11"><a xlink:title=" ">
<polygon fill="white" stroke="#bfbfbf" points="433.56,-0.5 433.56,-19.5 489.56,-19.5 489.56,-0.5 433.56,-0.5"/>
<text text-anchor="middle" x="461.56" y="-7.5" font-family="Helvetica,sans-Serif" font-size="10.00">algorithm</text>
</a>
</g>
</g>
<!-- Node4&#45;&gt;Node11 -->
<g id="edge10" class="edge">
<title>Node4&#45;&gt;Node11</title>
<path fill="none" stroke="midnightblue" d="M333.65,-56.44C359.11,-47.4 399.46,-33.06 428.02,-22.92"/>
<polygon fill="midnightblue" stroke="midnightblue" points="429.34,-26.16 437.59,-19.52 427,-19.57 429.34,-26.16"/>
</g>
<!-- Node12 -->
<g id="node12" class="node">
<title>Node12</title>
<g id="a_node12"><a xlink:title=" ">
<polygon fill="white" stroke="#bfbfbf" points="507.56,-0.5 507.56,-19.5 559.56,-19.5 559.56,-0.5 507.56,-0.5"/>
<text text-anchor="middle" x="533.56" y="-7.5" font-family="Helvetica,sans-Serif" font-size="10.00">memory</text>
</a>
</g>
</g>
<!-- Node4&#45;&gt;Node12 -->
<g id="edge11" class="edge">
<title>Node4&#45;&gt;Node12</title>
<path fill="none" stroke="midnightblue" d="M346.2,-56.48C382.3,-48.04 439.28,-34.6 497.47,-20.24"/>
<polygon fill="midnightblue" stroke="midnightblue" points="498.34,-23.63 507.2,-17.83 496.65,-16.84 498.34,-23.63"/>
</g>
<!-- Node14 -->
<g id="node14" class="node">
<title>Node14</title>
<g id="a_node14"><a xlink:href="../../db/def/fmt_8h.html" target="_top" xlink:title="Wrapper for either system&#45;installed or local headers for fmt.">
<polygon fill="white" stroke="red" points="23.56,-112.5 23.56,-131.5 121.56,-131.5 121.56,-112.5 23.56,-112.5"/>
<text text-anchor="middle" x="72.56" y="-119.5" font-family="Helvetica,sans-Serif" font-size="10.00">cantera/base/fmt.h</text>
</a>
</g>
</g>
<!-- Node13&#45;&gt;Node14 -->
<g id="edge13" class="edge">
<title>Node13&#45;&gt;Node14</title>
<path fill="none" stroke="midnightblue" d="M120.4,-168.32C112.06,-160.42 99.53,-148.55 89.39,-138.94"/>
<polygon fill="midnightblue" stroke="midnightblue" points="91.55,-136.17 81.89,-131.83 86.74,-141.25 91.55,-136.17"/>
</g>
<!-- Node17 -->
<g id="node15" class="node">
<title>Node17</title>
<g id="a_node15"><a xlink:title=" ">
<polygon fill="white" stroke="#bfbfbf" points="140.06,-112.5 140.06,-131.5 199.06,-131.5 199.06,-112.5 140.06,-112.5"/>
<text text-anchor="middle" x="169.56" y="-119.5" font-family="Helvetica,sans-Serif" font-size="10.00">exception</text>
</a>
</g>
</g>
<!-- Node13&#45;&gt;Node17 -->
<g id="edge15" class="edge">
<title>Node13&#45;&gt;Node17</title>
<path fill="none" stroke="midnightblue" d="M136.17,-168.08C141.82,-160.46 150.11,-149.26 157.01,-139.94"/>
<polygon fill="midnightblue" stroke="midnightblue" points="159.94,-141.87 163.08,-131.75 154.32,-137.7 159.94,-141.87"/>
</g>
<!-- Node14&#45;&gt;Node4 -->
<g id="edge14" class="edge">
<title>Node14&#45;&gt;Node4</title>
<path fill="none" stroke="midnightblue" d="M110.12,-112.44C151.37,-103.04 217.71,-87.93 262.43,-77.74"/>
<polygon fill="midnightblue" stroke="midnightblue" points="263.21,-81.15 272.19,-75.52 261.66,-74.33 263.21,-81.15"/>
</g>
<!-- Node18&#45;&gt;Node4 -->
<g id="edge17" class="edge">
<title>Node18&#45;&gt;Node4</title>
<path fill="none" stroke="midnightblue" d="M321.66,-224.27C309.28,-216.01 291.23,-202.71 278.56,-188 259.86,-166.28 253.92,-159.71 246.56,-132 244.28,-123.41 242.5,-119.9 246.56,-112 253.64,-98.25 267.08,-87.77 279.74,-80.39"/>
<polygon fill="midnightblue" stroke="midnightblue" points="281.56,-83.39 288.72,-75.57 278.25,-77.22 281.56,-83.39"/>
</g>
<!-- Node18&#45;&gt;Node13 -->
<g id="edge18" class="edge">
<title>Node18&#45;&gt;Node13</title>
<path fill="none" stroke="midnightblue" d="M302.92,-224.44C267.51,-215.16 210.85,-200.31 172.01,-190.13"/>
<polygon fill="midnightblue" stroke="midnightblue" points="172.61,-186.67 162.05,-187.52 170.84,-193.44 172.61,-186.67"/>
</g>
<!-- Node19 -->
<g id="node17" class="node">
<title>Node19</title>
<g id="a_node17"><a xlink:href="../../da/d58/Units_8h.html" target="_top" xlink:title="Header for unit conversion utilities, which are used to translate user input from input files (See In...">
<polygon fill="white" stroke="black" points="256.06,-112.5 256.06,-131.5 363.06,-131.5 363.06,-112.5 256.06,-112.5"/>
<text text-anchor="middle" x="309.56" y="-119.5" font-family="Helvetica,sans-Serif" font-size="10.00">cantera/base/Units.h</text>
</a>
</g>
</g>
<!-- Node18&#45;&gt;Node19 -->
<g id="edge19" class="edge">
<title>Node18&#45;&gt;Node19</title>
<path fill="none" stroke="midnightblue" d="M319.83,-224.24C307.67,-216.48 291.75,-203.93 284.56,-188 277.29,-171.88 286.49,-152.97 295.71,-139.71"/>
<polygon fill="midnightblue" stroke="midnightblue" points="298.65,-141.63 301.89,-131.54 293.07,-137.4 298.65,-141.63"/>
</g>
<!-- Node20 -->
<g id="node18" class="node">
<title>Node20</title>
<g id="a_node18"><a xlink:title=" ">
<polygon fill="white" stroke="#bfbfbf" points="294.06,-168.5 294.06,-187.5 377.06,-187.5 377.06,-168.5 294.06,-168.5"/>
<text text-anchor="middle" x="335.56" y="-175.5" font-family="Helvetica,sans-Serif" font-size="10.00">unordered_map</text>
</a>
</g>
</g>
<!-- Node18&#45;&gt;Node20 -->
<g id="edge21" class="edge">
<title>Node18&#45;&gt;Node20</title>
<path fill="none" stroke="midnightblue" d="M335.56,-224.08C335.56,-217.01 335.56,-206.86 335.56,-197.99"/>
<polygon fill="midnightblue" stroke="midnightblue" points="339.06,-197.75 335.56,-187.75 332.06,-197.75 339.06,-197.75"/>
</g>
<!-- Node21 -->
<g id="node19" class="node">
<title>Node21</title>
<g id="a_node19"><a xlink:title=" ">
<polygon fill="white" stroke="#bfbfbf" points="395.06,-168.5 395.06,-187.5 454.06,-187.5 454.06,-168.5 395.06,-168.5"/>
<text text-anchor="middle" x="424.56" y="-175.5" font-family="Helvetica,sans-Serif" font-size="10.00">functional</text>
</a>
</g>
</g>
<!-- Node18&#45;&gt;Node21 -->
<g id="edge22" class="edge">
<title>Node18&#45;&gt;Node21</title>
<path fill="none" stroke="midnightblue" d="M349.86,-224.32C363.75,-215.9 385.06,-202.97 401.37,-193.07"/>
<polygon fill="midnightblue" stroke="midnightblue" points="403.56,-195.83 410.3,-187.65 399.93,-189.85 403.56,-195.83"/>
</g>
<!-- Node22 -->
<g id="node20" class="node">
<title>Node22</title>
<g id="a_node20"><a xlink:href="../../da/d4c/AnyMap_8inl_8h.html" target="_top" xlink:title=" ">
<polygon fill="white" stroke="red" points="472.06,-168.5 472.06,-187.5 605.06,-187.5 605.06,-168.5 472.06,-168.5"/>
<text text-anchor="middle" x="538.56" y="-175.5" font-family="Helvetica,sans-Serif" font-size="10.00">cantera/base/AnyMap.inl.h</text>
</a>
</g>
</g>
<!-- Node18&#45;&gt;Node22 -->
<g id="edge23" class="edge">
<title>Node18&#45;&gt;Node22</title>
<path fill="none" stroke="midnightblue" d="M362.64,-224.44C395.64,-215.12 451.64,-200.18 491.66,-190"/>
<polygon fill="midnightblue" stroke="midnightblue" points="492.63,-193.36 501.47,-187.52 490.91,-186.58 492.63,-193.36"/>
</g>
<!-- Node19&#45;&gt;Node4 -->
<g id="edge20" class="edge">
<title>Node19&#45;&gt;Node4</title>
<path fill="none" stroke="midnightblue" d="M309.56,-112.08C309.56,-105.01 309.56,-94.86 309.56,-85.99"/>
<polygon fill="midnightblue" stroke="midnightblue" points="313.06,-85.75 309.56,-75.75 306.06,-85.75 313.06,-85.75"/>
</g>
<!-- Node22&#45;&gt;Node18 -->
<g id="edge24" class="edge">
<title>Node22&#45;&gt;Node18</title>
<path fill="none" stroke="midnightblue" d="M511.63,-187.52C478.7,-196.82 422.7,-211.76 382.64,-221.96"/>
<polygon fill="midnightblue" stroke="midnightblue" points="381.65,-218.6 372.82,-224.44 383.37,-225.38 381.65,-218.6"/>
</g>
<!-- Node26&#45;&gt;Node4 -->
<g id="edge27" class="edge">
<title>Node26&#45;&gt;Node4</title>
<path fill="none" stroke="midnightblue" d="M646.23,-168.46C581.2,-148.86 421.21,-100.65 347.67,-78.48"/>
<polygon fill="midnightblue" stroke="midnightblue" points="348.47,-75.07 337.88,-75.53 346.45,-81.77 348.47,-75.07"/>
</g>
<!-- Node27 -->
<g id="node23" class="node">
<title>Node27</title>
<g id="a_node23"><a xlink:href="../../d0/d62/xml_8h.html" target="_top" xlink:title="Classes providing support for XML data files.">
<polygon fill="white" stroke="black" points="537.06,-112.5 537.06,-131.5 578.06,-131.5 578.06,-112.5 537.06,-112.5"/>
<text text-anchor="middle" x="557.56" y="-119.5" font-family="Helvetica,sans-Serif" font-size="10.00">xml.h</text>
</a>
</g>
</g>
<!-- Node26&#45;&gt;Node27 -->
<g id="edge28" class="edge">
<title>Node26&#45;&gt;Node27</title>
<path fill="none" stroke="midnightblue" d="M656.02,-168.44C636.94,-159.64 606.99,-145.81 585.13,-135.72"/>
<polygon fill="midnightblue" stroke="midnightblue" points="586.56,-132.53 576.01,-131.52 583.63,-138.88 586.56,-132.53"/>
</g>
<!-- Node27&#45;&gt;Node4 -->
<g id="edge29" class="edge">
<title>Node27&#45;&gt;Node4</title>
<path fill="none" stroke="midnightblue" d="M536.84,-116.49C498.02,-108.04 413.34,-89.6 359.02,-77.77"/>
<polygon fill="midnightblue" stroke="midnightblue" points="359.43,-74.28 348.91,-75.57 357.94,-81.12 359.43,-74.28"/>
</g>
<!-- Node28&#45;&gt;Node4 -->
<g id="edge31" class="edge">
<title>Node28&#45;&gt;Node4</title>
<path fill="none" stroke="midnightblue" d="M750.84,-224.26C750.81,-210.58 748.75,-184 734.56,-168 687.9,-115.36 485.68,-85.97 377.86,-73.78"/>
<polygon fill="midnightblue" stroke="midnightblue" points="378.06,-70.28 367.73,-72.65 377.28,-77.24 378.06,-70.28"/>
</g>
</g>
</svg>
