<?xml version="1.0" encoding="UTF-8" standalone="no"?>
<!DOCTYPE svg PUBLIC "-//W3C//DTD SVG 1.1//EN"
 "http://www.w3.org/Graphics/SVG/1.1/DTD/svg11.dtd">
<!-- Generated by graphviz version 6.0.1 (0)
 -->
<!-- Title: logger.h Pages: 1 -->
<svg width="428pt" height="137pt"
 viewBox="0.00 0.00 428.00 137.00" xmlns="http://www.w3.org/2000/svg" xmlns:xlink="http://www.w3.org/1999/xlink">
<g id="graph0" class="graph" transform="scale(1 1) rotate(0) translate(4 133)">
<title>logger.h</title>
<!-- Node1 -->
<g id="node1" class="node">
<title>Node1</title>
<g id="a_node1"><a xlink:title="Header for Base class for &#39;loggers&#39; that write text messages to log files (see Writing messages to th...">
<polygon fill="#999999" stroke="#666666" points="220.5,-129 170.5,-129 170.5,-110 220.5,-110 220.5,-129"/>
<text text-anchor="middle" x="195.5" y="-117" font-family="Helvetica,sans-Serif" font-size="10.00">logger.h</text>
</a>
</g>
</g>
<!-- Node2 -->
<g id="node2" class="node">
<title>Node2</title>
<g id="a_node2"><a xlink:href="../../d7/db4/ExternalLogger_8h_source.html" target="_top" xlink:title=" ">
<polygon fill="white" stroke="#666666" points="89,-74 0,-74 0,-55 89,-55 89,-74"/>
<text text-anchor="middle" x="44.5" y="-62" font-family="Helvetica,sans-Serif" font-size="10.00">ExternalLogger.h</text>
</a>
</g>
</g>
<!-- Node1&#45;&gt;Node2 -->
<g id="edge1" class="edge">
<title>Node1&#45;&gt;Node2</title>
<path fill="none" stroke="#63b8ff" d="M161.45,-106.55C133.41,-96.71 94.32,-82.98 69.2,-74.17"/>
<polygon fill="#63b8ff" stroke="#63b8ff" points="160.64,-109.98 171.24,-109.98 162.96,-103.37 160.64,-109.98"/>
</g>
<!-- Node3 -->
<g id="node3" class="node">
<title>Node3</title>
<g id="a_node3"><a xlink:href="../../db/d3c/NoExitLogger_8h.html" target="_top" xlink:title=" ">
<polygon fill="white" stroke="#666666" points="190,-74 107,-74 107,-55 190,-55 190,-74"/>
<text text-anchor="middle" x="148.5" y="-62" font-family="Helvetica,sans-Serif" font-size="10.00">NoExitLogger.h</text>
</a>
</g>
</g>
<!-- Node1&#45;&gt;Node3 -->
<g id="edge2" class="edge">
<title>Node1&#45;&gt;Node3</title>
<path fill="none" stroke="#63b8ff" d="M181.08,-102.24C172.84,-92.95 162.85,-81.68 156.12,-74.09"/>
<polygon fill="#63b8ff" stroke="#63b8ff" points="178.49,-104.59 187.74,-109.75 183.72,-99.94 178.49,-104.59"/>
</g>
<!-- Node4 -->
<g id="node4" class="node">
<title>Node4</title>
<g id="a_node4"><a xlink:href="../../db/d32/application_8h.html" target="_top" xlink:title=" ">
<polygon fill="white" stroke="#666666" points="279,-74 208,-74 208,-55 279,-55 279,-74"/>
<text text-anchor="middle" x="243.5" y="-62" font-family="Helvetica,sans-Serif" font-size="10.00">application.h</text>
</a>
</g>
</g>
<!-- Node1&#45;&gt;Node4 -->
<g id="edge3" class="edge">
<title>Node1&#45;&gt;Node4</title>
<path fill="none" stroke="#63b8ff" d="M210.23,-102.24C218.64,-92.95 228.85,-81.68 235.72,-74.09"/>
<polygon fill="#63b8ff" stroke="#63b8ff" points="207.54,-99.99 203.43,-109.75 212.73,-104.69 207.54,-99.99"/>
</g>
<!-- Node9 -->
<g id="node9" class="node">
<title>Node9</title>
<g id="a_node9"><a xlink:href="../../de/dd8/utils__utils_8h_source.html" target="_top" xlink:title=" ">
<polygon fill="white" stroke="#666666" points="363.5,-74 297.5,-74 297.5,-55 363.5,-55 363.5,-74"/>
<text text-anchor="middle" x="330.5" y="-62" font-family="Helvetica,sans-Serif" font-size="10.00">utils_utils.h</text>
</a>
</g>
</g>
<!-- Node1&#45;&gt;Node9 -->
<g id="edge8" class="edge">
<title>Node1&#45;&gt;Node9</title>
<path fill="none" stroke="#63b8ff" d="M226.6,-106.29C251.62,-96.47 286.16,-82.91 308.42,-74.17"/>
<polygon fill="#63b8ff" stroke="#63b8ff" points="225.22,-103.07 217.19,-109.98 227.78,-109.59 225.22,-103.07"/>
</g>
<!-- Node5 -->
<g id="node5" class="node">
<title>Node5</title>
<g id="a_node5"><a xlink:href="../../de/dfc/AnyMap_8cpp.html" target="_top" xlink:title=" ">
<polygon fill="white" stroke="#666666" points="131,-19 60,-19 60,0 131,0 131,-19"/>
<text text-anchor="middle" x="95.5" y="-7" font-family="Helvetica,sans-Serif" font-size="10.00">AnyMap.cpp</text>
</a>
</g>
</g>
<!-- Node4&#45;&gt;Node5 -->
<g id="edge4" class="edge">
<title>Node4&#45;&gt;Node5</title>
<path fill="none" stroke="#63b8ff" d="M210.13,-51.55C182.65,-41.71 144.33,-27.98 119.71,-19.17"/>
<polygon fill="#63b8ff" stroke="#63b8ff" points="209.13,-54.91 219.72,-54.98 211.49,-48.32 209.13,-54.91"/>
</g>
<!-- Node6 -->
<g id="node6" class="node">
<title>Node6</title>
<g id="a_node6"><a xlink:href="../../df/d7b/application_8cpp.html" target="_top" xlink:title=" ">
<polygon fill="white" stroke="#666666" points="231.5,-19 149.5,-19 149.5,0 231.5,0 231.5,-19"/>
<text text-anchor="middle" x="190.5" y="-7" font-family="Helvetica,sans-Serif" font-size="10.00">application.cpp</text>
</a>
</g>
</g>
<!-- Node4&#45;&gt;Node6 -->
<g id="edge5" class="edge">
<title>Node4&#45;&gt;Node6</title>
<path fill="none" stroke="#63b8ff" d="M227.52,-47.52C218.18,-38.18 206.75,-26.75 199.09,-19.09"/>
<polygon fill="#63b8ff" stroke="#63b8ff" points="225.2,-50.15 234.75,-54.75 230.15,-45.2 225.2,-50.15"/>
</g>
<!-- Node7 -->
<g id="node7" class="node">
<title>Node7</title>
<g id="a_node7"><a xlink:href="../../d8/d96/ctexceptions_8cpp.html" target="_top" xlink:title=" ">
<polygon fill="white" stroke="#666666" points="341,-19 250,-19 250,0 341,0 341,-19"/>
<text text-anchor="middle" x="295.5" y="-7" font-family="Helvetica,sans-Serif" font-size="10.00">ctexceptions.cpp</text>
</a>
</g>
</g>
<!-- Node4&#45;&gt;Node7 -->
<g id="edge6" class="edge">
<title>Node4&#45;&gt;Node7</title>
<path fill="none" stroke="#63b8ff" d="M259.18,-47.52C268.34,-38.18 279.55,-26.75 287.07,-19.09"/>
<polygon fill="#63b8ff" stroke="#63b8ff" points="256.59,-45.16 252.09,-54.75 261.59,-50.06 256.59,-45.16"/>
</g>
<!-- Node8 -->
<g id="node8" class="node">
<title>Node8</title>
<g id="a_node8"><a xlink:href="../../db/d7d/global_8cpp.html" target="_top" xlink:title=" ">
<polygon fill="white" stroke="#666666" points="420,-19 359,-19 359,0 420,0 420,-19"/>
<text text-anchor="middle" x="389.5" y="-7" font-family="Helvetica,sans-Serif" font-size="10.00">global.cpp</text>
</a>
</g>
</g>
<!-- Node4&#45;&gt;Node8 -->
<g id="edge7" class="edge">
<title>Node4&#45;&gt;Node8</title>
<path fill="none" stroke="#63b8ff" d="M276.42,-51.55C303.53,-41.71 341.33,-27.98 365.62,-19.17"/>
<polygon fill="#63b8ff" stroke="#63b8ff" points="275.16,-48.28 266.96,-54.98 277.55,-54.86 275.16,-48.28"/>
</g>
</g>
</svg>
