<?xml version="1.0" encoding="UTF-8" standalone="no"?>
<!DOCTYPE svg PUBLIC "-//W3C//DTD SVG 1.1//EN"
 "http://www.w3.org/Graphics/SVG/1.1/DTD/svg11.dtd">
<!-- Generated by graphviz version 6.0.1 (0)
 -->
<!-- Title: Periodic1 Pages: 1 -->
<svg width="118pt" height="97pt"
 viewBox="0.00 0.00 117.50 97.00" xmlns="http://www.w3.org/2000/svg" xmlns:xlink="http://www.w3.org/1999/xlink">
<g id="graph0" class="graph" transform="scale(1 1) rotate(0) translate(4 93)">
<title>Periodic1</title>
<!-- Node1 -->
<g id="node1" class="node">
<title>Node1</title>
<g id="a_node1"><a xlink:title="Implements a periodic function.">
<polygon fill="#999999" stroke="#666666" points="57,-19 0,-19 0,0 57,0 57,-19"/>
<text text-anchor="middle" x="28.5" y="-7" font-family="Helvetica,sans-Serif" font-size="10.00">Periodic1</text>
</a>
</g>
</g>
<!-- Node2 -->
<g id="node2" class="node">
<title>Node2</title>
<g id="a_node2"><a xlink:href="../../d2/d3f/classCantera_1_1Func1.html" target="_top" xlink:title="Base class for &#39;functor&#39; classes that evaluate a function of one variable.">
<polygon fill="white" stroke="#666666" points="50.5,-82 6.5,-82 6.5,-63 50.5,-63 50.5,-82"/>
<text text-anchor="middle" x="28.5" y="-70" font-family="Helvetica,sans-Serif" font-size="10.00">Func1</text>
</a>
</g>
</g>
<!-- Node2&#45;&gt;Node1 -->
<g id="edge1" class="edge">
<title>Node2&#45;&gt;Node1</title>
<path fill="none" stroke="#63b8ff" d="M28.5,-52.7C28.5,-41.54 28.5,-27.91 28.5,-19.22"/>
<polygon fill="#63b8ff" stroke="#63b8ff" points="25,-52.76 28.5,-62.76 32,-52.76 25,-52.76"/>
</g>
<!-- Node2&#45;&gt;Node2 -->
<g id="edge2" class="edge">
<title>Node2&#45;&gt;Node2</title>
<path fill="none" stroke="#9a32cd" stroke-dasharray="5,2" d="M60.9,-78.37C65.45,-77.42 68.5,-75.46 68.5,-72.5 68.5,-67.65 60.3,-65.49 50.71,-66.02"/>
<polygon fill="#9a32cd" stroke="#9a32cd" points="60.49,-74.89 50.71,-78.98 60.9,-81.88 60.49,-74.89"/>
<text text-anchor="middle" x="89" y="-81" font-family="Helvetica,sans-Serif" font-size="10.00"> m_f1</text>
<text text-anchor="middle" x="89" y="-70" font-family="Helvetica,sans-Serif" font-size="10.00">m_f2</text>
<text text-anchor="middle" x="89" y="-59" font-family="Helvetica,sans-Serif" font-size="10.00">m_parent</text>
</g>
</g>
</svg>
