<?xml version="1.0" encoding="UTF-8" standalone="no"?>
<!DOCTYPE svg PUBLIC "-//W3C//DTD SVG 1.1//EN"
 "http://www.w3.org/Graphics/SVG/1.1/DTD/svg11.dtd">
<!-- Generated by graphviz version 2.43.0 (0)
 -->
<!-- Title: HighPressureGasTransport.cpp Pages: 1 -->
<!--zoomable 442 -->
<svg id="main" version="1.1" xmlns="http://www.w3.org/2000/svg" xmlns:xlink="http://www.w3.org/1999/xlink" xml:space="preserve" onload="init(evt)">
<style type="text/css"><![CDATA[
.edge:hover path { stroke: red; }
.edge:hover polygon { stroke: red; fill: red; }
]]></style>
<script type="text/javascript"><![CDATA[
var edges = document.getElementsByTagName('g');
if (edges && edges.length) {
  for (var i=0;i<edges.length;i++) {
    if (edges[i].id.substr(0,4)=='edge') {
      edges[i].setAttribute('class','edge');
    }
  }
}
]]></script>
        <defs>
                <circle id="rim" cx="0" cy="0" r="7"/>
                <circle id="rim2" cx="0" cy="0" r="3.5"/>
                <g id="zoomPlus">
                        <use xlink:href="#rim" fill="#404040">
                                <set attributeName="fill" to="#808080" begin="zoomplus.mouseover" end="zoomplus.mouseout"/>
                        </use>
                        <path d="M-4,0h8M0,-4v8" fill="none" stroke="white" stroke-width="1.5" pointer-events="none"/>
                </g>
                <g id="zoomMin">
                        <use xlink:href="#rim" fill="#404040">
                                <set attributeName="fill" to="#808080" begin="zoomminus.mouseover" end="zoomminus.mouseout"/>
                        </use>
                        <path d="M-4,0h8" fill="none" stroke="white" stroke-width="1.5" pointer-events="none"/>
                </g>
                <g id="dirArrow">
                        <path fill="none" stroke="white" stroke-width="1.5" d="M0,-3.0v7 M-2.5,-0.5L0,-3.0L2.5,-0.5"/>
                </g>
               <g id="resetDef">
                       <use xlink:href="#rim2" fill="#404040">
                               <set attributeName="fill" to="#808080" begin="reset.mouseover" end="reset.mouseout"/>
                       </use>
               </g>
        </defs>

<script type="text/javascript">
var viewWidth = 1485;
var viewHeight = 442;
var sectionId = 'dynsection-0';
</script>
<script xlink:href="../../svgpan.js"/>
<svg id="graph" class="graph">
<g id="viewport">
<title>HighPressureGasTransport.cpp</title>
<polygon fill="white" stroke="transparent" points="-4,4 -4,-438 1481,-438 1481,4 -4,4"/>
<!-- Node1 -->
<g id="node1" class="node">
<title>Node1</title>
<g id="a_node1"><a xlink:title="Implementation file for class HighPressureGasTransport.">
<polygon fill="#bfbfbf" stroke="black" points="886.5,-414.5 886.5,-433.5 1051.5,-433.5 1051.5,-414.5 886.5,-414.5"/>
<text text-anchor="middle" x="969" y="-421.5" font-family="Helvetica,sans-Serif" font-size="10.00">HighPressureGasTransport.cpp</text>
</a>
</g>
</g>
<!-- Node2 -->
<g id="node2" class="node">
<title>Node2</title>
<g id="a_node2"><a xlink:href="../../d0/de4/HighPressureGasTransport_8h.html" target="_top" xlink:title="Interface for class HighPressureGasTransport.">
<polygon fill="white" stroke="black" points="334,-291.5 334,-321.5 502,-321.5 502,-291.5 334,-291.5"/>
<text text-anchor="start" x="342" y="-309.5" font-family="Helvetica,sans-Serif" font-size="10.00">cantera/transport/HighPressure</text>
<text text-anchor="middle" x="418" y="-298.5" font-family="Helvetica,sans-Serif" font-size="10.00">GasTransport.h</text>
</a>
</g>
</g>
<!-- Node1&#45;&gt;Node2 -->
<g id="edge1" class="edge">
<title>Node1&#45;&gt;Node2</title>
<path fill="none" stroke="midnightblue" d="M886.23,-417.12C815.17,-410.92 710.39,-399.06 621,-378 564.35,-364.65 501.37,-341.39 460.8,-325.26"/>
<polygon fill="midnightblue" stroke="midnightblue" points="462.07,-322 451.49,-321.52 459.47,-328.5 462.07,-322"/>
</g>
<!-- Node26 -->
<g id="node10" class="node">
<title>Node26</title>
<g id="a_node10"><a xlink:href="../../da/dd1/MultiTransport_8h.html" target="_top" xlink:title="Interface for class MultiTransport.">
<polygon fill="white" stroke="black" points="386,-235.5 386,-254.5 568,-254.5 568,-235.5 386,-235.5"/>
<text text-anchor="middle" x="477" y="-242.5" font-family="Helvetica,sans-Serif" font-size="10.00">cantera/transport/MultiTransport.h</text>
</a>
</g>
</g>
<!-- Node1&#45;&gt;Node26 -->
<g id="edge51" class="edge">
<title>Node1&#45;&gt;Node26</title>
<path fill="none" stroke="midnightblue" d="M886.23,-414.87C836.7,-408.36 773.07,-397.05 719,-378 631.9,-347.31 538.61,-287.89 497.95,-260.49"/>
<polygon fill="midnightblue" stroke="midnightblue" points="499.67,-257.42 489.43,-254.69 495.73,-263.21 499.67,-257.42"/>
</g>
<!-- Node27 -->
<g id="node11" class="node">
<title>Node27</title>
<g id="a_node11"><a xlink:href="../../df/d55/ctlapack_8h.html" target="_top" xlink:title=" ">
<polygon fill="white" stroke="black" points="1110.5,-235.5 1110.5,-254.5 1265.5,-254.5 1265.5,-235.5 1110.5,-235.5"/>
<text text-anchor="middle" x="1188" y="-242.5" font-family="Helvetica,sans-Serif" font-size="10.00">cantera/numerics/ctlapack.h</text>
</a>
</g>
</g>
<!-- Node1&#45;&gt;Node27 -->
<g id="edge17" class="edge">
<title>Node1&#45;&gt;Node27</title>
<path fill="none" stroke="midnightblue" d="M994.37,-414.37C1014.84,-406.69 1043.79,-394.18 1066,-378 1112.68,-343.99 1155.63,-290.17 1175.85,-262.95"/>
<polygon fill="midnightblue" stroke="midnightblue" points="1178.72,-264.95 1181.8,-254.81 1173.07,-260.81 1178.72,-264.95"/>
</g>
<!-- Node28 -->
<g id="node12" class="node">
<title>Node28</title>
<g id="a_node12"><a xlink:href="../../de/df0/utilities_8h.html" target="_top" xlink:title="Various templated functions that carry out common vector and polynomial operations (see Templated Arr...">
<polygon fill="white" stroke="black" points="1189,-358.5 1189,-377.5 1317,-377.5 1317,-358.5 1189,-358.5"/>
<text text-anchor="middle" x="1253" y="-365.5" font-family="Helvetica,sans-Serif" font-size="10.00">cantera/base/utilities.h</text>
</a>
</g>
</g>
<!-- Node1&#45;&gt;Node28 -->
<g id="edge19" class="edge">
<title>Node1&#45;&gt;Node28</title>
<path fill="none" stroke="midnightblue" d="M1014,-414.44C1063.96,-404.94 1144.6,-389.61 1198.2,-379.42"/>
<polygon fill="midnightblue" stroke="midnightblue" points="1199.04,-382.82 1208.21,-377.52 1197.73,-375.95 1199.04,-382.82"/>
</g>
<!-- Node30 -->
<g id="node14" class="node">
<title>Node30</title>
<g id="a_node14"><a xlink:href="../../de/dbd/IdealGasPhase_8h.html" target="_top" xlink:title="ThermoPhase object for the ideal gas equation of state &#45; workhorse for Cantera (see Thermodynamic Pro...">
<polygon fill="white" stroke="black" points="881,-358.5 881,-377.5 1057,-377.5 1057,-358.5 881,-358.5"/>
<text text-anchor="middle" x="969" y="-365.5" font-family="Helvetica,sans-Serif" font-size="10.00">cantera/thermo/IdealGasPhase.h</text>
</a>
</g>
</g>
<!-- Node1&#45;&gt;Node30 -->
<g id="edge22" class="edge">
<title>Node1&#45;&gt;Node30</title>
<path fill="none" stroke="midnightblue" d="M969,-414.08C969,-407.01 969,-396.86 969,-387.99"/>
<polygon fill="midnightblue" stroke="midnightblue" points="972.5,-387.75 969,-377.75 965.5,-387.75 972.5,-387.75"/>
</g>
<!-- Node44 -->
<g id="node24" class="node">
<title>Node44</title>
<g id="a_node24"><a xlink:href="../../d3/da4/TransportFactory_8h.html" target="_top" xlink:title="Header file defining class TransportFactory (see TransportFactory)">
<polygon fill="white" stroke="black" points="420.5,-168.5 420.5,-198.5 569.5,-198.5 569.5,-168.5 420.5,-168.5"/>
<text text-anchor="start" x="428.5" y="-186.5" font-family="Helvetica,sans-Serif" font-size="10.00">cantera/transport/Transport</text>
<text text-anchor="middle" x="495" y="-175.5" font-family="Helvetica,sans-Serif" font-size="10.00">Factory.h</text>
</a>
</g>
</g>
<!-- Node1&#45;&gt;Node44 -->
<g id="edge42" class="edge">
<title>Node1&#45;&gt;Node44</title>
<path fill="none" stroke="midnightblue" d="M949.94,-414.43C930.3,-405.53 898.86,-391.12 872,-378 745.41,-316.18 597.26,-238.57 530.63,-203.39"/>
<polygon fill="midnightblue" stroke="midnightblue" points="532.26,-200.29 521.79,-198.71 528.99,-206.48 532.26,-200.29"/>
</g>
<!-- Node47 -->
<g id="node27" class="node">
<title>Node47</title>
<g id="a_node27"><a xlink:href="../../dd/dc3/stringUtils_8h.html" target="_top" xlink:title="Contains declarations for string manipulation functions within Cantera.">
<polygon fill="white" stroke="black" points="1335,-358.5 1335,-377.5 1477,-377.5 1477,-358.5 1335,-358.5"/>
<text text-anchor="middle" x="1406" y="-365.5" font-family="Helvetica,sans-Serif" font-size="10.00">cantera/base/stringUtils.h</text>
</a>
</g>
</g>
<!-- Node1&#45;&gt;Node47 -->
<g id="edge49" class="edge">
<title>Node1&#45;&gt;Node47</title>
<path fill="none" stroke="midnightblue" d="M1038.24,-414.44C1116.79,-404.74 1244.64,-388.94 1327.02,-378.76"/>
<polygon fill="midnightblue" stroke="midnightblue" points="1327.58,-382.22 1337.08,-377.52 1326.73,-375.27 1327.58,-382.22"/>
</g>
<!-- Node3 -->
<g id="node3" class="node">
<title>Node3</title>
<g id="a_node3"><a xlink:href="../../d1/d2e/GasTransport_8h.html" target="_top" xlink:title=" ">
<polygon fill="white" stroke="black" points="313.5,-174 313.5,-193 402.5,-193 402.5,-174 313.5,-174"/>
<text text-anchor="middle" x="358" y="-181" font-family="Helvetica,sans-Serif" font-size="10.00">GasTransport.h</text>
</a>
</g>
</g>
<!-- Node2&#45;&gt;Node3 -->
<g id="edge2" class="edge">
<title>Node2&#45;&gt;Node3</title>
<path fill="none" stroke="midnightblue" d="M403.63,-291.2C394.8,-281.68 383.89,-268.47 377,-255 368.54,-238.45 363.54,-217.73 360.81,-203.05"/>
<polygon fill="midnightblue" stroke="midnightblue" points="364.26,-202.44 359.14,-193.16 357.35,-203.61 364.26,-202.44"/>
</g>
<!-- Node23 -->
<g id="node8" class="node">
<title>Node23</title>
<g id="a_node8"><a xlink:href="../../d1/df7/DenseMatrix_8h.html" target="_top" xlink:title="Headers for the DenseMatrix object, which deals with dense rectangular matrices and description of th...">
<polygon fill="white" stroke="black" points="130,-112.5 130,-131.5 306,-131.5 306,-112.5 130,-112.5"/>
<text text-anchor="middle" x="218" y="-119.5" font-family="Helvetica,sans-Serif" font-size="10.00">cantera/numerics/DenseMatrix.h</text>
</a>
</g>
</g>
<!-- Node2&#45;&gt;Node23 -->
<g id="edge14" class="edge">
<title>Node2&#45;&gt;Node23</title>
<path fill="none" stroke="midnightblue" d="M402.64,-291.48C366.07,-258.12 274.04,-174.14 235.46,-138.93"/>
<polygon fill="midnightblue" stroke="midnightblue" points="237.41,-135.97 227.66,-131.82 232.69,-141.14 237.41,-135.97"/>
</g>
<!-- Node2&#45;&gt;Node26 -->
<g id="edge15" class="edge">
<title>Node2&#45;&gt;Node26</title>
<path fill="none" stroke="midnightblue" d="M431.98,-291.4C440.73,-282.58 452.03,-271.18 461.12,-262.02"/>
<polygon fill="midnightblue" stroke="midnightblue" points="463.86,-264.22 468.41,-254.66 458.89,-259.29 463.86,-264.22"/>
</g>
<!-- Node4 -->
<g id="node4" class="node">
<title>Node4</title>
<g id="a_node4"><a xlink:href="../../d8/d5e/Transport_8h.html" target="_top" xlink:title="Headers for the Transport object, which is the virtual base class for all transport property evaluato...">
<polygon fill="white" stroke="black" points="324.5,-112.5 324.5,-131.5 395.5,-131.5 395.5,-112.5 324.5,-112.5"/>
<text text-anchor="middle" x="360" y="-119.5" font-family="Helvetica,sans-Serif" font-size="10.00">Transport.h</text>
</a>
</g>
</g>
<!-- Node3&#45;&gt;Node4 -->
<g id="edge3" class="edge">
<title>Node3&#45;&gt;Node4</title>
<path fill="none" stroke="midnightblue" d="M358.29,-173.98C358.57,-165.58 359.01,-152.48 359.37,-141.66"/>
<polygon fill="midnightblue" stroke="midnightblue" points="362.88,-141.62 359.71,-131.51 355.88,-141.39 362.88,-141.62"/>
</g>
<!-- Node3&#45;&gt;Node23 -->
<g id="edge9" class="edge">
<title>Node3&#45;&gt;Node23</title>
<path fill="none" stroke="midnightblue" d="M337.94,-173.98C314.24,-163.9 274.59,-147.05 247.42,-135.5"/>
<polygon fill="midnightblue" stroke="midnightblue" points="248.59,-132.2 238.02,-131.51 245.86,-138.64 248.59,-132.2"/>
</g>
<!-- Node5 -->
<g id="node5" class="node">
<title>Node5</title>
<g id="a_node5"><a xlink:href="../../d9/ddc/ct__defs_8h.html" target="_top" xlink:title="This file contains definitions of constants, types and terms that are used in internal routines and a...">
<polygon fill="white" stroke="red" points="766.5,-0.5 766.5,-19.5 893.5,-19.5 893.5,-0.5 766.5,-0.5"/>
<text text-anchor="middle" x="830" y="-7.5" font-family="Helvetica,sans-Serif" font-size="10.00">cantera/base/ct_defs.h</text>
</a>
</g>
</g>
<!-- Node4&#45;&gt;Node5 -->
<g id="edge4" class="edge">
<title>Node4&#45;&gt;Node5</title>
<path fill="none" stroke="midnightblue" d="M324.21,-113.26C279.68,-103.26 208.55,-85.98 201,-76 195.64,-68.91 194.94,-62.51 201,-56 238.14,-16.11 598.07,-11.05 756.16,-10.77"/>
<polygon fill="midnightblue" stroke="midnightblue" points="756.28,-14.27 766.28,-10.76 756.27,-7.27 756.28,-14.27"/>
</g>
<!-- Node16 -->
<g id="node6" class="node">
<title>Node16</title>
<g id="a_node6"><a xlink:href="../../db/d98/ctexceptions_8h.html" target="_top" xlink:title="Definitions for the classes that are thrown when Cantera experiences an error condition (also contain...">
<polygon fill="white" stroke="red" points="416,-56.5 416,-75.5 570,-75.5 570,-56.5 416,-56.5"/>
<text text-anchor="middle" x="493" y="-63.5" font-family="Helvetica,sans-Serif" font-size="10.00">cantera/base/ctexceptions.h</text>
</a>
</g>
</g>
<!-- Node4&#45;&gt;Node16 -->
<g id="edge5" class="edge">
<title>Node4&#45;&gt;Node16</title>
<path fill="none" stroke="midnightblue" d="M381.07,-112.44C403.06,-103.52 437.73,-89.44 462.66,-79.32"/>
<polygon fill="midnightblue" stroke="midnightblue" points="464.08,-82.52 472.02,-75.52 461.44,-76.04 464.08,-82.52"/>
</g>
<!-- Node22 -->
<g id="node7" class="node">
<title>Node22</title>
<g id="a_node7"><a xlink:href="../../d2/d49/global_8h.html" target="_top" xlink:title="This file contains definitions for utility functions and text for modules, inputfiles and logging,...">
<polygon fill="white" stroke="red" points="210,-56.5 210,-75.5 332,-75.5 332,-56.5 210,-56.5"/>
<text text-anchor="middle" x="271" y="-63.5" font-family="Helvetica,sans-Serif" font-size="10.00">cantera/base/global.h</text>
</a>
</g>
</g>
<!-- Node4&#45;&gt;Node22 -->
<g id="edge7" class="edge">
<title>Node4&#45;&gt;Node22</title>
<path fill="none" stroke="midnightblue" d="M345.7,-112.32C331.82,-103.9 310.51,-90.97 294.2,-81.07"/>
<polygon fill="midnightblue" stroke="midnightblue" points="295.63,-77.85 285.26,-75.65 292,-83.83 295.63,-77.85"/>
</g>
<!-- Node16&#45;&gt;Node5 -->
<g id="edge6" class="edge">
<title>Node16&#45;&gt;Node5</title>
<path fill="none" stroke="midnightblue" d="M546.4,-56.44C606.3,-46.85 703.37,-31.29 766.95,-21.1"/>
<polygon fill="midnightblue" stroke="midnightblue" points="767.53,-24.55 776.85,-19.52 766.42,-17.64 767.53,-24.55"/>
</g>
<!-- Node22&#45;&gt;Node5 -->
<g id="edge8" class="edge">
<title>Node22&#45;&gt;Node5</title>
<path fill="none" stroke="midnightblue" d="M332.07,-57.02C335.09,-56.66 338.08,-56.32 341,-56 487.97,-39.8 660.23,-24.89 756.07,-16.97"/>
<polygon fill="midnightblue" stroke="midnightblue" points="756.56,-20.44 766.24,-16.13 755.98,-13.46 756.56,-20.44"/>
</g>
<!-- Node23&#45;&gt;Node5 -->
<g id="edge10" class="edge">
<title>Node23&#45;&gt;Node5</title>
<path fill="none" stroke="midnightblue" d="M209.58,-112.33C197.38,-98.73 177.83,-72.28 193,-56 230.7,-15.55 596.47,-10.82 756.11,-10.7"/>
<polygon fill="midnightblue" stroke="midnightblue" points="756.32,-14.2 766.32,-10.7 756.32,-7.2 756.32,-14.2"/>
</g>
<!-- Node23&#45;&gt;Node16 -->
<g id="edge11" class="edge">
<title>Node23&#45;&gt;Node16</title>
<path fill="none" stroke="midnightblue" d="M261.57,-112.44C309.85,-102.96 387.71,-87.67 439.61,-77.48"/>
<polygon fill="midnightblue" stroke="midnightblue" points="440.49,-80.88 449.63,-75.52 439.14,-74.01 440.49,-80.88"/>
</g>
<!-- Node24 -->
<g id="node9" class="node">
<title>Node24</title>
<g id="a_node9"><a xlink:href="../../df/dd0/Array_8h.html" target="_top" xlink:title="Header file for class Cantera::Array2D.">
<polygon fill="white" stroke="red" points="0,-56.5 0,-75.5 116,-75.5 116,-56.5 0,-56.5"/>
<text text-anchor="middle" x="58" y="-63.5" font-family="Helvetica,sans-Serif" font-size="10.00">cantera/base/Array.h</text>
</a>
</g>
</g>
<!-- Node23&#45;&gt;Node24 -->
<g id="edge12" class="edge">
<title>Node23&#45;&gt;Node24</title>
<path fill="none" stroke="midnightblue" d="M192.65,-112.44C165.73,-103.36 123,-88.94 92.91,-78.78"/>
<polygon fill="midnightblue" stroke="midnightblue" points="93.83,-75.4 83.23,-75.52 91.59,-82.03 93.83,-75.4"/>
</g>
<!-- Node24&#45;&gt;Node5 -->
<g id="edge13" class="edge">
<title>Node24&#45;&gt;Node5</title>
<path fill="none" stroke="midnightblue" d="M116.13,-57.43C120.82,-56.91 125.49,-56.43 130,-56 357.82,-34.46 628.35,-20.3 756.13,-14.29"/>
<polygon fill="midnightblue" stroke="midnightblue" points="756.37,-17.78 766.2,-13.81 756.05,-10.79 756.37,-17.78"/>
</g>
<!-- Node26&#45;&gt;Node3 -->
<g id="edge16" class="edge">
<title>Node26&#45;&gt;Node3</title>
<path fill="none" stroke="midnightblue" d="M459.95,-235.48C440.16,-225.58 407.28,-209.14 384.23,-197.62"/>
<polygon fill="midnightblue" stroke="midnightblue" points="385.53,-194.35 375.02,-193.01 382.4,-200.61 385.53,-194.35"/>
</g>
<!-- Node27&#45;&gt;Node5 -->
<g id="edge18" class="edge">
<title>Node27&#45;&gt;Node5</title>
<path fill="none" stroke="midnightblue" d="M1195.09,-235.24C1217.93,-205.91 1285.38,-110.02 1237,-56 1215.21,-31.67 1014.99,-19.08 903.73,-13.92"/>
<polygon fill="midnightblue" stroke="midnightblue" points="903.72,-10.41 893.57,-13.45 903.4,-17.4 903.72,-10.41"/>
</g>
<!-- Node28&#45;&gt;Node5 -->
<g id="edge20" class="edge">
<title>Node28&#45;&gt;Node5</title>
<path fill="none" stroke="midnightblue" d="M1258.19,-358.24C1269.23,-338.77 1294,-290.14 1294,-246 1294,-246 1294,-246 1294,-121 1294,-87.54 1284.11,-74.16 1256,-56 1199.49,-19.5 1010.1,-12.11 903.86,-10.92"/>
<polygon fill="midnightblue" stroke="midnightblue" points="903.88,-7.42 893.85,-10.83 903.81,-14.42 903.88,-7.42"/>
</g>
<!-- Node29 -->
<g id="node13" class="node">
<title>Node29</title>
<g id="a_node13"><a xlink:title=" ">
<polygon fill="white" stroke="#bfbfbf" points="1322,-297 1322,-316 1378,-316 1378,-297 1322,-297"/>
<text text-anchor="middle" x="1350" y="-304" font-family="Helvetica,sans-Serif" font-size="10.00">numeric</text>
</a>
</g>
</g>
<!-- Node28&#45;&gt;Node29 -->
<g id="edge21" class="edge">
<title>Node28&#45;&gt;Node29</title>
<path fill="none" stroke="midnightblue" d="M1266.9,-358.48C1282.67,-348.8 1308.64,-332.87 1327.35,-321.39"/>
<polygon fill="midnightblue" stroke="midnightblue" points="1329.43,-324.22 1336.13,-316.01 1325.77,-318.25 1329.43,-324.22"/>
</g>
<!-- Node31 -->
<g id="node15" class="node">
<title>Node31</title>
<g id="a_node15"><a xlink:href="../../d7/d01/ThermoPhase_8h.html" target="_top" xlink:title="Header file for class ThermoPhase, the base class for phases with thermodynamic properties,...">
<polygon fill="white" stroke="black" points="923,-297 923,-316 1015,-316 1015,-297 923,-297"/>
<text text-anchor="middle" x="969" y="-304" font-family="Helvetica,sans-Serif" font-size="10.00">ThermoPhase.h</text>
</a>
</g>
</g>
<!-- Node30&#45;&gt;Node31 -->
<g id="edge23" class="edge">
<title>Node30&#45;&gt;Node31</title>
<path fill="none" stroke="midnightblue" d="M969,-358.48C969,-350.08 969,-336.98 969,-326.16"/>
<polygon fill="midnightblue" stroke="midnightblue" points="972.5,-326.01 969,-316.01 965.5,-326.01 972.5,-326.01"/>
</g>
<!-- Node32 -->
<g id="node16" class="node">
<title>Node32</title>
<g id="a_node16"><a xlink:href="../../da/d84/Phase_8h.html" target="_top" xlink:title="Header file for class Phase.">
<polygon fill="white" stroke="black" points="758.5,-112.5 758.5,-131.5 813.5,-131.5 813.5,-112.5 758.5,-112.5"/>
<text text-anchor="middle" x="786" y="-119.5" font-family="Helvetica,sans-Serif" font-size="10.00">Phase.h</text>
</a>
</g>
</g>
<!-- Node31&#45;&gt;Node32 -->
<g id="edge24" class="edge">
<title>Node31&#45;&gt;Node32</title>
<path fill="none" stroke="midnightblue" d="M946.2,-296.95C925.88,-288.52 896.16,-274.14 875,-255 837.56,-221.13 808.24,-168.39 794.51,-140.95"/>
<polygon fill="midnightblue" stroke="midnightblue" points="797.56,-139.22 790.03,-131.77 791.27,-142.29 797.56,-139.22"/>
</g>
<!-- Node36 -->
<g id="node19" class="node">
<title>Node36</title>
<g id="a_node19"><a xlink:href="../../d6/d7a/MultiSpeciesThermo_8h.html" target="_top" xlink:title="Header for a general species thermodynamic property manager for a phase (see MultiSpeciesThermo).">
<polygon fill="white" stroke="black" points="883.5,-235.5 883.5,-254.5 1008.5,-254.5 1008.5,-235.5 883.5,-235.5"/>
<text text-anchor="middle" x="946" y="-242.5" font-family="Helvetica,sans-Serif" font-size="10.00">MultiSpeciesThermo.h</text>
</a>
</g>
</g>
<!-- Node31&#45;&gt;Node36 -->
<g id="edge30" class="edge">
<title>Node31&#45;&gt;Node36</title>
<path fill="none" stroke="midnightblue" d="M965.7,-296.98C962.39,-288.4 957.18,-274.93 952.95,-263.98"/>
<polygon fill="midnightblue" stroke="midnightblue" points="956.16,-262.57 949.29,-254.51 949.63,-265.1 956.16,-262.57"/>
</g>
<!-- Node38 -->
<g id="node21" class="node">
<title>Node38</title>
<g id="a_node21"><a xlink:href="../../dd/d2a/AnyMap_8h.html" target="_top" xlink:title=" ">
<polygon fill="white" stroke="red" points="989.5,-112.5 989.5,-131.5 1120.5,-131.5 1120.5,-112.5 989.5,-112.5"/>
<text text-anchor="middle" x="1055" y="-119.5" font-family="Helvetica,sans-Serif" font-size="10.00">cantera/base/AnyMap.h</text>
</a>
</g>
</g>
<!-- Node31&#45;&gt;Node38 -->
<g id="edge41" class="edge">
<title>Node31&#45;&gt;Node38</title>
<path fill="none" stroke="midnightblue" d="M980.39,-296.67C991.55,-287.44 1008.26,-271.94 1018,-255 1039.18,-218.16 1048.82,-168.48 1052.71,-141.81"/>
<polygon fill="midnightblue" stroke="midnightblue" points="1056.22,-141.97 1054.08,-131.59 1049.28,-141.04 1056.22,-141.97"/>
</g>
<!-- Node39 -->
<g id="node22" class="node">
<title>Node39</title>
<g id="a_node22"><a xlink:href="../../da/d58/Units_8h.html" target="_top" xlink:title="Header for unit conversion utilities, which are used to translate user input from input files (See In...">
<polygon fill="white" stroke="black" points="1110.5,-56.5 1110.5,-75.5 1227.5,-75.5 1227.5,-56.5 1110.5,-56.5"/>
<text text-anchor="middle" x="1169" y="-63.5" font-family="Helvetica,sans-Serif" font-size="10.00">cantera/base/Units.h</text>
</a>
</g>
</g>
<!-- Node31&#45;&gt;Node39 -->
<g id="edge40" class="edge">
<title>Node31&#45;&gt;Node39</title>
<path fill="none" stroke="midnightblue" d="M978.48,-296.72C1004.59,-272.26 1078.99,-200.58 1130,-132 1141.27,-116.85 1152.15,-98.27 1159.54,-84.86"/>
<polygon fill="midnightblue" stroke="midnightblue" points="1162.79,-86.22 1164.47,-75.76 1156.63,-82.89 1162.79,-86.22"/>
</g>
<!-- Node32&#45;&gt;Node16 -->
<g id="edge25" class="edge">
<title>Node32&#45;&gt;Node16</title>
<path fill="none" stroke="midnightblue" d="M758.44,-115.92C710.8,-107.14 612.17,-88.96 549.47,-77.41"/>
<polygon fill="midnightblue" stroke="midnightblue" points="549.82,-73.91 539.35,-75.54 548.55,-80.8 549.82,-73.91"/>
</g>
<!-- Node33 -->
<g id="node17" class="node">
<title>Node33</title>
<g id="a_node17"><a xlink:href="../../d9/dda/Elements_8h.html" target="_top" xlink:title="Contains the getElementWeight function and the definitions of element constraint types.">
<polygon fill="white" stroke="black" points="755.5,-56.5 755.5,-75.5 904.5,-75.5 904.5,-56.5 755.5,-56.5"/>
<text text-anchor="middle" x="830" y="-63.5" font-family="Helvetica,sans-Serif" font-size="10.00">cantera/thermo/Elements.h</text>
</a>
</g>
</g>
<!-- Node32&#45;&gt;Node33 -->
<g id="edge26" class="edge">
<title>Node32&#45;&gt;Node33</title>
<path fill="none" stroke="midnightblue" d="M793.27,-112.08C799.54,-104.38 808.79,-93.03 816.43,-83.65"/>
<polygon fill="midnightblue" stroke="midnightblue" points="819.27,-85.71 822.87,-75.75 813.84,-81.29 819.27,-85.71"/>
</g>
<!-- Node34 -->
<g id="node18" class="node">
<title>Node34</title>
<g id="a_node18"><a xlink:href="../../d6/df6/ValueCache_8h.html" target="_top" xlink:title=" ">
<polygon fill="white" stroke="red" points="588.5,-56.5 588.5,-75.5 737.5,-75.5 737.5,-56.5 588.5,-56.5"/>
<text text-anchor="middle" x="663" y="-63.5" font-family="Helvetica,sans-Serif" font-size="10.00">cantera/base/ValueCache.h</text>
</a>
</g>
</g>
<!-- Node32&#45;&gt;Node34 -->
<g id="edge28" class="edge">
<title>Node32&#45;&gt;Node34</title>
<path fill="none" stroke="midnightblue" d="M766.51,-112.44C746.36,-103.6 714.68,-89.69 691.67,-79.59"/>
<polygon fill="midnightblue" stroke="midnightblue" points="692.96,-76.33 682.4,-75.52 690.15,-82.74 692.96,-76.33"/>
</g>
<!-- Node33&#45;&gt;Node5 -->
<g id="edge27" class="edge">
<title>Node33&#45;&gt;Node5</title>
<path fill="none" stroke="midnightblue" d="M830,-56.08C830,-49.01 830,-38.86 830,-29.99"/>
<polygon fill="midnightblue" stroke="midnightblue" points="833.5,-29.75 830,-19.75 826.5,-29.75 833.5,-29.75"/>
</g>
<!-- Node34&#45;&gt;Node5 -->
<g id="edge29" class="edge">
<title>Node34&#45;&gt;Node5</title>
<path fill="none" stroke="midnightblue" d="M689.46,-56.44C717.68,-47.32 762.54,-32.81 793.97,-22.65"/>
<polygon fill="midnightblue" stroke="midnightblue" points="795.22,-25.92 803.66,-19.52 793.07,-19.26 795.22,-25.92"/>
</g>
<!-- Node37 -->
<g id="node20" class="node">
<title>Node37</title>
<g id="a_node20"><a xlink:href="../../d4/d87/SpeciesThermoInterpType_8h.html" target="_top" xlink:title="Pure Virtual Base class for individual species reference state thermodynamic managers and text for th...">
<polygon fill="white" stroke="black" points="864,-174 864,-193 1016,-193 1016,-174 864,-174"/>
<text text-anchor="middle" x="940" y="-181" font-family="Helvetica,sans-Serif" font-size="10.00">SpeciesThermoInterpType.h</text>
</a>
</g>
</g>
<!-- Node36&#45;&gt;Node37 -->
<g id="edge31" class="edge">
<title>Node36&#45;&gt;Node37</title>
<path fill="none" stroke="midnightblue" d="M945.14,-235.48C944.29,-227.08 942.97,-213.98 941.88,-203.16"/>
<polygon fill="midnightblue" stroke="midnightblue" points="945.34,-202.61 940.86,-193.01 938.38,-203.31 945.34,-202.61"/>
</g>
<!-- Node37&#45;&gt;Node5 -->
<g id="edge32" class="edge">
<title>Node37&#45;&gt;Node5</title>
<path fill="none" stroke="midnightblue" d="M943.89,-173.61C950.31,-159.57 964.1,-131.83 981,-112 1001.53,-87.91 1044.71,-80.77 1025,-56 1009.75,-36.83 952.12,-25.12 903.43,-18.47"/>
<polygon fill="midnightblue" stroke="midnightblue" points="903.88,-15 893.51,-17.17 902.97,-21.94 903.88,-15"/>
</g>
<!-- Node37&#45;&gt;Node16 -->
<g id="edge33" class="edge">
<title>Node37&#45;&gt;Node16</title>
<path fill="none" stroke="midnightblue" d="M906.77,-173.91C826.99,-153.3 624.69,-101.03 535.89,-78.08"/>
<polygon fill="midnightblue" stroke="midnightblue" points="536.71,-74.68 526.15,-75.56 534.95,-81.46 536.71,-74.68"/>
</g>
<!-- Node37&#45;&gt;Node38 -->
<g id="edge34" class="edge">
<title>Node37&#45;&gt;Node38</title>
<path fill="none" stroke="midnightblue" d="M956.48,-173.98C975.61,-164.08 1007.37,-147.64 1029.65,-136.12"/>
<polygon fill="midnightblue" stroke="midnightblue" points="1031.28,-139.21 1038.55,-131.51 1028.06,-133 1031.28,-139.21"/>
</g>
<!-- Node38&#45;&gt;Node5 -->
<g id="edge35" class="edge">
<title>Node38&#45;&gt;Node5</title>
<path fill="none" stroke="midnightblue" d="M1058.71,-112.28C1063.87,-98.61 1071.2,-72.06 1058,-56 1038.66,-32.46 962.79,-21.04 903.83,-15.62"/>
<polygon fill="midnightblue" stroke="midnightblue" points="904.04,-12.13 893.78,-14.74 903.43,-19.1 904.04,-12.13"/>
</g>
<!-- Node38&#45;&gt;Node16 -->
<g id="edge36" class="edge">
<title>Node38&#45;&gt;Node16</title>
<path fill="none" stroke="midnightblue" d="M989.15,-114.98C899.24,-106.72 732.75,-91.26 580.37,-76.13"/>
<polygon fill="midnightblue" stroke="midnightblue" points="580.65,-72.64 570.35,-75.13 579.96,-79.6 580.65,-72.64"/>
</g>
<!-- Node38&#45;&gt;Node39 -->
<g id="edge37" class="edge">
<title>Node38&#45;&gt;Node39</title>
<path fill="none" stroke="midnightblue" d="M1073.06,-112.44C1091.57,-103.68 1120.58,-89.94 1141.86,-79.86"/>
<polygon fill="midnightblue" stroke="midnightblue" points="1143.48,-82.96 1151.02,-75.52 1140.49,-76.63 1143.48,-82.96"/>
</g>
<!-- Node40 -->
<g id="node23" class="node">
<title>Node40</title>
<g id="a_node23"><a xlink:title=" ">
<polygon fill="white" stroke="#bfbfbf" points="922.5,-56.5 922.5,-75.5 1015.5,-75.5 1015.5,-56.5 922.5,-56.5"/>
<text text-anchor="middle" x="969" y="-63.5" font-family="Helvetica,sans-Serif" font-size="10.00">unordered_map</text>
</a>
</g>
</g>
<!-- Node38&#45;&gt;Node40 -->
<g id="edge39" class="edge">
<title>Node38&#45;&gt;Node40</title>
<path fill="none" stroke="midnightblue" d="M1041.18,-112.32C1027.77,-103.9 1007.18,-90.97 991.41,-81.07"/>
<polygon fill="midnightblue" stroke="midnightblue" points="993.11,-78.01 982.78,-75.65 989.39,-83.94 993.11,-78.01"/>
</g>
<!-- Node39&#45;&gt;Node5 -->
<g id="edge38" class="edge">
<title>Node39&#45;&gt;Node5</title>
<path fill="none" stroke="midnightblue" d="M1115.28,-56.44C1055.03,-46.85 957.39,-31.29 893.43,-21.1"/>
<polygon fill="midnightblue" stroke="midnightblue" points="893.89,-17.63 883.46,-19.52 892.79,-24.55 893.89,-17.63"/>
</g>
<!-- Node44&#45;&gt;Node4 -->
<g id="edge43" class="edge">
<title>Node44&#45;&gt;Node4</title>
<path fill="none" stroke="midnightblue" d="M463.01,-168.4C440.56,-158.51 410.79,-145.38 389.02,-135.79"/>
<polygon fill="midnightblue" stroke="midnightblue" points="390.21,-132.49 379.64,-131.66 387.38,-138.89 390.21,-132.49"/>
</g>
<!-- Node45 -->
<g id="node25" class="node">
<title>Node45</title>
<g id="a_node25"><a xlink:href="../../d6/dd5/FactoryBase_8h.html" target="_top" xlink:title="File contains the FactoryBase class declarations.">
<polygon fill="white" stroke="black" points="417.5,-112.5 417.5,-131.5 568.5,-131.5 568.5,-112.5 417.5,-112.5"/>
<text text-anchor="middle" x="493" y="-119.5" font-family="Helvetica,sans-Serif" font-size="10.00">cantera/base/FactoryBase.h</text>
</a>
</g>
</g>
<!-- Node44&#45;&gt;Node45 -->
<g id="edge44" class="edge">
<title>Node44&#45;&gt;Node45</title>
<path fill="none" stroke="midnightblue" d="M494.53,-168.4C494.26,-160.47 493.92,-150.46 493.63,-141.86"/>
<polygon fill="midnightblue" stroke="midnightblue" points="497.13,-141.53 493.29,-131.66 490.13,-141.77 497.13,-141.53"/>
</g>
<!-- Node45&#45;&gt;Node16 -->
<g id="edge47" class="edge">
<title>Node45&#45;&gt;Node16</title>
<path fill="none" stroke="midnightblue" d="M493,-112.08C493,-105.01 493,-94.86 493,-85.99"/>
<polygon fill="midnightblue" stroke="midnightblue" points="496.5,-85.75 493,-75.75 489.5,-85.75 496.5,-85.75"/>
</g>
<!-- Node45&#45;&gt;Node22 -->
<g id="edge48" class="edge">
<title>Node45&#45;&gt;Node22</title>
<path fill="none" stroke="midnightblue" d="M457.82,-112.44C419.42,-103.1 357.82,-88.12 315.94,-77.93"/>
<polygon fill="midnightblue" stroke="midnightblue" points="316.56,-74.48 306.01,-75.52 314.9,-81.28 316.56,-74.48"/>
</g>
<!-- Node45&#45;&gt;Node40 -->
<g id="edge46" class="edge">
<title>Node45&#45;&gt;Node40</title>
<path fill="none" stroke="midnightblue" d="M568.83,-114.18C651.01,-106.49 786.26,-93 912.02,-76.21"/>
<polygon fill="midnightblue" stroke="midnightblue" points="912.77,-79.64 922.22,-74.84 911.84,-72.7 912.77,-79.64"/>
</g>
<!-- Node46 -->
<g id="node26" class="node">
<title>Node46</title>
<g id="a_node26"><a xlink:title=" ">
<polygon fill="white" stroke="#bfbfbf" points="350,-56.5 350,-75.5 398,-75.5 398,-56.5 350,-56.5"/>
<text text-anchor="middle" x="374" y="-63.5" font-family="Helvetica,sans-Serif" font-size="10.00">mutex</text>
</a>
</g>
</g>
<!-- Node45&#45;&gt;Node46 -->
<g id="edge45" class="edge">
<title>Node45&#45;&gt;Node46</title>
<path fill="none" stroke="midnightblue" d="M474.14,-112.44C454.73,-103.64 424.27,-89.81 402.04,-79.72"/>
<polygon fill="midnightblue" stroke="midnightblue" points="403.32,-76.46 392.77,-75.52 400.43,-82.84 403.32,-76.46"/>
</g>
<!-- Node47&#45;&gt;Node5 -->
<g id="edge50" class="edge">
<title>Node47&#45;&gt;Node5</title>
<path fill="none" stroke="midnightblue" d="M1406,-358.49C1406,-338.74 1406,-288.22 1406,-246 1406,-246 1406,-246 1406,-121 1406,-58.78 1341.61,-73.85 1282,-56 1213.21,-35.39 1013.53,-21.33 904.01,-14.93"/>
<polygon fill="midnightblue" stroke="midnightblue" points="903.89,-11.42 893.7,-14.34 903.48,-18.41 903.89,-11.42"/>
</g>
</g>
</svg>
        <g id="navigator" transform="translate(0 0)" fill="#404254">
                <rect fill="#f2f5e9" fill-opacity="0.5" stroke="#606060" stroke-width=".5" x="0" y="0" width="60" height="60"/>
                <use id="zoomplus" xlink:href="#zoomPlus" x="17" y="9" onmousedown="handleZoom(evt,'in')"/>
                <use id="zoomminus" xlink:href="#zoomMin" x="42" y="9" onmousedown="handleZoom(evt,'out')"/>
                <use id="reset" xlink:href="#resetDef" x="30" y="36" onmousedown="handleReset()"/>
                <g id="arrowUp" xlink:href="#dirArrow" transform="translate(30 24)" onmousedown="handlePan(0,-1)">
                  <use xlink:href="#rim" fill="#404040">
                        <set attributeName="fill" to="#808080" begin="arrowUp.mouseover" end="arrowUp.mouseout"/>
                  </use>
                  <path fill="none" stroke="white" stroke-width="1.5" d="M0,-3.0v7 M-2.5,-0.5L0,-3.0L2.5,-0.5"/>
                </g>
                <g id="arrowRight" xlink:href="#dirArrow" transform="rotate(90) translate(36 -43)" onmousedown="handlePan(1,0)">
                  <use xlink:href="#rim" fill="#404040">
                        <set attributeName="fill" to="#808080" begin="arrowRight.mouseover" end="arrowRight.mouseout"/>
                  </use>
                  <path fill="none" stroke="white" stroke-width="1.5" d="M0,-3.0v7 M-2.5,-0.5L0,-3.0L2.5,-0.5"/>
                </g>
                <g id="arrowDown" xlink:href="#dirArrow" transform="rotate(180) translate(-30 -48)" onmousedown="handlePan(0,1)">
                  <use xlink:href="#rim" fill="#404040">
                        <set attributeName="fill" to="#808080" begin="arrowDown.mouseover" end="arrowDown.mouseout"/>
                  </use>
                  <path fill="none" stroke="white" stroke-width="1.5" d="M0,-3.0v7 M-2.5,-0.5L0,-3.0L2.5,-0.5"/>
                </g>
                <g id="arrowLeft" xlink:href="#dirArrow" transform="rotate(270) translate(-36 17)" onmousedown="handlePan(-1,0)">
                  <use xlink:href="#rim" fill="#404040">
                        <set attributeName="fill" to="#808080" begin="arrowLeft.mouseover" end="arrowLeft.mouseout"/>
                  </use>
                  <path fill="none" stroke="white" stroke-width="1.5" d="M0,-3.0v7 M-2.5,-0.5L0,-3.0L2.5,-0.5"/>
                </g>
        </g>
        <svg viewBox="0 0 15 15" width="100%" height="30px" preserveAspectRatio="xMaxYMin meet">
         <g id="arrow_out" transform="scale(0.3 0.3)">
          <a xlink:href="HighPressureGasTransport_8cpp__incl_org.svg" target="_base">
           <rect id="button" ry="5" rx="5" y="6" x="6" height="38" width="38"
                fill="#f2f5e9" fill-opacity="0.5" stroke="#606060" stroke-width="1.0"/>
           <path id="arrow"
             d="M 11.500037,31.436501 C 11.940474,20.09759 22.043105,11.32322 32.158766,21.979434 L 37.068811,17.246167 C 37.068811,17.246167 37.088388,32 37.088388,32 L 22.160133,31.978069 C 22.160133,31.978069 26.997745,27.140456 26.997745,27.140456 C 18.528582,18.264221 13.291696,25.230495 11.500037,31.436501 z"
             style="fill:#404040;"/>
          </a>
         </g>
        </svg>
</svg>
