<?xml version="1.0" encoding="UTF-8" standalone="no"?>
<!DOCTYPE svg PUBLIC "-//W3C//DTD SVG 1.1//EN"
 "http://www.w3.org/Graphics/SVG/1.1/DTD/svg11.dtd">
<!-- Generated by graphviz version 2.43.0 (0)
 -->
<!-- Title: utils.cpp Pages: 1 -->
<!--zoomable 308 -->
<svg id="main" version="1.1" xmlns="http://www.w3.org/2000/svg" xmlns:xlink="http://www.w3.org/1999/xlink" xml:space="preserve" onload="init(evt)">
<style type="text/css"><![CDATA[
.edge:hover path { stroke: red; }
.edge:hover polygon { stroke: red; fill: red; }
]]></style>
<script type="text/javascript"><![CDATA[
var edges = document.getElementsByTagName('g');
if (edges && edges.length) {
  for (var i=0;i<edges.length;i++) {
    if (edges[i].id.substr(0,4)=='edge') {
      edges[i].setAttribute('class','edge');
    }
  }
}
]]></script>
        <defs>
                <circle id="rim" cx="0" cy="0" r="7"/>
                <circle id="rim2" cx="0" cy="0" r="3.5"/>
                <g id="zoomPlus">
                        <use xlink:href="#rim" fill="#404040">
                                <set attributeName="fill" to="#808080" begin="zoomplus.mouseover" end="zoomplus.mouseout"/>
                        </use>
                        <path d="M-4,0h8M0,-4v8" fill="none" stroke="white" stroke-width="1.5" pointer-events="none"/>
                </g>
                <g id="zoomMin">
                        <use xlink:href="#rim" fill="#404040">
                                <set attributeName="fill" to="#808080" begin="zoomminus.mouseover" end="zoomminus.mouseout"/>
                        </use>
                        <path d="M-4,0h8" fill="none" stroke="white" stroke-width="1.5" pointer-events="none"/>
                </g>
                <g id="dirArrow">
                        <path fill="none" stroke="white" stroke-width="1.5" d="M0,-3.0v7 M-2.5,-0.5L0,-3.0L2.5,-0.5"/>
                </g>
               <g id="resetDef">
                       <use xlink:href="#rim2" fill="#404040">
                               <set attributeName="fill" to="#808080" begin="reset.mouseover" end="reset.mouseout"/>
                       </use>
               </g>
        </defs>

<script type="text/javascript">
var viewWidth = 859;
var viewHeight = 308;
var sectionId = 'dynsection-0';
</script>
<script xlink:href="../../svgpan.js"/>
<svg id="graph" class="graph">
<g id="viewport">
<title>utils.cpp</title>
<polygon fill="white" stroke="transparent" points="-4,4 -4,-304 854.64,-304 854.64,4 -4,4"/>
<!-- Node1 -->
<g id="node1" class="node">
<title>Node1</title>
<g id="a_node1"><a xlink:title=" ">
<polygon fill="#bfbfbf" stroke="black" points="439.04,-280.5 439.04,-299.5 497.04,-299.5 497.04,-280.5 439.04,-280.5"/>
<text text-anchor="middle" x="468.04" y="-287.5" font-family="Helvetica,sans-Serif" font-size="10.00">utils.cpp</text>
</a>
</g>
</g>
<!-- Node2 -->
<g id="node2" class="node">
<title>Node2</title>
<g id="a_node2"><a xlink:href="../../d5/d60/utils_8h.html" target="_top" xlink:title=" ">
<polygon fill="white" stroke="black" points="17.54,-224.5 17.54,-243.5 122.54,-243.5 122.54,-224.5 17.54,-224.5"/>
<text text-anchor="middle" x="70.04" y="-231.5" font-family="Helvetica,sans-Serif" font-size="10.00">cantera/tpx/utils.h</text>
</a>
</g>
</g>
<!-- Node1&#45;&gt;Node2 -->
<g id="edge1" class="edge">
<title>Node1&#45;&gt;Node2</title>
<path fill="none" stroke="midnightblue" d="M438.81,-285.2C382.06,-277.79 252.74,-260.78 132.88,-244.1"/>
<polygon fill="midnightblue" stroke="midnightblue" points="133.18,-240.61 122.8,-242.7 132.22,-247.55 133.18,-240.61"/>
</g>
<!-- Node21 -->
<g id="node8" class="node">
<title>Node21</title>
<g id="a_node8"><a xlink:href="../../dd/dc3/stringUtils_8h.html" target="_top" xlink:title="Contains declarations for string manipulation functions within Cantera.">
<polygon fill="white" stroke="black" points="88.04,-168.5 88.04,-187.5 230.04,-187.5 230.04,-168.5 88.04,-168.5"/>
<text text-anchor="middle" x="159.04" y="-175.5" font-family="Helvetica,sans-Serif" font-size="10.00">cantera/base/stringUtils.h</text>
</a>
</g>
</g>
<!-- Node1&#45;&gt;Node21 -->
<g id="edge8" class="edge">
<title>Node1&#45;&gt;Node21</title>
<path fill="none" stroke="midnightblue" d="M438.98,-288.37C342.48,-286 37.04,-275.99 8.04,-244 -18.87,-214.33 29.1,-197.66 77.93,-188.65"/>
<polygon fill="midnightblue" stroke="midnightblue" points="78.76,-192.06 88.02,-186.89 77.56,-185.16 78.76,-192.06"/>
</g>
<!-- Node22 -->
<g id="node9" class="node">
<title>Node22</title>
<g id="a_node9"><a xlink:href="../../d2/d49/global_8h.html" target="_top" xlink:title="This file contains definitions for utility functions and text for modules, inputfiles and logging,...">
<polygon fill="white" stroke="black" points="573.04,-112.5 573.04,-131.5 695.04,-131.5 695.04,-112.5 573.04,-112.5"/>
<text text-anchor="middle" x="634.04" y="-119.5" font-family="Helvetica,sans-Serif" font-size="10.00">cantera/base/global.h</text>
</a>
</g>
</g>
<!-- Node1&#45;&gt;Node22 -->
<g id="edge10" class="edge">
<title>Node1&#45;&gt;Node22</title>
<path fill="none" stroke="midnightblue" d="M497.18,-287.65C580.71,-283.48 816.42,-269.53 839.04,-244 888.61,-188.05 765.79,-150.76 689.44,-133.69"/>
<polygon fill="midnightblue" stroke="midnightblue" points="689.97,-130.22 679.46,-131.51 688.48,-137.06 689.97,-130.22"/>
</g>
<!-- Node23 -->
<g id="node10" class="node">
<title>Node23</title>
<g id="a_node10"><a xlink:href="../../d3/dc4/CarbonDioxide_8h.html" target="_top" xlink:title=" ">
<polygon fill="white" stroke="black" points="141.04,-224.5 141.04,-243.5 239.04,-243.5 239.04,-224.5 141.04,-224.5"/>
<text text-anchor="middle" x="190.04" y="-231.5" font-family="Helvetica,sans-Serif" font-size="10.00">CarbonDioxide.h</text>
</a>
</g>
</g>
<!-- Node1&#45;&gt;Node23 -->
<g id="edge13" class="edge">
<title>Node1&#45;&gt;Node23</title>
<path fill="none" stroke="midnightblue" d="M438.81,-283.32C392.65,-274.36 302.15,-256.78 243.96,-245.47"/>
<polygon fill="midnightblue" stroke="midnightblue" points="244.33,-241.98 233.85,-243.51 243,-248.85 244.33,-241.98"/>
</g>
<!-- Node24 -->
<g id="node11" class="node">
<title>Node24</title>
<g id="a_node11"><a xlink:href="../../d9/d76/Heptane_8h.html" target="_top" xlink:title=" ">
<polygon fill="white" stroke="black" points="257.54,-224.5 257.54,-243.5 324.54,-243.5 324.54,-224.5 257.54,-224.5"/>
<text text-anchor="middle" x="291.04" y="-231.5" font-family="Helvetica,sans-Serif" font-size="10.00">Heptane.h</text>
</a>
</g>
</g>
<!-- Node1&#45;&gt;Node24 -->
<g id="edge15" class="edge">
<title>Node1&#45;&gt;Node24</title>
<path fill="none" stroke="midnightblue" d="M439.99,-280.44C409.95,-271.28 362.12,-256.69 328.79,-246.52"/>
<polygon fill="midnightblue" stroke="midnightblue" points="329.54,-243.09 318.95,-243.52 327.49,-249.78 329.54,-243.09"/>
</g>
<!-- Node25 -->
<g id="node12" class="node">
<title>Node25</title>
<g id="a_node12"><a xlink:href="../../db/d33/HFC134a_8h.html" target="_top" xlink:title=" ">
<polygon fill="white" stroke="black" points="343.04,-224.5 343.04,-243.5 413.04,-243.5 413.04,-224.5 343.04,-224.5"/>
<text text-anchor="middle" x="378.04" y="-231.5" font-family="Helvetica,sans-Serif" font-size="10.00">HFC134a.h</text>
</a>
</g>
</g>
<!-- Node1&#45;&gt;Node25 -->
<g id="edge17" class="edge">
<title>Node1&#45;&gt;Node25</title>
<path fill="none" stroke="midnightblue" d="M453.58,-280.32C439.54,-271.9 417.99,-258.97 401.49,-249.07"/>
<polygon fill="midnightblue" stroke="midnightblue" points="402.84,-245.8 392.46,-243.65 399.23,-251.8 402.84,-245.8"/>
</g>
<!-- Node26 -->
<g id="node13" class="node">
<title>Node26</title>
<g id="a_node13"><a xlink:href="../../dd/dbf/Hydrogen_8h.html" target="_top" xlink:title=" ">
<polygon fill="white" stroke="black" points="431.54,-224.5 431.54,-243.5 504.54,-243.5 504.54,-224.5 431.54,-224.5"/>
<text text-anchor="middle" x="468.04" y="-231.5" font-family="Helvetica,sans-Serif" font-size="10.00">Hydrogen.h</text>
</a>
</g>
</g>
<!-- Node1&#45;&gt;Node26 -->
<g id="edge19" class="edge">
<title>Node1&#45;&gt;Node26</title>
<path fill="none" stroke="midnightblue" d="M468.04,-280.08C468.04,-273.01 468.04,-262.86 468.04,-253.99"/>
<polygon fill="midnightblue" stroke="midnightblue" points="471.54,-253.75 468.04,-243.75 464.54,-253.75 471.54,-253.75"/>
</g>
<!-- Node27 -->
<g id="node14" class="node">
<title>Node27</title>
<g id="a_node14"><a xlink:href="../../df/d25/Methane_8h.html" target="_top" xlink:title=" ">
<polygon fill="white" stroke="black" points="523.04,-224.5 523.04,-243.5 591.04,-243.5 591.04,-224.5 523.04,-224.5"/>
<text text-anchor="middle" x="557.04" y="-231.5" font-family="Helvetica,sans-Serif" font-size="10.00">Methane.h</text>
</a>
</g>
</g>
<!-- Node1&#45;&gt;Node27 -->
<g id="edge21" class="edge">
<title>Node1&#45;&gt;Node27</title>
<path fill="none" stroke="midnightblue" d="M482.34,-280.32C496.22,-271.9 517.53,-258.97 533.84,-249.07"/>
<polygon fill="midnightblue" stroke="midnightblue" points="536.04,-251.83 542.77,-243.65 532.41,-245.85 536.04,-251.83"/>
</g>
<!-- Node28 -->
<g id="node15" class="node">
<title>Node28</title>
<g id="a_node15"><a xlink:href="../../de/d5b/Nitrogen_8h.html" target="_top" xlink:title=" ">
<polygon fill="white" stroke="black" points="609.04,-224.5 609.04,-243.5 677.04,-243.5 677.04,-224.5 609.04,-224.5"/>
<text text-anchor="middle" x="643.04" y="-231.5" font-family="Helvetica,sans-Serif" font-size="10.00">Nitrogen.h</text>
</a>
</g>
</g>
<!-- Node1&#45;&gt;Node28 -->
<g id="edge23" class="edge">
<title>Node1&#45;&gt;Node28</title>
<path fill="none" stroke="midnightblue" d="M495.77,-280.44C525.46,-271.28 572.75,-256.69 605.71,-246.52"/>
<polygon fill="midnightblue" stroke="midnightblue" points="606.91,-249.81 615.44,-243.52 604.85,-243.12 606.91,-249.81"/>
</g>
<!-- Node29 -->
<g id="node16" class="node">
<title>Node29</title>
<g id="a_node16"><a xlink:href="../../d8/df3/Oxygen_8h.html" target="_top" xlink:title=" ">
<polygon fill="white" stroke="black" points="695.54,-224.5 695.54,-243.5 758.54,-243.5 758.54,-224.5 695.54,-224.5"/>
<text text-anchor="middle" x="727.04" y="-231.5" font-family="Helvetica,sans-Serif" font-size="10.00">Oxygen.h</text>
</a>
</g>
</g>
<!-- Node1&#45;&gt;Node29 -->
<g id="edge25" class="edge">
<title>Node1&#45;&gt;Node29</title>
<path fill="none" stroke="midnightblue" d="M497.33,-283.07C537.4,-274.94 611.82,-259.75 685.36,-244.12"/>
<polygon fill="midnightblue" stroke="midnightblue" points="686.21,-247.52 695.26,-242.02 684.75,-240.67 686.21,-247.52"/>
</g>
<!-- Node30 -->
<g id="node17" class="node">
<title>Node30</title>
<g id="a_node17"><a xlink:href="../../d2/d02/Water_8h.html" target="_top" xlink:title=" ">
<polygon fill="white" stroke="black" points="776.54,-224.5 776.54,-243.5 829.54,-243.5 829.54,-224.5 776.54,-224.5"/>
<text text-anchor="middle" x="803.04" y="-231.5" font-family="Helvetica,sans-Serif" font-size="10.00">Water.h</text>
</a>
</g>
</g>
<!-- Node1&#45;&gt;Node30 -->
<g id="edge27" class="edge">
<title>Node1&#45;&gt;Node30</title>
<path fill="none" stroke="midnightblue" d="M497.17,-285.64C549.3,-279.41 662.11,-264.95 766.3,-244.19"/>
<polygon fill="midnightblue" stroke="midnightblue" points="767.24,-247.57 776.35,-242.16 765.85,-240.71 767.24,-247.57"/>
</g>
<!-- Node3 -->
<g id="node3" class="node">
<title>Node3</title>
<g id="a_node3"><a xlink:href="../../d5/d68/Sub_8h.html" target="_top" xlink:title=" ">
<polygon fill="white" stroke="black" points="417.04,-168.5 417.04,-187.5 519.04,-187.5 519.04,-168.5 417.04,-168.5"/>
<text text-anchor="middle" x="468.04" y="-175.5" font-family="Helvetica,sans-Serif" font-size="10.00">cantera/tpx/Sub.h</text>
</a>
</g>
</g>
<!-- Node2&#45;&gt;Node3 -->
<g id="edge2" class="edge">
<title>Node2&#45;&gt;Node3</title>
<path fill="none" stroke="midnightblue" d="M122.8,-225.3C125.92,-224.86 129.02,-224.42 132.04,-224 227.95,-210.62 339.39,-195.85 406.76,-187"/>
<polygon fill="midnightblue" stroke="midnightblue" points="407.32,-190.46 416.78,-185.69 406.41,-183.52 407.32,-190.46"/>
</g>
<!-- Node4 -->
<g id="node4" class="node">
<title>Node4</title>
<g id="a_node4"><a xlink:href="../../db/d98/ctexceptions_8h.html" target="_top" xlink:title="Definitions for the classes that are thrown when Cantera experiences an error condition (also contain...">
<polygon fill="white" stroke="black" points="391.04,-112.5 391.04,-131.5 545.04,-131.5 545.04,-112.5 391.04,-112.5"/>
<text text-anchor="middle" x="468.04" y="-119.5" font-family="Helvetica,sans-Serif" font-size="10.00">cantera/base/ctexceptions.h</text>
</a>
</g>
</g>
<!-- Node3&#45;&gt;Node4 -->
<g id="edge3" class="edge">
<title>Node3&#45;&gt;Node4</title>
<path fill="none" stroke="midnightblue" d="M468.04,-168.08C468.04,-161.01 468.04,-150.86 468.04,-141.99"/>
<polygon fill="midnightblue" stroke="midnightblue" points="471.54,-141.75 468.04,-131.75 464.54,-141.75 471.54,-141.75"/>
</g>
<!-- Node5 -->
<g id="node5" class="node">
<title>Node5</title>
<g id="a_node5"><a xlink:href="../../d9/ddc/ct__defs_8h.html" target="_top" xlink:title="This file contains definitions of constants, types and terms that are used in internal routines and a...">
<polygon fill="white" stroke="red" points="478.54,-0.5 478.54,-19.5 539.54,-19.5 539.54,-0.5 478.54,-0.5"/>
<text text-anchor="middle" x="509.04" y="-7.5" font-family="Helvetica,sans-Serif" font-size="10.00">ct_defs.h</text>
</a>
</g>
</g>
<!-- Node4&#45;&gt;Node5 -->
<g id="edge4" class="edge">
<title>Node4&#45;&gt;Node5</title>
<path fill="none" stroke="midnightblue" d="M470.26,-112.46C473.61,-99.91 480.4,-75.83 488.04,-56 491.52,-46.95 496,-37.16 499.92,-29.03"/>
<polygon fill="midnightblue" stroke="midnightblue" points="503.19,-30.32 504.48,-19.81 496.91,-27.22 503.19,-30.32"/>
</g>
<!-- Node16 -->
<g id="node6" class="node">
<title>Node16</title>
<g id="a_node6"><a xlink:href="../../db/def/fmt_8h.html" target="_top" xlink:title="Wrapper for either system&#45;installed or local headers for fmt.">
<polygon fill="white" stroke="red" points="496.54,-56.5 496.54,-75.5 605.54,-75.5 605.54,-56.5 496.54,-56.5"/>
<text text-anchor="middle" x="551.04" y="-63.5" font-family="Helvetica,sans-Serif" font-size="10.00">cantera/base/fmt.h</text>
</a>
</g>
</g>
<!-- Node4&#45;&gt;Node16 -->
<g id="edge5" class="edge">
<title>Node4&#45;&gt;Node16</title>
<path fill="none" stroke="midnightblue" d="M481.37,-112.32C494.2,-103.98 513.82,-91.21 528.98,-81.35"/>
<polygon fill="midnightblue" stroke="midnightblue" points="531.26,-84.04 537.73,-75.65 527.44,-78.17 531.26,-84.04"/>
</g>
<!-- Node20 -->
<g id="node7" class="node">
<title>Node20</title>
<g id="a_node7"><a xlink:title=" ">
<polygon fill="white" stroke="#bfbfbf" points="374.54,-56.5 374.54,-75.5 439.54,-75.5 439.54,-56.5 374.54,-56.5"/>
<text text-anchor="middle" x="407.04" y="-63.5" font-family="Helvetica,sans-Serif" font-size="10.00">exception</text>
</a>
</g>
</g>
<!-- Node4&#45;&gt;Node20 -->
<g id="edge7" class="edge">
<title>Node4&#45;&gt;Node20</title>
<path fill="none" stroke="midnightblue" d="M458.24,-112.32C449.22,-104.34 435.63,-92.31 424.72,-82.65"/>
<polygon fill="midnightblue" stroke="midnightblue" points="426.82,-79.84 417.01,-75.83 422.18,-85.08 426.82,-79.84"/>
</g>
<!-- Node16&#45;&gt;Node5 -->
<g id="edge6" class="edge">
<title>Node16&#45;&gt;Node5</title>
<path fill="none" stroke="midnightblue" d="M544.1,-56.08C538.11,-48.38 529.28,-37.03 521.99,-27.65"/>
<polygon fill="midnightblue" stroke="midnightblue" points="524.74,-25.5 515.84,-19.75 519.22,-29.79 524.74,-25.5"/>
</g>
<!-- Node21&#45;&gt;Node5 -->
<g id="edge9" class="edge">
<title>Node21&#45;&gt;Node5</title>
<path fill="none" stroke="midnightblue" d="M171.51,-168.29C202.8,-146.76 287.67,-90.27 365.04,-56 398.88,-41.01 439.25,-28.85 468.62,-20.97"/>
<polygon fill="midnightblue" stroke="midnightblue" points="469.74,-24.3 478.52,-18.37 467.96,-17.53 469.74,-24.3"/>
</g>
<!-- Node22&#45;&gt;Node5 -->
<g id="edge11" class="edge">
<title>Node22&#45;&gt;Node5</title>
<path fill="none" stroke="midnightblue" d="M633.78,-112.3C632.94,-98.67 629.41,-72.17 615.04,-56 598.1,-36.96 571.75,-25.72 549.56,-19.24"/>
<polygon fill="midnightblue" stroke="midnightblue" points="550.27,-15.8 539.7,-16.58 548.45,-22.56 550.27,-15.8"/>
</g>
<!-- Node22&#45;&gt;Node16 -->
<g id="edge12" class="edge">
<title>Node22&#45;&gt;Node16</title>
<path fill="none" stroke="midnightblue" d="M620.7,-112.32C607.87,-103.98 588.25,-91.21 573.1,-81.35"/>
<polygon fill="midnightblue" stroke="midnightblue" points="574.63,-78.17 564.34,-75.65 570.81,-84.04 574.63,-78.17"/>
</g>
<!-- Node23&#45;&gt;Node3 -->
<g id="edge14" class="edge">
<title>Node23&#45;&gt;Node3</title>
<path fill="none" stroke="midnightblue" d="M234.09,-224.44C282.89,-214.96 361.6,-199.67 414.07,-189.48"/>
<polygon fill="midnightblue" stroke="midnightblue" points="415.04,-192.86 424.19,-187.52 413.71,-185.99 415.04,-192.86"/>
</g>
<!-- Node24&#45;&gt;Node3 -->
<g id="edge16" class="edge">
<title>Node24&#45;&gt;Node3</title>
<path fill="none" stroke="midnightblue" d="M319.08,-224.44C349.12,-215.28 396.95,-200.69 430.28,-190.52"/>
<polygon fill="midnightblue" stroke="midnightblue" points="431.58,-193.78 440.12,-187.52 429.53,-187.09 431.58,-193.78"/>
</g>
<!-- Node25&#45;&gt;Node3 -->
<g id="edge18" class="edge">
<title>Node25&#45;&gt;Node3</title>
<path fill="none" stroke="midnightblue" d="M392.5,-224.32C406.54,-215.9 428.08,-202.97 444.58,-193.07"/>
<polygon fill="midnightblue" stroke="midnightblue" points="446.84,-195.8 453.61,-187.65 443.24,-189.8 446.84,-195.8"/>
</g>
<!-- Node26&#45;&gt;Node3 -->
<g id="edge20" class="edge">
<title>Node26&#45;&gt;Node3</title>
<path fill="none" stroke="midnightblue" d="M468.04,-224.08C468.04,-217.01 468.04,-206.86 468.04,-197.99"/>
<polygon fill="midnightblue" stroke="midnightblue" points="471.54,-197.75 468.04,-187.75 464.54,-197.75 471.54,-197.75"/>
</g>
<!-- Node27&#45;&gt;Node3 -->
<g id="edge22" class="edge">
<title>Node27&#45;&gt;Node3</title>
<path fill="none" stroke="midnightblue" d="M542.74,-224.32C528.85,-215.9 507.54,-202.97 491.23,-193.07"/>
<polygon fill="midnightblue" stroke="midnightblue" points="492.66,-189.85 482.3,-187.65 489.03,-195.83 492.66,-189.85"/>
</g>
<!-- Node28&#45;&gt;Node3 -->
<g id="edge24" class="edge">
<title>Node28&#45;&gt;Node3</title>
<path fill="none" stroke="midnightblue" d="M615.31,-224.44C585.61,-215.28 538.32,-200.69 505.37,-190.52"/>
<polygon fill="midnightblue" stroke="midnightblue" points="506.22,-187.12 495.64,-187.52 504.16,-193.81 506.22,-187.12"/>
</g>
<!-- Node29&#45;&gt;Node3 -->
<g id="edge26" class="edge">
<title>Node29&#45;&gt;Node3</title>
<path fill="none" stroke="midnightblue" d="M695.26,-225.98C692.14,-225.31 689.03,-224.64 686.04,-224 629.4,-211.94 564.39,-198.58 520.2,-189.58"/>
<polygon fill="midnightblue" stroke="midnightblue" points="520.77,-186.12 510.27,-187.55 519.37,-192.98 520.77,-186.12"/>
</g>
<!-- Node30&#45;&gt;Node3 -->
<g id="edge28" class="edge">
<title>Node30&#45;&gt;Node3</title>
<path fill="none" stroke="midnightblue" d="M776.35,-225.84C773.55,-225.18 770.74,-224.55 768.04,-224 686.07,-207.36 590.34,-194.05 529.48,-186.34"/>
<polygon fill="midnightblue" stroke="midnightblue" points="529.63,-182.83 519.27,-185.06 528.76,-189.77 529.63,-182.83"/>
</g>
</g>
</svg>
        <g id="navigator" transform="translate(0 0)" fill="#404254">
                <rect fill="#f2f5e9" fill-opacity="0.5" stroke="#606060" stroke-width=".5" x="0" y="0" width="60" height="60"/>
                <use id="zoomplus" xlink:href="#zoomPlus" x="17" y="9" onmousedown="handleZoom(evt,'in')"/>
                <use id="zoomminus" xlink:href="#zoomMin" x="42" y="9" onmousedown="handleZoom(evt,'out')"/>
                <use id="reset" xlink:href="#resetDef" x="30" y="36" onmousedown="handleReset()"/>
                <g id="arrowUp" xlink:href="#dirArrow" transform="translate(30 24)" onmousedown="handlePan(0,-1)">
                  <use xlink:href="#rim" fill="#404040">
                        <set attributeName="fill" to="#808080" begin="arrowUp.mouseover" end="arrowUp.mouseout"/>
                  </use>
                  <path fill="none" stroke="white" stroke-width="1.5" d="M0,-3.0v7 M-2.5,-0.5L0,-3.0L2.5,-0.5"/>
                </g>
                <g id="arrowRight" xlink:href="#dirArrow" transform="rotate(90) translate(36 -43)" onmousedown="handlePan(1,0)">
                  <use xlink:href="#rim" fill="#404040">
                        <set attributeName="fill" to="#808080" begin="arrowRight.mouseover" end="arrowRight.mouseout"/>
                  </use>
                  <path fill="none" stroke="white" stroke-width="1.5" d="M0,-3.0v7 M-2.5,-0.5L0,-3.0L2.5,-0.5"/>
                </g>
                <g id="arrowDown" xlink:href="#dirArrow" transform="rotate(180) translate(-30 -48)" onmousedown="handlePan(0,1)">
                  <use xlink:href="#rim" fill="#404040">
                        <set attributeName="fill" to="#808080" begin="arrowDown.mouseover" end="arrowDown.mouseout"/>
                  </use>
                  <path fill="none" stroke="white" stroke-width="1.5" d="M0,-3.0v7 M-2.5,-0.5L0,-3.0L2.5,-0.5"/>
                </g>
                <g id="arrowLeft" xlink:href="#dirArrow" transform="rotate(270) translate(-36 17)" onmousedown="handlePan(-1,0)">
                  <use xlink:href="#rim" fill="#404040">
                        <set attributeName="fill" to="#808080" begin="arrowLeft.mouseover" end="arrowLeft.mouseout"/>
                  </use>
                  <path fill="none" stroke="white" stroke-width="1.5" d="M0,-3.0v7 M-2.5,-0.5L0,-3.0L2.5,-0.5"/>
                </g>
        </g>
        <svg viewBox="0 0 15 15" width="100%" height="30px" preserveAspectRatio="xMaxYMin meet">
         <g id="arrow_out" transform="scale(0.3 0.3)">
          <a xlink:href="utils_8cpp__incl_org.svg" target="_base">
           <rect id="button" ry="5" rx="5" y="6" x="6" height="38" width="38"
                fill="#f2f5e9" fill-opacity="0.5" stroke="#606060" stroke-width="1.0"/>
           <path id="arrow"
             d="M 11.500037,31.436501 C 11.940474,20.09759 22.043105,11.32322 32.158766,21.979434 L 37.068811,17.246167 C 37.068811,17.246167 37.088388,32 37.088388,32 L 22.160133,31.978069 C 22.160133,31.978069 26.997745,27.140456 26.997745,27.140456 C 18.528582,18.264221 13.291696,25.230495 11.500037,31.436501 z"
             style="fill:#404040;"/>
          </a>
         </g>
        </svg>
</svg>
