<?xml version="1.0" encoding="UTF-8" standalone="no"?>
<!DOCTYPE svg PUBLIC "-//W3C//DTD SVG 1.1//EN"
 "http://www.w3.org/Graphics/SVG/1.1/DTD/svg11.dtd">
<!-- Generated by graphviz version 6.0.1 (0)
 -->
<!-- Title: Arrhenius.h Pages: 1 -->
<!--zoomable 192 -->
<svg id="main" version="1.1" xmlns="http://www.w3.org/2000/svg" xmlns:xlink="http://www.w3.org/1999/xlink" xml:space="preserve" onload="init(evt)">
<style type="text/css"><![CDATA[
.edge:hover path { stroke: red; }
.edge:hover polygon { stroke: red; fill: red; }
]]></style>
<script type="text/javascript"><![CDATA[
var edges = document.getElementsByTagName('g');
if (edges && edges.length) {
  for (var i=0;i<edges.length;i++) {
    if (edges[i].id.substr(0,4)=='edge') {
      edges[i].setAttribute('class','edge');
    }
  }
}
]]></script>
        <defs>
                <circle id="rim" cx="0" cy="0" r="7"/>
                <circle id="rim2" cx="0" cy="0" r="3.5"/>
                <g id="zoomPlus">
                        <use xlink:href="#rim" fill="#404040">
                                <set attributeName="fill" to="#808080" begin="zoomplus.mouseover" end="zoomplus.mouseout"/>
                        </use>
                        <path d="M-4,0h8M0,-4v8" fill="none" stroke="white" stroke-width="1.5" pointer-events="none"/>
                </g>
                <g id="zoomMin">
                        <use xlink:href="#rim" fill="#404040">
                                <set attributeName="fill" to="#808080" begin="zoomminus.mouseover" end="zoomminus.mouseout"/>
                        </use>
                        <path d="M-4,0h8" fill="none" stroke="white" stroke-width="1.5" pointer-events="none"/>
                </g>
                <g id="dirArrow">
                        <path fill="none" stroke="white" stroke-width="1.5" d="M0,-3.0v7 M-2.5,-0.5L0,-3.0L2.5,-0.5"/>
                </g>
               <g id="resetDef">
                       <use xlink:href="#rim2" fill="#404040">
                               <set attributeName="fill" to="#808080" begin="reset.mouseover" end="reset.mouseout"/>
                       </use>
               </g>
        </defs>

<script type="text/javascript">
var viewWidth = 1078;
var viewHeight = 192;
var sectionId = 'dynsection-1';
</script>
<script xlink:href="../../svgpan.js"/>
<svg id="graph" class="graph">
<g id="viewport">
<title>Arrhenius.h</title>
<!-- Node1 -->
<g id="node1" class="node">
<title>Node1</title>
<g id="a_node1"><a xlink:title="Header for reaction rates that involve Arrhenius&#45;type kinetics.">
<polygon fill="#999999" stroke="#666666" points="504,-184 438,-184 438,-165 504,-165 504,-184"/>
<text text-anchor="middle" x="471" y="-172" font-family="Helvetica,sans-Serif" font-size="10.00">Arrhenius.h</text>
</a>
</g>
</g>
<!-- Node2 -->
<g id="node2" class="node">
<title>Node2</title>
<g id="a_node2"><a xlink:href="../../d8/d14/Arrhenius_8cpp.html" target="_top" xlink:title=" ">
<polygon fill="white" stroke="#666666" points="94.5,-129 17.5,-129 17.5,-110 94.5,-110 94.5,-129"/>
<text text-anchor="middle" x="56" y="-117" font-family="Helvetica,sans-Serif" font-size="10.00">Arrhenius.cpp</text>
</a>
</g>
</g>
<!-- Node1&#45;&gt;Node2 -->
<g id="edge1" class="edge">
<title>Node1&#45;&gt;Node2</title>
<path fill="none" stroke="#63b8ff" d="M427.89,-169.11C359.05,-161.93 220.12,-146.66 103,-129 100.29,-128.59 97.5,-128.15 94.7,-127.68"/>
<polygon fill="#63b8ff" stroke="#63b8ff" points="427.62,-172.61 437.92,-170.16 428.34,-165.64 427.62,-172.61"/>
</g>
<!-- Node3 -->
<g id="node3" class="node">
<title>Node3</title>
<g id="a_node3"><a xlink:href="../../da/dab/BlowersMaselRate_8h.html" target="_top" xlink:title="Header for Blowers&#45;Masel reaction rates.">
<polygon fill="white" stroke="#666666" points="219.5,-129 112.5,-129 112.5,-110 219.5,-110 219.5,-129"/>
<text text-anchor="middle" x="166" y="-117" font-family="Helvetica,sans-Serif" font-size="10.00">BlowersMaselRate.h</text>
</a>
</g>
</g>
<!-- Node1&#45;&gt;Node3 -->
<g id="edge2" class="edge">
<title>Node1&#45;&gt;Node3</title>
<path fill="none" stroke="#63b8ff" d="M427.8,-165.99C371.65,-156.24 273.84,-139.24 214.98,-129.01"/>
<polygon fill="#63b8ff" stroke="#63b8ff" points="427.33,-169.46 437.78,-167.73 428.53,-162.57 427.33,-169.46"/>
</g>
<!-- Node7 -->
<g id="node7" class="node">
<title>Node7</title>
<g id="a_node7"><a xlink:href="../../de/db2/ReactionRateFactory_8cpp.html" target="_top" xlink:title=" ">
<polygon fill="white" stroke="#666666" points="422.5,-19 295.5,-19 295.5,0 422.5,0 422.5,-19"/>
<text text-anchor="middle" x="359" y="-7" font-family="Helvetica,sans-Serif" font-size="10.00">ReactionRateFactory.cpp</text>
</a>
</g>
</g>
<!-- Node1&#45;&gt;Node7 -->
<g id="edge20" class="edge">
<title>Node1&#45;&gt;Node7</title>
<path fill="none" stroke="#63b8ff" d="M427.41,-173.39C390.84,-170.85 339.93,-161.18 310,-129 287.35,-104.65 284.05,-84.7 299,-55 307.4,-38.32 325.33,-26.32 339.42,-19.02"/>
<polygon fill="#63b8ff" stroke="#63b8ff" points="427.61,-176.91 437.78,-173.95 427.99,-169.92 427.61,-176.91"/>
</g>
<!-- Node8 -->
<g id="node8" class="node">
<title>Node8</title>
<g id="a_node8"><a xlink:href="../../de/d8f/Custom_8h.html" target="_top" xlink:title=" ">
<polygon fill="white" stroke="#666666" points="378.5,-129 319.5,-129 319.5,-110 378.5,-110 378.5,-129"/>
<text text-anchor="middle" x="349" y="-117" font-family="Helvetica,sans-Serif" font-size="10.00">Custom.h</text>
</a>
</g>
</g>
<!-- Node1&#45;&gt;Node8 -->
<g id="edge7" class="edge">
<title>Node1&#45;&gt;Node8</title>
<path fill="none" stroke="#63b8ff" d="M441.99,-160.9C419.46,-151.11 388.8,-137.79 368.96,-129.17"/>
<polygon fill="#63b8ff" stroke="#63b8ff" points="440.83,-164.21 451.4,-164.98 443.62,-157.79 440.83,-164.21"/>
</g>
<!-- Node10 -->
<g id="node10" class="node">
<title>Node10</title>
<g id="a_node10"><a xlink:href="../../de/d72/Falloff_8h_source.html" target="_top" xlink:title=" ">
<polygon fill="white" stroke="#666666" points="497,-129 445,-129 445,-110 497,-110 497,-129"/>
<text text-anchor="middle" x="471" y="-117" font-family="Helvetica,sans-Serif" font-size="10.00">Falloff.h</text>
</a>
</g>
</g>
<!-- Node1&#45;&gt;Node10 -->
<g id="edge10" class="edge">
<title>Node1&#45;&gt;Node10</title>
<path fill="none" stroke="#63b8ff" d="M471,-154.66C471,-145.93 471,-135.99 471,-129.09"/>
<polygon fill="#63b8ff" stroke="#63b8ff" points="467.5,-154.75 471,-164.75 474.5,-154.75 467.5,-154.75"/>
</g>
<!-- Node12 -->
<g id="node12" class="node">
<title>Node12</title>
<g id="a_node12"><a xlink:href="../../d1/d9f/Reaction_8cpp.html" target="_top" xlink:title=" ">
<polygon fill="white" stroke="#666666" points="594,-74 520,-74 520,-55 594,-55 594,-74"/>
<text text-anchor="middle" x="557" y="-62" font-family="Helvetica,sans-Serif" font-size="10.00">Reaction.cpp</text>
</a>
</g>
</g>
<!-- Node1&#45;&gt;Node12 -->
<g id="edge17" class="edge">
<title>Node1&#45;&gt;Node12</title>
<path fill="none" stroke="#63b8ff" d="M484.38,-156.69C502.96,-133.37 535.86,-92.05 550.11,-74.16"/>
<polygon fill="#63b8ff" stroke="#63b8ff" points="481.53,-154.66 478.04,-164.66 487.01,-159.02 481.53,-154.66"/>
</g>
<!-- Node13 -->
<g id="node13" class="node">
<title>Node13</title>
<g id="a_node13"><a xlink:href="../../dd/d3a/PlogRate_8h.html" target="_top" xlink:title=" ">
<polygon fill="white" stroke="#666666" points="654.5,-129 589.5,-129 589.5,-110 654.5,-110 654.5,-129"/>
<text text-anchor="middle" x="622" y="-117" font-family="Helvetica,sans-Serif" font-size="10.00">PlogRate.h</text>
</a>
</g>
</g>
<!-- Node1&#45;&gt;Node13 -->
<g id="edge14" class="edge">
<title>Node1&#45;&gt;Node13</title>
<path fill="none" stroke="#63b8ff" d="M505.05,-161.55C533.09,-151.71 572.18,-137.98 597.3,-129.17"/>
<polygon fill="#63b8ff" stroke="#63b8ff" points="503.54,-158.37 495.26,-164.98 505.86,-164.98 503.54,-158.37"/>
</g>
<!-- Node15 -->
<g id="node15" class="node">
<title>Node15</title>
<g id="a_node15"><a xlink:href="../../df/da5/ReactionRateDelegator_8h.html" target="_top" xlink:title=" ">
<polygon fill="white" stroke="#666666" points="815,-129 689,-129 689,-110 815,-110 815,-129"/>
<text text-anchor="middle" x="752" y="-117" font-family="Helvetica,sans-Serif" font-size="10.00">ReactionRateDelegator.h</text>
</a>
</g>
</g>
<!-- Node1&#45;&gt;Node15 -->
<g id="edge18" class="edge">
<title>Node1&#45;&gt;Node15</title>
<path fill="none" stroke="#63b8ff" d="M513.98,-165.39C566.05,-155.57 653.38,-139.1 706.54,-129.07"/>
<polygon fill="#63b8ff" stroke="#63b8ff" points="513.24,-161.97 504.06,-167.26 514.54,-168.85 513.24,-161.97"/>
</g>
<!-- Node17 -->
<g id="node17" class="node">
<title>Node17</title>
<g id="a_node17"><a xlink:href="../../d6/d27/TwoTempPlasmaRate_8h.html" target="_top" xlink:title="Header for plasma reaction rates parameterized by two temperatures (gas and electron).">
<polygon fill="white" stroke="#666666" points="970.5,-129 849.5,-129 849.5,-110 970.5,-110 970.5,-129"/>
<text text-anchor="middle" x="910" y="-117" font-family="Helvetica,sans-Serif" font-size="10.00">TwoTempPlasmaRate.h</text>
</a>
</g>
</g>
<!-- Node1&#45;&gt;Node17 -->
<g id="edge21" class="edge">
<title>Node1&#45;&gt;Node17</title>
<path fill="none" stroke="#63b8ff" d="M514.41,-168.26C593.08,-158.76 759.37,-138.69 849.26,-127.83"/>
<polygon fill="#63b8ff" stroke="#63b8ff" points="513.87,-164.8 504.36,-169.47 514.7,-171.75 513.87,-164.8"/>
</g>
<!-- Node4 -->
<g id="node4" class="node">
<title>Node4</title>
<g id="a_node4"><a xlink:href="../../d4/d81/BlowersMaselRate_8cpp.html" target="_top" xlink:title=" ">
<polygon fill="white" stroke="#666666" points="118,-74 0,-74 0,-55 118,-55 118,-74"/>
<text text-anchor="middle" x="59" y="-62" font-family="Helvetica,sans-Serif" font-size="10.00">BlowersMaselRate.cpp</text>
</a>
</g>
</g>
<!-- Node3&#45;&gt;Node4 -->
<g id="edge3" class="edge">
<title>Node3&#45;&gt;Node4</title>
<path fill="none" stroke="#63b8ff" d="M139.76,-105.5C120.07,-95.75 93.68,-82.68 76.5,-74.17"/>
<polygon fill="#63b8ff" stroke="#63b8ff" points="138.29,-108.68 148.81,-109.98 141.4,-102.41 138.29,-108.68"/>
</g>
<!-- Node5 -->
<g id="node5" class="node">
<title>Node5</title>
<g id="a_node5"><a xlink:href="../../df/d45/InterfaceRate_8h.html" target="_top" xlink:title="Header for reaction rates that occur at interfaces.">
<polygon fill="white" stroke="#666666" points="220,-74 136,-74 136,-55 220,-55 220,-74"/>
<text text-anchor="middle" x="178" y="-62" font-family="Helvetica,sans-Serif" font-size="10.00">InterfaceRate.h</text>
</a>
</g>
</g>
<!-- Node3&#45;&gt;Node5 -->
<g id="edge4" class="edge">
<title>Node3&#45;&gt;Node5</title>
<path fill="none" stroke="#63b8ff" d="M170.2,-99.95C172.19,-91.15 174.48,-81.06 176.06,-74.09"/>
<polygon fill="#63b8ff" stroke="#63b8ff" points="166.78,-99.22 167.98,-109.75 173.6,-100.77 166.78,-99.22"/>
</g>
<!-- Node6 -->
<g id="node6" class="node">
<title>Node6</title>
<g id="a_node6"><a xlink:href="../../d8/dc2/InterfaceRate_8cpp.html" target="_top" xlink:title=" ">
<polygon fill="white" stroke="#666666" points="225.5,-19 130.5,-19 130.5,0 225.5,0 225.5,-19"/>
<text text-anchor="middle" x="178" y="-7" font-family="Helvetica,sans-Serif" font-size="10.00">InterfaceRate.cpp</text>
</a>
</g>
</g>
<!-- Node5&#45;&gt;Node6 -->
<g id="edge5" class="edge">
<title>Node5&#45;&gt;Node6</title>
<path fill="none" stroke="#63b8ff" d="M178,-44.66C178,-35.93 178,-25.99 178,-19.09"/>
<polygon fill="#63b8ff" stroke="#63b8ff" points="174.5,-44.75 178,-54.75 181.5,-44.75 174.5,-44.75"/>
</g>
<!-- Node5&#45;&gt;Node7 -->
<g id="edge6" class="edge">
<title>Node5&#45;&gt;Node7</title>
<path fill="none" stroke="#63b8ff" d="M217.08,-52.06C250.91,-42.15 299.08,-28.04 329.69,-19.08"/>
<polygon fill="#63b8ff" stroke="#63b8ff" points="215.69,-48.82 207.08,-54.98 217.66,-55.53 215.69,-48.82"/>
</g>
<!-- Node8&#45;&gt;Node7 -->
<g id="edge9" class="edge">
<title>Node8&#45;&gt;Node7</title>
<path fill="none" stroke="#63b8ff" d="M327.49,-103.63C312.49,-91.29 296.55,-72.91 305,-55 312.62,-38.85 329.29,-26.57 342.11,-19.05"/>
<polygon fill="#63b8ff" stroke="#63b8ff" points="325.5,-106.52 335.57,-109.83 329.76,-100.96 325.5,-106.52"/>
</g>
<!-- Node9 -->
<g id="node9" class="node">
<title>Node9</title>
<g id="a_node9"><a xlink:href="../../d5/dc4/Custom_8cpp.html" target="_top" xlink:title=" ">
<polygon fill="white" stroke="#666666" points="384,-74 314,-74 314,-55 384,-55 384,-74"/>
<text text-anchor="middle" x="349" y="-62" font-family="Helvetica,sans-Serif" font-size="10.00">Custom.cpp</text>
</a>
</g>
</g>
<!-- Node8&#45;&gt;Node9 -->
<g id="edge8" class="edge">
<title>Node8&#45;&gt;Node9</title>
<path fill="none" stroke="#63b8ff" d="M349,-99.66C349,-90.93 349,-80.99 349,-74.09"/>
<polygon fill="#63b8ff" stroke="#63b8ff" points="345.5,-99.75 349,-109.75 352.5,-99.75 345.5,-99.75"/>
</g>
<!-- Node10&#45;&gt;Node7 -->
<g id="edge13" class="edge">
<title>Node10&#45;&gt;Node7</title>
<path fill="none" stroke="#63b8ff" d="M454.52,-102.61C430.52,-79.47 386.78,-37.29 367.98,-19.16"/>
<polygon fill="#63b8ff" stroke="#63b8ff" points="452.21,-105.24 461.83,-109.66 457.07,-100.2 452.21,-105.24"/>
</g>
<!-- Node11 -->
<g id="node11" class="node">
<title>Node11</title>
<g id="a_node11"><a xlink:href="../../d7/d8a/Falloff_8cpp.html" target="_top" xlink:title="Definitions for member functions of classes derived from Falloff.">
<polygon fill="white" stroke="#666666" points="502,-74 440,-74 440,-55 502,-55 502,-74"/>
<text text-anchor="middle" x="471" y="-62" font-family="Helvetica,sans-Serif" font-size="10.00">Falloff.cpp</text>
</a>
</g>
</g>
<!-- Node10&#45;&gt;Node11 -->
<g id="edge11" class="edge">
<title>Node10&#45;&gt;Node11</title>
<path fill="none" stroke="#63b8ff" d="M471,-99.66C471,-90.93 471,-80.99 471,-74.09"/>
<polygon fill="#63b8ff" stroke="#63b8ff" points="467.5,-99.75 471,-109.75 474.5,-99.75 467.5,-99.75"/>
</g>
<!-- Node10&#45;&gt;Node12 -->
<g id="edge12" class="edge">
<title>Node10&#45;&gt;Node12</title>
<path fill="none" stroke="#63b8ff" d="M493.4,-104.7C509.07,-95.04 529.51,-82.44 542.93,-74.17"/>
<polygon fill="#63b8ff" stroke="#63b8ff" points="491.49,-101.76 484.82,-109.98 495.17,-107.72 491.49,-101.76"/>
</g>
<!-- Node13&#45;&gt;Node7 -->
<g id="edge16" class="edge">
<title>Node13&#45;&gt;Node7</title>
<path fill="none" stroke="#63b8ff" d="M621.4,-99.37C619.89,-85.07 615.45,-66.14 603,-55 576.97,-31.7 485.93,-20.06 422.73,-14.66"/>
<polygon fill="#63b8ff" stroke="#63b8ff" points="617.92,-99.86 622.08,-109.61 624.91,-99.4 617.92,-99.86"/>
</g>
<!-- Node14 -->
<g id="node14" class="node">
<title>Node14</title>
<g id="a_node14"><a xlink:href="../../d8/dcf/PlogRate_8cpp.html" target="_top" xlink:title=" ">
<polygon fill="white" stroke="#666666" points="726,-74 650,-74 650,-55 726,-55 726,-74"/>
<text text-anchor="middle" x="688" y="-62" font-family="Helvetica,sans-Serif" font-size="10.00">PlogRate.cpp</text>
</a>
</g>
</g>
<!-- Node13&#45;&gt;Node14 -->
<g id="edge15" class="edge">
<title>Node13&#45;&gt;Node14</title>
<path fill="none" stroke="#63b8ff" d="M640.55,-103.6C652.38,-94.11 667.29,-82.13 677.2,-74.17"/>
<polygon fill="#63b8ff" stroke="#63b8ff" points="638.21,-100.99 632.6,-109.98 642.59,-106.45 638.21,-100.99"/>
</g>
<!-- Node16 -->
<g id="node16" class="node">
<title>Node16</title>
<g id="a_node16"><a xlink:href="../../dd/d06/ReactionRateDelegator_8cpp.html" target="_top" xlink:title=" ">
<polygon fill="white" stroke="#666666" points="881.5,-74 744.5,-74 744.5,-55 881.5,-55 881.5,-74"/>
<text text-anchor="middle" x="813" y="-62" font-family="Helvetica,sans-Serif" font-size="10.00">ReactionRateDelegator.cpp</text>
</a>
</g>
</g>
<!-- Node15&#45;&gt;Node16 -->
<g id="edge19" class="edge">
<title>Node15&#45;&gt;Node16</title>
<path fill="none" stroke="#63b8ff" d="M769.47,-103.32C780.34,-93.87 793.94,-82.06 803.02,-74.17"/>
<polygon fill="#63b8ff" stroke="#63b8ff" points="767.05,-100.78 761.8,-109.98 771.65,-106.07 767.05,-100.78"/>
</g>
<!-- Node17&#45;&gt;Node7 -->
<g id="edge22" class="edge">
<title>Node17&#45;&gt;Node7</title>
<path fill="none" stroke="#63b8ff" d="M909.42,-99.47C907.88,-84.91 903.25,-65.6 890,-55 854.22,-26.38 555.77,-15.41 422.66,-11.91"/>
<polygon fill="#63b8ff" stroke="#63b8ff" points="905.95,-100.11 910.1,-109.87 912.94,-99.66 905.95,-100.11"/>
</g>
<!-- Node18 -->
<g id="node18" class="node">
<title>Node18</title>
<g id="a_node18"><a xlink:href="../../de/d71/TwoTempPlasmaRate_8cpp.html" target="_top" xlink:title=" ">
<polygon fill="white" stroke="#666666" points="1069.5,-74 938.5,-74 938.5,-55 1069.5,-55 1069.5,-74"/>
<text text-anchor="middle" x="1004" y="-62" font-family="Helvetica,sans-Serif" font-size="10.00">TwoTempPlasmaRate.cpp</text>
</a>
</g>
</g>
<!-- Node17&#45;&gt;Node18 -->
<g id="edge23" class="edge">
<title>Node17&#45;&gt;Node18</title>
<path fill="none" stroke="#63b8ff" d="M934,-104.97C951.19,-95.28 973.81,-82.52 988.62,-74.17"/>
<polygon fill="#63b8ff" stroke="#63b8ff" points="932.09,-102.02 925.1,-109.98 935.53,-108.12 932.09,-102.02"/>
</g>
</g>
</svg>
        <g id="navigator" transform="translate(0 0)" fill="#404254">
                <rect fill="#f2f5e9" fill-opacity="0.5" stroke="#606060" stroke-width=".5" x="0" y="0" width="60" height="60"/>
                <use id="zoomplus" xlink:href="#zoomPlus" x="17" y="9" onmousedown="handleZoom(evt,'in')"/>
                <use id="zoomminus" xlink:href="#zoomMin" x="42" y="9" onmousedown="handleZoom(evt,'out')"/>
                <use id="reset" xlink:href="#resetDef" x="30" y="36" onmousedown="handleReset()"/>
                <g id="arrowUp" xlink:href="#dirArrow" transform="translate(30 24)" onmousedown="handlePan(0,-1)">
                  <use xlink:href="#rim" fill="#404040">
                        <set attributeName="fill" to="#808080" begin="arrowUp.mouseover" end="arrowUp.mouseout"/>
                  </use>
                  <path fill="none" stroke="white" stroke-width="1.5" d="M0,-3.0v7 M-2.5,-0.5L0,-3.0L2.5,-0.5"/>
                </g>
                <g id="arrowRight" xlink:href="#dirArrow" transform="rotate(90) translate(36 -43)" onmousedown="handlePan(1,0)">
                  <use xlink:href="#rim" fill="#404040">
                        <set attributeName="fill" to="#808080" begin="arrowRight.mouseover" end="arrowRight.mouseout"/>
                  </use>
                  <path fill="none" stroke="white" stroke-width="1.5" d="M0,-3.0v7 M-2.5,-0.5L0,-3.0L2.5,-0.5"/>
                </g>
                <g id="arrowDown" xlink:href="#dirArrow" transform="rotate(180) translate(-30 -48)" onmousedown="handlePan(0,1)">
                  <use xlink:href="#rim" fill="#404040">
                        <set attributeName="fill" to="#808080" begin="arrowDown.mouseover" end="arrowDown.mouseout"/>
                  </use>
                  <path fill="none" stroke="white" stroke-width="1.5" d="M0,-3.0v7 M-2.5,-0.5L0,-3.0L2.5,-0.5"/>
                </g>
                <g id="arrowLeft" xlink:href="#dirArrow" transform="rotate(270) translate(-36 17)" onmousedown="handlePan(-1,0)">
                  <use xlink:href="#rim" fill="#404040">
                        <set attributeName="fill" to="#808080" begin="arrowLeft.mouseover" end="arrowLeft.mouseout"/>
                  </use>
                  <path fill="none" stroke="white" stroke-width="1.5" d="M0,-3.0v7 M-2.5,-0.5L0,-3.0L2.5,-0.5"/>
                </g>
        </g>
        <svg viewBox="0 0 15 15" width="100%" height="30px" preserveAspectRatio="xMaxYMin meet">
         <g id="arrow_out" transform="scale(0.3 0.3)">
          <a xlink:href="Arrhenius_8h__dep__incl_org.svg" target="_base">
           <rect id="button" ry="5" rx="5" y="6" x="6" height="38" width="38"
                fill="#f2f5e9" fill-opacity="0.5" stroke="#606060" stroke-width="1.0"/>
           <path id="arrow"
             d="M 11.500037,31.436501 C 11.940474,20.09759 22.043105,11.32322 32.158766,21.979434 L 37.068811,17.246167 C 37.068811,17.246167 37.088388,32 37.088388,32 L 22.160133,31.978069 C 22.160133,31.978069 26.997745,27.140456 26.997745,27.140456 C 18.528582,18.264221 13.291696,25.230495 11.500037,31.436501 z"
             style="fill:#404040;"/>
          </a>
         </g>
        </svg>
</svg>
