<?xml version="1.0" encoding="UTF-8" standalone="no"?>
<!DOCTYPE svg PUBLIC "-//W3C//DTD SVG 1.1//EN"
 "http://www.w3.org/Graphics/SVG/1.1/DTD/svg11.dtd">
<!-- Generated by graphviz version 2.43.0 (0)
 -->
<!-- Title: Arrhenius.h Pages: 1 -->
<svg width="1139pt" height="196pt"
 viewBox="0.00 0.00 1139.00 196.00" xmlns="http://www.w3.org/2000/svg" xmlns:xlink="http://www.w3.org/1999/xlink">
<g id="graph0" class="graph" transform="scale(1 1) rotate(0) translate(4 192)">
<title>Arrhenius.h</title>
<polygon fill="white" stroke="transparent" points="-4,4 -4,-192 1135,-192 1135,4 -4,4"/>
<!-- Node1 -->
<g id="node1" class="node">
<title>Node1</title>
<g id="a_node1"><a xlink:title="Header for reaction rates that involve Arrhenius&#45;type kinetics.">
<polygon fill="#bfbfbf" stroke="black" points="492.5,-168.5 492.5,-187.5 564.5,-187.5 564.5,-168.5 492.5,-168.5"/>
<text text-anchor="middle" x="528.5" y="-175.5" font-family="Helvetica,sans-Serif" font-size="10.00">Arrhenius.h</text>
</a>
</g>
</g>
<!-- Node2 -->
<g id="node2" class="node">
<title>Node2</title>
<g id="a_node2"><a xlink:href="../../d8/d14/Arrhenius_8cpp.html" target="_top" xlink:title=" ">
<polygon fill="white" stroke="black" points="45,-112.5 45,-131.5 128,-131.5 128,-112.5 45,-112.5"/>
<text text-anchor="middle" x="86.5" y="-119.5" font-family="Helvetica,sans-Serif" font-size="10.00">Arrhenius.cpp</text>
</a>
</g>
</g>
<!-- Node1&#45;&gt;Node2 -->
<g id="edge1" class="edge">
<title>Node1&#45;&gt;Node2</title>
<path fill="none" stroke="midnightblue" d="M482.01,-172.56C408.64,-165.35 261.56,-150.07 137.5,-132 134.47,-131.56 131.35,-131.08 128.22,-130.57"/>
<polygon fill="midnightblue" stroke="midnightblue" points="482,-176.08 492.29,-173.57 482.68,-169.11 482,-176.08"/>
</g>
<!-- Node3 -->
<g id="node3" class="node">
<title>Node3</title>
<g id="a_node3"><a xlink:href="../../d1/d9f/Reaction_8cpp.html" target="_top" xlink:title=" ">
<polygon fill="white" stroke="black" points="397.5,-56.5 397.5,-75.5 477.5,-75.5 477.5,-56.5 397.5,-56.5"/>
<text text-anchor="middle" x="437.5" y="-63.5" font-family="Helvetica,sans-Serif" font-size="10.00">Reaction.cpp</text>
</a>
</g>
</g>
<!-- Node1&#45;&gt;Node3 -->
<g id="edge2" class="edge">
<title>Node1&#45;&gt;Node3</title>
<path fill="none" stroke="midnightblue" d="M514.92,-160.59C495.3,-136.87 459.73,-93.87 444.61,-75.59"/>
<polygon fill="midnightblue" stroke="midnightblue" points="512.29,-162.89 521.36,-168.37 517.68,-158.43 512.29,-162.89"/>
</g>
<!-- Node4 -->
<g id="node4" class="node">
<title>Node4</title>
<g id="a_node4"><a xlink:href="../../de/db2/ReactionRateFactory_8cpp.html" target="_top" xlink:title=" ">
<polygon fill="white" stroke="black" points="586.5,-0.5 586.5,-19.5 722.5,-19.5 722.5,-0.5 586.5,-0.5"/>
<text text-anchor="middle" x="654.5" y="-7.5" font-family="Helvetica,sans-Serif" font-size="10.00">ReactionRateFactory.cpp</text>
</a>
</g>
</g>
<!-- Node1&#45;&gt;Node4 -->
<g id="edge3" class="edge">
<title>Node1&#45;&gt;Node4</title>
<path fill="none" stroke="midnightblue" d="M575.04,-175.44C611.62,-171.84 661.71,-161.38 694.5,-132 720.69,-108.53 732.47,-87.33 716.5,-56 707.8,-38.94 689.27,-26.83 674.72,-19.51"/>
<polygon fill="midnightblue" stroke="midnightblue" points="574.31,-171.99 564.64,-176.31 574.89,-178.96 574.31,-171.99"/>
</g>
<!-- Node5 -->
<g id="node5" class="node">
<title>Node5</title>
<g id="a_node5"><a xlink:href="../../da/dab/BlowersMaselRate_8h.html" target="_top" xlink:title="Header for Blowers&#45;Masel reaction rates.">
<polygon fill="white" stroke="black" points="146.5,-112.5 146.5,-131.5 262.5,-131.5 262.5,-112.5 146.5,-112.5"/>
<text text-anchor="middle" x="204.5" y="-119.5" font-family="Helvetica,sans-Serif" font-size="10.00">BlowersMaselRate.h</text>
</a>
</g>
</g>
<!-- Node1&#45;&gt;Node5 -->
<g id="edge4" class="edge">
<title>Node1&#45;&gt;Node5</title>
<path fill="none" stroke="midnightblue" d="M482.33,-169.3C422.34,-159.31 317.94,-141.91 255.62,-131.52"/>
<polygon fill="midnightblue" stroke="midnightblue" points="481.84,-172.77 492.28,-170.96 482.99,-165.87 481.84,-172.77"/>
</g>
<!-- Node9 -->
<g id="node9" class="node">
<title>Node9</title>
<g id="a_node9"><a xlink:href="../../de/d8f/Custom_8h.html" target="_top" xlink:title=" ">
<polygon fill="white" stroke="black" points="623,-112.5 623,-131.5 686,-131.5 686,-112.5 623,-112.5"/>
<text text-anchor="middle" x="654.5" y="-119.5" font-family="Helvetica,sans-Serif" font-size="10.00">Custom.h</text>
</a>
</g>
</g>
<!-- Node1&#45;&gt;Node9 -->
<g id="edge9" class="edge">
<title>Node1&#45;&gt;Node9</title>
<path fill="none" stroke="midnightblue" d="M557.66,-164.5C581.28,-154.38 613.93,-140.39 634.63,-131.52"/>
<polygon fill="midnightblue" stroke="midnightblue" points="556.28,-161.29 548.47,-168.44 559.04,-167.72 556.28,-161.29"/>
</g>
<!-- Node11 -->
<g id="node11" class="node">
<title>Node11</title>
<g id="a_node11"><a xlink:href="../../de/d72/Falloff_8h_source.html" target="_top" xlink:title=" ">
<polygon fill="white" stroke="black" points="501,-112.5 501,-131.5 556,-131.5 556,-112.5 501,-112.5"/>
<text text-anchor="middle" x="528.5" y="-119.5" font-family="Helvetica,sans-Serif" font-size="10.00">Falloff.h</text>
</a>
</g>
</g>
<!-- Node1&#45;&gt;Node11 -->
<g id="edge12" class="edge">
<title>Node1&#45;&gt;Node11</title>
<path fill="none" stroke="midnightblue" d="M528.5,-157.8C528.5,-148.91 528.5,-138.78 528.5,-131.75"/>
<polygon fill="midnightblue" stroke="midnightblue" points="525,-158.08 528.5,-168.08 532,-158.08 525,-158.08"/>
</g>
<!-- Node13 -->
<g id="node13" class="node">
<title>Node13</title>
<g id="a_node13"><a xlink:href="../../dd/d3a/PlogRate_8h.html" target="_top" xlink:title=" ">
<polygon fill="white" stroke="black" points="305,-112.5 305,-131.5 374,-131.5 374,-112.5 305,-112.5"/>
<text text-anchor="middle" x="339.5" y="-119.5" font-family="Helvetica,sans-Serif" font-size="10.00">PlogRate.h</text>
</a>
</g>
</g>
<!-- Node1&#45;&gt;Node13 -->
<g id="edge16" class="edge">
<title>Node1&#45;&gt;Node13</title>
<path fill="none" stroke="midnightblue" d="M488.49,-165.57C452.83,-155.38 401.46,-140.7 369.31,-131.52"/>
<polygon fill="midnightblue" stroke="midnightblue" points="487.98,-169.06 498.55,-168.44 489.9,-162.33 487.98,-169.06"/>
</g>
<!-- Node15 -->
<g id="node15" class="node">
<title>Node15</title>
<g id="a_node15"><a xlink:href="../../df/da5/ReactionRateDelegator_8h.html" target="_top" xlink:title=" ">
<polygon fill="white" stroke="black" points="960.5,-112.5 960.5,-131.5 1098.5,-131.5 1098.5,-112.5 960.5,-112.5"/>
<text text-anchor="middle" x="1029.5" y="-119.5" font-family="Helvetica,sans-Serif" font-size="10.00">ReactionRateDelegator.h</text>
</a>
</g>
</g>
<!-- Node1&#45;&gt;Node15 -->
<g id="edge19" class="edge">
<title>Node1&#45;&gt;Node15</title>
<path fill="none" stroke="midnightblue" d="M574.51,-172.04C662.79,-162.53 856.4,-141.66 960.32,-130.46"/>
<polygon fill="midnightblue" stroke="midnightblue" points="574.1,-168.56 564.53,-173.12 574.85,-175.52 574.1,-168.56"/>
</g>
<!-- Node17 -->
<g id="node17" class="node">
<title>Node17</title>
<g id="a_node17"><a xlink:href="../../d6/d27/TwoTempPlasmaRate_8h.html" target="_top" xlink:title="Header for plasma reaction rates parameterized by two temperatures (gas and electron).">
<polygon fill="white" stroke="black" points="786,-112.5 786,-131.5 915,-131.5 915,-112.5 786,-112.5"/>
<text text-anchor="middle" x="850.5" y="-119.5" font-family="Helvetica,sans-Serif" font-size="10.00">TwoTempPlasmaRate.h</text>
</a>
</g>
</g>
<!-- Node1&#45;&gt;Node17 -->
<g id="edge21" class="edge">
<title>Node1&#45;&gt;Node17</title>
<path fill="none" stroke="midnightblue" d="M574.39,-169.3C634,-159.31 737.76,-141.91 799.69,-131.52"/>
<polygon fill="midnightblue" stroke="midnightblue" points="573.78,-165.86 564.5,-170.96 574.94,-172.76 573.78,-165.86"/>
</g>
<!-- Node6 -->
<g id="node6" class="node">
<title>Node6</title>
<g id="a_node6"><a xlink:href="../../d4/d81/BlowersMaselRate_8cpp.html" target="_top" xlink:title=" ">
<polygon fill="white" stroke="black" points="115.5,-56.5 115.5,-75.5 243.5,-75.5 243.5,-56.5 115.5,-56.5"/>
<text text-anchor="middle" x="179.5" y="-63.5" font-family="Helvetica,sans-Serif" font-size="10.00">BlowersMaselRate.cpp</text>
</a>
</g>
</g>
<!-- Node5&#45;&gt;Node6 -->
<g id="edge5" class="edge">
<title>Node5&#45;&gt;Node6</title>
<path fill="none" stroke="midnightblue" d="M196.16,-102.98C191.92,-93.82 186.95,-83.09 183.55,-75.75"/>
<polygon fill="midnightblue" stroke="midnightblue" points="192.99,-104.48 200.37,-112.08 199.35,-101.54 192.99,-104.48"/>
</g>
<!-- Node7 -->
<g id="node7" class="node">
<title>Node7</title>
<g id="a_node7"><a xlink:href="../../df/d45/InterfaceRate_8h.html" target="_top" xlink:title="Header for reaction rates that occur at interfaces.">
<polygon fill="white" stroke="black" points="5.5,-56.5 5.5,-75.5 97.5,-75.5 97.5,-56.5 5.5,-56.5"/>
<text text-anchor="middle" x="51.5" y="-63.5" font-family="Helvetica,sans-Serif" font-size="10.00">InterfaceRate.h</text>
</a>
</g>
</g>
<!-- Node5&#45;&gt;Node7 -->
<g id="edge6" class="edge">
<title>Node5&#45;&gt;Node7</title>
<path fill="none" stroke="midnightblue" d="M170.61,-109.04C141.82,-98.88 101.21,-84.55 75.63,-75.52"/>
<polygon fill="midnightblue" stroke="midnightblue" points="169.66,-112.42 180.26,-112.44 171.99,-105.81 169.66,-112.42"/>
</g>
<!-- Node7&#45;&gt;Node4 -->
<g id="edge8" class="edge">
<title>Node7&#45;&gt;Node4</title>
<path fill="none" stroke="midnightblue" d="M107.77,-55.94C286.24,-34.36 484.54,-20.95 586.4,-14.83"/>
<polygon fill="midnightblue" stroke="midnightblue" points="107.18,-52.48 97.67,-57.17 108.03,-59.43 107.18,-52.48"/>
</g>
<!-- Node8 -->
<g id="node8" class="node">
<title>Node8</title>
<g id="a_node8"><a xlink:href="../../d8/dc2/InterfaceRate_8cpp.html" target="_top" xlink:title=" ">
<polygon fill="white" stroke="black" points="0,-0.5 0,-19.5 103,-19.5 103,-0.5 0,-0.5"/>
<text text-anchor="middle" x="51.5" y="-7.5" font-family="Helvetica,sans-Serif" font-size="10.00">InterfaceRate.cpp</text>
</a>
</g>
</g>
<!-- Node7&#45;&gt;Node8 -->
<g id="edge7" class="edge">
<title>Node7&#45;&gt;Node8</title>
<path fill="none" stroke="midnightblue" d="M51.5,-45.8C51.5,-36.91 51.5,-26.78 51.5,-19.75"/>
<polygon fill="midnightblue" stroke="midnightblue" points="48,-46.08 51.5,-56.08 55,-46.08 48,-46.08"/>
</g>
<!-- Node9&#45;&gt;Node4 -->
<g id="edge11" class="edge">
<title>Node9&#45;&gt;Node4</title>
<path fill="none" stroke="midnightblue" d="M676.21,-106.07C685.56,-98.31 695.47,-87.95 700.5,-76 709.93,-53.57 684.65,-31.26 667.93,-19.51"/>
<polygon fill="midnightblue" stroke="midnightblue" points="674.06,-103.31 668.29,-112.19 678.34,-108.85 674.06,-103.31"/>
</g>
<!-- Node10 -->
<g id="node10" class="node">
<title>Node10</title>
<g id="a_node10"><a xlink:href="../../d5/dc4/Custom_8cpp.html" target="_top" xlink:title=" ">
<polygon fill="white" stroke="black" points="617.5,-56.5 617.5,-75.5 691.5,-75.5 691.5,-56.5 617.5,-56.5"/>
<text text-anchor="middle" x="654.5" y="-63.5" font-family="Helvetica,sans-Serif" font-size="10.00">Custom.cpp</text>
</a>
</g>
</g>
<!-- Node9&#45;&gt;Node10 -->
<g id="edge10" class="edge">
<title>Node9&#45;&gt;Node10</title>
<path fill="none" stroke="midnightblue" d="M654.5,-101.8C654.5,-92.91 654.5,-82.78 654.5,-75.75"/>
<polygon fill="midnightblue" stroke="midnightblue" points="651,-102.08 654.5,-112.08 658,-102.08 651,-102.08"/>
</g>
<!-- Node11&#45;&gt;Node3 -->
<g id="edge14" class="edge">
<title>Node11&#45;&gt;Node3</title>
<path fill="none" stroke="midnightblue" d="M505.21,-107.18C488.46,-97.24 466.4,-84.15 452.08,-75.65"/>
<polygon fill="midnightblue" stroke="midnightblue" points="503.49,-110.23 513.88,-112.32 507.07,-104.21 503.49,-110.23"/>
</g>
<!-- Node11&#45;&gt;Node4 -->
<g id="edge15" class="edge">
<title>Node11&#45;&gt;Node4</title>
<path fill="none" stroke="midnightblue" d="M546.24,-105.51C573.16,-82.01 623.45,-38.11 644.66,-19.59"/>
<polygon fill="midnightblue" stroke="midnightblue" points="543.62,-103.16 538.39,-112.37 548.22,-108.43 543.62,-103.16"/>
</g>
<!-- Node12 -->
<g id="node12" class="node">
<title>Node12</title>
<g id="a_node12"><a xlink:href="../../d7/d8a/Falloff_8cpp.html" target="_top" xlink:title="Definitions for member functions of classes derived from Falloff.">
<polygon fill="white" stroke="black" points="495.5,-56.5 495.5,-75.5 561.5,-75.5 561.5,-56.5 495.5,-56.5"/>
<text text-anchor="middle" x="528.5" y="-63.5" font-family="Helvetica,sans-Serif" font-size="10.00">Falloff.cpp</text>
</a>
</g>
</g>
<!-- Node11&#45;&gt;Node12 -->
<g id="edge13" class="edge">
<title>Node11&#45;&gt;Node12</title>
<path fill="none" stroke="midnightblue" d="M528.5,-101.8C528.5,-92.91 528.5,-82.78 528.5,-75.75"/>
<polygon fill="midnightblue" stroke="midnightblue" points="525,-102.08 528.5,-112.08 532,-102.08 525,-102.08"/>
</g>
<!-- Node13&#45;&gt;Node4 -->
<g id="edge18" class="edge">
<title>Node13&#45;&gt;Node4</title>
<path fill="none" stroke="midnightblue" d="M316.58,-106.8C297.55,-93.29 275.81,-72.62 290.5,-56 309.74,-34.23 486.54,-20.63 586.47,-14.62"/>
<polygon fill="midnightblue" stroke="midnightblue" points="314.74,-109.78 324.98,-112.47 318.65,-103.98 314.74,-109.78"/>
</g>
<!-- Node14 -->
<g id="node14" class="node">
<title>Node14</title>
<g id="a_node14"><a xlink:href="../../d8/dcf/PlogRate_8cpp.html" target="_top" xlink:title=" ">
<polygon fill="white" stroke="black" points="299.5,-56.5 299.5,-75.5 379.5,-75.5 379.5,-56.5 299.5,-56.5"/>
<text text-anchor="middle" x="339.5" y="-63.5" font-family="Helvetica,sans-Serif" font-size="10.00">PlogRate.cpp</text>
</a>
</g>
</g>
<!-- Node13&#45;&gt;Node14 -->
<g id="edge17" class="edge">
<title>Node13&#45;&gt;Node14</title>
<path fill="none" stroke="midnightblue" d="M339.5,-101.8C339.5,-92.91 339.5,-82.78 339.5,-75.75"/>
<polygon fill="midnightblue" stroke="midnightblue" points="336,-102.08 339.5,-112.08 343,-102.08 336,-102.08"/>
</g>
<!-- Node16 -->
<g id="node16" class="node">
<title>Node16</title>
<g id="a_node16"><a xlink:href="../../dd/d06/ReactionRateDelegator_8cpp.html" target="_top" xlink:title=" ">
<polygon fill="white" stroke="black" points="982,-56.5 982,-75.5 1131,-75.5 1131,-56.5 982,-56.5"/>
<text text-anchor="middle" x="1056.5" y="-63.5" font-family="Helvetica,sans-Serif" font-size="10.00">ReactionRateDelegator.cpp</text>
</a>
</g>
</g>
<!-- Node15&#45;&gt;Node16 -->
<g id="edge20" class="edge">
<title>Node15&#45;&gt;Node16</title>
<path fill="none" stroke="midnightblue" d="M1038.51,-102.98C1043.09,-93.82 1048.45,-83.09 1052.12,-75.75"/>
<polygon fill="midnightblue" stroke="midnightblue" points="1035.3,-101.57 1033.96,-112.08 1041.56,-104.7 1035.3,-101.57"/>
</g>
<!-- Node17&#45;&gt;Node4 -->
<g id="edge22" class="edge">
<title>Node17&#45;&gt;Node4</title>
<path fill="none" stroke="midnightblue" d="M834.49,-105.17C819.3,-90.84 795.32,-69.89 771.5,-56 743.67,-39.78 708.92,-27.27 684.54,-19.61"/>
<polygon fill="midnightblue" stroke="midnightblue" points="832.34,-107.96 841.97,-112.37 837.19,-102.92 832.34,-107.96"/>
</g>
<!-- Node18 -->
<g id="node18" class="node">
<title>Node18</title>
<g id="a_node18"><a xlink:href="../../de/d71/TwoTempPlasmaRate_8cpp.html" target="_top" xlink:title=" ">
<polygon fill="white" stroke="black" points="823.5,-56.5 823.5,-75.5 963.5,-75.5 963.5,-56.5 823.5,-56.5"/>
<text text-anchor="middle" x="893.5" y="-63.5" font-family="Helvetica,sans-Serif" font-size="10.00">TwoTempPlasmaRate.cpp</text>
</a>
</g>
</g>
<!-- Node17&#45;&gt;Node18 -->
<g id="edge23" class="edge">
<title>Node17&#45;&gt;Node18</title>
<path fill="none" stroke="midnightblue" d="M863.92,-104.14C871.41,-94.74 880.44,-83.4 886.53,-75.75"/>
<polygon fill="midnightblue" stroke="midnightblue" points="861.09,-102.08 857.6,-112.08 866.57,-106.44 861.09,-102.08"/>
</g>
</g>
</svg>
