<?xml version="1.0" encoding="UTF-8" standalone="no"?>
<!DOCTYPE svg PUBLIC "-//W3C//DTD SVG 1.1//EN"
 "http://www.w3.org/Graphics/SVG/1.1/DTD/svg11.dtd">
<!-- Generated by graphviz version 6.0.1 (0)
 -->
<!-- Title: PDSS_HKFT.cpp Pages: 1 -->
<!--zoomable 544 -->

<svg id="main" version="1.1" xmlns="http://www.w3.org/2000/svg" xmlns:xlink="http://www.w3.org/1999/xlink" xml:space="preserve" onload="init(evt)">
<style type="text/css"><![CDATA[
.node, .edge {opacity: 0.7;}
.node.selected, .edge.selected {opacity: 1;}
.edge:hover path { stroke: red; }
.edge:hover polygon { stroke: red; fill: red; }
]]></style>

<defs>
  <circle id="rim" cx="0" cy="0" r="7"/>
  <circle id="rim2" cx="0" cy="0" r="3.5"/>
  <g id="zoomPlus">
    <use xlink:href="#rim" fill="#404040"><set attributeName="fill" to="#808080" begin="zoomplus.mouseover" end="zoomplus.mouseout"/></use>
    <path d="M-4,0h8M0,-4v8" fill="none" stroke="white" stroke-width="1.5" pointer-events="none"/>
  </g>
  <g id="zoomMin">
    <use xlink:href="#rim" fill="#404040"><set attributeName="fill" to="#808080" begin="zoomminus.mouseover" end="zoomminus.mouseout"/></use>
    <path d="M-4,0h8" fill="none" stroke="white" stroke-width="1.5" pointer-events="none"/>
  </g>
  <g id="arrowUp" transform="translate(30 24)">
    <use xlink:href="#rim"/>
    <path pointer-events="none" fill="none" stroke="white" stroke-width="1.5" d="M0,-3.0v7 M-2.5,-0.5L0,-3.0L2.5,-0.5"/>
  </g>
  <g id="arrowRight" transform="rotate(90) translate(36 -43)">
    <use xlink:href="#rim"/>
    <path pointer-events="none" fill="none" stroke="white" stroke-width="1.5" d="M0,-3.0v7 M-2.5,-0.5L0,-3.0L2.5,-0.5"/>
  </g>
  <g id="arrowDown" transform="rotate(180) translate(-30 -48)">
    <use xlink:href="#rim"/>
    <path pointer-events="none" fill="none" stroke="white" stroke-width="1.5" d="M0,-3.0v7 M-2.5,-0.5L0,-3.0L2.5,-0.5"/>
  </g>
  <g id="arrowLeft" transform="rotate(270) translate(-36 17)">
    <use xlink:href="#rim"/>
    <path pointer-events="none" fill="none" stroke="white" stroke-width="1.5" d="M0,-3.0v7 M-2.5,-0.5L0,-3.0L2.5,-0.5"/>
  </g>
  <g id="resetDef">
    <use xlink:href="#rim2" fill="#404040"><set attributeName="fill" to="#808080" begin="reset.mouseover" end="reset.mouseout"/></use>
  </g>
</defs>
<script type="application/ecmascript">
var viewWidth = 1237;
var viewHeight = 544;
var sectionId = 'dynsection-0';
</script>
<script type="application/ecmascript" xlink:href="../../svg.min.js"/>
<svg id="graph" class="graph">
<g id="viewport">
<title>PDSS_HKFT.cpp</title>
<!-- Node1 -->
<g id="Node000001" class="node">
<title>Node1</title>
<g id="a_Node000001"><a xlink:title="Definitions for the class PDSS_HKFT (pressure dependent standard state) which handles calculations fo...">
<polygon fill="#999999" stroke="#666666" points="767.5,-536 674.5,-536 674.5,-517 767.5,-517 767.5,-536"/>
<text text-anchor="middle" x="721" y="-524" font-family="Helvetica,sans-Serif" font-size="10.00">PDSS_HKFT.cpp</text>
</a>
</g>
</g>
<!-- Node2 -->
<g id="Node000002" class="node">
<title>Node2</title>
<g id="a_Node000002"><a xlink:href="../../db/df3/PDSS__HKFT_8h.html" target="_top" xlink:title="Declarations for the class PDSS_HKFT (pressure dependent standard state) which handles calculations f...">
<polygon fill="white" stroke="#666666" points="442.5,-360 329.5,-360 329.5,-330 442.5,-330 442.5,-360"/>
<text text-anchor="start" x="337.5" y="-348" font-family="Helvetica,sans-Serif" font-size="10.00">cantera/thermo/PDSS</text>
<text text-anchor="middle" x="386" y="-337" font-family="Helvetica,sans-Serif" font-size="10.00">_HKFT.h</text>
</a>
</g>
</g>
<!-- Node1&#45;&gt;Node2 -->
<g id="edge1_Node000001_Node000002" class="edge">
<title>Node1&#45;&gt;Node2</title>
<g id="a_edge1_Node000001_Node000002"><a xlink:title=" ">
<path fill="none" stroke="#63b8ff" d="M704.84,-516.84C653.56,-489.36 493.61,-403.66 421.68,-365.12"/>
<polygon fill="#63b8ff" stroke="#63b8ff" points="423.01,-361.86 412.54,-360.22 419.7,-368.03 423.01,-361.86"/>
</a>
</g>
</g>
<!-- Node28 -->
<g id="Node000028" class="node">
<title>Node28</title>
<g id="a_Node000028"><a xlink:href="../../d8/d6d/PDSS__Water_8h.html" target="_top" xlink:title="Implementation of a pressure dependent standard state virtual function for a Pure Water Phase (see Sp...">
<polygon fill="white" stroke="#666666" points="311.5,-360 198.5,-360 198.5,-330 311.5,-330 311.5,-360"/>
<text text-anchor="start" x="206.5" y="-348" font-family="Helvetica,sans-Serif" font-size="10.00">cantera/thermo/PDSS</text>
<text text-anchor="middle" x="255" y="-337" font-family="Helvetica,sans-Serif" font-size="10.00">_Water.h</text>
</a>
</g>
</g>
<!-- Node1&#45;&gt;Node28 -->
<g id="edge29_Node000001_Node000028" class="edge">
<title>Node1&#45;&gt;Node28</title>
<g id="a_edge29_Node000001_Node000028"><a xlink:title=" ">
<path fill="none" stroke="#63b8ff" d="M691.09,-516.99C662.17,-508.56 617.23,-494.92 579,-481 475.46,-443.29 356.54,-391.5 295.62,-364.33"/>
<polygon fill="#63b8ff" stroke="#63b8ff" points="296.91,-361.08 286.36,-360.19 294.06,-367.47 296.91,-361.08"/>
</a>
</g>
</g>
<!-- Node31 -->
<g id="Node000031" class="node">
<title>Node31</title>
<g id="a_Node000031"><a xlink:href="../../df/dfd/VPStandardStateTP_8h.html" target="_top" xlink:title="Header file for a derived class of ThermoPhase that handles variable pressure standard state methods ...">
<polygon fill="white" stroke="#666666" points="789.5,-481 652.5,-481 652.5,-451 789.5,-451 789.5,-481"/>
<text text-anchor="start" x="660.5" y="-469" font-family="Helvetica,sans-Serif" font-size="10.00">cantera/thermo/VPStandard</text>
<text text-anchor="middle" x="721" y="-458" font-family="Helvetica,sans-Serif" font-size="10.00">StateTP.h</text>
</a>
</g>
</g>
<!-- Node1&#45;&gt;Node31 -->
<g id="edge35_Node000001_Node000031" class="edge">
<title>Node1&#45;&gt;Node31</title>
<g id="a_edge35_Node000001_Node000031"><a xlink:title=" ">
<path fill="none" stroke="#63b8ff" d="M721,-516.87C721,-510.11 721,-500.35 721,-491.26"/>
<polygon fill="#63b8ff" stroke="#63b8ff" points="724.5,-491.11 721,-481.11 717.5,-491.11 724.5,-491.11"/>
</a>
</g>
</g>
<!-- Node39 -->
<g id="Node000039" class="node">
<title>Node39</title>
<g id="a_Node000039"><a xlink:href="../../dd/dc3/stringUtils_8h.html" target="_top" xlink:title="Contains declarations for string manipulation functions within Cantera.">
<polygon fill="white" stroke="#666666" points="1229,-415 1101,-415 1101,-396 1229,-396 1229,-415"/>
<text text-anchor="middle" x="1165" y="-403" font-family="Helvetica,sans-Serif" font-size="10.00">cantera/base/stringUtils.h</text>
</a>
</g>
</g>
<!-- Node1&#45;&gt;Node39 -->
<g id="edge50_Node000001_Node000039" class="edge">
<title>Node1&#45;&gt;Node39</title>
<g id="a_edge50_Node000001_Node000039"><a xlink:title=" ">
<path fill="none" stroke="#63b8ff" d="M767.81,-523.01C851.57,-518.01 1023.44,-505.11 1078,-481 1108.01,-467.74 1135.48,-440.62 1151.21,-423.02"/>
<polygon fill="#63b8ff" stroke="#63b8ff" points="1154.05,-425.1 1157.95,-415.25 1148.76,-420.51 1154.05,-425.1"/>
</a>
</g>
</g>
<!-- Node40 -->
<g id="Node000040" class="node">
<title>Node40</title>
<g id="a_Node000040"><a xlink:href="../../d2/d49/global_8h.html" target="_top" xlink:title="This file contains definitions for utility functions and text for modules, inputfiles and logging,...">
<polygon fill="white" stroke="#666666" points="1146,-184 1036,-184 1036,-165 1146,-165 1146,-184"/>
<text text-anchor="middle" x="1091" y="-172" font-family="Helvetica,sans-Serif" font-size="10.00">cantera/base/global.h</text>
</a>
</g>
</g>
<!-- Node1&#45;&gt;Node40 -->
<g id="edge52_Node000001_Node000040" class="edge">
<title>Node1&#45;&gt;Node40</title>
<g id="a_edge52_Node000001_Node000040"><a xlink:title=" ">
<path fill="none" stroke="#63b8ff" d="M767.62,-519.29C861.4,-505.49 1064,-468.51 1064,-406.5 1064,-406.5 1064,-406.5 1064,-283.5 1064,-251.09 1075.58,-214.81 1083.58,-193.63"/>
<polygon fill="#63b8ff" stroke="#63b8ff" points="1086.85,-194.86 1087.25,-184.27 1080.33,-192.3 1086.85,-194.86"/>
</a>
</g>
</g>
<!-- Node3 -->
<g id="Node000003" class="node">
<title>Node3</title>
<g id="a_Node000003"><a xlink:href="../../d7/dfa/PDSS_8h.html" target="_top" xlink:title="Declarations for the virtual base class PDSS (pressure dependent standard state) which handles calcul...">
<polygon fill="white" stroke="#666666" points="388.5,-294 335.5,-294 335.5,-275 388.5,-275 388.5,-294"/>
<text text-anchor="middle" x="362" y="-282" font-family="Helvetica,sans-Serif" font-size="10.00">PDSS.h</text>
</a>
</g>
</g>
<!-- Node2&#45;&gt;Node3 -->
<g id="edge2_Node000002_Node000003" class="edge">
<title>Node2&#45;&gt;Node3</title>
<g id="a_edge2_Node000002_Node000003"><a xlink:title=" ">
<path fill="none" stroke="#63b8ff" d="M380.19,-329.84C376.96,-321.95 372.89,-312.05 369.43,-303.61"/>
<polygon fill="#63b8ff" stroke="#63b8ff" points="372.63,-302.19 365.6,-294.27 366.15,-304.85 372.63,-302.19"/>
</a>
</g>
</g>
<!-- Node27 -->
<g id="Node000027" class="node">
<title>Node27</title>
<g id="a_Node000027"><a xlink:href="../../db/d4b/WaterProps_8h.html" target="_top" xlink:title="Header for a class used to house several approximation routines for properties of water.">
<polygon fill="white" stroke="#666666" points="293,-294 217,-294 217,-275 293,-275 293,-294"/>
<text text-anchor="middle" x="255" y="-282" font-family="Helvetica,sans-Serif" font-size="10.00">WaterProps.h</text>
</a>
</g>
</g>
<!-- Node2&#45;&gt;Node27 -->
<g id="edge27_Node000002_Node000027" class="edge">
<title>Node2&#45;&gt;Node27</title>
<g id="a_edge27_Node000002_Node000027"><a xlink:title=" ">
<path fill="none" stroke="#63b8ff" d="M354.62,-329.99C333.06,-320.36 304.65,-307.67 283.69,-298.31"/>
<polygon fill="#63b8ff" stroke="#63b8ff" points="284.9,-295.02 274.35,-294.14 282.05,-301.41 284.9,-295.02"/>
</a>
</g>
</g>
<!-- Node4 -->
<g id="Node000004" class="node">
<title>Node4</title>
<g id="a_Node000004"><a xlink:href="../../d9/ddc/ct__defs_8h.html" target="_top" xlink:title="This file contains definitions of constants, types and terms that are used in internal routines and a...">
<polygon fill="white" stroke="#666666" points="793,-74 677,-74 677,-55 793,-55 793,-74"/>
<text text-anchor="middle" x="735" y="-62" font-family="Helvetica,sans-Serif" font-size="10.00">cantera/base/ct_defs.h</text>
</a>
</g>
</g>
<!-- Node3&#45;&gt;Node4 -->
<g id="edge3_Node000003_Node000004" class="edge">
<title>Node3&#45;&gt;Node4</title>
<g id="a_edge3_Node000003_Node000004"><a xlink:title=" ">
<path fill="none" stroke="#63b8ff" d="M335.28,-276.56C282.57,-261.45 173.12,-222.29 207,-165 253.21,-86.84 534.48,-70.02 666.58,-66.44"/>
<polygon fill="#63b8ff" stroke="#63b8ff" points="666.69,-69.94 676.6,-66.19 666.51,-62.94 666.69,-69.94"/>
</a>
</g>
</g>
<!-- Node15 -->
<g id="Node000015" class="node">
<title>Node15</title>
<g id="a_Node000015"><a xlink:href="../../dd/d2a/AnyMap_8h.html" target="_top" xlink:title=" ">
<polygon fill="white" stroke="#666666" points="638,-239 518,-239 518,-220 638,-220 638,-239"/>
<text text-anchor="middle" x="578" y="-227" font-family="Helvetica,sans-Serif" font-size="10.00">cantera/base/AnyMap.h</text>
</a>
</g>
</g>
<!-- Node3&#45;&gt;Node15 -->
<g id="edge14_Node000003_Node000015" class="edge">
<title>Node3&#45;&gt;Node15</title>
<g id="a_edge14_Node000003_Node000015"><a xlink:title=" ">
<path fill="none" stroke="#63b8ff" d="M388.92,-276.89C425.12,-268.01 489.95,-252.11 533.47,-241.43"/>
<polygon fill="#63b8ff" stroke="#63b8ff" points="534.35,-244.81 543.23,-239.03 532.68,-238.02 534.35,-244.81"/>
</a>
</g>
</g>
<!-- Node5 -->
<g id="Node000005" class="node">
<title>Node5</title>
<g id="a_Node000005"><a xlink:href="../../db/d16/config_8h_source.html" target="_top" xlink:title=" ">
<polygon fill="white" stroke="#666666" points="366.5,-19 315.5,-19 315.5,0 366.5,0 366.5,-19"/>
<text text-anchor="middle" x="341" y="-7" font-family="Helvetica,sans-Serif" font-size="10.00">config.h</text>
</a>
</g>
</g>
<!-- Node4&#45;&gt;Node5 -->
<g id="edge4_Node000004_Node000005" class="edge">
<title>Node4&#45;&gt;Node5</title>
<g id="a_edge4_Node000004_Node000005"><a xlink:title=" ">
<path fill="none" stroke="#63b8ff" d="M676.86,-55.68C594.17,-44.56 445.04,-24.5 376.82,-15.32"/>
<polygon fill="#63b8ff" stroke="#63b8ff" points="376.97,-11.81 366.59,-13.94 376.03,-18.74 376.97,-11.81"/>
</a>
</g>
</g>
<!-- Node6 -->
<g id="Node000006" class="node">
<title>Node6</title>
<g id="a_Node000006"><a xlink:title=" ">
<polygon fill="#e0e0e0" stroke="#999999" points="827,-19 783,-19 783,0 827,0 827,-19"/>
<text text-anchor="middle" x="805" y="-7" font-family="Helvetica,sans-Serif" font-size="10.00">cmath</text>
</a>
</g>
</g>
<!-- Node4&#45;&gt;Node6 -->
<g id="edge5_Node000004_Node000006" class="edge">
<title>Node4&#45;&gt;Node6</title>
<g id="a_edge5_Node000004_Node000006"><a xlink:title=" ">
<path fill="none" stroke="#63b8ff" d="M746.25,-54.98C756.8,-47 772.8,-34.88 785.44,-25.31"/>
<polygon fill="#63b8ff" stroke="#63b8ff" points="787.69,-28 793.55,-19.17 783.46,-22.42 787.69,-28"/>
</a>
</g>
</g>
<!-- Node7 -->
<g id="Node000007" class="node">
<title>Node7</title>
<g id="a_Node000007"><a xlink:title=" ">
<polygon fill="#e0e0e0" stroke="#999999" points="890.5,-19 845.5,-19 845.5,0 890.5,0 890.5,-19"/>
<text text-anchor="middle" x="868" y="-7" font-family="Helvetica,sans-Serif" font-size="10.00">cstdlib</text>
</a>
</g>
</g>
<!-- Node4&#45;&gt;Node7 -->
<g id="edge6_Node000004_Node000007" class="edge">
<title>Node4&#45;&gt;Node7</title>
<g id="a_edge6_Node000004_Node000007"><a xlink:title=" ">
<path fill="none" stroke="#63b8ff" d="M756.37,-54.98C778.15,-46.3 812.16,-32.75 836.92,-22.88"/>
<polygon fill="#63b8ff" stroke="#63b8ff" points="838.25,-26.12 846.24,-19.17 835.66,-19.62 838.25,-26.12"/>
</a>
</g>
</g>
<!-- Node8 -->
<g id="Node000008" class="node">
<title>Node8</title>
<g id="a_Node000008"><a xlink:title=" ">
<polygon fill="#e0e0e0" stroke="#999999" points="953,-19 909,-19 909,0 953,0 953,-19"/>
<text text-anchor="middle" x="931" y="-7" font-family="Helvetica,sans-Serif" font-size="10.00">vector</text>
</a>
</g>
</g>
<!-- Node4&#45;&gt;Node8 -->
<g id="edge7_Node000004_Node000008" class="edge">
<title>Node4&#45;&gt;Node8</title>
<g id="a_edge7_Node000004_Node000008"><a xlink:title=" ">
<path fill="none" stroke="#63b8ff" d="M766.49,-54.98C802.89,-45.14 862.47,-29.03 899.06,-19.14"/>
<polygon fill="#63b8ff" stroke="#63b8ff" points="899.99,-22.51 908.73,-16.52 898.16,-15.75 899.99,-22.51"/>
</a>
</g>
</g>
<!-- Node9 -->
<g id="Node000009" class="node">
<title>Node9</title>
<g id="a_Node000009"><a xlink:title=" ">
<polygon fill="#e0e0e0" stroke="#999999" points="1006.5,-19 971.5,-19 971.5,0 1006.5,0 1006.5,-19"/>
<text text-anchor="middle" x="989" y="-7" font-family="Helvetica,sans-Serif" font-size="10.00">map</text>
</a>
</g>
</g>
<!-- Node4&#45;&gt;Node9 -->
<g id="edge8_Node000004_Node000009" class="edge">
<title>Node4&#45;&gt;Node9</title>
<g id="a_edge8_Node000004_Node000009"><a xlink:title=" ">
<path fill="none" stroke="#63b8ff" d="M787.21,-54.97C831.2,-47.4 895.95,-35.36 961.3,-18.93"/>
<polygon fill="#63b8ff" stroke="#63b8ff" points="962.54,-22.22 971.36,-16.36 960.81,-15.44 962.54,-22.22"/>
</a>
</g>
</g>
<!-- Node10 -->
<g id="Node000010" class="node">
<title>Node10</title>
<g id="a_Node000010"><a xlink:title=" ">
<polygon fill="#e0e0e0" stroke="#999999" points="483,-19 453,-19 453,0 483,0 483,-19"/>
<text text-anchor="middle" x="468" y="-7" font-family="Helvetica,sans-Serif" font-size="10.00">set</text>
</a>
</g>
</g>
<!-- Node4&#45;&gt;Node10 -->
<g id="edge9_Node000004_Node000010" class="edge">
<title>Node4&#45;&gt;Node10</title>
<g id="a_edge9_Node000004_Node000010"><a xlink:title=" ">
<path fill="none" stroke="#63b8ff" d="M676.98,-55.53C629.71,-48.44 561.16,-36.8 493.15,-18.94"/>
<polygon fill="#63b8ff" stroke="#63b8ff" points="493.69,-15.47 483.12,-16.27 491.88,-22.23 493.69,-15.47"/>
</a>
</g>
</g>
<!-- Node11 -->
<g id="Node000011" class="node">
<title>Node11</title>
<g id="a_Node000011"><a xlink:title=" ">
<polygon fill="#e0e0e0" stroke="#999999" points="542.5,-19 501.5,-19 501.5,0 542.5,0 542.5,-19"/>
<text text-anchor="middle" x="522" y="-7" font-family="Helvetica,sans-Serif" font-size="10.00">string</text>
</a>
</g>
</g>
<!-- Node4&#45;&gt;Node11 -->
<g id="edge10_Node000004_Node000011" class="edge">
<title>Node4&#45;&gt;Node11</title>
<g id="a_edge10_Node000004_Node000011"><a xlink:title=" ">
<path fill="none" stroke="#63b8ff" d="M698.09,-54.96C663.09,-46.75 608.78,-33.79 552.43,-19.03"/>
<polygon fill="#63b8ff" stroke="#63b8ff" points="553.19,-15.61 542.63,-16.45 551.41,-22.38 553.19,-15.61"/>
</a>
</g>
</g>
<!-- Node12 -->
<g id="Node000012" class="node">
<title>Node12</title>
<g id="a_Node000012"><a xlink:title=" ">
<polygon fill="#e0e0e0" stroke="#999999" points="617,-19 561,-19 561,0 617,0 617,-19"/>
<text text-anchor="middle" x="589" y="-7" font-family="Helvetica,sans-Serif" font-size="10.00">algorithm</text>
</a>
</g>
</g>
<!-- Node4&#45;&gt;Node12 -->
<g id="edge11_Node000004_Node000012" class="edge">
<title>Node4&#45;&gt;Node12</title>
<g id="a_edge11_Node000004_Node000012"><a xlink:title=" ">
<path fill="none" stroke="#63b8ff" d="M711.54,-54.98C687.42,-46.23 649.63,-32.51 622.4,-22.62"/>
<polygon fill="#63b8ff" stroke="#63b8ff" points="623.48,-19.29 612.88,-19.17 621.09,-25.87 623.48,-19.29"/>
</a>
</g>
</g>
<!-- Node13 -->
<g id="Node000013" class="node">
<title>Node13</title>
<g id="a_Node000013"><a xlink:title=" ">
<polygon fill="#e0e0e0" stroke="#999999" points="687,-19 635,-19 635,0 687,0 687,-19"/>
<text text-anchor="middle" x="661" y="-7" font-family="Helvetica,sans-Serif" font-size="10.00">memory</text>
</a>
</g>
</g>
<!-- Node4&#45;&gt;Node13 -->
<g id="edge12_Node000004_Node000013" class="edge">
<title>Node4&#45;&gt;Node13</title>
<g id="a_edge12_Node000004_Node000013"><a xlink:title=" ">
<path fill="none" stroke="#63b8ff" d="M723.11,-54.98C711.85,-46.92 694.71,-34.65 681.29,-25.03"/>
<polygon fill="#63b8ff" stroke="#63b8ff" points="683.27,-22.15 673.11,-19.17 679.2,-27.84 683.27,-22.15"/>
</a>
</g>
</g>
<!-- Node14 -->
<g id="Node000014" class="node">
<title>Node14</title>
<g id="a_Node000014"><a xlink:title=" ">
<polygon fill="#e0e0e0" stroke="#999999" points="764.5,-19 705.5,-19 705.5,0 764.5,0 764.5,-19"/>
<text text-anchor="middle" x="735" y="-7" font-family="Helvetica,sans-Serif" font-size="10.00">functional</text>
</a>
</g>
</g>
<!-- Node4&#45;&gt;Node14 -->
<g id="edge13_Node000004_Node000014" class="edge">
<title>Node4&#45;&gt;Node14</title>
<g id="a_edge13_Node000004_Node000014"><a xlink:title=" ">
<path fill="none" stroke="#63b8ff" d="M735,-54.75C735,-47.8 735,-37.85 735,-29.13"/>
<polygon fill="#63b8ff" stroke="#63b8ff" points="738.5,-29.09 735,-19.09 731.5,-29.09 738.5,-29.09"/>
</a>
</g>
</g>
<!-- Node15&#45;&gt;Node4 -->
<g id="edge15_Node000015_Node000004" class="edge">
<title>Node15&#45;&gt;Node4</title>
<g id="a_edge15_Node000015_Node000004"><a xlink:title=" ">
<path fill="none" stroke="#63b8ff" d="M520.95,-219.97C463.01,-210.73 380.49,-195.74 371,-184 365.69,-177.43 365.88,-171.71 371,-165 406.72,-118.21 571.65,-88.08 666.79,-74.28"/>
<polygon fill="#63b8ff" stroke="#63b8ff" points="667.5,-77.71 676.9,-72.83 666.51,-70.78 667.5,-77.71"/>
</a>
</g>
</g>
<!-- Node16 -->
<g id="Node000016" class="node">
<title>Node16</title>
<g id="a_Node000016"><a xlink:href="../../db/d98/ctexceptions_8h.html" target="_top" xlink:title="Definitions for the classes that are thrown when Cantera experiences an error condition (also contain...">
<polygon fill="#fff0f0" stroke="red" points="980,-184 840,-184 840,-165 980,-165 980,-184"/>
<text text-anchor="middle" x="910" y="-172" font-family="Helvetica,sans-Serif" font-size="10.00">cantera/base/ctexceptions.h</text>
</a>
</g>
</g>
<!-- Node15&#45;&gt;Node16 -->
<g id="edge16_Node000015_Node000016" class="edge">
<title>Node15&#45;&gt;Node16</title>
<g id="a_edge16_Node000015_Node000016"><a xlink:title=" ">
<path fill="none" stroke="#63b8ff" d="M631.34,-219.98C689.94,-210.63 784.01,-195.61 846.4,-185.65"/>
<polygon fill="#63b8ff" stroke="#63b8ff" points="847.19,-189.07 856.52,-184.04 846.09,-182.16 847.19,-189.07"/>
</a>
</g>
</g>
<!-- Node22 -->
<g id="Node000022" class="node">
<title>Node22</title>
<g id="a_Node000022"><a xlink:href="../../da/d58/Units_8h.html" target="_top" xlink:title="Header for unit conversion utilities, which are used to translate user input from input files (See In...">
<polygon fill="white" stroke="#666666" points="323.5,-184 216.5,-184 216.5,-165 323.5,-165 323.5,-184"/>
<text text-anchor="middle" x="270" y="-172" font-family="Helvetica,sans-Serif" font-size="10.00">cantera/base/Units.h</text>
</a>
</g>
</g>
<!-- Node15&#45;&gt;Node22 -->
<g id="edge20_Node000015_Node000022" class="edge">
<title>Node15&#45;&gt;Node22</title>
<g id="a_edge20_Node000015_Node000022"><a xlink:title=" ">
<path fill="none" stroke="#63b8ff" d="M528.51,-219.98C474.37,-210.67 387.6,-195.74 329.72,-185.78"/>
<polygon fill="#63b8ff" stroke="#63b8ff" points="330.07,-182.28 319.62,-184.04 328.88,-189.18 330.07,-182.28"/>
</a>
</g>
</g>
<!-- Node23 -->
<g id="Node000023" class="node">
<title>Node23</title>
<g id="a_Node000023"><a xlink:title=" ">
<polygon fill="#e0e0e0" stroke="#999999" points="463.5,-184 380.5,-184 380.5,-165 463.5,-165 463.5,-184"/>
<text text-anchor="middle" x="422" y="-172" font-family="Helvetica,sans-Serif" font-size="10.00">unordered_map</text>
</a>
</g>
</g>
<!-- Node15&#45;&gt;Node23 -->
<g id="edge22_Node000015_Node000023" class="edge">
<title>Node15&#45;&gt;Node23</title>
<g id="a_edge22_Node000015_Node000023"><a xlink:title=" ">
<path fill="none" stroke="#63b8ff" d="M552.94,-219.98C526.97,-211.16 486.19,-197.31 457.04,-187.41"/>
<polygon fill="#63b8ff" stroke="#63b8ff" points="457.85,-183.99 447.26,-184.08 455.6,-190.61 457.85,-183.99"/>
</a>
</g>
</g>
<!-- Node24 -->
<g id="Node000024" class="node">
<title>Node24</title>
<g id="a_Node000024"><a xlink:title=" ">
<polygon fill="#e0e0e0" stroke="#999999" points="544,-184 482,-184 482,-165 544,-165 544,-184"/>
<text text-anchor="middle" x="513" y="-172" font-family="Helvetica,sans-Serif" font-size="10.00">filesystem</text>
</a>
</g>
</g>
<!-- Node15&#45;&gt;Node24 -->
<g id="edge23_Node000015_Node000024" class="edge">
<title>Node15&#45;&gt;Node24</title>
<g id="a_edge23_Node000015_Node000024"><a xlink:title=" ">
<path fill="none" stroke="#63b8ff" d="M567.56,-219.98C557.85,-212.07 543.18,-200.11 531.5,-190.58"/>
<polygon fill="#63b8ff" stroke="#63b8ff" points="533.6,-187.78 523.63,-184.17 529.17,-193.2 533.6,-187.78"/>
</a>
</g>
</g>
<!-- Node25 -->
<g id="Node000025" class="node">
<title>Node25</title>
<g id="a_Node000025"><a xlink:title=" ">
<polygon fill="#e0e0e0" stroke="#999999" points="594,-184 562,-184 562,-165 594,-165 594,-184"/>
<text text-anchor="middle" x="578" y="-172" font-family="Helvetica,sans-Serif" font-size="10.00">any</text>
</a>
</g>
</g>
<!-- Node15&#45;&gt;Node25 -->
<g id="edge24_Node000015_Node000025" class="edge">
<title>Node15&#45;&gt;Node25</title>
<g id="a_edge24_Node000015_Node000025"><a xlink:title=" ">
<path fill="none" stroke="#63b8ff" d="M578,-219.75C578,-212.8 578,-202.85 578,-194.13"/>
<polygon fill="#63b8ff" stroke="#63b8ff" points="581.5,-194.09 578,-184.09 574.5,-194.09 581.5,-194.09"/>
</a>
</g>
</g>
<!-- Node26 -->
<g id="Node000026" class="node">
<title>Node26</title>
<g id="a_Node000026"><a xlink:href="../../da/d4c/AnyMap_8inl_8h.html" target="_top" xlink:title=" ">
<polygon fill="white" stroke="#666666" points="745.5,-184 612.5,-184 612.5,-165 745.5,-165 745.5,-184"/>
<text text-anchor="middle" x="679" y="-172" font-family="Helvetica,sans-Serif" font-size="10.00">cantera/base/AnyMap.inl.h</text>
</a>
</g>
</g>
<!-- Node15&#45;&gt;Node26 -->
<g id="edge25_Node000015_Node000026" class="edge">
<title>Node15&#45;&gt;Node26</title>
<g id="a_edge25_Node000015_Node000026"><a xlink:title=" ">
<path fill="none" stroke="#63b8ff" d="M589.11,-219.98C603.41,-211.5 628.21,-198.35 648.23,-188.54"/>
<polygon fill="#63b8ff" stroke="#63b8ff" points="649.83,-191.66 657.33,-184.17 646.8,-185.35 649.83,-191.66"/>
</a>
</g>
</g>
<!-- Node16&#45;&gt;Node4 -->
<g id="edge17_Node000016_Node000004" class="edge">
<title>Node16&#45;&gt;Node4</title>
<g id="a_edge17_Node000016_Node000004"><a xlink:title=" ">
<path fill="none" stroke="#63b8ff" d="M909.6,-164.77C908.51,-151.14 904.39,-124.82 889,-110 866.03,-87.89 832.78,-76.66 803.06,-70.99"/>
<polygon fill="#63b8ff" stroke="#63b8ff" points="803.58,-67.53 793.13,-69.28 802.39,-74.43 803.58,-67.53"/>
</a>
</g>
</g>
<!-- Node17 -->
<g id="Node000017" class="node">
<title>Node17</title>
<g id="a_Node000017"><a xlink:href="../../db/def/fmt_8h.html" target="_top" xlink:title="Wrapper for either system&#45;installed or local headers for fmt.">
<polygon fill="#fff0f0" stroke="red" points="1091,-129 993,-129 993,-110 1091,-110 1091,-129"/>
<text text-anchor="middle" x="1042" y="-117" font-family="Helvetica,sans-Serif" font-size="10.00">cantera/base/fmt.h</text>
</a>
</g>
</g>
<!-- Node16&#45;&gt;Node17 -->
<g id="edge18_Node000016_Node000017" class="edge">
<title>Node16&#45;&gt;Node17</title>
<g id="a_edge18_Node000016_Node000017"><a xlink:title=" ">
<path fill="none" stroke="#63b8ff" d="M931.21,-164.98C952.73,-156.34 986.28,-142.87 1010.83,-133.02"/>
<polygon fill="#63b8ff" stroke="#63b8ff" points="1012.43,-136.14 1020.41,-129.17 1009.82,-129.65 1012.43,-136.14"/>
</a>
</g>
</g>
<!-- Node17&#45;&gt;Node4 -->
<g id="edge19_Node000017_Node000004" class="edge">
<title>Node17&#45;&gt;Node4</title>
<g id="a_edge19_Node000017_Node000004"><a xlink:title=" ">
<path fill="none" stroke="#63b8ff" d="M992.68,-109.98C938.71,-100.67 852.22,-85.74 794.52,-75.78"/>
<polygon fill="#63b8ff" stroke="#63b8ff" points="794.91,-72.29 784.46,-74.04 793.72,-79.19 794.91,-72.29"/>
</a>
</g>
</g>
<!-- Node22&#45;&gt;Node4 -->
<g id="edge21_Node000022_Node000004" class="edge">
<title>Node22&#45;&gt;Node4</title>
<g id="a_edge21_Node000022_Node000004"><a xlink:title=" ">
<path fill="none" stroke="#63b8ff" d="M276.35,-164.67C287.18,-150.39 310.71,-122.56 338,-110 394.89,-83.81 569.11,-72.43 666.79,-67.99"/>
<polygon fill="#63b8ff" stroke="#63b8ff" points="667.03,-71.48 676.86,-67.55 666.72,-64.49 667.03,-71.48"/>
</a>
</g>
</g>
<!-- Node26&#45;&gt;Node15 -->
<g id="edge26_Node000026_Node000015" class="edge">
<title>Node26&#45;&gt;Node15</title>
<g id="a_edge26_Node000026_Node000015"><a xlink:title=" ">
<path fill="none" stroke="#63b8ff" d="M667.63,-184.17C653.2,-192.71 628.37,-205.87 608.4,-215.63"/>
<polygon fill="#63b8ff" stroke="#63b8ff" points="606.84,-212.5 599.34,-219.98 609.87,-218.81 606.84,-212.5"/>
</a>
</g>
</g>
<!-- Node27&#45;&gt;Node4 -->
<g id="edge28_Node000027_Node000004" class="edge">
<title>Node27&#45;&gt;Node4</title>
<g id="a_edge28_Node000027_Node000004"><a xlink:title=" ">
<path fill="none" stroke="#63b8ff" d="M245.17,-274.86C236.19,-266.48 223.11,-253.03 215,-239 202.13,-216.73 201.05,-209.4 197,-184 190.5,-143.27 215.58,-127.35 253,-110 324.78,-76.71 551.78,-68.32 666.79,-66.21"/>
<polygon fill="#63b8ff" stroke="#63b8ff" points="666.95,-69.7 676.89,-66.03 666.83,-62.7 666.95,-69.7"/>
</a>
</g>
</g>
<!-- Node28&#45;&gt;Node3 -->
<g id="edge30_Node000028_Node000003" class="edge">
<title>Node28&#45;&gt;Node3</title>
<g id="a_edge30_Node000028_Node000003"><a xlink:title=" ">
<path fill="none" stroke="#63b8ff" d="M280.63,-329.99C297.84,-320.58 320.4,-308.24 337.4,-298.95"/>
<polygon fill="#63b8ff" stroke="#63b8ff" points="339.1,-302.01 346.2,-294.14 335.75,-295.87 339.1,-302.01"/>
</a>
</g>
</g>
<!-- Node28&#45;&gt;Node27 -->
<g id="edge34_Node000028_Node000027" class="edge">
<title>Node28&#45;&gt;Node27</title>
<g id="a_edge34_Node000028_Node000027"><a xlink:title=" ">
<path fill="none" stroke="#63b8ff" d="M255,-329.84C255,-322.21 255,-312.7 255,-304.45"/>
<polygon fill="#63b8ff" stroke="#63b8ff" points="258.5,-304.27 255,-294.27 251.5,-304.27 258.5,-304.27"/>
</a>
</g>
</g>
<!-- Node29 -->
<g id="Node000029" class="node">
<title>Node29</title>
<g id="a_Node000029"><a xlink:href="../../d2/d86/WaterPropsIAPWS_8h.html" target="_top" xlink:title="Headers for a class for calculating the equation of state of water from the IAPWS 1995 Formulation ba...">
<polygon fill="white" stroke="#666666" points="191.5,-294 82.5,-294 82.5,-275 191.5,-275 191.5,-294"/>
<text text-anchor="middle" x="137" y="-282" font-family="Helvetica,sans-Serif" font-size="10.00">WaterPropsIAPWS.h</text>
</a>
</g>
</g>
<!-- Node28&#45;&gt;Node29 -->
<g id="edge31_Node000028_Node000029" class="edge">
<title>Node28&#45;&gt;Node29</title>
<g id="a_edge31_Node000028_Node000029"><a xlink:title=" ">
<path fill="none" stroke="#63b8ff" d="M226.74,-329.99C207.58,-320.49 182.42,-308.02 163.61,-298.69"/>
<polygon fill="#63b8ff" stroke="#63b8ff" points="164.94,-295.45 154.43,-294.14 161.83,-301.72 164.94,-295.45"/>
</a>
</g>
</g>
<!-- Node30 -->
<g id="Node000030" class="node">
<title>Node30</title>
<g id="a_Node000030"><a xlink:href="../../da/d59/WaterPropsIAPWSphi_8h.html" target="_top" xlink:title="Header for Lowest level of the classes which support a real water model (see class WaterPropsIAPWS an...">
<polygon fill="white" stroke="#666666" points="122,-129 0,-129 0,-110 122,-110 122,-129"/>
<text text-anchor="middle" x="61" y="-117" font-family="Helvetica,sans-Serif" font-size="10.00">WaterPropsIAPWSphi.h</text>
</a>
</g>
</g>
<!-- Node29&#45;&gt;Node30 -->
<g id="edge32_Node000029_Node000030" class="edge">
<title>Node29&#45;&gt;Node30</title>
<g id="a_edge32_Node000029_Node000030"><a xlink:title=" ">
<path fill="none" stroke="#63b8ff" d="M132.91,-274.74C120.95,-249.09 85.84,-173.78 69.52,-138.78"/>
<polygon fill="#63b8ff" stroke="#63b8ff" points="72.5,-136.89 65.11,-129.31 66.16,-139.85 72.5,-136.89"/>
</a>
</g>
</g>
<!-- Node30&#45;&gt;Node5 -->
<g id="edge33_Node000030_Node000005" class="edge">
<title>Node30&#45;&gt;Node5</title>
<g id="a_edge33_Node000030_Node000005"><a xlink:title=" ">
<path fill="none" stroke="#63b8ff" d="M83.44,-109.84C133.02,-90.72 252.02,-44.82 309.23,-22.75"/>
<polygon fill="#63b8ff" stroke="#63b8ff" points="310.77,-25.91 318.84,-19.05 308.25,-19.38 310.77,-25.91"/>
</a>
</g>
</g>
<!-- Node32 -->
<g id="Node000032" class="node">
<title>Node32</title>
<g id="a_Node000032"><a xlink:href="../../d7/d01/ThermoPhase_8h.html" target="_top" xlink:title="Header file for class ThermoPhase, the base class for phases with thermodynamic properties,...">
<polygon fill="white" stroke="#666666" points="764,-415 678,-415 678,-396 764,-396 764,-415"/>
<text text-anchor="middle" x="721" y="-403" font-family="Helvetica,sans-Serif" font-size="10.00">ThermoPhase.h</text>
</a>
</g>
</g>
<!-- Node31&#45;&gt;Node32 -->
<g id="edge36_Node000031_Node000032" class="edge">
<title>Node31&#45;&gt;Node32</title>
<g id="a_edge36_Node000031_Node000032"><a xlink:title=" ">
<path fill="none" stroke="#63b8ff" d="M721,-450.84C721,-443.21 721,-433.7 721,-425.45"/>
<polygon fill="#63b8ff" stroke="#63b8ff" points="724.5,-425.27 721,-415.27 717.5,-425.27 724.5,-425.27"/>
</a>
</g>
</g>
<!-- Node32&#45;&gt;Node15 -->
<g id="edge49_Node000032_Node000015" class="edge">
<title>Node32&#45;&gt;Node15</title>
<g id="a_edge49_Node000032_Node000015"><a xlink:title=" ">
<path fill="none" stroke="#63b8ff" d="M713.71,-395.63C691.05,-368.05 621.53,-283.47 591.76,-247.25"/>
<polygon fill="#63b8ff" stroke="#63b8ff" points="594.16,-244.65 585.1,-239.14 588.75,-249.09 594.16,-244.65"/>
</a>
</g>
</g>
<!-- Node32&#45;&gt;Node22 -->
<g id="edge48_Node000032_Node000022" class="edge">
<title>Node32&#45;&gt;Node22</title>
<g id="a_edge48_Node000032_Node000022"><a xlink:title=" ">
<path fill="none" stroke="#63b8ff" d="M704.14,-395.94C635.85,-361.26 379.4,-231.05 296.23,-188.82"/>
<polygon fill="#63b8ff" stroke="#63b8ff" points="297.68,-185.63 287.18,-184.22 294.51,-191.87 297.68,-185.63"/>
</a>
</g>
</g>
<!-- Node33 -->
<g id="Node000033" class="node">
<title>Node33</title>
<g id="a_Node000033"><a xlink:href="../../da/d84/Phase_8h.html" target="_top" xlink:title="Header file for class Phase.">
<polygon fill="white" stroke="#666666" points="821.5,-239 768.5,-239 768.5,-220 821.5,-220 821.5,-239"/>
<text text-anchor="middle" x="795" y="-227" font-family="Helvetica,sans-Serif" font-size="10.00">Phase.h</text>
</a>
</g>
</g>
<!-- Node32&#45;&gt;Node33 -->
<g id="edge37_Node000032_Node000033" class="edge">
<title>Node32&#45;&gt;Node33</title>
<g id="a_edge37_Node000032_Node000033"><a xlink:title=" ">
<path fill="none" stroke="#63b8ff" d="M724.77,-395.63C736.35,-368.4 771.56,-285.61 787.28,-248.65"/>
<polygon fill="#63b8ff" stroke="#63b8ff" points="790.63,-249.72 791.32,-239.14 784.19,-246.98 790.63,-249.72"/>
</a>
</g>
</g>
<!-- Node37 -->
<g id="Node000037" class="node">
<title>Node37</title>
<g id="a_Node000037"><a xlink:href="../../d6/d7a/MultiSpeciesThermo_8h.html" target="_top" xlink:title="Header for a general species thermodynamic property manager for a phase (see MultiSpeciesThermo).">
<polygon fill="white" stroke="#666666" points="930,-354.5 816,-354.5 816,-335.5 930,-335.5 930,-354.5"/>
<text text-anchor="middle" x="873" y="-342.5" font-family="Helvetica,sans-Serif" font-size="10.00">MultiSpeciesThermo.h</text>
</a>
</g>
</g>
<!-- Node32&#45;&gt;Node37 -->
<g id="edge43_Node000032_Node000037" class="edge">
<title>Node32&#45;&gt;Node37</title>
<g id="a_edge43_Node000032_Node000037"><a xlink:title=" ">
<path fill="none" stroke="#63b8ff" d="M743.1,-395.99C768.99,-386.03 812.08,-369.45 841.47,-358.13"/>
<polygon fill="#63b8ff" stroke="#63b8ff" points="842.8,-361.38 850.87,-354.52 840.28,-354.84 842.8,-361.38"/>
</a>
</g>
</g>
<!-- Node33&#45;&gt;Node16 -->
<g id="edge38_Node000033_Node000016" class="edge">
<title>Node33&#45;&gt;Node16</title>
<g id="a_edge38_Node000033_Node000016"><a xlink:title=" ">
<path fill="none" stroke="#63b8ff" d="M813.48,-219.98C831.98,-211.46 860.68,-198.23 881.98,-188.41"/>
<polygon fill="#63b8ff" stroke="#63b8ff" points="883.57,-191.53 891.19,-184.17 880.64,-185.18 883.57,-191.53"/>
</a>
</g>
</g>
<!-- Node34 -->
<g id="Node000034" class="node">
<title>Node34</title>
<g id="a_Node000034"><a xlink:href="../../d9/dda/Elements_8h.html" target="_top" xlink:title="Contains the getElementWeight function and the definitions of element constraint types.">
<polygon fill="white" stroke="#666666" points="725,-129 591,-129 591,-110 725,-110 725,-129"/>
<text text-anchor="middle" x="658" y="-117" font-family="Helvetica,sans-Serif" font-size="10.00">cantera/thermo/Elements.h</text>
</a>
</g>
</g>
<!-- Node33&#45;&gt;Node34 -->
<g id="edge39_Node000033_Node000034" class="edge">
<title>Node33&#45;&gt;Node34</title>
<g id="a_edge39_Node000033_Node000034"><a xlink:title=" ">
<path fill="none" stroke="#63b8ff" d="M791.22,-219.58C785.14,-206.16 772.02,-180.67 754,-165 737.36,-150.53 715.21,-139.84 696.38,-132.57"/>
<polygon fill="#63b8ff" stroke="#63b8ff" points="697.47,-129.25 686.88,-129.08 695.06,-135.82 697.47,-129.25"/>
</a>
</g>
</g>
<!-- Node35 -->
<g id="Node000035" class="node">
<title>Node35</title>
<g id="a_Node000035"><a xlink:href="../../d6/df6/ValueCache_8h.html" target="_top" xlink:title=" ">
<polygon fill="#fff0f0" stroke="red" points="880.5,-129 743.5,-129 743.5,-110 880.5,-110 880.5,-129"/>
<text text-anchor="middle" x="812" y="-117" font-family="Helvetica,sans-Serif" font-size="10.00">cantera/base/ValueCache.h</text>
</a>
</g>
</g>
<!-- Node33&#45;&gt;Node35 -->
<g id="edge41_Node000033_Node000035" class="edge">
<title>Node33&#45;&gt;Node35</title>
<g id="a_edge41_Node000033_Node000035"><a xlink:title=" ">
<path fill="none" stroke="#63b8ff" d="M796.39,-219.66C799.14,-202.17 805.34,-162.8 809.04,-139.27"/>
<polygon fill="#63b8ff" stroke="#63b8ff" points="812.54,-139.58 810.64,-129.16 805.62,-138.49 812.54,-139.58"/>
</a>
</g>
</g>
<!-- Node34&#45;&gt;Node4 -->
<g id="edge40_Node000034_Node000004" class="edge">
<title>Node34&#45;&gt;Node4</title>
<g id="a_edge40_Node000034_Node000004"><a xlink:title=" ">
<path fill="none" stroke="#63b8ff" d="M670.37,-109.98C682.09,-101.92 699.92,-89.65 713.89,-80.03"/>
<polygon fill="#63b8ff" stroke="#63b8ff" points="716.15,-82.72 722.4,-74.17 712.18,-76.96 716.15,-82.72"/>
</a>
</g>
</g>
<!-- Node35&#45;&gt;Node4 -->
<g id="edge42_Node000035_Node000004" class="edge">
<title>Node35&#45;&gt;Node4</title>
<g id="a_edge42_Node000035_Node000004"><a xlink:title=" ">
<path fill="none" stroke="#63b8ff" d="M799.63,-109.98C787.91,-101.92 770.08,-89.65 756.11,-80.03"/>
<polygon fill="#63b8ff" stroke="#63b8ff" points="757.82,-76.96 747.6,-74.17 753.85,-82.72 757.82,-76.96"/>
</a>
</g>
</g>
<!-- Node38 -->
<g id="Node000038" class="node">
<title>Node38</title>
<g id="a_Node000038"><a xlink:href="../../d4/d87/SpeciesThermoInterpType_8h.html" target="_top" xlink:title="Pure Virtual Base class for individual species reference state thermodynamic managers and text for th...">
<polygon fill="white" stroke="#666666" points="951.5,-294 812.5,-294 812.5,-275 951.5,-275 951.5,-294"/>
<text text-anchor="middle" x="882" y="-282" font-family="Helvetica,sans-Serif" font-size="10.00">SpeciesThermoInterpType.h</text>
</a>
</g>
</g>
<!-- Node37&#45;&gt;Node38 -->
<g id="edge44_Node000037_Node000038" class="edge">
<title>Node37&#45;&gt;Node38</title>
<g id="a_edge44_Node000037_Node000038"><a xlink:title=" ">
<path fill="none" stroke="#63b8ff" d="M874.33,-335.37C875.59,-327.16 877.53,-314.54 879.15,-304.05"/>
<polygon fill="#63b8ff" stroke="#63b8ff" points="882.61,-304.58 880.67,-294.17 875.69,-303.52 882.61,-304.58"/>
</a>
</g>
</g>
<!-- Node38&#45;&gt;Node4 -->
<g id="edge45_Node000038_Node000004" class="edge">
<title>Node38&#45;&gt;Node4</title>
<g id="a_edge45_Node000038_Node000004"><a xlink:title=" ">
<path fill="none" stroke="#63b8ff" d="M901.05,-274.95C938.13,-257 1014.29,-213.08 989,-165 954.28,-98.99 866.15,-76.54 803.47,-69.04"/>
<polygon fill="#63b8ff" stroke="#63b8ff" points="803.57,-65.53 793.25,-67.92 802.81,-72.49 803.57,-65.53"/>
</a>
</g>
</g>
<!-- Node38&#45;&gt;Node15 -->
<g id="edge47_Node000038_Node000015" class="edge">
<title>Node38&#45;&gt;Node15</title>
<g id="a_edge47_Node000038_Node000015"><a xlink:title=" ">
<path fill="none" stroke="#63b8ff" d="M833.16,-274.98C779.72,-265.67 694.08,-250.74 636.94,-240.78"/>
<polygon fill="#63b8ff" stroke="#63b8ff" points="637.43,-237.31 626.97,-239.04 636.22,-244.2 637.43,-237.31"/>
</a>
</g>
</g>
<!-- Node38&#45;&gt;Node16 -->
<g id="edge46_Node000038_Node000016" class="edge">
<title>Node38&#45;&gt;Node16</title>
<g id="a_edge46_Node000038_Node000016"><a xlink:title=" ">
<path fill="none" stroke="#63b8ff" d="M884.29,-274.66C888.85,-257.09 899.12,-217.45 905.22,-193.95"/>
<polygon fill="#63b8ff" stroke="#63b8ff" points="908.63,-194.72 907.76,-184.16 901.86,-192.96 908.63,-194.72"/>
</a>
</g>
</g>
<!-- Node39&#45;&gt;Node4 -->
<g id="edge51_Node000039_Node000004" class="edge">
<title>Node39&#45;&gt;Node4</title>
<g id="a_edge51_Node000039_Node000004"><a xlink:title=" ">
<path fill="none" stroke="#63b8ff" d="M1166.1,-395.86C1168.51,-376.26 1174,-326.94 1174,-285.5 1174,-285.5 1174,-285.5 1174,-173.5 1174,-135.87 1151.34,-127.44 1118,-110 1064.85,-82.2 898.4,-71.51 803.35,-67.61"/>
<polygon fill="#63b8ff" stroke="#63b8ff" points="803.38,-64.1 793.25,-67.2 803.1,-71.1 803.38,-64.1"/>
</a>
</g>
</g>
<!-- Node40&#45;&gt;Node4 -->
<g id="edge53_Node000040_Node000004" class="edge">
<title>Node40&#45;&gt;Node4</title>
<g id="a_edge53_Node000040_Node000004"><a xlink:title=" ">
<path fill="none" stroke="#63b8ff" d="M1095.96,-164.9C1102.99,-151.43 1113.58,-125.34 1100,-110 1080.69,-88.2 903.45,-74.87 803.24,-69.01"/>
<polygon fill="#63b8ff" stroke="#63b8ff" points="803.38,-65.51 793.2,-68.43 802.98,-72.5 803.38,-65.51"/>
</a>
</g>
</g>
<!-- Node40&#45;&gt;Node17 -->
<g id="edge54_Node000040_Node000017" class="edge">
<title>Node40&#45;&gt;Node17</title>
<g id="a_edge54_Node000040_Node000017"><a xlink:title=" ">
<path fill="none" stroke="#63b8ff" d="M1082.91,-164.75C1075.84,-157.11 1065.41,-145.82 1056.85,-136.56"/>
<polygon fill="#63b8ff" stroke="#63b8ff" points="1059.3,-134.06 1049.94,-129.09 1054.16,-138.81 1059.3,-134.06"/>
</a>
</g>
</g>
</g>
</svg>

<g id="navigator" transform="translate(0 0)" fill="#404254">
  <rect fill="#f2f5e9" fill-opacity="0.5" stroke="#606060" stroke-width=".5" x="0" y="0" width="60" height="60"/>
  <use id="zoomplus" xlink:href="#zoomPlus" x="17" y="9" onmousedown="handleZoom(evt,'in')"/>
  <use id="zoomminus" xlink:href="#zoomMin" x="42" y="9" onmousedown="handleZoom(evt,'out')"/>
  <use id="reset" xlink:href="#resetDef" x="30" y="36" onmousedown="handleReset()"/>
   <use id="arrowup" xlink:href="#arrowUp" x="0" y="0" onmousedown="handlePan(0,-1)"/>
  <use id="arrowright" xlink:href="#arrowRight" x="0" y="0" onmousedown="handlePan(1,0)"/>
  <use id="arrowdown" xlink:href="#arrowDown" x="0" y="0" onmousedown="handlePan(0,1)"/>
  <use id="arrowleft" xlink:href="#arrowLeft" x="0" y="0" onmousedown="handlePan(-1,0)"/>
</g>
<svg viewBox="0 0 15 15" width="100%" height="30px" preserveAspectRatio="xMaxYMin meet">
 <g id="arrow_out" transform="scale(0.3 0.3)">
  <a xlink:href="PDSS__HKFT_8cpp__incl_org.svg" target="_base">
   <rect id="button" ry="5" rx="5" y="6" x="6" height="38" width="38"
        fill="#f2f5e9" fill-opacity="0.5" stroke="#606060" stroke-width="1.0"/>
   <path id="arrow"
     d="M 11.500037,31.436501 C 11.940474,20.09759 22.043105,11.32322 32.158766,21.979434 L 37.068811,17.246167 C 37.068811,17.246167 37.088388,32 37.088388,32 L 22.160133,31.978069 C 22.160133,31.978069 26.997745,27.140456 26.997745,27.140456 C 18.528582,18.264221 13.291696,25.230495 11.500037,31.436501 z"
     style="fill:#404040;"/>
  </a>
 </g>
</svg>

<style type='text/css'>
<![CDATA[
[data-mouse-over-selected='false'] { opacity: 0.7; }
[data-mouse-over-selected='true']  { opacity: 1.0; }
]]>
</style>
<script type="application/ecmascript"><![CDATA[
document.addEventListener('DOMContentLoaded', (event) => {
  highlightEdges();
  highlightAdjacentNodes();
});
]]></script>
</svg>
