<?xml version="1.0" encoding="UTF-8" standalone="no"?>
<!DOCTYPE svg PUBLIC "-//W3C//DTD SVG 1.1//EN"
 "http://www.w3.org/Graphics/SVG/1.1/DTD/svg11.dtd">
<!-- Generated by graphviz version 6.0.1 (0)
 -->
<!-- Title: solveSP.h Pages: 1 -->
<svg width="979pt" height="379pt"
 viewBox="0.00 0.00 978.50 379.00" xmlns="http://www.w3.org/2000/svg" xmlns:xlink="http://www.w3.org/1999/xlink">
<g id="graph0" class="graph" transform="scale(1 1) rotate(0) translate(4 375)">
<title>solveSP.h</title>
<!-- Node1 -->
<g id="Node000001" class="node">
<title>Node1</title>
<g id="a_Node000001"><a xlink:title="Header file for implicit surface problem solver (see Chemical Kinetics and class solveSP).">
<polygon fill="#999999" stroke="#666666" points="718.5,-371 658.5,-371 658.5,-352 718.5,-352 718.5,-371"/>
<text text-anchor="middle" x="688.5" y="-359" font-family="Helvetica,sans-Serif" font-size="10.00">solveSP.h</text>
</a>
</g>
</g>
<!-- Node2 -->
<g id="Node000002" class="node">
<title>Node2</title>
<g id="a_Node000002"><a xlink:href="../../d7/d0d/InterfaceKinetics_8h.html" target="_top" xlink:title=" ">
<polygon fill="white" stroke="#666666" points="706,-316 579,-316 579,-286 706,-286 706,-316"/>
<text text-anchor="start" x="587" y="-304" font-family="Helvetica,sans-Serif" font-size="10.00">cantera/kinetics/Interface</text>
<text text-anchor="middle" x="642.5" y="-293" font-family="Helvetica,sans-Serif" font-size="10.00">Kinetics.h</text>
</a>
</g>
</g>
<!-- Node1&#45;&gt;Node2 -->
<g id="edge1_Node000001_Node000002" class="edge">
<title>Node1&#45;&gt;Node2</title>
<g id="a_edge1_Node000001_Node000002"><a xlink:title=" ">
<path fill="none" stroke="#63b8ff" d="M681.71,-351.87C675.99,-344.59 667.55,-333.85 659.96,-324.2"/>
<polygon fill="#63b8ff" stroke="#63b8ff" points="662.53,-321.81 653.6,-316.11 657.03,-326.14 662.53,-321.81"/>
</a>
</g>
</g>
<!-- Node38 -->
<g id="Node000038" class="node">
<title>Node38</title>
<g id="a_Node000038"><a xlink:href="../../d1/df7/DenseMatrix_8h.html" target="_top" xlink:title="Headers for the DenseMatrix object, which deals with dense rectangular matrices and description of th...">
<polygon fill="white" stroke="#666666" points="967.5,-140 809.5,-140 809.5,-121 967.5,-121 967.5,-140"/>
<text text-anchor="middle" x="888.5" y="-128" font-family="Helvetica,sans-Serif" font-size="10.00">cantera/numerics/DenseMatrix.h</text>
</a>
</g>
</g>
<!-- Node1&#45;&gt;Node38 -->
<g id="edge27_Node000001_Node000038" class="edge">
<title>Node1&#45;&gt;Node38</title>
<g id="a_edge27_Node000001_Node000038"><a xlink:title=" ">
<path fill="none" stroke="#63b8ff" d="M696.1,-351.8C725.86,-317.72 834.83,-192.96 874.19,-147.88"/>
<polygon fill="#63b8ff" stroke="#63b8ff" points="876.95,-150.04 880.9,-140.21 871.68,-145.44 876.95,-150.04"/>
</a>
</g>
</g>
<!-- Node3 -->
<g id="Node000003" class="node">
<title>Node3</title>
<g id="a_Node000003"><a xlink:href="../../d5/db4/Kinetics_8h.html" target="_top" xlink:title="Base class for kinetics managers and also contains the kineticsmgr module documentation (see Kinetics...">
<polygon fill="white" stroke="#666666" points="672.5,-195 612.5,-195 612.5,-176 672.5,-176 672.5,-195"/>
<text text-anchor="middle" x="642.5" y="-183" font-family="Helvetica,sans-Serif" font-size="10.00">Kinetics.h</text>
</a>
</g>
</g>
<!-- Node2&#45;&gt;Node3 -->
<g id="edge2_Node000002_Node000003" class="edge">
<title>Node2&#45;&gt;Node3</title>
<g id="a_edge2_Node000002_Node000003"><a xlink:title=" ">
<path fill="none" stroke="#63b8ff" d="M642.5,-285.63C642.5,-265.21 642.5,-227.81 642.5,-205.24"/>
<polygon fill="#63b8ff" stroke="#63b8ff" points="646,-205.23 642.5,-195.23 639,-205.23 646,-205.23"/>
</a>
</g>
</g>
<!-- Node26 -->
<g id="Node000026" class="node">
<title>Node26</title>
<g id="a_Node000026"><a xlink:href="../../d6/d42/MultiRate_8h.html" target="_top" xlink:title=" ">
<polygon fill="white" stroke="#666666" points="276,-250 209,-250 209,-231 276,-231 276,-250"/>
<text text-anchor="middle" x="242.5" y="-238" font-family="Helvetica,sans-Serif" font-size="10.00">MultiRate.h</text>
</a>
</g>
</g>
<!-- Node2&#45;&gt;Node26 -->
<g id="edge10_Node000002_Node000026" class="edge">
<title>Node2&#45;&gt;Node26</title>
<g id="a_edge10_Node000002_Node000026"><a xlink:title=" ">
<path fill="none" stroke="#63b8ff" d="M578.68,-290.67C496.69,-278.67 356.55,-258.18 285.92,-247.85"/>
<polygon fill="#63b8ff" stroke="#63b8ff" points="286.41,-244.39 276.01,-246.4 285.4,-251.31 286.41,-244.39"/>
</a>
</g>
</g>
<!-- Node4 -->
<g id="Node000004" class="node">
<title>Node4</title>
<g id="a_Node000004"><a xlink:href="../../dd/dfd/StoichManager_8h.html" target="_top" xlink:title=" ">
<polygon fill="white" stroke="#666666" points="636,-140 547,-140 547,-121 636,-121 636,-140"/>
<text text-anchor="middle" x="591.5" y="-128" font-family="Helvetica,sans-Serif" font-size="10.00">StoichManager.h</text>
</a>
</g>
</g>
<!-- Node3&#45;&gt;Node4 -->
<g id="edge3_Node000003_Node000004" class="edge">
<title>Node3&#45;&gt;Node4</title>
<g id="a_edge3_Node000003_Node000004"><a xlink:title=" ">
<path fill="none" stroke="#63b8ff" d="M634.08,-175.75C626.73,-168.11 615.87,-156.82 606.96,-147.56"/>
<polygon fill="#63b8ff" stroke="#63b8ff" points="609.22,-144.87 599.76,-140.09 604.18,-149.72 609.22,-144.87"/>
</a>
</g>
</g>
<!-- Node24 -->
<g id="Node000024" class="node">
<title>Node24</title>
<g id="a_Node000024"><a xlink:href="../../d6/df6/ValueCache_8h.html" target="_top" xlink:title=" ">
<polygon fill="white" stroke="#666666" points="791,-140 654,-140 654,-121 791,-121 791,-140"/>
<text text-anchor="middle" x="722.5" y="-128" font-family="Helvetica,sans-Serif" font-size="10.00">cantera/base/ValueCache.h</text>
</a>
</g>
</g>
<!-- Node3&#45;&gt;Node24 -->
<g id="edge7_Node000003_Node000024" class="edge">
<title>Node3&#45;&gt;Node24</title>
<g id="a_edge7_Node000003_Node000024"><a xlink:title=" ">
<path fill="none" stroke="#63b8ff" d="M655.35,-175.98C667.64,-167.84 686.41,-155.41 700.98,-145.76"/>
<polygon fill="#63b8ff" stroke="#63b8ff" points="703.01,-148.61 709.41,-140.17 699.14,-142.78 703.01,-148.61"/>
</a>
</g>
</g>
<!-- Node5 -->
<g id="Node000005" class="node">
<title>Node5</title>
<g id="a_Node000005"><a xlink:href="../../d9/d42/eigen__sparse_8h_source.html" target="_top" xlink:title=" ">
<polygon fill="#fff0f0" stroke="red" points="712.5,-85 594.5,-85 594.5,-55 712.5,-55 712.5,-85"/>
<text text-anchor="start" x="602.5" y="-73" font-family="Helvetica,sans-Serif" font-size="10.00">cantera/numerics/eigen</text>
<text text-anchor="middle" x="653.5" y="-62" font-family="Helvetica,sans-Serif" font-size="10.00">_sparse.h</text>
</a>
</g>
</g>
<!-- Node4&#45;&gt;Node5 -->
<g id="edge4_Node000004_Node000005" class="edge">
<title>Node4&#45;&gt;Node5</title>
<g id="a_edge4_Node000004_Node000005"><a xlink:title=" ">
<path fill="none" stroke="#63b8ff" d="M600.65,-120.87C608.67,-113.3 620.67,-101.98 631.2,-92.04"/>
<polygon fill="#63b8ff" stroke="#63b8ff" points="633.67,-94.52 638.54,-85.11 628.87,-89.43 633.67,-94.52"/>
</a>
</g>
</g>
<!-- Node8 -->
<g id="Node000008" class="node">
<title>Node8</title>
<g id="a_Node000008"><a xlink:href="../../db/d98/ctexceptions_8h.html" target="_top" xlink:title="Definitions for the classes that are thrown when Cantera experiences an error condition (also contain...">
<polygon fill="#fff0f0" stroke="red" points="576.5,-79.5 436.5,-79.5 436.5,-60.5 576.5,-60.5 576.5,-79.5"/>
<text text-anchor="middle" x="506.5" y="-67.5" font-family="Helvetica,sans-Serif" font-size="10.00">cantera/base/ctexceptions.h</text>
</a>
</g>
</g>
<!-- Node4&#45;&gt;Node8 -->
<g id="edge5_Node000004_Node000008" class="edge">
<title>Node4&#45;&gt;Node8</title>
<g id="a_edge5_Node000004_Node000008"><a xlink:title=" ">
<path fill="none" stroke="#63b8ff" d="M578.96,-120.87C565.4,-111.54 543.56,-96.51 527.4,-85.38"/>
<polygon fill="#63b8ff" stroke="#63b8ff" points="529.32,-82.45 519.09,-79.67 525.35,-88.22 529.32,-82.45"/>
</a>
</g>
</g>
<!-- Node9 -->
<g id="Node000009" class="node">
<title>Node9</title>
<g id="a_Node000009"><a xlink:href="../../d9/ddc/ct__defs_8h.html" target="_top" xlink:title="This file contains definitions of constants, types and terms that are used in internal routines and a...">
<polygon fill="#fff0f0" stroke="red" points="437,-19 380,-19 380,0 437,0 437,-19"/>
<text text-anchor="middle" x="408.5" y="-7" font-family="Helvetica,sans-Serif" font-size="10.00">ct_defs.h</text>
</a>
</g>
</g>
<!-- Node8&#45;&gt;Node9 -->
<g id="edge6_Node000008_Node000009" class="edge">
<title>Node8&#45;&gt;Node9</title>
<g id="a_edge6_Node000008_Node000009"><a xlink:title=" ">
<path fill="none" stroke="#63b8ff" d="M492.04,-60.37C476.19,-50.91 450.53,-35.59 431.82,-24.42"/>
<polygon fill="#63b8ff" stroke="#63b8ff" points="433.4,-21.29 423.02,-19.17 429.81,-27.3 433.4,-21.29"/>
</a>
</g>
</g>
<!-- Node24&#45;&gt;Node9 -->
<g id="edge8_Node000024_Node000009" class="edge">
<title>Node24&#45;&gt;Node9</title>
<g id="a_edge8_Node000024_Node000009"><a xlink:title=" ">
<path fill="none" stroke="#63b8ff" d="M725.57,-120.88C730.42,-105.55 737.73,-73.45 721.5,-55 686.14,-14.8 522.92,-10.03 447.24,-10.03"/>
<polygon fill="#63b8ff" stroke="#63b8ff" points="447.15,-6.53 437.16,-10.06 447.17,-13.53 447.15,-6.53"/>
</a>
</g>
</g>
<!-- Node25 -->
<g id="Node000025" class="node">
<title>Node25</title>
<g id="a_Node000025"><a xlink:title=" ">
<polygon fill="#e0e0e0" stroke="#999999" points="808.5,-79.5 768.5,-79.5 768.5,-60.5 808.5,-60.5 808.5,-79.5"/>
<text text-anchor="middle" x="788.5" y="-67.5" font-family="Helvetica,sans-Serif" font-size="10.00">limits</text>
</a>
</g>
</g>
<!-- Node24&#45;&gt;Node25 -->
<g id="edge9_Node000024_Node000025" class="edge">
<title>Node24&#45;&gt;Node25</title>
<g id="a_edge9_Node000024_Node000025"><a xlink:title=" ">
<path fill="none" stroke="#63b8ff" d="M732.24,-120.87C742.47,-111.8 758.79,-97.34 771.22,-86.32"/>
<polygon fill="#63b8ff" stroke="#63b8ff" points="773.56,-88.92 778.72,-79.67 768.92,-83.68 773.56,-88.92"/>
</a>
</g>
</g>
<!-- Node27 -->
<g id="Node000027" class="node">
<title>Node27</title>
<g id="a_Node000027"><a xlink:href="../../d8/db0/ReactionRate_8h.html" target="_top" xlink:title=" ">
<polygon fill="white" stroke="#666666" points="344,-195 259,-195 259,-176 344,-176 344,-195"/>
<text text-anchor="middle" x="301.5" y="-183" font-family="Helvetica,sans-Serif" font-size="10.00">ReactionRate.h</text>
</a>
</g>
</g>
<!-- Node26&#45;&gt;Node27 -->
<g id="edge11_Node000026_Node000027" class="edge">
<title>Node26&#45;&gt;Node27</title>
<g id="a_edge11_Node000026_Node000027"><a xlink:title=" ">
<path fill="none" stroke="#63b8ff" d="M251.98,-230.98C260.7,-223.15 273.84,-211.34 284.4,-201.86"/>
<polygon fill="#63b8ff" stroke="#63b8ff" points="286.75,-204.46 291.85,-195.17 282.07,-199.25 286.75,-204.46"/>
</a>
</g>
</g>
<!-- Node28 -->
<g id="Node000028" class="node">
<title>Node28</title>
<g id="a_Node000028"><a xlink:href="../../dd/d16/MultiRateBase_8h.html" target="_top" xlink:title=" ">
<polygon fill="white" stroke="#666666" points="89,-140 0,-140 0,-121 89,-121 89,-140"/>
<text text-anchor="middle" x="44.5" y="-128" font-family="Helvetica,sans-Serif" font-size="10.00">MultiRateBase.h</text>
</a>
</g>
</g>
<!-- Node26&#45;&gt;Node28 -->
<g id="edge23_Node000026_Node000028" class="edge">
<title>Node26&#45;&gt;Node28</title>
<g id="a_edge23_Node000026_Node000028"><a xlink:title=" ">
<path fill="none" stroke="#63b8ff" d="M209,-232.9C180.72,-226.3 139.93,-214.32 108.5,-195 88.18,-182.51 69.38,-162.39 57.48,-148.15"/>
<polygon fill="#63b8ff" stroke="#63b8ff" points="60.03,-145.74 51.02,-140.17 54.59,-150.14 60.03,-145.74"/>
</a>
</g>
</g>
<!-- Node36 -->
<g id="Node000036" class="node">
<title>Node36</title>
<g id="a_Node000036"><a xlink:href="../../de/df0/utilities_8h.html" target="_top" xlink:title="Various templated functions that carry out common vector and polynomial operations (see Templated Arr...">
<polygon fill="white" stroke="#666666" points="233,-195 118,-195 118,-176 233,-176 233,-195"/>
<text text-anchor="middle" x="175.5" y="-183" font-family="Helvetica,sans-Serif" font-size="10.00">cantera/base/utilities.h</text>
</a>
</g>
</g>
<!-- Node26&#45;&gt;Node36 -->
<g id="edge24_Node000026_Node000036" class="edge">
<title>Node26&#45;&gt;Node36</title>
<g id="a_edge24_Node000026_Node000036"><a xlink:title=" ">
<path fill="none" stroke="#63b8ff" d="M231.74,-230.98C221.73,-223.07 206.61,-211.11 194.57,-201.58"/>
<polygon fill="#63b8ff" stroke="#63b8ff" points="196.47,-198.63 186.46,-195.17 192.13,-204.12 196.47,-198.63"/>
</a>
</g>
</g>
<!-- Node27&#45;&gt;Node8 -->
<g id="edge22_Node000027_Node000008" class="edge">
<title>Node27&#45;&gt;Node8</title>
<g id="a_edge22_Node000027_Node000008"><a xlink:title=" ">
<path fill="none" stroke="#63b8ff" d="M344.11,-183.72C382.53,-180.87 438.52,-171.12 475.5,-140 490.7,-127.21 498.76,-105.44 502.81,-89.77"/>
<polygon fill="#63b8ff" stroke="#63b8ff" points="506.31,-90.18 505.1,-79.65 499.48,-88.64 506.31,-90.18"/>
</a>
</g>
</g>
<!-- Node27&#45;&gt;Node28 -->
<g id="edge12_Node000027_Node000028" class="edge">
<title>Node27&#45;&gt;Node28</title>
<g id="a_edge12_Node000027_Node000028"><a xlink:title=" ">
<path fill="none" stroke="#63b8ff" d="M260.21,-175.98C215.57,-166.78 144.34,-152.09 96.05,-142.13"/>
<polygon fill="#63b8ff" stroke="#63b8ff" points="96.62,-138.67 86.12,-140.08 95.2,-145.53 96.62,-138.67"/>
</a>
</g>
</g>
<!-- Node29 -->
<g id="Node000029" class="node">
<title>Node29</title>
<g id="a_Node000029"><a xlink:href="../../dd/d2a/AnyMap_8h.html" target="_top" xlink:title=" ">
<polygon fill="#fff0f0" stroke="red" points="466.5,-140 346.5,-140 346.5,-121 466.5,-121 466.5,-140"/>
<text text-anchor="middle" x="406.5" y="-128" font-family="Helvetica,sans-Serif" font-size="10.00">cantera/base/AnyMap.h</text>
</a>
</g>
</g>
<!-- Node27&#45;&gt;Node29 -->
<g id="edge14_Node000027_Node000029" class="edge">
<title>Node27&#45;&gt;Node29</title>
<g id="a_edge14_Node000027_Node000029"><a xlink:title=" ">
<path fill="none" stroke="#63b8ff" d="M318.37,-175.98C335.11,-167.54 361,-154.47 380.39,-144.68"/>
<polygon fill="#63b8ff" stroke="#63b8ff" points="381.97,-147.8 389.32,-140.17 378.82,-141.55 381.97,-147.8"/>
</a>
</g>
</g>
<!-- Node30 -->
<g id="Node000030" class="node">
<title>Node30</title>
<g id="a_Node000030"><a xlink:href="../../da/d58/Units_8h.html" target="_top" xlink:title="Header for unit conversion utilities, which are used to translate user input from input files (See In...">
<polygon fill="white" stroke="#666666" points="380,-79.5 273,-79.5 273,-60.5 380,-60.5 380,-79.5"/>
<text text-anchor="middle" x="326.5" y="-67.5" font-family="Helvetica,sans-Serif" font-size="10.00">cantera/base/Units.h</text>
</a>
</g>
</g>
<!-- Node27&#45;&gt;Node30 -->
<g id="edge19_Node000027_Node000030" class="edge">
<title>Node27&#45;&gt;Node30</title>
<g id="a_edge19_Node000027_Node000030"><a xlink:title=" ">
<path fill="none" stroke="#63b8ff" d="M303.38,-175.97C307.4,-157.73 316.9,-114.57 322.39,-89.64"/>
<polygon fill="#63b8ff" stroke="#63b8ff" points="325.87,-90.15 324.6,-79.63 319.03,-88.64 325.87,-90.15"/>
</a>
</g>
</g>
<!-- Node35 -->
<g id="Node000035" class="node">
<title>Node35</title>
<g id="a_Node000035"><a xlink:href="../../d2/d49/global_8h.html" target="_top" xlink:title="This file contains definitions for utility functions and text for modules, inputfiles and logging,...">
<polygon fill="#fff0f0" stroke="red" points="254.5,-79.5 144.5,-79.5 144.5,-60.5 254.5,-60.5 254.5,-79.5"/>
<text text-anchor="middle" x="199.5" y="-67.5" font-family="Helvetica,sans-Serif" font-size="10.00">cantera/base/global.h</text>
</a>
</g>
</g>
<!-- Node27&#45;&gt;Node35 -->
<g id="edge20_Node000027_Node000035" class="edge">
<title>Node27&#45;&gt;Node35</title>
<g id="a_edge20_Node000027_Node000035"><a xlink:title=" ">
<path fill="none" stroke="#63b8ff" d="M293.83,-175.97C276.92,-157.15 236.19,-111.82 214.19,-87.34"/>
<polygon fill="#63b8ff" stroke="#63b8ff" points="216.54,-84.73 207.26,-79.63 211.34,-89.41 216.54,-84.73"/>
</a>
</g>
</g>
<!-- Node28&#45;&gt;Node9 -->
<g id="edge13_Node000028_Node000009" class="edge">
<title>Node28&#45;&gt;Node9</title>
<g id="a_edge13_Node000028_Node000009"><a xlink:title=" ">
<path fill="none" stroke="#63b8ff" d="M48.46,-120.83C56.27,-104.82 75.3,-70.82 102.5,-55 147.17,-29.02 297.73,-16.95 369.64,-12.56"/>
<polygon fill="#63b8ff" stroke="#63b8ff" points="369.88,-16.05 379.65,-11.97 369.46,-9.06 369.88,-16.05"/>
</a>
</g>
</g>
<!-- Node29&#45;&gt;Node8 -->
<g id="edge16_Node000029_Node000008" class="edge">
<title>Node29&#45;&gt;Node8</title>
<g id="a_edge16_Node000029_Node000008"><a xlink:title=" ">
<path fill="none" stroke="#63b8ff" d="M421.26,-120.87C437.5,-111.36 463.85,-95.95 482.96,-84.77"/>
<polygon fill="#63b8ff" stroke="#63b8ff" points="484.82,-87.74 491.68,-79.67 481.29,-81.7 484.82,-87.74"/>
</a>
</g>
</g>
<!-- Node29&#45;&gt;Node9 -->
<g id="edge15_Node000029_Node000009" class="edge">
<title>Node29&#45;&gt;Node9</title>
<g id="a_edge15_Node000029_Node000009"><a xlink:title=" ">
<path fill="none" stroke="#63b8ff" d="M406.64,-120.94C406.96,-101.91 407.74,-55.69 408.18,-29.47"/>
<polygon fill="#63b8ff" stroke="#63b8ff" points="411.68,-29.36 408.35,-19.3 404.68,-29.24 411.68,-29.36"/>
</a>
</g>
</g>
<!-- Node29&#45;&gt;Node30 -->
<g id="edge17_Node000029_Node000030" class="edge">
<title>Node29&#45;&gt;Node30</title>
<g id="a_edge17_Node000029_Node000030"><a xlink:title=" ">
<path fill="none" stroke="#63b8ff" d="M394.7,-120.87C382.05,-111.62 361.76,-96.78 346.59,-85.69"/>
<polygon fill="#63b8ff" stroke="#63b8ff" points="348.49,-82.74 338.35,-79.67 344.36,-88.4 348.49,-82.74"/>
</a>
</g>
</g>
<!-- Node30&#45;&gt;Node9 -->
<g id="edge18_Node000030_Node000009" class="edge">
<title>Node30&#45;&gt;Node9</title>
<g id="a_edge18_Node000030_Node000009"><a xlink:title=" ">
<path fill="none" stroke="#63b8ff" d="M338.6,-60.37C351.56,-51.12 372.36,-36.28 387.9,-25.19"/>
<polygon fill="#63b8ff" stroke="#63b8ff" points="390.24,-27.82 396.35,-19.17 386.18,-22.13 390.24,-27.82"/>
</a>
</g>
</g>
<!-- Node35&#45;&gt;Node9 -->
<g id="edge21_Node000035_Node000009" class="edge">
<title>Node35&#45;&gt;Node9</title>
<g id="a_edge21_Node000035_Node000009"><a xlink:title=" ">
<path fill="none" stroke="#63b8ff" d="M229.89,-60.49C266.94,-50.12 329.6,-32.58 369.99,-21.28"/>
<polygon fill="#63b8ff" stroke="#63b8ff" points="371.07,-24.61 379.75,-18.55 369.18,-17.87 371.07,-24.61"/>
</a>
</g>
</g>
<!-- Node36&#45;&gt;Node9 -->
<g id="edge25_Node000036_Node000009" class="edge">
<title>Node36&#45;&gt;Node9</title>
<g id="a_edge25_Node000036_Node000009"><a xlink:title=" ">
<path fill="none" stroke="#63b8ff" d="M166.24,-175.96C157.92,-167.66 146.17,-154.25 140.5,-140 126.51,-104.84 110.99,-83.83 135.5,-55 165.1,-20.19 301.57,-12.54 369.65,-10.91"/>
<polygon fill="#63b8ff" stroke="#63b8ff" points="370.04,-14.4 379.97,-10.7 369.9,-7.4 370.04,-14.4"/>
</a>
</g>
</g>
<!-- Node37 -->
<g id="Node000037" class="node">
<title>Node37</title>
<g id="a_Node000037"><a xlink:title=" ">
<polygon fill="#e0e0e0" stroke="#999999" points="201,-140 150,-140 150,-121 201,-121 201,-140"/>
<text text-anchor="middle" x="175.5" y="-128" font-family="Helvetica,sans-Serif" font-size="10.00">numeric</text>
</a>
</g>
</g>
<!-- Node36&#45;&gt;Node37 -->
<g id="edge26_Node000036_Node000037" class="edge">
<title>Node36&#45;&gt;Node37</title>
<g id="a_edge26_Node000036_Node000037"><a xlink:title=" ">
<path fill="none" stroke="#63b8ff" d="M175.5,-175.75C175.5,-168.8 175.5,-158.85 175.5,-150.13"/>
<polygon fill="#63b8ff" stroke="#63b8ff" points="179,-150.09 175.5,-140.09 172,-150.09 179,-150.09"/>
</a>
</g>
</g>
<!-- Node38&#45;&gt;Node8 -->
<g id="edge29_Node000038_Node000008" class="edge">
<title>Node38&#45;&gt;Node8</title>
<g id="a_edge29_Node000038_Node000008"><a xlink:title=" ">
<path fill="none" stroke="#63b8ff" d="M826.9,-121C765.62,-112.41 668.95,-98.52 585.5,-85 578.32,-83.84 570.77,-82.56 563.32,-81.28"/>
<polygon fill="#63b8ff" stroke="#63b8ff" points="563.7,-77.79 553.25,-79.52 562.5,-84.69 563.7,-77.79"/>
</a>
</g>
</g>
<!-- Node38&#45;&gt;Node9 -->
<g id="edge28_Node000038_Node000009" class="edge">
<title>Node38&#45;&gt;Node9</title>
<g id="a_edge28_Node000038_Node000009"><a xlink:title=" ">
<path fill="none" stroke="#63b8ff" d="M881.66,-120.97C867.16,-103.12 833.36,-62.84 817.5,-55 752.97,-23.11 536.52,-13.85 447.37,-11.36"/>
<polygon fill="#63b8ff" stroke="#63b8ff" points="447.24,-7.85 437.15,-11.08 447.05,-14.85 447.24,-7.85"/>
</a>
</g>
</g>
<!-- Node39 -->
<g id="Node000039" class="node">
<title>Node39</title>
<g id="a_Node000039"><a xlink:href="../../df/dd0/Array_8h.html" target="_top" xlink:title="Header file for class Cantera::Array2D.">
<polygon fill="white" stroke="#666666" points="970.5,-79.5 864.5,-79.5 864.5,-60.5 970.5,-60.5 970.5,-79.5"/>
<text text-anchor="middle" x="917.5" y="-67.5" font-family="Helvetica,sans-Serif" font-size="10.00">cantera/base/Array.h</text>
</a>
</g>
</g>
<!-- Node38&#45;&gt;Node39 -->
<g id="edge30_Node000038_Node000039" class="edge">
<title>Node38&#45;&gt;Node39</title>
<g id="a_edge30_Node000038_Node000039"><a xlink:title=" ">
<path fill="none" stroke="#63b8ff" d="M892.78,-120.87C896.93,-112.49 903.37,-99.51 908.63,-88.89"/>
<polygon fill="#63b8ff" stroke="#63b8ff" points="911.9,-90.18 913.2,-79.67 905.63,-87.07 911.9,-90.18"/>
</a>
</g>
</g>
<!-- Node39&#45;&gt;Node9 -->
<g id="edge31_Node000039_Node000009" class="edge">
<title>Node39&#45;&gt;Node9</title>
<g id="a_edge31_Node000039_Node000009"><a xlink:title=" ">
<path fill="none" stroke="#63b8ff" d="M880.07,-60.45C870.47,-58.46 860.13,-56.49 850.5,-55 702.36,-32.13 524.39,-18.34 447.27,-13.02"/>
<polygon fill="#63b8ff" stroke="#63b8ff" points="447.29,-9.51 437.07,-12.33 446.81,-16.5 447.29,-9.51"/>
</a>
</g>
</g>
<!-- Node40 -->
<g id="Node000040" class="node">
<title>Node40</title>
<g id="a_Node000040"><a xlink:title=" ">
<polygon fill="#e0e0e0" stroke="#999999" points="944.5,-19 890.5,-19 890.5,0 944.5,0 944.5,-19"/>
<text text-anchor="middle" x="917.5" y="-7" font-family="Helvetica,sans-Serif" font-size="10.00">iostream</text>
</a>
</g>
</g>
<!-- Node39&#45;&gt;Node40 -->
<g id="edge32_Node000039_Node000040" class="edge">
<title>Node39&#45;&gt;Node40</title>
<g id="a_edge32_Node000039_Node000040"><a xlink:title=" ">
<path fill="none" stroke="#63b8ff" d="M917.5,-60.37C917.5,-52.25 917.5,-39.81 917.5,-29.39"/>
<polygon fill="#63b8ff" stroke="#63b8ff" points="921,-29.17 917.5,-19.17 914,-29.17 921,-29.17"/>
</a>
</g>
</g>
</g>
</svg>
