<?xml version="1.0" encoding="UTF-8" standalone="no"?>
<!DOCTYPE svg PUBLIC "-//W3C//DTD SVG 1.1//EN"
 "http://www.w3.org/Graphics/SVG/1.1/DTD/svg11.dtd">
<!-- Generated by graphviz version 2.43.0 (0)
 -->
<!-- Title: Reactions and Reaction Rates Pages: 1 -->
<svg width="495pt" height="150pt"
 viewBox="0.00 0.00 495.00 150.00" xmlns="http://www.w3.org/2000/svg" xmlns:xlink="http://www.w3.org/1999/xlink">
<g id="graph0" class="graph" transform="scale(1 1) rotate(0) translate(4 146)">
<title>Reactions and Reaction Rates</title>
<!-- Node3 -->
<g id="Node000003" class="node">
<title>Node3</title>
<g id="a_Node000003"><a xlink:href="../../d1/d4e/group__arrheniusGroup.html" target="_top" xlink:title="Classes implementing the standard Arrhenius rate parameterization and derived models.">
<polygon fill="white" stroke="#666666" points="487,-142 307,-142 307,-123 487,-123 487,-142"/>
<text text-anchor="middle" x="397" y="-130" font-family="Helvetica,sans-Serif" font-size="10.00">Arrhenius&#45;type Parameterizations</text>
</a>
</g>
</g>
<!-- Node2 -->
<g id="Node000002" class="node">
<title>Node2</title>
<g id="a_Node000002"><a xlink:href="../../d1/dc2/group__chemkinetics.html" target="_top" xlink:title=" ">
<polygon fill="white" stroke="#666666" points="104,-83 0,-83 0,-64 104,-64 104,-83"/>
<text text-anchor="middle" x="52" y="-71" font-family="Helvetica,sans-Serif" font-size="10.00">Chemical Kinetics</text>
</a>
</g>
</g>
<!-- Node1 -->
<g id="Node000001" class="node">
<title>Node1</title>
<g id="a_Node000001"><a xlink:title="Classes for handling reactions and reaction rates.">
<polygon fill="#999999" stroke="#666666" points="271,-88.5 140,-88.5 140,-58.5 271,-58.5 271,-88.5"/>
<text text-anchor="start" x="148" y="-76.5" font-family="Helvetica,sans-Serif" font-size="10.00">Reactions and Reaction</text>
<text text-anchor="middle" x="205.5" y="-65.5" font-family="Helvetica,sans-Serif" font-size="10.00"> Rates</text>
</a>
</g>
</g>
<!-- Node2&#45;&gt;Node1 -->
<g id="edge1" class="edge">
<title>Node2&#45;&gt;Node1</title>
<path fill="none" stroke="black" d="M114.37,-73.5C122.76,-73.5 131.39,-73.5 139.83,-73.5"/>
<polygon fill="black" stroke="black" points="114.29,-70 104.29,-73.5 114.29,-77 114.29,-70"/>
</g>
<!-- Node4 -->
<g id="Node000004" class="node">
<title>Node4</title>
<g id="a_Node000004"><a xlink:href="../../dc/d96/group__falloffGroup.html" target="_top" xlink:title="Classes implementing fall&#45;off in reaction rate constants due to intermolecular energy transfer and de...">
<polygon fill="white" stroke="#666666" points="465.5,-105 328.5,-105 328.5,-86 465.5,-86 465.5,-105"/>
<text text-anchor="middle" x="397" y="-93" font-family="Helvetica,sans-Serif" font-size="10.00">Falloff Parameterizations</text>
</a>
</g>
</g>
<!-- Node6 -->
<g id="Node000006" class="node">
<title>Node6</title>
<g id="a_Node000006"><a xlink:href="../../df/da5/group__otherRateGroup.html" target="_top" xlink:title="Classes implementing other reaction rate parameterizations.">
<polygon fill="white" stroke="#666666" points="454.5,-67.5 339.5,-67.5 339.5,-37.5 454.5,-37.5 454.5,-67.5"/>
<text text-anchor="start" x="347.5" y="-55.5" font-family="Helvetica,sans-Serif" font-size="10.00">Other Reaction Rate</text>
<text text-anchor="middle" x="397" y="-44.5" font-family="Helvetica,sans-Serif" font-size="10.00"> Parameterizations</text>
</a>
</g>
</g>
<!-- Node1&#45;&gt;Node3 -->
<g id="edge2" class="edge">
<title>Node1&#45;&gt;Node3</title>
<path fill="none" stroke="black" d="M248.48,-92.69C266.26,-100.27 287.37,-108.57 307,-114.5 317.71,-117.74 329.33,-120.56 340.53,-122.96"/>
<polygon fill="black" stroke="black" points="249.55,-89.33 238.98,-88.57 246.76,-95.76 249.55,-89.33"/>
</g>
<!-- Node1&#45;&gt;Node4 -->
<g id="edge3" class="edge">
<title>Node1&#45;&gt;Node4</title>
<path fill="none" stroke="black" d="M281.27,-82.18C296.81,-83.99 313.11,-85.88 328.38,-87.65"/>
<polygon fill="black" stroke="black" points="281.52,-78.69 271.19,-81.01 280.71,-85.64 281.52,-78.69"/>
</g>
<!-- Node1&#45;&gt;Node6 -->
<g id="edge5" class="edge">
<title>Node1&#45;&gt;Node6</title>
<path fill="none" stroke="black" d="M281.16,-65.23C300.48,-63.08 320.97,-60.81 339.21,-58.79"/>
<polygon fill="black" stroke="black" points="280.74,-61.75 271.19,-66.33 281.51,-68.71 280.74,-61.75"/>
</g>
<!-- Node5 -->
<g id="Node000005" class="node">
<title>Node5</title>
<g id="a_Node000005"><a xlink:href="../../d2/d1c/group__surfaceGroup.html" target="_top" xlink:title="Classes implementing reaction rates that involve interfaces.">
<polygon fill="white" stroke="#666666" points="485.5,-19 308.5,-19 308.5,0 485.5,0 485.5,-19"/>
<text text-anchor="middle" x="397" y="-7" font-family="Helvetica,sans-Serif" font-size="10.00">Interface Rate Parameterizations</text>
</a>
</g>
</g>
<!-- Node1&#45;&gt;Node5 -->
<g id="edge4" class="edge">
<title>Node1&#45;&gt;Node5</title>
<path fill="none" stroke="black" d="M244.97,-53.98C263.38,-45.24 285.95,-35.37 307,-28.5 318.26,-24.82 330.57,-21.67 342.33,-19.05"/>
<polygon fill="black" stroke="black" points="243.24,-50.93 235.75,-58.43 246.28,-57.23 243.24,-50.93"/>
</g>
</g>
</svg>
