<?xml version="1.0" encoding="UTF-8" standalone="no"?>
<!DOCTYPE svg PUBLIC "-//W3C//DTD SVG 1.1//EN"
 "http://www.w3.org/Graphics/SVG/1.1/DTD/svg11.dtd">
<!-- Generated by graphviz version 6.0.1 (0)
 -->
<!-- Title: MultiPhase.h Pages: 1 -->
<!--zoomable 302 -->

<svg id="main" version="1.1" xmlns="http://www.w3.org/2000/svg" xmlns:xlink="http://www.w3.org/1999/xlink" xml:space="preserve" onload="init(evt)">
<style type="text/css"><![CDATA[
.node, .edge {opacity: 0.7;}
.node.selected, .edge.selected {opacity: 1;}
.edge:hover path { stroke: red; }
.edge:hover polygon { stroke: red; fill: red; }
]]></style>

<defs>
  <circle id="rim" cx="0" cy="0" r="7"/>
  <circle id="rim2" cx="0" cy="0" r="3.5"/>
  <g id="zoomPlus">
    <use xlink:href="#rim" fill="#404040"><set attributeName="fill" to="#808080" begin="zoomplus.mouseover" end="zoomplus.mouseout"/></use>
    <path d="M-4,0h8M0,-4v8" fill="none" stroke="white" stroke-width="1.5" pointer-events="none"/>
  </g>
  <g id="zoomMin">
    <use xlink:href="#rim" fill="#404040"><set attributeName="fill" to="#808080" begin="zoomminus.mouseover" end="zoomminus.mouseout"/></use>
    <path d="M-4,0h8" fill="none" stroke="white" stroke-width="1.5" pointer-events="none"/>
  </g>
  <g id="arrowUp" transform="translate(30 24)">
    <use xlink:href="#rim"/>
    <path pointer-events="none" fill="none" stroke="white" stroke-width="1.5" d="M0,-3.0v7 M-2.5,-0.5L0,-3.0L2.5,-0.5"/>
  </g>
  <g id="arrowRight" transform="rotate(90) translate(36 -43)">
    <use xlink:href="#rim"/>
    <path pointer-events="none" fill="none" stroke="white" stroke-width="1.5" d="M0,-3.0v7 M-2.5,-0.5L0,-3.0L2.5,-0.5"/>
  </g>
  <g id="arrowDown" transform="rotate(180) translate(-30 -48)">
    <use xlink:href="#rim"/>
    <path pointer-events="none" fill="none" stroke="white" stroke-width="1.5" d="M0,-3.0v7 M-2.5,-0.5L0,-3.0L2.5,-0.5"/>
  </g>
  <g id="arrowLeft" transform="rotate(270) translate(-36 17)">
    <use xlink:href="#rim"/>
    <path pointer-events="none" fill="none" stroke="white" stroke-width="1.5" d="M0,-3.0v7 M-2.5,-0.5L0,-3.0L2.5,-0.5"/>
  </g>
  <g id="resetDef">
    <use xlink:href="#rim2" fill="#404040"><set attributeName="fill" to="#808080" begin="reset.mouseover" end="reset.mouseout"/></use>
  </g>
</defs>
<script type="application/ecmascript">
var viewWidth = 789;
var viewHeight = 302;
var sectionId = 'dynsection-0';
</script>
<script type="application/ecmascript" xlink:href="../../svg.min.js"/>
<svg id="graph" class="graph">
<g id="viewport">
<title>MultiPhase.h</title>
<!-- Node1 -->
<g id="Node000001" class="node">
<title>Node1</title>
<g id="a_Node000001"><a xlink:title="Headers for the MultiPhase object that is used to set up multiphase equilibrium problems (see Chemica...">
<polygon fill="#999999" stroke="#666666" points="377.5,-294 303.5,-294 303.5,-275 377.5,-275 377.5,-294"/>
<text text-anchor="middle" x="340.5" y="-282" font-family="Helvetica,sans-Serif" font-size="10.00">MultiPhase.h</text>
</a>
</g>
</g>
<!-- Node2 -->
<g id="Node000002" class="node">
<title>Node2</title>
<g id="a_Node000002"><a xlink:href="../../d1/df7/DenseMatrix_8h.html" target="_top" xlink:title="Headers for the DenseMatrix object, which deals with dense rectangular matrices and description of th...">
<polygon fill="white" stroke="#666666" points="419.5,-239 261.5,-239 261.5,-220 419.5,-220 419.5,-239"/>
<text text-anchor="middle" x="340.5" y="-227" font-family="Helvetica,sans-Serif" font-size="10.00">cantera/numerics/DenseMatrix.h</text>
</a>
</g>
</g>
<!-- Node1&#45;&gt;Node2 -->
<g id="edge1_Node000001_Node000002" class="edge">
<title>Node1&#45;&gt;Node2</title>
<g id="a_edge1_Node000001_Node000002"><a xlink:title=" ">
<path fill="none" stroke="#63b8ff" d="M340.5,-274.75C340.5,-267.8 340.5,-257.85 340.5,-249.13"/>
<polygon fill="#63b8ff" stroke="#63b8ff" points="344,-249.09 340.5,-239.09 337,-249.09 344,-249.09"/>
</a>
</g>
</g>
<!-- Node3 -->
<g id="Node000003" class="node">
<title>Node3</title>
<g id="a_Node000003"><a xlink:href="../../d9/ddc/ct__defs_8h.html" target="_top" xlink:title="This file contains definitions of constants, types and terms that are used in internal routines and a...">
<polygon fill="white" stroke="#666666" points="358.5,-74 242.5,-74 242.5,-55 358.5,-55 358.5,-74"/>
<text text-anchor="middle" x="300.5" y="-62" font-family="Helvetica,sans-Serif" font-size="10.00">cantera/base/ct_defs.h</text>
</a>
</g>
</g>
<!-- Node2&#45;&gt;Node3 -->
<g id="edge2_Node000002_Node000003" class="edge">
<title>Node2&#45;&gt;Node3</title>
<g id="a_edge2_Node000002_Node000003"><a xlink:title=" ">
<path fill="none" stroke="#63b8ff" d="M319.98,-220C305.48,-212.77 287.15,-200.86 278.5,-184 261.61,-151.1 278.53,-107.14 290.63,-83.08"/>
<polygon fill="#63b8ff" stroke="#63b8ff" points="293.81,-84.55 295.4,-74.07 287.62,-81.27 293.81,-84.55"/>
</a>
</g>
</g>
<!-- Node14 -->
<g id="Node000014" class="node">
<title>Node14</title>
<g id="a_Node000014"><a xlink:href="../../db/d98/ctexceptions_8h.html" target="_top" xlink:title="Definitions for the classes that are thrown when Cantera experiences an error condition (also contain...">
<polygon fill="white" stroke="#666666" points="551.5,-184 411.5,-184 411.5,-165 551.5,-165 551.5,-184"/>
<text text-anchor="middle" x="481.5" y="-172" font-family="Helvetica,sans-Serif" font-size="10.00">cantera/base/ctexceptions.h</text>
</a>
</g>
</g>
<!-- Node2&#45;&gt;Node14 -->
<g id="edge13_Node000002_Node000014" class="edge">
<title>Node2&#45;&gt;Node14</title>
<g id="a_edge13_Node000002_Node000014"><a xlink:title=" ">
<path fill="none" stroke="#63b8ff" d="M363.15,-219.98C386.35,-211.27 422.62,-197.63 448.9,-187.75"/>
<polygon fill="#63b8ff" stroke="#63b8ff" points="450.3,-190.97 458.43,-184.17 447.84,-184.41 450.3,-190.97"/>
</a>
</g>
</g>
<!-- Node20 -->
<g id="Node000020" class="node">
<title>Node20</title>
<g id="a_Node000020"><a xlink:href="../../df/dd0/Array_8h.html" target="_top" xlink:title="Header file for class Cantera::Array2D.">
<polygon fill="white" stroke="#666666" points="393.5,-184 287.5,-184 287.5,-165 393.5,-165 393.5,-184"/>
<text text-anchor="middle" x="340.5" y="-172" font-family="Helvetica,sans-Serif" font-size="10.00">cantera/base/Array.h</text>
</a>
</g>
</g>
<!-- Node2&#45;&gt;Node20 -->
<g id="edge21_Node000002_Node000020" class="edge">
<title>Node2&#45;&gt;Node20</title>
<g id="a_edge21_Node000002_Node000020"><a xlink:title=" ">
<path fill="none" stroke="#63b8ff" d="M340.5,-219.75C340.5,-212.8 340.5,-202.85 340.5,-194.13"/>
<polygon fill="#63b8ff" stroke="#63b8ff" points="344,-194.09 340.5,-184.09 337,-194.09 344,-194.09"/>
</a>
</g>
</g>
<!-- Node4 -->
<g id="Node000004" class="node">
<title>Node4</title>
<g id="a_Node000004"><a xlink:href="../../db/d16/config_8h_source.html" target="_top" xlink:title=" ">
<polygon fill="white" stroke="#666666" points="51,-19 0,-19 0,0 51,0 51,-19"/>
<text text-anchor="middle" x="25.5" y="-7" font-family="Helvetica,sans-Serif" font-size="10.00">config.h</text>
</a>
</g>
</g>
<!-- Node3&#45;&gt;Node4 -->
<g id="edge3_Node000003_Node000004" class="edge">
<title>Node3&#45;&gt;Node4</title>
<g id="a_edge3_Node000003_Node000004"><a xlink:title=" ">
<path fill="none" stroke="#63b8ff" d="M249.77,-54.93C203.27,-46.88 132.29,-34.13 61.12,-19.03"/>
<polygon fill="#63b8ff" stroke="#63b8ff" points="61.59,-15.55 51.08,-16.88 60.12,-22.4 61.59,-15.55"/>
</a>
</g>
</g>
<!-- Node5 -->
<g id="Node000005" class="node">
<title>Node5</title>
<g id="a_Node000005"><a xlink:title=" ">
<polygon fill="#e0e0e0" stroke="#999999" points="113.5,-19 69.5,-19 69.5,0 113.5,0 113.5,-19"/>
<text text-anchor="middle" x="91.5" y="-7" font-family="Helvetica,sans-Serif" font-size="10.00">cmath</text>
</a>
</g>
</g>
<!-- Node3&#45;&gt;Node5 -->
<g id="edge4_Node000003_Node000005" class="edge">
<title>Node3&#45;&gt;Node5</title>
<g id="a_edge4_Node000003_Node000005"><a xlink:title=" ">
<path fill="none" stroke="#63b8ff" d="M265.32,-54.95C231.4,-46.66 178.39,-33.55 123.7,-19.27"/>
<polygon fill="#63b8ff" stroke="#63b8ff" points="124.4,-15.84 113.83,-16.69 122.62,-22.61 124.4,-15.84"/>
</a>
</g>
</g>
<!-- Node6 -->
<g id="Node000006" class="node">
<title>Node6</title>
<g id="a_Node000006"><a xlink:title=" ">
<polygon fill="#e0e0e0" stroke="#999999" points="177,-19 132,-19 132,0 177,0 177,-19"/>
<text text-anchor="middle" x="154.5" y="-7" font-family="Helvetica,sans-Serif" font-size="10.00">cstdlib</text>
</a>
</g>
</g>
<!-- Node3&#45;&gt;Node6 -->
<g id="edge5_Node000003_Node000006" class="edge">
<title>Node3&#45;&gt;Node6</title>
<g id="a_edge5_Node000003_Node000006"><a xlink:title=" ">
<path fill="none" stroke="#63b8ff" d="M277.04,-54.98C252.63,-46.12 214.23,-32.18 186.93,-22.27"/>
<polygon fill="#63b8ff" stroke="#63b8ff" points="188.01,-18.94 177.42,-18.82 185.62,-25.52 188.01,-18.94"/>
</a>
</g>
</g>
<!-- Node7 -->
<g id="Node000007" class="node">
<title>Node7</title>
<g id="a_Node000007"><a xlink:title=" ">
<polygon fill="#e0e0e0" stroke="#999999" points="239.5,-19 195.5,-19 195.5,0 239.5,0 239.5,-19"/>
<text text-anchor="middle" x="217.5" y="-7" font-family="Helvetica,sans-Serif" font-size="10.00">vector</text>
</a>
</g>
</g>
<!-- Node3&#45;&gt;Node7 -->
<g id="edge6_Node000003_Node000007" class="edge">
<title>Node3&#45;&gt;Node7</title>
<g id="a_edge6_Node000003_Node000007"><a xlink:title=" ">
<path fill="none" stroke="#63b8ff" d="M287.16,-54.98C274.41,-46.84 254.95,-34.41 239.83,-24.76"/>
<polygon fill="#63b8ff" stroke="#63b8ff" points="241.39,-21.6 231.08,-19.17 237.62,-27.5 241.39,-21.6"/>
</a>
</g>
</g>
<!-- Node8 -->
<g id="Node000008" class="node">
<title>Node8</title>
<g id="a_Node000008"><a xlink:title=" ">
<polygon fill="#e0e0e0" stroke="#999999" points="293,-19 258,-19 258,0 293,0 293,-19"/>
<text text-anchor="middle" x="275.5" y="-7" font-family="Helvetica,sans-Serif" font-size="10.00">map</text>
</a>
</g>
</g>
<!-- Node3&#45;&gt;Node8 -->
<g id="edge7_Node000003_Node000008" class="edge">
<title>Node3&#45;&gt;Node8</title>
<g id="a_edge7_Node000003_Node000008"><a xlink:title=" ">
<path fill="none" stroke="#63b8ff" d="M296.37,-54.75C292.99,-47.57 288.08,-37.18 283.88,-28.27"/>
<polygon fill="#63b8ff" stroke="#63b8ff" points="286.98,-26.64 279.55,-19.09 280.65,-29.63 286.98,-26.64"/>
</a>
</g>
</g>
<!-- Node9 -->
<g id="Node000009" class="node">
<title>Node9</title>
<g id="a_Node000009"><a xlink:title=" ">
<polygon fill="#e0e0e0" stroke="#999999" points="341.5,-19 311.5,-19 311.5,0 341.5,0 341.5,-19"/>
<text text-anchor="middle" x="326.5" y="-7" font-family="Helvetica,sans-Serif" font-size="10.00">set</text>
</a>
</g>
</g>
<!-- Node3&#45;&gt;Node9 -->
<g id="edge8_Node000003_Node000009" class="edge">
<title>Node3&#45;&gt;Node9</title>
<g id="a_edge8_Node000003_Node000009"><a xlink:title=" ">
<path fill="none" stroke="#63b8ff" d="M304.79,-54.75C308.31,-47.57 313.41,-37.18 317.78,-28.27"/>
<polygon fill="#63b8ff" stroke="#63b8ff" points="321.02,-29.61 322.29,-19.09 314.74,-26.53 321.02,-29.61"/>
</a>
</g>
</g>
<!-- Node10 -->
<g id="Node000010" class="node">
<title>Node10</title>
<g id="a_Node000010"><a xlink:title=" ">
<polygon fill="#e0e0e0" stroke="#999999" points="401,-19 360,-19 360,0 401,0 401,-19"/>
<text text-anchor="middle" x="380.5" y="-7" font-family="Helvetica,sans-Serif" font-size="10.00">string</text>
</a>
</g>
</g>
<!-- Node3&#45;&gt;Node10 -->
<g id="edge9_Node000003_Node000010" class="edge">
<title>Node3&#45;&gt;Node10</title>
<g id="a_edge9_Node000003_Node000010"><a xlink:title=" ">
<path fill="none" stroke="#63b8ff" d="M313.35,-54.98C325.64,-46.84 344.41,-34.41 358.98,-24.76"/>
<polygon fill="#63b8ff" stroke="#63b8ff" points="361.01,-27.61 367.41,-19.17 357.14,-21.78 361.01,-27.61"/>
</a>
</g>
</g>
<!-- Node11 -->
<g id="Node000011" class="node">
<title>Node11</title>
<g id="a_Node000011"><a xlink:title=" ">
<polygon fill="#e0e0e0" stroke="#999999" points="475.5,-19 419.5,-19 419.5,0 475.5,0 475.5,-19"/>
<text text-anchor="middle" x="447.5" y="-7" font-family="Helvetica,sans-Serif" font-size="10.00">algorithm</text>
</a>
</g>
</g>
<!-- Node3&#45;&gt;Node11 -->
<g id="edge10_Node000003_Node000011" class="edge">
<title>Node3&#45;&gt;Node11</title>
<g id="a_edge10_Node000003_Node000011"><a xlink:title=" ">
<path fill="none" stroke="#63b8ff" d="M324.12,-54.98C348.4,-46.23 386.45,-32.51 413.87,-22.62"/>
<polygon fill="#63b8ff" stroke="#63b8ff" points="415.23,-25.85 423.45,-19.17 412.86,-19.27 415.23,-25.85"/>
</a>
</g>
</g>
<!-- Node12 -->
<g id="Node000012" class="node">
<title>Node12</title>
<g id="a_Node000012"><a xlink:title=" ">
<polygon fill="#e0e0e0" stroke="#999999" points="545.5,-19 493.5,-19 493.5,0 545.5,0 545.5,-19"/>
<text text-anchor="middle" x="519.5" y="-7" font-family="Helvetica,sans-Serif" font-size="10.00">memory</text>
</a>
</g>
</g>
<!-- Node3&#45;&gt;Node12 -->
<g id="edge11_Node000003_Node000012" class="edge">
<title>Node3&#45;&gt;Node12</title>
<g id="a_edge11_Node000003_Node000012"><a xlink:title=" ">
<path fill="none" stroke="#63b8ff" d="M335.78,-54.98C370.79,-46.52 426.27,-33.11 483.23,-19.31"/>
<polygon fill="#63b8ff" stroke="#63b8ff" points="484.23,-22.66 493.13,-16.91 482.58,-15.86 484.23,-22.66"/>
</a>
</g>
</g>
<!-- Node13 -->
<g id="Node000013" class="node">
<title>Node13</title>
<g id="a_Node000013"><a xlink:title=" ">
<polygon fill="#e0e0e0" stroke="#999999" points="623,-19 564,-19 564,0 623,0 623,-19"/>
<text text-anchor="middle" x="593.5" y="-7" font-family="Helvetica,sans-Serif" font-size="10.00">functional</text>
</a>
</g>
</g>
<!-- Node3&#45;&gt;Node13 -->
<g id="edge12_Node000003_Node000013" class="edge">
<title>Node3&#45;&gt;Node13</title>
<g id="a_edge12_Node000003_Node000013"><a xlink:title=" ">
<path fill="none" stroke="#63b8ff" d="M353.15,-54.92C402.4,-46.76 478.23,-33.81 553.57,-19.11"/>
<polygon fill="#63b8ff" stroke="#63b8ff" points="554.58,-22.48 563.72,-17.12 553.23,-15.61 554.58,-22.48"/>
</a>
</g>
</g>
<!-- Node14&#45;&gt;Node3 -->
<g id="edge14_Node000014_Node000003" class="edge">
<title>Node14&#45;&gt;Node3</title>
<g id="a_edge14_Node000014_Node000003"><a xlink:title=" ">
<path fill="none" stroke="#63b8ff" d="M470.52,-164.88C453.94,-152.08 421.28,-127.64 391.5,-110 371.36,-98.07 347.57,-86.52 329.36,-78.18"/>
<polygon fill="#63b8ff" stroke="#63b8ff" points="330.7,-74.94 320.14,-74.01 327.81,-81.32 330.7,-74.94"/>
</a>
</g>
</g>
<!-- Node15 -->
<g id="Node000015" class="node">
<title>Node15</title>
<g id="a_Node000015"><a xlink:href="../../db/def/fmt_8h.html" target="_top" xlink:title="Wrapper for either system&#45;installed or local headers for fmt.">
<polygon fill="white" stroke="#666666" points="622.5,-129 524.5,-129 524.5,-110 622.5,-110 622.5,-129"/>
<text text-anchor="middle" x="573.5" y="-117" font-family="Helvetica,sans-Serif" font-size="10.00">cantera/base/fmt.h</text>
</a>
</g>
</g>
<!-- Node14&#45;&gt;Node15 -->
<g id="edge15_Node000014_Node000015" class="edge">
<title>Node14&#45;&gt;Node15</title>
<g id="a_edge15_Node000014_Node000015"><a xlink:title=" ">
<path fill="none" stroke="#63b8ff" d="M496.28,-164.98C510.68,-156.69 532.81,-143.94 549.69,-134.22"/>
<polygon fill="#63b8ff" stroke="#63b8ff" points="551.53,-137.19 558.45,-129.17 548.04,-131.13 551.53,-137.19"/>
</a>
</g>
</g>
<!-- Node19 -->
<g id="Node000019" class="node">
<title>Node19</title>
<g id="a_Node000019"><a xlink:title=" ">
<polygon fill="#e0e0e0" stroke="#999999" points="506,-129 447,-129 447,-110 506,-110 506,-129"/>
<text text-anchor="middle" x="476.5" y="-117" font-family="Helvetica,sans-Serif" font-size="10.00">exception</text>
</a>
</g>
</g>
<!-- Node14&#45;&gt;Node19 -->
<g id="edge20_Node000014_Node000019" class="edge">
<title>Node14&#45;&gt;Node19</title>
<g id="a_edge20_Node000014_Node000019"><a xlink:title=" ">
<path fill="none" stroke="#63b8ff" d="M480.67,-164.75C480.02,-157.8 479.08,-147.85 478.26,-139.13"/>
<polygon fill="#63b8ff" stroke="#63b8ff" points="481.73,-138.72 477.31,-129.09 474.77,-139.37 481.73,-138.72"/>
</a>
</g>
</g>
<!-- Node15&#45;&gt;Node3 -->
<g id="edge16_Node000015_Node000003" class="edge">
<title>Node15&#45;&gt;Node3</title>
<g id="a_edge16_Node000015_Node000003"><a xlink:title=" ">
<path fill="none" stroke="#63b8ff" d="M529.64,-109.98C482.02,-100.74 405.92,-85.97 354.62,-76.01"/>
<polygon fill="#63b8ff" stroke="#63b8ff" points="355.19,-72.55 344.71,-74.08 353.86,-79.42 355.19,-72.55"/>
</a>
</g>
</g>
<!-- Node16 -->
<g id="Node000016" class="node">
<title>Node16</title>
<g id="a_Node000016"><a xlink:title=" ">
<polygon fill="#e0e0e0" stroke="#999999" points="780.5,-74 658.5,-74 658.5,-55 780.5,-55 780.5,-74"/>
<text text-anchor="middle" x="719.5" y="-62" font-family="Helvetica,sans-Serif" font-size="10.00">cantera/ext/fmt/format.h</text>
</a>
</g>
</g>
<!-- Node15&#45;&gt;Node16 -->
<g id="edge17_Node000015_Node000016" class="edge">
<title>Node15&#45;&gt;Node16</title>
<g id="a_edge17_Node000015_Node000016"><a xlink:title=" ">
<path fill="none" stroke="#63b8ff" d="M596.96,-109.98C621.08,-101.23 658.87,-87.51 686.1,-77.62"/>
<polygon fill="#63b8ff" stroke="#63b8ff" points="687.41,-80.87 695.62,-74.17 685.02,-74.29 687.41,-80.87"/>
</a>
</g>
</g>
<!-- Node17 -->
<g id="Node000017" class="node">
<title>Node17</title>
<g id="a_Node000017"><a xlink:title=" ">
<polygon fill="#e0e0e0" stroke="#999999" points="492.5,-74 376.5,-74 376.5,-55 492.5,-55 492.5,-74"/>
<text text-anchor="middle" x="434.5" y="-62" font-family="Helvetica,sans-Serif" font-size="10.00">cantera/ext/fmt/printf.h</text>
</a>
</g>
</g>
<!-- Node15&#45;&gt;Node17 -->
<g id="edge18_Node000015_Node000017" class="edge">
<title>Node15&#45;&gt;Node17</title>
<g id="a_edge18_Node000015_Node000017"><a xlink:title=" ">
<path fill="none" stroke="#63b8ff" d="M551.17,-109.98C528.3,-101.27 492.54,-87.63 466.64,-77.75"/>
<polygon fill="#63b8ff" stroke="#63b8ff" points="467.83,-74.46 457.24,-74.17 465.34,-81 467.83,-74.46"/>
</a>
</g>
</g>
<!-- Node18 -->
<g id="Node000018" class="node">
<title>Node18</title>
<g id="a_Node000018"><a xlink:title=" ">
<polygon fill="#e0e0e0" stroke="#999999" points="640,-74 511,-74 511,-55 640,-55 640,-74"/>
<text text-anchor="middle" x="575.5" y="-62" font-family="Helvetica,sans-Serif" font-size="10.00">cantera/ext/fmt/ostream.h</text>
</a>
</g>
</g>
<!-- Node15&#45;&gt;Node18 -->
<g id="edge19_Node000015_Node000018" class="edge">
<title>Node15&#45;&gt;Node18</title>
<g id="a_edge19_Node000015_Node000018"><a xlink:title=" ">
<path fill="none" stroke="#63b8ff" d="M573.83,-109.75C574.09,-102.8 574.47,-92.85 574.8,-84.13"/>
<polygon fill="#63b8ff" stroke="#63b8ff" points="578.3,-84.21 575.18,-74.09 571.3,-83.95 578.3,-84.21"/>
</a>
</g>
</g>
<!-- Node20&#45;&gt;Node3 -->
<g id="edge22_Node000020_Node000003" class="edge">
<title>Node20&#45;&gt;Node3</title>
<g id="a_edge22_Node000020_Node000003"><a xlink:title=" ">
<path fill="none" stroke="#63b8ff" d="M335.92,-164.8C331.37,-155.96 324.39,-141.76 319.5,-129 313.83,-114.21 308.77,-96.96 305.29,-84.18"/>
<polygon fill="#63b8ff" stroke="#63b8ff" points="308.61,-83.04 302.68,-74.27 301.85,-84.83 308.61,-83.04"/>
</a>
</g>
</g>
<!-- Node21 -->
<g id="Node000021" class="node">
<title>Node21</title>
<g id="a_Node000021"><a xlink:title=" ">
<polygon fill="#e0e0e0" stroke="#999999" points="382.5,-129 328.5,-129 328.5,-110 382.5,-110 382.5,-129"/>
<text text-anchor="middle" x="355.5" y="-117" font-family="Helvetica,sans-Serif" font-size="10.00">iostream</text>
</a>
</g>
</g>
<!-- Node20&#45;&gt;Node21 -->
<g id="edge23_Node000020_Node000021" class="edge">
<title>Node20&#45;&gt;Node21</title>
<g id="a_edge23_Node000020_Node000021"><a xlink:title=" ">
<path fill="none" stroke="#63b8ff" d="M342.98,-164.75C344.96,-157.72 347.82,-147.62 350.31,-138.84"/>
<polygon fill="#63b8ff" stroke="#63b8ff" points="353.71,-139.66 353.07,-129.09 346.98,-137.76 353.71,-139.66"/>
</a>
</g>
</g>
</g>
</svg>

<g id="navigator" transform="translate(0 0)" fill="#404254">
  <rect fill="#f2f5e9" fill-opacity="0.5" stroke="#606060" stroke-width=".5" x="0" y="0" width="60" height="60"/>
  <use id="zoomplus" xlink:href="#zoomPlus" x="17" y="9" onmousedown="handleZoom(evt,'in')"/>
  <use id="zoomminus" xlink:href="#zoomMin" x="42" y="9" onmousedown="handleZoom(evt,'out')"/>
  <use id="reset" xlink:href="#resetDef" x="30" y="36" onmousedown="handleReset()"/>
   <use id="arrowup" xlink:href="#arrowUp" x="0" y="0" onmousedown="handlePan(0,-1)"/>
  <use id="arrowright" xlink:href="#arrowRight" x="0" y="0" onmousedown="handlePan(1,0)"/>
  <use id="arrowdown" xlink:href="#arrowDown" x="0" y="0" onmousedown="handlePan(0,1)"/>
  <use id="arrowleft" xlink:href="#arrowLeft" x="0" y="0" onmousedown="handlePan(-1,0)"/>
</g>
<svg viewBox="0 0 15 15" width="100%" height="30px" preserveAspectRatio="xMaxYMin meet">
 <g id="arrow_out" transform="scale(0.3 0.3)">
  <a xlink:href="MultiPhase_8h__incl_org.svg" target="_base">
   <rect id="button" ry="5" rx="5" y="6" x="6" height="38" width="38"
        fill="#f2f5e9" fill-opacity="0.5" stroke="#606060" stroke-width="1.0"/>
   <path id="arrow"
     d="M 11.500037,31.436501 C 11.940474,20.09759 22.043105,11.32322 32.158766,21.979434 L 37.068811,17.246167 C 37.068811,17.246167 37.088388,32 37.088388,32 L 22.160133,31.978069 C 22.160133,31.978069 26.997745,27.140456 26.997745,27.140456 C 18.528582,18.264221 13.291696,25.230495 11.500037,31.436501 z"
     style="fill:#404040;"/>
  </a>
 </g>
</svg>

<style type='text/css'>
<![CDATA[
[data-mouse-over-selected='false'] { opacity: 0.7; }
[data-mouse-over-selected='true']  { opacity: 1.0; }
]]>
</style>
<script type="application/ecmascript"><![CDATA[
document.addEventListener('DOMContentLoaded', (event) => {
  highlightEdges();
  highlightAdjacentNodes();
});
]]></script>
</svg>
