<?xml version="1.0" encoding="UTF-8" standalone="no"?>
<!DOCTYPE svg PUBLIC "-//W3C//DTD SVG 1.1//EN"
 "http://www.w3.org/Graphics/SVG/1.1/DTD/svg11.dtd">
<!-- Generated by graphviz version 2.43.0 (0)
 -->
<!-- Title: MixtureFugacityTP.cpp Pages: 1 -->
<!--zoomable 476 -->
<svg id="main" version="1.1" xmlns="http://www.w3.org/2000/svg" xmlns:xlink="http://www.w3.org/1999/xlink" xml:space="preserve" onload="init(evt)">
<style type="text/css"><![CDATA[
.edge:hover path { stroke: red; }
.edge:hover polygon { stroke: red; fill: red; }
]]></style>
<script type="text/javascript"><![CDATA[
var edges = document.getElementsByTagName('g');
if (edges && edges.length) {
  for (var i=0;i<edges.length;i++) {
    if (edges[i].id.substr(0,4)=='edge') {
      edges[i].setAttribute('class','edge');
    }
  }
}
]]></script>
        <defs>
                <circle id="rim" cx="0" cy="0" r="7"/>
                <circle id="rim2" cx="0" cy="0" r="3.5"/>
                <g id="zoomPlus">
                        <use xlink:href="#rim" fill="#404040">
                                <set attributeName="fill" to="#808080" begin="zoomplus.mouseover" end="zoomplus.mouseout"/>
                        </use>
                        <path d="M-4,0h8M0,-4v8" fill="none" stroke="white" stroke-width="1.5" pointer-events="none"/>
                </g>
                <g id="zoomMin">
                        <use xlink:href="#rim" fill="#404040">
                                <set attributeName="fill" to="#808080" begin="zoomminus.mouseover" end="zoomminus.mouseout"/>
                        </use>
                        <path d="M-4,0h8" fill="none" stroke="white" stroke-width="1.5" pointer-events="none"/>
                </g>
                <g id="dirArrow">
                        <path fill="none" stroke="white" stroke-width="1.5" d="M0,-3.0v7 M-2.5,-0.5L0,-3.0L2.5,-0.5"/>
                </g>
               <g id="resetDef">
                       <use xlink:href="#rim2" fill="#404040">
                               <set attributeName="fill" to="#808080" begin="reset.mouseover" end="reset.mouseout"/>
                       </use>
               </g>
        </defs>

<script type="text/javascript">
var viewWidth = 1022;
var viewHeight = 476;
var sectionId = 'dynsection-0';
</script>
<script xlink:href="../../svgpan.js"/>
<svg id="graph" class="graph">
<g id="viewport">
<title>MixtureFugacityTP.cpp</title>
<polygon fill="white" stroke="transparent" points="-4,4 -4,-472 1017.5,-472 1017.5,4 -4,4"/>
<!-- Node1 -->
<g id="node1" class="node">
<title>Node1</title>
<g id="a_node1"><a xlink:title="Methods file for a derived class of ThermoPhase that handles non&#45;ideal mixtures based on the fugacity...">
<polygon fill="#bfbfbf" stroke="black" points="717.5,-448.5 717.5,-467.5 843.5,-467.5 843.5,-448.5 717.5,-448.5"/>
<text text-anchor="middle" x="780.5" y="-455.5" font-family="Helvetica,sans-Serif" font-size="10.00">MixtureFugacityTP.cpp</text>
</a>
</g>
</g>
<!-- Node2 -->
<g id="node2" class="node">
<title>Node2</title>
<g id="a_node2"><a xlink:href="../../d1/da4/MixtureFugacityTP_8h.html" target="_top" xlink:title="Header file for a derived class of ThermoPhase that handles non&#45;ideal mixtures based on the fugacity ...">
<polygon fill="white" stroke="black" points="495,-392.5 495,-411.5 688,-411.5 688,-392.5 495,-392.5"/>
<text text-anchor="middle" x="591.5" y="-399.5" font-family="Helvetica,sans-Serif" font-size="10.00">cantera/thermo/MixtureFugacityTP.h</text>
</a>
</g>
</g>
<!-- Node1&#45;&gt;Node2 -->
<g id="edge1" class="edge">
<title>Node1&#45;&gt;Node2</title>
<path fill="none" stroke="midnightblue" d="M750.55,-448.44C718.34,-439.24 666.97,-424.56 631.36,-414.39"/>
<polygon fill="midnightblue" stroke="midnightblue" points="631.88,-410.9 621.31,-411.52 629.96,-417.63 631.88,-410.9"/>
</g>
<!-- Node33 -->
<g id="node14" class="node">
<title>Node33</title>
<g id="a_node14"><a xlink:href="../../dd/dc3/stringUtils_8h.html" target="_top" xlink:title="Contains declarations for string manipulation functions within Cantera.">
<polygon fill="white" stroke="black" points="759.5,-280.5 759.5,-299.5 901.5,-299.5 901.5,-280.5 759.5,-280.5"/>
<text text-anchor="middle" x="830.5" y="-287.5" font-family="Helvetica,sans-Serif" font-size="10.00">cantera/base/stringUtils.h</text>
</a>
</g>
</g>
<!-- Node1&#45;&gt;Node33 -->
<g id="edge23" class="edge">
<title>Node1&#45;&gt;Node33</title>
<path fill="none" stroke="midnightblue" d="M783.19,-448.08C791.06,-421.95 814.17,-345.21 824.9,-309.58"/>
<polygon fill="midnightblue" stroke="midnightblue" points="828.39,-310.15 827.92,-299.57 821.68,-308.13 828.39,-310.15"/>
</g>
<!-- Node34 -->
<g id="node15" class="node">
<title>Node34</title>
<g id="a_node15"><a xlink:href="../../de/df0/utilities_8h.html" target="_top" xlink:title="Various templated functions that carry out common vector and polynomial operations (see Templated Arr...">
<polygon fill="white" stroke="black" points="865.5,-392.5 865.5,-411.5 993.5,-411.5 993.5,-392.5 865.5,-392.5"/>
<text text-anchor="middle" x="929.5" y="-399.5" font-family="Helvetica,sans-Serif" font-size="10.00">cantera/base/utilities.h</text>
</a>
</g>
</g>
<!-- Node1&#45;&gt;Node34 -->
<g id="edge25" class="edge">
<title>Node1&#45;&gt;Node34</title>
<path fill="none" stroke="midnightblue" d="M804.11,-448.44C828.96,-439.44 868.27,-425.19 896.25,-415.05"/>
<polygon fill="midnightblue" stroke="midnightblue" points="897.79,-418.21 906,-411.52 895.41,-411.63 897.79,-418.21"/>
</g>
<!-- Node36 -->
<g id="node17" class="node">
<title>Node36</title>
<g id="a_node17"><a xlink:href="../../d2/d49/global_8h.html" target="_top" xlink:title="This file contains definitions for utility functions and text for modules, inputfiles and logging,...">
<polygon fill="white" stroke="black" points="711.5,-112.5 711.5,-131.5 833.5,-131.5 833.5,-112.5 711.5,-112.5"/>
<text text-anchor="middle" x="772.5" y="-119.5" font-family="Helvetica,sans-Serif" font-size="10.00">cantera/base/global.h</text>
</a>
</g>
</g>
<!-- Node1&#45;&gt;Node36 -->
<g id="edge28" class="edge">
<title>Node1&#45;&gt;Node36</title>
<path fill="none" stroke="midnightblue" d="M773.69,-448.46C760.22,-430.69 731.5,-387.98 731.5,-347 731.5,-347 731.5,-347 731.5,-233 731.5,-198.52 749.41,-161.56 761.56,-140.47"/>
<polygon fill="midnightblue" stroke="midnightblue" points="764.66,-142.09 766.8,-131.71 758.66,-138.49 764.66,-142.09"/>
</g>
<!-- Node3 -->
<g id="node3" class="node">
<title>Node3</title>
<g id="a_node3"><a xlink:href="../../d7/d01/ThermoPhase_8h.html" target="_top" xlink:title="Header file for class ThermoPhase, the base class for phases with thermodynamic properties,...">
<polygon fill="white" stroke="black" points="500.5,-336.5 500.5,-355.5 592.5,-355.5 592.5,-336.5 500.5,-336.5"/>
<text text-anchor="middle" x="546.5" y="-343.5" font-family="Helvetica,sans-Serif" font-size="10.00">ThermoPhase.h</text>
</a>
</g>
</g>
<!-- Node2&#45;&gt;Node3 -->
<g id="edge2" class="edge">
<title>Node2&#45;&gt;Node3</title>
<path fill="none" stroke="midnightblue" d="M584.07,-392.08C577.65,-384.38 568.19,-373.03 560.38,-363.65"/>
<polygon fill="midnightblue" stroke="midnightblue" points="562.88,-361.19 553.79,-355.75 557.51,-365.67 562.88,-361.19"/>
</g>
<!-- Node4 -->
<g id="node4" class="node">
<title>Node4</title>
<g id="a_node4"><a xlink:href="../../da/d84/Phase_8h.html" target="_top" xlink:title="Header file for class Phase.">
<polygon fill="white" stroke="black" points="234,-168.5 234,-187.5 289,-187.5 289,-168.5 234,-168.5"/>
<text text-anchor="middle" x="261.5" y="-175.5" font-family="Helvetica,sans-Serif" font-size="10.00">Phase.h</text>
</a>
</g>
</g>
<!-- Node3&#45;&gt;Node4 -->
<g id="edge3" class="edge">
<title>Node3&#45;&gt;Node4</title>
<path fill="none" stroke="midnightblue" d="M500.48,-339.64C464.93,-333.93 415.54,-322.46 377.5,-300 331.52,-272.85 291.87,-222.47 273.09,-196.1"/>
<polygon fill="midnightblue" stroke="midnightblue" points="275.73,-193.76 267.14,-187.56 269.98,-197.76 275.73,-193.76"/>
</g>
<!-- Node25 -->
<g id="node10" class="node">
<title>Node25</title>
<g id="a_node10"><a xlink:href="../../d6/d7a/MultiSpeciesThermo_8h.html" target="_top" xlink:title="Header for a general species thermodynamic property manager for a phase (see MultiSpeciesThermo).">
<polygon fill="white" stroke="black" points="387,-280.5 387,-299.5 512,-299.5 512,-280.5 387,-280.5"/>
<text text-anchor="middle" x="449.5" y="-287.5" font-family="Helvetica,sans-Serif" font-size="10.00">MultiSpeciesThermo.h</text>
</a>
</g>
</g>
<!-- Node3&#45;&gt;Node25 -->
<g id="edge12" class="edge">
<title>Node3&#45;&gt;Node25</title>
<path fill="none" stroke="midnightblue" d="M530.92,-336.32C515.5,-327.74 491.69,-314.49 473.79,-304.52"/>
<polygon fill="midnightblue" stroke="midnightblue" points="475.49,-301.46 465.05,-299.65 472.08,-307.58 475.49,-301.46"/>
</g>
<!-- Node27 -->
<g id="node12" class="node">
<title>Node27</title>
<g id="a_node12"><a xlink:href="../../dd/d2a/AnyMap_8h.html" target="_top" xlink:title=" ">
<polygon fill="white" stroke="red" points="475,-168.5 475,-187.5 606,-187.5 606,-168.5 475,-168.5"/>
<text text-anchor="middle" x="540.5" y="-175.5" font-family="Helvetica,sans-Serif" font-size="10.00">cantera/base/AnyMap.h</text>
</a>
</g>
</g>
<!-- Node3&#45;&gt;Node27 -->
<g id="edge22" class="edge">
<title>Node3&#45;&gt;Node27</title>
<path fill="none" stroke="midnightblue" d="M546.18,-336.08C545.23,-309.95 542.46,-233.21 541.17,-197.58"/>
<polygon fill="midnightblue" stroke="midnightblue" points="544.67,-197.44 540.81,-187.57 537.67,-197.69 544.67,-197.44"/>
</g>
<!-- Node28 -->
<g id="node13" class="node">
<title>Node28</title>
<g id="a_node13"><a xlink:href="../../da/d58/Units_8h.html" target="_top" xlink:title="Header for unit conversion utilities, which are used to translate user input from input files (See In...">
<polygon fill="white" stroke="black" points="576,-112.5 576,-131.5 693,-131.5 693,-112.5 576,-112.5"/>
<text text-anchor="middle" x="634.5" y="-119.5" font-family="Helvetica,sans-Serif" font-size="10.00">cantera/base/Units.h</text>
</a>
</g>
</g>
<!-- Node3&#45;&gt;Node28 -->
<g id="edge21" class="edge">
<title>Node3&#45;&gt;Node28</title>
<path fill="none" stroke="midnightblue" d="M550.68,-336.29C561.89,-312.73 593.21,-245.68 614.5,-188 620.25,-172.42 625.72,-154.35 629.48,-141.22"/>
<polygon fill="midnightblue" stroke="midnightblue" points="632.87,-142.09 632.2,-131.51 626.13,-140.19 632.87,-142.09"/>
</g>
<!-- Node5 -->
<g id="node5" class="node">
<title>Node5</title>
<g id="a_node5"><a xlink:href="../../db/d98/ctexceptions_8h.html" target="_top" xlink:title="Definitions for the classes that are thrown when Cantera experiences an error condition (also contain...">
<polygon fill="white" stroke="red" points="365.5,-112.5 365.5,-131.5 519.5,-131.5 519.5,-112.5 365.5,-112.5"/>
<text text-anchor="middle" x="442.5" y="-119.5" font-family="Helvetica,sans-Serif" font-size="10.00">cantera/base/ctexceptions.h</text>
</a>
</g>
</g>
<!-- Node4&#45;&gt;Node5 -->
<g id="edge4" class="edge">
<title>Node4&#45;&gt;Node5</title>
<path fill="none" stroke="midnightblue" d="M289.38,-168.68C320.16,-159.5 369.89,-144.66 404.28,-134.4"/>
<polygon fill="midnightblue" stroke="midnightblue" points="405.4,-137.72 413.99,-131.51 403.4,-131.01 405.4,-137.72"/>
</g>
<!-- Node22 -->
<g id="node8" class="node">
<title>Node22</title>
<g id="a_node8"><a xlink:href="../../d9/dda/Elements_8h.html" target="_top" xlink:title="Contains the getElementWeight function and the definitions of element constraint types.">
<polygon fill="white" stroke="black" points="167,-56.5 167,-75.5 316,-75.5 316,-56.5 167,-56.5"/>
<text text-anchor="middle" x="241.5" y="-63.5" font-family="Helvetica,sans-Serif" font-size="10.00">cantera/thermo/Elements.h</text>
</a>
</g>
</g>
<!-- Node4&#45;&gt;Node22 -->
<g id="edge8" class="edge">
<title>Node4&#45;&gt;Node22</title>
<path fill="none" stroke="midnightblue" d="M259.93,-168.37C256.7,-150.62 249.26,-109.67 244.88,-85.6"/>
<polygon fill="midnightblue" stroke="midnightblue" points="248.29,-84.8 243.06,-75.59 241.41,-86.06 248.29,-84.8"/>
</g>
<!-- Node23 -->
<g id="node9" class="node">
<title>Node23</title>
<g id="a_node9"><a xlink:href="../../d6/df6/ValueCache_8h.html" target="_top" xlink:title=" ">
<polygon fill="white" stroke="red" points="0,-56.5 0,-75.5 149,-75.5 149,-56.5 0,-56.5"/>
<text text-anchor="middle" x="74.5" y="-63.5" font-family="Helvetica,sans-Serif" font-size="10.00">cantera/base/ValueCache.h</text>
</a>
</g>
</g>
<!-- Node4&#45;&gt;Node23 -->
<g id="edge10" class="edge">
<title>Node4&#45;&gt;Node23</title>
<path fill="none" stroke="midnightblue" d="M246.83,-168.37C214.6,-149.41 137.4,-104 98.2,-80.94"/>
<polygon fill="midnightblue" stroke="midnightblue" points="99.5,-77.64 89.11,-75.59 95.95,-83.68 99.5,-77.64"/>
</g>
<!-- Node6 -->
<g id="node6" class="node">
<title>Node6</title>
<g id="a_node6"><a xlink:href="../../d9/ddc/ct__defs_8h.html" target="_top" xlink:title="This file contains definitions of constants, types and terms that are used in internal routines and a...">
<polygon fill="white" stroke="red" points="475,-0.5 475,-19.5 536,-19.5 536,-0.5 475,-0.5"/>
<text text-anchor="middle" x="505.5" y="-7.5" font-family="Helvetica,sans-Serif" font-size="10.00">ct_defs.h</text>
</a>
</g>
</g>
<!-- Node5&#45;&gt;Node6 -->
<g id="edge5" class="edge">
<title>Node5&#45;&gt;Node6</title>
<path fill="none" stroke="midnightblue" d="M429.79,-112.35C413.07,-99.86 387.26,-76.08 400.5,-56 414.77,-34.37 441.82,-23.09 464.9,-17.24"/>
<polygon fill="midnightblue" stroke="midnightblue" points="465.85,-20.61 474.83,-14.98 464.3,-13.79 465.85,-20.61"/>
</g>
<!-- Node17 -->
<g id="node7" class="node">
<title>Node17</title>
<g id="a_node7"><a xlink:href="../../db/def/fmt_8h.html" target="_top" xlink:title="Wrapper for either system&#45;installed or local headers for fmt.">
<polygon fill="white" stroke="red" points="410,-56.5 410,-75.5 519,-75.5 519,-56.5 410,-56.5"/>
<text text-anchor="middle" x="464.5" y="-63.5" font-family="Helvetica,sans-Serif" font-size="10.00">cantera/base/fmt.h</text>
</a>
</g>
</g>
<!-- Node5&#45;&gt;Node17 -->
<g id="edge6" class="edge">
<title>Node5&#45;&gt;Node17</title>
<path fill="none" stroke="midnightblue" d="M446.13,-112.08C449.11,-104.77 453.43,-94.18 457.12,-85.1"/>
<polygon fill="midnightblue" stroke="midnightblue" points="460.4,-86.33 460.93,-75.75 453.92,-83.69 460.4,-86.33"/>
</g>
<!-- Node17&#45;&gt;Node6 -->
<g id="edge7" class="edge">
<title>Node17&#45;&gt;Node6</title>
<path fill="none" stroke="midnightblue" d="M471.27,-56.08C477.06,-48.46 485.56,-37.26 492.64,-27.94"/>
<polygon fill="midnightblue" stroke="midnightblue" points="495.6,-29.83 498.86,-19.75 490.02,-25.6 495.6,-29.83"/>
</g>
<!-- Node22&#45;&gt;Node6 -->
<g id="edge9" class="edge">
<title>Node22&#45;&gt;Node6</title>
<path fill="none" stroke="midnightblue" d="M283.33,-56.44C333.15,-46.25 415.78,-29.35 465,-19.28"/>
<polygon fill="midnightblue" stroke="midnightblue" points="465.88,-22.68 474.98,-17.24 464.48,-15.82 465.88,-22.68"/>
</g>
<!-- Node23&#45;&gt;Node6 -->
<g id="edge11" class="edge">
<title>Node23&#45;&gt;Node6</title>
<path fill="none" stroke="midnightblue" d="M142.79,-56.44C233.4,-45.09 390.52,-25.41 464.6,-16.12"/>
<polygon fill="midnightblue" stroke="midnightblue" points="465.43,-19.55 474.91,-14.83 464.56,-12.6 465.43,-19.55"/>
</g>
<!-- Node26 -->
<g id="node11" class="node">
<title>Node26</title>
<g id="a_node11"><a xlink:href="../../d4/d87/SpeciesThermoInterpType_8h.html" target="_top" xlink:title="Pure Virtual Base class for individual species reference state thermodynamic managers and text for th...">
<polygon fill="white" stroke="black" points="366.5,-224.5 366.5,-243.5 518.5,-243.5 518.5,-224.5 366.5,-224.5"/>
<text text-anchor="middle" x="442.5" y="-231.5" font-family="Helvetica,sans-Serif" font-size="10.00">SpeciesThermoInterpType.h</text>
</a>
</g>
</g>
<!-- Node25&#45;&gt;Node26 -->
<g id="edge13" class="edge">
<title>Node25&#45;&gt;Node26</title>
<path fill="none" stroke="midnightblue" d="M448.34,-280.08C447.42,-272.93 446.08,-262.64 444.92,-253.69"/>
<polygon fill="midnightblue" stroke="midnightblue" points="448.39,-253.22 443.63,-243.75 441.45,-254.12 448.39,-253.22"/>
</g>
<!-- Node26&#45;&gt;Node5 -->
<g id="edge15" class="edge">
<title>Node26&#45;&gt;Node5</title>
<path fill="none" stroke="midnightblue" d="M442.5,-224.37C442.5,-206.62 442.5,-165.67 442.5,-141.6"/>
<polygon fill="midnightblue" stroke="midnightblue" points="446,-141.59 442.5,-131.59 439,-141.59 446,-141.59"/>
</g>
<!-- Node26&#45;&gt;Node6 -->
<g id="edge14" class="edge">
<title>Node26&#45;&gt;Node6</title>
<path fill="none" stroke="midnightblue" d="M428.57,-224.43C400.69,-206.07 341.89,-160.62 356.5,-112 365.09,-83.43 370.39,-74.86 393.5,-56 414.29,-39.03 442.3,-27.78 465.11,-20.77"/>
<polygon fill="midnightblue" stroke="midnightblue" points="466.23,-24.09 474.86,-17.93 464.28,-17.37 466.23,-24.09"/>
</g>
<!-- Node26&#45;&gt;Node27 -->
<g id="edge16" class="edge">
<title>Node26&#45;&gt;Node27</title>
<path fill="none" stroke="midnightblue" d="M458.25,-224.32C473.82,-215.74 497.88,-202.49 515.96,-192.52"/>
<polygon fill="midnightblue" stroke="midnightblue" points="517.72,-195.55 524.79,-187.65 514.35,-189.42 517.72,-195.55"/>
</g>
<!-- Node27&#45;&gt;Node5 -->
<g id="edge18" class="edge">
<title>Node27&#45;&gt;Node5</title>
<path fill="none" stroke="midnightblue" d="M524.75,-168.32C509.18,-159.74 485.12,-146.49 467.04,-136.52"/>
<polygon fill="midnightblue" stroke="midnightblue" points="468.65,-133.42 458.21,-131.65 465.28,-139.55 468.65,-133.42"/>
</g>
<!-- Node27&#45;&gt;Node6 -->
<g id="edge17" class="edge">
<title>Node27&#45;&gt;Node6</title>
<path fill="none" stroke="midnightblue" d="M540.59,-168.29C540.57,-148.13 539.27,-96.8 527.5,-56 524.76,-46.5 520.11,-36.55 515.79,-28.44"/>
<polygon fill="midnightblue" stroke="midnightblue" points="518.78,-26.61 510.83,-19.6 512.67,-30.03 518.78,-26.61"/>
</g>
<!-- Node27&#45;&gt;Node28 -->
<g id="edge19" class="edge">
<title>Node27&#45;&gt;Node28</title>
<path fill="none" stroke="midnightblue" d="M555.6,-168.32C570.4,-159.82 593.19,-146.73 610.48,-136.8"/>
<polygon fill="midnightblue" stroke="midnightblue" points="612.51,-139.67 619.43,-131.65 609.02,-133.6 612.51,-139.67"/>
</g>
<!-- Node28&#45;&gt;Node6 -->
<g id="edge20" class="edge">
<title>Node28&#45;&gt;Node6</title>
<path fill="none" stroke="midnightblue" d="M625.18,-112.43C611.44,-99.85 584.82,-75.73 561.5,-56 549.48,-45.83 535.69,-34.75 524.81,-26.12"/>
<polygon fill="midnightblue" stroke="midnightblue" points="526.81,-23.24 516.79,-19.8 522.48,-28.74 526.81,-23.24"/>
</g>
<!-- Node33&#45;&gt;Node6 -->
<g id="edge24" class="edge">
<title>Node33&#45;&gt;Node6</title>
<path fill="none" stroke="midnightblue" d="M834.68,-280.39C843.14,-262.16 861.5,-218.09 861.5,-179 861.5,-179 861.5,-179 861.5,-121 861.5,-55.68 639.92,-24.96 546.38,-14.9"/>
<polygon fill="midnightblue" stroke="midnightblue" points="546.47,-11.39 536.16,-13.83 545.74,-18.35 546.47,-11.39"/>
</g>
<!-- Node34&#45;&gt;Node6 -->
<g id="edge26" class="edge">
<title>Node34&#45;&gt;Node6</title>
<path fill="none" stroke="midnightblue" d="M929.5,-392.44C929.5,-373.94 929.5,-328.81 929.5,-291 929.5,-291 929.5,-291 929.5,-121 929.5,-42.34 652.65,-18.98 546.37,-12.91"/>
<polygon fill="midnightblue" stroke="midnightblue" points="546.51,-9.41 536.33,-12.36 546.13,-16.4 546.51,-9.41"/>
</g>
<!-- Node35 -->
<g id="node16" class="node">
<title>Node35</title>
<g id="a_node16"><a xlink:title=" ">
<polygon fill="white" stroke="#bfbfbf" points="957.5,-336.5 957.5,-355.5 1013.5,-355.5 1013.5,-336.5 957.5,-336.5"/>
<text text-anchor="middle" x="985.5" y="-343.5" font-family="Helvetica,sans-Serif" font-size="10.00">numeric</text>
</a>
</g>
</g>
<!-- Node34&#45;&gt;Node35 -->
<g id="edge27" class="edge">
<title>Node34&#45;&gt;Node35</title>
<path fill="none" stroke="midnightblue" d="M938.5,-392.32C946.69,-384.42 959.01,-372.55 968.97,-362.94"/>
<polygon fill="midnightblue" stroke="midnightblue" points="971.57,-365.29 976.34,-355.83 966.71,-360.26 971.57,-365.29"/>
</g>
<!-- Node36&#45;&gt;Node6 -->
<g id="edge29" class="edge">
<title>Node36&#45;&gt;Node6</title>
<path fill="none" stroke="midnightblue" d="M751.55,-112.37C704.56,-93.01 590.61,-46.06 535.86,-23.51"/>
<polygon fill="midnightblue" stroke="midnightblue" points="536.93,-20.16 526.35,-19.59 534.27,-26.64 536.93,-20.16"/>
</g>
<!-- Node36&#45;&gt;Node17 -->
<g id="edge30" class="edge">
<title>Node36&#45;&gt;Node17</title>
<path fill="none" stroke="midnightblue" d="M723.7,-112.44C669.29,-102.9 581.33,-87.48 523.21,-77.29"/>
<polygon fill="midnightblue" stroke="midnightblue" points="523.53,-73.8 513.08,-75.52 522.32,-80.69 523.53,-73.8"/>
</g>
</g>
</svg>
        <g id="navigator" transform="translate(0 0)" fill="#404254">
                <rect fill="#f2f5e9" fill-opacity="0.5" stroke="#606060" stroke-width=".5" x="0" y="0" width="60" height="60"/>
                <use id="zoomplus" xlink:href="#zoomPlus" x="17" y="9" onmousedown="handleZoom(evt,'in')"/>
                <use id="zoomminus" xlink:href="#zoomMin" x="42" y="9" onmousedown="handleZoom(evt,'out')"/>
                <use id="reset" xlink:href="#resetDef" x="30" y="36" onmousedown="handleReset()"/>
                <g id="arrowUp" xlink:href="#dirArrow" transform="translate(30 24)" onmousedown="handlePan(0,-1)">
                  <use xlink:href="#rim" fill="#404040">
                        <set attributeName="fill" to="#808080" begin="arrowUp.mouseover" end="arrowUp.mouseout"/>
                  </use>
                  <path fill="none" stroke="white" stroke-width="1.5" d="M0,-3.0v7 M-2.5,-0.5L0,-3.0L2.5,-0.5"/>
                </g>
                <g id="arrowRight" xlink:href="#dirArrow" transform="rotate(90) translate(36 -43)" onmousedown="handlePan(1,0)">
                  <use xlink:href="#rim" fill="#404040">
                        <set attributeName="fill" to="#808080" begin="arrowRight.mouseover" end="arrowRight.mouseout"/>
                  </use>
                  <path fill="none" stroke="white" stroke-width="1.5" d="M0,-3.0v7 M-2.5,-0.5L0,-3.0L2.5,-0.5"/>
                </g>
                <g id="arrowDown" xlink:href="#dirArrow" transform="rotate(180) translate(-30 -48)" onmousedown="handlePan(0,1)">
                  <use xlink:href="#rim" fill="#404040">
                        <set attributeName="fill" to="#808080" begin="arrowDown.mouseover" end="arrowDown.mouseout"/>
                  </use>
                  <path fill="none" stroke="white" stroke-width="1.5" d="M0,-3.0v7 M-2.5,-0.5L0,-3.0L2.5,-0.5"/>
                </g>
                <g id="arrowLeft" xlink:href="#dirArrow" transform="rotate(270) translate(-36 17)" onmousedown="handlePan(-1,0)">
                  <use xlink:href="#rim" fill="#404040">
                        <set attributeName="fill" to="#808080" begin="arrowLeft.mouseover" end="arrowLeft.mouseout"/>
                  </use>
                  <path fill="none" stroke="white" stroke-width="1.5" d="M0,-3.0v7 M-2.5,-0.5L0,-3.0L2.5,-0.5"/>
                </g>
        </g>
        <svg viewBox="0 0 15 15" width="100%" height="30px" preserveAspectRatio="xMaxYMin meet">
         <g id="arrow_out" transform="scale(0.3 0.3)">
          <a xlink:href="MixtureFugacityTP_8cpp__incl_org.svg" target="_base">
           <rect id="button" ry="5" rx="5" y="6" x="6" height="38" width="38"
                fill="#f2f5e9" fill-opacity="0.5" stroke="#606060" stroke-width="1.0"/>
           <path id="arrow"
             d="M 11.500037,31.436501 C 11.940474,20.09759 22.043105,11.32322 32.158766,21.979434 L 37.068811,17.246167 C 37.068811,17.246167 37.088388,32 37.088388,32 L 22.160133,31.978069 C 22.160133,31.978069 26.997745,27.140456 26.997745,27.140456 C 18.528582,18.264221 13.291696,25.230495 11.500037,31.436501 z"
             style="fill:#404040;"/>
          </a>
         </g>
        </svg>
</svg>
