<?xml version="1.0" encoding="UTF-8" standalone="no"?>
<!DOCTYPE svg PUBLIC "-//W3C//DTD SVG 1.1//EN"
 "http://www.w3.org/Graphics/SVG/1.1/DTD/svg11.dtd">
<!-- Generated by graphviz version 2.43.0 (0)
 -->
<!-- Title: Delegator.h Pages: 1 -->
<svg width="284pt" height="140pt"
 viewBox="0.00 0.00 283.50 140.00" xmlns="http://www.w3.org/2000/svg" xmlns:xlink="http://www.w3.org/1999/xlink">
<g id="graph0" class="graph" transform="scale(1 1) rotate(0) translate(4 136)">
<title>Delegator.h</title>
<polygon fill="white" stroke="transparent" points="-4,4 -4,-136 279.5,-136 279.5,4 -4,4"/>
<!-- Node1 -->
<g id="node1" class="node">
<title>Node1</title>
<g id="a_node1"><a xlink:title=" ">
<polygon fill="#bfbfbf" stroke="black" points="111,-112.5 111,-131.5 184,-131.5 184,-112.5 111,-112.5"/>
<text text-anchor="middle" x="147.5" y="-119.5" font-family="Helvetica,sans-Serif" font-size="10.00">Delegator.h</text>
</a>
</g>
</g>
<!-- Node2 -->
<g id="node2" class="node">
<title>Node2</title>
<g id="a_node2"><a xlink:href="../../df/da5/ReactionRateDelegator_8h.html" target="_top" xlink:title=" ">
<polygon fill="white" stroke="black" points="7.5,-56.5 7.5,-75.5 145.5,-75.5 145.5,-56.5 7.5,-56.5"/>
<text text-anchor="middle" x="76.5" y="-63.5" font-family="Helvetica,sans-Serif" font-size="10.00">ReactionRateDelegator.h</text>
</a>
</g>
</g>
<!-- Node1&#45;&gt;Node2 -->
<g id="edge1" class="edge">
<title>Node1&#45;&gt;Node2</title>
<path fill="none" stroke="midnightblue" d="M127.91,-106.1C115.13,-96.38 98.89,-84.03 88.11,-75.83"/>
<polygon fill="midnightblue" stroke="midnightblue" points="126.01,-109.06 136.09,-112.32 130.25,-103.48 126.01,-109.06"/>
</g>
<!-- Node4 -->
<g id="node4" class="node">
<title>Node4</title>
<g id="a_node4"><a xlink:href="../../d7/d6d/ReactorDelegator_8h.html" target="_top" xlink:title=" ">
<polygon fill="white" stroke="black" points="164.5,-56.5 164.5,-75.5 274.5,-75.5 274.5,-56.5 164.5,-56.5"/>
<text text-anchor="middle" x="219.5" y="-63.5" font-family="Helvetica,sans-Serif" font-size="10.00">ReactorDelegator.h</text>
</a>
</g>
</g>
<!-- Node1&#45;&gt;Node4 -->
<g id="edge3" class="edge">
<title>Node1&#45;&gt;Node4</title>
<path fill="none" stroke="midnightblue" d="M167.37,-106.1C180.32,-96.38 196.8,-84.03 207.72,-75.83"/>
<polygon fill="midnightblue" stroke="midnightblue" points="164.97,-103.52 159.07,-112.32 169.17,-109.12 164.97,-103.52"/>
</g>
<!-- Node3 -->
<g id="node3" class="node">
<title>Node3</title>
<g id="a_node3"><a xlink:href="../../dd/d06/ReactionRateDelegator_8cpp.html" target="_top" xlink:title=" ">
<polygon fill="white" stroke="black" points="0,-0.5 0,-19.5 149,-19.5 149,-0.5 0,-0.5"/>
<text text-anchor="middle" x="74.5" y="-7.5" font-family="Helvetica,sans-Serif" font-size="10.00">ReactionRateDelegator.cpp</text>
</a>
</g>
</g>
<!-- Node2&#45;&gt;Node3 -->
<g id="edge2" class="edge">
<title>Node2&#45;&gt;Node3</title>
<path fill="none" stroke="midnightblue" d="M75.79,-45.8C75.46,-36.91 75.08,-26.78 74.82,-19.75"/>
<polygon fill="midnightblue" stroke="midnightblue" points="72.3,-46.22 76.17,-56.08 79.3,-45.96 72.3,-46.22"/>
</g>
<!-- Node5 -->
<g id="node5" class="node">
<title>Node5</title>
<g id="a_node5"><a xlink:href="../../db/d78/ReactorFactory_8cpp.html" target="_top" xlink:title=" ">
<polygon fill="white" stroke="black" points="167.5,-0.5 167.5,-19.5 275.5,-19.5 275.5,-0.5 167.5,-0.5"/>
<text text-anchor="middle" x="221.5" y="-7.5" font-family="Helvetica,sans-Serif" font-size="10.00">ReactorFactory.cpp</text>
</a>
</g>
</g>
<!-- Node4&#45;&gt;Node5 -->
<g id="edge4" class="edge">
<title>Node4&#45;&gt;Node5</title>
<path fill="none" stroke="midnightblue" d="M220.21,-45.8C220.54,-36.91 220.92,-26.78 221.18,-19.75"/>
<polygon fill="midnightblue" stroke="midnightblue" points="216.7,-45.96 219.83,-56.08 223.7,-46.22 216.7,-45.96"/>
</g>
</g>
</svg>
