<?xml version="1.0" encoding="UTF-8" standalone="no"?>
<!DOCTYPE svg PUBLIC "-//W3C//DTD SVG 1.1//EN"
 "http://www.w3.org/Graphics/SVG/1.1/DTD/svg11.dtd">
<!-- Generated by graphviz version 2.50.0 (0)
 -->
<!-- Title: PDSS_HKFT.cpp Pages: 1 -->
<!--zoomable 554 -->
<svg id="main" version="1.1" xmlns="http://www.w3.org/2000/svg" xmlns:xlink="http://www.w3.org/1999/xlink" xml:space="preserve" onload="init(evt)">
<style type="text/css"><![CDATA[
.edge:hover path { stroke: red; }
.edge:hover polygon { stroke: red; fill: red; }
]]></style>
<script type="text/javascript"><![CDATA[
var edges = document.getElementsByTagName('g');
if (edges && edges.length) {
  for (var i=0;i<edges.length;i++) {
    if (edges[i].id.substr(0,4)=='edge') {
      edges[i].setAttribute('class','edge');
    }
  }
}
]]></script>
        <defs>
                <circle id="rim" cx="0" cy="0" r="7"/>
                <circle id="rim2" cx="0" cy="0" r="3.5"/>
                <g id="zoomPlus">
                        <use xlink:href="#rim" fill="#404040">
                                <set attributeName="fill" to="#808080" begin="zoomplus.mouseover" end="zoomplus.mouseout"/>
                        </use>
                        <path d="M-4,0h8M0,-4v8" fill="none" stroke="white" stroke-width="1.5" pointer-events="none"/>
                </g>
                <g id="zoomMin">
                        <use xlink:href="#rim" fill="#404040">
                                <set attributeName="fill" to="#808080" begin="zoomminus.mouseover" end="zoomminus.mouseout"/>
                        </use>
                        <path d="M-4,0h8" fill="none" stroke="white" stroke-width="1.5" pointer-events="none"/>
                </g>
                <g id="dirArrow">
                        <path fill="none" stroke="white" stroke-width="1.5" d="M0,-3.0v7 M-2.5,-0.5L0,-3.0L2.5,-0.5"/>
                </g>
               <g id="resetDef">
                       <use xlink:href="#rim2" fill="#404040">
                               <set attributeName="fill" to="#808080" begin="reset.mouseover" end="reset.mouseout"/>
                       </use>
               </g>
        </defs>

<script type="text/javascript">
var viewWidth = 1215;
var viewHeight = 554;
var sectionId = 'dynsection-0';
</script>
<script xlink:href="../../svgpan.js"/>
<svg id="graph" class="graph">
<g id="viewport">
<title>PDSS_HKFT.cpp</title>
<polygon fill="white" stroke="transparent" points="-4,4 -4,-550 1210.5,-550 1210.5,4 -4,4"/>
<!-- Node1 -->
<g id="node1" class="node">
<title>Node1</title>
<g id="a_node1"><a xlink:title="Definitions for the class PDSS_HKFT (pressure dependent standard state) which handles calculations fo...">
<polygon fill="#bfbfbf" stroke="black" points="759,-526.5 759,-545.5 852,-545.5 852,-526.5 759,-526.5"/>
<text text-anchor="middle" x="805.5" y="-533.5" font-family="Helvetica,sans-Serif" font-size="10.00">PDSS_HKFT.cpp</text>
</a>
</g>
</g>
<!-- Node2 -->
<g id="node2" class="node">
<title>Node2</title>
<g id="a_node2"><a xlink:href="../../dc/deb/ctml_8h.html" target="_top" xlink:title="CTML (&quot;Cantera Markup Language&quot;) is the variant of XML that Cantera uses to store data.">
<polygon fill="white" stroke="black" points="1047,-168.5 1047,-187.5 1150,-187.5 1150,-168.5 1047,-168.5"/>
<text text-anchor="middle" x="1098.5" y="-175.5" font-family="Helvetica,sans-Serif" font-size="10.00">cantera/base/ctml.h</text>
</a>
</g>
</g>
<!-- Node1&#45;&gt;Node2 -->
<g id="edge1" class="edge">
<title>Node1&#45;&gt;Node2</title>
<path fill="none" stroke="midnightblue" d="M844.12,-526.39C895.38,-512.41 979.5,-479.49 979.5,-414 979.5,-414 979.5,-414 979.5,-289 979.5,-241.3 1031.7,-208.53 1066.96,-191.84"/>
<polygon fill="midnightblue" stroke="midnightblue" points="1068.73,-194.88 1076.4,-187.56 1065.84,-188.5 1068.73,-194.88"/>
</g>
<!-- Node13 -->
<g id="node13" class="node">
<title>Node13</title>
<g id="a_node13"><a xlink:href="../../db/df3/PDSS__HKFT_8h.html" target="_top" xlink:title="Declarations for the class PDSS_HKFT (pressure dependent standard state) which handles calculations f...">
<polygon fill="white" stroke="black" points="273,-336.5 273,-366.5 386,-366.5 386,-336.5 273,-336.5"/>
<text text-anchor="start" x="281" y="-354.5" font-family="Helvetica,sans-Serif" font-size="10.00">cantera/thermo/PDSS</text>
<text text-anchor="middle" x="329.5" y="-343.5" font-family="Helvetica,sans-Serif" font-size="10.00">_HKFT.h</text>
</a>
</g>
</g>
<!-- Node1&#45;&gt;Node13 -->
<g id="edge13" class="edge">
<title>Node1&#45;&gt;Node13</title>
<path fill="none" stroke="midnightblue" d="M758.85,-532.32C706.03,-528.06 618.14,-517.21 547.5,-490 471.61,-460.76 393.59,-403.73 354.72,-373.11"/>
<polygon fill="midnightblue" stroke="midnightblue" points="356.6,-370.13 346.59,-366.64 352.24,-375.61 356.6,-370.13"/>
</g>
<!-- Node28 -->
<g id="node23" class="node">
<title>Node28</title>
<g id="a_node23"><a xlink:href="../../d8/d6d/PDSS__Water_8h.html" target="_top" xlink:title="Implementation of a pressure dependent standard state virtual function for a Pure Water Phase (see Sp...">
<polygon fill="white" stroke="black" points="142,-336.5 142,-366.5 255,-366.5 255,-336.5 142,-336.5"/>
<text text-anchor="start" x="150" y="-354.5" font-family="Helvetica,sans-Serif" font-size="10.00">cantera/thermo/PDSS</text>
<text text-anchor="middle" x="198.5" y="-343.5" font-family="Helvetica,sans-Serif" font-size="10.00">_Water.h</text>
</a>
</g>
</g>
<!-- Node1&#45;&gt;Node28 -->
<g id="edge29" class="edge">
<title>Node1&#45;&gt;Node28</title>
<path fill="none" stroke="midnightblue" d="M758.76,-533.15C694.72,-529.58 576.68,-519.29 480.5,-490 384.6,-460.79 280.84,-402.51 230.08,-372.06"/>
<polygon fill="midnightblue" stroke="midnightblue" points="231.61,-368.89 221.24,-366.71 227.98,-374.88 231.61,-368.89"/>
</g>
<!-- Node31 -->
<g id="node26" class="node">
<title>Node31</title>
<g id="a_node26"><a xlink:href="../../df/dfd/VPStandardStateTP_8h.html" target="_top" xlink:title="Header file for a derived class of ThermoPhase that handles variable pressure standard state methods ...">
<polygon fill="white" stroke="black" points="557,-459.5 557,-489.5 694,-489.5 694,-459.5 557,-459.5"/>
<text text-anchor="start" x="565" y="-477.5" font-family="Helvetica,sans-Serif" font-size="10.00">cantera/thermo/VPStandard</text>
<text text-anchor="middle" x="625.5" y="-466.5" font-family="Helvetica,sans-Serif" font-size="10.00">StateTP.h</text>
</a>
</g>
</g>
<!-- Node1&#45;&gt;Node31 -->
<g id="edge35" class="edge">
<title>Node1&#45;&gt;Node31</title>
<path fill="none" stroke="midnightblue" d="M779.71,-526.48C753.17,-517.7 711.08,-503.79 677.57,-492.71"/>
<polygon fill="midnightblue" stroke="midnightblue" points="678.52,-489.34 667.92,-489.52 676.32,-495.98 678.52,-489.34"/>
</g>
<!-- Node39 -->
<g id="node33" class="node">
<title>Node39</title>
<g id="a_node33"><a xlink:href="../../dd/dc3/stringUtils_8h.html" target="_top" xlink:title="Contains declarations for string manipulation functions within Cantera.">
<polygon fill="white" stroke="black" points="1078.5,-403.5 1078.5,-422.5 1206.5,-422.5 1206.5,-403.5 1078.5,-403.5"/>
<text text-anchor="middle" x="1142.5" y="-410.5" font-family="Helvetica,sans-Serif" font-size="10.00">cantera/base/stringUtils.h</text>
</a>
</g>
</g>
<!-- Node1&#45;&gt;Node39 -->
<g id="edge50" class="edge">
<title>Node1&#45;&gt;Node39</title>
<path fill="none" stroke="midnightblue" d="M852.38,-526.98C890.97,-519.62 946.74,-507.24 993.5,-490 1040.01,-472.85 1090.74,-444.78 1119.39,-427.98"/>
<polygon fill="midnightblue" stroke="midnightblue" points="1121.4,-430.85 1128.22,-422.74 1117.83,-424.83 1121.4,-430.85"/>
</g>
<!-- Node40 -->
<g id="node34" class="node">
<title>Node40</title>
<g id="a_node34"><a xlink:href="../../d2/d49/global_8h.html" target="_top" xlink:title="This file contains definitions for utility functions and text for modules, inputfiles,...">
<polygon fill="white" stroke="black" points="918.5,-168.5 918.5,-187.5 1028.5,-187.5 1028.5,-168.5 918.5,-168.5"/>
<text text-anchor="middle" x="973.5" y="-175.5" font-family="Helvetica,sans-Serif" font-size="10.00">cantera/base/global.h</text>
</a>
</g>
</g>
<!-- Node1&#45;&gt;Node40 -->
<g id="edge52" class="edge">
<title>Node1&#45;&gt;Node40</title>
<path fill="none" stroke="midnightblue" d="M820.26,-526.45C848.07,-509.1 905.5,-466.87 905.5,-414 905.5,-414 905.5,-414 905.5,-289 905.5,-250.55 935.93,-214.31 956.08,-194.54"/>
<polygon fill="midnightblue" stroke="midnightblue" points="958.6,-196.98 963.47,-187.57 953.79,-191.89 958.6,-196.98"/>
</g>
<!-- Node3 -->
<g id="node3" class="node">
<title>Node3</title>
<g id="a_node3"><a xlink:href="../../d9/ddc/ct__defs_8h.html" target="_top" xlink:title="This file contains definitions of constants, types and terms that are used in internal routines and a...">
<polygon fill="white" stroke="black" points="591,-56.5 591,-75.5 648,-75.5 648,-56.5 591,-56.5"/>
<text text-anchor="middle" x="619.5" y="-63.5" font-family="Helvetica,sans-Serif" font-size="10.00">ct_defs.h</text>
</a>
</g>
</g>
<!-- Node2&#45;&gt;Node3 -->
<g id="edge2" class="edge">
<title>Node2&#45;&gt;Node3</title>
<path fill="none" stroke="midnightblue" d="M1087.05,-168.3C1067.44,-153.91 1025.64,-125.4 985.5,-112 871.08,-73.81 726.82,-67.46 658.63,-66.77"/>
<polygon fill="midnightblue" stroke="midnightblue" points="658.38,-63.27 648.36,-66.7 658.33,-70.27 658.38,-63.27"/>
</g>
<!-- Node12 -->
<g id="node12" class="node">
<title>Node12</title>
<g id="a_node12"><a xlink:href="../../d0/d62/xml_8h.html" target="_top" xlink:title="Classes providing support for XML data files.">
<polygon fill="white" stroke="black" points="1065,-112.5 1065,-131.5 1106,-131.5 1106,-112.5 1065,-112.5"/>
<text text-anchor="middle" x="1085.5" y="-119.5" font-family="Helvetica,sans-Serif" font-size="10.00">xml.h</text>
</a>
</g>
</g>
<!-- Node2&#45;&gt;Node12 -->
<g id="edge11" class="edge">
<title>Node2&#45;&gt;Node12</title>
<path fill="none" stroke="midnightblue" d="M1096.35,-168.08C1094.63,-160.93 1092.15,-150.64 1090,-141.69"/>
<polygon fill="midnightblue" stroke="midnightblue" points="1093.35,-140.65 1087.61,-131.75 1086.54,-142.29 1093.35,-140.65"/>
</g>
<!-- Node4 -->
<g id="node4" class="node">
<title>Node4</title>
<g id="a_node4"><a xlink:href="../../db/d16/config_8h_source.html" target="_top" xlink:title=" ">
<polygon fill="white" stroke="black" points="247,-0.5 247,-19.5 298,-19.5 298,-0.5 247,-0.5"/>
<text text-anchor="middle" x="272.5" y="-7.5" font-family="Helvetica,sans-Serif" font-size="10.00">config.h</text>
</a>
</g>
</g>
<!-- Node3&#45;&gt;Node4 -->
<g id="edge3" class="edge">
<title>Node3&#45;&gt;Node4</title>
<path fill="none" stroke="midnightblue" d="M590.81,-60.54C527.79,-50.73 377.43,-27.33 308.34,-16.58"/>
<polygon fill="midnightblue" stroke="midnightblue" points="308.78,-13.1 298.36,-15.02 307.71,-20.02 308.78,-13.1"/>
</g>
<!-- Node5 -->
<g id="node5" class="node">
<title>Node5</title>
<g id="a_node5"><a xlink:title=" ">
<polygon fill="white" stroke="#bfbfbf" points="534.5,-0.5 534.5,-19.5 578.5,-19.5 578.5,-0.5 534.5,-0.5"/>
<text text-anchor="middle" x="556.5" y="-7.5" font-family="Helvetica,sans-Serif" font-size="10.00">cmath</text>
</a>
</g>
</g>
<!-- Node3&#45;&gt;Node5 -->
<g id="edge4" class="edge">
<title>Node3&#45;&gt;Node5</title>
<path fill="none" stroke="midnightblue" d="M609.38,-56.32C599.97,-48.26 585.76,-36.08 574.43,-26.37"/>
<polygon fill="midnightblue" stroke="midnightblue" points="576.68,-23.68 566.81,-19.83 572.12,-29 576.68,-23.68"/>
</g>
<!-- Node6 -->
<g id="node6" class="node">
<title>Node6</title>
<g id="a_node6"><a xlink:title=" ">
<polygon fill="white" stroke="#bfbfbf" points="597,-0.5 597,-19.5 642,-19.5 642,-0.5 597,-0.5"/>
<text text-anchor="middle" x="619.5" y="-7.5" font-family="Helvetica,sans-Serif" font-size="10.00">cstdlib</text>
</a>
</g>
</g>
<!-- Node3&#45;&gt;Node6 -->
<g id="edge5" class="edge">
<title>Node3&#45;&gt;Node6</title>
<path fill="none" stroke="midnightblue" d="M619.5,-56.08C619.5,-49.01 619.5,-38.86 619.5,-29.99"/>
<polygon fill="midnightblue" stroke="midnightblue" points="623,-29.75 619.5,-19.75 616,-29.75 623,-29.75"/>
</g>
<!-- Node7 -->
<g id="node7" class="node">
<title>Node7</title>
<g id="a_node7"><a xlink:title=" ">
<polygon fill="white" stroke="#bfbfbf" points="660.5,-0.5 660.5,-19.5 704.5,-19.5 704.5,-0.5 660.5,-0.5"/>
<text text-anchor="middle" x="682.5" y="-7.5" font-family="Helvetica,sans-Serif" font-size="10.00">vector</text>
</a>
</g>
</g>
<!-- Node3&#45;&gt;Node7 -->
<g id="edge6" class="edge">
<title>Node3&#45;&gt;Node7</title>
<path fill="none" stroke="midnightblue" d="M629.62,-56.32C639.03,-48.26 653.24,-36.08 664.57,-26.37"/>
<polygon fill="midnightblue" stroke="midnightblue" points="666.88,-29 672.19,-19.83 662.32,-23.68 666.88,-29"/>
</g>
<!-- Node8 -->
<g id="node8" class="node">
<title>Node8</title>
<g id="a_node8"><a xlink:title=" ">
<polygon fill="white" stroke="#bfbfbf" points="723,-0.5 723,-19.5 758,-19.5 758,-0.5 723,-0.5"/>
<text text-anchor="middle" x="740.5" y="-7.5" font-family="Helvetica,sans-Serif" font-size="10.00">map</text>
</a>
</g>
</g>
<!-- Node3&#45;&gt;Node8 -->
<g id="edge7" class="edge">
<title>Node3&#45;&gt;Node8</title>
<path fill="none" stroke="midnightblue" d="M638.67,-56.44C658.87,-47.43 690.85,-33.16 713.58,-23.02"/>
<polygon fill="midnightblue" stroke="midnightblue" points="715.28,-26.09 722.99,-18.82 712.43,-19.69 715.28,-26.09"/>
</g>
<!-- Node9 -->
<g id="node9" class="node">
<title>Node9</title>
<g id="a_node9"><a xlink:title=" ">
<polygon fill="white" stroke="#bfbfbf" points="776,-0.5 776,-19.5 817,-19.5 817,-0.5 776,-0.5"/>
<text text-anchor="middle" x="796.5" y="-7.5" font-family="Helvetica,sans-Serif" font-size="10.00">string</text>
</a>
</g>
</g>
<!-- Node3&#45;&gt;Node9 -->
<g id="edge8" class="edge">
<title>Node3&#45;&gt;Node9</title>
<path fill="none" stroke="midnightblue" d="M647.55,-56.44C679.88,-46.58 732.83,-30.42 766.12,-20.27"/>
<polygon fill="midnightblue" stroke="midnightblue" points="767.23,-23.59 775.77,-17.32 765.19,-16.89 767.23,-23.59"/>
</g>
<!-- Node10 -->
<g id="node10" class="node">
<title>Node10</title>
<g id="a_node10"><a xlink:title=" ">
<polygon fill="white" stroke="#bfbfbf" points="390.5,-0.5 390.5,-19.5 446.5,-19.5 446.5,-0.5 390.5,-0.5"/>
<text text-anchor="middle" x="418.5" y="-7.5" font-family="Helvetica,sans-Serif" font-size="10.00">algorithm</text>
</a>
</g>
</g>
<!-- Node3&#45;&gt;Node10 -->
<g id="edge9" class="edge">
<title>Node3&#45;&gt;Node10</title>
<path fill="none" stroke="midnightblue" d="M590.7,-57.26C555.43,-47.79 495.56,-31.7 456.53,-21.22"/>
<polygon fill="midnightblue" stroke="midnightblue" points="457.16,-17.76 446.6,-18.55 455.35,-24.52 457.16,-17.76"/>
</g>
<!-- Node11 -->
<g id="node11" class="node">
<title>Node11</title>
<g id="a_node11"><a xlink:title=" ">
<polygon fill="white" stroke="#bfbfbf" points="464.5,-0.5 464.5,-19.5 516.5,-19.5 516.5,-0.5 464.5,-0.5"/>
<text text-anchor="middle" x="490.5" y="-7.5" font-family="Helvetica,sans-Serif" font-size="10.00">memory</text>
</a>
</g>
</g>
<!-- Node3&#45;&gt;Node11 -->
<g id="edge10" class="edge">
<title>Node3&#45;&gt;Node11</title>
<path fill="none" stroke="midnightblue" d="M599.06,-56.44C577.83,-47.56 544.4,-33.56 520.25,-23.45"/>
<polygon fill="midnightblue" stroke="midnightblue" points="521.42,-20.15 510.84,-19.52 518.72,-26.61 521.42,-20.15"/>
</g>
<!-- Node12&#45;&gt;Node3 -->
<g id="edge12" class="edge">
<title>Node12&#45;&gt;Node3</title>
<path fill="none" stroke="midnightblue" d="M1064.73,-115.97C1058.27,-114.54 1051.12,-113.07 1044.5,-112 903.32,-89.1 733.77,-75.17 658.64,-69.69"/>
<polygon fill="midnightblue" stroke="midnightblue" points="658.47,-66.17 648.25,-68.94 657.97,-73.15 658.47,-66.17"/>
</g>
<!-- Node14 -->
<g id="node14" class="node">
<title>Node14</title>
<g id="a_node14"><a xlink:href="../../d7/dfa/PDSS_8h.html" target="_top" xlink:title="Declarations for the virtual base class PDSS (pressure dependent standard state) which handles calcul...">
<polygon fill="white" stroke="black" points="279,-280.5 279,-299.5 332,-299.5 332,-280.5 279,-280.5"/>
<text text-anchor="middle" x="305.5" y="-287.5" font-family="Helvetica,sans-Serif" font-size="10.00">PDSS.h</text>
</a>
</g>
</g>
<!-- Node13&#45;&gt;Node14 -->
<g id="edge14" class="edge">
<title>Node13&#45;&gt;Node14</title>
<path fill="none" stroke="midnightblue" d="M323.81,-336.4C320.5,-328.2 316.3,-317.78 312.76,-308.99"/>
<polygon fill="midnightblue" stroke="midnightblue" points="315.98,-307.62 308.99,-299.66 309.49,-310.24 315.98,-307.62"/>
</g>
<!-- Node27 -->
<g id="node22" class="node">
<title>Node27</title>
<g id="a_node22"><a xlink:href="../../db/d4b/WaterProps_8h.html" target="_top" xlink:title="Header for a class used to house several approximation routines for properties of water.">
<polygon fill="white" stroke="black" points="160.5,-280.5 160.5,-299.5 236.5,-299.5 236.5,-280.5 160.5,-280.5"/>
<text text-anchor="middle" x="198.5" y="-287.5" font-family="Helvetica,sans-Serif" font-size="10.00">WaterProps.h</text>
</a>
</g>
</g>
<!-- Node13&#45;&gt;Node27 -->
<g id="edge27" class="edge">
<title>Node13&#45;&gt;Node27</title>
<path fill="none" stroke="midnightblue" d="M298.45,-336.4C276.77,-326.55 248.04,-313.5 226.95,-303.92"/>
<polygon fill="midnightblue" stroke="midnightblue" points="228.11,-300.61 217.56,-299.66 225.22,-306.98 228.11,-300.61"/>
</g>
<!-- Node14&#45;&gt;Node3 -->
<g id="edge15" class="edge">
<title>Node14&#45;&gt;Node3</title>
<path fill="none" stroke="midnightblue" d="M278.97,-282.23C258.86,-275.73 232.11,-263.89 216.5,-244 179.83,-197.27 187.53,-144.12 237.5,-112 293.72,-75.87 495.54,-68.73 580.92,-67.33"/>
<polygon fill="midnightblue" stroke="midnightblue" points="581.03,-70.83 590.98,-67.19 580.93,-63.83 581.03,-70.83"/>
</g>
<!-- Node15 -->
<g id="node15" class="node">
<title>Node15</title>
<g id="a_node15"><a xlink:href="../../dd/d2a/AnyMap_8h.html" target="_top" xlink:title=" ">
<polygon fill="white" stroke="black" points="380.5,-224.5 380.5,-243.5 500.5,-243.5 500.5,-224.5 380.5,-224.5"/>
<text text-anchor="middle" x="440.5" y="-231.5" font-family="Helvetica,sans-Serif" font-size="10.00">cantera/base/AnyMap.h</text>
</a>
</g>
</g>
<!-- Node14&#45;&gt;Node15 -->
<g id="edge16" class="edge">
<title>Node14&#45;&gt;Node15</title>
<path fill="none" stroke="midnightblue" d="M326.89,-280.44C349.21,-271.52 384.4,-257.44 409.71,-247.32"/>
<polygon fill="midnightblue" stroke="midnightblue" points="411.22,-250.48 419.21,-243.52 408.62,-243.98 411.22,-250.48"/>
</g>
<!-- Node15&#45;&gt;Node3 -->
<g id="edge17" class="edge">
<title>Node15&#45;&gt;Node3</title>
<path fill="none" stroke="midnightblue" d="M380.29,-229.05C322.24,-223.84 240.34,-212.31 220.5,-188 214.88,-181.11 215.04,-175.01 220.5,-168 264.99,-110.85 489.23,-80.88 580.63,-70.88"/>
<polygon fill="midnightblue" stroke="midnightblue" points="581.27,-74.33 590.84,-69.78 580.53,-67.37 581.27,-74.33"/>
</g>
<!-- Node16 -->
<g id="node16" class="node">
<title>Node16</title>
<g id="a_node16"><a xlink:href="../../db/d98/ctexceptions_8h.html" target="_top" xlink:title="Definitions for the classes that are thrown when Cantera experiences an error condition (also contain...">
<polygon fill="white" stroke="red" points="684.5,-168.5 684.5,-187.5 824.5,-187.5 824.5,-168.5 684.5,-168.5"/>
<text text-anchor="middle" x="754.5" y="-175.5" font-family="Helvetica,sans-Serif" font-size="10.00">cantera/base/ctexceptions.h</text>
</a>
</g>
</g>
<!-- Node15&#45;&gt;Node16 -->
<g id="edge18" class="edge">
<title>Node15&#45;&gt;Node16</title>
<path fill="none" stroke="midnightblue" d="M490.25,-224.44C545.83,-214.89 635.76,-199.42 695.02,-189.23"/>
<polygon fill="midnightblue" stroke="midnightblue" points="695.72,-192.66 704.98,-187.52 694.53,-185.76 695.72,-192.66"/>
</g>
<!-- Node21 -->
<g id="node18" class="node">
<title>Node21</title>
<g id="a_node18"><a xlink:href="../../da/d58/Units_8h.html" target="_top" xlink:title="Header for unit conversion utilities, which are used to translate user input from input files (See In...">
<polygon fill="white" stroke="black" points="559,-168.5 559,-187.5 666,-187.5 666,-168.5 559,-168.5"/>
<text text-anchor="middle" x="612.5" y="-175.5" font-family="Helvetica,sans-Serif" font-size="10.00">cantera/base/Units.h</text>
</a>
</g>
</g>
<!-- Node15&#45;&gt;Node21 -->
<g id="edge21" class="edge">
<title>Node15&#45;&gt;Node21</title>
<path fill="none" stroke="midnightblue" d="M467.75,-224.44C496.94,-215.28 543.42,-200.69 575.81,-190.52"/>
<polygon fill="midnightblue" stroke="midnightblue" points="576.88,-193.85 585.37,-187.52 574.78,-187.17 576.88,-193.85"/>
</g>
<!-- Node22 -->
<g id="node19" class="node">
<title>Node22</title>
<g id="a_node19"><a xlink:title=" ">
<polygon fill="white" stroke="#bfbfbf" points="381,-168.5 381,-187.5 464,-187.5 464,-168.5 381,-168.5"/>
<text text-anchor="middle" x="422.5" y="-175.5" font-family="Helvetica,sans-Serif" font-size="10.00">unordered_map</text>
</a>
</g>
</g>
<!-- Node15&#45;&gt;Node22 -->
<g id="edge23" class="edge">
<title>Node15&#45;&gt;Node22</title>
<path fill="none" stroke="midnightblue" d="M437.53,-224.08C435.12,-216.85 431.64,-206.41 428.63,-197.4"/>
<polygon fill="midnightblue" stroke="midnightblue" points="431.9,-196.13 425.42,-187.75 425.26,-198.34 431.9,-196.13"/>
</g>
<!-- Node23 -->
<g id="node20" class="node">
<title>Node23</title>
<g id="a_node20"><a xlink:title=" ">
<polygon fill="white" stroke="#bfbfbf" points="482,-168.5 482,-187.5 541,-187.5 541,-168.5 482,-168.5"/>
<text text-anchor="middle" x="511.5" y="-175.5" font-family="Helvetica,sans-Serif" font-size="10.00">functional</text>
</a>
</g>
</g>
<!-- Node15&#45;&gt;Node23 -->
<g id="edge24" class="edge">
<title>Node15&#45;&gt;Node23</title>
<path fill="none" stroke="midnightblue" d="M451.91,-224.32C462.61,-216.18 478.84,-203.84 491.66,-194.09"/>
<polygon fill="midnightblue" stroke="midnightblue" points="494.04,-196.67 499.89,-187.83 489.81,-191.1 494.04,-196.67"/>
</g>
<!-- Node24 -->
<g id="node21" class="node">
<title>Node24</title>
<g id="a_node21"><a xlink:href="../../da/d4c/AnyMap_8inl_8h.html" target="_top" xlink:title=" ">
<polygon fill="white" stroke="red" points="230,-168.5 230,-187.5 363,-187.5 363,-168.5 230,-168.5"/>
<text text-anchor="middle" x="296.5" y="-175.5" font-family="Helvetica,sans-Serif" font-size="10.00">cantera/base/AnyMap.inl.h</text>
</a>
</g>
</g>
<!-- Node15&#45;&gt;Node24 -->
<g id="edge25" class="edge">
<title>Node15&#45;&gt;Node24</title>
<path fill="none" stroke="midnightblue" d="M412.59,-224.44C386.83,-215.52 349.06,-201.44 323.57,-191.32"/>
<polygon fill="midnightblue" stroke="midnightblue" points="324.71,-188 314.13,-187.52 322.1,-194.5 324.71,-188"/>
</g>
<!-- Node17 -->
<g id="node17" class="node">
<title>Node17</title>
<g id="a_node17"><a xlink:href="../../db/def/fmt_8h.html" target="_top" xlink:title="Wrapper for either system&#45;installed or local headers for fmt.">
<polygon fill="white" stroke="red" points="706.5,-112.5 706.5,-131.5 804.5,-131.5 804.5,-112.5 706.5,-112.5"/>
<text text-anchor="middle" x="755.5" y="-119.5" font-family="Helvetica,sans-Serif" font-size="10.00">cantera/base/fmt.h</text>
</a>
</g>
</g>
<!-- Node16&#45;&gt;Node17 -->
<g id="edge19" class="edge">
<title>Node16&#45;&gt;Node17</title>
<path fill="none" stroke="midnightblue" d="M754.67,-168.08C754.8,-161.01 754.98,-150.86 755.15,-141.99"/>
<polygon fill="midnightblue" stroke="midnightblue" points="758.65,-141.81 755.34,-131.75 751.65,-141.68 758.65,-141.81"/>
</g>
<!-- Node17&#45;&gt;Node3 -->
<g id="edge20" class="edge">
<title>Node17&#45;&gt;Node3</title>
<path fill="none" stroke="midnightblue" d="M733.95,-112.44C711.47,-103.52 676.01,-89.44 650.52,-79.32"/>
<polygon fill="midnightblue" stroke="midnightblue" points="651.53,-75.95 640.95,-75.52 648.95,-82.46 651.53,-75.95"/>
</g>
<!-- Node21&#45;&gt;Node3 -->
<g id="edge22" class="edge">
<title>Node21&#45;&gt;Node3</title>
<path fill="none" stroke="midnightblue" d="M589.49,-168.45C563.69,-157.43 527.21,-136.75 541.5,-112 550.24,-96.87 566.22,-86.37 581.46,-79.34"/>
<polygon fill="midnightblue" stroke="midnightblue" points="582.92,-82.52 590.77,-75.41 580.2,-76.07 582.92,-82.52"/>
</g>
<!-- Node24&#45;&gt;Node15 -->
<g id="edge26" class="edge">
<title>Node24&#45;&gt;Node15</title>
<path fill="none" stroke="midnightblue" d="M324.29,-187.52C350.02,-196.43 387.79,-210.5 413.31,-220.64"/>
<polygon fill="midnightblue" stroke="midnightblue" points="412.19,-223.96 422.77,-224.44 414.8,-217.46 412.19,-223.96"/>
</g>
<!-- Node27&#45;&gt;Node3 -->
<g id="edge28" class="edge">
<title>Node27&#45;&gt;Node3</title>
<path fill="none" stroke="midnightblue" d="M195.5,-280.38C185.83,-250.78 158.96,-152.85 211.5,-112 268.39,-67.76 490.03,-65.34 580.61,-66.27"/>
<polygon fill="midnightblue" stroke="midnightblue" points="580.69,-69.77 590.73,-66.39 580.78,-62.77 580.69,-69.77"/>
</g>
<!-- Node28&#45;&gt;Node14 -->
<g id="edge30" class="edge">
<title>Node28&#45;&gt;Node14</title>
<path fill="none" stroke="midnightblue" d="M223.86,-336.4C241.17,-326.77 263.98,-314.09 281.08,-304.58"/>
<polygon fill="midnightblue" stroke="midnightblue" points="282.89,-307.58 289.93,-299.66 279.49,-301.46 282.89,-307.58"/>
</g>
<!-- Node28&#45;&gt;Node27 -->
<g id="edge34" class="edge">
<title>Node28&#45;&gt;Node27</title>
<path fill="none" stroke="midnightblue" d="M198.5,-336.4C198.5,-328.47 198.5,-318.46 198.5,-309.86"/>
<polygon fill="midnightblue" stroke="midnightblue" points="202,-309.66 198.5,-299.66 195,-309.66 202,-309.66"/>
</g>
<!-- Node29 -->
<g id="node24" class="node">
<title>Node29</title>
<g id="a_node24"><a xlink:href="../../d2/d86/WaterPropsIAPWS_8h.html" target="_top" xlink:title="Headers for a class for calculating the equation of state of water from the IAPWS 1995 Formulation ba...">
<polygon fill="white" stroke="black" points="0,-280.5 0,-299.5 109,-299.5 109,-280.5 0,-280.5"/>
<text text-anchor="middle" x="54.5" y="-287.5" font-family="Helvetica,sans-Serif" font-size="10.00">WaterPropsIAPWS.h</text>
</a>
</g>
</g>
<!-- Node28&#45;&gt;Node29 -->
<g id="edge31" class="edge">
<title>Node28&#45;&gt;Node29</title>
<path fill="none" stroke="midnightblue" d="M164.37,-336.4C140.21,-326.42 108.1,-313.15 84.83,-303.53"/>
<polygon fill="midnightblue" stroke="midnightblue" points="86.03,-300.24 75.45,-299.66 83.36,-306.71 86.03,-300.24"/>
</g>
<!-- Node30 -->
<g id="node25" class="node">
<title>Node30</title>
<g id="a_node25"><a xlink:href="../../da/d59/WaterPropsIAPWSphi_8h.html" target="_top" xlink:title="Header for Lowest level of the classes which support a real water model (see class WaterPropsIAPWS an...">
<polygon fill="white" stroke="black" points="62.5,-56.5 62.5,-75.5 184.5,-75.5 184.5,-56.5 62.5,-56.5"/>
<text text-anchor="middle" x="123.5" y="-63.5" font-family="Helvetica,sans-Serif" font-size="10.00">WaterPropsIAPWSphi.h</text>
</a>
</g>
</g>
<!-- Node29&#45;&gt;Node30 -->
<g id="edge32" class="edge">
<title>Node29&#45;&gt;Node30</title>
<path fill="none" stroke="midnightblue" d="M53.35,-280.28C50.22,-253.44 43.68,-170.34 73.5,-112 79.73,-99.81 90.73,-89.35 100.83,-81.59"/>
<polygon fill="midnightblue" stroke="midnightblue" points="102.91,-84.41 108.98,-75.73 98.82,-78.73 102.91,-84.41"/>
</g>
<!-- Node30&#45;&gt;Node4 -->
<g id="edge33" class="edge">
<title>Node30&#45;&gt;Node4</title>
<path fill="none" stroke="midnightblue" d="M147.11,-56.44C171.96,-47.44 211.27,-33.19 239.25,-23.05"/>
<polygon fill="midnightblue" stroke="midnightblue" points="240.79,-26.21 249,-19.52 238.41,-19.63 240.79,-26.21"/>
</g>
<!-- Node32 -->
<g id="node27" class="node">
<title>Node32</title>
<g id="a_node27"><a xlink:href="../../d7/d01/ThermoPhase_8h.html" target="_top" xlink:title="Header file for class ThermoPhase, the base class for phases with thermodynamic properties,...">
<polygon fill="white" stroke="black" points="569.5,-403.5 569.5,-422.5 655.5,-422.5 655.5,-403.5 569.5,-403.5"/>
<text text-anchor="middle" x="612.5" y="-410.5" font-family="Helvetica,sans-Serif" font-size="10.00">ThermoPhase.h</text>
</a>
</g>
</g>
<!-- Node31&#45;&gt;Node32 -->
<g id="edge36" class="edge">
<title>Node31&#45;&gt;Node32</title>
<path fill="none" stroke="midnightblue" d="M622.42,-459.4C620.67,-451.38 618.45,-441.23 616.56,-432.57"/>
<polygon fill="midnightblue" stroke="midnightblue" points="619.95,-431.68 614.39,-422.66 613.11,-433.17 619.95,-431.68"/>
</g>
<!-- Node32&#45;&gt;Node15 -->
<g id="edge49" class="edge">
<title>Node32&#45;&gt;Node15</title>
<path fill="none" stroke="midnightblue" d="M609.64,-403.41C601.62,-380.49 576.8,-317.05 536.5,-280 520.34,-265.15 498.42,-254.37 479.6,-247.09"/>
<polygon fill="midnightblue" stroke="midnightblue" points="480.68,-243.76 470.08,-243.6 478.27,-250.33 480.68,-243.76"/>
</g>
<!-- Node32&#45;&gt;Node21 -->
<g id="edge48" class="edge">
<title>Node32&#45;&gt;Node21</title>
<path fill="none" stroke="midnightblue" d="M612.5,-403.43C612.5,-369.75 612.5,-245.99 612.5,-198.1"/>
<polygon fill="midnightblue" stroke="midnightblue" points="616,-197.9 612.5,-187.9 609,-197.9 616,-197.9"/>
</g>
<!-- Node33 -->
<g id="node28" class="node">
<title>Node33</title>
<g id="a_node28"><a xlink:href="../../da/d84/Phase_8h.html" target="_top" xlink:title="Header file for class Phase.">
<polygon fill="white" stroke="black" points="755,-224.5 755,-243.5 808,-243.5 808,-224.5 755,-224.5"/>
<text text-anchor="middle" x="781.5" y="-231.5" font-family="Helvetica,sans-Serif" font-size="10.00">Phase.h</text>
</a>
</g>
</g>
<!-- Node32&#45;&gt;Node33 -->
<g id="edge37" class="edge">
<title>Node32&#45;&gt;Node33</title>
<path fill="none" stroke="midnightblue" d="M620.65,-403.46C647.13,-375.73 731.04,-287.85 765.99,-251.24"/>
<polygon fill="midnightblue" stroke="midnightblue" points="768.66,-253.52 773.03,-243.87 763.6,-248.68 768.66,-253.52"/>
</g>
<!-- Node37 -->
<g id="node31" class="node">
<title>Node37</title>
<g id="a_node31"><a xlink:href="../../d6/d7a/MultiSpeciesThermo_8h.html" target="_top" xlink:title="Header for a general species thermodynamic property manager for a phase (see MultiSpeciesThermo).">
<polygon fill="white" stroke="black" points="412.5,-342 412.5,-361 526.5,-361 526.5,-342 412.5,-342"/>
<text text-anchor="middle" x="469.5" y="-349" font-family="Helvetica,sans-Serif" font-size="10.00">MultiSpeciesThermo.h</text>
</a>
</g>
</g>
<!-- Node32&#45;&gt;Node37 -->
<g id="edge43" class="edge">
<title>Node32&#45;&gt;Node37</title>
<path fill="none" stroke="midnightblue" d="M592.01,-403.48C567.69,-393.36 526.95,-376.4 499.18,-364.85"/>
<polygon fill="midnightblue" stroke="midnightblue" points="500.53,-361.62 489.95,-361.01 497.84,-368.08 500.53,-361.62"/>
</g>
<!-- Node33&#45;&gt;Node16 -->
<g id="edge38" class="edge">
<title>Node33&#45;&gt;Node16</title>
<path fill="none" stroke="midnightblue" d="M777.04,-224.08C773.35,-216.69 767.98,-205.95 763.41,-196.81"/>
<polygon fill="midnightblue" stroke="midnightblue" points="766.48,-195.13 758.88,-187.75 760.22,-198.26 766.48,-195.13"/>
</g>
<!-- Node34 -->
<g id="node29" class="node">
<title>Node34</title>
<g id="a_node29"><a xlink:href="../../d9/dda/Elements_8h.html" target="_top" xlink:title="Contains the getElementWeight function and the definitions of element constraint types.">
<polygon fill="white" stroke="black" points="822.5,-112.5 822.5,-131.5 956.5,-131.5 956.5,-112.5 822.5,-112.5"/>
<text text-anchor="middle" x="889.5" y="-119.5" font-family="Helvetica,sans-Serif" font-size="10.00">cantera/thermo/Elements.h</text>
</a>
</g>
</g>
<!-- Node33&#45;&gt;Node34 -->
<g id="edge39" class="edge">
<title>Node33&#45;&gt;Node34</title>
<path fill="none" stroke="midnightblue" d="M808.24,-224.71C826.89,-217.66 851.12,-205.82 866.5,-188 877.85,-174.84 883.73,-155.7 886.68,-141.6"/>
<polygon fill="midnightblue" stroke="midnightblue" points="890.16,-142.04 888.48,-131.58 883.27,-140.8 890.16,-142.04"/>
</g>
<!-- Node35 -->
<g id="node30" class="node">
<title>Node35</title>
<g id="a_node30"><a xlink:href="../../d6/df6/ValueCache_8h.html" target="_top" xlink:title=" ">
<polygon fill="white" stroke="red" points="551,-112.5 551,-131.5 688,-131.5 688,-112.5 551,-112.5"/>
<text text-anchor="middle" x="619.5" y="-119.5" font-family="Helvetica,sans-Serif" font-size="10.00">cantera/base/ValueCache.h</text>
</a>
</g>
</g>
<!-- Node33&#45;&gt;Node35 -->
<g id="edge41" class="edge">
<title>Node33&#45;&gt;Node35</title>
<path fill="none" stroke="midnightblue" d="M797.21,-224.35C817.88,-211.86 849.8,-188.09 833.5,-168 824.21,-156.56 747.47,-142.44 688.51,-133.1"/>
<polygon fill="midnightblue" stroke="midnightblue" points="688.9,-129.62 678.48,-131.53 687.81,-136.54 688.9,-129.62"/>
</g>
<!-- Node34&#45;&gt;Node3 -->
<g id="edge40" class="edge">
<title>Node34&#45;&gt;Node3</title>
<path fill="none" stroke="midnightblue" d="M846.72,-112.44C794.8,-102.06 708.02,-84.7 658.07,-74.71"/>
<polygon fill="midnightblue" stroke="midnightblue" points="658.49,-71.23 648,-72.7 657.12,-78.09 658.49,-71.23"/>
</g>
<!-- Node35&#45;&gt;Node3 -->
<g id="edge42" class="edge">
<title>Node35&#45;&gt;Node3</title>
<path fill="none" stroke="midnightblue" d="M619.5,-112.08C619.5,-105.01 619.5,-94.86 619.5,-85.99"/>
<polygon fill="midnightblue" stroke="midnightblue" points="623,-85.75 619.5,-75.75 616,-85.75 623,-85.75"/>
</g>
<!-- Node38 -->
<g id="node32" class="node">
<title>Node38</title>
<g id="a_node32"><a xlink:href="../../d4/d87/SpeciesThermoInterpType_8h.html" target="_top" xlink:title="Pure Virtual Base class for individual species reference state thermodynamic managers and text for th...">
<polygon fill="white" stroke="black" points="389,-280.5 389,-299.5 528,-299.5 528,-280.5 389,-280.5"/>
<text text-anchor="middle" x="458.5" y="-287.5" font-family="Helvetica,sans-Serif" font-size="10.00">SpeciesThermoInterpType.h</text>
</a>
</g>
</g>
<!-- Node37&#45;&gt;Node38 -->
<g id="edge44" class="edge">
<title>Node37&#45;&gt;Node38</title>
<path fill="none" stroke="midnightblue" d="M467.92,-341.98C466.37,-333.58 463.95,-320.48 461.95,-309.66"/>
<polygon fill="midnightblue" stroke="midnightblue" points="465.33,-308.71 460.07,-299.51 458.45,-309.98 465.33,-308.71"/>
</g>
<!-- Node38&#45;&gt;Node3 -->
<g id="edge45" class="edge">
<title>Node38&#45;&gt;Node3</title>
<path fill="none" stroke="midnightblue" d="M388.8,-282.86C304.23,-272.04 177.05,-243.11 212.5,-168 229.21,-132.59 244.6,-127.62 280.5,-112 333.73,-88.84 503.45,-74.8 580.63,-69.47"/>
<polygon fill="midnightblue" stroke="midnightblue" points="581.14,-72.94 590.88,-68.77 580.67,-65.96 581.14,-72.94"/>
</g>
<!-- Node38&#45;&gt;Node15 -->
<g id="edge47" class="edge">
<title>Node38&#45;&gt;Node15</title>
<path fill="none" stroke="midnightblue" d="M455.53,-280.08C453.12,-272.85 449.64,-262.41 446.63,-253.4"/>
<polygon fill="midnightblue" stroke="midnightblue" points="449.9,-252.13 443.42,-243.75 443.26,-254.34 449.9,-252.13"/>
</g>
<!-- Node38&#45;&gt;Node16 -->
<g id="edge46" class="edge">
<title>Node38&#45;&gt;Node16</title>
<path fill="none" stroke="midnightblue" d="M481.73,-280.37C534.14,-260.89 661.72,-213.48 721.97,-191.09"/>
<polygon fill="midnightblue" stroke="midnightblue" points="723.23,-194.36 731.38,-187.59 720.79,-187.79 723.23,-194.36"/>
</g>
<!-- Node39&#45;&gt;Node3 -->
<g id="edge51" class="edge">
<title>Node39&#45;&gt;Node3</title>
<path fill="none" stroke="midnightblue" d="M1146.91,-403.46C1156.53,-384.03 1178.5,-334.83 1178.5,-291 1178.5,-291 1178.5,-291 1178.5,-177 1178.5,-136.77 1151.8,-129.35 1115.5,-112 1034.78,-73.43 760.49,-67.81 658.29,-67.07"/>
<polygon fill="midnightblue" stroke="midnightblue" points="658.13,-63.57 648.1,-67.01 658.08,-70.57 658.13,-63.57"/>
</g>
<!-- Node40&#45;&gt;Node3 -->
<g id="edge53" class="edge">
<title>Node40&#45;&gt;Node3</title>
<path fill="none" stroke="midnightblue" d="M975.38,-168.44C977.87,-154.52 980.4,-127.01 965.5,-112 923.27,-69.48 739.62,-65.81 658.39,-66.33"/>
<polygon fill="midnightblue" stroke="midnightblue" points="658.06,-62.83 648.09,-66.42 658.12,-69.83 658.06,-62.83"/>
</g>
<!-- Node40&#45;&gt;Node17 -->
<g id="edge54" class="edge">
<title>Node40&#45;&gt;Node17</title>
<path fill="none" stroke="midnightblue" d="M938.96,-168.44C901.25,-159.1 840.76,-144.12 799.64,-133.93"/>
<polygon fill="midnightblue" stroke="midnightblue" points="800.43,-130.52 789.88,-131.52 798.75,-137.32 800.43,-130.52"/>
</g>
</g>
</svg>
        <g id="navigator" transform="translate(0 0)" fill="#404254">
                <rect fill="#f2f5e9" fill-opacity="0.5" stroke="#606060" stroke-width=".5" x="0" y="0" width="60" height="60"/>
                <use id="zoomplus" xlink:href="#zoomPlus" x="17" y="9" onmousedown="handleZoom(evt,'in')"/>
                <use id="zoomminus" xlink:href="#zoomMin" x="42" y="9" onmousedown="handleZoom(evt,'out')"/>
                <use id="reset" xlink:href="#resetDef" x="30" y="36" onmousedown="handleReset()"/>
                <g id="arrowUp" xlink:href="#dirArrow" transform="translate(30 24)" onmousedown="handlePan(0,-1)">
                  <use xlink:href="#rim" fill="#404040">
                        <set attributeName="fill" to="#808080" begin="arrowUp.mouseover" end="arrowUp.mouseout"/>
                  </use>
                  <path fill="none" stroke="white" stroke-width="1.5" d="M0,-3.0v7 M-2.5,-0.5L0,-3.0L2.5,-0.5"/>
                </g>
                <g id="arrowRight" xlink:href="#dirArrow" transform="rotate(90) translate(36 -43)" onmousedown="handlePan(1,0)">
                  <use xlink:href="#rim" fill="#404040">
                        <set attributeName="fill" to="#808080" begin="arrowRight.mouseover" end="arrowRight.mouseout"/>
                  </use>
                  <path fill="none" stroke="white" stroke-width="1.5" d="M0,-3.0v7 M-2.5,-0.5L0,-3.0L2.5,-0.5"/>
                </g>
                <g id="arrowDown" xlink:href="#dirArrow" transform="rotate(180) translate(-30 -48)" onmousedown="handlePan(0,1)">
                  <use xlink:href="#rim" fill="#404040">
                        <set attributeName="fill" to="#808080" begin="arrowDown.mouseover" end="arrowDown.mouseout"/>
                  </use>
                  <path fill="none" stroke="white" stroke-width="1.5" d="M0,-3.0v7 M-2.5,-0.5L0,-3.0L2.5,-0.5"/>
                </g>
                <g id="arrowLeft" xlink:href="#dirArrow" transform="rotate(270) translate(-36 17)" onmousedown="handlePan(-1,0)">
                  <use xlink:href="#rim" fill="#404040">
                        <set attributeName="fill" to="#808080" begin="arrowLeft.mouseover" end="arrowLeft.mouseout"/>
                  </use>
                  <path fill="none" stroke="white" stroke-width="1.5" d="M0,-3.0v7 M-2.5,-0.5L0,-3.0L2.5,-0.5"/>
                </g>
        </g>
        <svg viewBox="0 0 15 15" width="100%" height="30px" preserveAspectRatio="xMaxYMin meet">
         <g id="arrow_out" transform="scale(0.3 0.3)">
          <a xlink:href="PDSS__HKFT_8cpp__incl_org.svg" target="_base">
           <rect id="button" ry="5" rx="5" y="6" x="6" height="38" width="38"
                fill="#f2f5e9" fill-opacity="0.5" stroke="#606060" stroke-width="1.0"/>
           <path id="arrow"
             d="M 11.500037,31.436501 C 11.940474,20.09759 22.043105,11.32322 32.158766,21.979434 L 37.068811,17.246167 C 37.068811,17.246167 37.088388,32 37.088388,32 L 22.160133,31.978069 C 22.160133,31.978069 26.997745,27.140456 26.997745,27.140456 C 18.528582,18.264221 13.291696,25.230495 11.500037,31.436501 z"
             style="fill:#404040;"/>
          </a>
         </g>
        </svg>
</svg>
