<?xml version="1.0" encoding="UTF-8" standalone="no"?>
<!DOCTYPE svg PUBLIC "-//W3C//DTD SVG 1.1//EN"
 "http://www.w3.org/Graphics/SVG/1.1/DTD/svg11.dtd">
<!-- Generated by graphviz version 2.50.0 (0)
 -->
<!-- Title: YamlWriter.h Pages: 1 -->
<!--zoomable 308 -->
<svg id="main" version="1.1" xmlns="http://www.w3.org/2000/svg" xmlns:xlink="http://www.w3.org/1999/xlink" xml:space="preserve" onload="init(evt)">
<style type="text/css"><![CDATA[
.edge:hover path { stroke: red; }
.edge:hover polygon { stroke: red; fill: red; }
]]></style>
<script type="text/javascript"><![CDATA[
var edges = document.getElementsByTagName('g');
if (edges && edges.length) {
  for (var i=0;i<edges.length;i++) {
    if (edges[i].id.substr(0,4)=='edge') {
      edges[i].setAttribute('class','edge');
    }
  }
}
]]></script>
        <defs>
                <circle id="rim" cx="0" cy="0" r="7"/>
                <circle id="rim2" cx="0" cy="0" r="3.5"/>
                <g id="zoomPlus">
                        <use xlink:href="#rim" fill="#404040">
                                <set attributeName="fill" to="#808080" begin="zoomplus.mouseover" end="zoomplus.mouseout"/>
                        </use>
                        <path d="M-4,0h8M0,-4v8" fill="none" stroke="white" stroke-width="1.5" pointer-events="none"/>
                </g>
                <g id="zoomMin">
                        <use xlink:href="#rim" fill="#404040">
                                <set attributeName="fill" to="#808080" begin="zoomminus.mouseover" end="zoomminus.mouseout"/>
                        </use>
                        <path d="M-4,0h8" fill="none" stroke="white" stroke-width="1.5" pointer-events="none"/>
                </g>
                <g id="dirArrow">
                        <path fill="none" stroke="white" stroke-width="1.5" d="M0,-3.0v7 M-2.5,-0.5L0,-3.0L2.5,-0.5"/>
                </g>
               <g id="resetDef">
                       <use xlink:href="#rim2" fill="#404040">
                               <set attributeName="fill" to="#808080" begin="reset.mouseover" end="reset.mouseout"/>
                       </use>
               </g>
        </defs>

<script type="text/javascript">
var viewWidth = 778;
var viewHeight = 308;
var sectionId = 'dynsection-0';
</script>
<script xlink:href="../../svgpan.js"/>
<svg id="graph" class="graph">
<g id="viewport">
<title>YamlWriter.h</title>
<polygon fill="white" stroke="transparent" points="-4,4 -4,-304 773.6,-304 773.6,4 -4,4"/>
<!-- Node1 -->
<g id="node1" class="node">
<title>Node1</title>
<g id="a_node1"><a xlink:title="Declaration for class Cantera::YamlWriter.">
<polygon fill="#bfbfbf" stroke="black" points="35.1,-280.5 35.1,-299.5 106.1,-299.5 106.1,-280.5 35.1,-280.5"/>
<text text-anchor="middle" x="70.6" y="-287.5" font-family="Helvetica,sans-Serif" font-size="10.00">YamlWriter.h</text>
</a>
</g>
</g>
<!-- Node2 -->
<g id="node2" class="node">
<title>Node2</title>
<g id="a_node2"><a xlink:href="../../d9/ddc/ct__defs_8h.html" target="_top" xlink:title="This file contains definitions of constants, types and terms that are used in internal routines and a...">
<polygon fill="white" stroke="black" points="225.6,-56.5 225.6,-75.5 341.6,-75.5 341.6,-56.5 225.6,-56.5"/>
<text text-anchor="middle" x="283.6" y="-63.5" font-family="Helvetica,sans-Serif" font-size="10.00">cantera/base/ct_defs.h</text>
</a>
</g>
</g>
<!-- Node1&#45;&gt;Node2 -->
<g id="edge1" class="edge">
<title>Node1&#45;&gt;Node2</title>
<path fill="none" stroke="midnightblue" d="M59.75,-280.38C35.37,-259.96 -19.55,-207.39 7.6,-168 53.77,-101 149.52,-78.28 215.16,-70.67"/>
<polygon fill="midnightblue" stroke="midnightblue" points="215.86,-74.12 225.43,-69.58 215.11,-67.16 215.86,-74.12"/>
</g>
<!-- Node11 -->
<g id="node11" class="node">
<title>Node11</title>
<g id="a_node11"><a xlink:href="../../dd/d2a/AnyMap_8h.html" target="_top" xlink:title=" ">
<polygon fill="white" stroke="black" points="269.6,-224.5 269.6,-243.5 389.6,-243.5 389.6,-224.5 269.6,-224.5"/>
<text text-anchor="middle" x="329.6" y="-231.5" font-family="Helvetica,sans-Serif" font-size="10.00">cantera/base/AnyMap.h</text>
</a>
</g>
</g>
<!-- Node1&#45;&gt;Node11 -->
<g id="edge10" class="edge">
<title>Node1&#45;&gt;Node11</title>
<path fill="none" stroke="midnightblue" d="M106.34,-281.55C151.1,-272.22 228.05,-256.17 278.88,-245.57"/>
<polygon fill="midnightblue" stroke="midnightblue" points="279.61,-249 288.68,-243.53 278.18,-242.15 279.61,-249"/>
</g>
<!-- Node17 -->
<g id="node17" class="node">
<title>Node17</title>
<g id="a_node17"><a xlink:href="../../da/d58/Units_8h.html" target="_top" xlink:title="Header for unit conversion utilities, which are used to translate user input from input files (See In...">
<polygon fill="white" stroke="black" points="17.1,-168.5 17.1,-187.5 124.1,-187.5 124.1,-168.5 17.1,-168.5"/>
<text text-anchor="middle" x="70.6" y="-175.5" font-family="Helvetica,sans-Serif" font-size="10.00">cantera/base/Units.h</text>
</a>
</g>
</g>
<!-- Node1&#45;&gt;Node17 -->
<g id="edge26" class="edge">
<title>Node1&#45;&gt;Node17</title>
<path fill="none" stroke="midnightblue" d="M70.6,-280.37C70.6,-262.62 70.6,-221.67 70.6,-197.6"/>
<polygon fill="midnightblue" stroke="midnightblue" points="74.1,-197.59 70.6,-187.59 67.1,-197.59 74.1,-197.59"/>
</g>
<!-- Node3 -->
<g id="node3" class="node">
<title>Node3</title>
<g id="a_node3"><a xlink:href="../../db/d16/config_8h_source.html" target="_top" xlink:title=" ">
<polygon fill="white" stroke="black" points="37.1,-0.5 37.1,-19.5 88.1,-19.5 88.1,-0.5 37.1,-0.5"/>
<text text-anchor="middle" x="62.6" y="-7.5" font-family="Helvetica,sans-Serif" font-size="10.00">config.h</text>
</a>
</g>
</g>
<!-- Node2&#45;&gt;Node3 -->
<g id="edge2" class="edge">
<title>Node2&#45;&gt;Node3</title>
<path fill="none" stroke="midnightblue" d="M247.56,-56.44C212.04,-47.97 155.97,-34.5 97.92,-20.05"/>
<polygon fill="midnightblue" stroke="midnightblue" points="98.76,-16.65 88.21,-17.63 97.06,-23.45 98.76,-16.65"/>
</g>
<!-- Node4 -->
<g id="node4" class="node">
<title>Node4</title>
<g id="a_node4"><a xlink:title=" ">
<polygon fill="white" stroke="#bfbfbf" points="106.6,-0.5 106.6,-19.5 150.6,-19.5 150.6,-0.5 106.6,-0.5"/>
<text text-anchor="middle" x="128.6" y="-7.5" font-family="Helvetica,sans-Serif" font-size="10.00">cmath</text>
</a>
</g>
</g>
<!-- Node2&#45;&gt;Node4 -->
<g id="edge3" class="edge">
<title>Node2&#45;&gt;Node4</title>
<path fill="none" stroke="midnightblue" d="M259.04,-56.44C232.47,-47.19 189.99,-32.39 160.77,-22.21"/>
<polygon fill="midnightblue" stroke="midnightblue" points="161.63,-18.8 151.03,-18.82 159.33,-25.41 161.63,-18.8"/>
</g>
<!-- Node5 -->
<g id="node5" class="node">
<title>Node5</title>
<g id="a_node5"><a xlink:title=" ">
<polygon fill="white" stroke="#bfbfbf" points="169.1,-0.5 169.1,-19.5 214.1,-19.5 214.1,-0.5 169.1,-0.5"/>
<text text-anchor="middle" x="191.6" y="-7.5" font-family="Helvetica,sans-Serif" font-size="10.00">cstdlib</text>
</a>
</g>
</g>
<!-- Node2&#45;&gt;Node5 -->
<g id="edge4" class="edge">
<title>Node2&#45;&gt;Node5</title>
<path fill="none" stroke="midnightblue" d="M268.82,-56.32C254.34,-47.82 232.03,-34.73 215.11,-24.8"/>
<polygon fill="midnightblue" stroke="midnightblue" points="216.74,-21.7 206.35,-19.65 213.2,-27.74 216.74,-21.7"/>
</g>
<!-- Node6 -->
<g id="node6" class="node">
<title>Node6</title>
<g id="a_node6"><a xlink:title=" ">
<polygon fill="white" stroke="#bfbfbf" points="232.6,-0.5 232.6,-19.5 276.6,-19.5 276.6,-0.5 232.6,-0.5"/>
<text text-anchor="middle" x="254.6" y="-7.5" font-family="Helvetica,sans-Serif" font-size="10.00">vector</text>
</a>
</g>
</g>
<!-- Node2&#45;&gt;Node6 -->
<g id="edge5" class="edge">
<title>Node2&#45;&gt;Node6</title>
<path fill="none" stroke="midnightblue" d="M278.81,-56.08C274.84,-48.69 269.08,-37.95 264.17,-28.81"/>
<polygon fill="midnightblue" stroke="midnightblue" points="267.12,-26.91 259.3,-19.75 260.95,-30.22 267.12,-26.91"/>
</g>
<!-- Node7 -->
<g id="node7" class="node">
<title>Node7</title>
<g id="a_node7"><a xlink:title=" ">
<polygon fill="white" stroke="#bfbfbf" points="295.1,-0.5 295.1,-19.5 330.1,-19.5 330.1,-0.5 295.1,-0.5"/>
<text text-anchor="middle" x="312.6" y="-7.5" font-family="Helvetica,sans-Serif" font-size="10.00">map</text>
</a>
</g>
</g>
<!-- Node2&#45;&gt;Node7 -->
<g id="edge6" class="edge">
<title>Node2&#45;&gt;Node7</title>
<path fill="none" stroke="midnightblue" d="M288.39,-56.08C292.36,-48.69 298.13,-37.95 303.04,-28.81"/>
<polygon fill="midnightblue" stroke="midnightblue" points="306.25,-30.22 307.9,-19.75 300.09,-26.91 306.25,-30.22"/>
</g>
<!-- Node8 -->
<g id="node8" class="node">
<title>Node8</title>
<g id="a_node8"><a xlink:title=" ">
<polygon fill="white" stroke="#bfbfbf" points="348.1,-0.5 348.1,-19.5 389.1,-19.5 389.1,-0.5 348.1,-0.5"/>
<text text-anchor="middle" x="368.6" y="-7.5" font-family="Helvetica,sans-Serif" font-size="10.00">string</text>
</a>
</g>
</g>
<!-- Node2&#45;&gt;Node8 -->
<g id="edge7" class="edge">
<title>Node2&#45;&gt;Node8</title>
<path fill="none" stroke="midnightblue" d="M297.26,-56.32C310.52,-47.9 330.87,-34.97 346.45,-25.07"/>
<polygon fill="midnightblue" stroke="midnightblue" points="348.42,-27.97 354.98,-19.65 344.66,-22.06 348.42,-27.97"/>
</g>
<!-- Node9 -->
<g id="node9" class="node">
<title>Node9</title>
<g id="a_node9"><a xlink:title=" ">
<polygon fill="white" stroke="#bfbfbf" points="407.6,-0.5 407.6,-19.5 463.6,-19.5 463.6,-0.5 407.6,-0.5"/>
<text text-anchor="middle" x="435.6" y="-7.5" font-family="Helvetica,sans-Serif" font-size="10.00">algorithm</text>
</a>
</g>
</g>
<!-- Node2&#45;&gt;Node9 -->
<g id="edge8" class="edge">
<title>Node2&#45;&gt;Node9</title>
<path fill="none" stroke="midnightblue" d="M307.69,-56.44C333.15,-47.4 373.5,-33.06 402.06,-22.92"/>
<polygon fill="midnightblue" stroke="midnightblue" points="403.38,-26.16 411.63,-19.52 401.04,-19.57 403.38,-26.16"/>
</g>
<!-- Node10 -->
<g id="node10" class="node">
<title>Node10</title>
<g id="a_node10"><a xlink:title=" ">
<polygon fill="white" stroke="#bfbfbf" points="481.6,-0.5 481.6,-19.5 533.6,-19.5 533.6,-0.5 481.6,-0.5"/>
<text text-anchor="middle" x="507.6" y="-7.5" font-family="Helvetica,sans-Serif" font-size="10.00">memory</text>
</a>
</g>
</g>
<!-- Node2&#45;&gt;Node10 -->
<g id="edge9" class="edge">
<title>Node2&#45;&gt;Node10</title>
<path fill="none" stroke="midnightblue" d="M320.23,-56.48C356.34,-48.04 413.32,-34.6 471.51,-20.24"/>
<polygon fill="midnightblue" stroke="midnightblue" points="472.38,-23.63 481.24,-17.83 470.69,-16.84 472.38,-23.63"/>
</g>
<!-- Node11&#45;&gt;Node2 -->
<g id="edge11" class="edge">
<title>Node11&#45;&gt;Node2</title>
<path fill="none" stroke="midnightblue" d="M389.61,-228.17C416.52,-222.66 445.91,-211.27 462.6,-188 471.04,-176.24 483.73,-139.9 461.6,-112 447.77,-94.57 396.08,-82.76 351.94,-75.63"/>
<polygon fill="midnightblue" stroke="midnightblue" points="352.2,-72.13 341.78,-74.05 351.13,-79.05 352.2,-72.13"/>
</g>
<!-- Node12 -->
<g id="node12" class="node">
<title>Node12</title>
<g id="a_node12"><a xlink:href="../../db/d98/ctexceptions_8h.html" target="_top" xlink:title="Definitions for the classes that are thrown when Cantera experiences an error condition (also contain...">
<polygon fill="white" stroke="black" points="509.6,-168.5 509.6,-187.5 649.6,-187.5 649.6,-168.5 509.6,-168.5"/>
<text text-anchor="middle" x="579.6" y="-175.5" font-family="Helvetica,sans-Serif" font-size="10.00">cantera/base/ctexceptions.h</text>
</a>
</g>
</g>
<!-- Node11&#45;&gt;Node12 -->
<g id="edge12" class="edge">
<title>Node11&#45;&gt;Node12</title>
<path fill="none" stroke="midnightblue" d="M369.22,-224.44C412.83,-215.02 483,-199.87 530.18,-189.68"/>
<polygon fill="midnightblue" stroke="midnightblue" points="531.14,-193.05 540.17,-187.52 529.66,-186.21 531.14,-193.05"/>
</g>
<!-- Node11&#45;&gt;Node17 -->
<g id="edge18" class="edge">
<title>Node11&#45;&gt;Node17</title>
<path fill="none" stroke="midnightblue" d="M288.56,-224.44C243.29,-215 170.37,-199.8 121.5,-189.61"/>
<polygon fill="midnightblue" stroke="midnightblue" points="121.95,-186.13 111.45,-187.52 120.52,-192.98 121.95,-186.13"/>
</g>
<!-- Node18 -->
<g id="node18" class="node">
<title>Node18</title>
<g id="a_node18"><a xlink:title=" ">
<polygon fill="white" stroke="#bfbfbf" points="142.1,-168.5 142.1,-187.5 225.1,-187.5 225.1,-168.5 142.1,-168.5"/>
<text text-anchor="middle" x="183.6" y="-175.5" font-family="Helvetica,sans-Serif" font-size="10.00">unordered_map</text>
</a>
</g>
</g>
<!-- Node11&#45;&gt;Node18 -->
<g id="edge20" class="edge">
<title>Node11&#45;&gt;Node18</title>
<path fill="none" stroke="midnightblue" d="M306.47,-224.44C282.12,-215.44 243.6,-201.19 216.18,-191.05"/>
<polygon fill="midnightblue" stroke="midnightblue" points="217.22,-187.7 206.63,-187.52 214.79,-194.27 217.22,-187.7"/>
</g>
<!-- Node19 -->
<g id="node19" class="node">
<title>Node19</title>
<g id="a_node19"><a xlink:title=" ">
<polygon fill="white" stroke="#bfbfbf" points="243.1,-168.5 243.1,-187.5 302.1,-187.5 302.1,-168.5 243.1,-168.5"/>
<text text-anchor="middle" x="272.6" y="-175.5" font-family="Helvetica,sans-Serif" font-size="10.00">functional</text>
</a>
</g>
</g>
<!-- Node11&#45;&gt;Node19 -->
<g id="edge21" class="edge">
<title>Node11&#45;&gt;Node19</title>
<path fill="none" stroke="midnightblue" d="M320.44,-224.32C312.1,-216.42 299.57,-204.55 289.43,-194.94"/>
<polygon fill="midnightblue" stroke="midnightblue" points="291.59,-192.17 281.93,-187.83 286.78,-197.25 291.59,-192.17"/>
</g>
<!-- Node20 -->
<g id="node20" class="node">
<title>Node20</title>
<g id="a_node20"><a xlink:href="../../da/d4c/AnyMap_8inl_8h.html" target="_top" xlink:title=" ">
<polygon fill="white" stroke="black" points="320.1,-168.5 320.1,-187.5 453.1,-187.5 453.1,-168.5 320.1,-168.5"/>
<text text-anchor="middle" x="386.6" y="-175.5" font-family="Helvetica,sans-Serif" font-size="10.00">cantera/base/AnyMap.inl.h</text>
</a>
</g>
</g>
<!-- Node11&#45;&gt;Node20 -->
<g id="edge22" class="edge">
<title>Node11&#45;&gt;Node20</title>
<path fill="none" stroke="midnightblue" d="M333.85,-224.08C340.69,-215.98 353.15,-203.87 364.38,-194.23"/>
<polygon fill="midnightblue" stroke="midnightblue" points="366.75,-196.82 372.23,-187.75 362.29,-191.42 366.75,-196.82"/>
</g>
<!-- Node13 -->
<g id="node13" class="node">
<title>Node13</title>
<g id="a_node13"><a xlink:href="../../db/def/fmt_8h.html" target="_top" xlink:title="Wrapper for either system&#45;installed or local headers for fmt.">
<polygon fill="white" stroke="black" points="587.6,-112.5 587.6,-131.5 685.6,-131.5 685.6,-112.5 587.6,-112.5"/>
<text text-anchor="middle" x="636.6" y="-119.5" font-family="Helvetica,sans-Serif" font-size="10.00">cantera/base/fmt.h</text>
</a>
</g>
</g>
<!-- Node12&#45;&gt;Node13 -->
<g id="edge13" class="edge">
<title>Node12&#45;&gt;Node13</title>
<path fill="none" stroke="midnightblue" d="M588.76,-168.32C597.1,-160.42 609.63,-148.55 619.78,-138.94"/>
<polygon fill="midnightblue" stroke="midnightblue" points="622.43,-141.25 627.28,-131.83 617.61,-136.17 622.43,-141.25"/>
</g>
<!-- Node16 -->
<g id="node16" class="node">
<title>Node16</title>
<g id="a_node16"><a xlink:title=" ">
<polygon fill="white" stroke="#bfbfbf" points="510.1,-112.5 510.1,-131.5 569.1,-131.5 569.1,-112.5 510.1,-112.5"/>
<text text-anchor="middle" x="539.6" y="-119.5" font-family="Helvetica,sans-Serif" font-size="10.00">exception</text>
</a>
</g>
</g>
<!-- Node12&#45;&gt;Node16 -->
<g id="edge17" class="edge">
<title>Node12&#45;&gt;Node16</title>
<path fill="none" stroke="midnightblue" d="M573,-168.08C567.35,-160.46 559.06,-149.26 552.15,-139.94"/>
<polygon fill="midnightblue" stroke="midnightblue" points="554.85,-137.7 546.08,-131.75 549.22,-141.87 554.85,-137.7"/>
</g>
<!-- Node13&#45;&gt;Node2 -->
<g id="edge14" class="edge">
<title>Node13&#45;&gt;Node2</title>
<path fill="none" stroke="midnightblue" d="M587.56,-113.38C584.53,-112.91 581.52,-112.45 578.6,-112 499.94,-99.9 409.47,-86.12 349.67,-77.03"/>
<polygon fill="midnightblue" stroke="midnightblue" points="350.03,-73.54 339.61,-75.5 348.97,-80.46 350.03,-73.54"/>
</g>
<!-- Node14 -->
<g id="node14" class="node">
<title>Node14</title>
<g id="a_node14"><a xlink:title=" ">
<polygon fill="white" stroke="#bfbfbf" points="647.6,-56.5 647.6,-75.5 769.6,-75.5 769.6,-56.5 647.6,-56.5"/>
<text text-anchor="middle" x="708.6" y="-63.5" font-family="Helvetica,sans-Serif" font-size="10.00">cantera/ext/fmt/format.h</text>
</a>
</g>
</g>
<!-- Node13&#45;&gt;Node14 -->
<g id="edge15" class="edge">
<title>Node13&#45;&gt;Node14</title>
<path fill="none" stroke="midnightblue" d="M648.17,-112.32C659.02,-104.18 675.48,-91.84 688.49,-82.09"/>
<polygon fill="midnightblue" stroke="midnightblue" points="690.92,-84.63 696.82,-75.83 686.72,-79.03 690.92,-84.63"/>
</g>
<!-- Node15 -->
<g id="node15" class="node">
<title>Node15</title>
<g id="a_node15"><a xlink:title=" ">
<polygon fill="white" stroke="#bfbfbf" points="500.1,-56.5 500.1,-75.5 629.1,-75.5 629.1,-56.5 500.1,-56.5"/>
<text text-anchor="middle" x="564.6" y="-63.5" font-family="Helvetica,sans-Serif" font-size="10.00">cantera/ext/fmt/ostream.h</text>
</a>
</g>
</g>
<!-- Node13&#45;&gt;Node15 -->
<g id="edge16" class="edge">
<title>Node13&#45;&gt;Node15</title>
<path fill="none" stroke="midnightblue" d="M625.03,-112.32C614.18,-104.18 597.72,-91.84 584.72,-82.09"/>
<polygon fill="midnightblue" stroke="midnightblue" points="586.48,-79.03 576.38,-75.83 582.28,-84.63 586.48,-79.03"/>
</g>
<!-- Node17&#45;&gt;Node2 -->
<g id="edge19" class="edge">
<title>Node17&#45;&gt;Node2</title>
<path fill="none" stroke="midnightblue" d="M87.32,-168.37C124.41,-149.21 213.82,-103.04 258.01,-80.22"/>
<polygon fill="midnightblue" stroke="midnightblue" points="259.69,-83.29 266.97,-75.59 256.47,-77.07 259.69,-83.29"/>
</g>
<!-- Node20&#45;&gt;Node11 -->
<g id="edge23" class="edge">
<title>Node20&#45;&gt;Node11</title>
<path fill="none" stroke="midnightblue" d="M382.43,-187.83C375.59,-195.95 363.04,-208.15 351.76,-217.82"/>
<polygon fill="midnightblue" stroke="midnightblue" points="349.36,-215.26 343.88,-224.32 353.82,-220.66 349.36,-215.26"/>
</g>
<!-- Node21 -->
<g id="node21" class="node">
<title>Node21</title>
<g id="a_node21"><a xlink:title=" ">
<polygon fill="white" stroke="#bfbfbf" points="228.1,-112.5 228.1,-131.5 305.1,-131.5 305.1,-112.5 228.1,-112.5"/>
<text text-anchor="middle" x="266.6" y="-119.5" font-family="Helvetica,sans-Serif" font-size="10.00">boost/any.hpp</text>
</a>
</g>
</g>
<!-- Node20&#45;&gt;Node21 -->
<g id="edge24" class="edge">
<title>Node20&#45;&gt;Node21</title>
<path fill="none" stroke="midnightblue" d="M367.59,-168.44C348.01,-159.64 317.29,-145.81 294.87,-135.72"/>
<polygon fill="midnightblue" stroke="midnightblue" points="296.08,-132.43 285.53,-131.52 293.21,-138.81 296.08,-132.43"/>
</g>
<!-- Node22 -->
<g id="node22" class="node">
<title>Node22</title>
<g id="a_node22"><a xlink:title=" ">
<polygon fill="white" stroke="#bfbfbf" points="323.1,-112.5 323.1,-131.5 452.1,-131.5 452.1,-112.5 323.1,-112.5"/>
<text text-anchor="middle" x="387.6" y="-119.5" font-family="Helvetica,sans-Serif" font-size="10.00">boost/algorithm/string.hpp</text>
</a>
</g>
</g>
<!-- Node20&#45;&gt;Node22 -->
<g id="edge25" class="edge">
<title>Node20&#45;&gt;Node22</title>
<path fill="none" stroke="midnightblue" d="M386.77,-168.08C386.9,-161.01 387.09,-150.86 387.25,-141.99"/>
<polygon fill="midnightblue" stroke="midnightblue" points="390.75,-141.81 387.44,-131.75 383.76,-141.68 390.75,-141.81"/>
</g>
</g>
</svg>
        <g id="navigator" transform="translate(0 0)" fill="#404254">
                <rect fill="#f2f5e9" fill-opacity="0.5" stroke="#606060" stroke-width=".5" x="0" y="0" width="60" height="60"/>
                <use id="zoomplus" xlink:href="#zoomPlus" x="17" y="9" onmousedown="handleZoom(evt,'in')"/>
                <use id="zoomminus" xlink:href="#zoomMin" x="42" y="9" onmousedown="handleZoom(evt,'out')"/>
                <use id="reset" xlink:href="#resetDef" x="30" y="36" onmousedown="handleReset()"/>
                <g id="arrowUp" xlink:href="#dirArrow" transform="translate(30 24)" onmousedown="handlePan(0,-1)">
                  <use xlink:href="#rim" fill="#404040">
                        <set attributeName="fill" to="#808080" begin="arrowUp.mouseover" end="arrowUp.mouseout"/>
                  </use>
                  <path fill="none" stroke="white" stroke-width="1.5" d="M0,-3.0v7 M-2.5,-0.5L0,-3.0L2.5,-0.5"/>
                </g>
                <g id="arrowRight" xlink:href="#dirArrow" transform="rotate(90) translate(36 -43)" onmousedown="handlePan(1,0)">
                  <use xlink:href="#rim" fill="#404040">
                        <set attributeName="fill" to="#808080" begin="arrowRight.mouseover" end="arrowRight.mouseout"/>
                  </use>
                  <path fill="none" stroke="white" stroke-width="1.5" d="M0,-3.0v7 M-2.5,-0.5L0,-3.0L2.5,-0.5"/>
                </g>
                <g id="arrowDown" xlink:href="#dirArrow" transform="rotate(180) translate(-30 -48)" onmousedown="handlePan(0,1)">
                  <use xlink:href="#rim" fill="#404040">
                        <set attributeName="fill" to="#808080" begin="arrowDown.mouseover" end="arrowDown.mouseout"/>
                  </use>
                  <path fill="none" stroke="white" stroke-width="1.5" d="M0,-3.0v7 M-2.5,-0.5L0,-3.0L2.5,-0.5"/>
                </g>
                <g id="arrowLeft" xlink:href="#dirArrow" transform="rotate(270) translate(-36 17)" onmousedown="handlePan(-1,0)">
                  <use xlink:href="#rim" fill="#404040">
                        <set attributeName="fill" to="#808080" begin="arrowLeft.mouseover" end="arrowLeft.mouseout"/>
                  </use>
                  <path fill="none" stroke="white" stroke-width="1.5" d="M0,-3.0v7 M-2.5,-0.5L0,-3.0L2.5,-0.5"/>
                </g>
        </g>
        <svg viewBox="0 0 15 15" width="100%" height="30px" preserveAspectRatio="xMaxYMin meet">
         <g id="arrow_out" transform="scale(0.3 0.3)">
          <a xlink:href="YamlWriter_8h__incl_org.svg" target="_base">
           <rect id="button" ry="5" rx="5" y="6" x="6" height="38" width="38"
                fill="#f2f5e9" fill-opacity="0.5" stroke="#606060" stroke-width="1.0"/>
           <path id="arrow"
             d="M 11.500037,31.436501 C 11.940474,20.09759 22.043105,11.32322 32.158766,21.979434 L 37.068811,17.246167 C 37.068811,17.246167 37.088388,32 37.088388,32 L 22.160133,31.978069 C 22.160133,31.978069 26.997745,27.140456 26.997745,27.140456 C 18.528582,18.264221 13.291696,25.230495 11.500037,31.436501 z"
             style="fill:#404040;"/>
          </a>
         </g>
        </svg>
</svg>
