<?xml version="1.0" encoding="UTF-8" standalone="no"?>
<!DOCTYPE svg PUBLIC "-//W3C//DTD SVG 1.1//EN"
 "http://www.w3.org/Graphics/SVG/1.1/DTD/svg11.dtd">
<!-- Generated by graphviz version 6.0.1 (0)
 -->
<!-- Title: ctexceptions.cpp Pages: 1 -->
<svg width="780pt" height="258pt"
 viewBox="0.00 0.00 780.00 258.00" xmlns="http://www.w3.org/2000/svg" xmlns:xlink="http://www.w3.org/1999/xlink">
<g id="graph0" class="graph" transform="scale(1 1) rotate(0) translate(4 254)">
<title>ctexceptions.cpp</title>
<!-- Node1 -->
<g id="node1" class="node">
<title>Node1</title>
<g id="a_node1"><a xlink:title=" ">
<polygon fill="#999999" stroke="#666666" points="493.5,-250 402.5,-250 402.5,-231 493.5,-231 493.5,-250"/>
<text text-anchor="middle" x="448" y="-238" font-family="Helvetica,sans-Serif" font-size="10.00">ctexceptions.cpp</text>
</a>
</g>
</g>
<!-- Node2 -->
<g id="node2" class="node">
<title>Node2</title>
<g id="a_node2"><a xlink:href="../../db/d98/ctexceptions_8h.html" target="_top" xlink:title="Definitions for the classes that are thrown when Cantera experiences an error condition (also contain...">
<polygon fill="white" stroke="#666666" points="456,-195 316,-195 316,-176 456,-176 456,-195"/>
<text text-anchor="middle" x="386" y="-183" font-family="Helvetica,sans-Serif" font-size="10.00">cantera/base/ctexceptions.h</text>
</a>
</g>
</g>
<!-- Node1&#45;&gt;Node2 -->
<g id="edge1" class="edge">
<title>Node1&#45;&gt;Node2</title>
<path fill="none" stroke="#63b8ff" d="M438.04,-230.98C428.87,-223.15 415.06,-211.34 403.97,-201.86"/>
<polygon fill="#63b8ff" stroke="#63b8ff" points="406.02,-199.01 396.14,-195.17 401.47,-204.33 406.02,-199.01"/>
</g>
<!-- Node18 -->
<g id="node18" class="node">
<title>Node18</title>
<g id="a_node18"><a xlink:href="../../db/d32/application_8h.html" target="_top" xlink:title=" ">
<polygon fill="white" stroke="#666666" points="576.5,-195 505.5,-195 505.5,-176 576.5,-176 576.5,-195"/>
<text text-anchor="middle" x="541" y="-183" font-family="Helvetica,sans-Serif" font-size="10.00">application.h</text>
</a>
</g>
</g>
<!-- Node1&#45;&gt;Node18 -->
<g id="edge18" class="edge">
<title>Node1&#45;&gt;Node18</title>
<path fill="none" stroke="#63b8ff" d="M462.94,-230.98C477.5,-222.69 499.87,-209.94 516.93,-200.22"/>
<polygon fill="#63b8ff" stroke="#63b8ff" points="518.83,-203.16 525.79,-195.17 515.36,-197.08 518.83,-203.16"/>
</g>
<!-- Node23 -->
<g id="node23" class="node">
<title>Node23</title>
<g id="a_node23"><a xlink:href="../../d2/d49/global_8h.html" target="_top" xlink:title="This file contains definitions for utility functions and text for modules, inputfiles,...">
<polygon fill="white" stroke="#666666" points="298,-195 188,-195 188,-176 298,-176 298,-195"/>
<text text-anchor="middle" x="243" y="-183" font-family="Helvetica,sans-Serif" font-size="10.00">cantera/base/global.h</text>
</a>
</g>
</g>
<!-- Node1&#45;&gt;Node23 -->
<g id="edge25" class="edge">
<title>Node1&#45;&gt;Node23</title>
<path fill="none" stroke="#63b8ff" d="M415.06,-230.98C380.05,-221.93 324.53,-207.58 286.07,-197.64"/>
<polygon fill="#63b8ff" stroke="#63b8ff" points="286.75,-194.2 276.19,-195.08 285,-200.97 286.75,-194.2"/>
</g>
<!-- Node24 -->
<g id="node24" class="node">
<title>Node24</title>
<g id="a_node24"><a xlink:title=" ">
<polygon fill="#e0e0e0" stroke="#999999" points="647,-195 595,-195 595,-176 647,-176 647,-195"/>
<text text-anchor="middle" x="621" y="-183" font-family="Helvetica,sans-Serif" font-size="10.00">sstream</text>
</a>
</g>
</g>
<!-- Node1&#45;&gt;Node24 -->
<g id="edge28" class="edge">
<title>Node1&#45;&gt;Node24</title>
<path fill="none" stroke="#63b8ff" d="M475.8,-230.98C505.57,-221.86 552.92,-207.36 585.4,-197.41"/>
<polygon fill="#63b8ff" stroke="#63b8ff" points="586.44,-200.75 594.97,-194.47 584.38,-194.06 586.44,-200.75"/>
</g>
<!-- Node3 -->
<g id="node3" class="node">
<title>Node3</title>
<g id="a_node3"><a xlink:href="../../d9/ddc/ct__defs_8h.html" target="_top" xlink:title="This file contains definitions of constants, types and terms that are used in internal routines and a...">
<polygon fill="white" stroke="#666666" points="352.5,-74 295.5,-74 295.5,-55 352.5,-55 352.5,-74"/>
<text text-anchor="middle" x="324" y="-62" font-family="Helvetica,sans-Serif" font-size="10.00">ct_defs.h</text>
</a>
</g>
</g>
<!-- Node2&#45;&gt;Node3 -->
<g id="edge2" class="edge">
<title>Node2&#45;&gt;Node3</title>
<path fill="none" stroke="#63b8ff" d="M376.67,-175.77C368.15,-167.34 355.73,-153.84 348,-140 338.09,-122.24 331.56,-99.78 327.85,-84.19"/>
<polygon fill="#63b8ff" stroke="#63b8ff" points="331.22,-83.22 325.64,-74.21 324.39,-84.74 331.22,-83.22"/>
</g>
<!-- Node14 -->
<g id="node14" class="node">
<title>Node14</title>
<g id="a_node14"><a xlink:href="../../db/def/fmt_8h.html" target="_top" xlink:title="Wrapper for either system&#45;installed or local headers for fmt.">
<polygon fill="white" stroke="#666666" points="262,-134.5 164,-134.5 164,-115.5 262,-115.5 262,-134.5"/>
<text text-anchor="middle" x="213" y="-122.5" font-family="Helvetica,sans-Serif" font-size="10.00">cantera/base/fmt.h</text>
</a>
</g>
</g>
<!-- Node2&#45;&gt;Node14 -->
<g id="edge13" class="edge">
<title>Node2&#45;&gt;Node14</title>
<path fill="none" stroke="#63b8ff" d="M360.84,-175.99C331.12,-165.94 281.48,-149.16 248.01,-137.84"/>
<polygon fill="#63b8ff" stroke="#63b8ff" points="248.78,-134.4 238.19,-134.52 246.54,-141.04 248.78,-134.4"/>
</g>
<!-- Node17 -->
<g id="node17" class="node">
<title>Node17</title>
<g id="a_node17"><a xlink:title=" ">
<polygon fill="#e0e0e0" stroke="#999999" points="415.5,-134.5 356.5,-134.5 356.5,-115.5 415.5,-115.5 415.5,-134.5"/>
<text text-anchor="middle" x="386" y="-122.5" font-family="Helvetica,sans-Serif" font-size="10.00">exception</text>
</a>
</g>
</g>
<!-- Node2&#45;&gt;Node17 -->
<g id="edge17" class="edge">
<title>Node2&#45;&gt;Node17</title>
<path fill="none" stroke="#63b8ff" d="M386,-175.87C386,-167.75 386,-155.31 386,-144.89"/>
<polygon fill="#63b8ff" stroke="#63b8ff" points="389.5,-144.67 386,-134.67 382.5,-144.67 389.5,-144.67"/>
</g>
<!-- Node4 -->
<g id="node4" class="node">
<title>Node4</title>
<g id="a_node4"><a xlink:href="../../db/d16/config_8h_source.html" target="_top" xlink:title=" ">
<polygon fill="white" stroke="#666666" points="622.5,-19 571.5,-19 571.5,0 622.5,0 622.5,-19"/>
<text text-anchor="middle" x="597" y="-7" font-family="Helvetica,sans-Serif" font-size="10.00">config.h</text>
</a>
</g>
</g>
<!-- Node3&#45;&gt;Node4 -->
<g id="edge3" class="edge">
<title>Node3&#45;&gt;Node4</title>
<path fill="none" stroke="#63b8ff" d="M352.81,-58.72C396.07,-51.41 480.59,-36.66 561.57,-19.21"/>
<polygon fill="#63b8ff" stroke="#63b8ff" points="562.39,-22.62 571.42,-17.07 560.9,-15.77 562.39,-22.62"/>
</g>
<!-- Node5 -->
<g id="node5" class="node">
<title>Node5</title>
<g id="a_node5"><a xlink:title=" ">
<polygon fill="#e0e0e0" stroke="#999999" points="490,-19 446,-19 446,0 490,0 490,-19"/>
<text text-anchor="middle" x="468" y="-7" font-family="Helvetica,sans-Serif" font-size="10.00">cmath</text>
</a>
</g>
</g>
<!-- Node3&#45;&gt;Node5 -->
<g id="edge4" class="edge">
<title>Node3&#45;&gt;Node5</title>
<path fill="none" stroke="#63b8ff" d="M347.14,-54.98C371.25,-46.11 409.2,-32.14 436.13,-22.23"/>
<polygon fill="#63b8ff" stroke="#63b8ff" points="437.69,-25.38 445.87,-18.65 435.27,-18.82 437.69,-25.38"/>
</g>
<!-- Node6 -->
<g id="node6" class="node">
<title>Node6</title>
<g id="a_node6"><a xlink:title=" ">
<polygon fill="#e0e0e0" stroke="#999999" points="553.5,-19 508.5,-19 508.5,0 553.5,0 553.5,-19"/>
<text text-anchor="middle" x="531" y="-7" font-family="Helvetica,sans-Serif" font-size="10.00">cstdlib</text>
</a>
</g>
</g>
<!-- Node3&#45;&gt;Node6 -->
<g id="edge5" class="edge">
<title>Node3&#45;&gt;Node6</title>
<path fill="none" stroke="#63b8ff" d="M352.52,-56.35C385.28,-48.11 440.91,-34.05 498.31,-19.16"/>
<polygon fill="#63b8ff" stroke="#63b8ff" points="499.48,-22.47 508.28,-16.57 497.72,-15.69 499.48,-22.47"/>
</g>
<!-- Node7 -->
<g id="node7" class="node">
<title>Node7</title>
<g id="a_node7"><a xlink:title=" ">
<polygon fill="#e0e0e0" stroke="#999999" points="44,-19 0,-19 0,0 44,0 44,-19"/>
<text text-anchor="middle" x="22" y="-7" font-family="Helvetica,sans-Serif" font-size="10.00">vector</text>
</a>
</g>
</g>
<!-- Node3&#45;&gt;Node7 -->
<g id="edge6" class="edge">
<title>Node3&#45;&gt;Node7</title>
<path fill="none" stroke="#63b8ff" d="M295.36,-56.7C292.54,-56.1 289.72,-55.52 287,-55 186.78,-35.81 157.66,-40.62 54.19,-19.04"/>
<polygon fill="#63b8ff" stroke="#63b8ff" points="54.78,-15.59 44.28,-16.94 53.33,-22.43 54.78,-15.59"/>
</g>
<!-- Node8 -->
<g id="node8" class="node">
<title>Node8</title>
<g id="a_node8"><a xlink:title=" ">
<polygon fill="#e0e0e0" stroke="#999999" points="97.5,-19 62.5,-19 62.5,0 97.5,0 97.5,-19"/>
<text text-anchor="middle" x="80" y="-7" font-family="Helvetica,sans-Serif" font-size="10.00">map</text>
</a>
</g>
</g>
<!-- Node3&#45;&gt;Node8 -->
<g id="edge7" class="edge">
<title>Node3&#45;&gt;Node8</title>
<path fill="none" stroke="#63b8ff" d="M295.33,-56.83C292.52,-56.2 289.71,-55.58 287,-55 210.35,-38.53 187.77,-39.2 107.7,-18.93"/>
<polygon fill="#63b8ff" stroke="#63b8ff" points="108.2,-15.45 97.64,-16.35 106.46,-22.23 108.2,-15.45"/>
</g>
<!-- Node9 -->
<g id="node9" class="node">
<title>Node9</title>
<g id="a_node9"><a xlink:title=" ">
<polygon fill="#e0e0e0" stroke="#999999" points="146,-19 116,-19 116,0 146,0 146,-19"/>
<text text-anchor="middle" x="131" y="-7" font-family="Helvetica,sans-Serif" font-size="10.00">set</text>
</a>
</g>
</g>
<!-- Node3&#45;&gt;Node9 -->
<g id="edge8" class="edge">
<title>Node3&#45;&gt;Node9</title>
<path fill="none" stroke="#63b8ff" d="M295.39,-56.73C263.53,-49.03 210.32,-35.68 155.97,-19.11"/>
<polygon fill="#63b8ff" stroke="#63b8ff" points="156.76,-15.69 146.17,-16.09 154.7,-22.38 156.76,-15.69"/>
</g>
<!-- Node10 -->
<g id="node10" class="node">
<title>Node10</title>
<g id="a_node10"><a xlink:title=" ">
<polygon fill="#e0e0e0" stroke="#999999" points="205.5,-19 164.5,-19 164.5,0 205.5,0 205.5,-19"/>
<text text-anchor="middle" x="185" y="-7" font-family="Helvetica,sans-Serif" font-size="10.00">string</text>
</a>
</g>
</g>
<!-- Node3&#45;&gt;Node10 -->
<g id="edge9" class="edge">
<title>Node3&#45;&gt;Node10</title>
<path fill="none" stroke="#63b8ff" d="M301.67,-54.98C278.26,-46.06 241.33,-31.98 215.3,-22.05"/>
<polygon fill="#63b8ff" stroke="#63b8ff" points="216.5,-18.77 205.91,-18.47 214.01,-25.31 216.5,-18.77"/>
</g>
<!-- Node11 -->
<g id="node11" class="node">
<title>Node11</title>
<g id="a_node11"><a xlink:title=" ">
<polygon fill="#e0e0e0" stroke="#999999" points="280,-19 224,-19 224,0 280,0 280,-19"/>
<text text-anchor="middle" x="252" y="-7" font-family="Helvetica,sans-Serif" font-size="10.00">algorithm</text>
</a>
</g>
</g>
<!-- Node3&#45;&gt;Node11 -->
<g id="edge10" class="edge">
<title>Node3&#45;&gt;Node11</title>
<path fill="none" stroke="#63b8ff" d="M312.43,-54.98C301.58,-47 285.12,-34.88 272.12,-25.31"/>
<polygon fill="#63b8ff" stroke="#63b8ff" points="273.91,-22.28 263.78,-19.17 269.76,-27.92 273.91,-22.28"/>
</g>
<!-- Node12 -->
<g id="node12" class="node">
<title>Node12</title>
<g id="a_node12"><a xlink:title=" ">
<polygon fill="#e0e0e0" stroke="#999999" points="350,-19 298,-19 298,0 350,0 350,-19"/>
<text text-anchor="middle" x="324" y="-7" font-family="Helvetica,sans-Serif" font-size="10.00">memory</text>
</a>
</g>
</g>
<!-- Node3&#45;&gt;Node12 -->
<g id="edge11" class="edge">
<title>Node3&#45;&gt;Node12</title>
<path fill="none" stroke="#63b8ff" d="M324,-54.75C324,-47.8 324,-37.85 324,-29.13"/>
<polygon fill="#63b8ff" stroke="#63b8ff" points="327.5,-29.09 324,-19.09 320.5,-29.09 327.5,-29.09"/>
</g>
<!-- Node13 -->
<g id="node13" class="node">
<title>Node13</title>
<g id="a_node13"><a xlink:title=" ">
<polygon fill="#e0e0e0" stroke="#999999" points="427.5,-19 368.5,-19 368.5,0 427.5,0 427.5,-19"/>
<text text-anchor="middle" x="398" y="-7" font-family="Helvetica,sans-Serif" font-size="10.00">functional</text>
</a>
</g>
</g>
<!-- Node3&#45;&gt;Node13 -->
<g id="edge12" class="edge">
<title>Node3&#45;&gt;Node13</title>
<path fill="none" stroke="#63b8ff" d="M335.89,-54.98C347.15,-46.92 364.29,-34.65 377.71,-25.03"/>
<polygon fill="#63b8ff" stroke="#63b8ff" points="379.8,-27.84 385.89,-19.17 375.73,-22.15 379.8,-27.84"/>
</g>
<!-- Node14&#45;&gt;Node3 -->
<g id="edge14" class="edge">
<title>Node14&#45;&gt;Node3</title>
<path fill="none" stroke="#63b8ff" d="M229.38,-115.37C247.58,-105.78 277.2,-90.17 298.45,-78.97"/>
<polygon fill="#63b8ff" stroke="#63b8ff" points="300.34,-81.93 307.55,-74.17 297.08,-75.73 300.34,-81.93"/>
</g>
<!-- Node15 -->
<g id="node15" class="node">
<title>Node15</title>
<g id="a_node15"><a xlink:title=" ">
<polygon fill="#e0e0e0" stroke="#999999" points="130,-74 8,-74 8,-55 130,-55 130,-74"/>
<text text-anchor="middle" x="69" y="-62" font-family="Helvetica,sans-Serif" font-size="10.00">cantera/ext/fmt/format.h</text>
</a>
</g>
</g>
<!-- Node14&#45;&gt;Node15 -->
<g id="edge15" class="edge">
<title>Node14&#45;&gt;Node15</title>
<path fill="none" stroke="#63b8ff" d="M192.06,-115.49C167.64,-105.57 127.07,-89.09 99.23,-77.78"/>
<polygon fill="#63b8ff" stroke="#63b8ff" points="100.55,-74.54 89.96,-74.02 97.91,-81.02 100.55,-74.54"/>
</g>
<!-- Node16 -->
<g id="node16" class="node">
<title>Node16</title>
<g id="a_node16"><a xlink:title=" ">
<polygon fill="#e0e0e0" stroke="#999999" points="277.5,-74 148.5,-74 148.5,-55 277.5,-55 277.5,-74"/>
<text text-anchor="middle" x="213" y="-62" font-family="Helvetica,sans-Serif" font-size="10.00">cantera/ext/fmt/ostream.h</text>
</a>
</g>
</g>
<!-- Node14&#45;&gt;Node16 -->
<g id="edge16" class="edge">
<title>Node14&#45;&gt;Node16</title>
<path fill="none" stroke="#63b8ff" d="M213,-115.37C213,-107.25 213,-94.81 213,-84.39"/>
<polygon fill="#63b8ff" stroke="#63b8ff" points="216.5,-84.17 213,-74.17 209.5,-84.17 216.5,-84.17"/>
</g>
<!-- Node18&#45;&gt;Node4 -->
<g id="edge19" class="edge">
<title>Node18&#45;&gt;Node4</title>
<path fill="none" stroke="#63b8ff" d="M543.85,-175.63C552.58,-148.52 579.04,-66.32 591,-29.13"/>
<polygon fill="#63b8ff" stroke="#63b8ff" points="594.49,-29.73 594.22,-19.14 587.82,-27.59 594.49,-29.73"/>
</g>
<!-- Node19 -->
<g id="node19" class="node">
<title>Node19</title>
<g id="a_node19"><a xlink:href="../../d1/d8c/logger_8h.html" target="_top" xlink:title="Header for Base class for &#39;loggers&#39; that write text messages to log files (see Writing messages to th...">
<polygon fill="white" stroke="#666666" points="544,-134.5 434,-134.5 434,-115.5 544,-115.5 544,-134.5"/>
<text text-anchor="middle" x="489" y="-122.5" font-family="Helvetica,sans-Serif" font-size="10.00">cantera/base/logger.h</text>
</a>
</g>
</g>
<!-- Node18&#45;&gt;Node19 -->
<g id="edge20" class="edge">
<title>Node18&#45;&gt;Node19</title>
<path fill="none" stroke="#63b8ff" d="M533.33,-175.87C525.49,-167.05 513.14,-153.16 503.46,-142.27"/>
<polygon fill="#63b8ff" stroke="#63b8ff" points="505.96,-139.82 496.7,-134.67 500.73,-144.47 505.96,-139.82"/>
</g>
<!-- Node21 -->
<g id="node21" class="node">
<title>Node21</title>
<g id="a_node21"><a xlink:title=" ">
<polygon fill="#e0e0e0" stroke="#999999" points="710,-140 600,-140 600,-110 710,-110 710,-140"/>
<text text-anchor="start" x="608" y="-128" font-family="Helvetica,sans-Serif" font-size="10.00">boost/algorithm/string</text>
<text text-anchor="middle" x="655" y="-117" font-family="Helvetica,sans-Serif" font-size="10.00">/join.hpp</text>
</a>
</g>
</g>
<!-- Node18&#45;&gt;Node21 -->
<g id="edge23" class="edge">
<title>Node18&#45;&gt;Node21</title>
<path fill="none" stroke="#63b8ff" d="M557.82,-175.87C573.72,-167.71 598.1,-155.2 618.47,-144.75"/>
<polygon fill="#63b8ff" stroke="#63b8ff" points="620.2,-147.79 627.49,-140.11 617,-141.57 620.2,-147.79"/>
</g>
<!-- Node22 -->
<g id="node22" class="node">
<title>Node22</title>
<g id="a_node22"><a xlink:title=" ">
<polygon fill="#e0e0e0" stroke="#999999" points="772,-134.5 728,-134.5 728,-115.5 772,-115.5 772,-134.5"/>
<text text-anchor="middle" x="750" y="-122.5" font-family="Helvetica,sans-Serif" font-size="10.00">thread</text>
</a>
</g>
</g>
<!-- Node18&#45;&gt;Node22 -->
<g id="edge24" class="edge">
<title>Node18&#45;&gt;Node22</title>
<path fill="none" stroke="#63b8ff" d="M576.67,-177.55C613,-170.02 670.71,-156.79 719,-140 720.39,-139.52 721.81,-138.99 723.24,-138.44"/>
<polygon fill="#63b8ff" stroke="#63b8ff" points="724.65,-141.65 732.52,-134.55 721.94,-135.19 724.65,-141.65"/>
</g>
<!-- Node19&#45;&gt;Node3 -->
<g id="edge21" class="edge">
<title>Node19&#45;&gt;Node3</title>
<path fill="none" stroke="#63b8ff" d="M465.01,-115.49C436.78,-105.49 389.72,-88.8 357.81,-77.49"/>
<polygon fill="#63b8ff" stroke="#63b8ff" points="358.62,-74.06 348.02,-74.02 356.28,-80.66 358.62,-74.06"/>
</g>
<!-- Node20 -->
<g id="node20" class="node">
<title>Node20</title>
<g id="a_node20"><a xlink:title=" ">
<polygon fill="#e0e0e0" stroke="#999999" points="516,-74 462,-74 462,-55 516,-55 516,-74"/>
<text text-anchor="middle" x="489" y="-62" font-family="Helvetica,sans-Serif" font-size="10.00">iostream</text>
</a>
</g>
</g>
<!-- Node19&#45;&gt;Node20 -->
<g id="edge22" class="edge">
<title>Node19&#45;&gt;Node20</title>
<path fill="none" stroke="#63b8ff" d="M489,-115.37C489,-107.25 489,-94.81 489,-84.39"/>
<polygon fill="#63b8ff" stroke="#63b8ff" points="492.5,-84.17 489,-74.17 485.5,-84.17 492.5,-84.17"/>
</g>
<!-- Node23&#45;&gt;Node3 -->
<g id="edge26" class="edge">
<title>Node23&#45;&gt;Node3</title>
<path fill="none" stroke="#63b8ff" d="M248.83,-175.94C262.07,-156.48 294.66,-108.6 312.26,-82.74"/>
<polygon fill="#63b8ff" stroke="#63b8ff" points="315.28,-84.54 318.01,-74.3 309.49,-80.6 315.28,-84.54"/>
</g>
<!-- Node23&#45;&gt;Node14 -->
<g id="edge27" class="edge">
<title>Node23&#45;&gt;Node14</title>
<path fill="none" stroke="#63b8ff" d="M238.57,-175.87C234.23,-167.4 227.48,-154.24 222.01,-143.57"/>
<polygon fill="#63b8ff" stroke="#63b8ff" points="225.12,-141.97 217.44,-134.67 218.89,-145.16 225.12,-141.97"/>
</g>
</g>
</svg>
