<?xml version="1.0" encoding="UTF-8" standalone="no"?>
<!DOCTYPE svg PUBLIC "-//W3C//DTD SVG 1.1//EN"
 "http://www.w3.org/Graphics/SVG/1.1/DTD/svg11.dtd">
<!-- Generated by graphviz version 6.0.1 (0)
 -->
<!-- Title: Interface.cpp Pages: 1 -->
<svg width="1212pt" height="489pt"
 viewBox="0.00 0.00 1212.00 489.00" xmlns="http://www.w3.org/2000/svg" xmlns:xlink="http://www.w3.org/1999/xlink">
<g id="graph0" class="graph" transform="scale(1 1) rotate(0) translate(4 485)">
<title>Interface.cpp</title>
<!-- Node1 -->
<g id="Node000001" class="node">
<title>Node1</title>
<g id="a_Node000001"><a xlink:title=" ">
<polygon fill="#999999" stroke="#666666" points="812.5,-481 738.5,-481 738.5,-462 812.5,-462 812.5,-481"/>
<text text-anchor="middle" x="775.5" y="-469" font-family="Helvetica,sans-Serif" font-size="10.00">Interface.cpp</text>
</a>
</g>
</g>
<!-- Node2 -->
<g id="Node000002" class="node">
<title>Node2</title>
<g id="a_Node000002"><a xlink:href="../../d7/d91/Interface_8h.html" target="_top" xlink:title=" ">
<polygon fill="white" stroke="#666666" points="661.5,-426 539.5,-426 539.5,-407 661.5,-407 661.5,-426"/>
<text text-anchor="middle" x="600.5" y="-414" font-family="Helvetica,sans-Serif" font-size="10.00">cantera/base/Interface.h</text>
</a>
</g>
</g>
<!-- Node1&#45;&gt;Node2 -->
<g id="edge1_Node000001_Node000002" class="edge">
<title>Node1&#45;&gt;Node2</title>
<g id="a_edge1_Node000001_Node000002"><a xlink:title=" ">
<path fill="none" stroke="#63b8ff" d="M747.38,-461.98C717.88,-453.05 671.31,-438.94 638.53,-429.02"/>
<polygon fill="#63b8ff" stroke="#63b8ff" points="639.42,-425.63 628.84,-426.08 637.39,-432.33 639.42,-425.63"/>
</a>
</g>
</g>
<!-- Node46 -->
<g id="Node000046" class="node">
<title>Node46</title>
<g id="a_Node000046"><a xlink:href="../../dc/d8e/ThermoFactory_8h.html" target="_top" xlink:title="Headers for the factory class that can create known ThermoPhase objects (see Thermodynamic Properties...">
<polygon fill="white" stroke="#666666" points="854.5,-299.5 696.5,-299.5 696.5,-280.5 854.5,-280.5 854.5,-299.5"/>
<text text-anchor="middle" x="775.5" y="-287.5" font-family="Helvetica,sans-Serif" font-size="10.00">cantera/thermo/ThermoFactory.h</text>
</a>
</g>
</g>
<!-- Node1&#45;&gt;Node46 -->
<g id="edge45_Node000001_Node000046" class="edge">
<title>Node1&#45;&gt;Node46</title>
<g id="a_edge45_Node000001_Node000046"><a xlink:title=" ">
<path fill="none" stroke="#63b8ff" d="M775.5,-461.84C775.5,-434.3 775.5,-348.26 775.5,-309.84"/>
<polygon fill="#63b8ff" stroke="#63b8ff" points="779,-309.57 775.5,-299.57 772,-309.57 779,-309.57"/>
</a>
</g>
</g>
<!-- Node49 -->
<g id="Node000049" class="node">
<title>Node49</title>
<g id="a_Node000049"><a xlink:href="../../df/d76/KineticsFactory_8h.html" target="_top" xlink:title=" ">
<polygon fill="white" stroke="#666666" points="996.5,-305 872.5,-305 872.5,-275 996.5,-275 996.5,-305"/>
<text text-anchor="start" x="880.5" y="-293" font-family="Helvetica,sans-Serif" font-size="10.00">cantera/kinetics/Kinetics</text>
<text text-anchor="middle" x="934.5" y="-282" font-family="Helvetica,sans-Serif" font-size="10.00">Factory.h</text>
</a>
</g>
</g>
<!-- Node1&#45;&gt;Node49 -->
<g id="edge52_Node000001_Node000049" class="edge">
<title>Node1&#45;&gt;Node49</title>
<g id="a_edge52_Node000001_Node000049"><a xlink:title=" ">
<path fill="none" stroke="#63b8ff" d="M783.17,-461.84C806.96,-434.98 880.04,-352.48 915.2,-312.78"/>
<polygon fill="#63b8ff" stroke="#63b8ff" points="917.89,-315.03 921.9,-305.22 912.65,-310.39 917.89,-315.03"/>
</a>
</g>
</g>
<!-- Node3 -->
<g id="Node000003" class="node">
<title>Node3</title>
<g id="a_Node000003"><a xlink:href="../../d4/dfa/Solution_8h.html" target="_top" xlink:title=" ">
<polygon fill="white" stroke="#666666" points="492,-239 373,-239 373,-220 492,-220 492,-239"/>
<text text-anchor="middle" x="432.5" y="-227" font-family="Helvetica,sans-Serif" font-size="10.00">cantera/base/Solution.h</text>
</a>
</g>
</g>
<!-- Node2&#45;&gt;Node3 -->
<g id="edge2_Node000002_Node000003" class="edge">
<title>Node2&#45;&gt;Node3</title>
<g id="a_edge2_Node000002_Node000003"><a xlink:title=" ">
<path fill="none" stroke="#63b8ff" d="M539.21,-412.15C508.74,-407.18 473.93,-395.92 452.5,-371 422.87,-336.53 425.56,-278.76 429.37,-249.19"/>
<polygon fill="#63b8ff" stroke="#63b8ff" points="432.88,-249.42 430.88,-239.02 425.95,-248.4 432.88,-249.42"/>
</a>
</g>
</g>
<!-- Node27 -->
<g id="Node000027" class="node">
<title>Node27</title>
<g id="a_Node000027"><a xlink:href="../../d2/de5/SurfPhase_8h.html" target="_top" xlink:title="Header for a simple thermodynamics model of a surface phase derived from ThermoPhase,...">
<polygon fill="white" stroke="#666666" points="745,-365.5 606,-365.5 606,-346.5 745,-346.5 745,-365.5"/>
<text text-anchor="middle" x="675.5" y="-353.5" font-family="Helvetica,sans-Serif" font-size="10.00">cantera/thermo/SurfPhase.h</text>
</a>
</g>
</g>
<!-- Node2&#45;&gt;Node27 -->
<g id="edge18_Node000002_Node000027" class="edge">
<title>Node2&#45;&gt;Node27</title>
<g id="a_edge18_Node000002_Node000027"><a xlink:title=" ">
<path fill="none" stroke="#63b8ff" d="M611.57,-406.87C623.31,-397.71 642.09,-383.06 656.26,-372.01"/>
<polygon fill="#63b8ff" stroke="#63b8ff" points="658.66,-374.58 664.39,-365.67 654.35,-369.06 658.66,-374.58"/>
</a>
</g>
</g>
<!-- Node35 -->
<g id="Node000035" class="node">
<title>Node35</title>
<g id="a_Node000035"><a xlink:href="../../d7/d0d/InterfaceKinetics_8h.html" target="_top" xlink:title=" ">
<polygon fill="white" stroke="#666666" points="588,-371 461,-371 461,-341 588,-341 588,-371"/>
<text text-anchor="start" x="469" y="-359" font-family="Helvetica,sans-Serif" font-size="10.00">cantera/kinetics/Interface</text>
<text text-anchor="middle" x="524.5" y="-348" font-family="Helvetica,sans-Serif" font-size="10.00">Kinetics.h</text>
</a>
</g>
</g>
<!-- Node2&#45;&gt;Node35 -->
<g id="edge27_Node000002_Node000035" class="edge">
<title>Node2&#45;&gt;Node35</title>
<g id="a_edge27_Node000002_Node000035"><a xlink:title=" ">
<path fill="none" stroke="#63b8ff" d="M589.29,-406.87C579.26,-399.15 564.17,-387.54 551.08,-377.46"/>
<polygon fill="#63b8ff" stroke="#63b8ff" points="552.9,-374.44 542.84,-371.11 548.63,-379.99 552.9,-374.44"/>
</a>
</g>
</g>
<!-- Node4 -->
<g id="Node000004" class="node">
<title>Node4</title>
<g id="a_Node000004"><a xlink:href="../../db/d98/ctexceptions_8h.html" target="_top" xlink:title="Definitions for the classes that are thrown when Cantera experiences an error condition (also contain...">
<polygon fill="white" stroke="#666666" points="858.5,-129 718.5,-129 718.5,-110 858.5,-110 858.5,-129"/>
<text text-anchor="middle" x="788.5" y="-117" font-family="Helvetica,sans-Serif" font-size="10.00">cantera/base/ctexceptions.h</text>
</a>
</g>
</g>
<!-- Node3&#45;&gt;Node4 -->
<g id="edge3_Node000003_Node000004" class="edge">
<title>Node3&#45;&gt;Node4</title>
<g id="a_edge3_Node000003_Node000004"><a xlink:title=" ">
<path fill="none" stroke="#63b8ff" d="M455,-219.95C489.17,-207.13 556.35,-182.55 614.5,-165 657.02,-152.17 706.09,-139.84 741.26,-131.43"/>
<polygon fill="#63b8ff" stroke="#63b8ff" points="742.33,-134.77 751.25,-129.05 740.71,-127.96 742.33,-134.77"/>
</a>
</g>
</g>
<!-- Node21 -->
<g id="Node000021" class="node">
<title>Node21</title>
<g id="a_Node000021"><a xlink:href="../../dd/d2a/AnyMap_8h.html" target="_top" xlink:title=" ">
<polygon fill="white" stroke="#666666" points="491.5,-184 371.5,-184 371.5,-165 491.5,-165 491.5,-184"/>
<text text-anchor="middle" x="431.5" y="-172" font-family="Helvetica,sans-Serif" font-size="10.00">cantera/base/AnyMap.h</text>
</a>
</g>
</g>
<!-- Node3&#45;&gt;Node21 -->
<g id="edge8_Node000003_Node000021" class="edge">
<title>Node3&#45;&gt;Node21</title>
<g id="a_edge8_Node000003_Node000021"><a xlink:title=" ">
<path fill="none" stroke="#63b8ff" d="M432.33,-219.75C432.2,-212.8 432.02,-202.85 431.85,-194.13"/>
<polygon fill="#63b8ff" stroke="#63b8ff" points="435.35,-194.02 431.66,-184.09 428.35,-194.15 435.35,-194.02"/>
</a>
</g>
</g>
<!-- Node5 -->
<g id="Node000005" class="node">
<title>Node5</title>
<g id="a_Node000005"><a xlink:href="../../d9/ddc/ct__defs_8h.html" target="_top" xlink:title="This file contains definitions of constants, types and terms that are used in internal routines and a...">
<polygon fill="#fff0f0" stroke="red" points="427,-19 370,-19 370,0 427,0 427,-19"/>
<text text-anchor="middle" x="398.5" y="-7" font-family="Helvetica,sans-Serif" font-size="10.00">ct_defs.h</text>
</a>
</g>
</g>
<!-- Node4&#45;&gt;Node5 -->
<g id="edge4_Node000004_Node000005" class="edge">
<title>Node4&#45;&gt;Node5</title>
<g id="a_edge4_Node000004_Node000005"><a xlink:title=" ">
<path fill="none" stroke="#63b8ff" d="M757.57,-109.94C686.96,-90.38 514.07,-42.5 436.85,-21.12"/>
<polygon fill="#63b8ff" stroke="#63b8ff" points="437.61,-17.7 427.04,-18.4 435.74,-24.45 437.61,-17.7"/>
</a>
</g>
</g>
<!-- Node16 -->
<g id="Node000016" class="node">
<title>Node16</title>
<g id="a_Node000016"><a xlink:href="../../db/def/fmt_8h.html" target="_top" xlink:title="Wrapper for either system&#45;installed or local headers for fmt.">
<polygon fill="#fff0f0" stroke="red" points="853.5,-74 755.5,-74 755.5,-55 853.5,-55 853.5,-74"/>
<text text-anchor="middle" x="804.5" y="-62" font-family="Helvetica,sans-Serif" font-size="10.00">cantera/base/fmt.h</text>
</a>
</g>
</g>
<!-- Node4&#45;&gt;Node16 -->
<g id="edge5_Node000004_Node000016" class="edge">
<title>Node4&#45;&gt;Node16</title>
<g id="a_edge5_Node000004_Node000016"><a xlink:title=" ">
<path fill="none" stroke="#63b8ff" d="M791.14,-109.75C793.26,-102.72 796.31,-92.62 798.96,-83.84"/>
<polygon fill="#63b8ff" stroke="#63b8ff" points="802.37,-84.67 801.91,-74.09 795.67,-82.65 802.37,-84.67"/>
</a>
</g>
</g>
<!-- Node20 -->
<g id="Node000020" class="node">
<title>Node20</title>
<g id="a_Node000020"><a xlink:title=" ">
<polygon fill="#e0e0e0" stroke="#999999" points="737,-74 678,-74 678,-55 737,-55 737,-74"/>
<text text-anchor="middle" x="707.5" y="-62" font-family="Helvetica,sans-Serif" font-size="10.00">exception</text>
</a>
</g>
</g>
<!-- Node4&#45;&gt;Node20 -->
<g id="edge7_Node000004_Node000020" class="edge">
<title>Node4&#45;&gt;Node20</title>
<g id="a_edge7_Node000004_Node000020"><a xlink:title=" ">
<path fill="none" stroke="#63b8ff" d="M775.49,-109.98C763.04,-101.84 744.04,-89.41 729.29,-79.76"/>
<polygon fill="#63b8ff" stroke="#63b8ff" points="731.04,-76.72 720.75,-74.17 727.2,-82.57 731.04,-76.72"/>
</a>
</g>
</g>
<!-- Node16&#45;&gt;Node5 -->
<g id="edge6_Node000016_Node000005" class="edge">
<title>Node16&#45;&gt;Node5</title>
<g id="a_edge6_Node000016_Node000005"><a xlink:title=" ">
<path fill="none" stroke="#63b8ff" d="M755.46,-56.25C752.43,-55.82 749.42,-55.4 746.5,-55 634.46,-39.63 501.89,-23.15 437.5,-15.25"/>
<polygon fill="#63b8ff" stroke="#63b8ff" points="437.75,-11.75 427.4,-14.01 436.9,-18.7 437.75,-11.75"/>
</a>
</g>
</g>
<!-- Node21&#45;&gt;Node4 -->
<g id="edge10_Node000021_Node000004" class="edge">
<title>Node21&#45;&gt;Node4</title>
<g id="a_edge10_Node000021_Node000004"><a xlink:title=" ">
<path fill="none" stroke="#63b8ff" d="M488.86,-164.98C552.13,-155.59 653.86,-140.49 720.94,-130.53"/>
<polygon fill="#63b8ff" stroke="#63b8ff" points="721.61,-133.97 730.99,-129.04 720.58,-127.04 721.61,-133.97"/>
</a>
</g>
</g>
<!-- Node21&#45;&gt;Node5 -->
<g id="edge9_Node000021_Node000005" class="edge">
<title>Node21&#45;&gt;Node5</title>
<g id="a_edge9_Node000021_Node000005"><a xlink:title=" ">
<path fill="none" stroke="#63b8ff" d="M381.92,-164.98C361.15,-158.7 338.96,-147.82 326.5,-129 302.3,-92.47 348.92,-47.97 377.88,-25.31"/>
<polygon fill="#63b8ff" stroke="#63b8ff" points="380,-28.1 385.86,-19.27 375.77,-22.52 380,-28.1"/>
</a>
</g>
</g>
<!-- Node22 -->
<g id="Node000022" class="node">
<title>Node22</title>
<g id="a_Node000022"><a xlink:href="../../da/d58/Units_8h.html" target="_top" xlink:title="Header for unit conversion utilities, which are used to translate user input from input files (See In...">
<polygon fill="white" stroke="#666666" points="279,-129 172,-129 172,-110 279,-110 279,-129"/>
<text text-anchor="middle" x="225.5" y="-117" font-family="Helvetica,sans-Serif" font-size="10.00">cantera/base/Units.h</text>
</a>
</g>
</g>
<!-- Node21&#45;&gt;Node22 -->
<g id="edge11_Node000021_Node000022" class="edge">
<title>Node21&#45;&gt;Node22</title>
<g id="a_edge11_Node000021_Node000022"><a xlink:title=" ">
<path fill="none" stroke="#63b8ff" d="M398.4,-164.98C363.22,-155.93 307.43,-141.58 268.78,-131.64"/>
<polygon fill="#63b8ff" stroke="#63b8ff" points="269.41,-128.18 258.86,-129.08 267.67,-134.96 269.41,-128.18"/>
</a>
</g>
</g>
<!-- Node23 -->
<g id="Node000023" class="node">
<title>Node23</title>
<g id="a_Node000023"><a xlink:title=" ">
<polygon fill="#e0e0e0" stroke="#999999" points="700,-129 617,-129 617,-110 700,-110 700,-129"/>
<text text-anchor="middle" x="658.5" y="-117" font-family="Helvetica,sans-Serif" font-size="10.00">unordered_map</text>
</a>
</g>
</g>
<!-- Node21&#45;&gt;Node23 -->
<g id="edge13_Node000021_Node000023" class="edge">
<title>Node21&#45;&gt;Node23</title>
<g id="a_edge13_Node000021_Node000023"><a xlink:title=" ">
<path fill="none" stroke="#63b8ff" d="M467.97,-164.98C507.07,-155.86 569.27,-141.33 611.89,-131.38"/>
<polygon fill="#63b8ff" stroke="#63b8ff" points="612.8,-134.76 621.74,-129.08 611.21,-127.95 612.8,-134.76"/>
</a>
</g>
</g>
<!-- Node24 -->
<g id="Node000024" class="node">
<title>Node24</title>
<g id="a_Node000024"><a xlink:title=" ">
<polygon fill="#e0e0e0" stroke="#999999" points="397.5,-129 335.5,-129 335.5,-110 397.5,-110 397.5,-129"/>
<text text-anchor="middle" x="366.5" y="-117" font-family="Helvetica,sans-Serif" font-size="10.00">filesystem</text>
</a>
</g>
</g>
<!-- Node21&#45;&gt;Node24 -->
<g id="edge14_Node000021_Node000024" class="edge">
<title>Node21&#45;&gt;Node24</title>
<g id="a_edge14_Node000021_Node000024"><a xlink:title=" ">
<path fill="none" stroke="#63b8ff" d="M421.06,-164.98C411.35,-157.07 396.68,-145.11 385,-135.58"/>
<polygon fill="#63b8ff" stroke="#63b8ff" points="387.1,-132.78 377.13,-129.17 382.67,-138.2 387.1,-132.78"/>
</a>
</g>
</g>
<!-- Node25 -->
<g id="Node000025" class="node">
<title>Node25</title>
<g id="a_Node000025"><a xlink:title=" ">
<polygon fill="#e0e0e0" stroke="#999999" points="447.5,-129 415.5,-129 415.5,-110 447.5,-110 447.5,-129"/>
<text text-anchor="middle" x="431.5" y="-117" font-family="Helvetica,sans-Serif" font-size="10.00">any</text>
</a>
</g>
</g>
<!-- Node21&#45;&gt;Node25 -->
<g id="edge15_Node000021_Node000025" class="edge">
<title>Node21&#45;&gt;Node25</title>
<g id="a_edge15_Node000021_Node000025"><a xlink:title=" ">
<path fill="none" stroke="#63b8ff" d="M431.5,-164.75C431.5,-157.8 431.5,-147.85 431.5,-139.13"/>
<polygon fill="#63b8ff" stroke="#63b8ff" points="435,-139.09 431.5,-129.09 428,-139.09 435,-139.09"/>
</a>
</g>
</g>
<!-- Node26 -->
<g id="Node000026" class="node">
<title>Node26</title>
<g id="a_Node000026"><a xlink:href="../../da/d4c/AnyMap_8inl_8h.html" target="_top" xlink:title=" ">
<polygon fill="white" stroke="#666666" points="599,-129 466,-129 466,-110 599,-110 599,-129"/>
<text text-anchor="middle" x="532.5" y="-117" font-family="Helvetica,sans-Serif" font-size="10.00">cantera/base/AnyMap.inl.h</text>
</a>
</g>
</g>
<!-- Node21&#45;&gt;Node26 -->
<g id="edge16_Node000021_Node000026" class="edge">
<title>Node21&#45;&gt;Node26</title>
<g id="a_edge16_Node000021_Node000026"><a xlink:title=" ">
<path fill="none" stroke="#63b8ff" d="M442.61,-164.98C456.91,-156.5 481.71,-143.35 501.73,-133.54"/>
<polygon fill="#63b8ff" stroke="#63b8ff" points="503.33,-136.66 510.83,-129.17 500.3,-130.35 503.33,-136.66"/>
</a>
</g>
</g>
<!-- Node22&#45;&gt;Node5 -->
<g id="edge12_Node000022_Node000005" class="edge">
<title>Node22&#45;&gt;Node5</title>
<g id="a_edge12_Node000022_Node000005"><a xlink:title=" ">
<path fill="none" stroke="#63b8ff" d="M233.08,-109.66C244.88,-96.35 268.85,-71.01 293.5,-55 314.71,-41.22 340.91,-30.11 361.82,-22.44"/>
<polygon fill="#63b8ff" stroke="#63b8ff" points="363.08,-25.71 371.33,-19.06 360.73,-19.11 363.08,-25.71"/>
</a>
</g>
</g>
<!-- Node26&#45;&gt;Node21 -->
<g id="edge17_Node000026_Node000021" class="edge">
<title>Node26&#45;&gt;Node21</title>
<g id="a_edge17_Node000026_Node000021"><a xlink:title=" ">
<path fill="none" stroke="#63b8ff" d="M521.13,-129.17C506.7,-137.71 481.87,-150.87 461.9,-160.63"/>
<polygon fill="#63b8ff" stroke="#63b8ff" points="460.34,-157.5 452.84,-164.98 463.37,-163.81 460.34,-157.5"/>
</a>
</g>
</g>
<!-- Node28 -->
<g id="Node000028" class="node">
<title>Node28</title>
<g id="a_Node000028"><a xlink:href="../../d7/d01/ThermoPhase_8h.html" target="_top" xlink:title="Header file for class ThermoPhase, the base class for phases with thermodynamic properties,...">
<polygon fill="white" stroke="#666666" points="717.5,-239 631.5,-239 631.5,-220 717.5,-220 717.5,-239"/>
<text text-anchor="middle" x="674.5" y="-227" font-family="Helvetica,sans-Serif" font-size="10.00">ThermoPhase.h</text>
</a>
</g>
</g>
<!-- Node27&#45;&gt;Node28 -->
<g id="edge19_Node000027_Node000028" class="edge">
<title>Node27&#45;&gt;Node28</title>
<g id="a_edge19_Node000027_Node000028"><a xlink:title=" ">
<path fill="none" stroke="#63b8ff" d="M675.43,-346.44C675.27,-326.54 674.87,-276.76 674.65,-249.35"/>
<polygon fill="#63b8ff" stroke="#63b8ff" points="678.15,-249.09 674.57,-239.12 671.15,-249.15 678.15,-249.09"/>
</a>
</g>
</g>
<!-- Node28&#45;&gt;Node21 -->
<g id="edge26_Node000028_Node000021" class="edge">
<title>Node28&#45;&gt;Node21</title>
<g id="a_edge26_Node000028_Node000021"><a xlink:title=" ">
<path fill="none" stroke="#63b8ff" d="M635.46,-219.98C593.42,-210.82 526.46,-196.21 480.82,-186.26"/>
<polygon fill="#63b8ff" stroke="#63b8ff" points="481.36,-182.79 470.85,-184.08 479.87,-189.63 481.36,-182.79"/>
</a>
</g>
</g>
<!-- Node28&#45;&gt;Node22 -->
<g id="edge25_Node000028_Node000022" class="edge">
<title>Node28&#45;&gt;Node22</title>
<g id="a_edge25_Node000028_Node000022"><a xlink:title=" ">
<path fill="none" stroke="#63b8ff" d="M631.27,-226.32C570.25,-222.36 455.89,-211.65 362.5,-184 320.86,-171.67 275.74,-148.71 249.09,-134.04"/>
<polygon fill="#63b8ff" stroke="#63b8ff" points="250.58,-130.86 240.14,-129.04 247.17,-136.97 250.58,-130.86"/>
</a>
</g>
</g>
<!-- Node29 -->
<g id="Node000029" class="node">
<title>Node29</title>
<g id="a_Node000029"><a xlink:href="../../da/d84/Phase_8h.html" target="_top" xlink:title="Header file for class Phase.">
<polygon fill="#fff0f0" stroke="red" points="967,-184 914,-184 914,-165 967,-165 967,-184"/>
<text text-anchor="middle" x="940.5" y="-172" font-family="Helvetica,sans-Serif" font-size="10.00">Phase.h</text>
</a>
</g>
</g>
<!-- Node28&#45;&gt;Node29 -->
<g id="edge20_Node000028_Node000029" class="edge">
<title>Node28&#45;&gt;Node29</title>
<g id="a_edge20_Node000028_Node000029"><a xlink:title=" ">
<path fill="none" stroke="#63b8ff" d="M717.85,-220.66C762.08,-212.53 832.96,-199.18 903.8,-184.08"/>
<polygon fill="#63b8ff" stroke="#63b8ff" points="904.75,-187.45 913.79,-181.93 903.28,-180.61 904.75,-187.45"/>
</a>
</g>
</g>
<!-- Node33 -->
<g id="Node000033" class="node">
<title>Node33</title>
<g id="a_Node000033"><a xlink:href="../../d6/d7a/MultiSpeciesThermo_8h.html" target="_top" xlink:title="Header for a general species thermodynamic property manager for a phase (see MultiSpeciesThermo).">
<polygon fill="#fff0f0" stroke="red" points="737.5,-184 623.5,-184 623.5,-165 737.5,-165 737.5,-184"/>
<text text-anchor="middle" x="680.5" y="-172" font-family="Helvetica,sans-Serif" font-size="10.00">MultiSpeciesThermo.h</text>
</a>
</g>
</g>
<!-- Node28&#45;&gt;Node33 -->
<g id="edge24_Node000028_Node000033" class="edge">
<title>Node28&#45;&gt;Node33</title>
<g id="a_edge24_Node000028_Node000033"><a xlink:title=" ">
<path fill="none" stroke="#63b8ff" d="M675.49,-219.75C676.28,-212.8 677.4,-202.85 678.39,-194.13"/>
<polygon fill="#63b8ff" stroke="#63b8ff" points="681.88,-194.42 679.53,-184.09 674.92,-193.63 681.88,-194.42"/>
</a>
</g>
</g>
<!-- Node29&#45;&gt;Node4 -->
<g id="edge21_Node000029_Node000004" class="edge">
<title>Node29&#45;&gt;Node4</title>
<g id="a_edge21_Node000029_Node000004"><a xlink:title=" ">
<path fill="none" stroke="#63b8ff" d="M916.08,-164.98C890.78,-156.16 851.05,-142.31 822.64,-132.41"/>
<polygon fill="#63b8ff" stroke="#63b8ff" points="823.71,-129.07 813.11,-129.08 821.4,-135.68 823.71,-129.07"/>
</a>
</g>
</g>
<!-- Node31 -->
<g id="Node000031" class="node">
<title>Node31</title>
<g id="a_Node000031"><a xlink:href="../../d6/df6/ValueCache_8h.html" target="_top" xlink:title=" ">
<polygon fill="#fff0f0" stroke="red" points="1204,-129 1067,-129 1067,-110 1204,-110 1204,-129"/>
<text text-anchor="middle" x="1135.5" y="-117" font-family="Helvetica,sans-Serif" font-size="10.00">cantera/base/ValueCache.h</text>
</a>
</g>
</g>
<!-- Node29&#45;&gt;Node31 -->
<g id="edge22_Node000029_Node000031" class="edge">
<title>Node29&#45;&gt;Node31</title>
<g id="a_edge22_Node000029_Node000031"><a xlink:title=" ">
<path fill="none" stroke="#63b8ff" d="M967.21,-166.24C999.95,-157.34 1055.82,-142.16 1094.13,-131.74"/>
<polygon fill="#63b8ff" stroke="#63b8ff" points="1095.23,-135.07 1103.96,-129.07 1093.39,-128.32 1095.23,-135.07"/>
</a>
</g>
</g>
<!-- Node31&#45;&gt;Node5 -->
<g id="edge23_Node000031_Node000005" class="edge">
<title>Node31&#45;&gt;Node5</title>
<g id="a_edge23_Node000031_Node000005"><a xlink:title=" ">
<path fill="none" stroke="#63b8ff" d="M1108.51,-109.99C1063.57,-96.18 970.34,-69 889.5,-55 722.69,-26.11 520.54,-15.3 437.24,-11.87"/>
<polygon fill="#63b8ff" stroke="#63b8ff" points="437.35,-8.38 427.21,-11.48 437.07,-15.37 437.35,-8.38"/>
</a>
</g>
</g>
<!-- Node36 -->
<g id="Node000036" class="node">
<title>Node36</title>
<g id="a_Node000036"><a xlink:href="../../d5/db4/Kinetics_8h.html" target="_top" xlink:title="Base class for kinetics managers and also contains the kineticsmgr module documentation (see Kinetics...">
<polygon fill="white" stroke="#666666" points="1058.5,-239 998.5,-239 998.5,-220 1058.5,-220 1058.5,-239"/>
<text text-anchor="middle" x="1028.5" y="-227" font-family="Helvetica,sans-Serif" font-size="10.00">Kinetics.h</text>
</a>
</g>
</g>
<!-- Node35&#45;&gt;Node36 -->
<g id="edge28_Node000035_Node000036" class="edge">
<title>Node35&#45;&gt;Node36</title>
<g id="a_edge28_Node000035_Node000036"><a xlink:title=" ">
<path fill="none" stroke="#63b8ff" d="M588.14,-342.4C591.3,-341.9 594.43,-341.43 597.5,-341 687.64,-328.41 934.71,-362.21 1005.5,-305 1022.08,-291.6 1026.97,-266.49 1028.27,-249.15"/>
<polygon fill="#63b8ff" stroke="#63b8ff" points="1031.77,-249.22 1028.7,-239.08 1024.78,-248.92 1031.77,-249.22"/>
</a>
</g>
</g>
<!-- Node40 -->
<g id="Node000040" class="node">
<title>Node40</title>
<g id="a_Node000040"><a xlink:href="../../d6/d42/MultiRate_8h.html" target="_top" xlink:title=" ">
<polygon fill="white" stroke="#666666" points="306,-299.5 239,-299.5 239,-280.5 306,-280.5 306,-299.5"/>
<text text-anchor="middle" x="272.5" y="-287.5" font-family="Helvetica,sans-Serif" font-size="10.00">MultiRate.h</text>
</a>
</g>
</g>
<!-- Node35&#45;&gt;Node40 -->
<g id="edge32_Node000035_Node000040" class="edge">
<title>Node35&#45;&gt;Node40</title>
<g id="a_edge32_Node000035_Node000040"><a xlink:title=" ">
<path fill="none" stroke="#63b8ff" d="M469.2,-340.95C423.06,-329.24 358.21,-312.77 315.79,-301.99"/>
<polygon fill="#63b8ff" stroke="#63b8ff" points="316.59,-298.59 306.04,-299.52 314.87,-305.37 316.59,-298.59"/>
</a>
</g>
</g>
<!-- Node36&#45;&gt;Node31 -->
<g id="edge31_Node000036_Node000031" class="edge">
<title>Node36&#45;&gt;Node31</title>
<g id="a_edge31_Node000036_Node000031"><a xlink:title=" ">
<path fill="none" stroke="#63b8ff" d="M1040.46,-219.94C1052.01,-211.43 1069.74,-197.68 1083.5,-184 1098.28,-169.31 1113.14,-150.68 1123.17,-137.4"/>
<polygon fill="#63b8ff" stroke="#63b8ff" points="1126.12,-139.3 1129.28,-129.19 1120.51,-135.12 1126.12,-139.3"/>
</a>
</g>
</g>
<!-- Node37 -->
<g id="Node000037" class="node">
<title>Node37</title>
<g id="a_Node000037"><a xlink:href="../../dd/dfd/StoichManager_8h.html" target="_top" xlink:title=" ">
<polygon fill="#fff0f0" stroke="red" points="1074,-184 985,-184 985,-165 1074,-165 1074,-184"/>
<text text-anchor="middle" x="1029.5" y="-172" font-family="Helvetica,sans-Serif" font-size="10.00">StoichManager.h</text>
</a>
</g>
</g>
<!-- Node36&#45;&gt;Node37 -->
<g id="edge29_Node000036_Node000037" class="edge">
<title>Node36&#45;&gt;Node37</title>
<g id="a_edge29_Node000036_Node000037"><a xlink:title=" ">
<path fill="none" stroke="#63b8ff" d="M1028.67,-219.75C1028.8,-212.8 1028.98,-202.85 1029.15,-194.13"/>
<polygon fill="#63b8ff" stroke="#63b8ff" points="1032.65,-194.15 1029.34,-184.09 1025.65,-194.02 1032.65,-194.15"/>
</a>
</g>
</g>
<!-- Node37&#45;&gt;Node4 -->
<g id="edge30_Node000037_Node000004" class="edge">
<title>Node37&#45;&gt;Node4</title>
<g id="a_edge30_Node000037_Node000004"><a xlink:title=" ">
<path fill="none" stroke="#63b8ff" d="M990.78,-164.98C949.09,-155.82 882.68,-141.21 837.41,-131.26"/>
<polygon fill="#63b8ff" stroke="#63b8ff" points="838.04,-127.81 827.52,-129.08 836.54,-134.65 838.04,-127.81"/>
</a>
</g>
</g>
<!-- Node41 -->
<g id="Node000041" class="node">
<title>Node41</title>
<g id="a_Node000041"><a xlink:href="../../d8/db0/ReactionRate_8h.html" target="_top" xlink:title=" ">
<polygon fill="white" stroke="#666666" points="351,-239 266,-239 266,-220 351,-220 351,-239"/>
<text text-anchor="middle" x="308.5" y="-227" font-family="Helvetica,sans-Serif" font-size="10.00">ReactionRate.h</text>
</a>
</g>
</g>
<!-- Node40&#45;&gt;Node41 -->
<g id="edge33_Node000040_Node000041" class="edge">
<title>Node40&#45;&gt;Node41</title>
<g id="a_edge33_Node000040_Node000041"><a xlink:title=" ">
<path fill="none" stroke="#63b8ff" d="M277.81,-280.37C283.08,-271.81 291.29,-258.47 297.89,-247.74"/>
<polygon fill="#63b8ff" stroke="#63b8ff" points="300.91,-249.52 303.17,-239.17 294.94,-245.85 300.91,-249.52"/>
</a>
</g>
</g>
<!-- Node42 -->
<g id="Node000042" class="node">
<title>Node42</title>
<g id="a_Node000042"><a xlink:href="../../dd/d16/MultiRateBase_8h.html" target="_top" xlink:title=" ">
<polygon fill="white" stroke="#666666" points="277,-184 188,-184 188,-165 277,-165 277,-184"/>
<text text-anchor="middle" x="232.5" y="-172" font-family="Helvetica,sans-Serif" font-size="10.00">MultiRateBase.h</text>
</a>
</g>
</g>
<!-- Node40&#45;&gt;Node42 -->
<g id="edge42_Node000040_Node000042" class="edge">
<title>Node40&#45;&gt;Node42</title>
<g id="a_edge42_Node000040_Node000042"><a xlink:title=" ">
<path fill="none" stroke="#63b8ff" d="M269.49,-280.47C263.04,-262.15 247.72,-218.68 238.95,-193.81"/>
<polygon fill="#63b8ff" stroke="#63b8ff" points="242.17,-192.4 235.54,-184.13 235.56,-194.72 242.17,-192.4"/>
</a>
</g>
</g>
<!-- Node44 -->
<g id="Node000044" class="node">
<title>Node44</title>
<g id="a_Node000044"><a xlink:href="../../de/df0/utilities_8h.html" target="_top" xlink:title="Various templated functions that carry out common vector and polynomial operations (see Templated Arr...">
<polygon fill="#fff0f0" stroke="red" points="115,-74 0,-74 0,-55 115,-55 115,-74"/>
<text text-anchor="middle" x="57.5" y="-62" font-family="Helvetica,sans-Serif" font-size="10.00">cantera/base/utilities.h</text>
</a>
</g>
</g>
<!-- Node40&#45;&gt;Node44 -->
<g id="edge43_Node000040_Node000044" class="edge">
<title>Node40&#45;&gt;Node44</title>
<g id="a_edge43_Node000040_Node000044"><a xlink:title=" ">
<path fill="none" stroke="#63b8ff" d="M264.07,-280.24C231.77,-246.66 115.53,-125.83 73.13,-81.74"/>
<polygon fill="#63b8ff" stroke="#63b8ff" points="75.56,-79.22 66.1,-74.44 70.51,-84.08 75.56,-79.22"/>
</a>
</g>
</g>
<!-- Node41&#45;&gt;Node4 -->
<g id="edge41_Node000041_Node000004" class="edge">
<title>Node41&#45;&gt;Node4</title>
<g id="a_edge41_Node000041_Node000004"><a xlink:title=" ">
<path fill="none" stroke="#63b8ff" d="M351.08,-221.02C390.41,-213.55 450.19,-200.78 500.5,-184 520.32,-177.39 523.53,-171.13 543.5,-165 597.32,-148.48 659.79,-137.25 708.18,-130.2"/>
<polygon fill="#63b8ff" stroke="#63b8ff" points="708.88,-133.64 718.28,-128.76 707.89,-126.71 708.88,-133.64"/>
</a>
</g>
</g>
<!-- Node41&#45;&gt;Node21 -->
<g id="edge36_Node000041_Node000021" class="edge">
<title>Node41&#45;&gt;Node21</title>
<g id="a_edge36_Node000041_Node000021"><a xlink:title=" ">
<path fill="none" stroke="#63b8ff" d="M328.26,-219.98C348.23,-211.38 379.3,-197.99 402.15,-188.15"/>
<polygon fill="#63b8ff" stroke="#63b8ff" points="403.58,-191.34 411.38,-184.17 400.81,-184.91 403.58,-191.34"/>
</a>
</g>
</g>
<!-- Node41&#45;&gt;Node22 -->
<g id="edge37_Node000041_Node000022" class="edge">
<title>Node41&#45;&gt;Node22</title>
<g id="a_edge37_Node000041_Node000022"><a xlink:title=" ">
<path fill="none" stroke="#63b8ff" d="M307.21,-219.93C304.92,-206.96 299.13,-182.07 286.5,-165 277.24,-152.49 263.45,-142.01 251.32,-134.37"/>
<polygon fill="#63b8ff" stroke="#63b8ff" points="252.85,-131.21 242.47,-129.09 249.27,-137.22 252.85,-131.21"/>
</a>
</g>
</g>
<!-- Node41&#45;&gt;Node42 -->
<g id="edge34_Node000041_Node000042" class="edge">
<title>Node41&#45;&gt;Node42</title>
<g id="a_edge34_Node000041_Node000042"><a xlink:title=" ">
<path fill="none" stroke="#63b8ff" d="M296.29,-219.98C284.72,-211.92 267.12,-199.65 253.34,-190.03"/>
<polygon fill="#63b8ff" stroke="#63b8ff" points="255.14,-187.02 244.93,-184.17 251.13,-192.76 255.14,-187.02"/>
</a>
</g>
</g>
<!-- Node43 -->
<g id="Node000043" class="node">
<title>Node43</title>
<g id="a_Node000043"><a xlink:href="../../d2/d49/global_8h.html" target="_top" xlink:title="This file contains definitions for utility functions and text for modules, inputfiles and logging,...">
<polygon fill="white" stroke="#666666" points="986.5,-129 876.5,-129 876.5,-110 986.5,-110 986.5,-129"/>
<text text-anchor="middle" x="931.5" y="-117" font-family="Helvetica,sans-Serif" font-size="10.00">cantera/base/global.h</text>
</a>
</g>
</g>
<!-- Node41&#45;&gt;Node43 -->
<g id="edge38_Node000041_Node000043" class="edge">
<title>Node41&#45;&gt;Node43</title>
<g id="a_edge38_Node000041_Node000043"><a xlink:title=" ">
<path fill="none" stroke="#63b8ff" d="M351.29,-220.67C397,-212.18 471.54,-197.95 535.5,-184 570.78,-176.3 579.02,-171.74 614.5,-165 638.63,-160.41 780.65,-140.94 866.2,-129.32"/>
<polygon fill="#63b8ff" stroke="#63b8ff" points="866.9,-132.76 876.34,-127.95 865.96,-125.82 866.9,-132.76"/>
</a>
</g>
</g>
<!-- Node42&#45;&gt;Node5 -->
<g id="edge35_Node000042_Node000005" class="edge">
<title>Node42&#45;&gt;Node5</title>
<g id="a_edge35_Node000042_Node000005"><a xlink:title=" ">
<path fill="none" stroke="#63b8ff" d="M209.27,-164.93C183.76,-154.09 148.2,-133.95 162.5,-110 203.61,-41.13 303.95,-19.91 359.64,-13.39"/>
<polygon fill="#63b8ff" stroke="#63b8ff" points="360.26,-16.84 369.83,-12.3 359.51,-9.88 360.26,-16.84"/>
</a>
</g>
</g>
<!-- Node43&#45;&gt;Node5 -->
<g id="edge39_Node000043_Node000005" class="edge">
<title>Node43&#45;&gt;Node5</title>
<g id="a_edge39_Node000043_Node000005"><a xlink:title=" ">
<path fill="none" stroke="#63b8ff" d="M925.05,-109.62C914.05,-95.27 890.15,-67.34 862.5,-55 786.73,-21.18 534.62,-12.99 437.3,-11.07"/>
<polygon fill="#63b8ff" stroke="#63b8ff" points="437.09,-7.56 427.03,-10.88 436.96,-14.56 437.09,-7.56"/>
</a>
</g>
</g>
<!-- Node43&#45;&gt;Node16 -->
<g id="edge40_Node000043_Node000016" class="edge">
<title>Node43&#45;&gt;Node16</title>
<g id="a_edge40_Node000043_Node000016"><a xlink:title=" ">
<path fill="none" stroke="#63b8ff" d="M911.1,-109.98C890.48,-101.38 858.39,-87.99 834.81,-78.15"/>
<polygon fill="#63b8ff" stroke="#63b8ff" points="835.85,-74.79 825.28,-74.17 833.16,-81.25 835.85,-74.79"/>
</a>
</g>
</g>
<!-- Node44&#45;&gt;Node5 -->
<g id="edge44_Node000044_Node000005" class="edge">
<title>Node44&#45;&gt;Node5</title>
<g id="a_edge44_Node000044_Node000005"><a xlink:title=" ">
<path fill="none" stroke="#63b8ff" d="M112.29,-54.98C181.7,-44.2 299.55,-25.88 360.09,-16.47"/>
<polygon fill="#63b8ff" stroke="#63b8ff" points="360.66,-19.92 370,-14.93 359.58,-13.01 360.66,-19.92"/>
</a>
</g>
</g>
<!-- Node46&#45;&gt;Node28 -->
<g id="edge46_Node000046_Node000028" class="edge">
<title>Node46&#45;&gt;Node28</title>
<g id="a_edge46_Node000046_Node000028"><a xlink:title=" ">
<path fill="none" stroke="#63b8ff" d="M760.6,-280.37C744.19,-270.86 717.57,-255.45 698.27,-244.27"/>
<polygon fill="#63b8ff" stroke="#63b8ff" points="699.87,-241.15 689.46,-239.17 696.36,-247.21 699.87,-241.15"/>
</a>
</g>
</g>
<!-- Node47 -->
<g id="Node000047" class="node">
<title>Node47</title>
<g id="a_Node000047"><a xlink:href="../../d6/dd5/FactoryBase_8h.html" target="_top" xlink:title="File contains the FactoryBase class declarations.">
<polygon fill="white" stroke="#666666" points="895.5,-184 755.5,-184 755.5,-165 895.5,-165 895.5,-184"/>
<text text-anchor="middle" x="825.5" y="-172" font-family="Helvetica,sans-Serif" font-size="10.00">cantera/base/FactoryBase.h</text>
</a>
</g>
</g>
<!-- Node46&#45;&gt;Node47 -->
<g id="edge47_Node000046_Node000047" class="edge">
<title>Node46&#45;&gt;Node47</title>
<g id="a_edge47_Node000046_Node000047"><a xlink:title=" ">
<path fill="none" stroke="#63b8ff" d="M779.26,-280.47C787.37,-262.06 806.65,-218.29 817.58,-193.48"/>
<polygon fill="#63b8ff" stroke="#63b8ff" points="820.87,-194.69 821.7,-184.13 814.46,-191.87 820.87,-194.69"/>
</a>
</g>
</g>
<!-- Node47&#45;&gt;Node4 -->
<g id="edge50_Node000047_Node000004" class="edge">
<title>Node47&#45;&gt;Node4</title>
<g id="a_edge50_Node000047_Node000004"><a xlink:title=" ">
<path fill="none" stroke="#63b8ff" d="M819.39,-164.75C814.22,-157.34 806.65,-146.5 800.31,-137.41"/>
<polygon fill="#63b8ff" stroke="#63b8ff" points="803.09,-135.29 794.5,-129.09 797.35,-139.29 803.09,-135.29"/>
</a>
</g>
</g>
<!-- Node47&#45;&gt;Node23 -->
<g id="edge49_Node000047_Node000023" class="edge">
<title>Node47&#45;&gt;Node23</title>
<g id="a_edge49_Node000047_Node000023"><a xlink:title=" ">
<path fill="none" stroke="#63b8ff" d="M798.67,-164.98C770.63,-156.09 726.45,-142.07 695.2,-132.15"/>
<polygon fill="#63b8ff" stroke="#63b8ff" points="696.13,-128.77 685.54,-129.08 694.01,-135.44 696.13,-128.77"/>
</a>
</g>
</g>
<!-- Node47&#45;&gt;Node43 -->
<g id="edge51_Node000047_Node000043" class="edge">
<title>Node47&#45;&gt;Node43</title>
<g id="a_edge51_Node000047_Node000043"><a xlink:title=" ">
<path fill="none" stroke="#63b8ff" d="M842.53,-164.98C859.43,-156.54 885.56,-143.47 905.14,-133.68"/>
<polygon fill="#63b8ff" stroke="#63b8ff" points="906.78,-136.77 914.16,-129.17 903.65,-130.51 906.78,-136.77"/>
</a>
</g>
</g>
<!-- Node48 -->
<g id="Node000048" class="node">
<title>Node48</title>
<g id="a_Node000048"><a xlink:title=" ">
<polygon fill="#e0e0e0" stroke="#999999" points="1048.5,-129 1004.5,-129 1004.5,-110 1048.5,-110 1048.5,-129"/>
<text text-anchor="middle" x="1026.5" y="-117" font-family="Helvetica,sans-Serif" font-size="10.00">mutex</text>
</a>
</g>
</g>
<!-- Node47&#45;&gt;Node48 -->
<g id="edge48_Node000047_Node000048" class="edge">
<title>Node47&#45;&gt;Node48</title>
<g id="a_edge48_Node000047_Node000048"><a xlink:title=" ">
<path fill="none" stroke="#63b8ff" d="M858.44,-165C890.7,-156.65 941.51,-143.42 994.56,-129.23"/>
<polygon fill="#63b8ff" stroke="#63b8ff" points="995.74,-132.54 1004.49,-126.57 993.93,-125.78 995.74,-132.54"/>
</a>
</g>
</g>
<!-- Node49&#45;&gt;Node21 -->
<g id="edge55_Node000049_Node000021" class="edge">
<title>Node49&#45;&gt;Node21</title>
<g id="a_edge55_Node000049_Node000021"><a xlink:title=" ">
<path fill="none" stroke="#63b8ff" d="M898.23,-274.86C857.14,-259.35 787.92,-234.71 726.5,-220 650.67,-201.84 562.01,-189.65 501.84,-182.69"/>
<polygon fill="#63b8ff" stroke="#63b8ff" points="502.02,-179.19 491.69,-181.53 501.22,-186.14 502.02,-179.19"/>
</a>
</g>
</g>
<!-- Node49&#45;&gt;Node36 -->
<g id="edge53_Node000049_Node000036" class="edge">
<title>Node49&#45;&gt;Node36</title>
<g id="a_edge53_Node000049_Node000036"><a xlink:title=" ">
<path fill="none" stroke="#63b8ff" d="M957.25,-274.84C972.1,-265.6 991.4,-253.59 1006.16,-244.4"/>
<polygon fill="#63b8ff" stroke="#63b8ff" points="1008.05,-247.35 1014.69,-239.09 1004.35,-241.41 1008.05,-247.35"/>
</a>
</g>
</g>
<!-- Node49&#45;&gt;Node47 -->
<g id="edge54_Node000049_Node000047" class="edge">
<title>Node49&#45;&gt;Node47</title>
<g id="a_edge54_Node000049_Node000047"><a xlink:title=" ">
<path fill="none" stroke="#63b8ff" d="M920.7,-274.63C900.29,-253.37 862.19,-213.71 840.9,-191.54"/>
<polygon fill="#63b8ff" stroke="#63b8ff" points="843.33,-189.02 833.88,-184.23 838.29,-193.87 843.33,-189.02"/>
</a>
</g>
</g>
</g>
</svg>
