<?xml version="1.0" encoding="UTF-8" standalone="no"?>
<!DOCTYPE svg PUBLIC "-//W3C//DTD SVG 1.1//EN"
 "http://www.w3.org/Graphics/SVG/1.1/DTD/svg11.dtd">
<!-- Generated by graphviz version 6.0.1 (0)
 -->
<!-- Title: IdealSolidSolnPhase.h Pages: 1 -->
<svg width="548pt" height="137pt"
 viewBox="0.00 0.00 548.00 137.00" xmlns="http://www.w3.org/2000/svg" xmlns:xlink="http://www.w3.org/1999/xlink">
<g id="graph0" class="graph" transform="scale(1 1) rotate(0) translate(4 133)">
<title>IdealSolidSolnPhase.h</title>
<!-- Node1 -->
<g id="node1" class="node">
<title>Node1</title>
<g id="a_node1"><a xlink:title="Header file for an ideal solid solution model with incompressible thermodynamics (see Thermodynamic P...">
<polygon fill="#999999" stroke="#666666" points="344,-129 229,-129 229,-110 344,-110 344,-129"/>
<text text-anchor="middle" x="286.5" y="-117" font-family="Helvetica,sans-Serif" font-size="10.00">IdealSolidSolnPhase.h</text>
</a>
</g>
</g>
<!-- Node2 -->
<g id="node2" class="node">
<title>Node2</title>
<g id="a_node2"><a xlink:href="../../d9/d64/BinarySolutionTabulatedThermo_8h.html" target="_top" xlink:title="Header file for an binary solution model with tabulated standard state thermodynamic data (see Thermo...">
<polygon fill="white" stroke="#666666" points="213,-74 50,-74 50,-55 213,-55 213,-74"/>
<text text-anchor="middle" x="131.5" y="-62" font-family="Helvetica,sans-Serif" font-size="10.00">BinarySolutionTabulatedThermo.h</text>
</a>
</g>
</g>
<!-- Node1&#45;&gt;Node2 -->
<g id="edge1" class="edge">
<title>Node1&#45;&gt;Node2</title>
<path fill="none" stroke="#63b8ff" d="M251.9,-106.67C223,-96.79 182.47,-82.93 156.6,-74.08"/>
<polygon fill="#63b8ff" stroke="#63b8ff" points="251,-110.06 261.6,-109.98 253.27,-103.44 251,-110.06"/>
</g>
<!-- Node4 -->
<g id="node4" class="node">
<title>Node4</title>
<g id="a_node4"><a xlink:href="../../d2/d3a/ThermoFactory_8cpp.html" target="_top" xlink:title="Definitions for the factory class that can create known ThermoPhase objects (see Thermodynamic Proper...">
<polygon fill="white" stroke="#666666" points="291.5,-19 191.5,-19 191.5,0 291.5,0 291.5,-19"/>
<text text-anchor="middle" x="241.5" y="-7" font-family="Helvetica,sans-Serif" font-size="10.00">ThermoFactory.cpp</text>
</a>
</g>
</g>
<!-- Node1&#45;&gt;Node4 -->
<g id="edge5" class="edge">
<title>Node1&#45;&gt;Node4</title>
<path fill="none" stroke="#63b8ff" d="M275.63,-101.12C270.89,-93.07 265.5,-83.25 261.5,-74 253.33,-55.12 246.85,-31.79 243.66,-19.33"/>
<polygon fill="#63b8ff" stroke="#63b8ff" points="272.79,-103.18 280.97,-109.91 278.77,-99.54 272.79,-103.18"/>
</g>
<!-- Node5 -->
<g id="node5" class="node">
<title>Node5</title>
<g id="a_node5"><a xlink:href="../../de/d05/IdealSolidSolnPhase_8cpp.html" target="_top" xlink:title="Implementation file for an ideal solid solution model with incompressible thermodynamics (see Thermod...">
<polygon fill="white" stroke="#666666" points="395,-74 270,-74 270,-55 395,-55 395,-74"/>
<text text-anchor="middle" x="332.5" y="-62" font-family="Helvetica,sans-Serif" font-size="10.00">IdealSolidSolnPhase.cpp</text>
</a>
</g>
</g>
<!-- Node1&#45;&gt;Node5 -->
<g id="edge4" class="edge">
<title>Node1&#45;&gt;Node5</title>
<path fill="none" stroke="#63b8ff" d="M300.86,-101.96C308.87,-92.72 318.53,-81.6 325.05,-74.09"/>
<polygon fill="#63b8ff" stroke="#63b8ff" points="298.01,-99.9 294.1,-109.75 303.29,-104.49 298.01,-99.9"/>
</g>
<!-- Node6 -->
<g id="node6" class="node">
<title>Node6</title>
<g id="a_node6"><a xlink:href="../../dc/d00/vcs__MultiPhaseEquil_8cpp.html" target="_top" xlink:title="Driver routine for the VCSnonideal equilibrium solver package.">
<polygon fill="white" stroke="#666666" points="540,-74 413,-74 413,-55 540,-55 540,-74"/>
<text text-anchor="middle" x="476.5" y="-62" font-family="Helvetica,sans-Serif" font-size="10.00">vcs_MultiPhaseEquil.cpp</text>
</a>
</g>
</g>
<!-- Node1&#45;&gt;Node6 -->
<g id="edge6" class="edge">
<title>Node1&#45;&gt;Node6</title>
<path fill="none" stroke="#63b8ff" d="M327.07,-107.18C362.6,-97.27 413.47,-83.08 445.73,-74.08"/>
<polygon fill="#63b8ff" stroke="#63b8ff" points="325.72,-103.93 317.03,-109.98 327.6,-110.67 325.72,-103.93"/>
</g>
<!-- Node3 -->
<g id="node3" class="node">
<title>Node3</title>
<g id="a_node3"><a xlink:href="../../d4/d20/BinarySolutionTabulatedThermo_8cpp.html" target="_top" xlink:title="Implementation file for an binary solution model with tabulated standard state thermodynamic data (se...">
<polygon fill="white" stroke="#666666" points="173,-19 0,-19 0,0 173,0 173,-19"/>
<text text-anchor="middle" x="86.5" y="-7" font-family="Helvetica,sans-Serif" font-size="10.00">BinarySolutionTabulatedThermo.cpp</text>
</a>
</g>
</g>
<!-- Node2&#45;&gt;Node3 -->
<g id="edge2" class="edge">
<title>Node2&#45;&gt;Node3</title>
<path fill="none" stroke="#63b8ff" d="M117.45,-46.96C109.61,-37.72 100.17,-26.6 93.79,-19.09"/>
<polygon fill="#63b8ff" stroke="#63b8ff" points="114.93,-49.39 124.07,-54.75 120.26,-44.86 114.93,-49.39"/>
</g>
<!-- Node2&#45;&gt;Node4 -->
<g id="edge3" class="edge">
<title>Node2&#45;&gt;Node4</title>
<path fill="none" stroke="#63b8ff" d="M158.2,-50.63C178.47,-40.87 205.77,-27.71 223.51,-19.17"/>
<polygon fill="#63b8ff" stroke="#63b8ff" points="156.66,-47.49 149.17,-54.98 159.7,-53.8 156.66,-47.49"/>
</g>
</g>
</svg>
