<?xml version="1.0" encoding="UTF-8" standalone="no"?>
<!DOCTYPE svg PUBLIC "-//W3C//DTD SVG 1.1//EN"
 "http://www.w3.org/Graphics/SVG/1.1/DTD/svg11.dtd">
<!-- Generated by graphviz version 6.0.1 (0)
 -->
<!-- Title: SolutionArray.h Pages: 1 -->
<svg width="912pt" height="302pt"
 viewBox="0.00 0.00 911.50 302.00" xmlns="http://www.w3.org/2000/svg" xmlns:xlink="http://www.w3.org/1999/xlink">
<g id="graph0" class="graph" transform="scale(1 1) rotate(0) translate(4 298)">
<title>SolutionArray.h</title>
<!-- Node1 -->
<g id="node1" class="node">
<title>Node1</title>
<g id="a_node1"><a xlink:title=" ">
<polygon fill="#999999" stroke="#666666" points="282,-294 200,-294 200,-275 282,-275 282,-294"/>
<text text-anchor="middle" x="241" y="-282" font-family="Helvetica,sans-Serif" font-size="10.00">SolutionArray.h</text>
</a>
</g>
</g>
<!-- Node2 -->
<g id="node2" class="node">
<title>Node2</title>
<g id="a_node2"><a xlink:href="../../d2/d49/global_8h.html" target="_top" xlink:title="This file contains definitions for utility functions and text for modules, inputfiles,...">
<polygon fill="white" stroke="#666666" points="110,-184 0,-184 0,-165 110,-165 110,-184"/>
<text text-anchor="middle" x="55" y="-172" font-family="Helvetica,sans-Serif" font-size="10.00">cantera/base/global.h</text>
</a>
</g>
</g>
<!-- Node1&#45;&gt;Node2 -->
<g id="edge1" class="edge">
<title>Node1&#45;&gt;Node2</title>
<path fill="none" stroke="#63b8ff" d="M226.09,-274.84C193.91,-256.16 117.68,-211.9 78.76,-189.3"/>
<polygon fill="#63b8ff" stroke="#63b8ff" points="80.12,-186.04 69.72,-184.05 76.61,-192.1 80.12,-186.04"/>
</g>
<!-- Node17 -->
<g id="node17" class="node">
<title>Node17</title>
<g id="a_node17"><a xlink:href="../../dd/d2a/AnyMap_8h.html" target="_top" xlink:title=" ">
<polygon fill="white" stroke="#666666" points="487,-239 367,-239 367,-220 487,-220 487,-239"/>
<text text-anchor="middle" x="427" y="-227" font-family="Helvetica,sans-Serif" font-size="10.00">cantera/base/AnyMap.h</text>
</a>
</g>
</g>
<!-- Node1&#45;&gt;Node17 -->
<g id="edge17" class="edge">
<title>Node1&#45;&gt;Node17</title>
<path fill="none" stroke="#63b8ff" d="M270.88,-274.98C302.38,-266.01 352.17,-251.82 387.03,-241.89"/>
<polygon fill="#63b8ff" stroke="#63b8ff" points="388.22,-245.19 396.88,-239.08 386.31,-238.46 388.22,-245.19"/>
</g>
<!-- Node3 -->
<g id="node3" class="node">
<title>Node3</title>
<g id="a_node3"><a xlink:href="../../d9/ddc/ct__defs_8h.html" target="_top" xlink:title="This file contains definitions of constants, types and terms that are used in internal routines and a...">
<polygon fill="white" stroke="#666666" points="610.5,-74 553.5,-74 553.5,-55 610.5,-55 610.5,-74"/>
<text text-anchor="middle" x="582" y="-62" font-family="Helvetica,sans-Serif" font-size="10.00">ct_defs.h</text>
</a>
</g>
</g>
<!-- Node2&#45;&gt;Node3 -->
<g id="edge2" class="edge">
<title>Node2&#45;&gt;Node3</title>
<path fill="none" stroke="#63b8ff" d="M110.15,-166.09C113.14,-165.72 116.11,-165.35 119,-165 264.59,-147.34 306.32,-170.44 447,-129 465.11,-123.66 467.97,-118.16 485,-110 508.01,-98.97 534.34,-86.93 553.75,-78.16"/>
<polygon fill="#63b8ff" stroke="#63b8ff" points="555.28,-81.31 562.95,-74.01 552.4,-74.93 555.28,-81.31"/>
</g>
<!-- Node14 -->
<g id="node14" class="node">
<title>Node14</title>
<g id="a_node14"><a xlink:href="../../db/def/fmt_8h.html" target="_top" xlink:title="Wrapper for either system&#45;installed or local headers for fmt.">
<polygon fill="white" stroke="#666666" points="438,-129 340,-129 340,-110 438,-110 438,-129"/>
<text text-anchor="middle" x="389" y="-117" font-family="Helvetica,sans-Serif" font-size="10.00">cantera/base/fmt.h</text>
</a>
</g>
</g>
<!-- Node2&#45;&gt;Node14 -->
<g id="edge13" class="edge">
<title>Node2&#45;&gt;Node14</title>
<path fill="none" stroke="#63b8ff" d="M108.66,-164.98C169.1,-155.39 267.04,-139.85 329.7,-129.91"/>
<polygon fill="#63b8ff" stroke="#63b8ff" points="330.5,-133.33 339.82,-128.3 329.4,-126.41 330.5,-133.33"/>
</g>
<!-- Node4 -->
<g id="node4" class="node">
<title>Node4</title>
<g id="a_node4"><a xlink:href="../../db/d16/config_8h_source.html" target="_top" xlink:title=" ">
<polygon fill="white" stroke="#666666" points="331.5,-19 280.5,-19 280.5,0 331.5,0 331.5,-19"/>
<text text-anchor="middle" x="306" y="-7" font-family="Helvetica,sans-Serif" font-size="10.00">config.h</text>
</a>
</g>
</g>
<!-- Node3&#45;&gt;Node4 -->
<g id="edge3" class="edge">
<title>Node3&#45;&gt;Node4</title>
<path fill="none" stroke="#63b8ff" d="M553.33,-58.74C509.8,-51.39 424.2,-36.5 341.4,-18.98"/>
<polygon fill="#63b8ff" stroke="#63b8ff" points="342.09,-15.55 331.58,-16.89 340.63,-22.39 342.09,-15.55"/>
</g>
<!-- Node5 -->
<g id="node5" class="node">
<title>Node5</title>
<g id="a_node5"><a xlink:title=" ">
<polygon fill="#e0e0e0" stroke="#999999" points="394,-19 350,-19 350,0 394,0 394,-19"/>
<text text-anchor="middle" x="372" y="-7" font-family="Helvetica,sans-Serif" font-size="10.00">cmath</text>
</a>
</g>
</g>
<!-- Node3&#45;&gt;Node5 -->
<g id="edge4" class="edge">
<title>Node3&#45;&gt;Node5</title>
<path fill="none" stroke="#63b8ff" d="M553.42,-56.62C519.91,-48.5 462.45,-34.43 404.09,-19.24"/>
<polygon fill="#63b8ff" stroke="#63b8ff" points="404.89,-15.83 394.33,-16.69 403.12,-22.61 404.89,-15.83"/>
</g>
<!-- Node6 -->
<g id="node6" class="node">
<title>Node6</title>
<g id="a_node6"><a xlink:title=" ">
<polygon fill="#e0e0e0" stroke="#999999" points="457.5,-19 412.5,-19 412.5,0 457.5,0 457.5,-19"/>
<text text-anchor="middle" x="435" y="-7" font-family="Helvetica,sans-Serif" font-size="10.00">cstdlib</text>
</a>
</g>
</g>
<!-- Node3&#45;&gt;Node6 -->
<g id="edge5" class="edge">
<title>Node3&#45;&gt;Node6</title>
<path fill="none" stroke="#63b8ff" d="M558.38,-54.98C533.66,-46.07 494.69,-32.02 467.17,-22.1"/>
<polygon fill="#63b8ff" stroke="#63b8ff" points="468.19,-18.75 457.59,-18.65 465.81,-25.33 468.19,-18.75"/>
</g>
<!-- Node7 -->
<g id="node7" class="node">
<title>Node7</title>
<g id="a_node7"><a xlink:title=" ">
<polygon fill="#e0e0e0" stroke="#999999" points="520,-19 476,-19 476,0 520,0 520,-19"/>
<text text-anchor="middle" x="498" y="-7" font-family="Helvetica,sans-Serif" font-size="10.00">vector</text>
</a>
</g>
</g>
<!-- Node3&#45;&gt;Node7 -->
<g id="edge6" class="edge">
<title>Node3&#45;&gt;Node7</title>
<path fill="none" stroke="#63b8ff" d="M568.5,-54.98C555.6,-46.84 535.9,-34.41 520.6,-24.76"/>
<polygon fill="#63b8ff" stroke="#63b8ff" points="522.07,-21.55 511.74,-19.17 518.33,-27.47 522.07,-21.55"/>
</g>
<!-- Node8 -->
<g id="node8" class="node">
<title>Node8</title>
<g id="a_node8"><a xlink:title=" ">
<polygon fill="#e0e0e0" stroke="#999999" points="573.5,-19 538.5,-19 538.5,0 573.5,0 573.5,-19"/>
<text text-anchor="middle" x="556" y="-7" font-family="Helvetica,sans-Serif" font-size="10.00">map</text>
</a>
</g>
</g>
<!-- Node3&#45;&gt;Node8 -->
<g id="edge7" class="edge">
<title>Node3&#45;&gt;Node8</title>
<path fill="none" stroke="#63b8ff" d="M577.71,-54.75C574.19,-47.57 569.09,-37.18 564.72,-28.27"/>
<polygon fill="#63b8ff" stroke="#63b8ff" points="567.76,-26.53 560.21,-19.09 561.48,-29.61 567.76,-26.53"/>
</g>
<!-- Node9 -->
<g id="node9" class="node">
<title>Node9</title>
<g id="a_node9"><a xlink:title=" ">
<polygon fill="#e0e0e0" stroke="#999999" points="622,-19 592,-19 592,0 622,0 622,-19"/>
<text text-anchor="middle" x="607" y="-7" font-family="Helvetica,sans-Serif" font-size="10.00">set</text>
</a>
</g>
</g>
<!-- Node3&#45;&gt;Node9 -->
<g id="edge8" class="edge">
<title>Node3&#45;&gt;Node9</title>
<path fill="none" stroke="#63b8ff" d="M586.13,-54.75C589.51,-47.57 594.42,-37.18 598.62,-28.27"/>
<polygon fill="#63b8ff" stroke="#63b8ff" points="601.85,-29.63 602.95,-19.09 595.52,-26.64 601.85,-29.63"/>
</g>
<!-- Node10 -->
<g id="node10" class="node">
<title>Node10</title>
<g id="a_node10"><a xlink:title=" ">
<polygon fill="#e0e0e0" stroke="#999999" points="681.5,-19 640.5,-19 640.5,0 681.5,0 681.5,-19"/>
<text text-anchor="middle" x="661" y="-7" font-family="Helvetica,sans-Serif" font-size="10.00">string</text>
</a>
</g>
</g>
<!-- Node3&#45;&gt;Node10 -->
<g id="edge9" class="edge">
<title>Node3&#45;&gt;Node10</title>
<path fill="none" stroke="#63b8ff" d="M594.69,-54.98C606.83,-46.84 625.36,-34.41 639.75,-24.76"/>
<polygon fill="#63b8ff" stroke="#63b8ff" points="641.72,-27.65 648.08,-19.17 637.82,-21.84 641.72,-27.65"/>
</g>
<!-- Node11 -->
<g id="node11" class="node">
<title>Node11</title>
<g id="a_node11"><a xlink:title=" ">
<polygon fill="#e0e0e0" stroke="#999999" points="756,-19 700,-19 700,0 756,0 756,-19"/>
<text text-anchor="middle" x="728" y="-7" font-family="Helvetica,sans-Serif" font-size="10.00">algorithm</text>
</a>
</g>
</g>
<!-- Node3&#45;&gt;Node11 -->
<g id="edge10" class="edge">
<title>Node3&#45;&gt;Node11</title>
<path fill="none" stroke="#63b8ff" d="M605.46,-54.98C629.58,-46.23 667.37,-32.51 694.6,-22.62"/>
<polygon fill="#63b8ff" stroke="#63b8ff" points="695.91,-25.87 704.12,-19.17 693.52,-19.29 695.91,-25.87"/>
</g>
<!-- Node12 -->
<g id="node12" class="node">
<title>Node12</title>
<g id="a_node12"><a xlink:title=" ">
<polygon fill="#e0e0e0" stroke="#999999" points="826,-19 774,-19 774,0 826,0 826,-19"/>
<text text-anchor="middle" x="800" y="-7" font-family="Helvetica,sans-Serif" font-size="10.00">memory</text>
</a>
</g>
</g>
<!-- Node3&#45;&gt;Node12 -->
<g id="edge11" class="edge">
<title>Node3&#45;&gt;Node12</title>
<path fill="none" stroke="#63b8ff" d="M610.95,-56.46C650.51,-46.84 721.44,-29.6 764.27,-19.19"/>
<polygon fill="#63b8ff" stroke="#63b8ff" points="765.11,-22.59 774,-16.82 763.45,-15.78 765.11,-22.59"/>
</g>
<!-- Node13 -->
<g id="node13" class="node">
<title>Node13</title>
<g id="a_node13"><a xlink:title=" ">
<polygon fill="#e0e0e0" stroke="#999999" points="903.5,-19 844.5,-19 844.5,0 903.5,0 903.5,-19"/>
<text text-anchor="middle" x="874" y="-7" font-family="Helvetica,sans-Serif" font-size="10.00">functional</text>
</a>
</g>
</g>
<!-- Node3&#45;&gt;Node13 -->
<g id="edge12" class="edge">
<title>Node3&#45;&gt;Node13</title>
<path fill="none" stroke="#63b8ff" d="M610.53,-58.87C655.76,-51.44 746.93,-36.14 834.4,-19.05"/>
<polygon fill="#63b8ff" stroke="#63b8ff" points="835.08,-22.48 844.22,-17.12 833.73,-15.61 835.08,-22.48"/>
</g>
<!-- Node14&#45;&gt;Node3 -->
<g id="edge14" class="edge">
<title>Node14&#45;&gt;Node3</title>
<path fill="none" stroke="#63b8ff" d="M420.01,-109.98C453.61,-100.76 507.27,-86.02 543.54,-76.06"/>
<polygon fill="#63b8ff" stroke="#63b8ff" points="544.56,-79.41 553.27,-73.39 542.7,-72.66 544.56,-79.41"/>
</g>
<!-- Node15 -->
<g id="node15" class="node">
<title>Node15</title>
<g id="a_node15"><a xlink:title=" ">
<polygon fill="#e0e0e0" stroke="#999999" points="493,-74 371,-74 371,-55 493,-55 493,-74"/>
<text text-anchor="middle" x="432" y="-62" font-family="Helvetica,sans-Serif" font-size="10.00">cantera/ext/fmt/format.h</text>
</a>
</g>
</g>
<!-- Node14&#45;&gt;Node15 -->
<g id="edge15" class="edge">
<title>Node14&#45;&gt;Node15</title>
<path fill="none" stroke="#63b8ff" d="M396.1,-109.75C402.17,-102.26 411.09,-91.28 418.51,-82.13"/>
<polygon fill="#63b8ff" stroke="#63b8ff" points="421.45,-84.06 425.03,-74.09 416.01,-79.65 421.45,-84.06"/>
</g>
<!-- Node16 -->
<g id="node16" class="node">
<title>Node16</title>
<g id="a_node16"><a xlink:title=" ">
<polygon fill="#e0e0e0" stroke="#999999" points="352.5,-74 223.5,-74 223.5,-55 352.5,-55 352.5,-74"/>
<text text-anchor="middle" x="288" y="-62" font-family="Helvetica,sans-Serif" font-size="10.00">cantera/ext/fmt/ostream.h</text>
</a>
</g>
</g>
<!-- Node14&#45;&gt;Node16 -->
<g id="edge16" class="edge">
<title>Node14&#45;&gt;Node16</title>
<path fill="none" stroke="#63b8ff" d="M372.77,-109.98C356.82,-101.61 332.22,-88.7 313.62,-78.95"/>
<polygon fill="#63b8ff" stroke="#63b8ff" points="315,-75.72 304.52,-74.17 311.75,-81.92 315,-75.72"/>
</g>
<!-- Node17&#45;&gt;Node3 -->
<g id="edge18" class="edge">
<title>Node17&#45;&gt;Node3</title>
<path fill="none" stroke="#63b8ff" d="M487.02,-228.95C540.59,-226.88 619.52,-217.58 679,-184 707.25,-168.05 715.61,-159.38 727,-129 743.95,-83.81 669.41,-70.74 620.92,-66.98"/>
<polygon fill="#63b8ff" stroke="#63b8ff" points="620.93,-63.48 610.72,-66.3 620.46,-70.46 620.93,-63.48"/>
</g>
<!-- Node18 -->
<g id="node18" class="node">
<title>Node18</title>
<g id="a_node18"><a xlink:href="../../db/d98/ctexceptions_8h.html" target="_top" xlink:title="Definitions for the classes that are thrown when Cantera experiences an error condition (also contain...">
<polygon fill="white" stroke="#666666" points="652,-184 512,-184 512,-165 652,-165 652,-184"/>
<text text-anchor="middle" x="582" y="-172" font-family="Helvetica,sans-Serif" font-size="10.00">cantera/base/ctexceptions.h</text>
</a>
</g>
</g>
<!-- Node17&#45;&gt;Node18 -->
<g id="edge19" class="edge">
<title>Node17&#45;&gt;Node18</title>
<path fill="none" stroke="#63b8ff" d="M451.9,-219.98C477.7,-211.16 518.22,-197.31 547.18,-187.41"/>
<polygon fill="#63b8ff" stroke="#63b8ff" points="548.57,-190.63 556.9,-184.08 546.31,-184.01 548.57,-190.63"/>
</g>
<!-- Node20 -->
<g id="node20" class="node">
<title>Node20</title>
<g id="a_node20"><a xlink:href="../../da/d58/Units_8h.html" target="_top" xlink:title="Header for unit conversion utilities, which are used to translate user input from input files (See In...">
<polygon fill="white" stroke="#666666" points="717.5,-129 610.5,-129 610.5,-110 717.5,-110 717.5,-129"/>
<text text-anchor="middle" x="664" y="-117" font-family="Helvetica,sans-Serif" font-size="10.00">cantera/base/Units.h</text>
</a>
</g>
</g>
<!-- Node17&#45;&gt;Node20 -->
<g id="edge23" class="edge">
<title>Node17&#45;&gt;Node20</title>
<path fill="none" stroke="#63b8ff" d="M487.05,-225.33C548.71,-220.7 638.73,-209.64 661,-184 671.51,-171.9 671.06,-153.1 668.71,-139.09"/>
<polygon fill="#63b8ff" stroke="#63b8ff" points="672.09,-138.16 666.58,-129.1 665.24,-139.61 672.09,-138.16"/>
</g>
<!-- Node21 -->
<g id="node21" class="node">
<title>Node21</title>
<g id="a_node21"><a xlink:title=" ">
<polygon fill="#e0e0e0" stroke="#999999" points="211.5,-184 128.5,-184 128.5,-165 211.5,-165 211.5,-184"/>
<text text-anchor="middle" x="170" y="-172" font-family="Helvetica,sans-Serif" font-size="10.00">unordered_map</text>
</a>
</g>
</g>
<!-- Node17&#45;&gt;Node21 -->
<g id="edge25" class="edge">
<title>Node17&#45;&gt;Node21</title>
<path fill="none" stroke="#63b8ff" d="M385.71,-219.98C341.07,-210.78 269.84,-196.09 221.55,-186.13"/>
<polygon fill="#63b8ff" stroke="#63b8ff" points="222.12,-182.67 211.62,-184.08 220.7,-189.53 222.12,-182.67"/>
</g>
<!-- Node22 -->
<g id="node22" class="node">
<title>Node22</title>
<g id="a_node22"><a xlink:title=" ">
<polygon fill="#e0e0e0" stroke="#999999" points="292,-184 230,-184 230,-165 292,-165 292,-184"/>
<text text-anchor="middle" x="261" y="-172" font-family="Helvetica,sans-Serif" font-size="10.00">filesystem</text>
</a>
</g>
</g>
<!-- Node17&#45;&gt;Node22 -->
<g id="edge26" class="edge">
<title>Node17&#45;&gt;Node22</title>
<path fill="none" stroke="#63b8ff" d="M400.33,-219.98C372.46,-211.09 328.55,-197.07 297.48,-187.15"/>
<polygon fill="#63b8ff" stroke="#63b8ff" points="298.47,-183.79 287.88,-184.08 296.34,-190.46 298.47,-183.79"/>
</g>
<!-- Node23 -->
<g id="node23" class="node">
<title>Node23</title>
<g id="a_node23"><a xlink:title=" ">
<polygon fill="#e0e0e0" stroke="#999999" points="342,-184 310,-184 310,-165 342,-165 342,-184"/>
<text text-anchor="middle" x="326" y="-172" font-family="Helvetica,sans-Serif" font-size="10.00">any</text>
</a>
</g>
</g>
<!-- Node17&#45;&gt;Node23 -->
<g id="edge27" class="edge">
<title>Node17&#45;&gt;Node23</title>
<path fill="none" stroke="#63b8ff" d="M410.77,-219.98C394.72,-211.56 369.93,-198.55 351.29,-188.77"/>
<polygon fill="#63b8ff" stroke="#63b8ff" points="352.67,-185.54 342.19,-183.99 349.42,-191.74 352.67,-185.54"/>
</g>
<!-- Node24 -->
<g id="node24" class="node">
<title>Node24</title>
<g id="a_node24"><a xlink:href="../../da/d4c/AnyMap_8inl_8h.html" target="_top" xlink:title=" ">
<polygon fill="white" stroke="#666666" points="493.5,-184 360.5,-184 360.5,-165 493.5,-165 493.5,-184"/>
<text text-anchor="middle" x="427" y="-172" font-family="Helvetica,sans-Serif" font-size="10.00">cantera/base/AnyMap.inl.h</text>
</a>
</g>
</g>
<!-- Node17&#45;&gt;Node24 -->
<g id="edge28" class="edge">
<title>Node17&#45;&gt;Node24</title>
<path fill="none" stroke="#63b8ff" d="M421.83,-219.75C420.34,-212.8 419.9,-202.85 420.52,-194.13"/>
<polygon fill="#63b8ff" stroke="#63b8ff" points="424.01,-194.47 421.87,-184.09 417.07,-193.53 424.01,-194.47"/>
</g>
<!-- Node18&#45;&gt;Node3 -->
<g id="edge20" class="edge">
<title>Node18&#45;&gt;Node3</title>
<path fill="none" stroke="#63b8ff" d="M582,-164.66C582,-147.17 582,-107.8 582,-84.27"/>
<polygon fill="#63b8ff" stroke="#63b8ff" points="585.5,-84.16 582,-74.16 578.5,-84.16 585.5,-84.16"/>
</g>
<!-- Node18&#45;&gt;Node14 -->
<g id="edge21" class="edge">
<title>Node18&#45;&gt;Node14</title>
<path fill="none" stroke="#63b8ff" d="M550.99,-164.98C518.17,-155.97 466.2,-141.7 430.01,-131.76"/>
<polygon fill="#63b8ff" stroke="#63b8ff" points="430.82,-128.36 420.25,-129.08 428.97,-135.11 430.82,-128.36"/>
</g>
<!-- Node19 -->
<g id="node19" class="node">
<title>Node19</title>
<g id="a_node19"><a xlink:title=" ">
<polygon fill="#e0e0e0" stroke="#999999" points="553.5,-129 494.5,-129 494.5,-110 553.5,-110 553.5,-129"/>
<text text-anchor="middle" x="524" y="-117" font-family="Helvetica,sans-Serif" font-size="10.00">exception</text>
</a>
</g>
</g>
<!-- Node18&#45;&gt;Node19 -->
<g id="edge22" class="edge">
<title>Node18&#45;&gt;Node19</title>
<path fill="none" stroke="#63b8ff" d="M572.68,-164.98C564.19,-157.23 551.44,-145.58 541.12,-136.14"/>
<polygon fill="#63b8ff" stroke="#63b8ff" points="543.23,-133.33 533.49,-129.17 538.51,-138.5 543.23,-133.33"/>
</g>
<!-- Node20&#45;&gt;Node3 -->
<g id="edge24" class="edge">
<title>Node20&#45;&gt;Node3</title>
<path fill="none" stroke="#63b8ff" d="M650.83,-109.98C638.23,-101.84 619,-89.41 604.06,-79.76"/>
<polygon fill="#63b8ff" stroke="#63b8ff" points="605.71,-76.66 595.41,-74.17 601.91,-82.54 605.71,-76.66"/>
</g>
<!-- Node24&#45;&gt;Node17 -->
<g id="edge29" class="edge">
<title>Node24&#45;&gt;Node17</title>
<path fill="none" stroke="#63b8ff" d="M432.13,-184.09C433.64,-190.99 434.09,-200.93 433.49,-209.66"/>
<polygon fill="#63b8ff" stroke="#63b8ff" points="430,-209.38 432.17,-219.75 436.94,-210.29 430,-209.38"/>
</g>
</g>
</svg>
