<?xml version="1.0" encoding="UTF-8" standalone="no"?>
<!DOCTYPE svg PUBLIC "-//W3C//DTD SVG 1.1//EN"
 "http://www.w3.org/Graphics/SVG/1.1/DTD/svg11.dtd">
<!-- Generated by graphviz version 6.0.1 (0)
 -->
<!-- Title: PDSS.h Pages: 1 -->
<!--zoomable 137 -->
<svg id="main" version="1.1" xmlns="http://www.w3.org/2000/svg" xmlns:xlink="http://www.w3.org/1999/xlink" xml:space="preserve" onload="init(evt)">
<style type="text/css"><![CDATA[
.edge:hover path { stroke: red; }
.edge:hover polygon { stroke: red; fill: red; }
]]></style>
<script type="text/javascript"><![CDATA[
var edges = document.getElementsByTagName('g');
if (edges && edges.length) {
  for (var i=0;i<edges.length;i++) {
    if (edges[i].id.substr(0,4)=='edge') {
      edges[i].setAttribute('class','edge');
    }
  }
}
]]></script>
        <defs>
                <circle id="rim" cx="0" cy="0" r="7"/>
                <circle id="rim2" cx="0" cy="0" r="3.5"/>
                <g id="zoomPlus">
                        <use xlink:href="#rim" fill="#404040">
                                <set attributeName="fill" to="#808080" begin="zoomplus.mouseover" end="zoomplus.mouseout"/>
                        </use>
                        <path d="M-4,0h8M0,-4v8" fill="none" stroke="white" stroke-width="1.5" pointer-events="none"/>
                </g>
                <g id="zoomMin">
                        <use xlink:href="#rim" fill="#404040">
                                <set attributeName="fill" to="#808080" begin="zoomminus.mouseover" end="zoomminus.mouseout"/>
                        </use>
                        <path d="M-4,0h8" fill="none" stroke="white" stroke-width="1.5" pointer-events="none"/>
                </g>
                <g id="dirArrow">
                        <path fill="none" stroke="white" stroke-width="1.5" d="M0,-3.0v7 M-2.5,-0.5L0,-3.0L2.5,-0.5"/>
                </g>
               <g id="resetDef">
                       <use xlink:href="#rim2" fill="#404040">
                               <set attributeName="fill" to="#808080" begin="reset.mouseover" end="reset.mouseout"/>
                       </use>
               </g>
        </defs>

<script type="text/javascript">
var viewWidth = 1770;
var viewHeight = 137;
var sectionId = 'dynsection-1';
</script>
<script xlink:href="../../svgpan.js"/>
<svg id="graph" class="graph">
<g id="viewport">
<title>PDSS.h</title>
<!-- Node1 -->
<g id="node1" class="node">
<title>Node1</title>
<g id="a_node1"><a xlink:title="Declarations for the virtual base class PDSS (pressure dependent standard state) which handles calcul...">
<polygon fill="#999999" stroke="#666666" points="838,-129 785,-129 785,-110 838,-110 838,-129"/>
<text text-anchor="middle" x="811.5" y="-117" font-family="Helvetica,sans-Serif" font-size="10.00">PDSS.h</text>
</a>
</g>
</g>
<!-- Node2 -->
<g id="node2" class="node">
<title>Node2</title>
<g id="a_node2"><a xlink:href="../../d4/d20/BinarySolutionTabulatedThermo_8cpp.html" target="_top" xlink:title="Implementation file for an binary solution model with tabulated standard state thermodynamic data (se...">
<polygon fill="white" stroke="#666666" points="173,-74 0,-74 0,-55 173,-55 173,-74"/>
<text text-anchor="middle" x="86.5" y="-62" font-family="Helvetica,sans-Serif" font-size="10.00">BinarySolutionTabulatedThermo.cpp</text>
</a>
</g>
</g>
<!-- Node1&#45;&gt;Node2 -->
<g id="edge1" class="edge">
<title>Node1&#45;&gt;Node2</title>
<path fill="none" stroke="#63b8ff" d="M774.59,-116.14C677.46,-109.86 406.68,-92.03 181.5,-74 178.78,-73.78 176.01,-73.56 173.22,-73.33"/>
<polygon fill="#63b8ff" stroke="#63b8ff" points="774.57,-119.64 784.77,-116.79 775.02,-112.66 774.57,-119.64"/>
</g>
<!-- Node3 -->
<g id="node3" class="node">
<title>Node3</title>
<g id="a_node3"><a xlink:href="../../d3/d32/IdealMolalSoln_8cpp.html" target="_top" xlink:title="ThermoPhase object for the ideal molal equation of state (see Thermodynamic Properties and class Idea...">
<polygon fill="white" stroke="#666666" points="290,-74 191,-74 191,-55 290,-55 290,-74"/>
<text text-anchor="middle" x="240.5" y="-62" font-family="Helvetica,sans-Serif" font-size="10.00">IdealMolalSoln.cpp</text>
</a>
</g>
</g>
<!-- Node1&#45;&gt;Node3 -->
<g id="edge2" class="edge">
<title>Node1&#45;&gt;Node3</title>
<path fill="none" stroke="#63b8ff" d="M774.63,-116.05C690.22,-110.28 476.47,-94.74 298.5,-74 295.77,-73.68 292.97,-73.34 290.15,-72.97"/>
<polygon fill="#63b8ff" stroke="#63b8ff" points="774.53,-119.55 784.74,-116.74 775,-112.57 774.53,-119.55"/>
</g>
<!-- Node4 -->
<g id="node4" class="node">
<title>Node4</title>
<g id="a_node4"><a xlink:href="../../d6/d7f/IdealSolnGasVPSS_8cpp.html" target="_top" xlink:title="Definition file for a derived class of ThermoPhase that assumes an ideal solution approximation and h...">
<polygon fill="white" stroke="#666666" points="429,-74 308,-74 308,-55 429,-55 429,-74"/>
<text text-anchor="middle" x="368.5" y="-62" font-family="Helvetica,sans-Serif" font-size="10.00">IdealSolnGasVPSS.cpp</text>
</a>
</g>
</g>
<!-- Node1&#45;&gt;Node4 -->
<g id="edge3" class="edge">
<title>Node1&#45;&gt;Node4</title>
<path fill="none" stroke="#63b8ff" d="M774.67,-114.17C707.6,-106.27 561.04,-88.96 437.5,-74 434.74,-73.67 431.93,-73.32 429.08,-72.98"/>
<polygon fill="#63b8ff" stroke="#63b8ff" points="774.4,-117.66 784.74,-115.35 775.22,-110.71 774.4,-117.66"/>
</g>
<!-- Node5 -->
<g id="node5" class="node">
<title>Node5</title>
<g id="a_node5"><a xlink:href="../../d3/d3c/PDSS_8cpp.html" target="_top" xlink:title="Implementation of a pressure dependent standard state virtual function (see class PDSS).">
<polygon fill="white" stroke="#666666" points="510,-74 447,-74 447,-55 510,-55 510,-74"/>
<text text-anchor="middle" x="478.5" y="-62" font-family="Helvetica,sans-Serif" font-size="10.00">PDSS.cpp</text>
</a>
</g>
</g>
<!-- Node1&#45;&gt;Node5 -->
<g id="edge4" class="edge">
<title>Node1&#45;&gt;Node5</title>
<path fill="none" stroke="#63b8ff" d="M774.81,-113.55C719.37,-105.92 611.01,-90.45 519.5,-74 516.49,-73.46 513.37,-72.87 510.25,-72.26"/>
<polygon fill="#63b8ff" stroke="#63b8ff" points="774.47,-117.03 784.85,-114.92 775.42,-110.1 774.47,-117.03"/>
</g>
<!-- Node6 -->
<g id="node6" class="node">
<title>Node6</title>
<g id="a_node6"><a xlink:href="../../db/d8c/PDSSFactory_8h.html" target="_top" xlink:title=" ">
<polygon fill="white" stroke="#666666" points="612.5,-74 528.5,-74 528.5,-55 612.5,-55 612.5,-74"/>
<text text-anchor="middle" x="570.5" y="-62" font-family="Helvetica,sans-Serif" font-size="10.00">PDSSFactory.h</text>
</a>
</g>
</g>
<!-- Node1&#45;&gt;Node6 -->
<g id="edge5" class="edge">
<title>Node1&#45;&gt;Node6</title>
<path fill="none" stroke="#63b8ff" d="M774.93,-110.46C730.23,-100.63 654.91,-84.06 609.25,-74.02"/>
<polygon fill="#63b8ff" stroke="#63b8ff" points="774.27,-113.9 784.79,-112.63 775.77,-107.06 774.27,-113.9"/>
</g>
<!-- Node9 -->
<g id="node9" class="node">
<title>Node9</title>
<g id="a_node9"><a xlink:href="../../d1/d0f/PDSS__ConstVol_8h.html" target="_top" xlink:title="Declarations for the class PDSS_ConstVol (pressure dependent standard state) which handles calculatio...">
<polygon fill="white" stroke="#666666" points="1097.5,-74 999.5,-74 999.5,-55 1097.5,-55 1097.5,-74"/>
<text text-anchor="middle" x="1048.5" y="-62" font-family="Helvetica,sans-Serif" font-size="10.00">PDSS_ConstVol.h</text>
</a>
</g>
</g>
<!-- Node1&#45;&gt;Node9 -->
<g id="edge8" class="edge">
<title>Node1&#45;&gt;Node9</title>
<path fill="none" stroke="#63b8ff" d="M848.2,-110.29C892.17,-100.46 965.47,-84.07 1010.15,-74.08"/>
<polygon fill="#63b8ff" stroke="#63b8ff" points="847.22,-106.93 838.23,-112.52 848.75,-113.76 847.22,-106.93"/>
</g>
<!-- Node12 -->
<g id="node12" class="node">
<title>Node12</title>
<g id="a_node12"><a xlink:href="../../db/df3/PDSS__HKFT_8h.html" target="_top" xlink:title="Declarations for the class PDSS_HKFT (pressure dependent standard state) which handles calculations f...">
<polygon fill="white" stroke="#666666" points="1199,-74 1116,-74 1116,-55 1199,-55 1199,-74"/>
<text text-anchor="middle" x="1157.5" y="-62" font-family="Helvetica,sans-Serif" font-size="10.00">PDSS_HKFT.h</text>
</a>
</g>
</g>
<!-- Node1&#45;&gt;Node12 -->
<g id="edge12" class="edge">
<title>Node1&#45;&gt;Node12</title>
<path fill="none" stroke="#63b8ff" d="M848.49,-113.11C904.4,-104.91 1013.75,-88.72 1106.5,-74 1109.51,-73.52 1112.63,-73.02 1115.76,-72.51"/>
<polygon fill="#63b8ff" stroke="#63b8ff" points="847.75,-109.68 838.37,-114.59 848.77,-116.6 847.75,-109.68"/>
</g>
<!-- Node14 -->
<g id="node14" class="node">
<title>Node14</title>
<g id="a_node14"><a xlink:href="../../de/dea/PDSS__IdealGas_8h.html" target="_top" xlink:title="Declarations for the class PDSS_IdealGas (pressure dependent standard state) which handles calculatio...">
<polygon fill="white" stroke="#666666" points="728,-74 631,-74 631,-55 728,-55 728,-74"/>
<text text-anchor="middle" x="679.5" y="-62" font-family="Helvetica,sans-Serif" font-size="10.00">PDSS_IdealGas.h</text>
</a>
</g>
</g>
<!-- Node1&#45;&gt;Node14 -->
<g id="edge15" class="edge">
<title>Node1&#45;&gt;Node14</title>
<path fill="none" stroke="#63b8ff" d="M780.77,-106.16C756.33,-96.35 722.76,-82.87 701.09,-74.17"/>
<polygon fill="#63b8ff" stroke="#63b8ff" points="779.71,-109.51 790.29,-109.98 782.32,-103.01 779.71,-109.51"/>
</g>
<!-- Node16 -->
<g id="node16" class="node">
<title>Node16</title>
<g id="a_node16"><a xlink:href="../../de/df8/PDSS__IonsFromNeutral_8h.html" target="_top" xlink:title="Declarations for the class PDSS_IonsFromNeutral ( which handles calculations for a single ion in a fl...">
<polygon fill="white" stroke="#666666" points="877,-74 746,-74 746,-55 877,-55 877,-74"/>
<text text-anchor="middle" x="811.5" y="-62" font-family="Helvetica,sans-Serif" font-size="10.00">PDSS_IonsFromNeutral.h</text>
</a>
</g>
</g>
<!-- Node1&#45;&gt;Node16 -->
<g id="edge18" class="edge">
<title>Node1&#45;&gt;Node16</title>
<path fill="none" stroke="#63b8ff" d="M811.5,-99.66C811.5,-90.93 811.5,-80.99 811.5,-74.09"/>
<polygon fill="#63b8ff" stroke="#63b8ff" points="808,-99.75 811.5,-109.75 815,-99.75 808,-99.75"/>
</g>
<!-- Node19 -->
<g id="node19" class="node">
<title>Node19</title>
<g id="a_node19"><a xlink:href="../../d0/db8/PDSS__SSVol_8h.html" target="_top" xlink:title="Declarations for the class PDSS_SSVol (pressure dependent standard state) which handles calculations ...">
<polygon fill="white" stroke="#666666" points="981.5,-74 895.5,-74 895.5,-55 981.5,-55 981.5,-74"/>
<text text-anchor="middle" x="938.5" y="-62" font-family="Helvetica,sans-Serif" font-size="10.00">PDSS_SSVol.h</text>
</a>
</g>
</g>
<!-- Node1&#45;&gt;Node19 -->
<g id="edge22" class="edge">
<title>Node1&#45;&gt;Node19</title>
<path fill="none" stroke="#63b8ff" d="M841.38,-106.03C864.87,-96.23 896.97,-82.83 917.72,-74.17"/>
<polygon fill="#63b8ff" stroke="#63b8ff" points="839.79,-102.9 831.9,-109.98 842.48,-109.36 839.79,-102.9"/>
</g>
<!-- Node21 -->
<g id="node21" class="node">
<title>Node21</title>
<g id="a_node21"><a xlink:href="../../d8/d6d/PDSS__Water_8h.html" target="_top" xlink:title="Implementation of a pressure dependent standard state virtual function for a Pure Water Phase (see Sp...">
<polygon fill="white" stroke="#666666" points="1311,-74 1228,-74 1228,-55 1311,-55 1311,-74"/>
<text text-anchor="middle" x="1269.5" y="-62" font-family="Helvetica,sans-Serif" font-size="10.00">PDSS_Water.h</text>
</a>
</g>
</g>
<!-- Node1&#45;&gt;Node21 -->
<g id="edge25" class="edge">
<title>Node1&#45;&gt;Node21</title>
<path fill="none" stroke="#63b8ff" d="M848.09,-114.73C918.12,-107.44 1075.96,-90.66 1208.5,-74 1214.76,-73.21 1221.37,-72.34 1227.85,-71.46"/>
<polygon fill="#63b8ff" stroke="#63b8ff" points="847.6,-111.26 838.01,-115.78 848.32,-118.23 847.6,-111.26"/>
</g>
<!-- Node26 -->
<g id="node26" class="node">
<title>Node26</title>
<g id="a_node26"><a xlink:href="../../d1/dea/SpeciesThermoInterpType_8cpp.html" target="_top" xlink:title=" ">
<polygon fill="white" stroke="#666666" points="1478,-74 1329,-74 1329,-55 1478,-55 1478,-74"/>
<text text-anchor="middle" x="1403.5" y="-62" font-family="Helvetica,sans-Serif" font-size="10.00">SpeciesThermoInterpType.cpp</text>
</a>
</g>
</g>
<!-- Node1&#45;&gt;Node26 -->
<g id="edge33" class="edge">
<title>Node1&#45;&gt;Node26</title>
<path fill="none" stroke="#63b8ff" d="M848.02,-115.49C931.66,-108.57 1143.51,-90.8 1320.5,-74 1323.24,-73.74 1326.03,-73.47 1328.85,-73.2"/>
<polygon fill="#63b8ff" stroke="#63b8ff" points="847.68,-112.01 838.01,-116.32 848.26,-118.99 847.68,-112.01"/>
</g>
<!-- Node27 -->
<g id="node27" class="node">
<title>Node27</title>
<g id="a_node27"><a xlink:href="../../d9/da4/VPStandardStateTP_8cpp.html" target="_top" xlink:title="Definition file for a derived class of ThermoPhase that handles variable pressure standard state meth...">
<polygon fill="white" stroke="#666666" points="1618.5,-74 1496.5,-74 1496.5,-55 1618.5,-55 1618.5,-74"/>
<text text-anchor="middle" x="1557.5" y="-62" font-family="Helvetica,sans-Serif" font-size="10.00">VPStandardStateTP.cpp</text>
</a>
</g>
</g>
<!-- Node1&#45;&gt;Node27 -->
<g id="edge34" class="edge">
<title>Node1&#45;&gt;Node27</title>
<path fill="none" stroke="#63b8ff" d="M848.35,-116.79C950.2,-111.91 1244.05,-96.78 1487.5,-74 1490.43,-73.73 1493.42,-73.43 1496.44,-73.12"/>
<polygon fill="#63b8ff" stroke="#63b8ff" points="848.09,-113.3 838.27,-117.27 848.43,-120.29 848.09,-113.3"/>
</g>
<!-- Node7 -->
<g id="node7" class="node">
<title>Node7</title>
<g id="a_node7"><a xlink:href="../../d0/d6d/PDSSFactory_8cpp.html" target="_top" xlink:title=" ">
<polygon fill="white" stroke="#666666" points="976,-19 881,-19 881,0 976,0 976,-19"/>
<text text-anchor="middle" x="928.5" y="-7" font-family="Helvetica,sans-Serif" font-size="10.00">PDSSFactory.cpp</text>
</a>
</g>
</g>
<!-- Node6&#45;&gt;Node7 -->
<g id="edge6" class="edge">
<title>Node6&#45;&gt;Node7</title>
<path fill="none" stroke="#63b8ff" d="M622.48,-54.88C734.08,-37.62 763.57,-34.82 871.5,-19 874.57,-18.55 877.73,-18.08 880.92,-17.61"/>
<polygon fill="#63b8ff" stroke="#63b8ff" points="621.86,-51.43 612.51,-56.42 622.93,-58.35 621.86,-51.43"/>
</g>
<!-- Node8 -->
<g id="node8" class="node">
<title>Node8</title>
<g id="a_node8"><a xlink:href="../../d2/d3a/ThermoFactory_8cpp.html" target="_top" xlink:title="Definitions for the factory class that can create known ThermoPhase objects (see Thermodynamic Proper...">
<polygon fill="white" stroke="#666666" points="298.5,-19 198.5,-19 198.5,0 298.5,0 298.5,-19"/>
<text text-anchor="middle" x="248.5" y="-7" font-family="Helvetica,sans-Serif" font-size="10.00">ThermoFactory.cpp</text>
</a>
</g>
</g>
<!-- Node6&#45;&gt;Node8 -->
<g id="edge7" class="edge">
<title>Node6&#45;&gt;Node8</title>
<path fill="none" stroke="#63b8ff" d="M518.28,-54.9C457.62,-44.92 358.26,-28.57 298.54,-18.74"/>
<polygon fill="#63b8ff" stroke="#63b8ff" points="517.97,-58.4 528.4,-56.57 519.11,-51.49 517.97,-58.4"/>
</g>
<!-- Node9&#45;&gt;Node7 -->
<g id="edge10" class="edge">
<title>Node9&#45;&gt;Node7</title>
<path fill="none" stroke="#63b8ff" d="M1019.97,-50.9C997.8,-41.11 967.65,-27.79 948.13,-19.17"/>
<polygon fill="#63b8ff" stroke="#63b8ff" points="1018.66,-54.15 1029.22,-54.98 1021.49,-47.74 1018.66,-54.15"/>
</g>
<!-- Node10 -->
<g id="node10" class="node">
<title>Node10</title>
<g id="a_node10"><a xlink:href="../../dc/ddc/DebyeHuckel_8cpp.html" target="_top" xlink:title="Declarations for the DebyeHuckel ThermoPhase object, which models dilute electrolyte solutions (see T...">
<polygon fill="white" stroke="#666666" points="1216,-19 1121,-19 1121,0 1216,0 1216,-19"/>
<text text-anchor="middle" x="1168.5" y="-7" font-family="Helvetica,sans-Serif" font-size="10.00">DebyeHuckel.cpp</text>
</a>
</g>
</g>
<!-- Node9&#45;&gt;Node10 -->
<g id="edge9" class="edge">
<title>Node9&#45;&gt;Node10</title>
<path fill="none" stroke="#63b8ff" d="M1077.03,-50.9C1099.2,-41.11 1129.35,-27.79 1148.87,-19.17"/>
<polygon fill="#63b8ff" stroke="#63b8ff" points="1075.51,-47.74 1067.78,-54.98 1078.34,-54.15 1075.51,-47.74"/>
</g>
<!-- Node11 -->
<g id="node11" class="node">
<title>Node11</title>
<g id="a_node11"><a xlink:href="../../da/d94/PDSS__ConstVol_8cpp.html" target="_top" xlink:title="Implementation of a pressure dependent standard state virtual function.">
<polygon fill="white" stroke="#666666" points="1103,-19 994,-19 994,0 1103,0 1103,-19"/>
<text text-anchor="middle" x="1048.5" y="-7" font-family="Helvetica,sans-Serif" font-size="10.00">PDSS_ConstVol.cpp</text>
</a>
</g>
</g>
<!-- Node9&#45;&gt;Node11 -->
<g id="edge11" class="edge">
<title>Node9&#45;&gt;Node11</title>
<path fill="none" stroke="#63b8ff" d="M1048.5,-44.66C1048.5,-35.93 1048.5,-25.99 1048.5,-19.09"/>
<polygon fill="#63b8ff" stroke="#63b8ff" points="1045,-44.75 1048.5,-54.75 1052,-44.75 1045,-44.75"/>
</g>
<!-- Node12&#45;&gt;Node7 -->
<g id="edge13" class="edge">
<title>Node12&#45;&gt;Node7</title>
<path fill="none" stroke="#63b8ff" d="M1110.79,-52.69C1067.89,-42.76 1005.14,-28.24 965.58,-19.08"/>
<polygon fill="#63b8ff" stroke="#63b8ff" points="1110.18,-56.14 1120.71,-54.98 1111.75,-49.32 1110.18,-56.14"/>
</g>
<!-- Node13 -->
<g id="node13" class="node">
<title>Node13</title>
<g id="a_node13"><a xlink:href="../../d1/d3f/PDSS__HKFT_8cpp.html" target="_top" xlink:title="Definitions for the class PDSS_HKFT (pressure dependent standard state) which handles calculations fo...">
<polygon fill="white" stroke="#666666" points="1327,-19 1234,-19 1234,0 1327,0 1327,-19"/>
<text text-anchor="middle" x="1280.5" y="-7" font-family="Helvetica,sans-Serif" font-size="10.00">PDSS_HKFT.cpp</text>
</a>
</g>
</g>
<!-- Node12&#45;&gt;Node13 -->
<g id="edge14" class="edge">
<title>Node12&#45;&gt;Node13</title>
<path fill="none" stroke="#63b8ff" d="M1186.75,-50.9C1209.47,-41.11 1240.37,-27.79 1260.38,-19.17"/>
<polygon fill="#63b8ff" stroke="#63b8ff" points="1185.06,-47.81 1177.26,-54.98 1187.83,-54.24 1185.06,-47.81"/>
</g>
<!-- Node14&#45;&gt;Node7 -->
<g id="edge16" class="edge">
<title>Node14&#45;&gt;Node7</title>
<path fill="none" stroke="#63b8ff" d="M729.4,-52.88C776.07,-42.94 844.89,-28.3 888.18,-19.08"/>
<polygon fill="#63b8ff" stroke="#63b8ff" points="728.56,-49.48 719.51,-54.98 730.02,-56.33 728.56,-49.48"/>
</g>
<!-- Node15 -->
<g id="node15" class="node">
<title>Node15</title>
<g id="a_node15"><a xlink:href="../../d3/d44/PDSS__IdealGas_8cpp.html" target="_top" xlink:title="Implementation of a pressure dependent standard state virtual function.">
<polygon fill="white" stroke="#666666" points="424,-19 317,-19 317,0 424,0 424,-19"/>
<text text-anchor="middle" x="370.5" y="-7" font-family="Helvetica,sans-Serif" font-size="10.00">PDSS_IdealGas.cpp</text>
</a>
</g>
</g>
<!-- Node14&#45;&gt;Node15 -->
<g id="edge17" class="edge">
<title>Node14&#45;&gt;Node15</title>
<path fill="none" stroke="#63b8ff" d="M620.75,-53.42C562.68,-43.46 474.79,-28.39 420.12,-19.01"/>
<polygon fill="#63b8ff" stroke="#63b8ff" points="620.43,-56.92 630.88,-55.16 621.61,-50.02 620.43,-56.92"/>
</g>
<!-- Node16&#45;&gt;Node7 -->
<g id="edge20" class="edge">
<title>Node16&#45;&gt;Node7</title>
<path fill="none" stroke="#63b8ff" d="M839.61,-50.77C861.19,-40.99 890.41,-27.75 909.36,-19.17"/>
<polygon fill="#63b8ff" stroke="#63b8ff" points="837.96,-47.67 830.3,-54.98 840.85,-54.05 837.96,-47.67"/>
</g>
<!-- Node17 -->
<g id="node17" class="node">
<title>Node17</title>
<g id="a_node17"><a xlink:href="../../db/dcc/IonsFromNeutralVPSSTP_8cpp.html" target="_top" xlink:title="Definitions for the object which treats ionic liquids as made of ions as species even though the ther...">
<polygon fill="white" stroke="#666666" points="588.5,-19 442.5,-19 442.5,0 588.5,0 588.5,-19"/>
<text text-anchor="middle" x="515.5" y="-7" font-family="Helvetica,sans-Serif" font-size="10.00">IonsFromNeutralVPSSTP.cpp</text>
</a>
</g>
</g>
<!-- Node16&#45;&gt;Node17 -->
<g id="edge19" class="edge">
<title>Node16&#45;&gt;Node17</title>
<path fill="none" stroke="#63b8ff" d="M753.91,-53.19C698.42,-43.25 615.43,-28.39 563.43,-19.08"/>
<polygon fill="#63b8ff" stroke="#63b8ff" points="753.48,-56.67 763.94,-54.98 754.72,-49.78 753.48,-56.67"/>
</g>
<!-- Node18 -->
<g id="node18" class="node">
<title>Node18</title>
<g id="a_node18"><a xlink:href="../../dc/dc2/PDSS__IonsFromNeutral_8cpp.html" target="_top" xlink:title="Implementation of a pressure dependent standard state virtual function.">
<polygon fill="white" stroke="#666666" points="748,-19 607,-19 607,0 748,0 748,-19"/>
<text text-anchor="middle" x="677.5" y="-7" font-family="Helvetica,sans-Serif" font-size="10.00">PDSS_IonsFromNeutral.cpp</text>
</a>
</g>
</g>
<!-- Node16&#45;&gt;Node18 -->
<g id="edge21" class="edge">
<title>Node16&#45;&gt;Node18</title>
<path fill="none" stroke="#63b8ff" d="M780.63,-51.29C755.8,-41.47 721.51,-27.91 699.42,-19.17"/>
<polygon fill="#63b8ff" stroke="#63b8ff" points="779.38,-54.56 789.97,-54.98 781.96,-48.05 779.38,-54.56"/>
</g>
<!-- Node19&#45;&gt;Node7 -->
<g id="edge23" class="edge">
<title>Node19&#45;&gt;Node7</title>
<path fill="none" stroke="#63b8ff" d="M934.95,-44.66C933.3,-35.93 931.42,-25.99 930.12,-19.09"/>
<polygon fill="#63b8ff" stroke="#63b8ff" points="931.56,-45.57 936.85,-54.75 938.43,-44.27 931.56,-45.57"/>
</g>
<!-- Node20 -->
<g id="node20" class="node">
<title>Node20</title>
<g id="a_node20"><a xlink:href="../../d2/d42/PDSS__SSVol_8cpp.html" target="_top" xlink:title="Implementation of a pressure dependent standard state virtual function.">
<polygon fill="white" stroke="#666666" points="862.5,-19 766.5,-19 766.5,0 862.5,0 862.5,-19"/>
<text text-anchor="middle" x="814.5" y="-7" font-family="Helvetica,sans-Serif" font-size="10.00">PDSS_SSVol.cpp</text>
</a>
</g>
</g>
<!-- Node19&#45;&gt;Node20 -->
<g id="edge24" class="edge">
<title>Node19&#45;&gt;Node20</title>
<path fill="none" stroke="#63b8ff" d="M909.32,-51.03C886.39,-41.23 855.05,-27.83 834.79,-19.17"/>
<polygon fill="#63b8ff" stroke="#63b8ff" points="908.01,-54.27 918.58,-54.98 910.76,-47.84 908.01,-54.27"/>
</g>
<!-- Node21&#45;&gt;Node7 -->
<g id="edge28" class="edge">
<title>Node21&#45;&gt;Node7</title>
<path fill="none" stroke="#63b8ff" d="M1217.56,-55.43C1151.88,-45.22 1039.71,-27.78 976.14,-17.9"/>
<polygon fill="#63b8ff" stroke="#63b8ff" points="1217.27,-58.92 1227.69,-57 1218.34,-52.01 1217.27,-58.92"/>
</g>
<!-- Node21&#45;&gt;Node10 -->
<g id="edge26" class="edge">
<title>Node21&#45;&gt;Node10</title>
<path fill="none" stroke="#63b8ff" d="M1244.22,-50.23C1225.7,-40.51 1201.08,-27.6 1185.02,-19.17"/>
<polygon fill="#63b8ff" stroke="#63b8ff" points="1242.79,-53.44 1253.27,-54.98 1246.04,-47.24 1242.79,-53.44"/>
</g>
<!-- Node21&#45;&gt;Node13 -->
<g id="edge29" class="edge">
<title>Node21&#45;&gt;Node13</title>
<path fill="none" stroke="#63b8ff" d="M1273.35,-44.95C1275.18,-36.15 1277.27,-26.06 1278.72,-19.09"/>
<polygon fill="#63b8ff" stroke="#63b8ff" points="1269.92,-44.25 1271.32,-54.75 1276.78,-45.67 1269.92,-44.25"/>
</g>
<!-- Node22 -->
<g id="node22" class="node">
<title>Node22</title>
<g id="a_node22"><a xlink:href="../../d0/d0e/HMWSoln_8cpp.html" target="_top" xlink:title="Definitions for the HMWSoln ThermoPhase object, which models concentrated electrolyte solutions (see ...">
<polygon fill="white" stroke="#666666" points="1545.5,-19 1465.5,-19 1465.5,0 1545.5,0 1545.5,-19"/>
<text text-anchor="middle" x="1505.5" y="-7" font-family="Helvetica,sans-Serif" font-size="10.00">HMWSoln.cpp</text>
</a>
</g>
</g>
<!-- Node21&#45;&gt;Node22 -->
<g id="edge27" class="edge">
<title>Node21&#45;&gt;Node22</title>
<path fill="none" stroke="#63b8ff" d="M1317.35,-52.75C1361.58,-42.82 1426.43,-28.26 1467.29,-19.08"/>
<polygon fill="#63b8ff" stroke="#63b8ff" points="1316.41,-49.38 1307.42,-54.98 1317.94,-56.21 1316.41,-49.38"/>
</g>
<!-- Node23 -->
<g id="node23" class="node">
<title>Node23</title>
<g id="a_node23"><a xlink:href="../../d2/db8/PDSS__Water_8cpp.html" target="_top" xlink:title=" ">
<polygon fill="white" stroke="#666666" points="1657,-19 1564,-19 1564,0 1657,0 1657,-19"/>
<text text-anchor="middle" x="1610.5" y="-7" font-family="Helvetica,sans-Serif" font-size="10.00">PDSS_Water.cpp</text>
</a>
</g>
</g>
<!-- Node21&#45;&gt;Node23 -->
<g id="edge30" class="edge">
<title>Node21&#45;&gt;Node23</title>
<path fill="none" stroke="#63b8ff" d="M1321.29,-54.9C1380.69,-45.48 1498.18,-27.57 1563.86,-17.58"/>
<polygon fill="#63b8ff" stroke="#63b8ff" points="1320.57,-51.47 1311.24,-56.5 1321.67,-58.38 1320.57,-51.47"/>
</g>
<!-- Node24 -->
<g id="node24" class="node">
<title>Node24</title>
<g id="a_node24"><a xlink:href="../../d4/d61/WaterProps_8cpp.html" target="_top" xlink:title=" ">
<polygon fill="white" stroke="#666666" points="1761.5,-19 1675.5,-19 1675.5,0 1761.5,0 1761.5,-19"/>
<text text-anchor="middle" x="1718.5" y="-7" font-family="Helvetica,sans-Serif" font-size="10.00">WaterProps.cpp</text>
</a>
</g>
</g>
<!-- Node21&#45;&gt;Node24 -->
<g id="edge31" class="edge">
<title>Node21&#45;&gt;Node24</title>
<path fill="none" stroke="#63b8ff" d="M1321.52,-54.95C1475.46,-34.49 1516.55,-39.04 1666.5,-19 1669.4,-18.61 1672.39,-18.19 1675.4,-17.74"/>
<polygon fill="#63b8ff" stroke="#63b8ff" points="1320.66,-51.53 1311.22,-56.33 1321.59,-58.47 1320.66,-51.53"/>
</g>
<!-- Node25 -->
<g id="node25" class="node">
<title>Node25</title>
<g id="a_node25"><a xlink:href="../../d7/d8a/WaterTransport_8cpp.html" target="_top" xlink:title=" ">
<polygon fill="white" stroke="#666666" points="1447.5,-19 1345.5,-19 1345.5,0 1447.5,0 1447.5,-19"/>
<text text-anchor="middle" x="1396.5" y="-7" font-family="Helvetica,sans-Serif" font-size="10.00">WaterTransport.cpp</text>
</a>
</g>
</g>
<!-- Node21&#45;&gt;Node25 -->
<g id="edge32" class="edge">
<title>Node21&#45;&gt;Node25</title>
<path fill="none" stroke="#63b8ff" d="M1299.38,-51.03C1322.87,-41.23 1354.97,-27.83 1375.72,-19.17"/>
<polygon fill="#63b8ff" stroke="#63b8ff" points="1297.79,-47.9 1289.9,-54.98 1300.48,-54.36 1297.79,-47.9"/>
</g>
</g>
</svg>
        <g id="navigator" transform="translate(0 0)" fill="#404254">
                <rect fill="#f2f5e9" fill-opacity="0.5" stroke="#606060" stroke-width=".5" x="0" y="0" width="60" height="60"/>
                <use id="zoomplus" xlink:href="#zoomPlus" x="17" y="9" onmousedown="handleZoom(evt,'in')"/>
                <use id="zoomminus" xlink:href="#zoomMin" x="42" y="9" onmousedown="handleZoom(evt,'out')"/>
                <use id="reset" xlink:href="#resetDef" x="30" y="36" onmousedown="handleReset()"/>
                <g id="arrowUp" xlink:href="#dirArrow" transform="translate(30 24)" onmousedown="handlePan(0,-1)">
                  <use xlink:href="#rim" fill="#404040">
                        <set attributeName="fill" to="#808080" begin="arrowUp.mouseover" end="arrowUp.mouseout"/>
                  </use>
                  <path fill="none" stroke="white" stroke-width="1.5" d="M0,-3.0v7 M-2.5,-0.5L0,-3.0L2.5,-0.5"/>
                </g>
                <g id="arrowRight" xlink:href="#dirArrow" transform="rotate(90) translate(36 -43)" onmousedown="handlePan(1,0)">
                  <use xlink:href="#rim" fill="#404040">
                        <set attributeName="fill" to="#808080" begin="arrowRight.mouseover" end="arrowRight.mouseout"/>
                  </use>
                  <path fill="none" stroke="white" stroke-width="1.5" d="M0,-3.0v7 M-2.5,-0.5L0,-3.0L2.5,-0.5"/>
                </g>
                <g id="arrowDown" xlink:href="#dirArrow" transform="rotate(180) translate(-30 -48)" onmousedown="handlePan(0,1)">
                  <use xlink:href="#rim" fill="#404040">
                        <set attributeName="fill" to="#808080" begin="arrowDown.mouseover" end="arrowDown.mouseout"/>
                  </use>
                  <path fill="none" stroke="white" stroke-width="1.5" d="M0,-3.0v7 M-2.5,-0.5L0,-3.0L2.5,-0.5"/>
                </g>
                <g id="arrowLeft" xlink:href="#dirArrow" transform="rotate(270) translate(-36 17)" onmousedown="handlePan(-1,0)">
                  <use xlink:href="#rim" fill="#404040">
                        <set attributeName="fill" to="#808080" begin="arrowLeft.mouseover" end="arrowLeft.mouseout"/>
                  </use>
                  <path fill="none" stroke="white" stroke-width="1.5" d="M0,-3.0v7 M-2.5,-0.5L0,-3.0L2.5,-0.5"/>
                </g>
        </g>
        <svg viewBox="0 0 15 15" width="100%" height="30px" preserveAspectRatio="xMaxYMin meet">
         <g id="arrow_out" transform="scale(0.3 0.3)">
          <a xlink:href="PDSS_8h__dep__incl_org.svg" target="_base">
           <rect id="button" ry="5" rx="5" y="6" x="6" height="38" width="38"
                fill="#f2f5e9" fill-opacity="0.5" stroke="#606060" stroke-width="1.0"/>
           <path id="arrow"
             d="M 11.500037,31.436501 C 11.940474,20.09759 22.043105,11.32322 32.158766,21.979434 L 37.068811,17.246167 C 37.068811,17.246167 37.088388,32 37.088388,32 L 22.160133,31.978069 C 22.160133,31.978069 26.997745,27.140456 26.997745,27.140456 C 18.528582,18.264221 13.291696,25.230495 11.500037,31.436501 z"
             style="fill:#404040;"/>
          </a>
         </g>
        </svg>
</svg>
