<?xml version="1.0" encoding="UTF-8" standalone="no"?>
<!DOCTYPE svg PUBLIC "-//W3C//DTD SVG 1.1//EN"
 "http://www.w3.org/Graphics/SVG/1.1/DTD/svg11.dtd">
<!-- Generated by graphviz version 2.50.0 (0)
 -->
<!-- Title: ReactionFactory Pages: 1 -->
<svg width="237pt" height="231pt"
 viewBox="0.00 0.00 236.50 231.00" xmlns="http://www.w3.org/2000/svg" xmlns:xlink="http://www.w3.org/1999/xlink">
<g id="graph0" class="graph" transform="scale(1 1) rotate(0) translate(4 227)">
<title>ReactionFactory</title>
<polygon fill="white" stroke="transparent" points="-4,4 -4,-227 232.5,-227 232.5,4 -4,4"/>
<!-- Node1 -->
<g id="node1" class="node">
<title>Node1</title>
<g id="a_node1"><a xlink:title="Factory class to construct reaction function calculators.">
<polygon fill="#bfbfbf" stroke="black" points="20.5,-0.5 20.5,-19.5 109.5,-19.5 109.5,-0.5 20.5,-0.5"/>
<text text-anchor="middle" x="65" y="-7.5" font-family="Helvetica,sans-Serif" font-size="10.00">ReactionFactory</text>
</a>
</g>
</g>
<!-- Node2 -->
<g id="node2" class="node">
<title>Node2</title>
<g id="a_node2"><a xlink:href="../../dc/dd4/classCantera_1_1Factory.html" target="_top" xlink:title=" ">
<polygon fill="white" stroke="black" points="0,-124.5 0,-165.5 122,-165.5 122,-124.5 0,-124.5"/>
<text text-anchor="start" x="8" y="-153.5" font-family="Helvetica,sans-Serif" font-size="10.00">Factory&lt; Reaction,</text>
<text text-anchor="start" x="8" y="-142.5" font-family="Helvetica,sans-Serif" font-size="10.00"> const AnyMap &amp;, const</text>
<text text-anchor="middle" x="61" y="-131.5" font-family="Helvetica,sans-Serif" font-size="10.00"> Kinetics &amp; &gt;</text>
</a>
</g>
</g>
<!-- Node2&#45;&gt;Node1 -->
<g id="edge1" class="edge">
<title>Node2&#45;&gt;Node1</title>
<path fill="none" stroke="midnightblue" d="M61.89,-114.33C62.8,-83.99 64.17,-38.71 64.74,-19.79"/>
<polygon fill="midnightblue" stroke="midnightblue" points="58.39,-114.27 61.59,-124.38 65.39,-114.49 58.39,-114.27"/>
</g>
<!-- Node4 -->
<g id="node4" class="node">
<title>Node4</title>
<g id="a_node4"><a xlink:href="../../d2/dae/classCantera_1_1ReactionFactory.html" target="_top" xlink:title="Factory class to construct reaction function calculators.">
<polygon fill="white" stroke="black" points="77.5,-67.5 77.5,-86.5 166.5,-86.5 166.5,-67.5 77.5,-67.5"/>
<text text-anchor="middle" x="122" y="-74.5" font-family="Helvetica,sans-Serif" font-size="10.00">ReactionFactory</text>
</a>
</g>
</g>
<!-- Node2&#45;&gt;Node4 -->
<g id="edge4" class="edge">
<title>Node2&#45;&gt;Node4</title>
<path fill="none" stroke="midnightblue" d="M86.3,-116.62C96.18,-105.93 106.81,-94.43 113.88,-86.79"/>
<polygon fill="midnightblue" stroke="midnightblue" points="83.52,-114.48 79.3,-124.2 88.66,-119.23 83.52,-114.48"/>
</g>
<!-- Node3 -->
<g id="node3" class="node">
<title>Node3</title>
<g id="a_node3"><a xlink:href="../../da/dac/classCantera_1_1FactoryBase.html" target="_top" xlink:title="Base class for factories.">
<polygon fill="white" stroke="black" points="25,-203.5 25,-222.5 97,-222.5 97,-203.5 25,-203.5"/>
<text text-anchor="middle" x="61" y="-210.5" font-family="Helvetica,sans-Serif" font-size="10.00">FactoryBase</text>
</a>
</g>
</g>
<!-- Node3&#45;&gt;Node2 -->
<g id="edge2" class="edge">
<title>Node3&#45;&gt;Node2</title>
<path fill="none" stroke="midnightblue" d="M61,-193.25C61,-184.65 61,-174.45 61,-165.74"/>
<polygon fill="midnightblue" stroke="midnightblue" points="57.5,-193.37 61,-203.37 64.5,-193.37 57.5,-193.37"/>
</g>
<!-- Node4&#45;&gt;Node1 -->
<g id="edge3" class="edge">
<title>Node4&#45;&gt;Node1</title>
<path fill="none" stroke="#9a32cd" stroke-dasharray="5,2" d="M107.65,-59.63C96.5,-46.92 81.48,-29.8 72.57,-19.63"/>
<polygon fill="#9a32cd" stroke="#9a32cd" points="105.09,-62.02 114.31,-67.23 110.35,-57.41 105.09,-62.02"/>
<text text-anchor="middle" x="118" y="-41" font-family="Helvetica,sans-Serif" font-size="10.00"> s_factory</text>
</g>
<!-- Node4&#45;&gt;Node4 -->
<g id="edge5" class="edge">
<title>Node4&#45;&gt;Node4</title>
<path fill="none" stroke="#9a32cd" stroke-dasharray="5,2" d="M176.83,-81.1C181.55,-80.23 184.5,-78.86 184.5,-77 184.5,-74.02 176.95,-72.31 166.66,-71.87"/>
<polygon fill="#9a32cd" stroke="#9a32cd" points="176.26,-77.64 166.66,-82.13 176.97,-84.6 176.26,-77.64"/>
<text text-anchor="middle" x="206.5" y="-74.5" font-family="Helvetica,sans-Serif" font-size="10.00"> s_factory</text>
</g>
</g>
</svg>
