<?xml version="1.0" encoding="UTF-8" standalone="no"?>
<!DOCTYPE svg PUBLIC "-//W3C//DTD SVG 1.1//EN"
 "http://www.w3.org/Graphics/SVG/1.1/DTD/svg11.dtd">
<!-- Generated by graphviz version 6.0.1 (0)
 -->
<!-- Title: ReactionPath.h Pages: 1 -->
<svg width="669pt" height="368pt"
 viewBox="0.00 0.00 669.00 368.00" xmlns="http://www.w3.org/2000/svg" xmlns:xlink="http://www.w3.org/1999/xlink">
<g id="graph0" class="graph" transform="scale(1 1) rotate(0) translate(4 364)">
<title>ReactionPath.h</title>
<!-- Node1 -->
<g id="node1" class="node">
<title>Node1</title>
<g id="a_node1"><a xlink:title="Classes for reaction path analysis.">
<polygon fill="#999999" stroke="#666666" points="147.5,-360 63.5,-360 63.5,-341 147.5,-341 147.5,-360"/>
<text text-anchor="middle" x="105.5" y="-348" font-family="Helvetica,sans-Serif" font-size="10.00">ReactionPath.h</text>
</a>
</g>
</g>
<!-- Node2 -->
<g id="node2" class="node">
<title>Node2</title>
<g id="a_node2"><a xlink:href="../../d1/df7/DenseMatrix_8h.html" target="_top" xlink:title="Headers for the DenseMatrix object, which deals with dense rectangular matrices and description of th...">
<polygon fill="white" stroke="#666666" points="184.5,-250 26.5,-250 26.5,-231 184.5,-231 184.5,-250"/>
<text text-anchor="middle" x="105.5" y="-238" font-family="Helvetica,sans-Serif" font-size="10.00">cantera/numerics/DenseMatrix.h</text>
</a>
</g>
</g>
<!-- Node1&#45;&gt;Node2 -->
<g id="edge1" class="edge">
<title>Node1&#45;&gt;Node2</title>
<path fill="none" stroke="#63b8ff" d="M105.5,-340.66C105.5,-323.17 105.5,-283.8 105.5,-260.27"/>
<polygon fill="#63b8ff" stroke="#63b8ff" points="109,-260.16 105.5,-250.16 102,-260.16 109,-260.16"/>
</g>
<!-- Node21 -->
<g id="node21" class="node">
<title>Node21</title>
<g id="a_node21"><a xlink:href="../../de/d3d/Group_8h.html" target="_top" xlink:title=" ">
<polygon fill="white" stroke="#666666" points="51,-305 0,-305 0,-286 51,-286 51,-305"/>
<text text-anchor="middle" x="25.5" y="-293" font-family="Helvetica,sans-Serif" font-size="10.00">Group.h</text>
</a>
</g>
</g>
<!-- Node1&#45;&gt;Node21 -->
<g id="edge23" class="edge">
<title>Node1&#45;&gt;Node21</title>
<path fill="none" stroke="#63b8ff" d="M92.65,-340.98C80.36,-332.84 61.59,-320.41 47.02,-310.76"/>
<polygon fill="#63b8ff" stroke="#63b8ff" points="48.86,-307.78 38.59,-305.17 44.99,-313.61 48.86,-307.78"/>
</g>
<!-- Node22 -->
<g id="node22" class="node">
<title>Node22</title>
<g id="a_node22"><a xlink:href="../../d5/db4/Kinetics_8h.html" target="_top" xlink:title="Base class for kinetics managers and also contains the kineticsmgr module documentation (see Kinetics...">
<polygon fill="white" stroke="#666666" points="301.5,-305 241.5,-305 241.5,-286 301.5,-286 301.5,-305"/>
<text text-anchor="middle" x="271.5" y="-293" font-family="Helvetica,sans-Serif" font-size="10.00">Kinetics.h</text>
</a>
</g>
</g>
<!-- Node1&#45;&gt;Node22 -->
<g id="edge25" class="edge">
<title>Node1&#45;&gt;Node22</title>
<path fill="none" stroke="#63b8ff" d="M132.17,-340.98C160.04,-332.09 203.95,-318.07 235.02,-308.15"/>
<polygon fill="#63b8ff" stroke="#63b8ff" points="236.16,-311.46 244.62,-305.08 234.03,-304.79 236.16,-311.46"/>
</g>
<!-- Node3 -->
<g id="node3" class="node">
<title>Node3</title>
<g id="a_node3"><a xlink:href="../../d9/ddc/ct__defs_8h.html" target="_top" xlink:title="This file contains definitions of constants, types and terms that are used in internal routines and a...">
<polygon fill="white" stroke="#666666" points="312.5,-74 196.5,-74 196.5,-55 312.5,-55 312.5,-74"/>
<text text-anchor="middle" x="254.5" y="-62" font-family="Helvetica,sans-Serif" font-size="10.00">cantera/base/ct_defs.h</text>
</a>
</g>
</g>
<!-- Node2&#45;&gt;Node3 -->
<g id="edge2" class="edge">
<title>Node2&#45;&gt;Node3</title>
<path fill="none" stroke="#63b8ff" d="M114.29,-230.84C123.13,-222.01 137.07,-207.84 148.5,-195 183.42,-155.76 221.88,-107.35 241.47,-82.3"/>
<polygon fill="#63b8ff" stroke="#63b8ff" points="244.41,-84.23 247.79,-74.19 238.89,-79.92 244.41,-84.23"/>
</g>
<!-- Node14 -->
<g id="node14" class="node">
<title>Node14</title>
<g id="a_node14"><a xlink:href="../../db/d98/ctexceptions_8h.html" target="_top" xlink:title="Definitions for the classes that are thrown when Cantera experiences an error condition (also contain...">
<polygon fill="white" stroke="#666666" points="440.5,-189.5 300.5,-189.5 300.5,-170.5 440.5,-170.5 440.5,-189.5"/>
<text text-anchor="middle" x="370.5" y="-177.5" font-family="Helvetica,sans-Serif" font-size="10.00">cantera/base/ctexceptions.h</text>
</a>
</g>
</g>
<!-- Node2&#45;&gt;Node14 -->
<g id="edge13" class="edge">
<title>Node2&#45;&gt;Node14</title>
<path fill="none" stroke="#63b8ff" d="M144.03,-230.99C191.14,-220.6 270.88,-202.99 322.08,-191.69"/>
<polygon fill="#63b8ff" stroke="#63b8ff" points="322.91,-195.09 331.92,-189.52 321.4,-188.25 322.91,-195.09"/>
</g>
<!-- Node19 -->
<g id="node19" class="node">
<title>Node19</title>
<g id="a_node19"><a xlink:href="../../df/dd0/Array_8h.html" target="_top" xlink:title="Header file for class Cantera::Array2D.">
<polygon fill="white" stroke="#666666" points="139.5,-189.5 33.5,-189.5 33.5,-170.5 139.5,-170.5 139.5,-189.5"/>
<text text-anchor="middle" x="86.5" y="-177.5" font-family="Helvetica,sans-Serif" font-size="10.00">cantera/base/Array.h</text>
</a>
</g>
</g>
<!-- Node2&#45;&gt;Node19 -->
<g id="edge20" class="edge">
<title>Node2&#45;&gt;Node19</title>
<path fill="none" stroke="#63b8ff" d="M102.7,-230.87C100,-222.57 95.85,-209.78 92.42,-199.22"/>
<polygon fill="#63b8ff" stroke="#63b8ff" points="95.73,-198.1 89.32,-189.67 89.08,-200.26 95.73,-198.1"/>
</g>
<!-- Node4 -->
<g id="node4" class="node">
<title>Node4</title>
<g id="a_node4"><a xlink:href="../../db/d16/config_8h_source.html" target="_top" xlink:title=" ">
<polygon fill="white" stroke="#666666" points="661,-19 610,-19 610,0 661,0 661,-19"/>
<text text-anchor="middle" x="635.5" y="-7" font-family="Helvetica,sans-Serif" font-size="10.00">config.h</text>
</a>
</g>
</g>
<!-- Node3&#45;&gt;Node4 -->
<g id="edge3" class="edge">
<title>Node3&#45;&gt;Node4</title>
<path fill="none" stroke="#63b8ff" d="M312.78,-55.39C392.56,-44.3 533.37,-24.71 599.41,-15.52"/>
<polygon fill="#63b8ff" stroke="#63b8ff" points="600.3,-18.93 609.72,-14.09 599.33,-12 600.3,-18.93"/>
</g>
<!-- Node5 -->
<g id="node5" class="node">
<title>Node5</title>
<g id="a_node5"><a xlink:title=" ">
<polygon fill="#e0e0e0" stroke="#999999" points="492.5,-19 448.5,-19 448.5,0 492.5,0 492.5,-19"/>
<text text-anchor="middle" x="470.5" y="-7" font-family="Helvetica,sans-Serif" font-size="10.00">cmath</text>
</a>
</g>
</g>
<!-- Node3&#45;&gt;Node5 -->
<g id="edge4" class="edge">
<title>Node3&#45;&gt;Node5</title>
<path fill="none" stroke="#63b8ff" d="M291.44,-54.98C326.8,-46.74 381.87,-33.7 438.36,-19.24"/>
<polygon fill="#63b8ff" stroke="#63b8ff" points="439.36,-22.59 448.17,-16.71 437.61,-15.81 439.36,-22.59"/>
</g>
<!-- Node6 -->
<g id="node6" class="node">
<title>Node6</title>
<g id="a_node6"><a xlink:title=" ">
<polygon fill="#e0e0e0" stroke="#999999" points="556,-19 511,-19 511,0 556,0 556,-19"/>
<text text-anchor="middle" x="533.5" y="-7" font-family="Helvetica,sans-Serif" font-size="10.00">cstdlib</text>
</a>
</g>
</g>
<!-- Node3&#45;&gt;Node6 -->
<g id="edge5" class="edge">
<title>Node3&#45;&gt;Node6</title>
<path fill="none" stroke="#63b8ff" d="M309.21,-54.96C357.17,-47.17 428.98,-34.8 500.71,-19.01"/>
<polygon fill="#63b8ff" stroke="#63b8ff" points="501.83,-22.35 510.83,-16.77 500.31,-15.52 501.83,-22.35"/>
</g>
<!-- Node7 -->
<g id="node7" class="node">
<title>Node7</title>
<g id="a_node7"><a xlink:title=" ">
<polygon fill="#e0e0e0" stroke="#999999" points="46.5,-19 2.5,-19 2.5,0 46.5,0 46.5,-19"/>
<text text-anchor="middle" x="24.5" y="-7" font-family="Helvetica,sans-Serif" font-size="10.00">vector</text>
</a>
</g>
</g>
<!-- Node3&#45;&gt;Node7 -->
<g id="edge6" class="edge">
<title>Node3&#45;&gt;Node7</title>
<path fill="none" stroke="#63b8ff" d="M214.57,-55C174.51,-46.36 111.08,-32.38 56.5,-19 56.4,-18.98 56.3,-18.95 56.2,-18.93"/>
<polygon fill="#63b8ff" stroke="#63b8ff" points="57.06,-15.53 46.51,-16.46 55.34,-22.32 57.06,-15.53"/>
</g>
<!-- Node8 -->
<g id="node8" class="node">
<title>Node8</title>
<g id="a_node8"><a xlink:title=" ">
<polygon fill="#e0e0e0" stroke="#999999" points="100,-19 65,-19 65,0 100,0 100,-19"/>
<text text-anchor="middle" x="82.5" y="-7" font-family="Helvetica,sans-Serif" font-size="10.00">map</text>
</a>
</g>
</g>
<!-- Node3&#45;&gt;Node8 -->
<g id="edge7" class="edge">
<title>Node3&#45;&gt;Node8</title>
<path fill="none" stroke="#63b8ff" d="M226.41,-54.95C199.07,-46.6 156.1,-33.46 109.82,-19.08"/>
<polygon fill="#63b8ff" stroke="#63b8ff" points="110.8,-15.72 100.21,-16.1 108.72,-22.41 110.8,-15.72"/>
</g>
<!-- Node9 -->
<g id="node9" class="node">
<title>Node9</title>
<g id="a_node9"><a xlink:title=" ">
<polygon fill="#e0e0e0" stroke="#999999" points="148.5,-19 118.5,-19 118.5,0 148.5,0 148.5,-19"/>
<text text-anchor="middle" x="133.5" y="-7" font-family="Helvetica,sans-Serif" font-size="10.00">set</text>
</a>
</g>
</g>
<!-- Node3&#45;&gt;Node9 -->
<g id="edge8" class="edge">
<title>Node3&#45;&gt;Node9</title>
<path fill="none" stroke="#63b8ff" d="M235.06,-54.98C214.11,-45.81 180.72,-31.18 157.99,-21.23"/>
<polygon fill="#63b8ff" stroke="#63b8ff" points="159.24,-17.96 148.68,-17.15 156.43,-24.37 159.24,-17.96"/>
</g>
<!-- Node10 -->
<g id="node10" class="node">
<title>Node10</title>
<g id="a_node10"><a xlink:title=" ">
<polygon fill="#e0e0e0" stroke="#999999" points="208,-19 167,-19 167,0 208,0 208,-19"/>
<text text-anchor="middle" x="187.5" y="-7" font-family="Helvetica,sans-Serif" font-size="10.00">string</text>
</a>
</g>
</g>
<!-- Node3&#45;&gt;Node10 -->
<g id="edge9" class="edge">
<title>Node3&#45;&gt;Node10</title>
<path fill="none" stroke="#63b8ff" d="M243.74,-54.98C233.73,-47.07 218.61,-35.11 206.57,-25.58"/>
<polygon fill="#63b8ff" stroke="#63b8ff" points="208.47,-22.63 198.46,-19.17 204.13,-28.12 208.47,-22.63"/>
</g>
<!-- Node11 -->
<g id="node11" class="node">
<title>Node11</title>
<g id="a_node11"><a xlink:title=" ">
<polygon fill="#e0e0e0" stroke="#999999" points="282.5,-19 226.5,-19 226.5,0 282.5,0 282.5,-19"/>
<text text-anchor="middle" x="254.5" y="-7" font-family="Helvetica,sans-Serif" font-size="10.00">algorithm</text>
</a>
</g>
</g>
<!-- Node3&#45;&gt;Node11 -->
<g id="edge10" class="edge">
<title>Node3&#45;&gt;Node11</title>
<path fill="none" stroke="#63b8ff" d="M254.5,-54.75C254.5,-47.8 254.5,-37.85 254.5,-29.13"/>
<polygon fill="#63b8ff" stroke="#63b8ff" points="258,-29.09 254.5,-19.09 251,-29.09 258,-29.09"/>
</g>
<!-- Node12 -->
<g id="node12" class="node">
<title>Node12</title>
<g id="a_node12"><a xlink:title=" ">
<polygon fill="#e0e0e0" stroke="#999999" points="352.5,-19 300.5,-19 300.5,0 352.5,0 352.5,-19"/>
<text text-anchor="middle" x="326.5" y="-7" font-family="Helvetica,sans-Serif" font-size="10.00">memory</text>
</a>
</g>
</g>
<!-- Node3&#45;&gt;Node12 -->
<g id="edge11" class="edge">
<title>Node3&#45;&gt;Node12</title>
<path fill="none" stroke="#63b8ff" d="M266.07,-54.98C276.92,-47 293.38,-34.88 306.38,-25.31"/>
<polygon fill="#63b8ff" stroke="#63b8ff" points="308.74,-27.92 314.72,-19.17 304.59,-22.28 308.74,-27.92"/>
</g>
<!-- Node13 -->
<g id="node13" class="node">
<title>Node13</title>
<g id="a_node13"><a xlink:title=" ">
<polygon fill="#e0e0e0" stroke="#999999" points="430,-19 371,-19 371,0 430,0 430,-19"/>
<text text-anchor="middle" x="400.5" y="-7" font-family="Helvetica,sans-Serif" font-size="10.00">functional</text>
</a>
</g>
</g>
<!-- Node3&#45;&gt;Node13 -->
<g id="edge12" class="edge">
<title>Node3&#45;&gt;Node13</title>
<path fill="none" stroke="#63b8ff" d="M277.96,-54.98C302.08,-46.23 339.87,-32.51 367.1,-22.62"/>
<polygon fill="#63b8ff" stroke="#63b8ff" points="368.41,-25.87 376.62,-19.17 366.02,-19.29 368.41,-25.87"/>
</g>
<!-- Node14&#45;&gt;Node3 -->
<g id="edge14" class="edge">
<title>Node14&#45;&gt;Node3</title>
<path fill="none" stroke="#63b8ff" d="M370.37,-170.29C369.72,-156.05 366.47,-127.61 351.5,-110 338.38,-94.57 318.77,-84.2 300.61,-77.38"/>
<polygon fill="#63b8ff" stroke="#63b8ff" points="301.59,-74.02 291,-74.05 299.3,-80.63 301.59,-74.02"/>
</g>
<!-- Node15 -->
<g id="node15" class="node">
<title>Node15</title>
<g id="a_node15"><a xlink:href="../../db/def/fmt_8h.html" target="_top" xlink:title="Wrapper for either system&#45;installed or local headers for fmt.">
<polygon fill="white" stroke="#666666" points="496.5,-129 398.5,-129 398.5,-110 496.5,-110 496.5,-129"/>
<text text-anchor="middle" x="447.5" y="-117" font-family="Helvetica,sans-Serif" font-size="10.00">cantera/base/fmt.h</text>
</a>
</g>
</g>
<!-- Node14&#45;&gt;Node15 -->
<g id="edge15" class="edge">
<title>Node14&#45;&gt;Node15</title>
<path fill="none" stroke="#63b8ff" d="M381.86,-170.37C393.92,-161.21 413.2,-146.56 427.75,-135.51"/>
<polygon fill="#63b8ff" stroke="#63b8ff" points="430.25,-138 436.09,-129.17 426.01,-132.43 430.25,-138"/>
</g>
<!-- Node18 -->
<g id="node18" class="node">
<title>Node18</title>
<g id="a_node18"><a xlink:title=" ">
<polygon fill="#e0e0e0" stroke="#999999" points="342,-129 283,-129 283,-110 342,-110 342,-129"/>
<text text-anchor="middle" x="312.5" y="-117" font-family="Helvetica,sans-Serif" font-size="10.00">exception</text>
</a>
</g>
</g>
<!-- Node14&#45;&gt;Node18 -->
<g id="edge19" class="edge">
<title>Node14&#45;&gt;Node18</title>
<path fill="none" stroke="#63b8ff" d="M361.94,-170.37C353.12,-161.47 339.16,-147.39 328.32,-136.45"/>
<polygon fill="#63b8ff" stroke="#63b8ff" points="330.62,-133.8 321.09,-129.17 325.65,-138.73 330.62,-133.8"/>
</g>
<!-- Node15&#45;&gt;Node3 -->
<g id="edge16" class="edge">
<title>Node15&#45;&gt;Node3</title>
<path fill="none" stroke="#63b8ff" d="M416.49,-109.98C383.67,-100.97 331.7,-86.7 295.51,-76.76"/>
<polygon fill="#63b8ff" stroke="#63b8ff" points="296.32,-73.36 285.75,-74.08 294.47,-80.11 296.32,-73.36"/>
</g>
<!-- Node16 -->
<g id="node16" class="node">
<title>Node16</title>
<g id="a_node16"><a xlink:title=" ">
<polygon fill="#e0e0e0" stroke="#999999" points="473.5,-74 351.5,-74 351.5,-55 473.5,-55 473.5,-74"/>
<text text-anchor="middle" x="412.5" y="-62" font-family="Helvetica,sans-Serif" font-size="10.00">cantera/ext/fmt/format.h</text>
</a>
</g>
</g>
<!-- Node15&#45;&gt;Node16 -->
<g id="edge17" class="edge">
<title>Node15&#45;&gt;Node16</title>
<path fill="none" stroke="#63b8ff" d="M441.72,-109.75C436.88,-102.42 429.82,-91.73 423.86,-82.7"/>
<polygon fill="#63b8ff" stroke="#63b8ff" points="426.6,-80.5 418.17,-74.09 420.76,-84.36 426.6,-80.5"/>
</g>
<!-- Node17 -->
<g id="node17" class="node">
<title>Node17</title>
<g id="a_node17"><a xlink:title=" ">
<polygon fill="#e0e0e0" stroke="#999999" points="621,-74 492,-74 492,-55 621,-55 621,-74"/>
<text text-anchor="middle" x="556.5" y="-62" font-family="Helvetica,sans-Serif" font-size="10.00">cantera/ext/fmt/ostream.h</text>
</a>
</g>
</g>
<!-- Node15&#45;&gt;Node17 -->
<g id="edge18" class="edge">
<title>Node15&#45;&gt;Node17</title>
<path fill="none" stroke="#63b8ff" d="M465.01,-109.98C482.47,-101.5 509.51,-88.35 529.67,-78.54"/>
<polygon fill="#63b8ff" stroke="#63b8ff" points="531.21,-81.69 538.67,-74.17 528.14,-75.4 531.21,-81.69"/>
</g>
<!-- Node19&#45;&gt;Node3 -->
<g id="edge21" class="edge">
<title>Node19&#45;&gt;Node3</title>
<path fill="none" stroke="#63b8ff" d="M93.07,-170.32C104.19,-156.12 128,-127.73 153.5,-110 173.37,-96.18 198.23,-85.16 218.31,-77.55"/>
<polygon fill="#63b8ff" stroke="#63b8ff" points="219.56,-80.82 227.74,-74.09 217.15,-74.25 219.56,-80.82"/>
</g>
<!-- Node20 -->
<g id="node20" class="node">
<title>Node20</title>
<g id="a_node20"><a xlink:title=" ">
<polygon fill="#e0e0e0" stroke="#999999" points="101.5,-129 47.5,-129 47.5,-110 101.5,-110 101.5,-129"/>
<text text-anchor="middle" x="74.5" y="-117" font-family="Helvetica,sans-Serif" font-size="10.00">iostream</text>
</a>
</g>
</g>
<!-- Node19&#45;&gt;Node20 -->
<g id="edge22" class="edge">
<title>Node19&#45;&gt;Node20</title>
<path fill="none" stroke="#63b8ff" d="M84.73,-170.37C83.05,-162.16 80.46,-149.54 78.31,-139.05"/>
<polygon fill="#63b8ff" stroke="#63b8ff" points="81.72,-138.26 76.28,-129.17 74.86,-139.67 81.72,-138.26"/>
</g>
<!-- Node21&#45;&gt;Node3 -->
<g id="edge24" class="edge">
<title>Node21&#45;&gt;Node3</title>
<path fill="none" stroke="#63b8ff" d="M22.68,-285.9C13.57,-256.32 -11.66,-157.9 38.5,-110 59.45,-89.99 131.11,-78.09 186.21,-71.7"/>
<polygon fill="#63b8ff" stroke="#63b8ff" points="186.74,-75.16 196.29,-70.57 185.96,-68.21 186.74,-75.16"/>
</g>
<!-- Node23 -->
<g id="node23" class="node">
<title>Node23</title>
<g id="a_node23"><a xlink:href="../../dd/dfd/StoichManager_8h.html" target="_top" xlink:title=" ">
<polygon fill="white" stroke="#666666" points="447,-250 358,-250 358,-231 447,-231 447,-250"/>
<text text-anchor="middle" x="402.5" y="-238" font-family="Helvetica,sans-Serif" font-size="10.00">StoichManager.h</text>
</a>
</g>
</g>
<!-- Node22&#45;&gt;Node23 -->
<g id="edge26" class="edge">
<title>Node22&#45;&gt;Node23</title>
<path fill="none" stroke="#63b8ff" d="M292.55,-285.98C313.91,-277.34 347.2,-263.87 371.56,-254.02"/>
<polygon fill="#63b8ff" stroke="#63b8ff" points="373.11,-257.17 381.07,-250.17 370.49,-250.68 373.11,-257.17"/>
</g>
<!-- Node26 -->
<g id="node26" class="node">
<title>Node26</title>
<g id="a_node26"><a xlink:href="../../d6/df6/ValueCache_8h.html" target="_top" xlink:title=" ">
<polygon fill="white" stroke="#666666" points="340,-250 203,-250 203,-231 340,-231 340,-250"/>
<text text-anchor="middle" x="271.5" y="-238" font-family="Helvetica,sans-Serif" font-size="10.00">cantera/base/ValueCache.h</text>
</a>
</g>
</g>
<!-- Node22&#45;&gt;Node26 -->
<g id="edge31" class="edge">
<title>Node22&#45;&gt;Node26</title>
<path fill="none" stroke="#63b8ff" d="M271.5,-285.75C271.5,-278.8 271.5,-268.85 271.5,-260.13"/>
<polygon fill="#63b8ff" stroke="#63b8ff" points="275,-260.09 271.5,-250.09 268,-260.09 275,-260.09"/>
</g>
<!-- Node23&#45;&gt;Node14 -->
<g id="edge30" class="edge">
<title>Node23&#45;&gt;Node14</title>
<path fill="none" stroke="#63b8ff" d="M397.78,-230.87C393.15,-222.4 385.95,-209.24 380.11,-198.57"/>
<polygon fill="#63b8ff" stroke="#63b8ff" points="383.11,-196.76 375.24,-189.67 376.97,-200.12 383.11,-196.76"/>
</g>
<!-- Node24 -->
<g id="node24" class="node">
<title>Node24</title>
<g id="a_node24"><a xlink:href="../../d9/d42/eigen__sparse_8h_source.html" target="_top" xlink:title=" ">
<polygon fill="white" stroke="#666666" points="637.5,-195 519.5,-195 519.5,-165 637.5,-165 637.5,-195"/>
<text text-anchor="start" x="527.5" y="-183" font-family="Helvetica,sans-Serif" font-size="10.00">cantera/numerics/eigen</text>
<text text-anchor="middle" x="578.5" y="-172" font-family="Helvetica,sans-Serif" font-size="10.00">_sparse.h</text>
</a>
</g>
</g>
<!-- Node23&#45;&gt;Node24 -->
<g id="edge27" class="edge">
<title>Node23&#45;&gt;Node24</title>
<path fill="none" stroke="#63b8ff" d="M428.09,-230.99C453.75,-222.46 494,-209.09 526.41,-198.32"/>
<polygon fill="#63b8ff" stroke="#63b8ff" points="527.8,-201.54 536.19,-195.06 525.59,-194.9 527.8,-201.54"/>
</g>
<!-- Node24&#45;&gt;Node4 -->
<g id="edge28" class="edge">
<title>Node24&#45;&gt;Node4</title>
<path fill="none" stroke="#63b8ff" d="M612.28,-164.85C627.15,-156.71 643.12,-144.9 651.5,-129 668.53,-96.69 654.59,-52.81 644.21,-28.53"/>
<polygon fill="#63b8ff" stroke="#63b8ff" points="647.27,-26.8 639.95,-19.14 640.89,-29.69 647.27,-26.8"/>
</g>
<!-- Node25 -->
<g id="node25" class="node">
<title>Node25</title>
<g id="a_node25"><a xlink:title=" ">
<polygon fill="#e0e0e0" stroke="#999999" points="642,-129 515,-129 515,-110 642,-110 642,-129"/>
<text text-anchor="middle" x="578.5" y="-117" font-family="Helvetica,sans-Serif" font-size="10.00">cantera/ext/Eigen/Sparse</text>
</a>
</g>
</g>
<!-- Node24&#45;&gt;Node25 -->
<g id="edge29" class="edge">
<title>Node24&#45;&gt;Node25</title>
<path fill="none" stroke="#63b8ff" d="M578.5,-164.84C578.5,-157.21 578.5,-147.7 578.5,-139.45"/>
<polygon fill="#63b8ff" stroke="#63b8ff" points="582,-139.27 578.5,-129.27 575,-139.27 582,-139.27"/>
</g>
<!-- Node26&#45;&gt;Node3 -->
<g id="edge32" class="edge">
<title>Node26&#45;&gt;Node3</title>
<path fill="none" stroke="#63b8ff" d="M270.63,-230.63C267.98,-203.52 259.95,-121.32 256.32,-84.13"/>
<polygon fill="#63b8ff" stroke="#63b8ff" points="259.8,-83.76 255.34,-74.14 252.83,-84.44 259.8,-83.76"/>
</g>
<!-- Node27 -->
<g id="node27" class="node">
<title>Node27</title>
<g id="a_node27"><a xlink:title=" ">
<polygon fill="#e0e0e0" stroke="#999999" points="235.5,-189.5 195.5,-189.5 195.5,-170.5 235.5,-170.5 235.5,-189.5"/>
<text text-anchor="middle" x="215.5" y="-177.5" font-family="Helvetica,sans-Serif" font-size="10.00">limits</text>
</a>
</g>
</g>
<!-- Node26&#45;&gt;Node27 -->
<g id="edge33" class="edge">
<title>Node26&#45;&gt;Node27</title>
<path fill="none" stroke="#63b8ff" d="M263.24,-230.87C254.72,-221.97 241.24,-207.89 230.77,-196.95"/>
<polygon fill="#63b8ff" stroke="#63b8ff" points="233.24,-194.47 223.8,-189.67 228.18,-199.31 233.24,-194.47"/>
</g>
</g>
</svg>
