<?xml version="1.0" encoding="UTF-8" standalone="no"?>
<!DOCTYPE svg PUBLIC "-//W3C//DTD SVG 1.1//EN"
 "http://www.w3.org/Graphics/SVG/1.1/DTD/svg11.dtd">
<!-- Generated by graphviz version 2.43.0 (0)
 -->
<!-- Title: solveSP.h Pages: 1 -->
<!--zoomable 379 -->

<svg id="main" version="1.1" xmlns="http://www.w3.org/2000/svg" xmlns:xlink="http://www.w3.org/1999/xlink" xml:space="preserve" onload="init(evt)">
<style type="text/css"><![CDATA[
.node, .edge {opacity: 0.7;}
.node.selected, .edge.selected {opacity: 1;}
.edge:hover path { stroke: red; }
.edge:hover polygon { stroke: red; fill: red; }
]]></style>

<defs>
  <circle id="rim" cx="0" cy="0" r="7"/>
  <circle id="rim2" cx="0" cy="0" r="3.5"/>
  <g id="zoomPlus">
    <use xlink:href="#rim" fill="#404040"><set attributeName="fill" to="#808080" begin="zoomplus.mouseover" end="zoomplus.mouseout"/></use>
    <path d="M-4,0h8M0,-4v8" fill="none" stroke="white" stroke-width="1.5" pointer-events="none"/>
  </g>
  <g id="zoomMin">
    <use xlink:href="#rim" fill="#404040"><set attributeName="fill" to="#808080" begin="zoomminus.mouseover" end="zoomminus.mouseout"/></use>
    <path d="M-4,0h8" fill="none" stroke="white" stroke-width="1.5" pointer-events="none"/>
  </g>
  <g id="arrowUp" transform="translate(30 24)">
    <use xlink:href="#rim"/>
    <path pointer-events="none" fill="none" stroke="white" stroke-width="1.5" d="M0,-3.0v7 M-2.5,-0.5L0,-3.0L2.5,-0.5"/>
  </g>
  <g id="arrowRight" transform="rotate(90) translate(36 -43)">
    <use xlink:href="#rim"/>
    <path pointer-events="none" fill="none" stroke="white" stroke-width="1.5" d="M0,-3.0v7 M-2.5,-0.5L0,-3.0L2.5,-0.5"/>
  </g>
  <g id="arrowDown" transform="rotate(180) translate(-30 -48)">
    <use xlink:href="#rim"/>
    <path pointer-events="none" fill="none" stroke="white" stroke-width="1.5" d="M0,-3.0v7 M-2.5,-0.5L0,-3.0L2.5,-0.5"/>
  </g>
  <g id="arrowLeft" transform="rotate(270) translate(-36 17)">
    <use xlink:href="#rim"/>
    <path pointer-events="none" fill="none" stroke="white" stroke-width="1.5" d="M0,-3.0v7 M-2.5,-0.5L0,-3.0L2.5,-0.5"/>
  </g>
  <g id="resetDef">
    <use xlink:href="#rim2" fill="#404040"><set attributeName="fill" to="#808080" begin="reset.mouseover" end="reset.mouseout"/></use>
  </g>
</defs>
<script type="application/ecmascript">
var viewWidth = 1052;
var viewHeight = 379;
var sectionId = 'dynsection-0';
</script>
<script type="application/ecmascript" xlink:href="../../svg.min.js"/>
<svg id="graph" class="graph">
<g id="viewport">
<title>solveSP.h</title>
<!-- Node1 -->
<g id="Node000001" class="node">
<title>Node1</title>
<g id="a_Node000001"><a xlink:title="Header file for implicit surface problem solver (see Chemical Kinetics and class solveSP).">
<polygon fill="#999999" stroke="#666666" points="769.5,-371 707.5,-371 707.5,-352 769.5,-352 769.5,-371"/>
<text text-anchor="middle" x="738.5" y="-359" font-family="Helvetica,sans-Serif" font-size="10.00">solveSP.h</text>
</a>
</g>
</g>
<!-- Node2 -->
<g id="Node000002" class="node">
<title>Node2</title>
<g id="a_Node000002"><a xlink:href="../../d7/d0d/InterfaceKinetics_8h.html" target="_top" xlink:title=" ">
<polygon fill="white" stroke="#666666" points="760,-316 619,-316 619,-286 760,-286 760,-316"/>
<text text-anchor="start" x="627" y="-304" font-family="Helvetica,sans-Serif" font-size="10.00">cantera/kinetics/Interface</text>
<text text-anchor="middle" x="689.5" y="-293" font-family="Helvetica,sans-Serif" font-size="10.00">Kinetics.h</text>
</a>
</g>
</g>
<!-- Node1&#45;&gt;Node2 -->
<g id="edge1_Node000001_Node000002" class="edge">
<title>Node1&#45;&gt;Node2</title>
<g id="a_edge1_Node000001_Node000002"><a xlink:title=" ">
<path fill="none" stroke="#63b8ff" d="M731.27,-351.87C725.11,-344.52 716,-333.63 707.85,-323.91"/>
<polygon fill="#63b8ff" stroke="#63b8ff" points="710.43,-321.53 701.32,-316.11 705.06,-326.03 710.43,-321.53"/>
</a>
</g>
</g>
<!-- Node38 -->
<g id="Node000038" class="node">
<title>Node38</title>
<g id="a_Node000038"><a xlink:href="../../d1/df7/DenseMatrix_8h.html" target="_top" xlink:title="Headers for the DenseMatrix object, which deals with dense rectangular matrices and description of th...">
<polygon fill="white" stroke="#666666" points="1043.5,-140 867.5,-140 867.5,-121 1043.5,-121 1043.5,-140"/>
<text text-anchor="middle" x="955.5" y="-128" font-family="Helvetica,sans-Serif" font-size="10.00">cantera/numerics/DenseMatrix.h</text>
</a>
</g>
</g>
<!-- Node1&#45;&gt;Node38 -->
<g id="edge27_Node000001_Node000038" class="edge">
<title>Node1&#45;&gt;Node38</title>
<g id="a_edge27_Node000001_Node000038"><a xlink:title=" ">
<path fill="none" stroke="#63b8ff" d="M746.74,-351.8C779.1,-317.65 897.76,-192.44 940.24,-147.6"/>
<polygon fill="#63b8ff" stroke="#63b8ff" points="942.91,-149.87 947.25,-140.21 937.83,-145.06 942.91,-149.87"/>
</a>
</g>
</g>
<!-- Node3 -->
<g id="Node000003" class="node">
<title>Node3</title>
<g id="a_Node000003"><a xlink:href="../../d5/db4/Kinetics_8h.html" target="_top" xlink:title="Base class for kinetics managers and also contains the kineticsmgr module documentation (see Kinetics...">
<polygon fill="white" stroke="#666666" points="722,-195 657,-195 657,-176 722,-176 722,-195"/>
<text text-anchor="middle" x="689.5" y="-183" font-family="Helvetica,sans-Serif" font-size="10.00">Kinetics.h</text>
</a>
</g>
</g>
<!-- Node2&#45;&gt;Node3 -->
<g id="edge2_Node000002_Node000003" class="edge">
<title>Node2&#45;&gt;Node3</title>
<g id="a_edge2_Node000002_Node000003"><a xlink:title=" ">
<path fill="none" stroke="#63b8ff" d="M689.5,-285.63C689.5,-265.21 689.5,-227.81 689.5,-205.24"/>
<polygon fill="#63b8ff" stroke="#63b8ff" points="693,-205.23 689.5,-195.23 686,-205.23 693,-205.23"/>
</a>
</g>
</g>
<!-- Node26 -->
<g id="Node000026" class="node">
<title>Node26</title>
<g id="a_Node000026"><a xlink:href="../../d6/d42/MultiRate_8h.html" target="_top" xlink:title=" ">
<polygon fill="white" stroke="#666666" points="295,-250 222,-250 222,-231 295,-231 295,-250"/>
<text text-anchor="middle" x="258.5" y="-238" font-family="Helvetica,sans-Serif" font-size="10.00">MultiRate.h</text>
</a>
</g>
</g>
<!-- Node2&#45;&gt;Node26 -->
<g id="edge10_Node000002_Node000026" class="edge">
<title>Node2&#45;&gt;Node26</title>
<g id="a_edge10_Node000002_Node000026"><a xlink:title=" ">
<path fill="none" stroke="#63b8ff" d="M618.81,-290.41C530.2,-278.38 380.79,-258.1 305.24,-247.84"/>
<polygon fill="#63b8ff" stroke="#63b8ff" points="305.46,-244.34 295.08,-246.47 304.52,-251.28 305.46,-244.34"/>
</a>
</g>
</g>
<!-- Node4 -->
<g id="Node000004" class="node">
<title>Node4</title>
<g id="a_Node000004"><a xlink:href="../../dd/dfd/StoichManager_8h.html" target="_top" xlink:title=" ">
<polygon fill="white" stroke="#666666" points="682.5,-140 584.5,-140 584.5,-121 682.5,-121 682.5,-140"/>
<text text-anchor="middle" x="633.5" y="-128" font-family="Helvetica,sans-Serif" font-size="10.00">StoichManager.h</text>
</a>
</g>
</g>
<!-- Node3&#45;&gt;Node4 -->
<g id="edge3_Node000003_Node000004" class="edge">
<title>Node3&#45;&gt;Node4</title>
<g id="a_edge3_Node000003_Node000004"><a xlink:title=" ">
<path fill="none" stroke="#63b8ff" d="M680.5,-175.98C672.31,-168.23 659.99,-156.58 650.03,-147.14"/>
<polygon fill="#63b8ff" stroke="#63b8ff" points="652.33,-144.5 642.66,-140.17 647.52,-149.59 652.33,-144.5"/>
</a>
</g>
</g>
<!-- Node24 -->
<g id="Node000024" class="node">
<title>Node24</title>
<g id="a_Node000024"><a xlink:href="../../d6/df6/ValueCache_8h.html" target="_top" xlink:title=" ">
<polygon fill="white" stroke="#666666" points="850,-140 701,-140 701,-121 850,-121 850,-140"/>
<text text-anchor="middle" x="775.5" y="-128" font-family="Helvetica,sans-Serif" font-size="10.00">cantera/base/ValueCache.h</text>
</a>
</g>
</g>
<!-- Node3&#45;&gt;Node24 -->
<g id="edge7_Node000003_Node000024" class="edge">
<title>Node3&#45;&gt;Node24</title>
<g id="a_edge7_Node000003_Node000024"><a xlink:title=" ">
<path fill="none" stroke="#63b8ff" d="M703.32,-175.98C716.65,-167.77 737.08,-155.18 752.81,-145.49"/>
<polygon fill="#63b8ff" stroke="#63b8ff" points="754.75,-148.4 761.43,-140.17 751.08,-142.44 754.75,-148.4"/>
</a>
</g>
</g>
<!-- Node5 -->
<g id="Node000005" class="node">
<title>Node5</title>
<g id="a_Node000005"><a xlink:href="../../d9/d42/eigen__sparse_8h_source.html" target="_top" xlink:title=" ">
<polygon fill="#fff0f0" stroke="red" points="769,-85 638,-85 638,-55 769,-55 769,-85"/>
<text text-anchor="start" x="646" y="-73" font-family="Helvetica,sans-Serif" font-size="10.00">cantera/numerics/eigen</text>
<text text-anchor="middle" x="703.5" y="-62" font-family="Helvetica,sans-Serif" font-size="10.00">_sparse.h</text>
</a>
</g>
</g>
<!-- Node4&#45;&gt;Node5 -->
<g id="edge4_Node000004_Node000005" class="edge">
<title>Node4&#45;&gt;Node5</title>
<g id="a_edge4_Node000004_Node000005"><a xlink:title=" ">
<path fill="none" stroke="#63b8ff" d="M643.83,-120.87C652.98,-113.22 666.69,-101.76 678.67,-91.75"/>
<polygon fill="#63b8ff" stroke="#63b8ff" points="681.18,-94.21 686.61,-85.11 676.69,-88.84 681.18,-94.21"/>
</a>
</g>
</g>
<!-- Node8 -->
<g id="Node000008" class="node">
<title>Node8</title>
<g id="a_Node000008"><a xlink:href="../../db/d98/ctexceptions_8h.html" target="_top" xlink:title="Definitions for the classes that are thrown when Cantera experiences an error condition (also contain...">
<polygon fill="#fff0f0" stroke="red" points="619.5,-79.5 465.5,-79.5 465.5,-60.5 619.5,-60.5 619.5,-79.5"/>
<text text-anchor="middle" x="542.5" y="-67.5" font-family="Helvetica,sans-Serif" font-size="10.00">cantera/base/ctexceptions.h</text>
</a>
</g>
</g>
<!-- Node4&#45;&gt;Node8 -->
<g id="edge5_Node000004_Node000008" class="edge">
<title>Node4&#45;&gt;Node8</title>
<g id="a_edge5_Node000004_Node000008"><a xlink:title=" ">
<path fill="none" stroke="#63b8ff" d="M620.07,-120.87C605.42,-111.45 581.74,-96.23 564.4,-85.08"/>
<polygon fill="#63b8ff" stroke="#63b8ff" points="566.29,-82.13 555.98,-79.67 562.5,-88.02 566.29,-82.13"/>
</a>
</g>
</g>
<!-- Node9 -->
<g id="Node000009" class="node">
<title>Node9</title>
<g id="a_Node000009"><a xlink:href="../../d9/ddc/ct__defs_8h.html" target="_top" xlink:title="This file contains definitions of constants, types and terms that are used in internal routines and a...">
<polygon fill="#fff0f0" stroke="red" points="468,-19 407,-19 407,0 468,0 468,-19"/>
<text text-anchor="middle" x="437.5" y="-7" font-family="Helvetica,sans-Serif" font-size="10.00">ct_defs.h</text>
</a>
</g>
</g>
<!-- Node8&#45;&gt;Node9 -->
<g id="edge6_Node000008_Node000009" class="edge">
<title>Node8&#45;&gt;Node9</title>
<g id="a_edge6_Node000008_Node000009"><a xlink:title=" ">
<path fill="none" stroke="#63b8ff" d="M527.01,-60.37C509.87,-50.82 482.03,-35.31 461.94,-24.12"/>
<polygon fill="#63b8ff" stroke="#63b8ff" points="463.5,-20.98 453.06,-19.17 460.09,-27.09 463.5,-20.98"/>
</a>
</g>
</g>
<!-- Node24&#45;&gt;Node9 -->
<g id="edge8_Node000024_Node000009" class="edge">
<title>Node24&#45;&gt;Node9</title>
<g id="a_edge8_Node000024_Node000009"><a xlink:title=" ">
<path fill="none" stroke="#63b8ff" d="M779.06,-120.88C784.76,-105.56 793.72,-73.48 777.5,-55 758.02,-32.8 564.38,-18.28 478.34,-12.87"/>
<polygon fill="#63b8ff" stroke="#63b8ff" points="478.35,-9.36 468.16,-12.24 477.92,-16.35 478.35,-9.36"/>
</a>
</g>
</g>
<!-- Node25 -->
<g id="Node000025" class="node">
<title>Node25</title>
<g id="a_Node000025"><a xlink:title=" ">
<polygon fill="#e0e0e0" stroke="#999999" points="869.5,-79.5 825.5,-79.5 825.5,-60.5 869.5,-60.5 869.5,-79.5"/>
<text text-anchor="middle" x="847.5" y="-67.5" font-family="Helvetica,sans-Serif" font-size="10.00">limits</text>
</a>
</g>
</g>
<!-- Node24&#45;&gt;Node25 -->
<g id="edge9_Node000024_Node000025" class="edge">
<title>Node24&#45;&gt;Node25</title>
<g id="a_edge9_Node000024_Node000025"><a xlink:title=" ">
<path fill="none" stroke="#63b8ff" d="M786.12,-120.87C797.4,-111.71 815.42,-97.06 829.03,-86.01"/>
<polygon fill="#63b8ff" stroke="#63b8ff" points="831.28,-88.69 836.83,-79.67 826.86,-83.26 831.28,-88.69"/>
</a>
</g>
</g>
<!-- Node27 -->
<g id="Node000027" class="node">
<title>Node27</title>
<g id="a_Node000027"><a xlink:href="../../d8/db0/ReactionRate_8h.html" target="_top" xlink:title=" ">
<polygon fill="white" stroke="#666666" points="368,-195 277,-195 277,-176 368,-176 368,-195"/>
<text text-anchor="middle" x="322.5" y="-183" font-family="Helvetica,sans-Serif" font-size="10.00">ReactionRate.h</text>
</a>
</g>
</g>
<!-- Node26&#45;&gt;Node27 -->
<g id="edge11_Node000026_Node000027" class="edge">
<title>Node26&#45;&gt;Node27</title>
<g id="a_edge11_Node000026_Node000027"><a xlink:title=" ">
<path fill="none" stroke="#63b8ff" d="M268.78,-230.98C278.34,-223.07 292.78,-211.11 304.28,-201.58"/>
<polygon fill="#63b8ff" stroke="#63b8ff" points="306.56,-204.24 312.03,-195.17 302.1,-198.85 306.56,-204.24"/>
</a>
</g>
</g>
<!-- Node28 -->
<g id="Node000028" class="node">
<title>Node28</title>
<g id="a_Node000028"><a xlink:href="../../dd/d16/MultiRateBase_8h.html" target="_top" xlink:title=" ">
<polygon fill="white" stroke="#666666" points="97,-140 0,-140 0,-121 97,-121 97,-140"/>
<text text-anchor="middle" x="48.5" y="-128" font-family="Helvetica,sans-Serif" font-size="10.00">MultiRateBase.h</text>
</a>
</g>
</g>
<!-- Node26&#45;&gt;Node28 -->
<g id="edge23_Node000026_Node000028" class="edge">
<title>Node26&#45;&gt;Node28</title>
<g id="a_edge23_Node000026_Node000028"><a xlink:title=" ">
<path fill="none" stroke="#63b8ff" d="M221.99,-233.48C191.18,-227.24 146.73,-215.46 112.5,-195 92.03,-182.77 73.25,-162.6 61.41,-148.28"/>
<polygon fill="#63b8ff" stroke="#63b8ff" points="63.95,-145.86 54.97,-140.24 58.49,-150.23 63.95,-145.86"/>
</a>
</g>
</g>
<!-- Node36 -->
<g id="Node000036" class="node">
<title>Node36</title>
<g id="a_Node000036"><a xlink:href="../../de/df0/utilities_8h.html" target="_top" xlink:title="Various templated functions that carry out common vector and polynomial operations (see Templated Arr...">
<polygon fill="white" stroke="#666666" points="249.5,-195 121.5,-195 121.5,-176 249.5,-176 249.5,-195"/>
<text text-anchor="middle" x="185.5" y="-183" font-family="Helvetica,sans-Serif" font-size="10.00">cantera/base/utilities.h</text>
</a>
</g>
</g>
<!-- Node26&#45;&gt;Node36 -->
<g id="edge24_Node000026_Node000036" class="edge">
<title>Node26&#45;&gt;Node36</title>
<g id="a_edge24_Node000026_Node000036"><a xlink:title=" ">
<path fill="none" stroke="#63b8ff" d="M246.77,-230.98C235.77,-223 219.08,-210.88 205.9,-201.31"/>
<polygon fill="#63b8ff" stroke="#63b8ff" points="207.59,-198.21 197.44,-195.17 203.48,-203.88 207.59,-198.21"/>
</a>
</g>
</g>
<!-- Node27&#45;&gt;Node8 -->
<g id="edge22_Node000027_Node000008" class="edge">
<title>Node27&#45;&gt;Node8</title>
<g id="a_edge22_Node000027_Node000008"><a xlink:title=" ">
<path fill="none" stroke="#63b8ff" d="M368.06,-184.36C409.19,-181.95 469.25,-172.49 509.5,-140 525.28,-127.26 533.98,-105.16 538.43,-89.4"/>
<polygon fill="#63b8ff" stroke="#63b8ff" points="541.82,-90.25 540.86,-79.7 535.03,-88.55 541.82,-90.25"/>
</a>
</g>
</g>
<!-- Node27&#45;&gt;Node28 -->
<g id="edge12_Node000027_Node000028" class="edge">
<title>Node27&#45;&gt;Node28</title>
<g id="a_edge12_Node000027_Node000028"><a xlink:title=" ">
<path fill="none" stroke="#63b8ff" d="M278.48,-175.98C230.68,-166.74 154.3,-151.97 102.82,-142.01"/>
<polygon fill="#63b8ff" stroke="#63b8ff" points="103.35,-138.54 92.87,-140.08 102.02,-145.42 103.35,-138.54"/>
</a>
</g>
</g>
<!-- Node29 -->
<g id="Node000029" class="node">
<title>Node29</title>
<g id="a_Node000029"><a xlink:href="../../dd/d2a/AnyMap_8h.html" target="_top" xlink:title=" ">
<polygon fill="#fff0f0" stroke="red" points="501,-140 370,-140 370,-121 501,-121 501,-140"/>
<text text-anchor="middle" x="435.5" y="-128" font-family="Helvetica,sans-Serif" font-size="10.00">cantera/base/AnyMap.h</text>
</a>
</g>
</g>
<!-- Node27&#45;&gt;Node29 -->
<g id="edge14_Node000027_Node000029" class="edge">
<title>Node27&#45;&gt;Node29</title>
<g id="a_edge14_Node000027_Node000029"><a xlink:title=" ">
<path fill="none" stroke="#63b8ff" d="M340.66,-175.98C358.75,-167.5 386.78,-154.35 407.69,-144.54"/>
<polygon fill="#63b8ff" stroke="#63b8ff" points="409.45,-147.59 417.01,-140.17 406.47,-141.25 409.45,-147.59"/>
</a>
</g>
</g>
<!-- Node30 -->
<g id="Node000030" class="node">
<title>Node30</title>
<g id="a_Node000030"><a xlink:href="../../da/d58/Units_8h.html" target="_top" xlink:title="Header for unit conversion utilities, which are used to translate user input from input files (See In...">
<polygon fill="white" stroke="#666666" points="409,-79.5 292,-79.5 292,-60.5 409,-60.5 409,-79.5"/>
<text text-anchor="middle" x="350.5" y="-67.5" font-family="Helvetica,sans-Serif" font-size="10.00">cantera/base/Units.h</text>
</a>
</g>
</g>
<!-- Node27&#45;&gt;Node30 -->
<g id="edge19_Node000027_Node000030" class="edge">
<title>Node27&#45;&gt;Node30</title>
<g id="a_edge19_Node000027_Node000030"><a xlink:title=" ">
<path fill="none" stroke="#63b8ff" d="M324.6,-175.97C329.1,-157.73 339.75,-114.57 345.9,-89.64"/>
<polygon fill="#63b8ff" stroke="#63b8ff" points="349.37,-90.18 348.37,-79.63 342.58,-88.5 349.37,-90.18"/>
</a>
</g>
</g>
<!-- Node35 -->
<g id="Node000035" class="node">
<title>Node35</title>
<g id="a_Node000035"><a xlink:href="../../d2/d49/global_8h.html" target="_top" xlink:title="This file contains definitions for utility functions and text for modules, inputfiles and logging,...">
<polygon fill="#fff0f0" stroke="red" points="273.5,-79.5 151.5,-79.5 151.5,-60.5 273.5,-60.5 273.5,-79.5"/>
<text text-anchor="middle" x="212.5" y="-67.5" font-family="Helvetica,sans-Serif" font-size="10.00">cantera/base/global.h</text>
</a>
</g>
</g>
<!-- Node27&#45;&gt;Node35 -->
<g id="edge20_Node000027_Node000035" class="edge">
<title>Node27&#45;&gt;Node35</title>
<g id="a_edge20_Node000027_Node000035"><a xlink:title=" ">
<path fill="none" stroke="#63b8ff" d="M314.23,-175.97C295.92,-157.07 251.68,-111.43 228.03,-87.02"/>
<polygon fill="#63b8ff" stroke="#63b8ff" points="230.34,-84.38 220.86,-79.63 225.31,-89.25 230.34,-84.38"/>
</a>
</g>
</g>
<!-- Node28&#45;&gt;Node9 -->
<g id="edge13_Node000028_Node000009" class="edge">
<title>Node28&#45;&gt;Node9</title>
<g id="a_edge13_Node000028_Node000009"><a xlink:title=" ">
<path fill="none" stroke="#63b8ff" d="M52.78,-120.8C61.18,-104.74 81.49,-70.66 109.5,-55 157.95,-27.92 320.03,-16.37 396.67,-12.33"/>
<polygon fill="#63b8ff" stroke="#63b8ff" points="397.09,-15.81 406.9,-11.81 396.74,-8.82 397.09,-15.81"/>
</a>
</g>
</g>
<!-- Node29&#45;&gt;Node8 -->
<g id="edge16_Node000029_Node000008" class="edge">
<title>Node29&#45;&gt;Node8</title>
<g id="a_edge16_Node000029_Node000008"><a xlink:title=" ">
<path fill="none" stroke="#63b8ff" d="M451.29,-120.87C468.83,-111.28 497.38,-95.67 517.87,-84.47"/>
<polygon fill="#63b8ff" stroke="#63b8ff" points="519.55,-87.54 526.65,-79.67 516.19,-81.39 519.55,-87.54"/>
</a>
</g>
</g>
<!-- Node29&#45;&gt;Node9 -->
<g id="edge15_Node000029_Node000009" class="edge">
<title>Node29&#45;&gt;Node9</title>
<g id="a_edge15_Node000029_Node000009"><a xlink:title=" ">
<path fill="none" stroke="#63b8ff" d="M435.64,-120.94C435.96,-101.91 436.74,-55.69 437.18,-29.47"/>
<polygon fill="#63b8ff" stroke="#63b8ff" points="440.68,-29.36 437.35,-19.3 433.68,-29.24 440.68,-29.36"/>
</a>
</g>
</g>
<!-- Node29&#45;&gt;Node30 -->
<g id="edge17_Node000029_Node000030" class="edge">
<title>Node29&#45;&gt;Node30</title>
<g id="a_edge17_Node000029_Node000030"><a xlink:title=" ">
<path fill="none" stroke="#63b8ff" d="M422.96,-120.87C409.4,-111.54 387.56,-96.51 371.4,-85.38"/>
<polygon fill="#63b8ff" stroke="#63b8ff" points="373.32,-82.45 363.09,-79.67 369.35,-88.22 373.32,-82.45"/>
</a>
</g>
</g>
<!-- Node30&#45;&gt;Node9 -->
<g id="edge18_Node000030_Node000009" class="edge">
<title>Node30&#45;&gt;Node9</title>
<g id="a_edge18_Node000030_Node000009"><a xlink:title=" ">
<path fill="none" stroke="#63b8ff" d="M363.34,-60.37C377.22,-51.04 399.57,-36.01 416.11,-24.88"/>
<polygon fill="#63b8ff" stroke="#63b8ff" points="418.26,-27.65 424.61,-19.17 414.36,-21.84 418.26,-27.65"/>
</a>
</g>
</g>
<!-- Node35&#45;&gt;Node9 -->
<g id="edge21_Node000035_Node000009" class="edge">
<title>Node35&#45;&gt;Node9</title>
<g id="a_edge21_Node000035_Node000009"><a xlink:title=" ">
<path fill="none" stroke="#63b8ff" d="M245.22,-60.49C285.39,-50.05 353.52,-32.34 396.96,-21.04"/>
<polygon fill="#63b8ff" stroke="#63b8ff" points="398.11,-24.36 406.91,-18.45 396.35,-17.58 398.11,-24.36"/>
</a>
</g>
</g>
<!-- Node36&#45;&gt;Node9 -->
<g id="edge25_Node000036_Node000009" class="edge">
<title>Node36&#45;&gt;Node9</title>
<g id="a_edge25_Node000036_Node000009"><a xlink:title=" ">
<path fill="none" stroke="#63b8ff" d="M175.44,-175.72C166.7,-167.45 154.54,-154.24 148.5,-140 133.71,-105.13 117.8,-83.71 142.5,-55 174.82,-17.44 323.62,-11.17 396.73,-10.39"/>
<polygon fill="#63b8ff" stroke="#63b8ff" points="396.97,-13.89 406.95,-10.32 396.92,-6.89 396.97,-13.89"/>
</a>
</g>
</g>
<!-- Node37 -->
<g id="Node000037" class="node">
<title>Node37</title>
<g id="a_Node000037"><a xlink:title=" ">
<polygon fill="#e0e0e0" stroke="#999999" points="213.5,-140 157.5,-140 157.5,-121 213.5,-121 213.5,-140"/>
<text text-anchor="middle" x="185.5" y="-128" font-family="Helvetica,sans-Serif" font-size="10.00">numeric</text>
</a>
</g>
</g>
<!-- Node36&#45;&gt;Node37 -->
<g id="edge26_Node000036_Node000037" class="edge">
<title>Node36&#45;&gt;Node37</title>
<g id="a_edge26_Node000036_Node000037"><a xlink:title=" ">
<path fill="none" stroke="#63b8ff" d="M185.5,-175.75C185.5,-168.8 185.5,-158.85 185.5,-150.13"/>
<polygon fill="#63b8ff" stroke="#63b8ff" points="189,-150.09 185.5,-140.09 182,-150.09 189,-150.09"/>
</a>
</g>
</g>
<!-- Node38&#45;&gt;Node8 -->
<g id="edge29_Node000038_Node000008" class="edge">
<title>Node38&#45;&gt;Node8</title>
<g id="a_edge29_Node000038_Node000008"><a xlink:title=" ">
<path fill="none" stroke="#63b8ff" d="M889.04,-120.97C822.92,-112.37 718.6,-98.46 628.5,-85 620.42,-83.79 611.91,-82.47 603.53,-81.14"/>
<polygon fill="#63b8ff" stroke="#63b8ff" points="603.83,-77.64 593.4,-79.51 602.72,-84.55 603.83,-77.64"/>
</a>
</g>
</g>
<!-- Node38&#45;&gt;Node9 -->
<g id="edge28_Node000038_Node000009" class="edge">
<title>Node38&#45;&gt;Node9</title>
<g id="a_edge28_Node000038_Node000009"><a xlink:title=" ">
<path fill="none" stroke="#63b8ff" d="M948.01,-120.95C932.13,-103.08 895.2,-62.76 878.5,-55 807.86,-22.2 573.23,-13.45 478.1,-11.22"/>
<polygon fill="#63b8ff" stroke="#63b8ff" points="478.08,-7.72 468,-11 477.92,-14.72 478.08,-7.72"/>
</a>
</g>
</g>
<!-- Node39 -->
<g id="Node000039" class="node">
<title>Node39</title>
<g id="a_Node000039"><a xlink:href="../../df/dd0/Array_8h.html" target="_top" xlink:title="Header file for class Cantera::Array2D.">
<polygon fill="white" stroke="#666666" points="1041.5,-79.5 925.5,-79.5 925.5,-60.5 1041.5,-60.5 1041.5,-79.5"/>
<text text-anchor="middle" x="983.5" y="-67.5" font-family="Helvetica,sans-Serif" font-size="10.00">cantera/base/Array.h</text>
</a>
</g>
</g>
<!-- Node38&#45;&gt;Node39 -->
<g id="edge30_Node000038_Node000039" class="edge">
<title>Node38&#45;&gt;Node39</title>
<g id="a_edge30_Node000038_Node000039"><a xlink:title=" ">
<path fill="none" stroke="#63b8ff" d="M959.63,-120.87C963.64,-112.49 969.85,-99.51 974.94,-88.89"/>
<polygon fill="#63b8ff" stroke="#63b8ff" points="978.19,-90.2 979.35,-79.67 971.88,-87.18 978.19,-90.2"/>
</a>
</g>
</g>
<!-- Node39&#45;&gt;Node9 -->
<g id="edge31_Node000039_Node000009" class="edge">
<title>Node39&#45;&gt;Node9</title>
<g id="a_edge31_Node000039_Node000009"><a xlink:title=" ">
<path fill="none" stroke="#63b8ff" d="M943.25,-60.45C932.94,-58.46 921.84,-56.49 911.5,-55 752,-32.06 560.54,-18.25 478.3,-12.97"/>
<polygon fill="#63b8ff" stroke="#63b8ff" points="478.32,-9.47 468.12,-12.33 477.88,-16.45 478.32,-9.47"/>
</a>
</g>
</g>
<!-- Node40 -->
<g id="Node000040" class="node">
<title>Node40</title>
<g id="a_Node000040"><a xlink:title=" ">
<polygon fill="#e0e0e0" stroke="#999999" points="1013.5,-19 953.5,-19 953.5,0 1013.5,0 1013.5,-19"/>
<text text-anchor="middle" x="983.5" y="-7" font-family="Helvetica,sans-Serif" font-size="10.00">iostream</text>
</a>
</g>
</g>
<!-- Node39&#45;&gt;Node40 -->
<g id="edge32_Node000039_Node000040" class="edge">
<title>Node39&#45;&gt;Node40</title>
<g id="a_edge32_Node000039_Node000040"><a xlink:title=" ">
<path fill="none" stroke="#63b8ff" d="M983.5,-60.37C983.5,-52.25 983.5,-39.81 983.5,-29.39"/>
<polygon fill="#63b8ff" stroke="#63b8ff" points="987,-29.17 983.5,-19.17 980,-29.17 987,-29.17"/>
</a>
</g>
</g>
</g>
</svg>

<g id="navigator" transform="translate(0 0)" fill="#404254">
  <rect fill="#f2f5e9" fill-opacity="0.5" stroke="#606060" stroke-width=".5" x="0" y="0" width="60" height="60"/>
  <use id="zoomplus" xlink:href="#zoomPlus" x="17" y="9" onmousedown="handleZoom(evt,'in')"/>
  <use id="zoomminus" xlink:href="#zoomMin" x="42" y="9" onmousedown="handleZoom(evt,'out')"/>
  <use id="reset" xlink:href="#resetDef" x="30" y="36" onmousedown="handleReset()"/>
   <use id="arrowup" xlink:href="#arrowUp" x="0" y="0" onmousedown="handlePan(0,-1)"/>
  <use id="arrowright" xlink:href="#arrowRight" x="0" y="0" onmousedown="handlePan(1,0)"/>
  <use id="arrowdown" xlink:href="#arrowDown" x="0" y="0" onmousedown="handlePan(0,1)"/>
  <use id="arrowleft" xlink:href="#arrowLeft" x="0" y="0" onmousedown="handlePan(-1,0)"/>
</g>
<svg viewBox="0 0 15 15" width="100%" height="30px" preserveAspectRatio="xMaxYMin meet">
 <g id="arrow_out" transform="scale(0.3 0.3)">
  <a xlink:href="solveSP_8h__incl_org.svg" target="_base">
   <rect id="button" ry="5" rx="5" y="6" x="6" height="38" width="38"
        fill="#f2f5e9" fill-opacity="0.5" stroke="#606060" stroke-width="1.0"/>
   <path id="arrow"
     d="M 11.500037,31.436501 C 11.940474,20.09759 22.043105,11.32322 32.158766,21.979434 L 37.068811,17.246167 C 37.068811,17.246167 37.088388,32 37.088388,32 L 22.160133,31.978069 C 22.160133,31.978069 26.997745,27.140456 26.997745,27.140456 C 18.528582,18.264221 13.291696,25.230495 11.500037,31.436501 z"
     style="fill:#404040;"/>
  </a>
 </g>
</svg>

<style type='text/css'>
<![CDATA[
[data-mouse-over-selected='false'] { opacity: 0.7; }
[data-mouse-over-selected='true']  { opacity: 1.0; }
]]>
</style>
<script type="application/ecmascript"><![CDATA[
document.addEventListener('DOMContentLoaded', (event) => {
  highlightEdges();
  highlightAdjacentNodes();
});
]]></script>
</svg>
