<?xml version="1.0" encoding="UTF-8" standalone="no"?>
<!DOCTYPE svg PUBLIC "-//W3C//DTD SVG 1.1//EN"
 "http://www.w3.org/Graphics/SVG/1.1/DTD/svg11.dtd">
<!-- Generated by graphviz version 2.43.0 (0)
 -->
<!-- Title: vcs_MultiPhaseEquil.cpp Pages: 1 -->
<svg width="1298pt" height="576pt"
 viewBox="0.00 0.00 1298.33 576.00" xmlns="http://www.w3.org/2000/svg" xmlns:xlink="http://www.w3.org/1999/xlink">
<g id="graph0" class="graph" transform="scale(1 1) rotate(0) translate(4 572)">
<title>vcs_MultiPhaseEquil.cpp</title>
<polygon fill="white" stroke="transparent" points="-4,4 -4,-572 1294.33,-572 1294.33,4 -4,4"/>
<!-- Node1 -->
<g id="node1" class="node">
<title>Node1</title>
<g id="a_node1"><a xlink:title="Driver routine for the VCSnonideal equilibrium solver package.">
<polygon fill="#bfbfbf" stroke="black" points="626.33,-548.5 626.33,-567.5 763.33,-567.5 763.33,-548.5 626.33,-548.5"/>
<text text-anchor="middle" x="694.83" y="-555.5" font-family="Helvetica,sans-Serif" font-size="10.00">vcs_MultiPhaseEquil.cpp</text>
</a>
</g>
</g>
<!-- Node2 -->
<g id="node2" class="node">
<title>Node2</title>
<g id="a_node2"><a xlink:href="../../d1/dc3/vcs__MultiPhaseEquil_8h.html" target="_top" xlink:title="Interface class for the vcsnonlinear solver.">
<polygon fill="white" stroke="black" points="318.33,-224.5 318.33,-254.5 477.33,-254.5 477.33,-224.5 318.33,-224.5"/>
<text text-anchor="start" x="326.33" y="-242.5" font-family="Helvetica,sans-Serif" font-size="10.00">cantera/equil/vcs_MultiPhase</text>
<text text-anchor="middle" x="397.83" y="-231.5" font-family="Helvetica,sans-Serif" font-size="10.00">Equil.h</text>
</a>
</g>
</g>
<!-- Node1&#45;&gt;Node2 -->
<g id="edge1" class="edge">
<title>Node1&#45;&gt;Node2</title>
<path fill="none" stroke="midnightblue" d="M626.08,-554.17C548.15,-546.84 431.83,-521.57 431.83,-436 431.83,-436 431.83,-436 431.83,-372.5 431.83,-333.64 417.85,-290.33 407.81,-264.26"/>
<polygon fill="midnightblue" stroke="midnightblue" points="411.02,-262.84 404.07,-254.84 404.51,-265.42 411.02,-262.84"/>
</g>
<!-- Node28 -->
<g id="node12" class="node">
<title>Node28</title>
<g id="a_node12"><a xlink:href="../../d7/dfb/vcs__VolPhase_8h.html" target="_top" xlink:title="Header for the object representing each phase within vcs.">
<polygon fill="white" stroke="black" points="360.83,-168.5 360.83,-187.5 518.83,-187.5 518.83,-168.5 360.83,-168.5"/>
<text text-anchor="middle" x="439.83" y="-175.5" font-family="Helvetica,sans-Serif" font-size="10.00">cantera/equil/vcs_VolPhase.h</text>
</a>
</g>
</g>
<!-- Node1&#45;&gt;Node28 -->
<g id="edge16" class="edge">
<title>Node1&#45;&gt;Node28</title>
<path fill="none" stroke="midnightblue" d="M626.24,-554.99C591.21,-550.39 550.48,-538.97 523.83,-512 499.37,-487.23 504.83,-470.82 504.83,-436 504.83,-436 504.83,-436 504.83,-305.5 504.83,-268.31 504.08,-256.41 485.83,-224 479.37,-212.52 469.11,-202.07 459.91,-194.14"/>
<polygon fill="midnightblue" stroke="midnightblue" points="461.86,-191.21 451.9,-187.6 457.44,-196.63 461.86,-191.21"/>
</g>
<!-- Node30 -->
<g id="node14" class="node">
<title>Node30</title>
<g id="a_node14"><a xlink:href="../../d0/d1f/vcs__species__thermo_8h.html" target="_top" xlink:title=" ">
<polygon fill="white" stroke="black" points="257.83,-291.5 257.83,-321.5 399.83,-321.5 399.83,-291.5 257.83,-291.5"/>
<text text-anchor="start" x="265.83" y="-309.5" font-family="Helvetica,sans-Serif" font-size="10.00">cantera/equil/vcs_species</text>
<text text-anchor="middle" x="328.83" y="-298.5" font-family="Helvetica,sans-Serif" font-size="10.00">_thermo.h</text>
</a>
</g>
</g>
<!-- Node1&#45;&gt;Node30 -->
<g id="edge21" class="edge">
<title>Node1&#45;&gt;Node30</title>
<path fill="none" stroke="midnightblue" d="M626.1,-553.29C554.83,-548.16 449.47,-536.59 417.83,-512 359.49,-466.66 338.68,-375.28 331.86,-331.7"/>
<polygon fill="midnightblue" stroke="midnightblue" points="335.31,-331.1 330.41,-321.7 328.38,-332.1 335.31,-331.1"/>
</g>
<!-- Node31 -->
<g id="node15" class="node">
<title>Node31</title>
<g id="a_node15"><a xlink:href="../../d1/d88/clockWC_8h.html" target="_top" xlink:title="Declarations for a simple class that implements an Ansi C wall clock timer (see Cantera::clockWC).">
<polygon fill="white" stroke="black" points="532.83,-487 532.83,-506 666.83,-506 666.83,-487 532.83,-487"/>
<text text-anchor="middle" x="599.83" y="-494" font-family="Helvetica,sans-Serif" font-size="10.00">cantera/base/clockWC.h</text>
</a>
</g>
</g>
<!-- Node1&#45;&gt;Node31 -->
<g id="edge23" class="edge">
<title>Node1&#45;&gt;Node31</title>
<path fill="none" stroke="midnightblue" d="M681.22,-548.48C665.77,-538.8 640.34,-522.87 622.02,-511.39"/>
<polygon fill="midnightblue" stroke="midnightblue" points="623.75,-508.35 613.42,-506.01 620.04,-514.28 623.75,-508.35"/>
</g>
<!-- Node33 -->
<g id="node17" class="node">
<title>Node33</title>
<g id="a_node17"><a xlink:href="../../dd/dc3/stringUtils_8h.html" target="_top" xlink:title="Contains declarations for string manipulation functions within Cantera.">
<polygon fill="white" stroke="black" points="670.83,-425.5 670.83,-444.5 812.83,-444.5 812.83,-425.5 670.83,-425.5"/>
<text text-anchor="middle" x="741.83" y="-432.5" font-family="Helvetica,sans-Serif" font-size="10.00">cantera/base/stringUtils.h</text>
</a>
</g>
</g>
<!-- Node1&#45;&gt;Node33 -->
<g id="edge25" class="edge">
<title>Node1&#45;&gt;Node33</title>
<path fill="none" stroke="midnightblue" d="M696.11,-548.28C698.41,-533.86 703.96,-504.29 713.83,-481 718.01,-471.15 724.16,-460.97 729.64,-452.78"/>
<polygon fill="midnightblue" stroke="midnightblue" points="732.56,-454.73 735.4,-444.52 726.81,-450.73 732.56,-454.73"/>
</g>
<!-- Node34 -->
<g id="node18" class="node">
<title>Node34</title>
<g id="a_node18"><a xlink:href="../../d4/d0c/speciesThermoTypes_8h.html" target="_top" xlink:title="Contains const definitions for types of species reference&#45;state thermodynamics managers (see Species ...">
<polygon fill="white" stroke="black" points="722.33,-481.5 722.33,-511.5 891.33,-511.5 891.33,-481.5 722.33,-481.5"/>
<text text-anchor="start" x="730.33" y="-499.5" font-family="Helvetica,sans-Serif" font-size="10.00">cantera/thermo/speciesThermo</text>
<text text-anchor="middle" x="806.83" y="-488.5" font-family="Helvetica,sans-Serif" font-size="10.00">Types.h</text>
</a>
</g>
</g>
<!-- Node1&#45;&gt;Node34 -->
<g id="edge27" class="edge">
<title>Node1&#45;&gt;Node34</title>
<path fill="none" stroke="midnightblue" d="M710.88,-548.48C726.62,-540.12 751.14,-527.09 771.45,-516.3"/>
<polygon fill="midnightblue" stroke="midnightblue" points="773.25,-519.31 780.44,-511.52 769.96,-513.12 773.25,-519.31"/>
</g>
<!-- Node35 -->
<g id="node19" class="node">
<title>Node35</title>
<g id="a_node19"><a xlink:href="../../d9/d28/IdealSolidSolnPhase_8h.html" target="_top" xlink:title="Header file for an ideal solid solution model with incompressible thermodynamics (see Thermodynamic P...">
<polygon fill="white" stroke="black" points="846.33,-358.5 846.33,-388.5 989.33,-388.5 989.33,-358.5 846.33,-358.5"/>
<text text-anchor="start" x="854.33" y="-376.5" font-family="Helvetica,sans-Serif" font-size="10.00">cantera/thermo/IdealSolid</text>
<text text-anchor="middle" x="917.83" y="-365.5" font-family="Helvetica,sans-Serif" font-size="10.00">SolnPhase.h</text>
</a>
</g>
</g>
<!-- Node1&#45;&gt;Node35 -->
<g id="edge28" class="edge">
<title>Node1&#45;&gt;Node35</title>
<path fill="none" stroke="midnightblue" d="M763.35,-550.52C815.91,-544.05 882.49,-532.12 900.83,-512 928.84,-481.29 926.78,-429.4 922.49,-398.91"/>
<polygon fill="midnightblue" stroke="midnightblue" points="925.9,-398.04 920.86,-388.72 918.98,-399.15 925.9,-398.04"/>
</g>
<!-- Node49 -->
<g id="node28" class="node">
<title>Node49</title>
<g id="a_node28"><a xlink:href="../../d5/db6/IdealMolalSoln_8h.html" target="_top" xlink:title="ThermoPhase object for the ideal molal equation of state (see Thermodynamic Properties and class Idea...">
<polygon fill="white" stroke="black" points="946.83,-481.5 946.83,-511.5 1092.83,-511.5 1092.83,-481.5 946.83,-481.5"/>
<text text-anchor="start" x="954.83" y="-499.5" font-family="Helvetica,sans-Serif" font-size="10.00">cantera/thermo/IdealMolal</text>
<text text-anchor="middle" x="1019.83" y="-488.5" font-family="Helvetica,sans-Serif" font-size="10.00">Soln.h</text>
</a>
</g>
</g>
<!-- Node1&#45;&gt;Node49 -->
<g id="edge47" class="edge">
<title>Node1&#45;&gt;Node49</title>
<path fill="none" stroke="midnightblue" d="M741.4,-548.48C792.19,-539.18 874.52,-524.1 936.5,-512.76"/>
<polygon fill="midnightblue" stroke="midnightblue" points="937.45,-516.14 946.66,-510.9 936.19,-509.25 937.45,-516.14"/>
</g>
<!-- Node52 -->
<g id="node31" class="node">
<title>Node52</title>
<g id="a_node31"><a xlink:title=" ">
<polygon fill="white" stroke="#bfbfbf" points="1110.83,-487 1110.83,-506 1156.83,-506 1156.83,-487 1110.83,-487"/>
<text text-anchor="middle" x="1133.83" y="-494" font-family="Helvetica,sans-Serif" font-size="10.00">cstdio</text>
</a>
</g>
</g>
<!-- Node1&#45;&gt;Node52 -->
<g id="edge51" class="edge">
<title>Node1&#45;&gt;Node52</title>
<path fill="none" stroke="midnightblue" d="M763.4,-555.97C845.3,-553.25 985.8,-543.84 1101.83,-512 1103.98,-511.41 1106.17,-510.69 1108.35,-509.9"/>
<polygon fill="midnightblue" stroke="midnightblue" points="1109.71,-513.12 1117.6,-506.05 1107.02,-506.66 1109.71,-513.12"/>
</g>
<!-- Node3 -->
<g id="node3" class="node">
<title>Node3</title>
<g id="a_node3"><a xlink:href="../../d4/d71/MultiPhase_8h.html" target="_top" xlink:title="Headers for the MultiPhase object that is used to set up multiphase equilibrium problems (see Chemica...">
<polygon fill="white" stroke="black" points="575.83,-168.5 575.83,-187.5 655.83,-187.5 655.83,-168.5 575.83,-168.5"/>
<text text-anchor="middle" x="615.83" y="-175.5" font-family="Helvetica,sans-Serif" font-size="10.00">MultiPhase.h</text>
</a>
</g>
</g>
<!-- Node2&#45;&gt;Node3 -->
<g id="edge2" class="edge">
<title>Node2&#45;&gt;Node3</title>
<path fill="none" stroke="midnightblue" d="M449.22,-224.47C487.49,-214.03 539.05,-199.96 574.63,-190.25"/>
<polygon fill="midnightblue" stroke="midnightblue" points="575.94,-193.52 584.67,-187.51 574.1,-186.76 575.94,-193.52"/>
</g>
<!-- Node24 -->
<g id="node8" class="node">
<title>Node24</title>
<g id="a_node8"><a xlink:href="../../d4/d51/vcs__solve_8h.html" target="_top" xlink:title="Header file for the internal object that holds the vcs equilibrium problem (see Class VCS_SOLVE and C...">
<polygon fill="white" stroke="black" points="157.83,-168.5 157.83,-187.5 231.83,-187.5 231.83,-168.5 157.83,-168.5"/>
<text text-anchor="middle" x="194.83" y="-175.5" font-family="Helvetica,sans-Serif" font-size="10.00">vcs_solve.h</text>
</a>
</g>
</g>
<!-- Node2&#45;&gt;Node24 -->
<g id="edge9" class="edge">
<title>Node2&#45;&gt;Node24</title>
<path fill="none" stroke="midnightblue" d="M349.98,-224.47C314.5,-214.08 266.75,-200.08 233.63,-190.37"/>
<polygon fill="midnightblue" stroke="midnightblue" points="234.44,-186.96 223.86,-187.51 232.47,-193.68 234.44,-186.96"/>
</g>
<!-- Node4 -->
<g id="node4" class="node">
<title>Node4</title>
<g id="a_node4"><a xlink:href="../../d1/df7/DenseMatrix_8h.html" target="_top" xlink:title="Headers for the DenseMatrix object, which deals with dense rectangular matrices and description of th...">
<polygon fill="white" stroke="black" points="566.83,-112.5 566.83,-131.5 742.83,-131.5 742.83,-112.5 566.83,-112.5"/>
<text text-anchor="middle" x="654.83" y="-119.5" font-family="Helvetica,sans-Serif" font-size="10.00">cantera/numerics/DenseMatrix.h</text>
</a>
</g>
</g>
<!-- Node3&#45;&gt;Node4 -->
<g id="edge3" class="edge">
<title>Node3&#45;&gt;Node4</title>
<path fill="none" stroke="midnightblue" d="M622.27,-168.08C627.78,-160.46 635.87,-149.26 642.6,-139.94"/>
<polygon fill="midnightblue" stroke="midnightblue" points="645.5,-141.91 648.51,-131.75 639.82,-137.81 645.5,-141.91"/>
</g>
<!-- Node5 -->
<g id="node5" class="node">
<title>Node5</title>
<g id="a_node5"><a xlink:href="../../d9/ddc/ct__defs_8h.html" target="_top" xlink:title="This file contains definitions of constants, types and terms that are used in internal routines and a...">
<polygon fill="white" stroke="red" points="550.33,-0.5 550.33,-19.5 677.33,-19.5 677.33,-0.5 550.33,-0.5"/>
<text text-anchor="middle" x="613.83" y="-7.5" font-family="Helvetica,sans-Serif" font-size="10.00">cantera/base/ct_defs.h</text>
</a>
</g>
</g>
<!-- Node4&#45;&gt;Node5 -->
<g id="edge4" class="edge">
<title>Node4&#45;&gt;Node5</title>
<path fill="none" stroke="midnightblue" d="M605.06,-112.45C584.01,-106.1 561.47,-95.09 548.83,-76 535.36,-55.65 561.18,-36.42 584.16,-24.23"/>
<polygon fill="midnightblue" stroke="midnightblue" points="586.01,-27.22 593.38,-19.61 582.87,-20.96 586.01,-27.22"/>
</g>
<!-- Node16 -->
<g id="node6" class="node">
<title>Node16</title>
<g id="a_node6"><a xlink:href="../../db/d98/ctexceptions_8h.html" target="_top" xlink:title="Definitions for the classes that are thrown when Cantera experiences an error condition (also contain...">
<polygon fill="white" stroke="red" points="924.83,-56.5 924.83,-75.5 1078.83,-75.5 1078.83,-56.5 924.83,-56.5"/>
<text text-anchor="middle" x="1001.83" y="-63.5" font-family="Helvetica,sans-Serif" font-size="10.00">cantera/base/ctexceptions.h</text>
</a>
</g>
</g>
<!-- Node4&#45;&gt;Node16 -->
<g id="edge5" class="edge">
<title>Node4&#45;&gt;Node16</title>
<path fill="none" stroke="midnightblue" d="M709.82,-112.44C771.49,-102.85 871.44,-87.29 936.91,-77.1"/>
<polygon fill="midnightblue" stroke="midnightblue" points="937.77,-80.51 947.11,-75.52 936.69,-73.6 937.77,-80.51"/>
</g>
<!-- Node22 -->
<g id="node7" class="node">
<title>Node22</title>
<g id="a_node7"><a xlink:href="../../df/dd0/Array_8h.html" target="_top" xlink:title="Header file for class Cantera::Array2D.">
<polygon fill="white" stroke="red" points="332.83,-56.5 332.83,-75.5 448.83,-75.5 448.83,-56.5 332.83,-56.5"/>
<text text-anchor="middle" x="390.83" y="-63.5" font-family="Helvetica,sans-Serif" font-size="10.00">cantera/base/Array.h</text>
</a>
</g>
</g>
<!-- Node4&#45;&gt;Node22 -->
<g id="edge7" class="edge">
<title>Node4&#45;&gt;Node22</title>
<path fill="none" stroke="midnightblue" d="M613,-112.44C566.76,-102.98 492.22,-87.74 442.4,-77.55"/>
<polygon fill="midnightblue" stroke="midnightblue" points="442.97,-74.09 432.47,-75.52 441.57,-80.95 442.97,-74.09"/>
</g>
<!-- Node16&#45;&gt;Node5 -->
<g id="edge6" class="edge">
<title>Node16&#45;&gt;Node5</title>
<path fill="none" stroke="midnightblue" d="M940.35,-56.44C870.97,-46.79 758.25,-31.1 685.08,-20.92"/>
<polygon fill="midnightblue" stroke="midnightblue" points="685.41,-17.43 675.03,-19.52 684.45,-24.36 685.41,-17.43"/>
</g>
<!-- Node22&#45;&gt;Node5 -->
<g id="edge8" class="edge">
<title>Node22&#45;&gt;Node5</title>
<path fill="none" stroke="midnightblue" d="M426.17,-56.44C464.74,-47.1 526.62,-32.12 568.69,-21.93"/>
<polygon fill="midnightblue" stroke="midnightblue" points="569.77,-25.27 578.66,-19.52 568.12,-18.47 569.77,-25.27"/>
</g>
<!-- Node24&#45;&gt;Node5 -->
<g id="edge10" class="edge">
<title>Node24&#45;&gt;Node5</title>
<path fill="none" stroke="midnightblue" d="M157.83,-177.67C93.96,-177.35 -27.13,-169.39 5.83,-112 58.32,-20.62 389.99,-10.07 540.14,-10.06"/>
<polygon fill="midnightblue" stroke="midnightblue" points="540.19,-13.56 550.2,-10.07 540.2,-6.56 540.19,-13.56"/>
</g>
<!-- Node24&#45;&gt;Node22 -->
<g id="edge15" class="edge">
<title>Node24&#45;&gt;Node22</title>
<path fill="none" stroke="midnightblue" d="M194.79,-168.48C195.2,-154.62 198.1,-127.19 213.83,-112 242.61,-84.22 286,-72.9 322.62,-68.55"/>
<polygon fill="midnightblue" stroke="midnightblue" points="323.16,-72.01 332.75,-67.5 322.44,-65.05 323.16,-72.01"/>
</g>
<!-- Node25 -->
<g id="node9" class="node">
<title>Node25</title>
<g id="a_node9"><a xlink:href="../../da/d80/vcs__defs_8h.html" target="_top" xlink:title="Defines and definitions within the vcs package.">
<polygon fill="white" stroke="black" points="223.33,-112.5 223.33,-131.5 358.33,-131.5 358.33,-112.5 223.33,-112.5"/>
<text text-anchor="middle" x="290.83" y="-119.5" font-family="Helvetica,sans-Serif" font-size="10.00">cantera/equil/vcs_defs.h</text>
</a>
</g>
</g>
<!-- Node24&#45;&gt;Node25 -->
<g id="edge11" class="edge">
<title>Node24&#45;&gt;Node25</title>
<path fill="none" stroke="midnightblue" d="M210.26,-168.32C225.37,-159.82 248.65,-146.73 266.31,-136.8"/>
<polygon fill="midnightblue" stroke="midnightblue" points="268.45,-139.61 275.45,-131.65 265.02,-133.51 268.45,-139.61"/>
</g>
<!-- Node26 -->
<g id="node10" class="node">
<title>Node26</title>
<g id="a_node10"><a xlink:href="../../df/da3/vcs__internal_8h.html" target="_top" xlink:title="Internal declarations for the VCSnonideal package.">
<polygon fill="white" stroke="black" points="14.83,-112.5 14.83,-131.5 166.83,-131.5 166.83,-112.5 14.83,-112.5"/>
<text text-anchor="middle" x="90.83" y="-119.5" font-family="Helvetica,sans-Serif" font-size="10.00">cantera/equil/vcs_internal.h</text>
</a>
</g>
</g>
<!-- Node24&#45;&gt;Node26 -->
<g id="edge12" class="edge">
<title>Node24&#45;&gt;Node26</title>
<path fill="none" stroke="midnightblue" d="M178.12,-168.32C161.52,-159.7 135.83,-146.36 116.61,-136.39"/>
<polygon fill="midnightblue" stroke="midnightblue" points="117.99,-133.16 107.5,-131.65 114.76,-139.37 117.99,-133.16"/>
</g>
<!-- Node27 -->
<g id="node11" class="node">
<title>Node27</title>
<g id="a_node11"><a xlink:href="../../d2/d49/global_8h.html" target="_top" xlink:title="This file contains definitions for utility functions and text for modules, inputfiles and logging,...">
<polygon fill="white" stroke="red" points="110.83,-56.5 110.83,-75.5 232.83,-75.5 232.83,-56.5 110.83,-56.5"/>
<text text-anchor="middle" x="171.83" y="-63.5" font-family="Helvetica,sans-Serif" font-size="10.00">cantera/base/global.h</text>
</a>
</g>
</g>
<!-- Node26&#45;&gt;Node27 -->
<g id="edge13" class="edge">
<title>Node26&#45;&gt;Node27</title>
<path fill="none" stroke="midnightblue" d="M103.85,-112.32C116.37,-103.98 135.52,-91.21 150.31,-81.35"/>
<polygon fill="midnightblue" stroke="midnightblue" points="152.47,-84.11 158.85,-75.65 148.59,-78.29 152.47,-84.11"/>
</g>
<!-- Node27&#45;&gt;Node5 -->
<g id="edge14" class="edge">
<title>Node27&#45;&gt;Node5</title>
<path fill="none" stroke="midnightblue" d="M233.29,-57.49C313.61,-47.68 454.12,-30.51 540.09,-20.01"/>
<polygon fill="midnightblue" stroke="midnightblue" points="540.53,-23.48 550.04,-18.79 539.69,-16.53 540.53,-23.48"/>
</g>
<!-- Node28&#45;&gt;Node22 -->
<g id="edge20" class="edge">
<title>Node28&#45;&gt;Node22</title>
<path fill="none" stroke="midnightblue" d="M431.58,-168.43C423.8,-159.87 412.38,-146.02 405.83,-132 398.94,-117.24 395.1,-99.09 393.03,-85.72"/>
<polygon fill="midnightblue" stroke="midnightblue" points="396.5,-85.23 391.68,-75.79 389.56,-86.17 396.5,-85.23"/>
</g>
<!-- Node28&#45;&gt;Node25 -->
<g id="edge19" class="edge">
<title>Node28&#45;&gt;Node25</title>
<path fill="none" stroke="midnightblue" d="M416.22,-168.44C391.38,-159.44 352.06,-145.19 324.08,-135.05"/>
<polygon fill="midnightblue" stroke="midnightblue" points="324.93,-131.63 314.33,-131.52 322.54,-138.21 324.93,-131.63"/>
</g>
<!-- Node29 -->
<g id="node13" class="node">
<title>Node29</title>
<g id="a_node13"><a xlink:href="../../d0/d2e/vcs__SpeciesProperties_8h.html" target="_top" xlink:title=" ">
<polygon fill="white" stroke="black" points="414.83,-112.5 414.83,-131.5 548.83,-131.5 548.83,-112.5 414.83,-112.5"/>
<text text-anchor="middle" x="481.83" y="-119.5" font-family="Helvetica,sans-Serif" font-size="10.00">vcs_SpeciesProperties.h</text>
</a>
</g>
</g>
<!-- Node28&#45;&gt;Node29 -->
<g id="edge17" class="edge">
<title>Node28&#45;&gt;Node29</title>
<path fill="none" stroke="midnightblue" d="M446.77,-168.08C452.76,-160.38 461.59,-149.03 468.88,-139.65"/>
<polygon fill="midnightblue" stroke="midnightblue" points="471.65,-141.79 475.03,-131.75 466.13,-137.5 471.65,-141.79"/>
</g>
<!-- Node29&#45;&gt;Node5 -->
<g id="edge18" class="edge">
<title>Node29&#45;&gt;Node5</title>
<path fill="none" stroke="midnightblue" d="M488.58,-112.32C499.07,-99.16 520.31,-73.83 541.83,-56 556.36,-43.96 574.35,-32.72 588.72,-24.48"/>
<polygon fill="midnightblue" stroke="midnightblue" points="590.55,-27.46 597.56,-19.52 587.13,-21.36 590.55,-27.46"/>
</g>
<!-- Node30&#45;&gt;Node25 -->
<g id="edge22" class="edge">
<title>Node30&#45;&gt;Node25</title>
<path fill="none" stroke="midnightblue" d="M322.11,-291.23C317.69,-281.28 312.13,-267.59 308.83,-255 298.51,-215.61 293.87,-167.98 291.98,-142.06"/>
<polygon fill="midnightblue" stroke="midnightblue" points="295.46,-141.54 291.3,-131.79 288.47,-142 295.46,-141.54"/>
</g>
<!-- Node32 -->
<g id="node16" class="node">
<title>Node32</title>
<g id="a_node16"><a xlink:title=" ">
<polygon fill="white" stroke="#bfbfbf" points="575.83,-425.5 575.83,-444.5 623.83,-444.5 623.83,-425.5 575.83,-425.5"/>
<text text-anchor="middle" x="599.83" y="-432.5" font-family="Helvetica,sans-Serif" font-size="10.00">time.h</text>
</a>
</g>
</g>
<!-- Node31&#45;&gt;Node32 -->
<g id="edge24" class="edge">
<title>Node31&#45;&gt;Node32</title>
<path fill="none" stroke="midnightblue" d="M599.83,-486.98C599.83,-478.58 599.83,-465.48 599.83,-454.66"/>
<polygon fill="midnightblue" stroke="midnightblue" points="603.33,-454.51 599.83,-444.51 596.33,-454.51 603.33,-454.51"/>
</g>
<!-- Node33&#45;&gt;Node5 -->
<g id="edge26" class="edge">
<title>Node33&#45;&gt;Node5</title>
<path fill="none" stroke="midnightblue" d="M745.27,-425.26C752.96,-404.94 770.83,-352.79 770.83,-307.5 770.83,-307.5 770.83,-307.5 770.83,-177 770.83,-146.9 773.92,-132.45 751.83,-112 694.85,-59.23 629.77,-136.31 580.83,-76 568.59,-60.91 582.91,-40.53 596.33,-26.64"/>
<polygon fill="midnightblue" stroke="midnightblue" points="598.78,-29.15 603.52,-19.67 593.9,-24.12 598.78,-29.15"/>
</g>
<!-- Node36 -->
<g id="node20" class="node">
<title>Node36</title>
<g id="a_node20"><a xlink:href="../../d7/d01/ThermoPhase_8h.html" target="_top" xlink:title="Header file for class ThermoPhase, the base class for phases with thermodynamic properties,...">
<polygon fill="white" stroke="black" points="1004.83,-297 1004.83,-316 1096.83,-316 1096.83,-297 1004.83,-297"/>
<text text-anchor="middle" x="1050.83" y="-304" font-family="Helvetica,sans-Serif" font-size="10.00">ThermoPhase.h</text>
</a>
</g>
</g>
<!-- Node35&#45;&gt;Node36 -->
<g id="edge29" class="edge">
<title>Node35&#45;&gt;Node36</title>
<path fill="none" stroke="midnightblue" d="M946.69,-358.4C969.72,-347.14 1001.72,-331.5 1024.16,-320.54"/>
<polygon fill="midnightblue" stroke="midnightblue" points="1025.98,-323.54 1033.43,-316.01 1022.91,-317.25 1025.98,-323.54"/>
</g>
<!-- Node37 -->
<g id="node21" class="node">
<title>Node37</title>
<g id="a_node21"><a xlink:href="../../da/d84/Phase_8h.html" target="_top" xlink:title="Header file for class Phase.">
<polygon fill="white" stroke="black" points="834.33,-112.5 834.33,-131.5 889.33,-131.5 889.33,-112.5 834.33,-112.5"/>
<text text-anchor="middle" x="861.83" y="-119.5" font-family="Helvetica,sans-Serif" font-size="10.00">Phase.h</text>
</a>
</g>
</g>
<!-- Node36&#45;&gt;Node37 -->
<g id="edge30" class="edge">
<title>Node36&#45;&gt;Node37</title>
<path fill="none" stroke="midnightblue" d="M1036.58,-296.91C1021.51,-287.51 997.4,-271.57 978.83,-255 936.94,-217.61 895.03,-166.05 874.62,-139.81"/>
<polygon fill="midnightblue" stroke="midnightblue" points="877.21,-137.44 868.34,-131.65 871.67,-141.71 877.21,-137.44"/>
</g>
<!-- Node41 -->
<g id="node24" class="node">
<title>Node41</title>
<g id="a_node24"><a xlink:href="../../d6/d7a/MultiSpeciesThermo_8h.html" target="_top" xlink:title="Header for a general species thermodynamic property manager for a phase (see MultiSpeciesThermo).">
<polygon fill="white" stroke="black" points="987.33,-230 987.33,-249 1112.33,-249 1112.33,-230 987.33,-230"/>
<text text-anchor="middle" x="1049.83" y="-237" font-family="Helvetica,sans-Serif" font-size="10.00">MultiSpeciesThermo.h</text>
</a>
</g>
</g>
<!-- Node36&#45;&gt;Node41 -->
<g id="edge36" class="edge">
<title>Node36&#45;&gt;Node41</title>
<path fill="none" stroke="midnightblue" d="M1050.7,-296.73C1050.55,-287.18 1050.31,-271.62 1050.12,-259.28"/>
<polygon fill="midnightblue" stroke="midnightblue" points="1053.62,-259.07 1049.97,-249.13 1046.62,-259.18 1053.62,-259.07"/>
</g>
<!-- Node43 -->
<g id="node26" class="node">
<title>Node43</title>
<g id="a_node26"><a xlink:href="../../dd/d2a/AnyMap_8h.html" target="_top" xlink:title=" ">
<polygon fill="white" stroke="red" points="1080.33,-112.5 1080.33,-131.5 1211.33,-131.5 1211.33,-112.5 1080.33,-112.5"/>
<text text-anchor="middle" x="1145.83" y="-119.5" font-family="Helvetica,sans-Serif" font-size="10.00">cantera/base/AnyMap.h</text>
</a>
</g>
</g>
<!-- Node36&#45;&gt;Node43 -->
<g id="edge46" class="edge">
<title>Node36&#45;&gt;Node43</title>
<path fill="none" stroke="midnightblue" d="M1070.36,-296.88C1086.78,-288.57 1109.5,-274.4 1121.83,-255 1144.36,-219.57 1147.06,-168.59 1146.69,-141.53"/>
<polygon fill="midnightblue" stroke="midnightblue" points="1150.19,-141.4 1146.39,-131.51 1143.19,-141.6 1150.19,-141.4"/>
</g>
<!-- Node44 -->
<g id="node27" class="node">
<title>Node44</title>
<g id="a_node27"><a xlink:href="../../da/d58/Units_8h.html" target="_top" xlink:title="Header for unit conversion utilities, which are used to translate user input from input files (See In...">
<polygon fill="white" stroke="black" points="1173.33,-56.5 1173.33,-75.5 1290.33,-75.5 1290.33,-56.5 1173.33,-56.5"/>
<text text-anchor="middle" x="1231.83" y="-63.5" font-family="Helvetica,sans-Serif" font-size="10.00">cantera/base/Units.h</text>
</a>
</g>
</g>
<!-- Node36&#45;&gt;Node44 -->
<g id="edge45" class="edge">
<title>Node36&#45;&gt;Node44</title>
<path fill="none" stroke="midnightblue" d="M1072.99,-296.9C1092.73,-288.44 1121.54,-274.03 1141.83,-255 1189.23,-210.56 1197.38,-192.59 1220.83,-132 1226.59,-117.14 1229.33,-99.22 1230.65,-85.96"/>
<polygon fill="midnightblue" stroke="midnightblue" points="1234.16,-85.95 1231.47,-75.7 1227.18,-85.39 1234.16,-85.95"/>
</g>
<!-- Node37&#45;&gt;Node16 -->
<g id="edge31" class="edge">
<title>Node37&#45;&gt;Node16</title>
<path fill="none" stroke="midnightblue" d="M884.02,-112.44C907.26,-103.48 943.98,-89.31 970.25,-79.18"/>
<polygon fill="midnightblue" stroke="midnightblue" points="971.68,-82.38 979.75,-75.52 969.16,-75.85 971.68,-82.38"/>
</g>
<!-- Node38 -->
<g id="node22" class="node">
<title>Node38</title>
<g id="a_node22"><a xlink:href="../../d9/dda/Elements_8h.html" target="_top" xlink:title="Contains the getElementWeight function and the definitions of element constraint types.">
<polygon fill="white" stroke="black" points="590.33,-56.5 590.33,-75.5 739.33,-75.5 739.33,-56.5 590.33,-56.5"/>
<text text-anchor="middle" x="664.83" y="-63.5" font-family="Helvetica,sans-Serif" font-size="10.00">cantera/thermo/Elements.h</text>
</a>
</g>
</g>
<!-- Node37&#45;&gt;Node38 -->
<g id="edge32" class="edge">
<title>Node37&#45;&gt;Node38</title>
<path fill="none" stroke="midnightblue" d="M834.03,-113.38C800.63,-104.22 744.32,-88.79 705.91,-78.26"/>
<polygon fill="midnightblue" stroke="midnightblue" points="706.65,-74.83 696.08,-75.56 704.79,-81.58 706.65,-74.83"/>
</g>
<!-- Node39 -->
<g id="node23" class="node">
<title>Node39</title>
<g id="a_node23"><a xlink:href="../../d6/df6/ValueCache_8h.html" target="_top" xlink:title=" ">
<polygon fill="white" stroke="red" points="757.33,-56.5 757.33,-75.5 906.33,-75.5 906.33,-56.5 757.33,-56.5"/>
<text text-anchor="middle" x="831.83" y="-63.5" font-family="Helvetica,sans-Serif" font-size="10.00">cantera/base/ValueCache.h</text>
</a>
</g>
</g>
<!-- Node37&#45;&gt;Node39 -->
<g id="edge34" class="edge">
<title>Node37&#45;&gt;Node39</title>
<path fill="none" stroke="midnightblue" d="M856.88,-112.08C852.73,-104.61 846.68,-93.72 841.57,-84.52"/>
<polygon fill="midnightblue" stroke="midnightblue" points="844.61,-82.79 836.7,-75.75 838.49,-86.19 844.61,-82.79"/>
</g>
<!-- Node38&#45;&gt;Node5 -->
<g id="edge33" class="edge">
<title>Node38&#45;&gt;Node5</title>
<path fill="none" stroke="midnightblue" d="M656.41,-56.08C648.99,-48.22 637.98,-36.57 629.02,-27.08"/>
<polygon fill="midnightblue" stroke="midnightblue" points="631.51,-24.62 622.1,-19.75 626.42,-29.42 631.51,-24.62"/>
</g>
<!-- Node39&#45;&gt;Node5 -->
<g id="edge35" class="edge">
<title>Node39&#45;&gt;Node5</title>
<path fill="none" stroke="midnightblue" d="M797.29,-56.44C759.58,-47.1 699.09,-32.12 657.97,-21.93"/>
<polygon fill="midnightblue" stroke="midnightblue" points="658.76,-18.52 648.22,-19.52 657.08,-25.32 658.76,-18.52"/>
</g>
<!-- Node42 -->
<g id="node25" class="node">
<title>Node42</title>
<g id="a_node25"><a xlink:href="../../d4/d87/SpeciesThermoInterpType_8h.html" target="_top" xlink:title="Pure Virtual Base class for individual species reference state thermodynamic managers and text for th...">
<polygon fill="white" stroke="black" points="970.83,-168.5 970.83,-187.5 1122.83,-187.5 1122.83,-168.5 970.83,-168.5"/>
<text text-anchor="middle" x="1046.83" y="-175.5" font-family="Helvetica,sans-Serif" font-size="10.00">SpeciesThermoInterpType.h</text>
</a>
</g>
</g>
<!-- Node41&#45;&gt;Node42 -->
<g id="edge37" class="edge">
<title>Node41&#45;&gt;Node42</title>
<path fill="none" stroke="midnightblue" d="M1049.4,-229.98C1048.98,-221.58 1048.32,-208.48 1047.78,-197.66"/>
<polygon fill="midnightblue" stroke="midnightblue" points="1051.26,-197.32 1047.26,-187.51 1044.27,-197.67 1051.26,-197.32"/>
</g>
<!-- Node42&#45;&gt;Node5 -->
<g id="edge38" class="edge">
<title>Node42&#45;&gt;Node5</title>
<path fill="none" stroke="midnightblue" d="M1050.09,-168.11C1054.73,-155.54 1063.6,-131.88 1071.83,-112 1078.53,-95.82 1084.2,-93.13 1087.83,-76 1089.68,-67.3 1093.82,-62.58 1087.83,-56 1061.47,-27.01 814.12,-16.28 687.61,-12.66"/>
<polygon fill="midnightblue" stroke="midnightblue" points="687.69,-9.16 677.6,-12.38 687.5,-16.16 687.69,-9.16"/>
</g>
<!-- Node42&#45;&gt;Node16 -->
<g id="edge39" class="edge">
<title>Node42&#45;&gt;Node16</title>
<path fill="none" stroke="midnightblue" d="M1043.3,-168.37C1035.98,-150.46 1018.98,-108.92 1009.18,-84.95"/>
<polygon fill="midnightblue" stroke="midnightblue" points="1012.37,-83.52 1005.35,-75.59 1005.9,-86.17 1012.37,-83.52"/>
</g>
<!-- Node42&#45;&gt;Node43 -->
<g id="edge40" class="edge">
<title>Node42&#45;&gt;Node43</title>
<path fill="none" stroke="midnightblue" d="M1062.74,-168.32C1078.47,-159.74 1102.78,-146.49 1121.04,-136.52"/>
<polygon fill="midnightblue" stroke="midnightblue" points="1122.86,-139.52 1129.97,-131.65 1119.51,-133.37 1122.86,-139.52"/>
</g>
<!-- Node43&#45;&gt;Node5 -->
<g id="edge41" class="edge">
<title>Node43&#45;&gt;Node5</title>
<path fill="none" stroke="midnightblue" d="M1145.28,-112.11C1143.85,-97.72 1138.79,-69.54 1120.83,-56 1087.05,-30.53 820.08,-17.98 687.71,-13.28"/>
<polygon fill="midnightblue" stroke="midnightblue" points="687.77,-9.78 677.65,-12.93 687.52,-16.77 687.77,-9.78"/>
</g>
<!-- Node43&#45;&gt;Node16 -->
<g id="edge42" class="edge">
<title>Node43&#45;&gt;Node16</title>
<path fill="none" stroke="midnightblue" d="M1123.02,-112.44C1099,-103.44 1061.01,-89.19 1033.96,-79.05"/>
<polygon fill="midnightblue" stroke="midnightblue" points="1035.14,-75.75 1024.54,-75.52 1032.68,-82.3 1035.14,-75.75"/>
</g>
<!-- Node43&#45;&gt;Node44 -->
<g id="edge43" class="edge">
<title>Node43&#45;&gt;Node44</title>
<path fill="none" stroke="midnightblue" d="M1159.65,-112.32C1173.07,-103.9 1193.66,-90.97 1209.42,-81.07"/>
<polygon fill="midnightblue" stroke="midnightblue" points="1211.44,-83.94 1218.05,-75.65 1207.72,-78.01 1211.44,-83.94"/>
</g>
<!-- Node44&#45;&gt;Node5 -->
<g id="edge44" class="edge">
<title>Node44&#45;&gt;Node5</title>
<path fill="none" stroke="midnightblue" d="M1173.29,-57.57C1168.4,-57.02 1163.53,-56.48 1158.83,-56 990.66,-38.7 792.75,-23.69 687.85,-16.16"/>
<polygon fill="midnightblue" stroke="midnightblue" points="687.9,-12.66 677.68,-15.43 687.4,-19.64 687.9,-12.66"/>
</g>
<!-- Node50 -->
<g id="node29" class="node">
<title>Node50</title>
<g id="a_node29"><a xlink:href="../../d1/d24/MolalityVPSSTP_8h.html" target="_top" xlink:title="Header for intermediate ThermoPhase object for phases which employ molality based activity coefficien...">
<polygon fill="white" stroke="black" points="992.33,-425.5 992.33,-444.5 1093.33,-444.5 1093.33,-425.5 992.33,-425.5"/>
<text text-anchor="middle" x="1042.83" y="-432.5" font-family="Helvetica,sans-Serif" font-size="10.00">MolalityVPSSTP.h</text>
</a>
</g>
</g>
<!-- Node49&#45;&gt;Node50 -->
<g id="edge48" class="edge">
<title>Node49&#45;&gt;Node50</title>
<path fill="none" stroke="midnightblue" d="M1025.28,-481.4C1028.45,-473.2 1032.48,-462.78 1035.88,-453.99"/>
<polygon fill="midnightblue" stroke="midnightblue" points="1039.15,-455.25 1039.49,-444.66 1032.62,-452.72 1039.15,-455.25"/>
</g>
<!-- Node51 -->
<g id="node30" class="node">
<title>Node51</title>
<g id="a_node30"><a xlink:href="../../df/dfd/VPStandardStateTP_8h.html" target="_top" xlink:title="Header file for a derived class of ThermoPhase that handles variable pressure standard state methods ...">
<polygon fill="white" stroke="black" points="1007.83,-364 1007.83,-383 1125.83,-383 1125.83,-364 1007.83,-364"/>
<text text-anchor="middle" x="1066.83" y="-371" font-family="Helvetica,sans-Serif" font-size="10.00">VPStandardStateTP.h</text>
</a>
</g>
</g>
<!-- Node50&#45;&gt;Node51 -->
<g id="edge49" class="edge">
<title>Node50&#45;&gt;Node51</title>
<path fill="none" stroke="midnightblue" d="M1046.27,-425.48C1049.73,-416.9 1055.17,-403.43 1059.58,-392.48"/>
<polygon fill="midnightblue" stroke="midnightblue" points="1062.91,-393.59 1063.4,-383.01 1056.42,-390.97 1062.91,-393.59"/>
</g>
<!-- Node51&#45;&gt;Node36 -->
<g id="edge50" class="edge">
<title>Node51&#45;&gt;Node36</title>
<path fill="none" stroke="midnightblue" d="M1064.68,-363.73C1062.3,-354.09 1058.42,-338.3 1055.37,-325.91"/>
<polygon fill="midnightblue" stroke="midnightblue" points="1058.75,-325 1052.96,-316.13 1051.95,-326.67 1058.75,-325"/>
</g>
</g>
</svg>
