<?xml version="1.0" encoding="UTF-8" standalone="no"?>
<!DOCTYPE svg PUBLIC "-//W3C//DTD SVG 1.1//EN"
 "http://www.w3.org/Graphics/SVG/1.1/DTD/svg11.dtd">
<!-- Generated by graphviz version 2.50.0 (0)
 -->
<!-- Title: ctml.h Pages: 1 -->
<!--zoomable 140 -->
<svg id="main" version="1.1" xmlns="http://www.w3.org/2000/svg" xmlns:xlink="http://www.w3.org/1999/xlink" xml:space="preserve" onload="init(evt)">
<style type="text/css"><![CDATA[
.edge:hover path { stroke: red; }
.edge:hover polygon { stroke: red; fill: red; }
]]></style>
<script type="text/javascript"><![CDATA[
var edges = document.getElementsByTagName('g');
if (edges && edges.length) {
  for (var i=0;i<edges.length;i++) {
    if (edges[i].id.substr(0,4)=='edge') {
      edges[i].setAttribute('class','edge');
    }
  }
}
]]></script>
        <defs>
                <circle id="rim" cx="0" cy="0" r="7"/>
                <circle id="rim2" cx="0" cy="0" r="3.5"/>
                <g id="zoomPlus">
                        <use xlink:href="#rim" fill="#404040">
                                <set attributeName="fill" to="#808080" begin="zoomplus.mouseover" end="zoomplus.mouseout"/>
                        </use>
                        <path d="M-4,0h8M0,-4v8" fill="none" stroke="white" stroke-width="1.5" pointer-events="none"/>
                </g>
                <g id="zoomMin">
                        <use xlink:href="#rim" fill="#404040">
                                <set attributeName="fill" to="#808080" begin="zoomminus.mouseover" end="zoomminus.mouseout"/>
                        </use>
                        <path d="M-4,0h8" fill="none" stroke="white" stroke-width="1.5" pointer-events="none"/>
                </g>
                <g id="dirArrow">
                        <path fill="none" stroke="white" stroke-width="1.5" d="M0,-3.0v7 M-2.5,-0.5L0,-3.0L2.5,-0.5"/>
                </g>
               <g id="resetDef">
                       <use xlink:href="#rim2" fill="#404040">
                               <set attributeName="fill" to="#808080" begin="reset.mouseover" end="reset.mouseout"/>
                       </use>
               </g>
        </defs>

<script type="text/javascript">
var viewWidth = 4779;
var viewHeight = 140;
var sectionId = 'dynsection-1';
</script>
<script xlink:href="../../svgpan.js"/>
<svg id="graph" class="graph">
<g id="viewport">
<title>ctml.h</title>
<polygon fill="white" stroke="transparent" points="-4,4 -4,-136 4774.5,-136 4774.5,4 -4,4"/>
<!-- Node1 -->
<g id="node1" class="node">
<title>Node1</title>
<g id="a_node1"><a xlink:title="CTML (&quot;Cantera Markup Language&quot;) is the variant of XML that Cantera uses to store data.">
<polygon fill="#bfbfbf" stroke="black" points="2425.5,-112.5 2425.5,-131.5 2469.5,-131.5 2469.5,-112.5 2425.5,-112.5"/>
<text text-anchor="middle" x="2447.5" y="-119.5" font-family="Helvetica,sans-Serif" font-size="10.00">ctml.h</text>
</a>
</g>
</g>
<!-- Node2 -->
<g id="node2" class="node">
<title>Node2</title>
<g id="a_node2"><a xlink:href="../../d4/d20/BinarySolutionTabulatedThermo_8cpp.html" target="_top" xlink:title="Implementation file for an binary solution model with tabulated standard state thermodynamic data (se...">
<polygon fill="white" stroke="black" points="0,-56.5 0,-75.5 173,-75.5 173,-56.5 0,-56.5"/>
<text text-anchor="middle" x="86.5" y="-63.5" font-family="Helvetica,sans-Serif" font-size="10.00">BinarySolutionTabulatedThermo.cpp</text>
</a>
</g>
</g>
<!-- Node1&#45;&gt;Node2 -->
<g id="edge1" class="edge">
<title>Node1&#45;&gt;Node2</title>
<path fill="none" stroke="midnightblue" d="M2415.16,-120.69C2173.39,-118.28 644.89,-102.23 182.5,-76 179.41,-75.82 176.26,-75.63 173.08,-75.41"/>
<polygon fill="midnightblue" stroke="midnightblue" points="2415.36,-124.19 2425.39,-120.79 2415.43,-117.19 2415.36,-124.19"/>
</g>
<!-- Node3 -->
<g id="node3" class="node">
<title>Node3</title>
<g id="a_node3"><a xlink:href="../../de/d16/Boundary1D_8cpp.html" target="_top" xlink:title=" ">
<polygon fill="white" stroke="black" points="191,-56.5 191,-75.5 280,-75.5 280,-56.5 191,-56.5"/>
<text text-anchor="middle" x="235.5" y="-63.5" font-family="Helvetica,sans-Serif" font-size="10.00">Boundary1D.cpp</text>
</a>
</g>
</g>
<!-- Node1&#45;&gt;Node3 -->
<g id="edge2" class="edge">
<title>Node1&#45;&gt;Node3</title>
<path fill="none" stroke="midnightblue" d="M2415.23,-120.97C2180.14,-120.63 727.95,-116.89 289.5,-76 286.47,-75.72 283.36,-75.37 280.22,-74.96"/>
<polygon fill="midnightblue" stroke="midnightblue" points="2415.49,-124.47 2425.49,-120.98 2415.5,-117.47 2415.49,-124.47"/>
</g>
<!-- Node4 -->
<g id="node4" class="node">
<title>Node4</title>
<g id="a_node4"><a xlink:href="../../dc/ddc/DebyeHuckel_8cpp.html" target="_top" xlink:title="Declarations for the DebyeHuckel ThermoPhase object, which models dilute electrolyte solutions (see T...">
<polygon fill="white" stroke="black" points="298,-56.5 298,-75.5 393,-75.5 393,-56.5 298,-56.5"/>
<text text-anchor="middle" x="345.5" y="-63.5" font-family="Helvetica,sans-Serif" font-size="10.00">DebyeHuckel.cpp</text>
</a>
</g>
</g>
<!-- Node1&#45;&gt;Node4 -->
<g id="edge3" class="edge">
<title>Node1&#45;&gt;Node4</title>
<path fill="none" stroke="midnightblue" d="M2415.17,-120.89C2187.05,-119.99 817.06,-113.12 402.5,-76 399.41,-75.72 396.23,-75.38 393.03,-74.99"/>
<polygon fill="midnightblue" stroke="midnightblue" points="2415.43,-124.39 2425.45,-120.93 2415.46,-117.39 2415.43,-124.39"/>
</g>
<!-- Node5 -->
<g id="node5" class="node">
<title>Node5</title>
<g id="a_node5"><a xlink:href="../../dc/d9c/Domain1D_8cpp.html" target="_top" xlink:title=" ">
<polygon fill="white" stroke="black" points="411.5,-56.5 411.5,-75.5 493.5,-75.5 493.5,-56.5 411.5,-56.5"/>
<text text-anchor="middle" x="452.5" y="-63.5" font-family="Helvetica,sans-Serif" font-size="10.00">Domain1D.cpp</text>
</a>
</g>
</g>
<!-- Node1&#45;&gt;Node5 -->
<g id="edge4" class="edge">
<title>Node1&#45;&gt;Node5</title>
<path fill="none" stroke="midnightblue" d="M2415.03,-120.94C2192.96,-120.41 895.35,-115.66 502.5,-76 499.6,-75.71 496.62,-75.34 493.63,-74.92"/>
<polygon fill="midnightblue" stroke="midnightblue" points="2415.34,-124.44 2425.35,-120.96 2415.35,-117.44 2415.34,-124.44"/>
</g>
<!-- Node6 -->
<g id="node6" class="node">
<title>Node6</title>
<g id="a_node6"><a xlink:href="../../d0/d0e/HMWSoln_8cpp.html" target="_top" xlink:title="Definitions for the HMWSoln ThermoPhase object, which models concentrated electrolyte solutions (see ...">
<polygon fill="white" stroke="black" points="511.5,-56.5 511.5,-75.5 591.5,-75.5 591.5,-56.5 511.5,-56.5"/>
<text text-anchor="middle" x="551.5" y="-63.5" font-family="Helvetica,sans-Serif" font-size="10.00">HMWSoln.cpp</text>
</a>
</g>
</g>
<!-- Node1&#45;&gt;Node6 -->
<g id="edge5" class="edge">
<title>Node1&#45;&gt;Node6</title>
<path fill="none" stroke="midnightblue" d="M2415.02,-120.89C2199.52,-120.07 973.38,-113.78 601.5,-76 598.25,-75.67 594.9,-75.25 591.54,-74.77"/>
<polygon fill="midnightblue" stroke="midnightblue" points="2415.32,-124.39 2425.33,-120.93 2415.34,-117.39 2415.32,-124.39"/>
</g>
<!-- Node7 -->
<g id="node7" class="node">
<title>Node7</title>
<g id="a_node7"><a xlink:href="../../d3/d32/IdealMolalSoln_8cpp.html" target="_top" xlink:title="ThermoPhase object for the ideal molal equation of state (see Thermodynamic Properties and class Idea...">
<polygon fill="white" stroke="black" points="610,-56.5 610,-75.5 709,-75.5 709,-56.5 610,-56.5"/>
<text text-anchor="middle" x="659.5" y="-63.5" font-family="Helvetica,sans-Serif" font-size="10.00">IdealMolalSoln.cpp</text>
</a>
</g>
</g>
<!-- Node1&#45;&gt;Node7 -->
<g id="edge6" class="edge">
<title>Node1&#45;&gt;Node7</title>
<path fill="none" stroke="midnightblue" d="M2415.16,-120.71C2208.13,-118.79 1066.15,-106.92 718.5,-76 715.4,-75.72 712.22,-75.39 709.02,-75.01"/>
<polygon fill="midnightblue" stroke="midnightblue" points="2415.34,-124.21 2425.37,-120.81 2415.4,-117.21 2415.34,-124.21"/>
</g>
<!-- Node8 -->
<g id="node8" class="node">
<title>Node8</title>
<g id="a_node8"><a xlink:href="../../de/d05/IdealSolidSolnPhase_8cpp.html" target="_top" xlink:title="Implementation file for an ideal solid solution model with incompressible thermodynamics (see Thermod...">
<polygon fill="white" stroke="black" points="727,-56.5 727,-75.5 852,-75.5 852,-56.5 727,-56.5"/>
<text text-anchor="middle" x="789.5" y="-63.5" font-family="Helvetica,sans-Serif" font-size="10.00">IdealSolidSolnPhase.cpp</text>
</a>
</g>
</g>
<!-- Node1&#45;&gt;Node8 -->
<g id="edge7" class="edge">
<title>Node1&#45;&gt;Node8</title>
<path fill="none" stroke="midnightblue" d="M2415.09,-121.23C2249.88,-122.19 1485.01,-123.7 861.5,-76 858.49,-75.77 855.4,-75.5 852.29,-75.21"/>
<polygon fill="midnightblue" stroke="midnightblue" points="2415.12,-124.73 2425.1,-121.17 2415.08,-117.73 2415.12,-124.73"/>
</g>
<!-- Node9 -->
<g id="node9" class="node">
<title>Node9</title>
<g id="a_node9"><a xlink:href="../../d4/d57/IonFlow_8cpp.html" target="_top" xlink:title=" ">
<polygon fill="white" stroke="black" points="870.5,-56.5 870.5,-75.5 938.5,-75.5 938.5,-56.5 870.5,-56.5"/>
<text text-anchor="middle" x="904.5" y="-63.5" font-family="Helvetica,sans-Serif" font-size="10.00">IonFlow.cpp</text>
</a>
</g>
</g>
<!-- Node1&#45;&gt;Node9 -->
<g id="edge8" class="edge">
<title>Node1&#45;&gt;Node9</title>
<path fill="none" stroke="midnightblue" d="M2415.06,-120.81C2224.21,-119.54 1245.86,-111.42 947.5,-76 944.62,-75.66 941.65,-75.22 938.68,-74.72"/>
<polygon fill="midnightblue" stroke="midnightblue" points="2415.25,-124.31 2425.27,-120.87 2415.29,-117.31 2415.25,-124.31"/>
</g>
<!-- Node10 -->
<g id="node10" class="node">
<title>Node10</title>
<g id="a_node10"><a xlink:href="../../da/d5f/LatticePhase_8cpp.html" target="_top" xlink:title="Definitions for a simple thermodynamics model of a bulk phase derived from ThermoPhase,...">
<polygon fill="white" stroke="black" points="956.5,-56.5 956.5,-75.5 1048.5,-75.5 1048.5,-56.5 956.5,-56.5"/>
<text text-anchor="middle" x="1002.5" y="-63.5" font-family="Helvetica,sans-Serif" font-size="10.00">LatticePhase.cpp</text>
</a>
</g>
</g>
<!-- Node1&#45;&gt;Node10 -->
<g id="edge9" class="edge">
<title>Node1&#45;&gt;Node10</title>
<path fill="none" stroke="midnightblue" d="M2415.18,-120.52C2233.08,-117.76 1333.46,-102.93 1057.5,-76 1054.61,-75.72 1051.64,-75.38 1048.66,-75"/>
<polygon fill="midnightblue" stroke="midnightblue" points="2415.15,-124.02 2425.2,-120.68 2415.25,-117.03 2415.15,-124.02"/>
</g>
<!-- Node11 -->
<g id="node11" class="node">
<title>Node11</title>
<g id="a_node11"><a xlink:href="../../df/dde/LatticeSolidPhase_8cpp.html" target="_top" xlink:title="Definitions for a simple thermodynamics model of a bulk solid phase derived from ThermoPhase,...">
<polygon fill="white" stroke="black" points="1066.5,-56.5 1066.5,-75.5 1180.5,-75.5 1180.5,-56.5 1066.5,-56.5"/>
<text text-anchor="middle" x="1123.5" y="-63.5" font-family="Helvetica,sans-Serif" font-size="10.00">LatticeSolidPhase.cpp</text>
</a>
</g>
</g>
<!-- Node1&#45;&gt;Node11 -->
<g id="edge10" class="edge">
<title>Node1&#45;&gt;Node11</title>
<path fill="none" stroke="midnightblue" d="M2414.77,-121C2270.4,-120.77 1676.12,-117.21 1190.5,-76 1187.34,-75.73 1184.11,-75.42 1180.84,-75.08"/>
<polygon fill="midnightblue" stroke="midnightblue" points="2415.13,-124.5 2425.13,-121.01 2415.13,-117.5 2415.13,-124.5"/>
</g>
<!-- Node12 -->
<g id="node12" class="node">
<title>Node12</title>
<g id="a_node12"><a xlink:href="../../dd/d35/MargulesVPSSTP_8cpp.html" target="_top" xlink:title="Definitions for ThermoPhase object for phases which employ excess Gibbs free energy formulations rela...">
<polygon fill="white" stroke="black" points="1199,-56.5 1199,-75.5 1312,-75.5 1312,-56.5 1199,-56.5"/>
<text text-anchor="middle" x="1255.5" y="-63.5" font-family="Helvetica,sans-Serif" font-size="10.00">MargulesVPSSTP.cpp</text>
</a>
</g>
</g>
<!-- Node1&#45;&gt;Node12 -->
<g id="edge11" class="edge">
<title>Node1&#45;&gt;Node12</title>
<path fill="none" stroke="midnightblue" d="M2415.18,-120.84C2280.82,-119.92 1753.18,-113.97 1321.5,-76 1318.5,-75.74 1315.44,-75.43 1312.34,-75.1"/>
<polygon fill="midnightblue" stroke="midnightblue" points="2415.2,-124.34 2425.23,-120.9 2415.25,-117.34 2415.2,-124.34"/>
</g>
<!-- Node13 -->
<g id="node13" class="node">
<title>Node13</title>
<g id="a_node13"><a xlink:href="../../db/df0/MetalPhase_8h.html" target="_top" xlink:title=" ">
<polygon fill="white" stroke="black" points="1330,-56.5 1330,-75.5 1407,-75.5 1407,-56.5 1330,-56.5"/>
<text text-anchor="middle" x="1368.5" y="-63.5" font-family="Helvetica,sans-Serif" font-size="10.00">MetalPhase.h</text>
</a>
</g>
</g>
<!-- Node1&#45;&gt;Node13 -->
<g id="edge12" class="edge">
<title>Node1&#45;&gt;Node13</title>
<path fill="none" stroke="midnightblue" d="M2415.03,-121.25C2287.36,-121.9 1807.8,-120.99 1416.5,-76 1413.47,-75.65 1410.34,-75.22 1407.2,-74.74"/>
<polygon fill="midnightblue" stroke="midnightblue" points="2415.3,-124.75 2425.28,-121.19 2415.26,-117.75 2415.3,-124.75"/>
</g>
<!-- Node15 -->
<g id="node15" class="node">
<title>Node15</title>
<g id="a_node15"><a xlink:href="../../db/d86/MixtureFugacityTP_8cpp.html" target="_top" xlink:title="Methods file for a derived class of ThermoPhase that handles non&#45;ideal mixtures based on the fugacity...">
<polygon fill="white" stroke="black" points="1425.5,-56.5 1425.5,-75.5 1541.5,-75.5 1541.5,-56.5 1425.5,-56.5"/>
<text text-anchor="middle" x="1483.5" y="-63.5" font-family="Helvetica,sans-Serif" font-size="10.00">MixtureFugacityTP.cpp</text>
</a>
</g>
</g>
<!-- Node1&#45;&gt;Node15 -->
<g id="edge14" class="edge">
<title>Node1&#45;&gt;Node15</title>
<path fill="none" stroke="midnightblue" d="M2415.24,-120.33C2298.67,-117.7 1888.43,-106.71 1551.5,-76 1548.3,-75.71 1545.01,-75.38 1541.7,-75.02"/>
<polygon fill="midnightblue" stroke="midnightblue" points="2415.21,-123.83 2425.29,-120.55 2415.37,-116.83 2415.21,-123.83"/>
</g>
<!-- Node16 -->
<g id="node16" class="node">
<title>Node16</title>
<g id="a_node16"><a xlink:href="../../db/dd7/MolalityVPSSTP_8cpp.html" target="_top" xlink:title="Definitions for intermediate ThermoPhase object for phases which employ molality based activity coeff...">
<polygon fill="white" stroke="black" points="1560,-56.5 1560,-75.5 1667,-75.5 1667,-56.5 1560,-56.5"/>
<text text-anchor="middle" x="1613.5" y="-63.5" font-family="Helvetica,sans-Serif" font-size="10.00">MolalityVPSSTP.cpp</text>
</a>
</g>
</g>
<!-- Node1&#45;&gt;Node16 -->
<g id="edge15" class="edge">
<title>Node1&#45;&gt;Node16</title>
<path fill="none" stroke="midnightblue" d="M2415.32,-120.09C2309.42,-116.87 1962.19,-104.69 1676.5,-76 1673.42,-75.69 1670.26,-75.34 1667.08,-74.96"/>
<polygon fill="midnightblue" stroke="midnightblue" points="2415.27,-123.59 2425.37,-120.39 2415.48,-116.59 2415.27,-123.59"/>
</g>
<!-- Node17 -->
<g id="node17" class="node">
<title>Node17</title>
<g id="a_node17"><a xlink:href="../../df/d58/Mu0Poly_8cpp.html" target="_top" xlink:title="Definitions for a single&#45;species standard state object derived from SpeciesThermoInterpType based on ...">
<polygon fill="white" stroke="black" points="1685.5,-56.5 1685.5,-75.5 1757.5,-75.5 1757.5,-56.5 1685.5,-56.5"/>
<text text-anchor="middle" x="1721.5" y="-63.5" font-family="Helvetica,sans-Serif" font-size="10.00">Mu0Poly.cpp</text>
</a>
</g>
</g>
<!-- Node1&#45;&gt;Node17 -->
<g id="edge16" class="edge">
<title>Node1&#45;&gt;Node17</title>
<path fill="none" stroke="midnightblue" d="M2415.26,-120.32C2317.41,-117.95 2015.43,-108.32 1767.5,-76 1764.27,-75.58 1760.93,-75.07 1757.59,-74.51"/>
<polygon fill="midnightblue" stroke="midnightblue" points="2415.31,-123.82 2425.39,-120.56 2415.47,-116.82 2415.31,-123.82"/>
</g>
<!-- Node18 -->
<g id="node18" class="node">
<title>Node18</title>
<g id="a_node18"><a xlink:href="../../dc/dcd/OneDim_8cpp.html" target="_top" xlink:title=" ">
<polygon fill="white" stroke="black" points="1776,-56.5 1776,-75.5 1847,-75.5 1847,-56.5 1776,-56.5"/>
<text text-anchor="middle" x="1811.5" y="-63.5" font-family="Helvetica,sans-Serif" font-size="10.00">OneDim.cpp</text>
</a>
</g>
</g>
<!-- Node1&#45;&gt;Node18 -->
<g id="edge17" class="edge">
<title>Node1&#45;&gt;Node18</title>
<path fill="none" stroke="midnightblue" d="M2415.38,-119.93C2326.27,-116.65 2068.58,-105.17 1856.5,-76 1853.5,-75.59 1850.4,-75.1 1847.29,-74.57"/>
<polygon fill="midnightblue" stroke="midnightblue" points="2415.28,-123.42 2425.39,-120.28 2415.53,-116.43 2415.28,-123.42"/>
</g>
<!-- Node19 -->
<g id="node19" class="node">
<title>Node19</title>
<g id="a_node19"><a xlink:href="../../d3/d3c/PDSS_8cpp.html" target="_top" xlink:title="Implementation of a pressure dependent standard state virtual function (see class PDSS).">
<polygon fill="white" stroke="black" points="1865,-56.5 1865,-75.5 1928,-75.5 1928,-56.5 1865,-56.5"/>
<text text-anchor="middle" x="1896.5" y="-63.5" font-family="Helvetica,sans-Serif" font-size="10.00">PDSS.cpp</text>
</a>
</g>
</g>
<!-- Node1&#45;&gt;Node19 -->
<g id="edge18" class="edge">
<title>Node1&#45;&gt;Node19</title>
<path fill="none" stroke="midnightblue" d="M2415.21,-119.59C2334.35,-115.74 2116.81,-103.48 1937.5,-76 1934.47,-75.54 1931.34,-74.98 1928.21,-74.38"/>
<polygon fill="midnightblue" stroke="midnightblue" points="2415.11,-123.09 2425.26,-120.06 2415.43,-116.1 2415.11,-123.09"/>
</g>
<!-- Node20 -->
<g id="node20" class="node">
<title>Node20</title>
<g id="a_node20"><a xlink:href="../../da/d94/PDSS__ConstVol_8cpp.html" target="_top" xlink:title="Implementation of a pressure dependent standard state virtual function.">
<polygon fill="white" stroke="black" points="1946,-56.5 1946,-75.5 2055,-75.5 2055,-56.5 1946,-56.5"/>
<text text-anchor="middle" x="2000.5" y="-63.5" font-family="Helvetica,sans-Serif" font-size="10.00">PDSS_ConstVol.cpp</text>
</a>
</g>
</g>
<!-- Node1&#45;&gt;Node20 -->
<g id="edge19" class="edge">
<title>Node1&#45;&gt;Node20</title>
<path fill="none" stroke="midnightblue" d="M2415.3,-117.47C2349.39,-110.18 2194.39,-92.76 2064.5,-76 2061.5,-75.61 2058.41,-75.21 2055.3,-74.79"/>
<polygon fill="midnightblue" stroke="midnightblue" points="2415.13,-120.97 2425.46,-118.59 2415.9,-114.01 2415.13,-120.97"/>
</g>
<!-- Node21 -->
<g id="node21" class="node">
<title>Node21</title>
<g id="a_node21"><a xlink:href="../../d1/d3f/PDSS__HKFT_8cpp.html" target="_top" xlink:title="Definitions for the class PDSS_HKFT (pressure dependent standard state) which handles calculations fo...">
<polygon fill="white" stroke="black" points="2073,-56.5 2073,-75.5 2166,-75.5 2166,-56.5 2073,-56.5"/>
<text text-anchor="middle" x="2119.5" y="-63.5" font-family="Helvetica,sans-Serif" font-size="10.00">PDSS_HKFT.cpp</text>
</a>
</g>
</g>
<!-- Node1&#45;&gt;Node21 -->
<g id="edge20" class="edge">
<title>Node1&#45;&gt;Node21</title>
<path fill="none" stroke="midnightblue" d="M2415.38,-115.71C2357.12,-106.12 2233.83,-85.82 2166.24,-74.7"/>
<polygon fill="midnightblue" stroke="midnightblue" points="2415.03,-119.2 2425.47,-117.37 2416.17,-112.29 2415.03,-119.2"/>
</g>
<!-- Node22 -->
<g id="node22" class="node">
<title>Node22</title>
<g id="a_node22"><a xlink:href="../../d3/d44/PDSS__IdealGas_8cpp.html" target="_top" xlink:title="Implementation of a pressure dependent standard state virtual function.">
<polygon fill="white" stroke="black" points="2184,-56.5 2184,-75.5 2291,-75.5 2291,-56.5 2184,-56.5"/>
<text text-anchor="middle" x="2237.5" y="-63.5" font-family="Helvetica,sans-Serif" font-size="10.00">PDSS_IdealGas.cpp</text>
</a>
</g>
</g>
<!-- Node1&#45;&gt;Node22 -->
<g id="edge21" class="edge">
<title>Node1&#45;&gt;Node22</title>
<path fill="none" stroke="midnightblue" d="M2415.61,-112.8C2376.43,-102.73 2310.31,-85.72 2270.6,-75.51"/>
<polygon fill="midnightblue" stroke="midnightblue" points="2414.87,-116.22 2425.42,-115.32 2416.61,-109.44 2414.87,-116.22"/>
</g>
<!-- Node23 -->
<g id="node23" class="node">
<title>Node23</title>
<g id="a_node23"><a xlink:href="../../dc/dc2/PDSS__IonsFromNeutral_8cpp.html" target="_top" xlink:title="Implementation of a pressure dependent standard state virtual function.">
<polygon fill="white" stroke="black" points="2309,-56.5 2309,-75.5 2450,-75.5 2450,-56.5 2309,-56.5"/>
<text text-anchor="middle" x="2379.5" y="-63.5" font-family="Helvetica,sans-Serif" font-size="10.00">PDSS_IonsFromNeutral.cpp</text>
</a>
</g>
</g>
<!-- Node1&#45;&gt;Node23 -->
<g id="edge22" class="edge">
<title>Node1&#45;&gt;Node23</title>
<path fill="none" stroke="midnightblue" d="M2428.74,-106.1C2416.5,-96.38 2400.94,-84.03 2390.62,-75.83"/>
<polygon fill="midnightblue" stroke="midnightblue" points="2426.57,-108.85 2436.57,-112.32 2430.92,-103.36 2426.57,-108.85"/>
</g>
<!-- Node24 -->
<g id="node24" class="node">
<title>Node24</title>
<g id="a_node24"><a xlink:href="../../d2/d42/PDSS__SSVol_8cpp.html" target="_top" xlink:title="Implementation of a pressure dependent standard state virtual function.">
<polygon fill="white" stroke="black" points="2468.5,-56.5 2468.5,-75.5 2564.5,-75.5 2564.5,-56.5 2468.5,-56.5"/>
<text text-anchor="middle" x="2516.5" y="-63.5" font-family="Helvetica,sans-Serif" font-size="10.00">PDSS_SSVol.cpp</text>
</a>
</g>
</g>
<!-- Node1&#45;&gt;Node24 -->
<g id="edge23" class="edge">
<title>Node1&#45;&gt;Node24</title>
<path fill="none" stroke="midnightblue" d="M2466.54,-106.1C2478.96,-96.38 2494.74,-84.03 2505.21,-75.83"/>
<polygon fill="midnightblue" stroke="midnightblue" points="2464.3,-103.4 2458.59,-112.32 2468.62,-108.92 2464.3,-103.4"/>
</g>
<!-- Node25 -->
<g id="node25" class="node">
<title>Node25</title>
<g id="a_node25"><a xlink:href="../../d2/db8/PDSS__Water_8cpp.html" target="_top" xlink:title=" ">
<polygon fill="white" stroke="black" points="2583,-56.5 2583,-75.5 2676,-75.5 2676,-56.5 2583,-56.5"/>
<text text-anchor="middle" x="2629.5" y="-63.5" font-family="Helvetica,sans-Serif" font-size="10.00">PDSS_Water.cpp</text>
</a>
</g>
</g>
<!-- Node1&#45;&gt;Node25 -->
<g id="edge24" class="edge">
<title>Node1&#45;&gt;Node25</title>
<path fill="none" stroke="midnightblue" d="M2479.79,-111.42C2514.09,-101.24 2567.8,-85.31 2600.7,-75.55"/>
<polygon fill="midnightblue" stroke="midnightblue" points="2478.41,-108.18 2469.82,-114.38 2480.4,-114.89 2478.41,-108.18"/>
</g>
<!-- Node26 -->
<g id="node26" class="node">
<title>Node26</title>
<g id="a_node26"><a xlink:href="../../db/db8/PengRobinson_8cpp.html" target="_top" xlink:title=" ">
<polygon fill="white" stroke="black" points="2694,-56.5 2694,-75.5 2793,-75.5 2793,-56.5 2694,-56.5"/>
<text text-anchor="middle" x="2743.5" y="-63.5" font-family="Helvetica,sans-Serif" font-size="10.00">PengRobinson.cpp</text>
</a>
</g>
</g>
<!-- Node1&#45;&gt;Node26 -->
<g id="edge25" class="edge">
<title>Node1&#45;&gt;Node26</title>
<path fill="none" stroke="midnightblue" d="M2479.84,-115.1C2532.36,-105.52 2636.39,-86.54 2696.89,-75.5"/>
<polygon fill="midnightblue" stroke="midnightblue" points="2478.96,-111.7 2469.75,-116.94 2480.21,-118.59 2478.96,-111.7"/>
</g>
<!-- Node27 -->
<g id="node27" class="node">
<title>Node27</title>
<g id="a_node27"><a xlink:href="../../de/dd9/Phase_8cpp.html" target="_top" xlink:title="Definition file for class Phase.">
<polygon fill="white" stroke="black" points="2811,-56.5 2811,-75.5 2874,-75.5 2874,-56.5 2811,-56.5"/>
<text text-anchor="middle" x="2842.5" y="-63.5" font-family="Helvetica,sans-Serif" font-size="10.00">Phase.cpp</text>
</a>
</g>
</g>
<!-- Node1&#45;&gt;Node27 -->
<g id="edge26" class="edge">
<title>Node1&#45;&gt;Node27</title>
<path fill="none" stroke="midnightblue" d="M2479.65,-117.96C2542.14,-111.83 2684.21,-96.76 2802.5,-76 2805.16,-75.53 2807.92,-75.01 2810.68,-74.45"/>
<polygon fill="midnightblue" stroke="midnightblue" points="2479.24,-114.48 2469.63,-118.94 2479.92,-121.45 2479.24,-114.48"/>
</g>
<!-- Node28 -->
<g id="node28" class="node">
<title>Node28</title>
<g id="a_node28"><a xlink:href="../../d1/d9f/Reaction_8cpp.html" target="_top" xlink:title=" ">
<polygon fill="white" stroke="black" points="2892.5,-56.5 2892.5,-75.5 2966.5,-75.5 2966.5,-56.5 2892.5,-56.5"/>
<text text-anchor="middle" x="2929.5" y="-63.5" font-family="Helvetica,sans-Serif" font-size="10.00">Reaction.cpp</text>
</a>
</g>
</g>
<!-- Node1&#45;&gt;Node28 -->
<g id="edge27" class="edge">
<title>Node1&#45;&gt;Node28</title>
<path fill="none" stroke="midnightblue" d="M2480.15,-118.64C2552.85,-113.18 2733.52,-98.36 2883.5,-76 2886.4,-75.57 2889.39,-75.08 2892.39,-74.56"/>
<polygon fill="midnightblue" stroke="midnightblue" points="2479.54,-115.18 2469.82,-119.41 2480.05,-122.16 2479.54,-115.18"/>
</g>
<!-- Node29 -->
<g id="node29" class="node">
<title>Node29</title>
<g id="a_node29"><a xlink:href="../../d2/dbc/ReactionFactory_8cpp.html" target="_top" xlink:title=" ">
<polygon fill="white" stroke="black" points="2984.5,-56.5 2984.5,-75.5 3090.5,-75.5 3090.5,-56.5 2984.5,-56.5"/>
<text text-anchor="middle" x="3037.5" y="-63.5" font-family="Helvetica,sans-Serif" font-size="10.00">ReactionFactory.cpp</text>
</a>
</g>
</g>
<!-- Node1&#45;&gt;Node29 -->
<g id="edge28" class="edge">
<title>Node1&#45;&gt;Node29</title>
<path fill="none" stroke="midnightblue" d="M2479.69,-118.92C2562.24,-113.45 2788.13,-97.57 2975.5,-76 2978.42,-75.66 2981.41,-75.3 2984.43,-74.91"/>
<polygon fill="midnightblue" stroke="midnightblue" points="2479.43,-115.43 2469.68,-119.58 2479.89,-122.42 2479.43,-115.43"/>
</g>
<!-- Node30 -->
<g id="node30" class="node">
<title>Node30</title>
<g id="a_node30"><a xlink:href="../../d1/dec/RedlichKisterVPSSTP_8cpp.html" target="_top" xlink:title="Definitions for ThermoPhase object for phases which employ excess Gibbs free energy formulations rela...">
<polygon fill="white" stroke="black" points="3108.5,-56.5 3108.5,-75.5 3240.5,-75.5 3240.5,-56.5 3108.5,-56.5"/>
<text text-anchor="middle" x="3174.5" y="-63.5" font-family="Helvetica,sans-Serif" font-size="10.00">RedlichKisterVPSSTP.cpp</text>
</a>
</g>
</g>
<!-- Node1&#45;&gt;Node30 -->
<g id="edge29" class="edge">
<title>Node1&#45;&gt;Node30</title>
<path fill="none" stroke="midnightblue" d="M2479.91,-119.34C2575.1,-114.36 2862.11,-98.42 3099.5,-76 3102.37,-75.73 3105.3,-75.44 3108.27,-75.13"/>
<polygon fill="midnightblue" stroke="midnightblue" points="2479.57,-115.86 2469.77,-119.87 2479.94,-122.85 2479.57,-115.86"/>
</g>
<!-- Node31 -->
<g id="node31" class="node">
<title>Node31</title>
<g id="a_node31"><a xlink:href="../../dd/d0d/RedlichKwongMFTP_8cpp.html" target="_top" xlink:title=" ">
<polygon fill="white" stroke="black" points="3258.5,-56.5 3258.5,-75.5 3382.5,-75.5 3382.5,-56.5 3258.5,-56.5"/>
<text text-anchor="middle" x="3320.5" y="-63.5" font-family="Helvetica,sans-Serif" font-size="10.00">RedlichKwongMFTP.cpp</text>
</a>
</g>
</g>
<!-- Node1&#45;&gt;Node31 -->
<g id="edge30" class="edge">
<title>Node1&#45;&gt;Node31</title>
<path fill="none" stroke="midnightblue" d="M2479.84,-120C2588.62,-116.46 2951.09,-103.25 3249.5,-76 3252.35,-75.74 3255.25,-75.45 3258.19,-75.15"/>
<polygon fill="midnightblue" stroke="midnightblue" points="2479.43,-116.51 2469.55,-120.33 2479.66,-123.51 2479.43,-116.51"/>
</g>
<!-- Node32 -->
<g id="node32" class="node">
<title>Node32</title>
<g id="a_node32"><a xlink:href="../../d7/d17/Species_8cpp_source.html" target="_top" xlink:title=" ">
<polygon fill="white" stroke="black" points="3401,-56.5 3401,-75.5 3472,-75.5 3472,-56.5 3401,-56.5"/>
<text text-anchor="middle" x="3436.5" y="-63.5" font-family="Helvetica,sans-Serif" font-size="10.00">Species.cpp</text>
</a>
</g>
</g>
<!-- Node1&#45;&gt;Node32 -->
<g id="edge31" class="edge">
<title>Node1&#45;&gt;Node32</title>
<path fill="none" stroke="midnightblue" d="M2479.58,-121.21C2599.93,-121.62 3035.83,-119.79 3391.5,-76 3394.5,-75.63 3397.61,-75.17 3400.72,-74.66"/>
<polygon fill="midnightblue" stroke="midnightblue" points="2479.57,-117.71 2469.56,-121.16 2479.54,-124.71 2479.57,-117.71"/>
</g>
<!-- Node33 -->
<g id="node33" class="node">
<title>Node33</title>
<g id="a_node33"><a xlink:href="../../da/d47/SpeciesThermoFactory_8cpp.html" target="_top" xlink:title="Definitions for factory functions to build instances of classes that manage the standard&#45;state thermo...">
<polygon fill="white" stroke="black" points="3490,-56.5 3490,-75.5 3625,-75.5 3625,-56.5 3490,-56.5"/>
<text text-anchor="middle" x="3557.5" y="-63.5" font-family="Helvetica,sans-Serif" font-size="10.00">SpeciesThermoFactory.cpp</text>
</a>
</g>
</g>
<!-- Node1&#45;&gt;Node33 -->
<g id="edge32" class="edge">
<title>Node1&#45;&gt;Node33</title>
<path fill="none" stroke="midnightblue" d="M2479.99,-120.47C2607.73,-118.18 3087.76,-107.84 3481.5,-76 3484.28,-75.78 3487.12,-75.53 3489.98,-75.26"/>
<polygon fill="midnightblue" stroke="midnightblue" points="2479.67,-116.97 2469.73,-120.65 2479.79,-123.97 2479.67,-116.97"/>
</g>
<!-- Node34 -->
<g id="node34" class="node">
<title>Node34</title>
<g id="a_node34"><a xlink:href="../../d4/d8d/StFlow_8cpp.html" target="_top" xlink:title=" ">
<polygon fill="white" stroke="black" points="3643,-56.5 3643,-75.5 3708,-75.5 3708,-56.5 3643,-56.5"/>
<text text-anchor="middle" x="3675.5" y="-63.5" font-family="Helvetica,sans-Serif" font-size="10.00">StFlow.cpp</text>
</a>
</g>
</g>
<!-- Node1&#45;&gt;Node34 -->
<g id="edge33" class="edge">
<title>Node1&#45;&gt;Node34</title>
<path fill="none" stroke="midnightblue" d="M2479.7,-120.56C2645.24,-118.15 3401.8,-105.71 3634.5,-76 3637.25,-75.65 3640.08,-75.2 3642.92,-74.7"/>
<polygon fill="midnightblue" stroke="midnightblue" points="2479.61,-117.06 2469.66,-120.7 2479.71,-124.06 2479.61,-117.06"/>
</g>
<!-- Node35 -->
<g id="node35" class="node">
<title>Node35</title>
<g id="a_node35"><a xlink:href="../../d1/ddb/StoichSubstance_8cpp.html" target="_top" xlink:title="Definition file for the StoichSubstance class, which represents a fixed&#45;composition incompressible su...">
<polygon fill="white" stroke="black" points="3726.5,-56.5 3726.5,-75.5 3836.5,-75.5 3836.5,-56.5 3726.5,-56.5"/>
<text text-anchor="middle" x="3781.5" y="-63.5" font-family="Helvetica,sans-Serif" font-size="10.00">StoichSubstance.cpp</text>
</a>
</g>
</g>
<!-- Node1&#45;&gt;Node35 -->
<g id="edge34" class="edge">
<title>Node1&#45;&gt;Node35</title>
<path fill="none" stroke="midnightblue" d="M2480.1,-121.09C2625.15,-121.25 3226.45,-119.11 3717.5,-76 3720.41,-75.74 3723.38,-75.45 3726.38,-75.12"/>
<polygon fill="midnightblue" stroke="midnightblue" points="2479.7,-117.59 2469.7,-121.08 2479.69,-124.59 2479.7,-117.59"/>
</g>
<!-- Node36 -->
<g id="node36" class="node">
<title>Node36</title>
<g id="a_node36"><a xlink:href="../../d4/d7e/SurfPhase_8cpp.html" target="_top" xlink:title="Definitions for a simple thermodynamic model of a surface phase derived from ThermoPhase,...">
<polygon fill="white" stroke="black" points="3855,-56.5 3855,-75.5 3936,-75.5 3936,-56.5 3855,-56.5"/>
<text text-anchor="middle" x="3895.5" y="-63.5" font-family="Helvetica,sans-Serif" font-size="10.00">SurfPhase.cpp</text>
</a>
</g>
</g>
<!-- Node1&#45;&gt;Node36 -->
<g id="edge35" class="edge">
<title>Node1&#45;&gt;Node36</title>
<path fill="none" stroke="midnightblue" d="M2480.01,-120.6C2663.2,-118.24 3568.18,-105.26 3845.5,-76 3848.57,-75.68 3851.74,-75.27 3854.91,-74.82"/>
<polygon fill="midnightblue" stroke="midnightblue" points="2479.89,-117.1 2469.93,-120.73 2479.98,-124.1 2479.89,-117.1"/>
</g>
<!-- Node37 -->
<g id="node37" class="node">
<title>Node37</title>
<g id="a_node37"><a xlink:href="../../df/d7e/ThermoPhase_8cpp.html" target="_top" xlink:title="Definition file for class ThermoPhase, the base class for phases with thermodynamic properties (see c...">
<polygon fill="white" stroke="black" points="3954.5,-56.5 3954.5,-75.5 4050.5,-75.5 4050.5,-56.5 3954.5,-56.5"/>
<text text-anchor="middle" x="4002.5" y="-63.5" font-family="Helvetica,sans-Serif" font-size="10.00">ThermoPhase.cpp</text>
</a>
</g>
</g>
<!-- Node1&#45;&gt;Node37 -->
<g id="edge36" class="edge">
<title>Node1&#45;&gt;Node37</title>
<path fill="none" stroke="midnightblue" d="M2479.88,-120.59C2670.34,-118.07 3646.75,-103.96 3945.5,-76 3948.39,-75.73 3951.36,-75.4 3954.35,-75.04"/>
<polygon fill="midnightblue" stroke="midnightblue" points="2479.64,-117.09 2469.68,-120.72 2479.73,-124.09 2479.64,-117.09"/>
</g>
<!-- Node38 -->
<g id="node38" class="node">
<title>Node38</title>
<g id="a_node38"><a xlink:href="../../da/dc7/TransportData_8cpp.html" target="_top" xlink:title=" ">
<polygon fill="white" stroke="black" points="4068.5,-56.5 4068.5,-75.5 4166.5,-75.5 4166.5,-56.5 4068.5,-56.5"/>
<text text-anchor="middle" x="4117.5" y="-63.5" font-family="Helvetica,sans-Serif" font-size="10.00">TransportData.cpp</text>
</a>
</g>
</g>
<!-- Node1&#45;&gt;Node38 -->
<g id="edge37" class="edge">
<title>Node1&#45;&gt;Node38</title>
<path fill="none" stroke="midnightblue" d="M2479.81,-120.65C2678.47,-118.44 3736.61,-105.44 4059.5,-76 4062.34,-75.74 4065.26,-75.43 4068.19,-75.08"/>
<polygon fill="midnightblue" stroke="midnightblue" points="2479.68,-117.16 2469.72,-120.77 2479.76,-124.15 2479.68,-117.16"/>
</g>
<!-- Node39 -->
<g id="node39" class="node">
<title>Node39</title>
<g id="a_node39"><a xlink:href="../../d2/d33/TransportFactory_8cpp.html" target="_top" xlink:title="Implementation file for class TransportFactory.">
<polygon fill="white" stroke="black" points="4184.5,-56.5 4184.5,-75.5 4292.5,-75.5 4292.5,-56.5 4184.5,-56.5"/>
<text text-anchor="middle" x="4238.5" y="-63.5" font-family="Helvetica,sans-Serif" font-size="10.00">TransportFactory.cpp</text>
</a>
</g>
</g>
<!-- Node1&#45;&gt;Node39 -->
<g id="edge38" class="edge">
<title>Node1&#45;&gt;Node39</title>
<path fill="none" stroke="midnightblue" d="M2479.81,-120.67C2686.7,-118.49 3827.91,-105.25 4175.5,-76 4178.36,-75.76 4181.29,-75.47 4184.25,-75.16"/>
<polygon fill="midnightblue" stroke="midnightblue" points="2479.58,-117.17 2469.62,-120.78 2479.65,-124.17 2479.58,-117.17"/>
</g>
<!-- Node40 -->
<g id="node40" class="node">
<title>Node40</title>
<g id="a_node40"><a xlink:href="../../d4/d61/WaterProps_8cpp.html" target="_top" xlink:title=" ">
<polygon fill="white" stroke="black" points="4310.5,-56.5 4310.5,-75.5 4396.5,-75.5 4396.5,-56.5 4310.5,-56.5"/>
<text text-anchor="middle" x="4353.5" y="-63.5" font-family="Helvetica,sans-Serif" font-size="10.00">WaterProps.cpp</text>
</a>
</g>
</g>
<!-- Node1&#45;&gt;Node40 -->
<g id="edge39" class="edge">
<title>Node1&#45;&gt;Node40</title>
<path fill="none" stroke="midnightblue" d="M2479.8,-120.87C2695.31,-119.88 3927.7,-112.68 4301.5,-76 4304.42,-75.71 4307.42,-75.36 4310.44,-74.96"/>
<polygon fill="midnightblue" stroke="midnightblue" points="2479.75,-117.37 2469.76,-120.91 2479.78,-124.37 2479.75,-117.37"/>
</g>
<!-- Node41 -->
<g id="node41" class="node">
<title>Node41</title>
<g id="a_node41"><a xlink:href="../../df/d7b/application_8cpp.html" target="_top" xlink:title=" ">
<polygon fill="white" stroke="black" points="4414.5,-56.5 4414.5,-75.5 4496.5,-75.5 4496.5,-56.5 4414.5,-56.5"/>
<text text-anchor="middle" x="4455.5" y="-63.5" font-family="Helvetica,sans-Serif" font-size="10.00">application.cpp</text>
</a>
</g>
</g>
<!-- Node1&#45;&gt;Node41 -->
<g id="edge40" class="edge">
<title>Node1&#45;&gt;Node41</title>
<path fill="none" stroke="midnightblue" d="M2479.51,-120.95C2701.07,-120.46 4009.61,-115.94 4405.5,-76 4408.4,-75.71 4411.38,-75.34 4414.37,-74.92"/>
<polygon fill="midnightblue" stroke="midnightblue" points="2479.5,-117.44 2469.5,-120.97 2479.51,-124.44 2479.5,-117.44"/>
</g>
<!-- Node42 -->
<g id="node42" class="node">
<title>Node42</title>
<g id="a_node42"><a xlink:href="../../dd/da7/ct2ctml_8cpp.html" target="_top" xlink:title="Driver for the system call to the python executable that converts cti files to ctml files (see Input ...">
<polygon fill="white" stroke="black" points="4514.5,-56.5 4514.5,-75.5 4582.5,-75.5 4582.5,-56.5 4514.5,-56.5"/>
<text text-anchor="middle" x="4548.5" y="-63.5" font-family="Helvetica,sans-Serif" font-size="10.00">ct2ctml.cpp</text>
</a>
</g>
</g>
<!-- Node1&#45;&gt;Node42 -->
<g id="edge41" class="edge">
<title>Node1&#45;&gt;Node42</title>
<path fill="none" stroke="midnightblue" d="M2479.72,-121.11C2708.42,-121.77 4089.15,-123.71 4505.5,-76 4508.38,-75.67 4511.35,-75.24 4514.33,-74.75"/>
<polygon fill="midnightblue" stroke="midnightblue" points="2479.72,-117.61 2469.71,-121.08 2479.7,-124.61 2479.72,-117.61"/>
</g>
<!-- Node43 -->
<g id="node43" class="node">
<title>Node43</title>
<g id="a_node43"><a xlink:href="../../dd/de5/ctml_8cpp.html" target="_top" xlink:title="Definitions for functions to read and write CTML.">
<polygon fill="white" stroke="black" points="4600.5,-56.5 4600.5,-75.5 4654.5,-75.5 4654.5,-56.5 4600.5,-56.5"/>
<text text-anchor="middle" x="4627.5" y="-63.5" font-family="Helvetica,sans-Serif" font-size="10.00">ctml.cpp</text>
</a>
</g>
</g>
<!-- Node1&#45;&gt;Node43 -->
<g id="edge42" class="edge">
<title>Node1&#45;&gt;Node43</title>
<path fill="none" stroke="midnightblue" d="M2479.96,-120.76C2732.09,-118.82 4373.56,-105.15 4591.5,-76 4594.44,-75.61 4597.48,-75.06 4600.5,-74.44"/>
<polygon fill="midnightblue" stroke="midnightblue" points="2479.62,-117.26 2469.65,-120.84 2479.67,-124.26 2479.62,-117.26"/>
</g>
<!-- Node44 -->
<g id="node44" class="node">
<title>Node44</title>
<g id="a_node44"><a xlink:href="../../d8/d22/importKinetics_8cpp.html" target="_top" xlink:title="Declarations of global routines for the importing of kinetics data from XML files (see Input File Han...">
<polygon fill="white" stroke="black" points="4672.5,-56.5 4672.5,-75.5 4770.5,-75.5 4770.5,-56.5 4672.5,-56.5"/>
<text text-anchor="middle" x="4721.5" y="-63.5" font-family="Helvetica,sans-Serif" font-size="10.00">importKinetics.cpp</text>
</a>
</g>
</g>
<!-- Node1&#45;&gt;Node44 -->
<g id="edge43" class="edge">
<title>Node1&#45;&gt;Node44</title>
<path fill="none" stroke="midnightblue" d="M2479.9,-120.94C2718.96,-120.39 4212.58,-115.39 4663.5,-76 4666.34,-75.75 4669.26,-75.45 4672.19,-75.11"/>
<polygon fill="midnightblue" stroke="midnightblue" points="2479.77,-117.44 2469.78,-120.96 2479.78,-124.44 2479.77,-117.44"/>
</g>
<!-- Node14 -->
<g id="node14" class="node">
<title>Node14</title>
<g id="a_node14"><a xlink:href="../../d2/d3a/ThermoFactory_8cpp.html" target="_top" xlink:title="Definitions for the factory class that can create known ThermoPhase objects (see Thermodynamic Proper...">
<polygon fill="white" stroke="black" points="1318.5,-0.5 1318.5,-19.5 1418.5,-19.5 1418.5,-0.5 1318.5,-0.5"/>
<text text-anchor="middle" x="1368.5" y="-7.5" font-family="Helvetica,sans-Serif" font-size="10.00">ThermoFactory.cpp</text>
</a>
</g>
</g>
<!-- Node13&#45;&gt;Node14 -->
<g id="edge13" class="edge">
<title>Node13&#45;&gt;Node14</title>
<path fill="none" stroke="midnightblue" d="M1368.5,-45.8C1368.5,-36.91 1368.5,-26.78 1368.5,-19.75"/>
<polygon fill="midnightblue" stroke="midnightblue" points="1365,-46.08 1368.5,-56.08 1372,-46.08 1365,-46.08"/>
</g>
</g>
</svg>
        <g id="navigator" transform="translate(0 0)" fill="#404254">
                <rect fill="#f2f5e9" fill-opacity="0.5" stroke="#606060" stroke-width=".5" x="0" y="0" width="60" height="60"/>
                <use id="zoomplus" xlink:href="#zoomPlus" x="17" y="9" onmousedown="handleZoom(evt,'in')"/>
                <use id="zoomminus" xlink:href="#zoomMin" x="42" y="9" onmousedown="handleZoom(evt,'out')"/>
                <use id="reset" xlink:href="#resetDef" x="30" y="36" onmousedown="handleReset()"/>
                <g id="arrowUp" xlink:href="#dirArrow" transform="translate(30 24)" onmousedown="handlePan(0,-1)">
                  <use xlink:href="#rim" fill="#404040">
                        <set attributeName="fill" to="#808080" begin="arrowUp.mouseover" end="arrowUp.mouseout"/>
                  </use>
                  <path fill="none" stroke="white" stroke-width="1.5" d="M0,-3.0v7 M-2.5,-0.5L0,-3.0L2.5,-0.5"/>
                </g>
                <g id="arrowRight" xlink:href="#dirArrow" transform="rotate(90) translate(36 -43)" onmousedown="handlePan(1,0)">
                  <use xlink:href="#rim" fill="#404040">
                        <set attributeName="fill" to="#808080" begin="arrowRight.mouseover" end="arrowRight.mouseout"/>
                  </use>
                  <path fill="none" stroke="white" stroke-width="1.5" d="M0,-3.0v7 M-2.5,-0.5L0,-3.0L2.5,-0.5"/>
                </g>
                <g id="arrowDown" xlink:href="#dirArrow" transform="rotate(180) translate(-30 -48)" onmousedown="handlePan(0,1)">
                  <use xlink:href="#rim" fill="#404040">
                        <set attributeName="fill" to="#808080" begin="arrowDown.mouseover" end="arrowDown.mouseout"/>
                  </use>
                  <path fill="none" stroke="white" stroke-width="1.5" d="M0,-3.0v7 M-2.5,-0.5L0,-3.0L2.5,-0.5"/>
                </g>
                <g id="arrowLeft" xlink:href="#dirArrow" transform="rotate(270) translate(-36 17)" onmousedown="handlePan(-1,0)">
                  <use xlink:href="#rim" fill="#404040">
                        <set attributeName="fill" to="#808080" begin="arrowLeft.mouseover" end="arrowLeft.mouseout"/>
                  </use>
                  <path fill="none" stroke="white" stroke-width="1.5" d="M0,-3.0v7 M-2.5,-0.5L0,-3.0L2.5,-0.5"/>
                </g>
        </g>
        <svg viewBox="0 0 15 15" width="100%" height="30px" preserveAspectRatio="xMaxYMin meet">
         <g id="arrow_out" transform="scale(0.3 0.3)">
          <a xlink:href="ctml_8h__dep__incl_org.svg" target="_base">
           <rect id="button" ry="5" rx="5" y="6" x="6" height="38" width="38"
                fill="#f2f5e9" fill-opacity="0.5" stroke="#606060" stroke-width="1.0"/>
           <path id="arrow"
             d="M 11.500037,31.436501 C 11.940474,20.09759 22.043105,11.32322 32.158766,21.979434 L 37.068811,17.246167 C 37.068811,17.246167 37.088388,32 37.088388,32 L 22.160133,31.978069 C 22.160133,31.978069 26.997745,27.140456 26.997745,27.140456 C 18.528582,18.264221 13.291696,25.230495 11.500037,31.436501 z"
             style="fill:#404040;"/>
          </a>
         </g>
        </svg>
</svg>
