<?xml version="1.0" encoding="UTF-8" standalone="no"?>
<!DOCTYPE svg PUBLIC "-//W3C//DTD SVG 1.1//EN"
 "http://www.w3.org/Graphics/SVG/1.1/DTD/svg11.dtd">
<!-- Generated by graphviz version 2.50.0 (0)
 -->
<!-- Title: DebyeHuckel Pages: 1 -->
<svg width="468pt" height="296pt"
 viewBox="0.00 0.00 468.00 296.00" xmlns="http://www.w3.org/2000/svg" xmlns:xlink="http://www.w3.org/1999/xlink">
<g id="graph0" class="graph" transform="scale(1 1) rotate(0) translate(4 292)">
<title>DebyeHuckel</title>
<polygon fill="white" stroke="transparent" points="-4,4 -4,-292 464,-292 464,4 -4,4"/>
<!-- Node1 -->
<g id="node1" class="node">
<title>Node1</title>
<g id="a_node1"><a xlink:title="Class DebyeHuckel represents a dilute liquid electrolyte phase which obeys the Debye Huckel formulati...">
<polygon fill="#bfbfbf" stroke="black" points="276,-0.5 276,-19.5 352,-19.5 352,-0.5 276,-0.5"/>
<text text-anchor="middle" x="314" y="-7.5" font-family="Helvetica,sans-Serif" font-size="10.00">DebyeHuckel</text>
</a>
</g>
</g>
<!-- Node2 -->
<g id="node2" class="node">
<title>Node2</title>
<g id="a_node2"><a xlink:href="../../d2/db3/classCantera_1_1MolalityVPSSTP.html" target="_top" xlink:title=" ">
<polygon fill="white" stroke="black" points="147,-67.5 147,-86.5 237,-86.5 237,-67.5 147,-67.5"/>
<text text-anchor="middle" x="192" y="-74.5" font-family="Helvetica,sans-Serif" font-size="10.00">MolalityVPSSTP</text>
</a>
</g>
</g>
<!-- Node2&#45;&gt;Node1 -->
<g id="edge1" class="edge">
<title>Node2&#45;&gt;Node1</title>
<path fill="none" stroke="midnightblue" d="M217.14,-62.6C241.31,-49.73 277.1,-30.66 297.73,-19.67"/>
<polygon fill="midnightblue" stroke="midnightblue" points="215.38,-59.58 208.2,-67.37 218.67,-65.76 215.38,-59.58"/>
</g>
<!-- Node3 -->
<g id="node3" class="node">
<title>Node3</title>
<g id="a_node3"><a xlink:href="../../d8/deb/classCantera_1_1VPStandardStateTP.html" target="_top" xlink:title="This is a filter class for ThermoPhase that implements some preparatory steps for efficiently handlin...">
<polygon fill="white" stroke="black" points="88.5,-134.5 88.5,-153.5 193.5,-153.5 193.5,-134.5 88.5,-134.5"/>
<text text-anchor="middle" x="141" y="-141.5" font-family="Helvetica,sans-Serif" font-size="10.00">VPStandardStateTP</text>
</a>
</g>
</g>
<!-- Node3&#45;&gt;Node2 -->
<g id="edge2" class="edge">
<title>Node3&#45;&gt;Node2</title>
<path fill="none" stroke="midnightblue" d="M154.13,-126.27C164.07,-113.6 177.33,-96.7 185.23,-86.63"/>
<polygon fill="midnightblue" stroke="midnightblue" points="151.3,-124.21 147.88,-134.23 156.8,-128.53 151.3,-124.21"/>
</g>
<!-- Node4 -->
<g id="node4" class="node">
<title>Node4</title>
<g id="a_node4"><a xlink:href="../../dc/d38/classCantera_1_1ThermoPhase.html" target="_top" xlink:title="Base class for a phase with thermodynamic properties.">
<polygon fill="white" stroke="black" points="84.5,-201.5 84.5,-220.5 161.5,-220.5 161.5,-201.5 84.5,-201.5"/>
<text text-anchor="middle" x="123" y="-208.5" font-family="Helvetica,sans-Serif" font-size="10.00">ThermoPhase</text>
</a>
</g>
</g>
<!-- Node4&#45;&gt;Node3 -->
<g id="edge3" class="edge">
<title>Node4&#45;&gt;Node3</title>
<path fill="none" stroke="midnightblue" d="M128.15,-191.41C131.59,-178.99 135.96,-163.22 138.61,-153.63"/>
<polygon fill="midnightblue" stroke="midnightblue" points="124.72,-190.66 125.43,-201.23 131.47,-192.53 124.72,-190.66"/>
</g>
<!-- Node5 -->
<g id="node5" class="node">
<title>Node5</title>
<g id="a_node5"><a xlink:href="../../d6/d0e/classCantera_1_1Phase.html" target="_top" xlink:title="Class Phase is the base class for phases of matter, managing the species and elements in a phase,...">
<polygon fill="white" stroke="red" points="0,-268.5 0,-287.5 44,-287.5 44,-268.5 0,-268.5"/>
<text text-anchor="middle" x="22" y="-275.5" font-family="Helvetica,sans-Serif" font-size="10.00">Phase</text>
</a>
</g>
</g>
<!-- Node5&#45;&gt;Node4 -->
<g id="edge4" class="edge">
<title>Node5&#45;&gt;Node4</title>
<path fill="none" stroke="midnightblue" d="M44.11,-262.77C64.11,-249.9 92.89,-231.38 109.59,-220.63"/>
<polygon fill="midnightblue" stroke="midnightblue" points="42.14,-259.88 35.62,-268.23 45.92,-265.77 42.14,-259.88"/>
</g>
<!-- Node8 -->
<g id="node6" class="node">
<title>Node8</title>
<g id="a_node6"><a xlink:href="../../d5/dda/classCantera_1_1MultiSpeciesThermo.html" target="_top" xlink:title="A species thermodynamic property manager for a phase.">
<polygon fill="white" stroke="black" points="62,-268.5 62,-287.5 168,-287.5 168,-268.5 62,-268.5"/>
<text text-anchor="middle" x="115" y="-275.5" font-family="Helvetica,sans-Serif" font-size="10.00">MultiSpeciesThermo</text>
</a>
</g>
</g>
<!-- Node8&#45;&gt;Node4 -->
<g id="edge5" class="edge">
<title>Node8&#45;&gt;Node4</title>
<path fill="none" stroke="#9a32cd" stroke-dasharray="5,2" d="M114.65,-258.18C114.76,-252.04 115.13,-245.21 116,-239 116.86,-232.86 118.61,-226.11 120.15,-220.9"/>
<polygon fill="#9a32cd" stroke="#9a32cd" points="111.15,-258.21 114.67,-268.2 118.15,-258.19 111.15,-258.21"/>
<text text-anchor="middle" x="145" y="-242" font-family="Helvetica,sans-Serif" font-size="10.00"> m_spthermo</text>
</g>
<!-- Node9 -->
<g id="node7" class="node">
<title>Node9</title>
<g id="a_node7"><a xlink:href="../../db/d74/classCantera_1_1AnyMap.html" target="_top" xlink:title="A map of string keys to values whose type can vary at runtime.">
<polygon fill="white" stroke="red" points="229.5,-268.5 229.5,-287.5 282.5,-287.5 282.5,-268.5 229.5,-268.5"/>
<text text-anchor="middle" x="256" y="-275.5" font-family="Helvetica,sans-Serif" font-size="10.00">AnyMap</text>
</a>
</g>
</g>
<!-- Node9&#45;&gt;Node4 -->
<g id="edge6" class="edge">
<title>Node9&#45;&gt;Node4</title>
<path fill="none" stroke="#9a32cd" stroke-dasharray="5,2" d="M229.28,-263.94C202.94,-251.07 163.43,-231.76 140.73,-220.67"/>
<polygon fill="#9a32cd" stroke="#9a32cd" points="227.82,-267.12 238.34,-268.37 230.89,-260.83 227.82,-267.12"/>
<text text-anchor="middle" x="217" y="-242" font-family="Helvetica,sans-Serif" font-size="10.00"> m_input</text>
</g>
<!-- Node13 -->
<g id="node10" class="node">
<title>Node13</title>
<g id="a_node10"><a xlink:href="../../de/dbe/classCantera_1_1PDSS.html" target="_top" xlink:title="Virtual base class for a species with a pressure dependent standard state.">
<polygon fill="white" stroke="black" points="233,-201.5 233,-220.5 277,-220.5 277,-201.5 233,-201.5"/>
<text text-anchor="middle" x="255" y="-208.5" font-family="Helvetica,sans-Serif" font-size="10.00">PDSS</text>
</a>
</g>
</g>
<!-- Node9&#45;&gt;Node13 -->
<g id="edge10" class="edge">
<title>Node9&#45;&gt;Node13</title>
<path fill="none" stroke="#9a32cd" stroke-dasharray="5,2" d="M255.71,-258.04C255.52,-245.67 255.28,-230.12 255.13,-220.63"/>
<polygon fill="#9a32cd" stroke="#9a32cd" points="252.21,-258.29 255.87,-268.23 259.21,-258.18 252.21,-258.29"/>
<text text-anchor="middle" x="275" y="-242" font-family="Helvetica,sans-Serif" font-size="10.00"> m_input</text>
</g>
<!-- Node11 -->
<g id="node8" class="node">
<title>Node11</title>
<g id="a_node8"><a xlink:href="../../de/d64/classCantera_1_1PDSS__Water.html" target="_top" xlink:title="Class for the liquid water pressure dependent standard state.">
<polygon fill="white" stroke="black" points="276.5,-67.5 276.5,-86.5 351.5,-86.5 351.5,-67.5 276.5,-67.5"/>
<text text-anchor="middle" x="314" y="-74.5" font-family="Helvetica,sans-Serif" font-size="10.00">PDSS_Water</text>
</a>
</g>
</g>
<!-- Node11&#45;&gt;Node1 -->
<g id="edge7" class="edge">
<title>Node11&#45;&gt;Node1</title>
<path fill="none" stroke="#9a32cd" stroke-dasharray="5,2" d="M314,-57.04C314,-44.67 314,-29.12 314,-19.63"/>
<polygon fill="#9a32cd" stroke="#9a32cd" points="310.5,-57.23 314,-67.23 317.5,-57.23 310.5,-57.23"/>
<text text-anchor="middle" x="341.5" y="-41" font-family="Helvetica,sans-Serif" font-size="10.00"> m_waterSS</text>
</g>
<!-- Node12 -->
<g id="node9" class="node">
<title>Node12</title>
<g id="a_node9"><a xlink:href="../../d5/d6a/classCantera_1_1PDSS__Molar.html" target="_top" xlink:title="Base class for PDSS classes which compute molar properties directly.">
<polygon fill="white" stroke="black" points="214,-134.5 214,-153.5 288,-153.5 288,-134.5 214,-134.5"/>
<text text-anchor="middle" x="251" y="-141.5" font-family="Helvetica,sans-Serif" font-size="10.00">PDSS_Molar</text>
</a>
</g>
</g>
<!-- Node12&#45;&gt;Node11 -->
<g id="edge8" class="edge">
<title>Node12&#45;&gt;Node11</title>
<path fill="none" stroke="midnightblue" d="M266.51,-127C278.87,-114.25 295.69,-96.89 305.64,-86.63"/>
<polygon fill="midnightblue" stroke="midnightblue" points="263.94,-124.62 259.5,-134.23 268.97,-129.49 263.94,-124.62"/>
</g>
<!-- Node13&#45;&gt;Node12 -->
<g id="edge9" class="edge">
<title>Node13&#45;&gt;Node12</title>
<path fill="none" stroke="midnightblue" d="M253.83,-191.04C253.07,-178.67 252.12,-163.12 251.53,-153.63"/>
<polygon fill="midnightblue" stroke="midnightblue" points="250.35,-191.47 254.46,-201.23 257.34,-191.04 250.35,-191.47"/>
</g>
<!-- Node14 -->
<g id="node11" class="node">
<title>Node14</title>
<g id="a_node11"><a xlink:href="../../d9/d05/classCantera_1_1WaterPropsIAPWS.html" target="_top" xlink:title="Class for calculating the equation of state of water.">
<polygon fill="white" stroke="black" points="308.5,-201.5 308.5,-220.5 409.5,-220.5 409.5,-201.5 308.5,-201.5"/>
<text text-anchor="middle" x="359" y="-208.5" font-family="Helvetica,sans-Serif" font-size="10.00">WaterPropsIAPWS</text>
</a>
</g>
</g>
<!-- Node14&#45;&gt;Node11 -->
<g id="edge11" class="edge">
<title>Node14&#45;&gt;Node11</title>
<path fill="none" stroke="#9a32cd" stroke-dasharray="5,2" d="M349.72,-192.29C344.31,-181.45 337.66,-167.17 333,-154 324.57,-130.15 318.36,-100.84 315.59,-86.59"/>
<polygon fill="#9a32cd" stroke="#9a32cd" points="346.75,-194.17 354.42,-201.48 352.99,-190.99 346.75,-194.17"/>
<text text-anchor="middle" x="349.5" y="-141.5" font-family="Helvetica,sans-Serif" font-size="10.00"> m_sub</text>
</g>
<!-- Node16 -->
<g id="node13" class="node">
<title>Node16</title>
<g id="a_node13"><a xlink:href="../../d2/db1/classCantera_1_1WaterProps.html" target="_top" xlink:title="The WaterProps class is used to house several approximation routines for properties of water.">
<polygon fill="white" stroke="black" points="375,-134.5 375,-153.5 443,-153.5 443,-134.5 375,-134.5"/>
<text text-anchor="middle" x="409" y="-141.5" font-family="Helvetica,sans-Serif" font-size="10.00">WaterProps</text>
</a>
</g>
</g>
<!-- Node14&#45;&gt;Node16 -->
<g id="edge14" class="edge">
<title>Node14&#45;&gt;Node16</title>
<path fill="none" stroke="#9a32cd" stroke-dasharray="5,2" d="M371.87,-193.27C381.62,-180.6 394.61,-163.7 402.36,-153.63"/>
<polygon fill="#9a32cd" stroke="#9a32cd" points="369.07,-191.17 365.74,-201.23 374.61,-195.44 369.07,-191.17"/>
<text text-anchor="middle" x="423" y="-175" font-family="Helvetica,sans-Serif" font-size="10.00"> m_waterIAPWS</text>
</g>
<!-- Node15 -->
<g id="node12" class="node">
<title>Node15</title>
<g id="a_node12"><a xlink:href="../../d2/d40/classCantera_1_1WaterPropsIAPWSphi.html" target="_top" xlink:title="Low level class for the real description of water.">
<polygon fill="white" stroke="black" points="302.5,-268.5 302.5,-287.5 415.5,-287.5 415.5,-268.5 302.5,-268.5"/>
<text text-anchor="middle" x="359" y="-275.5" font-family="Helvetica,sans-Serif" font-size="10.00">WaterPropsIAPWSphi</text>
</a>
</g>
</g>
<!-- Node15&#45;&gt;Node14 -->
<g id="edge12" class="edge">
<title>Node15&#45;&gt;Node14</title>
<path fill="none" stroke="#9a32cd" stroke-dasharray="5,2" d="M359,-258.04C359,-245.67 359,-230.12 359,-220.63"/>
<polygon fill="#9a32cd" stroke="#9a32cd" points="355.5,-258.23 359,-268.23 362.5,-258.23 355.5,-258.23"/>
<text text-anchor="middle" x="374" y="-242" font-family="Helvetica,sans-Serif" font-size="10.00"> m_phi</text>
</g>
<!-- Node16&#45;&gt;Node11 -->
<g id="edge13" class="edge">
<title>Node16&#45;&gt;Node11</title>
<path fill="none" stroke="#9a32cd" stroke-dasharray="5,2" d="M387.69,-128.42C368.91,-115.57 342.18,-97.28 326.61,-86.63"/>
<polygon fill="#9a32cd" stroke="#9a32cd" points="385.96,-131.48 396.19,-134.23 389.91,-125.7 385.96,-131.48"/>
<text text-anchor="middle" x="400.5" y="-108" font-family="Helvetica,sans-Serif" font-size="10.00"> m_waterProps</text>
</g>
<!-- Node17 -->
<g id="node14" class="node">
<title>Node17</title>
<g id="a_node14"><a xlink:href="../../d1/dcf/classCantera_1_1Array2D.html" target="_top" xlink:title="A class for 2D arrays stored in column&#45;major (Fortran&#45;compatible) form.">
<polygon fill="white" stroke="black" points="369.5,-67.5 369.5,-86.5 422.5,-86.5 422.5,-67.5 369.5,-67.5"/>
<text text-anchor="middle" x="396" y="-74.5" font-family="Helvetica,sans-Serif" font-size="10.00">Array2D</text>
</a>
</g>
</g>
<!-- Node17&#45;&gt;Node1 -->
<g id="edge15" class="edge">
<title>Node17&#45;&gt;Node1</title>
<path fill="none" stroke="#9a32cd" stroke-dasharray="5,2" d="M388.01,-58.04C384.24,-51.1 379.19,-43.51 373,-38 363.92,-29.91 352,-23.84 341.25,-19.52"/>
<polygon fill="#9a32cd" stroke="#9a32cd" points="385.07,-60 392.61,-67.44 391.36,-56.92 385.07,-60"/>
<text text-anchor="middle" x="405.5" y="-41" font-family="Helvetica,sans-Serif" font-size="10.00"> m_Beta_ij</text>
</g>
</g>
</svg>
