<?xml version="1.0" encoding="UTF-8" standalone="no"?>
<!DOCTYPE svg PUBLIC "-//W3C//DTD SVG 1.1//EN"
 "http://www.w3.org/Graphics/SVG/1.1/DTD/svg11.dtd">
<!-- Generated by graphviz version 2.43.0 (0)
 -->
<!-- Title: solveSP.cpp Pages: 1 -->
<svg width="1155pt" height="498pt"
 viewBox="0.00 0.00 1154.79 498.00" xmlns="http://www.w3.org/2000/svg" xmlns:xlink="http://www.w3.org/1999/xlink">
<g id="graph0" class="graph" transform="scale(1 1) rotate(0) translate(4 494)">
<title>solveSP.cpp</title>
<polygon fill="white" stroke="transparent" points="-4,4 -4,-494 1150.79,-494 1150.79,4 -4,4"/>
<!-- Node1 -->
<g id="node1" class="node">
<title>Node1</title>
<g id="a_node1"><a xlink:title="Implicit surface site concentration solver.">
<polygon fill="#bfbfbf" stroke="black" points="525,-470.5 525,-489.5 599,-489.5 599,-470.5 525,-470.5"/>
<text text-anchor="middle" x="562" y="-477.5" font-family="Helvetica,sans-Serif" font-size="10.00">solveSP.cpp</text>
</a>
</g>
</g>
<!-- Node2 -->
<g id="node2" class="node">
<title>Node2</title>
<g id="a_node2"><a xlink:href="../../d2/d25/solveSP_8h.html" target="_top" xlink:title="Header file for implicit surface problem solver (see Chemical Kinetics and class solveSP).">
<polygon fill="white" stroke="black" points="390.5,-347.5 390.5,-366.5 533.5,-366.5 533.5,-347.5 390.5,-347.5"/>
<text text-anchor="middle" x="462" y="-354.5" font-family="Helvetica,sans-Serif" font-size="10.00">cantera/kinetics/solveSP.h</text>
</a>
</g>
</g>
<!-- Node1&#45;&gt;Node2 -->
<g id="edge1" class="edge">
<title>Node1&#45;&gt;Node2</title>
<path fill="none" stroke="midnightblue" d="M538.62,-470.47C521.75,-463.2 499.63,-451.17 486,-434 472.86,-417.45 466.85,-393.59 464.15,-377.04"/>
<polygon fill="midnightblue" stroke="midnightblue" points="467.59,-376.35 462.76,-366.93 460.65,-377.31 467.59,-376.35"/>
</g>
<!-- Node42 -->
<g id="node19" class="node">
<title>Node42</title>
<g id="a_node19"><a xlink:href="../../d2/de5/SurfPhase_8h.html" target="_top" xlink:title="Header for a simple thermodynamics model of a surface phase derived from ThermoPhase,...">
<polygon fill="white" stroke="black" points="800,-409 800,-428 952,-428 952,-409 800,-409"/>
<text text-anchor="middle" x="876" y="-416" font-family="Helvetica,sans-Serif" font-size="10.00">cantera/thermo/SurfPhase.h</text>
</a>
</g>
</g>
<!-- Node1&#45;&gt;Node42 -->
<g id="edge31" class="edge">
<title>Node1&#45;&gt;Node42</title>
<path fill="none" stroke="midnightblue" d="M599.25,-471.94C654.23,-461.52 757.42,-441.97 821.09,-429.91"/>
<polygon fill="midnightblue" stroke="midnightblue" points="821.78,-433.34 830.95,-428.04 820.47,-426.46 821.78,-433.34"/>
</g>
<!-- Node48 -->
<g id="node25" class="node">
<title>Node48</title>
<g id="a_node25"><a xlink:href="../../da/d1f/ImplicitSurfChem_8h.html" target="_top" xlink:title="Declarations for the implicit integration of surface site density equations (see Kinetics Managers an...">
<polygon fill="white" stroke="black" points="495,-403.5 495,-433.5 629,-433.5 629,-403.5 495,-403.5"/>
<text text-anchor="start" x="503" y="-421.5" font-family="Helvetica,sans-Serif" font-size="10.00">cantera/kinetics/Implicit</text>
<text text-anchor="middle" x="562" y="-410.5" font-family="Helvetica,sans-Serif" font-size="10.00">SurfChem.h</text>
</a>
</g>
</g>
<!-- Node1&#45;&gt;Node48 -->
<g id="edge45" class="edge">
<title>Node1&#45;&gt;Node48</title>
<path fill="none" stroke="midnightblue" d="M562,-470.48C562,-463.47 562,-453.19 562,-443.7"/>
<polygon fill="midnightblue" stroke="midnightblue" points="565.5,-443.52 562,-433.52 558.5,-443.52 565.5,-443.52"/>
</g>
<!-- Node3 -->
<g id="node3" class="node">
<title>Node3</title>
<g id="a_node3"><a xlink:href="../../d7/d0d/InterfaceKinetics_8h.html" target="_top" xlink:title=" ">
<polygon fill="white" stroke="black" points="410.5,-280.5 410.5,-310.5 551.5,-310.5 551.5,-280.5 410.5,-280.5"/>
<text text-anchor="start" x="418.5" y="-298.5" font-family="Helvetica,sans-Serif" font-size="10.00">cantera/kinetics/Interface</text>
<text text-anchor="middle" x="481" y="-287.5" font-family="Helvetica,sans-Serif" font-size="10.00">Kinetics.h</text>
</a>
</g>
</g>
<!-- Node2&#45;&gt;Node3 -->
<g id="edge2" class="edge">
<title>Node2&#45;&gt;Node3</title>
<path fill="none" stroke="midnightblue" d="M464.72,-347.48C467.01,-340.32 470.38,-329.75 473.47,-320.08"/>
<polygon fill="midnightblue" stroke="midnightblue" points="476.81,-321.11 476.52,-310.52 470.15,-318.98 476.81,-321.11"/>
</g>
<!-- Node39 -->
<g id="node16" class="node">
<title>Node39</title>
<g id="a_node16"><a xlink:href="../../d1/df7/DenseMatrix_8h.html" target="_top" xlink:title="Headers for the DenseMatrix object, which deals with dense rectangular matrices and description of th...">
<polygon fill="white" stroke="black" points="0,-112.5 0,-131.5 176,-131.5 176,-112.5 0,-112.5"/>
<text text-anchor="middle" x="88" y="-119.5" font-family="Helvetica,sans-Serif" font-size="10.00">cantera/numerics/DenseMatrix.h</text>
</a>
</g>
</g>
<!-- Node2&#45;&gt;Node39 -->
<g id="edge25" class="edge">
<title>Node2&#45;&gt;Node39</title>
<path fill="none" stroke="midnightblue" d="M436.95,-347.47C379.28,-326.95 234.57,-270.34 137,-188 120.85,-174.37 106.86,-154.5 98,-140.31"/>
<polygon fill="midnightblue" stroke="midnightblue" points="100.89,-138.32 92.73,-131.55 94.89,-141.93 100.89,-138.32"/>
</g>
<!-- Node4 -->
<g id="node4" class="node">
<title>Node4</title>
<g id="a_node4"><a xlink:href="../../d5/db4/Kinetics_8h.html" target="_top" xlink:title="Base class for kinetics managers and also contains the kineticsmgr module documentation (see Kinetics...">
<polygon fill="white" stroke="black" points="704.5,-168.5 704.5,-187.5 769.5,-187.5 769.5,-168.5 704.5,-168.5"/>
<text text-anchor="middle" x="737" y="-175.5" font-family="Helvetica,sans-Serif" font-size="10.00">Kinetics.h</text>
</a>
</g>
</g>
<!-- Node3&#45;&gt;Node4 -->
<g id="edge3" class="edge">
<title>Node3&#45;&gt;Node4</title>
<path fill="none" stroke="midnightblue" d="M512.13,-280.45C562.37,-257.79 660.56,-213.49 708.83,-191.71"/>
<polygon fill="midnightblue" stroke="midnightblue" points="710.39,-194.85 718.07,-187.54 707.51,-188.46 710.39,-194.85"/>
</g>
<!-- Node27 -->
<g id="node9" class="node">
<title>Node27</title>
<g id="a_node9"><a xlink:href="../../d6/d42/MultiRate_8h.html" target="_top" xlink:title=" ">
<polygon fill="white" stroke="black" points="359.5,-224.5 359.5,-243.5 432.5,-243.5 432.5,-224.5 359.5,-224.5"/>
<text text-anchor="middle" x="396" y="-231.5" font-family="Helvetica,sans-Serif" font-size="10.00">MultiRate.h</text>
</a>
</g>
</g>
<!-- Node3&#45;&gt;Node27 -->
<g id="edge9" class="edge">
<title>Node3&#45;&gt;Node27</title>
<path fill="none" stroke="midnightblue" d="M460.86,-280.4C447.61,-271.13 430.32,-259.03 416.92,-249.65"/>
<polygon fill="midnightblue" stroke="midnightblue" points="418.57,-246.53 408.37,-243.66 414.55,-252.26 418.57,-246.53"/>
</g>
<!-- Node5 -->
<g id="node5" class="node">
<title>Node5</title>
<g id="a_node5"><a xlink:href="../../dd/dfd/StoichManager_8h.html" target="_top" xlink:title=" ">
<polygon fill="white" stroke="red" points="688,-112.5 688,-131.5 786,-131.5 786,-112.5 688,-112.5"/>
<text text-anchor="middle" x="737" y="-119.5" font-family="Helvetica,sans-Serif" font-size="10.00">StoichManager.h</text>
</a>
</g>
</g>
<!-- Node4&#45;&gt;Node5 -->
<g id="edge4" class="edge">
<title>Node4&#45;&gt;Node5</title>
<path fill="none" stroke="midnightblue" d="M737,-168.08C737,-161.01 737,-150.86 737,-141.99"/>
<polygon fill="midnightblue" stroke="midnightblue" points="740.5,-141.75 737,-131.75 733.5,-141.75 740.5,-141.75"/>
</g>
<!-- Node25 -->
<g id="node8" class="node">
<title>Node25</title>
<g id="a_node8"><a xlink:href="../../d6/df6/ValueCache_8h.html" target="_top" xlink:title=" ">
<polygon fill="white" stroke="red" points="659.5,-56.5 659.5,-75.5 808.5,-75.5 808.5,-56.5 659.5,-56.5"/>
<text text-anchor="middle" x="734" y="-63.5" font-family="Helvetica,sans-Serif" font-size="10.00">cantera/base/ValueCache.h</text>
</a>
</g>
</g>
<!-- Node4&#45;&gt;Node25 -->
<g id="edge7" class="edge">
<title>Node4&#45;&gt;Node25</title>
<path fill="none" stroke="midnightblue" d="M754.69,-168.5C775.8,-157.08 806.86,-135.49 795,-112 788.19,-98.52 775.23,-88.08 763,-80.67"/>
<polygon fill="midnightblue" stroke="midnightblue" points="764.34,-77.41 753.91,-75.59 760.93,-83.52 764.34,-77.41"/>
</g>
<!-- Node9 -->
<g id="node6" class="node">
<title>Node9</title>
<g id="a_node6"><a xlink:href="../../db/d98/ctexceptions_8h.html" target="_top" xlink:title="Definitions for the classes that are thrown when Cantera experiences an error condition (also contain...">
<polygon fill="white" stroke="red" points="487,-56.5 487,-75.5 641,-75.5 641,-56.5 487,-56.5"/>
<text text-anchor="middle" x="564" y="-63.5" font-family="Helvetica,sans-Serif" font-size="10.00">cantera/base/ctexceptions.h</text>
</a>
</g>
</g>
<!-- Node5&#45;&gt;Node9 -->
<g id="edge5" class="edge">
<title>Node5&#45;&gt;Node9</title>
<path fill="none" stroke="midnightblue" d="M709.59,-112.44C680.23,-103.28 633.48,-88.69 600.9,-78.52"/>
<polygon fill="midnightblue" stroke="midnightblue" points="601.87,-75.16 591.28,-75.52 599.79,-81.84 601.87,-75.16"/>
</g>
<!-- Node10 -->
<g id="node7" class="node">
<title>Node10</title>
<g id="a_node7"><a xlink:href="../../d9/ddc/ct__defs_8h.html" target="_top" xlink:title="This file contains definitions of constants, types and terms that are used in internal routines and a...">
<polygon fill="white" stroke="red" points="480.5,-0.5 480.5,-19.5 541.5,-19.5 541.5,-0.5 480.5,-0.5"/>
<text text-anchor="middle" x="511" y="-7.5" font-family="Helvetica,sans-Serif" font-size="10.00">ct_defs.h</text>
</a>
</g>
</g>
<!-- Node9&#45;&gt;Node10 -->
<g id="edge6" class="edge">
<title>Node9&#45;&gt;Node10</title>
<path fill="none" stroke="midnightblue" d="M555.25,-56.08C547.53,-48.22 536.1,-36.57 526.78,-27.08"/>
<polygon fill="midnightblue" stroke="midnightblue" points="529.09,-24.44 519.59,-19.75 524.1,-29.34 529.09,-24.44"/>
</g>
<!-- Node25&#45;&gt;Node10 -->
<g id="edge8" class="edge">
<title>Node25&#45;&gt;Node10</title>
<path fill="none" stroke="midnightblue" d="M698.66,-56.44C658.61,-46.75 593.45,-30.97 551.41,-20.79"/>
<polygon fill="midnightblue" stroke="midnightblue" points="552.05,-17.34 541.51,-18.39 550.41,-24.14 552.05,-17.34"/>
</g>
<!-- Node28 -->
<g id="node10" class="node">
<title>Node28</title>
<g id="a_node10"><a xlink:href="../../d8/db0/ReactionRate_8h.html" target="_top" xlink:title=" ">
<polygon fill="white" stroke="black" points="399.5,-168.5 399.5,-187.5 490.5,-187.5 490.5,-168.5 399.5,-168.5"/>
<text text-anchor="middle" x="445" y="-175.5" font-family="Helvetica,sans-Serif" font-size="10.00">ReactionRate.h</text>
</a>
</g>
</g>
<!-- Node27&#45;&gt;Node28 -->
<g id="edge10" class="edge">
<title>Node27&#45;&gt;Node28</title>
<path fill="none" stroke="midnightblue" d="M404.09,-224.08C411.16,-216.3 421.59,-204.8 430.15,-195.37"/>
<polygon fill="midnightblue" stroke="midnightblue" points="432.93,-197.51 437.06,-187.75 427.75,-192.8 432.93,-197.51"/>
</g>
<!-- Node29 -->
<g id="node11" class="node">
<title>Node29</title>
<g id="a_node11"><a xlink:href="../../dd/d16/MultiRateBase_8h.html" target="_top" xlink:title=" ">
<polygon fill="white" stroke="black" points="232.5,-112.5 232.5,-131.5 329.5,-131.5 329.5,-112.5 232.5,-112.5"/>
<text text-anchor="middle" x="281" y="-119.5" font-family="Helvetica,sans-Serif" font-size="10.00">MultiRateBase.h</text>
</a>
</g>
</g>
<!-- Node27&#45;&gt;Node29 -->
<g id="edge22" class="edge">
<title>Node27&#45;&gt;Node29</title>
<path fill="none" stroke="midnightblue" d="M386.98,-224.37C367.66,-205.89 322.08,-162.29 297.46,-138.74"/>
<polygon fill="midnightblue" stroke="midnightblue" points="299.63,-135.97 289.98,-131.59 294.79,-141.03 299.63,-135.97"/>
</g>
<!-- Node37 -->
<g id="node15" class="node">
<title>Node37</title>
<g id="a_node15"><a xlink:href="../../de/df0/utilities_8h.html" target="_top" xlink:title="Various templated functions that carry out common vector and polynomial operations (see Templated Arr...">
<polygon fill="white" stroke="red" points="146,-168.5 146,-187.5 274,-187.5 274,-168.5 146,-168.5"/>
<text text-anchor="middle" x="210" y="-175.5" font-family="Helvetica,sans-Serif" font-size="10.00">cantera/base/utilities.h</text>
</a>
</g>
</g>
<!-- Node27&#45;&gt;Node37 -->
<g id="edge23" class="edge">
<title>Node27&#45;&gt;Node37</title>
<path fill="none" stroke="midnightblue" d="M366.53,-224.44C334.83,-215.24 284.27,-200.56 249.23,-190.39"/>
<polygon fill="midnightblue" stroke="midnightblue" points="249.91,-186.94 239.33,-187.52 247.96,-193.67 249.91,-186.94"/>
</g>
<!-- Node28&#45;&gt;Node9 -->
<g id="edge21" class="edge">
<title>Node28&#45;&gt;Node9</title>
<path fill="none" stroke="midnightblue" d="M457.44,-168.22C469.51,-159.52 488.11,-145.56 503,-132 520.06,-116.47 537.93,-96.99 549.89,-83.42"/>
<polygon fill="midnightblue" stroke="midnightblue" points="552.58,-85.66 556.51,-75.83 547.3,-81.07 552.58,-85.66"/>
</g>
<!-- Node28&#45;&gt;Node29 -->
<g id="edge11" class="edge">
<title>Node28&#45;&gt;Node29</title>
<path fill="none" stroke="midnightblue" d="M419.01,-168.44C391.3,-159.32 347.25,-144.81 316.38,-134.65"/>
<polygon fill="midnightblue" stroke="midnightblue" points="317.46,-131.32 306.86,-131.52 315.27,-137.97 317.46,-131.32"/>
</g>
<!-- Node30 -->
<g id="node12" class="node">
<title>Node30</title>
<g id="a_node12"><a xlink:href="../../dd/d2a/AnyMap_8h.html" target="_top" xlink:title=" ">
<polygon fill="white" stroke="red" points="954.5,-112.5 954.5,-131.5 1085.5,-131.5 1085.5,-112.5 954.5,-112.5"/>
<text text-anchor="middle" x="1020" y="-119.5" font-family="Helvetica,sans-Serif" font-size="10.00">cantera/base/AnyMap.h</text>
</a>
</g>
</g>
<!-- Node28&#45;&gt;Node30 -->
<g id="edge13" class="edge">
<title>Node28&#45;&gt;Node30</title>
<path fill="none" stroke="midnightblue" d="M490.76,-170.45C497.54,-169.57 504.45,-168.72 511,-168 701.19,-147.07 749.58,-150.7 940,-132 941.29,-131.87 942.59,-131.74 943.91,-131.61"/>
<polygon fill="midnightblue" stroke="midnightblue" points="944.51,-135.07 954.09,-130.56 943.79,-128.11 944.51,-135.07"/>
</g>
<!-- Node31 -->
<g id="node13" class="node">
<title>Node31</title>
<g id="a_node13"><a xlink:href="../../da/d58/Units_8h.html" target="_top" xlink:title="Header for unit conversion utilities, which are used to translate user input from input files (See In...">
<polygon fill="white" stroke="black" points="993.5,-56.5 993.5,-75.5 1110.5,-75.5 1110.5,-56.5 993.5,-56.5"/>
<text text-anchor="middle" x="1052" y="-63.5" font-family="Helvetica,sans-Serif" font-size="10.00">cantera/base/Units.h</text>
</a>
</g>
</g>
<!-- Node28&#45;&gt;Node31 -->
<g id="edge18" class="edge">
<title>Node28&#45;&gt;Node31</title>
<path fill="none" stroke="midnightblue" d="M490.77,-170.49C497.55,-169.6 504.45,-168.74 511,-168 686.6,-148.06 737.27,-181.22 907,-132 925.71,-126.57 928.36,-120.26 946,-112 971.01,-100.3 999.89,-88.12 1021.18,-79.39"/>
<polygon fill="midnightblue" stroke="midnightblue" points="1022.75,-82.54 1030.68,-75.52 1020.1,-76.05 1022.75,-82.54"/>
</g>
<!-- Node36 -->
<g id="node14" class="node">
<title>Node36</title>
<g id="a_node14"><a xlink:href="../../d2/d49/global_8h.html" target="_top" xlink:title="This file contains definitions for utility functions and text for modules, inputfiles and logging,...">
<polygon fill="white" stroke="red" points="309,-56.5 309,-75.5 431,-75.5 431,-56.5 309,-56.5"/>
<text text-anchor="middle" x="370" y="-63.5" font-family="Helvetica,sans-Serif" font-size="10.00">cantera/base/global.h</text>
</a>
</g>
</g>
<!-- Node28&#45;&gt;Node36 -->
<g id="edge19" class="edge">
<title>Node28&#45;&gt;Node36</title>
<path fill="none" stroke="midnightblue" d="M425.93,-168.39C411.54,-160.87 392.53,-148.56 382,-132 373.24,-118.23 370.51,-99.71 369.81,-85.96"/>
<polygon fill="midnightblue" stroke="midnightblue" points="373.31,-85.67 369.62,-75.74 366.31,-85.8 373.31,-85.67"/>
</g>
<!-- Node29&#45;&gt;Node10 -->
<g id="edge12" class="edge">
<title>Node29&#45;&gt;Node10</title>
<path fill="none" stroke="midnightblue" d="M280.89,-112.42C281.21,-98.45 283.97,-70.88 300,-56 324.31,-33.44 415.95,-20.56 470.14,-14.76"/>
<polygon fill="midnightblue" stroke="midnightblue" points="470.54,-18.24 480.12,-13.73 469.82,-11.27 470.54,-18.24"/>
</g>
<!-- Node30&#45;&gt;Node9 -->
<g id="edge15" class="edge">
<title>Node30&#45;&gt;Node9</title>
<path fill="none" stroke="midnightblue" d="M954.18,-113.21C872.72,-103.56 734,-87.13 645.79,-76.69"/>
<polygon fill="midnightblue" stroke="midnightblue" points="646.16,-73.21 635.82,-75.5 645.34,-80.16 646.16,-73.21"/>
</g>
<!-- Node30&#45;&gt;Node10 -->
<g id="edge14" class="edge">
<title>Node30&#45;&gt;Node10</title>
<path fill="none" stroke="midnightblue" d="M1055.05,-112.46C1092.61,-101.75 1143.82,-81.64 1120,-56 1081.45,-14.49 682.74,-10.93 552.15,-10.88"/>
<polygon fill="midnightblue" stroke="midnightblue" points="551.79,-7.38 541.79,-10.88 551.79,-14.38 551.79,-7.38"/>
</g>
<!-- Node30&#45;&gt;Node31 -->
<g id="edge16" class="edge">
<title>Node30&#45;&gt;Node31</title>
<path fill="none" stroke="midnightblue" d="M1025.28,-112.08C1029.71,-104.61 1036.16,-93.72 1041.62,-84.52"/>
<polygon fill="midnightblue" stroke="midnightblue" points="1044.73,-86.14 1046.81,-75.75 1038.71,-82.57 1044.73,-86.14"/>
</g>
<!-- Node31&#45;&gt;Node10 -->
<g id="edge17" class="edge">
<title>Node31&#45;&gt;Node10</title>
<path fill="none" stroke="midnightblue" d="M993.19,-56.97C990.42,-56.63 987.68,-56.31 985,-56 824.89,-37.65 633.75,-21.15 551.69,-14.33"/>
<polygon fill="midnightblue" stroke="midnightblue" points="551.8,-10.82 541.54,-13.49 551.22,-17.8 551.8,-10.82"/>
</g>
<!-- Node36&#45;&gt;Node10 -->
<g id="edge20" class="edge">
<title>Node36&#45;&gt;Node10</title>
<path fill="none" stroke="midnightblue" d="M392.34,-56.44C415.75,-47.48 452.74,-33.31 479.19,-23.18"/>
<polygon fill="midnightblue" stroke="midnightblue" points="480.68,-26.36 488.76,-19.52 478.17,-19.82 480.68,-26.36"/>
</g>
<!-- Node37&#45;&gt;Node10 -->
<g id="edge24" class="edge">
<title>Node37&#45;&gt;Node10</title>
<path fill="none" stroke="midnightblue" d="M210.25,-168.44C210.98,-155.44 213.71,-130.32 224,-112 241.71,-80.48 250.88,-72.6 283,-56 343.31,-24.82 422.85,-15.19 470.27,-12.25"/>
<polygon fill="midnightblue" stroke="midnightblue" points="470.67,-15.73 480.46,-11.69 470.29,-8.74 470.67,-15.73"/>
</g>
<!-- Node39&#45;&gt;Node9 -->
<g id="edge27" class="edge">
<title>Node39&#45;&gt;Node9</title>
<path fill="none" stroke="midnightblue" d="M163.16,-112.47C248.93,-102.74 388.9,-86.86 478.69,-76.68"/>
<polygon fill="midnightblue" stroke="midnightblue" points="479.3,-80.13 488.84,-75.53 478.51,-73.18 479.3,-80.13"/>
</g>
<!-- Node39&#45;&gt;Node10 -->
<g id="edge26" class="edge">
<title>Node39&#45;&gt;Node10</title>
<path fill="none" stroke="midnightblue" d="M98.21,-112.34C115.71,-98.01 153.16,-69.59 190,-56 286.08,-20.57 407.76,-12.77 470.1,-11.22"/>
<polygon fill="midnightblue" stroke="midnightblue" points="470.38,-14.72 480.31,-11.01 470.24,-7.72 470.38,-14.72"/>
</g>
<!-- Node40 -->
<g id="node17" class="node">
<title>Node40</title>
<g id="a_node17"><a xlink:href="../../df/dd0/Array_8h.html" target="_top" xlink:title="Header file for class Cantera::Array2D.">
<polygon fill="white" stroke="black" points="22,-56.5 22,-75.5 138,-75.5 138,-56.5 22,-56.5"/>
<text text-anchor="middle" x="80" y="-63.5" font-family="Helvetica,sans-Serif" font-size="10.00">cantera/base/Array.h</text>
</a>
</g>
</g>
<!-- Node39&#45;&gt;Node40 -->
<g id="edge28" class="edge">
<title>Node39&#45;&gt;Node40</title>
<path fill="none" stroke="midnightblue" d="M86.68,-112.08C85.62,-104.93 84.09,-94.64 82.77,-85.69"/>
<polygon fill="midnightblue" stroke="midnightblue" points="86.22,-85.13 81.3,-75.75 79.3,-86.16 86.22,-85.13"/>
</g>
<!-- Node40&#45;&gt;Node10 -->
<g id="edge29" class="edge">
<title>Node40&#45;&gt;Node10</title>
<path fill="none" stroke="midnightblue" d="M138.13,-57.72C226.68,-46.62 393.17,-25.76 470.11,-16.12"/>
<polygon fill="midnightblue" stroke="midnightblue" points="470.87,-19.56 480.35,-14.84 470,-12.61 470.87,-19.56"/>
</g>
<!-- Node41 -->
<g id="node18" class="node">
<title>Node41</title>
<g id="a_node18"><a xlink:title=" ">
<polygon fill="white" stroke="#bfbfbf" points="50,-0.5 50,-19.5 110,-19.5 110,-0.5 50,-0.5"/>
<text text-anchor="middle" x="80" y="-7.5" font-family="Helvetica,sans-Serif" font-size="10.00">iostream</text>
</a>
</g>
</g>
<!-- Node40&#45;&gt;Node41 -->
<g id="edge30" class="edge">
<title>Node40&#45;&gt;Node41</title>
<path fill="none" stroke="midnightblue" d="M80,-56.08C80,-49.01 80,-38.86 80,-29.99"/>
<polygon fill="midnightblue" stroke="midnightblue" points="83.5,-29.75 80,-19.75 76.5,-29.75 83.5,-29.75"/>
</g>
<!-- Node43 -->
<g id="node20" class="node">
<title>Node43</title>
<g id="a_node20"><a xlink:href="../../d7/d01/ThermoPhase_8h.html" target="_top" xlink:title="Header file for class ThermoPhase, the base class for phases with thermodynamic properties,...">
<polygon fill="white" stroke="black" points="898,-286 898,-305 990,-305 990,-286 898,-286"/>
<text text-anchor="middle" x="944" y="-293" font-family="Helvetica,sans-Serif" font-size="10.00">ThermoPhase.h</text>
</a>
</g>
</g>
<!-- Node42&#45;&gt;Node43 -->
<g id="edge32" class="edge">
<title>Node42&#45;&gt;Node43</title>
<path fill="none" stroke="midnightblue" d="M880.89,-408.8C892.02,-389 919.4,-340.28 934.17,-313.99"/>
<polygon fill="midnightblue" stroke="midnightblue" points="937.31,-315.56 939.15,-305.12 931.2,-312.13 937.31,-315.56"/>
</g>
<!-- Node43&#45;&gt;Node30 -->
<g id="edge44" class="edge">
<title>Node43&#45;&gt;Node30</title>
<path fill="none" stroke="midnightblue" d="M943.22,-285.81C941.7,-264.25 940.26,-207.19 963,-168 970.39,-155.26 982.9,-144.78 994.32,-137.15"/>
<polygon fill="midnightblue" stroke="midnightblue" points="996.5,-139.92 1003.13,-131.65 992.79,-133.98 996.5,-139.92"/>
</g>
<!-- Node43&#45;&gt;Node31 -->
<g id="edge43" class="edge">
<title>Node43&#45;&gt;Node31</title>
<path fill="none" stroke="midnightblue" d="M990.19,-292.17C1028.08,-287.86 1080.72,-276.02 1114,-244 1156.28,-203.31 1146.36,-158.83 1111,-112 1101.6,-99.55 1087.88,-88.8 1076.04,-80.94"/>
<polygon fill="midnightblue" stroke="midnightblue" points="1077.78,-77.9 1067.46,-75.51 1074.04,-83.81 1077.78,-77.9"/>
</g>
<!-- Node44 -->
<g id="node21" class="node">
<title>Node44</title>
<g id="a_node21"><a xlink:href="../../da/d84/Phase_8h.html" target="_top" xlink:title="Header file for class Phase.">
<polygon fill="white" stroke="black" points="842.5,-112.5 842.5,-131.5 897.5,-131.5 897.5,-112.5 842.5,-112.5"/>
<text text-anchor="middle" x="870" y="-119.5" font-family="Helvetica,sans-Serif" font-size="10.00">Phase.h</text>
</a>
</g>
</g>
<!-- Node43&#45;&gt;Node44 -->
<g id="edge33" class="edge">
<title>Node43&#45;&gt;Node44</title>
<path fill="none" stroke="midnightblue" d="M940.23,-285.76C928.65,-258.92 893.44,-177.32 877.72,-140.89"/>
<polygon fill="midnightblue" stroke="midnightblue" points="880.85,-139.31 873.68,-131.52 874.42,-142.09 880.85,-139.31"/>
</g>
<!-- Node46 -->
<g id="node23" class="node">
<title>Node46</title>
<g id="a_node23"><a xlink:href="../../d6/d7a/MultiSpeciesThermo_8h.html" target="_top" xlink:title="Header for a general species thermodynamic property manager for a phase (see MultiSpeciesThermo).">
<polygon fill="white" stroke="black" points="979.5,-224.5 979.5,-243.5 1104.5,-243.5 1104.5,-224.5 979.5,-224.5"/>
<text text-anchor="middle" x="1042" y="-231.5" font-family="Helvetica,sans-Serif" font-size="10.00">MultiSpeciesThermo.h</text>
</a>
</g>
</g>
<!-- Node43&#45;&gt;Node46 -->
<g id="edge38" class="edge">
<title>Node43&#45;&gt;Node46</title>
<path fill="none" stroke="midnightblue" d="M958.04,-285.98C974.05,-276.25 1000.45,-260.23 1019.37,-248.74"/>
<polygon fill="midnightblue" stroke="midnightblue" points="1021.25,-251.69 1027.99,-243.51 1017.62,-245.71 1021.25,-251.69"/>
</g>
<!-- Node44&#45;&gt;Node9 -->
<g id="edge34" class="edge">
<title>Node44&#45;&gt;Node9</title>
<path fill="none" stroke="midnightblue" d="M842.3,-116.11C792.87,-107.39 688.45,-88.96 622.51,-77.33"/>
<polygon fill="midnightblue" stroke="midnightblue" points="622.73,-73.81 612.27,-75.52 621.51,-80.7 622.73,-73.81"/>
</g>
<!-- Node44&#45;&gt;Node25 -->
<g id="edge37" class="edge">
<title>Node44&#45;&gt;Node25</title>
<path fill="none" stroke="midnightblue" d="M848.45,-112.44C825.97,-103.52 790.51,-89.44 765.02,-79.32"/>
<polygon fill="midnightblue" stroke="midnightblue" points="766.03,-75.95 755.45,-75.52 763.45,-82.46 766.03,-75.95"/>
</g>
<!-- Node45 -->
<g id="node22" class="node">
<title>Node45</title>
<g id="a_node22"><a xlink:href="../../d9/dda/Elements_8h.html" target="_top" xlink:title="Contains the getElementWeight function and the definitions of element constraint types.">
<polygon fill="white" stroke="black" points="826.5,-56.5 826.5,-75.5 975.5,-75.5 975.5,-56.5 826.5,-56.5"/>
<text text-anchor="middle" x="901" y="-63.5" font-family="Helvetica,sans-Serif" font-size="10.00">cantera/thermo/Elements.h</text>
</a>
</g>
</g>
<!-- Node44&#45;&gt;Node45 -->
<g id="edge35" class="edge">
<title>Node44&#45;&gt;Node45</title>
<path fill="none" stroke="midnightblue" d="M875.12,-112.08C879.41,-104.61 885.66,-93.72 890.94,-84.52"/>
<polygon fill="midnightblue" stroke="midnightblue" points="894.03,-86.17 895.98,-75.75 887.96,-82.68 894.03,-86.17"/>
</g>
<!-- Node45&#45;&gt;Node10 -->
<g id="edge36" class="edge">
<title>Node45&#45;&gt;Node10</title>
<path fill="none" stroke="midnightblue" d="M839.2,-56.44C758.71,-45.3 620.21,-26.12 551.75,-16.64"/>
<polygon fill="midnightblue" stroke="midnightblue" points="552.16,-13.17 541.78,-15.26 551.2,-20.1 552.16,-13.17"/>
</g>
<!-- Node47 -->
<g id="node24" class="node">
<title>Node47</title>
<g id="a_node24"><a xlink:href="../../d4/d87/SpeciesThermoInterpType_8h.html" target="_top" xlink:title="Pure Virtual Base class for individual species reference state thermodynamic managers and text for th...">
<polygon fill="white" stroke="black" points="972,-168.5 972,-187.5 1124,-187.5 1124,-168.5 972,-168.5"/>
<text text-anchor="middle" x="1048" y="-175.5" font-family="Helvetica,sans-Serif" font-size="10.00">SpeciesThermoInterpType.h</text>
</a>
</g>
</g>
<!-- Node46&#45;&gt;Node47 -->
<g id="edge39" class="edge">
<title>Node46&#45;&gt;Node47</title>
<path fill="none" stroke="midnightblue" d="M1042.99,-224.08C1043.79,-216.93 1044.93,-206.64 1045.92,-197.69"/>
<polygon fill="midnightblue" stroke="midnightblue" points="1049.4,-198.08 1047.03,-187.75 1042.44,-197.3 1049.4,-198.08"/>
</g>
<!-- Node47&#45;&gt;Node9 -->
<g id="edge41" class="edge">
<title>Node47&#45;&gt;Node9</title>
<path fill="none" stroke="midnightblue" d="M1062.14,-168.3C1081.52,-155.35 1112.09,-130.53 1095,-112 1063.02,-77.32 733.42,-80.18 651.53,-75.79"/>
<polygon fill="midnightblue" stroke="midnightblue" points="651.53,-72.28 641.31,-75.09 651.05,-79.27 651.53,-72.28"/>
</g>
<!-- Node47&#45;&gt;Node10 -->
<g id="edge40" class="edge">
<title>Node47&#45;&gt;Node10</title>
<path fill="none" stroke="midnightblue" d="M1063,-168.27C1096.73,-147.6 1172.89,-94.56 1137,-56 1097.2,-13.24 684.82,-10.54 551.99,-10.79"/>
<polygon fill="midnightblue" stroke="midnightblue" points="551.81,-7.29 541.82,-10.82 551.83,-14.29 551.81,-7.29"/>
</g>
<!-- Node47&#45;&gt;Node30 -->
<g id="edge42" class="edge">
<title>Node47&#45;&gt;Node30</title>
<path fill="none" stroke="midnightblue" d="M1043.38,-168.08C1039.54,-160.69 1033.98,-149.95 1029.24,-140.81"/>
<polygon fill="midnightblue" stroke="midnightblue" points="1032.25,-139.02 1024.54,-131.75 1026.03,-142.24 1032.25,-139.02"/>
</g>
<!-- Node48&#45;&gt;Node2 -->
<g id="edge56" class="edge">
<title>Node48&#45;&gt;Node2</title>
<path fill="none" stroke="midnightblue" d="M538.3,-403.4C522.27,-393.86 501.2,-381.32 485.26,-371.84"/>
<polygon fill="midnightblue" stroke="midnightblue" points="486.93,-368.76 476.55,-366.66 483.36,-374.78 486.93,-368.76"/>
</g>
<!-- Node48&#45;&gt;Node3 -->
<g id="edge55" class="edge">
<title>Node48&#45;&gt;Node3</title>
<path fill="none" stroke="midnightblue" d="M560.78,-403.49C558.93,-388.47 554.31,-364.44 543,-347 535.3,-335.12 523.89,-324.69 512.95,-316.44"/>
<polygon fill="midnightblue" stroke="midnightblue" points="514.92,-313.54 504.75,-310.57 510.84,-319.23 514.92,-313.54"/>
</g>
<!-- Node49 -->
<g id="node26" class="node">
<title>Node49</title>
<g id="a_node26"><a xlink:href="../../d8/d97/Integrator_8h.html" target="_top" xlink:title=" ">
<polygon fill="white" stroke="black" points="519.5,-168.5 519.5,-187.5 680.5,-187.5 680.5,-168.5 519.5,-168.5"/>
<text text-anchor="middle" x="600" y="-175.5" font-family="Helvetica,sans-Serif" font-size="10.00">cantera/numerics/Integrator.h</text>
</a>
</g>
</g>
<!-- Node48&#45;&gt;Node49 -->
<g id="edge46" class="edge">
<title>Node48&#45;&gt;Node49</title>
<path fill="none" stroke="midnightblue" d="M564.26,-403.29C570.79,-362.35 589.64,-244.05 597,-197.83"/>
<polygon fill="midnightblue" stroke="midnightblue" points="600.46,-198.37 598.57,-187.95 593.54,-197.27 600.46,-198.37"/>
</g>
<!-- Node49&#45;&gt;Node30 -->
<g id="edge54" class="edge">
<title>Node49&#45;&gt;Node30</title>
<path fill="none" stroke="midnightblue" d="M666.55,-168.44C742.04,-158.74 864.89,-142.94 944.06,-132.76"/>
<polygon fill="midnightblue" stroke="midnightblue" points="944.98,-136.17 954.45,-131.43 944.09,-129.23 944.98,-136.17"/>
</g>
<!-- Node49&#45;&gt;Node36 -->
<g id="edge53" class="edge">
<title>Node49&#45;&gt;Node36</title>
<path fill="none" stroke="midnightblue" d="M519.29,-169.89C485.13,-163.82 446.32,-152.63 416,-132 398.73,-120.25 385.82,-99.72 378.14,-84.87"/>
<polygon fill="midnightblue" stroke="midnightblue" points="381.19,-83.14 373.67,-75.68 374.89,-86.2 381.19,-83.14"/>
</g>
<!-- Node50 -->
<g id="node27" class="node">
<title>Node50</title>
<g id="a_node27"><a xlink:href="../../da/d37/FuncEval_8h.html" target="_top" xlink:title=" ">
<polygon fill="white" stroke="black" points="424.5,-112.5 424.5,-131.5 493.5,-131.5 493.5,-112.5 424.5,-112.5"/>
<text text-anchor="middle" x="459" y="-119.5" font-family="Helvetica,sans-Serif" font-size="10.00">FuncEval.h</text>
</a>
</g>
</g>
<!-- Node49&#45;&gt;Node50 -->
<g id="edge47" class="edge">
<title>Node49&#45;&gt;Node50</title>
<path fill="none" stroke="midnightblue" d="M577.66,-168.44C554.25,-159.48 517.26,-145.31 490.81,-135.18"/>
<polygon fill="midnightblue" stroke="midnightblue" points="491.83,-131.82 481.24,-131.52 489.32,-138.36 491.83,-131.82"/>
</g>
<!-- Node51 -->
<g id="node28" class="node">
<title>Node51</title>
<g id="a_node28"><a xlink:href="../../d7/ddf/PreconditionerBase_8h.html" target="_top" xlink:title="Declarations for the class PreconditionerBase which is a virtual base class for preconditioning syste...">
<polygon fill="white" stroke="black" points="550,-112.5 550,-131.5 670,-131.5 670,-112.5 550,-112.5"/>
<text text-anchor="middle" x="610" y="-119.5" font-family="Helvetica,sans-Serif" font-size="10.00">PreconditionerBase.h</text>
</a>
</g>
</g>
<!-- Node49&#45;&gt;Node51 -->
<g id="edge51" class="edge">
<title>Node49&#45;&gt;Node51</title>
<path fill="none" stroke="midnightblue" d="M601.65,-168.08C602.98,-160.93 604.88,-150.64 606.54,-141.69"/>
<polygon fill="midnightblue" stroke="midnightblue" points="610,-142.22 608.38,-131.75 603.12,-140.95 610,-142.22"/>
</g>
<!-- Node50&#45;&gt;Node9 -->
<g id="edge49" class="edge">
<title>Node50&#45;&gt;Node9</title>
<path fill="none" stroke="midnightblue" d="M475.87,-112.32C492.71,-103.66 518.81,-90.24 538.24,-80.25"/>
<polygon fill="midnightblue" stroke="midnightblue" points="539.88,-83.34 547.17,-75.65 536.68,-77.12 539.88,-83.34"/>
</g>
<!-- Node50&#45;&gt;Node10 -->
<g id="edge48" class="edge">
<title>Node50&#45;&gt;Node10</title>
<path fill="none" stroke="midnightblue" d="M460.55,-112.23C463.04,-99.4 468.63,-74.98 478,-56 482.98,-45.92 490.22,-35.73 496.66,-27.61"/>
<polygon fill="midnightblue" stroke="midnightblue" points="499.51,-29.64 503.17,-19.7 494.11,-25.19 499.51,-29.64"/>
</g>
<!-- Node50&#45;&gt;Node36 -->
<g id="edge50" class="edge">
<title>Node50&#45;&gt;Node36</title>
<path fill="none" stroke="midnightblue" d="M444.7,-112.32C430.82,-103.9 409.51,-90.97 393.2,-81.07"/>
<polygon fill="midnightblue" stroke="midnightblue" points="394.63,-77.85 384.26,-75.65 391,-83.83 394.63,-77.85"/>
</g>
<!-- Node51&#45;&gt;Node9 -->
<g id="edge52" class="edge">
<title>Node51&#45;&gt;Node9</title>
<path fill="none" stroke="midnightblue" d="M602.4,-112.08C595.77,-104.3 585.98,-92.8 577.94,-83.37"/>
<polygon fill="midnightblue" stroke="midnightblue" points="580.6,-81.09 571.45,-75.75 575.27,-85.63 580.6,-81.09"/>
</g>
</g>
</svg>
