<?xml version="1.0" encoding="UTF-8" standalone="no"?>
<!DOCTYPE svg PUBLIC "-//W3C//DTD SVG 1.1//EN"
 "http://www.w3.org/Graphics/SVG/1.1/DTD/svg11.dtd">
<!-- Generated by graphviz version 2.43.0 (0)
 -->
<!-- Title: IdealSolnGasVPSS.cpp Pages: 1 -->
<svg width="760pt" height="423pt"
 viewBox="0.00 0.00 759.50 423.00" xmlns="http://www.w3.org/2000/svg" xmlns:xlink="http://www.w3.org/1999/xlink">
<g id="graph0" class="graph" transform="scale(1 1) rotate(0) translate(4 419)">
<title>IdealSolnGasVPSS.cpp</title>
<!-- Node1 -->
<g id="Node000001" class="node">
<title>Node1</title>
<g id="a_Node000001"><a xlink:title="Definition file for a derived class of ThermoPhase that assumes an ideal solution approximation and h...">
<polygon fill="#999999" stroke="#666666" points="581,-415 456,-415 456,-396 581,-396 581,-415"/>
<text text-anchor="middle" x="518.5" y="-403" font-family="Helvetica,sans-Serif" font-size="10.00">IdealSolnGasVPSS.cpp</text>
</a>
</g>
</g>
<!-- Node2 -->
<g id="Node000002" class="node">
<title>Node2</title>
<g id="a_Node000002"><a xlink:href="../../db/d88/IdealSolnGasVPSS_8h.html" target="_top" xlink:title="Definition file for a derived class of ThermoPhase that assumes an ideal solution approximation and h...">
<polygon fill="white" stroke="#666666" points="414.5,-360 274.5,-360 274.5,-330 414.5,-330 414.5,-360"/>
<text text-anchor="start" x="282.5" y="-348" font-family="Helvetica,sans-Serif" font-size="10.00">cantera/thermo/IdealSoln</text>
<text text-anchor="middle" x="344.5" y="-337" font-family="Helvetica,sans-Serif" font-size="10.00">GasVPSS.h</text>
</a>
</g>
</g>
<!-- Node1&#45;&gt;Node2 -->
<g id="edge1_Node000001_Node000002" class="edge">
<title>Node1&#45;&gt;Node2</title>
<g id="a_edge1_Node000001_Node000002"><a xlink:title=" ">
<path fill="none" stroke="#63b8ff" d="M493.2,-395.99C467.83,-387.46 428.04,-374.09 396,-363.32"/>
<polygon fill="#63b8ff" stroke="#63b8ff" points="396.93,-359.93 386.33,-360.06 394.7,-366.57 396.93,-359.93"/>
</a>
</g>
</g>
<!-- Node35 -->
<g id="Node000035" class="node">
<title>Node35</title>
<g id="a_Node000035"><a xlink:href="../../d7/dfa/PDSS_8h.html" target="_top" xlink:title="Declarations for the virtual base class PDSS (pressure dependent standard state) which handles calcul...">
<polygon fill="white" stroke="#666666" points="571,-184 442,-184 442,-165 571,-165 571,-184"/>
<text text-anchor="middle" x="506.5" y="-172" font-family="Helvetica,sans-Serif" font-size="10.00">cantera/thermo/PDSS.h</text>
</a>
</g>
</g>
<!-- Node1&#45;&gt;Node35 -->
<g id="edge13_Node000001_Node000035" class="edge">
<title>Node1&#45;&gt;Node35</title>
<g id="a_edge13_Node000001_Node000035"><a xlink:title=" ">
<path fill="none" stroke="#63b8ff" d="M514.83,-395.63C504.28,-368.97 475.42,-287.21 488.5,-220 490.29,-210.8 493.98,-201.09 497.56,-193.1"/>
<polygon fill="#63b8ff" stroke="#63b8ff" points="500.73,-194.59 501.88,-184.06 494.41,-191.57 500.73,-194.59"/>
</a>
</g>
</g>
<!-- Node36 -->
<g id="Node000036" class="node">
<title>Node36</title>
<g id="a_Node000036"><a xlink:href="../../dd/dc3/stringUtils_8h.html" target="_top" xlink:title="Contains declarations for string manipulation functions within Cantera.">
<polygon fill="white" stroke="#666666" points="639.5,-239 497.5,-239 497.5,-220 639.5,-220 639.5,-239"/>
<text text-anchor="middle" x="568.5" y="-227" font-family="Helvetica,sans-Serif" font-size="10.00">cantera/base/stringUtils.h</text>
</a>
</g>
</g>
<!-- Node1&#45;&gt;Node36 -->
<g id="edge16_Node000001_Node000036" class="edge">
<title>Node1&#45;&gt;Node36</title>
<g id="a_edge16_Node000001_Node000036"><a xlink:title=" ">
<path fill="none" stroke="#63b8ff" d="M521.05,-395.63C528.84,-368.52 552.46,-286.32 563.15,-249.13"/>
<polygon fill="#63b8ff" stroke="#63b8ff" points="566.62,-249.72 566.02,-239.14 559.89,-247.79 566.62,-249.72"/>
</a>
</g>
</g>
<!-- Node37 -->
<g id="Node000037" class="node">
<title>Node37</title>
<g id="a_Node000037"><a xlink:href="../../de/df0/utilities_8h.html" target="_top" xlink:title="Various templated functions that carry out common vector and polynomial operations (see Templated Arr...">
<polygon fill="white" stroke="#666666" points="731.5,-354.5 603.5,-354.5 603.5,-335.5 731.5,-335.5 731.5,-354.5"/>
<text text-anchor="middle" x="667.5" y="-342.5" font-family="Helvetica,sans-Serif" font-size="10.00">cantera/base/utilities.h</text>
</a>
</g>
</g>
<!-- Node1&#45;&gt;Node37 -->
<g id="edge18_Node000001_Node000037" class="edge">
<title>Node1&#45;&gt;Node37</title>
<g id="a_edge18_Node000001_Node000037"><a xlink:title=" ">
<path fill="none" stroke="#63b8ff" d="M540.17,-395.99C565.44,-386.07 607.41,-369.59 636.22,-358.28"/>
<polygon fill="#63b8ff" stroke="#63b8ff" points="637.78,-361.43 645.81,-354.52 635.22,-354.91 637.78,-361.43"/>
</a>
</g>
</g>
<!-- Node3 -->
<g id="Node000003" class="node">
<title>Node3</title>
<g id="a_Node000003"><a xlink:href="../../df/dfd/VPStandardStateTP_8h.html" target="_top" xlink:title="Header file for a derived class of ThermoPhase that handles variable pressure standard state methods ...">
<polygon fill="white" stroke="#666666" points="350.5,-294 232.5,-294 232.5,-275 350.5,-275 350.5,-294"/>
<text text-anchor="middle" x="291.5" y="-282" font-family="Helvetica,sans-Serif" font-size="10.00">VPStandardStateTP.h</text>
</a>
</g>
</g>
<!-- Node2&#45;&gt;Node3 -->
<g id="edge2_Node000002_Node000003" class="edge">
<title>Node2&#45;&gt;Node3</title>
<g id="a_edge2_Node000002_Node000003"><a xlink:title=" ">
<path fill="none" stroke="#63b8ff" d="M331.67,-329.84C323.98,-321.35 314.17,-310.52 306.17,-301.69"/>
<polygon fill="#63b8ff" stroke="#63b8ff" points="308.75,-299.33 299.44,-294.27 303.56,-304.03 308.75,-299.33"/>
</a>
</g>
</g>
<!-- Node4 -->
<g id="Node000004" class="node">
<title>Node4</title>
<g id="a_Node000004"><a xlink:href="../../d7/d01/ThermoPhase_8h.html" target="_top" xlink:title="Header file for class ThermoPhase, the base class for phases with thermodynamic properties,...">
<polygon fill="white" stroke="#666666" points="291.5,-239 199.5,-239 199.5,-220 291.5,-220 291.5,-239"/>
<text text-anchor="middle" x="245.5" y="-227" font-family="Helvetica,sans-Serif" font-size="10.00">ThermoPhase.h</text>
</a>
</g>
</g>
<!-- Node3&#45;&gt;Node4 -->
<g id="edge3_Node000003_Node000004" class="edge">
<title>Node3&#45;&gt;Node4</title>
<g id="a_edge3_Node000003_Node000004"><a xlink:title=" ">
<path fill="none" stroke="#63b8ff" d="M283.9,-274.75C277.34,-267.18 267.68,-256.05 259.69,-246.84"/>
<polygon fill="#63b8ff" stroke="#63b8ff" points="262.15,-244.35 252.95,-239.09 256.87,-248.94 262.15,-244.35"/>
</a>
</g>
</g>
<!-- Node5 -->
<g id="Node000005" class="node">
<title>Node5</title>
<g id="a_Node000005"><a xlink:href="../../da/d84/Phase_8h.html" target="_top" xlink:title="Header file for class Phase.">
<polygon fill="#fff0f0" stroke="red" points="55,-184 0,-184 0,-165 55,-165 55,-184"/>
<text text-anchor="middle" x="27.5" y="-172" font-family="Helvetica,sans-Serif" font-size="10.00">Phase.h</text>
</a>
</g>
</g>
<!-- Node4&#45;&gt;Node5 -->
<g id="edge4_Node000004_Node000005" class="edge">
<title>Node4&#45;&gt;Node5</title>
<g id="a_edge4_Node000004_Node000005"><a xlink:title=" ">
<path fill="none" stroke="#63b8ff" d="M210.47,-219.98C170.64,-210.3 105.85,-194.55 65.01,-184.62"/>
<polygon fill="#63b8ff" stroke="#63b8ff" points="65.72,-181.19 55.18,-182.23 64.07,-187.99 65.72,-181.19"/>
</a>
</g>
</g>
<!-- Node26 -->
<g id="Node000026" class="node">
<title>Node26</title>
<g id="a_Node000026"><a xlink:href="../../d6/d7a/MultiSpeciesThermo_8h.html" target="_top" xlink:title="Header for a general species thermodynamic property manager for a phase (see MultiSpeciesThermo).">
<polygon fill="#fff0f0" stroke="red" points="198,-184 73,-184 73,-165 198,-165 198,-184"/>
<text text-anchor="middle" x="135.5" y="-172" font-family="Helvetica,sans-Serif" font-size="10.00">MultiSpeciesThermo.h</text>
</a>
</g>
</g>
<!-- Node4&#45;&gt;Node26 -->
<g id="edge5_Node000004_Node000026" class="edge">
<title>Node4&#45;&gt;Node26</title>
<g id="a_edge5_Node000004_Node000026"><a xlink:title=" ">
<path fill="none" stroke="#63b8ff" d="M227.83,-219.98C210.21,-211.5 182.92,-198.35 162.57,-188.54"/>
<polygon fill="#63b8ff" stroke="#63b8ff" points="164.02,-185.36 153.49,-184.17 160.98,-191.66 164.02,-185.36"/>
</a>
</g>
</g>
<!-- Node29 -->
<g id="Node000029" class="node">
<title>Node29</title>
<g id="a_Node000029"><a xlink:href="../../da/d58/Units_8h.html" target="_top" xlink:title="Header for unit conversion utilities, which are used to translate user input from input files (See In...">
<polygon fill="white" stroke="#666666" points="423,-74 306,-74 306,-55 423,-55 423,-74"/>
<text text-anchor="middle" x="364.5" y="-62" font-family="Helvetica,sans-Serif" font-size="10.00">cantera/base/Units.h</text>
</a>
</g>
</g>
<!-- Node4&#45;&gt;Node29 -->
<g id="edge6_Node000004_Node000029" class="edge">
<title>Node4&#45;&gt;Node29</title>
<g id="a_edge6_Node000004_Node000029"><a xlink:title=" ">
<path fill="none" stroke="#63b8ff" d="M246.51,-219.94C249.42,-198.79 259.61,-143.33 289.5,-110 301.52,-96.59 318.56,-86.04 333.37,-78.58"/>
<polygon fill="#63b8ff" stroke="#63b8ff" points="335.18,-81.59 342.69,-74.12 332.16,-75.27 335.18,-81.59"/>
</a>
</g>
</g>
<!-- Node28 -->
<g id="Node000028" class="node">
<title>Node28</title>
<g id="a_Node000028"><a xlink:href="../../dd/d2a/AnyMap_8h.html" target="_top" xlink:title=" ">
<polygon fill="#fff0f0" stroke="red" points="430,-129 299,-129 299,-110 430,-110 430,-129"/>
<text text-anchor="middle" x="364.5" y="-117" font-family="Helvetica,sans-Serif" font-size="10.00">cantera/base/AnyMap.h</text>
</a>
</g>
</g>
<!-- Node4&#45;&gt;Node28 -->
<g id="edge8_Node000004_Node000028" class="edge">
<title>Node4&#45;&gt;Node28</title>
<g id="a_edge8_Node000004_Node000028"><a xlink:title=" ">
<path fill="none" stroke="#63b8ff" d="M248.97,-219.72C254.56,-206.48 266.66,-181.23 283.5,-165 297.47,-151.54 316.31,-140.87 332.31,-133.35"/>
<polygon fill="#63b8ff" stroke="#63b8ff" points="334.14,-136.37 341.83,-129.08 331.27,-129.98 334.14,-136.37"/>
</a>
</g>
</g>
<!-- Node34 -->
<g id="Node000034" class="node">
<title>Node34</title>
<g id="a_Node000034"><a xlink:href="../../d4/dfa/Solution_8h.html" target="_top" xlink:title=" ">
<polygon fill="#fff0f0" stroke="red" points="424,-184 293,-184 293,-165 424,-165 424,-184"/>
<text text-anchor="middle" x="358.5" y="-172" font-family="Helvetica,sans-Serif" font-size="10.00">cantera/base/Solution.h</text>
</a>
</g>
</g>
<!-- Node4&#45;&gt;Node34 -->
<g id="edge11_Node000004_Node000034" class="edge">
<title>Node4&#45;&gt;Node34</title>
<g id="a_edge11_Node000004_Node000034"><a xlink:title=" ">
<path fill="none" stroke="#63b8ff" d="M263.66,-219.98C281.75,-211.5 309.78,-198.35 330.69,-188.54"/>
<polygon fill="#63b8ff" stroke="#63b8ff" points="332.45,-191.59 340.01,-184.17 329.47,-185.25 332.45,-191.59"/>
</a>
</g>
</g>
<!-- Node7 -->
<g id="Node000007" class="node">
<title>Node7</title>
<g id="a_Node000007"><a xlink:href="../../d9/ddc/ct__defs_8h.html" target="_top" xlink:title="This file contains definitions of constants, types and terms that are used in internal routines and a...">
<polygon fill="#fff0f0" stroke="red" points="537,-19 476,-19 476,0 537,0 537,-19"/>
<text text-anchor="middle" x="506.5" y="-7" font-family="Helvetica,sans-Serif" font-size="10.00">ct_defs.h</text>
</a>
</g>
</g>
<!-- Node29&#45;&gt;Node7 -->
<g id="edge7_Node000029_Node000007" class="edge">
<title>Node29&#45;&gt;Node7</title>
<g id="a_edge7_Node000029_Node000007"><a xlink:title=" ">
<path fill="none" stroke="#63b8ff" d="M387.31,-54.98C410.67,-46.27 447.2,-32.63 473.67,-22.75"/>
<polygon fill="#63b8ff" stroke="#63b8ff" points="475.13,-25.95 483.27,-19.17 472.68,-19.39 475.13,-25.95"/>
</a>
</g>
</g>
<!-- Node28&#45;&gt;Node29 -->
<g id="edge10_Node000028_Node000029" class="edge">
<title>Node28&#45;&gt;Node29</title>
<g id="a_edge10_Node000028_Node000029"><a xlink:title=" ">
<path fill="none" stroke="#63b8ff" d="M364.5,-109.75C364.5,-102.8 364.5,-92.85 364.5,-84.13"/>
<polygon fill="#63b8ff" stroke="#63b8ff" points="368,-84.09 364.5,-74.09 361,-84.09 368,-84.09"/>
</a>
</g>
</g>
<!-- Node28&#45;&gt;Node7 -->
<g id="edge9_Node000028_Node000007" class="edge">
<title>Node28&#45;&gt;Node7</title>
<g id="a_edge9_Node000028_Node000007"><a xlink:title=" ">
<path fill="none" stroke="#63b8ff" d="M378.42,-109.92C392.2,-101.27 413.75,-87.34 431.5,-74 452.02,-58.58 474.33,-39.35 489.24,-26.11"/>
<polygon fill="#63b8ff" stroke="#63b8ff" points="491.97,-28.37 497.09,-19.09 487.3,-23.15 491.97,-28.37"/>
</a>
</g>
</g>
<!-- Node34&#45;&gt;Node28 -->
<g id="edge12_Node000034_Node000028" class="edge">
<title>Node34&#45;&gt;Node28</title>
<g id="a_edge12_Node000034_Node000028"><a xlink:title=" ">
<path fill="none" stroke="#63b8ff" d="M359.49,-164.75C360.28,-157.8 361.4,-147.85 362.39,-139.13"/>
<polygon fill="#63b8ff" stroke="#63b8ff" points="365.88,-139.42 363.53,-129.09 358.92,-138.63 365.88,-139.42"/>
</a>
</g>
</g>
<!-- Node35&#45;&gt;Node7 -->
<g id="edge14_Node000035_Node000007" class="edge">
<title>Node35&#45;&gt;Node7</title>
<g id="a_edge14_Node000035_Node000007"><a xlink:title=" ">
<path fill="none" stroke="#63b8ff" d="M506.5,-164.74C506.5,-139.31 506.5,-65.08 506.5,-29.69"/>
<polygon fill="#63b8ff" stroke="#63b8ff" points="510,-29.31 506.5,-19.31 503,-29.31 510,-29.31"/>
</a>
</g>
</g>
<!-- Node35&#45;&gt;Node28 -->
<g id="edge15_Node000035_Node000028" class="edge">
<title>Node35&#45;&gt;Node28</title>
<g id="a_edge15_Node000035_Node000028"><a xlink:title=" ">
<path fill="none" stroke="#63b8ff" d="M483.69,-164.98C460.33,-156.27 423.8,-142.63 397.33,-132.75"/>
<polygon fill="#63b8ff" stroke="#63b8ff" points="398.32,-129.39 387.73,-129.17 395.87,-135.95 398.32,-129.39"/>
</a>
</g>
</g>
<!-- Node36&#45;&gt;Node7 -->
<g id="edge17_Node000036_Node000007" class="edge">
<title>Node36&#45;&gt;Node7</title>
<g id="a_edge17_Node000036_Node000007"><a xlink:title=" ">
<path fill="none" stroke="#63b8ff" d="M572.16,-219.82C576.84,-207.54 583.86,-184.43 579.5,-165 567.53,-111.66 534.97,-55.06 517.66,-27.53"/>
<polygon fill="#63b8ff" stroke="#63b8ff" points="520.58,-25.59 512.24,-19.05 514.68,-29.36 520.58,-25.59"/>
</a>
</g>
</g>
<!-- Node37&#45;&gt;Node7 -->
<g id="edge19_Node000037_Node000007" class="edge">
<title>Node37&#45;&gt;Node7</title>
<g id="a_edge19_Node000037_Node000007"><a xlink:title=" ">
<path fill="none" stroke="#63b8ff" d="M667.5,-335.46C667.5,-316.55 667.5,-269.71 667.5,-230.5 667.5,-230.5 667.5,-230.5 667.5,-118.5 667.5,-60.53 594.61,-31.67 546.92,-19"/>
<polygon fill="#63b8ff" stroke="#63b8ff" points="547.71,-15.59 537.16,-16.54 546,-22.38 547.71,-15.59"/>
</a>
</g>
</g>
<!-- Node38 -->
<g id="Node000038" class="node">
<title>Node38</title>
<g id="a_Node000038"><a xlink:title=" ">
<polygon fill="#e0e0e0" stroke="#999999" points="751.5,-294 695.5,-294 695.5,-275 751.5,-275 751.5,-294"/>
<text text-anchor="middle" x="723.5" y="-282" font-family="Helvetica,sans-Serif" font-size="10.00">numeric</text>
</a>
</g>
</g>
<!-- Node37&#45;&gt;Node38 -->
<g id="edge20_Node000037_Node000038" class="edge">
<title>Node37&#45;&gt;Node38</title>
<g id="a_edge20_Node000037_Node000038"><a xlink:title=" ">
<path fill="none" stroke="#63b8ff" d="M675.76,-335.37C684.28,-326.47 697.76,-312.39 708.23,-301.45"/>
<polygon fill="#63b8ff" stroke="#63b8ff" points="710.82,-303.81 715.2,-294.17 705.76,-298.97 710.82,-303.81"/>
</a>
</g>
</g>
</g>
</svg>
