<?xml version="1.0" encoding="UTF-8" standalone="no"?>
<!DOCTYPE svg PUBLIC "-//W3C//DTD SVG 1.1//EN"
 "http://www.w3.org/Graphics/SVG/1.1/DTD/svg11.dtd">
<!-- Generated by graphviz version 6.0.1 (0)
 -->
<!-- Title: Group.h Pages: 1 -->
<svg width="225pt" height="137pt"
 viewBox="0.00 0.00 224.50 137.00" xmlns="http://www.w3.org/2000/svg" xmlns:xlink="http://www.w3.org/1999/xlink">
<g id="graph0" class="graph" transform="scale(1 1) rotate(0) translate(4 133)">
<title>Group.h</title>
<!-- Node1 -->
<g id="node1" class="node">
<title>Node1</title>
<g id="a_node1"><a xlink:title=" ">
<polygon fill="#999999" stroke="#666666" points="101.5,-129 50.5,-129 50.5,-110 101.5,-110 101.5,-129"/>
<text text-anchor="middle" x="76" y="-117" font-family="Helvetica,sans-Serif" font-size="10.00">Group.h</text>
</a>
</g>
</g>
<!-- Node2 -->
<g id="node2" class="node">
<title>Node2</title>
<g id="a_node2"><a xlink:href="../../de/d74/Group_8cpp.html" target="_top" xlink:title="Implementation file for the Group class used in reaction path analysis.">
<polygon fill="white" stroke="#666666" points="62,-74 0,-74 0,-55 62,-55 62,-74"/>
<text text-anchor="middle" x="31" y="-62" font-family="Helvetica,sans-Serif" font-size="10.00">Group.cpp</text>
</a>
</g>
</g>
<!-- Node1&#45;&gt;Node2 -->
<g id="edge1" class="edge">
<title>Node1&#45;&gt;Node2</title>
<path fill="none" stroke="#63b8ff" d="M61.95,-101.96C54.11,-92.72 44.67,-81.6 38.29,-74.09"/>
<polygon fill="#63b8ff" stroke="#63b8ff" points="59.43,-104.39 68.57,-109.75 64.76,-99.86 59.43,-104.39"/>
</g>
<!-- Node3 -->
<g id="node3" class="node">
<title>Node3</title>
<g id="a_node3"><a xlink:href="../../d2/df0/ReactionPath_8h.html" target="_top" xlink:title="Classes for reaction path analysis.">
<polygon fill="white" stroke="#666666" points="164,-74 80,-74 80,-55 164,-55 164,-74"/>
<text text-anchor="middle" x="122" y="-62" font-family="Helvetica,sans-Serif" font-size="10.00">ReactionPath.h</text>
</a>
</g>
</g>
<!-- Node1&#45;&gt;Node3 -->
<g id="edge2" class="edge">
<title>Node1&#45;&gt;Node3</title>
<path fill="none" stroke="#63b8ff" d="M90.36,-101.96C98.37,-92.72 108.03,-81.6 114.55,-74.09"/>
<polygon fill="#63b8ff" stroke="#63b8ff" points="87.51,-99.9 83.6,-109.75 92.79,-104.49 87.51,-99.9"/>
</g>
<!-- Node4 -->
<g id="node4" class="node">
<title>Node4</title>
<g id="a_node4"><a xlink:href="../../da/d26/ReactionPath_8cpp.html" target="_top" xlink:title="Implementation file for classes used in reaction path analysis.">
<polygon fill="white" stroke="#666666" points="115.5,-19 20.5,-19 20.5,0 115.5,0 115.5,-19"/>
<text text-anchor="middle" x="68" y="-7" font-family="Helvetica,sans-Serif" font-size="10.00">ReactionPath.cpp</text>
</a>
</g>
</g>
<!-- Node3&#45;&gt;Node4 -->
<g id="edge3" class="edge">
<title>Node3&#45;&gt;Node4</title>
<path fill="none" stroke="#63b8ff" d="M105.72,-47.52C96.2,-38.18 84.56,-26.75 76.75,-19.09"/>
<polygon fill="#63b8ff" stroke="#63b8ff" points="103.49,-50.24 113.08,-54.75 108.4,-45.25 103.49,-50.24"/>
</g>
<!-- Node5 -->
<g id="node5" class="node">
<title>Node5</title>
<g id="a_node5"><a xlink:href="../../d8/df8/reactionpaths_8h_source.html" target="_top" xlink:title=" ">
<polygon fill="white" stroke="#666666" points="216.5,-19 133.5,-19 133.5,0 216.5,0 216.5,-19"/>
<text text-anchor="middle" x="175" y="-7" font-family="Helvetica,sans-Serif" font-size="10.00">reactionpaths.h</text>
</a>
</g>
</g>
<!-- Node3&#45;&gt;Node5 -->
<g id="edge4" class="edge">
<title>Node3&#45;&gt;Node5</title>
<path fill="none" stroke="#63b8ff" d="M137.98,-47.52C147.32,-38.18 158.75,-26.75 166.41,-19.09"/>
<polygon fill="#63b8ff" stroke="#63b8ff" points="135.35,-45.2 130.75,-54.75 140.3,-50.15 135.35,-45.2"/>
</g>
</g>
</svg>
