<?xml version="1.0" encoding="UTF-8" standalone="no"?>
<!DOCTYPE svg PUBLIC "-//W3C//DTD SVG 1.1//EN"
 "http://www.w3.org/Graphics/SVG/1.1/DTD/svg11.dtd">
<!-- Generated by graphviz version 2.50.0 (0)
 -->
<!-- Title: PDSSFactory.h Pages: 1 -->
<!--zoomable 543 -->
<svg id="main" version="1.1" xmlns="http://www.w3.org/2000/svg" xmlns:xlink="http://www.w3.org/1999/xlink" xml:space="preserve" onload="init(evt)">
<style type="text/css"><![CDATA[
.edge:hover path { stroke: red; }
.edge:hover polygon { stroke: red; fill: red; }
]]></style>
<script type="text/javascript"><![CDATA[
var edges = document.getElementsByTagName('g');
if (edges && edges.length) {
  for (var i=0;i<edges.length;i++) {
    if (edges[i].id.substr(0,4)=='edge') {
      edges[i].setAttribute('class','edge');
    }
  }
}
]]></script>
        <defs>
                <circle id="rim" cx="0" cy="0" r="7"/>
                <circle id="rim2" cx="0" cy="0" r="3.5"/>
                <g id="zoomPlus">
                        <use xlink:href="#rim" fill="#404040">
                                <set attributeName="fill" to="#808080" begin="zoomplus.mouseover" end="zoomplus.mouseout"/>
                        </use>
                        <path d="M-4,0h8M0,-4v8" fill="none" stroke="white" stroke-width="1.5" pointer-events="none"/>
                </g>
                <g id="zoomMin">
                        <use xlink:href="#rim" fill="#404040">
                                <set attributeName="fill" to="#808080" begin="zoomminus.mouseover" end="zoomminus.mouseout"/>
                        </use>
                        <path d="M-4,0h8" fill="none" stroke="white" stroke-width="1.5" pointer-events="none"/>
                </g>
                <g id="dirArrow">
                        <path fill="none" stroke="white" stroke-width="1.5" d="M0,-3.0v7 M-2.5,-0.5L0,-3.0L2.5,-0.5"/>
                </g>
               <g id="resetDef">
                       <use xlink:href="#rim2" fill="#404040">
                               <set attributeName="fill" to="#808080" begin="reset.mouseover" end="reset.mouseout"/>
                       </use>
               </g>
        </defs>

<script type="text/javascript">
var viewWidth = 1006;
var viewHeight = 543;
var sectionId = 'dynsection-0';
</script>
<script xlink:href="../../svgpan.js"/>
<svg id="graph" class="graph">
<g id="viewport">
<title>PDSSFactory.h</title>
<polygon fill="white" stroke="transparent" points="-4,4 -4,-539 1002.31,-539 1002.31,4 -4,4"/>
<!-- Node1 -->
<g id="node1" class="node">
<title>Node1</title>
<g id="a_node1"><a xlink:title=" ">
<polygon fill="#bfbfbf" stroke="black" points="155.22,-515.5 155.22,-534.5 239.22,-534.5 239.22,-515.5 155.22,-515.5"/>
<text text-anchor="middle" x="197.22" y="-522.5" font-family="Helvetica,sans-Serif" font-size="10.00">PDSSFactory.h</text>
</a>
</g>
</g>
<!-- Node2 -->
<g id="node2" class="node">
<title>Node2</title>
<g id="a_node2"><a xlink:href="../../d7/dfa/PDSS_8h.html" target="_top" xlink:title="Declarations for the virtual base class PDSS (pressure dependent standard state) which handles calcul...">
<polygon fill="white" stroke="black" points="115.72,-280.5 115.72,-299.5 168.72,-299.5 168.72,-280.5 115.72,-280.5"/>
<text text-anchor="middle" x="142.22" y="-287.5" font-family="Helvetica,sans-Serif" font-size="10.00">PDSS.h</text>
</a>
</g>
</g>
<!-- Node1&#45;&gt;Node2 -->
<g id="edge1" class="edge">
<title>Node1&#45;&gt;Node2</title>
<path fill="none" stroke="midnightblue" d="M194.31,-515.44C191.31,-506.43 186.6,-491.82 183.22,-479 166.97,-417.48 152.2,-343.43 145.71,-309.56"/>
<polygon fill="midnightblue" stroke="midnightblue" points="149.14,-308.85 143.83,-299.68 142.26,-310.16 149.14,-308.85"/>
</g>
<!-- Node24 -->
<g id="node22" class="node">
<title>Node24</title>
<g id="a_node22"><a xlink:href="../../d6/dd5/FactoryBase_8h.html" target="_top" xlink:title="File contains the FactoryBase class declarations.">
<polygon fill="white" stroke="black" points="421.22,-224.5 421.22,-243.5 561.22,-243.5 561.22,-224.5 421.22,-224.5"/>
<text text-anchor="middle" x="491.22" y="-231.5" font-family="Helvetica,sans-Serif" font-size="10.00">cantera/base/FactoryBase.h</text>
</a>
</g>
</g>
<!-- Node1&#45;&gt;Node24 -->
<g id="edge25" class="edge">
<title>Node1&#45;&gt;Node24</title>
<path fill="none" stroke="midnightblue" d="M197.22,-515.49C197.22,-495.74 197.22,-445.22 197.22,-403 197.22,-403 197.22,-403 197.22,-345 197.22,-295.99 342.37,-261.54 428.69,-245.39"/>
<polygon fill="midnightblue" stroke="midnightblue" points="429.45,-248.81 438.65,-243.56 428.19,-241.93 429.45,-248.81"/>
</g>
<!-- Node27 -->
<g id="node25" class="node">
<title>Node27</title>
<g id="a_node25"><a xlink:href="../../df/dfd/VPStandardStateTP_8h.html" target="_top" xlink:title="Header file for a derived class of ThermoPhase that handles variable pressure standard state methods ...">
<polygon fill="white" stroke="black" points="225.72,-448.5 225.72,-478.5 362.72,-478.5 362.72,-448.5 225.72,-448.5"/>
<text text-anchor="start" x="233.72" y="-466.5" font-family="Helvetica,sans-Serif" font-size="10.00">cantera/thermo/VPStandard</text>
<text text-anchor="middle" x="294.22" y="-455.5" font-family="Helvetica,sans-Serif" font-size="10.00">StateTP.h</text>
</a>
</g>
</g>
<!-- Node1&#45;&gt;Node27 -->
<g id="edge33" class="edge">
<title>Node1&#45;&gt;Node27</title>
<path fill="none" stroke="midnightblue" d="M211.11,-515.48C224.5,-507.27 245.21,-494.56 262.61,-483.88"/>
<polygon fill="midnightblue" stroke="midnightblue" points="264.66,-486.74 271.35,-478.52 261,-480.77 264.66,-486.74"/>
</g>
<!-- Node3 -->
<g id="node3" class="node">
<title>Node3</title>
<g id="a_node3"><a xlink:href="../../d9/ddc/ct__defs_8h.html" target="_top" xlink:title="This file contains definitions of constants, types and terms that are used in internal routines and a...">
<polygon fill="white" stroke="black" points="570.22,-56.5 570.22,-75.5 686.22,-75.5 686.22,-56.5 570.22,-56.5"/>
<text text-anchor="middle" x="628.22" y="-63.5" font-family="Helvetica,sans-Serif" font-size="10.00">cantera/base/ct_defs.h</text>
</a>
</g>
</g>
<!-- Node2&#45;&gt;Node3 -->
<g id="edge2" class="edge">
<title>Node2&#45;&gt;Node3</title>
<path fill="none" stroke="midnightblue" d="M119.73,-280.46C87.06,-266.68 27.73,-236.11 3.22,-188 -13.07,-156.04 39.79,-112.25 40.22,-112 84.09,-86.2 414.58,-73.33 559.95,-68.87"/>
<polygon fill="midnightblue" stroke="midnightblue" points="560.2,-72.36 570.09,-68.56 559.99,-65.37 560.2,-72.36"/>
</g>
<!-- Node12 -->
<g id="node12" class="node">
<title>Node12</title>
<g id="a_node12"><a xlink:href="../../dd/d2a/AnyMap_8h.html" target="_top" xlink:title=" ">
<polygon fill="white" stroke="black" points="277.22,-224.5 277.22,-243.5 397.22,-243.5 397.22,-224.5 277.22,-224.5"/>
<text text-anchor="middle" x="337.22" y="-231.5" font-family="Helvetica,sans-Serif" font-size="10.00">cantera/base/AnyMap.h</text>
</a>
</g>
</g>
<!-- Node2&#45;&gt;Node12 -->
<g id="edge11" class="edge">
<title>Node2&#45;&gt;Node12</title>
<path fill="none" stroke="midnightblue" d="M168.92,-281.6C201.86,-272.48 258.19,-256.89 296.52,-246.27"/>
<polygon fill="midnightblue" stroke="midnightblue" points="297.63,-249.59 306.34,-243.55 295.77,-242.85 297.63,-249.59"/>
</g>
<!-- Node4 -->
<g id="node4" class="node">
<title>Node4</title>
<g id="a_node4"><a xlink:href="../../db/d16/config_8h_source.html" target="_top" xlink:title=" ">
<polygon fill="white" stroke="black" points="381.72,-0.5 381.72,-19.5 432.72,-19.5 432.72,-0.5 381.72,-0.5"/>
<text text-anchor="middle" x="407.22" y="-7.5" font-family="Helvetica,sans-Serif" font-size="10.00">config.h</text>
</a>
</g>
</g>
<!-- Node3&#45;&gt;Node4 -->
<g id="edge3" class="edge">
<title>Node3&#45;&gt;Node4</title>
<path fill="none" stroke="midnightblue" d="M592.17,-56.44C556.65,-47.97 500.58,-34.5 442.53,-20.05"/>
<polygon fill="midnightblue" stroke="midnightblue" points="443.37,-16.65 432.82,-17.63 441.67,-23.45 443.37,-16.65"/>
</g>
<!-- Node5 -->
<g id="node5" class="node">
<title>Node5</title>
<g id="a_node5"><a xlink:title=" ">
<polygon fill="white" stroke="#bfbfbf" points="451.22,-0.5 451.22,-19.5 495.22,-19.5 495.22,-0.5 451.22,-0.5"/>
<text text-anchor="middle" x="473.22" y="-7.5" font-family="Helvetica,sans-Serif" font-size="10.00">cmath</text>
</a>
</g>
</g>
<!-- Node3&#45;&gt;Node5 -->
<g id="edge4" class="edge">
<title>Node3&#45;&gt;Node5</title>
<path fill="none" stroke="midnightblue" d="M603.66,-56.44C577.08,-47.19 534.6,-32.39 505.38,-22.21"/>
<polygon fill="midnightblue" stroke="midnightblue" points="506.24,-18.8 495.65,-18.82 503.94,-25.41 506.24,-18.8"/>
</g>
<!-- Node6 -->
<g id="node6" class="node">
<title>Node6</title>
<g id="a_node6"><a xlink:title=" ">
<polygon fill="white" stroke="#bfbfbf" points="513.72,-0.5 513.72,-19.5 558.72,-19.5 558.72,-0.5 513.72,-0.5"/>
<text text-anchor="middle" x="536.22" y="-7.5" font-family="Helvetica,sans-Serif" font-size="10.00">cstdlib</text>
</a>
</g>
</g>
<!-- Node3&#45;&gt;Node6 -->
<g id="edge5" class="edge">
<title>Node3&#45;&gt;Node6</title>
<path fill="none" stroke="midnightblue" d="M613.43,-56.32C598.95,-47.82 576.64,-34.73 559.72,-24.8"/>
<polygon fill="midnightblue" stroke="midnightblue" points="561.36,-21.7 550.96,-19.65 557.81,-27.74 561.36,-21.7"/>
</g>
<!-- Node7 -->
<g id="node7" class="node">
<title>Node7</title>
<g id="a_node7"><a xlink:title=" ">
<polygon fill="white" stroke="#bfbfbf" points="577.22,-0.5 577.22,-19.5 621.22,-19.5 621.22,-0.5 577.22,-0.5"/>
<text text-anchor="middle" x="599.22" y="-7.5" font-family="Helvetica,sans-Serif" font-size="10.00">vector</text>
</a>
</g>
</g>
<!-- Node3&#45;&gt;Node7 -->
<g id="edge6" class="edge">
<title>Node3&#45;&gt;Node7</title>
<path fill="none" stroke="midnightblue" d="M623.43,-56.08C619.46,-48.69 613.69,-37.95 608.78,-28.81"/>
<polygon fill="midnightblue" stroke="midnightblue" points="611.73,-26.91 603.92,-19.75 605.56,-30.22 611.73,-26.91"/>
</g>
<!-- Node8 -->
<g id="node8" class="node">
<title>Node8</title>
<g id="a_node8"><a xlink:title=" ">
<polygon fill="white" stroke="#bfbfbf" points="639.72,-0.5 639.72,-19.5 674.72,-19.5 674.72,-0.5 639.72,-0.5"/>
<text text-anchor="middle" x="657.22" y="-7.5" font-family="Helvetica,sans-Serif" font-size="10.00">map</text>
</a>
</g>
</g>
<!-- Node3&#45;&gt;Node8 -->
<g id="edge7" class="edge">
<title>Node3&#45;&gt;Node8</title>
<path fill="none" stroke="midnightblue" d="M633,-56.08C636.97,-48.69 642.74,-37.95 647.65,-28.81"/>
<polygon fill="midnightblue" stroke="midnightblue" points="650.87,-30.22 652.52,-19.75 644.7,-26.91 650.87,-30.22"/>
</g>
<!-- Node9 -->
<g id="node9" class="node">
<title>Node9</title>
<g id="a_node9"><a xlink:title=" ">
<polygon fill="white" stroke="#bfbfbf" points="692.72,-0.5 692.72,-19.5 733.72,-19.5 733.72,-0.5 692.72,-0.5"/>
<text text-anchor="middle" x="713.22" y="-7.5" font-family="Helvetica,sans-Serif" font-size="10.00">string</text>
</a>
</g>
</g>
<!-- Node3&#45;&gt;Node9 -->
<g id="edge8" class="edge">
<title>Node3&#45;&gt;Node9</title>
<path fill="none" stroke="midnightblue" d="M641.87,-56.32C655.13,-47.9 675.48,-34.97 691.06,-25.07"/>
<polygon fill="midnightblue" stroke="midnightblue" points="693.03,-27.97 699.59,-19.65 689.28,-22.06 693.03,-27.97"/>
</g>
<!-- Node10 -->
<g id="node10" class="node">
<title>Node10</title>
<g id="a_node10"><a xlink:title=" ">
<polygon fill="white" stroke="#bfbfbf" points="752.22,-0.5 752.22,-19.5 808.22,-19.5 808.22,-0.5 752.22,-0.5"/>
<text text-anchor="middle" x="780.22" y="-7.5" font-family="Helvetica,sans-Serif" font-size="10.00">algorithm</text>
</a>
</g>
</g>
<!-- Node3&#45;&gt;Node10 -->
<g id="edge9" class="edge">
<title>Node3&#45;&gt;Node10</title>
<path fill="none" stroke="midnightblue" d="M652.3,-56.44C677.76,-47.4 718.11,-33.06 746.67,-22.92"/>
<polygon fill="midnightblue" stroke="midnightblue" points="747.99,-26.16 756.24,-19.52 745.65,-19.57 747.99,-26.16"/>
</g>
<!-- Node11 -->
<g id="node11" class="node">
<title>Node11</title>
<g id="a_node11"><a xlink:title=" ">
<polygon fill="white" stroke="#bfbfbf" points="826.22,-0.5 826.22,-19.5 878.22,-19.5 878.22,-0.5 826.22,-0.5"/>
<text text-anchor="middle" x="852.22" y="-7.5" font-family="Helvetica,sans-Serif" font-size="10.00">memory</text>
</a>
</g>
</g>
<!-- Node3&#45;&gt;Node11 -->
<g id="edge10" class="edge">
<title>Node3&#45;&gt;Node11</title>
<path fill="none" stroke="midnightblue" d="M664.85,-56.48C700.95,-48.04 757.93,-34.6 816.13,-20.24"/>
<polygon fill="midnightblue" stroke="midnightblue" points="816.99,-23.63 825.86,-17.83 815.31,-16.84 816.99,-23.63"/>
</g>
<!-- Node12&#45;&gt;Node3 -->
<g id="edge12" class="edge">
<title>Node12&#45;&gt;Node3</title>
<path fill="none" stroke="midnightblue" d="M277.18,-233.74C192.41,-233.35 44.15,-226.93 10.22,-188 4.37,-181.3 5.88,-175.76 10.22,-168 33.38,-126.54 56.11,-126.87 101.22,-112 184.56,-84.53 437.2,-72.99 559.9,-68.91"/>
<polygon fill="midnightblue" stroke="midnightblue" points="560.05,-72.41 569.93,-68.59 559.82,-65.41 560.05,-72.41"/>
</g>
<!-- Node13 -->
<g id="node13" class="node">
<title>Node13</title>
<g id="a_node13"><a xlink:href="../../db/d98/ctexceptions_8h.html" target="_top" xlink:title="Definitions for the classes that are thrown when Cantera experiences an error condition (also contain...">
<polygon fill="white" stroke="black" points="536.22,-168.5 536.22,-187.5 676.22,-187.5 676.22,-168.5 536.22,-168.5"/>
<text text-anchor="middle" x="606.22" y="-175.5" font-family="Helvetica,sans-Serif" font-size="10.00">cantera/base/ctexceptions.h</text>
</a>
</g>
</g>
<!-- Node12&#45;&gt;Node13 -->
<g id="edge13" class="edge">
<title>Node12&#45;&gt;Node13</title>
<path fill="none" stroke="midnightblue" d="M379.84,-224.44C426.96,-214.98 502.91,-199.74 553.67,-189.55"/>
<polygon fill="midnightblue" stroke="midnightblue" points="554.68,-192.92 563.79,-187.52 553.3,-186.05 554.68,-192.92"/>
</g>
<!-- Node18 -->
<g id="node16" class="node">
<title>Node18</title>
<g id="a_node16"><a xlink:href="../../da/d58/Units_8h.html" target="_top" xlink:title="Header for unit conversion utilities, which are used to translate user input from input files (See In...">
<polygon fill="white" stroke="black" points="19.72,-168.5 19.72,-187.5 126.72,-187.5 126.72,-168.5 19.72,-168.5"/>
<text text-anchor="middle" x="73.22" y="-175.5" font-family="Helvetica,sans-Serif" font-size="10.00">cantera/base/Units.h</text>
</a>
</g>
</g>
<!-- Node12&#45;&gt;Node18 -->
<g id="edge17" class="edge">
<title>Node12&#45;&gt;Node18</title>
<path fill="none" stroke="midnightblue" d="M295.38,-224.44C249.14,-214.98 174.6,-199.74 124.78,-189.55"/>
<polygon fill="midnightblue" stroke="midnightblue" points="125.35,-186.09 114.85,-187.52 123.95,-192.95 125.35,-186.09"/>
</g>
<!-- Node19 -->
<g id="node17" class="node">
<title>Node19</title>
<g id="a_node17"><a xlink:title=" ">
<polygon fill="white" stroke="#bfbfbf" points="295.72,-168.5 295.72,-187.5 378.72,-187.5 378.72,-168.5 295.72,-168.5"/>
<text text-anchor="middle" x="337.22" y="-175.5" font-family="Helvetica,sans-Serif" font-size="10.00">unordered_map</text>
</a>
</g>
</g>
<!-- Node12&#45;&gt;Node19 -->
<g id="edge19" class="edge">
<title>Node12&#45;&gt;Node19</title>
<path fill="none" stroke="midnightblue" d="M337.22,-224.08C337.22,-217.01 337.22,-206.86 337.22,-197.99"/>
<polygon fill="midnightblue" stroke="midnightblue" points="340.72,-197.75 337.22,-187.75 333.72,-197.75 340.72,-197.75"/>
</g>
<!-- Node20 -->
<g id="node18" class="node">
<title>Node20</title>
<g id="a_node18"><a xlink:title=" ">
<polygon fill="white" stroke="#bfbfbf" points="396.72,-168.5 396.72,-187.5 455.72,-187.5 455.72,-168.5 396.72,-168.5"/>
<text text-anchor="middle" x="426.22" y="-175.5" font-family="Helvetica,sans-Serif" font-size="10.00">functional</text>
</a>
</g>
</g>
<!-- Node12&#45;&gt;Node20 -->
<g id="edge20" class="edge">
<title>Node12&#45;&gt;Node20</title>
<path fill="none" stroke="midnightblue" d="M351.51,-224.32C365.4,-215.9 386.71,-202.97 403.02,-193.07"/>
<polygon fill="midnightblue" stroke="midnightblue" points="405.22,-195.83 411.95,-187.65 401.59,-189.85 405.22,-195.83"/>
</g>
<!-- Node21 -->
<g id="node19" class="node">
<title>Node21</title>
<g id="a_node19"><a xlink:href="../../da/d4c/AnyMap_8inl_8h.html" target="_top" xlink:title=" ">
<polygon fill="white" stroke="black" points="144.72,-168.5 144.72,-187.5 277.72,-187.5 277.72,-168.5 144.72,-168.5"/>
<text text-anchor="middle" x="211.22" y="-175.5" font-family="Helvetica,sans-Serif" font-size="10.00">cantera/base/AnyMap.inl.h</text>
</a>
</g>
</g>
<!-- Node12&#45;&gt;Node21 -->
<g id="edge21" class="edge">
<title>Node12&#45;&gt;Node21</title>
<path fill="none" stroke="midnightblue" d="M312.16,-224.44C289.78,-215.68 257.47,-201.94 235.37,-191.86"/>
<polygon fill="midnightblue" stroke="midnightblue" points="236.55,-188.55 226.01,-187.52 233.61,-194.9 236.55,-188.55"/>
</g>
<!-- Node14 -->
<g id="node14" class="node">
<title>Node14</title>
<g id="a_node14"><a xlink:href="../../db/def/fmt_8h.html" target="_top" xlink:title="Wrapper for either system&#45;installed or local headers for fmt.">
<polygon fill="white" stroke="red" points="541.22,-112.5 541.22,-131.5 639.22,-131.5 639.22,-112.5 541.22,-112.5"/>
<text text-anchor="middle" x="590.22" y="-119.5" font-family="Helvetica,sans-Serif" font-size="10.00">cantera/base/fmt.h</text>
</a>
</g>
</g>
<!-- Node13&#45;&gt;Node14 -->
<g id="edge14" class="edge">
<title>Node13&#45;&gt;Node14</title>
<path fill="none" stroke="midnightblue" d="M603.57,-168.08C601.43,-160.85 598.34,-150.41 595.67,-141.4"/>
<polygon fill="midnightblue" stroke="midnightblue" points="599.01,-140.34 592.81,-131.75 592.29,-142.33 599.01,-140.34"/>
</g>
<!-- Node17 -->
<g id="node15" class="node">
<title>Node17</title>
<g id="a_node15"><a xlink:title=" ">
<polygon fill="white" stroke="#bfbfbf" points="463.72,-112.5 463.72,-131.5 522.72,-131.5 522.72,-112.5 463.72,-112.5"/>
<text text-anchor="middle" x="493.22" y="-119.5" font-family="Helvetica,sans-Serif" font-size="10.00">exception</text>
</a>
</g>
</g>
<!-- Node13&#45;&gt;Node17 -->
<g id="edge16" class="edge">
<title>Node13&#45;&gt;Node17</title>
<path fill="none" stroke="midnightblue" d="M588.31,-168.44C569.96,-159.68 541.21,-145.94 520.12,-135.86"/>
<polygon fill="midnightblue" stroke="midnightblue" points="521.57,-132.67 511.04,-131.52 518.55,-138.99 521.57,-132.67"/>
</g>
<!-- Node14&#45;&gt;Node3 -->
<g id="edge15" class="edge">
<title>Node14&#45;&gt;Node3</title>
<path fill="none" stroke="midnightblue" d="M596.49,-112.08C601.86,-104.46 609.73,-93.26 616.29,-83.94"/>
<polygon fill="midnightblue" stroke="midnightblue" points="619.16,-85.94 622.06,-75.75 613.44,-81.91 619.16,-85.94"/>
</g>
<!-- Node18&#45;&gt;Node3 -->
<g id="edge18" class="edge">
<title>Node18&#45;&gt;Node3</title>
<path fill="none" stroke="midnightblue" d="M77.7,-168.39C85.78,-153.86 104.31,-124.8 129.22,-112 202.6,-74.28 441.28,-67.75 559.95,-66.9"/>
<polygon fill="midnightblue" stroke="midnightblue" points="560.03,-70.4 570.01,-66.84 559.99,-63.4 560.03,-70.4"/>
</g>
<!-- Node21&#45;&gt;Node12 -->
<g id="edge22" class="edge">
<title>Node21&#45;&gt;Node12</title>
<path fill="none" stroke="midnightblue" d="M236.17,-187.52C258.62,-196.31 291.12,-210.13 313.26,-220.23"/>
<polygon fill="midnightblue" stroke="midnightblue" points="311.79,-223.41 322.34,-224.44 314.74,-217.06 311.79,-223.41"/>
</g>
<!-- Node22 -->
<g id="node20" class="node">
<title>Node22</title>
<g id="a_node20"><a xlink:title=" ">
<polygon fill="white" stroke="#bfbfbf" points="137.72,-112.5 137.72,-131.5 214.72,-131.5 214.72,-112.5 137.72,-112.5"/>
<text text-anchor="middle" x="176.22" y="-119.5" font-family="Helvetica,sans-Serif" font-size="10.00">boost/any.hpp</text>
</a>
</g>
</g>
<!-- Node21&#45;&gt;Node22 -->
<g id="edge23" class="edge">
<title>Node21&#45;&gt;Node22</title>
<path fill="none" stroke="midnightblue" d="M205.44,-168.08C200.54,-160.53 193.39,-149.49 187.38,-140.23"/>
<polygon fill="midnightblue" stroke="midnightblue" points="190.26,-138.24 181.89,-131.75 184.39,-142.05 190.26,-138.24"/>
</g>
<!-- Node23 -->
<g id="node21" class="node">
<title>Node23</title>
<g id="a_node21"><a xlink:title=" ">
<polygon fill="white" stroke="#bfbfbf" points="232.72,-112.5 232.72,-131.5 361.72,-131.5 361.72,-112.5 232.72,-112.5"/>
<text text-anchor="middle" x="297.22" y="-119.5" font-family="Helvetica,sans-Serif" font-size="10.00">boost/algorithm/string.hpp</text>
</a>
</g>
</g>
<!-- Node21&#45;&gt;Node23 -->
<g id="edge24" class="edge">
<title>Node21&#45;&gt;Node23</title>
<path fill="none" stroke="midnightblue" d="M225.03,-168.32C238.45,-159.9 259.04,-146.97 274.8,-137.07"/>
<polygon fill="midnightblue" stroke="midnightblue" points="276.82,-139.94 283.43,-131.65 273.1,-134.01 276.82,-139.94"/>
</g>
<!-- Node24&#45;&gt;Node13 -->
<g id="edge29" class="edge">
<title>Node24&#45;&gt;Node13</title>
<path fill="none" stroke="midnightblue" d="M509.44,-224.44C528.11,-215.68 557.37,-201.94 578.83,-191.86"/>
<polygon fill="midnightblue" stroke="midnightblue" points="580.51,-194.93 588.08,-187.52 577.54,-188.6 580.51,-194.93"/>
</g>
<!-- Node24&#45;&gt;Node19 -->
<g id="edge27" class="edge">
<title>Node24&#45;&gt;Node19</title>
<path fill="none" stroke="midnightblue" d="M466.81,-224.44C441.02,-215.4 400.14,-201.06 371.2,-190.92"/>
<polygon fill="midnightblue" stroke="midnightblue" points="372.1,-187.52 361.5,-187.52 369.78,-194.13 372.1,-187.52"/>
</g>
<!-- Node24&#45;&gt;Node20 -->
<g id="edge28" class="edge">
<title>Node24&#45;&gt;Node20</title>
<path fill="none" stroke="midnightblue" d="M480.77,-224.32C471.07,-216.26 456.4,-204.08 444.72,-194.37"/>
<polygon fill="midnightblue" stroke="midnightblue" points="446.78,-191.53 436.85,-187.83 442.3,-196.92 446.78,-191.53"/>
</g>
<!-- Node25 -->
<g id="node23" class="node">
<title>Node25</title>
<g id="a_node23"><a xlink:title=" ">
<polygon fill="white" stroke="#bfbfbf" points="474.22,-168.5 474.22,-187.5 518.22,-187.5 518.22,-168.5 474.22,-168.5"/>
<text text-anchor="middle" x="496.22" y="-175.5" font-family="Helvetica,sans-Serif" font-size="10.00">mutex</text>
</a>
</g>
</g>
<!-- Node24&#45;&gt;Node25 -->
<g id="edge26" class="edge">
<title>Node24&#45;&gt;Node25</title>
<path fill="none" stroke="midnightblue" d="M492.04,-224.08C492.7,-217.01 493.64,-206.86 494.46,-197.99"/>
<polygon fill="midnightblue" stroke="midnightblue" points="497.97,-198.03 495.41,-187.75 491,-197.39 497.97,-198.03"/>
</g>
<!-- Node26 -->
<g id="node24" class="node">
<title>Node26</title>
<g id="a_node24"><a xlink:href="../../d2/d49/global_8h.html" target="_top" xlink:title="This file contains definitions for utility functions and text for modules, inputfiles,...">
<polygon fill="white" stroke="black" points="694.22,-168.5 694.22,-187.5 804.22,-187.5 804.22,-168.5 694.22,-168.5"/>
<text text-anchor="middle" x="749.22" y="-175.5" font-family="Helvetica,sans-Serif" font-size="10.00">cantera/base/global.h</text>
</a>
</g>
</g>
<!-- Node24&#45;&gt;Node26 -->
<g id="edge30" class="edge">
<title>Node24&#45;&gt;Node26</title>
<path fill="none" stroke="midnightblue" d="M532.1,-224.44C577.2,-215 649.83,-199.8 698.52,-189.61"/>
<polygon fill="midnightblue" stroke="midnightblue" points="699.46,-192.99 708.53,-187.52 698.02,-186.14 699.46,-192.99"/>
</g>
<!-- Node26&#45;&gt;Node3 -->
<g id="edge31" class="edge">
<title>Node26&#45;&gt;Node3</title>
<path fill="none" stroke="midnightblue" d="M735.28,-168.34C722.06,-159.82 701.92,-146.09 686.22,-132 669.41,-116.92 652.48,-97.32 641.29,-83.6"/>
<polygon fill="midnightblue" stroke="midnightblue" points="643.81,-81.15 634.82,-75.55 638.35,-85.54 643.81,-81.15"/>
</g>
<!-- Node26&#45;&gt;Node14 -->
<g id="edge32" class="edge">
<title>Node26&#45;&gt;Node14</title>
<path fill="none" stroke="midnightblue" d="M724.02,-168.44C697.27,-159.36 654.81,-144.94 624.91,-134.78"/>
<polygon fill="midnightblue" stroke="midnightblue" points="625.89,-131.42 615.29,-131.52 623.63,-138.05 625.89,-131.42"/>
</g>
<!-- Node28 -->
<g id="node26" class="node">
<title>Node28</title>
<g id="a_node26"><a xlink:href="../../d7/d01/ThermoPhase_8h.html" target="_top" xlink:title="Header file for class ThermoPhase, the base class for phases with thermodynamic properties,...">
<polygon fill="white" stroke="black" points="251.22,-392.5 251.22,-411.5 337.22,-411.5 337.22,-392.5 251.22,-392.5"/>
<text text-anchor="middle" x="294.22" y="-399.5" font-family="Helvetica,sans-Serif" font-size="10.00">ThermoPhase.h</text>
</a>
</g>
</g>
<!-- Node27&#45;&gt;Node28 -->
<g id="edge34" class="edge">
<title>Node27&#45;&gt;Node28</title>
<path fill="none" stroke="midnightblue" d="M294.22,-448.4C294.22,-440.47 294.22,-430.46 294.22,-421.86"/>
<polygon fill="midnightblue" stroke="midnightblue" points="297.72,-421.66 294.22,-411.66 290.72,-421.66 297.72,-421.66"/>
</g>
<!-- Node28&#45;&gt;Node12 -->
<g id="edge47" class="edge">
<title>Node28&#45;&gt;Node12</title>
<path fill="none" stroke="midnightblue" d="M296.53,-392.08C303.3,-365.95 323.17,-289.21 332.4,-253.58"/>
<polygon fill="midnightblue" stroke="midnightblue" points="335.88,-254.13 335,-243.57 329.1,-252.37 335.88,-254.13"/>
</g>
<!-- Node28&#45;&gt;Node18 -->
<g id="edge46" class="edge">
<title>Node28&#45;&gt;Node18</title>
<path fill="none" stroke="midnightblue" d="M286.18,-392.38C267.48,-372.38 219.54,-321.4 178.22,-280 147.45,-249.18 110.58,-214.14 89.73,-194.49"/>
<polygon fill="midnightblue" stroke="midnightblue" points="92.01,-191.83 82.32,-187.53 87.21,-196.93 92.01,-191.83"/>
</g>
<!-- Node29 -->
<g id="node27" class="node">
<title>Node29</title>
<g id="a_node27"><a xlink:href="../../da/d84/Phase_8h.html" target="_top" xlink:title="Header file for class Phase.">
<polygon fill="white" stroke="black" points="716.72,-224.5 716.72,-243.5 769.72,-243.5 769.72,-224.5 716.72,-224.5"/>
<text text-anchor="middle" x="743.22" y="-231.5" font-family="Helvetica,sans-Serif" font-size="10.00">Phase.h</text>
</a>
</g>
</g>
<!-- Node28&#45;&gt;Node29 -->
<g id="edge35" class="edge">
<title>Node28&#45;&gt;Node29</title>
<path fill="none" stroke="midnightblue" d="M305.3,-392.35C334.63,-369.94 417.4,-309.66 496.22,-280 567.67,-253.11 656.97,-241.95 706.25,-237.58"/>
<polygon fill="midnightblue" stroke="midnightblue" points="706.75,-241.05 716.43,-236.73 706.17,-234.08 706.75,-241.05"/>
</g>
<!-- Node33 -->
<g id="node30" class="node">
<title>Node33</title>
<g id="a_node30"><a xlink:href="../../d6/d7a/MultiSpeciesThermo_8h.html" target="_top" xlink:title="Header for a general species thermodynamic property manager for a phase (see MultiSpeciesThermo).">
<polygon fill="white" stroke="black" points="455.22,-336.5 455.22,-355.5 569.22,-355.5 569.22,-336.5 455.22,-336.5"/>
<text text-anchor="middle" x="512.22" y="-343.5" font-family="Helvetica,sans-Serif" font-size="10.00">MultiSpeciesThermo.h</text>
</a>
</g>
</g>
<!-- Node28&#45;&gt;Node33 -->
<g id="edge41" class="edge">
<title>Node28&#45;&gt;Node33</title>
<path fill="none" stroke="midnightblue" d="M328.76,-392.44C366.47,-383.1 426.96,-368.12 468.08,-357.93"/>
<polygon fill="midnightblue" stroke="midnightblue" points="468.97,-361.32 477.83,-355.52 467.29,-354.52 468.97,-361.32"/>
</g>
<!-- Node29&#45;&gt;Node13 -->
<g id="edge36" class="edge">
<title>Node29&#45;&gt;Node13</title>
<path fill="none" stroke="midnightblue" d="M721.51,-224.44C698.86,-215.52 663.14,-201.44 637.46,-191.32"/>
<polygon fill="midnightblue" stroke="midnightblue" points="638.41,-187.93 627.82,-187.52 635.84,-194.44 638.41,-187.93"/>
</g>
<!-- Node30 -->
<g id="node28" class="node">
<title>Node30</title>
<g id="a_node28"><a xlink:href="../../d9/dda/Elements_8h.html" target="_top" xlink:title="Contains the getElementWeight function and the definitions of element constraint types.">
<polygon fill="white" stroke="black" points="695.22,-112.5 695.22,-131.5 829.22,-131.5 829.22,-112.5 695.22,-112.5"/>
<text text-anchor="middle" x="762.22" y="-119.5" font-family="Helvetica,sans-Serif" font-size="10.00">cantera/thermo/Elements.h</text>
</a>
</g>
</g>
<!-- Node29&#45;&gt;Node30 -->
<g id="edge37" class="edge">
<title>Node29&#45;&gt;Node30</title>
<path fill="none" stroke="midnightblue" d="M767.68,-224.44C783.78,-217.38 803.59,-205.63 813.22,-188 823.61,-168.96 803.92,-149.73 786.07,-137.18"/>
<polygon fill="midnightblue" stroke="midnightblue" points="787.86,-134.17 777.59,-131.58 784.01,-140.01 787.86,-134.17"/>
</g>
<!-- Node31 -->
<g id="node29" class="node">
<title>Node31</title>
<g id="a_node29"><a xlink:href="../../d6/df6/ValueCache_8h.html" target="_top" xlink:title=" ">
<polygon fill="white" stroke="red" points="847.72,-112.5 847.72,-131.5 984.72,-131.5 984.72,-112.5 847.72,-112.5"/>
<text text-anchor="middle" x="916.22" y="-119.5" font-family="Helvetica,sans-Serif" font-size="10.00">cantera/base/ValueCache.h</text>
</a>
</g>
</g>
<!-- Node29&#45;&gt;Node31 -->
<g id="edge39" class="edge">
<title>Node29&#45;&gt;Node31</title>
<path fill="none" stroke="midnightblue" d="M761.23,-224.44C778.74,-215.9 805.89,-202.05 828.22,-188 853.13,-172.32 880.13,-151.81 897.56,-138.05"/>
<polygon fill="midnightblue" stroke="midnightblue" points="900.1,-140.51 905.74,-131.54 895.74,-135.03 900.1,-140.51"/>
</g>
<!-- Node30&#45;&gt;Node3 -->
<g id="edge38" class="edge">
<title>Node30&#45;&gt;Node3</title>
<path fill="none" stroke="midnightblue" d="M740.98,-112.44C718.83,-103.52 683.9,-89.44 658.78,-79.32"/>
<polygon fill="midnightblue" stroke="midnightblue" points="659.93,-76.01 649.35,-75.52 657.32,-82.5 659.93,-76.01"/>
</g>
<!-- Node31&#45;&gt;Node3 -->
<g id="edge40" class="edge">
<title>Node31&#45;&gt;Node3</title>
<path fill="none" stroke="midnightblue" d="M870.58,-112.44C819.92,-102.94 738.14,-87.61 683.79,-77.42"/>
<polygon fill="midnightblue" stroke="midnightblue" points="684.11,-73.92 673.64,-75.52 682.82,-80.8 684.11,-73.92"/>
</g>
<!-- Node34 -->
<g id="node31" class="node">
<title>Node34</title>
<g id="a_node31"><a xlink:href="../../d4/d87/SpeciesThermoInterpType_8h.html" target="_top" xlink:title="Pure Virtual Base class for individual species reference state thermodynamic managers and text for th...">
<polygon fill="white" stroke="black" points="504.72,-280.5 504.72,-299.5 643.72,-299.5 643.72,-280.5 504.72,-280.5"/>
<text text-anchor="middle" x="574.22" y="-287.5" font-family="Helvetica,sans-Serif" font-size="10.00">SpeciesThermoInterpType.h</text>
</a>
</g>
</g>
<!-- Node33&#45;&gt;Node34 -->
<g id="edge42" class="edge">
<title>Node33&#45;&gt;Node34</title>
<path fill="none" stroke="midnightblue" d="M522.18,-336.32C531.34,-328.34 545.15,-316.31 556.24,-306.65"/>
<polygon fill="midnightblue" stroke="midnightblue" points="558.83,-309.04 564.07,-299.83 554.23,-303.76 558.83,-309.04"/>
</g>
<!-- Node34&#45;&gt;Node3 -->
<g id="edge43" class="edge">
<title>Node34&#45;&gt;Node3</title>
<path fill="none" stroke="midnightblue" d="M644.07,-287.38C743.42,-280.75 921.54,-251.8 994.22,-132 998.83,-124.4 1000.1,-118.66 994.22,-112 974.86,-90.12 797.13,-76.57 696.64,-70.59"/>
<polygon fill="midnightblue" stroke="midnightblue" points="696.76,-67.09 686.57,-70 696.35,-74.08 696.76,-67.09"/>
</g>
<!-- Node34&#45;&gt;Node12 -->
<g id="edge45" class="edge">
<title>Node34&#45;&gt;Node12</title>
<path fill="none" stroke="midnightblue" d="M536.66,-280.44C495.4,-271.04 429.07,-255.93 384.35,-245.74"/>
<polygon fill="midnightblue" stroke="midnightblue" points="385.12,-242.33 374.59,-243.52 383.57,-249.15 385.12,-242.33"/>
</g>
<!-- Node34&#45;&gt;Node13 -->
<g id="edge44" class="edge">
<title>Node34&#45;&gt;Node13</title>
<path fill="none" stroke="midnightblue" d="M576.73,-280.37C581.91,-262.54 593.91,-221.3 600.9,-197.27"/>
<polygon fill="midnightblue" stroke="midnightblue" points="604.28,-198.17 603.72,-187.59 597.56,-196.22 604.28,-198.17"/>
</g>
</g>
</svg>
        <g id="navigator" transform="translate(0 0)" fill="#404254">
                <rect fill="#f2f5e9" fill-opacity="0.5" stroke="#606060" stroke-width=".5" x="0" y="0" width="60" height="60"/>
                <use id="zoomplus" xlink:href="#zoomPlus" x="17" y="9" onmousedown="handleZoom(evt,'in')"/>
                <use id="zoomminus" xlink:href="#zoomMin" x="42" y="9" onmousedown="handleZoom(evt,'out')"/>
                <use id="reset" xlink:href="#resetDef" x="30" y="36" onmousedown="handleReset()"/>
                <g id="arrowUp" xlink:href="#dirArrow" transform="translate(30 24)" onmousedown="handlePan(0,-1)">
                  <use xlink:href="#rim" fill="#404040">
                        <set attributeName="fill" to="#808080" begin="arrowUp.mouseover" end="arrowUp.mouseout"/>
                  </use>
                  <path fill="none" stroke="white" stroke-width="1.5" d="M0,-3.0v7 M-2.5,-0.5L0,-3.0L2.5,-0.5"/>
                </g>
                <g id="arrowRight" xlink:href="#dirArrow" transform="rotate(90) translate(36 -43)" onmousedown="handlePan(1,0)">
                  <use xlink:href="#rim" fill="#404040">
                        <set attributeName="fill" to="#808080" begin="arrowRight.mouseover" end="arrowRight.mouseout"/>
                  </use>
                  <path fill="none" stroke="white" stroke-width="1.5" d="M0,-3.0v7 M-2.5,-0.5L0,-3.0L2.5,-0.5"/>
                </g>
                <g id="arrowDown" xlink:href="#dirArrow" transform="rotate(180) translate(-30 -48)" onmousedown="handlePan(0,1)">
                  <use xlink:href="#rim" fill="#404040">
                        <set attributeName="fill" to="#808080" begin="arrowDown.mouseover" end="arrowDown.mouseout"/>
                  </use>
                  <path fill="none" stroke="white" stroke-width="1.5" d="M0,-3.0v7 M-2.5,-0.5L0,-3.0L2.5,-0.5"/>
                </g>
                <g id="arrowLeft" xlink:href="#dirArrow" transform="rotate(270) translate(-36 17)" onmousedown="handlePan(-1,0)">
                  <use xlink:href="#rim" fill="#404040">
                        <set attributeName="fill" to="#808080" begin="arrowLeft.mouseover" end="arrowLeft.mouseout"/>
                  </use>
                  <path fill="none" stroke="white" stroke-width="1.5" d="M0,-3.0v7 M-2.5,-0.5L0,-3.0L2.5,-0.5"/>
                </g>
        </g>
        <svg viewBox="0 0 15 15" width="100%" height="30px" preserveAspectRatio="xMaxYMin meet">
         <g id="arrow_out" transform="scale(0.3 0.3)">
          <a xlink:href="PDSSFactory_8h__incl_org.svg" target="_base">
           <rect id="button" ry="5" rx="5" y="6" x="6" height="38" width="38"
                fill="#f2f5e9" fill-opacity="0.5" stroke="#606060" stroke-width="1.0"/>
           <path id="arrow"
             d="M 11.500037,31.436501 C 11.940474,20.09759 22.043105,11.32322 32.158766,21.979434 L 37.068811,17.246167 C 37.068811,17.246167 37.088388,32 37.088388,32 L 22.160133,31.978069 C 22.160133,31.978069 26.997745,27.140456 26.997745,27.140456 C 18.528582,18.264221 13.291696,25.230495 11.500037,31.436501 z"
             style="fill:#404040;"/>
          </a>
         </g>
        </svg>
</svg>
